<svg width="149" height="294" viewBox="0 0 149 294" xmlns="http://www.w3.org/2000/svg"><title>Ambassador</title><g fill="none" fill-rule="evenodd"><path d="M75.41 249.674c5.8-.268 9.51 2.785 16.282-1.37 7.958-2.7 29.733 5.675 29.733 5.675-3.668-21.994-4.4-22.497-4.247-39.73-.093-14.28-4.134-19.408-4.248-29.798-1.553-9.335-4.31-21.027-2.832-29.797 1.79-11.455-1.174-30.516-1.416-32.635-1.31-4.855-3.274-10.43-8.495-11.352-3.84-1.225-19.03-1.405-24.778-1.418h-.71c-5.624-.01-18.524-.33-24.776 2.837-7.332 4.394-7.552 14.64-9.91 19.865-1.357 7.595 1.317 22.743 0 38.31-1.32 11.388-6.804 22.47-7.08 32.636-.83 8.358 1.393 18.157 1.415 25.54-1.004 10.332-4.248 12.758-4.248 26.96 0 0 19.96-8.7 26.9-5.675 8.02 3.846 11.285-.315 17.7-.047v.047c.117-.01.233-.02.348-.028.12.007.24.017.36.028v-.05z" fill="#F69A98"/><path fill="#F69A98" d="M54.647 213.43h41.15v-26.77h-41.15"/><path d="M89.58 280c-4.63 0-8.38-3.762-8.38-8.402v-76.82H69.246v76.82c0 4.64-3.753 8.402-8.383 8.402-4.63 0-8.383-3.762-8.383-8.402v-85.22c0-4.64 3.754-8.402 8.384-8.402H89.58c4.632 0 8.383 3.76 8.383 8.402v85.22c0 4.64-3.75 8.402-8.383 8.402" fill="#AAA"/><path d="M91.63 126.602h-.007l-31.21-.022c-2.908-.002-5.63-1.443-7.274-3.854L8.55 57.44c-2.758-4.04-1.738-9.565 2.286-12.34 4.018-2.773 9.516-1.745 12.274 2.295l41.96 61.437 21.722.015 38.933-61.352c2.62-4.134 8.08-5.348 12.19-2.71 4.115 2.636 5.32 8.12 2.697 12.255L99.077 122.5c-1.623 2.555-4.43 4.102-7.446 4.102" fill="#ECECEC"/><path fill="#ECECEC" d="M81.693 108.833v-6.11h-15.55v6.11h-9.33v51.053h35.374v-51.053H81.693"/><path d="M52.12 185.21l-.722-76.698h14.44c-.046 0 1.604 9.464 7.58 9.407 6.004.056 7.99-9.408 7.94-9.408h18.048l-1.082 76.7H52.12z" fill="#ECECEC"/><path fill="#AAA" d="M58.83 101.02l4.38 20.45 12.908-6.043L58.83 101.02"/><path fill="#AAA" d="M90.56 103.324l-4.78 19.852-14.298-8.37 19.077-11.482"/><path d="M71.43 109.96l-4.51 6.78s2.855 10.243 6.914 9.64c4.058-.603 6.162-6.628 6.914-9.34.75-2.712-9.32-7.08-9.32-7.08" fill="#EF5350"/><path d="M71.885 123.127s-2.453 12.768 9.064 23.437l9.067.725-1.317-9.153s-10.444-2.83-13.334-16.064c0 0-3.48-2.794-3.48 1.054" fill="#EF5350"/><path d="M118.176 60.034c0 24.776-20.038 44.86-44.76 44.86-24.716 0-44.758-20.084-44.758-44.86 0-24.78 20.042-44.863 44.758-44.863 24.722 0 44.76 20.085 44.76 44.864" fill="#FBCFCE"/><path d="M59.7 61.118c0 2.598-2.1 4.703-4.69 4.703-2.592 0-4.694-2.104-4.694-4.702s2.102-4.703 4.694-4.703c2.59 0 4.69 2.105 4.69 4.703M96.52 61.118c0 2.598-2.1 4.703-4.695 4.703-2.59 0-4.69-2.104-4.69-4.702s2.1-4.703 4.69-4.703c2.594 0 4.694 2.105 4.694 4.703" fill="#110F0E"/><path d="M75.226 88.976c-4.52 0-9.832-1.46-15.612-5.83-.72-.543-.848-1.547-.283-2.242.57-.694 1.61-.816 2.334-.27 14.96 11.3 25.758.622 26.21.162.628-.64 1.678-.67 2.348-.067.665.603.7 1.612.07 2.254-.08.09-5.975 5.992-15.066 5.992" fill="#E05437"/><path d="M118.898 57.862c-4.838-.812-19.5-14.69-20.74-20.45-6.52 3.476-10.348 6.174-20.283 9.052-.143-9.467-.237-9.047-2.81-15.64C69.598 45.23 40.622 56.216 28.66 57.862 28.658 33.085 48.858 13 73.775 13c24.92 0 45.123 20.085 45.123 44.862" fill="#3E4551"/></g></svg>