<?xml version="1.0" encoding="UTF-8"?>
<svg width="68px" height="68px" viewBox="0 0 68 68" version="1.1" xmlns="http://www.w3.org/2000/svg" xmlns:xlink="http://www.w3.org/1999/xlink">
    <!-- Generator: Sketch 42 (36781) - http://www.bohemiancoding.com/sketch -->
    <title>Bag 24x24</title>
    <desc>Created with Sketch.</desc>
    <defs></defs>
    <g id="Page-1" stroke="none" stroke-width="1" fill="none" fill-rule="evenodd">
        <g id="Student-Page-Final---6th-Feb" transform="translate(-807.000000, -2042.000000)">
            <g id="Student-Verification" transform="translate(115.000000, 1658.000000)">
                <g id="Bag-24x24" transform="translate(701.000000, 388.000000)">
                    <g transform="translate(0.468750, 0.000000)">
                        <polygon id="Rectangle-6" fill="#CFCFCF" points="2.67045455 14.5809704 2.67045455 10.5952381 41.3920455 10.5952381 41.3920455 14.5809704"></polygon>
                        <rect id="Rectangle-5" fill="#ECECEC" x="0" y="13.8196555" width="44.0625" height="46.704154"></rect>
                        <path d="M12.1464331,17.9655522 C12.1464331,17.9655522 10.1168877,0 22.1339331,0 C34.1509786,0 32.1748422,17.9655522 32.1748422,17.9655522" id="Path-2" stroke="#F69A98" stroke-width="1.62380952"></path>
                        <ellipse id="Oval" fill="#F69A98" cx="12.0170455" cy="18.656535" rx="2.00284091" ry="2.07294833"></ellipse>
                        <ellipse id="Oval-Copy" fill="#F69A98" cx="32.1789447" cy="18.656535" rx="2.00284091" ry="2.07294833"></ellipse>
                    </g>
                    <g id="%" transform="translate(10.750000, 29.047619)">
                        <path d="M20.9855,14.964153 C21.286377,15.7222857 21.4535738,16.208993 21.2185738,16.5872849 C20.8907295,17.1181327 20.1576066,17.2799813 19.3824918,17.4491866 C18.6528361,17.6094863 17.8989098,17.7744325 17.321041,18.2630757 C16.7959508,18.7064169 16.5759754,19.3778173 16.3640902,20.0267603 C16.1109836,20.8011553 15.9260656,21.2820546 15.5046066,21.4210585 C14.9371393,21.6073005 14.2618033,21.2727619 13.5467869,20.8948571 C12.8860902,20.545605 12.2030492,20.1855113 11.447582,20.1855113 C10.761459,20.1855113 10.1639426,20.5576081 9.58607377,20.9173146 C9.00512295,21.2805059 8.4692459,21.6057518 8.03584426,21.4303513 C7.45797541,21.1972584 7.17366393,20.4999157 6.87278689,19.7619173 C6.58963115,19.0676721 6.29645902,18.3494208 5.71704918,17.8623263 C5.19195902,17.4189852 4.49504918,17.3190882 3.82240984,17.2211272 C3.01878689,17.1045808 2.51604098,17.0062326 2.30685246,16.6112912 C2.01368033,16.0595347 2.24059016,15.342445 2.48290984,14.5816019 C2.71020492,13.8664481 2.94520492,13.1280625 2.81422131,12.3796097 C2.69518033,11.7004653 2.22556557,11.1738767 1.77290164,10.6643247 C1.23086066,10.0564247 0.908795082,9.65567525 1.00086885,9.21852927 C1.12877049,8.60598283 1.76211475,8.20368462 2.43321311,7.77699297 C3.06386066,7.37624356 3.71685246,6.96155504 4.09477869,6.30370648 C4.43803279,5.70626073 4.41530328,5.00001249 4.39411475,4.31777049 C4.36868852,3.50271975 4.37754918,2.98697268 4.72812295,2.71167525 C4.97044262,2.52117408 5.27170492,2.43637783 5.7062623,2.43637783 C6.02986885,2.43637783 6.37928689,2.48322873 6.74796721,2.534726 C7.13745082,2.58777205 7.5392623,2.6419797 7.9379918,2.6419797 C8.32786066,2.6419797 8.66340984,2.58932084 8.96313115,2.47858236 C9.6072623,2.24277908 10.0418197,1.68753786 10.4617377,1.15088212 C10.8878197,0.606095238 11.2565,0.136037471 11.7438361,0.136037471 L11.7438361,0.136037471 C12.365623,0.155397346 12.8710656,0.713736144 13.4054016,1.30343794 C13.9081475,1.85867916 14.4270738,2.43173146 15.1359262,2.69192818 C15.3647623,2.77517564 15.6128607,2.81583138 15.8960164,2.81583138 C16.3113115,2.81583138 16.7296885,2.72832475 17.134582,2.64352849 C17.4986393,2.56647619 17.8415082,2.49523185 18.1412295,2.49523185 C18.419377,2.49523185 18.613541,2.55757065 18.7657131,2.69502576 C19.2291639,3.11242467 19.2592131,3.86552381 19.2908033,4.66276347 C19.3208525,5.41276503 19.3509016,6.18716003 19.7288279,6.84539578 C20.072082,7.44284153 20.6919426,7.77699297 21.291,8.0991413 C22.0056311,8.48479001 22.4451967,8.75118189 22.508377,9.19103825 C22.5969836,9.81132865 22.1381557,10.4072256 21.6519754,11.0379703 C21.1962295,11.6307697 20.7235328,12.2448649 20.5925492,12.9937049 C20.4708115,13.6728493 20.7323934,14.3291491 20.9855,14.964153 Z" id="Fill-1" fill="#FBCFCE"></path>
                        <polygon id="Fill-2" fill="#FCFCFC" points="7.95918033 15.4589914 15.0908525 6.49575644 15.7681148 7.04054333 8.63644262 16.0033911"></polygon>
                        <path d="M10.8261803,8.79803279 C10.8261803,7.73478845 9.96515574,6.86940203 8.90727049,6.86940203 C7.84938525,6.86940203 6.9887459,7.73478845 6.9887459,8.79803279 C6.9887459,9.86127713 7.84938525,10.7262763 8.90727049,10.7262763 C9.96515574,10.7262763 10.8261803,9.86127713 10.8261803,8.79803279 Z" id="Fill-3" fill="#FCFCFC"></path>
                        <path d="M14.6740164,12.0210648 C13.6161311,12.0210648 12.7551066,12.886064 12.7551066,13.9493084 C12.7551066,15.0125527 13.6161311,15.8779391 14.6740164,15.8779391 C15.7319016,15.8779391 16.592541,15.0125527 16.592541,13.9493084 C16.592541,12.886064 15.7319016,12.0210648 14.6740164,12.0210648 Z" id="Fill-4" fill="#FCFCFC"></path>
                    </g>
                </g>
            </g>
        </g>
    </g>
</svg>