<svg width="62" height="136" viewBox="0 0 62 136" xmlns="http://www.w3.org/2000/svg"><title>Ballon</title><g fill="none" fill-rule="evenodd"><path d="M58.032 39.378c0-17.923-12.145-32.45-27.125-32.45S3.78 21.454 3.78 39.377c0 17.035 10.976 30.994 24.927 32.335l-4.525 8.025h13.45l-4.526-8.025c13.95-1.34 24.926-15.3 24.926-32.335" fill="#FFEBEB"/><path d="M25.496 78.96h10.82l-3.867-6.858c-.13-.23-.137-.51-.02-.746.12-.235.348-.392.605-.417 13.59-1.307 24.238-15.17 24.238-31.562 0-17.465-11.828-31.673-26.366-31.673-14.54 0-26.367 14.208-26.367 31.673 0 16.392 10.647 30.255 24.238 31.56.257.026.485.183.603.418.12.236.114.516-.016.746l-3.868 6.858zm12.135 1.555H24.183c-.272 0-.522-.15-.657-.39-.136-.24-.136-.536 0-.776l3.95-7.004c-6.536-.957-12.556-4.628-17.057-10.432-4.77-6.15-7.396-14.154-7.396-22.536 0-18.322 12.51-33.228 27.885-33.228 15.375 0 27.884 14.906 27.884 33.228 0 8.382-2.627 16.386-7.395 22.536-4.5 5.804-10.52 9.475-17.056 10.432l3.948 7.003c.136.24.136.536 0 .776-.135.24-.385.39-.657.39z" fill="#CFCFCF"/><path d="M51.077 38.18c0 13.248-9.9 23.987-22.114 23.987-12.213 0-22.114-10.74-22.114-23.986 0-13.247 9.9-23.986 22.113-23.986s22.114 10.74 22.114 23.987" fill="#F69A98"/><path d="M28.958 26.925c0-.428-.124-.75-.37-.963-.248-.214-.52-.32-.816-.32-.296 0-.57.106-.815.32-.248.214-.37.535-.37.963V52.02c0 .426.122.748.37.96.246.215.52.322.815.322.297 0 .568-.107.815-.32.247-.214.37-.536.37-.963V26.924zm3.163 25.013c0 .567-.123 1.063-.37 1.488-.247.425-.577.78-.99 1.062-.41.284-.876.496-1.394.638-.52.142-1.05.213-1.594.213s-1.075-.072-1.594-.214c-.52-.142-.984-.354-1.396-.638-.412-.283-.74-.637-.988-1.062-.247-.425-.37-.92-.37-1.488V27.005c0-.567.123-1.063.37-1.488.247-.425.576-.78.988-1.062.412-.284.877-.496 1.396-.638.52-.142 1.05-.212 1.594-.212s1.075.07 1.594.212c.518.142.984.354 1.395.638.413.283.743.637.99 1.062.247.425.37.92.37 1.488v24.933zM45.84 32.424c0-.113-.057-.204-.167-.27-.11-.068-.24-.102-.39-.102-.16 0-.303.034-.428.1-.125.068-.188.16-.188.272v6.28c0 .056.05.127.15.212.1.085.256.127.466.127.15 0 .28-.033.39-.1.11-.067.166-.148.166-.24v-6.28zm1.896 6.048c0 .22-.066.424-.196.615-.13.19-.31.36-.533.504-.224.147-.486.262-.785.347-.3.085-.612.126-.94.126-.347 0-.674-.04-.98-.126-.306-.085-.572-.202-.798-.35-.226-.15-.405-.324-.537-.526-.13-.2-.197-.414-.197-.64v-5.754c0-.226.066-.438.197-.636.132-.2.31-.372.537-.52.226-.148.492-.265.798-.35.306-.085.633-.128.98-.128.328 0 .64.04.94.122.3.082.56.193.785.334.224.142.402.31.533.504.13.195.196.41.196.643v5.837zm-4.433-14.846l-2.805 18.71h-1.983l2.806-18.71h1.983zm-6.612 3.686c0-.105-.054-.194-.163-.264-.11-.072-.246-.107-.406-.107-.15 0-.287.036-.412.108-.125.07-.188.16-.188.264v6.27c0 .064.05.137.15.218.1.082.25.122.45.122.16 0 .296-.03.407-.095.11-.064.164-.145.164-.245v-6.27zm1.9 6.03c0 .22-.07.427-.204.62-.136.195-.316.365-.54.51-.225.144-.486.26-.786.343-.3.085-.612.127-.94.127-.336 0-.657-.042-.96-.127-.305-.084-.57-.2-.794-.35-.224-.147-.404-.322-.54-.523-.135-.202-.203-.418-.203-.65v-5.74c0-.22.068-.427.203-.625.136-.197.316-.37.54-.518.225-.15.49-.268.793-.356.303-.088.624-.132.96-.132.327 0 .64.04.94.12.3.083.56.193.785.335.225.14.405.31.54.508.136.197.204.413.204.646v5.813zM14.13 24.17v2.37h4.296l-2.91 28.232h3.172l3.154-30.6H14.13" fill="#ECECEC"/><path d="M31.377 65.978c-.402 0-.738-.323-.758-.74-.02-.427.302-.792.72-.813 8.374-.42 15.62-7.24 18.46-17.38.115-.413.535-.652.938-.535.403.12.636.55.52.962-3.02 10.79-10.81 18.054-19.843 18.506h-.038M27.982 129.842c-.2 0-.402-.08-.55-.242-.29-.312-.276-.804.028-1.1.093-.09 9.248-9.093 8.74-19.268-.287-5.774-2.36-8.57-5.497-12.805-.87-1.174-1.77-2.388-2.736-3.807-4.83-7.083 2.378-13.414 2.45-13.477.323-.277.8-.235 1.07.095.27.328.23.818-.09 1.094-.257.22-6.218 5.486-2.186 11.4.95 1.39 1.84 2.594 2.703 3.756 3.188 4.303 5.492 7.413 5.804 13.665.543 10.898-8.815 20.09-9.213 20.477-.147.142-.335.212-.522.212" fill="#CFCFCF"/></g></svg>