<svg width="157" height="98" viewBox="0 0 157 98" xmlns="http://www.w3.org/2000/svg"><title>Dinner</title><g transform="translate(-1203 -922)" fill="none" fill-rule="evenodd"><path fill="#CFCFCF" d="M1255.812 970.66h51.134l4.356 30.877h-59.12"/><path fill="#F69A98" d="M1264.522 970.66h34.52l-15.97 14.673"/><path d="M1283.153 951.555c-.01 0 5.126-15.993 1.936-14.994-3.17.922-4.76 14.675-4.76 14.673l2.823.322" fill="#ECECEC"/><path d="M1280.008 951.152c.01 0-7.692-18.857-3.55-18.54 4.203.32 5.808 17.9 5.808 17.895l-2.258.645" fill="#ECECEC"/><path d="M1278.475 950.83c-1.194 5.66-3.548 20.085 3.388 19.83 6.814-.256 4.397-14.137 3.145-19.83h-6.533" fill="#F69A98"/><path d="M1267.426 962.116c2.317.01 4.194-1.866 4.194-4.192v-7.9h-10.243v7.9c0 2.326 1.876 4.2 4.194 4.192h.243v7.175h-3.71v1.37h8.79v-1.37h-3.71v-7.174h.243M1297.994 962.116c2.317.01 4.194-1.866 4.194-4.192v-7.9h-10.243v7.9c0 2.326 1.876 4.2 4.194 4.192h.24v7.175h-3.71v1.37h8.792v-1.37h-3.71v-7.174h.242" fill="#CFCFCF"/><g transform="translate(1301.704 926)"><path fill="#CFCFCF" d="M15.002 59.333H40.65l5-28.215 5.646.967-4.678 32.57h-1.532V89H43.07l-2.662-24.346H21.212L18.55 89h-2.016V64.654h-1.532"/><path fill="#F1F1F1" d="M33.633 51.514l-.887 7.98-20.567-.322-2.905 29.264H.968l4.355-4.354 3.63-28.215"/><path d="M23.092 21.12l-4.194.566s-7.904 3.305 2.258 32.004l12.502-1.854s-1.533-14.43-5.323-22.41c-1.745-3.674-2.743-5.16-2.904-5.402-.085-.13-.69-1.036-1.29-1.774-.6-.738-1.048-1.13-1.048-1.13z" fill="#F69A98"/><path fill="#FBCFCE" d="M23.39 26.845l3.468 3.79-8.63 14.187L4.194 29.667l13.55 9.432M5.056 14.688C4.17 5.82 14.09 2.515 17.236 2.032c3.387-.645 13.952-1.29 15.888 7.416 0 0 1.05 4.354-2.984 8.143-4.033 3.79-9.114 4.515-9.114 4.515-1.21.242-13.308 2.338-15.97-7.417z"/><ellipse fill="#666" cx="11.13" cy="13.382" rx="1.371" ry="1.37"/><path d="M.034 7.63s8.835-3.903 12.87-6.25c4.04-2.346 33.136-3.903 18.428 16.724 0 0-23.18-9.66-31.298-10.474z" fill="#3E4551"/><path d="M15.69 14.032c.412 2.22 1.712 3.838 2.906 3.617 1.194-.222 1.83-2.2 1.42-4.42-.412-2.218-1.713-3.837-2.906-3.617-1.194.22-1.83 2.2-1.42 4.42z" fill="#FBCFCE"/></g><g transform="matrix(-1 0 0 1 1261.377 926)"><path fill="#CFCFCF" d="M15.082 59.333H40.73l5-28.215 5.647.967-4.678 32.57h-1.534V89H43.15l-2.662-24.346H21.293L18.63 89h-2.015V64.654h-1.533"/><path fill="#F1F1F1" d="M33.633 51.514l-.887 7.98-20.567-.322-2.905 29.264H.968l4.355-4.354 3.63-28.215"/><path d="M23.092 21.12l-4.194.566s-7.904 3.305 2.258 32.004l12.502-1.854s-1.533-14.43-5.323-22.41c-1.745-3.674-2.743-5.16-2.904-5.402-.085-.13-.69-1.036-1.29-1.774-.6-.738-1.048-1.13-1.048-1.13z" fill="#F69A98"/><path fill="#FBCFCE" d="M23.39 26.845l3.468 3.79-8.63 14.187L4.194 29.667l13.55 9.432M5.056 14.688C4.17 5.82 14.09 2.515 17.236 2.032c3.387-.645 13.952-1.29 15.888 7.416 0 0 1.05 4.354-2.984 8.143-4.033 3.79-9.114 4.515-9.114 4.515-1.21.242-13.308 2.338-15.97-7.417z"/><ellipse fill="#666" cx="11.13" cy="13.382" rx="1.371" ry="1.37"/><path d="M.034 7.63s8.835-3.903 12.87-6.25c4.04-2.346 33.136-3.903 18.428 16.724 0 0-23.18-9.66-31.298-10.474z" fill="#3E4551"/><path d="M15.69 14.032c.412 2.22 1.712 3.838 2.906 3.617 1.194-.222 1.83-2.2 1.42-4.42-.412-2.218-1.713-3.837-2.906-3.617-1.194.22-1.83 2.2-1.42 4.42z" fill="#FBCFCE"/></g><ellipse fill="#CFCFCF" cx="1282" cy="1013" rx="9" ry="1"/><path fill="#CFCFCF" d="M1279.88 1000h4v13h-4z"/></g></svg>