<?xml version="1.0" encoding="UTF-8" standalone="no"?>
<svg width="24px" height="19px" viewBox="0 0 24 19" version="1.1" xmlns="http://www.w3.org/2000/svg" xmlns:xlink="http://www.w3.org/1999/xlink">
    <!-- Generator: Sketch 3.8.3 (29802) - http://www.bohemiancoding.com/sketch -->
    <title>Hammer</title>
    <desc>Created with Sketch.</desc>
    <defs></defs>
    <g id="Page-1" stroke="none" stroke-width="1" fill="none" fill-rule="evenodd">
        <g id="Hammer" transform="translate(-1.000000, -3.000000)" fill="#EF5350">
            <g id="Group">
                <g id="Group-2" transform="translate(11.724745, 11.792893) rotate(15.000000) translate(-11.724745, -11.792893) translate(2.224745, 2.292893)">
                    <polygon id="Shape" points="13.7 10.6 17.5 6.8 12.6 1.9 8.8 5.8 10.6 7.6 0.646267569 17.5694641 1.69887224 18.7145351 11.8 8.8"></polygon>
                    <path d="M8.6,5.3 L12.3,1.7 C12.5,1.4 12.5,1 12.3,0.8 C12,0.6 11.6,0.6 11.4,0.8 L7.7,4.5 C7.5,4.7 7.5,5.1 7.7,5.3 C8,5.5 8.4,5.5 8.6,5.3 L8.6,5.3 Z" id="Shape"></path>
                    <path d="M14,11.7 C14.3,11.9 14.7,11.9 14.9,11.7 L18.6,8 C18.8,7.7 18.8,7.3 18.6,7.1 C18.3,6.9 17.9,6.9 17.7,7.1 L14,10.8 C13.8,11.1 13.8,11.5 14,11.7 L14,11.7 Z" id="Shape"></path>
                </g>
                <path d="M23.6,19.7 L23.3,19.7 L23.3,18.9 L13.8,18.9 L13.8,19.7 L13.5,19.7 C13.1,19.7 12.7,20 12.7,20.5 C12.7,20.9 13,21.3 13.5,21.3 L23.6,21.3 C24,21.3 24.4,21 24.4,20.5 C24.4,20 24,19.7 23.6,19.7 L23.6,19.7 Z" id="Shape"></path>
            </g>
        </g>
    </g>
</svg>