<?xml version="1.0" encoding="UTF-8" standalone="no"?>
<svg width="90px" height="90px" viewBox="0 0 90 90" version="1.1" xmlns="http://www.w3.org/2000/svg" xmlns:xlink="http://www.w3.org/1999/xlink">
    <!-- Generator: Sketch 3.8.3 (29802) - http://www.bohemiancoding.com/sketch -->
    <title>Hello Chat1</title>
    <desc>Created with Sketch.</desc>
    <defs></defs>
    <g id="Page-1" stroke="none" stroke-width="1" fill="none" fill-rule="evenodd">
        <g id="Hello-Chat1">
            <path d="M45.0801239,0.059504 C20.3115177,0.059504 0.2341881,15.1164727 0.2341881,33.6946549 C0.2341881,52.2700409 20.3115196,67.3270096 45.0801239,67.3270096 C46.3592415,67.3270096 47.6212845,67.2781433 48.8731766,67.197638 C50.4728432,59.4075455 58.3290177,53.6527695 68.0852509,53.6527695 C71.9384995,53.6527695 75.4857636,54.5639443 78.4809647,56.1277031 C85.5941925,50.1745323 89.9245835,42.3126167 89.9245835,33.6918587 C89.9245834,15.1164722 69.8472595,0.059504 45.0801239,0.059504 L45.0801239,0.059504 L45.0801239,0.059504 Z" id="Shape" fill="#EF5350"></path>
            <path d="M70.7872772,61.2444687 C69.9177551,61.0949326 69.0151138,61.0116348 68.0852508,61.0116348 C63.3134689,61.0116348 59.1942748,63.0755005 57.200756,66.0736465 C56.3856887,67.2981643 55.9172248,68.6751556 55.9172248,70.1354446 C55.9172248,75.1774444 61.3645476,79.2621994 68.0852508,79.2621994 C74.805954,79.2621994 80.253128,75.1774445 80.253128,70.1354446 C80.2531281,65.791954 76.2057571,62.1671219 70.7872772,61.2444687 L70.7872772,61.2444687 L70.7872772,61.2444687 Z" id="Shape" fill="#EF5350"></path>
            <ellipse id="Oval" fill="#EF5350" cx="47.8426514" cy="83.5983887" rx="8.0732603" ry="6.0552397"></ellipse>
            <text id="Hello!" fill="#FFFFFF" font-family="Candara" font-size="24" font-weight="normal" letter-spacing="0.600000024">
                <tspan x="14" y="39">Hello</tspan>
                <tspan x="69.3593751" y="39" letter-spacing="0.720000029">!</tspan>
            </text>
        </g>
    </g>
</svg>