<?xml version="1.0" encoding="UTF-8" standalone="no"?>
<svg width="104px" height="71px" viewBox="0 0 104 71" version="1.1" xmlns="http://www.w3.org/2000/svg" xmlns:xlink="http://www.w3.org/1999/xlink">
    <!-- Generator: Sketch 3.8.3 (29802) - http://www.bohemiancoding.com/sketch -->
    <title>Judge_Hammer</title>
    <desc>Created with Sketch.</desc>
    <defs></defs>
    <g id="Page-1" stroke="none" stroke-width="1" fill="none" fill-rule="evenodd">
        <g id="Judge_Hammer" transform="translate(1.000000, -16.000000)" fill="#EF5350" stroke="#EF5350">
            <g id="Page-1">
                <g id="Judge_Hammer">
                    <g id="Hammer" transform="translate(12.000000, 0.000000)">
                        <path d="M35.0810233,11 C34.1861905,11 33.2529131,11.3340709 32.5450009,12.038006 L29.9718595,14.633684 C28.6673921,15.931523 28.5918285,17.9346228 29.7107009,19.3438187 L18.7818096,30.2104031 C17.3646596,29.0610401 15.3125097,29.1339524 14.0067167,30.433117 L11.4335753,32.991676 C10.0535442,34.3637529 10.0535442,36.6266857 11.4335753,37.9987626 L24.3774974,50.8313278 C25.7575284,52.2405237 28.0695112,52.2405237 29.4866613,50.8313278 L32.0226837,48.3112135 C33.3284767,47.0120488 33.4411594,44.9347111 32.2838423,43.5626341 L35.3435076,40.5215283 C40.7893937,47.3090007 48.846866,56.4323183 55.8954971,64.2220035 C59.5517176,68.2639964 62.9454538,71.936125 65.5199209,74.7173979 C68.0930624,77.4999965 69.80849,79.3175014 70.2950139,79.7987225 C72.9066,82.3944005 77.15805,82.3944005 79.7683104,79.8358415 C82.3798965,77.2388379 82.3798965,72.9741311 79.7683104,70.4155721 C79.2844379,69.9330252 77.4563276,68.1897584 74.6591466,65.6683184 C71.8619655,63.1084338 68.131507,59.733257 64.0656519,56.099573 C56.1951003,49.1265056 47.0200814,41.1896701 40.1928385,35.7742746 L43.2140592,32.7331687 C44.6312092,33.8454128 46.6833591,33.7711748 47.9891522,32.4733358 L50.6007382,29.9518958 C51.9807693,28.5426999 51.9436503,26.2426482 50.5636193,24.8705712 L37.6196971,12.038006 C36.9462526,11.3340709 36.0129751,11 35.0810233,11 L35.0810233,11 Z M38.6987992,37.2590342 C45.4504784,42.6373107 54.6997353,50.6112652 62.6445249,57.6943639 C66.71038,61.3293736 70.4408385,64.6674314 73.2380195,67.190197 C75.9980816,69.748756 77.9375488,71.5278161 78.2742711,71.861887 C80.1010557,73.6793919 80.1010557,76.5349028 78.2742711,78.3152886 C76.4832798,80.0956745 73.5734161,80.0956745 71.7837505,78.3152886 C71.4483539,77.9812177 69.6202437,76.0894749 67.0842212,73.3095277 C64.5110798,70.5269291 61.1160179,66.8561261 57.4597974,62.8128075 C50.3356026,54.913091 42.2423371,45.7513288 36.8322443,39.0380943 L38.6987992,37.2590342 L38.6987992,37.2590342 Z M16.5427391,31.4737744 C16.9152547,31.4737744 17.289096,31.6222504 17.5860479,31.9178766 L17.7729685,32.0663526 C17.8485322,32.3633045 18.1096908,32.5860184 18.3695237,32.6973754 L29.7836132,44.0093877 C29.8949701,44.2678949 30.1190098,44.4906089 30.3788427,44.6019658 L30.5286443,44.7133228 C31.1251995,45.3072266 31.1636442,46.2338757 30.5644376,46.8291052 L27.9912962,49.3876642 C27.3960667,49.981568 26.4641149,49.981568 25.8649084,49.3876642 L12.9209862,36.555099 C12.3257567,35.9625209 12.36155,35.0345461 12.9594309,34.4406423 L15.4941276,31.9178766 C15.7963823,31.6209247 16.1688979,31.4737744 16.5427391,31.4737744 L16.5427391,31.4737744 Z M31.2007632,20.8285783 L41.7213455,31.2868538 L37.953768,34.9589825 C37.916649,34.9947758 37.8782044,35.0332204 37.8410854,35.0703394 L34.6700631,38.2599212 C34.6342698,38.2957145 34.5587061,38.3341592 34.5215871,38.4070715 L30.8282476,42.0792002 L20.3103166,31.6580437 L31.2007632,20.8285783 L31.2007632,20.8285783 Z M35.0810233,13.0773378 C35.4535389,13.0773378 35.8644992,13.2258137 36.1641024,13.5227657 L49.0695799,26.3553308 C49.6661351,26.9492347 49.7032541,27.8387647 49.1053732,28.4326686 L46.4951128,31.0283465 C45.8985576,31.6222504 45.0023991,31.5851314 44.4058439,30.9912275 L44.1818043,30.8056326 C44.0704473,30.5829187 43.9219714,30.4344427 43.6979318,30.3230857 L32.021358,18.6770026 C32.021358,18.6770026 31.9855647,18.6398836 31.9855647,18.6027646 L31.910001,18.5656456 C31.872882,18.5285266 31.8344374,18.5285266 31.7986441,18.4914076 L31.4619218,18.1573367 C30.8653666,17.5634329 30.8653666,16.7110218 31.4619218,16.1171179 L34.0350632,13.52144 C34.3346665,13.2258137 34.7071821,13.0773378 35.0810233,13.0773378 L35.0810233,13.0773378 Z" id="Combined-Shape" transform="translate(46.062776, 46.375073) rotate(-20.000000) translate(-46.062776, -46.375073) "></path>
                    </g>
                    <g id="Board" transform="translate(0.000000, 67.000000)">
                        <path d="M12.7927948,0.709862866 C9.8842568,0.709862866 7.49803601,3.08282688 7.49803601,5.97678243 L7.49803601,8.42398442 L5.2589655,8.42398442 C2.35042748,8.42398442 0,10.7611551 0,13.653785 L0,14.1350062 C0,17.0289617 2.3491018,19.3648068 5.2589655,19.3648068 L64.792523,19.3648068 C67.701061,19.3648068 70.0886075,17.0276361 70.0886075,14.1350062 L70.0886075,13.653785 C70.0886075,10.7598294 67.701061,8.42398442 64.792523,8.42398442 L62.5547781,8.42398442 L62.5547781,5.97678243 C62.5547781,3.08282688 60.2056763,0.709862866 57.2958126,0.709862866 L12.7927948,0.709862866 L12.7927948,0.709862866 L12.7927948,0.709862866 L12.7927948,0.709862866 Z M12.7927948,2.82299395 L57.294487,2.82299395 C59.0854782,2.82299395 60.4655093,4.23218989 60.4655093,5.97545675 L60.4655093,8.42265875 L9.62442387,8.42265875 L9.62442387,5.97545675 C9.62442387,4.23218989 11.0044549,2.82299395 12.7927948,2.82299395 L12.7927948,2.82299395 L12.7927948,2.82299395 L12.7927948,2.82299395 Z M5.2589655,10.4999965 L64.792523,10.4999965 C66.5835142,10.4999965 68.0006643,11.8720735 68.0006643,13.6524593 L68.0006643,14.1336805 C68.0006643,15.8769474 66.5835142,17.2861433 64.792523,17.2861433 L5.2589655,17.2861433 C3.50641889,17.2861433 2.08926887,15.8769474 2.08926887,14.1336805 L2.08926887,13.6524593 C2.08926887,11.8720735 3.50509321,10.4999965 5.2589655,10.4999965 L5.2589655,10.4999965 L5.2589655,10.4999965 L5.2589655,10.4999965 Z" id="Shape"></path>
                    </g>
                </g>
            </g>
        </g>
    </g>
</svg>