<?xml version="1.0" encoding="UTF-8"?>
<svg width="149px" height="26px" viewBox="0 0 149 26" version="1.1" xmlns="http://www.w3.org/2000/svg" xmlns:xlink="http://www.w3.org/1999/xlink">
    <!-- Generator: Sketch 41 (35326) - http://www.bohemiancoding.com/sketch -->
    <title>KhaaliJeb Font - 174x30</title>
    <desc>Created with Sketch.</desc>
    <defs></defs>
    <g id="Page-1" stroke="none" stroke-width="1" fill="none" fill-rule="evenodd">
        <g id="KhaaliJeb-Font---174x30" transform="translate(0.000000, -1.000000)" fill="#4A4A4A">
            <g id="KhaaliJeb-Font">
                <path d="M0,0 L150,0 L150,29 L0,29 L0,0 Z M0,0 L150,0 L150,29 L0,29 L0,0 Z M4.58543461,4.31882364 C4.58543461,7.46036828 4.40338892,17.4427146 4.40338892,20.5771997 C4.40338892,20.6195575 4.42614464,20.6477962 4.47924129,20.5983786 L11.230102,11.5690851 C11.2528578,11.1172675 11.2756135,10.6936884 11.3135396,10.3195269 C11.3514658,9.95242506 11.836921,9.57826356 12.2768647,9.55002495 C12.2768647,9.55002495 12.9671213,9.5429653 13.3615535,9.58532321 L14.7496519,9.47942844 C15.0834023,9.45118984 15.3109594,9.74063553 15.295789,10.0583198 C15.2426923,10.9760744 15.0151352,11.3643552 14.1959296,12.0279624 C12.8988541,13.6234436 11.7838243,14.7812262 10.4867489,16.3767074 C10.4108965,16.4614232 10.3577998,16.5673179 10.4943341,16.708511 L15.4930051,22.5256633 C15.9784603,22.79393 16.418404,23.2316284 16.6838873,23.584611 C16.9190296,23.8881759 16.418404,24.5870813 16.1074092,24.8765271 C15.5916132,25.3354044 13.9228611,26.3661134 13.4222355,25.7519238 C13.1036555,25.3707026 12.9291951,24.7847516 12.8230017,24.2199795 L12.6940527,24.0646672 C11.0935678,22.207979 10.1605836,20.5771997 8.54492821,18.7275712 C8.5221725,18.7063922 8.49183155,18.7205115 8.48424632,18.7275712 L5.10881594,23.5281337 C4.95711121,24.8341691 5.38946971,25.8084009 3.79656998,25.9707729 C3.79656998,25.9707729 3.3869672,25.9566536 2.99253488,25.9284151 L1.55133989,25.9566536 C1.21758947,25.9637133 1.0582995,25.7095658 0.982447134,25.3918815 C0.845912872,24.8412288 1.26310089,23.7399233 1.30861232,23.4998952 C1.35412374,23.2951652 1.08864045,6.61321018 1.11139616,4.43177805 C0.845912872,3.91642354 0.899009529,3.12574263 0.929350476,2.65274603 C0.94452095,2.27858453 1.32378279,1.94678094 1.75614129,1.89736338 C1.75614129,1.89736338 2.99253488,1.81264757 3.39455243,1.83382652 L4.31995132,1.81264757 C4.65370174,1.80558792 4.86608836,2.0526757 4.89642932,2.37035999 C4.92677026,2.76570044 4.8736736,3.88112528 4.58543461,4.31882364 L4.58543461,4.31882364 L4.58543461,4.31882364 Z M75.509443,11.7916856 C75.956972,11.742268 76.2831371,12.0952505 76.2755519,12.5329488 C76.2755519,13.1824367 76.1996995,13.8531036 75.9114605,14.6508441 L75.9114605,22.8682778 C76.2983077,23.5389447 76.3058929,24.1531343 76.3134781,24.7955625 C76.3134781,25.2262012 76.0555801,25.5227065 75.6156363,25.614482 C74.7888455,25.7839136 74.227538,25.7980329 73.393162,25.7839136 C72.8166839,25.7203768 72.3994959,25.7274364 72.369155,25.2262012 C72.3463992,24.7885028 72.2629617,24.1743132 72.2705469,23.5883622 C72.2705469,23.510706 72.2705469,23.4824674 72.1871093,23.5460043 C71.5802903,24.0542991 70.222533,25.3320959 69.4260831,25.5650645 C64.2832926,27.0687701 60.1948499,23.4189306 59.9066109,18.5689504 C59.8307585,17.5241221 59.9521223,16.3169218 60.2176056,15.1873776 C61.6360449,9.40552354 69.0316508,7.62649151 71.2313695,10.6056642 C71.5271937,11.0645415 71.3375628,11.6716715 70.8900338,11.6857908 C67.4235806,11.7987452 65.1328391,11.2692714 63.5854508,15.4415251 C61.7270677,23.7224955 68.2731271,26.2074927 72.5436155,21.1810213 C72.6118825,21.0963054 72.6877349,21.00453 72.7560021,20.9127545 L72.6725645,15.039125 C72.4450073,14.2625633 72.2933026,13.401286 72.338814,12.6600226 C72.3615698,12.1587874 72.7787578,11.9469979 73.362821,11.8764014 C73.362821,11.8764014 73.9165433,11.8693417 74.4475099,11.8975803 L75.509443,11.7916856 L75.509443,11.7916856 L75.509443,11.7916856 Z M82.2069808,1.85485791 C82.2069808,1.85485791 82.6469245,1.85485791 83.1020387,1.86897721 C83.1247944,1.83367895 83.1323797,1.8125 83.1323797,1.8125 L83.1627206,1.87603686 C83.1930615,1.87603686 83.2158173,1.87603686 83.2461582,1.88309651 L84.4673813,1.8266193 C84.8921545,1.8125 85.1955641,2.12312464 85.1955641,2.53258439 C85.2031493,3.21737053 85.2334902,4.12806549 84.7859612,4.79873232 L84.8314727,22.6384701 C85.2107345,23.5350458 85.2790017,24.1845337 85.2410754,24.9469759 C85.2107345,25.4270323 84.8163022,25.6317621 84.2625799,25.695299 C84.2625799,25.695299 83.7316133,25.7023586 83.2234025,25.67412 L82.8820668,25.6882393 L82.0021794,25.7235376 C81.5774061,25.7447166 81.2664114,25.4340918 81.2664114,25.0175725 C81.2739966,24.4316215 81.4484571,23.6762388 81.7897927,23.0549896 C81.9794236,20.1958309 81.7366961,6.9166276 81.6911846,4.86226919 C81.4029456,4.14924445 81.190559,3.25972843 81.2284852,2.6031809 C81.2512409,2.13018429 81.6532585,1.91839476 82.2069808,1.85485791 L82.2069808,1.85485791 L82.2069808,1.85485791 Z M91.1241451,9.81457176 C91.1241451,9.81457176 91.5716738,9.80751211 92.0343732,9.82869107 C92.0571289,9.79339281 92.0647148,9.77221386 92.0647148,9.77221386 L92.0950554,9.83575072 L92.1860783,9.83575072 L93.3617901,9.78633316 C93.7941488,9.7651542 94.0672166,10.0898981 94.1051431,10.5064175 C94.1582395,11.1912037 94.1203139,12.0313021 93.6272729,12.6878496 L93.7107108,22.9314031 C93.9837795,23.884456 94.2492623,24.4986456 94.2037509,25.2822669 C94.1809952,25.7623231 93.778978,25.9741126 93.2100849,26.0376495 C93.2100849,26.0376495 92.6715334,26.0447091 92.1557377,26.0164706 L91.8144018,26.0305899 L90.9193437,26.0658881 C90.4869852,26.0870671 90.1684053,25.7693828 90.1759905,25.3458037 C90.1759905,24.752793 90.2366723,23.9903508 90.578008,23.3549822 C90.7676389,20.4534656 90.5249114,14.8410432 90.4794,12.7584461 C90.0773824,12.0736601 90.1001381,11.2335616 90.130479,10.5770141 C90.1608201,10.0898981 90.5628376,9.87810861 91.1241451,9.81457176 L91.1241451,9.81457176 L91.1241451,9.81457176 Z M94.2125331,4.30857995 L94.2125331,5.53695922 C94.2352889,6.01701547 94.2277039,5.96759791 94.2277039,5.96759791 C94.1670217,6.49001208 94.0987545,6.95594904 93.4388395,7.02654555 L92.0659111,7.18185787 C91.5956268,7.21009647 91.1101715,7.20303682 91.1101715,7.20303682 C90.677813,7.14655962 90.3516478,6.98418764 90.2454545,6.6453244 C90.1771873,6.50413138 90.1392612,6.34175941 90.1165055,6.15114884 C90.1165055,6.15114884 90.1089202,6.2005664 90.1392612,5.72051013 L90.1923578,4.38623612 C90.2075283,3.98383601 90.4730116,3.82146404 90.8446882,3.70850963 C90.8826144,3.70144998 90.9129553,3.70850963 90.9508815,3.70850963 C91.0267338,3.69439033 91.1025862,3.68027103 91.1860239,3.66615173 C91.1860239,3.66615173 91.6790639,3.60261486 92.1417633,3.63085347 L93.3250608,3.58143591 L93.400913,3.58143591 L93.4995208,3.58143591 C93.9091238,3.57437626 94.220119,3.90617986 94.2125331,4.30857995 L94.2125331,4.30857995 L94.2125331,4.30857995 Z M136.271283,17.2600378 L136.324379,21.7217371 C136.324379,21.7217371 136.331964,22.1947338 136.764323,22.5688952 C138.28137,23.9243482 140.19285,24.0231833 142.028477,23.7972745 C147.125756,23.1689656 147.049904,12.2547452 142.218108,11.5628995 C139.821173,11.0122467 138.076569,12.6924436 136.544351,14.1749703 C136.347135,14.3585212 136.263697,14.5420721 136.256112,14.7891599 C136.233356,15.3892303 136.271283,17.2600378 136.271283,17.2600378 L136.271283,17.2600378 L136.271283,17.2600378 Z M136.263697,5.13861716 C136.263697,6.74821757 136.187845,11.8664645 136.203015,12.1135522 C136.218185,12.4171172 136.453328,12.3112225 136.453328,12.3112225 C138.288955,10.6522045 138.493757,10.3980571 139.859099,9.82622536 C141.603704,9.09908132 143.553109,9.54383932 143.553109,9.54383932 C146.875443,10.1650886 148.180104,13.0595454 148.180104,13.0595454 C149.674396,16.1587322 149.272378,20.9169369 146.920955,23.5360674 C146.708568,23.8396323 144.20544,26.1128399 140.162508,25.7951557 C136.574692,25.5198293 134.033638,23.7831552 133.707473,23.6066639 C133.381307,23.4231129 133.45716,23.1266076 133.45716,23.1266076 L133.45716,22.7453865 L133.290285,5.32216809 C133.077897,4.57384509 132.766903,3.28192898 132.797244,2.57596389 C132.819999,2.11002693 133.222017,1.90529705 133.768154,1.84176019 C133.768154,1.84176019 134.291536,1.83470054 134.799746,1.86293915 L136.005799,1.81352159 C136.422987,1.79234264 136.733982,2.10296728 136.726396,2.51242703 C136.726396,3.20427281 136.733982,4.47500997 136.263697,5.13861716 L136.263697,5.13861716 L136.263697,5.13861716 Z M119.381046,19.3185546 C119.381046,19.3185546 124.273523,19.3185546 127.269692,17.4406875 C129.810746,15.8452063 129.765235,13.8967427 128.908103,12.0400545 C128.908103,12.0400545 127.656539,9.77390659 125.191337,9.59035566 C125.191337,9.59035566 119.494824,8.44669221 116.248344,13.4378654 C116.248344,13.4378654 113.570755,16.8688558 116.096639,21.958864 C119.441728,28.0231042 126.268441,25.3545561 126.268441,25.3545561 C126.268441,25.3545561 128.4985,24.3591453 129.203928,23.2507802 C129.909355,22.1424149 129.287366,21.6905973 129.287366,21.6905973 C129.287366,21.6905973 128.506086,20.7163655 127.391056,21.7188359 C127.391056,21.7188359 126.662873,22.9119169 125.517502,23.4343311 C120.784315,25.6016439 116.483486,19.5656423 119.381046,19.3185546 L119.381046,19.3185546 L119.381046,19.3185546 Z M119.707211,13.8473252 C119.707211,13.8473252 121.9221,10.8116753 124.903099,11.9553387 C127.375886,13.1978373 126.465657,15.2168974 126.048469,15.668715 C124.607274,17.045347 121.011872,17.6171787 118.819739,17.6807156 C118.819739,17.6807156 118.440477,17.8430876 118.417721,17.4548067 C118.250845,16.2546661 119.494824,14.0308761 119.707211,13.8473252 L119.707211,13.8473252 L119.707211,13.8473252 Z M23.3942061,4.66505185 L23.3714504,12.1412221 C23.3714504,12.2753555 23.4321323,12.2400573 23.5307404,12.1694608 C23.8113942,11.9576712 24.4637245,11.152871 25.4194644,10.5033831 C26.7923922,9.57856887 29.4168841,8.85142482 31.5559209,9.70564259 C35.212005,11.3717202 34.7493056,15.5722125 34.7493056,15.5722125 L35.0375446,22.8507126 C35.4471473,23.528439 35.4926588,24.417955 35.4547327,25.0815622 C35.4319769,25.5616185 35.0299594,25.773408 34.4610666,25.8369449 C34.4610666,25.8369449 33.9225148,25.8510642 33.4067187,25.8157659 L32.1703251,25.8722432 C31.7379666,25.8863624 31.4800685,25.5686781 31.4269719,25.1521587 C31.36629,24.6721024 31.5862618,23.4931408 31.9275975,22.9777862 L31.7076257,14.1038051 C31.4648981,11.8658957 29.4548104,11.4211378 29.4548104,11.4211378 C25.7228738,10.8422464 23.7734679,13.7084647 23.4169618,14.2802964 C23.3335242,14.3932508 23.35628,14.3508929 23.35628,14.4779666 L23.3714504,22.4836107 C23.8417351,23.1683968 23.9555136,24.417955 23.9175875,25.1168605 C23.8948317,25.6039764 23.4928142,25.8087062 22.9239214,25.8793027 C22.9239214,25.8793027 22.3853696,25.8863624 21.8695735,25.8510642 L20.63318,25.9075414 C20.2008214,25.9287204 20.0187757,25.6110361 20.0187757,25.187457 C20.026361,24.580327 19.9732644,23.4013653 20.3297705,22.7589371 L20.2159919,4.742708 L20.1325543,4.742708 C19.8063891,4.07910082 19.8670711,3.21782342 19.897412,2.60363379 C19.9277529,2.12357752 20.5118161,1.911788 21.0731236,1.84825114 C21.0731236,1.84825114 21.467556,1.84119149 21.9833521,1.86943009 L23.2197457,1.81295289 C23.6521042,1.79883358 23.8493203,2.11651787 23.8417351,2.53303728 C23.8341499,3.18252516 23.7886384,4.00850431 23.3942061,4.66505185 L23.3942061,4.66505185 L23.3942061,4.66505185 Z M107.192564,1.84169844 C107.192564,1.84169844 107.761458,1.83463878 108.300009,1.86287739 L109.589499,1.81345983 C110.044613,1.79228088 110.370779,2.12408447 110.363193,2.56178283 C110.363193,3.18303211 110.173562,3.98077265 109.817057,4.64437984 L109.930835,14.3725788 C109.877738,17.7894498 110.469387,21.7922718 108.793049,24.2702093 C107.010519,27.1434872 99.3039181,27.7011997 99.0232645,20.6203698 C98.9019009,18.8272185 99.4783789,18.4742359 100.449289,18.5307132 C101.905655,18.6224887 101.306421,20.0979556 101.579489,21.2910367 C101.981507,23.0135914 103.157218,23.9807636 105.000431,23.5995425 C106.608502,23.0983072 106.676769,20.3662224 106.676769,20.3662224 C106.669183,20.3803417 106.585746,7.08701905 106.456796,4.63732019 C106.191314,3.9878323 106.123046,3.20421106 106.153387,2.63237934 C106.183728,2.13114412 106.600916,1.91229494 107.192564,1.84169844 L107.192564,1.84169844 L107.192564,1.84169844 Z M55.0588406,11.7914516 C55.5063696,11.742034 55.8325347,12.1020762 55.8249495,12.5327149 C55.8173643,13.1822028 55.7490971,13.8599293 55.4608581,14.6576698 L55.4608581,22.8680438 C55.8477052,23.5387107 55.8552905,24.1529003 55.8628757,24.7953285 C55.8628757,25.2330269 55.5973924,25.5224726 55.1650339,25.614248 C54.3382431,25.7907393 53.7769355,25.797799 52.9425595,25.7907393 C52.3584963,25.7201428 51.9488935,25.7272025 51.9185526,25.2330269 C51.8957968,24.7882689 51.8123592,24.1740793 51.8199445,23.5951879 C51.8199445,23.5104721 51.8199445,23.4822334 51.7365069,23.5457704 C51.1296879,24.0540652 49.7719306,25.331862 48.9678954,25.5648305 C43.8326902,27.0755958 39.7442475,23.4186966 39.4560085,18.5687164 C39.3801561,17.5238881 39.5015199,16.3166878 39.7670032,15.1942033 C41.1854425,9.40528958 48.5810484,7.62625755 50.780767,10.6054302 C51.0765913,11.0643076 50.8793752,11.6714375 50.4394314,11.6855568 C46.9729782,11.7985113 44.6822367,11.2760971 43.1348484,15.4412911 C41.2764653,23.7222616 47.8149395,26.2072587 52.093013,21.1807873 C52.1612801,21.0960715 52.2371325,21.004296 52.3053997,20.9195802 L52.2219621,15.0459506 C51.9944049,14.2623294 51.8427002,13.4081117 51.8882116,12.6597886 C51.9109673,12.1585534 52.3281554,11.9467639 52.9122186,11.8761674 C52.9122186,11.8761674 53.4659409,11.8691078 53.9969075,11.904406 L55.0588406,11.7914516 L55.0588406,11.7914516 L55.0588406,11.7914516 Z" id="Combined-Shape"></path>
            </g>
        </g>
    </g>
</svg>