<?xml version="1.0" encoding="UTF-8"?>
<svg width="128px" height="128px" viewBox="0 0 128 128" version="1.1" xmlns="http://www.w3.org/2000/svg" xmlns:xlink="http://www.w3.org/1999/xlink">
    <!-- Generator: Sketch 40 (33762) - http://www.bohemiancoding.com/sketch -->
    <title>Logo - Circle</title>
    <desc>Created with Sketch.</desc>
    <defs></defs>
    <g id="Page-1" stroke="none" stroke-width="1" fill="none" fill-rule="evenodd">
        <g id="Logo-URL" transform="translate(1.000000, 1.000000)">
            <circle id="Oval" fill="#EF5350" cx="62.5" cy="62.5" r="62.5"></circle>
            <g id="Logo_Final" transform="translate(28.061224, 13.265306)">
                <g id="Group" transform="translate(-0.000000, -0.000000)">
                    <path d="M39.5621077,48.007508 C39.5621077,48.007508 19.8344296,44.3063945 2.83959003,58.4690372 C2.83959003,58.4690372 0.982113844,70.6848514 10.7605517,78.129866 C10.7605517,78.129866 18.44666,84.398226 19.7063278,88.3988517 L20.4108877,94.3035185 C20.4108877,94.3035185 21.1794986,99.5235862 24.5741964,97.70512 C24.5741964,97.70512 26.3462714,96.1647721 26.5597744,95.030905 C26.7519271,93.8970378 27.7767415,91.1586416 27.7767415,91.1586416 C27.7767415,91.1586416 29.0577596,88.3346705 30.6803825,89.832231 L31.3635921,92.5920209 L31.854649,95.0095112 L32.5378587,96.6568277 C32.5378587,96.6568277 33.2637689,97.5553639 33.4345713,97.5339702 C33.6053737,97.5125765 34.9290924,97.9190572 34.9290924,97.9190572 L36.5730655,97.7906949 L38.0675866,95.8010789 L38.6013441,93.3835885 C38.6013441,93.3835885 38.7721465,91.8860281 38.7934968,91.736272 C38.8361974,91.5651223 39.3486047,90.367074 39.3486047,90.367074 L40.0745149,89.5541126 L41.6544372,89.6396875 L42.4657486,91.3725788 L43.2343594,94.4104871 L43.5973146,95.86526 C43.5973146,95.86526 44.0456709,96.5498591 44.1310721,96.6782214 C44.2164733,96.8065837 44.6861799,97.4270016 44.8142817,97.5553639 C44.9423835,97.6837263 45.6682938,97.9404509 45.6682938,97.9404509 L46.6290573,98.1329944 C46.6290573,98.1329944 47.3549675,97.9832383 47.5471202,97.8334823 C47.7392729,97.6837263 48.3157311,97.0205209 48.3157311,97.0205209 C48.3157311,97.0205209 48.9135395,95.8866538 48.9562401,95.5229605 C48.9989407,95.1592673 49.1910934,94.0254001 49.1910934,93.8970378 C49.1910934,93.7686755 49.233794,93.041289 49.1910934,92.6775957 C49.1483928,92.3139025 49.3405455,91.7576658 49.2124437,91.3939725 C49.0629916,91.0302793 49.2978449,90.0675619 49.2551443,89.8536247 C49.233794,89.6610812 49.3832461,89.1262382 49.4686473,88.7625449 C49.5540485,88.3988517 49.6394497,88.1207333 49.7462012,87.8640087 C49.8529527,87.6072841 50.2799588,86.6873541 50.3013091,86.5803855 C50.3440097,86.4520232 50.6642642,85.8102116 50.792366,85.7246367 C50.9204678,85.6390618 51.432875,85.0400376 51.432875,85.0400376 L59.6740912,77.0815737 C59.6740912,77.0815737 63.5171454,72.0968369 64.200355,69.5509842 C64.8835646,67.0051315 66.6556396,61.8706387 65.7802773,57.3993512 C65.758927,57.33517 49.020291,47.3443027 39.5621077,48.007508 L39.5621077,48.007508 Z" id="Shape" fill="#FFFFFF"></path>
                    <path d="M2.34853311,29.3735778 L2.92499123,18.8692612 C2.92499123,18.8692612 3.82170387,11.5098214 8.9030755,8.42912574 C13.9844471,5.32703632 12.06292,6.69623441 12.06292,6.69623441 C12.06292,6.69623441 22.8021214,0.577630444 34.971793,0.898536247 C47.1414645,1.21944205 55.9591388,6.31114745 55.9591388,6.31114745 C55.9591388,6.31114745 61.1259116,9.22069339 63.7946993,13.8417369 C63.7946993,13.8417369 65.2465197,15.5532346 65.6308252,21.3509327 C66.0151306,27.1486309 67.1466965,44.6700877 67.1466965,44.6700877 L68.0220589,57.9555879 C68.0220589,57.9555879 68.0220589,58.5973995 66.3567354,56.7361459 C64.6914119,54.8748922 61.8945225,52.90667 57.389609,50.3180298 C52.8846955,47.7293897 43.1489582,45.2263244 32.6019096,45.5258365 C22.0548609,45.8253486 15.7138215,48.392595 10.1840936,51.06681 C4.65436561,53.741025 0.512407223,58.0839502 0.512407223,58.0839502 L2.34853311,29.3735778 L2.34853311,29.3735778 L2.34853311,29.3735778 Z" id="Shape" fill="#FBC100"></path>
                    <path d="M2.73283852,18.5483554 C2.94634153,17.3289133 2.2417816,9.26348083 15.9913754,3.78668847 C20.645741,1.79707249 27.3070349,-0.149756041 35.4842002,0.0641811605 C47.9314257,0.470661844 66.3353851,5.07031168 66.5915887,21.0728144 C66.9758941,26.8705125 67.958008,43.8357326 67.9793583,44.3063945 L68.8547206,57.5918947 L68.8547206,57.6346821 C68.8333703,57.8272256 68.4490649,59.0038802 66.612939,56.5863898 C65.8016276,55.6664599 64.6914119,54.7251362 63.2395914,53.6982376 C61.787771,52.6499453 59.9729954,51.5374719 57.7098635,50.2538487 C55.3186298,48.8846506 51.4115247,47.5154525 46.6717579,46.5955225 C42.5938504,45.8039549 37.9181345,45.3546867 33.0929665,45.4830491 C27.8407925,45.6328051 23.6561335,46.3387979 20.0692829,47.3443027 C16.5037826,48.3498076 13.5574411,49.6548245 10.8032523,50.9812351 C5.31622494,53.6340564 1.28101806,58.0197691 1.28101806,58.0411628 C1.15291625,57.9983754 1.04616475,58.0411628 0.832661737,58.105344 C0.768610835,58.0411628 0.512407223,58.0197691 0.512407223,57.9341942 L2.00692829,29.3307903 C2.00692829,29.3307903 2.45528461,20.110097 2.73283852,18.5483554 L2.73283852,18.5483554 Z M3.01039244,29.3949715 L3.01039244,29.3949715 L1.51587137,57.1426265 C2.86094033,55.8162159 6.02078487,52.8210951 10.354896,50.7459042 C13.1304351,49.3980999 16.1194772,48.0930829 19.7276781,47.0661844 C23.3358789,46.0392858 27.5845888,45.333293 32.9008138,45.183537 C37.7900327,45.0551747 42.5084492,45.5044428 46.6290573,46.2960104 C51.432875,47.2373341 55.4253813,48.6065322 57.8806659,50.0185177 C60.1437978,51.3021409 61.9799237,52.4574018 63.4530945,53.5056941 C64.9476155,54.5753801 66.0791815,55.5380975 66.9331935,56.5008149 C67.8726068,57.5491072 68.0007086,57.8272256 68.0220589,57.8914068 L67.9793583,57.5918947 L67.0612953,44.6914814 C67.0612953,44.648694 65.7375767,27.2342058 65.3532712,21.4151139 C64.840864,15.7671718 63.7946993,14.0342804 63.7946993,14.0128867 C61.0405104,8.83560643 56.2153424,6.58926581 56.2153424,6.58926581 L56.2153424,6.58926581 C56.1939921,6.58926581 56.1939921,6.56787209 56.1726418,6.56787209 C56.1512915,6.54647837 47.4830693,1.30501693 35.3347481,1.19804833 C29.7623195,1.02689857 21.3930016,2.37470294 14.6890071,5.6265484 C8.8603749,8.45051946 4.5049135,12.386964 3.99250628,18.3985993 L3.01039244,29.3949715 L3.01039244,29.3949715 Z" id="Shape" fill="#F0B200"></path>
                    <path d="M3.43739845,58.1481314 C3.11714394,60.1591411 3.05309304,68.3957234 7.30180293,73.7655471 C7.70745865,74.2789964 8.9671264,75.7979505 9.03117731,75.840738 L14.753058,81.3389241 C14.7957586,81.3817115 16.9734893,83.5852647 17.0161899,83.6494458 C19.8557799,86.6445667 20.4962889,89.5113252 20.5603398,90.7949484 C20.7097919,93.9184315 20.8378937,96.1861658 22.0548609,97.1488832 C22.631319,97.5981514 23.976388,97.8334823 24.9158012,96.6782214 C26.3676217,94.9025426 27.242984,91.5223348 27.4137864,90.901917 C27.6486397,90.0675619 28.1396967,88.8695135 29.655568,88.8909073 C31.2995412,88.912301 31.5130442,90.4312551 31.6838466,91.3083976 C31.7051969,91.3725788 32.0041011,93.8542503 32.0041011,93.8542503 L32.0041011,93.8542503 C32.0041011,93.8542503 32.3030054,97.0847021 34.1391312,97.4270016 C34.1391312,97.4270016 35.3774487,97.6837263 36.2955116,97.0847021 C37.1281734,96.6568277 37.8327333,95.0095112 38.0035357,93.2766199 C38.2810896,91.1586416 38.4305417,90.4954363 38.4945926,90.3456802 C38.6013441,90.0889556 39.1778023,88.5913952 41.0352784,88.9336947 C42.7006019,89.2546005 42.9995061,91.736272 43.0208564,91.8646344 L43.0208564,91.8646344 C43.0208564,91.8646344 43.5119134,95.3732045 44.8996829,96.8279774 C45.3053386,97.2344581 45.9458477,97.5339702 46.4155543,97.4911828 C49.3405455,97.320033 48.5505844,92.4208711 48.7000365,90.2173179 C48.8494886,88.0779459 49.4259467,86.387842 51.5609768,84.1628951 C53.5679051,82.0663105 55.5107825,80.2478443 56.4501957,79.3920955 C59.3538367,76.7606679 62.8125854,72.0540495 63.8587502,69.1658973 C63.8587502,69.1445036 64.4352083,67.7539117 64.9903161,65.1866653 C65.4386724,63.0900808 65.6735258,60.6939841 65.6308252,58.2978874 C65.4600227,56.2868777 60.8056571,53.056426 54.3578662,50.5533607 C48.9775904,48.4781699 42.4016977,46.9592158 36.1460595,47.1303655 C29.1858614,47.322909 23.4853311,48.0716892 18.2758576,49.7831868 C13.1304351,51.4732907 8.56147069,53.8907811 3.58685056,57.870013 L3.43739845,58.1481314 L3.43739845,58.1481314 Z M6.7039945,74.5143273 C1.25966776,67.1548876 2.62608702,58.3192812 2.62608702,58.2978874 L2.69013792,57.870013 L2.75418882,57.8486193 C7.87826105,53.7196313 12.7034291,51.1309912 18.019654,49.3980999 C23.3145286,47.6438148 29.1004602,46.8950346 36.1460595,46.6810974 C42.5297995,46.5099476 49.233794,48.0502955 54.6994711,50.1682738 C61.4675165,52.7783076 66.3353851,56.3510589 66.5275378,58.7257618 C66.8050917,61.999001 65.2465197,68.6952354 64.6700616,69.7435277 C63.7519987,72.4605302 60.5708038,76.6536993 58.7773785,78.5791341 C56.5996478,80.9110496 52.2868871,84.24847 50.5361624,87.1152285 C50.5361624,87.1152285 49.5753988,88.8695135 49.5540485,91.736272 C49.6608,94.5174557 49.3405455,96.0578035 49.2124437,96.4642842 C49.0416413,96.9563398 48.2303299,98.6892311 46.3301531,98.6250499 C45.6682938,98.6036562 44.8783326,98.5180813 44.2591739,97.9618446 C42.5725001,96.5926465 42.0387426,92.4850523 42.0387426,92.4636585 L42.0387426,92.4422648 C42.0387426,92.4422648 41.8038893,89.9178058 40.5655718,89.9391996 C39.5194071,89.9391996 39.3913053,90.9233107 39.3272544,91.051673 C39.3272544,91.051673 39.3059041,91.1158542 39.2845538,91.201429 C39.2632035,91.2870039 39.156452,91.6934846 38.878898,93.8756441 C38.7507962,95.2662359 38.3237902,96.1219847 37.9608351,96.8493712 C37.6619309,97.4056079 36.3809128,98.6250499 34.7796403,98.5822625 C31.1927897,98.4539002 31.000637,94.4960619 31.000637,94.4746682 L31.000637,94.4746682 L30.7444334,91.6934846 C30.7444334,91.6934846 30.7017328,90.0033807 29.655568,89.9605933 C28.6094033,89.8536247 28.3104991,91.3297914 28.3104991,91.3297914 C28.2250979,91.5437286 27.1789331,95.715504 26.2181696,96.9991272 C25.6844121,97.7265137 24.9798521,98.2827504 24.1258401,98.5180813 C22.4391663,98.9887432 21.3930016,98.0688132 21.3716513,98.0688132 C21.3716513,98.0688132 19.5141751,96.9563398 19.6422769,91.2870039 C19.4501242,86.6659604 15.5643694,83.5210835 15.5643694,83.5210835 L8.8603749,77.0387863 L6.89614721,74.8352331 L6.7039945,74.5143273 L6.7039945,74.5143273 Z" id="Shape" fill="#1F1A17"></path>
                    <path d="M63.0901393,58.3406749 C52.5857913,49.847368 38.6867453,48.927438 38.5586435,48.927438 C36.9787213,48.7562882 35.398799,48.6921071 33.8188767,48.6921071 C24.4674449,48.6921071 15.2227646,51.4732907 7.79285985,56.5222087 L5.10272193,58.3406749 C5.10272193,58.3406749 4.95326982,58.3620686 4.56896441,58.3406749 C4.01385658,58.3192812 2.81823973,58.2764937 1.06751505,58.0411628 C0.362955116,57.9555879 0.149452107,57.7630444 0.149452107,57.7630444 L0.234853311,57.33517 C0.704559932,56.7789333 3.15984454,53.9121748 7.77150955,51.3663221 C13.2158363,48.3712013 20.9659955,44.9054186 32.6873108,44.7556626 L33.8188767,44.7556626 C43.0422067,44.7556626 50.8991175,46.3815853 57.1547557,49.5906433 C65.6308252,54.4470178 67.6377534,57.33517 67.7231546,57.4635324 L67.9366577,57.7416507 C67.9366577,57.7416507 67.6377534,57.8914068 67.1893971,57.9555879 C64.9476155,58.2551 63.9014508,58.3192812 63.4317442,58.3192812 C63.1328399,58.3406749 63.0901393,58.3406749 63.0901393,58.3406749 L63.0901393,58.3406749 Z" id="Shape" fill="#606060" opacity="0.43"></path>
                    <path d="M63.1328399,58.6187932 C52.6284919,50.1254863 38.7294459,49.2055564 38.6013441,49.2055564 C37.0214219,49.0344066 35.4414996,48.9702254 33.8615773,48.9702254 C24.5101455,48.9702254 15.2654652,51.7514091 7.83556045,56.800327 L5.12407223,58.6187932 C5.12407223,58.6187932 4.97462012,58.640187 4.59031471,58.6187932 C4.03520688,58.5973995 2.83959003,58.5546121 1.08886535,58.3192812 C0.384305417,58.2337063 0.170802408,58.0411628 0.170802408,58.0411628 L0.256203612,57.6132884 C0.725910233,57.0570517 3.18119484,54.1902932 7.79285985,51.6444405 C13.2371866,48.6493196 20.9873458,45.183537 32.7086611,45.0337809 L33.840227,45.0337809 C43.063557,45.0337809 50.9204678,46.6597037 57.176106,49.8687617 C65.6521755,54.7251362 67.6591037,57.6132884 67.7445049,57.7416507 L67.958008,58.0197691 C67.958008,58.0197691 67.6591037,58.1695251 67.2107474,58.2337063 C64.9689658,58.5332184 63.9228011,58.5973995 63.4530945,58.5973995 C63.1968908,58.5973995 63.1328399,58.6187932 63.1328399,58.6187932 L63.1328399,58.6187932 Z" id="Shape" fill="#494949" opacity="0.8"></path>
                    <path d="M25.8552145,53.7838125 C27.1789331,53.7838125 28.161047,54.8962859 28.161047,56.5222087 C28.161047,58.1481314 27.2002834,59.5815106 25.8765648,59.5815106 C24.5528461,59.5815106 23.6347832,58.1481314 23.6347832,56.5222087 C23.6561335,54.8748922 24.5314958,53.7838125 25.8552145,53.7838125 L25.8552145,53.7838125 L25.8552145,53.7838125 Z" id="Shape" stroke="#1F1A17" stroke-width="1.02607147" fill="#0A0B0C"></path>
                    <path d="M42.8073534,53.6982376 C44.1310721,53.6982376 45.1131859,54.8107111 45.1131859,56.4366338 C45.1131859,58.0625565 44.1524224,59.4959358 42.8287037,59.4959358 C41.5049851,59.4959358 40.5869221,58.0625565 40.5869221,56.4366338 C40.6082724,54.8107111 41.4836348,53.6982376 42.8073534,53.6982376 L42.8073534,53.6982376 L42.8073534,53.6982376 Z" id="Shape" stroke="#1F1A17" stroke-width="1.02607147" fill="#000000"></path>
                    <path d="M0.0427006019,57.6988633 C0.0427006019,57.6988633 0.0854012038,57.5491072 0.128101806,57.4207449 C0.533757524,56.3296652 9.60763543,47.4298776 25.6630618,45.3118993 C50.3867103,42.8516215 60.5067529,51.4091095 63.4530945,53.3559381 C65.2892203,54.6823487 67.7658552,56.9072956 67.958008,57.6132884 C67.9793583,57.6988633 67.9793583,57.8058319 68.0007086,57.9128005 L67.1893971,57.7416507 C66.612939,56.7361459 64.9476155,55.3241603 63.0260884,53.9335685 C60.3146002,51.9653463 57.1334054,50.0826989 55.8523873,49.5692496 L55.5534831,49.4408873 C52.7992943,48.2856264 41.996042,43.7715514 25.7698133,45.9323172 C8.9030755,48.1786578 0.811311436,57.9128005 0.789961136,57.9341942 L0.298904213,57.5277135 L0.0427006019,57.6988633 L0.0427006019,57.6988633 Z" id="Shape" fill="#AA8100"></path>
                    <path d="M1.68667378,54.6395613 L3.86440447,24.8595028 L4.12060809,20.6663337 C4.80381772,8.81421271 20.3041362,3.93644451 29.9331219,2.61003386 C38.3024399,1.45477297 47.6965723,3.89365707 54.3365159,7.12410881 C60.9764595,10.3331668 63.1968908,17.1149761 63.1968908,17.1149761 C63.1968908,17.1149761 64.2217053,19.4468916 64.3498071,27.2983869 C64.5419598,39.6425635 64.9262652,40.8833992 66.4848372,56.0729405" id="Shape"></path>
                    <g transform="translate(2.348533, 0.568267)" id="Shape" fill="#3F4446">
                        <path d="M34.2657372,1.52409545 L34.180336,1.54548917 L34.0735845,1.56688289 L33.966833,1.58827661 L33.8600815,1.60967033 L33.75333,1.63106405 L33.6465785,1.65245777 L33.5184767,1.67385149 L33.4117252,1.69524521 L33.2836233,1.71663893 L33.1555215,1.73803265 L33.0274197,1.75942637 L32.8993179,1.78082009 L32.7712161,1.80221381 L32.6431143,1.82360754 L32.5150125,1.84500126 L32.3869107,1.86639498 L32.2588089,1.8877887 L32.1307071,1.90918242 L32.0026053,1.93057614 L31.8745035,1.95196986 L31.7464017,1.97336358 L31.6182999,1.9947573 L31.4901981,2.01615102 L31.3620963,2.03754474 L31.2766951,2.05893846 L31.1485933,2.08033218 L31.0204914,2.1017259 L30.8923896,2.12311962 L30.7642878,2.14451334 L30.636186,2.16590706 L30.5080842,2.18730078 L30.3799824,2.2086945 L30.2518806,2.23008822 L30.1237788,2.25148194 L29.995677,2.27287566 L29.8675752,2.29426938 L29.7394734,2.3156631 L29.6113716,2.33705682 L29.5046201,2.35845054 C29.2057159,2.4226317 29.3124674,2.89329354 29.6113716,2.82911238 L29.7181231,2.80771866 L29.8462249,2.78632494 L29.9743267,2.76493122 L30.1024285,2.7435375 L30.2305303,2.72214378 L30.3586321,2.70075006 L30.4867339,2.67935634 L30.6148357,2.65796262 L30.7429375,2.6365689 L30.8710393,2.61517518 L30.9991411,2.59378146 L31.127243,2.57238774 L31.2553448,2.55099402 L31.3834466,2.5296003 L31.5115484,2.50820658 L31.6396502,2.48681286 L31.767752,2.46541914 L31.8958538,2.44402542 L32.0239556,2.4226317 L32.1520574,2.40123798 L32.2801592,2.37984426 L32.408261,2.35845054 L32.5363628,2.33705682 L32.6644646,2.3156631 L32.7925664,2.29426938 L32.9206682,2.27287566 L33.04877,2.25148194 L33.1768718,2.23008822 L33.3049737,2.2086945 L33.4330755,2.18730078 L33.539827,2.16590706 L33.6465785,2.14451334 L33.75333,2.12311962 L33.8600815,2.1017259 L33.966833,2.08033218 L34.0735845,2.05893846 L34.180336,2.03754474 L34.2870875,2.01615102 L34.3724887,1.9947573 L34.3724887,1.9947573 C34.6500426,1.95196986 34.5646414,1.48130801 34.2657372,1.52409545 L34.2657372,1.52409545 Z" transform="translate(31.934010, 2.178229) scale(-1, 1) rotate(10.000000) translate(-31.934010, -2.178229) "></path>
                        <path d="M5.44432674,12.4819019 L5.35892554,12.5674768 L5.27352434,12.6744454 L5.18812313,12.781414 L5.10272193,12.8883826 L5.01732073,12.9953512 L4.93191952,13.1023198 L4.86786862,13.2092884 L4.80381772,13.316257 L4.73976681,13.4232256 L4.67571591,13.5301942 L4.61166501,13.6371628 L4.5476141,13.7441314 L4.4835632,13.8511 L4.4195123,13.9580686 L4.3554614,14.0650372 L4.29141049,14.1720058 L4.22735959,14.2789744 L4.16330869,14.385943 L4.09925778,14.4929116 L4.03520688,14.5998802 L3.97115598,14.7068488 L3.90710508,14.8138174 L3.84305417,14.920786 L3.77900327,15.0277546 L3.71495237,15.1347232 L3.65090146,15.2416918 L3.58685056,15.3486604 L3.54414996,15.455629 L3.50144936,15.5839913 L3.45874876,15.7123537 L3.41604815,15.840716 L3.37334755,15.9690783 L3.33064695,16.0974406 L3.28794635,16.2258029 L3.24524575,16.3541653 L3.20254514,16.4825276 L3.15984454,16.6108899 L3.11714394,16.7392522 L3.11714394,16.7392522 C3.03174274,17.0387643 3.48009906,17.1885203 3.56550026,16.8890083 L3.56550026,16.8890083 L3.60820086,16.7820397 L3.65090146,16.6536773 L3.69360207,16.5467087 L3.73630267,16.4397401 L3.77900327,16.3327715 L3.82170387,16.2258029 L3.86440447,16.1188343 L3.90710508,16.0118657 L3.94980568,15.9048971 L3.99250628,15.7979285 L4.03520688,15.6909599 L4.07790748,15.5839913 L4.12060809,15.4770227 L4.18465899,15.3700541 L4.24870989,15.2630855 L4.31276079,15.1561169 L4.3768117,15.0491483 L4.4408626,14.9421797 L4.5049135,14.8352111 L4.56896441,14.7282425 L4.63301531,14.6212739 L4.69706621,14.5143053 L4.76111711,14.4073367 L4.82516802,14.3003681 L4.88921892,14.1933995 L4.95326982,14.0864309 L5.01732073,13.9794623 L5.08137163,13.8724937 L5.14542253,13.7655251 L5.20947343,13.6585565 L5.27352434,13.5515879 L5.33757524,13.4446193 L5.40162614,13.3376507 L5.46567705,13.2306821 L5.55107825,13.1237135 L5.63647945,13.0167449 L5.72188066,12.9097763 L5.80728186,12.8242014 C5.99943457,12.5246894 5.63647945,12.2251773 5.44432674,12.4819019 L5.44432674,12.4819019 Z"></path>
                        <path d="M10.1200427,8.26733904 L10.0346415,8.31012648 L9.92788995,8.39570136 L9.82113844,8.48127624 L9.71438694,8.56685112 L9.60763543,8.65242601 L9.50088393,8.73800089 L9.39413242,8.82357577 L9.28738092,8.90915065 L9.18062941,8.99472553 L9.07387791,9.08030041 L8.9671264,9.16587529 L8.8603749,9.25145017 L8.75362339,9.33702505 L8.64687189,9.42259993 L8.54012038,9.50817481 L8.43336888,9.59374969 L8.32661737,9.67932457 L8.21986587,9.76489945 L8.11311436,9.85047433 L8.00636286,9.93604922 L7.89961136,10.0216241 L7.79285985,10.107199 L7.68610835,10.1927739 L7.57935684,10.2783487 L7.47260534,10.3639236 L7.36585383,10.4494985 L7.25910233,10.5350734 L7.15235082,10.6206483 L7.06694962,10.7062231 L6.98154841,10.791798 L6.89614721,10.8773729 L6.81074601,10.9629478 L6.7253448,11.0485227 L6.6399436,11.1340975 L6.55454239,11.2196724 L6.46914119,11.3052473 L6.40509029,11.3694285 C6.19158728,11.5833657 6.53319209,11.9256652 6.7466951,11.6903343 L6.81074601,11.6261531 L6.89614721,11.5405782 L6.98154841,11.4550033 L7.06694962,11.3694285 L7.15235082,11.2838536 L7.23775203,11.1982787 L7.32315323,11.1127038 L7.40855443,11.0271289 L7.49395564,10.9415541 L7.57935684,10.8559792 L7.66475804,10.7704043 L7.75015925,10.6848294 L7.85691075,10.5992545 L7.96366226,10.5136797 L8.07041376,10.4281048 L8.17716527,10.3425299 L8.28391677,10.256955 L8.39066828,10.1713801 L8.49741978,10.0858053 L8.60417129,10.0002304 L8.71092279,9.91465549 L8.8176743,9.82908061 L8.9244258,9.74350573 L9.03117731,9.65793085 L9.13792881,9.57235597 L9.24468032,9.48678109 L9.35143182,9.40120621 L9.45818333,9.31563133 L9.56493483,9.23005645 L9.67168634,9.14448157 L9.77843784,9.05890669 L9.88518934,8.97333181 L9.99194085,8.88775693 L10.0986924,8.80218205 L10.2054439,8.73800089 L10.3121954,8.65242601 L10.3975966,8.60963857 L10.3975966,8.60963857 C10.6324499,8.50266996 10.3762463,8.117583 10.1200427,8.26733904 L10.1200427,8.26733904 Z"></path>
                        <path d="M15.6711209,5.3577931 L15.6711209,5.3577931 L15.5430191,5.42197426 L15.4149173,5.48615542 L15.2868155,5.55033658 L15.1587137,5.61451774 L15.0306119,5.6786989 L14.9025101,5.74288006 L14.7744083,5.80706122 L14.6463065,5.87124238 L14.5182047,5.93542355 L14.3901028,5.99960471 L14.262001,6.06378587 L14.1338992,6.12796703 L14.0057974,6.19214819 L13.8776956,6.25632935 L13.7495938,6.32051051 L13.621492,6.38469167 L13.4933902,6.44887283 L13.3652884,6.51305399 L13.2371866,6.57723515 L13.1090848,6.64141631 L12.980983,6.70559747 L12.8528812,6.76977863 L12.7247794,6.83395979 L12.5966776,6.89814095 L12.4685758,6.96232211 L12.340474,7.02650327 L12.2123721,7.09068443 L12.0842703,7.15486559 L11.9561685,7.21904675 L11.8280667,7.28322792 L11.6999649,7.34740908 L11.5718631,7.41159024 L11.4437613,7.4757714 L11.3156595,7.53995256 L11.2302583,7.58274 C10.9527044,7.75388976 11.208908,8.16037044 11.4651116,7.98922068 L11.5505128,7.94643324 L11.6572643,7.88225208 L11.7853661,7.81807092 L11.9134679,7.75388976 L12.0415697,7.6897086 L12.1696715,7.62552744 L12.2977734,7.56134628 L12.4258752,7.49716512 L12.553977,7.43298396 L12.6820788,7.3688028 L12.8101806,7.30462164 L12.9382824,7.24044047 L13.0663842,7.17625931 L13.194486,7.11207815 L13.3225878,7.04789699 L13.4506896,6.98371583 L13.5787914,6.91953467 L13.7068932,6.85535351 L13.834995,6.79117235 L13.9630968,6.72699119 L14.0911986,6.66281003 L14.2193004,6.59862887 L14.3474022,6.53444771 L14.4755041,6.47026655 L14.6036059,6.40608539 L14.7317077,6.34190423 L14.8598095,6.27772307 L14.9879113,6.21354191 L15.1160131,6.14936075 L15.2441149,6.08517959 L15.3722167,6.02099843 L15.5003185,5.95681727 L15.6284203,5.8926361 L15.7565221,5.84984866 L15.8846239,5.7856675 L15.8846239,5.7856675 L15.8846239,5.7856675 C16.1408275,5.6786989 15.9700251,5.2508245 15.6711209,5.3577931 L15.6711209,5.3577931 Z"></path>
                        <path d="M27.7553912,2.10594764 L27.66999,2.12734136 L27.5632385,2.14873508 L27.456487,2.1701288 L27.3497355,2.19152252 L27.242984,2.21291624 L27.1362325,2.23430996 L27.0081307,2.25570368 L26.9013792,2.2770974 L26.7732774,2.29849112 L26.6451756,2.31988484 L26.5170738,2.34127856 L26.388972,2.36267228 L26.2608702,2.384066 L26.1327684,2.40545972 L26.0046666,2.42685344 L25.8765648,2.44824716 L25.748463,2.46964088 L25.6203612,2.4910346 L25.4922593,2.51242832 L25.3641575,2.53382204 L25.2360557,2.55521576 L25.1079539,2.57660948 L24.9798521,2.5980032 L24.8517503,2.61939692 L24.7663491,2.64079064 L24.6382473,2.66218436 L24.5101455,2.68357808 L24.3820437,2.7049718 L24.2539419,2.72636552 L24.1258401,2.74775924 L23.9977383,2.76915296 L23.8696365,2.79054668 L23.7415347,2.8119404 L23.6134329,2.83333412 L23.4853311,2.85472784 L23.3572293,2.87612156 L23.2291274,2.89751528 L23.1010256,2.918909 L22.9942741,2.94030272 C22.6953699,3.00448388 22.8021214,3.47514573 23.1010256,3.41096457 L23.2077771,3.38957085 L23.3358789,3.36817713 L23.4639808,3.34678341 L23.5920826,3.32538969 L23.7201844,3.30399597 L23.8482862,3.28260225 L23.976388,3.26120853 L24.1044898,3.2398148 L24.2325916,3.21842108 L24.3606934,3.19702736 L24.4887952,3.17563364 L24.616897,3.15423992 L24.7449988,3.1328462 L24.8731006,3.11145248 L25.0012024,3.09005876 L25.1293042,3.06866504 L25.257406,3.04727132 L25.3855078,3.0258776 L25.5136096,3.00448388 L25.6417115,2.98309016 L25.7698133,2.96169644 L25.8979151,2.94030272 L26.0260169,2.918909 L26.1541187,2.89751528 L26.2822205,2.87612156 L26.4103223,2.85472784 L26.5384241,2.83333412 L26.6665259,2.8119404 L26.7946277,2.79054668 L26.9227295,2.76915296 L27.029481,2.74775924 L27.1362325,2.72636552 L27.242984,2.7049718 L27.3497355,2.68357808 L27.456487,2.66218436 L27.5632385,2.64079064 L27.66999,2.61939692 L27.7767415,2.5980032 L27.8621428,2.57660948 L27.8621428,2.57660948 C28.1396967,2.53382204 28.0542955,2.0631602 27.7553912,2.10594764 L27.7553912,2.10594764 Z"></path>
                        <path d="M40.3804225,1.78870984 L40.2950213,1.81010357 L40.1882698,1.83149729 L40.0815183,1.85289101 L39.9747668,1.87428473 L39.8680153,1.89567845 L39.7612638,1.91707217 L39.633162,1.93846589 L39.5264105,1.95985961 L39.3983087,1.98125333 L39.2702069,2.00264705 L39.1421051,2.02404077 L39.0140033,2.04543449 L38.8859015,2.06682821 L38.7577997,2.08822193 L38.6296978,2.10961565 L38.501596,2.13100937 L38.3734942,2.15240309 L38.2453924,2.17379681 L38.1172906,2.19519053 L37.9891888,2.21658425 L37.861087,2.23797797 L37.7329852,2.25937169 L37.6048834,2.28076541 L37.4767816,2.30215913 L37.3913804,2.32355285 L37.2632786,2.34494657 L37.1351768,2.36634029 L37.007075,2.38773401 L36.8789732,2.40912773 L36.7508714,2.43052145 L36.6227696,2.45191517 L36.4946677,2.47330889 L36.3665659,2.49470261 L36.2384641,2.51609633 L36.1103623,2.53749005 L35.9822605,2.55888377 L35.8541587,2.58027749 L35.7260569,2.60167121 L35.6193054,2.62306493 C35.3204012,2.68724609 35.4271527,3.15790794 35.7260569,3.09372677 L35.8328084,3.07233305 L35.9609102,3.05093933 L36.089012,3.02954561 L36.2171138,3.00815189 L36.3452156,2.98675817 L36.4733174,2.96536445 L36.6014193,2.94397073 L36.7295211,2.92257701 L36.8576229,2.90118329 L36.9857247,2.87978957 L37.1138265,2.85839585 L37.2419283,2.83700213 L37.3700301,2.81560841 L37.4981319,2.79421469 L37.6262337,2.77282097 L37.7543355,2.75142725 L37.8824373,2.73003353 L38.0105391,2.70863981 L38.1386409,2.68724609 L38.2667427,2.66585237 L38.3948445,2.64445865 L38.5229463,2.62306493 L38.6510481,2.60167121 L38.77915,2.58027749 L38.9072518,2.55888377 L39.0353536,2.53749005 L39.1634554,2.51609633 L39.2915572,2.49470261 L39.419659,2.47330889 L39.5477608,2.45191517 L39.6545123,2.43052145 L39.7612638,2.40912773 L39.8680153,2.38773401 L39.9747668,2.36634029 L40.0815183,2.34494657 L40.1882698,2.32355285 L40.2950213,2.30215913 L40.4017728,2.28076541 L40.487174,2.25937169 L40.487174,2.25937169 C40.7647279,2.21658425 40.6793267,1.7459224 40.3804225,1.78870984 L40.3804225,1.78870984 Z" transform="translate(38.048695, 2.442844) scale(-1, 1) rotate(2.000000) translate(-38.048695, -2.442844) "></path>
                        <path d="M21.6278549,3.36817713 L21.5851543,3.38957085 L21.4570525,3.43235829 L21.3289507,3.47514573 L21.2008489,3.51793317 L21.072747,3.56072061 L20.9446452,3.60350805 L20.8165434,3.64629549 L20.6884416,3.68908293 L20.5603398,3.73187037 L20.432238,3.77465781 L20.3041362,3.81744525 L20.1760344,3.86023269 L20.0479326,3.90302013 L19.9198308,3.94580757 L19.791729,3.98859501 L19.6636272,4.03138245 L19.5355254,4.07416989 L19.4074236,4.11695733 L19.2793218,4.15974477 L19.15122,4.20253221 L19.0231182,4.24531965 L18.8950163,4.28810709 L18.7669145,4.33089453 L18.6388127,4.37368197 L18.5107109,4.41646941 L18.3826091,4.45925685 L18.2545073,4.50204429 L18.1264055,4.54483173 L17.9983037,4.58761917 L17.8702019,4.63040662 L17.7421001,4.67319406 L17.6139983,4.7159815 L17.4858965,4.75876894 L17.3577947,4.80155638 L17.2296929,4.84434382 L17.1442917,4.86573754 C16.8453875,4.97270614 17.0161899,5.42197426 17.3150941,5.31500566 L17.4004953,5.29361194 L17.5285971,5.2508245 L17.6566989,5.20803706 L17.7848007,5.16524962 L17.9129025,5.12246218 L18.0410043,5.07967474 L18.1691061,5.0368873 L18.2972079,4.99409986 L18.4253097,4.95131242 L18.5534115,4.90852498 L18.6815133,4.86573754 L18.8096151,4.8229501 L18.937717,4.78016266 L19.0658188,4.73737522 L19.1939206,4.69458778 L19.3220224,4.65180034 L19.4501242,4.6090129 L19.578226,4.56622545 L19.7063278,4.52343801 L19.8344296,4.48065057 L19.9625314,4.43786313 L20.0906332,4.39507569 L20.218735,4.35228825 L20.3468368,4.30950081 L20.4749386,4.26671337 L20.6030404,4.22392593 L20.7311422,4.18113849 L20.859244,4.13835105 L20.9873458,4.09556361 L21.1154476,4.05277617 L21.2435495,4.00998873 L21.3716513,3.96720129 L21.4997531,3.92441385 L21.6278549,3.88162641 L21.7559567,3.83883897 L21.7986573,3.81744525 L21.7986573,3.81744525 C22.0335106,3.75326409 21.9267591,3.30399597 21.6278549,3.36817713 L21.6278549,3.36817713 Z"></path>
                        <path d="M0.832661737,42.7968034 L0.469706621,47.5889967 C0.44835632,47.9099025 0.939413242,47.9312962 0.939413242,47.6317841 L1.30236836,42.8395908 C1.32371866,42.518685 0.854012038,42.4758976 0.832661737,42.7968034 L0.832661737,42.7968034 Z"></path>
                        <path d="M1.30236836,36.8707429 L0.939413242,41.6629362 C0.918062941,41.983842 1.40911986,42.0052357 1.40911986,41.7057237 L1.77207498,36.9135303 C1.79342528,36.5926245 1.32371866,36.5712308 1.30236836,36.8707429 L1.30236836,36.8707429 Z"></path>
                        <path d="M0.384305417,49.172132 L0.021350301,53.9643253 C-9.92990412e-14,54.2852311 0.491056922,54.3066248 0.491056922,54.0071127 L0.854012038,49.2149194 C0.875362339,48.8940136 0.405655718,48.8512262 0.384305417,49.172132 L0.384305417,49.172132 Z"></path>
                        <path d="M2.199081,24.4195978 L2.1777307,24.633535 L2.1777307,24.633535 L1.83612588,29.2117911 C1.81477558,29.5326969 2.3058325,29.5540906 2.3058325,29.2545785 L2.64743732,24.6763224 L2.64743732,24.6549287 L2.66878762,24.4409915 C2.71148822,24.1414794 2.2204313,24.098692 2.199081,24.4195978 L2.199081,24.4195978 Z"></path>
                        <path d="M1.75072468,30.6451703 L1.38776956,35.4373636 C1.36641926,35.7582694 1.85747618,35.7796632 1.85747618,35.4801511 L2.2204313,30.6879578 C2.2417816,30.367052 1.77207498,30.3456582 1.75072468,30.6451703 L1.75072468,30.6451703 Z"></path>
                        <path d="M2.71148822,18.1512378 L2.69013792,18.2582064 L2.66878762,18.3865687 L2.64743732,18.514931 L2.62608702,18.6432933 L2.60473672,18.7716556 L2.58338642,18.900018 L2.56203612,19.0283803 L2.54068581,19.1567426 L2.51933551,19.2851049 L2.49798521,19.4134672 L2.47663491,19.5418296 L2.45528461,19.6701919 L2.43393431,19.7985542 L2.43393431,19.9269165 L2.43393431,20.0766726 L2.2631319,22.8792499 C2.2417816,23.2001557 2.73283852,23.2215494 2.73283852,22.9006436 L2.90364093,20.0980663 L2.90364093,19.969704 L2.90364093,19.8413416 L2.92499123,19.7129793 L2.94634153,19.584617 L2.96769183,19.4562547 L2.98904213,19.3278924 L3.01039244,19.19953 L3.03174274,19.0711677 L3.05309304,18.9428054 L3.07444334,18.8144431 L3.09579364,18.6860808 L3.11714394,18.5577184 L3.13849424,18.4293561 L3.15984454,18.3009938 L3.18119484,18.1940252 L3.18119484,18.1940252 C3.24524575,17.9373006 2.77553912,17.8517257 2.71148822,18.1512378 L2.71148822,18.1512378 Z"></path>
                        <path d="M46.3088028,4.05277617 C44.7715811,3.56072061 43.2343594,3.15423992 41.6544372,2.79054668 C41.355533,2.72636552 41.2487815,3.19702736 41.5476857,3.26120853 C43.1062576,3.58211433 44.6434793,4.03138245 46.1593507,4.50204429 L46.1593507,4.50204429 C46.4582549,4.58761917 46.607707,4.13835105 46.3088028,4.05277617 L46.3088028,4.05277617 Z"></path>
                        <path d="M62.4213183,23.0950954 L62.0583632,27.8872888 C62.0370129,28.2081946 62.5280698,28.2295883 62.5280698,27.9300762 L62.8910249,23.1378829 C62.9123752,22.8169771 62.4426686,22.7955834 62.4213183,23.0950954 L62.4213183,23.0950954 Z" transform="translate(62.474709, 25.512586) scale(-1, 1) rotate(359.000000) translate(-62.474709, -25.512586) "></path>
                        <path d="M62.6569403,30.0865302 L62.2939852,34.8787235 C62.2726349,35.1996293 62.7636918,35.2210231 62.7636918,34.921511 L63.1266469,30.1293177 C63.1479972,29.8084119 62.6782906,29.7870181 62.6569403,30.0865302 L62.6569403,30.0865302 Z" transform="translate(62.710331, 32.504021) scale(-1, 1) rotate(359.000000) translate(-62.710331, -32.504021) "></path>
                        <path d="M62.9200135,36.6547536 L62.5570584,41.4469469 C62.5357081,41.7678527 63.026765,41.7892464 63.026765,41.4897343 L63.3897201,36.697541 C63.4110704,36.3766352 62.9413638,36.3552415 62.9200135,36.6547536 L62.9200135,36.6547536 Z" transform="translate(62.973404, 39.072244) scale(-1, 1) rotate(359.000000) translate(-62.973404, -39.072244) "></path>
                        <path d="M62.3001782,21.2961146 C62.1720764,19.969704 62.001274,18.6218996 61.6383189,17.3382764 L61.6383189,17.3382764 L61.6169686,17.2740952 C61.5529177,17.0387643 61.4888668,16.8248271 61.4248159,16.6108899 L61.4248159,16.6108899 L61.4248159,16.6108899 L61.4248159,16.6108899 L61.4248159,16.6108899 L61.4248159,16.6108899 L61.4248159,16.6108899 L61.4248159,16.6108899 L61.4248159,16.6108899 L61.4248159,16.6108899 L61.4248159,16.6108899 L61.4248159,16.6108899 L61.4248159,16.6108899 L61.4248159,16.5894962 L61.4248159,16.5894962 L61.4248159,16.5894962 L61.4248159,16.5894962 L61.4248159,16.5894962 L61.4248159,16.5894962 L61.4248159,16.5894962 C61.3180644,16.2899841 60.869708,16.4611339 60.9764595,16.7392522 L60.9764595,16.7392522 L60.9764595,16.7392522 L61.4461662,19.049774 L61.4461662,19.049774 L61.5529177,19.6274044 L61.8518219,21.4030832 L61.7664207,20.8254528 L61.4675165,18.9641991 L61.4675165,18.9641991 C61.5956183,19.7557668 61.7237201,20.5259407 61.8518219,21.3816895 C61.8518219,21.6598079 62.3428788,21.5956267 62.3001782,21.2961146 L62.3001782,21.2961146 Z"></path>
                        <path d="M64.0936035,49.9423059 C64.0509029,49.6000064 63.6025466,49.6427938 63.6238969,49.9850934 C63.8801005,53.0016079 64.0295526,54.6489244 64.0936035,55.1409799 L64.0936035,55.1409799 C64.1363041,55.4832794 64.6060107,55.4190983 64.5633101,55.0981925 C64.3925077,53.3866949 64.2430556,51.6751972 64.0936035,49.9423059 L64.0936035,49.9423059 Z"></path>
                        <path d="M63.8373999,46.7118542 L63.8160496,46.5620981 L63.7946993,46.4123421 L63.773349,46.262586 L63.7519987,46.11283 L63.7306484,45.963074 L63.7092981,45.8133179 L63.6879478,45.6635619 L63.6665975,45.5138058 L63.6452472,45.3640498 L63.6238969,45.2142938 L63.6025466,45.0645377 L63.5811963,44.9147817 L63.559846,44.7650256 L63.5384957,44.6152696 L63.5171454,44.4655136 L63.4957951,44.3157575 L63.4744448,44.1660015 L63.4530945,44.0162454 L63.4317442,43.8664894 L63.4103939,43.7167333 L63.3890436,43.5669773 L63.3676933,43.4172213 L63.3463429,43.2674652 L63.3249926,43.1177092 L63.3036423,42.9465594 C63.282292,42.6042599 62.8125854,42.6470473 62.8339357,42.9893469 L62.8339357,43.0107406 L62.855286,43.1604966 L62.8766363,43.3102527 L62.8979866,43.4600087 L62.9193369,43.6097647 L62.9406872,43.7595208 L62.9620375,43.9092768 L62.9833878,44.0590329 L63.0047381,44.2087889 L63.0260884,44.358545 L63.0474387,44.508301 L63.068789,44.658057 L63.0901393,44.8078131 L63.1114896,44.9575691 L63.1328399,45.1073252 L63.1541902,45.2570812 L63.1755405,45.4068372 L63.1968908,45.5565933 L63.2182411,45.7063493 L63.2395914,45.8561054 L63.2609417,46.0058614 L63.282292,46.1556174 L63.3036423,46.3053735 L63.3249926,46.4551295 L63.3463429,46.6048856 L63.3676933,46.7546416 L63.3890436,46.9043977 L63.4103939,47.0541537 L63.4317442,47.2039097 L63.4530945,47.3536658 L63.4744448,47.5034218 L63.4957951,47.6531779 L63.5171454,47.8029339 L63.5384957,47.9526899 L63.559846,48.102446 L63.5811963,48.252202 L63.5811963,48.3163832 C63.5171454,48.5731078 63.986852,48.5303204 63.9655017,48.1880209 L63.8373999,46.7118542 Z" transform="translate(63.399719, 45.595824) rotate(3.000000) translate(-63.399719, -45.595824) "></path>
                        <path d="M52.1374349,6.34190423 C50.6856145,5.65730518 49.1910934,5.0368873 47.675222,4.50204429 C47.3763178,4.39507569 47.2268657,4.84434382 47.5257699,4.95131242 C49.020291,5.48615542 50.4934618,6.08517959 51.9452822,6.76977863 L51.9452822,6.76977863 C52.2014858,6.91953467 52.4149889,6.47026655 52.1374349,6.34190423 L52.1374349,6.34190423 Z"></path>
                        <path d="M58.2222707,11.0913101 C58.030118,10.8559792 57.6458126,11.1554913 57.8593156,11.3908222 C58.6065761,12.6102642 59.6313906,13.4874068 60.2078487,14.9635735 C60.2718996,15.0919358 60.3573008,15.2416918 60.4213517,15.3700541 C60.5494535,15.6481725 60.9764595,15.455629 60.8483577,15.1561169 C60.2078487,13.8511 59.2897858,12.096815 58.2222707,11.0913101 L58.2222707,11.0913101 Z"></path>
                        <path d="M53.418453,7.00510955 C53.1408991,6.85535351 52.9060458,7.28322792 53.1835997,7.43298396 C54.550019,8.117583 55.831037,9.25145017 56.8985521,10.3425299 L56.8985521,10.3425299 C57.1120551,10.5564671 57.4536599,10.2355613 57.2401569,10.0002304 C56.0872406,8.80218205 54.8489232,7.86085836 53.418453,7.00510955 L53.418453,7.00510955 Z"></path>
                    </g>
                    <path d="M0.0427006019,57.720257 C0.0640509029,57.6988633 8.39066828,48.0930829 25.5776606,45.8039549 C42.0600929,43.6217954 52.9487464,48.1572641 55.7669861,49.3339187 C55.8737376,49.3767061 56.1085909,49.5264622 56.2366927,49.5692496 C57.5390611,50.1040926 60.6348547,51.9011651 63.4957951,53.9121748 C65.5027233,55.3455541 67.4029001,56.8217207 68.0220589,57.9128005 L67.3388492,57.9128005 C66.7623911,56.9072956 65.054367,55.8162159 63.1328399,54.4256241 C60.4000014,52.4574018 57.1974563,50.5747545 55.9377885,50.0613052 C55.8737376,50.0399115 55.7669861,49.997124 55.6388843,49.9329429 C52.8633452,48.777682 42.0173923,44.263607 25.7057624,46.4243727 C8.75362339,48.6707134 1.00346415,57.8486193 0.89671264,57.9341942 C0.491056922,58.2123126 0.170802408,58.1267377 0.128101806,58.0625565 C4.94743135e-14,57.9341942 0.0427006019,57.720257 0.0427006019,57.720257 L0.0427006019,57.720257 Z" id="Shape" fill="#F0B200"></path>
                    <path d="M4.80381772,57.9341942 L7.47260534,56.0943343 C16.8453875,49.7190057 28.2677985,47.322909 38.6440447,48.392595 C38.6440447,48.392595 52.6498422,49.2055564 63.4530945,57.9341942 L67.958008,57.9341942 C67.958008,57.9341942 65.2465197,55.0888294 56.8558515,50.2966361 C50.6215636,47.1089718 42.4657486,45.3974742 32.6873108,45.5258365 C20.859244,45.6755925 13.0450339,49.312525 8.09176406,52.0509212 C3.54414996,54.5539864 0.597808427,57.4849261 0.192152709,57.9555879 L4.80381772,57.9341942 L4.80381772,57.9341942 Z" id="Shape" fill="#FFFFFF"></path>
                    <path d="M2.83959003,57.1426265 C2.60473672,57.33517 2.92499123,57.6774696 3.15984454,57.4849261 L3.15984454,57.4849261 C4.3554614,56.5222087 5.59377885,55.6664599 6.89614721,54.8534985 C7.15235082,54.7037425 6.89614721,54.3186555 6.6399436,54.4684115 C5.44432674,55.195798 3.80035357,56.115728 2.83959003,57.1426265 L2.83959003,57.1426265 L2.83959003,57.1426265 L2.83959003,57.1426265 L2.83959003,57.1426265 Z M64.627361,57.6132884 C64.7768131,57.7844382 64.840864,57.8272256 65.0116664,57.7416507 C65.6094749,57.4207449 62.4709806,55.1530106 62.1080255,54.9176797 C61.8518219,54.7465299 61.5956183,55.1102231 61.8304716,55.2813729 C62.855286,55.9659719 63.8373999,56.7575396 64.627361,57.6132884 L64.627361,57.6132884 Z M59.9089445,54.0405371 C60.1651481,54.1902932 60.4213517,53.8265999 60.1651481,53.6554502 L60.0797469,53.6126627 L59.9729954,53.5484816 L59.8662439,53.4843004 L59.7594924,53.4201192 L59.6527409,53.3559381 L59.5459894,53.2917569 L59.4392379,53.2275758 L59.3324864,53.1633946 L59.2257349,53.0992134 L59.1189834,53.0350323 L59.0122319,52.9708511 L58.9054803,52.90667 L58.7987288,52.8424888 L58.6919773,52.7783076 L58.5852258,52.7141265 L58.457124,52.6499453 L58.3290222,52.5857642 L58.2009204,52.521583 L58.0728186,52.4574018 L57.9447168,52.3932207 L57.816615,52.3290395 L57.6885132,52.2648584 L57.5604114,52.2006772 L57.4323096,52.136496 L57.3042078,52.0723149 L57.176106,52.0081337 L57.0480042,51.9439525 L56.9199024,51.8797714 L56.7918006,51.8155902 L56.6636987,51.7514091 L56.5355969,51.6872279 L56.4074951,51.6230467 L56.2793933,51.5588656 L56.1512915,51.4946844 L56.04454,51.451897 C55.7883364,51.3235347 55.5534831,51.7086216 55.831037,51.8583777 L55.9377885,51.9011651 L56.0658903,51.9653463 L56.1939921,52.0295274 L56.3220939,52.0937086 L56.4501957,52.1578898 L56.5782975,52.2220709 L56.7063994,52.2862521 L56.8345012,52.3504332 L56.962603,52.4146144 L57.0907048,52.4787956 L57.2188066,52.5429767 L57.3469084,52.6071579 L57.4750102,52.671339 L57.603112,52.7355202 L57.7312138,52.7997014 L57.8593156,52.8638825 L57.9874174,52.9280637 L58.1155192,52.9922448 L58.243621,53.056426 L58.3503725,53.1206072 L58.457124,53.1847883 L58.5638755,53.2489695 L58.670627,53.3131506 L58.7773785,53.3773318 L58.88413,53.441513 L58.9908816,53.5056941 L59.0976331,53.5698753 L59.2043846,53.6340564 L59.3111361,53.6982376 L59.4178876,53.7624188 L59.5246391,53.8265999 L59.6313906,53.8907811 L59.7381421,53.9549622 L59.8448936,54.0191434 L59.9089445,54.0405371 L59.9089445,54.0405371 L59.9089445,54.0405371 Z M53.7387075,50.917054 C54.0162614,51.0240226 54.2084141,50.6175419 53.9308602,50.5105733 L53.9095099,50.5105733 L53.7600578,50.4463921 L53.6106057,50.382211 L53.4611536,50.3180298 L53.3117015,50.2538487 L53.1622494,50.1896675 L53.0127973,50.1254863 L52.8633452,50.0613052 L52.7138931,49.997124 L52.564441,49.9329429 L52.4149889,49.8687617 L52.2655368,49.8045805 L52.1160846,49.7403994 L51.9666325,49.6762182 L51.8171804,49.6120371 L51.6677283,49.5478559 L51.5182762,49.4836747 L51.3688241,49.4194936 L51.219372,49.3553124 L51.0485696,49.2911313 L50.8777672,49.2269501 L50.7069648,49.1627689 L50.5361624,49.0985878 L50.36536,49.0344066 L50.1945576,48.9702254 L50.0237552,48.9060443 L49.8529527,48.8632568 L49.6821503,48.8204694 L49.5326982,48.777682 C49.233794,48.6921071 49.1056922,49.1199815 49.3832461,49.2055564 L49.5326982,49.2483438 L49.7035006,49.2911313 L49.874303,49.3339187 L50.0451055,49.3980999 L50.2159079,49.4408873 L50.3867103,49.5050685 L50.5575127,49.5692496 L50.7283151,49.6334308 L50.8777672,49.6976119 L51.0272193,49.7617931 L51.1766714,49.8259743 L51.3261235,49.8901554 L51.4755756,49.9543366 L51.6250277,50.0185177 L51.7744798,50.0826989 L51.9239319,50.1468801 L52.073384,50.2110612 L52.2228361,50.2752424 L52.3722883,50.3394235 L52.5217404,50.4036047 L52.6711925,50.4677859 L52.8206446,50.531967 L52.9700967,50.5961482 L53.1195488,50.6603293 L53.2690009,50.7245105 L53.418453,50.7886917 L53.5679051,50.8528728 L53.7387075,50.917054 L53.7387075,50.917054 L53.7387075,50.917054 L53.7387075,50.917054 Z M47.1628148,48.6707134 C47.461719,48.7348945 47.5684705,48.3070201 47.2909166,48.242839 L47.1201142,48.2000515 L46.9493118,48.1572641 L46.7785094,48.1144766 L46.607707,48.0716892 L46.4369046,48.0289018 L46.2661022,47.9861143 L46.0952998,47.9433269 L45.9244974,47.9005394 L45.753695,47.857752 L45.5615422,47.8149646 L45.3693895,47.7721771 L45.1772368,47.7293897 L44.9850841,47.6866022 L44.7929314,47.6438148 L44.6007787,47.6010274 L44.408626,47.5582399 L44.2164733,47.5154525 L44.0243206,47.472665 L43.8321679,47.4298776 L43.6400152,47.3870902 L43.4478625,47.3443027 L43.2557097,47.3015153 L43.063557,47.2801216 L42.8714043,47.2587278 L42.7006019,47.2801216 L42.6792516,47.2801216 C42.3803474,47.2373341 42.2949462,47.6652085 42.6152007,47.7293897 L42.636551,47.7293897 L42.8287037,47.7507834 L43.0208564,47.7721771 L43.2130091,47.7935708 L43.4051619,47.8149646 L43.5973146,47.857752 L43.7894673,47.9005394 L43.98162,47.9433269 L44.1737727,47.9861143 L44.3659254,48.0289018 L44.5580781,48.0716892 L44.7502308,48.1144766 L44.9423835,48.1572641 L45.1345362,48.2000515 L45.3053386,48.242839 L45.476141,48.2856264 L45.6469435,48.3284138 L45.8177459,48.3712013 L45.9885483,48.4139887 L46.1593507,48.4567762 L46.3301531,48.4995636 L46.5009555,48.542351 L46.6717579,48.5851385 L46.8425603,48.6279259 L47.0133627,48.6707134 L47.1628148,48.6707134 L47.1628148,48.6707134 L47.1628148,48.6707134 Z M40.3093682,47.4298776 C40.6082724,47.472665 40.650973,47.0233969 40.3520688,46.9806095 L40.1812664,46.9592158 L39.9891137,46.937822 L39.796961,46.9164283 L39.6048083,46.8950346 L39.4126556,46.8736409 L39.2205029,46.8522472 L39.0283502,46.8308534 L38.8361974,46.8094597 L38.6440447,46.788066 L38.451892,46.7666723 L38.2597393,46.7666723 L38.0675866,46.7666723 L37.8540836,46.7666723 L37.6619309,46.7666723 L37.4484279,46.7666723 L37.2349249,46.7666723 L37.0214219,46.7666723 L36.8079189,46.7666723 L36.5944158,46.7666723 L36.3809128,46.7666723 L36.1674098,46.7666723 L35.9539068,46.7666723 L35.7404038,46.7666723 L35.6550026,46.7666723 C35.3560984,46.7666723 35.3560984,47.2159404 35.6550026,47.2159404 L35.7190535,47.2159404 L35.9325565,47.2159404 L36.1460595,47.2159404 L36.3595625,47.2159404 L36.5730655,47.2159404 L36.7652183,47.2159404 L36.957371,47.2159404 L37.1495237,47.2159404 L37.3416764,47.2159404 L37.5338291,47.2159404 L37.7259818,47.2159404 L37.9181345,47.2159404 L38.1102872,47.2159404 L38.3024399,47.2159404 L38.4945926,47.2373341 L38.6867453,47.2587278 L38.878898,47.2801216 L39.0710508,47.3015153 L39.2632035,47.322909 L39.4553562,47.3443027 L39.6475089,47.3656964 L39.8396616,47.3870902 L40.0318143,47.4084839 L40.3093682,47.4298776 L40.3093682,47.4298776 L40.3093682,47.4298776 Z M33.3278198,47.2801216 C33.626724,47.2801216 33.626724,46.8308534 33.3278198,46.8308534 L33.2210683,46.8308534 L33.0075653,46.8308534 L32.7940623,46.8308534 L32.5805593,46.8308534 L32.3670563,46.8308534 L32.1535532,46.8308534 L31.9400502,46.8308534 L31.7265472,46.8308534 L31.5130442,46.8308534 L31.2995412,46.8308534 L31.0860382,46.8308534 L30.8725352,46.8522472 L30.6590322,46.8736409 L30.4455292,46.8950346 L30.2320262,46.9164283 L30.0185232,46.937822 L29.8050201,46.9592158 L29.5915171,46.9806095 L29.3780141,47.0020032 L29.1645111,47.0233969 L28.9510081,47.0447906 L28.7375051,47.0661844 L28.6307536,47.0661844 C28.3318494,47.1089718 28.37455,47.5368462 28.6734542,47.5154525 L28.7802057,47.5154525 L28.9937087,47.4940588 L29.2072117,47.472665 L29.4207147,47.4512713 L29.6342177,47.4298776 L29.8477207,47.4084839 L30.0612238,47.3870902 L30.2747268,47.3656964 L30.4882298,47.3443027 L30.7017328,47.322909 L30.9152358,47.3015153 L31.1287388,47.2801216 L31.3422418,47.2801216 L31.5557448,47.2801216 L31.7692478,47.2801216 L31.9827508,47.2801216 L32.1962538,47.2801216 L32.4097569,47.2801216 L32.6232599,47.2801216 L32.8367629,47.2801216 L33.0502659,47.2801216 L33.2637689,47.2801216 L33.3278198,47.2801216 L33.3278198,47.2801216 L33.3278198,47.2801216 Z M26.3676217,47.7935708 C26.6665259,47.7507834 26.602475,47.3015153 26.3035708,47.3443027 L26.1114181,47.3656964 L25.9192654,47.3870902 L25.7271127,47.4084839 L25.5349599,47.4298776 L25.3428072,47.4512713 L25.1506545,47.472665 L24.9585018,47.5154525 L24.7663491,47.5582399 L24.5741964,47.6010274 L24.3820437,47.6438148 L24.189891,47.6866022 L23.9977383,47.7293897 L23.8055856,47.7721771 L23.6134329,47.8149646 L23.4212802,47.857752 L23.2291274,47.9005394 L23.0369747,47.9433269 L22.844822,47.9861143 L22.6526693,48.0289018 L22.4605166,48.0716892 L22.2683639,48.1144766 L22.0762112,48.1572641 L21.8840585,48.2000515 L21.7132561,48.242839 L21.6492052,48.2642327 C21.350301,48.3284138 21.4570525,48.7562882 21.7559567,48.6921071 L21.8200076,48.6707134 L21.99081,48.6279259 L22.1616124,48.5851385 L22.3324148,48.542351 L22.5245675,48.4995636 L22.7167202,48.4567762 L22.9088729,48.4139887 L23.1010256,48.3712013 L23.2931783,48.3284138 L23.4853311,48.2856264 L23.6774838,48.242839 L23.8696365,48.2000515 L24.0617892,48.1572641 L24.2539419,48.1144766 L24.4460946,48.0716892 L24.6382473,48.0289018 L24.8304,47.9861143 L25.0225527,47.9433269 L25.2147054,47.9219332 L25.4068581,47.9005394 L25.5990109,47.8791457 L25.7911636,47.857752 L25.9833163,47.8363583 L26.175469,47.8149646 L26.3676217,47.7935708 L26.3676217,47.7935708 L26.3676217,47.7935708 Z M19.5355254,49.2483438 C19.8344296,49.1627689 19.6849775,48.7348945 19.4074236,48.8204694 L19.2793218,48.8632568 L19.1085194,48.9060443 L18.937717,48.9488317 L18.7669145,48.9916192 L18.5961121,49.0344066 L18.4253097,49.077194 L18.2545073,49.1199815 L18.0837049,49.1627689 L17.9129025,49.2055564 L17.7421001,49.2483438 L17.5712977,49.2911313 L17.4004953,49.3553124 L17.2296929,49.4194936 L17.0588905,49.4836747 L16.9094384,49.5478559 L16.7599863,49.6120371 L16.6105341,49.6762182 L16.461082,49.7403994 L16.3116299,49.8045805 L16.1621778,49.8687617 L16.0127257,49.9329429 L15.8632736,49.997124 L15.7138215,50.0613052 L15.5643694,50.1254863 L15.4149173,50.1896675 L15.2654652,50.2538487 L15.1160131,50.3180298 L14.966561,50.382211 C14.6890071,50.4891796 14.8598095,50.8956603 15.1373634,50.7886917 L15.2868155,50.7245105 L15.4362676,50.6603293 L15.5857197,50.5961482 L15.7351718,50.531967 L15.8846239,50.4677859 L16.034076,50.4036047 L16.1835281,50.3394235 L16.3329802,50.2752424 L16.4824323,50.2110612 L17.4218456,49.8901554 L16.7813366,50.1040926 L16.9307887,50.0399115 L17.0802408,49.9757303 L17.2296929,49.9115491 L17.379145,49.847368 L17.5285971,49.7831868 L17.6993995,49.7403994 L17.8702019,49.6976119 L18.0410043,49.6548245 L18.2118067,49.6120371 L18.3826091,49.5692496 L18.5534115,49.5264622 L18.7242139,49.4836747 L18.8950163,49.4408873 L19.0658188,49.3980999 L19.2366212,49.3553124 L19.4074236,49.312525 L19.5355254,49.2483438 L19.5355254,49.2483438 L19.5355254,49.2483438 Z M13.0236836,51.6230467 C13.3012375,51.4946844 13.1090848,51.0882037 12.8315309,51.2165661 L12.7034291,51.2807472 L12.5753273,51.3449284 L12.4472255,51.4091095 L12.3191237,51.4732907 L12.1910218,51.5374719 L12.06292,51.601653 L11.9348182,51.6658342 L11.8067164,51.7300153 L11.6786146,51.7941965 L11.5505128,51.8583777 L11.422411,51.9225588 L11.2943092,51.98674 L11.1662074,52.0509212 L11.0381056,52.1151023 L10.9100038,52.1792835 L10.781902,52.2434646 L10.6538002,52.3076458 L10.5256984,52.371827 L10.3975966,52.4360081 L10.2694948,52.5001893 L10.141393,52.5643704 L10.0132912,52.6285516 L9.90653965,52.6927328 L9.79978814,52.7569139 L9.69303664,52.8210951 L9.58628513,52.8852762 L9.47953363,52.9494574 L9.37278212,53.0136386 L9.26603062,53.0778197 L9.15927911,53.1420009 L9.05252761,53.206182 L8.9457761,53.2703632 L8.8390246,53.3345444 L8.73227309,53.3987255 L8.68957249,53.4201192 C8.43336888,53.5698753 8.66822219,53.9549622 8.9244258,53.8052062 L8.9671264,53.7838125 L9.07387791,53.7196313 L9.18062941,53.6554502 L9.28738092,53.591269 L9.39413242,53.5270878 L9.50088393,53.4629067 L9.60763543,53.3987255 L9.71438694,53.3345444 L9.82113844,53.2703632 L9.92788995,53.206182 L10.0346415,53.1420009 L10.141393,53.0778197 L10.2481445,53.0136386 L10.354896,52.9494574 L10.4616475,52.8852762 L10.5897493,52.8210951 L10.7178511,52.7569139 L10.8459529,52.6927328 L10.9740547,52.6285516 L11.1021565,52.5643704 L11.2302583,52.5001893 L11.3583601,52.4360081 L11.4864619,52.371827 L11.6145637,52.3076458 L11.7426655,52.2434646 L11.8707673,52.1792835 L11.9988691,52.1151023 L12.1269709,52.0509212 L12.2550728,51.98674 L12.3831746,51.9225588 L12.5112764,51.8583777 L12.6393782,51.7941965 L12.76748,51.7300153 L12.8955818,51.6658342 L13.0236836,51.6230467 L13.0236836,51.6230467 L13.0236836,51.6230467 Z" id="Shape" fill="#3F4446"></path>
                    <path d="M56.04454,65.6359335 C55.3186298,65.9140518 53.845459,66.4702885 53.1195488,66.7270132 C49.7675515,67.8822741 47.461719,68.6096606 44.2591739,69.0589287 C36.0820086,70.1927958 27.7980919,70.0644335 19.6849775,68.502692 C17.6780492,68.117605 15.7992227,67.4757934 13.621492,66.5772571 C12.980983,66.3205325 12.1910218,65.9140518 11.5505128,65.6573272 C10.568399,65.2508465 8.64687189,64.7160035 8.19851557,66.513076 C8.00636286,67.3046436 8.19851557,68.117605 8.68957249,68.7808103 C9.33008152,69.6151654 10.7392014,70.8560012 13.3866387,71.861506 C18.3185582,73.7441534 24.7663491,75.305895 33.7548258,75.305895 C42.9995061,75.305895 48.9562401,73.9153032 54.0803123,72.0112621 C56.5569472,71.0913321 58.1582198,69.6793466 58.7987288,68.8235978 C59.2684355,68.2031799 59.4819385,67.3902185 59.3324864,66.6200446 C58.9695313,64.7801846 57.0907048,65.2294528 56.04454,65.6359335 L56.04454,65.6359335 Z" id="Shape" fill="#EF5350"></path>
                    <path d="M57.7739144,67.3902185 C57.4963605,66.9837378 56.9199024,67.3260373 56.7704503,67.4116122 C56.4288454,67.582762 55.8737376,67.8822741 55.6388843,67.9892427 C55.2118783,68.1817862 54.8062226,68.3957234 54.3792165,68.5454794 C53.9308602,68.7166292 53.4825039,68.8877789 53.0768482,69.0161412 C52.6071416,69.1658973 51.6250277,69.4868031 51.2620726,69.572378 C48.0168269,70.406733 45.6896441,70.7704263 43.6186649,71.0699384 C39.7542604,71.6261751 36.1674098,71.71175 34.3312839,71.7331437 L34.3312839,71.7331437 L33.0502659,71.7331437 C31.21414,71.71175 27.6486397,71.6261751 23.762885,71.0699384 C21.6919058,70.7704263 19.364723,70.406733 16.1194772,69.572378 C15.7565221,69.4868031 14.7957586,69.1658973 14.3047016,69.0161412 C13.8990459,68.8877789 13.4506896,68.7166292 13.0023333,68.5454794 C12.5753273,68.3743296 12.1696715,68.1817862 11.7426655,67.9892427 C11.5291625,67.8822741 10.9527044,67.582762 10.6110996,67.4116122 C10.4616475,67.3260373 9.90653965,67.0051315 9.60763543,67.3902185 C9.28738092,67.8394866 10.1840936,68.3957234 10.2694948,68.4385108 C10.5470487,68.6310543 12.2977734,69.572378 15.0519622,70.3639456 C16.6959354,70.8346075 18.6388127,71.3052693 20.6884416,71.6475688 C25.2360557,72.4177427 29.1858614,72.7172548 33.0289156,72.7386485 L33.0289156,72.7386485 L33.6694246,72.7386485 L34.3099336,72.7386485 L34.3099336,72.7386485 C38.1529878,72.7172548 42.1241438,72.4177427 46.6504076,71.6475688 C48.6786862,71.3052693 50.6429139,70.8346075 52.2868871,70.3639456 C55.0410759,69.572378 56.7704503,68.6310543 57.0693545,68.4385108 C57.1974563,68.3957234 58.0941689,67.8608803 57.7739144,67.3902185 L57.7739144,67.3902185 Z" id="Shape" fill="#000000"></path>
                </g>
            </g>
        </g>
    </g>
</svg>