<?xml version="1.0" encoding="utf-8"?>
<!-- Generator: Adobe Illustrator 20.0.0, SVG Export Plug-In . SVG Version: 6.00 Build 0)  -->
<svg version="1.1" id="Layer_1" xmlns="http://www.w3.org/2000/svg" xmlns:xlink="http://www.w3.org/1999/xlink" x="0px" y="0px"
	 viewBox="0 0 612 792" style="enable-background:new 0 0 612 792;" xml:space="preserve">
<style type="text/css">
	.st0{display:none;fill:#5376EA;}
	.st1{display:none;fill:#EF5350;}
	.st2{fill:#FFFFFF;}
	.st3{fill:#F7D917;}
	.st4{fill:#F0B200;}
	.st5{fill:#1F1A17;}
	.st6{fill:#898989;}
	.st7{fill:#0A0B0C;stroke:#1F1A17;stroke-width:6.944880e-03;}
	.st8{stroke:#1F1A17;stroke-width:6.944880e-03;}
	.st9{opacity:0.79;fill:#876046;enable-background:new    ;}
	.st10{fill:none;}
	.st11{fill:#3F4446;}
	.st12{fill:#EF5350;}
</style>
<path class="st0" d="M96.3,677.1c0,0,32.2,0,57.4-4.4c0,0,1.5-0.2,2.9-0.6c0.7-0.2,0.4-0.1,1.5-0.4c0.4-0.1,1-0.3,2.1-0.6
	c4.7-1.2,9-2.8,13.2-2c2.7,0.6,4.6,3,4.8,5.8c0.2,5.1-3.8,10.2-13.7,13.4c-15.5,4.9-39.4,7.9-65,7.9v0.1c-29.4,0-57.8-4.8-70.6-9.7
	c-8.4-3.2-10-8.9-9.5-11.5c2.1-9.7,14.8-5.1,19.6-3.9C59.8,676.1,96.3,677.1,96.3,677.1z"/>
<path class="st1" d="M158.5,593.8c-24.3,7.3-66.9,8.3-66.9,8.3s-43,0.5-66.9-8.3c0,0-10-3.5-12.1,3.3c-0.8,2.5-0.2,5.3,1.4,7.3
	c1.9,2.5,6,5.9,14.6,8.3c16.3,4.6,35.3,8.5,63.1,8.3c27.8,0.2,46.7-3.9,63.1-8.3c8.6-2.3,12.7-5.7,14.6-8.2c1.6-2.1,2.1-4.9,1.3-7.4
	C168.5,590.3,158.5,593.8,158.5,593.8z"/>
<g>
	<path class="st2" d="M331.7,373.3c0,0-72.3-13.6-134.6,38.2c0,0-6.8,44.7,29,71.9c0,0,28.1,22.9,32.8,37.6l2.6,21.6
		c0,0,2.8,19.1,15.2,12.4c0,0,6.5-5.6,7.2-9.8c0.7-4.1,4.4-14.2,4.4-14.2s4.7-10.3,10.6-4.9l2.5,10.1l1.8,8.9l2.5,6.1
		c0,0,2.7,3.3,3.3,3.2c0.6-0.1,5.5,1.4,5.5,1.4l6.1-0.4l5.5-7.2l1.9-8.9c0,0,0.6-5.5,0.7-6.1s2.1-5,2.1-5l2.7-3l5.8,0.3l3,6.4
		l2.8,11.1l1.3,5.3c0,0,1.6,2.5,1.9,3c0.3,0.4,2.1,2.7,2.5,3.2s3.1,1.4,3.1,1.4l3.5,0.7c0,0,2.7-0.5,3.4-1.1s2.8-3,2.8-3
		s2.2-4.1,2.4-5.5c0.1-1.3,0.9-5.5,0.9-5.9s0.1-3.1,0-4.4c-0.1-1.3,0.6-3.4,0.1-4.7s0.3-4.9,0.2-5.6c-0.1-0.7,0.5-2.7,0.8-4
		s0.6-2.4,1-3.3c0.4-0.9,1.9-4.3,2.1-4.7c0.1-0.4,1.3-2.8,1.8-3.1s2.4-2.5,2.4-2.5l30.2-29.1c0,0,14-18.2,16.6-27.5s9-28.1,5.8-44.5
		C427.7,407.5,366.4,370.9,331.7,373.3z"/>
	<path class="st3" d="M193.3,305.3l2.1-38.4c0,0,3.3-26.9,21.9-38.2s11.6-6.4,11.6-6.4s39.4-22.4,84-21.2s76.9,19.8,76.9,19.8
		s18.9,10.7,28.7,27.5c0,0,5.3,6.3,6.7,27.5c1.4,21.2,5.5,85.3,5.5,85.3l3.2,48.6c0,0,0,2.4-6.1-4.5c-6.1-6.8-16.4-14-32.9-23.5
		c-16.5-9.4-52.2-18.7-90.9-17.6s-61.9,10.5-82.2,20.3s-35.5,25.6-35.5,25.6L193.3,305.3L193.3,305.3z"/>
	<path class="st4" d="M194.7,265.6c0.8-4.4-1.8-34,48.6-54c17-7.2,41.5-14.4,71.4-13.6c45.6,1.5,113,18.3,114,76.9
		c1.4,21.2,5,83.3,5.1,85l3.2,48.6c0,0.1,0,0.1,0,0.2c-0.1,0.7-1.5,5-8.2-3.8c-3-3.3-7-6.8-12.4-10.6c-5.3-3.8-12-7.9-20.2-12.6
		c-8.8-5-23.1-10-40.5-13.3c-14.9-2.9-32-4.6-49.8-4.1c-19.2,0.5-34.6,3.1-47.7,6.8c-13.1,3.7-23.9,8.5-34,13.3
		c-20.1,9.7-34.9,25.7-34.9,25.8c-0.5-0.1-0.9,0-1.6,0.2c-0.3-0.3-1.1-0.3-1.2-0.6l5.5-104.6C192,305.1,193.7,271.3,194.7,265.6z
		 M195.7,305.3L195.7,305.3l-5.5,101.5c4.9-4.9,16.5-15.8,32.4-23.4c10.2-4.9,21.1-9.7,34.4-13.5c13.2-3.7,28.8-6.4,48.3-6.9
		c17.9-0.5,35.2,1.2,50.3,4.1c17.6,3.4,32.2,8.5,41.2,13.6c8.3,4.7,15,8.9,20.4,12.8c5.5,3.9,9.6,7.4,12.7,10.9
		c3.5,3.9,3.9,4.9,4,5.1l-0.2-1.1l-3.4-47.2c0-0.2-4.8-63.8-6.3-85.1c-1.8-20.7-5.7-27-5.7-27.1c-10.1-18.9-27.7-27.1-27.8-27.1l0,0
		c-0.1,0-0.1,0-0.2-0.1s-31.9-19.3-76.3-19.7c-20.4-0.7-51.1,4.3-75.7,16.2C216.9,228.7,201,243,199.1,265L195.7,305.3z M434,409.5
		L434,409.5"/>
	<path class="st5" d="M199.3,410.5c-1.2,7.4-1.4,37.4,14.2,57.1c1.5,1.9,6.1,7.4,6.3,7.6l21,20.1c0.2,0.2,8.1,8.2,8.3,8.4
		c10.4,11,12.8,21.4,13,26.1c0.6,11.4,1,19.7,5.5,23.2c2.1,1.7,7.1,2.5,10.5-1.7c5.3-6.5,8.5-18.8,9.2-21.1c0.9-3.1,2.7-7.4,8.2-7.3
		c6,0.1,6.8,5.7,7.5,8.8c0,0.2,1.1,9.3,1.1,9.3l0,0c0,0,1.1,11.8,7.8,13.1c0,0,4.5,1,7.9-1.3c3.1-1.6,5.6-7.6,6.3-13.9
		c1-7.7,1.6-10.2,1.8-10.7c0.4-0.9,2.5-6.5,9.3-5.2c6.1,1.2,7.2,10.2,7.3,10.7l0,0c0,0,1.8,12.8,6.9,18.1c1.5,1.5,3.8,2.6,5.6,2.5
		c10.7-0.6,7.8-18.6,8.4-26.6c0.6-7.8,2.7-14,10.5-22.2c7.4-7.7,14.5-14.4,17.9-17.4c10.7-9.6,23.3-26.8,27.2-37.4
		c0-0.1,2.1-5.1,4.1-14.6c1.6-7.7,2.5-16.5,2.4-25.2c-0.6-7.4-17.7-19.2-41.3-28.3c-19.7-7.6-43.8-13.2-66.7-12.5
		c-25.5,0.7-46.4,3.5-65.5,9.7c-18.8,6.2-35.6,15-53.8,29.6L199.3,410.5z M211.3,470.3c-20-26.9-14.9-59.2-14.9-59.3l0.2-1.6
		l0.3-0.1c18.8-15.1,36.5-24.5,55.9-30.9s40.6-9.2,66.4-9.9c23.4-0.6,48,5,68,12.7c24.8,9.6,42.6,22.6,43.4,31.3
		c1,12-4.7,36.4-6.8,40.3c-3.3,10-15,25.3-21.6,32.3c-8,8.5-23.8,20.7-30.2,31.3c0,0-3.5,6.4-3.6,16.9c0.4,10.1-0.8,15.8-1.3,17.3
		c-0.6,1.8-3.6,8.2-10.6,7.9c-2.4-0.1-5.4-0.4-7.6-2.4c-6.2-5-8.1-20.1-8.1-20.1v-0.1c0,0-0.9-9.2-5.4-9.2c-3.9,0-4.3,3.6-4.5,4.1
		c0,0-0.1,0.2-0.1,0.6c-0.1,0.3-0.5,1.8-1.5,9.8c-0.5,5.1-2,8.2-3.4,10.8c-1.1,2-5.8,6.5-11.7,6.3c-13.1-0.4-13.8-15-13.8-15l0,0
		l-1-10.2c0,0-0.2-6.1-4-6.4c-3.8-0.4-5,5-5,5c-0.3,0.8-4.2,16-7.7,20.7c-1.9,2.6-4.6,4.7-7.7,5.6c-6.2,1.7-10-1.6-10.1-1.7
		c0,0-6.8-4.1-6.3-24.8c-0.7-16.9-15-28.4-15-28.4L219,479.4l-7.2-8.1L211.3,470.3z"/>
	<path class="st6" d="M417.9,411.9c-38.5-31.1-89.4-34.4-89.9-34.4c-5.8-0.6-11.6-0.9-17.4-0.9c-34.2,0-68.1,10.2-95.4,28.6
		l-9.9,6.7c0,0-0.5,0.1-2,0c-2-0.1-6.4-0.2-12.8-1.1c-2.6-0.3-3.4-1-3.4-1l0.3-1.5c1.8-2,10.7-12.5,27.6-21.8
		c20-11,48.4-23.7,91.3-24.2c1.4,0,2.8,0,4.1,0c33.8,0,62.6,6,85.5,17.7c31.1,17.8,38.4,28.3,38.7,28.8l0.8,1c0,0-1.1,0.6-2.7,0.8
		c-8.2,1.1-12.1,1.3-13.8,1.4C418.1,411.9,417.9,411.9,417.9,411.9z"/>
	<path class="st7" d="M281.5,394.5c4.8,0,8.4,4,8.4,10s-3.5,11.2-8.3,11.2s-8.2-5.3-8.2-11.2C273.4,398.5,276.6,394.5,281.5,394.5
		L281.5,394.5z"/>
	<path class="st8" d="M343.6,394.2c4.8,0,8.4,4,8.4,10s-3.5,11.2-8.3,11.2s-8.2-5.3-8.2-11.2C335.5,398.2,338.7,394.2,343.6,394.2
		L343.6,394.2z"/>
	<path class="st9" d="M186.9,408.8c0,0,0.1-0.5,0.3-1c1.5-4,34.8-36.5,93.6-44.3c90.6-9,127.7,22.3,138.5,29.4
		c6.7,4.9,15.8,13,16.5,15.6c0.1,0.3,0.1,0.7,0.1,1.1l-3-0.6c-2.1-3.7-8.2-8.9-15.3-14c-10-7.2-21.6-14-26.3-15.9l-1.1-0.5
		c-10.1-4.2-49.7-20.7-109.1-12.8c-61.8,8.2-91.4,43.8-91.5,43.9l-1.8-1.5L186.9,408.8z"/>
	<path class="st10" d="M190.9,397.6l8-108.9l0.9-15.3c2.5-43.3,59.3-61.2,94.6-66.1c30.7-4.2,65.1,4.7,89.4,16.5
		s32.5,36.6,32.5,36.6s3.8,8.5,4.2,37.3c0.7,45.2,2.1,49.7,7.9,105.2"/>
	<path class="st4" d="M186.8,408.9c0.1-0.1,30.6-35.2,93.6-43.6c60.4-8,100.3,8.6,110.6,12.9c0.4,0.1,1.3,0.7,1.7,0.8
		c4.8,1.9,16.2,8.5,26.6,15.9c7.3,5.3,14.3,10.7,16.6,14.6h-2.5c-2.1-3.6-8.4-7.6-15.4-12.7c-10-7.2-21.7-14.1-26.4-16
		c-0.2-0.1-0.6-0.3-1.1-0.5c-10.2-4.2-49.9-20.7-109.7-12.8c-62.1,8.2-90.5,41.8-90.9,42.1c-1.5,1-2.7,0.7-2.8,0.4
		C186.7,409.7,186.8,408.9,186.8,408.9z"/>
	<path class="st2" d="M204.3,409.7l9.8-6.7c34.4-23.3,76.2-32,114.2-28.2c0,0,51.3,3,91,34.9h16.5c0,0-9.9-10.4-40.7-27.9
		c-22.8-11.7-52.8-17.9-88.6-17.4c-43.3,0.5-72,13.9-90.2,23.9c-16.7,9.2-27.5,19.9-28.9,21.6L204.3,409.7z"/>
	<path class="st11" d="M197.1,406.8c-0.8,0.7,0.3,1.9,1.1,1.2l0,0c4.4-3.5,8.9-6.7,13.7-9.6c0.9-0.6,0-2-0.9-1.4
		C206.7,399.7,200.6,403,197.1,406.8L197.1,406.8L197.1,406.8L197.1,406.8z M423.5,408.5c0.5,0.6,0.8,0.8,1.4,0.5
		c2.2-1.2-9.3-9.4-10.6-10.3c-0.9-0.6-1.9,0.7-1,1.3C417,402.4,420.6,405.4,423.5,408.5z M406.2,395.5c0.9,0.6,1.9-0.8,0.9-1.4
		l-0.3-0.2l-0.4-0.2l-0.4-0.2l-0.4-0.2l-0.4-0.2l-0.4-0.2l-0.4-0.2l-0.4-0.2l-0.4-0.2l-0.4-0.2l-0.4-0.2l-0.4-0.2l-0.4-0.2l-0.4-0.2
		l-0.4-0.2l-0.4-0.2l-0.4-0.2l-0.4-0.2l-0.4-0.2l-0.4-0.2l-0.4-0.2l-0.5-0.2l-0.5-0.2l-0.5-0.2l-0.5-0.2l-0.5-0.2l-0.5-0.2l-0.5-0.2
		l-0.5-0.2l-0.5-0.2l-0.5-0.2l-0.5-0.2l-0.5-0.2l-0.5-0.2l-0.4-0.2c-1-0.5-1.8,1-0.8,1.5l0.4,0.2l0.5,0.2l0.5,0.2l0.5,0.2l0.5,0.2
		l0.5,0.2l0.5,0.2l0.5,0.2l0.5,0.2l0.5,0.2l0.5,0.2l0.5,0.2l0.5,0.2l0.4,0.2l0.4,0.2l0.4,0.2l0.4,0.2l0.4,0.2l0.4,0.2l0.4,0.2
		l0.4,0.2l0.4,0.2l0.4,0.2l0.4,0.2l0.4,0.2l0.4,0.2l0.4,0.2l0.4,0.2l0.4,0.2l0.4,0.2l0.4,0.2l0.4,0.2l0.4,0.2l0.4,0.2L406.2,395.5
		L406.2,395.5z M383.6,384c1,0.4,1.7-1.1,0.7-1.5l0,0l-0.5-0.2l-0.5-0.2l-0.5-0.2l-0.5-0.2l-0.6-0.2l-0.6-0.2l-0.6-0.2l-0.6-0.2
		l-0.6-0.2l-0.6-0.2l-0.6-0.2l-0.6-0.2l-0.6-0.2l-0.6-0.2l-0.6-0.2l-0.6-0.2l-0.6-0.2l-0.6-0.2l-0.6-0.2l-0.6-0.2l-0.6-0.2l-0.6-0.2
		l-0.6-0.2l-0.6-0.2l-0.6-0.2l-0.6-0.2l-0.6-0.2l-0.5-0.2c-1.1-0.3-1.6,1.2-0.5,1.6l0.5,0.2l0.6,0.2l0.6,0.2l0.6,0.2l0.6,0.2
		l0.6,0.2l0.6,0.2l0.6,0.2l0.6,0.2l0.6,0.2l0.6,0.2l0.6,0.2l0.6,0.2l0.6,0.2l0.6,0.2l0.6,0.2l0.6,0.2l0.6,0.2l0.6,0.2l0.6,0.2
		l0.6,0.2l0.5,0.2l0.5,0.2l0.5,0.2l0.5,0.2l0.5,0.2l0.5,0.2L383.6,384L383.6,384L383.6,384z M359.5,375.8c1.1,0.2,1.5-1.3,0.4-1.6
		l-0.6-0.2l-0.6-0.2l-0.6-0.2l-0.7-0.2l-0.7-0.2L356,373l-0.7-0.2l-0.7-0.2l-0.7-0.2l-0.7-0.1l-0.7-0.1l-0.7-0.1l-0.7-0.1l-0.7-0.1
		l-0.7-0.1l-0.7-0.1l-0.7-0.1l-0.7-0.1l-0.7-0.1l-0.7-0.1l-0.7-0.1l-0.7-0.1l-0.7-0.1l-0.7-0.1l-0.7-0.1h-0.1
		c-1.1-0.2-1.4,1.4-0.3,1.6h0.1l0.7,0.1l0.7,0.1l0.7,0.1l0.7,0.1l0.7,0.1l0.7,0.1l0.7,0.1l0.7,0.1l0.7,0.1l0.7,0.1l0.7,0.1l0.7,0.1
		l0.7,0.1l0.7,0.1l0.7,0.1l0.7,0.1l0.7,0.1l0.7,0.2l0.7,0.2l0.6,0.2l0.6,0.2l0.6,0.2l0.6,0.2l0.6,0.2L359.5,375.8L359.5,375.8z
		 M334.4,371.2c1.1,0.1,1.3-1.5,0.2-1.6l-0.6-0.1l-0.7-0.1l-0.7-0.1l-0.7-0.1l-0.7-0.1l-0.7-0.1l-0.7-0.1h-0.7h-0.7h-0.7H327h-0.7
		h-0.7h-0.7h-0.7h-0.8h-0.7h-0.8h-0.8h-0.8h-0.8h-0.8h-0.8h-0.3c-1.1,0-1.1,1.6,0,1.6h0.3h0.8h0.7h0.7h0.7h0.7h0.7h0.7h0.7h0.7h0.7
		h0.7h0.7h0.7h0.7h0.7h0.7l0.7,0.1l0.7,0.1l0.7,0.1l0.7,0.1l0.7,0.1l0.7,0.1L334.4,371.2L334.4,371.2z M308.8,370.7
		c1.1,0,1.1-1.6,0-1.6h-0.4h-0.8h-0.8H306h-0.8h-0.8h-0.8h-0.8H302h-0.8h-0.8h-0.8h-0.8H298h-0.8l-0.8,0.1l-0.8,0.1l-0.8,0.1
		l-0.8,0.1l-0.8,0.1l-0.8,0.1l-0.8,0.1h-0.4c-1.1,0.1-0.9,1.8,0.2,1.6h0.4l0.8-0.1l0.8-0.1l0.8-0.1l0.8-0.1l0.8-0.1l0.8-0.1l0.8-0.1
		h0.8h0.8h0.8h0.8h0.8h0.8h0.8h0.8h0.8h0.8h0.8h0.8h0.8h0.8H308.8L308.8,370.7z M283.3,372.6c1.1-0.2,0.8-1.8-0.3-1.6l-0.7,0.1
		l-0.7,0.1l-0.7,0.1l-0.7,0.1l-0.7,0.1l-0.7,0.1l-0.7,0.1l-0.7,0.1l-0.7,0.1L276,372l-0.7,0.1l-0.7,0.1l-0.7,0.1l-0.7,0.1l-0.7,0.1
		l-0.7,0.1l-0.7,0.1l-0.7,0.1l-0.7,0.1L269,373l-0.7,0.1l-0.7,0.2l-0.7,0.2l-0.7,0.2l-0.2,0.1c-1.1,0.2-0.7,1.8,0.4,1.6l0.2-0.1
		l0.7-0.2l0.7-0.2l0.7-0.1l0.7-0.1l0.7-0.1l0.7-0.1l0.7-0.1l0.7-0.1l0.7-0.1l0.7-0.1l0.7-0.1l0.7-0.1l0.7-0.1l0.7-0.1l0.7-0.1
		l0.7-0.1l0.7-0.1l0.7-0.1l0.7-0.1l0.7-0.1l0.7-0.1l0.7-0.1l0.7-0.1L283.3,372.6L283.3,372.6z M258.3,377.9c1.1-0.3,0.6-1.9-0.5-1.6
		l-0.5,0.1l-0.6,0.2l-0.6,0.2l-0.6,0.2l-0.6,0.2l-0.6,0.2l-0.6,0.2l-0.6,0.2l-0.6,0.2l-0.6,0.2l-0.6,0.2l-0.6,0.2l-0.6,0.2l-0.6,0.2
		l-0.6,0.2l-0.6,0.2l-0.6,0.2l-0.6,0.2l-0.6,0.2l-0.6,0.2l-0.6,0.2l-0.6,0.2l-0.6,0.2l-0.6,0.2l-0.6,0.2l-0.6,0.2l-0.6,0.2l-0.5,0.2
		c-1,0.4-0.4,1.9,0.6,1.5l0.5-0.2l0.5-0.2l0.5-0.2l0.6-0.2l0.6-0.2l0.6-0.2l0.6-0.2l0.6-0.2l0.6-0.2l3.5-1.2l-2.3,0.8l0.6-0.2
		l0.6-0.2l0.6-0.2l0.6-0.2l0.6-0.2l0.6-0.2l0.6-0.2l0.6-0.2l0.6-0.2l0.6-0.2l0.6-0.2l0.6-0.2l0.6-0.2l0.6-0.2l0.6-0.2l0.6-0.2
		L258.3,377.9L258.3,377.9z M234.4,386.6c1-0.5,0.3-1.9-0.7-1.5l-0.5,0.2l-0.5,0.2l-0.5,0.2l-0.5,0.2l-0.5,0.2l-0.5,0.2l-0.5,0.2
		l-0.5,0.2l-0.5,0.2l-0.5,0.2l-0.5,0.2l-0.5,0.2l-0.5,0.2l-0.5,0.2l-0.5,0.2l-0.5,0.2l-0.4,0.2l-0.4,0.2l-0.4,0.2l-0.4,0.2l-0.4,0.2
		l-0.4,0.2l-0.4,0.2l-0.4,0.2l-0.4,0.2l-0.4,0.2l-0.4,0.2l-0.4,0.2l-0.4,0.2l-0.4,0.2l-0.4,0.2l-0.4,0.2l-0.4,0.2l-0.4,0.2l-0.2,0.1
		c-1,0.6-0.1,2,0.9,1.4l0.2-0.1l0.4-0.2l0.4-0.2l0.4-0.2l0.4-0.2l0.4-0.2l0.4-0.2l0.4-0.2l0.4-0.2l0.4-0.2l0.4-0.2l0.4-0.2l0.4-0.2
		l0.4-0.2l0.4-0.2l0.4-0.2l0.4-0.2l0.4-0.2l0.4-0.2l0.4-0.2l0.5-0.2l0.5-0.2l0.5-0.2l0.5-0.2l0.5-0.2l0.5-0.2l0.5-0.2l0.5-0.2
		l0.5-0.2l0.5-0.2l0.5-0.2l0.5-0.2l0.5-0.2l0.5-0.2L234.4,386.6L234.4,386.6z"/>
	<path class="st12" d="M392.1,437.8c-2.7,1-8,3-10.7,4c-12.3,4.2-20.7,6.9-32.5,8.5c-30,4.2-60.3,3.7-90.1-2
		c-7.4-1.4-14.2-3.8-22.2-7c-2.4-1-5.2-2.4-7.6-3.4c-3.6-1.5-10.7-3.4-12.3,3.1c-0.7,2.9,0,5.9,1.8,8.3c2.3,3.1,7.5,7.6,17.2,11.3
		c18.1,6.9,41.7,12.6,74.6,12.6c33.9,0,55.7-5.1,74.5-12.1c9-3.4,14.9-8.5,17.3-11.6c1.7-2.3,2.5-5.2,2-8.1
		C402.8,434.7,395.9,436.4,392.1,437.8z"/>
	<path d="M398.4,444.3c-1.1-1.5-3.1-0.2-3.7,0.1c-1.2,0.6-3.3,1.8-4.1,2.1c-1.6,0.7-3.1,1.5-4.6,2c-1.6,0.6-3.3,1.3-4.7,1.7
		c-1.7,0.6-5.3,1.7-6.6,2c-11.9,3.1-20.4,4.4-28,5.5c-14.2,2.1-27.3,2.3-34,2.4l0,0c-0.9,0-4.7,0-4.7,0c-6.7-0.1-19.8-0.4-34-2.4
		c-7.6-1.1-16.1-2.4-28-5.5c-1.3-0.3-4.9-1.5-6.6-2c-1.5-0.5-3.1-1.1-4.7-1.7c-1.5-0.6-3-1.3-4.6-2c-0.8-0.4-2.9-1.5-4.1-2.1
		c-0.5-0.3-2.6-1.5-3.7-0.1c-1.2,1.7,2.1,3.6,2.4,3.9c1.1,0.7,7.4,4.2,17.5,7c6,1.7,13.2,3.4,20.7,4.7c16.6,2.8,31.1,3.9,45.2,4l0,0
		c0.8,0,1.6,0,2.4,0s1.6,0,2.4,0l0,0c14.1-0.1,28.6-1.2,45.2-4c7.5-1.3,14.6-3,20.7-4.7c10.1-2.9,16.4-6.3,17.5-7
		C396.3,447.9,399.6,445.9,398.4,444.3z"/>
	<g>
		<path class="st11" d="M213.9,245.5l-0.3,0.4l-0.3,0.4l-0.3,0.4l-0.3,0.4l-0.3,0.4l-0.3,0.4l-0.2,0.4l-0.2,0.4l-0.2,0.4l-0.2,0.4
			l-0.2,0.4l-0.2,0.4l-0.2,0.4l-0.2,0.4l-0.2,0.4l-0.2,0.4l-0.2,0.4l-0.2,0.4l-0.2,0.4l-0.2,0.4l-0.2,0.4l-0.2,0.4l-0.2,0.4
			l-0.2,0.4l-0.2,0.4l-0.2,0.4l-0.2,0.4l-0.2,0.4l-0.2,0.4l-0.2,0.4l-0.2,0.4l-0.2,0.4l-0.1,0.4l-0.1,0.4l-0.1,0.4l-0.1,0.5
			l-0.1,0.4l-0.1,0.5l0,0c-0.3,1.1,1.4,1.5,1.7,0.4l0,0l0.1-0.4l0.1-0.4l0.1-0.4l0.1-0.4l0.1-0.4l0.1-0.4l0.1-0.4l0.2-0.4l0.2-0.4
			l0.2-0.4l0.2-0.4l0.2-0.4l0.2-0.4l0.2-0.4l0.2-0.4l0.2-0.4l0.2-0.4l0.2-0.4l0.2-0.4l0.2-0.4l0.2-0.4l0.2-0.4l0.2-0.4l0.2-0.4
			l0.2-0.4l0.2-0.4l0.2-0.4l0.2-0.4l0.2-0.4l0.2-0.4l0.2-0.4l0.2-0.4l0.2-0.4l0.2-0.4l0.3-0.4l0.3-0.4l0.3-0.4l0.3-0.4
			C215.9,245.5,214.6,244.5,213.9,245.5z"/>
		<path class="st11" d="M231,230.2l-0.3,0.2l-0.4,0.3l-0.4,0.3l-0.4,0.3l-0.4,0.3l-0.4,0.3l-0.4,0.3l-0.4,0.3l-0.4,0.3l-0.4,0.3
			l-0.4,0.3l-0.4,0.3l-0.4,0.3l-0.4,0.3l-0.4,0.3l-0.4,0.3l-0.4,0.3l-0.4,0.3l-0.4,0.3l-0.4,0.3l-0.4,0.3l-0.4,0.3l-0.4,0.3
			l-0.4,0.3l-0.4,0.3l-0.4,0.3l-0.3,0.3l-0.3,0.3l-0.3,0.3l-0.3,0.3l-0.3,0.3l-0.3,0.3l-0.3,0.3l-0.3,0.3l-0.3,0.3l-0.3,0.3
			l-0.2,0.3c-0.8,0.8,0.5,2,1.3,1.2l0.2-0.3l0.3-0.3l0.3-0.3l0.3-0.3l0.3-0.3l0.3-0.3l0.3-0.3l0.3-0.3l0.3-0.3l0.3-0.3l0.3-0.3
			l0.3-0.3l0.3-0.3l0.3-0.3l0.4-0.3l0.3-0.3l0.4-0.3l0.4-0.3l0.4-0.3l0.4-0.3l0.4-0.3l0.4-0.3l0.4-0.3l0.4-0.3l0.4-0.3l0.4-0.3
			l0.4-0.3l0.4-0.3l0.4-0.3l0.4-0.3l0.4-0.3l0.4-0.3l0.4-0.3l0.4-0.3l0.4-0.3l0.4-0.3l0.3-0.2h0C232.9,231,231.9,229.6,231,230.2z"
			/>
		<path class="st11" d="M251.9,220L251.9,220l-0.5,0.2l-0.5,0.2l-0.5,0.2l-0.5,0.2l-0.5,0.2l-0.5,0.2l-0.5,0.2l-0.5,0.2l-0.5,0.2
			l-0.5,0.2l-0.5,0.2l-0.5,0.2l-0.5,0.2l-0.5,0.2L245,223l-0.5,0.2l-0.5,0.2l-0.5,0.2l-0.5,0.2l-0.5,0.2l-0.5,0.2l-0.5,0.2l-0.4,0.2
			l-0.4,0.2l-0.4,0.2l-0.4,0.2l-0.4,0.2l-0.4,0.2l-0.4,0.2l-0.4,0.2l-0.4,0.2l-0.4,0.2l-0.4,0.2l-0.4,0.2l-0.3,0.2
			c-1,0.6-0.1,2.1,0.8,1.5l0.3-0.2l0.4-0.2l0.4-0.2l0.4-0.2l0.4-0.2l0.4-0.2l0.4-0.2l0.4-0.2l0.4-0.2l0.4-0.2l0.4-0.2l0.4-0.2
			l0.4-0.2l0.4-0.2l0.4-0.2l0.4-0.2l0.4-0.2l0.4-0.2l0.4-0.2l0.5-0.2l0.5-0.2l0.5-0.2l0.5-0.2l0.5-0.2l0.5-0.2l0.5-0.2l0.5-0.2
			l0.5-0.2l0.5-0.2l0.5-0.2l0.5-0.2l0.5-0.2l0.5-0.2l0.5-0.2l0.5-0.2l0,0v0C253.6,221.2,253,219.6,251.9,220z"/>
		<path class="st11" d="M294.7,209.3l-0.3,0l-0.4,0l-0.4,0l-0.4,0.1l-0.4,0.1l-0.4,0.1l-0.4,0.1l-0.4,0.1l-0.4,0.1l-0.4,0.1
			l-0.4,0.1l-0.4,0.1l-0.4,0.1l-0.4,0.1l-0.4,0.1l-0.4,0.1l-0.4,0.1l-0.4,0.1l-0.4,0.1l-0.4,0.1l-0.4,0.1l-0.4,0.1l-0.4,0.1
			l-0.5,0.1l-0.5,0.1l-0.5,0.1l-0.5,0.1l-0.5,0.1l-0.5,0.1l-0.5,0.1l-0.5,0.1l-0.5,0.1l-0.5,0.1l-0.5,0.1l-0.5,0.1l-0.5,0.1
			l-0.5,0.1l-0.5,0.1l-0.4,0.1c-1.1,0.2-0.8,1.9,0.3,1.7l0.4-0.1l0.5-0.1l0.5-0.1l0.5-0.1l0.5-0.1l0.5-0.1l0.5-0.1l0.5-0.1l0.5-0.1
			l0.5-0.1l0.5-0.1l0.5-0.1l0.4-0.1l0.5-0.1l0.4-0.1l0.4-0.1l0.4-0.1l0.4-0.1l0.4-0.1l0.4-0.1l0.4-0.1l0.4-0.1l0.4-0.1l0.4-0.1
			l0.4-0.1l0.4-0.1l0.4-0.1l0.4-0.1l0.4-0.1l0.4-0.1l0.4-0.1l0.4-0.1l0.4-0.1l0.4-0.1l0.4-0.1l0.4,0l0.4,0l0.4,0l0.3,0h0
			C296.1,210.8,295.9,209.2,294.7,209.3z"/>
		<polygon class="st11" points="317.1,209.9 317.1,209.9 317.1,209.9 		"/>
		<path class="st11" d="M272.5,212.9l-0.1,0l-0.5,0.1l-0.5,0.1l-0.5,0.1l-0.5,0.1l-0.5,0.1l-0.5,0.1l-0.5,0.1l-0.5,0.1l-0.5,0.1
			l-0.5,0.1l-0.5,0.1l-0.5,0.1l-0.5,0.1l-0.5,0.1l-0.5,0.1l-0.5,0.2l-0.5,0.2l-0.5,0.2l-0.5,0.2l-0.5,0.2l-0.5,0.2l-0.5,0.2
			l-0.5,0.2l-0.5,0.2l-0.5,0.2l-0.5,0.2l-0.5,0.2l-0.5,0.2l-0.5,0.2l-0.5,0.2l-0.5,0.2l-0.5,0.2l-0.5,0.2l-0.5,0.2l-0.3,0.1
			c-1.1,0.4-0.4,2,0.6,1.6l0.3-0.1l0.5-0.2l0.5-0.2l0.5-0.2l0.5-0.2l0.5-0.2l0.5-0.2l0.5-0.2l0.5-0.2l0.5-0.2l0.5-0.2l0.5-0.2
			l0.5-0.2l0.5-0.2l0.5-0.2l0.5-0.2l0.5-0.2l0.5-0.2l0.5-0.2l0.5-0.2l0.5-0.1l0.5-0.1l0.5-0.1l0.5-0.1l0.5-0.1l0.5-0.1l0.5-0.1
			l0.5-0.1l0.5-0.1l0.5-0.1l0.5-0.1l0.5-0.1l0.5-0.1l0.5-0.1l0.5-0.1l0.1,0l0,0C274,214.3,273.6,212.7,272.5,212.9z"/>
		<path class="st11" d="M198.7,356.6l-1.1,17.3c-0.1,1.1,1.7,1.2,1.7,0.1l1.1-17.3C200.4,355.6,198.7,355.5,198.7,356.6z"/>
		<path class="st11" d="M200.2,335.2l-1.1,17.3c-0.1,1.1,1.7,1.2,1.7,0.1l1.1-17.3C201.9,334.2,200.2,334.1,200.2,335.2z"/>
		<path class="st11" d="M197.2,378.3l-1.1,17.3c-0.1,1.1,1.7,1.2,1.7,0.1l1.1-17.3C199,377.3,197.3,377.2,197.2,378.3z"/>
		<path class="st11" d="M203.1,290.2l0,0.8l0,0l-1.1,16.5c-0.1,1.1,1.7,1.2,1.7,0.1l1.1-16.5l0,0l0-0.8
			C204.9,289.1,203.1,289,203.1,290.2z"/>
		<path class="st11" d="M201.6,312.7l-1.1,17.3c-0.1,1.1,1.7,1.2,1.7,0.1l1.1-17.3C203.4,311.7,201.7,311.6,201.6,312.7z"/>
		<path class="st11" d="M204.7,267.5l-0.1,0.4l-0.1,0.5l-0.1,0.5l-0.1,0.5l-0.1,0.5l-0.1,0.5l-0.1,0.5l-0.1,0.5l-0.1,0.5l-0.1,0.5
			l0,0.5l0,0.5l0,0.5l0,0.5l0,0.5l-0.5,10.2c-0.1,1.1,1.7,1.2,1.7,0.1l0.5-10.2l0-0.5l0-0.5l0-0.5l0-0.5l0-0.5l0.1-0.5l0.1-0.5
			l0.1-0.5l0.1-0.5l0.1-0.5l0.1-0.5l0.1-0.5l0.1-0.5l0.1-0.5l0.1-0.4l0,0C206.6,266.7,204.9,266.5,204.7,267.5z"/>
		<path class="st11" d="M361.6,216c-5.5-1.7-11.1-3.2-16.8-4.4c-1.1-0.2-1.5,1.4-0.4,1.7c5.6,1.1,11.2,2.7,16.6,4.4h0
			C362.1,218,362.6,216.3,361.6,216z"/>
		<path class="st11" d="M422.4,324.6l0-0.1l0-0.5l0-0.5l0-0.5l0-0.5l0-0.5l0-0.5l0-0.5l0-0.5l0-0.5l0-0.5l0-0.5l0-0.5l0-0.5l0-0.5
			l0-0.5l0-0.5l0-0.5l0-0.5l0-0.5l0-0.5l0-0.5l0-0.4l0-0.4l0-0.4l0-0.4l0-0.4l0-0.4l0-0.4l0-0.4l0-0.4l0-0.4l0-0.4l0-0.4l0-0.4
			l0-0.4l0-0.4l0-0.4l0-0.4l0,0c-0.1-1.1-1.8-1-1.7,0.1l0,0l0,0.4l0,0.4l0,0.4l0,0.4l0,0.4l0,0.4l0,0.4l0,0.4l0,0.4l0,0.4l0,0.4
			l0,0.4l0,0.4l0,0.4l0,0.4l0,0.4l0,0.4l0,0.5l0,0.5l0,0.5l0,0.5l0,0.5l0,0.5l0,0.5l0,0.5l0,0.5l0,0.5l0,0.5l0,0.5l0,0.5l0,0.5
			l0,0.5l0,0.5l0,0.5l0,0.5l0,0.5l0,0.5l0,0.5l0,0.1v0C420.8,325.9,422.5,325.8,422.4,324.6z"/>
		<path class="st11" d="M419.1,277.2c-0.5-4.8-1.2-9.7-2.5-14.3l0,0l-0.1-0.2c-0.2-0.8-0.5-1.6-0.7-2.4l0,0l0,0l0,0l0,0l0,0l0,0l0,0
			l0,0l0,0l0,0l0,0l0,0l0,0l0,0l0,0l0,0l0,0l0,0l0,0c-0.4-1.1-2-0.5-1.6,0.6l0,0l0,0l1.7,8.3l0,0l0.4,2l1.1,6.4l-0.4-2l-1.1-6.7l0,0
			c0.5,2.9,0.9,5.7,1.5,8.7C417.5,278.5,419.2,278.3,419.1,277.2z"/>
		<path class="st11" d="M424.3,349.5l0-0.4l0-0.6l0-0.6l0-0.6l0-0.6l0-0.6l0-0.6l0-0.6l0-0.6l0-0.6l0-0.6l0-0.6l0-0.6l0-0.6l0-0.6
			l0-0.6l0-0.6l0-0.6l0-0.6l0-0.6l0-0.6l0-0.6l0-0.6l0-0.6l0-0.6l0-0.6l0-0.6l0-0.6l0-0.6l0-0.6l0-0.6l0-0.5l0-0.5l0-0.5l0-0.1
			c-0.1-1.2-1.8-1.1-1.7,0.1l0,0.1l0,0.5l0,0.5l0,0.6l0,0.6l0,0.6l0,0.6l0,0.6l0,0.6l0,0.6l0,0.6l0,0.6l0,0.6l0,0.6l0,0.6l0,0.6
			l0,0.6l0,0.6l0,0.6l0,0.6l0,0.6l0,0.6l0,0.6l0,0.6l0,0.6l0,0.6l0,0.6l0,0.6l0,0.6l0,0.6l0,0.6l0,0.6l0,0.6l0,0.6l0,0.4
			C422.7,350.9,424.4,350.8,424.3,349.5z"/>
		<path class="st11" d="M420.3,299.8l0-0.1l0-0.4l0-0.4l0-0.4l0-0.3l0-0.3l0-0.3l0-0.3l0-0.3c-0.1-4.8-0.3-9.7-0.7-14.5
			c-0.1-1.1-1.8-1-1.7,0.1c0.4,4.8,0.6,9.6,0.7,14.4l0,0.3l0,0.3l0,0.3l0,0.3l0,0.4l0,0.4l0,0.4l0,0.4l0,0.1v0
			C418.7,301,420.4,300.9,420.3,299.8z"/>
		<path class="st11" d="M427,380.7c-0.1-1.2-1.8-1-1.7,0.2c1,10.9,1.6,18.2,1.8,20v0c0.1,1.2,1.9,1,1.7-0.2
			C428.2,394.4,427.6,386.9,427,380.7z"/>
		<path class="st11" d="M317.2,208.1l-0.4,0l-0.4,0l-0.4,0l-0.4,0l-0.4,0l-0.4,0l-0.4,0l-0.4,0l-0.4,0l-0.4,0l-0.4,0l-0.4,0l-0.4,0
			l-0.4,0l-0.4,0l-0.4,0l-0.4,0l-0.4,0l-0.4,0l-0.4,0l-0.4,0l-0.4,0l-0.4,0l-0.4,0l-0.4,0l-0.4,0l-0.4,0l-0.4,0l-0.4,0l-0.4,0
			l-0.4,0l-0.4,0l-0.4,0l-0.4,0l-0.4,0l-0.4,0l-0.4,0l-0.4,0l-0.4,0l-0.4,0l-0.4,0l-0.4,0l-0.4,0l-0.4,0l-0.4,0l-0.4,0l-0.4,0
			l-0.4,0l-0.1,0c-1.1,0.1-0.9,1.9,0.2,1.7l0.1,0l0.3,0l0.4,0l0.4,0l0.4,0l0.4,0l0.4,0l0.4,0l0.4,0l0.4,0l0.4,0l0.4,0l0.4,0l0.4,0
			l0.4,0l0.4,0l0.4,0l0.4,0l0.4,0l0.4,0l0.4,0l0.4,0l0.4,0l0.4,0l0.4,0l0.4,0l0.4,0l0.4,0l0.4,0l0.4,0l0.4,0l0.4,0l0.4,0l0.4,0
			l0.4,0l0.4,0l0.4,0l0.4,0l0.4,0l0.4,0l0.4,0l0.4,0l0.4,0l0.4,0l0.4,0l0.4,0l0.4,0l0.4,0l0.4,0
			C318.2,209.9,318.3,208.2,317.2,208.1z"/>
		<path class="st11" d="M426.5,374.3l0-0.2l0-0.5l0-0.5l0-0.5l0-0.5l0-0.5l0-0.5l0-0.5l0-0.5l0-0.5l0-0.5l0-0.5l0-0.5l0-0.5l0-0.5
			l0-0.5l0-0.5l0-0.5l0-0.5l0-0.5l0-0.5l0-0.5l0-0.5l0-0.5l0-0.5l0-0.5l0-0.5l0-0.5l0-0.5l0-0.6l0-0.6l0-0.6l0-0.6l0-0.6l0-0.6
			l0-0.6l0-0.1c-0.1-1.2-1.8-1.1-1.7,0.2l0,0.1l0,0.6l0,0.6l0,0.6l0,0.6l0,0.6l0,0.6l0,0.6l0,0.5l0,0.5l0,0.5l0,0.5l0,0.5l0,0.5
			l0,0.5l0.1,0.5l0,0.5l0,0.5l0,0.5l0,0.5l0,0.5l0,0.5l0,0.5l0,0.5l0,0.5l0,0.5l0,0.5l0,0.5l0,0.5l0,0.5l0,0.5l0,0.5l0,0.5l0,0.5
			l0,0.5l0,0.5l0,0.2h0C424.9,375.7,426.6,375.5,426.5,374.3z"/>
		<path class="st11" d="M382,224.1c-5.3-2.4-10.7-4.6-16.1-6.5c-1-0.4-1.6,1.2-0.6,1.6c5.4,1.9,10.8,4,16,6.4h0
			C382.3,226.2,383,224.6,382,224.1z"/>
		<polygon class="st11" points="415.8,260.2 415.8,260.2 415.8,260.2 		"/>
		<path class="st11" d="M339.6,210.6l-0.3-0.1l-0.4-0.1l-0.4-0.1l-0.4-0.1l-0.4-0.1l-0.4-0.1l-0.4-0.1l-0.4-0.1l-0.4-0.1l-0.4-0.1
			l-0.4-0.1l-0.4-0.1l-0.4-0.1l-0.4-0.1l-0.4-0.1l-0.4-0.1l-0.4-0.1l-0.4-0.1l-0.4-0.1l-0.4,0l-0.4,0l-0.4,0l-0.4,0l-0.4,0l-0.4,0
			l-0.4,0l-0.4,0l-0.4,0l-0.4,0l-0.4,0l-0.4,0l-0.4,0l-0.4,0l-0.4,0l-0.4,0l-0.4,0l-0.4,0l-0.4,0l-0.4,0l-0.4,0l-0.4,0l-0.4,0
			l-0.4,0l-0.4,0l-0.4,0l-0.4,0l-0.4,0l-0.2,0c-1.1-0.1-1.2,1.7-0.1,1.7l0.2,0l0.4,0l0.4,0l0.4,0l0.4,0l0.4,0l0.4,0l0.4,0l0.4,0
			l0.4,0l0.4,0l0.4,0l0.4,0l0.4,0l0.4,0l0.4,0l0.4,0l0.4,0l0.4,0l0.4,0l0.4,0l0.4,0l0.4,0l0.4,0l0.4,0l0.4,0l0.4,0l0.4,0l0.4,0
			l0.4,0l0.4,0.1l0.4,0.1l0.4,0.1l0.4,0.1l0.4,0.1l0.4,0.1l0.4,0.1l0.4,0.1l0.4,0.1l0.4,0.1l0.4,0.1l0.4,0.1l0.4,0.1l0.4,0.1
			l0.4,0.1l0.4,0.1l0.4,0.1l0.3,0.1v0C340.4,212.5,340.7,210.7,339.6,210.6z"/>
		<path class="st11" d="M404.7,240.4c-0.7-0.9-2,0.3-1.3,1.1c2.7,4.4,6.5,7.5,8.5,12.9c0.3,0.5,0.5,1,0.8,1.5c0.5,1,2,0.3,1.5-0.8
			C412,250.3,408.6,244.1,404.7,240.4z"/>
		<path class="st11" d="M387.1,226.7c-1-0.5-1.8,1-0.8,1.5c4.9,2.4,9.6,6.5,13.5,10.4v0c0.8,0.8,2-0.4,1.2-1.2
			C396.8,233.2,392.3,229.8,387.1,226.7z"/>
	</g>
</g>
</svg>
