<svg xmlns="http://www.w3.org/2000/svg" width="96" height="96" viewBox="0 0 96 96">
  <g fill="none" fill-rule="evenodd" transform="rotate(8 -13.703 108.353)">
    <polygon fill="#E5E5E5" points="69.663 34.041 72.401 72.694 77.691 74.454"/>
    <polygon fill="#E5E5E5" points="72.895 79.612 77.409 75.031 72.459 73.477"/>
    <polygon fill="#F1F1F1" points="25.073 34.041 21.478 79.612 71.394 79.612 68.396 34.041"/>
    <path fill="#F69A98" d="M56.4245217,41.6507042 L56.4245217,45.5943662 C56.4245217,52.1171831 51.766,57.4298592 46.0346957,57.4298592 C40.3067826,57.4298592 35.6482609,52.1216901 35.6482609,45.5943662 L35.6482609,41.5628169 C34.9417391,41.1932394 34.4556522,40.4664789 34.4556522,39.6169014 C34.4556522,38.3977465 35.4447826,37.4073239 36.6724348,37.4073239 C37.8955652,37.4073239 38.8846957,38.3932394 38.8846957,39.6169014 C38.8846957,40.5983099 38.2358261,41.4219718 37.3484348,41.708169 L37.3484348,45.5943662 C37.3484348,51.1842254 41.2473043,55.7397183 46.0392174,55.7397183 C50.8345217,55.7397183 54.7333913,51.1887324 54.7333913,45.5943662 L54.7333913,41.6552113 C53.9296522,41.3250704 53.3644348,40.5374648 53.3644348,39.6169014 C53.3644348,38.3977465 54.3535652,37.4073239 55.5812174,37.4073239 C56.8043478,37.4073239 57.798,38.3932394 57.798,39.6169014 C57.7889565,40.5329577 57.2237391,41.3160563 56.4245217,41.6507042 Z"/>
    <polyline fill="#F1F1F1" points="14.678 16.087 5.71 16.087 .309 72.658 20.846 72.297 24.022 32.812 48.961 32.812 48.961 32.812 47.098 16.091 39.132 16.091"/>
    <path fill="#F69A98" d="M39.1322609 14.3177465C39.1322609 6.63774648 33.6485217.387605634 26.9054783.387605634 20.1624348.387605634 14.6775652 6.63774648 14.6775652 14.3177465M40.5317391 21.3464789C40.5317391 22.7819718 39.3662609 23.948169 37.9226957 23.948169 36.4825217 23.948169 35.3125217 22.7819718 35.3125217 21.3464789 35.3125217 19.9121127 36.4825217 18.7459155 37.9226957 18.7459155 39.3662609 18.7504225 40.5317391 19.9121127 40.5317391 21.3464789zM15.6802609 23.9526761C14.2412174 23.9526761 13.070087 22.7864789 13.070087 21.3509859 13.070087 19.9166197 14.2412174 18.7504225 15.6802609 18.7504225 17.1238261 18.7504225 18.2904348 19.9166197 18.2904348 21.3509859 18.2904348 22.7909859 17.1238261 23.9526761 15.6802609 23.9526761z"/>
    <path fill="#FFF" d="M16.673913,16.0867606 L16.673913,14.3177465 C16.673913,7.73295775 21.2657391,2.37633803 26.9054783,2.37633803 C32.5486087,2.37633803 37.1404348,7.73295775 37.1404348,14.3177465 L37.1404348,16.0867606 L16.673913,16.0867606 Z"/>
  </g>
</svg>
