<svg xmlns="http://www.w3.org/2000/svg" width="36" height="36" viewBox="0 0 36 36">
  <g fill="#F69A98" transform="translate(6 6)">
    <polygon points="22.574 5.313 11.944 0 1.314 5.313 0 5.313 0 6.626 23.887 6.626 23.887 5.313"/>
    <rect width="2.657" height="11.938" x="10.63" y="7.969"/>
    <rect width="2.657" height="11.938" x="17.259" y="7.969"/>
    <rect width="2.657" height="11.938" x="3.971" y="7.969"/>
    <polygon points="22.574 21.31 1.314 21.22 1.314 22.593 0 22.593 0 23.876 1.314 23.876 2.657 23.876 5.315 23.876 10.63 23.876 13.257 23.876 18.572 23.876 21.23 23.876 22.574 23.876 23.887 23.876 23.887 22.593 22.574 22.593"/>
  </g>
</svg>
