<svg xmlns="http://www.w3.org/2000/svg" width="36" height="36" viewBox="0 0 36 36">
  <g fill="none" fill-rule="evenodd" transform="translate(6 9)">
    <path fill="#F69A98" d="M11.9109813,14.0884334 C13.5045822,14.0884334 15.0517952,13.8938202 16.5098008,13.5117752 L16.7538722,13.455761 L20.6404598,17.8076278 L20.468468,12.719678 L20.4227938,12.0546898 L20.4384943,11.8248882 L20.6047769,11.7114237 C22.511674,10.4159175 23.5621803,8.76852766 23.5621803,7.0744594 C23.5621803,3.20733028 18.3360545,0.0604853742 11.9109813,0.0604853742 C5.48662184,0.0604853742 0.259782372,3.20733028 0.259782372,7.0744594 C0.259782372,10.9415885 5.48662184,14.0884334 11.9109813,14.0884334 Z"/>
    <path fill="#FFF" d="M13.401483,3.57798165 L8.76201538,3.57798165 L8.17286915,4.52997197 L11.0420118,4.52997203 C11.763604,4.52997203 11.777089,4.97721654 12.0308343,5.4682686 L8.52806543,5.4682686 L8.17286915,6.43626073 L12.0308344,6.43626073 C11.7770891,6.92731278 11.1679119,7.3753796 10.4572837,7.3753796 L8.76201538,7.3753796 C10.1832718,9.0122831 11.456529,10.5284241 12.9449528,12.1651376 L14.594564,12.1651376 L11.1186003,8.28908728 C12.5141115,8.28908728 13.0968945,7.50014352 13.4014831,6.43626073 L15.242624,6.42959306 L15.635054,5.47978252 L13.401483,5.4682686 C13.351111,5.18175825 13.130806,4.77549805 12.9286287,4.52997203 L15.242624,4.52997197 L15.635054,3.57798165 L13.401483,3.57798165 Z"/>
  </g>
</svg>
