<svg xmlns="http://www.w3.org/2000/svg" width="138" height="150" viewBox="0 0 138 150">
  <g fill="none" fill-rule="evenodd" transform="translate(0 21)">
    <g transform="translate(0 27.965)">
      <path fill="#FBCFCE" d="M34.1481972,94.8456333 L35.3882535,98.8608643 L51.5964507,94.7947084 C51.5964507,94.7947084 49.9812676,89.4260507 44.0900282,93.5059172 L42.2416056,93.7899213 L34.1481972,94.8456333"/>
      <path fill="#F1F1F1" d="M43.6352113,26.2556937 C43.6352113,26.2556937 41.6176901,25.4213091 40.9568451,27.0704919 C40.9568451,27.0704919 40.5331268,28.4415464 41.0481972,29.2778896 C41.5593803,30.1122742 42.7236338,31.4108587 44.8422254,31.5969304 L44.2183099,30.3571054 C44.2183099,30.3571054 42.6109014,29.8498152 42.0977746,29.0369757 C42.0977746,29.0369757 41.4894085,28.1124933 42.1347042,27.4426352 C42.3951549,27.1723416 42.7761127,26.862875 43.6352113,27.5229398 L43.6352113,26.2556937"/>
      <path fill="#F1F1F1" d="M43.7051831,24.5105372 L55.1105915,24.5105372 C55.320507,28.5786518 55.0542254,30.0868118 54.2631549,31.5225017 C52.7879155,34.2097685 49.4059437,34.0491593 49.4059437,34.0491593 C49.4059437,34.0491593 46.0278592,34.2097685 44.5487324,31.5225017 C43.7596056,30.0868118 43.4913803,28.5786518 43.7051831,24.5105372"/>
      <path fill="#FDDADA" d="M51.0386197,23.7936716 C51.0386197,23.7936716 49.3379155,21.7860561 50.226169,20.7714757 C50.7295775,20.2034674 51.5925634,19.948843 50.5682535,17.7512385 C50.5682535,17.7512385 50.6770986,19.2261014 49.8199437,20.2250126 C49.2504507,20.887036 48.5118592,22.0759362 51.0386197,23.7936716"/>
      <path fill="#FBCFCE" d="M49.662507,23.9327357 C49.662507,23.9327357 47.2173803,21.043728 48.4982535,19.5884516 C49.2154648,18.7677775 50.4555211,18.4034687 48.9880563,15.2441674 C48.9880563,15.2441674 49.1416056,17.363426 47.9093239,18.7991159 C47.0890986,19.7529781 46.0298028,21.4648376 49.662507,23.9327357"/>
      <polyline fill="#FFEBEB" points="37.491 32.76 36.432 27.311 38.86 25.868 40.957 25.868 42.819 25.929 42.731 27.145 41.653 28.075 42.162 30.533 42.731 33.15 40.792 35.818 36.045 35.818 37.491 32.76"/>
      <polyline fill="#FFEBEB" points="18.914 11.427 26.774 21.059 22.076 22.81 22.918 28.7 14.336 29.783 10.387 30.014 5.089 14.132 3.213 10.665 16.48 5.469 18.647 3.238 17.444 .476 20.692 2.489 21.827 7.68 18.914 11.427"/>
      <polyline fill="#FBCFCE" points="36.42 31.121 32.403 39.598 23.551 32.666 21.874 42.289 32.963 48.355 35.614 47.799 42.731 35.256 36.42 31.121"/>
      <polyline fill="#ECECEC" points="37.837 66.966 36.286 65.376 34.072 63.194 3.53 62.369 1.609 68.729 2.5 72.752 30.463 72.562 33.091 95.42 42.242 93.79 37.837 66.966"/>
      <polyline fill="#FDDADA" points="16.451 31.552 8.319 31.188 6.43 42.638 1.609 68.729 18.074 65.585 23.808 31.121 16.451 31.552"/>
      <polyline fill="#AAA" points="9.032 14.098 10.245 19.214 7.58 21.61 5.077 14.337 3.213 10.665 16.471 5.514 18.632 3.245 17.398 .476 20.683 2.47 21.874 7.688 9.032 14.098"/>
      <polyline fill="#FDDADA" points="21.798 77.696 2.523 77.696 .363 75.146 2.5 72.562 21.474 72.562 23.631 74.981 21.798 77.696"/>
      <polygon fill="#FDDADA" points="9.716 97.515 14.276 97.515 14.276 73.961 9.716 73.961"/>
      <polyline fill="#FDDADA" points="19.563 100.222 4.432 100.222 6.573 96.593 17.264 96.593 19.563 100.222"/>
      <path fill="#CFCFCF" d="M104.040338,94.8456333 L102.800282,98.8608643 L86.5920845,94.7947084 C86.5920845,94.7947084 88.2072676,89.4260507 94.098507,93.5059172 L95.9469296,93.7899213 L104.040338,94.8456333"/>
      <path fill="#FBCFCE" d="M87.8826761,43.7718944 C87.8826761,43.7718944 89.8982535,42.9394684 90.5590986,44.5886511 C90.5590986,44.5886511 90.9828169,45.957747 90.4677465,46.7960489 C89.9565634,47.6284748 88.7923099,48.9290179 86.675662,49.1111723 L87.3015211,47.8713473 C87.3015211,47.8713473 88.9050423,47.3679745 89.418169,46.5531764 C89.418169,46.5531764 90.0284789,45.6267352 89.3831831,44.9568772 C89.1207887,44.6865836 88.739831,44.3790756 87.8826761,45.0391405 L87.8826761,43.7718944"/>
      <path fill="#FBCFCE" d="M87.8127042 42.0247792L76.4053521 42.0247792C76.1973803 46.0928938 76.4617183 47.604971 77.2547324 49.0387023 78.7299718 51.7240105 82.11 51.5653599 82.11 51.5653599 82.11 51.5653599 85.4900282 51.7240105 86.9691549 49.0387023 87.756338 47.604971 88.0245634 46.0928938 87.8127042 42.0247792M80.4792676 41.3118308C80.4792676 41.3118308 82.1799718 39.3022567 81.2917183 38.289635 80.7883099 37.719668 79.9233803 37.4670023 80.9476901 35.2654805 80.9476901 35.2654805 80.8388451 36.7442607 81.696 37.7412132 82.2674366 38.401278 83.0040845 39.5940954 80.4792676 41.3118308"/>
      <path fill="#FBCFCE" d="M81.8534366,41.4489363 C81.8534366,41.4489363 84.2985634,38.5618872 83.0176901,37.1026935 C82.3004789,36.2839781 81.0623662,35.9196694 82.5278873,32.7623267 C82.5278873,32.7623267 82.3762817,34.8815852 83.6085634,36.3133579 C84.4287887,37.2672201 85.4861408,38.9790795 81.8534366,41.4489363"/>
      <polyline fill="#FFEBEB" points="95.809 42.319 90.511 40.806 88.882 43.126 88.707 45.231 88.615 47.106 89.824 47.119 90.833 46.112 93.222 46.827 95.762 47.617 98.561 45.887 98.956 41.122 95.809 42.319"/>
      <polyline fill="#FFEBEB" points="119.277 11.427 111.417 21.059 116.112 22.81 115.273 28.7 123.85 29.783 127.802 30.014 133.102 14.132 134.978 10.665 121.71 5.469 119.541 3.238 120.744 .476 117.498 2.489 116.363 7.68 119.277 11.427"/>
      <path fill="#AAA" d="M120.785679 16.1890376C120.799865 16.5937383 120.485364 16.9332685 120.083146 16.9473486 119.681127 16.9614286 119.343847 16.6448288 119.329861 16.2401281 119.315874 15.8354274 119.630375 15.4958972 120.032394 15.481616 120.434412 15.467536 120.771692 15.7841358 120.785679 16.1890376M18.5033256 16.1890376C18.5175121 16.5937383 18.2030107 16.9332685 17.8007926 16.9473486 17.3987743 16.9614286 17.0614946 16.6448288 17.0475078 16.2401281 17.0335211 15.8354274 17.3480225 15.4958972 17.7500408 15.481616 18.1520591 15.467536 18.4893389 15.7841358 18.5033256 16.1890376"/>
      <polyline fill="#E1E1E1" points="93.784 41.145 107.724 40.861 114.381 31.121 117.255 40.861 111.743 47.143 109.335 48.388 93.784 48.388 93.784 41.145"/>
      <polyline fill="#FBCFCE" points="100.351 66.966 101.9 65.376 104.116 63.194 134.659 62.369 136.581 68.729 135.689 72.752 107.724 72.562 105.098 95.42 95.947 93.79 100.351 66.966"/>
      <polyline fill="#ECECEC" points="121.735 31.552 129.87 31.188 131.761 42.638 136.581 68.729 120.112 65.585 114.381 31.121 121.735 31.552"/>
      <polyline fill="#AAA" points="129.158 14.098 127.945 19.214 130.61 21.61 133.114 14.337 134.978 10.665 121.718 5.514 119.557 3.245 120.793 .476 117.508 2.47 116.315 7.688 129.158 14.098"/>
      <polyline fill="#F1F1F1" points="116.39 77.696 135.664 77.696 137.827 75.146 135.689 72.562 116.715 72.562 114.559 74.981 116.39 77.696"/>
      <polygon fill="#F1F1F1" points="123.91 97.515 128.472 97.515 128.472 73.961 123.91 73.961"/>
      <polyline fill="#F1F1F1" points="118.628 100.222 133.759 100.222 131.613 96.593 120.925 96.593 118.628 100.222"/>
      <polygon fill="#ECECEC" points="66.502 56.446 66.502 94.846 59.95 94.846 56.623 100.222 81.568 100.222 78.295 94.846 71.688 94.846 71.688 56.446 101.368 56.446 101.368 58.342 105.1 58.342 105.1 54.366 101.496 51.471 36.869 51.471 33.091 54.366 33.091 58.342 36.825 58.342 36.825 56.446"/>
      <polyline fill="#FFEBEB" points="25.664 63.37 28.745 67.378 35.171 64.032 30.319 59.725 25.664 63.37"/>
      <polyline fill="#FFEBEB" points="112.186 63.37 109.106 67.378 102.68 64.032 107.531 59.725 112.186 63.37"/>
      <path fill="#FBCFCE" d="M25.4619718,63.5503349 L34.1481972,60.9335794 L15.1294648,32.0415438 L7.98067606,33.2284852 C7.98067606,33.2284852 9.13715493,40.4265214 9.49478873,41.6310907 L25.4619718,63.5503349"/>
      <path fill="#E1E1E1" d="M112.726563,63.5503349 L105.519465,61.3801515 L123.061014,32.0415438 L130.207859,33.2284852 C130.207859,33.2284852 129.05138,40.4265214 128.693746,41.6310907 L112.726563,63.5503349"/>
    </g>
    <g transform="translate(40.588)">
      <g transform="scale(-1 1) rotate(-84 3.265 30.998)">
        <path fill="#F1F1F1" d="M31.0124488,23.1046995 L5.03000567e-13,23.1046995 L5.03000567e-13,1.12689193 L3.07142522,3.7358175 C3.282252,3.91454876 3.5703064,3.91454876 3.78113318,3.7358175 L7.44895164,0.621497976 L11.1167701,3.7358175 C11.3275969,3.91454876 11.6156513,3.91454876 11.8264781,3.7358175 L15.5062244,0.621497976 L19.1740429,3.7358175 C19.3848696,3.91454876 19.672924,3.91454876 19.8837508,3.7358175 L23.5575332,0.621497976 L27.2313156,3.7358175 C27.4421424,3.91454876 27.7301968,3.91454876 27.9410236,3.7358175 L31.0124488,1.12689193 L31.0124488,23.1046995 Z"/>
        <path fill="#FEBBBA" fill-rule="nonzero" d="M6.06765302 10.9274369L14.1578571 10.9274369C14.5301984 10.9274369 14.8320407 10.6216632 14.8320407 10.2444721 14.8320407 9.86728108 14.5301984 9.56150732 14.1578571 9.56150732L6.06765302 9.56150732C5.69531167 9.56150732 5.39346936 9.86728108 5.39346936 10.2444721 5.39346936 10.6216632 5.69531167 10.9274369 6.06765302 10.9274369zM24.9447958 16.3911554L6.06765302 16.3911554C5.69531167 16.3911554 5.39346936 16.6969292 5.39346936 17.0741202 5.39346936 17.4513113 5.69531167 17.757085 6.06765302 17.757085L24.9447958 17.757085C25.3171371 17.757085 25.6189794 17.4513113 25.6189794 17.0741202 25.6189794 16.6969292 25.3171371 16.3911554 24.9447958 16.3911554z"/>
      </g>
      <g transform="scale(-1 1) rotate(84 -19.362 -16.744)">
        <path fill="#F1F1F1" d="M31.0124488,23.1046995 L1.18563111e-13,23.1046995 L1.18563111e-13,1.12689193 L3.07142522,3.7358175 C3.282252,3.91454876 3.5703064,3.91454876 3.78113318,3.7358175 L7.44895164,0.621497976 L11.1167701,3.7358175 C11.3275969,3.91454876 11.6156513,3.91454876 11.8264781,3.7358175 L15.5062244,0.621497976 L19.1740429,3.7358175 C19.3848696,3.91454876 19.672924,3.91454876 19.8837508,3.7358175 L23.5575332,0.621497976 L27.2313156,3.7358175 C27.4421424,3.91454876 27.7301968,3.91454876 27.9410236,3.7358175 L31.0124488,1.12689193 L31.0124488,23.1046995 Z"/>
        <path fill="#FEBBBA" d="M4.2019231,6.26720648 L4.2019231,6.28505736 L4.16768087,6.28505736 L4.16768087,8.11299258 L5.66860058,8.11299258 C7.03204439,8.11299258 7.72028003,8.92035373 7.96848877,9.92307692 L4.2019231,9.92307692 L4.2019231,11.7510121 L7.96848877,11.7510121 C7.72108357,12.7544486 7.03370697,13.5646666 5.66860058,13.5646666 L5.20063406,13.5646666 L5.19492605,13.5575262 L5.18921949,13.5646666 L4.16768087,13.5646666 L4.16768087,15.3926028 L4.59855333,15.3926028 L9.05565567,20.8906883 L10.0829008,19.5911396 L6.58456068,15.2712151 C8.16927438,14.855464 9.18674275,13.3797531 9.46655374,11.7510121 L11.4611224,11.7510121 L11.4611224,9.92307692 L9.46655374,9.92307692 C9.35321308,9.26550684 9.1074953,8.64367106 8.76460396,8.0951417 L11.4611224,8.0951417 L11.4611224,6.26720648 L4.2019231,6.26720648 Z" transform="matrix(-1 0 0 1 15.629 0)"/>
        <path fill="#FEBBBA" fill-rule="nonzero" d="M16.9347394,13.6592962 L25.0249435,13.6592962 C25.3972848,13.6592962 25.6991271,13.3535224 25.6991271,12.9763314 C25.6991271,12.5991403 25.3972848,12.2933666 25.0249435,12.2933666 L16.9347394,12.2933666 C16.5623981,12.2933666 16.2605558,12.5991403 16.2605558,12.9763314 C16.2605558,13.3535224 16.5623981,13.6592962 16.9347394,13.6592962 Z"/>
      </g>
    </g>
  </g>
</svg>
