<svg xmlns="http://www.w3.org/2000/svg" width="168" height="475" viewBox="0 0 168 475">
  <g fill="none" fill-rule="evenodd" transform="translate(5 3)">
    <g transform="translate(0 219)">
      <path fill="#F69A98" d="M49.6407435 232.932466C50.7657462 235.844843 58.4026665 236.532932 61.7395991 240.320088 64.8460483 243.851211 76.0564767 243.547172 76.9047978 239.231947 76.9931328 238.778555 77.0799449 237.199685 76.783464 236.735625 75.885391 235.322109 73.2043715 234.975397 70.3654658 233.657893 69.1653276 233.103155 66.1878273 230.137439 62.7843895 227.529101 62.7219458 227.481095 62.6600097 227.433089 62.597566 227.379749 61.8924086 227.358413 61.2390339 227.502431 60.632365 227.838475 59.0484262 228.729257 59.3652139 229.838733 57.5700833 230.169443 55.7749527 230.500152 51.4460276 230.393472 50.4956643 227.838475 50.1474009 227.710458 49.8108139 227.56644 49.483365 227.417087 49.2853726 229.732053 49.1955146 231.780318 49.6407435 232.932466zM28.7500122 233.876588C28.4459163 236.148882 29.9156287 233.023145 33.3657724 233.097821 36.2209236 233.161829 37.2235771 236.314237 37.5378265 234.943393 37.8525836 233.577883 37.3337421 232.249712 37.1667178 230.617501 37.0002012 228.979956 37.7129736 230.900204 37.9282268 232.516413 38.1434801 234.127287 39.5263805 240.330756 38.9115888 242.560377 38.2967972 244.784665 36.1452803 248.470475 32.0879602 247.92107 28.03064 247.371666 25.4486167 243.461827 25.9400439 240.266748 26.4319787 237.066334 28.8601772 232.095025 29.3830801 231.156237 29.9054753 230.222783 30.8314703 229.166646 29.9359356 230.873534 29.3500814 231.988344 28.8510391 233.124491 28.7500122 233.876588z"/>
      <path fill="#EDC7B8" d="M52.6380431,223.928636 C47.9897919,218.498601 47.5562394,189.353501 46.7632547,181.683176 C44.2289526,157.15894 61.5974508,127.488439 58.4544491,169.472532 C57.3695526,183.971472 58.8357113,231.172239 52.6380431,223.928636 Z"/>
      <path fill="#FFEBEB" d="M49.6407435,230.926874 C50.7657462,233.833916 58.4026665,234.522005 61.7395991,238.314495 C64.8460483,241.840284 76.0564767,241.541579 76.9047978,237.226355 C77.2616917,235.402119 74.14052,233.40186 70.3654658,231.652301 C69.1653276,231.097563 66.1878273,228.131846 62.7843895,225.518175 C59.5083776,223.00585 56.3034399,218.519937 56.5603223,216.412998 C57.1954209,211.222994 48.2273827,210.145521 49.6219596,215.132833 C50.8094061,219.378715 48.5152332,228.014497 49.6407435,230.926874 Z"/>
      <path fill="#FBCFCE" d="M49.6407435,230.926874 C50.7657462,233.833916 58.4026665,234.522005 61.7395991,238.314495 C64.8460483,241.840284 76.0564767,241.541579 76.9047978,237.226355 C77.2616917,235.402119 74.14052,233.40186 70.3654658,231.652301 C69.1653276,231.097563 66.1878273,228.131846 62.7843895,225.518175 C62.7219458,225.475503 62.6600097,225.422162 62.597566,225.374156 C61.8924086,225.347486 61.2390339,225.491505 60.632365,225.832882 C59.0484262,226.723664 59.3652139,227.833141 57.5700833,228.16385 C55.7749527,228.49456 51.4460276,228.387879 50.4956643,225.832882 C50.1474009,225.704866 49.8108139,225.560847 49.483365,225.411494 C49.2853726,227.72646 49.1955146,229.774725 49.6407435,230.926874 Z"/>
      <path fill="#EDC7B8" d="M35.9422113,225.838216 C40.6513832,220.280165 42.2459831,178.162721 41.9698091,168.542811 C41.2463756,143.328353 30.5090981,127.746072 29.7907413,170.839108 C29.5262438,186.697158 29.6633154,233.247174 35.9422113,225.838216 Z"/>
      <path fill="#FEBBBA" d="M44.5300025,137.387889 C27.5818574,137.387889 23.4895078,119.647996 28.5088677,105.913955 C31.7478195,97.0498759 24.4936844,78.6517648 20.6074499,66.2085567 C14.6108201,47.0071418 74.2704842,48.316111 68.8815386,65.5700742 C64.9958118,78.0132823 57.5873442,97.0504093 60.8268036,105.913955 C66.2705779,120.811347 63.2621095,137.387889 44.5300025,137.387889"/>
      <path fill="#FFEBEB" d="M38.956264,237.439716 C39.6761439,243.408487 34.8862521,245.526094 32.1676648,245.46742 C29.4490775,245.41408 24.5505437,241.376224 26.3304442,236.148882 C28.1108523,230.926874 31.7762492,225.070117 31.5026136,222.232417 C30.980726,216.823718 38.6333842,216.781046 37.6429148,222.712479 C36.9408035,226.915689 38.2358765,231.470944 38.956264,237.439716 Z"/>
      <path fill="#ECECEC" d="M25.9882728,156.446352 C26.487315,170.443895 27.1208906,167.836053 27.4229558,179.906947 C27.5001221,183.00068 27.1569353,220.68555 27.1813036,227.571774 C31.5681034,228.515896 36.9484185,228.49456 39.9386107,227.859811 C40.8955737,224.147331 40.6798128,205.15821 41.1854548,196.874473 C41.6910968,188.585402 42.2155227,168.928461 42.3652862,161.065045 C42.4165611,158.376164 43.2405139,137.870085 44.460959,137.741535 C44.6041227,137.7266 44.7203798,137.478034 44.8132839,137.043845 C44.906188,137.478034 45.022445,137.7266 45.1656087,137.741535 C46.3860539,137.870085 45.776339,159.129328 45.8276139,161.818209 C45.9768697,169.681625 46.7160411,191.412434 46.6835501,198.005286 C46.6515667,204.592804 48.8934493,226.686326 48.8934493,226.686326 C53.303602,225.518175 58.0208967,223.432572 61.7147232,223.832624 C60.9374763,215.52755 60.5440299,187.982657 60.5440299,181.944543 C60.5440299,169.552542 62.3361145,169.68273 63.0316261,155.015767 C63.72663,140.348805 63.9576211,126.30379 63.8022733,118.315024 C58.6514261,112.036879 30.9751416,112.036879 25.8237868,118.315024 C25.6689467,126.30379 25.4887229,142.44881 25.9882728,156.446352 Z"/>
      <path fill="#DCDCDC" d="M40.6188921 223.517916C40.8996351 223.491246 41.1219957 223.773949 41.1098116 224.056653 41.0433065 225.640857 40.9762937 227.225062 40.9092809 228.814601 40.8970967 229.097304 40.6549369 229.267993 40.3747015 229.299997 35.920889 229.833399 31.4944908 229.694715 27.1056604 228.686584 26.8305018 228.622576 26.6030644 228.430551 26.6147409 228.147848 26.6817537 226.563643 26.7487665 224.974105 26.8152716 223.3899 26.8274558 223.107197 27.072154 222.851164 27.349851 222.89917 31.8275241 223.715275 36.2595067 223.96064 40.6188921 223.517916zM48.107572 221.426979C47.8385055 221.437648 47.6643737 221.747021 47.712095 222.02439 47.9796385 223.587259 48.247182 225.150127 48.5142178 226.707662 48.5619391 226.990365 48.8137447 227.12905 49.0833189 227.123716 53.3650304 227.065041 58.3214389 226.206264 62.343222 224.632727 62.5955353 224.531381 62.7864202 224.312686 62.738699 224.035317 62.4711555 222.472448 62.203612 220.909579 61.9365761 219.346711 61.8888549 219.069341 61.6238498 218.845312 61.3679827 218.930657 57.2365423 220.328171 52.2882566 221.293629 48.107572 221.426979z"/>
      <path fill="#F69A98" d="M27.1427205,243.323143 C27.3914801,241.610921 29.7049446,240.298752 32.4885139,240.357426 C35.2527918,240.410766 37.4895976,241.792278 37.6850516,243.499165 C34.7364886,247.723711 30.0785917,247.211645 27.1427205,243.323143 Z"/>
      <path stroke="#F69A98" stroke-linecap="round" stroke-linejoin="round" stroke-width=".975" d="M66.166505,233.156495 L67.3965959,229.380007 M64.3282222,231.284253 L65.5583131,227.502431 M62.5950276,229.662711 L63.8251185,226.211598 M69.7288443,230.910872 L64.8308181,231.369598 M67.6270793,229.219987 L62.7290532,229.678713 M65.8278873,227.641116 L60.9298612,228.099842"/>
      <path fill="#F69A98" d="M76.9047978,237.226355 C76.8230625,236.298235 76.3905254,235.359447 75.1802337,234.409991 L75.0421467,234.409991 C72.0027103,234.409991 69.5308519,237.226355 69.4582547,240.730808 C73.4216554,241.221538 77.1941712,240.512113 76.9047978,237.226355 Z"/>
      <path fill="#FBCFCE" d="M28.7500122,231.449608 C28.4459163,233.721902 29.9156287,230.596164 33.3657724,230.670841 C36.2209236,230.734849 37.2235771,233.887256 37.5378265,232.516413 C37.8525836,231.145569 37.3337421,229.822731 37.1667178,228.185186 C37.0002012,226.552975 37.7129736,228.473223 37.9282268,230.084098 C38.1434801,231.700307 39.5263805,237.903776 38.9115888,240.128063 C38.2967972,242.357685 36.1452803,246.03816 32.0879602,245.488756 C28.03064,244.944686 25.4486167,241.034847 25.9400439,237.834433 C26.4319787,234.639354 28.8601772,229.668045 29.3830801,228.729257 C29.9054753,227.790469 30.8314703,226.739666 29.9359356,228.446553 C29.3500814,229.561364 28.8510391,230.697511 28.7500122,231.449608 Z"/>
      <path stroke="#F69A98" stroke-linecap="round" stroke-linejoin="round" stroke-width=".975" d="M29.4176018,238.853232 L35.1583646,237.183682 M29.8110482,236.778297 L35.551811,235.108748 M30.0080252,234.911389 L35.748788,233.24184 M35.668068,239.30129 L30.2116019,237.08767 M35.579733,237.205019 L30.1232669,234.986065 M35.6563915,235.332777 L30.1999254,233.113823"/>
      <path fill="#EDC7B8" d="M15.4545721 75.9020761C13.1299388 89.7214621 12.129316 101.717146 16.0815479 102.6522 20.0337798 103.587788 23.9123992 91.5873033 27.436663 80.7608374 37.8373534 48.8084413 20.3084307 47.0407461 15.4545721 75.9020761M73.2977833 75.9020761C75.6219089 89.7214621 76.6230394 101.717146 72.6708075 102.6522 68.718068 103.587788 64.8394486 91.5873033 61.3151848 80.7608374 50.9144943 48.8084413 68.443417 47.0407461 73.2977833 75.9020761"/>
      <path fill="#EDC7B8" d="M76.3697108,112.500939 C75.994033,122.033905 75.4807759,133.335099 72.7043139,132.899309 C70.2933763,132.521127 69.1277598,120.4465 68.4850462,113.008205 C65.8030114,82.0009977 77.2855523,89.2397999 76.3697108,112.500939"/>
      <path fill="#FFEBEB" d="M39.4116464,34.7959636 L49.6087601,34.7959636 L49.6087601,55.5602472 C49.6087601,58.5062279 47.3145872,60.9172062 44.510711,60.9172062 L44.5096956,60.9172062 C41.7058193,60.9172062 39.4116464,58.5062279 39.4116464,55.5602472 L39.4116464,34.7959636"/>
      <path fill="#F69A98" d="M23.7966498 75.9852869C22.6675857 72.5261732 21.5405523 69.1956094 20.6074499 66.2085567 18.1198537 58.2432606 26.9305133 53.8074873 37.7094199 52.5753281 39.9863319 52.3150278 42.1454639 55.4151618 44.5102033 55.4375647 46.7099491 55.4583674 49.11581 52.3833033 51.2444816 52.644137 62.1071542 53.9739088 71.1234212 58.3926132 68.8815386 65.5700742 67.8890384 68.7491517 66.6665626 72.3581515 65.4501788 76.1181041 60.4166041 80.1330229 52.9893526 82.6720177 44.7051496 82.6720177 36.3300732 82.6720177 28.8327629 80.0764823 23.7966498 75.9852869M25.8522165 116.512658L25.0962919 123.127913C30.2461237 124.118441 37.3296807 125.751185 43.8349986 123.463423L45.2818658 118.658535 25.8522165 116.512658"/>
      <path fill="#F69A98" d="M64.2297337,123.127913 C59.0804096,124.118441 51.9968525,125.751185 45.4910269,123.463423 L44.0446674,118.658535 L63.473809,116.512658 L64.2297337,123.127913 Z"/>
      <path fill="#FEBBBA" d="M24.0829772,121.733066 C24.2038033,97.2915071 29.7582502,95.0640193 19.5281378,62.1445648 C20.3663054,59.8861396 20.6277568,56.0925827 31.1096749,53.6693361 C38.4917435,61.774917 50.2362436,62.6411623 58.0985706,53.7232098 C64.0286953,55.3004803 68.1337367,56.7764044 69.7628584,62.46834 C59.7449531,97.1480219 65.4593169,97.03014 65.0277952,121.774138 C53.3741685,118.845226 35.6543609,119.069788 24.0829772,121.733066"/>
      <polyline fill="#F69A98" points="2.301 115.393 33.876 115.393 33.876 138.315 31.983 139.998 2.895 137.787 2.301 115.393"/>
      <polyline fill="#FFF" points="2.903 116.365 .818 117.89 1.18 138.807 31.295 139.035 33.235 137.357 33.235 116.365 2.903 116.365"/>
      <polygon fill="#F69A98" points=".407 139.998 31.983 139.998 31.983 117.076 .407 117.076"/>
      <polyline fill="#CFCFCF" points="6.113 116.991 32.021 122.694 28.271 141.501 26.442 142.541 2.936 135.472 6.113 116.991"/>
      <polyline fill="#FFF" points="6.448 117.896 4.488 118.771 1.363 135.999 26.035 141.626 27.901 140.6 31.336 123.375 6.448 117.896"/>
      <polyline fill="#CFCFCF" points="4.284 118.03 30.192 123.733 26.442 142.541 .534 136.837 4.284 118.03"/>
      <path fill="#FFEBEB" d="M44.6097071,1.23322605 C60.6496259,1.12494539 61.8873319,20.920037 58.7011781,33.8321057 C57.0872866,40.3726844 49.3209097,45.6821706 44.6097071,45.6821706 C39.7649866,45.6821706 32.2524461,40.6655222 30.3085674,33.6283461 C26.8015644,20.9328387 29.2993141,1.33670609 44.6097071,1.23322605"/>
      <path fill="#FFEBEB" d="M54.9286623 22.7992132C53.9143322 22.1740657 47.9765924 21.9767069 46.6652739 23.8249458 45.5631165 25.3782132 47.3557087 29.150434 49.0477818 29.9846752 50.690103 30.7943798 54.0580036 30.3249858 54.9748605 28.5786268 55.8587187 26.896276 56.0699105 23.5027708 54.9286623 22.7992132M33.7983095 22.8621547C34.8095935 22.2311398 40.7458103 21.998043 42.0672823 23.8382808 43.1780702 25.3851474 41.4057848 29.1680363 39.7177731 30.0124121 38.080021 30.831718 34.709582 30.3825933 33.783587 28.6415683 32.8905907 26.9645515 32.6611227 23.5721131 33.7983095 22.8621547"/>
      <path fill="#AAA" d="M38.2688752 27.5070216C38.8994047 27.5070216 39.4136771 26.1564471 39.4136771 24.500233 39.4136771 22.8445524 38.8994047 21.4939778 38.2688752 21.4939778 37.6388534 21.4939778 37.1240733 22.8445524 37.1240733 24.500233 37.1240733 26.1564471 37.6388534 27.5070216 38.2688752 27.5070216M50.2078139 27.5070216C50.8378357 27.5070216 51.3521082 26.1564471 51.3521082 24.500233 51.3521082 22.8445524 50.8378357 21.4939778 50.2078139 21.4939778 49.5772844 21.4939778 49.063012 22.8445524 49.063012 24.500233 49.063012 26.1564471 49.5772844 27.5070216 50.2078139 27.5070216"/>
      <path fill="#FEBBBA" d="M51.3297706,34.9853214 C47.4978571,35.9534466 41.737295,35.9737159 37.7241424,35.0754664 C40.7798244,37.1984075 47.9273482,37.277351 51.3297706,34.9853214"/>
      <path fill="#FBCFCE" d="M43.1384717,32.16309 C45.9890538,32.7871707 47.1602547,30.9570675 47.1795463,29.4224692 C47.9065336,32.2484344 45.9585935,33.7766319 43.1384717,32.16309"/>
      <path fill="#AAA" d="M47.8278443,18.5992037 C48.9670619,18.0700687 50.9733843,17.4651905 53.3294933,18.4167802 C54.508817,18.8936418 54.2925484,19.5411921 53.0589038,19.0659307 C51.1525928,18.3319692 49.9367167,18.7800271 48.1314326,19.566262 C47.4318596,19.8703013 47.0526281,18.9587169 47.8278443,18.5992037" opacity=".9"/>
      <path fill="#FEBBBA" d="M47.9161794,38.0161131 C46.0073301,38.4988422 43.1374563,38.5089768 41.1377336,38.0609189 C42.7617785,39.760872 46.3327483,39.8606182 47.9161794,38.0161131"/>
      <path fill="#AAA" d="M40.4990814,18.5992037 C39.3598638,18.0700687 37.3530337,17.4651905 34.9974324,18.4167802 C33.8181087,18.8936418 34.0343773,19.5411921 35.2680219,19.0659307 C37.1743329,18.3319692 38.390209,18.7800271 40.1954931,19.566262 C40.8945584,19.8703013 41.2742976,18.9587169 40.4990814,18.5992037" opacity=".9"/>
      <path fill="#FFEBEB" d="M27.9808881 22.557582C29.0084176 22.3378202 30.188249 23.9513621 30.6162171 26.1612477 31.0441851 28.3711333 30.55885 30.3404545 29.5318282 30.5602162 28.5042987 30.779978 27.3244673 29.1669695 26.8964992 26.9565505 26.4685312 24.7471983 26.9538663 22.7773437 27.9808881 22.557582M61.0395185 22.557582C60.011989 22.3378202 58.8321576 23.9513621 58.4041895 26.1612477 57.9757138 28.3711333 58.4615566 30.3404545 59.4885784 30.5602162 60.5156003 30.779978 61.6954316 29.1669695 62.1239074 26.9565505 62.5518754 24.7471983 62.0665403 22.7773437 61.0395185 22.557582"/>
      <polygon fill="#AAA" points="56.683 23.767 59.788 23.767 59.788 22.274 56.683 22.274"/>
      <polygon fill="#AAA" points="29.208 23.767 32.313 23.767 32.313 22.274 29.208 22.274"/>
      <path fill="#AAA" d="M28.6048178,23.8793528 C28.8850532,25.3083375 29.9714727,28.337529 29.8993832,24.9376229 C29.8278014,21.5371834 30.2593232,12.9990133 33.6389003,9.44708759 C37.018985,5.89569528 40.9026811,7.93595896 44.4264373,7.93595896 C44.454867,7.93595896 44.4822813,7.93489216 44.5102033,7.93382536 C44.5381253,7.93489216 44.5655396,7.93595896 44.5939693,7.93595896 C48.1177254,7.93595896 52.0014215,5.89569528 55.3815063,9.44708759 C58.7615911,12.9990133 59.1926052,21.5371834 59.1210234,24.9376229 C59.0489339,28.337529 60.1399225,25.3094043 60.4155887,23.8793528 C61.4304265,18.608805 62.7534215,8.02930436 54.5631379,4.51685042 C46.8190987,-3.33269738 34.20394,0.504598547 30.075038,10.7800599 C27.4062026,17.4209181 28.0687155,21.1435326 28.6048178,23.8793528"/>
      <path fill="#EDC7B8" d="M16.9151464,95.5083434 C21.9258759,95.3856608 21.8553094,103.781413 21.4197262,110.996212 C21.0496328,117.133005 21.119184,132.938781 18.3300302,133.235886 C14.5204543,133.640738 14.0077049,118.493714 13.6239044,111.57442 C13.2045667,104.02251 12.3100474,95.621958 16.9151464,95.5083434"/>
      <path fill="#FFEBEB" d="M74.9279203,121.131388 C74.4994446,126.661169 76.218932,136.545647 74.7370354,140.43895 C74.1252898,142.045024 73.5196363,144.63896 72.345897,145.665759 C70.6731155,147.126748 68.4520475,148.062335 67.6874924,148.127944 C66.3848043,148.239958 65.9075919,147.141683 67.6636318,146.176225 C68.3571127,145.795376 69.1810654,145.412393 70.1517356,144.289581 C71.6361706,142.572026 71.841778,139.050504 71.5650964,138.948624 C69.7415361,138.279204 68.300761,144.214371 66.8198798,143.631896 C66.1269065,143.359861 67.4620857,139.754595 67.7519668,137.9869 C68.0799234,135.986108 67.5905269,132.821432 68.8678314,130.962525 C71.2747076,127.460206 69.2739696,122.148053 69.0891767,118.254216 C68.9038762,114.360913 75.317813,116.094471 74.9279203,121.131388"/>
      <polygon fill="#ECECEC" points="44.51 55.438 40.636 61.951 33.468 52.995 39.086 51.163"/>
      <polygon fill="#ECECEC" points="44.51 55.438 48.385 61.951 55.553 52.995 49.935 51.163"/>
      <path fill="#FEBBBA" d="M22.3705972,57.3642137 C15.9627525,63.6284899 12.8415808,92.4951539 12.2851715,98.6804866 C11.7287622,104.865819 12.4730104,127.56742 12.7339541,130.770501 C15.9723982,131.528999 19.718515,131.711422 23.0711855,130.132018 C23.0711855,130.132018 22.1187915,102.894898 22.2416483,99.3088345 C22.3645051,95.7222377 27.91286,81.4441257 31.7787875,71.9351635 C35.6452227,62.4267346 28.5154675,56.5150372 22.3705972,57.3642137"/>
      <path fill="#ECECEC" d="M76.3519422,130.313908 L67.1346368,130.313908 C67.1346368,131.204157 66.9508593,131.726357 66.9508593,132.616606 C69.3770271,133.75702 73.3764726,134.023721 76.5357197,133.076932 C76.5357197,132.186684 76.3519422,131.204157 76.3519422,130.313908"/>
      <path fill="#FEBBBA" d="M66.8249565,57.9034834 C73.6699074,65.2532332 76.8179858,92.3009955 76.9103822,99.2197563 C77.0027786,106.138517 76.7951405,131.798367 76.7951405,131.798367 C73.4653153,132.828367 70.0837075,132.417113 66.6000575,131.43992 C66.6000575,131.43992 67.0767621,103.434168 66.9539053,99.8481042 C66.8310486,96.2620408 61.2832014,81.3758502 57.4167662,71.866888 C53.5503309,62.3584591 60.6805939,57.0543069 66.8249565,57.9034834"/>
      <path fill="#FFEBEB" d="M15.6226118,126.431807 C18.4351185,125.199647 21.87917,130.392318 24.0327176,134.989179 C27.8270633,143.087292 22.6173261,136.312017 22.5645282,136.74674 C22.4401483,137.767672 22.3299834,139.191856 22.3355678,141.452414 C22.3396292,143.072891 21.3577902,143.364662 20.9145919,142.863797 C20.6044039,142.514418 20.275432,142.604563 20.1444524,142.764051 C19.43168,143.631896 18.4782707,143.361461 18.2147885,142.73098 C18.003089,142.224781 17.5928895,142.261586 17.2060429,142.654703 C16.7521835,143.11663 16.1444993,143.429737 15.6784558,143.061689 C15.2306884,142.708577 15.220535,141.16171 14.6397574,142.051959 C13.9391691,143.125164 13.3741294,142.855262 13.028912,142.383735 C12.0876868,141.099836 13.1852752,127.500211 15.6226118,126.431807"/>
      <path fill="#ECECEC" d="M13.3228545,129.460998 L22.5401599,129.460998 C22.5401599,130.351246 22.7234297,130.872914 22.7234297,131.763162 C20.7008617,133.041727 16.7531988,133.483918 13.1390769,132.224022 C13.1390769,131.333773 13.3228545,130.351246 13.3228545,129.460998"/>
      <path fill="#FEBBBA" d="M12.9289005,92.6413062 C12.6090667,95.3147183 12.3958441,97.4483274 12.2851715,98.6804866 C11.7287622,104.865819 12.4730104,127.56742 12.7339541,130.770501 C15.9723982,131.528999 19.718515,131.711422 23.0711855,130.132018 C23.0711855,130.132018 22.1187915,102.894898 22.2416483,99.3088345 C22.2832775,98.1012118 22.9396983,95.6816991 23.9393058,92.6413062 L12.9289005,92.6413062"/>
      <path fill="#AAA" d="M53.9199166,5.44817078 C55.1251316,12.8640625 49.937732,17.9809905 42.7155803,18.8381679 C47.9755771,16.0730106 52.0389893,10.0087602 53.9199166,5.44817078"/>
      <path fill="#AAA" d="M53.6016059,4.72061008 C51.7211862,14.6205562 37.2058086,19.3118292 24.851086,16.442125 C35.663499,15.4206596 47.1607624,10.4696197 53.6016059,4.72061008"/>
      <path fill="#AAA" d="M53.9285471,6.23013851 C49.2965414,12.9275374 38.9166656,18.9219121 29.8201863,14.9581998 C35.8594606,0.109880868 46.2088761,0.0650750769 53.9285471,6.23013851"/>
      <path fill="#AAA" d="M53.5559153 5.24387771C52.0917873 12.3877343 56.4831561 20.2527508 59.9495452 22.4023619 59.988636 11.9839488 55.8901944 7.2873418 53.5559153 5.24387771M44.3391176 22.9277631C46.1459247 22.8808237 48.55737 22.0231129 50.5626771 21.8438897 52.8050674 21.6433305 56.1338773 21.9239001 56.7090704 22.1159249 57.3969669 22.3458213 57.4167662 22.4044955 57.4492572 22.9533665 57.4812406 23.5022374 57.3964592 23.973765 56.9913364 24.1172502 56.4384809 24.3124754 56.4354348 25.046437 56.0775256 27.1549761 55.7515997 29.0746909 54.9489692 30.5954208 51.478011 30.8813244 48.0725426 31.1624274 46.955155 28.8282591 46.5845539 28.0868299 45.9235641 26.7650591 46.0900807 24.9712272 44.369578 24.9765613 42.6485675 24.9818953 42.855698 26.806131 42.2018156 28.1321691 41.8352759 28.8762653 40.6996121 31.1837635 37.2926206 30.9234632 33.8201394 30.6583622 33.0098938 29.142433 32.6733068 27.2243184 32.3037211 25.1184463 32.2966137 24.3839513 31.7432504 24.1919265 31.3371123 24.0511083 31.2497926 23.5801141 31.2792376 23.0312432 31.3081749 22.4823723 31.3279742 22.4231646 32.0143476 22.1895344 32.5885255 21.9937758 35.9158123 21.6934703 38.1592179 21.8806945 40.4011005 22.0673853 43.5710088 22.947499 44.3391176 22.9277631zM33.7983095 22.8621547C32.6611227 23.5721131 32.8905907 26.9645515 33.783587 28.6415683 34.709582 30.3825933 38.080021 30.831718 39.7177731 30.0124121 41.4057848 29.1680363 43.1780702 25.3851474 42.0672823 23.8382808 40.7458103 21.998043 34.8095935 22.2311398 33.7983095 22.8621547zM54.9286623 22.7992132C53.9143322 22.1740657 47.9765924 21.9767069 46.6652739 23.8249458 45.5631165 25.3782132 47.3557087 29.150434 49.0477818 29.9846752 50.690103 30.7943798 54.0580036 30.3249858 54.9748605 28.5786268 55.8587187 26.896276 56.0699105 23.5027708 54.9286623 22.7992132z"/>
      <path stroke="#ECECEC" stroke-linecap="round" stroke-linejoin="round" stroke-width="1.219" d="M26.1974339,83.0395319 L28.8327629,79.1867673 M31.4680918,83.0395319 L28.8327629,79.1867673 M36.7392574,83.0395319 L34.1034208,79.1867673 M31.4680918,83.0395319 L34.1034208,79.1867673 M36.7392574,83.0395319 L39.3745863,79.1867673 M42.010423,83.0395319 L39.3745863,79.1867673 M47.2810808,83.0395319 L44.6457519,79.1867673 M42.010423,83.0395319 L44.6457519,79.1867673 M47.2810808,83.0395319 L49.9164098,79.1867673 M52.5522464,83.0395319 L49.9164098,79.1867673 M57.8229043,83.0395319 L55.1875754,79.1867673 M52.5522464,83.0395319 L55.1875754,79.1867673 M57.8229043,83.0395319 L60.4587409,79.1867673 M63.0940699,83.0395319 L60.4587409,79.1867673 M26.1974339,89.3598154 L28.8327629,85.5070508 M31.4680918,89.3598154 L28.8327629,85.5070508 M36.7392574,89.3598154 L34.1034208,85.5070508 M31.4680918,89.3598154 L34.1034208,85.5070508 M36.7392574,89.3598154 L39.3745863,85.5070508 M42.010423,89.3598154 L39.3745863,85.5070508 M47.2810808,89.3598154 L44.6457519,85.5070508 M42.010423,89.3598154 L44.6457519,85.5070508 M47.2810808,89.3598154 L49.9164098,85.5070508 M52.5522464,89.3598154 L49.9164098,85.5070508 M57.8229043,89.3598154 L55.1875754,85.5070508 M52.5522464,89.3598154 L55.1875754,85.5070508 M57.8229043,89.3598154 L60.4587409,85.5070508 M63.0940699,89.3598154 L60.4587409,85.5070508"/>
      <path fill="#AAA" d="M54.0762798,5.5948564 C50.6997488,12.2293138 38.4932665,16.1482203 32.1077594,11.0323591 C37.8764442,12.2373149 49.3000951,9.14038129 54.0762798,5.5948564"/>
      <path fill="#AAA" d="M53.9706839,5.34415734 C52.7446544,10.2743945 56.1211854,15.506004 59.9480222,16.0799448 C57.6061281,14.4077287 54.4260663,8.26240115 53.9706839,5.34415734"/>
      <g transform="translate(88 4)">
        <path fill="#ECECEC" d="M29.0042731,129.680492 C21.4780405,129.680492 11.964152,119.078231 11.6804104,113.465269 C11.3966689,107.851771 13.8101814,102.550372 16.6500388,94.4427608 C19.4903845,86.3351493 15.273819,74.4496344 11.8659901,63.0681974 C6.60822487,45.5048341 50.9100003,47.4766369 46.1855324,63.2585673 C44.7648712,68.004944 42.5027526,70.9602351 41.3624144,75.5323295 C39.7683826,81.9244671 39.702453,89.7162255 41.3575307,94.4427608 C44.1973881,102.550372 46.611389,107.851771 46.3276474,113.465269 C46.0434175,119.078231 36.5300173,129.680492 29.0042731,129.680492"/>
        <path fill="#AAA" d="M20.106216,25.9294488 C17.6238437,27.2920681 45.2483551,37.6567691 38.8385308,42.8246408 C33.8229959,46.8685258 25.5686073,46.2218045 20.8758833,44.053733 C16.1836477,41.8856615 9.18387541,36.6057129 11.0987646,31.4405225 C13.0131655,26.2747959 13.0893508,25.7540941 14.3542228,17.579451 C15.6195832,9.40480785 24.2426893,17.753197 20.106216,25.9294488"/>
        <path fill="#FFEBEB" d="M21.2079733 228.954355C25.8562558 223.189634 26.9471007 191.050198 27.165401 182.631023 27.8608364 155.832308 13.8395348 124.846984 16.86253 170.719687 17.4724511 186.814038 16.8072931 234.413412 21.2079733 228.954355zM36.9768736 228.954355C32.3281028 223.189634 31.1874794 191.230858 30.9686907 182.811684 30.2732553 156.012969 44.4333043 124.913545 41.4098207 170.786249 40.8209945 186.899469 41.3770654 234.413412 36.9768736 228.954355z"/>
        <path fill="#ECECEC" d="M17.7337264,53.5443414 C23.9814127,55.2759028 18.0477467,69.5783107 15.535584,76.3018528 C13.0898392,82.8489676 7.64844778,96.2611953 4.66501032,95.0540894 C1.68157286,93.8469835 4.95705412,80.2116746 6.42899397,73.0264185 C7.84184134,66.1302029 11.7551306,51.8873191 17.7337264,53.5443414"/>
        <path fill="#CFCFCF" d="M21.4941567 166.514966C27.2368709 166.514966 28.8040424 142.336603 28.0202124 128.084603 25.6281881 84.5644414 7.92584056 95.5243834 11.0518814 129.912153 12.8788644 150.010385 15.7509541 166.514966 21.4941567 166.514966zM36.6902019 166.514966C30.9474876 166.514966 29.3808045 142.336603 30.1641461 128.084603 32.5566588 84.5644414 50.2590063 95.5243834 47.1329655 129.912153 45.3054941 150.010385 42.4334044 166.514966 36.6902019 166.514966z"/>
        <path fill="#CFCFCF" d="M28.9852268,129.680492 C21.4594826,129.680492 11.945594,119.078231 11.6618524,113.465269 C11.5114352,110.497644 12.1160343,107.616892 13.1381876,104.362908 L44.8327543,104.362908 C45.8549076,107.616892 46.4590183,110.497644 46.3090894,113.465269 C46.0248595,119.078231 36.5114593,129.680492 28.9852268,129.680492"/>
        <path fill="#ECECEC" d="M40.5400034,54.329416 C34.2034342,55.6099885 38.2031646,69.0801315 40.3104706,75.9693758 C42.3616144,82.6773666 46.6216447,96.8097822 49.6705234,95.8193227 C52.7194021,94.8283268 50.6340726,80.6288795 49.5918962,73.3529967 C48.5922078,66.3704443 46.6045518,53.1046138 40.5400034,54.329416"/>
        <path fill="#FBCFCE" d="M10.3623063,110.503007 C10.8301625,105.852083 13.4727194,99.8127999 15.487724,94.0598761 C17.5032169,88.3069522 16.9362222,82.3009168 15.5590256,75.9522157 C14.8069396,66.564568 19.9543337,60.3628002 20.0192866,51.6454689 C25.2555637,50.0431445 32.0702447,50.2056292 37.3822187,51.9682933 C38.0249104,61.5677611 42.5037294,67.5357225 40.7314435,77.8055066 C39.5408033,83.2892314 40.7285133,89.7366031 42.2878709,94.1875043 C43.8467402,98.6384055 46.2929733,105.175868 47.2062207,108.636309 C37.2913823,118.246502 21.9844777,117.654479 10.3623063,110.503007"/>
        <polyline fill="#F69A98" points="37.377 101.101 37.377 67.748 16.39 67.748 14.849 69.747 16.874 100.473 37.377 101.101"/>
        <polyline fill="#FFF" points="36.487 100.465 35.091 102.666 15.94 102.284 15.731 70.474 17.267 68.425 36.487 68.425 36.487 100.465"/>
        <polygon fill="#F69A98" points="14.849 103.101 35.836 103.101 35.836 69.747 14.849 69.747"/>
        <path fill="#F69A98" d="M22.7556101,50.9907038 C26.6640157,50.2892847 31.0773934,50.4120867 34.989706,51.3044119 C34.47692,54.4902919 31.9427807,56.9104024 28.8943904,56.9104024 C25.7463731,56.9104024 23.1472809,54.3304885 22.7556101,50.9907038"/>
        <path fill="#FFEBEB" d="M25.2023316,34.6440989 L32.6963319,34.6440989 C32.7119597,34.6440989 32.7251456,34.6585777 32.7251456,34.6762741 L32.7251456,50.2946472 C32.7251456,52.5662156 31.0324636,54.4243328 28.9632502,54.4243328 C26.8950136,54.4243328 25.2023316,52.5662156 25.2023316,50.2946472 L25.2023316,34.6440989"/>
        <path fill="#AAA" d="M14.5061052,13.7211095 C14.2462936,18.5259378 13.0512582,23.7318834 12.6512851,26.3058986 C12.2508237,28.8799137 21.0556026,30.7004932 21.0556026,30.7004932 C21.0556026,30.7004932 22.3390325,11.7750468 14.5061052,13.7211095"/>
        <path fill="#FFEBEB" d="M29.1639693,2.11337369 C43.8086475,2.11337369 44.7756153,20.9696434 41.7892476,33.6161016 C40.2767733,40.022718 33.5793005,45.6469411 29.1639693,45.6469411 C24.623616,45.6469411 17.9705847,39.4585797 16.1489736,32.5661179 C12.8617716,20.1314797 14.8152418,2.11337369 29.1639693,2.11337369"/>
        <path fill="#F69A98" d="M35.68856,33.6970758 C32.1434998,33.4568344 26.0154636,33.5067059 22.8547487,33.7555274 C24.9991707,40.052212 34.1980622,40.2425818 35.68856,33.6970758"/>
        <path fill="#AAA" d="M23.5003706 25.9584065C24.0776211 25.9584065 24.5479191 24.6665727 24.5479191 23.0824808 24.5479191 21.498389 24.0776211 20.2065552 23.5003706 20.2065552 22.9231202 20.2065552 22.4523338 21.498389 22.4523338 23.0824808 22.4523338 24.6665727 22.9231202 25.9584065 23.5003706 25.9584065M34.4275949 25.9584065C35.0048454 25.9584065 35.4751434 24.6665727 35.4751434 23.0824808 35.4751434 21.498389 35.0048454 20.2065552 34.4275949 20.2065552 33.8503445 20.2065552 33.3795581 21.498389 33.3795581 23.0824808 33.3795581 24.6665727 33.8503445 25.9584065 34.4275949 25.9584065"/>
        <path fill="#FFEBEB" d="M13.6905313,21.9424066 C14.6394295,21.7305866 15.7299543,23.2884021 16.125532,25.4221534 C16.5211097,27.5564409 16.0722999,29.4579946 15.1234018,29.6703509 C14.1740152,29.8827071 13.0839788,28.3248917 12.6884011,26.1906041 C12.2928233,24.0568528 12.7411448,22.1547629 13.6905313,21.9424066"/>
        <path fill="#EDC7B8" d="M44.2369459,21.9424066 C43.2880477,21.7305866 42.1980113,23.2884021 41.8019452,25.4221534 C41.4063674,27.5564409 41.8551772,29.4579946 42.8040754,29.6703509 C43.753462,29.8827071 44.8434984,28.3248917 45.2390761,26.1906041 C45.6351422,24.0568528 45.1863324,22.1547629 44.2369459,21.9424066"/>
        <path fill="#FBCFCE" d="M35.4551203,33.7549912 C31.9476644,34.6811004 26.6747598,34.7004055 23.0017473,33.8407917 C25.9314644,37.8932568 32.47852,38.0729016 35.4551203,33.7549912"/>
        <path fill="#FEBBBA" d="M27.957213,31.0554928 C30.5665609,31.6523425 31.6385277,29.9020122 31.6556206,28.4337511 C32.3212656,31.1370032 30.5382356,32.5988293 27.957213,31.0554928"/>
        <path fill="#FFF" d="M35.0351242,33.8595605 C31.6556206,34.6532152 26.8691301,34.6666215 23.3655812,33.9217659 C25.174983,36.5842628 33.0953282,36.497926 35.0351242,33.8595605"/>
        <path fill="#C8A757" d="M32.2494756,17.4378801 C33.2921403,16.9316571 34.9814037,15.9889241 37.2117784,17.3847911 C38.2163505,18.013816 38.1284443,18.4401373 37.0374312,17.884579 C35.1816344,16.9397009 34.1795042,17.6110899 32.5273567,18.3629168 C31.8871068,18.6541023 31.5398775,17.7816184 32.2494756,17.4378801"/>
        <path fill="#AAA" d="M25.5764211,17.4378801 C24.5337564,16.9316571 22.844493,15.9889241 20.6146067,17.3847911 C19.6100346,18.013816 19.6979407,18.4401373 20.7884655,17.884579 C22.6442623,16.9397009 23.6463925,17.6110899 25.29854,18.3629168 C25.9387899,18.6541023 26.2860192,17.7816184 25.5764211,17.4378801"/>
        <path fill="#AAA" d="M15.7993025,22.4647172 C16.3526229,14.5174454 21.4638779,16.4072016 24.7540102,7.87166008 C25.9954405,4.65038737 36.7429456,6.57070992 38.9952968,9.04390947 C42.0720124,12.4223044 42.46466,20.5454672 42.3992187,23.7801462 C42.3337775,27.0148252 43.9204837,24.0026913 44.0035062,22.6180856 C44.1021564,20.9776872 45.2444481,16.3444599 42.8153079,10.0263253 C39.6140585,1.70206752 27.9772361,-3.96291082 20.6146067,3.60630247 C10.6191877,7.38581472 15.2113079,30.9080231 15.7993025,22.4647172"/>
        <path fill="#FFEBEB" d="M3.59450861,93.0908666 C3.25460479,88.6485455 10.3496088,87.1759943 15.1121693,87.5519078 C19.8405441,87.9246037 32.1918482,87.4451934 32.5566588,89.9071316 C33.0547937,93.2689026 21.2309265,94.5746791 16.0132075,95.8075251 C11.2062055,96.9438455 3.90657549,97.1738981 3.59450861,93.0908666"/>
        <path fill="#FFEBEB" d="M27.3780091 88.0978135C29.1932713 88.2206154 31.8880836 85.5715248 34.1174815 84.5633689 40.3685864 81.735706 34.8724978 85.8101575 35.1747973 85.8734354 35.8843954 86.02305 36.8816419 86.1790997 38.4888596 86.2745527 39.6409187 86.3426569 39.7200342 87.1802843 39.3058985 87.5304576 39.0172733 87.7749891 39.0382731 88.0549132 39.1349699 88.1723527 39.6584999 88.8094214 39.3415494 89.5977135 38.8590422 89.7913009 38.4717667 89.9468143 38.4444182 90.2921614 38.6729742 90.6348271 38.9415763 91.0364808 39.0851564 91.5604001 38.7628338 91.935241 38.4527204 92.2956032 37.3524283 92.2355428 37.9091673 92.7632159 38.5801843 93.3986759 38.314024 93.8614624 37.9345624 94.1301252 37.1404768 94.6921185 30.6573973 92.4495078 28.1437694 93.1782759 26.2103222 93.7386604 25.5334448 87.9723302 27.3780091 88.0978135M52.6329611 113.406281C51.9751299 118.002507 52.4048934 126.693562 50.9964413 129.852093 50.4157723 131.154652 49.7828479 133.284649 48.7846246 134.065434 47.3629867 135.177623 45.5320966 135.814156 44.9162651 135.818446 43.8672516 135.826489 43.5483476 134.876249 45.0085666 134.185018 45.5853287 133.911529 46.2666015 133.646084 47.1075704 132.770383 48.3934422 131.431895 48.7587412 128.499662 48.5433711 128.396702 47.1222214 127.716733 45.6302585 132.585375 44.4786878 132.000859 43.93953 131.72737 45.213681 128.800501 45.5462593 127.341356 45.9232791 125.689696 45.7123043 123.010039 46.8404334 121.539633 48.9667857 118.769349 48.0613523 115.068666 47.306336 111.735316 46.5879473 108.562306 53.2321881 109.219217 52.6329611 113.406281"/>
        <path fill="#ECECEC" d="M3.59450861,93.0908666 C3.25606989,88.6683868 10.286121,87.1894006 15.0477048,87.5470815 C15.3065396,89.3279782 15.3055629,92.9803984 15.1478201,95.9962862 C10.3774457,96.9556431 3.88850589,96.9352655 3.59450861,93.0908666"/>
        <path fill="#FFEBEB" d="M45.29475,84.6861709 C44.824452,87.3669004 45.1980532,97.4988675 45.5882589,100.396243 C46.2807641,105.545346 47.8782144,118.897513 50.1491236,118.923254 C53.2502577,118.959183 53.2131417,105.931985 52.9753067,100.077709 C52.802913,95.8359465 51.5492734,87.3669004 51.0819057,85.4492591 C49.2920385,78.1074172 45.4222139,83.9579391 45.29475,84.6861709"/>
        <path fill="#ECECEC" d="M45.2942616,84.6861709 C44.9563113,86.6150735 45.0549615,92.4023175 45.2825408,96.5759759 C47.10171,96.6853715 49.9977297,96.5545257 52.6637282,96.1914823 C52.2149184,91.9465024 51.4301117,86.8783738 51.0819057,85.4492591 C49.2925269,78.1074172 45.4222139,83.9574028 45.2942616,84.6861709"/>
        <path fill="#CFCFCF" d="M24.2749216,229.486316 C23.292326,232.146132 16.6222018,232.773548 13.7081125,236.232381 C10.994254,239.455262 1.20346101,239.17641 0.463095778,235.240312 C0.385445335,234.827397 0.309748362,233.384876 0.568583172,232.961236 C1.35290148,231.668866 3.69462397,231.352477 6.1740661,230.15127 C7.2221029,229.647192 9.82266019,226.939113 12.7953536,224.558149 C12.8495624,224.509887 12.9037712,224.466986 12.95798,224.424086 C13.5742998,224.397273 14.1452015,224.531337 14.6750803,224.842364 C16.0581373,225.652106 15.7817212,226.665624 17.3493811,226.965926 C18.917041,227.27159 22.6979827,227.169702 23.5277192,224.842364 C23.8319722,224.724388 24.1259695,224.590325 24.4121529,224.456261 C24.585035,226.569099 24.6636622,228.43526 24.2749216,229.486316 Z"/>
        <path fill="#FFEBEB" d="M24.2749216,227.657693 C23.292326,230.312146 16.6217134,230.944925 13.7081125,234.403757 C10.994254,237.621276 1.20346101,237.347787 0.463095778,233.406327 C0.151028903,231.743942 2.87709666,229.920681 6.1740661,228.322647 C7.2221029,227.813206 10.3076092,225.518043 13.2798142,223.137079 C16.1406714,220.847278 18.4955798,216.181875 18.4066969,214.267451 C18.1595829,208.953183 25.3771672,208.449105 24.1596668,213.001894 C23.1228625,216.879004 25.2575171,225.00324 24.2749216,227.657693 Z"/>
        <path fill="#ECECEC" d="M24.2749216,227.657693 C23.292326,230.312146 16.6217134,230.944925 13.7081125,234.403757 C10.994254,237.621276 1.4535052,237.385325 0.713139972,233.443864 C0.401561465,231.786842 2.71593536,229.920681 6.0129048,228.322647 C6.64289896,228.016982 12.5863322,224.365098 15.4086084,220.702489 C16.0586256,219.860572 15.5082354,218.337613 15.1356109,217.608309 C14.5666627,216.492902 20.0754489,215.264882 20.2048663,217.141768 C20.2375869,217.619034 20.5325609,218.401963 20.5027705,219.099092 C24.2124105,219.597808 23.7606705,218.139199 23.9897149,217.259744 C24.8629161,220.311024 24.6631738,226.606637 24.2749216,227.657693 Z"/>
        <path stroke="#CFCFCF" stroke-width=".595" d="M20.7474426,219.141993 C20.0603095,221.404981 15.2635632,227.335941 13.081537,229.153839 C8.12802473,233.282988 4.29678117,229.68473 5.92353354,228.649761"/>
        <path stroke="#CFCFCF" stroke-linecap="round" stroke-linejoin="round" stroke-width=".951" d="M13.638276,227.411016 L12.1731733,223.957546 M15.0501466,225.695006 L13.5850439,222.246898 M16.3960876,224.214947 L14.965659,221.067141 M10.2949116,225.357167 L14.6198948,225.775444 M11.9553614,223.812758 L16.2808329,224.231035 M13.3638134,222.375599 L17.7605866,222.359512 M11.6472014,228.41381 L10.2363075,225.319629 M8.51920715,226.831863 L13.3286509,227.491454 M6.37673864,228.049157 L11.7932233,228.628311 M9.61217377,230.060107 L8.48697489,226.84795"/>
        <path fill="#CFCFCF" d="M.463095778 233.406327C.534397443 232.559047.911905572 231.701041 1.96873299 230.837674L2.08984814 230.837674C4.7436375 230.837674 6.90319888 233.406327 6.96619829 236.607758 3.50464898 237.058211.209633011 236.409344.463095778 233.406327zM24.4565943 228.408447C24.1611319 229.207464 23.2053966 229.909956 22.0963139 229.636467 23.8886228 227.861469 24.4839429 223.137079 24.623616 221.281643 25.0719375 224.070159 24.7193361 227.69523 24.4565943 228.408447zM34.1589928 229.486316C35.1415883 232.146132 41.8117125 232.773548 44.7258018 236.232381 47.439172 239.455262 57.229965 239.17641 57.9708186 235.240312 58.0479806 234.827397 58.1236776 233.384876 57.8648428 232.961236 57.0805245 231.668866 54.738802 231.352477 52.2598482 230.15127 51.2113231 229.647192 48.6107658 226.939113 45.6385608 224.558149 45.5838636 224.509887 45.5296548 224.466986 45.475446 224.424086 44.8591261 224.397273 44.2887128 224.531337 43.758834 224.842364 42.3752887 225.652106 42.6521931 226.665624 41.0845332 226.965926 39.5168733 227.27159 35.7354433 227.169702 34.9057068 224.842364 34.6014538 224.724388 34.3074565 224.590325 34.0217615 224.456261 33.8488794 226.569099 33.7702522 228.43526 34.1589928 229.486316z"/>
        <path fill="#FFEBEB" d="M34.1589928,227.657693 C35.1415883,230.312146 41.8117125,230.944925 44.7258018,234.403757 C47.439172,237.621276 57.229965,237.347787 57.9708186,233.406327 C58.2823971,231.743942 55.5568177,229.920681 52.2598482,228.322647 C51.2118114,227.813206 48.1263052,225.518043 45.1541001,223.137079 C42.2932429,220.847278 39.9383345,216.181875 40.0272174,214.267451 C40.2743314,208.953183 33.0562588,208.449105 34.2742475,213.001894 C35.3110518,216.879004 33.1763972,225.00324 34.1589928,227.657693 Z"/>
        <path fill="#ECECEC" d="M34.1589928,227.657693 C35.1410999,230.312146 41.8117125,230.944925 44.7258018,234.403757 C47.439172,237.621276 56.9804091,237.385325 57.720286,233.443864 C58.0323529,231.786842 55.717979,229.920681 52.4210095,228.322647 C51.7602482,228.000895 45.2586108,224.000446 42.6380304,220.171599 C42.1828719,219.506645 42.9593763,217.511783 43.1215143,216.873642 C43.4457904,215.608084 38.0942586,215.409671 37.7519129,217.029155 C37.6542394,217.490333 37.5165198,218.380513 37.9306555,219.099092 C34.2215038,219.597808 34.6732438,218.139199 34.4441994,217.259744 C33.5709982,220.311024 33.7702522,226.606637 34.1589928,227.657693 Z"/>
        <path stroke="#CFCFCF" stroke-width=".595" d="M37.6864717,219.141993 C38.3736049,221.404981 43.1698627,227.335941 45.351889,229.153839 C50.3058896,233.282988 54.1366448,229.68473 52.5098924,228.649761"/>
        <path stroke="#CFCFCF" stroke-linecap="round" stroke-linejoin="round" stroke-width=".951" d="M44.7956384,227.411016 L46.2602527,223.957546 M43.3837677,225.695006 L44.8488704,222.246898 M42.0378267,224.214947 L43.4682553,221.067141 M48.1390027,225.357167 L43.8140195,225.775444 M46.4780646,223.812758 L42.1530815,224.231035 M45.0696126,222.375599 L40.6733277,222.359512 M46.7862246,228.41381 L48.1971185,225.319629 M49.9147072,226.831863 L45.1052634,227.491454 M52.0566873,228.049157 L46.640691,228.628311 M48.8217406,230.060107 L49.9469394,226.84795"/>
        <path fill="#CFCFCF" d="M57.9708186 233.406327C57.8995169 232.559047 57.5215204 231.701041 56.4651814 230.837674L56.3440662 230.837674C53.6897885 230.837674 51.5307155 233.406327 51.4672277 236.607758 54.9292654 237.058211 58.223793 236.409344 57.9708186 233.406327zM33.9768317 228.408447C34.272294 229.207464 35.2280294 229.909956 36.3371121 229.636467 34.5448031 227.861469 33.9494831 223.137079 33.8098099 221.281643 33.3619769 224.070159 33.7145783 227.69523 33.9768317 228.408447zM17.0710116 184.832516C20.2678657 185.679796 23.6400437 185.663708 27.1763133 184.832516 27.3907067 180.917868 27.5113334 171.999761 27.562612 170.031712 27.6998433 164.728169 26.2894378 156.828626 26.4564595 153.251281 27.4219622 132.638782 13.9620637 128.273145 16.387297 165.071909 16.7081545 169.934116 16.8712693 176.402616 17.0710116 184.832516zM41.1133469 184.832516C37.7450758 185.910385 34.3768047 185.803134 31.0080452 184.832516 30.7936519 180.917868 30.7306524 171.994399 30.6217465 170.031712 30.1753785 161.950377 32.3915905 156.032826 31.7669684 153.080752 27.466892 132.764801 44.238411 128.031295 41.7970615 165.071909 41.4766924 169.934116 41.3130892 176.402616 41.1133469 184.832516z"/>
        <path fill="#AAA" d="M43.4081861,27.4073625 C38.3623724,26.9258072 24.6494995,13.8927105 21.1391134,6.66562673 C32.9092602,-3.72803194 48.1678164,6.00764411 43.4081861,27.4073625"/>
        <path fill="#AAA" d="M40.3925164,25.9294488 C42.8748887,27.2920681 42.8099358,35.8801624 36.9089905,41.7328294 C34.2996426,44.3202508 35.5933283,45.2098948 39.6223607,43.4059392 C43.6518815,41.6019836 49.8570798,37.4111652 47.9421906,32.2454385 C46.0273014,27.0797119 44.8903817,19.3769715 43.8736004,14.4568488 C42.8568191,9.53672612 36.2560431,17.753197 40.3925164,25.9294488"/>
        <path fill="#AAA" d="M44.8703586,21.3659345 C40.9756273,26.2426207 26.9067344,16.4854945 21.236787,5.05204098 C26.5101799,10.2638854 36.4968083,19.3828703 44.8703586,21.3659345"/>
        <path fill="#AAA" d="M40.8828374,12.7789127 C38.9274137,16.952571 27.4917987,12.8126967 21.6841316,5.87787084 C26.2191129,8.52106265 34.6869181,12.999849 40.8828374,12.7789127"/>
        <path fill="#AAA" d="M15.3832133 18.8439359C13.3218138 17.0035151 16.6700618 6.85921412 22.0748257 5.66926836 18.8003212 9.59678648 16.0547187 14.6777851 15.3832133 18.8439359M37.7245644 5.95777256C36.7575966 1.91496002 24.6265462-.417204955 21.7153872 5.29013738 27.144081 2.73542735 34.2468989 4.13558434 37.7245644 5.95777256"/>
        <path stroke="#FEBBBA" stroke-linecap="round" stroke-linejoin="round" stroke-width=".951" d="M47.7536807,117.646435 C49.4058282,118.4358 50.8562799,118.881962 52.7994944,118.544659 M51.5614826,118.658345 C51.829108,118.047552 52.4805904,117.786933 52.7994944,118.544659 C53.4719765,120.461764 52.6564027,121.172299 53.1183984,122.400855"/>
      </g>
    </g>
    <g transform="translate(15)">
      <g transform="matrix(-1 0 0 1 88 1)">
        <g fill="#FBCFCE" transform="translate(0 146)">
          <path d="M33.6800004,33.4410002 C33.6560004,31.1840002 31.7970004,29.3550002 29.5350004,29.3710002 L27.9880004,29.3950002 L27.9840004,27.8480002 C27.9610004,25.5900002 26.1020004,23.7620002 23.8400004,23.7770002 C21.2890004,23.8090002 19.2340004,25.9020002 19.2500004,28.4530002 L19.3280004,37.2460002 C19.3320004,37.7890002 19.7540004,38.2030002 20.2970004,38.1950002 L29.0900004,38.1130002 C31.6410004,38.0860002 33.6910004,35.9920002 33.6800004,33.4410002 Z" transform="rotate(-65 26.465 30.986)"/>
          <path d="M8.83599991,18.0740001 C7.04699991,18.0900001 5.59799991,19.5620001 5.60899991,21.3480001 L5.62499991,22.5700001 L4.40199991,22.5740001 C2.61299991,22.5900001 1.16399991,24.0620001 1.17599991,25.8480001 C1.19899991,27.8670001 2.85199991,29.4960001 4.87099991,29.4880001 L11.8319999,29.4380001 C12.2619999,29.4340001 12.5899999,29.1020001 12.5859999,28.6720001 L12.5309999,21.7110001 C12.5119999,19.6950001 10.8549999,18.0660001 8.83599991,18.0740001 Z" transform="rotate(85 6.881 23.781)"/>
          <path d="M29.68,3.273 C28.074,1.172 25.047,0.762 22.938,2.363 L21.504,3.469 L20.414,2.023 C18.809,-0.078 15.781,-0.488 13.672,1.113 C11.301,2.934 10.844,6.336 12.645,8.719 L18.883,16.91 C19.27,17.418 19.953,17.508 20.457,17.125 L28.645,10.883 C31.023,9.059 31.484,5.656 29.68,3.273 Z"/>
        </g>
        <g transform="matrix(-1 0 0 1 88 0)">
          <path fill="#FFEBEB" d="M49.1355422,30.1479666 C49.1355422,13.9597549 38.2918675,0.837660167 24.9165663,0.837660167 C11.5409639,0.837660167 0.697590361,13.9597549 0.697590361,30.1479666 C0.697590361,45.5340836 10.4966867,58.142351 22.9527108,59.3537604 L18.9123494,66.6016267 L30.9204819,66.6016267 L26.8801205,59.3537604 C39.3364458,58.142351 49.1355422,45.5340836 49.1355422,30.1479666"/>
          <path fill="#CFCFCF" d="M20.0861446,65.8996769 L29.746988,65.8996769 L26.2936747,59.7047354 C26.1777108,59.4975822 26.1722892,59.2439443 26.278012,59.0314875 C26.3840361,58.8187187 26.5873494,58.6773928 26.8165663,58.6549304 C38.9518072,57.4750306 48.4578313,44.9531811 48.4578313,30.1479666 C48.4578313,14.3728134 37.896988,1.53961003 24.9165663,1.53961003 C11.9358434,1.53961003 1.3753012,14.3728134 1.3753012,30.1479666 C1.3753012,44.9531811 10.8810241,57.4750306 23.0162651,58.6549304 C23.2457831,58.6773928 23.4490964,58.8187187 23.5548193,59.0314875 C23.6608434,59.2439443 23.6551205,59.4975822 23.5391566,59.7047354 L20.0861446,65.8996769 Z M30.9204819,67.3035766 L18.9123494,67.3035766 C18.6698795,67.3035766 18.4463855,67.1697382 18.3256024,66.9526017 C18.2042169,66.7354652 18.2042169,66.4677883 18.3256024,66.2506518 L21.851506,59.9253036 C16.0168675,59.0614373 10.6421687,55.7457382 6.62289157,50.5029526 C2.36506024,44.9478774 0.0198795181,37.7187298 0.0198795181,30.1479666 C0.0198795181,13.5991086 11.1885542,0.135710306 24.9165663,0.135710306 C38.6445783,0.135710306 49.813253,13.5991086 49.813253,30.1479666 C49.813253,37.7187298 47.4668675,44.9478774 43.2099398,50.5029526 C39.1906627,55.7457382 33.8162651,59.0614373 27.9813253,59.9253036 L31.5072289,66.2506518 C31.6289157,66.4677883 31.6289157,66.7354652 31.5072289,66.9526017 C31.3864458,67.1697382 31.1629518,67.3035766 30.9204819,67.3035766 L30.9204819,67.3035766 Z"/>
          <path fill="#F69A98" d="M42.9262048,29.0663398 C42.9262048,41.0316212 34.0861446,50.7313203 23.1816265,50.7313203 C12.276506,50.7313203 3.43674699,41.0316212 3.43674699,29.0663398 C3.43674699,17.1007465 12.276506,7.40104735 23.1816265,7.40104735 C34.0861446,7.40104735 42.9262048,17.1007465 42.9262048,29.0663398"/>
          <path fill="#F9F9F9" d="M23.1768072 18.89961C23.1768072 18.5130696 23.0662651 18.2232423 22.8457831 18.0304401 22.625 17.8370139 22.3828313 17.7399889 22.1180723 17.7399889 21.8533133 17.7399889 21.610241 17.8370139 21.389759 18.0304401 21.1689759 18.2232423 21.0590361 18.5130696 21.0590361 18.89961L21.0590361 41.565415C21.0590361 41.9516435 21.1689759 42.2417827 21.389759 42.434585 21.610241 42.6280111 21.8533133 42.7244123 22.1180723 42.7244123 22.3828313 42.7244123 22.625 42.6280111 22.8457831 42.434585 23.0662651 42.2417827 23.1768072 41.9516435 23.1768072 41.565415L23.1768072 18.89961zM26.0006024 41.4927242C26.0006024 42.0046797 25.8900602 42.4523677 25.6695783 42.8364123 25.4487952 43.2201448 25.1548193 43.540234 24.7870482 43.7960557 24.4192771 44.0518774 24.0039157 44.2437437 23.5406627 44.3719666 23.0774096 44.4998774 22.6033133 44.5638329 22.1180723 44.5638329 21.6325301 44.5638329 21.1581325 44.4998774 20.6948795 44.3719666 20.2316265 44.2437437 19.8159639 44.0518774 19.4481928 43.7960557 19.0807229 43.540234 18.7864458 43.2201448 18.5659639 42.8364123 18.3451807 42.4523677 18.235241 42.0046797 18.235241 41.4927242L18.235241 18.9719889C18.235241 18.4600334 18.3451807 18.0120334 18.5659639 17.6283008 18.7864458 17.2442563 19.0807229 16.9244791 19.4481928 16.6686574 19.8159639 16.4125237 20.2316265 16.2206574 20.6948795 16.0927465 21.1581325 15.9648357 21.6325301 15.9008802 22.1180723 15.9008802 22.6033133 15.9008802 23.0774096 15.9648357 23.5406627 16.0927465 24.0039157 16.2206574 24.4192771 16.4125237 24.7870482 16.6686574 25.1548193 16.9244791 25.4487952 17.2442563 25.6695783 17.6283008 25.8900602 18.0120334 26.0006024 18.4600334 26.0006024 18.9719889L26.0006024 41.4927242 26.0006024 41.4927242zM38.2487952 23.8669192C38.2487952 23.7645905 38.1993976 23.6828524 38.1012048 23.6223287 38.0024096 23.561493 37.8864458 23.5309192 37.753012 23.5309192 37.6093373 23.5309192 37.4822289 23.561493 37.3701807 23.6223287 37.2587349 23.6828524 37.203012 23.7645905 37.203012 23.8669192L37.203012 29.5386741C37.203012 29.5898384 37.2475904 29.6537939 37.3370482 29.7305404 37.426506 29.8072869 37.564759 29.8456602 37.753012 29.8456602 37.8864458 29.8456602 38.0024096 29.8153983 38.1012048 29.7548747 38.1993976 29.694039 38.2487952 29.6216602 38.2487952 29.5386741L38.2487952 23.8669192zM39.9430723 29.329337C39.9430723 29.5274429 39.8843373 29.7127577 39.7677711 29.8852813 39.6509036 30.057805 39.4918675 30.2094262 39.2921687 30.3404568 39.0918675 30.4717994 38.8581325 30.575688 38.5912651 30.6524345 38.3240964 30.7291811 38.0448795 30.7669304 37.753012 30.7669304 37.4418675 30.7669304 37.1496988 30.7291811 36.876506 30.6524345 36.6033133 30.575688 36.3659639 30.4699276 36.1644578 30.3360891 35.9623494 30.2016267 35.8027108 30.043766 35.685241 29.8612591 35.5674699 29.679376 35.5087349 29.4862618 35.5087349 29.2812925L35.5087349 24.0856156C35.5087349 23.8815822 35.5674699 23.6900279 35.685241 23.5106407 35.8027108 23.3315655 35.9623494 23.1752646 36.1644578 23.0408022 36.3659639 22.9072758 36.6033133 22.8015153 36.876506 22.7247688 37.1496988 22.6480223 37.4418675 22.609649 37.753012 22.609649 38.0448795 22.609649 38.3240964 22.6464624 38.5912651 22.7194652 38.8581325 22.7934039 39.0918675 22.8944847 39.2921687 23.0217716 39.4918675 23.1496825 39.6509036 23.3013036 39.7677711 23.4769471 39.8843373 23.6529025 39.9430723 23.8463287 39.9430723 24.0572256L39.9430723 29.329337zM35.985241 15.9205348L33.4804217 32.8206797 31.7099398 32.8206797 34.214759 15.9205348 35.985241 15.9205348zM30.0816265 19.249961C30.0816265 19.1544958 30.0322289 19.0746295 29.9346386 19.0106741 29.8358434 18.9464067 29.7150602 18.9148969 29.5722892 18.9148969 29.4379518 18.9148969 29.3153614 18.9464067 29.2033133 19.0106741 29.0915663 19.0746295 29.0361446 19.1544958 29.0361446 19.249961L29.0361446 24.9129805C29.0361446 24.9710084 29.0807229 25.0362117 29.1704819 25.1098384 29.2593373 25.1834652 29.3933735 25.2199666 29.5722892 25.2199666 29.7150602 25.2199666 29.8358434 25.1915766 29.9346386 25.1338607 30.0322289 25.0764568 30.0816265 25.0028301 30.0816265 24.9129805L30.0816265 19.249961zM31.7759036 24.6970919C31.7759036 24.8948858 31.7153614 25.0814485 31.5942771 25.2567799 31.473494 25.4324234 31.3123494 25.5852925 31.1123494 25.7156992 30.911747 25.8467298 30.6783133 25.9503064 30.4111446 26.026429 30.1439759 26.1031755 29.8641566 26.1412368 29.5722892 26.1412368 29.2716867 26.1412368 28.985241 26.1031755 28.7135542 26.026429 28.4421687 25.9503064 28.2063253 25.8451699 28.0057229 25.7113315 27.8051205 25.5771811 27.6442771 25.4196323 27.5231928 25.2377493 27.4024096 25.0558663 27.3418675 24.8599443 27.3418675 24.6496713L27.3418675 19.4661616C27.3418675 19.2683677 27.4024096 19.0805571 27.5231928 18.9021058 27.6442771 18.7236546 27.8051205 18.5676657 28.0057229 18.4335153 28.2063253 18.2993649 28.4421687 18.1926685 28.7135542 18.1131142 28.9849398 18.0338719 29.2710843 17.9936267 29.5713855 17.9936267 29.863253 17.9936267 30.1430723 18.0304401 30.4105422 18.1034429 30.678012 18.1770696 30.9111446 18.2772145 31.1120482 18.4048134 31.3123494 18.5321003 31.473494 18.6852813 31.5942771 18.8640446 31.7153614 19.0421838 31.7759036 19.2368579 31.7759036 19.4471309L31.7759036 24.6970919 31.7759036 24.6970919z"/>
          <polyline fill="#F9F9F9" points="9.937 16.413 9.937 18.552 13.773 18.552 11.176 44.052 14.007 44.052 16.823 16.413 9.937 16.413"/>
          <path fill="#CFCFCF" d="M25.3364458 54.1736825C24.9774096 54.1736825 24.6777108 53.8819833 24.6599398 53.5063621 24.6418675 53.1191978 24.9301205 52.7897493 25.3039157 52.7710306 32.7807229 52.3929136 39.25 46.2307298 41.7846386 37.071688 41.888253 36.6994986 42.263253 36.484234 42.6228916 36.5899944 42.9828313 36.6970028 43.1909639 37.085727 43.088253 37.4582284 40.3903614 47.2044123 33.4361446 53.7649916 25.3701807 54.1733705 25.3584337 54.1736825 25.3475904 54.1736825 25.3364458 54.1736825M22.3057229 111.857738C22.1256024 111.857738 21.9466867 111.784423 21.813253 111.638418 21.5560241 111.356702 21.5674699 110.912758 21.8394578 110.645705 21.921988 110.564903 30.0963855 102.432267 29.6436747 93.2414039 29.386747 88.0270084 27.5361446 85.5003008 24.7346386 81.675766 23.9581325 80.6153538 23.1545181 79.5187521 22.2915663 78.2374596 17.9792169 71.8394206 24.414759 66.1211811 24.4804217 66.0644011 24.7674699 65.814507 25.1945783 65.8525682 25.435241 66.150195 25.6759036 66.4465738 25.6391566 66.8889582 25.3533133 67.1385404 25.1246988 67.3385181 19.803012 72.0933705 23.4027108 77.434429 24.2506024 78.6920111 25.0457831 79.7780056 25.814759 80.8274986 28.6620482 84.7147409 30.7186747 87.5234763 30.9972892 93.170273 31.4822289 103.014106 23.1268072 111.317081 22.7710843 111.665872 22.6403614 111.794095 22.4725904 111.857738 22.3057229 111.857738"/>
        </g>
      </g>
      <g transform="translate(78)">
        <path fill="#F69A98" fill-rule="nonzero" d="M60.8401932,34.4472692 L34.5308704,22.1790305 C33.2346388,21.5745877 31.6942708,22.1352074 31.0898516,23.4313885 L0.495533799,89.0411148 C-0.108777412,90.3370644 0.451985186,91.877739 1.74801623,92.4820882 L8.81518778,95.7775644 L9.55888549,94.836943 C11.4565487,92.4367976 14.7673972,91.6512827 17.5462366,92.9470769 C20.3250761,94.242871 21.8515093,97.2840473 21.2326856,100.280525 L20.9901674,101.454851 L28.057339,104.750327 C29.3533701,105.354676 30.8940465,104.793919 31.4983577,103.497969 L62.0926755,37.8882427 C62.6970947,36.5920616 62.1364248,35.0517119 60.8401932,34.4472692 Z"/>
        <path fill="#CFCFCF" d="M45.7605095,31.2420348 C44.262694,31.2420348 43.0445026,32.4597268 43.0445026,33.95644 C43.0445026,35.4527564 44.262694,36.6708452 45.7605095,36.6708452 C47.2583249,36.6708452 48.4765163,35.4527564 48.4765163,33.95644 C48.4765163,32.4597268 47.2583249,31.2420348 45.7605095,31.2420348 Z M45.7605095,38.4568992 C43.2772578,38.4568992 41.2571333,36.4378644 41.2571333,33.95644 C41.2571333,31.4750156 43.2772578,29.4559808 45.7605095,29.4559808 C48.2437611,29.4559808 50.2638856,31.4750156 50.2638856,33.95644 C50.2638856,36.4378644 48.2437611,38.4568992 45.7605095,38.4568992 L45.7605095,38.4568992 Z"/>
        <path fill="#CFCFCF" d="M60.8752673,2.20422343 C60.5916036,2.07194886 59.4329084,2.33217955 58.9803525,3.30268892 C58.491062,4.35197574 51.2025792,21.9398624 47.9187198,29.874029 C51.8903659,22.3201414 60.6672562,5.61549696 61.2518216,4.36189238 C61.8243099,3.13418723 61.1664905,2.34002302 60.8752673,2.20422343 Z M46.4056438,34.7626094 C46.3919646,34.7562307 46.379533,34.7499958 46.3661893,34.7428977 C46.1280187,34.6173852 45.9690167,34.3991618 45.9127348,34.1561409 C45.6882574,34.2691174 45.4176364,34.2874422 45.1680106,34.1846157 C44.7083323,33.99654 44.4945239,33.4729217 44.6826951,33.0167563 C45.1740659,31.830491 56.714153,3.93329352 57.3604458,2.54731406 C58.1991337,0.74874221 60.3813183,0.00319866027 61.6300863,0.585508769 C62.95481,1.20323754 63.8068652,3.11185967 62.8717283,5.11726728 C62.1001355,6.77195339 48.1656237,33.2429945 47.5727311,34.3687815 C47.3506163,34.7924773 46.8347391,34.9626998 46.4056438,34.7626094 Z"/>
        <path fill="#CFCFCF" d="M53.5869084,30.8823543 L51.9670018,30.1269794 C52.8023348,28.3356019 52.0233714,26.1978661 50.2306747,25.361918 C48.437978,24.5259697 46.2996694,25.3033592 45.4643364,27.0947368 L43.8444297,26.3393619 C45.0960873,23.6551733 48.2993284,22.4906239 50.9854938,23.7432033 C53.671659,24.9957827 54.8385661,28.1981657 53.5869084,30.8823543 Z"/>
        <path stroke="#FFF" stroke-dasharray="4.743" stroke-width="1.129" d="M54.5391865,51.2273683 L25.2685213,37.6034517 L54.5391865,51.2273683 Z"/>
        <path fill="#FFF" d="M13.4975913,69.4105269 C13.4394855,70.2137536 13.1429797,70.8460714 12.6080649,71.3074995 C12.0731501,71.7689276 11.3682011,71.9996382 10.4931968,71.9996382 C9.53616072,71.9996382 8.78336063,71.6774979 8.23477391,71.0332075 C7.68618718,70.3889172 7.41189793,69.5045266 7.41189793,68.3800093 L7.41189793,67.9237105 C7.41189793,67.2059334 7.53836151,66.5736156 7.79129246,66.0267378 C8.04422341,65.4798601 8.40566999,65.0603086 8.87564305,64.7680708 C9.3456161,64.475833 9.89163115,64.3297163 10.5137046,64.3297163 C11.375037,64.3297163 12.0688777,64.5604269 12.5952475,65.021855 C13.1216174,65.4832831 13.4258135,66.1309817 13.5078452,66.9649702 L11.9697593,66.9649702 C11.9321614,66.4830342 11.7980075,66.1335504 11.5672934,65.9165083 C11.3365794,65.6994662 10.9853866,65.5909468 10.5137046,65.5909468 C10.0010067,65.5909468 9.61734354,65.7746608 9.36270359,66.1420943 C9.10806365,66.5095277 8.97732765,67.0794683 8.97049168,67.8519331 L8.97049168,68.415898 C8.97049168,69.2225426 9.09268284,69.8121363 9.33706883,70.1846968 C9.58145481,70.5572573 9.96682694,70.7435347 10.4931968,70.7435347 C10.9682968,70.7435347 11.3229075,70.6350153 11.5570395,70.4179732 C11.7911716,70.2009311 11.9253255,69.865119 11.9595054,69.4105269 L13.4975913,69.4105269 Z M20.7852703,68.3338667 C20.7852703,69.0687337 20.6553888,69.7130143 20.3956219,70.2667281 C20.1358549,70.8204418 19.7641546,71.2476836 19.2805096,71.5484663 C18.7968646,71.8492491 18.2423047,71.9996382 17.6168133,71.9996382 C16.9981578,71.9996382 16.4461614,71.8509581 15.9608074,71.5535933 C15.4754534,71.2562285 15.0994806,70.8315501 14.8328777,70.2795454 C14.5662748,69.7275407 14.4312664,69.0926594 14.4278484,68.3748824 L14.4278484,68.0057417 C14.4278484,67.2708748 14.5602934,66.6240307 14.8251873,66.06519 C15.0900812,65.5063493 15.464345,65.0773985 15.94799,64.7783247 C16.431635,64.479251 16.9844859,64.3297163 17.6065594,64.3297163 C18.2286328,64.3297163 18.7814837,64.479251 19.2651287,64.7783247 C19.7487737,65.0773985 20.1230375,65.5063493 20.3879314,66.06519 C20.6528253,66.6240307 20.7852703,67.2691658 20.7852703,68.0006148 L20.7852703,68.3338667 Z M19.2266766,67.9954878 C19.2266766,67.2127691 19.0865412,66.6180484 18.8062664,66.2113081 C18.5259916,65.8045678 18.1260932,65.6012007 17.6065594,65.6012007 C17.0904435,65.6012007 16.6922541,65.8020044 16.4119793,66.2036177 C16.1317045,66.605231 15.9898602,67.1939703 15.9864422,67.9698531 L15.9864422,68.3338667 C15.9864422,69.0960776 16.1265775,69.6873802 16.4068523,70.1077925 C16.6871272,70.5282048 17.0904435,70.7384077 17.6168133,70.7384077 C18.1329291,70.7384077 18.5294095,70.5358951 18.8062664,70.1308638 C19.0831233,69.7258325 19.2232586,69.1353843 19.2266766,68.3595015 L19.2266766,67.9954878 Z M27.6986817,64.4322554 L27.6986817,69.3490034 C27.6986817,70.1659021 27.4431911,70.8118917 26.9322023,71.2869917 C26.4212134,71.7620918 25.7231002,71.9996382 24.8378419,71.9996382 C23.9662555,71.9996382 23.2741238,71.7689276 22.7614259,71.3074995 C22.248728,70.8460714 21.987256,70.2120446 21.9770021,69.4053999 L21.9770021,64.4322554 L23.515088,64.4322554 L23.515088,69.3592574 C23.515088,69.8480293 23.6321523,70.204349 23.8662843,70.4282271 C24.1004163,70.6521051 24.4242656,70.7640425 24.8378419,70.7640425 C25.7025923,70.7640425 26.1417969,70.3094572 26.1554689,69.400273 L26.1554689,64.4322554 L27.6986817,64.4322554 Z M30.6438315,69.2669722 L30.6438315,71.8970991 L29.1057455,71.8970991 L29.1057455,64.4322554 L32.0178549,64.4322554 C32.5784046,64.4322554 33.0714416,64.5347934 33.4969809,64.7398726 C33.9225201,64.9449517 34.2497873,65.2363307 34.4787924,65.6140181 C34.7077975,65.9917055 34.8222983,66.4215108 34.8222983,66.9034468 C34.8222983,67.6348958 34.5719346,68.2116722 34.0711996,68.6337935 C33.5704647,69.0559147 32.8774785,69.2669722 31.9922201,69.2669722 L30.6438315,69.2669722 Z M30.6438315,68.0211226 L32.0178549,68.0211226 C32.4245952,68.0211226 32.7347728,67.9254204 32.9483969,67.7340132 C33.162021,67.542606 33.2688315,67.2691712 33.2688315,66.9137007 C33.2688315,66.5479762 33.1611665,66.2523249 32.9458334,66.0267378 C32.7305003,65.8011508 32.43314,65.684941 32.0537436,65.678105 L30.6438315,65.678105 L30.6438315,68.0211226 Z M42.1561199,68.3338667 C42.1561199,69.0687337 42.0262383,69.7130143 41.7664714,70.2667281 C41.5067045,70.8204418 41.1350041,71.2476836 40.6513591,71.5484663 C40.1677141,71.8492491 39.6131542,71.9996382 38.9876628,71.9996382 C38.3690074,71.9996382 37.817011,71.8509581 37.331657,71.5535933 C36.846303,71.2562285 36.4703302,70.8315501 36.2037273,70.2795454 C35.9371244,69.7275407 35.802116,69.0926594 35.798698,68.3748824 L35.798698,68.0057417 C35.798698,67.2708748 35.9311429,66.6240307 36.1960368,66.06519 C36.4609307,65.5063493 36.8351946,65.0773985 37.3188396,64.7783247 C37.8024846,64.479251 38.3553355,64.3297163 38.9774089,64.3297163 C39.5994823,64.3297163 40.1523333,64.479251 40.6359783,64.7783247 C41.1196232,65.0773985 41.4938871,65.5063493 41.758781,66.06519 C42.0236749,66.6240307 42.1561199,67.2691658 42.1561199,68.0006148 L42.1561199,68.3338667 Z M40.5975261,67.9954878 C40.5975261,67.2127691 40.4573908,66.6180484 40.1771159,66.2113081 C39.8968411,65.8045678 39.4969428,65.6012007 38.9774089,65.6012007 C38.4612931,65.6012007 38.0631037,65.8020044 37.7828288,66.2036177 C37.502554,66.605231 37.3607097,67.1939703 37.3572917,67.9698531 L37.3572917,68.3338667 C37.3572917,69.0960776 37.497427,69.6873802 37.7777019,70.1077925 C38.0579767,70.5282048 38.461293,70.7384077 38.9876628,70.7384077 C39.5037787,70.7384077 39.9002591,70.5358951 40.1771159,70.1308638 C40.4539728,69.7258325 40.5941081,69.1353843 40.5975261,68.3595015 L40.5975261,67.9954878 Z M49.4899414,71.8970991 L47.9518555,71.8970991 L44.9577149,66.9854781 L44.9577149,71.8970991 L43.4196289,71.8970991 L43.4196289,64.4322554 L44.9577149,64.4322554 L47.9569825,69.3541304 L47.9569825,64.4322554 L49.4899414,64.4322554 L49.4899414,71.8970991 Z" transform="rotate(-65 28.45 68.165)"/>
      </g>
    </g>
  </g>
</svg>
