<svg xmlns="http://www.w3.org/2000/svg" width="36" height="36" viewBox="0 0 36 36">
  <path fill="#F69A98" d="M15.0084846,2 C15.0084846,2 10.7930583,6.49206624 10.0698925,9.39984229 L10.0605789,9.39984229 C10.0605789,9.43080799 10.0513419,9.46427404 10.0513419,9.49770161 C10.0180736,9.7674687 9.9940038,10.0392745 9.9630734,10.3090031 C9.58485633,14.6395861 10.2462763,19.0332545 11.7424337,23.4952013 L18.2745354,23.4952013 C19.758773,19.0642971 20.4131407,14.6900929 20.0492581,10.392976 C20.027833,10.0682015 19.9945263,9.74777374 19.951676,9.42311465 L19.951676,9.39972689 C19.2309248,6.49206624 15.0084846,2 15.0084846,2 Z M15.0038469,9.00805878 C16.2836066,9.00805878 17.3174178,10.0550843 17.3174178,11.3394495 C17.3174178,12.6238147 16.2835299,13.6614929 15.0038469,13.6614929 C13.7240873,13.6614929 12.6856001,12.6238147 12.6856001,11.3394495 C12.6856001,10.0550843 13.7240873,9.00805878 15.0038469,9.00805878 Z M20.3790674,16.9160464 C20.1650076,18.5680765 19.7960275,20.242648 19.301256,21.9471852 C19.4963054,22.2049891 19.6378493,22.4925663 19.7472364,22.7957994 L20.7972219,25.8592118 C20.8947274,26.1408651 21.2930664,26.1084761 21.345422,25.8172446 L21.8611203,23.061566 C22.284564,20.879503 21.7254021,18.6445098 20.3790674,16.9160464 L20.3790674,16.9160464 Z M9.61919788,16.9253938 C8.2729398,18.6562037 7.72343654,20.879503 8.13258401,23.061566 L8.6482823,25.8172446 C8.70063785,26.1084761 9.10821389,26.1408651 9.20579604,25.8592118 L10.2603425,22.7957994 C10.3579247,22.4926048 10.5093188,22.2073741 10.6924099,21.9471852 C10.2071821,20.2521878 9.84525426,18.5678841 9.61919788,16.9253938 L9.61919788,16.9253938 Z M13.0246847,24.3764353 C12.6178752,24.6677053 12.0626228,25.2864809 12.2767209,26.4466755 C12.5906626,28.2132979 14.8876759,30.5079145 14.8876759,32 C14.8876759,30.5079145 17.1844209,28.2132979 17.5079061,26.4466755 C17.714837,25.2864809 17.1574383,24.6677053 16.7506288,24.3764353 L15.9934281,24.3764353 C16.0362017,24.5077222 16.0522993,24.6657435 16.0166163,24.8567307 C15.8810515,25.6158714 14.8876759,26.6040044 14.8876759,27.253361 C14.8876759,26.6063893 13.892039,25.6158714 13.7540212,24.8567307 C13.7184148,24.6657435 13.7345124,24.5077222 13.7773244,24.3764353 L13.0246847,24.3764353 L13.0246847,24.3764353 Z" transform="rotate(35 14.914 22.257)"/>
</svg>
