<svg xmlns="http://www.w3.org/2000/svg" width="35" height="35" viewBox="0 0 35 35">
  <g fill="none" fill-rule="evenodd" transform="translate(5 2)">
    <g fill="#0B4C76" fill-rule="nonzero">
      <path d="M12.9598214 0L13.6674107 0C14.703869.128735084 15.6875.594844869 16.4449405 1.30954654 17.7522321 2.51403341 18.3191964 4.28081146 18.6078869 5.98174224 18.6175595 6.10011933 18.6235119 6.21923628 18.6354167 6.33835322 17.641369 6.32577566 16.6465774 6.35315036 15.6525298 6.32429594 15.6376488 6.32355609 15.6071429 6.32059666 15.5922619 6.31911695 15.3921131 5.47863962 15.0669643 4.65 14.5513393 3.94935561 13.811756 2.93501193 12.5610119 2.35052506 11.3139881 2.32019093 10.4263393 2.30317422 9.57366071 2.67310263 8.88988095 3.21763723 8.03720238 3.88350835 7.35267857 4.73434368 6.71354167 5.59775656 7.31622024 4.31484487 8.10863095 3.110358 9.08184524 2.07381862 10.1019345.991408115 11.4508929.151670644 12.9598214 0zM8.92708333 9.75057279C10.0200893 9.74761337 11.1138393 9.74243437 12.2061012 9.75279236 12.8095238 10.0139618 13.3794643 10.4023866 13.7842262 10.9247255 14.2113095 11.47 14.3020833 12.2342721 14.0550595 12.8749881 13.9107143 13.1997852 13.6063988 13.4195227 13.3087798 13.5970883 12.7485119 13.913747 12.1287202 14.1024105 11.5178571 14.296253 11.5029762 14.4168496 11.4888393 14.5367064 11.4739583 14.6573031 12.4709821 15.6583294 13.516369 16.6097852 14.5171131 17.6071122 14.343006 17.6404057 14.1659226 17.628568 13.9903274 17.6270883 12.3013393 17.6256086 10.6123512 17.6300477 8.9233631 17.6248687 8.91592262 14.9998568 8.91443452 12.374105 8.92708333 9.75057279z"/>
      <path d="M13.7142857 9.76167064C14.7738095 9.72911695 15.8340774 9.75797136 16.8943452 9.74761337 16.9129464 12.3733652 16.8988095 14.9998568 16.9010417 17.6263484 16.5 17.61821 16.0959821 17.6485442 15.6956845 17.613031 14.719494 16.6526969 13.766369 15.6664678 12.7938988 14.7016945 13.4375 14.5011933 14.109375 14.2592601 14.5602679 13.7324821 15.4285714 12.7891647 15.3169643 11.191074 14.4084821 10.3143437 14.2090774 10.0923866 13.9471726 9.94441527 13.7142857 9.76167064zM3.53199405 12.2105967L3.55208333 12.1943198C4.05282738 13.1013842 4.56696429 14.00179 5.05133929 14.9184726 5.046875 14.9192124 5.03720238 14.9221718 5.03199405 14.9236516 4.90252976 14.9428878 4.81622024 15.0457279 4.72842262 15.1308115 4.18675595 15.7034606 3.67113095 16.3234606 3.36830357 17.0573986 3.02678571 17.8586635 2.98363095 18.7686874 3.20386905 19.607685 3.4077381 20.51179 3.97842262 21.3263723 4.77083333 21.8168974 5.921875 22.5456563 7.30133929 22.7431981 8.62053571 22.9629356 6.79315476 23.0428401 4.9077381 22.8941289 3.20684524 22.1772076 1.99255952 21.6667064.890625 20.7655609.374255952 19.5344391-.110119048 18.4549881-.0699404762 17.1994511.320684524 16.0978043.895833333 14.4738186 2.18005952 13.22642 3.53199405 12.2105967zM22.7061012 12.4347733C23.8370536 14.0750358 24.828869 15.9121002 25 17.9274702L25 18.9247971C24.938244 19.9236038 24.531994 20.8994749 23.8578869 21.6445107 23.0900298 22.4687112 22.0178571 22.9858711 20.906994 23.156778 19.34375 23.3883532 17.7730655 23.0117661 16.3110119 22.4790692 16.3244048 22.4494749 16.3519345 22.3895465 16.3653274 22.3599523 16.8005952 21.4994988 17.2842262 20.6634606 17.7447917 19.8170644L17.7790179 19.8007876C18.6733631 20.0449403 19.625744 20.1573986 20.546131 19.9990692 21.6763393 19.7948687 22.672619 19.0653699 23.2790179 18.1050358 23.6622024 17.4968735 23.8266369 16.765895 23.7864583 16.0519332 23.7388393 14.7734606 23.1755952 13.6000477 22.7061012 12.4347733zM5.23363095 25.9401193C6.05803571 25.9556563 6.88318452 25.9371599 7.70758929 25.9504773 8.0625 25.9815513 8.44717262 26.0022673 8.74107143 26.2271838 9.29910714 26.6555609 9.41964286 27.5456086 8.98511905 28.1012411 8.72767857 28.4534129 8.28348214 28.5917661 7.87127976 28.6627924 8.23660714 28.8810501 8.5297619 29.1932697 8.75967262 29.5476611 9.05208333 30.0093317 9.35863095 30.462864 9.64434524 30.9289737 9.38244048 30.9837232 9.1108631 30.9807637 8.84970238 30.927494 8.77157738 30.8853222 8.73660714 30.7965394 8.6860119 30.7299523 8.37797619 30.2497852 8.08184524 29.7607399 7.74479167 29.3005489 7.55431548 29.041599 7.30803571 28.7774702 6.97098214 28.7360382 6.61309524 28.7123628 6.25372024 28.7271599 5.89508929 28.72642 5.89508929 29.4625776 5.90104167 30.1994749 5.8921131 30.9356325 5.671875 30.9800239 5.44717262 30.9718854 5.22842262 30.9200955 5.23809524 29.2598568 5.22767857 27.600358 5.23363095 25.9401193L5.23363095 25.9401193zM5.89434524 26.5016706C5.89360119 27.0469451 5.90327381 27.5922196 5.8891369 28.137494 6.4047619 28.1663484 6.92261905 28.1456325 7.4389881 28.1493317 7.79389881 28.1419332 8.22247024 28.0842243 8.42708333 27.7564678 8.61979167 27.4753222 8.61607143 27.0713604 8.38392857 26.8138902 8.19866071 26.5778759 7.88244048 26.5061098 7.59598214 26.5046301 7.02827381 26.4979714 6.46130952 26.5009308 5.89434524 26.5016706zM10.6227679 26.696253C11.1696429 25.9837709 12.1696429 25.7329594 13.0260417 25.9216229 13.7157738 26.0636754 14.2998512 26.6348449 14.4360119 27.3243914 14.2604167 27.3613842 14.0863095 27.4087351 13.9084821 27.4368496 13.781994 27.4938186 13.7626488 27.3280907 13.718006 27.2555847 13.5706845 26.8693795 13.2380952 26.5416229 12.8214286 26.4617184 12.3110119 26.3699761 11.7328869 26.4491408 11.343006 26.8161098 10.921131 27.1978759 10.8147321 27.7919809 10.7745536 28.3313365 10.7760417 28.9298807 10.8697917 29.5920525 11.3065476 30.0411456 11.8311012 30.5390692 12.7254464 30.6137947 13.3095238 30.1750597 13.6316964 29.9383055 13.7872024 29.5550597 13.8854167 29.1829117 14.1041667 29.2457995 14.3244048 29.3042482 14.5446429 29.3634368 14.436756 29.6919332 14.3147321 30.0248687 14.0907738 30.2941766 13.7730655 30.6944391 13.2886905 30.9496897 12.7790179 31L12.1465774 31C11.6755952 30.979284 11.2053571 30.8076372 10.8638393 30.4798807 10.421131 30.0574224 10.2046131 29.4522196 10.1272321 28.8588544 10.03125 28.1145585 10.1525298 27.3021957 10.6227679 26.696253zM20.453125 26.2575179C21.077381 25.8520764 21.891369 25.7521957 22.5989583 25.9815513 23.2016369 26.1798329 23.6629464 26.7140095 23.8065476 27.3236516 23.5915179 27.3710024 23.3764881 27.4183532 23.1577381 27.4457279 23.0498512 27.1557041 22.9114583 26.8597613 22.6525298 26.6718377 22.328869 26.4254654 21.8980655 26.3980907 21.5074405 26.4469212 20.9754464 26.5068496 20.4977679 26.8908353 20.3206845 27.3917184 20.1041667 27.9747255 20.0863095 28.6221002 20.2366071 29.222864 20.3162202 29.5439618 20.4605655 29.8606205 20.7165179 30.0818377 21.2470238 30.5427685 22.110119 30.6004773 22.6778274 30.1728401 23 29.9360859 23.1376488 29.5469212 23.2611607 29.1843914 23.4650298 29.2494988 23.672619 29.3027685 23.8824405 29.3434606 23.7529762 30.1950358 23.0260417 30.9237947 22.1525298 31L21.4456845 31C20.796875 30.9630072 20.1860119 30.5952983 19.8690476 30.0300477 19.4910714 29.3641766 19.3839286 28.5621718 19.5081845 27.8134368 19.608631 27.202315 19.9241071 26.603031 20.453125 26.2575179zM3.37276786 30.9112172C3.39955357 29.2546778 3.3578869 27.5959189 3.39434524 25.9401193 3.61011905 25.9482578 3.82589286 25.9475179 4.04166667 25.9438186 4.0453869 27.6092363 4.0483631 29.2739141 4.03943452 30.9385919 3.81770833 30.9800239 3.58779762 30.9911217 3.37276786 30.9112172zM14.9821429 26.5334845C14.9791667 26.3352029 14.9799107 26.1369212 14.9955357 25.9393795 16.3177083 25.957136 17.639881 25.9356802 18.9627976 25.9497375 18.9590774 26.1450597 18.9590774 26.3403819 18.9568452 26.5357041 18.40625 26.5305251 17.8549107 26.5320048 17.3043155 26.5342243 17.3065476 27.9947017 17.2983631 29.4559189 17.3087798 30.9163962 17.0900298 30.968926 16.8645833 30.9674463 16.6428571 30.9341527 16.6279762 29.4647971 16.6584821 27.9947017 16.6272321 26.5260859 16.078869 26.5401432 15.530506 26.5290453 14.9821429 26.5334845z"/>
    </g>
    <g fill="#CCC7D2" fill-rule="nonzero" transform="translate(2.307 5.919)">
      <path d="M16.3013393.0628878282C16.3258929.167947494 16.3534226.271527446 16.3809524.375847255 17.1674107.433556086 17.9546131.343293556 18.7410714.368448687 18.764881 2.42451074 18.6071429 4.48575179 18.203125 6.50334129 17.6964286 9.07508353 16.7708333 11.5654415 15.4709821 13.8449403 15.688244 13.056253 15.9806548 12.2890215 16.1755952 11.4936754 16.8147321 9.02921241 17.0885417 6.45894988 16.8712798 3.91976134 16.7938988 2.73968974 16.5848214 1.57293556 16.328869.419498807 16.3169643.300381862 16.3110119.181264916 16.3013393.0628878282zM8.24107143.938878282C9.89806548.593365155 11.5907738.367708831 13.2857143.40026253 13.3005952.401742243 13.3311012.404701671 13.3459821.405441527 12.1324405.659212411 10.9159226.919642005 9.74107143 1.32138425 8.15104167 1.83632458 6.61458333 2.52143198 5.18005952 3.37596659 3.75372024 4.17797136 2.48214286 5.21451074 1.24553571 6.27546539L1.22544643 6.29174224C.843005952 5.58961814.37797619 4.93336516.0245535714 4.21718377 2.58035714 2.72933174 5.34598214 1.57885442 8.24107143.938878282z"/>
      <path/>
      <path/>
      <path d="M2.80059524,9.07138425 C3.58407738,9.86155131 4.2953869,10.7271838 5.14508929,11.4529833 C7.59151786,13.696969 10.5394345,15.3786635 13.6941964,16.4203819 C13.811756,16.4603341 13.938244,16.4877088 14.0587798,16.4410979 C14.0453869,16.4706921 14.0178571,16.5306205 14.0044643,16.5602148 C13.6421131,17.2164678 13.2589286,17.8631026 12.8869048,18.5141766 C12.8370536,18.6377327 12.7090774,18.5445107 12.6331845,18.5075179 C9.08779762,16.4640334 5.8891369,13.7398807 3.58705357,10.3476372 C3.31845238,9.92591885 3.015625,9.52343675 2.80059524,9.07138425 Z"/>
      <path/>
    </g>
    <path fill="navy" fill-rule="nonzero" d="M15.4954417 5.887987C14.8989929 3.75467904 13.4944798 2.48690121 11.5325256 2.31087619 10.2711345 2.19770539 9.02344345 2.85826309 7.69310357 4.34355694 7.42096667 4.64739452 7.18464226 4.88240204 7.16794286 4.86579693 7.15124286 4.84919111 7.2678119 4.61569467 7.42698393 4.34691529 8.48485714 2.56057046 9.92012024 1.13293124 11.2902768.504141189 12.6843125-.135608223 13.8177589-.136153071 15.15195.502282533 16.8466202 1.3132157 17.9269762 2.90022712 18.42285 5.30715235 18.5019702 5.69119474 18.5808875 6.07334954 18.5982161 6.15638515L18.6297226 6.30735914 17.1212083 6.30735914 15.612694 6.30735914 15.4954417 5.887987zM6.17715714 22.8742486C5.88024696 22.8434724 5.33729024 22.7546641 4.97058768 22.6768957 2.44389405 22.1410476.877014702 20.9442475.230387655 19.0562768.130048125 18.7633089.104377518 18.4935719.105872196 17.7478353.107624643 16.8740011.122117917 16.7681885.313557667 16.231661.677708214 15.211096 1.17673435 14.4413845 2.04443685 13.5619049 2.62802375 12.9703988 3.50219958 12.2473954 3.56195548 12.3068147 3.58540601 12.3301327 3.91330375 12.9110552 4.29061893 13.597753L4.97664667 14.8462951 4.6443222 15.1899231C3.31752804 16.5618419 2.83647375 17.9043345 3.13867393 19.3917746 3.29912363 20.1815173 3.57395339 20.7216998 4.09441512 21.2703095 4.79401774 22.0077491 5.72320095 22.4274059 7.44276369 22.7825632L8.20154643 22.9392791 7.45927083 22.9347423C7.05101905 22.9322445 6.47406786 22.9050219 6.17715714 22.8742469L6.17715714 22.8742486zM19.0995089 23.1465941C18.4520351 23.0683693 17.8161071 22.921487 16.9959661 22.6607331L16.3432357 22.453205 16.6177363 21.9457562C17.4671429 20.3755232 17.7684595 19.8614772 17.8394482 19.8615269 17.8829929 19.8615571 18.1397327 19.9074519 18.4099821 19.9635147 19.0603982 20.0984415 20.2989869 20.0979117 20.8140185 19.962486 22.0785399 19.6299878 23.2166714 18.5920332 23.633075 17.3915664 23.7601595 17.0251917 23.7881839 16.8069156 23.7854708 16.2045455 23.7817869 15.3854802 23.654756 14.8023162 23.2404042 13.7022551 23.1098851 13.3557393 23.0153732 13.060015 23.0303804 13.0450906 23.0453946 13.0301656 23.2468887 13.33381 23.4781482 13.7198548 24.1094679 14.7737015 24.5495429 15.843361 24.8454815 17.0432898 24.986575 17.6153861 24.9654268 19.3220026 24.8109661 19.827922 24.5831274 20.5742445 24.1696863 21.2656466 23.6375018 21.7903525 23.2349452 22.1872614 23.0176268 22.3369847 22.454644 22.6053136 22.0753143 22.7861104 21.5652488 22.9815036 21.3211619 23.0395208 20.748219 23.1757065 19.7418881 23.2242068 19.0995089 23.1465964L19.0995089 23.1465941zM8.9775625 13.6883115L8.9775625 9.79653684 10.5997637 9.79653684C12.4230387 9.79653684 12.4137929 9.7945191 13.1492631 10.3528535 14.1765107 11.1326904 14.4708274 12.4069298 13.7954095 13.1503261 13.5190304 13.4545232 12.8137994 13.8347374 12.0596708 14.0861236 11.5428351 14.2584102 11.5067577 14.2828432 11.4875649 14.4735919 11.4689202 14.6589166 11.5990601 14.8072283 12.9383774 16.1269547L14.4096738 17.5767301 11.6936185 17.5784075 8.9775625 17.5800867 8.9775625 13.6883115z"/>
    <path fill="navy" fill-rule="nonzero" d="M14.711903 16.5903678C14.173894 16.0460226 13.5436173 15.4030036 13.3112875 15.1614368L12.8888696 14.7222241 13.4468327 14.4961173C13.9055119 14.3102434 14.083628 14.1913916 14.4478179 13.828187 14.8321315 13.4449152 14.911625 13.3215047 15.0476804 12.8969452 15.1785304 12.4886354 15.1970601 12.327729 15.1595143 11.9260122 15.0874935 11.1554821 14.7171798 10.4802397 14.1165185 10.0241843L13.8166899 9.79653684 15.3446851 9.79653684 16.872681 9.79653684 16.872681 13.6883115 16.872681 17.5800867 16.2813905 17.5800867 15.6901 17.5800867 14.711903 16.5903678zM5.2661822 28.4436474L5.2661822 25.9543903 6.73386429 25.9777952C8.1116256 25.9997636 8.22124345 26.0108384 8.52302857 26.1585588 8.95153393 26.368307 9.18322976 26.7518168 9.18935238 27.261484 9.19739583 27.930997 8.8132625 28.4073559 8.12670655 28.579259L7.81282202 28.6578507 8.0409244 28.8227612C8.3467256 29.0438494 8.50793036 29.2397232 9.00864524 29.9986009 9.66984643 31.0007126 9.65393631 30.9329003 9.22786726 30.9329003L8.86610833 30.9329003 8.23016667 29.9775552C7.42969643 28.7750334 7.35236488 28.7186149 6.50457679 28.7186149L5.87349905 28.7186149 5.87349905 29.8257573 5.87349905 30.9329003 5.56984065 30.9329003 5.2661822 30.9329003 5.2661822 28.4436474zM8.14979583 28.0288043C8.69693155 27.7337341 8.70901905 26.883274 8.17001548 26.6061142 8.01798155 26.5279379 7.72870595 26.5043288 6.92278452 26.5043288L5.87349905 26.5043288 5.87349905 27.3490937 5.87349905 28.1938628 6.90256369 28.1701626C7.72284345 28.1512719 7.97589167 28.1225921 8.14979464 28.0288055L8.14979583 28.0288043zM3.40748988 30.8609685C3.38289893 30.8214057 3.38513321 29.7041982 3.41245298 28.3782843L3.46212744 25.9675325 3.72309619 25.9675325 3.98406899 25.9675325 3.98406899 28.4502167 3.98406899 30.9329003 3.7181331 30.9329003C3.57186827 30.9329003 3.4320781 30.9005307 3.40748851 30.8609685L3.40748988 30.8609685zM11.8604726 30.9344694C10.5287929 30.6945924 9.80843393 29.0789861 10.29345 27.4199874 10.4564095 26.8625888 10.8316887 26.4288545 11.3856375 26.1576816 11.8014542 25.9541275 11.8974315 25.9340134 12.4513452 25.9343218 13.1471333 25.9347083 13.5170702 26.0632232 13.8900702 26.4341223 14.0987946 26.6416729 14.3759339 27.0965498 14.3759339 27.2315891 14.3759339 27.2654763 14.2545923 27.3238267 14.1062845 27.3612588L13.8366369 27.4293191 13.6612774 27.1089457C13.438228 26.7014355 13.1749744 26.5089982 12.7489423 26.4420311 11.9750524 26.3203868 11.3066333 26.636833 10.9814244 27.2788239 10.8174298 27.6025628 10.7166946 28.2975677 10.7685345 28.7476143 10.8989917 29.8801492 11.4559179 30.4652954 12.3999869 30.4617299 13.0728756 30.4591889 13.4968244 30.1839604 13.7684792 29.573298 13.9187893 29.2354149 14.0015256 29.2010607 14.3247702 29.3423118L14.5097851 29.4231604 14.337544 29.792208C13.9031345 30.7229822 12.9995506 31.1396548 11.8604702 30.9344706L11.8604726 30.9344694zM16.6702417 28.7224728L16.6702417 26.5043288 15.8188786 26.5043288C14.9689089 26.5043288 14.9675774 26.5040808 15.0081982 26.3533548 15.030581 26.2703192 15.0493 26.1495402 15.049806 26.0849567 15.0506631 25.9758349 15.189597 25.9675325 17.0148607 25.9675325 18.7781577 25.9675325 18.9748 25.9783847 18.9380304 26.07367 18.9154923 26.1320453 18.8970702 26.2528242 18.8970702 26.3420681L18.8970702 26.5043288 18.0882387 26.5043288 17.2794012 26.5043288 17.2616131 28.7018396 17.243819 30.8993505 16.9570304 30.9199836 16.6702417 30.9406161 16.6702417 28.7224728z"/>
    <path fill="#000075" fill-rule="nonzero" d="M21.1734625 30.9269909C20.775528 30.8337684 20.4277649 30.630905 20.1592435 30.3353582 19.4226083 29.5245853 19.2835262 27.9346726 19.8636488 26.9563126 20.0986196 26.5600371 20.3496304 26.3411898 20.8202399 26.1223005 21.1721262 25.9586305 21.3046024 25.9343532 21.8324345 25.9368137 22.3541131 25.9392469 22.4881881 25.9646577 22.7832226 26.1170286 22.9721321 26.214589 23.2264494 26.4073857 23.3483714 26.5454642 23.5694958 26.7958939 23.7922863 27.2283124 23.7313929 27.2888676 23.7137268 27.306436 23.577269 27.3370791 23.428153 27.356967 23.1707857 27.391294 23.1521881 27.3815877 23.0614952 27.1657531 22.9750744 26.9600693 22.5395 26.5086099 22.4205333 26.5014067 22.3939869 26.4998021 22.2427917 26.4735821 22.0845387 26.4431456 21.7547185 26.3797097 21.2505036 26.4549229 20.9551994 26.6116033 20.7019077 26.7459915 20.3598667 27.1916315 20.2392738 27.5443721 20.1852161 27.7024748 20.1484125 28.0885096 20.1497149 28.483766 20.1515101 29.0330771 20.1795208 29.2156045 20.3041286 29.4902595 20.6043661 30.1520294 21.0685583 30.4602567 21.7649548 30.4602567 22.4624786 30.4602585 22.9000571 30.1621317 23.1751107 29.4995142 23.2794613 29.2481203 23.2902583 29.2417783 23.5360125 29.2874251 23.675344 29.3133046 23.7998238 29.3447249 23.8126381 29.3572468 23.8705292 29.4138346 23.7305357 29.8052366 23.5526458 30.0841609 23.0892768 30.8107032 22.1290619 31.1508604 21.1734625 30.9269921L21.1734625 30.9269909zM15.4583899 5.75378786C14.8046042 3.78417607 13.6885214 2.70487214 11.9617905 2.37241257 11.474372 2.27856712 11.2733345 2.26999916 10.8821161 2.32639833 9.86152024 2.47353028 9.1284381 2.90319495 8.0227256 4.00230533 7.60519524 4.41734297 7.26357976 4.73397511 7.26357976 4.70593288 7.26357976 4.67789059 7.39007976 4.44548991 7.54469107 4.18948625 8.78780774 2.13115071 10.6088899.581509003 12.2613845.175835084 12.8185042.0390667102 13.6597113.036286104 14.1829357.169484786 15.0639333.393763071 16.2136077 1.07943142 16.7478208 1.69919254 17.3067839 2.34766827 17.7806982 3.20870396 18.0838762 4.1266234 18.236878 4.58986 18.6001595 6.08426686 18.6001595 6.2504239 18.6001595 6.2817376 17.9346048 6.30735914 17.1211488 6.30735914L15.6421387 6.30735914 15.4583899 5.75378786zM18.4314607 23.0145006C17.8996071 22.906314 16.442028 22.5018752 16.3870292 22.4472276 16.364103 22.42445 17.3749905 20.5757177 17.6435649 20.1492489 17.7778661 19.935989 17.8549429 19.8741192 17.9577899 19.8970098 18.8091286 20.0864925 20.1783381 20.1173238 20.7959405 19.9609192 21.5250042 19.7762883 22.0286185 19.476667 22.6508006 18.8573873 23.487231 18.0248513 23.7942095 17.3309947 23.7947833 16.2716452 23.7951881 15.5233138 23.6981256 15.0045072 23.3884679 14.0999299 23.2415179 13.6706614 23.1213161 13.2892055 23.1213363 13.2522523 23.1213565 13.2152991 23.2431571 13.3813313 23.3920107 13.6212124 24.1155744 14.7872859 24.7602417 16.4633912 24.8908345 17.5181145 24.9945982 18.3560958 24.8806048 19.6295528 24.6512958 20.1940623 24.0371429 21.7059851 22.8134065 22.6928038 21.1065464 23.0525446 20.4777875 23.1850648 19.1791571 23.1665945 18.4314607 23.0145012L18.4314607 23.0145006zM14.3112446 16.162205L12.8998185 14.7443215 13.4725512 14.4818363C14.1314268 14.1798723 14.6632387 13.7110493 14.9435518 13.185065 15.1039821 12.8840297 15.1224262 12.7771968 15.1231018 12.1450217 15.1238071 11.4861733 15.1096685 11.4115708 14.9051369 10.9948178 14.7559756 10.6908899 14.556422 10.4294826 14.2776554 10.1728481L13.8688917 9.79653684 15.3572899 9.79653684 16.8456893 9.79653684 16.8456893 13.6883115 16.8456893 17.5800867 16.2841792 17.5800867 15.7226744 17.5800867 14.3112446 16.162205z"/>
    <path fill="#000075" fill-rule="nonzero" d="M9.0180506 13.6806122L9.0180506 9.78113835 10.6206917 9.81024372C12.4133357 9.84280038 12.4810869 9.85729033 13.0897696 10.338286 13.725331 10.8405221 14.0476875 11.3588463 14.12425 12.0016516 14.2290006 12.8811318 13.6931833 13.45276 12.2571536 13.9935338 11.5292208 14.2676549 11.390022 14.390506 11.5195905 14.6444805 11.5619512 14.7275161 12.223206 15.4219966 12.989044 16.1877703L14.3814756 17.5800867 11.6997649 17.5800867 9.0180506 17.5800867 9.0180506 13.6806122zM6.62252321 22.8792282C3.37103804 22.6490007 1.23000411 21.4261606.340224274 19.2911257.151234708 18.837642.144616982 18.7843699.148516631 17.7478353.152299542 16.7418153.164187429 16.6446798.337369881 16.2045455.59002244 15.5624433.995699286 14.828928 1.35485292 14.3648093 1.89426226 13.6677565 3.47712821 12.2326059 3.57504387 12.3518111 3.60858327 12.3926446 4.73148565 14.4223311 4.85674274 14.6685318 4.96063911 14.8727459 4.95850339 14.8811642 4.75461161 15.0711293 4.36881095 15.4305766 3.74879518 16.2529825 3.51383036 16.716933 3.18446494 17.3672802 3.07306613 17.8435645 3.07643542 18.5870034 3.08464298 20.3982178 4.04835012 21.7209859 5.81953827 22.3521382 6.03849702 22.4301629 6.61240119 22.5928817 7.09488036 22.713737 8.06076369 22.9556796 8.00048631 22.9767969 6.62252321 22.8792282zM18.5664196 23.0492502C17.8793673 22.9096315 16.4778869 22.5193074 16.3849857 22.4416993 16.3444113 22.4078032 17.6573071 20.0818515 17.7753244 19.9785438 17.8771756 19.8893857 17.9586815 19.8878528 18.4314607 19.9662 19.0797804 20.0736367 20.1316292 20.0879219 20.6322089 19.9960891 21.9607946 19.7523548 23.3476565 18.4586696 23.6927673 17.1411515 23.9072381 16.3224165 23.8009506 15.3332671 23.3580012 14.0253707 23.2283726 13.6426073 23.1357095 13.3161144 23.1520869 13.2998292 23.2664851 13.1860777 24.1821702 15.0279234 24.5378018 16.0870995 24.8852607 17.1219508 24.9705149 17.6955878 24.9192571 18.6536799 24.8701726 19.570991 24.7515435 20.0628952 24.4348613 20.662136 23.8449542 21.7784059 22.9631369 22.4823003 21.5692643 22.9495418 20.9967994 23.1414364 19.2977107 23.1978543 18.5664196 23.0492484L18.5664196 23.0492502z"/>
    <path fill="#000075" fill-rule="nonzero"/>
    <path fill="#000075" fill-rule="nonzero" d="M5.30667 28.4398179L5.30667 25.9467396 6.73268036 25.9934973C8.23102679 26.0426303 8.47861548 26.0899806 8.80651726 26.3901073 9.31334881 26.8540076 9.25326071 27.9105805 8.69767619 28.3039636 8.59401845 28.3773592 8.3505506 28.4890112 8.15663929 28.5520796L7.80407143 28.6667503 8.09490893 28.8875674C8.38564107 29.1083075 9.49040774 30.6543874 9.49040774 30.8405159 9.49040774 30.9052072 9.39983631 30.9329003 9.18825893 30.9329003L8.88611012 30.9329003 8.40272738 30.2115802C7.44193988 28.7778525 7.36474464 28.7186149 6.457175 28.7186149L5.84650714 28.7186149 5.84650714 29.8257573 5.84650714 30.9329003 5.57658857 30.9329003 5.30667 30.9329003 5.30667 28.4398179zM8.15976488 28.02991C8.71146012 27.6703603 8.69744286 26.876968 8.13431012 26.5891927 8.0260881 26.5338876 7.61844167 26.5059784 6.90931131 26.5053178L5.84650714 26.5043288 5.84650714 27.3501059 5.84650714 28.1958776 6.91233036 28.1720755C7.78928333 28.1524871 8.01033512 28.1272947 8.1597631 28.0299094L8.15976488 28.02991zM11.9256018 30.9189064C11.225956 30.8132862 10.6676982 30.322113 10.3614911 29.5427526 10.241331 29.2369171 10.207981 29.0126831 10.2039976 28.483766 10.1953548 27.3362333 10.501156 26.6973468 11.2787952 26.2382698 11.6460815 26.0214444 11.733172 25.9991238 12.293322 25.9782669 12.6303351 25.9657202 13.0350607 25.9899898 13.1927137 26.0322025 13.5361815 26.1241673 13.9534738 26.4825504 14.1957583 26.8936486 14.3662595 27.1829485 14.368056 27.1967774 14.246606 27.2850837 14.0095054 27.4574798 13.8340845 27.397249 13.6465571 27.0790602 13.329997 26.5419348 12.8235077 26.3329561 12.1100702 26.4451 11.6309661 26.5204086 11.2586417 26.7903018 11.0156119 27.2384567 10.8520363 27.5400958 10.814769 27.7000842 10.7875494 28.2175288 10.7298905 29.313642 11.01935 29.9982286 11.6673101 30.2982008 12.5192399 30.6925996 13.4613185 30.3587122 13.8016262 29.541763 13.84965 29.4264761 13.9308542 29.3161605 13.982081 29.2966135 14.0728161 29.2619911 14.4839018 29.3732254 14.4839018 29.4323973 14.4839018 29.5047512 14.1832905 30.0473142 14.0321982 30.2476645 13.6213964 30.7923897 12.8068405 31.0519391 11.9256006 30.9189052L11.9256018 30.9189064zM16.7107298 28.7206788L16.7107298 26.5084608 15.8841042 26.4896181 15.0574786 26.470779 15.0361274 26.2862883C15.0188363 26.1368455 15.050531 26.0882807 15.2029655 26.0306524 15.3997089 25.9562731 18.8234637 25.9655704 18.8987821 26.0406895 18.9206262 26.0624745 18.9193054 26.1757039 18.8958518 26.2923131L18.8532083 26.5043288 18.0518875 26.5043288 17.2505667 26.5043288 17.2505667 28.6772385 17.2505667 30.8501476 17.0987375 30.8906071C16.6844077 31.0010192 16.7107298 31.1482247 16.7107298 28.7206799L16.7107298 28.7206788zM21.2417714 30.9312294C20.5935464 30.7970727 20.0074839 30.2786799 19.7325089 29.5962336 19.606103 29.2825112 19.5814173 29.0914163 19.5801399 28.4166669 19.5787327 27.6732605 19.5931351 27.5805772 19.7678369 27.2088743 20.0139054 26.6853291 20.2943714 26.3986453 20.7932482 26.1607275 21.1472702 25.9918927 21.2748643 25.9676319 21.8090667 25.9675852 22.3312107 25.9675396 22.470981 25.992793 22.7707524 26.1413355 22.9636702 26.2369292 23.2095119 26.4213021 23.3170744 26.551057 23.542531 26.8230236 23.7707268 27.2230949 23.7256506 27.2673408 23.7087262 27.2839591 23.5885923 27.3172402 23.458694 27.3412992 23.2324619 27.3832011 23.2125417 27.3702927 22.9857357 27.034828 22.6796756 26.5821469 22.3852619 26.4288421 21.8219685 26.4288421 21.2656417 26.4288421 20.8851792 26.5831449 20.5867756 26.9297985 20.2466286 27.3249425 20.1317321 27.7814317 20.163897 28.6098837 20.1871173 29.2079106 20.2141655 29.3327374 20.3905357 29.6557477 20.6699399 30.1674563 21.0221768 30.4002064 21.5851893 30.4451447 22.3205488 30.5038384 22.7795113 30.2624823 23.0895869 29.654017 23.1798345 29.476913 23.2772143 29.3175508 23.3059673 29.2998807 23.4048929 29.2390864 23.7397536 29.3404077 23.7793976 29.4431324 23.8351833 29.587682 23.4818196 30.2304388 23.2302149 30.4420894 22.734678 30.8589277 21.8929167 31.0659917 21.2417696 30.9312288L21.2417714 30.9312294zM19.1930042 23.122325C18.4307714 23.0689162 16.3935708 22.555822 16.3935708 22.4172539 16.3935708 22.3573184 16.9078327 21.4029191 17.3946667 20.5593574L17.7753917 19.8996555 18.0798077 19.9364099C18.886303 20.0337904 20.2920619 20.0579381 20.6646393 19.9808113 21.3106792 19.8470772 22.0573077 19.4308977 22.5872821 18.9091086 23.8549399 17.6610294 24.0861506 16.4000056 23.4347369 14.2870835 23.0995179 13.1997686 23.0989917 13.1969495 23.2698393 13.4019608 23.529006 13.7129511 24.2829494 15.308206 24.5541911 16.1194933 24.9112339 17.1874163 25.0040137 17.9628969 24.9006583 19.0154142 24.7152351 20.9036625 23.6502476 22.2144875 21.7582024 22.8832577 21.1361464 23.1031325 20.1846423 23.1918094 19.1930024 23.1223256L19.1930042 23.122325zM3.48246714 30.8702131C3.42646714 30.8145321 3.42414786 26.3078317 3.48001089 26.100554 3.51203875 25.9817088 3.56928577 25.94958 3.74900768 25.94958L3.97731625 25.94958 3.97731625 28.4322642 3.97731625 30.9149478 3.75238571 30.9149478C3.62867125 30.9149478 3.50720786 30.8948178 3.48246577 30.8702149L3.48246714 30.8702131z"/>
    <path fill="#000075" fill-rule="nonzero" d="M11.8173893,30.9145217 C11.2462173,30.7945264 10.7150631,30.32677 10.4082786,29.673606 C10.2328167,29.3000346 10.2191833,29.2105379 10.2191833,28.4322642 C10.2191833,27.6690132 10.2349815,27.5600263 10.3947054,27.2214099 C10.635953,26.7099569 10.915556,26.4142421 11.3783524,26.1810682 C11.7392137,25.999254 11.8289339,25.9831299 12.4797512,25.9831299 C13.1280393,25.9831299 13.2146452,25.9985378 13.4982565,26.1643285 C13.8143345,26.3490986 14.0592833,26.6194647 14.2577131,27.0025904 C14.377597,27.2340638 14.3550714,27.2710394 14.0437238,27.3538377 C13.8826851,27.3966624 13.8389321,27.3659731 13.6268976,27.0614552 C13.2883226,26.5752018 12.9232494,26.4004565 12.3266387,26.439074 C11.7135827,26.4787576 11.3249458,26.71533 11.0371952,27.2239928 C10.8499417,27.5550006 10.8261179,27.6618135 10.8033982,28.2721172 C10.7502696,29.6992808 11.2895601,30.4423042 12.3785321,30.4423042 C13.047178,30.442306 13.4537006,30.1869234 13.7940792,29.553049 C13.9348232,29.290945 14.1136702,29.2356824 14.3735655,29.3739907 C14.5006601,29.4416248 14.4996726,29.4519864 14.3355149,29.7741111 C13.9532274,30.5242679 13.3886649,30.9006189 12.5739488,30.9484107 C12.3180143,30.9634227 11.9775619,30.9481751 11.8173875,30.914524 L11.8173893,30.9145217 Z"/>
    <path fill="#000075" fill-rule="nonzero" d="M16.6634893 28.7045203L16.6634893 26.4863763 15.8494589 26.4863763 15.0354274 26.4863763 15.0565726 26.2683026C15.0773119 26.054413 15.0854845 26.0494033 15.4825952 26.0071871 16.037878 25.948156 17.4372601 25.9412398 18.2323911 25.9935974L18.8903173 26.0369192 18.8903173 26.2616481 18.8903173 26.4863763 18.0814839 26.4863763 17.2726512 26.4863763 17.2548583 28.6838872 17.2370661 30.881398 16.950278 30.9020311 16.6634893 30.9226637 16.6634893 28.7045203zM15.5191976 5.97068405C15.3870583 5.448407 15.0499827 4.7053826 14.7108315 4.18878037 13.9437107 3.02028706 12.6754524 2.32931183 11.30155 2.33132879 10.6384494 2.33230245 10.213297 2.43943963 9.59921607 2.76031245 9.08899226 3.02691783 8.10973393 3.83853471 7.60219226 4.41546285 7.42708631 4.61450635 7.28381905 4.75191214 7.28381905 4.72080678 7.28381905 4.57772434 7.74425893 3.83127926 8.22406845 3.19651467 9.21340893 1.88766579 10.4795125.840947462 11.6250583.384832112 12.2427452.138892069 12.6864024.0491470668 13.2845399.0491470668 13.9055262.0491470668 14.4182167.192305338 15.2457286.596767431 15.854222.894179567 16.0344012 1.02365557 16.5294161 1.51921272 17.6009435 2.59191601 18.0256768 3.54398505 18.5901244 6.13843267L18.622969 6.28940666 17.111403 6.28940666 15.5998369 6.28940666 15.5191976 5.97068405z"/>
  </g>
</svg>
