<svg xmlns="http://www.w3.org/2000/svg" width="35" height="35" viewBox="0 0 35 35">
  <g fill="none" stroke-width=".515" transform="translate(2 2)">
    <path fill="#221E1F" stroke="#221E1F" d="M13.1072768,0.275964392 C15.0412876,-0.0551928783 17.0394599,-0.0275964392 18.9734706,0.358753709 C19.9267271,0.524332344 20.8066562,0.984272997 21.6315897,1.46261128 C22.5665144,2.02373887 23.5197709,2.5388724 24.4821933,3.03560831 C26.801173,4.5810089 28.6985201,6.78872404 29.7800996,9.38278932 C30.3942167,10.8178042 30.7608538,12.3540059 30.9166746,13.9086053 C31.2833117,15.9507418 31.0816613,18.0664688 30.4125486,20.025816 C29.8809248,21.9667656 28.6618564,23.5857567 27.6811021,25.3057507 C27.5436132,25.5357211 27.3511287,25.738095 27.1769761,25.9496677 C25.912078,27.4768546 24.4180318,28.8566766 22.5665144,29.620178 C22.6490077,29.5097923 22.6948373,29.3902077 22.7131692,29.2614243 C22.5023529,29.3074184 22.2915365,29.3627953 22.0807202,29.4271869 C22.1998772,29.2708071 22.3831958,29.1878338 22.5481825,29.0774481 C23.1531337,28.6818991 23.7305872,28.2495549 24.2805429,27.7804154 C24.3722021,27.6976261 24.5005251,27.651632 24.5371888,27.5228487 C24.3172066,27.6148368 24.1797177,27.8264095 23.9780672,27.9551929 C21.0724681,30.0617211 17.4335948,31.2207715 13.840551,30.9080119 C10.1375162,30.604451 6.60863398,28.8014837 4.13383346,26.0234421 C2.41980495,24.1192878 1.17323876,21.7919881 0.540789743,19.3083086 C-0.21081634,16.4566766 -0.12832299,13.384273 0.824933506,10.5878338 C1.37488918,8.96884273 2.18149083,7.43264095 3.26307031,6.10801187 C4.95876696,3.98308605 7.13109186,2.19851632 9.63339017,1.12225519 C10.7882971,0.818694362 11.9248721,0.469139466 13.1072768,0.275964392 L13.1072768,0.275964392 Z M13.2905954,1.14985163 C10.6599741,1.6189911 8.18517357,2.87002967 6.17783537,4.63620178 C4.02384232,6.52195846 2.39230717,9.00563798 1.53070995,11.7376855 C1.2190684,13.2922849 0.889095001,14.8744807 0.907426857,16.4658754 C1.23740026,18.8299703 1.95234263,21.1848665 3.2905681,23.1810089 C4.20716088,24.5608309 5.42622928,25.7290801 6.80111846,26.6305638 C6.87444588,26.6765579 6.95693923,26.7133531 7.03026666,26.7409496 C6.22366501,26.1706231 5.53622042,25.4623145 4.83044397,24.7724036 C2.53896201,22.4451039 1.25573211,19.1795252 1.26489804,15.9139466 C1.24656619,13.1175074 2.12649526,10.3302671 3.68470299,8.01216617 C4.35381573,7.32225519 4.80294619,6.45756677 5.44456114,5.73086053 C7.56189047,3.69792285 10.2566733,2.30890208 13.088945,1.59139466 C16.1778626,1.13145401 19.3951033,1.65578635 22.2090432,3.00801187 C24.8671622,4.27744807 27.1769761,6.31038576 28.6618564,8.86765579 C29.7984314,10.7994065 30.4217145,13.0255193 30.4767101,15.2608309 C30.5133738,14.4421365 30.5867012,13.5958457 30.3483871,12.795549 C30.0550774,11.5813056 29.7800996,10.3394659 29.211812,9.2264095 C28.1943941,7.51543027 27.1494783,5.76765579 25.655432,4.43382789 C24.518857,3.42195846 23.1897974,2.64005935 21.7782446,2.07893175 C20.5500102,1.74777448 19.31261,1.45341246 18.0752097,1.14065282 C16.4986701,0.855489614 14.867135,0.87388724 13.2905954,1.14985163 L13.2905954,1.14985163 Z M13.6572325,3.32077151 C11.2557594,3.90949555 9.04677078,5.15133531 7.15858965,6.72433234 C6.6177999,7.23946588 6.10450795,7.80059347 5.81119825,8.49970326 C5.74703676,8.65608309 5.71037305,8.83086053 5.60954784,8.97804154 C5.63704563,8.97804154 5.68287526,8.96884273 5.71037305,8.95964392 C6.23283094,8.23293769 6.78278661,7.52462908 7.44273341,6.91750742 C9.30341676,5.17893175 11.7782173,4.16706231 14.2896815,3.95548961 C17.1219532,3.69792285 20.0183864,4.40623145 22.4198595,5.90563798 C23.244793,6.37477745 24.014731,6.93590504 24.6746778,7.62581602 C25.8479165,8.84005935 26.6911819,10.3762611 27.1769761,11.9952522 C27.690268,13.4854599 28.1119007,15.0676558 27.9102503,16.6590504 C27.6444384,18.3425252 27.6077747,20.0994065 26.9203301,21.6908012 C26.3337107,22.6014837 25.792921,23.5399466 25.1879697,24.4320475 C23.2172952,26.6765579 20.6874991,28.5163205 17.7727341,29.2338279 C17.4977563,29.2614243 17.2502762,29.4178042 16.9661324,29.3902077 C17.2502762,29.4545994 17.5069222,29.2890208 17.7910659,29.2890208 C20.6141717,28.7646884 23.244793,27.3018932 25.2063016,25.2047478 C27.0394871,23.2454006 28.2768874,20.6973294 28.6068608,18.0204748 C28.6160267,16.9166172 28.6068608,15.8219585 28.6068608,14.7181009 C28.6435245,14.0925816 28.4693719,13.4854599 28.322717,12.8783383 C27.561945,9.98071217 25.7287595,7.42344214 23.3547842,5.62967359 C22.6581736,5.11454006 21.9432313,4.60860534 21.1366296,4.27744807 C18.799318,3.25637982 16.1778626,3.01721068 13.6572325,3.32077151 L13.6572325,3.32077151 Z M9.93586578,11.268546 C8.80845666,12.694362 8.26766692,14.5801187 8.50598104,16.3830861 C8.64346996,17.468638 9.06510264,18.4896142 9.63339017,19.4094955 C9.56006274,19.3543027 9.4134079,19.2347181 9.34008047,19.1795252 C9.16592785,19.1151335 9.16592785,19.3175074 9.2484212,19.4094955 C9.68838573,20.274184 10.412494,20.9548961 11.182432,21.5344214 C11.8515447,21.9023739 12.4839937,22.3441009 13.1989361,22.6290801 C14.0513674,22.9326409 14.9496283,23.1350148 15.8570552,23.0614243 C16.9019709,22.9600534 17.9652186,22.7760772 18.9093091,22.288724 C19.8900634,21.8103858 20.7149969,21.0468843 21.4391052,20.2373887 C21.9523972,19.7130564 22.0073928,18.9403561 22.3923617,18.3424332 C22.8231603,17.615727 22.9056537,16.7418398 22.9148196,15.9139466 C22.9331515,15.0216617 22.7498329,14.1385757 22.4931869,13.2922849 C22.3648639,12.7035608 22.0348905,12.1884273 21.7140831,11.6916914 C20.6783332,10.2290801 19.1751211,9.06083086 17.4152629,8.64688427 C14.6929823,7.94777448 11.6498943,9.05163205 9.93586578,11.268546 L9.93586578,11.268546 Z"/>
    <path fill="#D7DF20" stroke="#D7DF20" d="M9.93586578,11.268546 C11.6498943,9.05163205 14.6929823,7.94777448 17.4152629,8.64688427 C19.1751211,9.06083086 20.6783332,10.2290801 21.7140831,11.6916914 C22.0348905,12.1884273 22.3648639,12.7035608 22.4931869,13.2922849 C22.7498329,14.1385757 22.9331515,15.0216617 22.9148196,15.9139466 C22.9056537,16.7418398 22.8231603,17.615727 22.3923617,18.3424332 C22.0073928,18.9403561 21.9523972,19.7128724 21.4391052,20.2373887 C20.7149969,21.0468843 19.8900634,21.8103858 18.9093091,22.288724 C17.9652186,22.7762611 16.9019709,22.9602374 15.8570552,23.0614243 C14.9496283,23.1350148 14.0513674,22.9326409 13.1989361,22.6290801 C12.4839937,22.3439169 11.8515447,21.9023739 11.182432,21.5344214 C10.412494,20.9548961 9.68838573,20.274368 9.2484212,19.4094955 C9.16592785,19.3175074 9.16592785,19.1151335 9.34008047,19.1795252 C9.4134079,19.2347181 9.56006274,19.3543027 9.63339017,19.4094955 C9.06510264,18.4896142 8.64346996,17.468546 8.50598104,16.3830861 C8.26766692,14.5801187 8.80845666,12.694362 9.93586578,11.268546 L9.93586578,11.268546 Z M13.2814294,9.39198813 C13.1897702,9.42878338 13.088945,9.47477745 13.0156175,9.54836795 C15.0229557,8.68367953 17.4427607,8.90445104 19.2576144,10.1186944 C19.7342427,10.5602374 20.3575257,10.8454006 20.6966651,11.415727 C21.3657778,12.3356083 21.9523972,13.3382789 22.236541,14.4421365 C22.6856714,17.0362018 21.5490964,19.8234421 19.4226011,21.3596439 C18.8543136,21.8102018 18.1760349,22.0861662 17.5069222,22.3531157 C17.0119621,22.537092 16.4620064,22.5094955 15.9578804,22.6658754 C16.2878538,22.6750742 16.6269931,22.831454 16.9569665,22.7300831 C17.5435859,22.5738872 18.1485371,22.435905 18.6984928,22.1505579 C19.6792471,21.552635 20.6783332,20.8995193 21.3199482,19.9152463 C21.4207734,19.7405608 21.5857601,19.583997 21.6040919,19.3726083 L21.6499216,19.289911 C21.6590875,19.2806202 21.6774194,19.2531157 21.6865853,19.2346261 C22.0715543,18.6919881 22.1265498,18.011092 22.2915365,17.3765579 C22.6765055,15.9967359 22.5115188,14.4973294 21.9523972,13.1910979 C21.2282889,11.5261128 19.8533997,10.1738872 18.2035327,9.4379822 C17.2961058,9.0148368 16.2878538,8.90445104 15.3070995,8.85845697 C14.6013231,8.89525223 13.9322103,9.13442136 13.2814294,9.39198813 L13.2814294,9.39198813 Z M18.2676942,10.872997 C18.799318,11.3421365 19.2942781,11.8388724 19.7250767,12.3908012 C20.5408443,13.4302671 21.1641274,14.7364985 21.0083066,16.088724 C20.9258133,17.1005935 20.3575257,17.9744807 19.8259019,18.8023739 C19.3492737,19.5198813 18.8176499,20.2281899 18.1302053,20.7707359 C17.7910659,21.0467003 17.3511014,21.1570861 16.9569665,21.3502611 C16.5903294,21.5250386 16.2511901,21.7550089 15.8570552,21.8561958 C16.4345086,21.9759644 17.0027962,21.7550089 17.53442,21.5710326 C18.9643047,21.009905 20.1375435,19.8968487 20.8616518,18.553822 C21.4116074,17.3945875 21.5307645,16.0701424 21.3749437,14.809905 C21.0908,13.6692522 20.4950147,12.6297864 19.7342427,11.7375015 C19.4226011,11.4247418 19.0742958,11.0935846 18.6159995,11.0567893 C18.4876765,11.0109792 18.3868513,10.9281899 18.2676942,10.872997 L18.2676942,10.872997 Z M9.35841233,17.2845697 C9.99086135,19.8326409 12.3740026,21.8747774 15.0137898,21.9391691 C14.3355112,21.7183976 13.6847303,21.4332344 13.0431153,21.1296736 C12.4106663,20.6973294 11.6957239,20.3661721 11.1457683,19.8050445 C10.3116688,18.9864421 9.56006274,18.0020772 9.29425084,16.8430267 C9.25758712,16.9902077 9.31258269,17.1373887 9.35841233,17.2845697 L9.35841233,17.2845697 Z"/>
    <path fill="#221E1F" stroke="#221E1F" d="M17.5069222,22.3531157 C19.1751211,21.9115727 20.6691673,20.8353116 21.6040919,19.3727003 C21.5857601,19.584365 21.4207734,19.7406528 21.3199482,19.9154303 C20.6783332,20.8997033 19.6792471,21.552819 18.6984928,22.1507418 C18.1485371,22.436089 17.5435859,22.5740712 16.9569665,22.7302671 C16.6269931,22.831638 16.2878538,22.6750742 15.9578804,22.6660593 C16.4620064,22.5094955 17.0119621,22.537092 17.5069222,22.3531157 Z"/>
  </g>
</svg>
