<svg xmlns="http://www.w3.org/2000/svg" width="96" height="96" viewBox="0 0 96 96">
  <g fill="none" fill-rule="evenodd" transform="translate(7 4)">
    <path fill="#F1F1F1" d="M81.8833226,66.9679412 C79.7006559,70.7161765 79.5859892,70.7466176 75.8099892,68.58 L51.2259892,53.1688235 L51.2259892,73.9680882 L58.8153226,79.5983824 C60.8206559,80.7511765 61.5073226,85.7197059 60.3513226,87.7102941 C59.1899892,89.6995588 59.1326559,89.7154412 57.1273226,88.5679412 L42.5499892,82.2295588 L40.4033226,82.2295588 L25.8259892,88.5679412 C23.8206559,89.7207353 23.7579892,89.6995588 22.6019892,87.7102941 C21.4406559,85.7197059 22.1326559,80.7511765 24.1379892,79.5983824 L31.6486559,74.025 L31.6486559,53.2151471 L7.13265589,68.5852941 C3.35665589,70.7519118 3.24198922,70.7214706 1.05932256,66.9732353 C-1.12201078,63.225 0.173989223,58.4272059 3.94998922,56.2658824 L31.6433226,32.1472059 L31.6433226,15.5779412 C31.6433226,15.3701471 31.6899892,15.1795588 31.7059892,14.9823529 C31.6899892,14.76 31.6379892,14.5482353 31.6379892,14.3258824 C31.6379892,8.96029412 36.0233226,0 41.4246559,0 C46.8313226,0 51.2113226,8.955 51.2113226,14.3258824 C51.2113226,14.5177941 51.1646559,14.6938235 51.1539892,14.8791176 C51.1739892,15.1173529 51.2259892,15.3397059 51.2259892,15.5819118 L51.2259892,32.085 L78.9926559,56.2658824 C82.7686559,58.4272059 84.0646559,63.2197059 81.8833226,66.9679412 Z"/>
    <path fill="#F69A98" d="M43.8926559,12.8450225 L38.9246559,12.8450225 C37.5753226,12.8450225 36.4819892,13.9303166 36.4819892,15.2697284 C36.4819892,16.6091401 37.5753226,17.6944343 38.9246559,17.6944343 L43.8926559,17.6944343 C45.2419892,17.6944343 46.3353226,16.6091401 46.3353226,15.2697284 C46.3406559,13.9303166 45.2419892,12.8450225 43.8926559,12.8450225 Z"/>
    <path fill="#F69A98" d="M46.2015992,65.1838235 L37.7983681,65.1838235 C35.516009,65.1838235 33.6666667,66.6648472 33.6666667,68.4926471 C33.6666667,70.320447 35.516009,71.8014706 37.7983681,71.8014706 L46.2015992,71.8014706 C48.4839583,71.8014706 50.3333006,70.320447 50.3333006,68.4926471 C50.3423218,66.6648472 48.4839583,65.1838235 46.2015992,65.1838235 Z" transform="rotate(90 42 68.493)"/>
  </g>
</svg>
