<svg xmlns="http://www.w3.org/2000/svg" width="36" height="36" viewBox="0 0 36 36">
  <g fill="none" fill-rule="evenodd" transform="translate(8 6)">
    <path fill="#FFEBEB" d="M16.6378506,17.830303 L12.1666802,17.830303 L12.1666802,12.395985 C12.1405147,12.395985 13.6987201,13.5942323 15.3683955,13.9370353 C16.9323356,14.2581296 18.5940745,15.8767195 19.1431878,16.7162807 C19.569939,17.3687574 19.7950962,17.2461637 19.9331204,17.830303 L16.6378506,17.830303 Z"/>
    <path fill="#F69A98" d="M12.1888563,12.405163 L12.1888563,17.5342313 L19.9672841,17.5342313 L19.9672841,24 L18.0856961,24 C18.0920686,23.9483791 18.0953512,23.8957889 18.0953512,23.8424242 C18.0953512,23.1462107 17.5366226,22.5818182 16.847396,22.5818182 C16.1581693,22.5818182 15.5994407,23.1462107 15.5994407,23.8424242 C15.5994407,23.8957889 15.6027233,23.9483791 15.6090958,24 L13.5618583,24 C13.5682308,23.9483791 13.5715134,23.8957889 13.5715134,23.8424242 C13.5715134,23.1462107 13.0127848,22.5818182 12.3235582,22.5818182 C11.6343315,22.5818182 11.0756029,23.1462107 11.0756029,23.8424242 C11.0756029,23.8957889 11.0788855,23.9483791 11.085258,24 L9.03802053,24 C9.04439296,23.9483791 9.04767561,23.8957889 9.04767561,23.8424242 C9.04767561,23.1462107 8.48894701,22.5818182 7.79972035,22.5818182 C7.11049369,22.5818182 6.55176509,23.1462107 6.55176509,23.8424242 C6.55176509,23.8957889 6.55504774,23.9483791 6.56142017,24 L4.51418272,24 C4.52055516,23.9483791 4.5238378,23.8957889 4.5238378,23.8424242 C4.5238378,23.1462107 3.9651092,22.5818182 3.27588255,22.5818182 C2.58665589,22.5818182 2.02792729,23.1462107 2.02792729,23.8424242 C2.02792729,23.8957889 2.03120993,23.9483791 2.03758237,24 L0,24 L0,2.47862337e-13 L2.1186407,2.47862337e-13 C2.06014125,0.145983135 2.02792729,0.305555081 2.02792729,0.472727273 C2.02792729,1.16894078 2.58665589,1.73333333 3.27588255,1.73333333 C3.9651092,1.73333333 4.5238378,1.16894078 4.5238378,0.472727273 C4.5238378,0.305555081 4.49162385,0.145983135 4.4331244,2.47862337e-13 L6.6424785,2.47862337e-13 C6.58397905,0.145983135 6.55176509,0.305555081 6.55176509,0.472727273 C6.55176509,1.16894078 7.11049369,1.73333333 7.79972035,1.73333333 C8.48894701,1.73333333 9.04767561,1.16894078 9.04767561,0.472727273 C9.04767561,0.305555081 9.01546165,0.145983135 8.9569622,-2.72848411e-12 L11.1663163,2.47862337e-13 C11.1078169,0.145983135 11.0756029,0.305555081 11.0756029,0.472727273 C11.0756029,1.16894078 11.6343315,1.73333333 12.3235582,1.73333333 C13.0127848,1.73333333 13.5715134,1.16894078 13.5715134,0.472727273 C13.5715134,0.305555081 13.5392995,0.145983135 13.4808,-2.72848411e-12 L15.6901541,2.47862337e-13 C15.6316547,0.145983135 15.5994407,0.305555081 15.5994407,0.472727273 C15.5994407,1.16894078 16.1581693,1.73333333 16.847396,1.73333333 C17.5366226,1.73333333 18.0953512,1.16894078 18.0953512,0.472727273 C18.0953512,0.305555081 18.0631373,0.145983135 18.0046378,-2.72848411e-12 L19.9672841,2.47862337e-13 L19.9672841,12.405163 L12.1888563,12.405163 Z"/>
    <rect width="1.872" height=".788" x="1.23" y="12.004" fill="#FFF" rx=".394"/>
    <rect width="1.872" height=".788" x="4.541" y="12.004" fill="#FFF" rx=".394"/>
    <rect width="1.872" height=".788" x="7.87" y="12.004" fill="#FFF" rx=".394"/>
    <path fill="#FFF" d="M12.1907847,12.7914198 L11.6661443,12.7914198 C11.4945929,12.7914198 11.355523,12.6505629 11.355523,12.4754991 L11.355523,12.3194617 C11.355523,12.1449836 11.4939336,12.003541 11.6676354,12.003541 L12.1818712,12.003541 L12.9173,12.003541 C13.0885944,12.003541 13.232617,12.2224166 13.232617,12.3974804 C13.232617,12.3974804 12.2584457,12.3974804 12.1907847,12.3974804 L12.1907847,12.5207741 L12.1907847,12.7914198 Z"/>
    <rect width="10.774" height=".945" x="3.432" y="3.636" fill="#FFF" rx=".473"/>
    <rect width="8.277" height=".945" x="3.432" y="6.933" fill="#FFF" rx=".473"/>
  </g>
</svg>
