<svg xmlns="http://www.w3.org/2000/svg" width="35" height="35" viewBox="0 0 35 35">
  <g fill="none" transform="translate(2 2)">
    <rect width="31" height="31" fill="#000" rx="2.348"/>
    <path fill="#FFF" d="M15.5,5.8125 C10.5248359,5.8124375 6.35845391,9.5810242 5.8609375,14.53125 L12.59375,14.53125 L12.59375,13.078125 C12.59375,12.8106121 12.810612,12.59375 13.078125,12.59375 L17.921875,12.59375 C18.1893879,12.59375 18.40625,12.8106121 18.40625,13.078125 L18.40625,17.921875 C18.40625,18.189388 18.1893879,18.40625 17.921875,18.40625 L13.078125,18.40625 C12.810612,18.40625 12.59375,18.189388 12.59375,17.921875 L12.59375,16.46875 L5.8609375,16.46875 C6.38337321,21.6669198 10.9335573,25.5145033 16.1462717,25.1659108 C21.3589861,24.8173182 25.3563422,20.3981307 25.1819815,15.1766839 C25.0076209,9.95523712 20.7243571,5.81256563 15.5,5.8125 L15.5,5.8125 Z"/>
  </g>
</svg>
