<?xml version="1.0" encoding="UTF-8"?>
<svg width="200px" height="170px" viewBox="0 0 200 170" version="1.1" xmlns="http://www.w3.org/2000/svg" xmlns:xlink="http://www.w3.org/1999/xlink">
    <!-- Generator: Sketch 42 (36781) - http://www.bohemiancoding.com/sketch -->
    <title>IFSC</title>
    <desc>Created with Sketch.</desc>
    <defs></defs>
    <g id="Page-1" stroke="none" stroke-width="1" fill="none" fill-rule="evenodd">
        <g id="Artboard" transform="translate(-446.000000, -196.000000)" fill-rule="nonzero">
            <g id="IFSC" transform="translate(502.000000, 227.000000)">
                <g id="Group">
                    <polyline id="Shape" fill="#F69A98" points="1.96411111 34.4818919 86.1874444 34.4818919 83.3201111 32.6782432 5.10033333 32.6782432"></polyline>
                    <path d="M83.38,30.9926277 C83.16,30.8907944 67.3566667,24.8260545 62.5851111,22.713956 C56.4703333,20.0078298 53.4123333,18.5397328 52.5946667,16.6294152 C51.8711111,14.9293645 48.0846667,12.8578108 44.9594444,12.4203047 C44.9521111,12.0525733 44.9472222,11.6688125 44.9472222,11.2435641 C44.9472222,10.586362 45.0291111,10.1215118 45.1501111,9.7801816 C45.2454444,9.51805509 45.3542222,9.32758907 45.485,9.15126656 C45.6194444,8.97588696 45.7807778,8.81182217 45.9861111,8.62607065 C46.3894444,8.26305372 46.9858889,7.82177601 47.5921111,7.14760172 C48.345,6.31124844 48.7776667,5.45603714 48.7776667,4.58291072 C48.7776667,4.07940153 48.631,3.59569327 48.3743333,3.14498654 C48.114,2.69616562 47.751,2.28223203 47.311,1.89092808 C46.8441111,1.47322289 46.2525556,1.18658095 45.6365556,1.00837265 C45.0193333,0.831107238 44.3654444,0.75567515 43.7237778,0.75567515 C42.9415556,0.75567515 42.1593333,0.86693748 41.4382222,1.07248992 C40.7782222,1.26107014 40.1671111,1.53639726 39.6501111,1.90224289 L39.4997778,2.00596201 C38.797,2.55850206 38.3362222,2.90171806 38.0893333,3.02995261 C37.95,3.10161309 37.8937778,3.12141401 37.8131111,3.14121494 C37.7348889,3.15818716 37.6481111,3.16950197 37.4684444,3.16950197 C36.8267778,3.17233067 36.3073333,3.57683525 36.3073333,4.07751573 C36.3073333,4.57725332 36.8267778,4.98270079 37.4684444,4.98270079 C37.8045556,4.98270079 38.1406667,4.95724246 38.4743333,4.87898167 C38.9852222,4.76111903 39.4117778,4.54236598 39.8065556,4.28118237 C40.205,4.01999877 40.6083333,3.70129819 41.1436667,3.28453591 C41.3783333,3.09595569 41.7718889,2.90548966 42.2277778,2.77536931 C42.6946667,2.64053445 43.2263333,2.56510236 43.7213333,2.56604527 C44.1332222,2.56604527 44.5194444,2.61601902 44.8311111,2.70748043 C45.1488889,2.79894184 45.386,2.92434768 45.5644444,3.08086927 C45.8871111,3.37033991 46.112,3.63906672 46.2525556,3.8823352 C46.3931111,4.1312611 46.453,4.34435674 46.4542222,4.58008202 C46.4542222,4.78186286 46.4053333,4.99684431 46.288,5.247656 C46.1657778,5.49941059 45.9751111,5.78510963 45.6891111,6.1038102 C45.3798889,6.4498549 45.0694444,6.72046752 44.7382222,6.99956625 C44.4937778,7.20889029 44.2334444,7.42387174 43.9804444,7.67279763 C43.5991111,8.04241487 43.241,8.49500739 42.999,9.07206287 C42.746,9.69154889 42.6262222,10.377038 42.6262222,11.2426212 C42.6262222,11.6810702 42.6323333,12.0799174 42.6408889,12.4589636 C39.5731111,12.9775592 35.9858889,14.9783954 35.2831111,16.6265865 C34.4666667,18.5387899 31.4086667,20.0050011 25.2926667,22.7120702 C20.5198889,24.8241687 4.72022222,30.8889086 4.50266667,30.9907419 C2.46155556,31.9459007 -0.188222222,34.1758618 0.0171111111,35.6090715 C0.22,37.0422812 2.178,35.7693647 5.236,34.3342692 C8.19377778,32.9482046 41.8293333,17.4883981 43.9413333,16.5822701 C46.0533333,17.4874552 79.6888889,32.9472617 82.6491111,34.3342692 C85.7046667,35.7674789 87.6651111,37.0403954 87.868,35.6090715 C88.0684444,34.1758618 85.4198889,31.9468436 83.3824444,30.9916848 L83.38,30.9926277 Z" id="Shape" fill="#CFCFCF"></path>
                    <path d="M13.8277778,32.4581081 C13.8277778,31.7612162 14.4411778,31.1968919 15.1927903,31.1968919 L72.4627653,31.1968919 C73.2170104,31.1968919 73.8277778,31.7612162 73.8277778,32.4581081 L73.8277778,71.1264865 C73.8277778,71.1264865 64.9663851,80 43.8290941,80 C22.6891704,80 13.8277778,71.1264865 13.8277778,71.1264865 L13.8277778,32.4581081 Z" id="Shape" fill="#F1F1F1"></path>
                    <path d="M21.7250713,51.7087936 L19.6218823,51.7087936 L19.2133783,52.9814406 L18,52.9814406 L20.0627431,47.0874945 L21.2936479,47.0874945 L23.3469536,52.9814406 L22.1335753,52.9814406 L21.7250713,51.7087936 Z M19.9184859,50.7834733 L21.4284677,50.7834733 L20.6869588,48.467521 L20.6626912,48.467521 L19.9184859,50.7834733 Z M24.575162,53.487848 L23.4062743,53.487848 L25.6065336,47.0874945 L26.7754213,47.0874945 L24.575162,53.487848 Z M32.061706,50.9783473 L32.0711434,51.0008838 C32.081929,51.6345559 31.885092,52.1369863 31.4806326,52.508175 C31.0761732,52.8793637 30.5126264,53.064958 29.795385,53.064958 C29.0714026,53.064958 28.4876329,52.8369421 28.0359865,52.3809103 C27.5856884,51.9248785 27.3618875,51.3376049 27.3618875,50.6204154 L27.3618875,49.4498453 C27.3618875,48.7339814 27.5802956,48.1480336 28.0184599,47.6893504 C28.4579725,47.2293416 29.0296085,47 29.7306715,47 C30.4721805,47 31.0519056,47.1855943 31.469847,47.5607601 C31.8877884,47.9346001 32.0900181,48.4436589 32.0765362,49.089262 L32.0697952,49.1131242 L30.9009074,49.1131242 C30.9009074,48.7247017 30.8065336,48.4264251 30.6177858,48.2209456 C30.4290381,48.0154662 30.1324345,47.9120636 29.7320197,47.9120636 C29.3720508,47.9120636 29.0848846,48.0552364 28.8759139,48.3429076 C28.6642468,48.6305789 28.5577392,48.9964649 28.5577392,49.443217 L28.5577392,50.6204154 C28.5577392,51.0711445 28.6696396,51.4396818 28.8920923,51.7273531 C29.114545,52.0150243 29.4151932,52.1581971 29.795385,52.1581971 C30.1688359,52.1581971 30.4479129,52.0587715 30.6272232,51.8612461 C30.8065336,51.6623951 30.8968628,51.3680954 30.8968628,50.9770217 L32.061706,50.9770217 L32.061706,50.9783473 Z M40.1064039,52.9814406 L38.909204,52.9814406 L36.4864921,48.9540433 L36.4622245,48.9580203 L36.4622245,52.9814406 L35.2596318,52.9814406 L35.2596318,47.0874945 L36.4622245,47.0874945 L38.8822401,51.1109147 L38.909204,51.105612 L38.909204,47.0861688 L40.1050557,47.0861688 L40.1050557,52.9814406 L40.1064039,52.9814406 Z M46.089707,47.0874945 L46.089707,50.9982324 C46.089707,51.6610694 45.8672543,52.1688025 45.4236972,52.5280601 C44.9787918,52.885992 44.3990666,53.0662837 43.6791289,53.0662837 C42.9645839,53.0662837 42.3848587,52.8873177 41.9439979,52.5280601 C41.501789,52.1701281 41.2833809,51.6597437 41.2833809,50.9982324 L41.2833809,47.0874945 L42.4873218,47.0874945 L42.4873218,50.9982324 C42.4873218,51.3866549 42.5951776,51.6769775 42.8054965,51.8705259 C43.0144672,52.0627486 43.3043298,52.1595228 43.6764325,52.1595228 C44.0539279,52.1595228 44.3478351,52.0640742 44.5608504,51.8718515 C44.7765621,51.6809545 44.8844179,51.3893062 44.8844179,50.9969068 L44.8844179,47.0861688 L46.0883588,47.0861688 L46.089707,47.0874945 Z M48.8265491,47.0874945 L50.3527094,51.4317278 L50.3769769,51.4317278 L51.9166191,47.0888202 L53.4899663,47.0888202 L53.4899663,52.9814406 L52.2873736,52.9814406 L52.2873736,51.2249227 L52.4033186,48.6212992 L52.3763547,48.6186478 L50.7733472,52.9814406 L49.9671247,52.9814406 L48.36951,48.6332302 L48.3452424,48.6385329 L48.4598393,51.223597 L48.4598393,52.9814406 L47.259943,52.9814406 L47.259943,47.0874945 L48.8265491,47.0874945 Z M54.7316567,52.9814406 L54.7316567,47.0874945 L56.7539539,47.0874945 C57.4617578,47.0874945 58.0118227,47.2227132 58.4068447,47.491825 C58.8032149,47.7609368 59.0000519,48.1639417 59.0000519,48.7008396 C59.0000519,48.9739284 58.9272492,49.2178524 58.7802956,49.4326116 C58.6319938,49.6447194 58.4203267,49.8077773 58.1399015,49.9164825 C58.4998704,49.9907203 58.76951,50.1524525 58.9488203,50.4003535 C59.1294789,50.6482545 59.2184599,50.9359258 59.2184599,51.2620415 C59.2184599,51.8267786 59.0297122,52.2536456 58.6522167,52.5439682 C58.2720249,52.8356164 57.7354421,52.9787892 57.04112,52.9787892 L54.7316567,52.9787892 L54.7316567,52.9814406 Z M55.931553,50.3751657 L55.931553,52.0746796 L57.0397718,52.0746796 C57.3579466,52.0746796 57.6006222,52.0083959 57.7677988,51.8705259 C57.9363236,51.7339814 58.0199118,51.532479 58.0199118,51.2646929 C58.0199118,50.9770217 57.9484574,50.7556341 57.8042002,50.6018559 C57.6626394,50.4507291 57.4374903,50.3764914 57.1301011,50.3764914 L55.9329012,50.3764914 L55.931553,50.3751657 Z M55.931553,49.5572249 L56.7970962,49.5572249 C57.1179673,49.5572249 57.3633394,49.4909412 57.5386051,49.3623509 C57.7111745,49.2324348 57.7974592,49.0441891 57.7974592,48.7962881 C57.7974592,48.5231993 57.7084781,48.3216969 57.5345605,48.1931065 C57.3592948,48.0631905 57.1004408,47.9982324 56.7526057,47.9982324 L55.9302048,47.9982324 L55.9302048,49.5585506 L55.931553,49.5572249 Z M63.9398496,50.3923995 L61.4591652,50.3923995 L61.4591652,52.0760053 L64.3618356,52.0760053 L64.3618356,52.9814406 L60.2565725,52.9814406 L60.2565725,47.0874945 L64.3523982,47.0874945 L64.3523982,47.9982324 L61.4605134,47.9982324 L61.4605134,49.4829872 L63.9411978,49.4829872 L63.9411978,50.3923995 L63.9398496,50.3923995 Z M66.4178377,50.6257181 L66.4178377,52.9814406 L65.215245,52.9814406 L65.215245,47.0874945 L67.4761732,47.0874945 C68.1597096,47.0874945 68.6949443,47.2412726 69.0805289,47.5475033 C69.4661136,47.8550597 69.6602541,48.2819266 69.6602541,48.82943 C69.6602541,49.134335 69.5793622,49.3968184 69.4175784,49.6155546 C69.2530983,49.8329651 69.0158154,50.0106054 68.7030334,50.1458241 C69.0576095,50.247901 69.312419,50.4189129 69.4674618,50.6588599 C69.6225045,50.8974812 69.6993518,51.1957578 69.6993518,51.5497128 L69.6993518,51.9818825 C69.6993518,52.146266 69.7222712,52.3186036 69.7667617,52.4988953 C69.8126005,52.6765356 69.890796,52.8104286 70,52.8965974 L70,52.9814406 L68.7596578,52.9814406 C68.6518019,52.8952718 68.5789992,52.7507733 68.5439461,52.5479452 C68.5129375,52.3464428 68.4967591,52.1542201 68.4967591,51.9739284 L68.4967591,51.5563411 C68.4967591,51.2620415 68.4158673,51.0340256 68.2513871,50.8709677 C68.0896033,50.7065842 67.8577132,50.6257181 67.5611097,50.6257181 L66.4191859,50.6257181 L66.4178377,50.6257181 Z M66.4178377,49.7149801 L67.4559502,49.7149801 C67.7929997,49.7149801 68.0437646,49.6447194 68.2109411,49.5028723 C68.3767695,49.3636765 68.4590096,49.1555457 68.4590096,48.8798056 C68.4590096,48.6106938 68.3781177,48.3959346 68.2095929,48.2368537 C68.0437646,48.0777729 67.7997407,47.9982324 67.474825,47.9982324 L66.4178377,47.9982324 L66.4178377,49.7163058 L66.4178377,49.7149801 Z M24.6115634,64.9125055 L23.4116671,64.9125055 L23.4116671,59.0185594 L24.6115634,59.0185594 L24.6115634,64.9125055 Z M29.6403422,62.4639859 L27.1286492,62.4639859 L27.1286492,64.9125055 L25.9287529,64.9125055 L25.9287529,59.0185594 L30.0596318,59.0185594 L30.0596318,59.9292974 L27.1286492,59.9292974 L27.1286492,61.5545736 L29.6403422,61.5545736 L29.6403422,62.4653115 L29.6403422,62.4639859 Z M34.1460202,63.3747238 C34.1460202,63.1493593 34.0651283,62.9637649 33.9006482,62.8272205 C33.7388644,62.6906761 33.4516982,62.5620857 33.041846,62.4387981 C32.327301,62.2372956 31.7880218,61.996023 31.4240083,61.7189571 C31.0599948,61.4405656 30.8766399,61.0614229 30.8766399,60.5788776 C30.8766399,60.0950066 31.0856106,59.7012815 31.5049002,59.3950508 C31.9228416,59.0901458 32.4580762,58.935042 33.1092559,58.935042 C33.7671766,58.935042 34.3037594,59.1073796 34.7176562,59.4520548 C35.1355976,59.79673 35.3337827,60.2209456 35.3203008,60.7247017 L35.3122116,60.7485639 L34.1487166,60.7485639 C34.1487166,60.475475 34.0543428,60.2554132 33.8709878,60.0857269 C33.6862847,59.9173663 33.4260824,59.8338489 33.0917293,59.8338489 C32.7708582,59.8338489 32.5227897,59.9041096 32.3461758,60.0459567 C32.17091,60.1851525 32.081929,60.3641184 32.081929,60.5828546 C32.081929,60.7817057 32.1763028,60.9460893 32.3650506,61.073354 C32.5537983,61.2019443 32.8773658,61.3384887 33.3357532,61.4816615 C33.9990666,61.6632788 34.4992481,61.9019001 34.8403422,62.1975254 C35.1800882,62.495802 35.3499611,62.8868758 35.3499611,63.3694211 C35.3499611,63.8731772 35.1477314,64.2708794 34.743272,64.5625276 C34.3388125,64.8541759 33.8035779,65 33.1389163,65 C32.4863884,65 31.9174488,64.8342908 31.4307493,64.504198 C30.945398,64.1727795 30.7108115,63.7087936 30.7242935,63.1122404 L30.7323827,63.0897039 L31.9026186,63.0897039 C31.9026186,63.4410075 32.0104745,63.6968626 32.2288826,63.8612461 C32.4472906,64.024304 32.7519834,64.1051701 33.1416127,64.1051701 C33.4651802,64.1051701 33.715945,64.0388864 33.8885144,63.906319 C34.0637801,63.7737517 34.1487166,63.597437 34.1487166,63.3760495 L34.1460202,63.3747238 Z M40.9004926,62.910738 L40.9072336,62.9332744 C40.9180192,63.5669465 40.7211823,64.0693769 40.3167228,64.4405656 C39.9122634,64.8117543 39.3500648,64.9973487 38.6314752,64.9973487 C37.9088411,64.9973487 37.3237231,64.7693327 36.8734249,64.3133009 C36.4231268,63.8572691 36.1993259,63.2699956 36.1993259,62.552806 L36.1993259,61.382236 C36.1993259,60.6663721 36.417734,60.0804242 36.8558984,59.6217411 C37.2954109,59.1617322 37.8670469,58.9323906 38.5681099,58.9323906 C39.3096189,58.9323906 39.889344,59.117985 40.3072855,59.4931507 C40.7252269,59.8669907 40.9274566,60.3760495 40.9139746,61.0216527 L40.9072336,61.0455148 L39.7383459,61.0455148 C39.7383459,60.6570924 39.643972,60.3588157 39.4552243,60.1533363 C39.2664765,59.9478568 38.969873,59.8444543 38.5694581,59.8444543 C38.2094892,59.8444543 37.922323,59.987627 37.7120041,60.2752983 C37.5016852,60.5629695 37.3951776,60.9288555 37.3951776,61.3756076 L37.3951776,62.552806 C37.3951776,63.0035351 37.507078,63.3720725 37.7295307,63.6597437 C37.9519834,63.9474149 38.2512834,64.0905877 38.630127,64.0905877 C39.0076225,64.0905877 39.2840031,63.9911622 39.4660099,63.7936368 C39.643972,63.5947857 39.7356495,63.3004861 39.7356495,62.9094123 L40.8991444,62.9094123 L40.9004926,62.910738 Z M48.621623,62.910738 L48.6297122,62.9332744 C48.6404978,63.5669465 48.4436609,64.0693769 48.0392015,64.4405656 C47.634742,64.8117543 47.0725434,64.9973487 46.3539539,64.9973487 C45.6313197,64.9973487 45.0462017,64.7693327 44.5945554,64.3133009 C44.1456054,63.8572691 43.9204563,63.2699956 43.9204563,62.552806 L43.9204563,61.382236 C43.9204563,60.6663721 44.1402126,60.0804242 44.578377,59.6217411 C45.0178896,59.1617322 45.5895255,58.9323906 46.2905885,58.9323906 C47.0320975,58.9323906 47.6118227,59.117985 48.0297641,59.4931507 C48.4477055,59.8669907 48.6499352,60.3760495 48.6364532,61.0216527 L48.6297122,61.0455148 L47.4608245,61.0455148 C47.4608245,60.6570924 47.3664506,60.3588157 47.1777029,60.1533363 C46.9889551,59.9478568 46.6923516,59.8444543 46.2919367,59.8444543 C45.9319679,59.8444543 45.6448017,59.987627 45.4344828,60.2752983 C45.2241639,60.5629695 45.1176562,60.9288555 45.1176562,61.3756076 L45.1176562,62.552806 C45.1176562,63.0035351 45.2295567,63.3720725 45.4520093,63.6597437 C45.6731138,63.9474149 45.973762,64.0905877 46.3526057,64.0905877 C46.7301011,64.0905877 47.0078299,63.9911622 47.1884885,63.7936368 C47.3677988,63.5947857 47.4581281,63.3004861 47.4581281,62.9094123 L48.6229712,62.9094123 L48.621623,62.910738 Z M54.4229194,62.495802 C54.4229194,63.21962 54.1910293,63.8174989 53.725901,64.2894388 C53.2607726,64.7613787 52.6567799,64.9973487 51.9125745,64.9973487 C51.173762,64.9973487 50.5738138,64.7613787 50.1140783,64.2894388 C49.655691,63.8174989 49.4238009,63.21962 49.4238009,62.495802 L49.4238009,61.4352629 C49.4238009,60.715422 49.6529946,60.1175431 50.1113819,59.6456032 C50.5724656,59.1710119 51.1710656,58.9337163 51.9098781,58.9337163 C52.6513871,58.9337163 53.2580762,59.1723376 53.7245528,59.6442775 C54.1910293,60.1175431 54.4256158,60.715422 54.4256158,61.4339373 L54.4256158,62.4944764 L54.4229194,62.495802 Z M53.2230231,61.4273089 C53.2230231,60.9699514 53.1043816,60.5921343 52.8724916,60.3004861 C52.6379051,60.0048608 52.317034,59.857711 51.9085299,59.857711 C51.5000259,59.857711 51.180503,60.0035351 50.9567021,60.2978347 C50.7329012,60.589483 50.6196526,60.9673 50.6196526,61.4286346 L50.6196526,62.4984534 C50.6196526,62.9650906 50.7342494,63.3468847 50.9620949,63.6385329 C51.1885922,63.9341582 51.5067669,64.081308 51.9125745,64.081308 C52.323775,64.081308 52.6446461,63.9354839 52.875188,63.6411843 C53.1043816,63.3468847 53.2203267,62.9650906 53.2203267,62.5011047 L53.2203267,61.4312859 L53.2230231,61.4273089 Z M55.4785585,64.9125055 L55.4785585,59.0185594 L57.5372569,59.0185594 C58.2706767,59.0185594 58.8746694,59.2492267 59.3492352,59.7079099 C59.8251491,60.1692444 60.0637801,60.7591692 60.0637801,61.4803358 L60.0637801,62.4573575 C60.0637801,63.1798498 59.8251491,63.7697746 59.3492352,64.2271321 C58.8773658,64.6844896 58.2706767,64.9138312 57.5386051,64.9138312 L55.4812549,64.9138312 L55.4785585,64.9125055 Z M56.6811512,59.9279717 L56.6811512,64.0057446 L57.476588,64.0057446 C57.9080114,64.0057446 58.2450609,63.8625718 58.4877366,63.5762262 C58.7331086,63.2912064 58.8544465,62.9173663 58.8544465,62.4560318 L58.8544465,61.4723818 C58.8544465,61.01635 58.7331086,60.6451613 58.490433,60.3588157 C58.2437127,60.0724702 57.9066632,59.9292974 57.4752398,59.9292974 L56.6824994,59.9292974 L56.6811512,59.9279717 Z M64.8053928,62.3221388 L62.3247083,62.3221388 L62.3247083,64.0057446 L65.2233342,64.0057446 L65.2233342,64.9125055 L61.1207674,64.9125055 L61.1207674,59.0185594 L65.2165932,59.0185594 L65.2165932,59.9292974 L62.3233601,59.9292974 L62.3233601,61.4140521 L64.8040446,61.4140521 L64.8040446,62.3234644 L64.8053928,62.3221388 Z" id="Shape" fill="#9E9E9E"></path>
                </g>
            </g>
        </g>
    </g>
</svg>