<?xml version="1.0" encoding="UTF-8"?>
<svg width="81px" height="66px" viewBox="0 0 81 66" version="1.1" xmlns="http://www.w3.org/2000/svg" xmlns:xlink="http://www.w3.org/1999/xlink">
    <!-- Generator: Sketch 42 (36781) - http://www.bohemiancoding.com/sketch -->
    <title>OTP Phone</title>
    <desc>Created with Sketch.</desc>
    <defs></defs>
    <g id="Page-1" stroke="none" stroke-width="1" fill="none" fill-rule="evenodd">
        <g id="Artboard-2" transform="translate(-525.000000, -886.000000)">
            <g id="OTP-Phone" transform="translate(534.500000, 885.000000)">
                <g id="Phone" transform="translate(31.585880, 34.103896) rotate(-25.000000) translate(-31.585880, -34.103896) translate(9.778187, 6.984848)">
                    <g id="Body" transform="translate(21.657669, 27.065882) rotate(25.000000) translate(-21.657669, -27.065882) translate(8.936516, 3.184929)">
                        <path d="M23.3533847,47.650071 L2.15444245,47.650071 C1.1075811,47.650071 0.191577422,46.7979604 0.191577422,45.6836618 L0.191577422,2.02937822 C0.191577422,0.980626663 1.1075811,0.0629690497 2.15444245,0.0629690497 L23.3533847,0.0629690497 C24.4656749,0.0629690497 25.3162498,0.980626663 25.3162498,2.02937822 L25.3162498,45.6836618 C25.3162498,46.7324134 24.4656749,47.650071 23.3533847,47.650071 Z" id="Shape" fill="#F1F1F1"></path>
                        <ellipse id="Oval-2" fill="#F69A98" cx="12.7451504" cy="43.8724324" rx="2.04101958" ry="2.04374685"></ellipse>
                        <path d="M0.191577422,5.69741076 L25.3162498,5.69741076" id="Shape" stroke="#CFCFCF" stroke-width="1.08104348"></path>
                        <path d="M0.222840979,38.5263291 L25.3450022,38.5243688" id="Shape" stroke="#CFCFCF" stroke-width="1.08104348"></path>
                        <path d="M15.5521066,3.15546746 L9.99065569,3.15546746 C9.66351152,3.15546746 9.40179618,2.89327957 9.40179618,2.56554471 L9.40179618,2.56554471 C9.40179618,2.23780985 9.66351152,1.97562196 9.99065569,1.97562196 L15.5521066,1.97562196 C15.8792508,1.97562196 16.1409661,2.23780985 16.1409661,2.56554471 L16.1409661,2.56554471 C16.1409661,2.8277326 15.8792508,3.15546746 15.5521066,3.15546746 Z" id="Shape" fill="#CFCFCF"></path>
                        <ellipse id="Oval" fill="#F69A98" cx="18.1793441" cy="2.57158236" rx="0.654288342" ry="0.655469724"></ellipse>
                    </g>
                </g>
                <path d="M15.5560549,25.2471716 C17.3671814,25.2471716 19.1255881,25.027014 20.7826108,24.5948226 L21.0599978,24.5314562 L25.4771026,29.4545387 L25.281634,23.6987566 L25.2297253,22.9464836 L25.2475689,22.6865188 L25.436549,22.5581612 C27.6037366,21.09261 28.7976364,19.2289876 28.7976364,17.31256 C28.7976364,12.9378407 22.8581472,9.37794835 15.5560549,9.37794835 C8.25477364,9.37794835 2.3144733,12.9378407 2.3144733,17.31256 C2.3144733,21.6872793 8.25477364,25.2471716 15.5560549,25.2471716 Z" id="Path" fill="#F69A98"></path>
                <path d="M55.0105632,14.2614433 L7.98943683,53.8720133 L55.0105632,14.2614433 Z" id="Path-2" stroke="#F69A98" stroke-width="1.35130435" stroke-linecap="round" stroke-linejoin="round"></path>
                <text id="56789" font-family="Roboto-Bold, Roboto" font-size="5.40521739" font-weight="bold" letter-spacing="0.0750724715" fill="#FFFFFF">
                    <tspan x="7.88937714" y="18.4475275">56789</tspan>
                </text>
            </g>
        </g>
    </g>
</svg>