<?xml version="1.0" encoding="UTF-8"?>
<svg width="81px" height="66px" viewBox="0 0 81 66" version="1.1" xmlns="http://www.w3.org/2000/svg" xmlns:xlink="http://www.w3.org/1999/xlink">
    <!-- Generator: Sketch 42 (36781) - http://www.bohemiancoding.com/sketch -->
    <title>Password</title>
    <desc>Created with Sketch.</desc>
    <defs></defs>
    <g id="Page-1" stroke="none" stroke-width="1" fill="none" fill-rule="evenodd">
        <g id="Artboard-2" transform="translate(-525.000000, -1011.000000)">
            <g id="Password" transform="translate(543.500000, 1021.000000)">
                <g id="Arrow+Lock">
                    <g id="Lock" transform="translate(0.075033, 0.171501)">
                        <g id="Group">
                            <rect id="Rectangle-5" stroke="#F1F1F1" stroke-width="3.07692308" x="7.69230769" y="-3.14399441e-15" width="29.2307692" height="31.5384615" rx="9.96923077"></rect>
                            <path d="M44.4712068,44.1089629 C44.4712068,46.9672047 41.8753361,49.2994505 38.6940138,49.2994505 L6.06336763,49.2994505 C2.88204532,49.2994505 0.286174681,46.9672047 0.286174681,44.1089629 L0.286174681,24.7165865 C0.286174681,21.8583448 2.88204532,19.5260989 6.06336763,19.5260989 L38.6940138,19.5260989 C41.8753361,19.5260989 44.4712068,21.8583448 44.4712068,24.7165865 L44.4712068,44.1089629 L44.4712068,44.1089629 Z" id="Path" fill="#F1F1F1"></path>
                        </g>
                    </g>
                </g>
                <g id="Rectangle+Circles" transform="translate(4.486654, 27.411066)">
                    <g id="Circle" transform="translate(5.933988, 5.423383)" fill="#F69A98">
                        <path d="M21.2367674,4.61538462 C20.0080723,4.61538462 19.0119964,3.58221825 19.0119964,2.30777069 C19.0119964,1.03316637 20.0080723,-4.4408921e-16 21.2367674,-4.4408921e-16 C22.4654626,-4.4408921e-16 23.4615385,1.03316637 23.4615385,2.30777069 C23.4615385,3.58221825 22.4654626,4.61538462 21.2367674,4.61538462 Z M14.9043547,4.61538462 C13.6756596,4.61538462 12.6795837,3.58221825 12.6795837,2.30777069 C12.6795837,1.03316637 13.6756596,-4.4408921e-16 14.9043547,-4.4408921e-16 C16.133201,-4.4408921e-16 17.1292769,1.03316637 17.1292769,2.30777069 C17.1292769,3.58221825 16.133201,4.61538462 14.9043547,4.61538462 Z M6.34717098,2.30777069 C6.34717098,1.03316637 7.34339802,-4.4408921e-16 8.57209317,-4.4408921e-16 C9.80078831,-4.4408921e-16 10.7968642,1.03316637 10.7968642,2.30777069 C10.7968642,3.58221825 9.80078831,4.61538462 8.57209317,4.61538462 C7.34339802,4.61538462 6.34717098,3.58221825 6.34717098,2.30777069 Z M1.33226763e-15,2.30777069 C1.33226763e-15,1.03316637 0.996227041,-4.4408921e-16 2.22492218,-4.4408921e-16 C3.45361733,-4.4408921e-16 4.44969323,1.03316637 4.44969323,2.30777069 C4.44969323,3.58221825 3.45361733,4.61538462 2.22492218,4.61538462 C0.996227041,4.61538462 1.33226763e-15,3.58221825 1.33226763e-15,2.30777069 Z" id="Circles"></path>
                    </g>
                    <g id="Rectangle" transform="translate(0.000000, 0.085500)" fill="#CFCFCF">
                        <path d="M7.36770431,14.8784379 L27.2210402,14.8784379 C31.401534,14.8784379 34.7906764,11.8252874 34.7906764,7.54938695 C34.7906764,3.27348647 31.401534,0.154876704 27.2210402,0.154876704 L7.36770431,0.154876704 L7.36770431,2.00529108 L27.2210402,2.00529105 C30.2097785,2.00529105 33.1183885,4.49244003 33.1183885,7.5493868 C33.1183885,10.6061137 30.2097785,13.093263 27.2210402,13.093263 L7.59782245,13.6179863 L7.36770431,14.8784379 Z" id="Path"></path>
                        <path d="M32.3404533,12.889153 L7.56963625,14.9090405 C3.38914242,14.9090405 0,11.8657799 0,7.58987949 C0,3.31397901 3.38914242,0.142817899 7.56963625,0.142817899 L29.5452234,2.04578366 L7.56963617,2.0457836 C4.58089794,2.0457836 1.77453474,4.53293249 1.77453474,7.58987926 C1.77453474,10.6466062 4.58089802,13.1337556 7.56963625,13.1337556 L29.5452234,13.1337556 L32.3404533,12.889153 Z" id="Shape"></path>
                    </g>
                </g>
            </g>
        </g>
    </g>
</svg>