<?xml version="1.0" encoding="UTF-8"?>
<svg width="145px" height="46px" viewBox="0 0 145 46" version="1.1" xmlns="http://www.w3.org/2000/svg" xmlns:xlink="http://www.w3.org/1999/xlink">
    <!-- Generator: Sketch 42 (36781) - http://www.bohemiancoding.com/sketch -->
    <title>Playstore_SVG</title>
    <desc>Created with Sketch.</desc>
    <defs>
        <linearGradient x1="50%" y1="0%" x2="50%" y2="38.913%" id="linearGradient-1">
            <stop stop-color="#FBDA09" offset="0%"></stop>
            <stop stop-color="#FFBC00" offset="100%"></stop>
        </linearGradient>
    </defs>
    <g id="Page-1" stroke="none" stroke-width="1" fill="none" fill-rule="evenodd">
        <g id="Playstore_SVG" transform="translate(2.500000, 1.000000)" fill-rule="nonzero">
            <g id="Page-1">
                <g id="Playstore_SVG">
                    <g id="Page-1">
                        <g id="Playstore_SVG" transform="translate(0.112166, 0.106796)">
                            <g id="Play-Store">
                                <path d="M0,5.40222739 C0,2.53009287 2.49550706,0.201163642 5.58693576,0.201163642 L133.909181,0.201163642 C136.995156,0.201163642 139.496117,2.52755452 139.496117,5.40349655 L139.496117,38.1271733 C139.496117,40.9999423 137.000611,43.3339482 133.909181,43.3396595 L5.58693576,43.5782636 C2.50232539,43.5846096 0,41.2556803 0,38.3873533 L0,5.40159279 L0,5.40222739 Z" id="Shape" fill="#EF5350"></path>
                                <rect id="Rectangle" fill="#EF5350" x="0" y="0" width="139.775668" height="43.7864078"></rect>
                                <path d="M48.7121615,26.837895 L53.8627244,26.837895 C53.8920432,26.9470438 53.917271,27.0790376 53.9363622,27.2338765 C53.9554536,27.3887153 53.9656811,27.5429197 53.9656811,27.697124 C53.9656811,28.3253637 53.8634063,28.9180667 53.6574928,29.4739637 C53.4529431,30.0285916 53.1290727,30.5248375 52.6892906,30.962067 C52.2188262,31.4272182 51.6569962,31.7870283 51.0010732,32.0408626 C50.3465141,32.2966005 49.5964983,32.4241522 48.7557987,32.4241522 C47.9921464,32.4241522 47.2741766,32.2972351 46.5984806,32.0414972 C45.9234664,31.7876629 45.3370905,31.432295 44.837989,30.977297 C44.3402513,30.5216645 43.9434247,29.9822667 43.6495549,29.3591037 C43.3563669,28.7346714 43.209773,28.0543956 43.209773,27.3170072 C43.209773,26.5796187 43.3563669,25.8987083 43.6495549,25.2749106 C43.9427429,24.6517476 44.3395694,24.1117152 44.8386709,23.6567174 C45.3384541,23.2017195 45.9248301,22.8463515 46.5998443,22.5906135 C47.2748585,22.3367792 47.9941918,22.2098621 48.7571624,22.2098621 C49.6094531,22.2098621 50.3690145,22.3456635 51.0392559,22.6185352 C51.7094973,22.8926763 52.284282,23.2702547 52.7642921,23.7531743 L51.3985816,24.995693 C51.0576653,24.6593626 50.6758391,24.4017209 50.2551485,24.2240368 C49.8344578,24.0463529 49.3305836,23.9575109 48.7435257,23.9575109 C48.2641975,23.9575109 47.8094152,24.0374687 47.378497,24.1967497 C46.9489425,24.355396 46.5712073,24.5813086 46.2487005,24.8725834 C45.925512,25.1644927 45.669143,25.5173224 45.4782298,25.9310721 C45.2873166,26.3454566 45.1918601,26.8068003 45.1918601,27.3176418 C45.1918601,27.827214 45.2873166,28.2885577 45.4782298,28.7035767 C45.669143,29.1173266 45.9282392,29.4701562 46.2555189,29.7614309 C46.5827984,30.0533404 46.9625792,30.2779837 47.3941791,30.4372646 C47.8237337,30.5971803 48.2832888,30.6765034 48.7728446,30.6765034 C49.3299018,30.6765034 49.8024117,30.6003532 50.1883289,30.450591 C50.5749279,30.3001942 50.9042531,30.1066455 51.1790316,29.8699451 C51.3733539,29.7049529 51.5424483,29.4987125 51.6835876,29.2480512 C51.8267724,28.9980245 51.9358657,28.7175377 52.0142765,28.4084945 L48.7128433,28.4084945 L48.7128433,26.837895 L48.7121615,26.837895 Z M58.9853321,25.3167933 C59.5444349,25.3167933 60.0558092,25.4056352 60.5221827,25.5833193 C60.9885562,25.7590995 61.3901555,26.0046841 61.7290263,26.3175348 C62.0672152,26.6303855 62.3317662,27.004791 62.5233612,27.4407513 C62.7142743,27.8760771 62.8097308,28.3526509 62.8097308,28.8704728 C62.8097308,29.38766 62.7142743,29.8642338 62.5233612,30.2995596 C62.3310845,30.7355199 62.0665334,31.1099254 61.7283444,31.4227761 C61.3894737,31.7356269 60.9878744,31.9812115 60.5215009,32.1576263 C60.0558092,32.3353103 59.543753,32.4241522 58.9846504,32.4241522 C58.4255477,32.4241522 57.9141733,32.3353103 57.4477998,32.1576263 C56.9814264,31.9812115 56.579827,31.7356269 56.2409563,31.4227761 C55.9027674,31.1099254 55.6382162,30.7355199 55.4466213,30.2995596 C55.2557083,29.8642338 55.1602516,29.38766 55.1602516,28.8704728 C55.1602516,28.3526509 55.2557083,27.8760771 55.4466213,27.4407513 C55.6388981,27.004791 55.9034491,26.6303855 56.2416381,26.3175348 C56.5805089,26.0046841 56.9821081,25.7590995 57.4484816,25.5826847 C57.9141733,25.4050007 58.4262295,25.3161587 58.9853321,25.3161587 L58.9853321,25.3167933 Z M58.9853321,30.6473125 C59.2321556,30.6473125 59.4721606,30.6041607 59.7039837,30.5184916 C59.9358068,30.4334571 60.1417201,30.3090783 60.3196785,30.1478936 C60.4969549,29.9860743 60.6380942,29.7880836 60.7424147,29.5545561 C60.8460532,29.3210285 60.8978724,29.0557718 60.8978724,28.7594203 C60.8978724,28.4624342 60.8460532,28.1971774 60.741051,27.9636499 C60.6387761,27.7301225 60.4976368,27.5321317 60.3196785,27.3703123 C60.142402,27.2091276 59.9364886,27.0847488 59.7039837,27.0003489 C59.4721606,26.9146799 59.2321556,26.8721626 58.9853321,26.8721626 C58.7282813,26.8721626 58.4862308,26.9146799 58.2591805,27.0003489 C58.0314485,27.0853834 57.8296261,27.2097622 57.6509859,27.3709469 C57.4737095,27.5334009 57.3325702,27.7313916 57.2282497,27.9649191 C57.1246111,28.1984466 57.0727919,28.4637034 57.0727919,28.7606895 C57.0727919,29.0570409 57.1246111,29.3222977 57.2296134,29.5558252 C57.3318883,29.7893528 57.4730276,29.9873435 57.6509859,30.1491628 C57.8282624,30.3109821 58.0314485,30.4347263 58.2591805,30.5197608 C58.4862308,30.6054299 58.7282813,30.6479471 58.9853321,30.6479471 L58.9853321,30.6473125 Z M67.5900588,25.3167933 C68.1491614,25.3167933 68.6618994,25.4056352 69.127591,25.5833193 C69.5939644,25.7590995 69.9955639,26.0046841 70.3344346,26.3175348 C70.6726235,26.6303855 70.9371746,27.004791 71.1280877,27.4407513 C71.3190008,27.8760771 71.4144575,28.3526509 71.4144575,28.8704728 C71.4144575,29.38766 71.3190008,29.8642338 71.1280877,30.2995596 C70.9371746,30.7355199 70.6712599,31.1099254 70.333071,31.4227761 C69.9948821,31.7356269 69.5932827,31.9812115 69.1262275,32.1576263 C68.6612176,32.3353103 68.1491614,32.4241522 67.5900588,32.4241522 C67.0309561,32.4241522 66.5195817,32.3353103 66.0532083,32.1576263 C65.5875165,31.9812115 65.1859172,31.7356269 64.8463646,31.4227761 C64.5088575,31.1099254 64.2443064,30.7355199 64.0527115,30.2995596 C63.8617984,29.8642338 63.7663418,29.38766 63.7663418,28.8704728 C63.7663418,28.3526509 63.8617984,27.8760771 64.0527115,27.4407513 C64.2436247,27.004791 64.5095394,26.6303855 64.8470465,26.3175348 C65.1859172,26.0046841 65.5875165,25.7590995 66.05389,25.5826847 C66.5195817,25.4050007 67.0316379,25.3161587 67.5907405,25.3161587 L67.5900588,25.3167933 Z M67.5900588,30.6473125 C67.837564,30.6473125 68.0775689,30.6041607 68.3093921,30.5184916 C68.5412151,30.4334571 68.7471285,30.3090783 68.9250869,30.1478936 C69.1023633,29.9860743 69.2435026,29.7880836 69.347823,29.5545561 C69.4500978,29.3210285 69.5032807,29.0557718 69.5032807,28.7594203 C69.5032807,28.4624342 69.4507797,28.1971774 69.3464593,27.9636499 C69.2441844,27.7301225 69.1023633,27.5321317 68.9250869,27.3703123 C68.7478104,27.2091276 68.541897,27.0847488 68.3093921,27.0003489 C68.0775689,26.9146799 67.837564,26.8721626 67.5907405,26.8721626 C67.3343715,26.8721626 67.0930028,26.9146799 66.8652707,27.0003489 C66.6375387,27.0853834 66.4357163,27.2097622 66.2570761,27.3709469 C66.0797997,27.5334009 65.9386604,27.7313916 65.83434,27.9649191 C65.7307014,28.1984466 65.6788821,28.4637034 65.6788821,28.7606895 C65.6788821,29.0570409 65.7307014,29.3222977 65.8357037,29.5558252 C65.9379786,29.7893528 66.0791179,29.9873435 66.2570761,30.1491628 C66.4343525,30.3109821 66.6375387,30.4347263 66.8652707,30.5197608 C67.092321,30.6054299 67.3343715,30.6479471 67.5914224,30.6479471 L67.5900588,30.6473125 Z M75.919325,35.5323526 C75.4024958,35.5323526 74.9429408,35.4701632 74.5406594,35.3457844 C74.1383783,35.2201365 73.7872345,35.0589517 73.4892738,34.8603264 C73.1913129,34.6623357 72.9424441,34.4427691 72.7433489,34.2028957 C72.5456175,33.9617532 72.4010691,33.7225144 72.3110672,33.482641 L74.1751973,32.7909428 C74.3142911,33.1501182 74.5433869,33.4293359 74.8611208,33.6285957 C75.1788548,33.8265865 75.5320441,33.9255819 75.919325,33.9255819 C76.5357016,33.9255819 77.0238936,33.7478978 77.3811739,33.3925299 C77.7384541,33.037162 77.9177761,32.5421851 77.9177761,31.9044266 L77.9177761,31.4348333 L77.7984554,31.4348333 C77.5700415,31.729281 77.2693533,31.9615393 76.8963909,32.1328775 C76.5227467,32.3042156 76.0829647,32.38925 75.5763631,32.38925 C75.1386267,32.38925 74.7138451,32.3067539 74.3013363,32.1398579 C73.8888276,31.9729618 73.5240472,31.7356269 73.2049497,31.4265836 C72.8872156,31.1169058 72.6288011,30.7456732 72.4297061,30.3122513 C72.2306109,29.8781948 72.1310633,29.394006 72.1310633,28.8590502 C72.1310633,28.32346 72.2306109,27.8373674 72.4290242,27.3982341 C72.6267556,26.96037 72.8858519,26.5859645 73.203586,26.2769213 C73.5220017,25.9685127 73.887464,25.7311777 74.2999726,25.5649163 C74.7124814,25.3986548 75.137263,25.3155241 75.5749995,25.3155241 C76.081601,25.3155241 76.521383,25.4011932 76.8943455,25.5718967 C77.266626,25.7419657 77.5673141,25.9748585 77.7957281,26.2699409 L77.9150487,26.2699409 L77.9150487,25.5363599 L79.7784971,25.5363599 L79.7784971,31.8346222 C79.7784971,32.4057492 79.6844041,32.9197637 79.4955365,33.3766653 C79.3066689,33.8335669 79.0434816,34.2219333 78.7046108,34.5404953 C78.3671037,34.8577881 77.9614134,35.1033727 77.4909489,35.2740762 C77.0177572,35.4454144 76.4934278,35.5298143 75.9159157,35.5298143 L75.919325,35.5323526 Z M76.1886487,30.6460434 C76.4272901,30.6460434 76.6632041,30.6054299 76.8963909,30.5229337 C77.1295776,30.4404376 77.3348092,30.3198663 77.5134494,30.1586816 C77.6920895,29.998766 77.8359561,29.8020444 77.9450493,29.568517 C78.0541425,29.3349895 78.1086891,29.0671943 78.1086891,28.7651316 C78.1086891,28.4630688 78.0541425,28.1940045 77.9450493,27.9554003 C77.8359561,27.7174307 77.6927713,27.5175362 77.5134494,27.3588899 C77.3348092,27.197705 77.1295776,27.0764993 76.8963909,26.9946377 C76.6632041,26.9121415 76.4272901,26.8708934 76.1893305,26.8708934 C75.9520528,26.8708934 75.7188662,26.9121415 75.4904522,26.9946377 C75.2620383,27.0771338 75.0588522,27.2002434 74.8802122,27.3652357 C74.701572,27.5302279 74.5577053,27.7288533 74.4486121,27.9617461 C74.3395189,28.1965429 74.2849723,28.4630688 74.2849723,28.7651316 C74.2849723,29.0671943 74.3395189,29.3349895 74.4486121,29.568517 C74.5577053,29.8020444 74.7008902,29.998766 74.8802122,30.1586816 C75.0588522,30.3192318 75.2620383,30.4404376 75.4904522,30.5222991 C75.7188662,30.6047953 75.9520528,30.6454088 76.1900124,30.6454088 L76.1886487,30.6460434 Z M81.4551232,32.2007781 L81.4551232,22.430698 L83.3676634,22.430698 L83.3676634,32.2020473 L81.4544414,32.2020473 L81.4551232,32.2007781 Z M91.8544329,30.599084 C91.5182896,31.1429238 91.0662346,31.5826918 90.4975862,31.9190221 C89.9303015,32.2553524 89.236196,32.4228831 88.4159516,32.4228831 C87.8636672,32.4228831 87.3522928,32.3340411 86.8818283,32.1563571 C86.4127276,31.9805769 86.0056736,31.7330885 85.6593025,31.4151611 C85.3136135,31.0978683 85.0442896,30.7234627 84.8520129,30.2919446 C84.6590543,29.8604263 84.5629159,29.3870254 84.5629159,28.8704728 C84.5629159,28.3881877 84.6570087,27.9325552 84.8445128,27.501037 C85.0320167,27.0695187 85.2945222,26.6938441 85.6299838,26.3714747 C85.9661272,26.0491051 86.3636355,25.7927325 86.8231908,25.6023568 C87.2827459,25.4119812 87.7886655,25.3167933 88.3423135,25.3167933 C88.9252804,25.3167933 89.4434732,25.4056352 89.8982555,25.58205 C90.3530377,25.7584649 90.7328185,26.0040496 91.0396432,26.3169002 C91.3464678,26.6297509 91.5782908,26.9997143 91.7364759,27.4261559 C91.894661,27.853232 91.9737536,28.3158449 91.9737536,28.8158984 L91.9737536,28.9783524 C91.9642081,29.0329267 91.9587534,29.0830589 91.9587534,29.1281145 C91.9492076,29.1738047 91.9451167,29.2233024 91.9451167,29.2778767 L86.4754561,29.2778767 C86.5150025,29.5507486 86.5961405,29.7836414 86.7209159,29.9790938 C86.8436458,30.1739116 86.9963762,30.3376348 87.1791074,30.468994 C87.3632021,30.6009878 87.5622972,30.6961756 87.7791199,30.7545575 C87.9973064,30.8142085 88.2195837,30.8433995 88.4473158,30.8433995 C88.890507,30.8433995 89.2586965,30.75075 89.5505208,30.5641818 C89.8423452,30.3782483 90.0721228,30.1453553 90.2391717,29.8635993 L91.8551148,30.5997186 L91.8544329,30.599084 Z M90.2998548,27.9814183 C90.2896274,27.8545012 90.2466718,27.7129886 90.1703067,27.556246 C90.0953051,27.4001379 89.9848482,27.2541832 89.8382542,27.1171127 C89.6916601,26.9806768 89.5096109,26.8683551 89.2927882,26.7807823 C89.0759654,26.6919403 88.8155054,26.6487885 88.5141354,26.6487885 C88.0900355,26.6487885 87.7163914,26.7661869 87.3945663,27.0003489 C87.0713778,27.2338765 86.8450094,27.5606881 86.7127339,27.9807837 L90.2991729,27.9807837 L90.2998548,27.9814183 Z M96.7540815,32.2014127 L96.7540815,22.4287941 L100.517797,22.4287941 C101.026444,22.4287941 101.502363,22.5049444 101.945554,22.6547067 C102.388746,22.8051035 102.774663,23.0164204 103.103306,23.2892923 C103.431949,23.562164 103.691046,23.8877065 103.880595,24.2652849 C104.069463,24.6428634 104.164237,25.058517 104.164237,25.5141494 C104.164237,25.977397 104.068781,26.3987618 103.879913,26.7769748 C103.691046,27.1539186 103.431949,27.4794611 103.102624,27.752333 C102.775345,28.0252047 102.388746,28.2365218 101.945554,28.3869186 C101.502363,28.5373153 101.026444,28.6121964 100.518479,28.6121964 L98.7709421,28.6121964 L98.7709421,32.2014127 L96.7540815,32.2014127 L96.7540815,32.2014127 Z M100.6678,26.8708934 C101.190766,26.8708934 101.585547,26.7357267 101.852143,26.4647587 C102.118058,26.1944252 102.251015,25.8834782 102.251015,25.5319178 C102.251015,25.3605797 102.218969,25.1936837 102.155559,25.0305952 C102.090785,24.8687759 101.991919,24.725994 101.85828,24.6054228 C101.724641,24.4829478 101.558274,24.3864908 101.361906,24.3135135 C101.164174,24.2418052 100.932351,24.2056339 100.666437,24.2056339 L98.9038995,24.2056339 L98.9038995,26.8708934 L100.665755,26.8708934 L100.6678,26.8708934 Z M105.358808,32.2014127 L105.358808,22.4287941 L107.271349,22.4287941 L107.271349,32.2014127 L105.358808,32.2014127 Z M113.278293,31.4970227 L113.162382,31.4970227 C112.937376,31.7508569 112.668735,31.9691543 112.352364,32.1506459 C112.035994,32.3321373 111.629622,32.4235177 111.134611,32.4235177 C110.765058,32.4235177 110.417324,32.3664049 110.091407,32.2521795 C109.766174,32.1392233 109.48185,31.9824807 109.239117,31.7825862 C108.995702,31.5833263 108.806154,31.3428184 108.669787,31.0610624 C108.53342,30.7799409 108.465237,30.4708977 108.465237,30.1358364 C108.465237,29.790622 108.538193,29.479675 108.683424,29.2029957 C108.830017,28.9263163 109.033886,28.6877121 109.297073,28.4884522 C109.558897,28.2885577 109.867767,28.1368918 110.22232,28.0315505 C110.576873,27.9281132 110.963472,27.8754425 111.381435,27.8754425 C111.84849,27.8754425 112.232361,27.9097102 112.533732,27.9769762 C112.835102,28.0467806 113.082607,28.116585 113.276929,28.1889279 L113.276929,27.9852258 C113.276929,27.631127 113.126926,27.3379485 112.824874,27.1069593 C112.523504,26.8759702 112.149861,26.759841 111.702578,26.759841 C111.041201,26.759841 110.482099,27.0181173 110.02527,27.5353047 L108.64115,26.6506922 C109.397984,25.7610033 110.434369,25.3161587 111.746216,25.3161587 C112.854193,25.3161587 113.700347,25.559205 114.282632,26.044663 C114.866962,26.530121 115.158105,27.2503757 115.158105,28.2022541 L115.158105,32.2052202 L113.276248,32.2052202 L113.276248,31.4976573 L113.278293,31.4970227 Z M113.247611,29.4028901 C113.026015,29.3077023 112.7976,29.231552 112.562369,29.1757085 C112.327137,29.1198649 112.070086,29.0913086 111.791898,29.0913086 C111.339844,29.0913086 110.991427,29.1801506 110.746649,29.3578345 C110.501189,29.5355185 110.378459,29.7531814 110.378459,30.0114577 C110.378459,30.2716379 110.496416,30.4791473 110.733013,30.6346208 C110.967563,30.7907288 111.238932,30.8681483 111.546438,30.8681483 C111.795989,30.8681483 112.02713,30.8269002 112.238498,30.7450387 C112.449866,30.6625426 112.62987,30.554663 112.779192,30.4214001 C112.927832,30.2868678 113.043061,30.1313944 113.12488,29.9537104 C113.206701,29.7760264 113.247611,29.5932658 113.247611,29.4028901 L113.247611,29.4028901 Z M119.187736,31.9881919 L116.116079,25.5382636 L118.336809,25.5382636 L120.185939,29.6491093 L120.289576,29.6491093 L122.064386,25.5382636 L124.241478,25.5382636 L119.663655,35.3096131 L117.560883,35.3096131 L119.186372,31.9881919 L119.187736,31.9881919 Z M46.8923504,12.3978992 L50.4037879,12.3978992 C50.424243,12.4727804 50.4412887,12.5628915 50.4542435,12.6682328 C50.4678802,12.7742085 50.4746986,12.8801843 50.4746986,12.9855255 C50.4746986,13.4145054 50.4044698,13.8187364 50.2633305,14.197584 C50.1242366,14.5783355 49.9040047,14.9165695 49.6039984,15.2148248 C49.2835371,15.5321176 48.9017108,15.7777023 48.4537469,15.9509442 C48.0071466,16.1260898 47.496454,16.213028 46.9230329,16.213028 C46.4027947,16.213028 45.912557,16.1254552 45.4523201,15.9509442 C44.992765,15.7770677 44.5932111,15.534656 44.2522949,15.223709 C43.9113786,14.912762 43.6413729,14.5447024 43.4409142,14.11953 C43.2411372,13.6930885 43.1409078,13.2279372 43.1409078,12.7247108 C43.1409078,12.2208498 43.2411372,11.7556986 43.4409142,11.3298917 C43.6413729,10.9047193 43.9113786,10.5353905 44.2522949,10.2257127 C44.5932111,9.91476573 44.992765,9.67108484 45.4523201,9.49720839 C45.9132389,9.32333193 46.4034765,9.23702828 46.9237148,9.23702828 C47.5032723,9.23702828 48.0228288,9.3290432 48.4796565,9.51624596 C48.9364844,9.70217955 49.3285381,9.96045589 49.6551358,10.2904404 L48.7244344,11.1388814 C48.4905659,10.9085268 48.2301058,10.7327466 47.9437362,10.6121753 C47.6573665,10.4903349 47.313041,10.4300492 46.9128054,10.4300492 C46.5855258,10.4300492 46.2759738,10.4846236 45.982104,10.5931378 C45.688916,10.7022865 45.4318652,10.8558562 45.2116332,11.0551161 C44.9920831,11.254376 44.8161703,11.4955185 44.6866222,11.7785437 C44.557074,12.0615689 44.4916182,12.3769579 44.4916182,12.7253454 C44.4916182,13.0730983 44.5563922,13.389122 44.6866222,13.6721471 C44.8161703,13.9545377 44.9934468,14.1956803 45.2170879,14.3955748 C45.4400471,14.5935655 45.6991435,14.7477698 45.9923315,14.856284 C46.2855196,14.9654327 46.5991624,15.0193724 46.9332604,15.0193724 C47.313041,15.0193724 47.6355479,14.9686056 47.8987352,14.8658027 C48.1612408,14.7629998 48.3862455,14.631006 48.5737494,14.4691867 C48.7067068,14.3574997 48.8219365,14.2153524 48.9187567,14.0440143 C49.0142132,13.8739454 49.0892148,13.6823006 49.1437614,13.4716181 L46.8923504,13.4716181 L46.8923504,12.3991684 L46.8923504,12.3978992 Z M52.9456596,10.5791769 L52.9456596,12.1275658 L55.8175383,12.1275658 L55.8175383,13.3218559 L52.9456596,13.3218559 L52.9456596,14.8702448 L56.1379995,14.8702448 L56.1379995,16.064535 L51.5942676,16.064535 L51.5942676,9.38552132 L56.1379995,9.38552132 L56.1379995,10.5785423 L52.9456596,10.5785423 L52.9456596,10.5791769 Z M58.8994213,16.064535 L58.8994213,10.5785423 L56.8989246,10.5785423 L56.8989246,9.38552132 L62.25131,9.38552132 L62.25131,10.5785423 L60.2501315,10.5785423 L60.2501315,16.0639004 L58.9001031,16.0639004 L58.8994213,16.064535 Z M65.4136492,9.3861559 L66.7636777,9.3861559 L66.7636777,16.064535 L65.4136492,16.064535 L65.4136492,9.38552132 L65.4136492,9.3861559 Z M69.72624,16.064535 L69.72624,10.5785423 L67.7250615,10.5785423 L67.7250615,9.38552132 L73.0774469,9.38552132 L73.0774469,10.5785423 L71.0769503,10.5785423 L71.0769503,16.0639004 L69.7269219,16.0639004 L69.72624,16.064535 Z M78.1468718,15.9439637 C77.6900439,15.7624722 77.2945811,15.5156184 76.9604832,15.2014985 C76.6263853,14.8873786 76.3652434,14.5174152 76.1750121,14.0909737 C75.9854627,13.6658013 75.8900061,13.2101688 75.8900061,12.7253454 C75.8900061,12.2398874 75.9854627,11.7848895 76.1763757,11.358448 C76.3659252,10.9332756 76.6277489,10.5626776 76.9604832,10.2479232 C77.2945811,9.93443788 77.6900439,9.68758407 78.1468718,9.50736176 C78.6036996,9.32777403 79.09871,9.23766286 79.6332668,9.23766286 C80.1664598,9.23766286 80.6614701,9.32777403 81.118298,9.50799634 C81.5751257,9.68885325 81.9705886,9.93570705 82.3046865,10.2504615 C82.6374208,10.5639468 82.8992445,10.9339102 83.0887939,11.3597172 C83.2797071,11.7861587 83.3751636,12.2417912 83.3751636,12.7266146 C83.3751636,13.211438 83.2797071,13.6670705 83.0887939,14.0928775 C82.8992445,14.5180498 82.6374208,14.8886478 82.3046865,15.2034022 C81.9705886,15.5168876 81.5751257,15.7637414 81.118298,15.9445983 C80.6614701,16.1248207 80.1664598,16.2149318 79.6319031,16.2149318 C79.09871,16.2149318 78.6036996,16.124186 78.1468718,15.9439637 L78.1468718,15.9439637 Z M80.5673772,14.8524764 C80.8578379,14.7395202 81.1107978,14.5840467 81.3276205,14.3854214 C81.5444433,14.1861615 81.7149014,13.9456536 81.8389949,13.6619938 C81.9617248,13.3796032 82.0230897,13.0673871 82.0230897,12.7253454 C82.0230897,12.3826692 81.9617248,12.070453 81.8389949,11.7874278 C81.7149014,11.5050373 81.5444433,11.2638947 81.3276205,11.0640002 C81.1107978,10.8660095 80.8571561,10.7105361 80.5673772,10.5982144 C80.2775984,10.4865274 79.9653191,10.4306838 79.6319031,10.4306838 C79.2991688,10.4306838 78.9868894,10.4865274 78.6977924,10.5982144 C78.40665,10.7105361 78.1536901,10.8660095 77.9368674,11.0646348 C77.7200446,11.2638947 77.5495865,11.5050373 77.425493,11.7880624 C77.302763,12.070453 77.2413982,12.3833038 77.2413982,12.7253454 C77.2413982,13.0680217 77.302763,13.3789686 77.425493,13.6626284 C77.5495865,13.945019 77.7200446,14.185527 77.9368674,14.3847868 C78.1536901,14.5834121 78.4073318,14.7388856 78.6971106,14.8512072 C78.9862075,14.9628943 79.2984869,15.0187379 79.6312212,15.0187379 C79.9653191,15.0187379 80.2775984,14.9628943 80.5673772,14.8512072 L80.5673772,14.8524764 Z M84.464732,9.3861559 L86.0349923,9.3861559 L88.9170985,13.8631574 L88.9968729,13.8631574 L88.9170985,12.5749486 L88.9170985,9.38552132 L90.2575813,9.38552132 L90.2575813,16.0639004 L88.8366422,16.0639004 L85.7956691,11.3349684 L85.7138492,11.3349684 L85.7956691,12.621908 L85.7956691,16.0639004 L84.4640501,16.0639004 L84.4640501,9.38552132 L84.464732,9.3861559 Z" id="Shape" fill="#FFFFFF"></path>
                                <g id="Triangle" transform="translate(9.154287, 7.566273)">
                                    <g id="a-link" transform="translate(0.000000, 0.207401)">
                                        <path d="M25.6839465,12.4378781 C27.2964805,13.2958379 27.2930714,14.6874842 25.6839465,15.5435402 L2.98437792,27.6133586 C1.37184399,28.4700492 0.0640891969,27.7681975 0.0640891969,26.0433939 L0.0640891969,1.93929366 C0.0640891969,0.21448994 1.37525315,-0.48672717 2.98505975,0.369328831 L25.6846284,12.4391473 L25.6839465,12.4378781 Z" id="a-copy" fill="#EF5350"></path>
                                        <path d="M24.6407274,15.5435402 L19.6413424,18.2193083 L15.2502974,13.8930625 L19.4326986,9.87487497 L24.8500531,12.6527395 C26.4619052,13.5094301 26.2498523,14.6874842 24.6407274,15.5435402 Z" id="a" fill="#FFFFFF"></path>
                                    </g>
                                    <path d="M1.25186289,1.56081016 C1.69764821,1.02550692 2.35431646,1.10770134 3.29657228,1.54017152 L18.9863425,9.89702786 L14.8581415,13.8002745 C14.8581415,13.8002745 7.78562138,7.87563348 1.25186289,1.98742332 C1.06729055,1.8210871 1.25186289,1.56081016 1.25186289,1.56081016 Z" id="Shape" fill="#FFFFFF"></path>
                                    <path d="M0.877878695,26.0582524 C0.73162639,25.7726772 0.625931446,25.3926687 0.625931446,24.8966097 L0.625931446,3.29642726 C0.625931446,2.82539879 0.745760016,2.42604856 0.877878695,2.13592233 L14.3964232,14.1934913 L0.877878695,26.0582524 Z" id="Shape" fill="#FFFFFF"></path>
                                    <path d="M3.29657228,26.660423 C2.35431646,27.1163183 1.46579913,27.1635088 1.04321908,26.4090021 L14.8971684,14.5242718 L19.195231,18.7305849 L3.29657228,26.660423 Z" id="Shape" fill="#FFFFFF"></path>
                                </g>
                            </g>
                        </g>
                    </g>
                </g>
            </g>
        </g>
    </g>
</svg>