<?xml version="1.0" encoding="UTF-8"?>
<svg width="135px" height="42px" viewBox="0 0 135 42" version="1.1" xmlns="http://www.w3.org/2000/svg" xmlns:xlink="http://www.w3.org/1999/xlink">
    <!-- Generator: Sketch 42 (36781) - http://www.bohemiancoding.com/sketch -->
    <title>Playstore_SVG</title>
    <desc>Created with Sketch.</desc>
    <defs>
        <linearGradient x1="50%" y1="0%" x2="50%" y2="38.913%" id="linearGradient-1">
            <stop stop-color="#FBDA09" offset="0%"></stop>
            <stop stop-color="#FFBC00" offset="100%"></stop>
        </linearGradient>
        <linearGradient x1="58.8677315%" y1="80.041%" x2="35.7836542%" y2="-4.321%" id="linearGradient-2">
            <stop stop-color="#02F076" offset="0%"></stop>
            <stop stop-color="#28D781" offset="100%"></stop>
        </linearGradient>
        <linearGradient x1="65.47%" y1="49.2579321%" x2="8.272%" y2="50.3146442%" id="linearGradient-3">
            <stop stop-color="#01C4FF" offset="0%"></stop>
            <stop stop-color="#01E2FF" offset="100%"></stop>
        </linearGradient>
        <linearGradient x1="60.3031931%" y1="19.499%" x2="34.4225762%" y2="99.206%" id="linearGradient-4">
            <stop stop-color="#E02554" offset="0%"></stop>
            <stop stop-color="#E02554" offset="100%"></stop>
        </linearGradient>
    </defs>
    <g id="Page-1" stroke="none" stroke-width="1" fill="none" fill-rule="evenodd">
        <g id="Playstore_SVG" fill-rule="nonzero">
            <g id="Page-1">
                <g id="Playstore_SVG" transform="translate(0.507519, 0.500000)">
                    <g id="Play-Store">
                        <path d="M0,5.05844928 C0,2.36908696 2.39212177,0.188362319 5.35547699,0.188362319 L128.361515,0.188362319 C131.319642,0.188362319 133.716992,2.36671014 133.716992,5.05963768 L133.716992,35.7008986 C133.716992,38.3908551 131.324871,40.5763333 128.361515,40.5816812 L5.35547699,40.8051014 C2.39865762,40.8110435 0,38.6303188 0,35.9445217 L0,5.05785507 L0,5.05844928 Z" id="Shape" fill="#EF5350"></path>
                        <rect id="Rectangle" fill="#EF5350" x="0" y="0" width="133.984962" height="41"></rect>
                        <path d="M46.6940862,25.130029 L51.6312687,25.130029 C51.6593728,25.2322319 51.6835555,25.3558261 51.7018558,25.5008116 C51.7201562,25.6457971 51.72996,25.7901884 51.72996,25.9345797 C51.72996,26.5228406 51.6319223,27.0778261 51.4345395,27.5983478 C51.238464,28.1176812 50.9280111,28.5823478 50.5064486,28.9917536 C50.0554748,29.4273043 49.5169206,29.7642174 48.8881716,30.0018986 C48.2607299,30.2413623 47.5417862,30.3607971 46.7359156,30.3607971 C46.0039003,30.3607971 45.315675,30.2419565 44.6679721,30.0024928 C44.0209228,29.7648116 43.4588396,29.432058 42.9804152,29.0060145 C42.503298,28.5793768 42.1229114,28.0743043 41.8412162,27.4907971 C41.5601746,26.9061014 41.4196538,26.2691159 41.4196538,25.5786522 C41.4196538,24.8881884 41.5601746,24.2506087 41.8412162,23.6665072 C42.1222578,23.083 42.5026444,22.5773333 42.9810688,22.1512899 C43.4601467,21.7252464 44.02223,21.3924928 44.6692793,21.153029 C45.3163286,20.9153478 46.005861,20.7965072 46.7372228,20.7965072 C47.5542043,20.7965072 48.2822982,20.9236667 48.9247724,21.1791739 C49.5672467,21.4358696 50.1182189,21.7894203 50.5783429,22.2416087 L49.2692118,23.405058 C48.9424192,23.0901304 48.5764115,22.8488841 48.1731495,22.6825072 C47.7698874,22.5161304 47.286888,22.432942 46.7241511,22.432942 C46.2646807,22.432942 45.8287394,22.5078116 45.4156736,22.6569565 C45.0039149,22.8055072 44.6418287,23.0170435 44.3326829,23.2897826 C44.0228836,23.5631159 43.7771356,23.8934928 43.5941317,24.280913 C43.4111278,24.6689275 43.3196259,25.100913 43.3196259,25.5792464 C43.3196259,26.0563913 43.4111278,26.4883768 43.5941317,26.8769855 C43.7771356,27.2644058 44.0254979,27.5947826 44.3392188,27.8675217 C44.6529396,28.1408551 45.0169866,28.3512029 45.430706,28.5003478 C45.8424647,28.650087 46.2829811,28.7243623 46.7522553,28.7243623 C47.2862344,28.7243623 47.7391689,28.653058 48.1090981,28.5128261 C48.4796809,28.372 48.7953626,28.1907681 49.0587574,27.9691304 C49.2450292,27.8146377 49.4071183,27.6215217 49.5424104,27.3868116 C49.6796633,27.1526957 49.784237,26.890058 49.8593993,26.6006812 L46.6947398,26.6006812 L46.6947398,25.130029 L46.6940862,25.130029 Z M56.5416541,23.7057246 C57.077594,23.7057246 57.5677828,23.788913 58.0148351,23.9552899 C58.4618874,24.1198841 58.8468491,24.3498406 59.1716809,24.6427826 C59.4958591,24.9357246 59.7494502,25.2863043 59.9331077,25.6945217 C60.1161115,26.1021449 60.2076134,26.5483913 60.2076134,27.0332609 C60.2076134,27.5175362 60.1161115,27.9637826 59.9331077,28.3714058 C59.7487967,28.7796232 59.4952056,29.1302029 59.1710273,29.4231449 C58.8461955,29.716087 58.4612339,29.9460435 58.0141816,30.1112319 C57.5677828,30.2776087 57.0769404,30.3607971 56.5410006,30.3607971 C56.0050607,30.3607971 55.5148718,30.2776087 55.0678195,30.1112319 C54.6207673,29.9460435 54.2358056,29.716087 53.9109738,29.4231449 C53.5867956,29.1302029 53.3332044,28.7796232 53.149547,28.3714058 C52.9665432,27.9637826 52.8750412,27.5175362 52.8750412,27.0332609 C52.8750412,26.5483913 52.9665432,26.1021449 53.149547,25.6945217 C53.333858,25.2863043 53.5874491,24.9357246 53.9116274,24.6427826 C54.2364592,24.3498406 54.6214208,24.1198841 55.0684731,23.9546957 C55.5148718,23.7883188 56.0057143,23.7051304 56.5416541,23.7051304 L56.5416541,23.7057246 Z M56.5416541,28.697029 C56.778252,28.697029 57.0083139,28.6566232 57.2305329,28.5764058 C57.4527519,28.4967826 57.6501346,28.3803188 57.8207204,28.2293913 C57.9906525,28.0778696 58.1259446,27.8924783 58.2259432,27.6738116 C58.3252881,27.4551449 58.3749605,27.2067681 58.3749605,26.9292754 C58.3749605,26.6511884 58.3252881,26.4028116 58.224636,26.1841449 C58.1265982,25.9654783 57.9913061,25.780087 57.8207204,25.6285652 C57.6507882,25.4776377 57.4534055,25.3611739 57.2305329,25.2821449 C57.0083139,25.2019275 56.778252,25.1621159 56.5416541,25.1621159 C56.2952525,25.1621159 56.0632298,25.2019275 55.8455859,25.2821449 C55.6272885,25.3617681 55.4338273,25.4782319 55.2625879,25.6291594 C55.0926558,25.7812754 54.9573637,25.9666667 54.8573651,26.1853333 C54.7580201,26.404 54.7083477,26.6523768 54.7083477,26.9304638 C54.7083477,27.2079565 54.7580201,27.4563333 54.8586723,27.675 C54.9567101,27.8936667 55.0920022,28.079058 55.2625879,28.2305797 C55.4325201,28.3821014 55.6272885,28.497971 55.8455859,28.5775942 C56.0632298,28.6578116 56.2952525,28.6976232 56.5416541,28.6976232 L56.5416541,28.697029 Z M64.7898992,23.7057246 C65.325839,23.7057246 65.817335,23.788913 66.2637337,23.9552899 C66.7107859,24.1198841 67.0957477,24.3498406 67.4205795,24.6427826 C67.7447577,24.9357246 67.9983488,25.2863043 68.1813526,25.6945217 C68.3643565,26.1021449 68.4558585,26.5483913 68.4558585,27.0332609 C68.4558585,27.5175362 68.3643565,27.9637826 68.1813526,28.3714058 C67.9983488,28.7796232 67.7434506,29.1302029 67.4192723,29.4231449 C67.0950941,29.716087 66.7101324,29.9460435 66.2624266,30.1112319 C65.8166814,30.2776087 65.325839,30.3607971 64.7898992,30.3607971 C64.2539593,30.3607971 63.7637705,30.2776087 63.3167182,30.1112319 C62.8703194,29.9460435 62.4853578,29.716087 62.1598724,29.4231449 C61.8363477,29.1302029 61.5827566,28.7796232 61.3990992,28.3714058 C61.2160953,27.9637826 61.1245934,27.5175362 61.1245934,27.0332609 C61.1245934,26.5483913 61.2160953,26.1021449 61.3990992,25.6945217 C61.5821031,25.2863043 61.8370013,24.9357246 62.160526,24.6427826 C62.4853578,24.3498406 62.8703194,24.1198841 63.3173717,23.9546957 C63.7637705,23.7883188 64.2546129,23.7051304 64.7905527,23.7051304 L64.7898992,23.7057246 Z M64.7898992,28.697029 C65.0271506,28.697029 65.2572125,28.6566232 65.4794316,28.5764058 C65.7016505,28.4967826 65.8990332,28.3803188 66.069619,28.2293913 C66.2395511,28.0778696 66.3748432,27.8924783 66.4748418,27.6738116 C66.5728795,27.4551449 66.6238591,27.2067681 66.6238591,26.9292754 C66.6238591,26.6511884 66.5735331,26.4028116 66.4735346,26.1841449 C66.3754968,25.9654783 66.2395511,25.780087 66.069619,25.6285652 C65.8996868,25.4776377 65.7023041,25.3611739 65.4794316,25.2821449 C65.2572125,25.2019275 65.0271506,25.1621159 64.7905527,25.1621159 C64.5448047,25.1621159 64.3134355,25.2019275 64.0951381,25.2821449 C63.8768407,25.3617681 63.6833795,25.4782319 63.5121401,25.6291594 C63.342208,25.7812754 63.2069159,25.9666667 63.1069173,26.1853333 C63.0075723,26.404 62.9578998,26.6523768 62.9578998,26.9304638 C62.9578998,27.2079565 63.0075723,27.4563333 63.1082245,27.675 C63.2062623,27.8936667 63.3415544,28.079058 63.5121401,28.2305797 C63.6820722,28.3821014 63.8768407,28.497971 64.0951381,28.5775942 C64.312782,28.6578116 64.5448047,28.6976232 64.7912063,28.6976232 L64.7898992,28.697029 Z M72.7740958,33.2712029 C72.2786781,33.2712029 71.8381618,33.212971 71.4525464,33.0965072 C71.0669312,32.9788551 70.7303348,32.8279275 70.4447182,32.641942 C70.1591014,32.4565507 69.9205428,32.2509565 69.7296959,32.0263478 C69.5401562,31.8005507 69.4015962,31.5765362 69.315323,31.3519275 L71.1022248,30.7042464 C71.2355562,31.0405652 71.4551609,31.3020145 71.7597315,31.4885942 C72.0643022,31.6739855 72.4028594,31.7666812 72.7740958,31.7666812 C73.3649368,31.7666812 73.8329037,31.6003043 74.1753824,31.2675507 C74.517861,30.9347971 74.6897539,30.4713188 74.6897539,29.8741449 L74.6897539,29.4344348 L74.5753765,29.4344348 C74.3564255,29.7101449 74.0681944,29.9276232 73.7106833,30.088058 C73.3525186,30.2484928 72.9309562,30.3281159 72.4453423,30.3281159 C72.0257407,30.3281159 71.6185572,30.2508696 71.2231381,30.0945942 C70.827719,29.9383188 70.478051,29.716087 70.1721732,29.4267101 C69.8676024,29.1367391 69.6198936,28.7891304 69.4290468,28.3832899 C69.2381999,27.9768551 69.1427764,27.5234783 69.1427764,27.0225652 C69.1427764,26.521058 69.2381999,26.0658986 69.4283932,25.6547101 C69.6179329,25.2447101 69.8662952,24.8941304 70.170866,24.6047536 C70.4760902,24.315971 70.8264119,24.0937391 71.2218309,23.938058 C71.61725,23.7823768 72.0244335,23.7045362 72.4440352,23.7045362 C72.929649,23.7045362 73.3512114,23.7847536 73.7087226,23.9445942 C74.0655801,24.1038406 74.3538111,24.321913 74.5727622,24.5982174 L74.6871395,24.5982174 L74.6871395,23.9113188 L76.4733879,23.9113188 L76.4733879,29.8087826 C76.4733879,30.3435652 76.3831931,30.8248696 76.20215,31.2526957 C76.0211069,31.6805217 75.7688231,32.0441739 75.4439912,32.3424638 C75.1204665,32.6395652 74.7315834,32.8695217 74.2806096,33.0293623 C73.8270215,33.1897971 73.3244144,33.2688261 72.7708278,33.2688261 L72.7740958,33.2712029 Z M73.0322618,28.6958406 C73.2610167,28.6958406 73.4871571,28.6578116 73.7106833,28.5805652 C73.9342094,28.5033188 74.1309385,28.3904203 74.3021779,28.2394928 C74.4734172,28.0897536 74.6113236,27.9055507 74.7158973,27.6868841 C74.8204709,27.4682174 74.8727577,27.2174638 74.8727577,26.9346232 C74.8727577,26.6517826 74.8204709,26.3998406 74.7158973,26.1764203 C74.6113236,25.9535942 74.4740708,25.7664203 74.3021779,25.6178696 C74.1309385,25.466942 73.9342094,25.3534493 73.7106833,25.2767971 C73.4871571,25.1995507 73.2610167,25.1609275 73.0329154,25.1609275 C72.8054678,25.1609275 72.5819417,25.1995507 72.3629906,25.2767971 C72.1440396,25.3540435 71.9492712,25.4693188 71.778032,25.6238116 C71.6067926,25.7783043 71.4688861,25.9642899 71.3643125,26.1823623 C71.2597388,26.4022174 71.207452,26.6517826 71.207452,26.9346232 C71.207452,27.2174638 71.2597388,27.4682174 71.3643125,27.6868841 C71.4688861,27.9055507 71.606139,28.0897536 71.778032,28.2394928 C71.9492712,28.3898261 72.1440396,28.5033188 72.3629906,28.579971 C72.5819417,28.6572174 72.8054678,28.6952464 73.033569,28.6952464 L73.0322618,28.6958406 Z M78.0805538,30.1516377 L78.0805538,21.0032899 L79.9138602,21.0032899 L79.9138602,30.1528261 L78.0799003,30.1528261 L78.0805538,30.1516377 Z M88.049035,28.6518696 C87.7268176,29.1611014 87.2934906,29.5728841 86.7484005,29.8878116 C86.2046176,30.2027391 85.5392679,30.3596087 84.753005,30.3596087 C84.223601,30.3596087 83.7334121,30.2764203 83.2824383,30.1100435 C82.8327717,29.9454493 82.4425814,29.7137101 82.11056,29.4160145 C81.7791924,29.118913 81.5210262,28.7683333 81.3367152,28.3642754 C81.1517506,27.9602174 81.0595951,27.516942 81.0595951,27.0332609 C81.0595951,26.5816667 81.1497898,26.155029 81.3295258,25.750971 C81.5092617,25.346913 81.760892,24.9951449 82.0824559,24.6932899 C82.4046734,24.3914348 82.7857135,24.1513768 83.22623,23.9731159 C83.6667464,23.7948551 84.1517065,23.7057246 84.6824177,23.7057246 C85.2412331,23.7057246 85.7379579,23.788913 86.1738992,23.9541014 C86.6098404,24.1192899 86.9738874,24.3492464 87.2680008,24.6421884 C87.5621141,24.9351304 87.784333,25.2815507 87.9359648,25.6808551 C88.0875965,26.0807536 88.1634124,26.5139275 88.1634124,26.9821594 L88.1634124,27.1342754 C88.1542623,27.1853768 88.1490336,27.2323188 88.1490336,27.2745072 C88.1398833,27.3172899 88.1359619,27.3636377 88.1359619,27.4147391 L82.8929015,27.4147391 C82.9308095,27.6702464 83.0085861,27.8883188 83.1281922,28.0713333 C83.2458376,28.2537536 83.3922406,28.407058 83.5674015,28.530058 C83.7438694,28.6536522 83.9347163,28.7427826 84.1425564,28.7974493 C84.3517037,28.8533043 84.5647724,28.8806377 84.7830699,28.8806377 C85.2079003,28.8806377 85.5608362,28.7938841 85.8405707,28.6191884 C86.1203052,28.445087 86.3405634,28.2270145 86.5006917,27.9631884 L88.0496886,28.6524638 L88.049035,28.6518696 Z M86.5588608,26.2007826 C86.5490571,26.081942 86.5078811,25.9494348 86.4346797,25.8026667 C86.3627853,25.6564928 86.2569045,25.5198261 86.1163837,25.3914783 C85.9758628,25.2637246 85.8013556,25.1585507 85.5935155,25.0765507 C85.3856754,24.9933623 85.1360059,24.9529565 84.8471212,24.9529565 C84.4405912,24.9529565 84.0824266,25.0628841 83.7739343,25.2821449 C83.464135,25.5008116 83.2471447,25.8068261 83.1203492,26.2001884 L86.5582072,26.2001884 L86.5588608,26.2007826 Z M92.7456981,30.1522319 L92.7456981,21.0015072 L96.3534884,21.0015072 C96.8410629,21.0015072 97.2972654,21.0728116 97.7220958,21.2130435 C98.1469261,21.3538696 98.5168553,21.5517391 98.8318833,21.8072464 C99.1469114,22.0627536 99.3952738,22.3675797 99.5769705,22.7211304 C99.7580136,23.0746812 99.8488619,23.4638841 99.8488619,23.8905217 C99.8488619,24.3242899 99.75736,24.7188406 99.5763169,25.0729855 C99.3952738,25.425942 99.1469114,25.7307681 98.8312298,25.9862754 C98.5175088,26.2417826 98.1469261,26.4396522 97.7220958,26.5804783 C97.2972654,26.7213043 96.8410629,26.7914203 96.354142,26.7914203 L94.6790031,26.7914203 L94.6790031,30.1522319 L92.7456981,30.1522319 L92.7456981,30.1522319 Z M96.4972771,25.1609275 C96.998577,25.1609275 97.3770028,25.0343623 97.6325545,24.7806377 C97.8874528,24.5275072 98.0149019,24.2363478 98.0149019,23.9071594 C98.0149019,23.7467246 97.9841834,23.5904493 97.9233999,23.4377391 C97.8613094,23.2862174 97.7665395,23.1525217 97.6384369,23.0396232 C97.5103341,22.924942 97.3508594,22.8346232 97.1626268,22.7662899 C96.9730871,22.6991449 96.7508682,22.6652754 96.4959699,22.6652754 L94.8064522,22.6652754 L94.8064522,25.1609275 L96.4953163,25.1609275 L96.4972771,25.1609275 Z M100.993943,30.1522319 L100.993943,21.0015072 L102.82725,21.0015072 L102.82725,30.1522319 L100.993943,30.1522319 Z M108.585335,29.4926667 L108.474226,29.4926667 C108.258542,29.7303478 108.00103,29.9347536 107.697766,30.1046957 C107.394503,30.2746377 107.004966,30.3602029 106.530463,30.3602029 C106.17622,30.3602029 105.842892,30.3067246 105.530477,30.1997681 C105.218718,30.094 104.946173,29.9472319 104.713496,29.760058 C104.480166,29.5734783 104.29847,29.3482754 104.167753,29.0844493 C104.037035,28.8212174 103.971677,28.5318406 103.971677,28.2181014 C103.971677,27.8948551 104.041611,27.6036957 104.180825,27.3446232 C104.321345,27.0855507 104.516768,26.8621304 104.769051,26.6755507 C105.020028,26.4883768 105.316102,26.3463623 105.655967,26.2477246 C105.995831,26.1508696 106.366414,26.1015507 106.767061,26.1015507 C107.214767,26.1015507 107.582735,26.1336377 107.87162,26.1966232 C108.160505,26.2619855 108.397756,26.3273478 108.584028,26.395087 L108.584028,26.2043478 C108.584028,25.8727826 108.440239,25.5982609 108.150701,25.381971 C107.861816,25.1656812 107.503652,25.056942 107.0749,25.056942 C106.440923,25.056942 105.904983,25.2987826 105.46708,25.783058 L104.140302,24.9547391 C104.865782,24.1216667 105.859231,23.7051304 107.11673,23.7051304 C108.178805,23.7051304 108.989904,23.9327101 109.548066,24.3872754 C110.108188,24.8418406 110.387269,25.5162609 110.387269,26.4075652 L110.387269,30.1557971 L108.583375,30.1557971 L108.583375,29.4932609 L108.585335,29.4926667 Z M108.555924,27.5317971 C108.343509,27.4426667 108.124557,27.3713623 107.899071,27.3190725 C107.673584,27.2667826 107.427182,27.2400435 107.160519,27.2400435 C106.727193,27.2400435 106.393211,27.3232319 106.158574,27.4896087 C105.923283,27.6559855 105.805637,27.8597971 105.805637,28.1016377 C105.805637,28.3452609 105.918707,28.5395652 106.145502,28.6851449 C106.370335,28.8313188 106.630462,28.9038116 106.925228,28.9038116 C107.164441,28.9038116 107.386006,28.8651884 107.588617,28.7885362 C107.791229,28.7112899 107.963775,28.6102754 108.106911,28.4854928 C108.249393,28.3595217 108.359848,28.213942 108.438278,28.0475652 C108.516709,27.8811884 108.555924,27.710058 108.555924,27.5317971 L108.555924,27.5317971 Z M114.249958,29.9525797 L111.305556,23.9131014 L113.434284,23.9131014 L115.206807,27.7623478 L115.306151,27.7623478 L117.007433,23.9131014 L119.094331,23.9131014 L114.706161,33.0626377 L112.690504,33.0626377 L114.248651,29.9525797 L114.249958,29.9525797 Z M44.9496673,11.608942 L48.315631,11.608942 C48.3352386,11.679058 48.3515782,11.7634348 48.3639963,11.8620725 C48.377068,11.9613043 48.3836039,12.0605362 48.3836039,12.1591739 C48.3836039,12.5608551 48.3162846,12.9393623 48.1809925,13.2941014 C48.0476611,13.6506232 47.8365531,13.9673333 47.5489756,14.2466087 C47.2417906,14.5437101 46.8757828,14.7736667 46.4463774,14.9358841 C46.0182791,15.0998841 45.5287438,15.1812899 44.9790787,15.1812899 C44.4803932,15.1812899 44.0104654,15.0992899 43.5692954,14.9358841 C43.128779,14.7730725 42.7457781,14.546087 42.4189855,14.2549275 C42.0921929,13.9637681 41.8333732,13.6191304 41.6412192,13.2210145 C41.4497187,12.8217101 41.3536416,12.3861594 41.3536416,11.9149565 C41.3536416,11.4431594 41.4497187,11.0076087 41.6412192,10.6088986 C41.8333732,10.2107826 42.0921929,9.86495652 42.4189855,9.57498551 C42.7457781,9.28382609 43.128779,9.05565217 43.5692954,8.89284058 C44.011119,8.73002899 44.4810468,8.64921739 44.9797323,8.64921739 C45.5352796,8.64921739 46.0333116,8.73537681 46.4712136,8.91066667 C46.9091158,9.08476812 47.2849272,9.3266087 47.5979945,9.6355942 L46.7058507,10.4300435 C46.481671,10.2143478 46.2320014,10.0497536 45.9574957,9.93685507 C45.6829899,9.82276812 45.3529293,9.76631884 44.9692749,9.76631884 C44.655554,9.76631884 44.3588263,9.81742029 44.0771311,9.91902899 C43.7960895,10.0212319 43.5496879,10.165029 43.3385798,10.3516087 C43.1281254,10.5381884 42.9595004,10.7639855 42.8353193,11.029 C42.7111381,11.2940145 42.648394,11.5893333 42.648394,11.9155507 C42.648394,12.2411739 42.7104845,12.537087 42.8353193,12.8021014 C42.9595004,13.0665217 43.1294326,13.2923188 43.3438085,13.4794928 C43.5575309,13.6648841 43.8058933,13.8092754 44.0869349,13.9108841 C44.3679766,14.013087 44.6686257,14.0635942 44.9888825,14.0635942 C45.3529293,14.0635942 45.6620752,14.016058 45.914359,13.9197971 C46.1659894,13.8235362 46.3816725,13.699942 46.5614084,13.5484203 C46.6888575,13.4438406 46.7993134,13.3107391 46.8921225,13.1503043 C46.9836244,12.991058 47.0555188,12.8116087 47.1078056,12.6143333 L44.9496673,12.6143333 L44.9496673,11.6101304 L44.9496673,11.608942 Z M50.7521966,9.90595652 L50.7521966,11.3558116 L53.5050974,11.3558116 L53.5050974,12.4741014 L50.7521966,12.4741014 L50.7521966,13.9239565 L53.8122824,13.9239565 L53.8122824,15.0422464 L49.4567908,15.0422464 L49.4567908,8.78826087 L53.8122824,8.78826087 L53.8122824,9.90536232 L50.7521966,9.90536232 L50.7521966,9.90595652 Z M56.4593024,15.0422464 L56.4593024,9.90536232 L54.5416834,9.90536232 L54.5416834,8.78826087 L59.6723272,8.78826087 L59.6723272,9.90536232 L57.7540546,9.90536232 L57.7540546,15.0416522 L56.459956,15.0416522 L56.4593024,15.0422464 Z M62.7036552,8.78885507 L63.9977539,8.78885507 L63.9977539,15.0422464 L62.7036552,15.0422464 L62.7036552,8.78826087 L62.7036552,8.78885507 Z M66.8375815,15.0422464 L66.8375815,9.90536232 L64.919309,9.90536232 L64.919309,8.78826087 L70.0499527,8.78826087 L70.0499527,9.90536232 L68.1323338,9.90536232 L68.1323338,15.0416522 L66.8382351,15.0416522 L66.8375815,15.0422464 Z M74.9093585,14.9293478 C74.4714564,14.7594058 74.092377,14.5282609 73.7721203,14.2341304 C73.4518636,13.94 73.2015405,13.5935797 73.0191902,13.1942754 C72.8374935,12.7961594 72.7459916,12.3695217 72.7459916,11.9155507 C72.7459916,11.4609855 72.8374935,11.034942 73.0204973,10.6356377 C73.202194,10.2375217 73.4531707,9.89050725 73.7721203,9.59578261 C74.092377,9.30224638 74.4714564,9.07110145 74.9093585,8.90234783 C75.3472606,8.73418841 75.8217634,8.64981159 76.3341743,8.64981159 C76.8452779,8.64981159 77.3197806,8.73418841 77.7576828,8.90294203 C78.1955848,9.07228986 78.5746642,9.30343478 78.8949209,9.59815942 C79.2138705,9.89169565 79.4648472,10.2381159 79.6465439,10.6368261 C79.8295478,11.0361304 79.9210497,11.4627681 79.9210497,11.9167391 C79.9210497,12.3707101 79.8295478,12.7973478 79.6465439,13.196058 C79.4648472,13.5941739 79.2138705,13.9411884 78.8949209,14.235913 C78.5746642,14.5294493 78.1955848,14.7605942 77.7576828,14.929942 C77.3197806,15.0986957 76.8452779,15.1830725 76.3328671,15.1830725 C75.8217634,15.1830725 75.3472606,15.0981014 74.9093585,14.9293478 L74.9093585,14.9293478 Z M77.2295859,13.9073188 C77.5080132,13.8015507 77.7504933,13.655971 77.9583334,13.4699855 C78.1661735,13.2834058 78.3295698,13.0582029 78.4485223,12.7925942 C78.5661676,12.5281739 78.6249903,12.2358261 78.6249903,11.9155507 C78.6249903,11.5946812 78.5661676,11.3023333 78.4485223,11.0373188 C78.3295698,10.7728986 78.1661735,10.5471014 77.9583334,10.3599275 C77.7504933,10.1745362 77.5073596,10.0289565 77.2295859,9.92378261 C76.9518122,9.8192029 76.6524702,9.76691304 76.3328671,9.76691304 C76.0139175,9.76691304 75.7145754,9.8192029 75.4374553,9.92378261 C75.1583745,10.0289565 74.9158944,10.1745362 74.7080543,10.3605217 C74.5002142,10.5471014 74.3368179,10.7728986 74.2178654,11.037913 C74.10022,11.3023333 74.0413974,11.5952754 74.0413974,11.9155507 C74.0413974,12.2364203 74.10022,12.5275797 74.2178654,12.7931884 C74.3368179,13.0576087 74.5002142,13.2828116 74.7080543,13.4693913 C74.9158944,13.6553768 75.1590281,13.8009565 75.4368017,13.9061304 C75.7139218,14.0107101 76.0132639,14.063 76.3322135,14.063 C76.6524702,14.063 76.9518122,14.0107101 77.2295859,13.9061304 L77.2295859,13.9073188 Z M80.9654788,8.78885507 L82.4706855,8.78885507 L85.2333901,12.9809565 L85.3098596,12.9809565 L85.2333901,11.7747246 L85.2333901,8.78826087 L86.5183386,8.78826087 L86.5183386,15.0416522 L85.156267,15.0416522 L82.2412771,10.6136522 L82.1628469,10.6136522 L82.2412771,11.8186957 L82.2412771,15.0416522 L80.9648252,15.0416522 L80.9648252,8.78826087 L80.9654788,8.78885507 Z" id="Shape" fill="#FFFFFF"></path>
                        <g id="Triangle" transform="translate(8.575038, 6.684783)">
                            <g id="a-link" transform="translate(0.000000, 0.594203)" fill="url(#linearGradient-1)">
                                <path d="M24.8198973,11.6463768 C26.3656263,12.4497391 26.3623584,13.7528261 24.8198973,14.5544058 L3.06073941,25.8561449 C1.51501045,26.6583188 0.261434073,26.0011304 0.261434073,24.386087 L0.261434073,1.81588406 C0.261434073,0.20084058 1.51827838,-0.455753623 3.06139299,0.345826087 L24.8205509,11.6475652 L24.8198973,11.6463768 Z" id="a"></path>
                            </g>
                            <path d="M0.53593985,1.07966667 C1.01305703,0.522898551 1.93918724,0.386231884 2.94766917,0.836043478 L19.2938346,9.3272029 L14.4703759,13.4521594 L0.53593985,1.07907246 L0.53593985,1.07966667 Z" id="Shape" fill="url(#linearGradient-2)"></path>
                            <path d="M0.53593985,26.0676812 C0.380386577,25.7693913 0.267969925,25.3724638 0.267969925,24.8543188 L0.267969925,2.29243478 C0.267969925,1.80043478 0.395419036,1.38330435 0.53593985,1.08026087 L14.4703759,13.4515652 L0.53593985,26.0676812 Z" id="Shape" fill="url(#linearGradient-3)"></path>
                            <path d="M19.2938346,18.0613913 L2.94766917,26.5525507 C1.93918724,27.027913 0.988220796,26.8544058 0.53593985,26.0676812 L14.4703759,13.4527536 L19.2938346,18.0613913 L19.2938346,18.0613913 Z" id="Shape" fill="url(#linearGradient-4)"></path>
                        </g>
                    </g>
                </g>
            </g>
        </g>
    </g>
</svg>