<svg width="150" height="150" viewBox="0 0 150 150" xmlns="http://www.w3.org/2000/svg"><title>Shield</title><g transform="translate(8 6)" fill="none" fill-rule="evenodd"><circle stroke="#CFCFCF" stroke-width="2.151" fill="#F1F1F1" cx="67" cy="67" r="67"/><path d="M86.775 16.385l-1.63-.482 1.32-4.46.234-.727.262-.793c-.35.19-.59.312-.72.365l-1.097.45-.495-1.213 3.067-1.24 1.34.395-2.282 7.705zm8.856-.356c-.558 1.287-1.182 2.148-1.873 2.583-.69.435-1.474.463-2.35.082-.85-.37-1.354-.967-1.508-1.793-.156-.826.037-1.863.58-3.11.563-1.3 1.19-2.168 1.877-2.602.688-.434 1.47-.462 2.343-.083.85.37 1.353.97 1.508 1.806.155.834-.037 1.873-.577 3.116zm-3.604-1.566c-.392.904-.595 1.586-.61 2.046-.013.46.165.77.535.93.364.157.712.073 1.046-.254.333-.326.694-.937 1.082-1.83.393-.905.593-1.59.602-2.055.008-.465-.167-.776-.527-.932-.366-.16-.714-.076-1.044.25-.33.327-.69.942-1.084 1.846zm9.568 5.4c-.708 1.21-1.43 1.99-2.168 2.34-.738.35-1.52.284-2.345-.2-.8-.467-1.226-1.12-1.28-1.96-.056-.838.26-1.844.946-3.017.716-1.224 1.44-2.01 2.176-2.36.735-.35 1.513-.283 2.336.198.8.468 1.227 1.125 1.28 1.972.056.847-.26 1.855-.944 3.026zm-3.392-1.985c-.497.85-.78 1.502-.85 1.957-.067.454.072.783.42.986.342.2.698.158 1.068-.126.37-.285.8-.848 1.293-1.69.498-.85.78-1.506.843-1.967.064-.462-.074-.79-.412-.99-.345-.2-.7-.16-1.066.125-.366.285-.798.853-1.296 1.704zm6.418 2.637c-.282.37-.46.67-.533.903-.073.233-.036.404.11.515.28.213.7-.048 1.258-.783.555-.73.692-1.2.412-1.413-.146-.112-.32-.103-.522.027s-.444.38-.725.75zm1.944 1.465c-.51.67-1.023 1.076-1.54 1.215-.515.14-1.023.018-1.525-.363-.482-.366-.722-.822-.722-1.367s.25-1.145.746-1.798c1.014-1.333 2.024-1.617 3.03-.852.493.375.74.836.74 1.382.002.546-.242 1.14-.73 1.782zm4.46.382l-8.412 3.697-1.05-.798 8.413-3.696 1.05.798zm-3.868 4.115c-.282.37-.46.67-.533.902-.073.233-.036.404.11.515.28.213.7-.048 1.258-.783.556-.73.693-1.2.413-1.413-.146-.11-.32-.1-.522.03-.2.128-.443.378-.724.75zm1.944 1.464c-.508.668-1.02 1.07-1.536 1.21-.515.14-1.024.02-1.526-.363-.48-.365-.72-.82-.72-1.365 0-.546.247-1.143.742-1.794 1.014-1.33 2.024-1.615 3.03-.85.493.375.74.836.74 1.382.002.547-.242 1.14-.73 1.782zm5.6 8.455c-.568.45-1.178.602-1.83.453-.652-.148-1.268-.587-1.847-1.316-.533-.67-.88-1.365-1.037-2.082l1.24-.985c.147.575.3 1.04.456 1.396.156.356.33.655.525.9.232.292.467.472.703.54.236.066.464.012.685-.163.124-.098.206-.22.247-.365.042-.145.054-.32.037-.524-.018-.204-.092-.59-.223-1.154-.125-.528-.18-.954-.167-1.28.013-.323.085-.63.215-.92.13-.29.342-.553.637-.788.557-.443 1.144-.602 1.762-.478.618.124 1.192.52 1.72 1.185.26.326.47.668.63 1.027.157.358.295.755.412 1.19l-1.38.395c-.128-.445-.252-.8-.372-1.06-.12-.264-.265-.502-.433-.714-.2-.252-.413-.4-.637-.44-.225-.042-.432.013-.622.163-.116.095-.197.203-.24.327-.045.124-.06.278-.048.463.013.184.09.582.23 1.195.187.812.226 1.44.117 1.88-.11.444-.37.828-.78 1.154zm1.443 7.123l1.32-1.502-1.54-2.49-1.933.51-.966-1.56 8.354-1.832 1.095 1.77-5.364 6.666-.967-1.56zm2.322-2.6c1.19-1.37 1.865-2.142 2.022-2.32.158-.176.285-.312.382-.406-.464.143-1.632.46-3.506.946l1.1 1.78zm-.715 7.04l-.665-1.538 7.377-3.187 1.826 4.228-1.28.553-1.163-2.69-1.902.822 1.08 2.503-1.275.55-1.082-2.5-2.916 1.26zm2.723 8.882l-1.33-4.432 7.697-2.31 1.33 4.433-1.337.4-.84-2.8-1.69.508.78 2.605-1.336.4-.782-2.605-1.984.595.84 2.8-1.347.405zm-72.9 63.39c.18-.703.573-1.193 1.182-1.47.61-.275 1.364-.3 2.266-.07.832.212 1.528.555 2.088 1.03l-.39 1.534c-.466-.37-.87-.647-1.21-.836-.338-.188-.66-.32-.96-.397-.363-.093-.66-.094-.887-.005-.228.09-.377.27-.447.544-.04.153-.03.3.024.44.055.14.15.287.29.44.136.152.427.413.874.783.42.344.722.65.908.916.185.267.314.555.387.864.072.31.062.647-.03 1.013-.176.69-.547 1.17-1.114 1.447-.566.275-1.262.308-2.086.1-.405-.104-.78-.25-1.122-.44-.343-.19-.693-.422-1.05-.698l.86-1.148c.37.276.684.482.94.62.253.136.512.237.775.304.312.08.57.068.774-.036.205-.103.337-.272.397-.506.037-.146.035-.28-.005-.406s-.12-.258-.242-.397c-.122-.138-.424-.41-.908-.812-.64-.532-1.05-1.008-1.23-1.426-.182-.418-.208-.88-.078-1.39zm-5.19-4.693l4.32 1.66-2.88 7.5-4.32-1.66.5-1.302 2.73 1.05.632-1.648-2.54-.976.5-1.303 2.54.976.743-1.936-2.73-1.048.505-1.314zm-7.667 3.25c.567.298 1.12.316 1.654.053.536-.262 1.005-.774 1.406-1.536.835-1.586.658-2.692-.532-3.32-.5-.262-1.17-.455-2.01-.58l.666-1.264c.71.064 1.427.286 2.146.665 1.035.546 1.66 1.276 1.878 2.192.217.916.016 1.96-.602 3.134-.39.74-.865 1.316-1.427 1.73-.562.414-1.173.637-1.833.668-.66.03-1.33-.132-2.007-.49-.69-.363-1.296-.895-1.817-1.596l1.13-.97c.2.267.41.518.63.754.22.236.458.422.718.56zm-10.002-5.575l3.017-4.235c.346-.483.756-.83 1.23-1.04.477-.21.99-.266 1.536-.168.547.097 1.1.344 1.657.742.842.6 1.342 1.28 1.5 2.044.158.763-.03 1.518-.563 2.267l-3.004 4.217-1.384-.986 2.855-4.006c.36-.504.52-.946.486-1.327-.035-.38-.286-.737-.755-1.07-.453-.324-.867-.44-1.24-.348-.374.09-.74.39-1.103.898l-2.848 3.997-1.383-.985zm-.876-6.46l-.39-.385c-.383-.38-.73-.595-1.038-.647-.308-.053-.598.057-.868.33-.268.272-.366.557-.293.856.072.3.304.642.695 1.03l.367.362 1.526-1.544zm.974-.984l2.168-2.192 1.212 1.2-5.65 5.712-1.665-1.646c-.776-.768-1.21-1.477-1.304-2.128-.093-.65.145-1.265.714-1.84.333-.336.72-.544 1.165-.623.444-.08.908-.025 1.394.16.41-2.133.67-3.517.78-4.15l1.345 1.33-.803 3.54.645.638zm-4.315-10.47l2.8 3.683-6.398 4.862-2.8-3.685 1.11-.844 1.77 2.327 1.404-1.068-1.646-2.167 1.112-.845 1.646 2.167 1.65-1.254-1.77-2.327 1.12-.85z" fill="#F69A98"/><circle stroke="#CFCFCF" stroke-width="2.151" fill="#F1F1F1" cx="67" cy="67" r="50.92"/><path fill="#F69A98" d="M76.38 10.586l-2.278 1.668.305-2.807-2.583-1.14 2.583-1.138-.305-2.808L76.38 6.03l2.278-1.668-.305 2.807 2.583 1.138-2.583 1.14.305 2.806M125.692 69.01l-2.278 1.668.305-2.807-2.584-1.138 2.583-1.14-.306-2.806 2.278 1.668 2.278-1.668-.305 2.807 2.583 1.14-2.583 1.138.305 2.808M13.668 93.666l-2.278 1.668.305-2.807-2.583-1.14 2.583-1.138-.305-2.808 2.278 1.668 2.278-1.668-.305 2.807 2.584 1.138-2.583 1.14.306 2.806M59.228 127.36l-2.278 1.667.305-2.806-2.583-1.138 2.583-1.14-.305-2.806 2.278 1.668 2.278-1.668-.305 2.807 2.584 1.14-2.583 1.138.306 2.807"/><path d="M101.268 39.163c-14.203 0-34.052-10.22-34.052-10.22s-19.848 10.22-34.05 10.22c-3.763 15.44 2.086 53.404 34.05 66.965 31.967-13.56 37.814-51.525 34.052-66.965z" fill="#CFCFCF"/><path d="M67.216 100.31C41.923 88.194 36.186 58.648 37.66 44.12c11.47-1.28 24.3-6.877 29.556-9.357 5.254 2.48 18.084 8.077 29.55 9.358 1.487 14.53-4.254 44.07-29.55 56.193z" fill="#F69A98"/><path d="M67.216 37.78c-5.31 2.46-16.51 7.203-26.957 8.672-.942 13.777 4.65 39.657 26.956 50.84 22.305-11.183 27.9-37.06 26.958-50.84-10.448-1.47-21.647-6.208-26.958-8.673z" fill="#E5E5E5"/><path d="M78.84 58.36c.744.72.624 1.997-.268 2.862l-12.88 12.482c-.05.048-.1.092-.152.135-.037.042-.075.084-.116.124-.743.72-1.94.72-2.684 0l-5.367-5.2c-.743-.722-.743-1.882 0-2.602.744-.72 1.94-.72 2.684 0l4.025 3.9 11.806-11.44c.502-.488 1.138-.737 1.73-.734.462.002.897.158 1.222.473z" fill="#AAA"/></g></svg>