<svg width="279" height="279" viewBox="0 0 279 279" xmlns="http://www.w3.org/2000/svg"><title>Shield</title><g transform="translate(15 15)" fill="none" fill-rule="evenodd"><circle stroke="#CFCFCF" stroke-width="4" fill="#F1F1F1" cx="125" cy="125" r="125"/><path d="M161.893 30.568l-3.038-.9 2.463-8.317.434-1.357.49-1.48c-.653.355-1.102.583-1.345.682l-2.045.838-.923-2.262 5.72-2.316 2.5.74-4.257 14.374zm16.523-.663c-1.043 2.402-2.208 4.01-3.496 4.82-1.288.813-2.75.864-4.386.153-1.587-.688-2.524-1.803-2.813-3.344-.287-1.542.073-3.475 1.083-5.802 1.054-2.427 2.222-4.045 3.506-4.855 1.282-.81 2.74-.862 4.37-.154 1.586.69 2.524 1.81 2.813 3.368.29 1.557-.07 3.495-1.077 5.815zm-6.725-2.92c-.73 1.688-1.11 2.96-1.136 3.817-.025.857.307 1.435.996 1.734.678.294 1.327.137 1.95-.472.622-.61 1.295-1.748 2.02-3.416.73-1.687 1.105-2.965 1.12-3.834.017-.868-.31-1.448-.982-1.74-.683-.296-1.332-.14-1.947.468-.613.61-1.287 1.757-2.02 3.444zm17.852 10.072c-1.322 2.26-2.67 3.716-4.047 4.37-1.375.652-2.833.527-4.373-.373-1.493-.874-2.29-2.092-2.393-3.657-.104-1.565.485-3.442 1.766-5.63 1.336-2.284 2.69-3.752 4.06-4.403 1.37-.65 2.823-.528 4.357.37 1.493.872 2.29 2.1 2.392 3.68.1 1.578-.486 3.46-1.763 5.643zm-6.33-3.7c-.927 1.586-1.455 2.803-1.583 3.65-.13.85.132 1.463.78 1.843.638.373 1.302.294 1.993-.237.69-.53 1.494-1.58 2.413-3.15.928-1.588 1.452-2.812 1.57-3.672.12-.86-.135-1.475-.767-1.844-.644-.377-1.307-.3-1.99.232-.683.53-1.488 1.59-2.417 3.178zm11.974 4.92c-.526.69-.857 1.253-.993 1.686-.136.434-.068.754.204.96.522.398 1.305-.09 2.348-1.46 1.034-1.36 1.29-2.24.768-2.636-.272-.207-.596-.19-.973.052-.377.24-.828.706-1.354 1.397zm3.628 2.734c-.952 1.252-1.91 2.008-2.872 2.268-.962.26-1.91.034-2.847-.678-.897-.683-1.346-1.533-1.345-2.55 0-1.017.465-2.135 1.392-3.354 1.89-2.486 3.775-3.015 5.652-1.587.92.698 1.38 1.558 1.383 2.577 0 1.02-.453 2.127-1.363 3.324zm8.32.714L191.44 48.62l-1.958-1.49 15.694-6.896 1.96 1.49zm-7.217 7.676c-.526.69-.857 1.253-.993 1.687-.136.433-.068.753.204.96.522.397 1.305-.09 2.348-1.46 1.034-1.36 1.29-2.24.768-2.637-.272-.207-.596-.19-.973.052-.376.24-.827.707-1.353 1.398zm3.628 2.734c-.948 1.246-1.903 2-2.865 2.26-.963.26-1.912.033-2.847-.68-.898-.68-1.347-1.532-1.346-2.55 0-1.016.463-2.13 1.386-3.344 1.89-2.487 3.776-3.016 5.653-1.588.92.7 1.38 1.56 1.382 2.578.002 1.02-.453 2.127-1.363 3.324zM213.99 67.91c-1.058.842-2.196 1.124-3.412.846-1.216-.277-2.365-1.096-3.445-2.455-.996-1.25-1.64-2.546-1.935-3.884l2.31-1.837c.278 1.07.562 1.94.853 2.603.293.663.62 1.222.98 1.677.435.546.872.882 1.312 1.008.44.125.867.024 1.28-.303.23-.183.383-.41.46-.68.077-.272.1-.598.068-.978s-.17-1.1-.414-2.153c-.233-.985-.337-1.78-.312-2.386.026-.605.16-1.178.4-1.72.243-.54.64-1.03 1.19-1.47 1.04-.825 2.135-1.12 3.288-.89 1.154.232 2.224.968 3.21 2.21.485.61.876 1.25 1.172 1.918.295.668.553 1.41.77 2.222l-2.572.735c-.24-.83-.473-1.49-.696-1.98-.224-.49-.493-.934-.808-1.33-.375-.47-.77-.744-1.19-.822-.42-.076-.806.026-1.16.307-.22.174-.37.377-.452.61-.083.23-.112.517-.088.86.024.344.168 1.088.43 2.232.35 1.513.42 2.683.217 3.508-.204.826-.688 1.543-1.454 2.15zm2.695 13.29l2.463-2.802-2.874-4.648-3.607.952-1.8-2.913 15.584-3.418 2.045 3.306-10.01 12.434-1.8-2.913zm4.332-4.85c2.22-2.555 3.48-3.998 3.773-4.328.294-.33.53-.584.712-.76-.863.27-3.043.857-6.54 1.766l2.055 3.322zm-1.334 13.134l-1.24-2.87 13.76-5.946 3.41 7.888-2.39 1.033-2.17-5.018-3.548 1.533 2.017 4.67-2.38 1.027-2.018-4.668-5.44 2.35zm5.08 16.57l-2.48-8.27 14.358-4.307 2.483 8.27-2.495.748-1.568-5.225-3.152.946 1.458 4.86-2.494.75-1.46-4.862-3.702 1.11 1.568 5.226-2.514.755zM88.758 224.32c.333-1.313 1.068-2.227 2.204-2.742 1.137-.515 2.546-.56 4.23-.13 1.55.393 2.847 1.033 3.89 1.92l-.726 2.86c-.87-.685-1.62-1.204-2.255-1.556-.634-.35-1.233-.6-1.796-.742-.676-.172-1.227-.174-1.654-.008-.427.167-.705.505-.834 1.015-.073.285-.058.56.045.82.103.264.283.537.538.82.256.284.8.772 1.634 1.463.78.643 1.345 1.213 1.69 1.71.348.497.588 1.035.724 1.612.135.578.116 1.208-.058 1.89-.326 1.285-1.02 2.185-2.077 2.7-1.057.513-2.355.574-3.892.184-.755-.192-1.453-.465-2.093-.818-.64-.353-1.293-.787-1.96-1.302l1.603-2.143c.694.515 1.28.9 1.754 1.155.475.255.957.444 1.447.57.582.147 1.064.125 1.445-.067.38-.192.626-.507.737-.944.07-.272.066-.524-.008-.76-.075-.233-.225-.48-.452-.738s-.792-.763-1.694-1.515c-1.193-.994-1.96-1.882-2.296-2.662-.338-.78-.386-1.644-.145-2.59zm-9.683-8.756l8.06 3.096-5.377 13.995-8.06-3.097.935-2.43 5.092 1.955 1.18-3.072-4.738-1.82.934-2.43 4.738 1.82 1.387-3.61-5.093-1.955.942-2.45zm-14.306 6.06c1.06.558 2.088.592 3.087.103 1-.49 1.874-1.445 2.623-2.866 1.558-2.957 1.227-5.02-.992-6.19-.93-.49-2.182-.852-3.752-1.084l1.243-2.36c1.328.12 2.663.535 4.005 1.243 1.93 1.015 3.097 2.378 3.502 4.087.406 1.708.032 3.657-1.122 5.847-.726 1.38-1.614 2.454-2.662 3.227-1.05.774-2.19 1.19-3.42 1.247-1.233.058-2.48-.246-3.745-.912-1.288-.68-2.418-1.672-3.39-2.98l2.11-1.808c.373.497.764.965 1.173 1.405.41.44.856.787 1.34 1.042zm-18.66-10.4l5.63-7.9c.642-.9 1.407-1.547 2.295-1.94.887-.39 1.84-.495 2.862-.314 1.02.182 2.05.643 3.092 1.385 1.57 1.12 2.503 2.39 2.798 3.813.296 1.423-.055 2.834-1.05 4.23l-5.605 7.868-2.58-1.84 5.325-7.473c.67-.94.973-1.766.907-2.476-.065-.71-.535-1.375-1.41-1.998-.845-.604-1.616-.82-2.313-.65-.698.172-1.383.73-2.058 1.677l-5.313 7.457-2.58-1.84zm-1.633-12.048l-.73-.72c-.714-.708-1.36-1.11-1.935-1.21-.576-.097-1.116.11-1.62.62-.5.505-.682 1.037-.546 1.594.136.558.568 1.197 1.298 1.918l.685.678 2.848-2.88zm1.817-1.838l4.044-4.09 2.26 2.235-10.54 10.66-3.106-3.072c-1.45-1.43-2.26-2.755-2.433-3.97-.174-1.214.27-2.36 1.333-3.433.62-.627 1.344-1.014 2.172-1.16.828-.148 1.695-.048 2.6.3.767-3.983 1.252-6.565 1.458-7.745l2.51 2.48-1.5 6.607 1.202 1.188zM38.24 177.8l5.224 6.875-11.935 9.07-5.226-6.873 2.074-1.576 3.3 4.343 2.62-1.992-3.07-4.04 2.074-1.577 3.07 4.042 3.08-2.34-3.302-4.342 2.09-1.59z" fill="#F69A98"/><circle stroke="#CFCFCF" stroke-width="4" fill="#F1F1F1" cx="125" cy="125" r="95"/><path fill="#F69A98" d="M142.5 19.75l-4.25 3.11.57-5.235L134 15.5l4.82-2.125-.57-5.236 4.25 3.11 4.25-3.11-.57 5.235L151 15.5l-4.82 2.125.57 5.236M234.5 128.75l-4.25 3.11.57-5.235L226 124.5l4.82-2.125-.57-5.236 4.25 3.11 4.25-3.11-.57 5.235L243 124.5l-4.82 2.125.57 5.236M25.5 174.75l-4.25 3.11.57-5.235L17 170.5l4.82-2.125-.57-5.236 4.25 3.11 4.25-3.11-.57 5.235L34 170.5l-4.82 2.125.57 5.236M110.5 237.61l-4.25 3.112.57-5.236-4.82-2.125 4.82-2.124-.57-5.236 4.25 3.11 4.25-3.11-.57 5.236 4.82 2.125-4.82 2.126.57 5.236"/><path d="M188.933 73.066c-26.498 0-63.53-19.066-63.53-19.066s-37.03 19.066-63.528 19.066C54.855 101.87 65.77 172.7 125.405 198c59.64-25.3 70.547-96.13 63.528-124.934z" fill="#CFCFCF"/><path d="M125.404 187.147c-47.19-22.608-57.895-77.73-55.14-104.837 21.397-2.39 45.333-12.83 55.14-17.457 9.802 4.627 33.738 15.067 55.13 17.457 2.774 27.106-7.936 82.22-55.13 104.837z" fill="#F69A98"/><path d="M125.404 70.483c-9.908 4.594-30.8 13.44-50.295 16.18-1.755 25.705 8.677 73.988 50.294 94.854 41.612-20.866 52.05-69.144 50.294-94.853-19.494-2.74-40.386-11.582-50.294-16.18z" fill="#E5E5E5"/><path d="M147.09 108.882c1.387 1.344 1.164 3.725-.5 5.337l-24.03 23.287c-.092.09-.188.172-.285.253-.068.08-.14.158-.215.232-1.387 1.344-3.62 1.344-5.007 0l-10.013-9.703c-1.387-1.345-1.387-3.51 0-4.854 1.387-1.344 3.62-1.344 5.007 0l7.51 7.277 22.026-21.346c.936-.907 2.122-1.373 3.228-1.367.862.004 1.674.294 2.28.882z" fill="#AAA"/></g></svg>