<svg width="370" height="448" viewBox="0 0 370 448" xmlns="http://www.w3.org/2000/svg"><title>UPI Info Fig</title><g fill="none" fill-rule="evenodd"><g transform="translate(127.748 135.17)"><rect fill="#F1F1F1" fill-rule="nonzero" width="148.536" height="290.52" rx="11.172"/><ellipse stroke="#C1C1C1" stroke-width="1.06" opacity=".5" cx="75.067" cy="277.75" rx="7.986" ry="7.981"/><rect fill="#FCFCFC" fill-rule="nonzero" x="6.389" y="25.54" width="135.759" height="239.439" rx="4.469"/><path d="M48.573 17.303c-1.18 0-2.135-1-2.135-2.234 0-1.236.956-2.236 2.135-2.236 1.18 0 2.136 1 2.136 2.235 0 1.233-.957 2.233-2.137 2.233zm-6.05 0c-1.18 0-2.136-1-2.136-2.234 0-1.236.957-2.236 2.136-2.236 1.18 0 2.135 1 2.135 2.235 0 1.233-.956 2.233-2.135 2.233z" fill="#F69A98" fill-rule="nonzero"/></g><g fill-rule="nonzero"><path fill="#ECECEC" d="M237.437 258.614l-35.01-17.49-35.007 17.49h-4.327v4.324h78.67v-4.324"/><path fill="#F69A98" d="M198.102 267.36h8.752v39.306h-8.752zM219.933 267.36h8.752v39.306h-8.752zM176.172 267.36h8.752v39.306h-8.752z"/><path fill="#ECECEC" d="M237.437 311.284l-70.017-.295v4.52h-4.327v4.225H241.764v-4.226h-4.327"/></g><path d="M183.482 153.367c-.297 0-.538-.234-.538-.522 0-.288.24-.52.538-.52.296 0 .537.232.537.52 0 .288-.242.522-.538.522zm1.79 0c-.296 0-.537-.234-.537-.522 0-.288.24-.52.538-.52.297 0 .537.232.537.52 0 .288-.24.522-.537.522zm-1.79-1.74c-.297 0-.538-.232-.538-.52 0-.288.24-.52.538-.52.296 0 .537.232.537.52 0 .288-.242.52-.538.52zm1.79 0c-.296 0-.537-.232-.537-.52 0-.288.24-.52.538-.52.297 0 .537.232.537.52 0 .288-.24.52-.537.52zm-1.79-1.737c-.297 0-.538-.233-.538-.52 0-.29.24-.523.538-.523.296 0 .537.234.537.522 0 .287-.242.52-.538.52zm1.79 0c-.296 0-.537-.233-.537-.52 0-.29.24-.523.538-.523.297 0 .537.234.537.522 0 .287-.24.52-.537.52zm-1.79-1.738c-.297 0-.538-.233-.538-.52 0-.29.24-.523.538-.523.296 0 .537.233.537.52 0 .29-.242.522-.538.522zm1.79 0c-.296 0-.537-.233-.537-.52 0-.29.24-.523.538-.523.297 0 .537.233.537.52 0 .29-.24.522-.537.522zm1.792 5.215c-.297 0-.537-.234-.537-.522 0-.288.24-.52.537-.52.297 0 .537.232.537.52 0 .288-.24.522-.536.522zm1.79 0c-.296 0-.536-.234-.536-.522 0-.288.24-.52.537-.52.297 0 .538.232.538.52 0 .288-.24.522-.538.522zm-1.79-1.74c-.297 0-.537-.232-.537-.52 0-.288.24-.52.537-.52.297 0 .537.232.537.52 0 .288-.24.52-.536.52zm1.79 0c-.296 0-.536-.232-.536-.52 0-.288.24-.52.537-.52.297 0 .538.232.538.52 0 .288-.24.52-.538.52zm-1.79-1.737c-.297 0-.537-.233-.537-.52 0-.29.24-.523.537-.523.297 0 .537.234.537.522 0 .287-.24.52-.536.52zm1.79 0c-.296 0-.536-.233-.536-.52 0-.29.24-.523.537-.523.297 0 .538.234.538.522 0 .287-.24.52-.538.52zm-1.79-1.738c-.297 0-.537-.233-.537-.52 0-.29.24-.523.537-.523.297 0 .537.233.537.52 0 .29-.24.522-.536.522zm1.79 0c-.296 0-.536-.233-.536-.52 0-.29.24-.523.537-.523.297 0 .538.233.538.52 0 .29-.24.522-.538.522zm1.792 5.215c-.296 0-.537-.234-.537-.522 0-.288.24-.52.536-.52.297 0 .538.232.538.52 0 .288-.24.522-.538.522zm1.792 0c-.297 0-.538-.234-.538-.522 0-.288.24-.52.538-.52.296 0 .537.232.537.52 0 .288-.24.522-.537.522zm-1.792-1.74c-.296 0-.537-.232-.537-.52 0-.288.24-.52.536-.52.297 0 .538.232.538.52 0 .288-.24.52-.538.52zm1.792 0c-.297 0-.538-.232-.538-.52 0-.288.24-.52.538-.52.296 0 .537.232.537.52 0 .288-.24.52-.537.52zm-1.792-1.737c-.296 0-.537-.233-.537-.52 0-.29.24-.523.536-.523.297 0 .538.234.538.522 0 .287-.24.52-.538.52zm1.792 0c-.297 0-.538-.233-.538-.52 0-.29.24-.523.538-.523.296 0 .537.234.537.522 0 .287-.24.52-.537.52zm-1.792-1.738c-.296 0-.537-.233-.537-.52 0-.29.24-.523.536-.523.297 0 .538.233.538.52 0 .29-.24.522-.538.522zm1.792 0c-.297 0-.538-.233-.538-.52 0-.29.24-.523.538-.523.296 0 .537.233.537.52 0 .29-.24.522-.537.522zm1.79 5.215c-.296 0-.536-.234-.536-.522 0-.288.24-.52.537-.52.296 0 .536.232.536.52 0 .288-.24.522-.537.522zm1.792 0c-.297 0-.537-.234-.537-.522 0-.288.24-.52.537-.52.297 0 .537.232.537.52 0 .288-.24.522-.537.522zm-1.79-1.74c-.298 0-.538-.232-.538-.52 0-.288.24-.52.537-.52.296 0 .536.232.536.52 0 .288-.24.52-.537.52zm1.79 0c-.297 0-.537-.232-.537-.52 0-.288.24-.52.537-.52.297 0 .537.232.537.52 0 .288-.24.52-.537.52zm-1.79-1.737c-.298 0-.538-.233-.538-.52 0-.29.24-.523.537-.523.296 0 .536.234.536.522 0 .287-.24.52-.537.52zm1.79 0c-.297 0-.537-.233-.537-.52 0-.29.24-.523.537-.523.297 0 .537.234.537.522 0 .287-.24.52-.537.52zm-1.79-1.738c-.298 0-.538-.233-.538-.52 0-.29.24-.523.537-.523.296 0 .536.233.536.52 0 .29-.24.522-.537.522zm1.79 0c-.297 0-.537-.233-.537-.52 0-.29.24-.523.537-.523.297 0 .537.233.537.52 0 .29-.24.522-.537.522zm1.79 5.215c-.295 0-.536-.234-.536-.522 0-.288.24-.52.537-.52.298 0 .54.232.54.52 0 .288-.242.522-.54.522zm1.793 0c-.297 0-.538-.234-.538-.522 0-.288.24-.52.538-.52.296 0 .537.232.537.52 0 .288-.24.522-.537.522zm-1.792-1.74c-.295 0-.536-.232-.536-.52 0-.288.24-.52.537-.52.298 0 .54.232.54.52 0 .288-.242.52-.54.52zm1.793 0c-.297 0-.538-.232-.538-.52 0-.288.24-.52.538-.52.296 0 .537.232.537.52 0 .288-.24.52-.537.52zm-1.792-1.737c-.295 0-.536-.233-.536-.52 0-.29.24-.523.537-.523.298 0 .54.234.54.522 0 .287-.242.52-.54.52zm1.793 0c-.297 0-.538-.233-.538-.52 0-.29.24-.523.538-.523.296 0 .537.234.537.522 0 .287-.24.52-.537.52zm-1.792-1.738c-.295 0-.536-.233-.536-.52 0-.29.24-.523.537-.523.298 0 .54.233.54.52 0 .29-.242.522-.54.522zm1.793 0c-.297 0-.538-.233-.538-.52 0-.29.24-.523.538-.523.296 0 .537.233.537.52 0 .29-.24.522-.537.522zm1.79 5.215c-.296 0-.537-.234-.537-.522 0-.288.24-.52.538-.52.297 0 .537.232.537.52 0 .288-.24.522-.536.522zm1.792 0c-.297 0-.537-.234-.537-.522 0-.288.24-.52.537-.52.297 0 .537.232.537.52 0 .288-.24.522-.537.522zm-1.79-1.74c-.298 0-.54-.232-.54-.52 0-.288.242-.52.54-.52.296 0 .536.232.536.52 0 .288-.24.52-.536.52zm1.79 0c-.297 0-.537-.232-.537-.52 0-.288.24-.52.537-.52.297 0 .537.232.537.52 0 .288-.24.52-.537.52zm-1.79-1.737c-.298 0-.54-.233-.54-.52 0-.29.242-.523.54-.523.296 0 .536.234.536.522 0 .287-.24.52-.536.52zm1.79 0c-.297 0-.537-.233-.537-.52 0-.29.24-.523.537-.523.297 0 .537.234.537.522 0 .287-.24.52-.537.52zm-1.79-1.738c-.298 0-.54-.233-.54-.52 0-.29.242-.523.54-.523.296 0 .536.233.536.52 0 .29-.24.522-.536.522zm1.79 0c-.297 0-.537-.233-.537-.52 0-.29.24-.523.537-.523.297 0 .537.233.537.52 0 .29-.24.522-.537.522zm1.79 5.215c-.296 0-.536-.234-.536-.522 0-.288.24-.52.536-.52.297 0 .538.232.538.52 0 .288-.24.522-.538.522zm1.792 0c-.296 0-.537-.234-.537-.522 0-.288.24-.52.537-.52.297 0 .538.232.538.52 0 .288-.24.522-.538.522zm-1.79-1.74c-.298 0-.538-.232-.538-.52 0-.288.24-.52.536-.52.297 0 .538.232.538.52 0 .288-.24.52-.538.52zm1.79 0c-.296 0-.537-.232-.537-.52 0-.288.24-.52.537-.52.297 0 .538.232.538.52 0 .288-.24.52-.538.52zm-1.79-1.737c-.298 0-.538-.233-.538-.52 0-.29.24-.523.536-.523.297 0 .538.234.538.522 0 .287-.24.52-.538.52zm1.79 0c-.296 0-.537-.233-.537-.52 0-.29.24-.523.537-.523.297 0 .538.234.538.522 0 .287-.24.52-.538.52zm-1.79-1.738c-.298 0-.538-.233-.538-.52 0-.29.24-.523.536-.523.297 0 .538.233.538.52 0 .29-.24.522-.538.522zm1.79 0c-.296 0-.537-.233-.537-.52 0-.29.24-.523.537-.523.297 0 .538.233.538.52 0 .29-.24.522-.538.522zm1.792 5.215c-.298 0-.54-.234-.54-.522 0-.288.242-.52.54-.52.295 0 .536.232.536.52 0 .288-.24.522-.537.522zm1.79 0c-.297 0-.537-.234-.537-.522 0-.288.24-.52.537-.52.297 0 .537.232.537.52 0 .288-.24.522-.537.522zm-1.79-1.74c-.298 0-.54-.232-.54-.52 0-.288.242-.52.54-.52.295 0 .536.232.536.52 0 .288-.24.52-.537.52zm1.79 0c-.297 0-.537-.232-.537-.52 0-.288.24-.52.537-.52.297 0 .537.232.537.52 0 .288-.24.52-.537.52zm-1.79-1.737c-.298 0-.54-.233-.54-.52 0-.29.242-.523.54-.523.295 0 .536.234.536.522 0 .287-.24.52-.537.52zm1.79 0c-.297 0-.537-.233-.537-.52 0-.29.24-.523.537-.523.297 0 .537.234.537.522 0 .287-.24.52-.537.52zm-1.79-1.738c-.298 0-.54-.233-.54-.52 0-.29.242-.523.54-.523.295 0 .536.233.536.52 0 .29-.24.522-.537.522zm1.79 0c-.297 0-.537-.233-.537-.52 0-.29.24-.523.537-.523.297 0 .537.233.537.52 0 .29-.24.522-.537.522zm1.79 5.215c-.296 0-.536-.234-.536-.522 0-.288.24-.52.537-.52.298 0 .54.232.54.52 0 .288-.242.522-.54.522zm1.792 0c-.296 0-.537-.234-.537-.522 0-.288.24-.52.537-.52.297 0 .538.232.538.52 0 .288-.24.522-.538.522zm-1.79-1.74c-.298 0-.538-.232-.538-.52 0-.288.24-.52.537-.52.298 0 .54.232.54.52 0 .288-.242.52-.54.52zm1.79 0c-.296 0-.537-.232-.537-.52 0-.288.24-.52.537-.52.297 0 .538.232.538.52 0 .288-.24.52-.538.52zm-1.79-1.737c-.298 0-.538-.233-.538-.52 0-.29.24-.523.537-.523.298 0 .54.234.54.522 0 .287-.242.52-.54.52zm1.79 0c-.296 0-.537-.233-.537-.52 0-.29.24-.523.537-.523.297 0 .538.234.538.522 0 .287-.24.52-.538.52zm-1.79-1.738c-.298 0-.538-.233-.538-.52 0-.29.24-.523.537-.523.298 0 .54.233.54.52 0 .29-.242.522-.54.522zm1.79 0c-.296 0-.537-.233-.537-.52 0-.29.24-.523.537-.523.297 0 .538.233.538.52 0 .29-.24.522-.538.522zm1.792 5.215c-.297 0-.538-.234-.538-.522 0-.288.24-.52.538-.52.296 0 .537.232.537.52 0 .288-.24.522-.536.522zm1.79 0c-.296 0-.537-.234-.537-.522 0-.288.24-.52.538-.52.297 0 .537.232.537.52 0 .288-.24.522-.537.522zm-1.79-1.74c-.297 0-.538-.232-.538-.52 0-.288.24-.52.538-.52.296 0 .537.232.537.52 0 .288-.24.52-.536.52zm1.79 0c-.296 0-.537-.232-.537-.52 0-.288.24-.52.538-.52.297 0 .537.232.537.52 0 .288-.24.52-.537.52zm-1.79-1.737c-.297 0-.538-.233-.538-.52 0-.29.24-.523.538-.523.296 0 .537.234.537.522 0 .287-.24.52-.536.52zm1.79 0c-.296 0-.537-.233-.537-.52 0-.29.24-.523.538-.523.297 0 .537.234.537.522 0 .287-.24.52-.537.52zm-1.79-1.738c-.297 0-.538-.233-.538-.52 0-.29.24-.523.538-.523.296 0 .537.233.537.52 0 .29-.24.522-.536.522zm1.79 0c-.296 0-.537-.233-.537-.52 0-.29.24-.523.538-.523.297 0 .537.233.537.52 0 .29-.24.522-.537.522zm1.792 5.215c-.297 0-.537-.234-.537-.522 0-.288.24-.52.536-.52.297 0 .537.232.537.52 0 .288-.24.522-.537.522zm1.79 0c-.295 0-.536-.234-.536-.522 0-.288.24-.52.537-.52.297 0 .538.232.538.52 0 .288-.24.522-.538.522zm-1.79-1.74c-.297 0-.537-.232-.537-.52 0-.288.24-.52.536-.52.297 0 .537.232.537.52 0 .288-.24.52-.537.52zm1.79 0c-.295 0-.536-.232-.536-.52 0-.288.24-.52.537-.52.297 0 .538.232.538.52 0 .288-.24.52-.538.52zm-1.79-1.737c-.297 0-.537-.233-.537-.52 0-.29.24-.523.536-.523.297 0 .537.234.537.522 0 .287-.24.52-.537.52zm1.79 0c-.295 0-.536-.233-.536-.52 0-.29.24-.523.537-.523.297 0 .538.234.538.522 0 .287-.24.52-.538.52zm-1.79-1.738c-.297 0-.537-.233-.537-.52 0-.29.24-.523.536-.523.297 0 .537.233.537.52 0 .29-.24.522-.537.522zm1.79 0c-.295 0-.536-.233-.536-.52 0-.29.24-.523.537-.523.297 0 .538.233.538.52 0 .29-.24.522-.538.522z" fill-rule="nonzero" fill="#AAA"/><g fill-rule="nonzero"><path d="M327.402 87.076c5.685-1.106 11.186 2.592 12.288 8.26 1.102 5.672-2.613 11.157-8.3 12.263-5.686 1.104-11.115-2.598-12.22-8.275-1.102-5.675 2.545-11.144 8.232-12.25zm-2.753 4.902l.002.016-.034.007.32 1.65 1.508-.293c1.37-.267 2.203.327 2.63 1.183l-3.786.736.32 1.65 3.785-.736c-.072.953-.62 1.818-1.993 2.085l-.47.09-.007-.004-.004.01-1.026.198.32 1.65.434-.085 5.442 4.09.805-1.373-4.273-3.214c1.52-.685 2.283-2.215 2.278-3.74l2.005-.39-.32-1.648-2.005.39c-.23-.57-.585-1.084-1.026-1.512l2.71-.527-.32-1.65-7.295 1.418zM89.075 102.448c3.216 1.17 4.877 4.717 3.71 7.923-1.168 3.21-4.72 4.857-7.935 3.687-3.217-1.17-4.84-4.7-3.672-7.91 1.168-3.21 4.68-4.87 7.897-3.7zm-2.966 1.898l-.004.01-.02-.008-.34.933.854.31c.775.283 1.016.838.97 1.4l-2.14-.778-.34.933 2.14.78c-.326.46-.867.73-1.643.45l-.266-.098v-.005l-.005.002-.58-.21-.34.932.244.09 1.51 3.727.827-.45-1.186-2.93c.98.117 1.83-.426 2.293-1.2l1.133.413.34-.933-1.134-.412c.058-.358.034-.727-.06-1.077l1.533.557.34-.932-4.126-1.502zM139.028 36.918c3.216 1.17 4.877 4.718 3.71 7.924-1.168 3.208-4.72 4.856-7.935 3.686-3.218-1.17-4.84-4.7-3.672-7.91 1.17-3.21 4.68-4.87 7.898-3.7zm-2.966 1.9l-.003.008-.02-.007-.34.932.853.31c.775.282 1.016.837.97 1.4l-2.14-.78-.34.933 2.14.78c-.326.46-.867.732-1.643.45l-.266-.097-.002-.005-.005.002-.58-.21-.34.932.245.09 1.512 3.727.825-.45-1.186-2.93c.977.116 1.83-.426 2.29-1.2l1.135.413.34-.933-1.135-.412c.058-.36.034-.728-.06-1.08l1.533.56.34-.934-4.126-1.5zM204.497 20.72c4.156 1.514 6.303 6.094 4.797 10.234-1.508 4.142-6.097 6.268-10.253 4.755-4.156-1.514-6.255-6.07-4.746-10.215 1.508-4.144 6.045-6.287 10.203-4.774zm-3.832 2.45l-.005.013-.025-.01-.438 1.205 1.102.4c1 .366 1.313 1.082 1.255 1.81l-2.767-1.008-.438 1.204 2.766 1.007c-.422.596-1.12.946-2.124.58l-.344-.124-.002-.006-.006.003-.75-.273-.44 1.205.318.115 1.955 4.814 1.066-.582-1.535-3.78c1.264.148 2.365-.552 2.96-1.55l1.466.533.44-1.204-1.465-.533c.074-.463.043-.94-.077-1.392l1.98.72.44-1.203-5.333-1.94zM264.497 60.72c4.156 1.514 6.303 6.094 4.797 10.234-1.508 4.142-6.097 6.268-10.253 4.755-4.156-1.514-6.255-6.07-4.746-10.215 1.508-4.144 6.045-6.287 10.203-4.774zm-3.832 2.45l-.005.013-.025-.01-.438 1.205 1.102.4c1 .366 1.313 1.082 1.255 1.81l-2.767-1.008-.438 1.204 2.766 1.007c-.422.596-1.12.946-2.124.58l-.344-.124-.002-.006-.006.003-.75-.273-.44 1.205.318.115 1.955 4.814 1.066-.582-1.535-3.78c1.264.148 2.365-.552 2.96-1.55l1.466.533.44-1.204-1.465-.533c.074-.463.043-.94-.077-1.392l1.98.72.44-1.203-5.333-1.94zM340.23 181.11c4.092.72 6.827 4.612 6.108 8.692-.72 4.082-4.62 6.8-8.713 6.08-4.095-.722-6.78-4.598-6.06-8.684.72-4.085 4.57-6.81 8.664-6.088zm-3.216 2.77l-.002.012-.026-.004-.205 1.164 1.11.196c1.007.178 1.425.782 1.496 1.453l-2.783-.49-.205 1.165 2.783.49c-.295.608-.894 1.035-1.902.857l-.346-.06-.004-.007-.005.004-.754-.134-.207 1.165.32.057 2.674 4.084.905-.693-2.1-3.21c1.218-.057 2.136-.865 2.526-1.866l1.473.26.207-1.164-1.474-.26c-.01-.434-.122-.862-.313-1.256l1.992.35.205-1.163-5.363-.946zM71.74 250.153c5.73 1.01 9.56 6.458 8.552 12.17-1.008 5.715-6.468 9.522-12.198 8.51-5.732-1.01-9.492-6.436-8.483-12.156 1.01-5.718 6.398-9.534 12.13-8.524zm-4.5 3.88l-.004.016-.036-.007-.287 1.63 1.552.274c1.41.25 1.996 1.095 2.095 2.034l-3.896-.686-.288 1.63 3.896.688c-.413.85-1.252 1.447-2.664 1.198l-.484-.085-.005-.007-.008.005-1.057-.186-.287 1.63.446.08 3.745 5.716 1.266-.97-2.94-4.493c1.706-.082 2.99-1.213 3.536-2.615l2.063.364.288-1.632-2.063-.363c-.014-.608-.17-1.207-.44-1.76l2.79.493.288-1.63-7.51-1.325zM37.145 190.87l-6.48-9.23c-.32-.458-.86-.714-1.418-.677-.294.02-.572.12-.807.284-.21.147-.383.343-.504.576-.56 1.09-1.352 1.983-2.423 2.73-1.43 1-3.18 1.64-5.028 2.315-1.96.716-3.99 1.458-5.76 2.696-1.508 1.053-2.63 2.322-3.433 3.884-.27.528-.227 1.157.112 1.643l6.48 9.232c.322.458.86.714 1.42.676.293-.02.57-.12.806-.284.21-.146.383-.343.504-.577.56-1.09 1.353-1.983 2.425-2.73 1.43-1 3.176-1.638 5.026-2.313 1.96-.717 3.99-1.46 5.76-2.697 1.506-1.052 2.63-2.323 3.433-3.885.27-.526.224-1.16-.115-1.64z" fill="#FEBBBA"/><path d="M22.386 199.21c-.56.29-1.11.6-1.632.967-.502.35-.967.732-1.383 1.13l-.667.638.002.002c-.125.136-.145.344-.035.5.126.18.377.226.558.1.028-.02.052-.043.072-.068l.624-.6c.386-.37.82-.723 1.29-1.05.517-.362.986-.63 1.55-.92.015-.01.03-.016.045-.026.18-.126.224-.376.097-.556-.117-.17-.344-.216-.52-.12zM27.22 185.218c-.485.338-.996.63-1.52.9-.036.012-.07.026-.104.05-.182.128-.227.38-.1.562.124.177.367.223.55.107l.002.003c.557-.29 1.107-.604 1.63-.97.5-.35.965-.73 1.383-1.128l.668-.64v-.003c.16-.133.195-.367.074-.54-.128-.183-.38-.227-.56-.1-.035.024-.062.054-.087.085l-.648.62c-.387.373-.82.726-1.288 1.053z" fill="#F5F5F5"/><path d="M19.905 191.66l.005.008-.02.014.584.833.853-.597c.774-.543 1.423-.448 1.884-.09l-2.14 1.498.584.833 2.14-1.5c.18.557.048 1.2-.728 1.742l-.266.186h-.005v.005l-.58.406.582.832.245-.17 4.286.73.17-1-3.367-.577c.77-.82.876-1.896.515-2.75l1.133-.793-.583-.833-1.133.792c-.275-.255-.613-.44-.982-.554l1.53-1.072-.582-.833-4.123 2.887z" fill="#FFF"/><g><path d="M208.712 103.8l3.924-10.834c.194-.538.093-1.138-.266-1.584-.19-.235-.436-.41-.71-.51-.246-.09-.512-.12-.778-.084-1.24.17-2.45.03-3.704-.43-1.675-.613-3.234-1.7-4.883-2.853-1.75-1.224-3.558-2.487-5.632-3.246-1.765-.645-3.484-.842-5.26-.6-.6.083-1.102.49-1.31 1.058l-3.922 10.835c-.194.537-.093 1.138.266 1.584.19.234.436.41.71.51.247.09.513.12.78.083 1.24-.17 2.45-.03 3.705.43 1.675.614 3.232 1.702 4.882 2.856 1.75 1.22 3.56 2.485 5.632 3.243 1.763.645 3.484.84 5.262.598.598-.083 1.1-.49 1.306-1.057z" fill="#FEBBBA"/><path d="M193.086 96.327c-.57-.3-1.154-.576-1.766-.8-.588-.214-1.18-.38-1.757-.496l-.925-.184v.002c-.187-.025-.373.08-.44.265-.076.21.034.447.245.525.033.012.066.018.1.02l.865.172c.535.107 1.086.263 1.634.464.607.222 1.106.458 1.68.76.016.007.03.016.047.022.21.078.446-.03.522-.244.073-.197-.02-.414-.206-.505zM207.622 92.177c-.566-.208-1.11-.465-1.643-.746-.032-.02-.065-.043-.105-.056-.213-.078-.45.033-.527.246-.076.208.028.438.23.522v.004c.57.297 1.155.573 1.767.797.587.215 1.176.38 1.755.497l.927.183v-.002c.206.06.423-.05.497-.252.077-.214-.033-.45-.246-.528-.04-.014-.08-.02-.12-.023l-.9-.178c-.54-.108-1.088-.263-1.636-.463z" fill="#F5F5F5"/><path d="M197.946 89.83l-.004.01-.023-.01-.356.976 1 .364c.908.33 1.21.928 1.18 1.524l-2.51-.913-.354.977 2.51.913c-.36.476-.976.74-1.885.41l-.312-.113-.003-.005-.005.002-.68-.247-.355.975.287.105 1.9 4.016.937-.445-1.49-3.154c1.136.162 2.1-.38 2.603-1.18l1.33.483.354-.976-1.328-.483c.052-.378.01-.77-.112-1.146l1.796.655.355-.976-4.834-1.76z" fill="#FFF"/></g></g><g transform="translate(70 341.11)"><path d="M10.68 17.116C10.68 8.128 17.963.842 26.953.842h18.276c8.986 0 16.27 7.287 16.27 16.274v21.69c0 8.99-7.28 16.274-16.27 16.274H26.952c-8.986 0-16.27-7.286-16.27-16.273v-21.69z" stroke="#CFCFCF" stroke-width="5.023"/><path d="M72.086 75.94c0 4.424-4.23 8.345-8.47 8.345H8.564c-4.24 0-8.47-3.92-8.47-8.344V42.565c0-4.423 4.23-8.344 8.47-8.344h55.054c4.24 0 8.47 3.92 8.47 8.344V75.94z" fill="#FFEBEB" fill-rule="nonzero"/><rect fill="#FEBBBA" fill-rule="nonzero" x="8.563" y="47.779" width="55.053" height="25.033" rx="9.5"/><path d="M18.273 55l3.123 8.817L24.502 55h3.29v12.157h-2.514v-3.323l.25-5.736-3.28 9.06h-1.72l-3.274-9.052.25 5.728v3.323H15V55h3.273zm14.45 7.874v4.283h-2.506V55h4.742c.912 0 1.715.167 2.408.5.693.335 1.226.81 1.6 1.425.372.615.56 1.315.56 2.1 0 1.19-.41 2.13-1.225 2.818-.815.687-1.944 1.03-3.385 1.03h-2.196zm0-2.03h2.236c.662 0 1.167-.155 1.515-.467.348-.312.522-.757.522-1.336 0-.594-.176-1.076-.526-1.443-.35-.368-.834-.557-1.452-.568h-2.296v3.815zm11.425 6.313h-2.505V55h2.505v12.157zm12.444 0h-2.505l-4.876-8v8h-2.504V55h2.505l4.886 8.016V55h2.496v12.157z" fill="#FFF" fill-rule="nonzero"/></g><g transform="rotate(13 -904.027 1353.454)" fill-rule="nonzero"><rect fill="#FFEBEB" transform="rotate(-13 55.06 116.614)" x="13.253" y="53.972" width="83.612" height="125.284" rx="9.5"/><path fill="#FCFCFC" d="M10.14 81.24l70.007-16.164 22.374 96.912-70.007 16.163z"/><path d="M54.235 89.158c-.833 1.336-2.077 2.227-3.453 2.88-.878.42-1.78.794-2.71 1.1l-.714.24c-.17.04-.34.092-.51.132-.752.187-1.554.27-2.32.342-.966.096-1.942.09-2.904-.023-.554-.066-1.12-.18-1.657-.34-.89-.243-1.708-.62-2.357-1.317-.547-.594-.705-1.276-.445-2.043.37-1.127 1.144-1.936 2.048-2.632 1.765-1.36 3.786-2.16 5.95-2.62 1.993-.435 4.01-.593 6.017-.118.785.178 1.6.478 2.296.884 1.49.902 1.637 2.09.76 3.514z" fill="#FEBBBA"/><path d="M55.273 89.592c.177.766.42 1.487.495 2.223.148 1.446-1.31 2.586-2.342 3.348-3.096 2.292-7.497 3.12-11.26 2.686-1.747-.203-3.726-.514-4.185-2.536-.12-.532-.244-1.063-.386-1.68.392.216.693.406 1.014.555 1.953.91 4.023 1.002 6.12.818 1.815-.16 3.572-.595 5.256-1.292 1.77-.73 3.397-1.68 4.63-3.192.235-.288.43-.604.66-.932z" fill="#FEBBBA"/><path d="M56.235 93.655c.177.767.42 1.487.495 2.224.148 1.445-1.31 2.584-2.343 3.347-3.095 2.292-7.496 3.12-11.26 2.686-1.747-.202-3.725-.513-4.184-2.536l-.388-1.678c.392.214.694.404 1.015.553 1.953.91 4.023 1.003 6.12.82 1.814-.16 3.57-.596 5.256-1.293 1.77-.732 3.397-1.68 4.63-3.193.233-.287.43-.603.66-.932z" fill="#FEBBBA"/><path d="M57.154 97.635c.177.767.42 1.487.495 2.223.146 1.447-1.312 2.586-2.344 3.35-3.095 2.29-7.497 3.12-11.26 2.684-1.747-.202-3.725-.512-4.185-2.535-.12-.532-.244-1.063-.386-1.678.392.214.694.404 1.015.553 1.952.91 4.022 1.003 6.118.82 1.815-.16 3.572-.596 5.257-1.293 1.77-.732 3.396-1.682 4.63-3.193.233-.286.428-.604.66-.932z" fill="#FFF"/><g transform="rotate(-13 439.128 -171.614)"><ellipse fill="#FEBBBA" cx="7.126" cy="7.127" rx="7.126" ry="7.127"/><path d="M4.568 2.85v.013H4.54V4.05h1.175c1.065 0 1.603.525 1.797 1.177H4.568v1.188h2.944c-.193.652-.73 1.178-1.797 1.178H5.35l-.006-.004-.004.003h-.8V8.78h.338l3.484 3.574.803-.844L6.43 8.702c1.24-.27 2.035-1.23 2.253-2.287h1.56V5.227h-1.56c-.088-.428-.28-.832-.548-1.188h2.107V2.85H4.568z" fill="#FFF"/></g><path d="M42.193 134.766l.977-14.82 4.227-.977-2.162 19.906-3.96.915-10.646-16.95 4.213-.973 7.35 12.9zm13.49-5.14l1.5 6.492-3.798.877-4.254-18.426 7.19-1.66c1.383-.32 2.658-.348 3.826-.085 1.167.264 2.14.797 2.92 1.6.782.8 1.31 1.796 1.584 2.986.417 1.806.128 3.373-.868 4.7-.995 1.327-2.586 2.243-4.77 2.748l-3.33.768zm-.71-3.075l3.392-.782c1.004-.232 1.715-.645 2.133-1.24.418-.593.526-1.33.323-2.207-.207-.9-.64-1.57-1.3-2.004-.66-.434-1.462-.552-2.402-.352l-3.48.803 1.335 5.784zm24.656.387l-6.658 1.537-.39 4.09-4.036.93 2.605-20.01 3.52-.812 11.15 16.834-4.036.932-2.155-3.5zm-6.343-1.775l4.607-1.064-3.908-6.362-.7 7.426zM41.45 163.805c-.087-.104-.185-.284-.292-.54-.335.563-.823.918-1.462 1.066-.62.144-1.168.084-1.64-.18-.475-.263-.772-.656-.892-1.177-.152-.66-.025-1.22.383-1.685.408-.465 1.067-.803 1.976-1.013l.85-.196-.092-.407c-.073-.32-.222-.555-.445-.705-.223-.15-.518-.185-.883-.1-.316.073-.557.21-.722.416-.165.204-.22.428-.163.672l-1.388.32c-.08-.338-.04-.68.117-1.028.156-.347.408-.65.756-.905.348-.257.76-.44 1.235-.55.723-.167 1.342-.118 1.856.146.514.263.852.723 1.016 1.38l.643 2.785c.128.556.31.98.54 1.276l.024.098-1.416.327zm-1.754-.647c.274-.063.516-.19.727-.378.21-.19.352-.41.422-.663l-.27-1.165-.747.173c-.514.12-.88.297-1.097.536-.217.24-.288.523-.212.85.06.266.2.458.412.575.214.117.47.142.766.073zm9.112-4.24c.22.96.183 1.773-.114 2.44-.297.665-.82 1.085-1.57 1.258-.724.167-1.347.036-1.87-.392l.085.684-1.257.29-2.025-8.77 1.388-.32.735 3.186c.292-.565.776-.925 1.453-1.08.754-.175 1.41-.032 1.97.428.56.46.955 1.193 1.187 2.198l.018.08zm-1.415.202c-.155-.67-.39-1.145-.702-1.426-.312-.28-.694-.368-1.143-.265-.6.138-.963.498-1.085 1.08l.588 2.546c.37.48.86.65 1.464.51.434-.1.732-.34.893-.718.16-.378.17-.895.027-1.55l-.04-.178zm5.584.978c.346-.08.61-.247.792-.502.18-.254.245-.532.192-.832l1.307-.302c.073.388.036.774-.112 1.16-.148.384-.39.718-.73 1-.34.284-.733.477-1.178.58-.864.2-1.614.077-2.25-.365-.635-.443-1.066-1.157-1.294-2.143l-.033-.143c-.217-.94-.14-1.75.232-2.43.372-.682.992-1.123 1.86-1.323.735-.17 1.383-.094 1.944.228.56.32.933.828 1.116 1.52l-1.307.3c-.098-.35-.286-.613-.565-.79-.28-.175-.594-.223-.944-.142-.45.104-.757.346-.926.728-.168.383-.178.905-.03 1.568l.053.223c.154.67.39 1.142.708 1.416.318.273.705.357 1.162.252zm12.358-4.922c.174.962.113 1.767-.182 2.415-.296.648-.805 1.055-1.528 1.222-.69.16-1.218-.027-1.585-.56-.127.334-.303.603-.526.807-.224.203-.476.337-.758.403-.556.128-1.03-.003-1.423-.394-.393-.39-.643-.977-.75-1.758-.084-.634-.06-1.228.065-1.783.127-.555.344-1.01.652-1.37.31-.357.672-.584 1.09-.68.32-.075.612-.1.876-.077.264.024.59.123.98.297l.445 3.283c.103.77.407 1.097.913.98.388-.09.66-.37.812-.846.153-.474.164-1.045.034-1.712-.26-1.42-.78-2.432-1.56-3.038-.778-.606-1.777-.768-2.995-.487-.746.172-1.364.51-1.855 1.017-.49.506-.823 1.152-1 1.936-.175.784-.176 1.63-.002 2.54.167.93.46 1.694.876 2.298.418.604.94 1.015 1.566 1.236.627.22 1.334.24 2.12.057.32-.074.646-.19.977-.345.33-.157.603-.328.817-.514l.397.732c-.196.206-.48.4-.853.585-.372.186-.758.324-1.158.416-.968.223-1.845.21-2.632-.04-.787-.248-1.444-.72-1.97-1.417-.542-.722-.922-1.647-1.14-2.775-.194-1.054-.176-2.045.054-2.974.23-.928.66-1.708 1.286-2.337.626-.63 1.407-1.053 2.344-1.27.947-.218 1.81-.198 2.59.06.78.26 1.43.742 1.95 1.446.518.703.876 1.585 1.073 2.646zm-5.634 1.878c.07.53.207.912.41 1.147.203.237.458.32.767.248.205-.047.378-.182.52-.405.14-.223.23-.506.273-.848l-.393-2.874c-.207-.027-.4-.02-.58.02-.422.098-.72.376-.895.836-.174.46-.208 1.085-.1 1.878zm12.27-3.482c.222.96.184 1.772-.114 2.438-.297.666-.82 1.085-1.57 1.258-.723.167-1.347.037-1.87-.392l.085.684-1.255.29-2.025-8.77 1.388-.32.735 3.186c.29-.564.775-.924 1.453-1.08.753-.175 1.41-.032 1.97.43.558.46.954 1.19 1.186 2.196l.018.08zm-1.415.2c-.154-.67-.388-1.145-.702-1.425-.313-.28-.694-.37-1.143-.265-.602.14-.964.5-1.086 1.08l.588 2.547c.37.478.86.648 1.465.508.434-.1.73-.34.892-.717.16-.377.17-.894.026-1.55l-.04-.178zm6.967 1.706c-.09-.104-.186-.284-.293-.54-.337.562-.824.917-1.463 1.065-.62.143-1.168.083-1.642-.18-.473-.264-.77-.656-.89-1.178-.153-.658-.025-1.22.383-1.685.408-.465 1.066-.802 1.976-1.012l.85-.197-.093-.404c-.073-.32-.22-.555-.444-.706-.224-.15-.518-.184-.883-.1-.316.073-.557.212-.722.416-.164.205-.22.43-.163.673l-1.387.32c-.078-.34-.04-.683.117-1.03.157-.346.41-.648.757-.905.347-.256.76-.44 1.235-.55.722-.166 1.34-.118 1.854.146.514.266.853.726 1.017 1.38l.644 2.787c.128.556.31.982.54 1.277l.023.097-1.415.328zm-1.755-.648c.274-.063.516-.19.727-.378.21-.19.35-.41.42-.663l-.268-1.165-.747.172c-.515.12-.88.298-1.098.536-.218.24-.29.522-.213.85.06.266.198.457.41.575.215.117.47.14.767.072zm4.25-6.435l.205.704c.33-.658.865-1.073 1.608-1.244 1.286-.297 2.11.288 2.474 1.756l.942 4.082-1.387.32-.925-4.002c-.09-.392-.242-.662-.455-.812-.213-.15-.512-.18-.896-.09-.56.13-.918.478-1.075 1.048l1.014 4.396-1.388.32-1.426-6.177 1.308-.302zm8.037 1.86l-.47.777.465 2.015-1.388.32-2.025-8.77 1.388-.32 1.168 5.06.308-.643 1.264-2.32 1.667-.383-1.7 3.105 3.373 3.016-1.604.372-2.446-2.226z" fill="#AAA"/><g><path d="M26.813 34.764l17.226-3.977-2.145-9.286L24.67 25.48l2.143 9.286zm-1.188 1.672L45.84 31.77l-2.757-11.94-20.214 4.667 2.755 11.94z" fill="#CFCFCF"/><path d="M50.054 56.802l-.954.22-.767-3.323-15.335 3.54.767 3.323-.954.22c-.82.19-1.332 1.006-1.143 1.824l.503 2.18c.19.817 1.007 1.326 1.828 1.137l17.242-3.98c.82-.19 1.333-1.007 1.144-1.825l-.503-2.18c-.188-.817-1.006-1.327-1.826-1.138" fill="#FFF"/><path fill="#ECECEC" d="M34.887 61.378l13.56-3.13-6.562-28.427-13.56 3.13"/><path fill="#FEBBBA" d="M28.32 26.432l10.712-2.473-4.004-17.34-10.71 2.472"/><path d="M23.767 4.35l9.677-2.234c2.11-.487 4.236.836 4.722 2.94l.99 4.287c.485 2.104-.845 4.224-2.956 4.712l-9.677 2.234c-2.11.486-4.236-.837-4.722-2.94l-.988-4.287c-.486-2.105.844-4.226 2.955-4.713" fill="#ECECEC"/><path d="M34.27 47.2c-.54-2.344.927-4.685 3.28-5.228 2.35-.543 4.697.918 5.238 3.263.542 2.345-.926 4.686-3.278 5.23-2.352.542-4.698-.92-5.24-3.264" fill="#FFF"/><path d="M35.6 46.894c-.37-1.612.638-3.222 2.256-3.595 1.617-.374 3.23.63 3.602 2.242.372 1.612-.637 3.222-2.254 3.596-1.618.373-3.23-.632-3.603-2.244" fill="#FEBBBA"/></g></g></g></svg>