<svg width="200" height="170" viewBox="0 0 200 170" xmlns="http://www.w3.org/2000/svg" xmlns:xlink="http://www.w3.org/1999/xlink"><title>VPA Coins</title><defs><path d="M14.775 5.553h64.642c0 5.11 4.135 9.255 9.235 9.255v18.51c-5.1 0-9.235 4.143-9.235 9.254H14.775c0-5.11-4.134-9.255-9.234-9.255v-18.51c5.1 0 9.235-4.143 9.235-9.254z" id="a"/><mask id="b" x="0" y="0" width="83.111" height="37.019" fill="#fff"><use xlink:href="#a"/></mask></defs><g fill="none" fill-rule="evenodd"><g transform="translate(51 48)"><path d="M92.537 5.953C92.612 2.34 91.392.428 87.082.486L5.7.49C1.174.494.16 2.527.244 5.958l.043 36.307c-.206 4.834 1.938 5.595 5.456 5.465l81.382-.006c3.598.333 5.566-.618 5.456-5.466l-.045-36.305z" fill="#F1F1F1" opacity=".99"/><use stroke="#CFCFCF" mask="url(#b)" stroke-width="3.694" fill="#E5E5E5" xlink:href="#a"/><path d="M36.564 26.445l.142.624h.047l.135-.61 2.502-8.453h2.43L37.915 29.5h-2.368l-3.9-11.493h2.43l2.488 8.438zm8.916-1.113V29.5h-2.305V18.007h4.578c1.32 0 2.36.336 3.118 1.01.76.674 1.138 1.56 1.138 2.66s-.38 1.984-1.137 2.653c-.757.668-1.796 1.002-3.117 1.002H45.48zm0-1.776h2.273c.642 0 1.13-.175 1.46-.525.332-.35.498-.795.498-1.337 0-.553-.164-1.01-.493-1.37-.33-.36-.817-.54-1.464-.54H45.48v3.773zm13.29 3.465h-4.035l-.782 2.48h-2.328l3.954-11.493h2.36L61.88 29.5h-2.33l-.78-2.48zm-3.467-1.806H58.2l-1.42-4.516h-.048l-1.43 4.516z" fill="#AAA"/></g><path fill="#FFF" d="M124.56 83.625h19.71v21.25h-19.71z"/><path d="M146.585 86.185c-1.428 1.437-3.24 2.196-5.148 2.616-1.22.277-2.453.485-3.705.598l-.963.097c-.225 0-.45.016-.675.016-.994.017-2.02-.112-2.998-.242-1.236-.16-2.454-.452-3.625-.872-.674-.242-1.348-.55-1.973-.905-1.043-.564-1.958-1.274-2.567-2.34-.512-.905-.512-1.808.033-2.697.786-1.308 1.99-2.1 3.32-2.713 2.598-1.195 5.356-1.615 8.195-1.568 2.616.033 5.182.42 7.555 1.6.93.45 1.86 1.065 2.615 1.776 1.604 1.567 1.443 3.102-.065 4.637z" fill="#F69A98"/><path d="M147.757 88.257c0 1.015.095 1.99-.023 2.938-.232 1.86-2.385 2.87-3.894 3.528-4.53 1.982-10.27 1.746-14.85.108-2.126-.76-4.51-1.724-4.5-4.4.002-.703 0-1.406 0-2.22.43.383.75.71 1.11.99 2.178 1.71 4.74 2.428 7.412 2.805 2.315.326 4.637.288 6.944-.1 2.422-.405 4.73-1.127 6.71-2.668.375-.293.71-.634 1.09-.98z" fill="#F69A98"/><path d="M147.787 94.87c0 1.014.094 1.99-.023 2.937-.233 1.86-2.385 2.87-3.895 3.528-4.53 1.982-10.272 1.746-14.852.108-2.124-.76-4.508-1.725-4.498-4.4.002-.704 0-1.407 0-2.222.428.385.75.71 1.11.99 2.177 1.713 4.738 2.43 7.41 2.807 2.316.326 4.638.288 6.945-.1 2.422-.405 4.73-1.127 6.71-2.668.374-.294.71-.635 1.092-.98z" fill="#F69A98"/><path d="M147.787 101.363c0 1.015.094 1.99-.023 2.938-.233 1.86-2.385 2.87-3.895 3.53-4.53 1.98-10.272 1.745-14.852.107-2.124-.76-4.508-1.725-4.498-4.4.002-.704 0-1.407 0-2.222.428.384.75.71 1.11.99 2.177 1.712 4.738 2.428 7.41 2.806 2.316.327 4.638.29 6.945-.098 2.422-.406 4.73-1.128 6.71-2.67.374-.29.71-.633 1.092-.98zM123.537 104.923c0 1.014.094 1.99-.023 2.937-.233 1.86-2.385 2.87-3.895 3.53-4.53 1.98-10.272 1.745-14.852.107-2.124-.76-4.508-1.725-4.498-4.4.002-.704 0-1.407 0-2.222.428.384.75.71 1.11.99 2.177 1.712 4.738 2.428 7.41 2.805 2.316.327 4.638.29 6.945-.098 2.422-.407 4.73-1.128 6.71-2.67.374-.29.71-.634 1.092-.98z" fill="#F69A98"/><path d="M122.154 104.14c-1.428 1.438-3.24 2.198-5.148 2.617-1.22.276-2.453.484-3.705.597l-.962.097c-.224 0-.45.017-.674.017-.994.017-2.02-.113-2.998-.243-1.236-.16-2.454-.452-3.625-.872-.673-.242-1.347-.55-1.972-.905-1.042-.565-1.957-1.275-2.566-2.34-.512-.906-.512-1.81.033-2.698.786-1.31 1.99-2.1 3.32-2.714 2.598-1.195 5.356-1.615 8.195-1.567 2.615.03 5.18.418 7.554 1.597.93.453 1.86 1.066 2.615 1.777 1.603 1.568 1.442 3.102-.066 4.637z" fill="#F69A98"/></g></svg>