<svg xmlns="http://www.w3.org/2000/svg" width="62" height="136" viewBox="0 0 62 136">
  <g fill="none" fill-rule="evenodd" transform="translate(3 6)">
    <path fill="#FFEBEB" d="M55.0318072,33.3781058 C55.0318072,15.4554429 42.8868916,0.927409471 27.9065542,0.927409471 C12.9258795,0.927409471 0.781301205,15.4554429 0.781301205,33.3781058 C0.781301205,50.4127354 11.7562892,64.3718886 25.7070361,65.7130919 L21.1818313,73.7375153 L34.6309398,73.7375153 L30.1057349,65.7130919 C44.0568193,64.3718886 55.0318072,50.4127354 55.0318072,33.3781058"/>
    <path fill="#CFCFCF" d="M22.4964819,72.9603565 L33.3166265,72.9603565 L29.4489157,66.1016713 C29.3190361,65.8723231 29.3129639,65.5915097 29.4313735,65.3562897 C29.5501205,65.1207242 29.7778313,64.9642563 30.0345542,64.9393872 C43.6260241,63.6330696 54.2727711,49.7695933 54.2727711,33.3781058 C54.2727711,15.9127577 42.4446265,1.70456825 27.9065542,1.70456825 C13.3681446,1.70456825 1.54033735,15.9127577 1.54033735,33.3781058 C1.54033735,49.7695933 12.186747,63.6330696 25.7782169,64.9393872 C26.0352771,64.9642563 26.262988,65.1207242 26.3813976,65.3562897 C26.5001446,65.5915097 26.4937349,65.8723231 26.3638554,66.1016713 L22.4964819,72.9603565 Z M34.6309398,74.5146741 L21.1818313,74.5146741 C20.9102651,74.5146741 20.6599518,74.3664958 20.5246747,74.1260947 C20.3887229,73.8856936 20.3887229,73.589337 20.5246747,73.3489359 L24.4736867,66.3458719 C17.9388916,65.3894485 11.9192289,61.7184958 7.41763855,55.9139833 C2.64886747,49.7637214 0.0222650602,41.7600223 0.0222650602,33.3781058 C0.0222650602,15.056156 12.5311807,0.150250696 27.9065542,0.150250696 C43.2819277,0.150250696 55.7908434,15.056156 55.7908434,33.3781058 C55.7908434,41.7600223 53.1628916,49.7637214 48.3951325,55.9139833 C43.8935422,61.7184958 37.8742169,65.3894485 31.3390843,66.3458719 L35.2880964,73.3489359 C35.4243855,73.589337 35.4243855,73.8856936 35.2880964,74.1260947 C35.1528193,74.3664958 34.902506,74.5146741 34.6309398,74.5146741 L34.6309398,74.5146741 Z"/>
    <path fill="#F69A98" d="M48.0773494,32.1805905 C48.0773494,45.4278663 38.1764819,56.1668189 25.9634217,56.1668189 C13.7496867,56.1668189 3.84915663,45.4278663 3.84915663,32.1805905 C3.84915663,18.9329694 13.7496867,8.19401671 25.9634217,8.19401671 C38.1764819,8.19401671 48.0773494,18.9329694 48.0773494,32.1805905"/>
    <path fill="#ECECEC" d="M25.9580241 20.9245682C25.9580241 20.4966128 25.8342169 20.1757326 25.5872771 19.962273 25.34 19.7481226 25.0687711 19.6407019 24.772241 19.6407019 24.4757108 19.6407019 24.2034699 19.7481226 23.9565301 19.962273 23.709253 20.1757326 23.5861205 20.4966128 23.5861205 20.9245682L23.5861205 46.0188524C23.5861205 46.4464624 23.709253 46.767688 23.9565301 46.9811476 24.2034699 47.1952981 24.4757108 47.3020279 24.772241 47.3020279 25.0687711 47.3020279 25.34 47.1952981 25.5872771 46.9811476 25.8342169 46.767688 25.9580241 46.4464624 25.9580241 46.0188524L25.9580241 20.9245682zM29.1206747 45.9383733C29.1206747 46.5051811 28.9968675 47.0008357 28.7499277 47.4260279 28.5026506 47.8508747 28.1733976 48.2052591 27.761494 48.4884903 27.3495904 48.7717214 26.8843855 48.9841448 26.3655422 49.1261058 25.8466988 49.2677214 25.3157108 49.3385292 24.772241 49.3385292 24.2284337 49.3385292 23.6971084 49.2677214 23.1782651 49.1261058 22.6594217 48.9841448 22.1938795 48.7717214 21.7819759 48.4884903 21.3704096 48.2052591 21.0408193 47.8508747 20.7938795 47.4260279 20.5466024 47.0008357 20.4234699 46.5051811 20.4234699 45.9383733L20.4234699 21.0047019C20.4234699 20.4378942 20.5466024 19.9418942 20.7938795 19.5170474 21.0408193 19.0918552 21.3704096 18.7378162 21.7819759 18.454585 22.1938795 18.1710084 22.6594217 17.958585 23.1782651 17.8169694 23.6971084 17.6753538 24.2284337 17.604546 24.772241 17.604546 25.3157108 17.604546 25.8466988 17.6753538 26.3655422 17.8169694 26.8843855 17.958585 27.3495904 18.1710084 27.761494 18.454585 28.1733976 18.7378162 28.5026506 19.0918552 28.7499277 19.5170474 28.9968675 19.9418942 29.1206747 20.4378942 29.1206747 21.0047019L29.1206747 45.9383733 29.1206747 45.9383733zM42.8386506 26.4240891C42.8386506 26.3107967 42.7833253 26.2203008 42.6733494 26.1532925 42.5626988 26.0859387 42.4328193 26.0520891 42.2833735 26.0520891 42.1224578 26.0520891 41.9800964 26.0859387 41.8546024 26.1532925 41.7297831 26.2203008 41.6673735 26.3107967 41.6673735 26.4240891L41.6673735 32.703532C41.6673735 32.7601783 41.7173012 32.8309861 41.817494 32.9159554 41.9176867 33.0009248 42.0725301 33.0434095 42.2833735 33.0434095 42.4328193 33.0434095 42.5626988 33.0099053 42.6733494 32.9428969 42.7833253 32.8755432 42.8386506 32.7954095 42.8386506 32.703532L42.8386506 26.4240891zM44.736241 32.471766C44.736241 32.6910975 44.6704578 32.8962674 44.5399036 33.0872758 44.409012 33.2782841 44.2308916 33.4461504 44.0072289 33.5912201 43.7828916 33.7366351 43.5211084 33.8516546 43.2222169 33.936624 42.922988 34.0215933 42.6102651 34.0633872 42.2833735 34.0633872 41.9348916 34.0633872 41.6076627 34.0215933 41.3016867 33.936624 40.9957108 33.8516546 40.7298795 33.7345627 40.5041928 33.5863844 40.2778313 33.4375153 40.0990361 33.2627409 39.9674699 33.0606797 39.8355663 32.8593092 39.7697831 32.6455042 39.7697831 32.4185738L39.7697831 26.6662173C39.7697831 26.4403231 39.8355663 26.2282451 39.9674699 26.0296379 40.0990361 25.831376 40.2778313 25.6583287 40.5041928 25.5094596 40.7298795 25.3616267 40.9957108 25.2445348 41.3016867 25.1595655 41.6076627 25.0745961 41.9348916 25.0321114 42.2833735 25.0321114 42.6102651 25.0321114 42.922988 25.0728691 43.2222169 25.1536936 43.5211084 25.2355543 43.7828916 25.3474652 44.0072289 25.48839 44.2308916 25.6300056 44.409012 25.7978719 44.5399036 25.9923343 44.6704578 26.1871421 44.736241 26.4012925 44.736241 26.6347855L44.736241 32.471766zM40.3034699 17.6263064L37.4980723 36.3371811 35.5151325 36.3371811 38.3205301 17.6263064 40.3034699 17.6263064zM33.6914217 21.3124568C33.6914217 21.2067632 33.6360964 21.1183398 33.5267952 21.047532 33.4161446 20.9763788 33.2808675 20.941493 33.1209639 20.941493 32.970506 20.941493 32.8332048 20.9763788 32.7077108 21.047532 32.5825542 21.1183398 32.5204819 21.2067632 32.5204819 21.3124568L32.5204819 27.5822284C32.5204819 27.6464735 32.5704096 27.718663 32.6709398 27.8001783 32.7704578 27.8816936 32.9205783 27.9221058 33.1209639 27.9221058 33.2808675 27.9221058 33.4161446 27.8906741 33.5267952 27.8267744 33.6360964 27.7632201 33.6914217 27.6817047 33.6914217 27.5822284L33.6914217 21.3124568zM35.589012 27.3432089C35.589012 27.562195 35.5212048 27.7687465 35.3855904 27.9628635 35.2503133 28.1573259 35.0698313 28.3265738 34.8458313 28.4709526 34.6211566 28.6160223 34.3597108 28.7306964 34.0604819 28.8149749 33.761253 28.8999443 33.4478554 28.9420836 33.1209639 28.9420836 32.7842892 28.9420836 32.4634699 28.8999443 32.1591807 28.8149749 31.8552289 28.7306964 31.5910843 28.6142953 31.3664096 28.466117 31.1417349 28.3175933 30.9615904 28.1431643 30.8259759 27.9417939 30.6906988 27.7404234 30.6228916 27.5235097 30.6228916 27.2907075L30.6228916 21.5518217C30.6228916 21.3328357 30.6906988 21.1249025 30.8259759 20.9273315 30.9615904 20.7297604 31.1417349 20.5570585 31.3664096 20.4085348 31.5910843 20.2600111 31.8552289 20.141883 32.1591807 20.053805 32.4631325 19.9660724 32.7836145 19.9215153 33.1199518 19.9215153 33.4468434 19.9215153 33.760241 19.962273 34.0598072 20.0430975 34.3593735 20.1246128 34.6204819 20.2354875 34.845494 20.3767577 35.0698313 20.5176825 35.2503133 20.6872758 35.3855904 20.8851922 35.5212048 21.0824178 35.589012 21.2979499 35.589012 21.5307521L35.589012 27.3432089 35.589012 27.3432089z"/>
    <polyline fill="#ECECEC" points="11.129 18.171 11.129 20.539 15.426 20.539 12.517 48.772 15.688 48.772 18.842 18.171 11.129 18.171"/>
    <path fill="#CFCFCF" d="M28.3768193 59.9780056C27.9746988 59.9780056 27.6390361 59.6550529 27.6191325 59.2391866 27.5988916 58.8105404 27.9217349 58.4457939 28.3403855 58.4250696 36.7144096 58.0064401 43.96 51.1840223 46.7987952 41.0436546 46.9148434 40.6315877 47.3348434 40.3932591 47.7376386 40.510351 48.1407711 40.6288245 48.3738795 41.0591978 48.2588434 41.47161 45.2372048 52.2620279 37.4484819 59.5255265 28.4146024 59.9776602 28.4014458 59.9780056 28.3893012 59.9780056 28.3768193 59.9780056M24.9824096 123.842496C24.7806747 123.842496 24.5802892 123.761326 24.4308434 123.599677 24.142747 123.287777 24.1555663 122.796267 24.4601928 122.500602 24.5526265 122.411142 33.7079518 113.407153 33.2009157 103.231554 32.9131566 97.4584735 30.8404819 94.6610474 27.7027952 90.4267409 26.8331084 89.2527131 25.9330602 88.0386184 24.9665542 86.6200446 20.1367229 79.5365014 27.3445301 73.2055933 27.4180723 73.1427298 27.7395663 72.8660613 28.2179277 72.9082006 28.4874699 73.2377159 28.757012 73.5658496 28.7158554 74.0556323 28.3957108 74.3319554 28.1396627 74.5533593 22.1793735 79.8176602 26.2110361 85.7309749 27.1606747 87.1232981 28.0512771 88.325649 28.9125301 89.4875877 32.101494 93.7913203 34.4049157 96.9009916 34.7169639 103.152802 35.2600964 114.051331 25.9020241 123.243911 25.5036145 123.630072 25.3572048 123.772033 25.1693012 123.842496 24.9824096 123.842496"/>
  </g>
</svg>
