<svg xmlns="http://www.w3.org/2000/svg" width="157" height="98" viewBox="0 0 157 98">
  <g fill="none" fill-rule="evenodd" transform="translate(-1203 -922)">
    <g transform="translate(1209 926)">
      <g transform="translate(43.182 6.61)">
        <polygon fill="#F1F1F1" points="3.629 38.051 54.764 38.051 59.12 68.927 0 68.927"/>
        <polygon fill="#FEBBBA" points="12.34 38.051 46.86 38.051 30.891 52.723"/>
        <path fill="#F69A98" d="M30.9712352,18.9447464 C30.9594024,18.9447464 36.0965965,2.95107953 32.9069374,3.95018116 C29.7377629,4.87115831 28.1483362,18.6245443 28.1483362,18.6222826 L30.9712352,18.9447464"/>
        <path fill="#F69A98" d="M27.8257191,18.5416667 C27.8365052,18.5416667 20.1333584,-0.31593028 24.2769318,0 C28.479145,0.32284958 30.0840384,17.9023205 30.0840384,17.8967391 L27.8257191,18.5416667"/>
        <path fill="#CFCFCF" d="M26.2932882,18.2192029 C25.0984793,23.878877 22.7450722,38.3045861 29.6807671,38.0507246 C36.4947263,37.7934701 34.0781102,23.9128758 32.8262831,18.2192029 L26.2932882,18.2192029"/>
        <path fill="#FEDBDA" d="M15.2436548 29.5054348C17.5605513 29.5142009 19.4376763 27.639182 19.4376763 25.3134058L19.4376763 17.4130435 9.19458545 17.4130435 9.19458545 25.3134058C9.19458545 27.639182 11.0705762 29.5142009 13.3886069 29.5054348L13.6305697 29.5054348 13.6305697 36.6802536 9.92047377 36.6802536 9.92047377 38.0507246 18.7117879 38.0507246 18.7117879 36.6802536 15.001692 36.6802536 15.001692 29.5054348 15.2436548 29.5054348M45.8116187 29.5054348C48.1285152 29.5142009 50.0056402 27.639182 50.0056402 25.3134058L50.0056402 17.4130435 39.7625494 17.4130435 39.7625494 25.3134058C39.7625494 27.639182 41.6385401 29.5142009 43.9565708 29.5054348L44.1985336 29.5054348 44.1985336 36.6802536 40.4884377 36.6802536 40.4884377 38.0507246 49.2797518 38.0507246 49.2797518 36.6802536 45.569656 36.6802536 45.569656 29.5054348 45.8116187 29.5054348"/>
      </g>
      <g transform="translate(92.704)">
        <polygon fill="#F1F1F1" points="15.002 59.333 40.65 59.333 45.65 31.118 51.296 32.085 46.618 64.654 45.086 64.654 45.086 89 43.069 89 40.408 64.654 21.212 64.654 18.55 89 16.534 89 16.534 64.654 15.002 64.654"/>
        <polygon fill="#CFCFCF" points="33.633 51.514 32.746 59.495 12.179 59.172 9.275 88.436 .968 88.436 5.323 84.082 8.953 55.867"/>
        <path fill="#FEBBBA" d="M23.0921222,21.1213768 L18.8981008,21.6856884 C18.8981008,21.6856884 10.9939835,24.990942 21.15642,53.6902174 L33.6578301,51.8360507 C33.6578301,51.8360507 32.1253992,37.4057971 28.334649,29.4248188 C26.5902118,25.7521115 25.5924042,24.2653986 25.4310957,24.0235507 C25.3445033,23.8937238 24.740536,22.9880311 24.1406276,22.25 C23.5407192,21.5119689 23.0921222,21.1213768 23.0921222,21.1213768 Z"/>
        <polygon fill="#FFEBEB" points="23.39 26.845 26.858 30.634 18.228 44.822 4.194 29.667 17.744 39.099"/>
        <path fill="#FFEBEB" d="M5.0564673,14.6883702 C4.16927045,5.82061659 14.0897442,2.51536297 17.2352603,2.03166732 C20.6227392,1.38673978 31.188447,0.741812247 33.1241492,9.44833399 C33.1241492,9.44833399 34.1726545,13.8015949 30.1399416,17.5905441 C26.1072287,21.3794934 21.0260104,22.1050369 21.0260104,22.1050369 C19.8161966,22.3468847 7.71805782,24.4428992 5.0564673,14.6883702 Z"/>
        <ellipse cx="11.13" cy="13.382" fill="#9B9B9B" rx="1.371" ry="1.37"/>
        <path fill="#8A8A8A" d="M35.4510162,7.63043667 C35.4510162,7.63043667 26.6159211,3.72713522 22.5794942,1.37960409 C18.5419355,-0.966227986 -10.5550833,-2.52256467 4.15328741,18.1039935 C4.15328741,18.1039935 27.3323261,8.44315252 35.4510162,7.63043667 Z" transform="matrix(-1 0 0 1 35.485 0)"/>
        <path fill="#FFEBEB" d="M15.6912247,14.0315747 C16.102054,16.2511102 17.4024479,17.8697456 18.5964561,17.6494345 C19.7904643,17.4279907 20.4253825,15.4502877 20.015119,13.2307523 C19.6042896,11.0117832 18.3033299,9.39258135 17.1098875,9.61345883 C15.9158793,9.83433631 15.2803953,11.813172 15.6912247,14.0315747 Z"/>
      </g>
      <g transform="matrix(-1 0 0 1 52.377 0)">
        <polygon fill="#F1F1F1" points="15.082 59.333 40.73 59.333 45.731 31.118 51.377 32.085 46.699 64.654 45.166 64.654 45.166 89 43.15 89 40.488 64.654 21.293 64.654 18.631 89 16.615 89 16.615 64.654 15.082 64.654"/>
        <polygon fill="#CFCFCF" points="33.633 51.514 32.746 59.495 12.179 59.172 9.275 88.436 .968 88.436 5.323 84.082 8.953 55.867"/>
        <path fill="#FEBBBA" d="M23.0921222,21.1213768 L18.8981008,21.6856884 C18.8981008,21.6856884 10.9939835,24.990942 21.15642,53.6902174 L33.6578301,51.8360507 C33.6578301,51.8360507 32.1253992,37.4057971 28.334649,29.4248188 C26.5902118,25.7521115 25.5924042,24.2653986 25.4310957,24.0235507 C25.3445033,23.8937238 24.740536,22.9880311 24.1406276,22.25 C23.5407192,21.5119689 23.0921222,21.1213768 23.0921222,21.1213768 Z"/>
        <polygon fill="#FFEBEB" points="23.39 26.845 26.858 30.634 18.228 44.822 4.194 29.667 17.744 39.099"/>
        <path fill="#FFEBEB" d="M5.0564673,14.6883702 C4.16927045,5.82061659 14.0897442,2.51536297 17.2352603,2.03166732 C20.6227392,1.38673978 31.188447,0.741812247 33.1241492,9.44833399 C33.1241492,9.44833399 34.1726545,13.8015949 30.1399416,17.5905441 C26.1072287,21.3794934 21.0260104,22.1050369 21.0260104,22.1050369 C19.8161966,22.3468847 7.71805782,24.4428992 5.0564673,14.6883702 Z"/>
        <ellipse cx="11.13" cy="13.382" fill="#9B9B9B" rx="1.371" ry="1.37"/>
        <path fill="#8A8A8A" d="M0.0339054997,7.63043667 C0.0339054997,7.63043667 8.86900061,3.72713522 12.9054275,1.37960409 C16.9429862,-0.966227986 46.0400051,-2.52256467 31.3316343,18.1039935 C31.3316343,18.1039935 8.15259566,8.44315252 0.0339054997,7.63043667 Z"/>
        <path fill="#FFEBEB" d="M15.6912247,14.0315747 C16.102054,16.2511102 17.4024479,17.8697456 18.5964561,17.6494345 C19.7904643,17.4279907 20.4253825,15.4502877 20.015119,13.2307523 C19.6042896,11.0117832 18.3033299,9.39258135 17.1098875,9.61345883 C15.9158793,9.83433631 15.2803953,11.813172 15.6912247,14.0315747 Z"/>
      </g>
    </g>
    <ellipse cx="1282" cy="1013" fill="#CFCFCF" rx="9" ry="1"/>
    <rect width="4" height="13" x="1279.88" y="1000" fill="#CFCFCF"/>
  </g>
</svg>
