<svg xmlns="http://www.w3.org/2000/svg" width="170" height="144" viewBox="0 0 170 144">
  <g fill="none" fill-rule="evenodd" transform="translate(13 27)">
    <g transform="translate(42.884 6.685)">
      <ellipse cx="29.612" cy="81.293" fill="#DADADA" rx="8.938" ry="1.011"/>
      <rect width="3.972" height="13.146" x="27.507" y="68.147" fill="#DADADA"/>
      <polygon fill="#F1F1F1" points="3.604 38.478 54.387 38.478 58.712 69.701 0 69.701"/>
      <polygon fill="#FEBBBA" points="12.255 38.478 46.537 38.478 30.678 53.315"/>
      <path fill="#FEBBBA" d="M30.7576405,19.1576087 C30.7458893,19.1576087 35.8476544,2.98423772 32.679993,3.99456522 C29.5326749,4.92589042 27.9542097,18.8338089 27.9542097,18.8315217 L30.7576405,19.1576087"/>
      <path fill="#FEBBBA" d="M27.6338176,18.75 C27.6445293,18.75 19.9945077,-0.319480059 24.1095046,0 C28.2827371,0.326477104 29.8765622,18.1034702 29.8765622,18.0978261 L27.6338176,18.75"/>
      <path fill="#E1E1E1" d="M26.1119552,18.423913 C24.9253863,24.147179 22.5882096,38.7349747 29.4760721,38.4782609 C36.2430385,38.2181159 33.8430887,24.1815598 32.599895,18.423913 L26.1119552,18.423913"/>
      <path fill="#FDDADA" d="M15.1385262 29.8369565C17.4394441 29.8458211 19.3036233 27.9497346 19.3036233 25.5978261L19.3036233 17.6086957 9.13117451 17.6086957 9.13117451 25.5978261C9.13117451 27.9497346 10.9942274 29.8458211 13.2962717 29.8369565L13.5365657 29.8369565 13.5365657 37.0923913 9.85205671 37.0923913 9.85205671 38.4782609 18.5827411 38.4782609 18.5827411 37.0923913 14.8982321 37.0923913 14.8982321 29.8369565 15.1385262 29.8369565M45.4956765 29.8369565C47.7965944 29.8458211 49.6607737 27.9497346 49.6607737 25.5978261L49.6607737 17.6086957 39.4883249 17.6086957 39.4883249 25.5978261C39.4883249 27.9497346 41.3513777 29.8458211 43.653422 29.8369565L43.8937161 29.8369565 43.8937161 37.0923913 40.2092071 37.0923913 40.2092071 38.4782609 48.9398915 38.4782609 48.9398915 37.0923913 45.2553825 37.0923913 45.2553825 29.8369565 45.4956765 29.8369565"/>
    </g>
    <g transform="translate(92.065)">
      <polygon fill="#F1F1F1" points="14.898 60 40.369 60 45.335 31.467 50.942 32.446 46.297 65.38 44.775 65.38 44.775 90 42.772 90 40.129 65.38 21.066 65.38 18.423 90 16.42 90 16.42 65.38 14.898 65.38"/>
      <polygon fill="#E1E1E1" points="33.401 52.092 32.52 60.163 12.095 59.837 9.211 89.429 .961 89.429 5.286 85.027 8.891 56.495"/>
      <path fill="#FBCFCE" d="M22.9328662,21.3586957 L18.7677691,21.9293478 C18.7677691,21.9293478 10.9181629,25.2717391 21.0105137,54.2934783 L33.4257071,52.4184783 C33.4257071,52.4184783 31.9038447,37.826087 28.1392376,29.7554348 C26.406831,26.0414611 25.4159049,24.5380435 25.2557088,24.2934783 C25.1697136,24.1621926 24.5699116,23.2463235 23.9741405,22.5 C23.3783694,21.7536765 22.9328662,21.3586957 22.9328662,21.3586957 Z"/>
      <polygon fill="#FFEBEB" points="23.228 27.147 26.673 30.978 18.102 45.326 4.165 30 17.622 39.538"/>
      <path fill="#FFEBEB" d="M5.02159511,14.8534081 C4.14051687,5.88601678 13.9925736,2.54362548 17.1163964,2.05449504 C20.4805134,1.40232113 30.9733543,0.750147216 32.8957068,9.55449504 C32.8957068,9.55449504 33.9369811,13.956669 29.93208,17.7881907 C25.9271789,21.6197124 20.8810035,22.3534081 20.8810035,22.3534081 C19.6795331,22.5979733 7.66482984,24.7175385 5.02159511,14.8534081 Z"/>
      <ellipse cx="11.054" cy="13.533" fill="#AAA" rx="1.362" ry="1.386"/>
      <path fill="#AAA" d="M35.2065265,7.71617192 C35.2065265,7.71617192 26.4323631,3.76901314 22.4237736,1.39510526 C18.4140601,-0.97708448 -10.4822896,-2.55090809 4.12464405,18.3074092 C4.12464405,18.3074092 27.1438273,8.5380194 35.2065265,7.71617192 Z" transform="matrix(-1 0 0 1 35.24 0)"/>
      <path fill="#FFEBEB" d="M15.5830093,14.1892329 C15.9910054,16.4337069 17.282431,18.0705293 18.4682047,17.8477428 C19.6539784,17.6238108 20.2845178,15.6238865 19.8770837,13.3794124 C19.4690876,11.1355111 18.1771,9.49811597 16.9918883,9.72147522 C15.8061146,9.94483447 15.1750133,11.9459042 15.5830093,14.1892329 Z"/>
    </g>
    <g transform="matrix(-1 0 0 1 52.016 0)">
      <polygon fill="#F1F1F1" points="14.978 60 40.45 60 45.416 31.467 51.022 32.446 46.377 65.38 44.855 65.38 44.855 90 42.852 90 40.209 65.38 21.146 65.38 18.503 90 16.5 90 16.5 65.38 14.978 65.38"/>
      <polygon fill="#E1E1E1" points="33.401 52.092 32.52 60.163 12.095 59.837 9.211 89.429 .961 89.429 5.286 85.027 8.891 56.495"/>
      <path fill="#FBCFCE" d="M22.9328662,21.3586957 L18.7677691,21.9293478 C18.7677691,21.9293478 10.9181629,25.2717391 21.0105137,54.2934783 L33.4257071,52.4184783 C33.4257071,52.4184783 31.9038447,37.826087 28.1392376,29.7554348 C26.406831,26.0414611 25.4159049,24.5380435 25.2557088,24.2934783 C25.1697136,24.1621926 24.5699116,23.2463235 23.9741405,22.5 C23.3783694,21.7536765 22.9328662,21.3586957 22.9328662,21.3586957 Z"/>
      <polygon fill="#FFEBEB" points="23.228 27.147 26.673 30.978 18.102 45.326 4.165 30 17.622 39.538"/>
      <path fill="#FFEBEB" d="M5.02159511,14.8534081 C4.14051687,5.88601678 13.9925736,2.54362548 17.1163964,2.05449504 C20.4805134,1.40232113 30.9733543,0.750147216 32.8957068,9.55449504 C32.8957068,9.55449504 33.9369811,13.956669 29.93208,17.7881907 C25.9271789,21.6197124 20.8810035,22.3534081 20.8810035,22.3534081 C19.6795331,22.5979733 7.66482984,24.7175385 5.02159511,14.8534081 Z"/>
      <ellipse cx="11.054" cy="13.533" fill="#AAA" rx="1.362" ry="1.386"/>
      <path fill="#AAA" d="M0.0336716687,7.71617192 C0.0336716687,7.71617192 8.80783509,3.76901314 12.8164246,1.39510526 C16.826138,-0.97708448 45.7224878,-2.55090809 31.1155541,18.3074092 C31.1155541,18.3074092 8.09637087,8.5380194 0.0336716687,7.71617192 Z"/>
      <path fill="#FFEBEB" d="M15.5830093,14.1892329 C15.9910054,16.4337069 17.282431,18.0705293 18.4682047,17.8477428 C19.6539784,17.6238108 20.2845178,15.6238865 19.8770837,13.3794124 C19.4690876,11.1355111 18.1771,9.49811597 16.9918883,9.72147522 C15.8061146,9.94483447 15.1750133,11.9459042 15.5830093,14.1892329 Z"/>
    </g>
  </g>
</svg>
