<svg xmlns="http://www.w3.org/2000/svg" width="72" height="72" viewBox="0 0 72 72">
  <g fill="none" fill-rule="evenodd" transform="translate(4.446 13.174)">
    <polygon fill="#F1F1F1" points="26.055 35.94 15.309 27.538 .775 16.174 .775 42.551 50.822 42.551 50.822 16.194"/>
    <polygon fill="#F1F1F1" points="19.29 4 32.71 4 26.043 0"/>
    <polygon fill="#F1F1F1" points="44.452 21.426 50.85 16.186 44.452 11.2"/>
    <polygon fill="#F1F1F1" points=".77 21.426 7.168 16.186 .77 11.2" transform="matrix(-1 0 0 1 7.939 0)"/>
    <polygon fill="#FBCFCE" points="6.471 21.018 16.337 28.766 26.001 36.356 45.123 21.022 45.123 13.8 45.123 11.975 45.123 3.757 35.815 3.757 32.896 3.757 18.935 3.757 15.991 3.757 6.471 3.757 6.471 12.033 6.471 13.85"/>
    <g transform="translate(17.66 10.085)">
      <path fill="#FFF" d="M8.16692759,17.1947682 C3.98431468,17.1947682 0.438031921,14.301286 0.438031921,9.67328069 C0.438031921,4.70743208 4.08494363,0.416710658 9.74976186,0.416710658 C14.1880907,0.416710658 17.1726271,3.35717768 17.1726271,7.38277043 C17.1726271,10.998924 15.0292304,13.121072 12.6313016,13.121072 C11.6102137,13.121072 10.6666692,12.4699965 10.7442127,10.998924 L10.6418079,10.998924 C9.74916992,12.4213337 8.57477083,13.121072 7.04461878,13.121072 C5.56537314,13.121072 4.28975315,11.9872834 4.28975315,10.0827199 C4.28975315,7.09414936 6.79008671,4.37070749 10.3363695,4.37070749 C11.4320412,4.37070749 12.4022227,4.58773264 13.064598,4.87691305 L12.1985971,9.23978974 C11.8150232,11.0716386 12.1210536,11.9162468 12.9639691,11.9397392 C14.2644503,11.9649096 15.7188347,10.3249155 15.7188347,7.52819966 C15.7188347,4.03342356 13.4996703,1.52588815 9.54495234,1.52588815 C5.3872007,1.52588815 1.89241629,4.63639549 1.89241629,9.52841081 C1.89241629,13.5540036 4.67214318,16.0369279 8.44809673,16.0369279 C9.9024811,16.0369279 11.2538688,15.7477475 12.299818,15.1934384 L12.7082531,16.2304606 C11.3047752,16.9290802 9.87702789,17.1947682 8.16692759,17.1947682 Z"/>
      <path fill="#FBCFCE" d="M11.3047752,5.81605023 C11.0502431,5.7444543 10.6157628,5.64712859 10.0291552,5.64712859 C7.7851295,5.64712859 5.97380831,7.64733975 5.97380831,9.98651287 C5.97380831,11.0470275 6.53377885,11.8183617 7.65786347,11.8183617 C9.1371091,11.8183617 10.4884968,10.0351757 10.7696659,8.5394921 L11.3047752,5.81605023 Z"/>
    </g>
  </g>
</svg>
