<svg xmlns="http://www.w3.org/2000/svg" width="108" height="368" viewBox="0 0 108 368">
  <g fill="none" fill-rule="evenodd" transform="translate(3 10)">
    <g transform="translate(19 315)">
      <path fill="#AAA" d="M10.3347143,28.7306932 C17.2739286,25.5301944 28.4652571,14.9264145 25.0634143,6.97395785 L1.38907143,26.8985948 C1.38907143,26.8985948 3.39474286,31.9319485 10.3347143,28.7306932 Z"/>
      <path fill="#9B9B9B" d="M0.603914286,23.1209321 C0.299542857,28.7548993 4.46837143,29.3638337 8.09811429,28.2980094 C11.7293714,27.232185 28.1056143,16.6284052 24.5659714,4.039726 L10.8147429,10.3317963 C10.8147429,10.3317963 0.908285714,17.4869649 0.603914286,23.1209321 Z"/>
      <path fill="#FFEBEB" d="M14.5851286,0.55404918 C14.5851286,0.55404918 15.9470681,5.75322415 11.8147429,10.3317963 C10.283514,12.0283814 9.563,13.8795012 9.23364286,15.154103 C10.4677857,15.363637 12.8974571,15.9892131 14.3466286,17.7471803 C19.9396429,16.2721218 26.0334284,7.48808609 24.8291364,1.64937471 L14.5851286,0.55404918 Z"/>
    </g>
    <g transform="matrix(-1 0 0 1 81.85 315)">
      <path fill="#AAA" d="M10.3347143,28.7306932 C17.2739286,25.5301944 28.4652571,14.9264145 25.0634143,6.97395785 L1.38907143,26.8985948 C1.38907143,26.8985948 3.39474286,31.9319485 10.3347143,28.7306932 Z"/>
      <path fill="#9B9B9B" d="M0.603914286,23.1209321 C0.299542857,28.7548993 4.46837143,29.3638337 8.09811429,28.2980094 C11.7293714,27.232185 28.1056143,16.6284052 24.5659714,4.039726 L10.8147429,10.3317963 C10.8147429,10.3317963 0.908285714,17.4869649 0.603914286,23.1209321 Z"/>
      <path fill="#FFEBEB" d="M14.6519618,0.557844194 C14.7562399,0.557844194 15.9470681,5.75322415 11.8147429,10.3317963 C10.283514,12.0283814 9.563,13.8795012 9.23364286,15.154103 C10.4677857,15.363637 12.8974571,15.9892131 14.3466286,17.7471803 C19.9396429,16.2721218 26.0334284,7.48808609 24.8291364,1.64937471 L14.6519618,0.557844194 Z"/>
    </g>
    <path fill="#FFEBEB" d="M50.3291714,0.372727273 C50.3291714,0.372727273 43.9744714,98.7772727 43.0643857,127.320455 C43.0643857,127.320455 36.7089286,130.504545 32.8830857,127.320455 C32.8830857,127.320455 32.2304286,40.1515152 24.2085,40.1515152 C16.1858143,40.1515152 19.9715286,127.391667 19.9715286,127.391667 C19.9715286,127.391667 15.8072429,131.404545 9.7501,127.391667 C9.7501,127.391667 3.74974286,86.019697 0.332757143,0.372727273 C0.332757143,0.372727273 17.6190857,6.03030303 50.3291714,0.372727273 Z" transform="translate(23.986 191.667)"/>
    <path fill="#6D6F76" d="M73.3116714,189.108333 C46.8654286,193.89697 22.8534,189.108333 22.8534,189.108333 C21.4277,237.249242 26.7186143,282.762879 26.7186143,282.762879 C46.7056714,286.295455 60.2327857,285.085606 66.6011143,284.028788 C67.3499286,277.263636 69.4646286,257.297727 69.2692857,249.209848 C69.2692857,249.209848 70.4383143,266.369697 68.6666,283.64697 C70.0748857,283.355303 70.7934143,283.137121 70.7934143,283.137121 C76.4613857,247.127273 73.3116714,189.108333 73.3116714,189.108333"/>
    <path fill="#E1CCBA" d="M22.1242714 72.3015152C22.1242714 72.3015152 19.5303 66.7151515 17.3398857 70.0833333 15.1858143 73.394697 19.3334429 76.7106061 23.9141571 79.2037879 23.1214286 76.8545455 22.5656857 74.5166667 22.1787857 72.3287879L22.1242714 72.3015152M84.1039857 70.0833333C82.5821286 67.744697 80.8687143 69.7219697 79.9616571 71.1492424 79.5989857 73.5575758 79.0379429 76.1901515 78.1770714 78.8469697 82.489 76.3984848 86.1566 73.2378788 84.1039857 70.0833333"/>
    <path fill="#FFEBEB" d="M61.8939571,108.487121 C53.7902571,105.333333 56.9414857,95.8742424 56.9414857,95.8742424 L44.9763571,95.8742424 C44.9763571,95.8742424 48.1275857,105.333333 40.0238857,108.487121 C31.9201857,111.640152 14.6686857,111.654545 15.1191857,121.565152 C15.5689286,131.472727 24.6690286,182.787879 50.9593,182.787879 C77.2495714,182.787879 86.3489143,131.472727 86.8001714,121.565152 C87.2491571,111.654545 69.2412714,111.640152 61.1368143,108.487121"/>
    <path fill="#FFEBEB" d="M80.5355714,60.530303 C80.5355714,60.530303 78.3527286,38.5143939 51.0297143,38.5143939 C19.0843429,38.5143939 21.3747,60.530303 21.3747,60.530303 C21.3747,60.530303 21.0158143,65.7462121 22.1787857,72.3287879 C22.5656857,74.5166667 23.1214286,76.8545455 23.9141571,79.2037879 C27.2047,88.9560606 34.5860857,98.8818182 51.0168429,98.8818182 C67.6482429,98.8818182 74.9781429,88.7121212 78.1770714,78.8469697 C79.0379429,76.1901515 79.5989857,73.5575758 79.9616571,71.1492424 C80.8687143,65.1340909 80.5355714,60.530303 80.5355714,60.530303"/>
    <path fill="#AAA" d="M11.3031857,175.654545 L11.3031857,175.653788 C8.8879,154.905303 10.7489571,126.939394 12.1095429,120.926515 C12.2375,120.361364 12.4177,119.833333 12.6327286,119.330303 C13.2036143,117.993939 14.0622143,116.87197 15.1025286,115.925 L15.1108571,115.916667 L15.1108571,115.917424 C20.6417857,110.893182 31.3008429,110.888636 31.3008429,110.888636 L50.9676286,118.937879 L69.5751714,110.667424 C90.6971857,112.150758 86.8001714,121.565152 86.8001714,121.565152 C86.8001714,195.239394 78.6010714,198.869697 78.6010714,198.869697 C76.9505,206.547727 66.6223143,205.585606 66.6223143,205.585606 C66.6223143,205.585606 45.0823571,204.879545 35.2024,205.624242 C25.3224429,206.368182 23.3349429,198.869697 23.3349429,198.869697 C19.1888286,199.671212 16.2602,196.118182 14.2318143,190.135606 C14.2318143,190.135606 11.9066286,182.102273 11.3031857,175.653788"/>
    <path fill="#FEBBBA" d="M50.9593,120.926515 C60.7877714,120.926515 67.2068286,113.824242 69.5751714,110.667424 C66.4035,109.99697 63.3878,109.362879 61.1368143,108.487121 C59.8375571,107.981818 58.8298,107.312121 58.0499429,106.547727 L52.1396857,109.184091 L50.9593,116.943939 L49.5593429,108.867424 L43.9557286,106.456061 C43.1637571,107.259091 42.1317714,107.961364 40.7810286,108.487121 C38.2847286,109.458333 34.8480571,110.132576 31.3008429,110.888636 C34.1863143,114.143182 41.3519143,120.926515 50.9593,120.926515"/>
    <polyline fill="#F69A98" points="49.559 108.867 45.406 118.677 38.363 109.273 49.559 108.867"/>
    <polyline fill="#F69A98" points="52.14 109.184 63.554 109.273 57.227 118.248 52.14 109.184"/>
    <path fill="#F69A98" d="M45.5502714 104.090909C45.5502714 104.090909 39.7869 107.170455 38.3634714 109.273485L45.4064143 116.943939 49.5593429 108.867424 45.5502714 104.090909M56.3683286 104.090909C56.3683286 104.090909 62.1309429 107.170455 63.5543714 109.273485L57.2269286 116.514394 52.1396857 109.184091 56.3683286 104.090909"/>
    <g transform="translate(30 132)">
      <polygon fill="#F69A98" points="40.874 .646 2.91 .646 .122 3.989 3.785 47.35 40.874 48.399"/>
      <polygon fill="#FFF" points="36.739 51.016 2.096 50.378 1.718 5.203 4.496 1.779 39.265 1.779 39.265 47.336"/>
      <polygon fill="#F69A98" points=".122 51.742 38.086 51.742 38.086 3.989 .122 3.989"/>
    </g>
    <path fill="#FFEBEB" d="M55.1599286,173.435606 C55.1599286,173.435606 60.2873,168.486364 60.1744857,165.438636 C60.1744857,165.438636 61.7213286,161.758333 62.773,166.982576 C62.773,166.982576 70.6927143,166.733333 68.3932714,160.973485 C68.3932714,160.973485 82.1838714,170.961364 55.9541714,179.621212 L55.1599286,173.435606"/>
    <path fill="#FEBBBA" d="M85.7795429,115.900758 C85.7795429,115.900758 113.995229,171.521212 83.6587857,180.890152 C53.3208286,190.259848 38.5338286,177.738636 38.5338286,177.738636 L44.4933,168.784091 C44.4933,168.784091 86.4950429,176.976515 83.5747429,154.747727 C80.6536857,132.518182 77.6508571,123.45 85.7795429,115.900758"/>
    <path fill="#FEBBBA" d="M14.1167286,116.943939 C14.1167286,116.943939 -15.8403857,171.643939 14.1848714,181.968939 C44.2116429,192.292424 59.3870571,180.243939 59.3870571,180.243939 L53.7130286,171.105303 C53.7130286,171.105303 11.4727857,177.966667 15.0942,155.840909 C18.7148571,133.715152 20.6607143,125.168939 14.1167286,116.943939"/>
    <path fill="#6C6C6C" d="M34.4195143,50.1356061 C43.0327714,59.9674242 56.7582571,63.9060606 69.1307286,65.6863636 C84.6332286,67.9159091 74.6692286,87.6098485 70.6806,96.1681818 C68.8929857,100.003788 66.4216714,104.013636 65.5471714,108.197727 C63.3242,118.82803 63.5922286,129.734091 68.5931571,139.396212 C71.4975571,145.007576 71.9927286,150.451515 70.9153143,156.406061 C71.9283714,155.305303 73.4101,155.100758 74.7631143,154.275 C77.3396714,152.700758 78.4920429,150.023485 79.9760429,147.449242 C82.4761286,143.113636 84.4038143,138.363636 85.3737143,133.381818 C86.2724429,128.763636 86.5889286,124.386364 86.6457143,119.760606 C86.7070429,114.734091 88.1176,109.686364 88.8225,104.687879 C90.3829714,93.6219697 91.0416857,82.3613636 89.9574571,71.2181818 C88.3545857,54.7424242 83.4255857,40.3734848 67.5520857,32.7530303 C55.9238857,27.1704545 42.0454571,26.894697 30.5982143,33.0984848 C28.0511857,34.4787879 25.7646143,34.8121212 23.6007,37.1636364 C20.0504571,41.0227273 17.3224714,47.6189394 15.8823857,52.5909091 C14.9776,55.7128788 14.5210429,58.7515152 14.2219714,61.9522727 C13.4701286,69.9969697 14.5725286,77.6318182 16.2427857,85.630303 C17.3292857,90.8363636 19.5969286,96.0772727 20.0391,101.391667 C20.7114429,109.484091 17.7305714,115.545455 15.5106286,122.962121 C12.2496143,133.857576 15.9497714,141.896212 23.6135714,149.640909 C17.6662143,139.321212 31.2296714,134.212121 36.0791714,127.317424 C40.0299429,121.701515 39.6362286,112.528788 37.0369571,106.479545 C33.8940571,99.1636364 27.6090143,93.7234848 25.2088714,85.8143939 C23.3803714,79.7901515 23.5749571,72.4015152 26.3074857,66.6598485 C27.5272429,64.0969697 29.5806143,62.5492424 31.0131286,60.1356061 C31.7869286,58.8325758 35.6377571,51.5265152 34.4195143,50.1356061"/>
    <g transform="translate(30 132)">
      <polygon fill="#F69A98" points="40.874 .646 2.91 .646 .122 3.989 3.785 20.35 40.874 21.399"/>
      <polygon fill="#FFF" points="36.739 24.016 2.096 23.378 1.718 5.203 4.496 1.779 39.265 1.779 39.265 22.336"/>
      <polygon fill="#F69A98" points=".122 24.742 38.086 24.742 38.086 3.989 .122 3.989"/>
    </g>
    <path fill="#9B9B9B" d="M64.6222248 73.5210314C64.9358175 73.5921805 65.1239731 73.9657131 65.1396527 74.285884 65.1788518 75.086311 64.8574193 75.9223126 64.230234 76.3136325 63.6500876 76.6782715 62.8896254 76.5359734 62.4505957 75.9845681 62.2624401 75.74444 62.1683623 75.45095 62.1526827 75.1485665 62.0899641 74.9618002 62.097804 74.7572466 62.223241 74.5615866 62.2389207 74.5349057 62.2546003 74.5260121 62.2702799 74.5082248 62.3486781 74.3303521 62.4662753 74.1791604 62.6309115 74.0546495 62.779868 73.9568195 62.9366643 73.9034577 63.1013005 73.8678832 63.5324904 73.5477123 64.0734377 73.4143078 64.6222248 73.5210314M38.9969434 73.3650443C39.2501296 73.605774 39.4139559 73.9292546 39.3990626 74.3053949 39.3841693 75.0877666 38.684184 75.7347278 37.9246254 75.7572962 37.1948535 75.7723418 36.5321015 75.1780402 36.3980617 74.4708966 36.2491287 73.6960477 36.7406077 72.9813813 37.4778263 72.7782655 38.0735585 72.6127638 38.684184 72.8610164 38.9969434 73.3650443"/>
    <path fill="#F69A98" d="M46.4951857,89.9143939 C46.4951857,89.9143939 51.1985571,91.1030303 56.0056571,89.9143939 C56.0056571,89.9143939 51.8186571,94.4128788 46.4951857,89.9143939"/>
    <path fill="#FFEBEB" d="M42.9737143,171.067424 C42.9737143,171.067424 38.0045857,165.958333 38.2143143,162.915152 C38.2143143,162.915152 36.7840714,159.187121 35.5681,164.375758 C35.5681,164.375758 27.6605,163.87803 30.1401429,158.193182 C30.1401429,158.193182 16.0406286,167.739394 41.9848857,177.224242 L42.9737143,171.067424"/>
    <path fill="#5D5D5D" d="M49.5071,0.460606061 L0.750128571,27.6992424 L18.3612714,37.2 L18.3612714,28.8401515 C50.7041429,13.2212121 81.5372714,28.8401515 81.5372714,28.8401515 L81.5372714,37.2 L96.8323143,27.6992424 L49.5071,0.460606061"/>
    <path fill="#F69A98" d="M96.8323143,26.9416667 L94.3307143,47.4621212 C94.3307143,47.4621212 94.4829,47.6257576 94.8864571,47.8227273 L95.9706857,44.5007576 L95.9706857,48.1992424 C96.6309143,48.3621212 97.5266143,48.4909091 98.7380429,48.5007576 C99.4656571,48.5068182 100.060014,48.4424242 100.544586,48.3439394 L99.9684,43.7833333 L101.432714,48.0871212 C102.168657,47.7977273 102.428357,47.4621212 102.428357,47.4621212 L96.8323143,26.9416667"/>
    <path fill="#424242" d="M18.3612714,28.0825758 L18.3612714,43.930303 C18.3612714,43.930303 45.5078714,52.2522727 81.5372714,43.3477273 L81.5372714,28.0825758 C81.5372714,28.0825758 50.7041429,12.4636364 18.3612714,28.0825758"/>
  </g>
</svg>
