<svg xmlns="http://www.w3.org/2000/svg" width="171" height="143" viewBox="0 0 171 143">
  <g fill="none" fill-rule="evenodd" transform="translate(8 6)">
    <path fill="#8A8A8A" d="M138.342463,34.2146154 C132.224163,39.0023077 129.17532,32.03 128.930985,26.17 C128.600369,18.2830769 129.10431,5.67307692 120.496084,1.78461538 C112.247488,-1.94230769 100.865296,4.07846154 101.541798,13.5415385 L100.811847,33.0392308 C109.441453,39.3969231 120.313596,53.2138462 132.631897,45.5923077 C135.951798,43.5384615 139.133498,38.1746154 138.342463,34.2146154"/>
    <polyline fill="#FFEBEB" points="103.549 129.792 104.982 78.635 106.784 129.792 109.028 129.792 111.764 71.767 98.888 71.767 100.929 129.792 103.549 129.792"/>
    <polyline fill="#AAA" points="104.081 129.792 103.521 126.459 101.695 125.735 96.367 129.792 104.081 129.792"/>
    <polyline fill="#AAA" points="113.959 129.792 108.633 125.735 106.807 126.459 106.247 129.792 113.959 129.792"/>
    <path fill="#8A8A8A" d="M123.005862,36.3784615 C125.915739,29.1746154 125.146084,20.3407692 119.099557,16.0946154 C113.323325,12.0361538 103.945443,10.7992308 98.6510099,12.1707692 C88.7615517,14.7315385 83.6961823,22.1069231 86.2555911,36.0430769 C98.4753941,35.0307692 110.953276,34.3784615 123.005862,36.3784615"/>
    <path fill="#FFEBEB" d="M112.662857,47.0646154 C116.124015,46.1038462 119.028547,44.4323077 120.961084,42.3223077 C122.130837,42.3076923 123.577759,41.0630769 124.463473,39.19 C125.518695,36.9576923 125.375911,34.6846154 124.146601,34.1138462 C123.864089,33.9815385 121.355074,33.9569231 121.022931,34.0161538 C119.472167,28.5815385 112.298645,24.4723077 103.677438,24.4723077 C95.9793596,24.4723077 91.6271429,27.7507692 89.2089901,32.3230769 C88.782931,31.9838462 88.3194581,31.8161538 87.8567488,31.8853846 C86.51367,32.0807692 85.7081281,34.1515385 86.0601232,36.5092308 C86.409064,38.8676923 87.7819212,40.6207692 89.1265271,40.4253846 C89.2021182,40.4138462 89.2761823,40.3946154 89.3494828,40.3723077 C91.0140148,43.2992308 94.3888916,45.6623077 97.1987438,46.9361538 L85.992931,77.9646154 L98.9022167,54.5907692 L112.219236,54.6130769 L128.351453,76.1215385 L112.662857,47.0646154"/>
    <path fill="#FEBBBA" d="M100.796576,71.0269231 L98.1715025,53.1415385 C98.1715025,53.1415385 103.033005,50.0592308 104.79298,50.0276923 C106.746133,49.9946154 112.219236,53.1415385 112.219236,53.1415385 L109.224606,70.9453846 L100.796576,71.0269231"/>
    <path fill="#9B9B9B" d="M98.2547291 34.5023077C98.2547291 35.4292308 97.5537931 36.1823077 96.6925123 36.1823077 95.830468 36.1823077 95.1302956 35.4292308 95.1302956 34.5023077 95.1302956 33.5738462 95.830468 32.8223077 96.6925123 32.8223077 97.5537931 32.8223077 98.2547291 33.5738462 98.2547291 34.5023077M109.313177 35.2492308C109.313177 36.1761538 108.614532 36.9292308 107.753251 36.9292308 106.88968 36.9292308 106.191034 36.1761538 106.191034 35.2492308 106.191034 34.3207692 106.88968 33.5684615 107.753251 33.5684615 108.614532 33.5684615 109.313177 34.3207692 109.313177 35.2492308"/>
    <path fill="#F1F1F1" d="M98.1646305,96.2930769 C98.1646305,96.2930769 85.6279557,69.9953846 106.281897,70.59 C124.347414,71.1115385 113.25766,96.5376923 113.25766,96.5376923 C113.25766,96.5376923 106.442241,99.2361538 98.1646305,96.2930769"/>
    <path fill="#FEBBBA" d="M82.1568719,80.8815385 C84.5040148,77.8376923 85.8669458,77.53 86.5457389,77.7130769 C87.7284729,78.0307692 88.5011823,80.0746154 88.953202,82.42 L82.1568719,80.8815385 Z M75.7507143,79.4315385 L64.2959852,109.6 L92.2792118,115.67 L95.0730296,83.8046154 L90.5009113,82.7707692 C90.0290394,79.9584615 89.0310837,76.8607692 86.9244581,76.2915385 C85.1369951,75.8084615 83.0509852,77.2015385 80.5969458,80.5284615 L75.7507143,79.4315385 L75.7507143,79.4315385 Z"/>
    <polyline fill="#CFCFCF" points="131.599 106.917 154.239 94.041 139.633 71.6 122.835 78.958 131.599 106.917"/>
    <path fill="#FBCFCE" d="M124.506232,80.8115385 C124.666576,76.9592308 125.599631,75.9130769 126.257808,75.6653846 C127.403892,75.2338462 129.210443,76.4469231 130.929187,78.0930769 L124.506232,80.8115385 Z M118.452833,83.3723077 L126.486872,114.642308 L152.778079,103.237692 L136.710764,75.6469231 L132.391379,77.4746154 C130.387069,75.46 127.791773,73.5192308 125.747759,74.2861538 C124.013744,74.9369231 123.115813,77.2907692 123.031823,81.4346154 L118.452833,83.3723077 L118.452833,83.3723077 Z"/>
    <path fill="#F1F1F1" d="M63.1208867,81.2938462 C63.5729064,78.9484615 64.3463793,76.9046154 65.5298768,76.5869231 C66.2079064,76.4030769 67.5700739,76.7115385 69.9187438,79.7553846 L63.1208867,81.2938462 Z M71.47867,79.4023077 C69.023867,76.0746154 66.9378571,74.6823077 65.1511576,75.1653846 C63.0430049,75.7346154 62.0465764,78.8315385 61.5731773,81.6446154 L57.0025862,82.6784615 L59.7956404,114.543077 L87.7796305,108.473077 L76.3241379,78.3053846 L71.47867,79.4023077 L71.47867,79.4023077 Z"/>
    <polyline fill="#FBCFCE" points="23.032 108.365 .392 95.49 14.999 73.049 31.796 80.407 23.032 108.365"/>
    <polyline fill="#FFEBEB" points="44.976 129.792 46.433 77.754 48.258 129.563 50.45 129.563 53.37 67.61 40.225 67.61 42.411 129.792 44.976 129.792"/>
    <polyline fill="#AAA" points="45.68 129.792 44.972 125.578 43.147 124.854 36.457 129.792 45.68 129.792"/>
    <polyline fill="#AAA" points="57.314 129.792 50.084 124.854 48.258 125.578 47.551 129.792 57.314 129.792"/>
    <path fill="#8A8A8A" d="M41.9194828,13.2661538 C31.7620197,15.8969231 19.7758621,24.1884615 22.9308374,38.9776923 C26.7684236,56.9553846 56.73,58.5230769 68.9543842,45.5346154 C77.4503695,36.5092308 66.8271429,22.3707692 58.8778571,16.7861538 C53.099335,12.7276923 47.2139163,11.8946154 41.9194828,13.2661538"/>
    <path fill="#FFEBEB" d="M62.4130788,41.4415385 C63.582069,41.4261538 65.0289901,40.1823077 65.9147044,38.3092308 C66.9699261,36.0769231 66.8271429,33.8038462 65.5978325,33.2330769 C65.3153202,33.1007692 62.8063054,33.0761538 62.4741626,33.1353846 C60.9241626,27.7007692 53.7506404,23.5915385 45.12867,23.5915385 C37.4305911,23.5915385 33.0783744,26.87 30.6609852,31.4423077 C30.2341626,31.1030769 29.7706897,30.9353846 29.3087438,31.0046154 C27.9649015,31.2 27.1585961,33.27 27.5113547,35.6284615 C27.8610591,37.9869231 29.2331527,39.74 30.5777586,39.5446154 C30.6533498,39.5330769 30.7281773,39.5138462 30.8007143,39.4915385 C32.4652463,42.4176923 35.8401232,44.7807692 40.1106404,46.0553846 L28.9048276,77.0838462 L40.3534483,55.1815385 L52.9397537,53.7323077 L65.4214532,77.4476923 L54.1140887,46.1838462 C57.5760099,45.2230769 60.4797783,43.5507692 62.4130788,41.4415385 Z"/>
    <path fill="#F27674" d="M43.6081663 41.7283951C42.8120553 41.7283951 41.8770076 41.4584809 40.8592868 40.6510584 40.732598 40.5505173 40.710016 40.364903 40.8095299 40.2365197 40.9098093 40.1081365 41.0927617 40.0857081 41.220216 40.1866359 43.8542718 42.275184 45.7553696 40.3014848 45.8349807 40.2164115 45.9455942 40.0984691 46.1304603 40.0926686 46.248346 40.2040372 46.3654662 40.3157925 46.3715901 40.5021803 46.2609766 40.6208961 46.2464323 40.6375241 45.2088087 41.7283951 43.6081663 41.7283951M102.731878 42.5308642C101.935767 42.5308642 101.000719 42.26095 99.9829982 41.4535276 99.8563094 41.3529865 99.8337274 41.1673721 99.9332412 41.0389889 100.033521 40.9106056 100.216473 40.8881772 100.343927 40.989105 102.977983 43.0776531 104.879081 41.1039539 104.958692 41.0188806 105.069306 40.9009382 105.254172 40.8951377 105.372057 41.0065064 105.489178 41.1182617 105.495301 41.3046494 105.384688 41.4233652 105.370144 41.4399932 104.33252 42.5308642 102.731878 42.5308642"/>
    <path fill="#CFCFCF" d="M42.2478079,70.1461538 L39.6234975,52.2607692 C39.6234975,52.2607692 44.4842365,49.1784615 46.2442118,49.1469231 C48.1973645,49.1138462 53.670468,52.2607692 53.670468,52.2607692 L50.676601,70.0638462 L42.2478079,70.1461538"/>
    <path fill="#9B9B9B" d="M39.705197 33.6215385C39.705197 34.5484615 39.0050246 35.3007692 38.1437438 35.3007692 37.2824631 35.3007692 36.5822906 34.5484615 36.5822906 33.6215385 36.5822906 32.6923077 37.2824631 31.9407692 38.1437438 31.9407692 39.0050246 31.9407692 39.705197 32.6923077 39.705197 33.6215385M50.7644089 34.3684615C50.7644089 35.2953846 50.0657635 36.0484615 49.2037192 36.0484615 48.3416749 36.0484615 47.642266 35.2953846 47.642266 34.3684615 47.642266 33.44 48.3416749 32.6876923 49.2037192 32.6876923 50.0657635 32.6876923 50.7644089 33.44 50.7644089 34.3684615"/>
    <path fill="#FEBBBA" d="M24.8878079,102.446154 C24.8878079,102.446154 27.0791872,69.1146154 47.7338916,69.7092308 C65.7994089,70.2307692 71.6290887,100.272308 71.6290887,100.272308 C71.6290887,100.272308 57.0224384,110.417692 24.8878079,102.446154"/>
    <polygon fill="#F69A98" points="40.225 71.288 53.37 71.288 53.37 66.216 40.225 66.216"/>
    <path fill="#F69A98" d="M61.7694089,26.3623077 C62.6138916,25.8223077 65.2175862,23.7146154 63.7996798,22.6146154 C62.6864286,21.7507692 59.7849507,24.17 59.9422414,25.1192308 C59.9620936,23.8907692 59.5360345,21.0738462 57.8455419,22.0253846 C56.6574631,22.6953846 57.2011084,25.9361538 57.9638916,26.9 C57.1064286,25.5261538 53.7330788,25.6753846 53.4566749,27.1 C52.9771675,29.5784615 56.8223892,29.6761538 58.3387931,28.8015385 C57.317931,29.9969231 55.7847291,31.9738462 57.260665,33.0161538 C57.4049754,33.1169231 58.8893103,33.1284615 59.0748522,33.0292308 C59.5513054,32.7769231 59.9796552,32.0430769 60.1606158,31.3561538 C60.3003448,32.4946154 60.825665,33.8023077 61.8663793,33.6846154 C63.9859852,33.4446154 63.2285468,29.4653846 62.4443842,28.5415385 C63.4828079,29.4823077 65.4252709,29.3553846 65.7161823,28.0238462 C66.2140148,25.7476923 63.2086946,25.3838462 61.7694089,26.3623077"/>
    <path fill="#F1F1F1" d="M23.7020197,79.5423077 C25.4207635,77.8961538 27.2265517,76.6830769 28.373399,77.1146154 C29.0315764,77.3615385 29.963867,78.4084615 30.1249754,82.26 L23.7020197,79.5423077 Z M31.5993842,82.8838462 C31.5153941,78.7392308 30.6174631,76.3861538 28.8826847,75.7353846 C26.83867,74.9676923 24.2433744,76.9084615 22.239064,78.9238462 L17.9204433,77.0961538 L1.85312808,104.686923 L28.144335,116.090769 L36.1783744,84.8215385 L31.5993842,82.8838462 L31.5993842,82.8838462 Z"/>
  </g>
</svg>
