<svg xmlns="http://www.w3.org/2000/svg" width="72" height="72" viewBox="0 0 72 72">
  <g fill="none" fill-rule="evenodd" transform="translate(1 6)">
    <g transform="translate(.469)">
      <polygon fill="#DADADA" points="2.67 14.342 2.67 10.422 41.392 10.422 41.392 14.342"/>
      <rect width="44.063" height="45.939" y="13.593" fill="#F1F1F1"/>
      <path stroke="#FBCFCE" stroke-width="1.624" d="M12.1464331,17.6710349 C12.1464331,17.6710349 10.1168877,0 22.1339331,0 C34.1509786,0 32.1748422,17.6710349 32.1748422,17.6710349"/>
      <ellipse cx="12.017" cy="18.351" fill="#FEBBBA" rx="2.003" ry="2.039"/>
      <ellipse cx="32.179" cy="18.351" fill="#FEBBBA" rx="2.003" ry="2.039"/>
    </g>
    <g transform="translate(10.75 28.571)">
      <path fill="#FBCFCE" d="M20.9855,14.718839 C21.286377,15.4645433 21.4535738,15.9432718 21.2185738,16.3153622 C20.8907295,16.8375076 20.1576066,16.9967029 19.3824918,17.1631343 C18.6528361,17.3208062 17.8989098,17.4830483 17.321041,17.963681 C16.7959508,18.3997543 16.5759754,19.0601482 16.3640902,19.6984528 C16.1109836,20.4601528 15.9260656,20.9331685 15.5046066,21.0698937 C14.9371393,21.2530825 14.2618033,20.9240281 13.5467869,20.5523185 C12.8860902,20.2087918 12.2030492,19.8546013 11.447582,19.8546013 C10.761459,19.8546013 10.1639426,20.2205981 9.58607377,20.5744078 C9.00512295,20.9316451 8.4692459,21.2515591 8.03584426,21.0790341 C7.45797541,20.8497624 7.17366393,20.1638515 6.87278689,19.4379514 C6.58963115,18.7550873 6.29645902,18.0486106 5.71704918,17.5695013 C5.19195902,17.133428 4.49504918,17.0351687 3.82240984,16.9388137 C3.01878689,16.8241778 2.51604098,16.7274419 2.30685246,16.3389749 C2.01368033,15.7962637 2.24059016,15.0909295 2.48290984,14.3425592 C2.71020492,13.6391293 2.94520492,12.9128483 2.81422131,12.1766653 C2.69518033,11.5086544 2.22556557,10.9906984 1.77290164,10.4894998 C1.23086066,9.89156525 0.908795082,9.4973855 1.00086885,9.06740584 C1.12877049,8.46490114 1.76211475,8.06919799 2.43321311,7.64950129 C3.06386066,7.25532153 3.71685246,6.84743118 4.09477869,6.20036703 C4.43803279,5.61271548 4.41530328,4.91804507 4.39411475,4.24698737 C4.36868852,3.44529811 4.37754918,2.93800591 4.72812295,2.66722156 C4.97044262,2.47984336 5.27170492,2.39643721 5.7062623,2.39643721 C6.02986885,2.39643721 6.37928689,2.44252006 6.74796721,2.49317311 C7.13745082,2.54534956 7.5392623,2.59866856 7.9379918,2.59866856 C8.32786066,2.59866856 8.66340984,2.54687296 8.96313115,2.43794986 C9.6072623,2.20601221 10.0418197,1.65987331 10.4617377,1.1320152 C10.8878197,0.596159251 11.2565,0.133807348 11.7438361,0.133807348 L11.7438361,0.133807348 C12.365623,0.152849848 12.8710656,0.702035551 13.4054016,1.2820701 C13.9081475,1.82820901 14.4270738,2.39186701 15.1359262,2.64779821 C15.3647623,2.72968096 15.6128607,2.76967021 15.8960164,2.76967021 C16.3113115,2.76967021 16.7296885,2.68359811 17.134582,2.60019196 C17.4986393,2.52440281 17.8415082,2.45432641 18.1412295,2.45432641 C18.419377,2.45432641 18.613541,2.51564326 18.7657131,2.65084501 C19.2291639,3.06140131 19.2592131,3.80215457 19.2908033,4.58632472 C19.3208525,5.32403117 19.3509016,6.08573118 19.7288279,6.73317618 C20.072082,7.32082773 20.6919426,7.64950129 21.291,7.96636849 C22.0056311,8.34569509 22.4451967,8.60771989 22.508377,9.04036549 C22.5969836,9.6504872 22.1381557,10.2366153 21.6519754,10.85702 C21.1962295,11.4401014 20.7235328,12.0441295 20.5925492,12.7806934 C20.4708115,13.4487043 20.7323934,14.094245 20.9855,14.718839 Z"/>
      <polygon fill="#FCFCFC" points="7.959 15.206 15.091 6.389 15.768 6.925 8.636 15.741"/>
      <path fill="#FCFCFC" d="M10.8261803 8.65380274C10.8261803 7.60798864 9.96515574 6.75678888 8.90727049 6.75678888 7.84938525 6.75678888 6.9887459 7.60798864 6.9887459 8.65380274 6.9887459 9.69961685 7.84938525 10.5504358 8.90727049 10.5504358 9.96515574 10.5504358 10.8261803 9.69961685 10.8261803 8.65380274zM14.6740164 11.8239982C13.6161311 11.8239982 12.7551066 12.6748171 12.7551066 13.7206312 12.7551066 14.7664453 13.6161311 15.617645 14.6740164 15.617645 15.7319016 15.617645 16.592541 14.7664453 16.592541 13.7206312 16.592541 12.6748171 15.7319016 11.8239982 14.6740164 11.8239982z"/>
    </g>
  </g>
</svg>
