<svg xmlns="http://www.w3.org/2000/svg" width="72" height="72" viewBox="0 0 72 72">
  <g fill="none" fill-rule="evenodd" transform="translate(3 13)">
    <path fill="#DADADA" d="M24.8941239,12.1758167 C25.7482552,12.1758167 26.4403428,11.495672 26.4403428,10.65628 L26.4403428,1.53905976 C26.4403428,0.699667688 25.7482552,0.0195230613 24.8941239,0.0195230613 C24.0399926,0.0195230613 23.347905,0.699667688 23.347905,1.53905976 L23.347905,10.65628 C23.347905,11.495672 24.0399926,12.1758167 24.8941239,12.1758167 L24.8941239,12.1758167 Z"/>
    <path fill="#F1F1F1" d="M47.3150116,38.3846115 C46.8911012,38.7192496 46.3530069,38.9196626 45.7680788,38.9196626 L2.4739502,38.9196626 C1.10956667,38.9196626 0,37.829243 0,36.4884039 L0,9.13674326 C0,7.79590408 1.10956667,6.70548454 2.4739502,6.70548454 L19.6369797,6.70548454 L19.6369797,12.1758167 C19.6369797,14.1870754 21.3013297,15.8227047 23.347905,15.8227047 L26.4403428,15.8227047 C28.4869181,15.8227047 30.1512681,14.1870754 30.1512681,12.1758167 L30.1512681,6.70548454 L45.7680788,6.70548454 C47.1324623,6.70548454 48.242029,7.79590408 48.242029,9.13674326 L48.242029,14.7662649 L48.242029,36.4884039 C48.242029,37.2544086 47.8799003,37.9386841 47.3150116,38.3846115 Z"/>
    <path fill="#FBCFCE" d="M10.0201168,26.6557858 L11.0165003,26.2643531 L10.1728832,25.6133836 C9.19381744,24.8572621 8.63223075,23.7255112 8.63223075,22.5086662 C8.63223075,20.3302584 10.4357404,18.5578708 12.6523998,18.5578708 C14.8690592,18.5578708 16.6725689,20.3302584 16.6725689,22.5086662 C16.6725689,23.7255112 16.1109822,24.8572621 15.1319164,25.6133836 L14.2882994,26.2643531 L15.2846828,26.6557858 C17.8124415,27.6477393 19.5101898,29.9161037 19.7384117,32.5376084 L5.56638796,32.5376084 C5.79522835,29.9167115 7.49235819,27.6477393 10.0201168,26.6557858 Z"/>
    <path stroke="#CFCFCF" stroke-linecap="square" stroke-width="1.25" d="M28.6687171 24.3198997L37.9460303 24.3198997M28.6687171 29.258394L43.5124183 29.258394"/>
    <g transform="rotate(-25 47.252 -44.518)">
      <g>
        <path fill="#FBCFCE" stroke="#CFCFCF" stroke-width=".5" d="M19.3502741,34.4255312 L3.92682942,34.4255312 C3.16517783,34.4255312 2.49873269,33.8099107 2.49873269,33.0048684 L2.49873269,1.4661557 C2.49873269,0.708468908 3.16517783,0.0454929644 3.92682942,0.0454929644 L19.3502741,0.0454929644 C20.1595289,0.0454929644 20.7783709,0.708468908 20.7783709,1.4661557 L20.7783709,33.0048684 C20.7783709,33.7625552 20.1595289,34.4255312 19.3502741,34.4255312 Z"/>
        <rect width="17.854" height="23.281" x="2.711" y="4.419" fill="#FFF"/>
        <ellipse cx="11.632" cy="31.696" fill="#F69A98" rx="1.485" ry="1.477"/>
        <polygon fill="#F1F1F1" points="2.711 4.419 20.603 4.439 20.601 13.485 13.991 27.612 4.736 27.685 2.693 26.765"/>
        <polygon fill="#F1F1F1" fill-rule="nonzero" points="6.503 27.749 2.705 25.975 2.703 26.779 4.903 27.754"/>
        <g fill="#CFCFCF" fill-rule="nonzero" transform="scale(1 -1) rotate(-25 -35.21 -7.879)">
          <polygon points=".048 6.22 10.476 6.22 10.476 4.986 .628 4.986"/>
          <polygon points="2.361 1.282 10.31 1.282 10.31 .047 2.955 .047"/>
        </g>
        <path fill="#F69A98" d="M13.6743975,2.2797163 L9.62812338,2.2797163 C9.39010726,2.2797163 9.19969436,2.0902946 9.19969436,1.85351748 L9.19969436,1.85351748 C9.19969436,1.61674035 9.39010726,1.42731865 9.62812338,1.42731865 L13.6743975,1.42731865 C13.9124136,1.42731865 14.1028265,1.61674035 14.1028265,1.85351748 L14.1028265,1.85351748 C14.1028265,2.04293917 13.9124136,2.2797163 13.6743975,2.2797163 Z"/>
        <ellipse cx="15.586" cy="1.858" fill="#F69A98" rx="1" ry="1"/>
        <polygon fill="#F1F1F1" fill-rule="nonzero" points="20.631 13.228 13.867 27.613 14.653 27.63 20.581 15.062"/>
      </g>
      <g transform="translate(10.443 25.236)">
        <path fill="#F69A98" d="M1.48126608,0.0987727075 C1.58206591,0.0987727075 1.66408696,0.177201641 1.66408696,0.273586939 L1.66408696,0.301829482 L1.66408696,0.378023394 L1.74377062,0.378023394 L2.13390181,0.378023394 C2.23148773,0.378023394 2.31085265,0.45391253 2.31085265,0.547224674 L2.31085265,1.50990935 C2.31085265,1.60322149 2.23148773,1.67911063 2.13390181,1.67911063 L1.48129265,1.67911063 L0.881673117,1.67911063 L0.256634502,1.67911063 C0.159048582,1.67908523 0.0796836582,1.6031961 0.0796836582,1.50988395 L0.0796836582,0.547199276 C0.0796836582,0.45391253 0.159048582,0.377997996 0.256634502,0.377997996 L0.619195147,0.377997996 L0.698878805,0.377997996 L0.698878805,0.301804084 L0.698878805,0.273561541 C0.698878805,0.177176243 0.780899851,0.0987473095 0.881699678,0.0987473095 L1.48126608,0.0987473095 L1.48126608,0.0987727075 Z"/>
        <path fill="#F1F1F1" d="M1.18154928,1.48527332 C1.45175657,1.48527332 1.67155066,1.27510511 1.67155066,1.01673156 C1.67155066,0.758358003 1.45175657,0.548164398 1.18154928,0.548164398 C0.911156071,0.548164398 0.691202613,0.758358003 0.691202613,1.01673156 C0.691202613,1.27510511 0.911182632,1.48527332 1.18154928,1.48527332 L1.18154928,1.48527332 Z"/>
        <path fill="#F1F1F1" d="M1.18154928,1.40907941 C0.954663348,1.40907941 0.770886271,1.23350324 0.770886271,1.01673156 C0.770886271,0.799934481 0.954663348,0.62435831 1.18154928,0.62435831 C1.40808992,0.62435831 1.591867,0.799934481 1.591867,1.01673156 C1.59189356,1.23350324 1.40811649,1.40907941 1.18154928,1.40907941 L1.18154928,1.40907941 Z"/>
      </g>
      <g stroke="#FEBBBA" stroke-width=".5" transform="translate(7.177 12.01)">
        <polyline points="0 1.776 0 0 2.391 0"/>
        <polyline points="0 8.121 0 5.953 0 5.953 2.391 5.953" transform="matrix(1 0 0 -1 0 14.074)"/>
        <polyline points="6.963 8.121 6.963 5.953 9.157 5.953" transform="rotate(180 8.06 7.037)"/>
        <polyline points="6.963 1.972 6.963 0 9.157 0" transform="matrix(-1 0 0 1 16.12 0)"/>
      </g>
    </g>
  </g>
</svg>
