<svg xmlns="http://www.w3.org/2000/svg" width="72" height="72" viewBox="0 0 72 72">
  <g fill="none" transform="translate(1 13)">
    <path fill="#F1F1F1" d="M42.8573529,43.9937949 L7.00919118,43.9937949 C4.93161765,43.9937949 3.24742647,42.2708376 3.24742647,40.1456752 L3.24742647,18.5668718 C3.24742647,16.4417094 4.93180147,14.7189402 7.00919118,14.7189402 L42.8571691,14.7189402 C44.9347426,14.7189402 46.6189338,16.4418974 46.6189338,18.5668718 L46.6189338,40.1456752 C46.6189338,42.2712137 44.9349265,43.9937949 42.8573529,43.9937949 Z"/>
    <path fill="#FEBBBA" d="M46.6707721,2.94762393 C46.2501838,1.21921368 44.7329044,0.00601709402 42.9915441,0.00601709402 L23.3841912,0.00601709402 L7.14025735,0.00601709402 C5.4125,0.00601709402 3.90349265,1.20078632 3.47022059,2.91133333 L0.135294118,16.0771111 L0.135294118,16.0771111 C0.135294118,19.5773675 2.909375,22.4149915 6.33125,22.4149915 C9.753125,22.4149915 12.5272059,19.5773675 12.5272059,16.0771111 L12.5759191,16.0771111 C12.5759191,19.5773675 15.35,22.4149915 18.771875,22.4149915 C22.19375,22.4149915 24.9678309,19.5773675 24.9678309,16.0771111 L25.0165441,16.0771111 C25.0165441,19.5773675 27.790625,22.4149915 31.2125,22.4149915 C34.634375,22.4149915 37.4084559,19.5773675 37.4084559,16.0771111 L37.4573529,16.0771111 C37.4573529,19.5773675 40.2314338,22.4149915 43.6533088,22.4149915 C47.0751838,22.4149915 49.8492647,19.5773675 49.8492647,16.0771111 L49.8645221,16.0771111 L46.6707721,2.94762393 Z"/>
    <path fill="#FDDADA" d="M12.5273897,16.0771111 C12.5273897,19.5773675 9.75330882,22.4149915 6.33143382,22.4149915 C2.90955882,22.4149915 0.135477941,19.5773675 0.135477941,16.0771111 L12.5273897,16.0771111 L12.5273897,16.0771111 Z"/>
    <path fill="#FEBBBA" d="M24.9680147,16.0771111 C24.9680147,19.5773675 22.1939338,22.4149915 18.7720588,22.4149915 C15.3501838,22.4149915 12.5761029,19.5773675 12.5761029,16.0771111 L24.9680147,16.0771111 L24.9680147,16.0771111 Z"/>
    <path fill="#FDDADA" d="M37.4086397,16.0771111 C37.4086397,19.5773675 34.6345588,22.4149915 31.2126838,22.4149915 C27.7908088,22.4149915 25.0167279,19.5773675 25.0167279,16.0771111 L37.4086397,16.0771111 L37.4086397,16.0771111 Z"/>
    <path fill="#FEBBBA" d="M49.8492647 16.0771111C49.8492647 19.5773675 47.0751838 22.4149915 43.6533088 22.4149915 40.2314338 22.4149915 37.4573529 19.5773675 37.4573529 16.0771111L49.8492647 16.0771111 49.8492647 16.0771111zM46.6707721 2.94762393C46.2501838 1.21921368 44.7329044.00601709402 42.9915441.00601709402L23.3841912.00601709402 23.3841912 16.0771111 49.8645221 16.0771111 46.6707721 2.94762393z"/>
    <path fill="#FDDADA" d="M7.14044118,0.0062051282 C5.41268382,0.0062051282 3.90367647,1.20097436 3.47040441,2.91152137 L0.135477941,16.0772991 L12.5273897,16.0772991 L14.5235294,0.00601709402 L7.14044118,0.0062051282 L7.14044118,0.0062051282 Z"/>
    <polygon fill="#FDDADA" points="24.933 .006 24.933 16.077 37.339 16.077 35.343 .006"/>
  </g>
</svg>
