<svg xmlns="http://www.w3.org/2000/svg" width="72" height="72" viewBox="0 0 72 72">
  <g fill="none" fill-rule="evenodd" transform="translate(1 10)">
    <g fill-rule="nonzero" transform="rotate(90 16.5 16.5)">
      <path fill="#F1F1F1" d="M14.2536547,0.466666667 L2.51456309e-14,0.466666667 L8.37763005e-13,6.6228461 C4.25635911,7.6408317 7.31757689,11.7429924 7.31757689,16.4987931 C7.31757689,21.2557169 4.25657871,25.3583033 1.0011138e-14,26.3763488 L-2.8575092e-17,32.5333333 L52,32.5333333 L52,25.6542681 C48.2834154,24.1173541 45.6822076,20.5752818 45.6822076,16.4512673 C45.6822076,12.3272529 48.2834154,8.78518049 52,7.24826653 L52,0.466666667 L37.7463453,0.466666667 C36.6092141,5.91150455 31.783048,10 26,10 C20.216952,10 15.3907859,5.91150455 14.2536547,0.466666667 Z"/>
      <polygon fill="#FEBBBA" points="22.286 12.8 22.286 20.2 24.143 20.2 24.143 12.8"/>
      <polygon fill="#FEBBBA" points="22.286 25.133 22.286 32.533 24.143 32.533 24.143 25.133"/>
    </g>
    <g transform="translate(25 16)">
      <path fill="#DADADA" d="M26.9493417 24.3210543L26.2051254 23.5675353C25.3733542 24.7199761 24.3226959 25.739443 23.1844828 26.6259359L23.9286991 27.3794549C24.3226959 27.7783768 24.8918025 28 25.4171317 28 25.9424608 28 26.5115674 27.7783768 26.9055643 27.3794549 27.7811129 26.5372866 27.7811129 25.1632226 26.9493417 24.3210543L26.9493417 24.3210543zM25.5582915 22.9064737L19.079232 16.3907506C18.2036834 17.5431914 17.1968025 18.5626583 16.0585893 19.4491513L22.4938715 25.9648744C23.7196395 25.1227061 24.7265204 24.1032392 25.5582915 22.9064737L25.5582915 22.9064737z"/>
      <path fill="#FBCFCE" d="M20,10 C20,4.47619048 15.5238095,0 10,0 C4.47619048,0 0,4.47619048 0,10 C0,15.5238095 4.47619048,20 10,20 C15.5238095,20 20,15.5238095 20,10 L20,10 Z"/>
      <path fill="#FBCFCE" d="M10,19 C5.03225806,19 1,14.9677419 1,10 C1,5.03225806 5.03225806,1 10,1 C14.9677419,1 19,5.03225806 19,10 C19,14.9677419 14.9677419,19 10,19 L10,19 Z"/>
    </g>
  </g>
</svg>
