<svg xmlns="http://www.w3.org/2000/svg" width="170" height="144" viewBox="0 0 170 144">
  <g fill="none" fill-rule="evenodd" transform="translate(8 7)">
    <path fill="#AAA" d="M137.449931,34.2146154 C131.371103,39.0023077 128.341931,32.03 128.099172,26.17 C127.77069,18.2830769 128.271379,5.67307692 119.71869,1.78461538 C111.52331,-1.94230769 100.214552,4.07846154 100.88669,13.5415385 L100.161448,33.0392308 C108.735379,39.3969231 119.537379,53.2138462 131.776207,45.5923077 C135.07469,43.5384615 138.235862,38.1746154 137.449931,34.2146154"/>
    <polyline fill="#FFEBEB" points="102.881 129.792 104.304 78.635 106.095 129.792 108.325 129.792 111.043 71.767 98.25 71.767 100.278 129.792 102.881 129.792"/>
    <polyline fill="#AAA" points="103.409 129.792 102.853 126.459 101.039 125.735 95.746 129.792 103.409 129.792"/>
    <polyline fill="#AAA" points="113.224 129.792 107.932 125.735 106.118 126.459 105.561 129.792 113.224 129.792"/>
    <path fill="#AAA" d="M122.212276,36.3784615 C125.103379,29.1746154 124.33869,20.3407692 118.331172,16.0946154 C112.592207,12.0361538 103.274828,10.7992308 98.0145517,12.1707692 C88.1888966,14.7315385 83.1562069,22.1069231 85.6991034,36.0430769 C97.840069,35.0307692 110.237448,34.3784615 122.212276,36.3784615"/>
    <path fill="#FFEBEB" d="M111.936,47.0646154 C115.374828,46.1038462 118.260621,44.4323077 120.18069,42.3223077 C121.342897,42.3076923 122.780483,41.0630769 123.660483,39.19 C124.708897,36.9576923 124.567034,34.6846154 123.345655,34.1138462 C123.064966,33.9815385 120.572138,33.9569231 120.242138,34.0161538 C118.701379,28.5815385 111.574138,24.4723077 103.008552,24.4723077 C95.3601379,24.4723077 91.036,27.7507692 88.6334483,32.3230769 C88.2101379,31.9838462 87.7496552,31.8161538 87.289931,31.8853846 C85.9555172,32.0807692 85.1551724,34.1515385 85.5048966,36.5092308 C85.8515862,38.8676923 87.2155862,40.6207692 88.5515172,40.4253846 C88.6266207,40.4138462 88.7002069,40.3946154 88.7730345,40.3723077 C90.4268276,43.2992308 93.779931,45.6623077 96.5716552,46.9361538 L85.4381379,77.9646154 L98.2641379,54.5907692 L111.495241,54.6130769 L127.523379,76.1215385 L111.936,47.0646154"/>
    <path fill="#FEBBBA" d="M100.146276,71.0269231 L97.5381379,53.1415385 C97.5381379,53.1415385 102.368276,50.0592308 104.116897,50.0276923 C106.057448,49.9946154 111.495241,53.1415385 111.495241,53.1415385 L108.519931,70.9453846 L100.146276,71.0269231"/>
    <path fill="#AAA" d="M98.614376 34.5023077C98.614376 35.4292308 97.9179622 36.1823077 97.062238 36.1823077 96.2057553 36.1823077 95.5101001 35.4292308 95.5101001 34.5023077 95.5101001 33.5738462 96.2057553 32.8223077 97.062238 32.8223077 97.9179622 32.8223077 98.614376 33.5738462 98.614376 34.5023077M109.601479 35.2492308C109.601479 36.1761538 108.907341 36.9292308 108.051617 36.9292308 107.193617 36.9292308 106.499479 36.1761538 106.499479 35.2492308 106.499479 34.3207692 107.193617 33.5684615 108.051617 33.5684615 108.907341 33.5684615 109.601479 34.3207692 109.601479 35.2492308"/>
    <path fill="#F1F1F1" d="M97.5313103,96.2930769 C97.5313103,96.2930769 85.0755172,69.9953846 105.596207,70.59 C123.545172,71.1115385 112.526966,96.5376923 112.526966,96.5376923 C112.526966,96.5376923 105.755517,99.2361538 97.5313103,96.2930769"/>
    <path fill="#FEBBBA" d="M81.6268276,80.8815385 C83.9588276,77.8376923 85.3129655,77.53 85.9873793,77.7130769 C87.1624828,78.0307692 87.9302069,80.0746154 88.3793103,82.42 L81.6268276,80.8815385 Z M75.262,79.4315385 L63.8811724,109.6 L91.6838621,115.67 L94.4596552,83.8046154 L89.9170345,82.7707692 C89.4482069,79.9584615 88.4566897,76.8607692 86.3636552,76.2915385 C84.5877241,75.8084615 82.5151724,77.2015385 80.0769655,80.5284615 L75.262,79.4315385 L75.262,79.4315385 Z"/>
    <polyline fill="#E1E1E1" points="130.75 106.917 153.244 94.041 138.732 71.6 122.042 78.958 130.75 106.917"/>
    <path fill="#FBCFCE" d="M123.702966,80.8115385 C123.862276,76.9592308 124.78931,75.9130769 125.443241,75.6653846 C126.581931,75.2338462 128.376828,76.4469231 130.084483,78.0930769 L123.702966,80.8115385 Z M117.688621,83.3723077 L125.670828,114.642308 L151.792414,103.237692 L135.828759,75.6469231 L131.537241,77.4746154 C129.545862,75.46 126.96731,73.5192308 124.936483,74.2861538 C123.213655,74.9369231 122.321517,77.2907692 122.238069,81.4346154 L117.688621,83.3723077 L117.688621,83.3723077 Z"/>
    <path fill="#F1F1F1" d="M62.7136552,81.2938462 C63.1627586,78.9484615 63.9312414,76.9046154 65.1071034,76.5869231 C65.7807586,76.4030769 67.1341379,76.7115385 69.4676552,79.7553846 L62.7136552,81.2938462 Z M71.0175172,79.4023077 C68.5785517,76.0746154 66.506,74.6823077 64.7308276,75.1653846 C62.6362759,75.7346154 61.6462759,78.8315385 61.175931,81.6446154 L56.6348276,82.6784615 L59.4098621,114.543077 L87.2133103,108.473077 L75.8317241,78.3053846 L71.0175172,79.4023077 L71.0175172,79.4023077 Z"/>
    <polyline fill="#FBCFCE" points="22.884 108.365 .39 95.49 14.902 73.049 31.591 80.407 22.884 108.365"/>
    <polyline fill="#FFEBEB" points="44.686 129.792 46.133 77.754 47.947 129.563 50.124 129.563 53.026 67.61 39.966 67.61 42.138 129.792 44.686 129.792"/>
    <polyline fill="#AAA" points="45.385 129.792 44.682 125.578 42.868 124.854 36.222 129.792 45.385 129.792"/>
    <polyline fill="#AAA" points="56.944 129.792 49.761 124.854 47.947 125.578 47.244 129.792 56.944 129.792"/>
    <path fill="#AAA" d="M41.6490345,13.2661538 C31.5571034,15.8969231 19.6482759,24.1884615 22.7828966,38.9776923 C26.5957241,56.9553846 56.364,58.5230769 68.5095172,45.5346154 C76.9506897,36.5092308 66.396,22.3707692 58.498,16.7861538 C52.7567586,12.7276923 46.9093103,11.8946154 41.6490345,13.2661538"/>
    <path fill="#FFEBEB" d="M62.0104138,41.4415385 C63.1718621,41.4261538 64.6094483,40.1823077 65.4894483,38.3092308 C66.5378621,36.0769231 66.396,33.8038462 65.1746207,33.2330769 C64.893931,33.1007692 62.4011034,33.0761538 62.0711034,33.1353846 C60.5311034,27.7007692 53.4038621,23.5915385 44.8375172,23.5915385 C37.1891034,23.5915385 32.8649655,26.87 30.4631724,31.4423077 C30.0391034,31.1030769 29.5786207,30.9353846 29.1196552,31.0046154 C27.7844828,31.2 26.9833793,33.27 27.3338621,35.6284615 C27.6813103,37.9869231 29.0445517,39.74 30.3804828,39.5446154 C30.4555862,39.5330769 30.529931,39.5138462 30.602,39.4915385 C32.2557931,42.4176923 35.6088966,44.7807692 39.8518621,46.0553846 L28.7183448,77.0838462 L40.0931034,55.1815385 L52.5982069,53.7323077 L64.9993793,77.4476923 L53.7649655,46.1838462 C57.2045517,45.2230769 60.0895862,43.5507692 62.0104138,41.4415385 Z"/>
    <path fill="#FEBBBA" d="M44.3203717 41.7283951C43.5293969 41.7283951 42.6003818 41.4584809 41.5892269 40.6510584 41.4633555 40.5505173 41.4409192 40.364903 41.539791 40.2365197 41.6394234 40.1081365 41.8211955 40.0857081 41.9478275 40.1866359 44.5648894 42.275184 46.453722 40.3014848 46.5328195 40.2164115 46.6427194 40.0984691 46.8263929 40.0926686 46.943518 40.2040372 47.0598825 40.3157925 47.065967 40.5021803 46.9560671 40.6208961 46.9416166 40.6375241 45.9106874 41.7283951 44.3203717 41.7283951M103.06264 42.5308642C102.271665 42.5308642 101.34265 42.26095 100.331495 41.4535276 100.205623 41.3529865 100.183187 41.1673721 100.282059 41.0389889 100.381691 40.9106056 100.563464 40.8881772 100.690096 40.989105 103.307157 43.0776531 105.19599 41.1039539 105.275088 41.0188806 105.384987 40.9009382 105.568661 40.8951377 105.685786 41.0065064 105.802151 41.1182617 105.808235 41.3046494 105.698335 41.4233652 105.683885 41.4399932 104.652955 42.5308642 103.06264 42.5308642"/>
    <path fill="#DADADA" d="M41.9752414,70.1461538 L39.3678621,52.2607692 C39.3678621,52.2607692 44.1972414,49.1784615 45.9458621,49.1469231 C47.8864138,49.1138462 53.3242069,52.2607692 53.3242069,52.2607692 L50.3496552,70.0638462 L41.9752414,70.1461538"/>
    <path fill="#AAA" d="M40.4425829 33.6215385C40.4425829 34.5484615 39.7469277 35.3007692 38.8912036 35.3007692 38.0354794 35.3007692 37.3398242 34.5484615 37.3398242 33.6215385 37.3398242 32.6923077 38.0354794 31.9407692 38.8912036 31.9407692 39.7469277 31.9407692 40.4425829 32.6923077 40.4425829 33.6215385M51.4304449 34.3684615C51.4304449 35.2953846 50.736307 36.0484615 49.8798242 36.0484615 49.0233415 36.0484615 48.3284449 35.2953846 48.3284449 34.3684615 48.3284449 33.44 49.0233415 32.6876923 49.8798242 32.6876923 50.736307 32.6876923 51.4304449 33.44 51.4304449 34.3684615"/>
    <path fill="#FBCFCE" d="M24.7272414,102.446154 C24.7272414,102.446154 26.9044828,69.1146154 47.425931,69.7092308 C65.3748966,70.2307692 71.1669655,100.272308 71.1669655,100.272308 C71.1669655,100.272308 56.6545517,110.417692 24.7272414,102.446154"/>
    <polygon fill="#FEBBBA" points="39.966 71.288 53.026 71.288 53.026 66.216 39.966 66.216"/>
    <path fill="#FEBBBA" d="M61.3708966,26.3623077 C62.209931,25.8223077 64.7968276,23.7146154 63.388069,22.6146154 C62.282,21.7507692 59.3992414,24.17 59.5555172,25.1192308 C59.5752414,23.8907692 59.151931,21.0738462 57.4723448,22.0253846 C56.291931,22.6953846 56.832069,25.9361538 57.589931,26.9 C56.738,25.5261538 53.3864138,25.6753846 53.1117931,27.1 C52.6353793,29.5784615 56.4557931,29.6761538 57.9624138,28.8015385 C56.9481379,29.9969231 55.4248276,31.9738462 56.8912414,33.0161538 C57.0346207,33.1169231 58.5093793,33.1284615 58.6937241,33.0292308 C59.1671034,32.7769231 59.5926897,32.0430769 59.7724828,31.3561538 C59.9113103,32.4946154 60.4332414,33.8023077 61.4672414,33.6846154 C63.5731724,33.4446154 62.8206207,29.4653846 62.0415172,28.5415385 C63.0732414,29.4823077 65.0031724,29.3553846 65.2922069,28.0238462 C65.7868276,25.7476923 62.8008966,25.3838462 61.3708966,26.3623077"/>
    <path fill="#F1F1F1" d="M23.5491034,79.5423077 C25.2567586,77.8961538 27.0508966,76.6830769 28.1903448,77.1146154 C28.8442759,77.3615385 29.7705517,78.4084615 29.9306207,82.26 L23.5491034,79.5423077 Z M31.3955172,82.8838462 C31.312069,78.7392308 30.419931,76.3861538 28.6963448,75.7353846 C26.6655172,74.9676923 24.0869655,76.9084615 22.0955862,78.9238462 L17.8048276,77.0961538 L1.84117241,104.686923 L27.9627586,116.090769 L35.9449655,84.8215385 L31.3955172,82.8838462 L31.3955172,82.8838462 Z"/>
  </g>
</svg>
