<svg xmlns="http://www.w3.org/2000/svg" width="170" height="144" viewBox="0 0 170 144">
  <g fill="none" fill-rule="evenodd" transform="translate(29 11)">
    <g transform="translate(6)">
      <path fill="#CFCFCF" d="M30.4421952,94.1196768 C28.8175768,94.1196768 27.5011942,92.7884471 27.5011942,91.1452724 L27.5011942,63.932551 L23.3095807,63.932551 L23.3095807,91.1452724 C23.3095807,92.7884471 21.9912348,94.1196768 20.3675981,94.1196768 C18.7429797,94.1196768 17.4275787,92.7884471 17.4275787,91.1452724 L17.4275787,60.9551662 C17.4275787,59.3119915 18.7429797,57.9807617 20.3675981,57.9807617 L30.4421952,57.9807617 C32.0658319,57.9807617 33.3822145,59.3119915 33.3822145,60.9551662 L33.3822145,91.1452724 C33.3822145,92.7884471 32.0658319,94.1196768 30.4421952,94.1196768"/>
      <path fill="#DADADA" d="M30.8377971,42.1093234 L20.0534725,42.1093234 C18.9874087,42.1093234 17.9939865,41.5549755 17.4265971,40.6400034 L1.41600773,14.8469293 C0.503080193,13.3776093 0.941874396,11.438385 2.39372367,10.5164587 C3.84262802,9.59254546 5.75977585,10.0356264 6.67368502,11.5059399 L21.7693836,35.8267136 L29.0423729,35.8267136 L43.0131092,11.2774453 C43.8691014,9.7753412 45.7675981,9.2577511 47.2528232,10.1240439 C48.7380483,10.9883498 49.2494841,12.9106854 48.3944734,14.4137829 L33.5265159,40.5356906 C32.9728696,41.5092766 31.9460715,42.1093234 30.8377971,42.1093234"/>
      <polyline fill="#FFEBEB" points="27.528 33.529 27.528 31.377 22.057 31.377 22.057 33.529 18.771 33.529 18.771 51.519 31.223 51.519 31.223 33.529 27.528 33.529"/>
      <path fill="#DADADA" d="M33.4911768,60.7236911 L17.3510106,60.7236911 L17.7907865,33.528852 L22.0570048,33.528852 C22.0570048,33.528852 22.6322473,36.8837498 24.720201,36.8837498 C26.8336773,36.8837498 27.5276986,33.528852 27.5276986,33.528852 L32.8560541,33.528852 L33.4911768,60.7236911"/>
      <path fill="#FFEBEB" d="M40.4657469,16.1861068 C40.4657469,24.9473871 33.4479845,32.0476105 24.7918609,32.0476105 C16.1347556,32.0476105 9.11797488,24.9473871 9.11797488,16.1861068 C9.11797488,7.4248265 16.1347556,0.323609638 24.7918609,0.323609638 C33.4479845,0.323609638 40.4657469,7.4248265 40.4657469,16.1861068"/>
      <path fill="#AAA" d="M20.1104077 16.5894495C20.1104077 17.5024348 19.3810473 18.2425588 18.4779362 18.2425588 17.5767884 18.2425588 16.8464464 17.5024348 16.8464464 16.5894495 16.8464464 15.6764643 17.5767884 14.9383272 18.4779362 14.9383272 19.3810473 14.9383272 20.1104077 15.6764643 20.1104077 16.5894495M32.5939556 16.5894495C32.5939556 17.5024348 31.8616502 18.2425588 30.9605024 18.2425588 30.0593546 18.2425588 29.3270493 17.5024348 29.3270493 16.5894495 29.3270493 15.6764643 30.0593546 14.9383272 30.9605024 14.9383272 31.8616502 14.9383272 32.5939556 15.6764643 32.5939556 16.5894495M24.920456 27.1160995C23.33903 27.1160995 21.4847072 26.5796337 19.4625237 24.9742104 19.2112232 24.7745259 19.1660676 24.4039671 19.3643594 24.1486492 19.5616696 23.8933312 19.9278222 23.8496192 20.1791227 24.0502971 25.409314 28.2029393 29.1798029 24.2787918 29.338829 24.1099044 29.5596986 23.875449 29.9268329 23.8635276 30.1594821 24.0850681 30.393113 24.3056151 30.4039111 24.6771673 30.1859865 24.9136096 30.1565372 24.9463936 28.0950879 27.1160995 24.920456 27.1160995"/>
      <path fill="#AAA" d="M40.6100483,16.1861068 C38.91377,15.8960179 33.7758531,10.9436444 33.3400039,8.88719236 C31.0547401,10.1290112 29.7108715,11.0916692 26.2289855,12.1189017 C26.1779401,8.74115447 26.1455459,8.89017273 25.2453797,6.53767112 C23.3262686,11.6788011 13.1682319,15.5989748 8.97269179,16.1861068 C8.97269179,7.34336318 16.0552425,0.175584832 24.7918609,0.175584832 C33.5284792,0.175584832 40.6100483,7.34336318 40.6100483,16.1861068"/>
      <path fill="#275897" d="M26.9907401 91.1452724C26.9907401 89.3878503 28.526029 87.9612489 30.4215807 87.9612489 32.3171324 87.9612489 33.8524213 89.3878503 33.8524213 91.1452724 33.8524213 92.9026944 32.3171324 94.327309 30.4215807 94.327309 28.526029 94.327309 26.9907401 92.9026944 26.9907401 91.1452724M16.9563903 91.1452724C16.9563903 89.3878503 18.4926609 87.9612489 20.3872309 87.9612489 22.2827826 87.9612489 23.8170899 89.3878503 23.8170899 91.1452724 23.8170899 92.9026944 22.2827826 94.327309 20.3872309 94.327309 18.4926609 94.327309 16.9563903 92.9026944 16.9563903 91.1452724"/>
    </g>
    <g transform="translate(54)">
      <path fill="#CFCFCF" d="M30.0145546,94.2468391 C28.3918995,94.2468391 27.0745353,92.9146158 27.0745353,91.2714412 L27.0745353,64.0587198 L22.8799768,64.0587198 L22.8799768,91.2714412 C22.8799768,92.9146158 21.5645758,94.2468391 19.9409391,94.2468391 C18.3163208,94.2468391 16.9999382,92.9146158 16.9999382,91.2714412 L16.9999382,61.0823284 C16.9999382,59.4391537 18.3163208,58.1069305 19.9409391,58.1069305 L30.0145546,58.1069305 C31.6391729,58.1069305 32.9555556,59.4391537 32.9555556,61.0823284 L32.9555556,91.2714412 C32.9555556,92.9146158 31.6391729,94.2468391 30.0145546,94.2468391"/>
      <path fill="#FEBBBA" d="M30.4769082,40.604239 L30.4739633,40.604239 L19.5031266,40.5943045 C18.4792734,40.5943045 17.5251169,40.084662 16.9459478,39.2322776 L1.27206184,16.1245126 C0.302199034,14.6959242 0.660498551,12.7388177 2.07504541,11.7582775 C3.48664734,10.774757 5.41950145,11.139355 6.39034589,12.5689369 L21.1395246,34.3146749 L28.7757217,34.3196422 L42.4617816,12.6037078 C43.383544,11.1423354 45.3036367,10.7111759 46.7466512,11.6460171 C48.1926106,12.5798649 48.6176618,14.5200826 47.6949179,15.9834419 L33.0939671,39.1518077 C32.5236329,40.0568453 31.5361005,40.604239 30.4769082,40.604239"/>
      <polyline fill="#FFEBEB" points="27.102 33.654 27.102 31.503 21.628 31.503 21.628 33.654 18.344 33.654 18.344 51.645 30.796 51.645 30.796 33.654 27.102 33.654"/>
      <path fill="#FEBBBA" d="M33.0645179,60.8488665 L16.9243517,60.8488665 L16.7103536,33.6540273 L21.6283826,33.6540273 C21.6283826,33.6540273 22.20657,37.0099186 24.293542,37.0099186 C26.4070184,37.0099186 27.1020213,33.6540273 27.1020213,33.6540273 L33.4090744,33.6540273 L33.0645179,60.8488665"/>
      <path fill="#FFEBEB" d="M40.0381063,16.3122756 C40.0381063,25.0735559 33.0223072,32.1737793 24.3661836,32.1737793 C15.7090783,32.1737793 8.69229758,25.0735559 8.69229758,16.3122756 C8.69229758,7.55099529 15.7090783,0.449778432 24.3661836,0.449778432 C33.0223072,0.449778432 40.0381063,7.55099529 40.0381063,16.3122756"/>
      <path fill="#AAA" d="M19.6847304 16.7156183C19.6847304 17.629597 18.9534068 18.3687276 18.0512773 18.3687276 17.1511111 18.3687276 16.4197874 17.629597 16.4197874 16.7156183 16.4197874 15.8036266 17.1511111 15.064496 18.0512773 15.064496 18.9534068 15.064496 19.6847304 15.8036266 19.6847304 16.7156183M32.166315 16.7156183C32.166315 17.629597 31.4349913 18.3687276 30.5328618 18.3687276 29.6307324 18.3687276 28.901372 17.629597 28.901372 16.7156183 28.901372 15.8036266 29.6307324 15.064496 30.5328618 15.064496 31.4349913 15.064496 32.166315 15.8036266 32.166315 16.7156183M24.4928155 27.2422683C22.912371 27.2422683 21.056085 26.7048091 19.0358647 25.1003791 18.7845643 24.9006947 18.7403903 24.5301359 18.9367188 24.274818 19.1359923 24.0185066 19.5001816 23.9767815 19.7524638 24.1764659 24.9826551 28.3291081 28.7541256 24.4049606 28.9131517 24.2360732 29.1340213 24.0016178 29.5011556 23.9896964 29.7338048 24.2112369 29.9664541 24.4317839 29.9782338 24.8023426 29.7603092 25.0387849 29.7298783 25.0735559 27.6694106 27.2422683 24.4928155 27.2422683"/>
      <path fill="#AAA" d="M40.184371,16.3122756 C38.4880928,16.0231801 33.3482126,11.0698132 32.9143266,9.01435461 C30.6270995,10.25518 29.2851942,11.217838 25.8013449,12.2450705 C25.7522628,8.86732326 25.718887,9.01634152 24.8177391,6.66483337 C22.8976464,11.8039765 12.7396097,15.7261371 8.54505121,16.3122756 C8.54505121,7.46953197 15.6285836,0.301753627 24.3661836,0.301753627 C33.1018203,0.301753627 40.184371,7.46953197 40.184371,16.3122756"/>
      <path fill="#EFA92C" d="M26.5640812 91.2714412C26.5640812 89.5130257 28.09937 88.0884111 29.9949217 88.0884111 31.8904734 88.0884111 33.4257623 89.5130257 33.4257623 91.2714412 33.4257623 93.0288632 31.8904734 94.4534778 29.9949217 94.4534778 28.09937 94.4534778 26.5640812 93.0288632 26.5640812 91.2714412M16.5297314 91.2714412C16.5297314 89.5130257 18.0660019 88.0884111 19.960572 88.0884111 21.8561237 88.0884111 23.3914126 89.5130257 23.3914126 91.2714412 23.3914126 93.0288632 21.8561237 94.4534778 19.960572 94.4534778 18.0660019 94.4534778 16.5297314 93.0288632 16.5297314 91.2714412"/>
    </g>
    <path fill="#CFCFCF" d="M29.6983111 117.20956C29.6983111 119.806451 27.6162473 121.912576 25.0502338 121.912576L17.6928232 121.912576C15.125828 121.912576 13.0457275 119.806451 13.0457275 117.20956L13.0457275 101.531845C13.0457275 98.9339601 15.125828 96.8278354 17.6928232 96.8278354L25.0502338 96.8278354C27.6162473 96.8278354 29.6983111 98.9339601 29.6983111 101.531845L29.6983111 117.20956M82.1602319 117.20956C82.1602319 119.806451 84.2403324 121.912576 86.8063459 121.912576L94.1647382 121.912576C96.7317333 121.912576 98.8128155 119.806451 98.8128155 117.20956L98.8128155 101.531845C98.8128155 98.9339601 96.7317333 96.8278354 94.1647382 96.8278354L86.8063459 96.8278354C84.2403324 96.8278354 82.1602319 98.9339601 82.1602319 101.531845L82.1602319 117.20956"/>
    <polyline fill="#DADADA" points="97.007 67.22 101.702 63.444 99.528 60.677 94.831 64.451 97.007 67.22"/>
    <path fill="#DADADA" d="M98.0844367,59.5017414 C98.0844367,62.572511 100.545414,65.0631029 103.579671,65.0631029 C106.615892,65.0631029 109.075888,62.572511 109.075888,59.5017414 C109.075888,56.4299783 106.615892,53.9393864 103.579671,53.9393864 C100.545414,53.9393864 98.0844367,56.4299783 98.0844367,59.5017414"/>
    <polyline fill="#DADADA" points="14.85 67.22 10.157 63.444 12.33 60.677 17.024 64.451 14.85 67.22"/>
    <path fill="#DADADA" d="M13.7731246,59.5017414 C13.7731246,62.572511 11.3111652,65.0631029 8.27788986,65.0631029 C5.24166957,65.0631029 2.78069179,62.572511 2.78069179,59.5017414 C2.78069179,56.4299783 5.24166957,53.9393864 8.27788986,53.9393864 C11.3111652,53.9393864 13.7731246,56.4299783 13.7731246,59.5017414"/>
    <path fill="#F1F1F1" d="M21.0372792,66.4052607 C21.114829,64.9150781 22.4429913,48.4058417 28.0668213,41.6791574 C31.9423459,37.043696 47.8047072,35.0081066 55.996514,35.0081066 C64.1893024,35.0081066 80.0516638,37.043696 83.9291517,41.6791574 C89.552,48.4058417 90.8801623,64.9150781 90.9577121,66.4052607 C91.7420444,66.5453379 19.9034821,66.608919 21.0372792,66.4052607 Z M88.8334377,38.7097202 C83.6395671,32.4976456 64.5328773,30.311051 56.2350531,30.311051 C47.937229,30.311051 28.3485527,32.4976456 23.1537005,38.7097202 C17.3433585,45.6589384 15.2279188,59.9666784 14.626172,68.1557285 C14.9324444,68.0613503 56.6718841,68.1557285 56.6718841,68.1557285 C56.6718841,68.1557285 96.4176077,67.8656396 97.3619478,68.1557285 C96.760201,59.9666784 94.6447614,45.6589384 88.8334377,38.7097202 L88.8334377,38.7097202 Z"/>
    <path fill="#F1F1F1" d="M66.714087,66.0009245 C76.9938473,66.4181756 87.275571,68.5958291 97.5543498,70.6949997 C97.5347169,70.3075522 97.4738551,69.2525029 97.3619478,67.7146345 C95.4300754,67.1185614 84.5122473,61.6923098 56.0171285,61.6923098 C27.521028,61.6923098 16.5580444,67.1185614 14.626172,67.7146345 C14.5034667,69.372711 14.4445681,70.4724658 14.4298435,70.776463 C13.6366763,71.0377417 12.8808116,71.3725361 12.160286,71.7699181 C29.8573372,66.6337554 48.3927111,65.3462376 66.714087,66.0009245"/>
    <path fill="#F1F1F1" d="M106.948669,83.5195112 C106.787679,77.5607677 102.901357,72.5458065 97.559258,70.776463 C97.5582763,70.7536135 97.556313,70.7248033 97.5543498,70.6949997 C87.275571,68.5958291 76.9938473,66.4181756 66.714087,66.0009245 C48.3927111,65.3462376 29.8573372,66.6337554 12.160286,71.7699181 C8.01775459,74.0528778 5.17589952,78.4429558 5.04043285,83.5195112 L5.02963478,83.5334196 L5.02963478,101.02717 L55.9700097,102.567025 L55.9700097,102.568019 L55.9925874,102.567025 L56.0171285,102.568019 L56.0171285,102.567025 L106.956522,101.02717 L106.956522,83.5334196 L106.948669,83.5195112"/>
    <path fill="#DADADA" d="M109.359583,98.5951919 L2.6285372,98.5951919 C1.18159614,98.5951919 0.00755169082,99.7833642 0.00755169082,101.24871 L0.00755169082,106.771327 C0.00755169082,108.236673 1.18159614,109.423852 2.6285372,109.423852 L109.359583,109.423852 C110.805542,109.423852 111.978605,108.236673 111.978605,106.771327 L111.978605,101.24871 C111.978605,99.7833642 110.805542,98.5951919 109.359583,98.5951919"/>
    <path fill="#FEBBBA" d="M86.1574802,83.2979707 C86.1574802,87.4754493 89.5038995,90.8611442 93.6317063,90.8611442 C97.7585314,90.8611442 101.106914,87.4754493 101.106914,83.2979707 C101.106914,79.1204922 97.7585314,75.7328104 93.6317063,75.7328104 C89.5038995,75.7328104 86.1574802,79.1204922 86.1574802,83.2979707"/>
    <path fill="#FEBBBA" d="M93.6317063 77.3869131C90.4119188 77.3869131 87.7909333 80.0394381 87.7909333 83.2979707 87.7909333 86.5574968 90.4119188 89.2090284 93.6317063 89.2090284 96.8524754 89.2090284 99.4714976 86.5574968 99.4714976 83.2979707 99.4714976 80.0394381 96.8524754 77.3869131 93.6317063 77.3869131zM93.6317063 92.5162404C88.6096232 92.5162404 84.5240271 88.3814803 84.5240271 83.2979707 84.5240271 78.2144611 88.6096232 74.0797011 93.6317063 74.0797011 98.6537894 74.0797011 102.740367 78.2144611 102.740367 83.2979707 102.740367 88.3814803 98.6537894 92.5162404 93.6317063 92.5162404L93.6317063 92.5162404zM12.566686 83.2979707C12.566686 87.4754493 15.9131053 90.8611442 20.0409121 90.8611442 24.1687188 90.8611442 27.5161198 87.4754493 27.5161198 83.2979707 27.5161198 79.1204922 24.1687188 75.7328104 20.0409121 75.7328104 15.9131053 75.7328104 12.566686 79.1204922 12.566686 83.2979707"/>
    <path fill="#FEBBBA" d="M20.0409121,77.3869131 C16.820143,77.3869131 14.2011208,80.0394381 14.2011208,83.2979707 C14.2011208,86.5574968 16.820143,89.2090284 20.0409121,89.2090284 C23.2616812,89.2090284 25.8807034,86.5574968 25.8807034,83.2979707 C25.8807034,80.0394381 23.2616812,77.3869131 20.0409121,77.3869131 Z M20.0409121,92.5162404 C15.018829,92.5162404 10.9342145,88.3814803 10.9342145,83.2979707 C10.9342145,78.2144611 15.018829,74.0797011 20.0409121,74.0797011 C25.0629952,74.0797011 29.1485913,78.2144611 29.1485913,83.2979707 C29.1485913,88.3814803 25.0629952,92.5162404 20.0409121,92.5162404 L20.0409121,92.5162404 Z"/>
    <path fill="#DADADA" d="M40.2038493 79.2973272L71.7832889 79.2973272C72.6284831 79.2973272 73.3126879 78.604889 73.3126879 77.7485307 73.3126879 76.8951528 72.6284831 76.2027146 71.7832889 76.2027146L40.2038493 76.2027146C39.3596367 76.2027146 38.6764135 76.8951528 38.6764135 77.7485307 38.6764135 78.604889 39.3596367 79.2973272 40.2038493 79.2973272M71.7832889 81.4332556L40.2038493 81.4332556C39.3596367 81.4332556 38.6764135 82.1256938 38.6764135 82.9800651 38.6764135 83.8344365 39.3596367 84.5278681 40.2038493 84.5278681L71.7832889 84.5278681C72.6284831 84.5278681 73.3126879 83.8344365 73.3126879 82.9800651 73.3126879 82.1256938 72.6284831 81.4332556 71.7832889 81.4332556M71.7832889 86.6628031L40.2038493 86.6628031C39.3596367 86.6628031 38.6764135 87.3562347 38.6764135 88.2106061 38.6764135 89.063984 39.3596367 89.7564222 40.2038493 89.7564222L71.7832889 89.7564222C72.6284831 89.7564222 73.3126879 89.063984 73.3126879 88.2106061 73.3126879 87.3562347 72.6284831 86.6628031 71.7832889 86.6628031"/>
    <path fill="#FDDADA" d="M70.9390763,96.9222136 L41.0480618,96.9222136 C39.6001391,96.9222136 38.428058,98.1093924 38.428058,99.5737452 L38.428058,108.172099 C38.428058,109.636452 39.6001391,110.822637 41.0480618,110.822637 L70.9390763,110.822637 C72.3860174,110.822637 73.5590802,109.636452 73.5590802,108.172099 L73.5590802,99.5737452 C73.5590802,98.1093924 72.3860174,96.9222136 70.9390763,96.9222136"/>
  </g>
</svg>
