<svg xmlns="http://www.w3.org/2000/svg" width="124" height="152" viewBox="0 0 124 152">
  <g fill="none" fill-rule="evenodd" transform="translate(6 7)">
    <path fill="#9B9B9B" d="M70.3111111,40.5245258 C70.1678118,46.3319961 37.9357143,45.7560522 37.9357143,40.5245258 L37.9357143,14.6213211 L70.4007937,15.2531066 C70.369027,15.2965657 70.4671565,34.7912726 70.3111111,40.5245258"/>
    <polygon fill="#FFEBEB" points="51.444 35.109 56.966 35.109 56.966 30.729 51.444 30.729"/>
    <path fill="#FFEBEB" d="M58.0484509,86.5251189 C56.7747873,86.5251189 55.7417926,85.4879518 55.7417926,84.2103686 L55.7417926,66.3530136 L53.3974988,66.3530136 L53.3974988,84.2103686 C53.3974988,85.4879518 52.3645041,86.5251189 51.0898501,86.5251189 C49.8142057,86.5251189 48.7822014,85.4879518 48.7822014,84.2103686 L48.7822014,64.0402502 C48.7822014,62.7606801 49.8142057,61.7254999 51.0898501,61.7254999 L58.0484509,61.7254999 C59.323105,61.7254999 60.3570901,62.7606801 60.3570901,64.0402502 L60.3570901,84.2103686 C60.3570901,85.4879518 59.323105,86.5251189 58.0484509,86.5251189"/>
    <path fill="#AAA" d="M49.3447527 39.0180973C48.6088801 39.0180973 47.8839021 38.6654208 47.4372284 38.0097404L32.7069025 16.3891777C31.9868765 15.3341284 32.2572576 13.894612 33.3100605 13.1723701 34.3618729 12.4501283 35.7979633 12.722335 36.5169989 13.7773843L51.2473248 35.3989405C51.9673509 36.4529963 51.6959793 37.8935062 50.6441669 38.6147546 50.2460232 38.8899416 49.7934071 39.0180973 49.3447527 39.0180973M59.6311216 39.0180973C59.1894 39.0180973 58.7427264 38.892922 58.3485443 38.6256826 57.289799 37.9143687 57.007533 36.4758458 57.7166645 35.4158292L74.1653469 10.8168882C74.8764593 9.7548847 76.3095785 9.47075655 77.3683237 10.1830638 78.4260786 10.8963646 78.7083447 12.3329006 77.9992131 13.3958975L61.5515211 37.9938451C61.1038571 38.6604535 60.3749174 39.0180973 59.6311216 39.0180973"/>
    <polygon fill="#FFEBEB" points="61.199 33.568 59.962 51.558 49.625 51.558 48.636 33.568"/>
    <path fill="#AAA" d="M63.2609639,69.386032 C61.28114,71.2596882 48.7138633,71.1235849 45.8971453,69.606579 L48.6772182,53.4162417 L47.4619886,33.5680028 C50.5124427,34.3349501 54.3314528,44.874515 54.3314528,44.874515 C54.3314528,44.874515 58.5614818,35.188328 61.1989362,33.5680028 L60.4026488,53.1271463 L63.2609639,69.386032"/>
    <polyline fill="#E5E5E5" points="61.199 33.568 56.966 33.568 54.331 43.055 51.444 33.425 47.462 33.568 54.493 46.394 61.199 33.568"/>
    <path fill="#FFEBEB" d="M70.1720252,16.3524198 C70.1720252,25.2517904 62.9777075,32.4692415 54.1036591,32.4692415 C45.2306012,32.4692415 38.0382643,25.2517904 38.0382643,16.3524198 C38.0382643,7.45106239 45.2306012,0.23460474 54.1036591,0.23460474 C62.9777075,0.23460474 70.1720252,7.45106239 70.1720252,16.3524198"/>
    <path fill="#9B9B9B" d="M49.3071172 16.7607299C49.3071172 17.6896104 48.5583694 18.4406624 47.6333291 18.4406624 46.7092792 18.4406624 45.9605313 17.6896104 45.9605313 16.7607299 45.9605313 15.8348297 46.7092792 15.0827843 47.6333291 15.0827843 48.5583694 15.0827843 49.3071172 15.8348297 49.3071172 16.7607299M62.1021875 16.7607299C62.1021875 17.6896104 61.3524493 18.4406624 60.4264186 18.4406624 59.5033591 18.4406624 58.7536208 17.6896104 58.7536208 16.7607299 58.7536208 15.8348297 59.5033591 15.0827843 60.4264186 15.0827843 61.3524493 15.0827843 62.1021875 15.8348297 62.1021875 16.7607299"/>
    <path fill="#F69A98" d="M56.2241209,20.1196015 C56.2241209,21.0474885 55.1584428,21.7985405 53.8451629,21.7985405 C52.5299021,21.7985405 51.464224,21.0474885 51.464224,20.1196015 C51.464224,19.1937013 52.5299021,18.4406624 53.8451629,18.4406624 C55.1584428,18.4406624 56.2241209,19.1937013 56.2241209,20.1196015"/>
    <path fill="#AAA" d="M54.2353833,26.8592007 C52.6150772,26.8592007 50.7134954,26.3147873 48.6435444,24.6835341 C48.3830673,24.4798758 48.3365182,24.1063367 48.5425228,23.8460514 C48.7445659,23.5867597 49.1179494,23.5420542 49.3764457,23.7457125 C54.7375197,27.9649162 58.6040694,23.978181 58.7664961,23.8043263 C58.992309,23.5668906 59.3686637,23.5559626 59.6073518,23.7804834 C59.8450496,24.0069912 59.8589153,24.3815237 59.6340928,24.6219399 C59.6033902,24.6567108 57.4908517,26.8592007 54.2353833,26.8592007"/>
    <path fill="#9B9B9B" d="M70.3205863,16.3524198 C63.5630381,15.2079596 61.2217155,10.7811238 60.1292964,7.99547577 C57.749348,11.2778513 51.3324999,11.6513904 48.3394894,11.6513904 C39.3842277,11.6513904 37.8877224,25.3362341 37.8877224,16.3524198 C37.8877224,7.36761216 45.1483974,0.0855864791 54.1036591,0.0855864791 C63.0599112,0.0855864791 70.3205863,7.36761216 70.3205863,16.3524198"/>
    <polygon fill="#2D2119" points="24.381 86.974 39.036 86.974 39.036 77.55 24.381 77.55"/>
    <path fill="#AAA" d="M36.7675719,110.119677 C35.128448,110.119677 33.800312,108.788447 33.800312,107.145272 L33.800312,79.932551 L29.5712734,79.932551 L29.5712734,107.145272 C29.5712734,108.788447 28.2411565,110.119677 26.6030231,110.119677 C24.9638992,110.119677 23.6367536,108.788447 23.6367536,107.145272 L23.6367536,76.9551662 C23.6367536,75.3119915 24.9638992,73.9807617 26.6030231,73.9807617 L36.7675719,73.9807617 C38.4057054,73.9807617 39.7338414,75.3119915 39.7338414,76.9551662 L39.7338414,107.145272 C39.7338414,108.788447 38.4057054,110.119677 36.7675719,110.119677"/>
    <path fill="#CFCFCF" d="M37.166706,58.1093234 L26.2860928,58.1093234 C25.2105106,58.1093234 24.2082185,57.5549755 23.6357631,56.6400034 L7.48222208,30.8469293 C6.56114341,29.3776093 7.00385542,27.438385 8.46866763,26.5164587 C9.93050863,25.5925455 11.8647738,26.0356264 12.7868429,27.5059399 L28.0173245,51.8267136 L35.3552513,51.8267136 L49.4507262,27.2774453 C50.3143613,25.7753412 52.2298088,25.2577511 53.7282948,26.1240439 C55.2267809,26.9883498 55.742783,28.9106854 54.8801384,30.4137829 L39.8794313,56.5356906 C39.3208416,57.5092766 38.2848757,58.1093234 37.166706,58.1093234"/>
    <polyline fill="#FFEBEB" points="33.827 49.529 33.827 47.377 28.308 47.377 28.308 49.529 24.993 49.529 24.993 67.519 37.555 67.519 37.555 49.529 33.827 49.529"/>
    <path fill="#CFCFCF" d="M39.8437766,76.7236911 L23.5595018,76.7236911 L24.0032042,49.528852 L28.3075138,49.528852 C28.3075138,49.528852 28.8878924,52.8837498 30.9944885,52.8837498 C33.1268351,52.8837498 33.827053,49.528852 33.827053,49.528852 L39.2029832,49.528852 L39.8437766,76.7236911"/>
    <path fill="#FFEBEB" d="M46.8806196,32.1861068 C46.8806196,40.9473871 39.8001987,48.0476105 31.0667882,48.0476105 C22.3323873,48.0476105 15.2529568,40.9473871 15.2529568,32.1861068 C15.2529568,23.4248265 22.3323873,16.3236096 31.0667882,16.3236096 C39.8001987,16.3236096 46.8806196,23.4248265 46.8806196,32.1861068"/>
    <path fill="#9B9B9B" d="M26.3435364 32.5894495C26.3435364 33.5024348 25.6076638 34.2425588 24.6964892 34.2425588 23.7872954 34.2425588 23.0504325 33.5024348 23.0504325 32.5894495 23.0504325 31.6764643 23.7872954 30.9383272 24.6964892 30.9383272 25.6076638 30.9383272 26.3435364 31.6764643 26.3435364 32.5894495M38.9385444 32.5894495C38.9385444 33.5024348 38.1997007 34.2425588 37.2905069 34.2425588 36.3813131 34.2425588 35.6424694 33.5024348 35.6424694 32.5894495 35.6424694 31.6764643 36.3813131 30.9383272 37.2905069 30.9383272 38.1997007 30.9383272 38.9385444 31.6764643 38.9385444 32.5894495"/>
    <path fill="#F69A98" d="M33.1535761,35.8936811 C33.1535761,36.8066663 32.1057253,37.5477838 30.8112631,37.5477838 C29.5177914,37.5477838 28.4679598,36.8066663 28.4679598,35.8936811 C28.4679598,34.9816894 29.5177914,34.2425588 30.8112631,34.2425588 C32.1057253,34.2425588 33.1535761,34.9816894 33.1535761,35.8936811"/>
    <path fill="#AAA" d="M31.1965315,43.1160995 C29.6009856,43.1160995 27.7301064,42.5796337 25.6898676,40.9742104 C25.4363234,40.7745259 25.3907647,40.4039671 25.5908269,40.1486492 C25.7898988,39.8933312 26.1593206,39.8496192 26.4128649,40.0502971 C31.6897543,44.2029393 35.4939083,40.2787918 35.6543542,40.1099044 C35.8771959,39.875449 36.2476081,39.8635276 36.4823346,40.0850681 C36.7180516,40.3056151 36.728946,40.6771673 36.5090756,40.9136096 C36.4793634,40.9463936 34.3995084,43.1160995 31.1965315,43.1160995"/>
    <path fill="#8A8A8A" d="M47.0262095,32.1861068 C45.3147859,31.8960179 40.1309947,26.9436444 39.6912539,24.8871924 C37.385586,26.1290112 36.0297186,27.0916692 32.5167443,28.1189017 C32.4652431,24.7411545 32.4325597,24.8901727 31.5243563,22.5376711 C29.5881103,27.6788011 19.3393768,31.5989748 15.1063765,32.1861068 C15.1063765,23.3433632 22.2521643,16.1755848 31.0667882,16.1755848 C39.8814121,16.1755848 47.0262095,23.3433632 47.0262095,32.1861068"/>
    <path fill="#275897" d="M33.2853003 107.145272C33.2853003 105.38785 34.8342971 103.961249 36.7467734 103.961249 38.6592496 103.961249 40.2082464 105.38785 40.2082464 107.145272 40.2082464 108.902694 38.6592496 110.327309 36.7467734 110.327309 34.8342971 110.327309 33.2853003 108.902694 33.2853003 107.145272M23.1613581 107.145272C23.1613581 105.38785 24.7113453 103.961249 26.6228312 103.961249 28.5353075 103.961249 30.0833139 105.38785 30.0833139 107.145272 30.0833139 108.902694 28.5353075 110.327309 26.6228312 110.327309 24.7113453 110.327309 23.1613581 108.902694 23.1613581 107.145272"/>
    <polygon fill="#2D2119" points="72.38 87.1 87.034 87.1 87.034 77.676 72.38 77.676"/>
    <path fill="#CFCFCF" d="M84.7646845,110.246839 C83.1275415,110.246839 81.798415,108.914616 81.798415,107.271441 L81.798415,80.0587198 L77.5664052,80.0587198 L77.5664052,107.271441 C77.5664052,108.914616 76.2392596,110.246839 74.6011261,110.246839 C72.9620022,110.246839 71.6338662,108.914616 71.6338662,107.271441 L71.6338662,77.0823284 C71.6338662,75.4391537 72.9620022,74.1069305 74.6011261,74.1069305 L84.7646845,74.1069305 C86.4038084,74.1069305 87.7319444,75.4391537 87.7319444,77.0823284 L87.7319444,107.271441 C87.7319444,108.914616 86.4038084,110.246839 84.7646845,110.246839"/>
    <path fill="#FEBBBA" d="M85.2311663,56.604239 L85.2281951,56.604239 L74.1594045,56.5943045 C73.1264098,56.5943045 72.163734,56.084662 71.5793938,55.2322776 L55.7655624,32.1245126 C54.7870401,30.6959242 55.1485387,28.7388177 56.5757155,27.7582775 C57.999921,26.774757 59.9500327,27.139355 60.9295454,28.5689369 L75.8104133,50.3146749 L83.5147907,50.3196422 L97.3230476,28.6037078 C98.2530399,27.1423354 100.190276,26.7111759 101.646175,27.6460171 C103.105045,28.5798649 103.533891,30.5200826 102.602908,31.9834419 L87.8715919,55.1518077 C87.2961653,56.0568453 86.2998157,56.604239 85.2311663,56.604239"/>
    <polyline fill="#FFEBEB" points="81.826 49.654 81.826 47.503 76.304 47.503 76.304 49.654 72.99 49.654 72.99 67.645 85.553 67.645 85.553 49.654 81.826 49.654"/>
    <path fill="#FEBBBA" d="M87.8418796,76.8488665 L71.5576048,76.8488665 L71.3416961,49.6540273 L76.303636,49.6540273 C76.303636,49.6540273 76.8869859,53.0099186 78.9925915,53.0099186 C81.1249382,53.0099186 81.8261464,49.6540273 81.8261464,49.6540273 L88.1895126,49.6540273 L87.8418796,76.8488665"/>
    <path fill="#FFEBEB" d="M94.8777322,32.3122756 C94.8777322,41.0735559 87.7992921,48.1737793 79.0658816,48.1737793 C70.3314807,48.1737793 63.2520502,41.0735559 63.2520502,32.3122756 C63.2520502,23.5509953 70.3314807,16.4497784 79.0658816,16.4497784 C87.7992921,16.4497784 94.8777322,23.5509953 94.8777322,32.3122756"/>
    <path fill="#9B9B9B" d="M74.3426298 32.7156183C74.3426298 33.629597 73.6047765 34.3687276 72.6945923 34.3687276 71.7863889 34.3687276 71.0485355 33.629597 71.0485355 32.7156183 71.0485355 31.8036266 71.7863889 31.064496 72.6945923 31.064496 73.6047765 31.064496 74.3426298 31.8036266 74.3426298 32.7156183M86.9356571 32.7156183C86.9356571 33.629597 86.1978037 34.3687276 85.2876195 34.3687276 84.3774353 34.3687276 83.6415628 33.629597 83.6415628 32.7156183 83.6415628 31.8036266 84.3774353 31.064496 85.2876195 31.064496 86.1978037 31.064496 86.9356571 31.8036266 86.9356571 32.7156183"/>
    <path fill="#F69A98" d="M81.1516792,36.0198499 C81.1516792,36.9328351 80.1018476,37.6729591 78.8093662,37.6729591 C77.514904,37.6729591 76.4660628,36.9328351 76.4660628,36.0198499 C76.4660628,35.1078581 77.514904,34.3687276 78.8093662,34.3687276 C80.1018476,34.3687276 81.1516792,35.1078581 81.1516792,36.0198499"/>
    <path fill="#AAA" d="M79.1936442,43.2422683 C77.5990886,43.2422683 75.7262286,42.7048091 73.6879707,41.1003791 C73.4344264,40.9006947 73.3898581,40.5301359 73.5879395,40.274818 C73.7889922,40.0185066 74.1564333,39.9767815 74.4109679,40.1764659 C79.6878573,44.3291081 83.4930017,40.4049606 83.6534477,40.2360732 C83.8762893,40.0016178 84.2467016,39.9896964 84.4814281,40.2112369 C84.7161546,40.4317839 84.7280395,40.8023426 84.5081691,41.0387849 C84.4774665,41.0735559 82.3986018,43.2422683 79.1936442,43.2422683"/>
    <path fill="#8A8A8A" d="M95.0253029,32.3122756 C93.3138793,32.0231801 88.1281073,27.0698132 87.6903473,25.0143546 C85.3826986,26.25518 84.028812,27.217838 80.5138569,28.2450705 C80.4643366,24.8673233 80.4306627,25.0163415 79.5214689,22.6648334 C77.5842325,27.8039765 67.335499,31.7261371 63.1034892,32.3122756 C63.1034892,23.469532 70.2502674,16.3017536 79.0658816,16.3017536 C87.8795151,16.3017536 95.0253029,23.469532 95.0253029,32.3122756"/>
    <path fill="#EFAA2C" d="M81.2834033 107.271441C81.2834033 105.513026 82.8324001 104.088411 84.7448764 104.088411 86.6573527 104.088411 88.2063495 105.513026 88.2063495 107.271441 88.2063495 109.028863 86.6573527 110.453478 84.7448764 110.453478 82.8324001 110.453478 81.2834033 109.028863 81.2834033 107.271441M71.1594611 107.271441C71.1594611 105.513026 72.7094484 104.088411 74.6209342 104.088411 76.5334105 104.088411 78.0824073 105.513026 78.0824073 107.271441 78.0824073 109.028863 76.5334105 110.453478 74.6209342 110.453478 72.7094484 110.453478 71.1594611 109.028863 71.1594611 107.271441"/>
    <path fill="#8A8A8A" d="M29.9634746 133.20956C29.9634746 135.806451 27.862821 137.912576 25.2738966 137.912576L17.8507948 137.912576C15.2608801 137.912576 13.1622072 135.806451 13.1622072 133.20956L13.1622072 117.531845C13.1622072 114.93396 15.2608801 112.827835 17.8507948 112.827835L25.2738966 112.827835C27.862821 112.827835 29.9634746 114.93396 29.9634746 117.531845L29.9634746 133.20956M82.8938054 133.20956C82.8938054 135.806451 84.9924782 137.912576 87.5814026 137.912576L95.0054948 137.912576C97.5954095 137.912576 99.6950727 135.806451 99.6950727 133.20956L99.6950727 117.531845C99.6950727 114.93396 97.5954095 112.827835 95.0054948 112.827835L87.5814026 112.827835C84.9924782 112.827835 82.8938054 114.93396 82.8938054 117.531845L82.8938054 133.20956"/>
    <polyline fill="#CFCFCF" points="97.873 83.22 102.61 79.444 100.417 76.677 95.678 80.451 97.873 83.22"/>
    <path fill="#CFCFCF" d="M98.9601906,75.5017414 C98.9601906,78.572511 101.443141,81.0631029 104.50449,81.0631029 C107.567819,81.0631029 110.04978,78.572511 110.04978,75.5017414 C110.04978,72.4299783 107.567819,69.9393864 104.50449,69.9393864 C101.443141,69.9393864 98.9601906,72.4299783 98.9601906,75.5017414"/>
    <polyline fill="#CFCFCF" points="14.983 83.22 10.247 79.444 12.44 76.677 17.176 80.451 14.983 83.22"/>
    <path fill="#CFCFCF" d="M13.896099,75.5017414 C13.896099,78.572511 11.4121578,81.0631029 8.35179959,81.0631029 C5.28847019,81.0631029 2.80551939,78.572511 2.80551939,75.5017414 C2.80551939,72.4299783 5.28847019,69.9393864 8.35179959,69.9393864 C11.4121578,69.9393864 13.896099,72.4299783 13.896099,75.5017414"/>
    <path fill="#F1F1F1" d="M21.2251121,82.4052607 C21.3033542,80.9150781 22.6433752,64.4058417 28.3174179,57.6791574 C32.2275454,53.043696 48.231535,51.0081066 56.4964829,51.0081066 C64.7624212,51.0081066 80.7664108,53.043696 84.6785191,57.6791574 C90.3515714,64.4058417 91.6915923,80.9150781 91.7698345,82.4052607 C92.5611698,82.5453379 20.0811918,82.608919 21.2251121,82.4052607 Z M89.6265934,54.7097202 C84.386349,48.4976456 65.1090637,46.311051 56.7371518,46.311051 C48.36524,46.311051 28.6016647,48.4976456 23.36043,54.7097202 C17.4982099,61.6589384 15.3638824,75.9666784 14.7567628,84.1557285 C15.0657698,84.0613503 57.177883,84.1557285 57.177883,84.1557285 C57.177883,84.1557285 97.2784792,83.8656396 98.2312509,84.1557285 C97.6241313,75.9666784 95.4898039,61.6589384 89.6265934,54.7097202 L89.6265934,54.7097202 Z"/>
    <path fill="#F1F1F1" d="M67.3097484,82.0009245 C77.6812924,82.4181756 88.0548172,84.5958291 98.4253707,86.6949997 C98.4055626,86.3075522 98.3441573,85.2525029 98.2312509,83.7146345 C96.2821296,83.1185614 85.266821,77.6923098 56.5172814,77.6923098 C27.7667515,77.6923098 16.7058841,83.1185614 14.7567628,83.7146345 C14.6329619,85.372711 14.5735375,86.4724658 14.5586814,86.776463 C13.7584324,87.0377417 12.9958188,87.3725361 12.26886,87.7699181 C30.1239206,82.6337554 48.8247889,81.3462376 67.3097484,82.0009245"/>
    <path fill="#F1F1F1" d="M107.903567,99.5195112 C107.741141,93.5607677 103.820119,88.5458065 98.4303228,86.776463 C98.4293324,86.7536135 98.4273516,86.7248033 98.4253707,86.6949997 C88.0548172,84.5958291 77.6812924,82.4181756 67.3097484,82.0009245 C48.8247889,81.3462376 30.1239206,82.6337554 12.26886,87.7699181 C8.08934168,90.0528778 5.22211291,94.4429558 5.08543671,99.5195112 L5.07454224,99.5334196 L5.07454224,117.02717 L56.4697419,118.567025 L56.4697419,118.568019 L56.4925213,118.567025 L56.5172814,118.568019 L56.5172814,118.567025 L107.911491,117.02717 L107.911491,99.5334196 L107.903567,99.5195112"/>
    <path fill="#CFCFCF" d="M110.336007,114.595192 L2.65200628,114.595192 C1.1921461,114.595192 0.00761911663,115.783364 0.00761911663,117.24871 L0.00761911663,122.771327 C0.00761911663,124.236673 1.1921461,125.423852 2.65200628,125.423852 L110.336007,125.423852 C111.794877,125.423852 112.978414,124.236673 112.978414,122.771327 L112.978414,117.24871 C112.978414,115.783364 111.794877,114.595192 110.336007,114.595192"/>
    <path fill="#F69A98" d="M86.9267434,99.2979707 C86.9267434,103.475449 90.3030415,106.861144 94.4677037,106.861144 C98.6313754,106.861144 102.009654,103.475449 102.009654,99.2979707 C102.009654,95.1204922 98.6313754,91.7328104 94.4677037,91.7328104 C90.3030415,91.7328104 86.9267434,95.1204922 86.9267434,99.2979707"/>
    <path fill="#F69A98" d="M94.4677037 93.3869131C91.2191681 93.3869131 88.574781 96.0394381 88.574781 99.2979707 88.574781 102.557497 91.2191681 105.209028 94.4677037 105.209028 97.7172296 105.209028 100.359636 102.557497 100.359636 99.2979707 100.359636 96.0394381 97.7172296 93.3869131 94.4677037 93.3869131zM94.4677037 108.51624C89.4007805 108.51624 85.2787059 104.38148 85.2787059 99.2979707 85.2787059 94.2144611 89.4007805 90.0797011 94.4677037 90.0797011 99.5346268 90.0797011 103.657692 94.2144611 103.657692 99.2979707 103.657692 104.38148 99.5346268 108.51624 94.4677037 108.51624L94.4677037 108.51624zM12.6788885 99.2979707C12.6788885 103.475449 16.0551866 106.861144 20.2198488 106.861144 24.384511 106.861144 27.7617994 103.475449 27.7617994 99.2979707 27.7617994 95.1204922 24.384511 91.7328104 20.2198488 91.7328104 16.0551866 91.7328104 12.6788885 95.1204922 12.6788885 99.2979707"/>
    <path fill="#F69A98" d="M20.2198488,93.3869131 C16.9703228,93.3869131 14.3279165,96.0394381 14.3279165,99.2979707 C14.3279165,102.557497 16.9703228,105.209028 20.2198488,105.209028 C23.4693747,105.209028 26.1117811,102.557497 26.1117811,99.2979707 C26.1117811,96.0394381 23.4693747,93.3869131 20.2198488,93.3869131 Z M20.2198488,108.51624 C15.1529257,108.51624 11.0318414,104.38148 11.0318414,99.2979707 C11.0318414,94.2144611 15.1529257,90.0797011 20.2198488,90.0797011 C25.2867719,90.0797011 29.4088466,94.2144611 29.4088466,99.2979707 C29.4088466,104.38148 25.2867719,108.51624 20.2198488,108.51624 L20.2198488,108.51624 Z"/>
    <path fill="#DADADA" d="M40.5628122 95.2973272L72.4242111 95.2973272C73.2769517 95.2973272 73.9672655 94.604889 73.9672655 93.7485307 73.9672655 92.8951528 73.2769517 92.2027146 72.4242111 92.2027146L40.5628122 92.2027146C39.711062 92.2027146 39.0217386 92.8951528 39.0217386 93.7485307 39.0217386 94.604889 39.711062 95.2973272 40.5628122 95.2973272M72.4242111 97.4332556L40.5628122 97.4332556C39.711062 97.4332556 39.0217386 98.1256938 39.0217386 98.9800651 39.0217386 99.8344365 39.711062 100.527868 40.5628122 100.527868L72.4242111 100.527868C73.2769517 100.527868 73.9672655 99.8344365 73.9672655 98.9800651 73.9672655 98.1256938 73.2769517 97.4332556 72.4242111 97.4332556M72.4242111 102.662803L40.5628122 102.662803C39.711062 102.662803 39.0217386 103.356235 39.0217386 104.210606 39.0217386 105.063984 39.711062 105.756422 40.5628122 105.756422L72.4242111 105.756422C73.2769517 105.756422 73.9672655 105.063984 73.9672655 104.210606 73.9672655 103.356235 73.2769517 102.662803 72.4242111 102.662803"/>
    <path fill="#FBCFCE" d="M71.5724609,112.922214 L41.4145624,112.922214 C39.9537118,112.922214 38.7711656,114.109392 38.7711656,115.573745 L38.7711656,124.172099 C38.7711656,125.636452 39.9537118,126.822637 41.4145624,126.822637 L71.5724609,126.822637 C73.0323211,126.822637 74.2158577,125.636452 74.2158577,124.172099 L74.2158577,115.573745 C74.2158577,114.109392 73.0323211,112.922214 71.5724609,112.922214"/>
  </g>
</svg>
