<svg xmlns="http://www.w3.org/2000/svg" width="72" height="72" viewBox="0 0 72 72">
  <g fill="none" fill-rule="evenodd" transform="translate(8 8)">
    <path fill="#F1F1F1" fill-rule="nonzero" d="M2.1002415,8.27974775 C1.0502415,8.27974775 0.247300324,9.06546203 0.247300324,10.0929346 L0.247300324,53.1868132 C0.247300324,54.2142857 1.0502415,55 2.1002415,55 L39.8997585,55 C40.9497585,55 41.7526997,54.2142857 41.7526997,53.1868132 L41.7526997,10.0929346 C41.7526997,9.06546203 40.9497585,8.27974775 39.8997585,8.27974775 L2.1002415,8.27974775 Z"/>
    <path fill="#FEBBBA" d="M21.104658,0 C23.0599467,0 23.7980104,1.79965192 23.7980104,2.61168851 L23.7980104,5.04837482 C23.7980104,5.49130387 24.089622,5.78658991 24.5270395,5.78658991 L26.8642731,5.78658991 C27.3016906,5.78658991 27.739108,6.00718924 28.3223313,7.11451186 L29.925626,9.99383933 C29.9985289,10.3629469 29.9259103,10.4361918 29.8530074,10.5100133 C29.7072016,10.7314779 29.1977356,10.8791209 28.5416094,10.8791209 L13.4498523,10.8791209 C12.7937261,10.8791209 12.3571631,10.7314779 12.1384544,10.5100133 C12.1384544,10.5100133 11.9915098,10.3629469 12.0644127,9.99383933 L13.741749,7.11451186 C14.2520694,6.08101075 14.616584,5.78658991 15.1998073,5.78658991 L17.6822766,5.78658991 C18.1196941,5.78658991 18.4113057,5.49130387 18.4113057,5.04837482 L18.4113057,2.61168851 C18.4113057,1.87347342 19.1493694,0 21.104658,0 Z"/>
    <rect width="24.267" height="1" x="8.4" y="22.917" fill="#FEBBBA"/>
    <rect width="24.267" height="1" x="8.4" y="32.083" fill="#FEBBBA"/>
    <rect width="24.267" height="1" x="8.4" y="41.25" fill="#FEBBBA"/>
    <g fill-rule="nonzero" transform="rotate(10 -46.308 150.645)">
      <path fill="#FEBBBA" d="M11.5223294,2.33261834 L13.6924941,3.36071851 C13.7176941,3.37273669 13.7454882,3.37892787 13.7729118,3.37892787 C13.7936647,3.37892787 13.8140471,3.37565018 13.8340588,3.36873063 C13.8803824,3.3527064 13.9185529,3.31920118 13.9396765,3.27586292 L14.2146529,2.71465061 C14.2591235,2.62396802 14.2205824,2.51544026 14.1283059,2.47173781 L11.9585118,1.44363764 C11.9140412,1.42215061 11.8629,1.4196013 11.8169471,1.43562553 C11.7706235,1.45164976 11.7324529,1.48515497 11.7113294,1.52849324 L11.4359824,2.09006974 C11.4144882,2.13377219 11.4118941,2.18366582 11.4282,2.22918921 C11.4437647,2.27434841 11.4778588,2.31185968 11.5223294,2.33261834 Z M11.9644412,1.85043463 L13.8007059,2.7204776 L13.6861941,2.95355734 L11.8499294,2.08351437 L11.9644412,1.85043463 Z"/>
      <path fill="#F69A98" d="M11.9981647,1.36205974 L14.1683294,2.3901599 C14.1935294,2.40217808 14.2213235,2.40836926 14.2487471,2.40836926 C14.2695,2.40836926 14.2898824,2.40509158 14.3098941,2.39817202 C14.3562176,2.38214779 14.3943882,2.34864258 14.4155118,2.30530431 L14.7449647,1.63374331 C14.8257529,1.46949493 14.8365,1.28448788 14.7753529,1.11222739 C14.7138353,0.939966892 14.5882059,0.801575796 14.4207,0.722547196 L13.1688529,0.129286419 C13.0017176,0.0502578191 12.8134588,0.0393322063 12.6374294,0.0994230769 C12.4621412,0.159878135 12.3213176,0.28333756 12.2412706,0.44758594 L11.9114471,1.11914694 C11.8899529,1.16284939 11.8873588,1.21274303 11.9036647,1.25826641 C11.9196,1.3037898 11.9536941,1.34093688 11.9981647,1.36205974 Z"/>
      <path fill="#FEBBBA" d="M0.108582353,28.3275648 C0.134152941,28.3399472 0.161947059,28.3457742 0.189,28.3457742 C0.238658824,28.3457742 0.287947059,28.3261081 0.323523529,28.288961 L3.00324706,25.5065716 C3.01325294,25.4960101 3.01881176,25.4832636 3.02585294,25.4712454 C3.02844706,25.4668752 3.03326471,25.4650542 3.03548824,25.460684 L3.03622941,25.4588631 C3.07847647,25.4242653 3.10145294,25.3758284 3.10256471,25.3237496 L13.7125059,3.69358552 C13.734,3.64988307 13.7365941,3.59998943 13.7202882,3.55446605 C13.7043529,3.50894266 13.6702588,3.47143139 13.6257882,3.45067272 L11.4908294,2.43932516 C11.4004059,2.39489434 11.2881176,2.43313398 11.2436471,2.52418076 L0.567370588,24.2912792 C0.563294118,24.2996555 0.563294118,24.308396 0.5607,24.3171365 C0.557735294,24.3266054 0.552176471,24.3349817 0.550694118,24.3451789 L0.00518823529,28.1385517 C-0.00592941176,28.2168519 0.0359470588,28.2933312 0.108582353,28.3275648 Z"/>
    </g>
  </g>
</svg>
