<svg xmlns="http://www.w3.org/2000/svg" width="170" height="170" viewBox="0 0 170 170">
  <g fill="none" fill-rule="evenodd" transform="translate(15 14)">
    <polygon fill="#FEBBBA" points="3.102 70.182 136.134 70.182 131.607 67.336 8.053 67.336"/>
    <path fill="#FBCFCE" d="M131.700404,62.2781154 C131.352525,62.0703462 106.395758,49.7294231 98.8555556,45.4303077 C89.1969697,39.9215769 84.3662626,36.9359615 83.0765657,33.0466923 C81.9325253,29.5871923 75.9507071,25.3734615 71.0153535,24.4811923 C71.0040404,23.7355 70.9955556,22.9513846 70.9955556,22.0861538 C70.9955556,20.7498846 71.1256566,19.8035385 71.3165657,19.1090769 C71.4650505,18.5754231 71.6375758,18.1883462 71.8440404,17.8283077 C72.0561616,17.4696923 72.3107071,17.1366923 72.6373737,16.7581538 C73.2723232,16.0195769 74.2141414,15.1216154 75.1729293,13.7483462 C76.3608081,12.0463462 77.0424242,10.3073462 77.0424242,8.52992308 C77.0424242,7.50530769 76.8133333,6.52053846 76.4046465,5.60407692 C75.9959596,4.69046154 75.4218182,3.848 74.7274747,3.04965385 C73.9907071,2.20007692 73.0559596,1.61803846 72.0816162,1.25515385 C71.1086869,0.893692308 70.0777778,0.74 69.0624242,0.74 C67.8250505,0.741423077 66.5905051,0.966269231 65.4492929,1.38607692 C64.4113131,1.77030769 63.4412121,2.32957692 62.6280808,3.07384615 L62.3905051,3.28303846 C61.280404,4.41011538 60.5521212,5.10884615 60.1618182,5.36926923 C59.9426263,5.51584615 59.8507071,5.55569231 59.7262626,5.59553846 C59.6018182,5.62969231 59.4646465,5.65530769 59.180404,5.65530769 C58.1678788,5.65815385 57.3476768,6.48211538 57.3462626,7.50103846 C57.3476768,8.52138462 58.1678788,9.34534615 59.180404,9.34676923 C59.7121212,9.34676923 60.2410101,9.29269231 60.769899,9.13330769 C61.5773737,8.89423077 62.2505051,8.44880769 62.8769697,7.918 C63.5034343,7.38576923 64.1412121,6.73826923 64.9854545,5.89011538 C65.3573737,5.51015385 65.979596,5.12023077 66.6979798,4.85553846 C67.4375758,4.58088462 68.2775758,4.42719231 69.059596,4.42861538 C69.710101,4.42861538 70.3210101,4.53107692 70.8131313,4.71465385 C71.3137374,4.9025 71.6884848,5.15723077 71.969899,5.47742308 C72.480404,6.06515385 72.8367677,6.61303846 73.0587879,7.10969231 C73.2793939,7.61346154 73.3741414,8.0475 73.3769697,8.52707692 C73.3741414,8.93834615 73.3020202,9.37523077 73.1139394,9.88611538 C72.9230303,10.3984231 72.6189899,10.9790385 72.1692929,11.6293846 C71.68,12.3338077 71.1892929,12.8845385 70.6660606,13.4523462 C70.2771717,13.8778462 69.8684848,14.3147308 69.4668687,14.8213462 C68.8672727,15.5741538 68.300202,16.4948846 67.919798,17.6689231 C67.5167677,18.9297692 67.3286869,20.3258077 67.3286869,22.0861538 C67.3286869,22.9784231 67.3371717,23.791 67.3513131,24.5623077 C62.5064646,25.6153846 56.84,29.6896538 55.7284848,33.0452692 C54.440202,36.9345385 49.6094949,39.9201538 39.9494949,45.4288846 C32.4107071,49.728 7.45393939,62.0689231 7.10747475,62.2766923 C3.88747475,64.2206154 -0.298383838,68.7588077 0.0226262626,71.6746923 C0.345050505,74.5905769 3.43777778,71.9991538 8.26848485,69.0818462 C12.9422222,66.2598846 66.070101,34.7985 69.4046465,32.9541923 C72.7391919,34.7985 125.868485,66.2584615 130.542222,69.0818462 C135.372929,71.9991538 138.467071,74.5905769 138.786667,71.6746923 C139.104848,68.7588077 134.920404,64.2220385 131.700404,62.2781154 Z"/>
    <path fill="#F1F1F1" d="M25,67.0071078 C25,65.8986128 25.8996312,65 27.0033445,65 L110.996655,65 C112.103072,65 113,65.8905878 113,67.0071078 L113,128 C113,128 100,142 69,142 C38,142 25,128 25,128 L25,67.0071078 Z"/>
    <text fill="#AAA" font-family="Roboto-Medium, Roboto" font-size="13" font-weight="400" letter-spacing=".181">
      <tspan x="30.464" y="94">A/C NUMBER</tspan> <tspan x="37.844" y="109">IFSC CODE</tspan>
    </text>
  </g>
</svg>
