<svg xmlns="http://www.w3.org/2000/svg" xmlns:xlink="http://www.w3.org/1999/xlink" width="96" height="96" viewBox="0 0 96 96">
  <defs>
    <rect id="password_96x96-a" width="49.778" height="21" rx="10"/>
    <mask id="password_96x96-b" width="49.778" height="21" x="0" y="0" fill="#fff">
      <use xlink:href="#password_96x96-a"/>
    </mask>
  </defs>
  <g fill="none" fill-rule="evenodd" transform="translate(16 14)">
    <g transform="translate(.107 .24)">
      <rect width="41.573" height="44.154" x="10.94" stroke="#F1F1F1" stroke-width="4.308" rx="13.957"/>
      <path fill="#F1F1F1" d="M63.2479385,61.7525481 C63.2479385,65.7540865 59.5560336,69.0192308 55.0314863,69.0192308 L8.62345618,69.0192308 C4.09890889,69.0192308 0.407003991,65.7540865 0.407003991,61.7525481 L0.407003991,34.6032212 C0.407003991,30.6016827 4.09890889,27.3365385 8.62345618,27.3365385 L55.0314863,27.3365385 C59.5560336,27.3365385 63.2479385,30.6016827 63.2479385,34.6032212 L63.2479385,61.7525481 L63.2479385,61.7525481 Z"/>
    </g>
    <g transform="translate(6.381 38.375)">
      <use fill="#FFEBEB" stroke="#FEBBBA" stroke-width="6" mask="url(#password_96x96-b)" transform="translate(0 .12)" xlink:href="#password_96x96-a"/>
      <path fill="#F69A98" d="M30.2034026,6.46153846 C28.4559251,6.46153846 27.0392838,5.01510555 27.0392838,3.23087897 C27.0392838,1.44643291 28.4559251,-8.8817842e-16 30.2034026,-8.8817842e-16 C31.9508801,-8.8817842e-16 33.3675214,1.44643291 33.3675214,3.23087897 C33.3675214,5.01510555 31.9508801,6.46153846 30.2034026,6.46153846 Z M21.1973045,6.46153846 C19.449827,6.46153846 18.0331857,5.01510555 18.0331857,3.23087897 C18.0331857,1.44643291 19.449827,-8.8817842e-16 21.1973045,-8.8817842e-16 C22.944997,-8.8817842e-16 24.3616383,1.44643291 24.3616383,3.23087897 C24.3616383,5.01510555 22.944997,6.46153846 21.1973045,6.46153846 Z M9.02708762,3.23087897 C9.02708762,1.44643291 10.4439439,-8.8817842e-16 12.1914214,-8.8817842e-16 C13.9388989,-8.8817842e-16 15.3555402,1.44643291 15.3555402,3.23087897 C15.3555402,5.01510555 13.9388989,6.46153846 12.1914214,6.46153846 C10.4439439,6.46153846 9.02708762,5.01510555 9.02708762,3.23087897 Z M1.77635684e-15,3.23087897 C1.77635684e-15,1.44643291 1.41685624,-8.8817842e-16 3.16433377,-8.8817842e-16 C4.91181131,-8.8817842e-16 6.32845259,1.44643291 6.32845259,3.23087897 C6.32845259,5.01510555 4.91181131,6.46153846 3.16433377,6.46153846 C1.41685624,6.46153846 1.77635684e-15,5.01510555 1.77635684e-15,3.23087897 Z" transform="translate(8.44 7.593)"/>
    </g>
  </g>
</svg>
