<svg xmlns="http://www.w3.org/2000/svg" width="280" height="280" viewBox="0 0 280 280">
  <g fill="none" fill-rule="evenodd" transform="translate(-453)">
    <g transform="translate(456 3)">
      <circle cx="137" cy="137" r="125" fill="#F1F1F1" stroke="#CFCFCF" stroke-width="4"/>
      <text fill="#F69A98" font-family="Roboto-Bold, Roboto" font-size="21" font-weight="bold" letter-spacing=".292">
        <tspan x="80" y="43">100% SAFE SECURE</tspan>
      </text>
      <circle cx="137" cy="137" r="95" fill="#F1F1F1" stroke="#CFCFCF" stroke-width="4"/>
      <polygon fill="#F69A98" points="154.5 31.75 150.25 34.861 150.819 29.625 146 27.5 150.819 25.375 150.25 20.139 154.5 23.25 158.75 20.139 158.181 25.375 163 27.5 158.181 29.625 158.75 34.861"/>
      <polygon fill="#F69A98" points="246.5 140.75 242.25 143.861 242.819 138.625 238 136.5 242.819 134.375 242.25 129.139 246.5 132.25 250.75 129.139 250.181 134.375 255 136.5 250.181 138.625 250.75 143.861"/>
      <polygon fill="#F69A98" points="37.5 186.75 33.25 189.861 33.819 184.625 29 182.5 33.819 180.375 33.25 175.139 37.5 178.25 41.75 175.139 41.181 180.375 46 182.5 41.181 184.625 41.75 189.861"/>
      <polygon fill="#F69A98" points="122.5 249.611 118.25 252.722 118.819 247.486 114 245.361 118.819 243.236 118.25 238 122.5 241.111 126.75 238 126.181 243.236 131 245.361 126.181 247.486 126.75 252.722"/>
      <g transform="translate(72 66)">
        <path fill="#CFCFCF" d="M128.932844,19.0656 C102.434789,19.0656 65.4038532,0 65.4038532,0 C65.4038532,0 28.3729174,19.0656 1.87486239,19.0656 C-5.14385321,47.8704 5.76880734,118.6992 65.4038532,144 C125.043706,118.6992 135.95156,47.8704 128.932844,19.0656 Z"/>
        <path fill="#F69A98" d="M65.4038532,133.1472 C18.2150092,110.5392 7.50906422,55.416 10.2636697,28.3104 C31.6611376,25.92 55.5968807,15.48 65.4038532,10.8528 C75.2060183,15.48 99.1417615,25.92 120.534422,28.3104 C123.308257,55.416 112.597505,110.5296 65.4038532,133.1472 Z"/>
        <path fill="#E5E5E5" d="M65.4038532,16.4832 C55.4959266,21.0768 34.6032294,29.9232 15.1094679,32.664 C13.354789,58.368 23.7867156,106.6512 65.4038532,127.5168 C107.016183,106.6512 117.452917,58.3728 115.698239,32.664 C96.2044771,29.9232 75.3117798,21.0816 65.4038532,16.4832 Z"/>
        <path fill="#F69A98" d="M87.0901933,54.8818143 C88.4768873,56.2256967 88.2536682,58.6066421 86.5896355,60.2193009 L62.5600848,83.5069834 C62.4677668,83.5964513 62.372112,83.6794115 62.2752367,83.7602564 C62.2068976,83.8395005 62.1363844,83.9176023 62.0595262,83.9920882 C60.6728322,85.3359706 58.4392577,85.3359706 57.0525636,83.9920882 L47.0400204,74.2886638 C45.6533265,72.9447813 45.6533265,70.7801636 47.0400204,69.4362813 C48.4267145,68.0923995 50.6602898,68.0923995 52.046983,69.4362813 L59.5567363,76.7128448 L81.5826722,55.3669191 C82.5186906,54.4597985 83.7054917,53.9944243 84.8114098,54.0000504 C85.6715691,54.004443 86.4835148,54.2938658 87.0901933,54.8818143 Z"/>
      </g>
    </g>
  </g>
</svg>
