<svg xmlns="http://www.w3.org/2000/svg" width="358" height="428" viewBox="0 0 358 428">
  <g fill="none" fill-rule="evenodd" transform="translate(5 9)">
    <g transform="translate(.451)">
      <g transform="translate(119.297 117.17)">
        <g>
          <rect width="148.536" height="290.52" fill="#F1F1F1" rx="11.172"/>
          <ellipse cx="75.067" cy="277.75" stroke="#C1C1C1" stroke-width="1.06" opacity=".5" rx="7.986" ry="7.981"/>
          <rect width="135.759" height="239.439" x="6.389" y="25.54" fill="#FCFCFC" rx="4.469"/>
          <path fill="#F69A98" d="M48.5732816,17.3034864 C47.3939165,17.3034864 46.4378523,16.3029469 46.4378523,15.0687188 C46.4378523,13.8344906 47.3939165,12.8339512 48.5732816,12.8339512 C49.7526468,12.8339512 50.708711,13.8344906 50.708711,15.0687188 C50.708711,16.3029469 49.7526468,17.3034864 48.5732816,17.3034864 Z M42.5228984,17.3034864 C41.3435332,17.3034864 40.387469,16.3029469 40.387469,15.0687188 C40.387469,13.8344906 41.3435332,12.8339512 42.5228984,12.8339512 C43.7022635,12.8339512 44.6583278,13.8344906 44.6583278,15.0687188 C44.6583278,16.3029469 43.7022635,17.3034864 42.5228984,17.3034864 Z"/>
        </g>
        <g transform="translate(35.345 105.954)">
          <polygon fill="#F1F1F1" points="74.344 17.491 39.335 0 4.327 17.491 0 17.491 0 21.815 78.671 21.815 78.671 17.491"/>
          <rect width="8.752" height="39.306" x="35.009" y="26.237" fill="#F69A98"/>
          <rect width="8.752" height="39.306" x="56.84" y="26.237" fill="#F69A98"/>
          <rect width="8.752" height="39.306" x="13.079" y="26.237" fill="#F69A98"/>
          <polygon fill="#F1F1F1" points="74.344 70.161 4.327 69.866 4.327 74.386 0 74.386 0 78.611 4.327 78.611 8.752 78.611 17.504 78.611 35.009 78.611 43.662 78.611 61.167 78.611 69.919 78.611 74.344 78.611 78.671 78.611 78.671 74.386 74.344 74.386"/>
        </g>
        <path fill="#AAA" d="M0.537368285,6.25734933 C0.240587961,6.25734933 -7.99360578e-15,6.02389011 -7.99360578e-15,5.73590355 C-7.99360578e-15,5.44791698 0.240587961,5.21445777 0.537368285,5.21445777 C0.834148608,5.21445777 1.07473657,5.44791698 1.07473657,5.73590355 C1.07473657,6.02389011 0.834148608,6.25734933 0.537368285,6.25734933 Z M2.3285959,6.25734933 C2.03181558,6.25734933 1.79122762,6.02389011 1.79122762,5.73590355 C1.79122762,5.44791698 2.03181558,5.21445777 2.3285959,5.21445777 C2.62537622,5.21445777 2.86596418,5.44791698 2.86596418,5.73590355 C2.86596418,6.02389011 2.62537622,6.25734933 2.3285959,6.25734933 Z M0.537368285,4.51919674 C0.240587961,4.51919674 -7.99360578e-15,4.28573752 -7.99360578e-15,3.99775096 C-7.99360578e-15,3.70976439 0.240587961,3.47630518 0.537368285,3.47630518 C0.834148608,3.47630518 1.07473657,3.70976439 1.07473657,3.99775096 C1.07473657,4.28573752 0.834148608,4.51919674 0.537368285,4.51919674 Z M2.3285959,4.51919674 C2.03181558,4.51919674 1.79122762,4.28573752 1.79122762,3.99775096 C1.79122762,3.70976439 2.03181558,3.47630518 2.3285959,3.47630518 C2.62537622,3.47630518 2.86596418,3.70976439 2.86596418,3.99775096 C2.86596418,4.28573752 2.62537622,4.51919674 2.3285959,4.51919674 Z M0.537368285,2.78104414 C0.240587961,2.78104414 -7.99360578e-15,2.54758493 -7.99360578e-15,2.25959837 C-7.99360578e-15,1.9716118 0.240587961,1.73815259 0.537368285,1.73815259 C0.834148608,1.73815259 1.07473657,1.9716118 1.07473657,2.25959837 C1.07473657,2.54758493 0.834148608,2.78104414 0.537368285,2.78104414 Z M2.3285959,2.78104414 C2.03181558,2.78104414 1.79122762,2.54758493 1.79122762,2.25959837 C1.79122762,1.9716118 2.03181558,1.73815259 2.3285959,1.73815259 C2.62537622,1.73815259 2.86596418,1.9716118 2.86596418,2.25959837 C2.86596418,2.54758493 2.62537622,2.78104414 2.3285959,2.78104414 Z M0.537368285,1.04289155 C0.240587961,1.04289155 -7.99360578e-15,0.809432342 -7.99360578e-15,0.521445777 C-7.99360578e-15,0.233459212 0.240587961,0 0.537368285,0 C0.834148608,0 1.07473657,0.233459212 1.07473657,0.521445777 C1.07473657,0.809432342 0.834148608,1.04289155 0.537368285,1.04289155 Z M2.3285959,1.04289155 C2.03181558,1.04289155 1.79122762,0.809432342 1.79122762,0.521445777 C1.79122762,0.233459212 2.03181558,0 2.3285959,0 C2.62537622,0 2.86596418,0.233459212 2.86596418,0.521445777 C2.86596418,0.809432342 2.62537622,1.04289155 2.3285959,1.04289155 Z M4.11982352,6.25734933 C3.82304319,6.25734933 3.58245523,6.02389011 3.58245523,5.73590355 C3.58245523,5.44791698 3.82304319,5.21445777 4.11982352,5.21445777 C4.41660384,5.21445777 4.6571918,5.44791698 4.6571918,5.73590355 C4.6571918,6.02389011 4.41660384,6.25734933 4.11982352,6.25734933 Z M5.91105113,6.25734933 C5.61427081,6.25734933 5.37368285,6.02389011 5.37368285,5.73590355 C5.37368285,5.44791698 5.61427081,5.21445777 5.91105113,5.21445777 C6.20783145,5.21445777 6.44841942,5.44791698 6.44841942,5.73590355 C6.44841942,6.02389011 6.20783145,6.25734933 5.91105113,6.25734933 Z M4.11982352,4.51919674 C3.82304319,4.51919674 3.58245523,4.28573752 3.58245523,3.99775096 C3.58245523,3.70976439 3.82304319,3.47630518 4.11982352,3.47630518 C4.41660384,3.47630518 4.6571918,3.70976439 4.6571918,3.99775096 C4.6571918,4.28573752 4.41660384,4.51919674 4.11982352,4.51919674 Z M5.91105113,4.51919674 C5.61427081,4.51919674 5.37368285,4.28573752 5.37368285,3.99775096 C5.37368285,3.70976439 5.61427081,3.47630518 5.91105113,3.47630518 C6.20783145,3.47630518 6.44841942,3.70976439 6.44841942,3.99775096 C6.44841942,4.28573752 6.20783145,4.51919674 5.91105113,4.51919674 Z M4.11982352,2.78104414 C3.82304319,2.78104414 3.58245523,2.54758493 3.58245523,2.25959837 C3.58245523,1.9716118 3.82304319,1.73815259 4.11982352,1.73815259 C4.41660384,1.73815259 4.6571918,1.9716118 4.6571918,2.25959837 C4.6571918,2.54758493 4.41660384,2.78104414 4.11982352,2.78104414 Z M5.91105113,2.78104414 C5.61427081,2.78104414 5.37368285,2.54758493 5.37368285,2.25959837 C5.37368285,1.9716118 5.61427081,1.73815259 5.91105113,1.73815259 C6.20783145,1.73815259 6.44841942,1.9716118 6.44841942,2.25959837 C6.44841942,2.54758493 6.20783145,2.78104414 5.91105113,2.78104414 Z M4.11982352,1.04289155 C3.82304319,1.04289155 3.58245523,0.809432342 3.58245523,0.521445777 C3.58245523,0.233459212 3.82304319,0 4.11982352,0 C4.41660384,0 4.6571918,0.233459212 4.6571918,0.521445777 C4.6571918,0.809432342 4.41660384,1.04289155 4.11982352,1.04289155 Z M5.91105113,1.04289155 C5.61427081,1.04289155 5.37368285,0.809432342 5.37368285,0.521445777 C5.37368285,0.233459212 5.61427081,0 5.91105113,0 C6.20783145,0 6.44841942,0.233459212 6.44841942,0.521445777 C6.44841942,0.809432342 6.20783145,1.04289155 5.91105113,1.04289155 Z M7.70227875,6.25734933 C7.40549842,6.25734933 7.16491046,6.02389011 7.16491046,5.73590355 C7.16491046,5.44791698 7.40549842,5.21445777 7.70227875,5.21445777 C7.99905907,5.21445777 8.23964703,5.44791698 8.23964703,5.73590355 C8.23964703,6.02389011 7.99905907,6.25734933 7.70227875,6.25734933 Z M9.49350636,6.25734933 C9.19672604,6.25734933 8.95613808,6.02389011 8.95613808,5.73590355 C8.95613808,5.44791698 9.19672604,5.21445777 9.49350636,5.21445777 C9.79028668,5.21445777 10.0308746,5.44791698 10.0308746,5.73590355 C10.0308746,6.02389011 9.79028668,6.25734933 9.49350636,6.25734933 Z M7.70227875,4.51919674 C7.40549842,4.51919674 7.16491046,4.28573752 7.16491046,3.99775096 C7.16491046,3.70976439 7.40549842,3.47630518 7.70227875,3.47630518 C7.99905907,3.47630518 8.23964703,3.70976439 8.23964703,3.99775096 C8.23964703,4.28573752 7.99905907,4.51919674 7.70227875,4.51919674 Z M9.49350636,4.51919674 C9.19672604,4.51919674 8.95613808,4.28573752 8.95613808,3.99775096 C8.95613808,3.70976439 9.19672604,3.47630518 9.49350636,3.47630518 C9.79028668,3.47630518 10.0308746,3.70976439 10.0308746,3.99775096 C10.0308746,4.28573752 9.79028668,4.51919674 9.49350636,4.51919674 Z M7.70227875,2.78104414 C7.40549842,2.78104414 7.16491046,2.54758493 7.16491046,2.25959837 C7.16491046,1.9716118 7.40549842,1.73815259 7.70227875,1.73815259 C7.99905907,1.73815259 8.23964703,1.9716118 8.23964703,2.25959837 C8.23964703,2.54758493 7.99905907,2.78104414 7.70227875,2.78104414 Z M9.49350636,2.78104414 C9.19672604,2.78104414 8.95613808,2.54758493 8.95613808,2.25959837 C8.95613808,1.9716118 9.19672604,1.73815259 9.49350636,1.73815259 C9.79028668,1.73815259 10.0308746,1.9716118 10.0308746,2.25959837 C10.0308746,2.54758493 9.79028668,2.78104414 9.49350636,2.78104414 Z M7.70227875,1.04289155 C7.40549842,1.04289155 7.16491046,0.809432342 7.16491046,0.521445777 C7.16491046,0.233459212 7.40549842,0 7.70227875,0 C7.99905907,0 8.23964703,0.233459212 8.23964703,0.521445777 C8.23964703,0.809432342 7.99905907,1.04289155 7.70227875,1.04289155 Z M9.49350636,1.04289155 C9.19672604,1.04289155 8.95613808,0.809432342 8.95613808,0.521445777 C8.95613808,0.233459212 9.19672604,0 9.49350636,0 C9.79028668,0 10.0308746,0.233459212 10.0308746,0.521445777 C10.0308746,0.809432342 9.79028668,1.04289155 9.49350636,1.04289155 Z M11.284734,6.25734933 C10.9879537,6.25734933 10.7473657,6.02389011 10.7473657,5.73590355 C10.7473657,5.44791698 10.9879537,5.21445777 11.284734,5.21445777 C11.5815143,5.21445777 11.8221023,5.44791698 11.8221023,5.73590355 C11.8221023,6.02389011 11.5815143,6.25734933 11.284734,6.25734933 Z M13.0759616,6.25734933 C12.7791813,6.25734933 12.5385933,6.02389011 12.5385933,5.73590355 C12.5385933,5.44791698 12.7791813,5.21445777 13.0759616,5.21445777 C13.3727419,5.21445777 13.6133299,5.44791698 13.6133299,5.73590355 C13.6133299,6.02389011 13.3727419,6.25734933 13.0759616,6.25734933 Z M11.284734,4.51919674 C10.9879537,4.51919674 10.7473657,4.28573752 10.7473657,3.99775096 C10.7473657,3.70976439 10.9879537,3.47630518 11.284734,3.47630518 C11.5815143,3.47630518 11.8221023,3.70976439 11.8221023,3.99775096 C11.8221023,4.28573752 11.5815143,4.51919674 11.284734,4.51919674 Z M13.0759616,4.51919674 C12.7791813,4.51919674 12.5385933,4.28573752 12.5385933,3.99775096 C12.5385933,3.70976439 12.7791813,3.47630518 13.0759616,3.47630518 C13.3727419,3.47630518 13.6133299,3.70976439 13.6133299,3.99775096 C13.6133299,4.28573752 13.3727419,4.51919674 13.0759616,4.51919674 Z M11.284734,2.78104414 C10.9879537,2.78104414 10.7473657,2.54758493 10.7473657,2.25959837 C10.7473657,1.9716118 10.9879537,1.73815259 11.284734,1.73815259 C11.5815143,1.73815259 11.8221023,1.9716118 11.8221023,2.25959837 C11.8221023,2.54758493 11.5815143,2.78104414 11.284734,2.78104414 Z M13.0759616,2.78104414 C12.7791813,2.78104414 12.5385933,2.54758493 12.5385933,2.25959837 C12.5385933,1.9716118 12.7791813,1.73815259 13.0759616,1.73815259 C13.3727419,1.73815259 13.6133299,1.9716118 13.6133299,2.25959837 C13.6133299,2.54758493 13.3727419,2.78104414 13.0759616,2.78104414 Z M11.284734,1.04289155 C10.9879537,1.04289155 10.7473657,0.809432342 10.7473657,0.521445777 C10.7473657,0.233459212 10.9879537,0 11.284734,0 C11.5815143,0 11.8221023,0.233459212 11.8221023,0.521445777 C11.8221023,0.809432342 11.5815143,1.04289155 11.284734,1.04289155 Z M13.0759616,1.04289155 C12.7791813,1.04289155 12.5385933,0.809432342 12.5385933,0.521445777 C12.5385933,0.233459212 12.7791813,0 13.0759616,0 C13.3727419,0 13.6133299,0.233459212 13.6133299,0.521445777 C13.6133299,0.809432342 13.3727419,1.04289155 13.0759616,1.04289155 Z M14.8671892,6.25734933 C14.5704089,6.25734933 14.3298209,6.02389011 14.3298209,5.73590355 C14.3298209,5.44791698 14.5704089,5.21445777 14.8671892,5.21445777 C15.1639695,5.21445777 15.4045575,5.44791698 15.4045575,5.73590355 C15.4045575,6.02389011 15.1639695,6.25734933 14.8671892,6.25734933 Z M16.6584168,6.25734933 C16.3616365,6.25734933 16.1210485,6.02389011 16.1210485,5.73590355 C16.1210485,5.44791698 16.3616365,5.21445777 16.6584168,5.21445777 C16.9551971,5.21445777 17.1957851,5.44791698 17.1957851,5.73590355 C17.1957851,6.02389011 16.9551971,6.25734933 16.6584168,6.25734933 Z M14.8671892,4.51919674 C14.5704089,4.51919674 14.3298209,4.28573752 14.3298209,3.99775096 C14.3298209,3.70976439 14.5704089,3.47630518 14.8671892,3.47630518 C15.1639695,3.47630518 15.4045575,3.70976439 15.4045575,3.99775096 C15.4045575,4.28573752 15.1639695,4.51919674 14.8671892,4.51919674 Z M16.6584168,4.51919674 C16.3616365,4.51919674 16.1210485,4.28573752 16.1210485,3.99775096 C16.1210485,3.70976439 16.3616365,3.47630518 16.6584168,3.47630518 C16.9551971,3.47630518 17.1957851,3.70976439 17.1957851,3.99775096 C17.1957851,4.28573752 16.9551971,4.51919674 16.6584168,4.51919674 Z M14.8671892,2.78104414 C14.5704089,2.78104414 14.3298209,2.54758493 14.3298209,2.25959837 C14.3298209,1.9716118 14.5704089,1.73815259 14.8671892,1.73815259 C15.1639695,1.73815259 15.4045575,1.9716118 15.4045575,2.25959837 C15.4045575,2.54758493 15.1639695,2.78104414 14.8671892,2.78104414 Z M16.6584168,2.78104414 C16.3616365,2.78104414 16.1210485,2.54758493 16.1210485,2.25959837 C16.1210485,1.9716118 16.3616365,1.73815259 16.6584168,1.73815259 C16.9551971,1.73815259 17.1957851,1.9716118 17.1957851,2.25959837 C17.1957851,2.54758493 16.9551971,2.78104414 16.6584168,2.78104414 Z M14.8671892,1.04289155 C14.5704089,1.04289155 14.3298209,0.809432342 14.3298209,0.521445777 C14.3298209,0.233459212 14.5704089,0 14.8671892,0 C15.1639695,0 15.4045575,0.233459212 15.4045575,0.521445777 C15.4045575,0.809432342 15.1639695,1.04289155 14.8671892,1.04289155 Z M16.6584168,1.04289155 C16.3616365,1.04289155 16.1210485,0.809432342 16.1210485,0.521445777 C16.1210485,0.233459212 16.3616365,0 16.6584168,0 C16.9551971,0 17.1957851,0.233459212 17.1957851,0.521445777 C17.1957851,0.809432342 16.9551971,1.04289155 16.6584168,1.04289155 Z M18.4496444,6.25734933 C18.1528641,6.25734933 17.9122762,6.02389011 17.9122762,5.73590355 C17.9122762,5.44791698 18.1528641,5.21445777 18.4496444,5.21445777 C18.7464248,5.21445777 18.9870127,5.44791698 18.9870127,5.73590355 C18.9870127,6.02389011 18.7464248,6.25734933 18.4496444,6.25734933 Z M20.2408721,6.25734933 C19.9440917,6.25734933 19.7035038,6.02389011 19.7035038,5.73590355 C19.7035038,5.44791698 19.9440917,5.21445777 20.2408721,5.21445777 C20.5376524,5.21445777 20.7782403,5.44791698 20.7782403,5.73590355 C20.7782403,6.02389011 20.5376524,6.25734933 20.2408721,6.25734933 Z M18.4496444,4.51919674 C18.1528641,4.51919674 17.9122762,4.28573752 17.9122762,3.99775096 C17.9122762,3.70976439 18.1528641,3.47630518 18.4496444,3.47630518 C18.7464248,3.47630518 18.9870127,3.70976439 18.9870127,3.99775096 C18.9870127,4.28573752 18.7464248,4.51919674 18.4496444,4.51919674 Z M20.2408721,4.51919674 C19.9440917,4.51919674 19.7035038,4.28573752 19.7035038,3.99775096 C19.7035038,3.70976439 19.9440917,3.47630518 20.2408721,3.47630518 C20.5376524,3.47630518 20.7782403,3.70976439 20.7782403,3.99775096 C20.7782403,4.28573752 20.5376524,4.51919674 20.2408721,4.51919674 Z M18.4496444,2.78104414 C18.1528641,2.78104414 17.9122762,2.54758493 17.9122762,2.25959837 C17.9122762,1.9716118 18.1528641,1.73815259 18.4496444,1.73815259 C18.7464248,1.73815259 18.9870127,1.9716118 18.9870127,2.25959837 C18.9870127,2.54758493 18.7464248,2.78104414 18.4496444,2.78104414 Z M20.2408721,2.78104414 C19.9440917,2.78104414 19.7035038,2.54758493 19.7035038,2.25959837 C19.7035038,1.9716118 19.9440917,1.73815259 20.2408721,1.73815259 C20.5376524,1.73815259 20.7782403,1.9716118 20.7782403,2.25959837 C20.7782403,2.54758493 20.5376524,2.78104414 20.2408721,2.78104414 Z M18.4496444,1.04289155 C18.1528641,1.04289155 17.9122762,0.809432342 17.9122762,0.521445777 C17.9122762,0.233459212 18.1528641,0 18.4496444,0 C18.7464248,0 18.9870127,0.233459212 18.9870127,0.521445777 C18.9870127,0.809432342 18.7464248,1.04289155 18.4496444,1.04289155 Z M20.2408721,1.04289155 C19.9440917,1.04289155 19.7035038,0.809432342 19.7035038,0.521445777 C19.7035038,0.233459212 19.9440917,0 20.2408721,0 C20.5376524,0 20.7782403,0.233459212 20.7782403,0.521445777 C20.7782403,0.809432342 20.5376524,1.04289155 20.2408721,1.04289155 Z M22.0320997,6.25734933 C21.7353193,6.25734933 21.4947314,6.02389011 21.4947314,5.73590355 C21.4947314,5.44791698 21.7353193,5.21445777 22.0320997,5.21445777 C22.32888,5.21445777 22.569468,5.44791698 22.569468,5.73590355 C22.569468,6.02389011 22.32888,6.25734933 22.0320997,6.25734933 Z M23.8233273,6.25734933 C23.526547,6.25734933 23.285959,6.02389011 23.285959,5.73590355 C23.285959,5.44791698 23.526547,5.21445777 23.8233273,5.21445777 C24.1201076,5.21445777 24.3606956,5.44791698 24.3606956,5.73590355 C24.3606956,6.02389011 24.1201076,6.25734933 23.8233273,6.25734933 Z M22.0320997,4.51919674 C21.7353193,4.51919674 21.4947314,4.28573752 21.4947314,3.99775096 C21.4947314,3.70976439 21.7353193,3.47630518 22.0320997,3.47630518 C22.32888,3.47630518 22.569468,3.70976439 22.569468,3.99775096 C22.569468,4.28573752 22.32888,4.51919674 22.0320997,4.51919674 Z M23.8233273,4.51919674 C23.526547,4.51919674 23.285959,4.28573752 23.285959,3.99775096 C23.285959,3.70976439 23.526547,3.47630518 23.8233273,3.47630518 C24.1201076,3.47630518 24.3606956,3.70976439 24.3606956,3.99775096 C24.3606956,4.28573752 24.1201076,4.51919674 23.8233273,4.51919674 Z M22.0320997,2.78104414 C21.7353193,2.78104414 21.4947314,2.54758493 21.4947314,2.25959837 C21.4947314,1.9716118 21.7353193,1.73815259 22.0320997,1.73815259 C22.32888,1.73815259 22.569468,1.9716118 22.569468,2.25959837 C22.569468,2.54758493 22.32888,2.78104414 22.0320997,2.78104414 Z M23.8233273,2.78104414 C23.526547,2.78104414 23.285959,2.54758493 23.285959,2.25959837 C23.285959,1.9716118 23.526547,1.73815259 23.8233273,1.73815259 C24.1201076,1.73815259 24.3606956,1.9716118 24.3606956,2.25959837 C24.3606956,2.54758493 24.1201076,2.78104414 23.8233273,2.78104414 Z M22.0320997,1.04289155 C21.7353193,1.04289155 21.4947314,0.809432342 21.4947314,0.521445777 C21.4947314,0.233459212 21.7353193,0 22.0320997,0 C22.32888,0 22.569468,0.233459212 22.569468,0.521445777 C22.569468,0.809432342 22.32888,1.04289155 22.0320997,1.04289155 Z M23.8233273,1.04289155 C23.526547,1.04289155 23.285959,0.809432342 23.285959,0.521445777 C23.285959,0.233459212 23.526547,0 23.8233273,0 C24.1201076,0 24.3606956,0.233459212 24.3606956,0.521445777 C24.3606956,0.809432342 24.1201076,1.04289155 23.8233273,1.04289155 Z M25.6145549,6.25734933 C25.3177746,6.25734933 25.0771866,6.02389011 25.0771866,5.73590355 C25.0771866,5.44791698 25.3177746,5.21445777 25.6145549,5.21445777 C25.9113352,5.21445777 26.1519232,5.44791698 26.1519232,5.73590355 C26.1519232,6.02389011 25.9113352,6.25734933 25.6145549,6.25734933 Z M27.4057825,6.25734933 C27.1090022,6.25734933 26.8684142,6.02389011 26.8684142,5.73590355 C26.8684142,5.44791698 27.1090022,5.21445777 27.4057825,5.21445777 C27.7025628,5.21445777 27.9431508,5.44791698 27.9431508,5.73590355 C27.9431508,6.02389011 27.7025628,6.25734933 27.4057825,6.25734933 Z M25.6145549,4.51919674 C25.3177746,4.51919674 25.0771866,4.28573752 25.0771866,3.99775096 C25.0771866,3.70976439 25.3177746,3.47630518 25.6145549,3.47630518 C25.9113352,3.47630518 26.1519232,3.70976439 26.1519232,3.99775096 C26.1519232,4.28573752 25.9113352,4.51919674 25.6145549,4.51919674 Z M27.4057825,4.51919674 C27.1090022,4.51919674 26.8684142,4.28573752 26.8684142,3.99775096 C26.8684142,3.70976439 27.1090022,3.47630518 27.4057825,3.47630518 C27.7025628,3.47630518 27.9431508,3.70976439 27.9431508,3.99775096 C27.9431508,4.28573752 27.7025628,4.51919674 27.4057825,4.51919674 Z M25.6145549,2.78104414 C25.3177746,2.78104414 25.0771866,2.54758493 25.0771866,2.25959837 C25.0771866,1.9716118 25.3177746,1.73815259 25.6145549,1.73815259 C25.9113352,1.73815259 26.1519232,1.9716118 26.1519232,2.25959837 C26.1519232,2.54758493 25.9113352,2.78104414 25.6145549,2.78104414 Z M27.4057825,2.78104414 C27.1090022,2.78104414 26.8684142,2.54758493 26.8684142,2.25959837 C26.8684142,1.9716118 27.1090022,1.73815259 27.4057825,1.73815259 C27.7025628,1.73815259 27.9431508,1.9716118 27.9431508,2.25959837 C27.9431508,2.54758493 27.7025628,2.78104414 27.4057825,2.78104414 Z M25.6145549,1.04289155 C25.3177746,1.04289155 25.0771866,0.809432342 25.0771866,0.521445777 C25.0771866,0.233459212 25.3177746,0 25.6145549,0 C25.9113352,0 26.1519232,0.233459212 26.1519232,0.521445777 C26.1519232,0.809432342 25.9113352,1.04289155 25.6145549,1.04289155 Z M27.4057825,1.04289155 C27.1090022,1.04289155 26.8684142,0.809432342 26.8684142,0.521445777 C26.8684142,0.233459212 27.1090022,0 27.4057825,0 C27.7025628,0 27.9431508,0.233459212 27.9431508,0.521445777 C27.9431508,0.809432342 27.7025628,1.04289155 27.4057825,1.04289155 Z M29.1970101,6.25734933 C28.9002298,6.25734933 28.6596418,6.02389011 28.6596418,5.73590355 C28.6596418,5.44791698 28.9002298,5.21445777 29.1970101,5.21445777 C29.4937905,5.21445777 29.7343784,5.44791698 29.7343784,5.73590355 C29.7343784,6.02389011 29.4937905,6.25734933 29.1970101,6.25734933 Z M30.9882377,6.25734933 C30.6914574,6.25734933 30.4508695,6.02389011 30.4508695,5.73590355 C30.4508695,5.44791698 30.6914574,5.21445777 30.9882377,5.21445777 C31.2850181,5.21445777 31.525606,5.44791698 31.525606,5.73590355 C31.525606,6.02389011 31.2850181,6.25734933 30.9882377,6.25734933 Z M29.1970101,4.51919674 C28.9002298,4.51919674 28.6596418,4.28573752 28.6596418,3.99775096 C28.6596418,3.70976439 28.9002298,3.47630518 29.1970101,3.47630518 C29.4937905,3.47630518 29.7343784,3.70976439 29.7343784,3.99775096 C29.7343784,4.28573752 29.4937905,4.51919674 29.1970101,4.51919674 Z M30.9882377,4.51919674 C30.6914574,4.51919674 30.4508695,4.28573752 30.4508695,3.99775096 C30.4508695,3.70976439 30.6914574,3.47630518 30.9882377,3.47630518 C31.2850181,3.47630518 31.525606,3.70976439 31.525606,3.99775096 C31.525606,4.28573752 31.2850181,4.51919674 30.9882377,4.51919674 Z M29.1970101,2.78104414 C28.9002298,2.78104414 28.6596418,2.54758493 28.6596418,2.25959837 C28.6596418,1.9716118 28.9002298,1.73815259 29.1970101,1.73815259 C29.4937905,1.73815259 29.7343784,1.9716118 29.7343784,2.25959837 C29.7343784,2.54758493 29.4937905,2.78104414 29.1970101,2.78104414 Z M30.9882377,2.78104414 C30.6914574,2.78104414 30.4508695,2.54758493 30.4508695,2.25959837 C30.4508695,1.9716118 30.6914574,1.73815259 30.9882377,1.73815259 C31.2850181,1.73815259 31.525606,1.9716118 31.525606,2.25959837 C31.525606,2.54758493 31.2850181,2.78104414 30.9882377,2.78104414 Z M29.1970101,1.04289155 C28.9002298,1.04289155 28.6596418,0.809432342 28.6596418,0.521445777 C28.6596418,0.233459212 28.9002298,0 29.1970101,0 C29.4937905,0 29.7343784,0.233459212 29.7343784,0.521445777 C29.7343784,0.809432342 29.4937905,1.04289155 29.1970101,1.04289155 Z M30.9882377,1.04289155 C30.6914574,1.04289155 30.4508695,0.809432342 30.4508695,0.521445777 C30.4508695,0.233459212 30.6914574,0 30.9882377,0 C31.2850181,0 31.525606,0.233459212 31.525606,0.521445777 C31.525606,0.809432342 31.2850181,1.04289155 30.9882377,1.04289155 Z M32.7794654,6.25734933 C32.482685,6.25734933 32.2420971,6.02389011 32.2420971,5.73590355 C32.2420971,5.44791698 32.482685,5.21445777 32.7794654,5.21445777 C33.0762457,5.21445777 33.3168336,5.44791698 33.3168336,5.73590355 C33.3168336,6.02389011 33.0762457,6.25734933 32.7794654,6.25734933 Z M34.570693,6.25734933 C34.2739127,6.25734933 34.0333247,6.02389011 34.0333247,5.73590355 C34.0333247,5.44791698 34.2739127,5.21445777 34.570693,5.21445777 C34.8674733,5.21445777 35.1080613,5.44791698 35.1080613,5.73590355 C35.1080613,6.02389011 34.8674733,6.25734933 34.570693,6.25734933 Z M32.7794654,4.51919674 C32.482685,4.51919674 32.2420971,4.28573752 32.2420971,3.99775096 C32.2420971,3.70976439 32.482685,3.47630518 32.7794654,3.47630518 C33.0762457,3.47630518 33.3168336,3.70976439 33.3168336,3.99775096 C33.3168336,4.28573752 33.0762457,4.51919674 32.7794654,4.51919674 Z M34.570693,4.51919674 C34.2739127,4.51919674 34.0333247,4.28573752 34.0333247,3.99775096 C34.0333247,3.70976439 34.2739127,3.47630518 34.570693,3.47630518 C34.8674733,3.47630518 35.1080613,3.70976439 35.1080613,3.99775096 C35.1080613,4.28573752 34.8674733,4.51919674 34.570693,4.51919674 Z M32.7794654,2.78104414 C32.482685,2.78104414 32.2420971,2.54758493 32.2420971,2.25959837 C32.2420971,1.9716118 32.482685,1.73815259 32.7794654,1.73815259 C33.0762457,1.73815259 33.3168336,1.9716118 33.3168336,2.25959837 C33.3168336,2.54758493 33.0762457,2.78104414 32.7794654,2.78104414 Z M34.570693,2.78104414 C34.2739127,2.78104414 34.0333247,2.54758493 34.0333247,2.25959837 C34.0333247,1.9716118 34.2739127,1.73815259 34.570693,1.73815259 C34.8674733,1.73815259 35.1080613,1.9716118 35.1080613,2.25959837 C35.1080613,2.54758493 34.8674733,2.78104414 34.570693,2.78104414 Z M32.7794654,1.04289155 C32.482685,1.04289155 32.2420971,0.809432342 32.2420971,0.521445777 C32.2420971,0.233459212 32.482685,0 32.7794654,0 C33.0762457,0 33.3168336,0.233459212 33.3168336,0.521445777 C33.3168336,0.809432342 33.0762457,1.04289155 32.7794654,1.04289155 Z M34.570693,1.04289155 C34.2739127,1.04289155 34.0333247,0.809432342 34.0333247,0.521445777 C34.0333247,0.233459212 34.2739127,0 34.570693,0 C34.8674733,0 35.1080613,0.233459212 35.1080613,0.521445777 C35.1080613,0.809432342 34.8674733,1.04289155 34.570693,1.04289155 Z M36.3619206,6.25734933 C36.0651403,6.25734933 35.8245523,6.02389011 35.8245523,5.73590355 C35.8245523,5.44791698 36.0651403,5.21445777 36.3619206,5.21445777 C36.6587009,5.21445777 36.8992889,5.44791698 36.8992889,5.73590355 C36.8992889,6.02389011 36.6587009,6.25734933 36.3619206,6.25734933 Z M38.1531482,6.25734933 C37.8563679,6.25734933 37.6157799,6.02389011 37.6157799,5.73590355 C37.6157799,5.44791698 37.8563679,5.21445777 38.1531482,5.21445777 C38.4499285,5.21445777 38.6905165,5.44791698 38.6905165,5.73590355 C38.6905165,6.02389011 38.4499285,6.25734933 38.1531482,6.25734933 Z M36.3619206,4.51919674 C36.0651403,4.51919674 35.8245523,4.28573752 35.8245523,3.99775096 C35.8245523,3.70976439 36.0651403,3.47630518 36.3619206,3.47630518 C36.6587009,3.47630518 36.8992889,3.70976439 36.8992889,3.99775096 C36.8992889,4.28573752 36.6587009,4.51919674 36.3619206,4.51919674 Z M38.1531482,4.51919674 C37.8563679,4.51919674 37.6157799,4.28573752 37.6157799,3.99775096 C37.6157799,3.70976439 37.8563679,3.47630518 38.1531482,3.47630518 C38.4499285,3.47630518 38.6905165,3.70976439 38.6905165,3.99775096 C38.6905165,4.28573752 38.4499285,4.51919674 38.1531482,4.51919674 Z M36.3619206,2.78104414 C36.0651403,2.78104414 35.8245523,2.54758493 35.8245523,2.25959837 C35.8245523,1.9716118 36.0651403,1.73815259 36.3619206,1.73815259 C36.6587009,1.73815259 36.8992889,1.9716118 36.8992889,2.25959837 C36.8992889,2.54758493 36.6587009,2.78104414 36.3619206,2.78104414 Z M38.1531482,2.78104414 C37.8563679,2.78104414 37.6157799,2.54758493 37.6157799,2.25959837 C37.6157799,1.9716118 37.8563679,1.73815259 38.1531482,1.73815259 C38.4499285,1.73815259 38.6905165,1.9716118 38.6905165,2.25959837 C38.6905165,2.54758493 38.4499285,2.78104414 38.1531482,2.78104414 Z M36.3619206,1.04289155 C36.0651403,1.04289155 35.8245523,0.809432342 35.8245523,0.521445777 C35.8245523,0.233459212 36.0651403,0 36.3619206,0 C36.6587009,0 36.8992889,0.233459212 36.8992889,0.521445777 C36.8992889,0.809432342 36.6587009,1.04289155 36.3619206,1.04289155 Z M38.1531482,1.04289155 C37.8563679,1.04289155 37.6157799,0.809432342 37.6157799,0.521445777 C37.6157799,0.233459212 37.8563679,0 38.1531482,0 C38.4499285,0 38.6905165,0.233459212 38.6905165,0.521445777 C38.6905165,0.809432342 38.4499285,1.04289155 38.1531482,1.04289155 Z" transform="translate(55.196 11.94)"/>
      </g>
      <path fill="#FEBBBA" d="M320.944458,68.8768898 C326.736254,68.8768898 331.430446,73.555905 331.430446,79.3304536 C331.430446,85.107897 326.736282,89.7840173 320.944458,89.7840173 C315.150776,89.7840173 310.527559,85.1136867 310.527559,79.3304536 C310.527559,73.5499545 315.150803,68.8768898 320.944458,68.8768898 Z M317.306831,73.1637328 L317.306831,73.1801393 L317.271782,73.1801393 L317.271782,74.8601764 L318.808072,74.8601764 C320.203646,74.8601764 320.9081,75.6022139 321.162158,76.5238068 L317.306831,76.5238068 L317.306831,78.2038438 L321.162158,78.2038438 C320.908923,79.1260923 320.205348,79.8707556 318.808072,79.8707556 L318.329077,79.8707556 L318.323235,79.8641929 L318.317394,79.8707556 L317.271782,79.8707556 L317.271782,81.5507934 L317.712808,81.5507934 L322.274945,86.604029 L323.326398,85.4096268 L319.745617,81.4392272 C321.367676,81.0571146 322.409121,79.7008034 322.695526,78.2038438 L324.737098,78.2038438 L324.737098,76.5238068 L322.695526,76.5238068 C322.579515,75.9194407 322.328006,75.3479177 321.977035,74.8437698 L324.737098,74.8437698 L324.737098,73.1637328 L317.306831,73.1637328 Z" transform="rotate(-11 320.979 79.33)"/>
      <path fill="#FEBBBA" d="M78.5097711,84.0820734 C81.9321961,84.0820734 84.7060367,86.846946 84.7060367,90.2591793 C84.7060367,93.6731231 81.9322122,96.4362851 78.5097711,96.4362851 C75.0862316,96.4362851 72.3543307,93.6765443 72.3543307,90.2591793 C72.3543307,86.8434298 75.0862478,84.0820734 78.5097711,84.0820734 Z M76.3718364,86.8803113 L76.3718364,86.8900061 L76.3511255,86.8900061 L76.3511255,87.8827552 L77.2589332,87.8827552 C78.0835908,87.8827552 78.4998593,88.321232 78.6499845,88.8658096 L76.3718364,88.8658096 L76.3718364,89.8585587 L78.6499845,89.8585587 C78.5003453,90.4035237 78.0845964,90.843552 77.2589332,90.843552 L76.975891,90.843552 L76.9724386,90.839674 L76.9689871,90.843552 L76.3511255,90.843552 L76.3511255,91.8363017 L76.6117319,91.8363017 L79.3075403,94.8223045 L79.9288534,94.1165214 L77.8129373,91.7703762 C78.7714265,91.5445823 79.3868262,90.7431257 79.5560655,89.8585587 L80.7624491,89.8585587 L80.7624491,88.8658096 L79.5560655,88.8658096 C79.4875132,88.5086841 79.3388947,88.170966 79.1315022,87.8730604 L80.7624491,87.8730604 L80.7624491,86.8803113 L76.3718364,86.8803113 Z" transform="rotate(20 78.53 90.26)"/>
      <path fill="#FEBBBA" d="M128.462527,18.5529158 C131.884952,18.5529158 134.658793,21.3177883 134.658793,24.7300216 C134.658793,28.1439654 131.884968,30.9071274 128.462527,30.9071274 C125.038988,30.9071274 122.307087,28.1473866 122.307087,24.7300216 C122.307087,21.3142721 125.039004,18.5529158 128.462527,18.5529158 Z M126.324592,21.3511536 L126.324592,21.3608484 L126.303881,21.3608484 L126.303881,22.3535975 L127.211689,22.3535975 C128.036347,22.3535975 128.452615,22.7920743 128.60274,23.3366519 L126.324592,23.3366519 L126.324592,24.3294011 L128.60274,24.3294011 C128.453101,24.874366 128.037352,25.3143943 127.211689,25.3143943 L126.928647,25.3143943 L126.925194,25.3105164 L126.921743,25.3143943 L126.303881,25.3143943 L126.303881,26.307144 L126.564488,26.307144 L129.260296,29.2931468 L129.881609,28.5873637 L127.765693,26.2412185 C128.724182,26.0154247 129.339582,25.213968 129.508821,24.3294011 L130.715205,24.3294011 L130.715205,23.3366519 L129.508821,23.3366519 C129.440269,22.9795265 129.291651,22.6418083 129.084258,22.3439027 L130.715205,22.3439027 L130.715205,21.3511536 L126.324592,21.3511536 Z" transform="rotate(20 128.483 24.73)"/>
      <path fill="#FEBBBA" d="M193.315965,2.24929696 C197.738791,2.24929696 201.323447,5.81893071 201.323447,10.22435 C201.323447,14.6319778 197.738812,18.1994031 193.315965,18.1994031 C188.891698,18.1994031 185.361242,14.6363948 185.361242,10.22435 C185.361242,5.81439107 188.891719,2.24929696 193.315965,2.24929696 Z M190.553095,5.86200747 L190.553095,5.87452409 L190.52633,5.87452409 L190.52633,7.15622905 L191.699497,7.15622905 C192.765209,7.15622905 193.303156,7.7223316 193.497164,8.42541739 L190.553095,8.42541739 L190.553095,9.70712234 L193.497164,9.70712234 C193.303784,10.4107083 192.766508,10.978814 191.699497,10.978814 L191.33372,10.978814 L191.329258,10.9738073 L191.324798,10.978814 L190.52633,10.978814 L190.52633,12.2605196 L190.863114,12.2605196 L194.346928,16.1156471 L195.149856,15.2044344 L192.415441,12.1754054 C193.654104,11.8838906 194.44939,10.849157 194.668099,9.70712234 L196.227118,9.70712234 L196.227118,8.42541739 L194.668099,8.42541739 C194.579508,7.96434479 194.387448,7.52832825 194.119433,7.14371243 L196.227118,7.14371243 L196.227118,5.86200747 L190.553095,5.86200747 Z" transform="rotate(20 193.342 10.224)"/>
      <path fill="#FEBBBA" d="M253.315965,42.249297 C257.738791,42.249297 261.323447,45.8189307 261.323447,50.22435 C261.323447,54.6319778 257.738812,58.1994031 253.315965,58.1994031 C248.891698,58.1994031 245.361242,54.6363948 245.361242,50.22435 C245.361242,45.8143911 248.891719,42.249297 253.315965,42.249297 Z M250.553095,45.8620075 L250.553095,45.8745241 L250.52633,45.8745241 L250.52633,47.156229 L251.699497,47.156229 C252.765209,47.156229 253.303156,47.7223316 253.497164,48.4254174 L250.553095,48.4254174 L250.553095,49.7071223 L253.497164,49.7071223 C253.303784,50.4107083 252.766508,50.978814 251.699497,50.978814 L251.33372,50.978814 L251.329258,50.9738073 L251.324798,50.978814 L250.52633,50.978814 L250.52633,52.2605196 L250.863114,52.2605196 L254.346928,56.1156471 L255.149856,55.2044344 L252.415441,52.1754054 C253.654104,51.8838906 254.44939,50.849157 254.668099,49.7071223 L256.227118,49.7071223 L256.227118,48.4254174 L254.668099,48.4254174 C254.579508,47.9643448 254.387448,47.5283282 254.119433,47.1437124 L256.227118,47.1437124 L256.227118,45.8620075 L250.553095,45.8620075 Z" transform="rotate(20 253.342 50.224)"/>
      <path fill="#FEBBBA" d="M330.475211,163 C334.631428,163 338,166.357 338,170.5 C338,174.645077 334.631448,178 330.475211,178 C326.31764,178 323,174.649231 323,170.5 C323,166.352731 326.31766,163 330.475211,163 Z M327.789589,166.287484 L327.789589,166.299033 L327.763897,166.299033 L327.763897,167.481726 L328.890024,167.481726 C329.913004,167.481726 330.429381,168.004096 330.61561,168.652868 L327.789589,168.652868 L327.789589,169.835561 L330.61561,169.835561 C330.429984,170.484794 329.914252,171.009013 328.890024,171.009013 L328.538913,171.009013 L328.53463,171.004393 L328.530349,171.009013 L327.763897,171.009013 L327.763897,172.191706 L328.087177,172.191706 L331.431302,175.749022 L332.202035,174.908201 L329.577261,172.113167 C330.766258,171.844172 331.529656,170.889372 331.739595,169.835561 L333.236103,169.835561 L333.236103,168.652868 L331.739595,168.652868 C331.654557,168.227414 331.470197,167.82508 331.212929,167.470176 L333.236103,167.470176 L333.236103,166.287484 L327.789589,166.287484 Z" transform="rotate(10 330.5 170.5)"/>
      <path fill="#FEBBBA" d="M61.4652951,232 C67.2839993,232 72,236.6998 72,242.5 C72,248.303108 67.2840268,253 61.4652951,253 C55.644696,253 51,248.308923 51,242.5 C51,236.693823 55.6447235,232 61.4652951,232 Z M57.7054241,236.602477 L57.7054241,236.618647 L57.6694557,236.618647 L57.6694557,238.274416 L59.2460337,238.274416 C60.6782058,238.274416 61.4011339,239.005735 61.6618544,239.914016 L57.7054241,239.914016 L57.7054241,241.569785 L61.6618544,241.569785 C61.401978,242.478712 60.6799522,243.212618 59.2460337,243.212618 L58.7544779,243.212618 L58.7484822,243.20615 L58.742488,243.212618 L57.6694557,243.212618 L57.6694557,244.868388 L58.1220476,244.868388 L62.803823,249.848631 L63.8828495,248.671482 L60.2081654,244.758434 C61.8727611,244.381841 62.9415179,243.045121 63.2354336,241.569785 L65.3305443,241.569785 L65.3305443,239.914016 L63.2354336,239.914016 C63.1163797,239.318379 62.8582758,238.755112 62.4981,238.258246 L65.3305443,238.258246 L65.3305443,236.602477 L57.7054241,236.602477 Z" transform="rotate(10 61.5 242.5)"/>
      <g transform="rotate(10 -912.88 111.281)">
        <path fill="#FEBBBA" d="M25.0842438,8.43239008 L17.0994455,0.466784488 C16.7033995,0.0716904503 16.1292925,-0.086825101 15.5855278,0.046997073 C15.2988735,0.117094402 15.0425615,0.264458106 14.8397476,0.466784488 C14.6584927,0.647603735 14.5219526,0.871437252 14.4437016,1.12155727 C14.0819902,2.29170473 13.4567805,3.30891256 12.5313424,4.23132969 C11.2952956,5.46360888 9.68556032,6.39717785 7.98240284,7.38411638 C6.17464451,8.42920384 4.30700019,9.5125262 2.77631436,11.0387362 C1.47559072,12.3379265 0.590076593,13.7828874 0.0710647047,15.4604439 C-0.103802378,16.0267985 0.0487072695,16.6393535 0.467110699,17.0583444 L8.45190898,25.02395 C8.84795498,25.419044 9.42206197,25.5775596 9.96582673,25.4437374 C10.252481,25.3720469 10.508793,25.2262763 10.7116069,25.02395 C10.8928618,24.8431307 11.0294019,24.6192972 11.1076529,24.3675841 C11.4701627,23.1974366 12.0953724,22.1802288 13.021609,21.2578116 C14.2568573,20.0255325 15.8657942,19.0935566 17.5705486,18.1074146 C19.37671,17.0607341 21.2451528,15.9774117 22.7750401,14.4512017 C24.0757638,13.1536045 24.9612779,11.7070505 25.4810883,10.029494 C25.6551569,9.463936 25.5018488,8.84899125 25.0842438,8.43239008 Z"/>
        <path fill="#F5F5F5" d="M11.9971847 19.207134L11.9955877 19.207134C11.4965378 19.589483 11.0094651 19.9925427 10.558324 20.4441925 10.1247495 20.8767249 9.73269586 21.3323575 9.39174498 21.7975489L8.84558477 22.5415365 8.84718173 22.5431296C8.74737175 22.6984589 8.76413983 22.9071577 8.8998814 23.042573 9.05558497 23.1979024 9.31030003 23.1979024 9.46680208 23.042573 9.49075647 23.0178797 9.50991999 22.9915932 9.52588959 22.962917L10.0361182 22.2659265C10.3523162 21.8349872 10.71802 21.4104205 11.1228492 21.0073608 11.5707964 20.5604903 11.9860059 20.2155796 12.4914437 19.832434L12.4898467 19.8308409C12.5042193 19.819689 12.5177935 19.8109269 12.5305692 19.7981819 12.6870712 19.6428526 12.6870712 19.3887498 12.5305692 19.2334204 12.3860443 19.0868533 12.1544852 19.0804808 11.9971847 19.207134zM14.3269239 4.5895828C13.909319 5.00618397 13.4565809 5.381364 12.9870748 5.73901969 12.9543371 5.75734058 12.9215994 5.77805116 12.8936526 5.8075239 12.7363521 5.96444633 12.7363521 6.22014227 12.8936526 6.3770647 13.0461623 6.53080088 13.2928926 6.53398713 13.45179 6.38821654L13.454984 6.38980967C13.9540339 6.0074606 14.4403081 5.60280783 14.8914492 5.15275112 15.3250237 4.72021873 15.7162788 4.26617921 16.0580282 3.80098785L16.6041884 3.05381404 16.6025914 3.05222092C16.738333 2.89370537 16.7319452 2.65712689 16.5826295 2.5073735 16.4253289 2.35045107 16.1706139 2.35045107 16.0133133 2.5073735 15.9837696 2.53684624 15.9622106 2.57109834 15.9430471 2.60535045L15.4128565 3.33022056C15.09586 3.7635495 14.7309547 4.18652316 14.3269239 4.5895828z"/>
        <path fill="#FFF" d="M10.3848743,9.24103767 L10.3848743,9.25096827 L10.3611287,9.25096827 L10.3611287,10.267864 L11.4019565,10.267864 C12.3474503,10.267864 12.8247142,10.7170058 12.996837,11.2748291 L10.3848743,11.2748291 L10.3848743,12.2917249 L12.996837,12.2917249 C12.8252714,12.849945 12.3486032,13.3006761 11.4019565,13.3006761 L11.0774404,13.3006761 L11.0734821,13.2967038 L11.0695249,13.3006761 L10.3611287,13.3006761 L10.3611287,14.3175723 L10.6599215,14.3175723 L13.7507438,17.3762035 L14.4630973,16.6532537 L12.0371382,14.2500433 C13.1360738,14.0187575 13.8416475,13.1978071 14.0356852,12.2917249 L15.4188388,12.2917249 L15.4188388,11.2748291 L14.0356852,11.2748291 C13.957088,10.9090174 13.7866925,10.5630849 13.5489111,10.2579334 L15.4188388,10.2579334 L15.4188388,9.24103767 L10.3848743,9.24103767 Z" transform="rotate(-45 12.89 13.309)"/>
      </g>
      <g transform="rotate(65 52.37 184.255)">
        <path fill="#FEBBBA" d="M25.6416714,8.61149624 L17.4794332,0.476699112 C17.0745862,0.0732131742 16.4877213,-0.0886692887 15.9318728,0.0479953031 C15.6388485,0.119581518 15.3768406,0.270075265 15.1695198,0.476699112 C14.984237,0.661359007 14.8446627,0.889946806 14.7646728,1.14537944 C14.3949234,2.34038113 13.7558201,3.37919473 12.8098167,4.32120424 C11.5463022,5.57965735 9.90079499,6.53305557 8.15978957,7.54095694 C6.31185883,8.60824232 4.40271131,9.71457473 2.83801024,11.2732019 C1.50838163,12.5999873 0.603189406,14.0756395 0.0726439204,15.7888277 C-0.106109097,16.3672118 0.0497896533,16.9927777 0.477490937,17.4206681 L8.63972918,25.5554652 C9.0445762,25.9589511 9.63144113,26.1208336 10.1872896,25.984169 C10.4803139,25.9109558 10.7423218,25.762089 10.9496426,25.5554652 C11.1349254,25.3708053 11.2744997,25.1422175 11.3544896,24.8851579 C11.7250552,23.6901562 12.3641585,22.6513426 13.3109781,21.7093331 C14.5736764,20.45088 16.2183674,19.4991087 17.9610053,18.4920208 C19.8073035,17.4231085 21.7172673,16.3167761 23.2811521,14.758149 C24.6107808,13.4329905 25.515973,11.9557113 26.0473347,10.2425231 C26.2252715,9.66495247 26.0685565,9.03694613 25.6416714,8.61149624 Z"/>
        <path fill="#F5F5F5" d="M12.2637888 19.6150985L12.2621563 19.6150985C11.7520164 20.0055687 11.2541199 20.4171895 10.7929534 20.8784325 10.3497439 21.320152 9.94897799 21.7854624 9.60045042 22.2605345L9.04215332 23.0203246 9.04378577 23.0219515C8.94175779 23.1805801 8.95889849 23.3937117 9.09765654 23.5320033 9.25682019 23.6906318 9.51719559 23.6906318 9.67717546 23.5320033 9.70166217 23.5067854 9.72125155 23.4799406 9.73757602 23.4506553L10.259143 22.7388606C10.5823677 22.2987681 10.9561982 21.8651834 11.3700237 21.4535626 11.8279252 20.9972005 12.2523616 20.6449638 12.7690313 20.2536801L12.7673989 20.2520531C12.7820909 20.2406644 12.7959667 20.2317161 12.8090263 20.2187004 12.9690061 20.0600719 12.9690061 19.8005719 12.8090263 19.6419433 12.6612898 19.492263 12.4245849 19.4857552 12.2637888 19.6150985zM14.6453 4.68706674C14.218415 5.11251663 13.7556161 5.49566557 13.2756764 5.86091796 13.2422113 5.879628 13.2087461 5.90077847 13.1801783 5.93087722 13.0193822 6.09113272 13.0193822 6.35225971 13.1801783 6.51251521 13.336077 6.6695168 13.5882902 6.67277072 13.7507187 6.52390393L13.7539836 6.52553089C14.2641235 6.13506063 14.7612038 5.72181293 15.2223703 5.26219689 15.6655798 4.82047741 16.0655295 4.35679397 16.4148733 3.88172182L16.9731704 3.11867785 16.9715379 3.11705089C17.110296 2.95516843 17.1037662 2.71356495 16.9511323 2.56063077 16.7903362 2.40037526 16.5299608 2.40037526 16.3691647 2.56063077 16.3389645 2.59072952 16.3169264 2.62570914 16.297337 2.66068877L15.7553644 3.40095531C15.4313236 3.84348827 15.0583093 4.275446 14.6453 4.68706674z"/>
        <path fill="#FFF" d="M10.6156493,9.43731972 L10.6156493,9.44746125 L10.591376,9.44746125 L10.591376,10.4859561 L11.6553333,10.4859561 C12.6218381,10.4859561 13.1097078,10.9446378 13.2856556,11.5143094 L10.6156493,11.5143094 L10.6156493,12.5528043 L13.2856556,12.5528043 C13.1102774,13.1228812 12.6230166,13.5831859 11.6553333,13.5831859 L11.3236058,13.5831859 L11.3195595,13.5791293 L11.3155143,13.5831859 L10.591376,13.5831859 L10.591376,14.6216813 L10.8968086,14.6216813 L14.0563159,17.7452786 L14.7844995,17.0069732 L12.3046302,14.552718 C13.4279866,14.3165196 14.1492396,13.478132 14.3475893,12.5528043 L15.7614797,12.5528043 L15.7614797,11.5143094 L14.3475893,11.5143094 C14.2672455,11.1407277 14.0930635,10.7874476 13.849998,10.4758146 L15.7614797,10.4758146 L15.7614797,9.43731972 L10.6156493,9.43731972 Z" transform="rotate(-45 13.176 13.591)"/>
      </g>
    </g>
    <g transform="translate(62 323.11)">
      <path stroke="#CFCFCF" stroke-width="5.023" d="M10.6807779,17.1155749 C10.6807779,8.12814069 17.9618224,0.842385749 26.9522437,0.842385749 L45.2277598,0.842385749 C54.2142422,0.842385749 61.4992256,8.12900357 61.4992256,17.1155749 L61.4992256,38.807199 C61.4992256,47.7946332 54.218181,55.0803882 45.2277598,55.0803882 L26.9522437,55.0803882 C17.9657613,55.0803882 10.6807779,47.7937704 10.6807779,38.807199 L10.6807779,17.1155749 Z"/>
      <path fill="#FFEBEB" d="M72.0864022,75.9411583 C72.0864022,80.3636416 67.8568251,84.2854664 63.6166609,84.2854664 L8.56334255,84.2854664 C4.32317832,84.2854664 0.0936012685,80.3636416 0.0936012685,75.9411583 L0.0936012685,42.5639261 C0.0936012685,38.1414428 4.32317832,34.219618 8.56334255,34.219618 L63.6166609,34.219618 C67.8568251,34.219618 72.0864022,38.1414428 72.0864022,42.5639261 L72.0864022,75.9411583 L72.0864022,75.9411583 Z"/>
      <rect width="55.053" height="25.033" x="8.563" y="47.779" fill="#FEBBBA" rx="9.5"/>
      <path fill="#FFF" d="M18.2730469,55 L21.3958008,63.8171875 L24.5018555,55 L27.7916016,55 L27.7916016,67.1570313 L25.2783691,67.1570313 L25.2783691,63.8338867 L25.5288574,58.0977051 L22.2474609,67.1570313 L20.5274414,67.1570313 L17.2543945,58.1060547 L17.5048828,63.8338867 L17.5048828,67.1570313 L15,67.1570313 L15,55 L18.2730469,55 Z M32.721582,62.8736816 L32.721582,67.1570313 L30.2166992,67.1570313 L30.2166992,55 L34.9592773,55 C35.8721725,55 36.6751186,55.1669905 37.3681396,55.5009766 C38.0611607,55.8349626 38.5941387,56.309494 38.9670898,56.924585 C39.3400409,57.5396759 39.5265137,58.2396445 39.5265137,59.0245117 C39.5265137,60.2157286 39.1187785,61.1550503 38.3032959,61.8425049 C37.4878133,62.5299595 36.3592357,62.8736816 34.9175293,62.8736816 L32.721582,62.8736816 Z M32.721582,60.8447266 L34.9592773,60.8447266 C35.621683,60.8447266 36.1268293,60.6888687 36.4747314,60.3771484 C36.8226336,60.0654281 36.996582,59.6201201 36.996582,59.0412109 C36.996582,58.4456025 36.821242,57.9641132 36.4705566,57.5967285 C36.1198713,57.2293439 35.6355988,57.0400879 35.0177246,57.0289551 L32.721582,57.0289551 L32.721582,60.8447266 Z M44.1475586,67.1570313 L41.6426758,67.1570313 L41.6426758,55 L44.1475586,55 L44.1475586,67.1570313 Z M56.5921875,67.1570313 L54.0873046,67.1570313 L49.2111328,59.1581055 L49.2111328,67.1570313 L46.70625,67.1570313 L46.70625,55 L49.2111328,55 L54.0956543,63.015625 L54.0956543,55 L56.5921875,55 L56.5921875,67.1570313 Z"/>
    </g>
    <g transform="rotate(13 -829.035 1309.347)">
      <rect width="83.612" height="125.284" x="13.253" y="53.972" fill="#FFEBEB" rx="9.5" transform="rotate(-13 55.059 116.614)"/>
      <rect width="71.85" height="99.461" x="20.405" y="71.883" fill="#FCFCFC" transform="rotate(-13 56.33 121.613)"/>
      <g transform="rotate(-13 399.43 -112.182)">
        <path fill="#FEBBBA" d="M17.7910282,6.34546673 C16.6780613,7.46020248 15.2655958,8.04871177 13.7782556,8.37410784 C12.8277285,8.58764901 11.8657799,8.74907596 10.8898716,8.83678037 C10.6398665,8.86220194 10.3898613,8.88635243 10.1398562,8.911774 C9.96472571,8.911774 9.78959522,8.92448478 9.61446473,8.92448478 C8.83906813,8.93719557 8.03955936,8.83678037 7.27685337,8.73636518 C6.31363566,8.6117995 5.36437763,8.38554754 4.45192238,8.06015148 C3.9265309,7.87203187 3.40113942,7.63434021 2.91381979,7.3585162 C2.1016204,6.91999416 1.38840782,6.36961722 0.913778801,5.54341626 C0.514024416,4.84178099 0.514024416,4.1414168 0.939160032,3.45249231 C1.55211676,2.43817175 2.48995324,1.82424089 3.52677651,1.34885757 C5.55219873,0.422241424 7.70198899,0.0968453557 9.91523231,0.133706629 C11.9533451,0.159128197 13.9533861,0.459102697 15.8036779,1.37300806 C16.528312,1.7238257 17.2542152,2.19920901 17.8417907,2.75085704 C19.0918163,3.96600798 18.9661792,5.15573735 17.7910282,6.34546673 Z"/>
        <path fill="#FEBBBA" d="M18.7047525,7.00178584 C18.7047525,7.78858336 18.7783581,8.54487501 18.6869857,9.27955832 C18.5055099,10.7222323 16.8278105,11.5039455 15.6513905,12.014919 C12.1195922,13.5516528 7.64488122,13.3686175 4.0750111,12.0988102 C2.41888579,11.5090298 0.560979693,10.7616357 0.568594062,8.68723578 C0.569863124,8.14194316 0.568594062,7.59665053 0.568594062,6.96492456 C0.902357248,7.26235691 1.15363143,7.51530151 1.43282497,7.73265591 C3.13082931,9.05966175 5.12706312,9.61512301 7.21086217,9.90747104 C9.01546768,10.1604156 10.8251494,10.1311808 12.6234096,9.83120634 C14.5117732,9.5159789 16.3113025,8.9567044 17.8532123,7.76189072 C18.1463655,7.53436768 18.4077921,7.26998338 18.7047525,7.00178584 Z"/>
        <path fill="#FEBBBA" d="M18.7275957,11.177721 C18.7275957,11.9645185 18.8012012,12.7208102 18.7098288,13.4554935 C18.528353,14.8981675 16.8506536,15.6798807 15.6742336,16.1908542 C12.1424353,17.727588 7.66772432,17.5445527 4.09785421,16.2747454 C2.4417289,15.684965 0.583822801,14.9375709 0.59143717,12.863171 C0.592706231,12.3178783 0.59143717,11.7725857 0.59143717,11.1408597 C0.925200355,11.4382921 1.17647454,11.6912367 1.45566808,11.9085911 C3.15367242,13.2355969 5.14990623,13.7910582 7.23370528,14.0834062 C9.03831079,14.3363508 10.8479925,14.307116 12.6462527,14.0071415 C14.5346163,13.6919141 16.3341456,13.1326396 17.8760554,11.9378259 C18.1679395,11.7103029 18.4293662,11.4459186 18.7275957,11.177721 Z"/>
        <path fill="#FFF" d="M18.7275957,15.2621385 C18.7275957,16.0489361 18.8012012,16.8052277 18.7098288,17.539911 C18.528353,18.982585 16.8506536,19.7642982 15.6742336,20.2752717 C12.1424353,21.8120055 7.66772432,21.6289702 4.09785421,20.3591629 C2.4417289,19.7693825 0.583822801,19.0219884 0.59143717,16.9475885 C0.592706231,16.4022959 0.59143717,15.8570032 0.59143717,15.2252773 C0.925200355,15.5227096 1.17647454,15.7756542 1.45566808,15.9930086 C3.15367242,17.3200145 5.14990623,17.8754757 7.23370528,18.1678238 C9.03831079,18.4207683 10.8479925,18.3915335 12.6462527,18.091559 C14.5346163,17.7763316 16.3341456,17.2170571 17.8760554,16.0222434 C18.1679395,15.7959915 18.4293662,15.5303361 18.7275957,15.2621385 Z"/>
        <g transform="translate(12.352 10.454)">
          <ellipse cx="7.126" cy="7.127" fill="#FEBBBA" rx="7.126" ry="7.127"/>
          <path fill="#FFF" d="M4.5682056,2.85097192 L4.5682056,2.86257253 L4.54144077,2.86257253 L4.54144077,4.05047749 L5.71460768,4.05047749 C6.78031901,4.05047749 7.31826603,4.57515053 7.51227392,5.22678186 L4.5682056,5.22678186 L4.5682056,6.41468683 L7.51227392,6.41468683 C7.31889409,7.06678167 6.78161854,7.59331129 5.71460768,7.59331129 L5.34883006,7.59331129 L5.3443685,7.58867097 L5.33990807,7.59331129 L4.54144077,7.59331129 L4.54144077,8.78121685 L4.87822449,8.78121685 L8.36203838,12.3542117 L9.1649661,11.5096849 L6.43055142,8.70233164 C7.66921438,8.43215097 8.46450023,7.47314306 8.68320947,6.41468683 L10.2422282,6.41468683 L10.2422282,5.22678186 L8.68320947,5.22678186 C8.59461878,4.79945229 8.40255789,4.39534508 8.13454305,4.03887689 L10.2422282,4.03887689 L10.2422282,2.85097192 L4.5682056,2.85097192 Z"/>
        </g>
      </g>
      <path fill="#AAA" d="M42.193394 134.766479L43.1703818 119.944654 47.3972829 118.968797 45.2350343 138.876364 41.2738964 139.790865 30.6288879 122.840086 34.8431336 121.867151 42.193394 134.766479zM55.6828785 129.626037L57.1817247 136.118253 53.385107 136.994772 49.1310717 118.56852 56.3193346 116.908979C57.7029977 116.589535 58.9784464 116.56167 60.145719 116.825384 61.3129915 117.089098 62.2868691 117.621837 63.0673812 118.423618 63.8478932 119.225398 64.3754632 120.22108 64.6501069 121.410693 65.0669421 123.216205 64.7776344 124.782599 63.782175 126.109921 62.7867156 127.437244 61.1964221 128.353135 59.0112467 128.857623L55.6828785 129.626037zM54.9728987 126.550777L58.3645439 125.767754C59.3685434 125.535962 60.0796486 125.122968 60.4978809 124.528758 60.9161131 123.934549 61.0239406 123.198732 60.8213665 122.321287 60.6129489 121.418532 60.1787037 120.7501 59.5186179 120.315973 58.8585321 119.881846 58.0583015 119.764452 57.1179021 119.963787L53.6376692 120.767262 54.9728987 126.550777zM79.6290947 126.936892L72.9723583 128.47372 72.5833373 132.562511 68.5462671 133.494542 71.1514545 113.484714 74.6696536 112.672474 85.8208778 129.506384 81.7838076 130.438415 79.6290947 126.936892zM73.2874653 125.1618L77.8940282 124.098291 73.9857498 117.735779 73.2874653 125.1618zM41.4508648 163.805168C41.3627261 163.701237 41.2650661 163.521331 41.1578819 163.265445 40.8226933 163.827921 40.3353896 164.182966 39.695956 164.330591 39.0755532 164.473822 38.5284827 164.413707 38.0547282 164.150243 37.5809736 163.886779 37.2839085 163.494331 37.1635239 162.972888 37.0115054 162.314424 37.1393988 161.752708 37.5472078 161.287723 37.9550168 160.822739 38.6137466 160.485245 39.5234169 160.275231L40.3740877 160.078838 40.2805045 159.673485C40.2066921 159.353768 40.0581558 159.118458 39.8348914 158.967547 39.6116269 158.816636 39.3173038 158.783359 38.9519132 158.867717 38.6360025 158.94065 38.3954212 159.079379 38.230162 159.283906 38.0649028 159.488434 38.0103931 159.712491 38.0666311 159.956085L36.6792956 160.276376C36.6010896 159.937629 36.6402171 159.594849 36.7966793 159.248028 36.9531415 158.901207 37.2051992 158.599471 37.55286 158.34281 37.9005208 158.086149 38.3122295 157.902902 38.7879985 157.793062 39.5111674 157.626105 40.129749 157.674722 40.6437619 157.938914 41.1577748 158.203106 41.4964947 158.66311 41.6599316 159.318938L42.303151 162.105027C42.431444 162.660725 42.6118383 163.086122 42.8443391 163.38123L42.8667463 163.478286 41.4508648 163.805168zM39.6958458 163.157984C39.9698888 163.094716 40.2123744 162.968577 40.4233098 162.779563 40.6342453 162.590549 40.7746872 162.369704 40.8446396 162.117022L40.5757528 160.952345 39.8278476 161.125013C39.3140171 161.24364 38.948348 161.422272 38.7308295 161.660914 38.513311 161.899556 38.4423377 162.182537 38.5179076 162.509867 38.579418 162.776297 38.7168975 162.968057 38.9303505 163.085152 39.1438034 163.202247 39.398966 163.226524 39.6958458 163.157984zM48.807967 158.919492C49.0294043 159.878642 48.9914921 160.691192 48.6942291 161.357164 48.3969662 162.023137 47.8734366 162.442671 47.1236247 162.615778 46.4004558 162.782735 45.7769623 162.652066 45.2531257 162.223768L45.3388298 162.907561 44.0828058 163.197537 42.0582464 154.428206 43.4455819 154.107914 44.1810664 157.293648C44.4717511 156.729419 44.9558338 156.369105 45.6333288 156.212693 46.386947 156.038706 47.0433796 156.181815 47.6026466 156.642024 48.1619135 157.102233 48.557532 157.834739 48.789514 158.839563L48.807967 158.919492zM47.392952 159.11989C47.2382973 158.450008 47.0043192 157.974843 46.6910104 157.694382 46.3777017 157.413921 45.9964901 157.325537 45.5473641 157.429226 44.9459921 157.568063 44.5841463 157.92822 44.4618158 158.509707L45.0496762 161.05601C45.4209755 161.535561 45.9092069 161.705476 46.5143851 161.565759 46.9482865 161.465585 47.2458778 161.2265 47.4071681 160.848497 47.5684584 160.470493 47.5773397 159.953291 47.4338122 159.296876L47.392952 159.11989zM52.9767622 160.097856C53.323122 160.017893 53.5871965 159.850689 53.7689935 159.596239 53.9507905 159.34179 54.0150302 159.064372 53.9617147 158.763978L55.2691214 158.462139C55.3426475 158.850075 55.3055736 159.236479 55.1578985 159.621362 55.0102235 160.006244 54.7665863 160.340113 54.4269797 160.622977 54.087373 160.905842 53.6949156 161.098676 53.2495958 161.201487 52.3855993 161.400956 51.6359173 161.279375 51.0005273 160.83674 50.3651373 160.394106 49.9336546 159.679902 49.7060663 158.694109L49.6731145 158.551379C49.4560708 157.611259 49.5335089 156.800609 49.9054311 156.119405 50.2773534 155.4382 50.8972065 154.997431 51.7650092 154.797083 52.4995966 154.62749 53.1475322 154.703406 53.7088356 155.024834 54.2701391 155.346261 54.6426065 155.852594 54.826249 156.543848L53.5188423 156.845687C53.4218968 156.495229 53.2338323 156.231962 52.9546431 156.055877 52.6754538 155.879791 52.360781 155.832171 52.010615 155.913013 51.561489 156.016702 51.2526991 156.259374 51.0842358 156.641038 50.9157726 157.022703 50.9060867 157.545101 51.0551777 158.20825L51.1065825 158.430909C51.2612372 159.100792 51.4974109 159.572443 51.8151108 159.845877 52.1328107 160.11931 52.5200239 160.203302 52.9767622 160.097856zM65.3347891 155.176136C65.5087951 156.138219 65.4480451 156.943012 65.1525372 157.590539 64.8570293 158.238065 64.3476985 158.645301 63.6245296 158.812258 62.9356161 158.971306 62.4074182 158.78456 62.0399201 158.252015 61.912589 158.586097 61.7371642 158.855108 61.5136402 159.059055 61.2901163 159.263002 61.0375305 159.397487 60.7558752 159.462512 60.200177 159.590805 59.7259296 159.459756 59.3331188 159.069361 58.940308 158.678966 58.6898504 158.093351 58.5817386 157.312497 58.4994057 156.678035 58.5215282 156.08361 58.6481066 155.529206 58.774685 154.974801 58.9921066 154.518698 59.300378 154.160883 59.6086494 153.803068 59.972118 153.575834 60.3907947 153.479175 60.7105115 153.405363 61.0023405 153.380083 61.2662904 153.403335 61.5302403 153.426586 61.8567757 153.52559 62.2459065 153.700347L62.6911029 156.983166C62.7927725 157.75348 63.0967118 158.080197 63.6029301 157.963327 63.9911576 157.873698 64.2618089 157.591723 64.4148921 157.117393 64.5679752 156.643063 64.5794865 156.072135 64.4494263 155.404593 64.1898834 153.985184 63.6704646 152.97257 62.8911543 152.36672 62.111844 151.76087 61.1132195 151.598543 59.8952509 151.879733 59.1492451 152.051962 58.5309927 152.391136 58.0404751 152.897265 57.5499576 153.403394 57.2168313 154.048572 57.0410862 154.832819 56.8653411 155.617066 56.8644692 156.464161 57.0384703 157.374127 57.2045679 158.301954 57.4965443 159.067408 57.9144084 159.67051 58.3322725 160.273613 58.8542699 160.68529 59.4804162 160.905553 60.1065625 161.125817 60.8135618 161.145001 61.6014353 160.963106 61.9211521 160.889294 62.2463498 160.774126 62.5770384 160.6176 62.9077269 160.461075 63.1799257 160.289991 63.393643 160.104343L63.7911685 160.836417C63.594142 161.042265 63.309429 161.237285 62.9370209 161.421483 62.5646127 161.605681 62.1785915 161.743911 61.7789455 161.836177 60.8121829 162.059371 59.9352237 162.046352 59.1480417 161.797117 58.3608597 161.547883 57.7044692 161.075027 57.1788506 160.378536 56.6356625 159.658037 56.2558362 158.733464 56.0393604 157.60479 55.8442651 156.551359 55.8619585 155.560068 56.0924412 154.630886 56.3229239 153.701704 56.7513384 152.922276 57.3776976 152.292578 58.0040568 151.66288 58.7853814 151.239955 59.7216948 151.02379 60.6694267 150.804989 61.5329917 150.82511 62.3124158 151.084153 63.0918399 151.343197 63.7412044 151.82469 64.2605288 152.528648 64.7798532 153.232607 65.1379364 154.115094 65.3347891 155.176136zM59.7007417 157.054155C59.7707675 157.583215 59.9071671 157.96565 60.1099445 158.201471 60.3127218 158.437292 60.5682558 158.519613 60.8765541 158.448437 61.0820863 158.400986 61.2553279 158.265777 61.396284 158.042806 61.5372402 157.819836 61.6283423 157.537218 61.6695931 157.194946L61.2766973 154.320998C61.0696941 154.292617 60.8767507 154.299076 60.6978616 154.340376 60.2753787 154.437914 59.9768395 154.716305 59.802235 155.175558 59.6276306 155.634812 59.5937998 156.261004 59.7007417 157.054155zM71.9701898 153.572072C72.1916271 154.531222 72.1537148 155.343771 71.8564519 156.009744 71.559189 156.675716 71.0356594 157.09525 70.2858475 157.268358 69.5626786 157.435315 68.9391851 157.304646 68.4153484 156.876347L68.5010525 157.56014 67.2450286 157.850116 65.2204691 149.080786 66.6078046 148.760494 67.3432891 151.946227C67.6339739 151.381999 68.1180565 151.021684 68.7955516 150.865272 69.5491697 150.691286 70.2056024 150.834395 70.7648694 151.294604 71.3241363 151.754813 71.7197548 152.487319 71.9517367 153.492143L71.9701898 153.572072zM70.5551747 153.77247C70.4005201 153.102587 70.1665419 152.627423 69.8532332 152.346962 69.5399245 152.066501 69.1587128 151.978116 68.7095869 152.081805 68.1082148 152.220643 67.746369 152.5808 67.6240386 153.162287L68.211899 155.70859C68.5831983 156.188141 69.0714297 156.358055 69.6766079 156.218339 70.1105092 156.118165 70.4081006 155.87908 70.5693909 155.501076 70.7306811 155.123073 70.7395624 154.605871 70.596035 153.949455L70.5551747 153.77247zM77.5215879 155.477586C77.4334492 155.373654 77.3357892 155.193748 77.228605 154.937862 76.8934164 155.500338 76.4061126 155.855383 75.7666791 156.003008 75.1462763 156.14624 74.5992058 156.086124 74.1254512 155.82266 73.6516966 155.559196 73.3546315 155.166748 73.234247 154.645306 73.0822285 153.986841 73.2101219 153.425125 73.6179308 152.960141 74.0257398 152.495156 74.6844696 152.157662 75.59414 151.947648L76.4448107 151.751255 76.3512276 151.345902C76.2774151 151.026185 76.1288789 150.790875 75.9056144 150.639964 75.6823499 150.489053 75.3880268 150.455777 75.0226362 150.540134 74.7067256 150.613068 74.4661443 150.751796 74.3008851 150.956324 74.1356259 151.160851 74.0811161 151.384908 74.1373542 151.628502L72.7500187 151.948794C72.6718126 151.610046 72.7109401 151.267267 72.8674024 150.920446 73.0238646 150.573624 73.2759223 150.271888 73.6235831 150.015227 73.9712439 149.758567 74.3829526 149.575319 74.8587216 149.465479 75.5818905 149.298522 76.2004721 149.347139 76.714485 149.611332 77.2284979 149.875524 77.5672177 150.335527 77.7306546 150.991355L78.3738741 153.777445C78.5021671 154.333143 78.6825613 154.758539 78.9150622 155.053647L78.9374694 155.150704 77.5215879 155.477586zM75.7665689 154.830401C76.0406118 154.767133 76.2830974 154.640994 76.4940329 154.45198 76.7049684 154.262966 76.8454102 154.042122 76.9153626 153.78944L76.6464758 152.624763 75.8985707 152.79743C75.3847401 152.916057 75.0190711 153.094689 74.8015526 153.333331 74.584034 153.571974 74.5130608 153.854955 74.5886307 154.182284 74.650141 154.448715 74.7876206 154.640474 75.0010735 154.757569 75.2145265 154.874664 75.469689 154.898941 75.7665689 154.830401zM80.0176535 148.394716L80.2223769 149.099139C80.5517009 148.441801 81.0874546 148.027463 81.8296543 147.856112 83.1161337 147.559105 83.9408117 148.144447 84.303713 149.612156L85.2461349 153.694233 83.8587994 154.014525 82.9348306 150.012376C82.8443225 149.620342 82.6926355 149.349679 82.4797651 149.200377 82.2668947 149.051076 81.9682533 149.020801 81.583832 149.109552 81.0243276 149.238723 80.6659942 149.588047 80.5088209 150.157533L81.5237368 154.553617 80.1364013 154.873908 78.7102468 148.696554 80.0176535 148.394716zM88.0543598 150.255639L87.5840723 151.031712 88.0493519 153.04706 86.6620164 153.367351 84.637457 144.598021 86.0247925 144.277729 87.1926048 149.33608 87.501287 148.693533 88.7641473 146.375429 90.4312335 145.990551 88.730586 149.095266 92.1028837 152.111228 90.4985986 152.481607 88.0543598 150.255639z"/>
      <g transform="rotate(-13 31.777 -75.823)">
        <path fill="#CFCFCF" d="M2.06323077,30.8131595 L19.7427077,30.8131595 L19.7427077,21.2827301 L2.06323077,21.2827301 L2.06323077,30.8131595 Z M0.530092308,32.1747239 L21.2758462,32.1747239 L21.2758462,19.9216871 L0.530092308,19.9216871 L0.530092308,32.1747239 Z"/>
        <path fill="#FFF" d="M19.7510769,57.5146319 L18.7724,57.5146319 L18.7724,54.103681 L3.03406154,54.103681 L3.03406154,57.5146319 L2.05486154,57.5146319 C1.21270769,57.5146319 0.530092308,58.1951534 0.530092308,59.0347239 L0.530092308,61.2702761 C0.530092308,62.1098466 1.21270769,62.7903681 2.05486154,62.7903681 L19.7510769,62.7903681 C20.5932308,62.7903681 21.2758462,62.1098466 21.2758462,61.2702761 L21.2758462,59.0347239 C21.2758462,58.1951534 20.5932308,57.5146319 19.7510769,57.5146319"/>
        <polygon fill="#F1F1F1" points="3.944 58.561 17.862 58.561 17.862 29.387 3.944 29.387"/>
        <polygon fill="#FEBBBA" points="5.406 23.033 16.4 23.033 16.4 5.238 5.406 5.238"/>
        <path fill="#F1F1F1" d="M5.93713846,0.493312883 L15.8688,0.493312883 C18.0353846,0.493312883 19.8080923,2.26058282 19.8080923,4.42052147 L19.8080923,8.81966258 C19.8080923,10.9790798 18.0353846,12.7463497 15.8688,12.7463497 L5.93713846,12.7463497 C3.77055385,12.7463497 1.99784615,10.9790798 1.99784615,8.81966258 L1.99784615,4.42052147 C1.99784615,2.26058282 3.77055385,0.493312883 5.93713846,0.493312883"/>
        <path fill="#FFF" d="M6.5324,44.6092331 C6.5324,42.202638 8.48923077,40.2518098 10.9032308,40.2518098 C13.3172308,40.2518098 15.2740615,42.202638 15.2740615,44.6092331 C15.2740615,47.0158282 13.3172308,48.9666564 10.9032308,48.9666564 C8.48923077,48.9666564 6.5324,47.0158282 6.5324,44.6092331"/>
        <path fill="#FEBBBA" d="M7.89763077,44.6092331 C7.89763077,42.9546012 9.24350769,41.6133742 10.9032308,41.6133742 C12.5629538,41.6133742 13.9083077,42.9546012 13.9083077,44.6092331 C13.9083077,46.263865 12.5629538,47.6056135 10.9032308,47.6056135 C9.24350769,47.6056135 7.89763077,46.263865 7.89763077,44.6092331"/>
      </g>
    </g>
  </g>
</svg>
