<svg xmlns="http://www.w3.org/2000/svg" xmlns:xlink="http://www.w3.org/1999/xlink" width="170" height="170" viewBox="0 0 170 170">
  <defs>
    <path id="vpa-coins_170x170-a" d="M23.7623762,8.88461538 L127.722772,8.88461538 C127.722772,17.062678 134.372009,23.6923077 142.574257,23.6923077 L142.574257,53.3076923 C134.372009,53.3076923 127.722772,59.937322 127.722772,68.1153846 L23.7623762,68.1153846 C23.7623762,59.937322 17.1131398,53.3076923 8.91089109,53.3076923 L8.91089109,23.6923077 C17.1131398,23.6923077 23.7623762,17.062678 23.7623762,8.88461538 Z"/>
    <mask id="vpa-coins_170x170-b" width="133.663" height="59.231" x="0" y="0" fill="#fff">
      <use xlink:href="#vpa-coins_170x170-a"/>
    </mask>
  </defs>
  <g fill="none" fill-rule="evenodd" transform="translate(7 36)">
    <path fill="#F1F1F1" d="M148.822277,9.52430769 C148.942574,3.74486538 146.980693,0.685596154 140.049505,0.777403846 L9.16485149,0.784807692 C1.88910891,0.78925 0.256930693,4.04101923 0.393564356,9.53171154 L0.463366337,67.6222885 C0.132178218,75.3563462 3.57920792,76.5750192 9.23762376,76.3662308 L140.120792,76.3588269 C145.906931,76.8904231 149.071782,75.3696731 148.89505,67.6134038 L148.822277,9.52430769 Z" opacity=".99"/>
    <use fill="#E5E5E5" stroke="#CFCFCF" stroke-width="5.941" mask="url(#vpa-coins_170x170-b)" xlink:href="#vpa-coins_170x170-a"/>
    <text fill="#F69A98" font-family="Roboto-Bold, Roboto" font-size="26" font-weight="bold" letter-spacing=".361">
      <tspan x="50.298" y="47">VPA</tspan>
    </text>
    <g transform="translate(79 64)">
      <rect width="31.7" height="34" x="39.3" y="9" fill="#FFF"/>
      <path fill="#F69A98" d="M74.7243419,13.0952366 C72.4280763,15.3957337 69.5138874,16.6102494 66.4452178,17.2817742 C64.484097,17.7224624 62.4994113,18.0556016 60.4859242,18.2365986 C59.9701154,18.2890614 59.4543066,18.3389012 58.9384978,18.3913641 C58.5771698,18.3913641 58.2158418,18.4175955 57.8545138,18.4175955 C56.254721,18.4438269 54.6051801,18.2365986 53.0315705,18.0293702 C51.0442665,17.7723021 49.0857641,17.3053825 47.2031928,16.6338577 C46.1192089,16.2456324 45.0352249,15.7551045 44.0297904,15.1858822 C42.3540664,14.2808976 40.8825712,13.1450763 39.90332,11.4400328 C39.0785496,9.99205735 39.0785496,8.54670507 39.9556864,7.12496109 C41.2203344,5.03169227 43.155272,3.76471377 45.2944384,2.78365796 C49.4732753,0.871386073 53.9087073,0.199861239 58.4750553,0.275932412 C62.6800753,0.328395289 66.8065458,0.947457245 70.6240546,2.8334977 C72.1191147,3.55748541 73.616793,4.53854122 74.8290746,5.67698566 C77.4081187,8.18471121 77.1489051,10.6399739 74.7243419,13.0952366 Z"/>
      <path fill="#F69A98" d="M76.6095314,16.4108904 C76.6095314,18.0346165 76.7613939,19.5953871 76.572875,21.1115643 C76.1984554,24.0888326 72.7370379,25.7020661 70.3098564,26.7565699 C63.0230751,29.9279508 53.790883,29.5502181 46.4255522,26.9296974 C43.0086461,25.7125586 39.1754274,24.17015 39.1911373,19.8891792 C39.1937556,18.7638505 39.1911373,17.6385218 39.1911373,16.3348193 C39.8797551,16.9486349 40.3981822,17.4706406 40.9742124,17.9191982 C44.477523,20.6577604 48.5961385,21.8040742 52.8954179,22.4073973 C56.6186673,22.929403 60.3523899,22.8690707 64.0625477,22.2500087 C67.9586061,21.599469 71.6713822,20.4452857 74.8526395,17.9795305 C75.4574712,17.5099877 75.9968448,16.9643738 76.6095314,16.4108904 Z"/>
      <path fill="#F69A98" d="M76.6566612,26.9900297 C76.6566612,28.6137558 76.8085237,30.1745264 76.6200047,31.6907035 C76.2455851,34.6679718 72.7841676,36.2812053 70.3569861,37.3357092 C63.0702049,40.5070901 53.8380127,40.1293574 46.4726819,37.5088367 C43.0557758,36.2916979 39.2225571,34.7492893 39.238267,30.4683185 C39.2408853,29.3429898 39.238267,28.217661 39.238267,26.9139585 C39.9268849,27.5277742 40.445312,28.0497798 41.0213421,28.4983374 C44.5246527,31.2368996 48.6432682,32.3832135 52.9425477,32.9865366 C56.665797,33.5085422 60.3995197,33.4482099 64.1096774,32.829148 C68.0057358,32.1786083 71.7185119,31.024425 74.8997692,28.5586697 C75.5019826,28.089127 76.0413563,27.5435131 76.6566612,26.9900297 Z"/>
      <path fill="#F69A98" d="M76.6566612 37.3803026C76.6566612 39.0040287 76.8085237 40.5647993 76.6200047 42.0809764 76.2455851 45.0582448 72.7841676 46.6714782 70.3569861 47.7259821 63.0702049 50.897363 53.8380127 50.5196303 46.4726819 47.8991096 43.0557758 46.6819708 39.2225571 45.1395622 39.238267 40.8585914 39.2408853 39.7332627 39.238267 38.6079339 39.238267 37.3042314 39.9268849 37.9180471 40.445312 38.4400527 41.0213421 38.8886103 44.5246527 41.6271726 48.6432682 42.7734864 52.9425477 43.3768095 56.665797 43.8988152 60.3995197 43.8384828 64.1096774 43.2194209 68.0057358 42.5688812 71.7185119 41.4146979 74.8997692 38.9489427 75.5019826 38.482023 76.0413563 37.933786 76.6566612 37.3803026zM37.6566612 43.0760712C37.6566612 44.6997972 37.8085237 46.2605678 37.6200047 47.776745 37.2455851 50.7540133 33.7841676 52.3672468 31.3569861 53.4217506 24.0702049 56.5931316 14.8380127 56.2153989 7.47268189 53.5948781 4.05577584 52.3777394.222557099 50.8353308.238267012 46.55436.240885331 45.4290312.238267012 44.3037025.238267012 43 .92688486 43.6138157 1.44531198 44.1358213 2.02134212 44.5843789 5.5246527 47.3229411 9.64326819 48.469255 13.9425477 49.0725781 17.665797 49.5945837 21.3995197 49.5342514 25.1096774 48.9151895 29.0057358 48.2646498 32.7185119 47.1104665 35.8997692 44.6447112 36.5019826 44.1777916 37.0413563 43.6295545 37.6566612 43.0760712z"/>
      <path fill="#F69A98" d="M35.433205,41.8250462 C33.1369394,44.1255434 30.2227506,45.340059 27.1540809,46.0115838 C25.1929601,46.452272 23.2082745,46.7854113 21.1947873,46.9664082 C20.6789785,47.0188711 20.1631697,47.0687108 19.6473609,47.1211737 C19.2860329,47.1211737 18.9247049,47.1474052 18.5633769,47.1474052 C16.9635841,47.1736366 15.3140432,46.9664082 13.7404336,46.7591799 C11.7531297,46.5021118 9.79462718,46.0351921 7.91205595,45.3636673 C6.82807197,44.975442 5.74408798,44.4849141 4.73865355,43.9156919 C3.06292951,43.0107072 1.59143434,41.8748859 0.612183103,40.1698424 C-0.212587323,38.721867 -0.212587323,37.2765147 0.66454948,35.8547707 C1.92919747,33.7615019 3.86413507,32.4945234 6.00330154,31.5134676 C10.1821384,29.6011957 14.6175704,28.9296709 19.1839184,29.0057421 C23.3889385,29.0582049 27.5154089,29.6772669 31.3329177,31.5633074 C32.8279778,32.2872951 34.3256561,33.2683509 35.5379378,34.4067953 C38.1169818,36.9145209 37.8577682,39.3697835 35.433205,41.8250462 Z"/>
    </g>
  </g>
</svg>
