<svg xmlns="http://www.w3.org/2000/svg" width="170" height="170" viewBox="0 0 170 170">
  <g fill="none" fill-rule="evenodd" transform="matrix(-1 0 0 1 150 26)">
    <rect width="41" height="22" x="10" y="72" fill="#FBCFCE"/>
    <g fill="#F1F1F1" transform="translate(0 12)">
      <path d="M130 16.9661017L130 6.52937853C130 2.93050847 127.082677 0 123.5 0L6.5 0C2.91732283 3.65307282e-15 0 2.93050847 0 6.52937853L0 16.9661017C0 18.4056497 1.1515748 19.5881356 2.61023622 19.5881356L127.415354 19.5881356C128.848425 19.5881356 130 18.4313559 130 16.9661017zM127.389764 32.1841808L2.61023622 32.1841808C1.17716535 32.1841808 0 33.3409605 0 34.8062147L0 84.419209C0 88.0180791 2.91732283 90.9485876 6.5 90.9485876L123.5 90.9485876C127.082677 90.9485876 130 88.0180791 130 84.419209L130 34.8062147C130 33.3409605 128.848425 32.1841808 127.389764 32.1841808zM39 77.8898305L19.5 77.8898305C15.9173228 77.8898305 13 74.959322 13 71.360452 13 67.7615819 15.9173228 64.8310734 19.5 64.8310734L39 64.8310734C42.5826772 64.8310734 45.5 67.7615819 45.5 71.360452 45.5 74.959322 42.5826772 77.8898305 39 77.8898305z"/>
    </g>
    <rect width="130" height="14" y="31" fill="#FEBBBA"/>
    <path stroke="#F69A98" stroke-linecap="round" stroke-width="5" d="M2,114 L130,0" transform="matrix(-1 0 0 1 132 0)"/>
  </g>
</svg>
