<svg xmlns="http://www.w3.org/2000/svg" width="200" height="170" viewBox="0 0 200 170">
  <g fill="none" fill-rule="evenodd" transform="matrix(-1 0 0 1 140 36)">
    <rect width="25.231" height="13.509" x="6.154" y="44.211" fill="#FBCFCE"/>
    <g fill="#F1F1F1" transform="translate(0 7.368)">
      <path d="M80 10.4177817L80 4.00926752C80 1.79943503 78.2047244 0 76 0L4 0C1.79527559 2.24311489e-15 0 1.79943503 0 4.00926752L0 10.4177817C0 11.3017147.708661417 12.0278026 1.60629921 12.0278026L78.4094488 12.0278026C79.2913386 12.0278026 80 11.3174993 80 10.4177817zM78.3937008 19.7622163L1.60629921 19.7622163C.724409449 19.7622163 0 20.4725196 0 21.3722371L0 51.8363564C0 54.0461889 1.79527559 55.8456239 4 55.8456239L76 55.8456239C78.2047244 55.8456239 80 54.0461889 80 51.8363564L80 21.3722371C80 20.4725196 79.2913386 19.7622163 78.3937008 19.7622163zM24 47.8270889L12 47.8270889C9.79527559 47.8270889 8 46.0276539 8 43.8178214 8 41.6079889 9.79527559 39.8085539 12 39.8085539L24 39.8085539C26.2047244 39.8085539 28 41.6079889 28 43.8178214 28 46.0276539 26.2047244 47.8270889 24 47.8270889z"/>
    </g>
    <rect width="80" height="8.596" y="19.035" fill="#FEBBBA"/>
    <path stroke="#F69A98" stroke-linecap="round" stroke-width="3.077" d="M1.23076923,70 L80,0" transform="matrix(-1 0 0 1 81.23 0)"/>
  </g>
</svg>
