<svg width="200" height="170" viewBox="0 0 200 170" xmlns="http://www.w3.org/2000/svg"><title>Card</title><g fill="none" fill-rule="evenodd"><path fill="#F69A98" d="M127.54 85.78h-24.217v12.875h24.218z"/><g fill="#F1F1F1"><path d="M56.657 60.593v-6.108c0-2.106 1.724-3.82 3.84-3.82h69.11c2.117 0 3.84 1.714 3.84 3.82v6.108c0 .843-.68 1.535-1.54 1.535H58.183c-.846 0-1.527-.677-1.527-1.535zM58.2 69.5h73.706c.846 0 1.542.677 1.542 1.534v29.036c0 2.106-1.724 3.822-3.84 3.822h-69.11c-2.117 0-3.84-1.716-3.84-3.822V71.034c0-.857.68-1.534 1.54-1.534zm52.21 26.75h11.52c2.115 0 3.84-1.716 3.84-3.822 0-2.107-1.725-3.822-3.84-3.822h-11.52c-2.116 0-3.84 1.715-3.84 3.822 0 2.106 1.724 3.82 3.84 3.82z"/></g><path fill="#CFCFCF" d="M133.448 61.783h-76.79v8.194h76.79z"/><path d="M55.675 109.268l75.61-66.72c.607-.536 1.54-.483 2.084.12.54.603.488 1.527-.12 2.064l-75.61 66.72c-.61.536-1.542.483-2.085-.12-.543-.603-.49-1.527.12-2.064z" fill="#F69A98"/></g></svg>