<svg xmlns="http://www.w3.org/2000/svg" width="200" height="170" viewBox="0 0 200 170">
  <g fill="none" fill-rule="evenodd" transform="translate(56 31)">
    <polygon fill="#FEBBBA" points="1.947 39.539 85.433 39.539 82.592 37.936 5.054 37.936"/>
    <path fill="#FBCFCE" d="M82.6502803,35.0862622 C82.4319645,34.9692091 66.7700244,28.0165764 62.0380737,25.5945395 C55.9767041,22.4910293 52.9451318,20.8089924 52.1357659,18.6178548 C51.4178087,16.6688407 47.6638418,14.2949079 44.5665973,13.792221 C44.5594976,13.3721127 44.5541729,12.9303575 44.5541729,12.4429036 C44.5541729,11.6900758 44.6358194,11.1569231 44.7556269,10.7656771 C44.8488104,10.4650271 44.9570809,10.2469556 45.0866504,10.044117 C45.2197698,9.84208017 45.3795131,9.65447454 45.5845169,9.44121343 C45.9829877,9.02511376 46.5740378,8.51921993 47.1757374,7.74554713 C47.921206,6.78667389 48.348963,5.80695558 48.348963,4.80559047 C48.348963,4.22834236 48.205194,3.6735428 47.9487173,3.15722644 C47.6922406,2.64251354 47.3319308,2.16788732 46.8961867,1.71811484 C46.4338187,1.23947996 45.8472059,0.911570964 45.2357441,0.707128927 C44.6251699,0.503488624 43.9782096,0.416901408 43.3410115,0.416901408 C42.5644817,0.417703142 41.7897268,0.544377031 41.0735445,0.780888407 C40.4221469,0.997356446 39.8133476,1.3124377 39.3030566,1.73174431 L39.1539629,1.84959913 C38.4573047,2.48457205 38.0002615,2.87822319 37.7553218,3.02494041 C37.6177651,3.10751896 37.56008,3.1299675 37.4819833,3.15241603 C37.4038866,3.17165764 37.3178027,3.18608884 37.1394228,3.18608884 C36.5039995,3.18769231 35.9892712,3.65189599 35.9883837,4.22593716 C35.9892712,4.80078007 36.5039995,5.26498375 37.1394228,5.26578548 C37.4731087,5.26578548 37.8050197,5.23531961 38.1369307,5.14552546 C38.6436719,5.01083424 39.0661041,4.75989166 39.45925,4.46084507 C39.852396,4.16099675 40.2526416,3.79620802 40.7824568,3.31837486 C41.0158594,3.10431203 41.406343,2.88463705 41.857174,2.73551463 C42.3213169,2.58078007 42.8484697,2.49419285 43.3392365,2.49499458 C43.7474693,2.49499458 44.1308532,2.55271939 44.4396902,2.65614301 C44.7538519,2.76197183 44.9890295,2.90548212 45.1656346,3.08587216 C45.4860086,3.41698808 45.7096492,3.72565547 45.8489808,4.00546046 C45.987425,4.28927411 46.046885,4.53380282 46.0486599,4.803987 C46.046885,5.03568797 46.0016244,5.28182015 45.8835918,5.56964247 C45.7637844,5.85826652 45.5729799,6.18537378 45.2907668,6.55176598 C44.9837048,6.94862405 44.6757552,7.25889491 44.3473941,7.57878657 C44.1033419,7.81850488 43.8468652,8.06463705 43.5948258,8.35005417 C43.2185416,8.77417118 42.8626691,9.29289274 42.6239417,9.95432286 C42.3710148,10.6646587 42.2529823,11.4511593 42.2529823,12.4429036 C42.2529823,12.9455905 42.2583071,13.4033803 42.2671817,13.8379198 C39.2267348,14.4312026 35.6706721,16.7265655 34.9731265,18.6170531 C34.1646481,20.8081907 31.1330758,22.4902275 25.0708187,25.5937378 C20.3397556,28.0157746 4.67781542,34.9684074 4.46038708,35.0854605 C2.43963471,36.1806284 -0.187254611,38.7373564 0.0141994018,40.3801083 C0.216540877,42.0228602 2.1574216,40.5629036 5.18899388,38.9193499 C8.1220578,37.3295125 41.4631406,19.6047887 43.5557774,18.5657421 C45.6484143,19.6047887 78.9903845,37.3287107 81.9234484,38.9193499 C84.9550207,40.5629036 86.8967889,42.0228602 87.0973554,40.3801083 C87.2970345,38.7373564 84.6710327,36.1814301 82.6502803,35.0862622 Z"/>
    <path fill="#F1F1F1" d="M16.8158317,36.6197183 L69.787841,36.6197183 L69.787841,36.6197183 C70.4101336,36.6197183 70.9146015,37.1241862 70.9146015,37.7464789 L70.9146015,72.1126761 C61.7103465,77.370892 52.5060914,80 43.3018363,80 C34.0975813,80 24.8933262,77.370892 15.6890711,72.1126761 L15.6890711,37.7464789 L15.6890711,37.7464789 C15.6890711,37.1241862 16.193539,36.6197183 16.8158317,36.6197183 Z"/>
    <path fill="#AAA" d="M24.8882897,53.7876871 L22.8713443,53.7876871 L22.4493592,55 L21.5088333,55 L23.4757127,49.7931338 L24.2874974,49.7931338 L26.257953,55 L25.3138509,55 L24.8882897,53.7876871 Z M23.1252505,53.0581536 L24.6343834,53.0581536 L23.879817,50.8981624 L23.1252505,53.0581536 Z M27.1106648,55.447018 L26.4276212,55.447018 L28.4767519,49.7931338 L29.1597955,49.7931338 L27.1106648,55.447018 Z M33.9212331,53.3049076 C33.8687827,53.8604048 33.6637525,54.2937099 33.3061362,54.604836 C32.94852,54.9159622 32.4728976,55.0715229 31.8792546,55.0715229 C31.4644198,55.0715229 31.0990607,54.9731799 30.7831664,54.776491 C30.467272,54.5798021 30.2235006,54.3002696 30.0518449,53.9378851 C29.8801891,53.5755007 29.7907864,53.1547119 29.783634,52.6755062 L29.783634,52.1891505 C29.783634,51.6980242 29.8706527,51.2653151 30.0446926,50.8910101 C30.2187325,50.5167051 30.468464,50.2282324 30.7938948,50.0255832 C31.1193256,49.822934 31.495413,49.7216109 31.9221684,49.7216109 C32.4967384,49.7216109 32.9592485,49.8777677 33.3097124,50.1900858 C33.6601763,50.502404 33.8640145,50.9434574 33.9212331,51.5132592 L33.0200447,51.5132592 C32.9771307,51.1389543 32.8680594,50.8689581 32.6928275,50.7032625 C32.5175955,50.537567 32.2607117,50.4547205 31.9221684,50.4547205 C31.5287905,50.4547205 31.2266093,50.5983609 31.0156158,50.8856459 C30.8046222,51.1729309 30.6967429,51.5943157 30.6919747,52.1498129 L30.6919747,52.6111356 C30.6919747,53.1737851 30.7927018,53.6029181 30.9941589,53.8985475 C31.195616,54.1941769 31.490645,54.3419894 31.8792546,54.3419894 C32.2344867,54.3419894 32.5015029,54.262123 32.680311,54.1023878 C32.8591191,53.9426525 32.9723625,53.6768284 33.0200447,53.3049076 L33.9212331,53.3049076 Z M40.887165,55 L39.9824005,55 L37.6614828,51.3058429 L37.6614828,55 L36.7567182,55 L36.7567182,49.7931338 L37.6614828,49.7931338 L39.9895527,53.5015955 L39.9895527,49.7931338 L40.887165,49.7931338 L40.887165,55 Z M45.8667474,49.7931338 L45.8667474,53.2727223 C45.8667474,53.8258354 45.68973,54.2639087 45.3356899,54.5869553 C44.9816499,54.910002 44.5101995,55.0715229 43.9213248,55.0715229 C43.3252978,55.0715229 42.8520594,54.9123861 42.5015955,54.5941076 C42.1511316,54.2758292 41.9759023,53.8341798 41.9759023,53.2691461 L41.9759023,49.7931338 L42.8770907,49.7931338 L42.8770907,53.2762984 C42.8770907,53.6243782 42.9653013,53.8902023 43.1417254,54.0737786 C43.3181494,54.2573549 43.5780132,54.3491417 43.9213248,54.3491417 C44.6174844,54.3491417 44.965559,53.9819946 44.965559,53.2476893 L44.965559,49.7931338 L45.8667474,49.7931338 Z M48.1070032,49.7931338 L49.6089838,53.7841109 L51.1073883,49.7931338 L52.2767875,49.7931338 L52.2767875,55 L51.3755991,55 L51.3755991,53.2834507 L51.4650027,50.987566 L49.9272606,55 L49.2799785,55 L47.7458126,50.9911422 L47.8352162,53.2834507 L47.8352162,55 L46.9340278,55 L46.9340278,49.7931338 L48.1070032,49.7931338 Z M53.4477761,55 L53.4477761,49.7931338 L55.2322722,49.7931338 C55.8211469,49.7931338 56.2693525,49.9111454 56.5769024,50.1471721 C56.8844524,50.3831988 57.0382251,50.7348495 57.0382251,51.2021347 C57.0382251,51.4405455 56.9738551,51.655112 56.8451133,51.8458407 C56.7163714,52.0365693 56.5280297,52.1843818 56.2800825,52.2892826 C56.5614072,52.365574 56.7789538,52.5092144 56.9327288,52.720208 C57.0865038,52.9312015 57.1633901,53.1845092 57.1633901,53.4801386 C57.1633901,53.9688808 57.0066373,54.3443722 56.6931271,54.6066241 C56.3796169,54.868876 55.9308153,55 55.3467088,55 L53.4477761,55 Z M54.3525406,52.6504732 L54.3525406,54.2776188 L55.3574372,54.2776188 C55.6411461,54.2776188 55.8628648,54.2072887 56.0226001,54.0666263 C56.1823353,53.9259639 56.2622017,53.73047 56.2622017,53.4801386 C56.2622017,52.9389461 55.9856493,52.6623937 55.4325362,52.6504732 L54.3525406,52.6504732 Z M54.3525406,51.9853103 L55.2394244,51.9853103 C55.5207492,51.9853103 55.7406799,51.9215364 55.8992231,51.7939866 C56.0577663,51.6664368 56.1370367,51.4858433 56.1370367,51.2522007 C56.1370367,50.994717 56.0637264,50.8087594 55.9171038,50.6943222 C55.7704811,50.579885 55.5422062,50.5226673 55.2322722,50.5226673 L54.3525406,50.5226673 L54.3525406,51.9853103 Z M61.213175,52.6755062 L59.0746406,52.6755062 L59.0746406,54.2776188 L61.5743655,54.2776188 L61.5743655,55 L58.1698761,55 L58.1698761,49.7931338 L61.5493325,49.7931338 L61.5493325,50.5226673 L59.0746406,50.5226673 L59.0746406,51.9602773 L61.213175,51.9602773 L61.213175,52.6755062 Z M64.32601,52.993783 L63.3175373,52.993783 L63.3175373,55 L62.4127727,55 L62.4127727,49.7931338 L64.2437587,49.7931338 C64.8445539,49.7931338 65.308256,49.9278339 65.6348788,50.1972381 C65.9615016,50.4666423 66.1248106,50.8564382 66.1248106,51.3666373 C66.1248106,51.7147171 66.040772,52.00617 65.8726924,52.2410046 C65.7046128,52.4758393 65.4703777,52.6564328 65.16998,52.7827905 L66.3393793,54.9535101 L66.3393793,55 L65.3702441,55 L64.32601,52.993783 Z M63.3175373,52.2678257 L64.2473348,52.2678257 C64.5525006,52.2678257 64.7909079,52.1909394 64.9625637,52.0371644 C65.1342195,51.8833894 65.2200461,51.672995 65.2200461,51.4059749 C65.2200461,51.1270343 65.1407757,50.9112757 64.9822325,50.7586928 C64.8236893,50.6061099 64.5870701,50.5274355 64.2723678,50.5226673 L63.3175373,50.5226673 L63.3175373,52.2678257 Z M27.0866251,64 L26.1854367,64 L26.1854367,58.7931338 L27.0866251,58.7931338 L27.0866251,64 Z M31.3009126,61.7935189 L29.205292,61.7935189 L29.205292,64 L28.3005275,64 L28.3005275,58.7931338 L31.608461,58.7931338 L31.608461,59.5226673 L29.205292,59.5226673 L29.205292,61.0711378 L31.3009126,61.0711378 L31.3009126,61.7935189 Z M35.1468572,62.6589459 C35.1468572,62.4300715 35.0663948,62.2536501 34.9054675,62.1296765 C34.7445402,62.0057029 34.4542794,61.8805391 34.0346763,61.7541813 C33.6150733,61.6278236 33.2813031,61.4871633 33.0333559,61.3321963 C32.5589184,61.0341828 32.3217032,60.645579 32.3217032,60.1663732 C32.3217032,59.7467702 32.4927604,59.4010797 32.8348799,59.1292914 C33.1769994,58.857503 33.6210329,58.7216109 34.1669937,58.7216109 C34.5293781,58.7216109 34.8524199,58.7883649 35.1361288,58.921875 C35.4198377,59.0553851 35.6427484,59.2455148 35.8048678,59.49227 C35.9669871,59.7390252 36.0480456,60.0125975 36.0480456,60.3129952 L35.1468572,60.3129952 C35.1468572,60.0412068 35.0616266,59.8284284 34.8911629,59.6746534 C34.7206992,59.5208784 34.4769278,59.4439921 34.1598414,59.4439921 C33.864212,59.4439921 33.634745,59.50717 33.4714336,59.6335277 C33.3081222,59.7598855 33.2264677,59.9363068 33.2264677,60.1627971 C33.2264677,60.3535257 33.3146784,60.5126626 33.4911024,60.6402124 C33.6675264,60.7677622 33.9583832,60.8917339 34.3636816,61.0121314 C34.76898,61.1325288 35.0944059,61.269613 35.339969,61.423388 C35.5855322,61.577163 35.7655296,61.7535843 35.8799668,61.9526574 C35.994404,62.1517304 36.0516217,62.3847735 36.0516217,62.6517936 C36.0516217,63.0857013 35.8853327,63.4307957 35.5527496,63.6870874 C35.2201665,63.943379 34.7689808,64.0715229 34.199179,64.0715229 C33.8224899,64.0715229 33.4762034,64.0017888 33.160309,63.8623184 C32.8444147,63.7228481 32.5988552,63.5303343 32.4236233,63.2847711 C32.2483913,63.039208 32.1607767,62.7531193 32.1607767,62.4264965 L33.0655412,62.4264965 C33.0655412,62.7221259 33.1632882,62.9509968 33.358785,63.1131162 C33.5542819,63.2752356 33.8344104,63.356294 34.199179,63.356294 C34.5138812,63.356294 34.7505004,63.2925201 34.9090436,63.1649703 C35.0675868,63.0374205 35.1468572,62.8687474 35.1468572,62.6589459 Z M40.9203436,62.3049076 C40.8678933,62.8604048 40.662863,63.2937099 40.3052468,63.604836 C39.9476306,63.9159622 39.4720081,64.0715229 38.8783652,64.0715229 C38.4635304,64.0715229 38.0981713,63.9731799 37.782277,63.776491 C37.4663826,63.5798021 37.2226112,63.3002696 37.0509554,62.9378851 C36.8792996,62.5755007 36.7898969,62.1547119 36.7827446,61.6755062 L36.7827446,61.1891505 C36.7827446,60.6980242 36.8697633,60.2653151 37.0438031,59.8910101 C37.217843,59.5167051 37.4675746,59.2282324 37.7930054,59.0255832 C38.1184362,58.822934 38.4945236,58.7216109 38.9212789,58.7216109 C39.495849,58.7216109 39.9583591,58.8777677 40.308823,59.1900858 C40.6592869,59.502404 40.863125,59.9434574 40.9203436,60.5132592 L40.0191553,60.5132592 C39.9762413,60.1389543 39.86717,59.8689581 39.6919381,59.7032625 C39.5167061,59.537567 39.2598223,59.4547205 38.9212789,59.4547205 C38.5279011,59.4547205 38.2257199,59.5983609 38.0147263,59.8856459 C37.8037328,60.1729309 37.6958535,60.5943157 37.6910853,61.1498129 L37.6910853,61.6111356 C37.6910853,62.1737851 37.7918123,62.6029181 37.9932695,62.8985475 C38.1947266,63.1941769 38.4897556,63.3419894 38.8783652,63.3419894 C39.2335973,63.3419894 39.5006134,63.262123 39.6794215,63.1023878 C39.8582297,62.9426525 39.9714731,62.6768284 40.0191553,62.3049076 L40.9203436,62.3049076 Z M47.7289252,62.3049076 C47.6764748,62.8604048 47.4714446,63.2937099 47.1138284,63.604836 C46.7562122,63.9159622 46.2805897,64.0715229 45.6869468,64.0715229 C45.272112,64.0715229 44.9067529,63.9731799 44.5908585,63.776491 C44.2749642,63.5798021 44.0311928,63.3002696 43.859537,62.9378851 C43.6878812,62.5755007 43.5984785,62.1547119 43.5913262,61.6755062 L43.5913262,61.1891505 C43.5913262,60.6980242 43.6783448,60.2653151 43.8523847,59.8910101 C44.0264246,59.5167051 44.2761562,59.2282324 44.601587,59.0255832 C44.9270177,58.822934 45.3031051,58.7216109 45.7298605,58.7216109 C46.3044306,58.7216109 46.7669406,58.8777677 47.1174045,59.1900858 C47.4678684,59.502404 47.6717066,59.9434574 47.7289252,60.5132592 L46.8277368,60.5132592 C46.7848229,60.1389543 46.6757516,59.8689581 46.5005196,59.7032625 C46.3252877,59.537567 46.0684039,59.4547205 45.7298605,59.4547205 C45.3364827,59.4547205 45.0343015,59.5983609 44.8233079,59.8856459 C44.6123143,60.1729309 44.5044351,60.5943157 44.4996668,61.1498129 L44.4996668,61.6111356 C44.4996668,62.1737851 44.6003939,62.6029181 44.801851,62.8985475 C45.0033082,63.1941769 45.2983371,63.3419894 45.6869468,63.3419894 C46.0421789,63.3419894 46.309195,63.262123 46.4880031,63.1023878 C46.6668112,62.9426525 46.7800547,62.6768284 46.8277368,62.3049076 L47.7289252,62.3049076 Z M52.7943351,61.5324604 C52.7943351,62.0426595 52.7061244,62.4902691 52.5297004,62.8753026 C52.3532764,63.2603361 52.1011607,63.555961 51.7733458,63.7621864 C51.445531,63.9684118 51.0682515,64.0715229 50.6414961,64.0715229 C50.219509,64.0715229 49.8434216,63.9684118 49.5132226,63.7621864 C49.1830236,63.555961 48.9279279,63.2621241 48.7479277,62.8806668 C48.5679275,62.4992095 48.4767368,62.0593481 48.4743527,61.5610695 L48.4743527,61.2678257 C48.4743527,60.7600107 48.5643514,60.3118051 48.7443516,59.9231954 C48.9243517,59.5345858 49.1782554,59.2371728 49.5060703,59.0309474 C49.8338852,58.824722 50.2099726,58.7216109 50.6343439,58.7216109 C51.0587151,58.7216109 51.4348025,58.82353 51.7626174,59.0273713 C52.0904323,59.2312125 52.34374,59.5244534 52.5225481,59.9071028 C52.7013562,60.2897521 52.7919509,60.7349777 52.7943351,61.2427927 L52.7943351,61.5324604 Z M51.8895705,61.2606734 C51.8895705,60.6837192 51.7804992,60.2414738 51.5623533,59.9339239 C51.3442074,59.6263739 51.034874,59.4726012 50.6343439,59.4726012 C50.2433501,59.4726012 49.9375928,59.6257779 49.7170628,59.9321358 C49.4965328,60.2384937 49.3838854,60.6717988 49.3791172,61.2320643 L49.3791172,61.5324604 C49.3791172,62.1046463 49.4905726,62.5468918 49.7134867,62.8592099 C49.9364008,63.1715281 50.2457342,63.3276849 50.6414961,63.3276849 C51.0420263,63.3276849 51.3501677,63.1751042 51.5659295,62.8699384 C51.7816913,62.5647725 51.8895705,62.118951 51.8895705,61.5324604 L51.8895705,61.2606734 Z M53.7972449,64 L53.7972449,58.7931338 L55.334987,58.7931338 C55.7951199,58.7931338 56.2033923,58.8956489 56.5598164,59.1006822 C56.9162406,59.3057155 57.192197,59.5965724 57.3876938,59.9732614 C57.5831907,60.3499505 57.6809377,60.7814676 57.6809377,61.2678257 L57.6809377,61.5288842 C57.6809377,62.0223946 57.5825947,62.4562958 57.3859058,62.8306008 C57.1892168,63.2049058 56.9090883,63.4933785 56.5455118,63.6960277 C56.1819353,63.8986769 55.7653187,64 55.2956494,64 L53.7972449,64 Z M54.7020094,59.5226673 L54.7020094,63.2776188 L55.2920732,63.2776188 C55.7665108,63.2776188 56.1306778,63.1292103 56.3845853,62.8323889 C56.6384929,62.5355674 56.7678288,62.1094145 56.772597,61.5539173 L56.772597,61.2642496 C56.772597,60.6992159 56.6498173,60.2676988 56.4042541,59.9696853 C56.158691,59.6716718 55.8022722,59.5226673 55.334987,59.5226673 L54.7020094,59.5226673 Z M61.7271464,61.6755062 L59.588612,61.6755062 L59.588612,63.2776188 L62.088337,63.2776188 L62.088337,64 L58.6838475,64 L58.6838475,58.7931338 L62.0633039,58.7931338 L62.0633039,59.5226673 L59.588612,59.5226673 L59.588612,60.9602773 L61.7271464,60.9602773 L61.7271464,61.6755062 Z"/>
  </g>
</svg>
