<svg xmlns="http://www.w3.org/2000/svg" xmlns:xlink="http://www.w3.org/1999/xlink" width="400" height="400" viewBox="0 0 400 400">
  <defs>
    <path id="machine-a" d="M0.210674506,3.41902894 C0.210674506,1.99200357 1.3761138,0.835170938 2.78818267,0.835170938 L40.3761546,0.835170938 C41.7996731,0.835170938 42.9536628,1.98336934 42.9536628,3.41902894 L42.9536628,75.2487023 C42.9536628,76.6757277 41.7882235,77.8325603 40.3761546,77.8325603 L2.78818267,77.8325603 C1.36466422,77.8325603 0.210674506,76.6843619 0.210674506,75.2487023 L0.210674506,3.41902894 Z"/>
  </defs>
  <g fill="none" fill-rule="evenodd" transform="translate(121 32)">
    <g transform="translate(0 10.91)">
      <g fill-rule="nonzero" transform="translate(23.361 137.735)">
        <rect width="110.449" height="152.55" x=".496" y="33.084" fill="#FEBBBA" rx="6.413"/>
        <polygon fill="#FFF" points="22.144 38.883 22.144 .745 30.98 .745 30.98 38.883"/>
        <polygon fill="#FFF" points="22.144 122.52 22.144 84.382 30.98 84.382 30.98 122.52"/>
        <polygon fill="#FFF" points="22.144 173.37 22.144 135.232 30.98 135.232 30.98 173.37"/>
      </g>
      <g transform="translate(77.16 235.631)">
        <use fill="#FFF" fill-rule="nonzero" xlink:href="#machine-a"/>
        <path fill="#AAA" d="M4.30540893,30.1930577 L9.53604562,30.1930577 L1.23052986,52.6382567 L-4.4178893,52.6382567 L-12.7066938,30.1930577 L-7.47605708,30.1930577 L-2.88044977,43.5496399 C-2.62420856,44.3377333 -2.35961564,45.256309 -2.08666305,46.3053945 C-1.81371046,47.3544799 -1.64381395,48.0837113 -1.57696842,48.4931105 C-1.45441828,47.5514924 -1.03663997,45.9036853 -0.323620973,43.5496399 L4.30540893,30.1930577 Z M18.647046,40.7555043 L20.3515985,40.7555043 C21.9447504,40.7555043 23.1368111,40.4663704 23.9278166,39.8880941 C24.718822,39.3098177 25.1143188,38.4680032 25.1143188,37.3626254 C25.1143188,36.2470125 24.7828814,35.423109 24.1199965,34.89089 C23.4571117,34.3586711 22.4182363,34.0925656 21.0033392,34.0925656 L18.647046,34.0925656 L18.647046,40.7555043 Z M30.3449555,37.193749 C30.3449555,39.6092043 29.5233249,41.4565905 27.8800389,42.735963 C26.2367529,44.0153355 23.8999796,44.6550122 20.8696488,44.6550122 L18.647046,44.6550122 L18.647046,52.6382567 L13.4665432,52.6382567 L13.4665432,30.1930577 L21.27072,30.1930577 C24.2342052,30.1930577 26.4874229,30.7790015 28.0304406,31.9509067 C29.5734583,33.1228119 30.3449555,34.8704086 30.3449555,37.193749 Z M50.7695055,52.6382567 L48.9981078,47.2956239 L40.0909853,47.2956239 L38.3195876,52.6382567 L32.7380136,52.6382567 L41.361044,30.1009433 L47.6946265,30.1009433 L56.3510795,52.6382567 L50.7695055,52.6382567 Z M47.7614717,43.3040016 C46.1237562,38.462856 45.2018587,35.7250399 44.9957516,35.0904711 C44.7896446,34.4559024 44.6420296,33.9543959 44.5529022,33.5859366 C44.1852518,34.896014 43.1324505,38.1353366 41.3944666,43.3040016 L47.7614717,43.3040016 Z" transform="rotate(90 21.822 41.37)"/>
      </g>
      <path fill="#F1F1F1" fill-rule="nonzero" d="M0,3.85746977 C0,1.72704804 1.72148821,-2.04636308e-12 3.84891929,-2.04636308e-12 L154.235869,-2.04636308e-12 C156.361568,-2.04636308e-12 158.084788,1.72239436 158.084788,3.85746977 L158.084788,235.548879 C158.084788,237.679301 156.3633,239.406349 154.235869,239.406349 L3.84891929,239.406349 C1.72321986,239.406349 0,237.683955 0,235.548879 L0,3.85746977 Z"/>
      <path fill="#FFEBEB" fill-rule="nonzero" stroke="#CFCFCF" stroke-width="2.27" d="M13.1737323,17.9533815 C13.1737323,15.1180169 15.4741985,12.8194997 18.2975595,12.8194997 L139.787229,12.8194997 C142.61704,12.8194997 144.911056,15.1156639 144.911056,17.9533815 L144.911056,88.7727931 C144.911056,91.6081577 142.61059,93.9066749 139.787229,93.9066749 L18.2975595,93.9066749 C15.4677479,93.9066749 13.1737323,91.6105107 13.1737323,88.7727931 L13.1737323,17.9533815 Z"/>
      <g fill-rule="nonzero" transform="translate(13.174 108.063)">
        <rect width="40.203" height="22.035" x=".964" y=".263" fill="#FFF" rx="5.13"/>
        <rect width="40.203" height="22.035" x=".964" y="32.468" fill="#FFF" rx="5.13"/>
        <rect width="40.203" height="22.035" x=".966" y="64.673" fill="#FFF" rx="5.13"/>
        <rect width="40.203" height="22.035" x="90.648" y=".263" fill="#FFF" rx="5.13"/>
        <rect width="40.203" height="22.035" x="90.648" y="32.468" fill="#FFF" rx="5.13"/>
        <rect width="40.203" height="22.035" x="90.654" y="64.673" fill="#FFF" rx="5.13"/>
        <rect width="36.227" height="22.035" x="48.236" y=".263" fill="#FFF" rx="5.13"/>
        <rect width="36.227" height="22.035" x="48.236" y="32.468" fill="#FFF" rx="5.13"/>
        <rect width="40.203" height="22.035" x=".964" y="97.468" fill="#F69A98" rx="5.13"/>
        <rect width="40.203" height="22.035" x="90.648" y="97.468" fill="#F69A98" rx="5.13"/>
        <rect width="36.227" height="22.035" x="48.236" y="97.468" fill="#FFF" rx="5.13"/>
        <rect width="36.227" height="22.035" x="48.232" y="64.673" fill="#FFF" rx="5.13"/>
      </g>
      <g fill="#AAA" transform="translate(40.988 27.049)">
        <path d="M6.62734811 49.0484024L2.24030152 47.830974 3.06461919 45.3550803 7.40975132 47.0649516 7.1303216 42.2909908 9.86873285 42.2909908 9.58930313 47.1607044 13.8226634 45.478191 14.646981 47.9814427 10.1761055 49.1988711 13.1101176 52.8374774 10.8886513 54.3832011 8.34584088 50.3889416 5.83097341 54.2464114 3.60950714 52.7690825 6.62734811 49.0484024zM26.7183449 49.0484024L22.3312983 47.830974 23.155616 45.3550803 27.5007481 47.0649516 27.2213184 42.2909908 29.9597296 42.2909908 29.6802999 47.1607044 33.9136602 45.478191 34.7379778 47.9814427 30.2671023 49.1988711 33.2011144 52.8374774 30.9796481 54.3832011 28.4368377 50.3889416 25.9219702 54.2464114 23.7005039 52.7690825 26.7183449 49.0484024zM46.8093417 49.0484024L42.4222951 47.830974 43.2466128 45.3550803 47.5917449 47.0649516 47.3123152 42.2909908 50.0507264 42.2909908 49.7712967 47.1607044 54.004657 45.478191 54.8289746 47.9814427 50.3580991 49.1988711 53.2921112 52.8374774 51.0706449 54.3832011 48.5278345 50.3889416 46.012967 54.2464114 43.7915007 52.7690825 46.8093417 49.0484024zM66.9003385 49.0484024L62.5132919 47.830974 63.3376096 45.3550803 67.6827417 47.0649516 67.403312 42.2909908 70.1417232 42.2909908 69.8622935 47.1607044 74.0956538 45.478191 74.9199714 47.9814427 70.4490959 49.1988711 73.383108 52.8374774 71.1616417 54.3832011 68.6188313 50.3889416 66.1039638 54.2464114 63.8824975 52.7690825 66.9003385 49.0484024zM10.3920595 18.3216574L10.3920595 27.8504831 4.60385155 27.8504831 4.60385155.805706938 15.5628586.805706938C17.6723494.805706938 19.527773 1.1771974 21.1291852 1.92018947 22.7305974 2.66318154 23.9621872 3.7188336 24.8239913 5.08717733 25.6857955 6.45552106 26.1166911 8.01268525 26.1166911 9.75871662 26.1166911 12.4087217 25.1745089 14.4983555 23.2901162 16.0276809 21.4057235 17.5570062 18.7978404 18.3216574 15.4663885 18.3216574L10.3920595 18.3216574zM10.3920595 13.8080031L15.5628586 13.8080031C17.0935257 13.8080031 18.2608026 13.4612787 19.0647244 12.7678195 19.8686462 12.0743602 20.2706011 11.083719 20.2706011 9.79586603 20.2706011 8.47086351 19.8654306 7.39973267 19.0550774 6.5824414 18.2447242 5.76515012 17.1256819 5.3441276 15.6979168 5.31936119L10.3920595 5.31936119 10.3920595 13.8080031zM40.8499065 27.8504831L35.0616986 27.8504831 35.0616986.805706938 40.8499065.805706938 40.8499065 27.8504831zM73.6616248 27.8504831L67.8734169 27.8504831 56.6057054 10.055912 56.6057054 27.8504831 50.8174975 27.8504831 50.8174975.805706938 56.6057054.805706938 67.8927109 18.6374275 67.8927109.805706938 73.6616248.805706938 73.6616248 27.8504831z"/>
      </g>
    </g>
    <g transform="translate(117.724)">
      <path fill="#FFF" fill-rule="nonzero" stroke="#CFCFCF" stroke-width="2.27" d="M33.3285311,21.8978185 C35.4141267,21.8978185 37.104836,20.2579655 37.104836,18.2351043 C37.104836,16.2122431 35.4141267,14.5723901 33.3285311,14.5723901 C31.2429355,14.5723901 29.5522263,16.2122431 29.5522263,18.2351043 C29.5522263,20.2579655 31.2429355,21.8978185 33.3285311,21.8978185 Z"/>
      <g transform="rotate(-19 72.136 -2.19)">
        <g transform="translate(.162 .113)">
          <path fill="#FEBBBA" fill-rule="nonzero" d="M38.3697905,90.3977947 C38.3697905,85.0191485 35.8204036,78.4706843 32.8174541,78.4706843 C29.8145045,78.4706843 27.4771635,85.0191485 27.4771635,90.3977947 L24.7636547,90.3977947 C24.7636547,82.3384658 28.4238763,75.7825658 32.9234769,75.7825658 C37.4230773,75.7825658 41.0832991,82.3384658 41.0832991,90.3977947 L38.3697905,90.3977947 Z" transform="rotate(4 32.923 83.09)"/>
          <g transform="rotate(8 -572.705 128.63)">
            <path fill="#F69A98" fill-rule="nonzero" d="M21.7568956,17.6112539 C18.8849344,17.6112539 16.557282,15.3893393 16.557282,12.6484219 C16.557282,9.90797448 18.8849344,7.68605989 21.7568956,7.68605989 C24.6286104,7.68605989 26.9567552,9.90797448 26.9567552,12.6484219 C26.9567552,15.3893393 24.6286104,17.6112539 21.7568956,17.6112539 Z M7.12899742,76.7576003 L36.3845475,76.7576003 C40.1939703,76.7576003 43.2815869,73.8101627 43.2815869,70.1747938 L43.2815869,15.5270195 C43.2815869,13.2750315 42.0755406,11.1795195 40.0846654,9.97164571 L25.6647913,1.22401711 C23.429211,-0.13234462 20.576452,-0.146676521 18.326101,1.18736503 L3.49017882,9.98010389 C1.46385341,11.1804593 0.231711676,13.295707 0.231711676,15.5721298 L0.231711676,70.1747938 C0.231711676,73.8101627 3.31957458,76.7576003 7.12899742,76.7576003 L7.12899742,76.7576003 Z"/>
            <path fill="#AAA" fill-rule="nonzero" stroke="#AAA" stroke-width="2.27" d="M21.7569954,16.1663807 C24.0062622,16.1663807 25.8364012,14.3996969 25.8364012,12.2279207 C25.8364012,10.0556991 24.0062622,8.28879259 21.7569954,8.28879259 C19.5068058,8.28879259 17.6768975,10.0556991 17.6768975,12.2279207 C17.6768975,14.3996969 19.5068058,16.1663807 21.7569954,16.1663807 Z M21.7569954,17.6963338 C18.6337183,17.6963338 16.0921921,15.2432868 16.0921921,12.2279207 C16.0921921,9.21255466 18.6337183,6.75906222 21.7569954,6.75906222 C24.8800416,6.75906222 27.4211067,9.21255466 27.4211067,12.2279207 C27.4211067,15.2432868 24.8800416,17.6963338 21.7569954,17.6963338 L21.7569954,17.6963338 Z"/>
            <path fill="#FFF" d="M17.6362816,0.377208132 L17.6362816,15.6083593 C17.6362816,18.138956 16.8631126,20.1401091 15.3167515,21.6118787 C13.7703903,23.0836483 11.6577514,23.8195221 8.97877124,23.8195221 C6.3411653,23.8195221 4.2466273,23.1048246 2.69509439,21.675408 C1.14356148,20.2459915 0.352291571,18.2818968 0.321260913,15.7830649 L0.321260913,0.377208132 L4.97583636,0.377208132 L4.97583636,15.6401239 C4.97583636,17.1542466 5.33009773,18.2580573 6.03863109,18.951589 C6.74716445,19.6451208 7.72720136,19.9918814 8.97877124,19.9918814 C11.5956901,19.9918814 12.9248167,18.5836625 12.9661909,15.7671826 L12.9661909,0.377208132 L17.6362816,0.377208132 Z M26.1076089,15.3542421 L26.1076089,23.5018756 L21.4530334,23.5018756 L21.4530334,0.377208132 L30.2656963,0.377208132 C31.9620389,0.377208132 33.454074,0.694851486 34.7418463,1.33014772 C36.0296186,1.96544396 37.019999,2.8680805 37.713017,4.0380844 C38.406035,5.20808831 38.7525388,6.53954337 38.7525388,8.03248953 C38.7525388,10.2983794 37.994885,12.0851233 36.4795545,13.3927747 C34.964224,14.7004262 32.8671002,15.3542421 30.18812,15.3542421 L26.1076089,15.3542421 Z M26.1076089,11.4948367 L30.2656963,11.4948367 C31.4965791,11.4948367 32.4352424,11.1983696 33.0817144,10.6054264 C33.7281865,10.0124833 34.0514176,9.16543433 34.0514176,8.06425418 C34.0514176,6.93130922 33.7256006,6.01543755 33.0739568,5.31661169 C32.422313,4.61778583 31.5224374,4.25779002 30.374303,4.23661348 L26.1076089,4.23661348 L26.1076089,11.4948367 Z M46.8980459,23.5018756 L42.2434704,23.5018756 L42.2434704,0.377208132 L46.8980459,0.377208132 L46.8980459,23.5018756 Z" transform="rotate(90 5.721 27.603)"/>
          </g>
          <path fill="#FEBBBA" fill-rule="nonzero" d="M8.14243099,3.77919705 C7.55146139,3.77919705 5.77630317,5.10791041 5.77630317,7.06899831 C5.77630317,9.18927014 6.82494498,72.5632959 7.53665818,88.2738051 C8.30536846,72.6621498 10.5085586,9.60213074 10.5085586,7.06899831 C10.5085586,4.58820031 8.74914951,3.77919705 8.14243099,3.77919705 Z M8.76509466,97.5566269 C8.25737087,97.5326404 7.811144,97.293501 7.52090891,96.9337016 C7.22692414,97.2949548 6.77844735,97.534821 6.26922357,97.5573538 C5.33252212,97.6009657 4.54881253,96.8973584 4.50681475,95.9945892 C4.40107027,93.6453542 2.40147768,9.86961789 2.40147768,7.06899831 C2.40147768,3.43466197 5.54081544,0.508294343 8.14243099,0.508294343 C10.9022883,0.508294343 13.8833843,3.01671328 13.8833843,7.06899831 C13.8833843,10.4125877 10.6474975,93.6744288 10.5312534,96.0018579 C10.4892556,96.8770059 9.74229418,97.5588075 8.84834029,97.5588075 C8.81984183,97.5588075 8.79359312,97.5580807 8.76509466,97.5566269 Z" transform="rotate(1 18.754 1532.985)"/>
        </g>
        <path fill="#CFCFCF" fill-rule="nonzero" d="M34.3228946,4.82239436 C34.3228946,2.32659202 32.4549382,0.139248748 29.8486063,0.139248748 L29.9329356,2.00046167 C33.0293892,2.84089709 33.0614196,5.56322789 32.6311139,6.77533539 L34.3228946,4.82239436 Z"/>
      </g>
      <path fill="#F1F1F1" fill-rule="nonzero" d="M34.2583298,13.3465309 C32.7020183,12.000694 33.1281978,10.9096758 35.2259005,10.9096758 L37.095619,10.9096758 C39.186305,10.9096758 40.8811408,12.5618365 40.8811408,14.5689123 L40.8811408,21.9012962 C40.8811408,23.9222372 39.3782013,25.6439656 39.3782013,25.6439656 C37.2936512,21.1652756 38.8380377,18.0708707 37.8939615,16.4226493 C37.8939615,16.4226493 37.6417725,15.5320643 36.1312507,14.2501143 C33.8654677,13.1513 34.4099992,13.0750953 34.2583298,13.3465309 Z"/>
    </g>
  </g>
</svg>
