<svg xmlns="http://www.w3.org/2000/svg" width="96" height="96" viewBox="0 0 96 96">
  <g fill="none" fill-rule="evenodd" transform="translate(-3 -6)">
    <g transform="translate(30.693 16.26)">
      <path fill="#F1F1F1" d="M37.1790911,75.6795245 L3.42909115,75.6795245 C1.76242448,75.6795245 0.304091146,74.3261723 0.304091146,72.5564041 L0.304091146,3.22313012 C0.304091146,1.55746588 1.76242448,0.100009667 3.42909115,0.100009667 L37.1790911,0.100009667 C38.9499245,0.100009667 40.3040911,1.55746588 40.3040911,3.22313012 L40.3040911,72.5564041 C40.3040911,74.2220683 38.9499245,75.6795245 37.1790911,75.6795245 Z"/>
      <ellipse cx="20.23" cy="69.68" fill="#FEBBBA" rx="3.24" ry="3.246"/>
      <rect width="40" height="53.862" x=".307" y="9.138" fill="#FFEBEB"/>
      <path fill="#CFCFCF" d="M24.6858835,5.01162479 L15.8581836,5.01162479 C15.3389072,5.01162479 14.923486,4.59520873 14.923486,4.07468865 L14.923486,4.07468865 C14.923486,3.55416858 15.3389072,3.13775252 15.8581836,3.13775252 L24.6858835,3.13775252 C25.2051599,3.13775252 25.6205811,3.55416858 25.6205811,4.07468865 L25.6205811,4.07468865 C25.6205811,4.49110471 25.2051599,5.01162479 24.6858835,5.01162479 Z"/>
      <ellipse cx="28.856" cy="4.084" fill="#FEBBBA" rx="1.039" ry="1.041"/>
    </g>
    <path fill="#FEBBBA" d="M26.0183834,40.0984491 C28.8931874,40.0984491 31.6843093,39.7487869 34.3145039,39.0623653 L34.7548008,38.9617245 L41.7660783,46.7807379 L41.4558106,37.6392016 L41.3734158,36.4444151 L41.401739,36.0315299 L41.7017074,35.8276678 C45.1416878,33.5000276 47.0367669,30.5401568 47.0367669,27.4964188 C47.0367669,20.5483352 37.6090061,14.8943886 26.0183834,14.8943886 C14.4290482,14.8943886 5,20.5483352 5,27.4964188 C5,34.4445024 14.4290482,40.0984491 26.0183834,40.0984491 Z"/>
    <g fill="#FFF" transform="translate(13 24)">
      <circle cx="3" cy="3" r="3"/>
      <circle cx="13" cy="3" r="3"/>
      <circle cx="23" cy="3" r="3"/>
    </g>
    <path stroke="#FEBBBA" stroke-linecap="round" stroke-linejoin="round" stroke-width="2.16" d="M88.3183542,22.6505276 L13.6816458,85.561433 L88.3183542,22.6505276 Z"/>
  </g>
</svg>
