<svg xmlns="http://www.w3.org/2000/svg" width="168" height="168" viewBox="0 0 168 168">
  <g fill="none" fill-rule="evenodd" transform="translate(-513)">
    <g transform="translate(522 9)">
      <circle cx="75.175" cy="75.175" r="74.567" fill="#F1F1F1" stroke="#DADADA" stroke-width="2.386"/>
      <g fill="#F69A98" fill-rule="nonzero" transform="translate(10.48 5.24)">
        <path d="M86.8862987 13.6782593L85.0714585 13.1406173 86.5428052 8.17220861 86.8020681 7.36156407 87.0947843 6.4774418C86.7046952 6.68951166 86.4364716 6.82571428 86.2913083 6.8848549L85.0696664 7.38545926 84.5182847 6.0341859 87.9352978 4.65065402 89.4287476 5.09271516 86.8857013 13.679454 86.8862987 13.6782593zM96.756807 13.2821964C96.1337397 14.7171029 95.4377921 15.6776898 94.6683668 16.1615676 93.8989415 16.6472374 93.0255721 16.6777038 92.0482585 16.2529667 91.1002166 15.8419693 90.5404716 15.1758907 90.3678288 14.2553283 90.1963808 13.3341684 90.4114376 12.1794331 91.0147913 10.78933 91.6444297 9.33948896 92.3421694 8.37292826 93.1092052 7.88905053 93.8750463 7.4051728 94.7460262 7.37410904 95.7197555 7.79705402 96.6672 8.20924616 97.2275424 8.87831166 97.4001852 9.80902957 97.5734253 10.7391501 97.3583686 11.8968724 96.756807 13.2827938L96.756807 13.2821964zM92.7394271 11.537847C92.3033397 12.5462243 92.0763354 13.3060916 92.0608035 13.8180462 92.045869 14.3300007 92.2441991 14.6752863 92.6557939 14.8539029 93.0608175 15.0295326 93.448517 14.935744 93.8206847 14.5719396 94.192255 14.2075379 94.5942917 13.5277195 95.0273921 12.5312898 95.4634795 11.5235099 95.6874969 10.7600584 95.6964576 10.2409352 95.7066131 9.72240948 95.5112699 9.37592913 95.1098306 9.2014942 94.7018201 9.02466974 94.3141205 9.11786101 93.9467319 9.481068 93.580538 9.84546974 93.1779039 10.5306645 92.7400245 11.5384444L92.7394271 11.537847zM103.403853 17.5546575C102.614117 18.9047361 101.808849 19.7745213 100.986257 20.1652077 100.164859 20.5546994 99.2938795 20.4800269 98.3739144 19.942385 97.4820262 19.420275 97.0059144 18.6926662 96.9443843 17.7577667 96.8822568 16.8228671 97.2341135 15.701585 97.9993572 14.3945178 98.7974568 13.0301021 99.6063092 12.1531483 100.42472 11.764254 101.24313 11.3759571 102.111123 11.4488374 103.027504 11.9852846 103.919392 12.5061999 104.395504 13.2397824 104.456437 14.1836427 104.516175 15.1263082 104.16611 16.2505772 103.403256 17.5546575L103.403853 17.5546575zM99.6224384 15.3443518C99.0686672 16.2917964 98.7532507 17.0188077 98.676786 17.5247885 98.5991266 18.0325614 98.7556402 18.3987553 99.1427424 18.6257597 99.5238707 18.8485824 99.920531 18.8013894 100.333321 18.4841807 100.745513 18.1675693 101.225806 17.5403204 101.774798 16.6024339 102.329167 15.6537946 102.642194 14.9226016 102.712685 14.4088549 102.78437 13.8951082 102.632038 13.5277195 102.254494 13.3072863 101.869782 13.0820741 101.473719 13.1280724 101.065708 13.4458785 100.657698 13.7624898 100.176807 14.3957125 99.621841 15.3443518L99.6224384 15.3443518zM106.775466 18.283461C106.461244 18.6956531 106.263511 19.031978 106.182267 19.2906435 106.101024 19.5499064 106.141645 19.741068 106.304133 19.8641283 106.615965 20.1018855 107.083714 19.8103641 107.706781 18.9919536 108.324472 18.1795169 108.477401 17.6538226 108.165569 17.4172601 108.003081 17.2936025 107.80953 17.303758 107.584318 17.4483239 107.359106 17.5916951 107.089687 17.8700741 106.775466 18.2828636L106.775466 18.283461zM108.94276 19.9166977C108.374054 20.6646173 107.801764 21.1162366 107.227085 21.2715553 106.652405 21.4268741 106.086089 21.2918662 105.526344 20.8665318 104.990494 20.4585213 104.722271 19.9507483 104.722868 19.343213 104.722868 18.7356776 105.00065 18.0678069 105.554421 17.3396007 106.683469 15.8545143 107.80953 15.5385003 108.930812 16.3915588 109.480402 16.80853 109.755197 17.3222767 109.756989 17.9310069 109.756989 18.5403344 109.486376 19.2016339 108.94276 19.9166977L108.94276 19.9166977zM113.912961 20.3432269L104.537083 24.4621614 103.367413 23.5720654 112.742693 19.4525335 113.913558 20.3426296 113.912961 20.3432269zM109.60167 24.9287152C109.287448 25.3409073 109.089715 25.6772322 109.008472 25.9364951 108.927228 26.1951606 108.96785 26.3863221 109.130337 26.5099798 109.442169 26.7471396 109.909918 26.4562156 110.532985 25.6378051 111.150676 24.8253684 111.303605 24.2996741 110.991773 24.0625143 110.829286 23.9388566 110.635734 23.9490121 110.410522 24.093578 110.185907 24.2369492 109.916489 24.5159256 109.602267 24.9287152L109.60167 24.9287152zM111.768964 26.5619518C111.202648 27.3062872 110.63215 27.7567117 110.057471 27.9120304 109.482194 28.0673492 108.91528 27.931744 108.35673 27.5058121 107.820283 27.0995938 107.552059 26.5906261 107.552657 25.9824933 107.552657 25.3755553 107.829244 24.7100741 108.380625 23.9848549 109.509673 22.4991711 110.636332 22.1831571 111.757614 23.0362156 112.307203 23.4543815 112.581998 23.9681283 112.583193 24.576261 112.584388 25.1855885 112.31258 25.8468881 111.768964 26.5619518L111.768964 26.5619518zM118.008 35.98562C117.375972 36.4886138 116.696154 36.657075 115.96974 36.4910034 115.243326 36.3255291 114.556936 35.836275 113.911766 35.0244357 113.316776 34.2777108 112.932063 33.5035064 112.755836 32.7042121L114.135783 31.6068252C114.301855 32.2460217 114.471511 32.7657422 114.645348 33.1618051 114.820381 33.557868 115.015724 33.8918034 115.230781 34.1636112 115.490641 34.4897807 115.751696 34.6905003 116.014543 34.7657702 116.27739 34.8404427 116.532472 34.7801073 116.77919 34.5847641 116.916587 34.4754435 117.007986 34.3398383 117.053984 34.1785457 117.099983 34.0160584 117.113722 33.8213125 117.094606 33.5943082 117.07549 33.3673038 116.993052 32.9371903 116.847291 32.3081492 116.708101 31.71973 116.645974 31.244813 116.660908 30.8828007 116.67644 30.5213859 116.756489 30.1790872 116.89986 29.8553073 117.045024 29.5327221 117.282183 29.240006 117.610742 28.9771588 118.232017 28.4843204 118.886148 28.3080933 119.574928 28.4454907 120.264304 28.5840828 120.9035 29.0237545 121.492517 29.7657003 121.782246 30.1301021 122.015822 30.5124252 122.192646 30.911475 122.368873 31.3105248 122.522997 31.7537807 122.652629 32.2388531L121.116168 32.6779274C120.972797 32.1821021 120.833607 31.7878313 120.700391 31.4951152 120.566578 31.202399 120.405883 30.9371623 120.217708 30.7005999 119.993691 30.4198313 119.757726 30.2561492 119.506826 30.2095536 119.255927 30.1641527 119.025338 30.2250855 118.813866 30.3929492 118.682442 30.4968933 118.592835 30.6181614 118.54385 30.757351 118.494267 30.8947483 118.476943 31.0661964 118.49128 31.2710977 118.505617 31.4765964 118.59164 31.921047 118.748154 32.6044497 118.957237 33.5082855 118.999053 34.20722 118.877785 34.7000584 118.75592 35.1934942 118.466788 35.6218156 118.009195 35.9844252L118.008 35.98562zM119.617939 43.924799L121.089286 42.2509405 119.372416 39.4743187 117.217666 40.0430243 116.142383 38.3028566 125.451951 36.2610121 126.673593 38.2359501 120.69382 45.6637719 119.618536 43.9236042 119.617939 43.924799zM122.205789 41.0275064C123.531972 39.5012007 124.284671 38.6391815 124.459703 38.4420462 124.635333 38.2449108 124.776314 38.0931763 124.885038 37.9880374 124.369499 38.14933 123.06721 38.499992 120.978173 39.0430104L122.205789 41.0275064zM121.408884 48.8734942L120.668133 47.1590138 128.88808 43.6069929 130.925146 48.3191256 129.497408 48.9362191 128.201093 45.9385667 126.08159 46.8543501 127.286505 49.6441143 125.864741 50.2576235 124.659228 47.469054 121.409481 48.8728968 121.408884 48.8734942zM124.443574 58.7720793L122.962072 53.8317475 131.539252 51.2588322 133.022547 56.1991641 131.532084 56.6460042 130.595392 53.5246942 128.712451 54.0898156 129.583431 56.993082 128.093565 57.4411169 127.22139 54.5366558 125.00989 55.1997475 125.946582 58.3216549 124.444769 58.7726767 124.443574 58.7720793zM43.1969188 129.421812C43.3958463 128.637452 43.8349205 128.091447 44.5135441 127.783796 45.1927651 127.476146 46.0344734 127.449264 47.0404611 127.706137 47.9664 127.940907 48.7412017 128.32323 49.364269 128.853106L48.9305712 130.561613C48.4108507 130.152408 47.9628157 129.842368 47.5834795 129.63209 47.2047406 129.423007 46.84691 129.273662 46.5105852 129.188834 46.1067563 129.086085 45.7776 129.08489 45.5225188 129.184055 45.2674376 129.283817 45.1013659 129.485732 45.0243039 129.790396 44.9806952 129.960649 44.9896559 130.124928 45.051186 130.280247 45.1127162 130.437955 45.2202445 130.60104 45.3725764 130.770099 45.5255057 130.939754 45.8504803 131.231276 46.3486952 131.644065 46.8146515 132.028181 47.1521712 132.368687 47.3582672 132.665585 47.5661555 132.962483 47.7095266 133.283873 47.7907703 133.628561 47.8714166 133.973847 47.8600664 134.350196 47.7561223 134.757609 47.5613764 135.525243 47.1467948 136.062885 46.5153642 136.370535 45.8839336 136.676991 45.1085345 136.713431 44.1903616 136.480453 43.7393397 136.365756 43.3223686 136.202671 42.9400454 135.991796 42.5577223 135.780921 42.1676332 135.521658 41.7691808 135.214008L42.7267808 133.933823C43.1413624 134.241473 43.4914271 134.471465 43.7745852 134.623796 44.0583406 134.776128 44.3462777 134.889033 44.6389939 134.964303 44.986669 135.052118 45.2746061 135.038975 45.5022079 134.924278 45.7292122 134.809582 45.8761677 134.621407 45.9424769 134.360352 45.9842934 134.197865 45.9819039 134.047325 45.9376978 133.906343 45.8928943 133.767154 45.8032873 133.619601 45.6676821 133.465477 45.5320769 133.311353 45.1945572 133.009676 44.6557205 132.560446 43.9430463 131.966651 43.4848559 131.436177 43.2841362 130.970221 43.0822218 130.504265 43.0535476 129.988128 43.1975162 129.423007L43.1969188 129.421812zM37.4124891 124.191154L42.2273712 126.040642 39.0152594 134.400974 34.2003773 132.550888 34.7589275 131.099255 37.800786 132.267133 38.5056943 130.431982 35.6753083 129.34475 36.2332611 127.893117 39.0636472 128.980348 39.8922131 126.823807 36.8497572 125.655929 37.4124891 124.192348 37.4124891 124.191154zM28.8663721 127.811276C29.4995948 128.144614 30.1137013 128.164925 30.7104838 127.872806 31.3078638 127.58009 31.8299738 127.009592 32.2774114 126.160715 33.2081293 124.394263 33.0103965 123.161868 31.6848105 122.462933 31.1292472 122.170217 30.3813275 121.953966 29.443441 121.815374L30.1859843 120.405557C30.9793048 120.477243 31.776807 120.725155 32.5784908 121.1481 33.7314341 121.754441 34.4285764 122.56867 34.6705153 123.589592 34.9130515 124.609917 34.6896314 125.77421 34.000255 127.082472 33.5665572 127.906857 33.0360838 128.548443 32.4100297 129.010217 31.7827808 129.472589 31.1017677 129.721099 30.3669904 129.75515 29.630421 129.789798 28.8854882 129.608195 28.1298026 129.21034 27.3603773 128.804121 26.685338 128.21152 26.1046847 127.430147L27.3651563 126.350085C27.587979 126.646982 27.8215546 126.926556 28.065883 127.189403 28.3108087 127.452251 28.5772402 127.659541 28.8663721 127.811873L28.8663721 127.811276zM17.7192629 121.598525L21.0825118 116.879223C21.4660297 116.341582 21.9230253 115.955077 22.4534987 115.720306 22.9833747 115.487328 23.5526777 115.424603 24.1632 115.532729 24.7725275 115.641452 25.3878288 115.916844 26.0102987 116.3601 26.9481852 117.029166 27.5055406 117.787838 27.6817677 118.63791 27.8585921 119.487982 27.6489118 120.330885 27.0545188 121.164827L23.7062044 125.865012 22.1649642 124.765833 25.3460122 120.301613C25.7462568 119.740076 25.9272629 119.24664 25.8878358 118.8225 25.8490061 118.398361 25.5682376 118.001103 25.0455301 117.628935 24.5407441 117.268118 24.0801642 117.139084 23.6637904 117.240638 23.2468192 117.343388 22.837614 117.676726 22.4343825 118.242444L19.2605031 122.697106 17.7192629 121.597927 17.7192629 121.598525zM16.7437415 114.401292L16.3076541 113.971178C15.8811249 113.548233 15.4952175 113.308086 15.151724 113.248348 14.8076332 113.190402 14.485048 113.31406 14.1839686 113.618724 13.8852786 113.920401 13.7765555 114.238207 13.8577991 114.570947 13.9390428 114.904285 14.1971109 115.286011 14.6331983 115.716722L15.0424035 116.121746 16.7437415 114.401292 16.7437415 114.401292zM17.8291808 113.303307L20.2449852 110.860023 21.5950638 112.195168 15.2986795 118.563237 13.4432175 116.728086C12.5770166 115.873833 12.0931389 115.082305 11.9897921 114.356488 11.885848 113.631269 12.1510847 112.946671 12.7860996 112.305683 13.1564751 111.931126 13.5889782 111.69994 14.0836087 111.612722 14.5782393 111.52431 15.0961677 111.584048 15.6367965 111.791936 16.0949869 109.412572 16.3847162 107.870137 16.5077764 107.165229L18.0072 108.646731 17.1111301 112.59362 17.8291808 113.303307 17.8291808 113.303307zM13.0184803 101.631699L16.139193 105.738685 9.00946376 111.156921 5.88755633 107.051129 7.12652227 106.109658 9.09787598 108.704079 10.6630114 107.514099 8.82905502 105.100684 10.068021 104.158616 11.9019773 106.573225 13.7419074 105.175356 11.769359 102.581533 13.017883 101.631699 13.0184803 101.631699zM75.30131 7.23748761L72.7624454 9.09533914 73.102952 5.9680553 70.2235808 4.69862298 73.102952 3.42919067 72.7624454.301309444 75.30131 2.15916097 77.8401747.301309444 77.4996681 3.42859329 80.3790393 4.69862298 77.4996681 5.9680553 77.8401747 9.09593652M130.260262 72.3518981L127.721397 74.2097496 128.061904 71.0824658 125.182533 69.8130335 128.061904 68.5436011 127.721397 65.4157199 130.260262 67.2735715 132.799127 65.4157199 132.45862 68.5430038 135.337991 69.8130335 132.45862 71.0824658 132.799127 74.210347M5.40786026 99.8313741L2.86899563 101.689226 3.20950218 98.5619418.330131004 97.2925094 3.20950218 96.0230771 2.86899563 92.8951959 5.40786026 94.7530474 7.94672489 92.8951959 7.60621834 96.0224797 10.4855895 97.2925094 7.60621834 98.5619418 7.94672489 101.689823M56.1851528 137.382675L53.6462882 139.241722 53.9867948 136.11384 51.1074236 134.844408 53.9867948 133.575573 53.6462882 130.447692 56.1851528 132.305544 58.7240175 130.447692 58.3835109 133.575573 61.2628821 134.845006 58.3835109 136.115035 58.7240175 139.242916"/>
      </g>
      <circle cx="75.175" cy="75.175" r="56.671" fill="#F1F1F1" stroke="#DADADA" stroke-width="2.386"/>
      <g transform="translate(36.4 32.821)">
        <path fill="#FBCFCE" d="M76.9133076,11.37335 C61.1062177,11.37335 39.0158669,0 39.0158669,0 C39.0158669,0 16.9255161,11.37335 1.11842617,11.37335 C-3.06850258,28.5565003 3.4413113,70.8085527 39.0158669,85.9014348 C74.5932902,70.8085527 81.1002364,28.5565003 76.9133076,11.37335 Z"/>
        <path fill="#F69A98" d="M39.0158669,79.42733 C10.8659404,65.9408047 4.47944021,33.0577355 6.12266636,16.8882221 C18.8870635,15.4622583 33.1656377,9.23440424 39.0158669,6.4741048 C44.8632284,9.23440424 59.1418025,15.4622583 71.9033319,16.8882221 C73.5580291,33.0577355 67.1686611,65.935078 39.0158669,79.42733 Z"/>
        <path fill="#FFEBEB" d="M39.0158669,9.8328509 C33.1054147,12.5731067 20.6421323,17.8503182 9.01336785,19.4853088 C7.96663567,34.8187149 14.1896736,63.621466 39.0158669,76.0685839 C63.8391924,63.621466 70.0650981,34.8215783 69.0183659,19.4853088 C57.3896015,17.8503182 44.9263191,12.5759701 39.0158669,9.8328509 Z"/>
        <path fill="#F69A98" d="M51.9525872,32.7390736 C52.7798026,33.5407501 52.6466439,34.9610739 51.6539856,35.9230858 L37.3194517,49.8150673 C37.2643805,49.8684383 37.2073188,49.9179271 37.1495291,49.9661542 C37.1087622,50.0134263 37.0666984,50.060017 37.0208496,50.1044506 C36.1936343,50.9061272 34.8612228,50.9061272 34.0340075,50.1044506 L28.0611476,44.3159917 C27.2339323,43.5143151 27.2339323,42.223039 28.0611476,41.4213624 C28.8883629,40.6196862 30.2207749,40.6196862 31.0479897,41.4213624 L35.5278409,45.7621072 L48.667143,33.0284569 C49.2255133,32.4873252 49.933485,32.2097119 50.5932069,32.2130681 C51.1063244,32.2156885 51.5906806,32.3883401 51.9525872,32.7390736 Z"/>
      </g>
    </g>
  </g>
</svg>
