<svg xmlns="http://www.w3.org/2000/svg" width="200" height="170" viewBox="0 0 200 170">
  <g fill="none" fill-rule="evenodd" transform="translate(57 38)">
    <rect width="82" height="40" fill="#F1F1F1"/>
    <g fill="#FEBBBA" transform="translate(8 17)">
      <rect width="14" height="2" rx="1"/>
      <rect width="14" height="2" y="5" rx="1"/>
    </g>
    <g fill="#FEBBBA" transform="translate(60 16)">
      <rect width="14" height="2" rx="1"/>
      <rect width="14" height="2" y="6" rx="1"/>
    </g>
    <circle cx="41" cy="20" r="11" fill="#FEBBBA"/>
    <path fill="#FFF" d="M42.8061322,14.5 L37.2105581,14.5 L36.5,15.8303454 L39.9604187,15.8303455 C40.8307174,15.8303455 40.8469814,16.4553411 41.1530188,17.1415548 L36.9283955,17.1415548 L36.5,18.4942618 L41.1530189,18.4942618 C40.8469815,19.1804756 40.1122644,19.8066202 39.2551892,19.8066202 L37.2105581,19.8066202 C38.9247086,22.0940879 40.46036,24.2127978 42.2555198,26.5 L44.2450847,26.5 L40.0527906,21.0834681 C41.7358903,21.0834681 42.4387738,19.9809698 42.8061323,18.4942618 L45.0266976,18.4849442 L45.5,17.1576448 L42.8061322,17.1415548 C42.7453795,16.741175 42.4796738,16.1734524 42.2358316,15.8303455 L45.0266976,15.8303454 L45.5,14.5 L42.8061322,14.5 Z"/>
    <g transform="translate(43.45 35.2)">
      <rect width="17.435" height="18.7" x="21.615" y="4.95" fill="#FFF"/>
      <path fill="#F69A98" d="M41.098388,7.20238011 C39.835442,8.46765356 38.2326381,9.13563715 36.5448698,9.50497581 C35.4662534,9.7473543 34.3746762,9.9305809 33.2672583,10.0301292 C32.9835635,10.0589838 32.6998686,10.0863956 32.4161738,10.1152502 C32.2174434,10.1152502 32.018713,10.1296775 31.8199826,10.1296775 C30.9400965,10.1441048 30.0328491,10.0301292 29.1673638,9.91615361 C28.0743466,9.77476615 26.9971702,9.51796037 25.9617561,9.14862171 C25.3655649,8.9350978 24.7693737,8.66530745 24.2163847,8.35223523 C23.2947365,7.85449368 22.4854142,7.22979196 21.946826,6.29201802 C21.4932023,5.49563154 21.4932023,4.70068779 21.9756275,3.9187286 C22.6711839,2.76743075 23.7353996,2.07059258 24.9119411,1.53101188 C27.2103014,0.47926234 29.649789,0.109923682 32.1612804,0.151762826 C34.4740414,0.180617409 36.7436002,0.521101485 38.84323,1.55842373 C39.6655131,1.95661697 40.4892362,2.49619767 41.1559911,3.12234211 C42.5744653,4.50159117 42.4318978,5.85198564 41.098388,7.20238011 Z"/>
      <path fill="#F69A98" d="M42.1352423,9.02598973 C42.1352423,9.91903907 42.2187667,10.7774629 42.1150812,11.6113603 C41.9091505,13.2488579 40.0053709,14.1361363 38.670421,14.7161134 C34.6626913,16.460373 29.5849856,16.25262 25.5340537,14.8113336 C23.6547554,14.1419072 21.546485,13.2935825 21.5551255,10.9390486 C21.5565656,10.3201178 21.5551255,9.70118697 21.5551255,8.98415059 C21.9338653,9.32174921 22.2190002,9.6088523 22.5358168,9.85555899 C24.4626376,11.3617682 26.7278761,11.9922408 29.0924799,12.3240685 C31.140267,12.6111716 33.1938145,12.5779889 35.2344012,12.2375048 C37.3772333,11.879708 39.4192602,11.2449071 41.1689517,9.88874176 C41.5016091,9.63049324 41.7982647,9.33040558 42.1352423,9.02598973 Z"/>
      <path fill="#F69A98" d="M42.1611636,14.8445163 C42.1611636,15.7375657 42.244688,16.5959895 42.1410026,17.4298869 C41.9350718,19.0673845 40.0312922,19.9546629 38.6963424,20.53464 C34.6886127,22.2788996 29.610907,22.0711466 25.559975,20.6298602 C23.6806767,19.9604338 21.5724064,19.1121091 21.5810469,16.7575752 C21.5824869,16.1386444 21.5810469,15.5197136 21.5810469,14.8026772 C21.9597867,15.1402758 22.2449216,15.4273789 22.5617382,15.6740856 C24.488559,17.1802948 26.7537975,17.8107674 29.1184012,18.1425951 C31.1661884,18.4296982 33.2197358,18.3965155 35.2603226,18.0560314 C37.4031547,17.6982346 39.4451815,17.0634337 41.1948731,15.7072684 C41.5260904,15.4490198 41.8227459,15.1489322 42.1611636,14.8445163 Z"/>
      <path fill="#F69A98" d="M42.1611636 20.5591664C42.1611636 21.4522158 42.244688 22.3106396 42.1410026 23.144537 41.9350718 24.7820346 40.0312922 25.669313 38.6963424 26.2492901 34.6886127 27.9935497 29.610907 27.7857967 25.559975 26.3445103 23.6806767 25.6750839 21.5724064 24.8267592 21.5810469 22.4722253 21.5824869 21.8532945 21.5810469 21.2343637 21.5810469 20.5173273 21.9597867 20.8549259 22.2449216 21.142029 22.5617382 21.3887357 24.488559 22.8949449 26.7537975 23.5254175 29.1184012 23.8572452 31.1661884 24.1443483 33.2197358 24.1111656 35.2603226 23.7706815 37.4031547 23.4128847 39.4451815 22.7780838 41.1948731 21.4219185 41.5260904 21.1651127 41.8227459 20.8635823 42.1611636 20.5591664zM20.7111636 23.6918391C20.7111636 24.5848885 20.794688 25.4433123 20.6910026 26.2772098 20.4850718 27.9147073 18.5812922 28.8019857 17.2463424 29.3819629 13.2386127 31.1262224 8.16090699 30.9184694 4.10997504 29.477183 2.23067671 28.8077567.122406405 27.9594319.131046857 25.604898.132486932 24.9859672.131046857 24.3670364.131046857 23.65.509786673 23.9875986.794921592 24.2747017 1.11173817 24.5214084 3.03855898 26.0276176 5.3037975 26.6580902 7.66840122 26.9899179 9.71618837 27.277021 11.7697358 27.2438383 13.8103226 26.9033542 15.9531547 26.5455574 17.9951815 25.9107566 19.7448731 24.5545912 20.0760904 24.2977854 20.3727459 23.996255 20.7111636 23.6918391z"/>
      <path fill="#F69A98" d="M19.4882628,23.0037754 C18.2253167,24.2690489 16.6225128,24.9370325 14.9347445,25.3063711 C13.8561281,25.5487496 12.764551,25.7319762 11.657133,25.8315245 C11.3734382,25.8603791 11.0897433,25.887791 10.8060485,25.9166455 C10.6073181,25.9166455 10.4085877,25.9310728 10.2098573,25.9310728 C9.32997125,25.9455001 8.42272378,25.8315245 7.5572385,25.7175489 C6.46422131,25.5761615 5.38704495,25.3193557 4.35163078,24.950017 C3.75543958,24.7364931 3.15924839,24.4667028 2.60625945,24.1536305 C1.68461123,23.655889 0.875288887,23.0311873 0.336700707,22.0934133 C-0.116923028,21.2970269 -0.116923028,20.5020831 0.365502214,19.7201239 C1.06105861,18.5688261 2.12527429,17.8719879 3.30181585,17.3324072 C5.6001761,16.2806577 8.03966374,15.911319 10.5511551,15.9531581 C12.8639162,15.9820127 15.1334749,16.3224968 17.2331048,17.359819 C18.0553878,17.7580123 18.8791109,18.297593 19.5458658,18.9237374 C20.96434,20.3029865 20.8217725,21.6533809 19.4882628,23.0037754 Z"/>
    </g>
  </g>
</svg>
