<?xml version="1.0" encoding="UTF-8"?>
<svg width="163px" height="491px" viewBox="0 0 163 491" version="1.1" xmlns="http://www.w3.org/2000/svg" xmlns:xlink="http://www.w3.org/1999/xlink">
    <!-- Generator: Sketch 41.1 (35376) - http://www.bohemiancoding.com/sketch -->
    <title>Coupons</title>
    <desc>Created with Sketch.</desc>
    <defs></defs>
    <g id="Page-1" stroke="none" stroke-width="1" fill="none" fill-rule="evenodd">
        <g id="Coupon" transform="translate(3.000000, 10.000000)">
            <g id="Student" transform="translate(0.000000, 221.000000)">
                <g id="Boy">
                    <path d="M58.1933892,173.483057 C57.1133378,187.184553 58.5729486,231.789268 52.4029595,224.944065 C47.7754676,219.812683 47.3438514,192.270569 46.5544081,185.022114 C44.0314243,161.846715 61.3223541,133.808098 58.1933892,173.483057" id="Fill-337" fill="#EDC7B8"></path>
                    <path d="M49.4003459,216.632033 C50.5824892,220.64439 48.2985622,228.805203 49.4190459,231.557398 C50.5390243,234.304553 58.1418378,234.954797 61.4638676,238.538699 C64.5564432,241.870569 75.7168054,241.588293 76.5613378,237.510407 C76.9166378,235.786504 73.8094054,233.89626 70.0512108,232.242927 C68.8564324,231.718699 65.8922297,228.916098 62.5039919,226.446179 C59.2426108,224.072033 56.0519865,219.832846 56.3077216,217.841789 C56.9399838,212.937236 48.0119973,211.919024 49.4003459,216.632033" id="Fill-338" fill="#EDC7B8"></path>
                    <path d="M49.2623703,226.345366 C49.0652622,228.533008 48.9758054,230.468618 49.4190459,231.557398 C50.5390243,234.304553 58.1418378,234.954797 61.4638676,238.538699 C64.5564432,241.870569 75.7168054,241.588293 76.5613378,237.510407 C76.9166378,235.786504 73.8094054,233.89626 70.0512108,232.242927 C68.8564324,231.718699 65.8922297,228.916098 62.5039919,226.446179 C62.441827,226.405854 62.3801676,226.355447 62.3180027,226.310081 C61.6159946,226.284878 60.9655378,226.420976 60.3615784,226.743577 C58.7847135,227.585366 59.1000865,228.633821 57.312973,228.946341 C55.5258595,229.258862 51.2162676,229.158049 50.2701486,226.743577 C49.9234405,226.622602 49.5883568,226.486504 49.2623703,226.345366" id="Fill-339" fill="#58BEC7"></path>
                    <path d="M29.6576946,174.774472 C29.3943784,189.760325 29.5308378,233.750081 35.7816919,226.748618 C40.4698324,221.49626 42.0573108,181.695285 41.7823703,172.604472 C41.0621676,148.776813 30.3728432,134.051561 29.6576946,174.774472" id="Fill-340" fill="#EDC7B8"></path>
                    <path d="M37.4748,223.794797 C36.7758243,227.766829 38.0651135,232.071545 38.7822838,237.712033 C39.4989486,243.35252 34.7304486,245.353659 32.0240027,245.298211 C29.3175568,245.247805 24.4409,241.432033 26.2128514,236.492195 C27.9853081,231.557398 31.6343351,226.022764 31.3619216,223.341138 C30.8423649,218.229919 38.4608459,218.189593 37.4748,223.794797" id="Fill-341" fill="#EDC7B8"></path>
                    <path d="M29.8022405,229.213496 C29.2190027,230.266992 28.7221892,231.34065 28.6216135,232.051382 C28.3188757,234.198699 29.7820243,231.244878 33.2167595,231.315447 C36.0591595,231.375935 37.0573351,234.354959 37.3701811,233.059512 C37.6835324,231.764065 37.1670081,230.513984 37.0007297,228.966504 C36.8349568,227.424065 37.5445459,229.238699 37.7588378,230.760976 C37.9731297,232.288293 39.3498541,238.150569 38.7378081,240.25252 C38.1257622,242.359512 35.9838541,245.837561 31.9446541,245.318374 C27.9054541,244.804228 25.3349622,241.109431 25.8241946,238.085041 C26.3139324,235.065691 28.7312865,230.367805 29.2518541,229.48065 C29.7719162,228.593496 30.6937757,227.600488 29.8022405,229.213496" id="Fill-342" fill="#58BEC7"></path>
                    <path d="M44.3311297,129.831528 C27.4586757,129.831528 23.3846027,113.067333 28.3815459,100.088667 C31.6060324,91.7121138 24.3842946,74.3259024 20.5154162,62.5670732 C14.5455676,44.4217398 73.9387892,45.6587154 68.5739108,61.9637073 C64.7055378,73.7225366 57.3301568,91.7126179 60.5551486,100.088667 C65.9746108,114.166699 62.9795784,129.831528 44.3311297,129.831528" id="Fill-343" fill="#EDC7B8"></path>
                    <path d="M25.3627595,119.629756 C25.2166973,154.77922 31.0323973,171.510146 36.9754595,171.510146 C42.919027,171.510146 43.7625486,138.598732 42.9518784,126.435642 C40.4769081,89.2890732 25.485573,90.1333821 25.3627595,119.629756" id="Fill-344" fill="#EDC7B8"></path>
                    <path d="M63.5769676,120.481626 C63.5729243,154.645138 58.0498541,171.510146 52.1067919,171.510146 C46.1632243,171.510146 45.3202081,138.598732 46.130373,126.435642 C48.6053432,89.2895772 63.5810108,90.985252 63.5769676,120.481626" id="Fill-345" fill="#EDC7B8"></path>
                    <path d="M15.3855514,71.7274472 C13.0713,84.7867642 12.0751459,96.1226829 16.009727,97.0063089 C19.9443081,97.890439 23.8056054,86.5499837 27.3141297,76.3189756 C37.6683703,46.1239675 20.2177324,44.4534959 15.3855514,71.7274472" id="Fill-346" fill="#EDC7B8"></path>
                    <path d="M72.9704324,71.7274472 C75.2841784,84.7867642 76.2808378,96.1226829 72.3462568,97.0063089 C68.4111703,97.890439 64.549873,86.5499837 61.0413486,76.3189756 C50.6871081,46.1239675 68.1377459,44.4534959 72.9704324,71.7274472" id="Fill-347" fill="#EDC7B8"></path>
                    <path d="M76.0286405,106.313366 C75.6546405,115.322016 75.1436757,126.001642 72.3796135,125.589821 C69.9794432,125.232439 68.8190324,113.821919 68.1791892,106.792732 C65.5091324,77.4909268 76.9403919,84.3315935 76.0286405,106.313366" id="Fill-348" fill="#EDC7B8"></path>
                    <path d="M39.2356324,32.8821789 L49.3872054,32.8821789 L49.3872054,52.5044228 C49.3872054,55.288374 47.1032784,57.566748 44.3119243,57.566748 L44.3109135,57.566748 C41.5195595,57.566748 39.2356324,55.288374 39.2356324,52.5044228 L39.2356324,32.8821789" id="Fill-349" fill="#D1A196"></path>
                    <path d="M23.690373,71.8060813 C22.5663514,68.5372195 21.4443514,65.3898374 20.5154162,62.5670732 C18.0389297,55.0398699 26.8102405,50.848065 37.5410081,49.6836748 C39.8077514,49.4376911 41.9572405,52.3673171 44.3114189,52.3884878 C46.5013405,52.4081463 48.8964568,49.5022114 51.0156216,49.7486992 C61.8297811,51.0053333 70.8057811,55.1810081 68.5739108,61.9637073 C67.5858432,64.967935 66.368827,68.378439 65.1578757,71.9315935 C60.1467811,75.7256911 52.7527,78.1250407 44.5054946,78.1250407 C36.1678216,78.1250407 28.7039946,75.6722602 23.690373,71.8060813" id="Fill-350" fill="#BF3D38"></path>
                    <path d="M25.7084568,111.807675 C25.5543081,119.357057 25.3748892,134.614098 25.8722081,147.841772 C26.3690216,161.069447 26.9997676,171.936585 27.3004838,183.343577 C27.3773054,186.267154 27.0356514,221.87935 27.0599108,228.386829 C31.4271189,229.279024 36.7834054,229.258862 39.7602432,228.659024 C40.7129324,225.150732 40.4981351,207.206016 41.0015189,199.377886 C41.5049027,191.544715 42.0269865,172.968911 42.1760811,165.537984 C42.227127,162.996992 43.0474,130.287203 44.2623946,130.165724 C44.4049189,130.15161 44.5206568,129.916715 44.6131459,129.506407 C44.7056351,129.916715 44.821373,130.15161 44.9638973,130.165724 C46.1788919,130.287203 45.5719,163.708732 45.6229459,166.249724 C45.7715351,173.68065 46.5074054,194.21626 46.4750595,200.446504 C46.4432189,206.671707 48.6750892,227.550081 48.6750892,227.550081 C53.0655459,226.446179 57.761773,224.475285 61.4391027,224.853333 C60.665327,217.005041 60.2736378,190.975122 60.2736378,185.269106 C60.2736378,173.558667 62.0577189,160.350146 62.7501243,146.48987 C63.4420243,132.629593 63.6719838,119.357057 63.5173297,111.807675 C58.3894865,105.874829 30.8368054,105.874829 25.7084568,111.807675" id="Fill-351" fill="#354C6D"></path>
                    <path d="M45.3793405,130.532683 C48.6826703,145.966146 48.0094703,172.237512 48.7701054,184.724715 C49.5307405,197.210407 50.2913757,220.357073 51.4866595,224.888618" id="Stroke-352" stroke="#24253B" stroke-width="0.970138877"></path>
                    <path d="M25.7367595,110.104439 L24.9842108,116.355854 C30.1110432,117.291902 37.1629649,118.834846 43.6392297,116.672911 L45.0796351,112.132293 L25.7367595,110.104439" id="Fill-353" fill="#D84B44"></path>
                    <path d="M63.1903324,110.104439 L63.9428811,116.355854 C58.8165541,117.291902 51.7646324,118.834846 45.2878622,116.672911 L43.8479622,112.132293 L63.1903324,110.104439" id="Fill-354" fill="#D84B44"></path>
                    <path d="M23.9754216,115.037724 C24.0957081,91.9404553 29.6253486,89.8354797 19.4409243,58.7266016 C20.2753486,56.5923902 20.5356324,53.0074797 30.9707378,50.7175122 C38.3198378,58.3772846 50.0118865,59.1958862 57.8391,50.7684228 C63.7427405,52.2589431 67.8294486,53.6536911 69.4512946,59.0325691 C59.4781297,91.8048618 65.166973,91.6934634 64.7373784,115.076537 C53.1357973,112.308715 35.495127,112.520927 23.9754216,115.037724" id="Fill-355" fill="#434950"></path>
                    <polyline id="Fill-356" fill="#FFFFFF" points="2.2904973 109.046407 33.7251973 109.046407 33.7251973 130.707593 31.8405405 132.298423 2.88232703 130.208569 2.2904973 109.046407"></polyline>
                    <polyline id="Fill-357" fill="#D8D7D0" points="2.88990811 109.964813 0.814713514 111.405935 1.17506757 131.172341 31.1557162 131.388081 33.0863649 129.802797 33.0863649 109.964813 2.88990811 109.964813"></polyline>
                    <polygon id="Fill-358" fill="#FFFFFF" points="0.405335135 132.298423 31.8405405 132.298423 31.8405405 110.637236 0.405335135 110.637236"></polygon>
                    <polyline id="Fill-359" fill="#58BEC7" points="6.08558649 110.556081 31.8779405 115.945545 28.1445108 133.718878 26.3235351 134.700797 2.92326486 128.020927 6.08558649 110.556081"></polyline>
                    <polyline id="Fill-360" fill="#FFFFFF" points="6.41915405 111.411984 4.46828919 112.23865 1.35650811 128.518943 25.9187054 133.836325 27.7760703 132.867008 31.1956432 116.589236 6.41915405 111.411984"></polyline>
                    <polyline id="Fill-361" fill="#58BEC7" points="4.26461081 111.538 30.0574703 116.927463 26.3235351 134.700797 0.531181081 129.311333 4.26461081 111.538"></polyline>
                    <path d="M44.4104784,1.16539837 C60.3787622,1.06307317 61.6109405,19.7694309 58.4390162,31.9713333 C56.8323324,38.1521789 49.1006405,43.1696423 44.4104784,43.1696423 C39.5873946,43.1696423 32.1084054,38.4289106 30.1732081,31.7787805 C26.6818676,19.7815285 29.1684622,1.26318699 44.4104784,1.16539837" id="Fill-362" fill="#EDC7B8"></path>
                    <path d="M54.6833486,21.545252 C53.6735486,20.9544878 47.762327,20.7679837 46.4568649,22.5145691 C45.3596297,23.9824065 47.1442162,27.5471545 48.8287324,28.3355122 C50.4637189,29.1006829 53.8165784,28.6571057 54.7293405,27.0067967 C55.6092514,25.4169756 55.8195,22.2101138 54.6833486,21.545252" id="Fill-363" fill="#FADCCE"></path>
                    <path d="M33.6473649,21.6047317 C34.6541324,21.0084228 40.5638378,20.7881463 41.8794081,22.5271707 C42.9852351,23.9889593 41.2208649,27.5637886 39.5403919,28.3617236 C37.9099541,29.1359675 34.5545676,28.7115447 33.6327081,27.0662764 C32.7437,25.4814959 32.5152568,22.2756423 33.6473649,21.6047317" id="Fill-364" fill="#FADCCE"></path>
                    <path d="M38.0979649,25.9941301 C38.7256784,25.9941301 39.2376541,24.7178374 39.2376541,23.1527154 C39.2376541,21.5880976 38.7256784,20.3118049 38.0979649,20.3118049 C37.4707568,20.3118049 36.9582757,21.5880976 36.9582757,23.1527154 C36.9582757,24.7178374 37.4707568,25.9941301 38.0979649,25.9941301" id="Fill-365" fill="#474647"></path>
                    <path d="M49.9835838,25.9941301 C50.6107919,25.9941301 51.1227676,24.7178374 51.1227676,23.1527154 C51.1227676,21.5880976 50.6107919,20.3118049 49.9835838,20.3118049 C49.3558703,20.3118049 48.8438946,21.5880976 48.8438946,23.1527154 C48.8438946,24.7178374 49.3558703,25.9941301 49.9835838,25.9941301" id="Fill-366" fill="#474647"></path>
                    <path d="M51.1005297,33.061122 C47.2857297,33.976 41.5508946,33.9951545 37.5556649,33.1463089 C40.5977,35.1524878 47.7133027,35.2270894 51.1005297,33.061122" id="Fill-367" fill="#BA8A7E"></path>
                    <path d="M42.9458135,30.3941138 C45.7836649,30.9838699 46.9496351,29.2544228 46.9688405,27.8042276 C47.6925811,30.4747642 45.7533405,31.9189106 42.9458135,30.3941138" id="Fill-368" fill="#BA8A7E"></path>
                    <path d="M47.6142432,17.5762439 C48.748373,17.0762114 50.7457351,16.5046016 53.0913216,17.4038537 C54.2653784,17.8544878 54.0500757,18.4664228 52.8219405,18.0173008 C50.9241432,17.3237073 49.7136973,17.747122 47.9164757,18.4901138 C47.220027,18.7774309 46.8424892,17.9159837 47.6142432,17.5762439" id="Fill-369" fill="#654937"></path>
                    <path d="M47.7021838,35.9252195 C45.8018595,36.3813984 42.9448027,36.3909756 40.9540108,35.967561 C42.5708027,37.5740163 46.1258243,37.6682764 47.7021838,35.9252195" id="Fill-370" fill="#BA8A7E"></path>
                    <path d="M40.3182108,17.5762439 C39.1840811,17.0762114 37.1862135,16.5046016 34.8411324,17.4038537 C33.6670757,17.8544878 33.8823784,18.4664228 35.1105135,18.0173008 C37.0083108,17.3237073 38.2187568,17.747122 40.0159784,18.4901138 C40.7119216,18.7774309 41.0899649,17.9159837 40.3182108,17.5762439" id="Fill-371" fill="#654937"></path>
                    <path d="M27.8559243,21.3169106 C28.8788649,21.1092358 30.053427,22.6340325 30.4794838,24.722374 C30.9055405,26.8107154 30.422373,28.6717236 29.3999378,28.8793984 C28.3769973,29.0870732 27.2024351,27.5627805 26.7763784,25.473935 C26.3503216,23.3860976 26.8334892,21.5245854 27.8559243,21.3169106" id="Fill-372" fill="#EDC7B8"></path>
                    <path d="M60.7669135,21.3169106 C59.743973,21.1092358 58.5694108,22.6340325 58.1433541,24.722374 C57.7167919,26.8107154 58.2004649,28.6717236 59.2229,28.8793984 C60.2453351,29.0870732 61.4198973,27.5627805 61.8464595,25.473935 C62.2725162,23.3860976 61.7893486,21.5245854 60.7669135,21.3169106" id="Fill-373" fill="#EDC7B8"></path>
                    <polygon id="Fill-374" fill="#334D6A" points="56.4295243 22.4601301 59.5210892 22.4601301 59.5210892 21.049252 56.4295243 21.049252"></polygon>
                    <polygon id="Fill-375" fill="#334D6A" points="29.0779946 22.4601301 32.1690541 22.4601301 32.1690541 21.049252 29.0779946 21.049252"></polygon>
                    <path d="M28.4770676,22.5659837 C28.7560514,23.916374 29.8376189,26.7789593 29.7658514,23.5660488 C29.6945892,20.3526341 30.1241838,12.284065 33.4886676,8.92749593 C36.8536568,5.57143089 40.7200081,7.49947967 44.228027,7.49947967 C44.2563297,7.49947967 44.2836216,7.49847154 44.3114189,7.49746341 C44.3392162,7.49847154 44.3665081,7.49947967 44.3948108,7.49947967 C47.9028297,7.49947967 51.7691811,5.57143089 55.1341703,8.92749593 C58.4991595,12.284065 58.9282486,20.3526341 58.8569865,23.5660488 C58.7852189,26.7789593 59.8713351,23.9173821 60.1457703,22.5659837 C61.1560757,17.5853171 62.4731622,7.58769106 54.3194568,4.26842276 C46.6100027,-3.14939837 34.0511838,0.476845528 29.9407216,10.1871545 C27.2838054,16.4627642 27.9433595,19.9806341 28.4770676,22.5659837" id="Fill-376" fill="#654937"></path>
                    <path d="M16.8396027,90.2553659 C21.8279541,90.1394309 21.7577027,98.0734146 21.3240649,104.891398 C20.9556243,110.690667 21.0248649,125.627122 18.2481676,125.907886 C14.4556054,126.290472 13.9451459,111.976537 13.5630595,105.437805 C13.1455946,98.301252 12.2550703,90.3627317 16.8396027,90.2553659" id="Fill-377" fill="#EDC7B8"></path>
                    <path d="M74.5932892,114.469138 C74.166727,119.69478 75.8785351,129.03561 74.4032568,132.71478 C73.7942432,134.23252 73.1912946,136.683789 72.0227973,137.654114 C70.3574865,139.034748 68.1463378,139.918878 67.3851973,139.980878 C66.088327,140.086732 65.6132459,139.048862 67.3614432,138.136504 C68.051827,137.776602 68.8721,137.414683 69.8384351,136.353626 C71.3162405,134.730537 71.5209297,131.402699 71.2454838,131.306423 C69.4300676,130.673821 67.995727,136.282553 66.5214595,135.732114 C65.8315811,135.475041 67.1607973,132.068065 67.4493838,130.397593 C67.7758757,128.506846 67.2886649,125.516228 68.5602649,123.759561 C70.9563919,120.44987 68.9645892,115.429886 68.7806216,111.750211 C68.5961486,108.071041 74.9814405,109.709252 74.5932892,114.469138" id="Fill-378" fill="#EDC7B8"></path>
                    <polyline id="Fill-379" fill="#D84B44" points="38.9111622 48.3489106 44.3114189 52.3884878 40.4541649 58.543626 33.3183459 50.0798699 38.9111622 48.3489106"></polyline>
                    <polyline id="Fill-380" fill="#D84B44" points="49.7116757 48.3489106 44.3114189 52.3884878 48.1691784 58.543626 55.3049973 50.0798699 49.7116757 48.3489106"></polyline>
                    <path d="M22.2706892,54.2091707 C15.8914622,60.1289106 12.7842297,87.4079024 12.2303054,93.2530407 C11.6763811,99.0981789 12.4173054,120.551187 12.6770838,123.578098 C15.9010649,124.294878 19.6304514,124.467268 22.9681486,122.974732 C22.9681486,122.974732 22.0200081,97.2356585 22.1423162,93.8468293 C22.2646243,90.4574959 27.7882,76.9646829 31.6368622,67.9787154 C35.4860297,58.993252 28.3881162,53.4066992 22.2706892,54.2091707" id="Fill-381" fill="#434950"></path>
                    <path d="M76.0109514,123.146618 L66.8348108,123.146618 C66.8348108,123.987902 66.6518541,124.481382 66.6518541,125.322667 C69.0671865,126.400358 73.0487703,126.65239 76.1939081,125.757675 C76.1939081,124.91639 76.0109514,123.987902 76.0109514,123.146618" id="Fill-382" fill="#D84B44"></path>
                    <path d="M66.5265135,54.7187805 C73.3408946,61.6642927 76.4749135,87.2244228 76.5668973,93.7626504 C76.6588811,100.300878 76.4521703,124.549431 76.4521703,124.549431 C73.1372162,125.52278 69.7707108,125.134146 66.3026189,124.210699 C66.3026189,124.210699 66.7771946,97.7452683 66.6548865,94.356439 C66.5325784,90.9676098 61.0095081,76.9001626 57.1603405,67.9141951 C53.311173,58.9287317 60.4095919,53.9163089 66.5265135,54.7187805" id="Fill-383" fill="#434950"></path>
                    <path d="M27.2277054,223.97122 C31.6853811,224.742439 36.0975703,224.974309 40.4374865,224.555935 C40.7169757,224.530732 40.9383432,224.797886 40.9262135,225.065041 C40.8600054,226.562114 40.7932919,228.059187 40.7265784,229.561301 C40.7144486,229.828455 40.4733703,229.989756 40.1943865,230.02 C35.7604649,230.524065 31.3538351,230.393008 26.9846054,229.440325 C26.7106757,229.379837 26.4842541,229.198374 26.4958784,228.93122 C26.5625919,227.434146 26.6293054,225.932033 26.6955135,224.434959 C26.7076432,224.167805 26.9512486,223.925854 27.2277054,223.97122" id="Fill-384" fill="#567693"></path>
                    <path d="M61.0939108,220.220976 C56.9809216,221.541626 52.0547351,222.453984 47.8927216,222.58 C47.6248568,222.590081 47.4515027,222.882439 47.4990108,223.144553 C47.7653595,224.621463 48.0317081,226.098374 48.2975514,227.570244 C48.3450595,227.837398 48.5957405,227.968455 48.8641108,227.963415 C53.1267,227.907967 58.060973,227.096423 62.0647946,225.609431 C62.3159811,225.513659 62.5060135,225.306992 62.4585054,225.044878 C62.1921568,223.567967 61.9258081,222.091057 61.6599649,220.614146 C61.6124568,220.352033 61.3486351,220.140325 61.0939108,220.220976" id="Fill-385" fill="#567693"></path>
                    <path d="M15.5528405,119.478033 C18.3527865,118.313642 21.7814568,123.220715 23.9253865,127.564748 C27.7027865,135.217463 22.5163162,128.814829 22.4637541,129.225642 C22.3399297,130.190423 22.2302568,131.536276 22.2358162,133.672504 C22.2398595,135.203854 21.2624054,135.479577 20.8211865,135.00626 C20.5123838,134.676098 20.1848811,134.761285 20.0544865,134.912 C19.3448973,135.732114 18.3957459,135.476553 18.1334405,134.880748 C17.9226865,134.40239 17.5143189,134.437171 17.1292,134.808667 C16.6773676,135.245187 16.0723973,135.541073 15.6084351,135.193268 C15.1626676,134.859577 15.1525595,133.397789 14.5743757,134.239073 C13.8769162,135.253252 13.3144,134.998195 12.9707243,134.552602 C12.0337027,133.339317 13.1263892,120.487675 15.5528405,119.478033" id="Fill-386" fill="#EDC7B8"></path>
                    <path d="M13.2633541,122.340618 L22.4394946,122.340618 C22.4394946,123.181902 22.6219459,123.674878 22.6219459,124.516163 C20.6084108,125.724407 16.6783784,126.142276 13.0803973,124.951675 C13.0803973,124.11039 13.2633541,123.181902 13.2633541,122.340618" id="Fill-387" fill="#D84B44"></path>
                    <path d="M12.8711595,87.5460163 C12.5527541,90.0723902 12.3404838,92.0886504 12.2303054,93.2530407 C11.6763811,99.0981789 12.4173054,120.551187 12.6770838,123.578098 C15.9010649,124.294878 19.6304514,124.467268 22.9681486,122.974732 C22.9681486,122.974732 22.0200081,97.2356585 22.1423162,93.8468293 C22.1837595,92.705626 22.8372486,90.419187 23.8323919,87.5460163 L12.8711595,87.5460163" id="Fill-388" fill="#434950"></path>
                    <path d="M53.6791081,5.14852033 C54.8789405,12.1565366 49.7147081,16.9920325 42.5248108,17.802065 C47.7613162,15.1889919 51.8065811,9.45827642 53.6791081,5.14852033" id="Fill-389" fill="#654937"></path>
                    <path d="M53.3622189,4.46097561 C51.4901973,13.8164228 37.0396459,18.2496748 24.7401,15.5378049 C35.5042243,14.5725203 46.9501405,9.89378862 53.3622189,4.46097561" id="Fill-390" fill="#654937"></path>
                    <path d="M53.6877,5.88747967 C49.0763811,12.2165203 38.7428622,17.8812033 29.6870081,14.1354959 C35.6993108,0.103837398 46.0025054,0.061495935 53.6877,5.88747967" id="Fill-391" fill="#654937"></path>
                    <path d="M53.3167324,4.95546341 C51.8591432,11.7064065 56.2309,19.1388455 59.6818081,21.1702276 C59.7207243,11.3248293 55.6405865,6.88653659 53.3167324,4.95546341" id="Fill-392" fill="#654937"></path>
                    <path d="M29.2862216,239.047805 L35.0013459,237.470081 M29.6779108,237.086992 L35.3930351,235.509268 M29.8740081,235.322764 L35.5891324,233.745041 M35.508773,239.47122 L30.0766757,237.37935 M35.4208324,237.490244 L29.9887351,235.393333 M35.4971486,235.720976 L30.0650514,233.624065" id="Stroke-393" stroke="#308E9A" stroke-width="0.970138877" stroke-linecap="round" stroke-linejoin="round"></path>
                    <path d="M37.5167486,243.438211 C34.5813541,247.430407 29.9442595,246.946504 27.0215,243.27187 C27.2691486,241.653821 29.5722811,240.413821 32.3434189,240.469268 C35.0953514,240.519675 37.3221676,241.825203 37.5167486,243.438211" id="Fill-394" fill="#9E9E9E"></path>
                    <path d="M65.8710027,233.66439 L67.0956,230.09561 M64.0409297,231.895122 L65.265527,228.321301 M62.3154757,230.362764 L63.540073,227.101463 M69.4174324,231.542276 L64.5412811,231.975772 M67.3250541,229.94439 L62.4489027,230.377886 M65.5338973,228.452358 L60.6577459,228.885854" id="Stroke-395" stroke="#308E9A" stroke-width="0.970138877" stroke-linecap="round" stroke-linejoin="round"></path>
                    <path d="M69.1480514,240.822114 C73.0937514,241.285854 76.8494189,240.615447 76.5613378,237.510407 C76.4799676,236.633333 76.0493622,235.746179 74.8444757,234.848943 L74.7070054,234.848943 C71.6811432,234.848943 69.2203243,237.510407 69.1480514,240.822114" id="Fill-396" fill="#9E9E9E"></path>
                    <path d="M55.4465108,119.147366 C55.4465108,119.147366 58.926227,124.66839 60.9827216,126.246114" id="Stroke-397" stroke="#24253B" stroke-width="0.970138877"></path>
                    <path d="M54.6833486,21.545252 C55.8195,22.2101138 55.6092514,25.4169756 54.7293405,27.0067967 C53.8165784,28.6571057 50.4637189,29.1006829 48.8287324,28.3355122 C47.1442162,27.5471545 45.3596297,23.9824065 46.4568649,22.5145691 C47.762327,20.7679837 53.6735486,20.9544878 54.6833486,21.545252 Z M33.6473649,21.6047317 C34.6541324,21.0084228 40.5638378,20.7881463 41.8794081,22.5271707 C42.9852351,23.9889593 41.2208649,27.5637886 39.5403919,28.3617236 C37.9099541,29.1359675 34.5545676,28.7115447 33.6327081,27.0662764 C32.7437,25.4814959 32.5152568,22.2756423 33.6473649,21.6047317 Z M44.1410973,21.6667317 C43.3764189,21.6853821 40.2206676,20.8536748 37.9887973,20.677252 C35.7554108,20.5003252 32.4429838,20.7841138 31.8713703,20.9691057 C31.1880622,21.1898862 31.1683514,21.2458374 31.1395432,21.7645203 C31.1102297,22.2832033 31.1971595,22.7282927 31.6014838,22.8613659 C32.1523757,23.0428293 32.1594514,23.7369268 32.5273865,25.7269756 C32.8624703,27.5395935 33.6690973,28.9721463 37.1260703,29.2226667 C40.5178459,29.4686504 41.6484378,27.288065 42.0133405,26.5848943 C42.6643027,25.3317886 42.4580973,23.6078862 44.1714216,23.6028455 C45.8842405,23.5978049 45.7184676,25.2929756 46.3765054,26.5420488 C46.7454514,27.2426992 47.8578486,29.4484878 51.2481081,29.1828455 C54.7035649,28.9126667 55.5026108,27.4755772 55.8270811,25.6614472 C56.1833919,23.668878 56.1864243,22.9752846 56.7368108,22.7907967 C57.1401243,22.6552033 57.224527,22.2096098 57.1926865,21.6909268 C57.1603405,21.1722439 57.1406297,21.1167967 56.4558054,20.8995447 C55.8831811,20.7180813 52.5692378,20.4529431 50.3368622,20.6424715 C48.3405108,20.8118374 45.9398351,21.622374 44.1410973,21.6667317 L44.1410973,21.6667317 Z" id="Fill-398" fill="#334D6A"></path>
                    <path d="M26.0804351,78.4723415 L28.7039946,74.8314797 M31.3275541,78.4723415 L28.7039946,74.8314797 M36.5751784,78.4723415 L33.9511135,74.8314797 M31.3275541,78.4723415 L33.9511135,74.8314797 M36.5751784,78.4723415 L39.1987378,74.8314797 M41.8228027,78.4723415 L39.1987378,74.8314797 M47.0699216,78.4723415 L44.4463622,74.8314797 M41.8228027,78.4723415 L44.4463622,74.8314797 M47.0699216,78.4723415 L49.6934811,74.8314797 M52.3175459,78.4723415 L49.6934811,74.8314797 M57.5646649,78.4723415 L54.9411054,74.8314797 M52.3175459,78.4723415 L54.9411054,74.8314797 M57.5646649,78.4723415 L60.1887297,74.8314797 M62.8122892,78.4723415 L60.1887297,74.8314797 M26.0804351,84.4450081 L28.7039946,80.8041463 M31.3275541,84.4450081 L28.7039946,80.8041463 M36.5751784,84.4450081 L33.9511135,80.8041463 M31.3275541,84.4450081 L33.9511135,80.8041463 M36.5751784,84.4450081 L39.1987378,80.8041463 M41.8228027,84.4450081 L39.1987378,80.8041463 M47.0699216,84.4450081 L44.4463622,80.8041463 M41.8228027,84.4450081 L44.4463622,80.8041463 M47.0699216,84.4450081 L49.6934811,80.8041463 M52.3175459,84.4450081 L49.6934811,80.8041463 M57.5646649,84.4450081 L54.9411054,80.8041463 M52.3175459,84.4450081 L54.9411054,80.8041463 M57.5646649,84.4450081 L60.1887297,80.8041463 M62.8122892,84.4450081 L60.1887297,80.8041463" id="Stroke-399" stroke="#757775" stroke-width="1.2126736" stroke-linecap="round" stroke-linejoin="round"></path>
                    <path d="M53.834773,5.28713821 C50.4733216,11.5566992 38.3213541,15.260065 31.9643649,10.4255772 C37.7072865,11.5642602 49.0799189,8.63765854 53.834773,5.28713821" id="Fill-400" fill="#483327"></path>
                    <path d="M53.7296486,5.05022764 C52.5090946,9.70930081 55.8705459,14.6531707 59.6802919,15.1955447 C57.3488568,13.6153008 54.1829973,7.80796748 53.7296486,5.05022764" id="Fill-401" fill="#483327"></path>
                </g>
                <g id="Girl" transform="translate(88.000000, 4.000000)">
                    <path d="M30.1744958,122.450536 C22.2747395,122.450536 12.2886807,112.439373 11.9908571,107.139345 C11.6930336,101.838811 14.2263277,96.8329767 17.2071261,89.1773814 C20.188437,81.521786 15.762605,70.2989131 12.1856471,59.5520148 C6.66694118,42.9678453 53.167395,44.8297161 48.2084538,59.7317712 C46.7172857,64.2135275 44.3428992,67.0040551 43.1459664,71.3212458 C41.4728235,77.3570085 41.4036218,84.7143602 43.1408403,89.1773814 C46.1216387,96.8329767 48.6554454,101.838811 48.3576218,107.139345 C48.0592857,112.439373 38.0737395,122.450536 30.1744958,122.450536" id="Fill-599" fill="#D84B44"></path>
                    <path d="M20.8348319,24.4838284 C18.2292605,25.7704788 47.2247647,35.5573263 40.4968235,40.4370784 C35.2323697,44.2555085 26.5683193,43.6448432 21.6426975,41.5976462 C16.7175882,39.5504492 9.37042017,34.5648686 11.3803445,29.6876483 C13.3897563,24.8099216 13.4697227,24.31825 14.7973697,16.5993602 C16.1255294,8.88047034 25.1765966,16.7634195 20.8348319,24.4838284" id="Fill-600" fill="#B0934B"></path>
                    <path d="M16.9313445,167.888892 C18.0272941,182.845127 17.3721849,228.022203 21.9912689,222.8675 C26.8702437,217.424174 28.4321513,187.199788 28.6612857,179.25 C29.3912353,153.945369 13.7583193,124.573686 16.9313445,167.888892" id="Fill-601" fill="#EDC7B8"></path>
                    <path d="M43.6021849,167.888892 C42.5062353,182.845127 43.1613445,228.022203 38.5427731,222.8675 C33.6632857,217.424174 32.1018908,187.199788 31.8722437,179.25 C31.1422941,153.945369 46.7757227,124.573686 43.6021849,167.888892" id="Fill-602" fill="#EDC7B8"></path>
                    <path d="M18.3445966,50.5591335 C24.9023529,52.1941568 18.6742017,65.6991758 16.0373613,72.0478665 C13.4702353,78.2299661 7.75878992,90.8944343 4.62728571,89.7546271 C1.49578151,88.6148199 4.93382353,75.7397076 6.47881513,68.9550445 C7.96178151,62.4433072 12.0692857,48.9944936 18.3445966,50.5591335" id="Fill-604" fill="#D84B44"></path>
                    <path d="M11.3311345,122.669282 C13.2487899,141.646996 16.2634202,169.251496 22.2916555,169.251496 C28.3193782,169.251496 29.9643277,134.401042 29.1415966,120.943621 C26.6308571,79.8497987 8.04994958,90.1987013 11.3311345,122.669282" id="Fill-605" fill="#434950"></path>
                    <path d="M49.2029076,122.669282 C47.2847395,141.646996 44.2701092,169.251496 38.2418739,169.251496 C32.2141513,169.251496 30.5697143,134.401042 31.3919328,120.943621 C33.9031849,79.8497987 52.4840924,90.1987013 49.2029076,122.669282" id="Fill-606" fill="#434950"></path>
                    <path d="M30.1545042,122.450536 C22.2552605,122.450536 12.2692017,112.439373 11.9713782,107.139345 C11.8134958,104.337172 12.4481008,101.617028 13.5209832,98.5444597 L46.7885378,98.5444597 C47.8614202,101.617028 48.4955126,104.337172 48.3381429,107.139345 C48.0398067,112.439373 38.0542605,122.450536 30.1545042,122.450536" id="Fill-607" fill="#434950"></path>
                    <path d="M42.2827395,51.3004386 C35.6316891,52.5096165 39.8299244,65.2287712 42.0418151,71.7339258 C44.1947563,78.0679322 48.6662101,91.4124364 51.8664034,90.477197 C55.0665966,89.5414513 52.8777731,76.1336525 51.7838739,69.2634153 C50.7345714,62.6701547 48.6482689,50.1439216 42.2827395,51.3004386" id="Fill-608" fill="#D84B44"></path>
                    <path d="M10.6073361,104.342235 C11.0984118,99.9506102 13.8721176,94.2480297 15.9871261,88.8158432 C18.1026471,83.3836568 17.5075126,77.7124703 16.0619664,71.7177225 C15.2725546,62.8534555 20.6754118,56.9974492 20.7435882,48.7661271 C26.2397395,47.2531356 33.3926303,47.4065614 38.9682353,49.0709534 C39.6428235,58.1352309 44.3439244,63.7704661 42.4836807,73.4676886 C41.2339496,78.6456843 42.480605,84.7336017 44.1173529,88.9363559 C45.7535882,93.1391102 48.3212269,99.3120953 49.2797983,102.57961 C38.8728908,111.654015 22.8063109,111.094998 10.6073361,104.342235" id="Fill-609" fill="#FFFFFF"></path>
                    <polyline id="Fill-610" fill="#354C6D" points="38.9625966 95.4642966 38.9625966 63.9704767 16.9344202 63.9704767 15.3166387 65.858678 17.4418992 94.8713538 38.9625966 95.4642966"></polyline>
                    <polyline id="Fill-611" fill="#FFFFFF" points="38.0286303 94.8637585 36.5630924 96.9423496 16.4617983 96.5818242 16.2424034 66.5447903 17.8545462 64.6105106 38.0286303 64.6105106 38.0286303 94.8637585"></polyline>
                    <polygon id="Fill-612" fill="#354C6D" points="15.3166387 97.3524979 37.3448151 97.3524979 37.3448151 65.858678 15.3166387 65.858678"></polygon>
                    <path d="M23.6157143,48.1478665 C27.7180924,47.485553 32.3505042,47.6015085 36.4569832,48.4440847 C35.9187479,51.4523453 33.2588403,53.7375297 30.0591597,53.7375297 C26.7549076,53.7375297 24.0268235,51.3014513 23.6157143,48.1478665" id="Fill-613" fill="#D84B44"></path>
                    <path d="M26.1838655,32.7126186 L34.0497899,32.7126186 C34.0661933,32.7126186 34.0800336,32.7262903 34.0800336,32.743 L34.0800336,47.4906165 C34.0800336,49.6355403 32.3033445,51.3900636 30.131437,51.3900636 C27.9605546,51.3900636 26.1838655,49.6355403 26.1838655,47.4906165 L26.1838655,32.7126186" id="Fill-614" fill="#D1A196"></path>
                    <path d="M14.9567899,12.9561292 C14.684084,17.4930784 13.4297395,22.4087818 13.009916,24.8392903 C12.5895798,27.2697987 21.8313361,28.9888771 21.8313361,28.9888771 C21.8313361,28.9888771 23.1784622,11.1185636 14.9567899,12.9561292" id="Fill-615" fill="#C8A757"></path>
                    <path d="M30.3421176,1.99554873 C45.713605,1.99554873 46.728563,19.8005424 43.5939832,31.7419343 C42.0064454,37.7913686 34.9765798,43.1020297 30.3421176,43.1020297 C25.5764286,43.1020297 18.5932101,37.2586822 16.6811933,30.7504894 C13.2308487,19.0091081 15.2812689,1.99554873 30.3421176,1.99554873" id="Fill-616" fill="#EDC7B8"></path>
                    <path d="M37.190521,31.8183941 C33.469521,31.5915466 27.0373529,31.6386377 23.7197731,31.8735869 C25.9706218,37.8192182 35.6260504,37.9989746 37.190521,31.8183941" id="Fill-617" fill="#E67D79"></path>
                    <path d="M24.397437,24.5111716 C25.0033361,24.5111716 25.4969748,23.2913602 25.4969748,21.7955847 C25.4969748,20.2998093 25.0033361,19.0799979 24.397437,19.0799979 C23.7915378,19.0799979 23.2973866,20.2998093 23.2973866,21.7955847 C23.2973866,23.2913602 23.7915378,24.5111716 24.397437,24.5111716" id="Fill-618" fill="#474647"></path>
                    <path d="M35.8669748,24.5111716 C36.4728739,24.5111716 36.9665126,23.2913602 36.9665126,21.7955847 C36.9665126,20.2998093 36.4728739,19.0799979 35.8669748,19.0799979 C35.2610756,19.0799979 34.7669244,20.2998093 34.7669244,21.7955847 C34.7669244,23.2913602 35.2610756,24.5111716 35.8669748,24.5111716" id="Fill-619" fill="#474647"></path>
                    <path d="M14.1007395,20.719072 C15.0967311,20.5190614 16.2413782,21.9900254 16.6565882,24.0048157 C17.0717983,26.0201123 16.6007143,27.8156504 15.6047227,28.0161674 C14.6082185,28.2166843 13.464084,26.7457203 13.0488739,24.7304237 C12.6336639,22.7156335 13.1042353,20.919589 14.1007395,20.719072" id="Fill-620" fill="#EDC7B8"></path>
                    <path d="M46.1631597,20.719072 C45.1671681,20.5190614 44.0230336,21.9900254 43.6073109,24.0048157 C43.1921008,26.0201123 43.6631849,27.8156504 44.6591765,28.0161674 C45.6556807,28.2166843 46.7998151,26.7457203 47.2150252,24.7304237 C47.6307479,22.7156335 47.1596639,20.919589 46.1631597,20.719072" id="Fill-621" fill="#EDC7B8"></path>
                    <path d="M36.9454958,31.8730805 C33.2639664,32.7475572 27.7293697,32.765786 23.8740672,31.9540975 C26.9491849,35.7806292 33.8211681,35.9502585 36.9454958,31.8730805" id="Fill-622" fill="#BA8A7E"></path>
                    <path d="M29.0754706,29.3240847 C31.8143193,29.8876589 32.9394874,28.2349131 32.9574286,26.8485106 C33.6561092,29.4010508 31.7845882,30.7813771 29.0754706,29.3240847" id="Fill-623" fill="#BA8A7E"></path>
                    <path d="M36.5046555,31.9718199 C32.9574286,32.7212267 27.9333866,32.7338856 24.255958,32.0305572 C26.1551597,34.5446144 34.4685882,34.4630911 36.5046555,31.9718199" id="Fill-624" fill="#FFFFFF"></path>
                    <path d="M33.5807563,16.4656822 C34.6751681,15.9876822 36.4482689,15.0975085 38.7893361,16.415553 C39.8437647,17.0095085 39.7514958,17.4120614 38.6063361,16.8874767 C36.658437,15.9952775 35.6065714,16.6292352 33.8724286,17.3391462 C33.2004034,17.6140975 32.8359412,16.7902564 33.5807563,16.4656822" id="Fill-625" fill="#C8A757"></path>
                    <path d="M26.576521,16.4656822 C25.4821092,15.9876822 23.7090084,15.0975085 21.3684538,16.415553 C20.3140252,17.0095085 20.4062941,17.4120614 21.5509412,16.8874767 C23.4988403,15.9952775 24.5507059,16.6292352 26.2848487,17.3391462 C26.9568739,17.6140975 27.3213361,16.7902564 26.576521,16.4656822" id="Fill-626" fill="#C8A757"></path>
                    <path d="M16.3141681,21.2122627 C16.8949496,13.7080678 22.2598739,15.4924661 25.7132941,7.43279873 C27.0163361,4.39111864 38.2972353,6.20437924 40.6613697,8.5396928 C43.8907815,11.7297352 44.302916,19.4000148 44.2342269,22.4543538 C44.1655378,25.5086928 45.8309916,22.6644915 45.9181345,21.3570805 C46.0216807,19.8081377 47.2206639,15.4332225 44.6709664,9.46733686 C41.3108403,1.60717373 29.0964874,-3.74197034 21.3684538,3.40524364 C10.8769664,6.97404025 15.6969916,29.1848369 16.3141681,21.2122627" id="Fill-627" fill="#C8A757"></path>
                    <path d="M3.50365546,87.9008581 C3.14688235,83.7062055 10.5940084,82.3157521 15.5929328,82.6707076 C20.5559748,83.022625 33.5202689,82.5699428 33.9031849,84.8946229 C34.426042,88.0689682 22.0153613,89.3019449 16.5386891,90.4660572 C11.4931176,91.5390254 3.83121008,91.7562521 3.50365546,87.9008581" id="Fill-628" fill="#E2B6A9"></path>
                    <path d="M28.467521,83.186178 C30.3728739,83.3021335 33.2014286,80.8007352 35.5414706,79.848786 C42.1028151,77.1787712 36.333958,81.0260636 36.6512605,81.0858136 C37.3960756,81.2270869 38.4428151,81.3744364 40.1297983,81.4645678 C41.3390336,81.528875 41.4220756,82.319803 40.9873866,82.6504534 C40.684437,82.8813517 40.706479,83.1456695 40.8079748,83.2565614 C41.3574874,83.8581123 41.0248067,84.6024555 40.5183529,84.78525 C40.1118571,84.9320932 40.0831513,85.2581864 40.3230504,85.5817479 C40.6049832,85.9610085 40.7556891,86.4557182 40.4173697,86.809661 C40.0918655,87.1499322 38.9369664,87.0932203 39.5213361,87.5914746 C40.2256555,88.1915064 39.9462857,88.6284915 39.5479916,88.8821758 C38.7144958,89.4128369 31.9096639,87.2952564 29.2712857,87.9833941 C27.2418824,88.512536 26.5314118,83.0676907 28.467521,83.186178" id="Fill-629" fill="#E2B6A9"></path>
                    <path d="M54.9758655,107.083646 C54.2853866,111.423623 54.736479,119.630133 53.2581261,122.61257 C52.6486387,123.842508 51.9843025,125.853754 50.9365378,126.591008 C49.4443445,127.641191 47.5225882,128.242235 46.8761933,128.246286 C45.7751176,128.253881 45.4403866,127.356619 46.9730756,126.703926 C47.5784622,126.445684 48.2935462,126.195038 49.1762521,125.368159 C50.5259412,124.104294 50.9093697,121.33554 50.6833109,121.23832 C49.1916303,120.596261 47.6256218,125.193466 46.4168992,124.641538 C45.8509832,124.383297 47.1883697,121.619606 47.5374538,120.241811 C47.9331849,118.682235 47.7117395,116.151975 48.8958571,114.763547 C51.1277395,112.147712 50.1773697,108.65335 49.3848824,105.505841 C48.6308403,102.509733 55.6048319,103.130019 54.9758655,107.083646" id="Fill-630" fill="#EDC7B8"></path>
                    <path d="M3.50365546,87.9008581 C3.14842017,83.7249407 10.5273697,82.328411 15.5252689,82.6661504 C15.7969496,84.3477585 15.7959244,87.7965487 15.6303529,90.6442945 C10.6232269,91.5501653 3.8122437,91.5309237 3.50365546,87.9008581" id="Fill-631" fill="#D84B44"></path>
                    <path d="M47.2734622,79.9647415 C46.7798235,82.4960148 47.1719664,92.0631038 47.5815378,94.7989449 C48.3084118,99.6609746 49.9851429,112.268731 52.3687563,112.293036 C55.6237983,112.326962 55.5848403,100.026057 55.3352017,94.4981695 C55.1542521,90.4928941 53.838395,82.4960148 53.3478319,80.685286 C51.4691345,73.7527669 47.4072521,79.2771102 47.2734622,79.9647415" id="Fill-632" fill="#EDC7B8"></path>
                    <path d="M47.2729496,79.9647415 C46.9182269,81.7861038 47.0217731,87.250697 47.2606471,91.1916653 C49.1701008,91.2949619 52.2098487,91.171411 55.0081597,90.8286081 C54.5370756,86.8202945 53.7133193,82.0347246 53.3478319,80.685286 C51.4696471,73.7527669 47.4072521,79.2766038 47.2729496,79.9647415" id="Fill-633" fill="#D84B44"></path>
                    <path d="M25.0894538,214.482246 C24.0011933,218.143199 26.2417899,225.814492 25.2104286,228.320953 C24.1790672,230.827415 17.177395,231.424915 14.1191933,234.690911 C11.2706471,237.729047 0.993941176,237.470805 0.216831933,233.749089 C-0.110722689,232.179386 2.75063866,230.457775 6.21123529,228.948835 C7.31128571,228.467797 10.5499244,226.300593 13.6696387,224.052373 C16.672479,221.890233 19.1442605,217.484936 19.0509664,215.677246 C18.7915882,210.659258 26.3673782,210.183284 25.0894538,214.482246" id="Fill-635" fill="#EDC7B8"></path>
                    <path d="M24.9110672,218.502712 C25.827605,221.383877 25.6179496,227.328496 25.2104286,228.320953 C24.1790672,230.827415 17.177395,231.424915 14.1191933,234.690911 C11.2706471,237.729047 1.25639496,237.50625 0.479285714,233.784534 C0.152243697,232.219894 2.58147899,230.457775 6.04207563,228.948835 C6.70333613,228.660212 12.9417395,225.211928 15.904084,221.753517 C16.5863613,220.958538 16.0086555,219.520487 15.6175378,218.831843 C15.0203529,217.778623 20.8025378,216.619068 20.9383782,218.391314 C20.9727227,218.84197 21.2823361,219.58125 21.2510672,220.239513 C25.1448151,220.710424 24.6706555,219.333136 24.9110672,218.502712" id="Fill-636" fill="#D84B44"></path>
                    <path d="M21.5078824,220.280021 C20.7866471,222.416843 15.7518403,228.01714 13.461521,229.733686 C8.26216807,233.632627 4.24078151,230.234979 5.94826891,229.257712" id="Stroke-637" stroke="#B63B37" stroke-width="0.639873643"></path>
                    <path d="M14.0458908,228.08803 L12.5080756,224.827097 M15.5278319,226.467691 L13.9900168,223.211822 M16.9405714,225.070148 L15.4391513,222.097839 M10.5365966,226.148686 L15.0762269,226.543644 M12.2794538,224.690381 L16.8195966,225.085339 M13.7578067,223.333347 L18.3727899,223.318157 M11.956,229.034915 L10.475084,226.113242 M8.67276471,227.541165 L13.7208992,228.163983 M6.42396639,228.690593 L12.1092689,229.237458 M9.81997479,230.589428 L8.63893277,227.556356" id="Stroke-638" stroke="#FFFFFF" stroke-width="0.976205065" stroke-linecap="round" stroke-linejoin="round"></path>
                    <path d="M7.04268067,236.772034 C3.40933613,237.197373 -0.049210084,236.584682 0.216831933,233.749089 C0.291672269,232.949047 0.687915966,232.138877 1.79719328,231.323644 L1.92431933,231.323644 C4.70981513,231.323644 6.97655462,233.749089 7.04268067,236.772034" id="Fill-639" fill="#7870CC"></path>
                    <path d="M25.5764286,222.300381 C26.047,224.933432 25.6768992,228.356398 25.4011176,229.029852 C25.0909916,229.784322 24.0878235,230.447648 22.9236975,230.189407 C24.804958,228.513369 25.4298235,224.052373 25.5764286,222.300381" id="Fill-640" fill="#FFFFFF"></path>
                    <path d="M35.7060168,214.482246 C36.7942773,218.143199 34.5536807,225.814492 35.585042,228.320953 C36.6164034,230.827415 43.617563,231.424915 46.6762773,234.690911 C49.5243109,237.729047 59.8010168,237.470805 60.5786387,233.749089 C60.9056807,232.179386 58.0448319,230.457775 54.5842353,228.948835 C53.4841849,228.467797 50.2455462,226.300593 47.1258319,224.052373 C44.1229916,221.890233 41.6512101,217.484936 41.7445042,215.677246 C42.0038824,210.659258 34.4275798,210.183284 35.7060168,214.482246" id="Fill-642" fill="#EDC7B8"></path>
                    <path d="M35.8844034,218.502712 C34.9678655,221.383877 35.1770084,227.328496 35.585042,228.320953 C36.6158908,230.827415 43.617563,231.424915 46.6762773,234.690911 C49.5243109,237.729047 59.5390756,237.50625 60.3156723,233.784534 C60.6432269,232.219894 58.2139916,230.457775 54.753395,228.948835 C54.0598403,228.645021 47.2355294,224.867606 44.4848908,221.252225 C44.0071429,220.624343 44.8221849,218.740699 44.9923697,218.138136 C45.3327395,216.943136 39.7156134,216.755784 39.3562773,218.284979 C39.2537563,218.720445 39.1092017,219.560996 39.5438908,220.239513 C35.6506555,220.710424 36.1248151,219.333136 35.8844034,218.502712" id="Fill-643" fill="#D84B44"></path>
                    <path d="M39.2875882,220.280021 C40.0088235,222.416843 45.0431176,228.01714 47.333437,229.733686 C52.5333025,233.632627 56.5541765,230.234979 54.8466891,229.257712" id="Stroke-644" stroke="#B63B37" stroke-width="0.639873643"></path>
                    <path d="M46.7495798,228.08803 L48.2868824,224.827097 M45.2676387,226.467691 L46.8054538,223.211822 M43.8548992,225.070148 L45.3563193,222.097839 M50.2588739,226.148686 L45.7192437,226.543644 M48.5155042,224.690381 L43.9758739,225.085339 M47.0371513,223.333347 L42.4226807,223.318157 M48.838958,229.034915 L50.3198739,226.113242 M52.1227059,227.541165 L47.0745714,228.163983 M54.3709916,228.690593 L48.6862017,229.237458 M50.9754958,230.589428 L52.1565378,227.556356" id="Stroke-645" stroke="#FFFFFF" stroke-width="0.976205065" stroke-linecap="round" stroke-linejoin="round"></path>
                    <path d="M53.7522773,236.772034 C57.3861345,237.197373 60.8441681,236.584682 60.5786387,233.749089 C60.5037983,232.949047 60.107042,232.138877 58.9982773,231.323644 L58.8711513,231.323644 C56.0851429,231.323644 53.818916,233.749089 53.7522773,236.772034" id="Fill-646" fill="#7870CC"></path>
                    <path d="M35.2185294,222.300381 C34.7484706,224.933432 35.1185714,228.356398 35.3938403,229.029852 C35.7039664,229.784322 36.7071345,230.447648 37.8712605,230.189407 C35.99,228.513369 35.3651345,224.052373 35.2185294,222.300381" id="Fill-647" fill="#FFFFFF"></path>
                    <path d="M16.9313445,167.888892 C17.2681261,172.480021 17.4393361,179.923453 17.6489916,187.883369 C21.0045042,188.683411 24.544042,188.66822 28.2558151,187.883369 C28.4808487,184.18697 28.6074622,181.108326 28.6612857,179.25 C28.8053277,174.24214 27.3249244,160.105189 27.5002353,156.727288 C28.5136555,137.263979 14.3857479,133.141735 16.9313445,167.888892" id="Fill-648" fill="#434950"></path>
                    <path d="M43.6021849,167.888892 C43.265916,172.480021 43.0941933,179.923453 42.8845378,187.883369 C39.3491008,188.901144 35.8136639,188.799873 32.2777143,187.883369 C32.0526807,184.18697 31.9865546,181.103263 31.8722437,179.25 C31.4037227,171.619216 33.7299244,159.353756 33.0743025,156.566267 C28.5608151,137.382972 46.1646975,132.913369 43.6021849,167.888892" id="Fill-649" fill="#434950"></path>
                    <path d="M45.2932689,25.8793453 C39.9970336,25.4246377 25.6035966,13.1181631 21.9189916,6.29400424 C34.2732857,-3.52018644 50.2891176,5.67270551 45.2932689,25.8793453" id="Fill-650" fill="#C8A757"></path>
                    <path d="M42.1279328,24.4838284 C44.7335042,25.7704788 44.6653277,33.8797691 38.471521,39.4061377 C35.7326723,41.8493051 37.090563,42.6893496 41.3195546,40.9859682 C45.5490588,39.2825869 52.0622185,35.3254153 50.0522941,30.4476886 C48.0423697,25.5699619 46.8490252,18.2966653 45.7817815,13.6508496 C44.7145378,9.0050339 37.7861681,16.7634195 42.1279328,24.4838284" id="Fill-651" fill="#C8A757"></path>
                    <path d="M46.8280084,20.1747394 C42.7399832,24.7795403 27.9728571,15.5663941 22.0215126,4.77037924 C27.5566218,9.69165254 38.0388824,18.3022352 46.8280084,20.1747394" id="Fill-652" fill="#D4B569"></path>
                    <path d="M42.6425882,12.0664619 C40.5901176,16.0074301 28.586958,12.0983623 22.4910588,5.55016737 C27.2511092,8.04599576 36.1391681,12.2750805 42.6425882,12.0664619" id="Fill-653" fill="#D4B569"></path>
                    <path d="M15.8774286,17.7933475 C13.7137227,16.0555339 17.2281429,6.47679873 22.9011429,5.35319492 C19.4641261,9.06174576 16.5822605,13.8594682 15.8774286,17.7933475" id="Fill-654" fill="#D4B569"></path>
                    <path d="M39.3275714,5.62561441 C38.3126134,1.80819703 25.5795042,-0.393944915 22.5238655,4.99520127 C28.2219832,2.58292161 35.6773109,3.90501695 39.3275714,5.62561441" id="Fill-655" fill="#D4B569"></path>
                    <path d="M49.8544286,111.087403 C51.5885714,111.832758 53.1110084,112.254047 55.1506639,111.935549 M53.8512101,112.042896 C54.1321176,111.466157 54.8159328,111.220068 55.1506639,111.935549 C55.856521,113.745771 55.0004706,114.416693 55.485395,115.576754" id="Stroke-656" stroke="#58BEC7" stroke-width="0.976205065" stroke-linecap="round" stroke-linejoin="round"></path>
                    <path d="M54.8015798,110.188114 C52.9341597,110.482307 51.3532857,110.514714 49.4586975,109.703025 M50.6894622,110.127352 C50.5638739,109.49947 49.9636134,109.092867 49.4586975,109.703025 C48.3176387,111.281843 48.9768487,112.142648 48.2140924,113.146246" id="Stroke-657" stroke="#507294" stroke-width="0.976205065" stroke-linecap="round" stroke-linejoin="round"></path>
                </g>
            </g>
            <g id="Coupons" transform="translate(13.000000, 0.000000)">
                <g id="Hearts" transform="translate(54.000000, 146.000000)" fill="#FBCFCE">
                    <path d="M16.0695522,32.4899628 C15.4622154,30.3160799 13.1931793,29.0305461 11.0123962,29.6314496 L9.52432058,30.0550249 L9.12006381,28.5617729 C8.51343411,26.3866653 6.24465679,25.1020975 4.06361485,25.702035 C1.60782028,26.393192 0.16455097,28.9467479 0.840253167,31.4066836 L3.19139124,39.8798815 C3.33579369,40.403344 3.85056547,40.6940156 4.37299264,40.5457495 L12.8451553,38.1907477 C15.3022439,37.5044203 16.7404248,34.9511926 16.0695522,32.4899628 Z" id="Fill-1"></path>
                    <path d="M30.8359999,19.0740001 C29.0469999,19.0900001 27.5979999,20.5620001 27.6089999,22.3480001 L27.6249999,23.5700001 L26.4019999,23.5740001 C24.6129999,23.5900001 23.1639999,25.0620001 23.1759999,26.8480001 C23.1989999,28.8670001 24.8519999,30.4960001 26.8709999,30.4880001 L33.8319999,30.4380001 C34.2619999,30.4340001 34.5899999,30.1020001 34.5859999,29.6720001 L34.5309999,22.7110001 C34.5119999,20.6950001 32.8549999,19.0660001 30.8359999,19.0740001 Z" id="Fill-2"></path>
                    <path d="M18.2657946,1.00303892 C15.881004,-0.139857043 12.9977912,0.869059524 11.8454972,3.25302693 L11.0699074,4.88950253 L9.44223998,4.09595674 C7.05834047,2.95260678 4.17423661,3.96197734 3.02194264,6.34594475 C1.73608287,9.0448791 2.87336857,12.283557 5.55993068,13.5891886 L14.8366656,18.0554303 C15.4121123,18.3323673 16.0615289,18.1024824 16.3367178,17.5324157 L20.7984705,8.25347874 C22.0892054,5.54869343 20.9550297,2.30730861 18.2657946,1.00303892 Z" id="Fill-3"></path>
                </g>
                <g id="Ballon" transform="translate(0.000000, 1.000000)">
                    <path d="M51.1009639,30.1479666 C51.1009639,13.9597549 39.8235422,0.837660167 25.9132289,0.837660167 C12.0026024,0.837660167 0.725493976,13.9597549 0.725493976,30.1479666 C0.725493976,45.5340836 10.9165542,58.142351 23.8708193,59.3537604 L19.6688434,66.6016267 L32.1573012,66.6016267 L27.9553253,59.3537604 C40.9099036,58.142351 51.1009639,45.5340836 51.1009639,30.1479666" id="Fill-38" fill="#FFEBEB"></path>
                    <path d="M20.8895904,65.8996769 L30.9368675,65.8996769 L27.3454217,59.7047354 C27.2248193,59.4975822 27.2191807,59.2439443 27.3291325,59.0314875 C27.4393976,58.8187187 27.6508434,58.6773928 27.8892289,58.6549304 C40.5098795,57.4750306 50.3961446,44.9531811 50.3961446,30.1479666 C50.3961446,14.3728134 39.4128675,1.53961003 25.9132289,1.53961003 C12.4132771,1.53961003 1.43031325,14.3728134 1.43031325,30.1479666 C1.43031325,44.9531811 11.3162651,57.4750306 23.9369157,58.6549304 C24.1756145,58.6773928 24.3870602,58.8187187 24.497012,59.0314875 C24.6072771,59.2439443 24.6013253,59.4975822 24.4807229,59.7047354 L20.8895904,65.8996769 Z M32.1573012,67.3035766 L19.6688434,67.3035766 C19.4166747,67.3035766 19.184241,67.1697382 19.0586265,66.9526017 C18.9323855,66.7354652 18.9323855,66.4677883 19.0586265,66.2506518 L22.7255663,59.9253036 C16.6575422,59.0614373 11.0678554,55.7457382 6.88780723,50.5029526 C2.45966265,44.9478774 0.0206746988,37.7187298 0.0206746988,30.1479666 C0.0206746988,13.5991086 11.6360964,0.135710306 25.9132289,0.135710306 C40.1903614,0.135710306 51.8057831,13.5991086 51.8057831,30.1479666 C51.8057831,37.7187298 49.3655422,44.9478774 44.9383373,50.5029526 C40.7582892,55.7457382 35.1689157,59.0614373 29.1005783,59.9253036 L32.7675181,66.2506518 C32.8940723,66.4677883 32.8940723,66.7354652 32.7675181,66.9526017 C32.6419036,67.1697382 32.4094699,67.3035766 32.1573012,67.3035766 L32.1573012,67.3035766 Z" id="Fill-39" fill="#CFCFCF"></path>
                    <path d="M44.643253,29.0663398 C44.643253,41.0316212 35.4495904,50.7313203 24.1088916,50.7313203 C12.7675663,50.7313203 3.57421687,41.0316212 3.57421687,29.0663398 C3.57421687,17.1007465 12.7675663,7.40104735 24.1088916,7.40104735 C35.4495904,7.40104735 44.643253,17.1007465 44.643253,29.0663398" id="Fill-40" fill="#F69A98"></path>
                    <path d="M24.1038795,18.89961 C24.1038795,18.5130696 23.9889157,18.2232423 23.7596145,18.0304401 C23.53,17.8370139 23.2781446,17.7399889 23.0027952,17.7399889 C22.7274458,17.7399889 22.4746506,17.8370139 22.2453494,18.0304401 C22.0157349,18.2232423 21.9013976,18.5130696 21.9013976,18.89961 L21.9013976,41.565415 C21.9013976,41.9516435 22.0157349,42.2417827 22.2453494,42.434585 C22.4746506,42.6280111 22.7274458,42.7244123 23.0027952,42.7244123 C23.2781446,42.7244123 23.53,42.6280111 23.7596145,42.434585 C23.9889157,42.2417827 24.1038795,41.9516435 24.1038795,41.565415 L24.1038795,18.89961 Z M27.0406265,41.4927242 C27.0406265,42.0046797 26.9256627,42.4523677 26.6963614,42.8364123 C26.466747,43.2201448 26.161012,43.540234 25.7785301,43.7960557 C25.3960482,44.0518774 24.9640723,44.2437437 24.4822892,44.3719666 C24.000506,44.4998774 23.5074458,44.5638329 23.0027952,44.5638329 C22.4978313,44.5638329 22.0044578,44.4998774 21.5226747,44.3719666 C21.0408916,44.2437437 20.6086024,44.0518774 20.2261205,43.7960557 C19.8439518,43.540234 19.5379036,43.2201448 19.3086024,42.8364123 C19.078988,42.4523677 18.9646506,42.0046797 18.9646506,41.4927242 L18.9646506,18.9719889 C18.9646506,18.4600334 19.078988,18.0120334 19.3086024,17.6283008 C19.5379036,17.2442563 19.8439518,16.9244791 20.2261205,16.6686574 C20.6086024,16.4125237 21.0408916,16.2206574 21.5226747,16.0927465 C22.0044578,15.9648357 22.4978313,15.9008802 23.0027952,15.9008802 C23.5074458,15.9008802 24.000506,15.9648357 24.4822892,16.0927465 C24.9640723,16.2206574 25.3960482,16.4125237 25.7785301,16.6686574 C26.161012,16.9244791 26.466747,17.2442563 26.6963614,17.6283008 C26.9256627,18.0120334 27.0406265,18.4600334 27.0406265,18.9719889 L27.0406265,41.4927242 L27.0406265,41.4927242 Z" id="Fill-41" fill="#F9F9F9"></path>
                    <path d="M39.778747,23.8669192 C39.778747,23.7645905 39.7273735,23.6828524 39.625253,23.6223287 C39.522506,23.561493 39.4019036,23.5309192 39.2631325,23.5309192 C39.1137108,23.5309192 38.9815181,23.561493 38.864988,23.6223287 C38.7490843,23.6828524 38.6911325,23.7645905 38.6911325,23.8669192 L38.6911325,29.5386741 C38.6911325,29.5898384 38.737494,29.6537939 38.8305301,29.7305404 C38.9235663,29.8072869 39.0673494,29.8456602 39.2631325,29.8456602 C39.4019036,29.8456602 39.522506,29.8153983 39.625253,29.7548747 C39.7273735,29.694039 39.778747,29.6216602 39.778747,29.5386741 L39.778747,23.8669192 Z M41.5407952,29.329337 C41.5407952,29.5274429 41.4797108,29.7127577 41.3584819,29.8852813 C41.2369398,30.057805 41.0715422,30.2094262 40.8638554,30.3404568 C40.6555422,30.4717994 40.4124578,30.575688 40.1349157,30.6524345 C39.8570602,30.7291811 39.5666747,30.7669304 39.2631325,30.7669304 C38.9395422,30.7669304 38.6356867,30.7291811 38.3515663,30.6524345 C38.0674458,30.575688 37.8206024,30.4699276 37.6110361,30.3360891 C37.4008434,30.2016267 37.2348193,30.043766 37.1126506,29.8612591 C36.9901687,29.679376 36.9290843,29.4862618 36.9290843,29.2812925 L36.9290843,24.0856156 C36.9290843,23.8815822 36.9901687,23.6900279 37.1126506,23.5106407 C37.2348193,23.3315655 37.4008434,23.1752646 37.6110361,23.0408022 C37.8206024,22.9072758 38.0674458,22.8015153 38.3515663,22.7247688 C38.6356867,22.6480223 38.9395422,22.609649 39.2631325,22.609649 C39.5666747,22.609649 39.8570602,22.6464624 40.1349157,22.7194652 C40.4124578,22.7934039 40.6555422,22.8944847 40.8638554,23.0217716 C41.0715422,23.1496825 41.2369398,23.3013036 41.3584819,23.4769471 C41.4797108,23.6529025 41.5407952,23.8463287 41.5407952,24.0572256 L41.5407952,29.329337 Z M37.4246506,15.9205348 L34.8196386,32.8206797 L32.9783373,32.8206797 L35.5833494,15.9205348 L37.4246506,15.9205348 Z M31.2848916,19.249961 C31.2848916,19.1544958 31.2335181,19.0746295 31.1320241,19.0106741 C31.0292771,18.9464067 30.9036627,18.9148969 30.7551807,18.9148969 C30.6154699,18.9148969 30.4879759,18.9464067 30.3714458,19.0106741 C30.2552289,19.0746295 30.1975904,19.1544958 30.1975904,19.249961 L30.1975904,24.9129805 C30.1975904,24.9710084 30.2439518,25.0362117 30.3373012,25.1098384 C30.4297108,25.1834652 30.5691084,25.2199666 30.7551807,25.2199666 C30.9036627,25.2199666 31.0292771,25.1915766 31.1320241,25.1338607 C31.2335181,25.0764568 31.2848916,25.0028301 31.2848916,24.9129805 L31.2848916,19.249961 Z M33.0469398,24.6970919 C33.0469398,24.8948858 32.9839759,25.0814485 32.8580482,25.2567799 C32.7324337,25.4324234 32.5648434,25.5852925 32.3568434,25.7156992 C32.1482169,25.8467298 31.9054458,25.9503064 31.6275904,26.026429 C31.3497349,26.1031755 31.0587229,26.1412368 30.7551807,26.1412368 C30.4425542,26.1412368 30.1446506,26.1031755 29.8620964,26.026429 C29.5798554,25.9503064 29.3345783,25.8451699 29.1259518,25.7113315 C28.9173253,25.5771811 28.7500482,25.4196323 28.6241205,25.2377493 C28.498506,25.0558663 28.4355422,24.8599443 28.4355422,24.6496713 L28.4355422,19.4661616 C28.4355422,19.2683677 28.498506,19.0805571 28.6241205,18.9021058 C28.7500482,18.7236546 28.9173253,18.5676657 29.1259518,18.4335153 C29.3345783,18.2993649 29.5798554,18.1926685 29.8620964,18.1131142 C30.1443373,18.0338719 30.4419277,17.9936267 30.754241,17.9936267 C31.0577831,17.9936267 31.3487952,18.0304401 31.6269639,18.1034429 C31.9051325,18.1770696 32.1475904,18.2772145 32.3565301,18.4048134 C32.5648434,18.5321003 32.7324337,18.6852813 32.8580482,18.8640446 C32.9839759,19.0421838 33.0469398,19.2368579 33.0469398,19.4471309 L33.0469398,24.6970919 L33.0469398,24.6970919 Z" id="Fill-42" fill="#F9F9F9"></path>
                    <polyline id="Fill-43" fill="#F9F9F9" points="10.3345301 16.4125237 10.3345301 18.5517549 14.3241205 18.5517549 11.6229398 44.0518774 14.5672048 44.0518774 17.4964337 16.4125237 10.3345301 16.4125237"></polyline>
                    <path d="M26.3499036,54.1736825 C25.976506,54.1736825 25.6648193,53.8819833 25.6463373,53.5063621 C25.6275422,53.1191978 25.9273253,52.7897493 26.3160723,52.7710306 C34.0919518,52.3929136 40.82,46.2307298 43.4560241,37.071688 C43.5637831,36.6994986 43.9537831,36.484234 44.3278072,36.5899944 C44.7021446,36.6970028 44.9186024,37.085727 44.8117831,37.4582284 C42.0059759,47.2044123 34.7735904,53.7649916 26.384988,54.1733705 C26.3727711,54.1736825 26.361494,54.1736825 26.3499036,54.1736825" id="Fill-44" fill="#CFCFCF"></path>
                    <path d="M23.1979518,111.857738 C23.0106265,111.857738 22.8245542,111.784423 22.6857831,111.638418 C22.4182651,111.356702 22.4301687,110.912758 22.7130361,110.645705 C22.7988675,110.564903 31.300241,102.432267 30.8294217,93.2414039 C30.5622169,88.0270084 28.6375904,85.5003008 25.7240241,81.675766 C24.9164578,80.6153538 24.0806988,79.5187521 23.1832289,78.2374596 C18.6983855,71.8394206 25.3913494,66.1211811 25.4596386,66.0644011 C25.7581687,65.814507 26.2023614,65.8525682 26.4526506,66.150195 C26.7029398,66.4465738 26.6647229,66.8889582 26.3674458,67.1385404 C26.1296867,67.3385181 20.5951325,72.0933705 24.3388193,77.434429 C25.2206265,78.6920111 26.0476145,79.7780056 26.8473494,80.8274986 C29.8085301,84.7147409 31.9474217,87.5234763 32.2371807,93.170273 C32.7415181,103.014106 24.0518795,111.317081 23.6819277,111.665872 C23.5459759,111.794095 23.371494,111.857738 23.1979518,111.857738" id="Fill-45" fill="#CFCFCF"></path>
                </g>
                <g id="Coupon" transform="translate(79.000000, 0.000000)">
                    <path d="M21.5934013,101.286552 L29.3648223,104.746611 C30.3770117,105.197267 31.5572257,104.739384 32.0079512,103.727038 L62.1011879,36.1365213 C62.5500354,35.1283933 62.0993147,33.9393167 61.0902804,33.4900657 L33.6837713,21.2879017 C32.6715819,20.8372459 31.4913679,21.2951294 31.0406424,22.3074754 L0.9474056,89.8979919 C0.498558112,90.9061198 0.949278821,92.0951964 1.95831311,92.5444474 L9.72973405,96.0045069 C9.7660496,95.9118359 9.80464272,95.8195416 9.84553824,95.7276887 C11.3056621,92.4481968 15.1478799,90.9733075 18.4273719,92.4334314 C21.7068639,93.8935553 23.1817531,97.7357731 21.7216292,101.015265 C21.6807337,101.107118 21.6379695,101.197555 21.5934013,101.286552 L21.5934013,101.286552 Z" id="Rectangle" fill="#F69A98"></path>
                    <path d="M45,31.7858718 C43.5033075,31.7858718 42.2860293,33.0034395 42.2860293,34.5 C42.2860293,35.9961637 43.5033075,37.2141282 45,37.2141282 C46.4966925,37.2141282 47.7139707,35.9961637 47.7139707,34.5 C47.7139707,33.0034395 46.4966925,31.7858718 45,31.7858718 Z M45,39 C42.51861,39 40.5,36.9811712 40.5,34.5 C40.5,32.0188288 42.51861,30 45,30 C47.48139,30 49.5,32.0188288 49.5,34.5 C49.5,36.9811712 47.48139,39 45,39 L45,39 Z" id="Fill-283" fill="#CFCFCF"></path>
                    <path d="M53.8490489,29.922805 L52.1781761,29.1788845 C52.9266052,27.4978852 52.0310399,25.4602734 50.1819407,24.6370014 C48.3328415,23.8137294 46.2193507,24.5116231 45.4709216,26.1926224 L43.8000488,25.4487019 C44.9214902,22.9299034 48.0875537,21.8844407 50.8582321,23.1180261 C53.6289104,24.3516116 54.9704902,27.4040065 53.8490489,29.922805 Z" id="Fill-269" fill="#CFCFCF"></path>
                    <path d="M60.4761401,1.83036575 C60.1962562,1.69985372 59.0440733,1.9757606 58.5843721,2.96159302 C58.0873564,4.02744668 50.6619679,21.8828431 47.316315,29.9376418 C51.339926,22.2594792 60.2317798,5.28008031 60.8255748,4.00668299 C61.4071019,2.75959401 60.7634829,1.96435589 60.4761401,1.83036575 Z M45.7610198,34.8948591 C45.7475229,34.8885653 45.7352619,34.8824031 45.7221057,34.8753786 C45.4872697,34.7511929 45.331993,34.5324318 45.2788784,34.2874652 C45.054965,34.4041412 44.7863384,34.4256777 44.5398874,34.324546 C44.086041,34.1396047 43.8798087,33.612826 44.0715378,33.149732 C44.5721443,31.9454262 56.3295531,3.62414546 56.9860501,2.21628322 C57.8379797,0.389314314 60.010748,-0.388457309 61.2428767,0.186093736 C62.549949,0.79559153 63.3737983,2.71492246 62.4238968,4.75199279 C61.6401216,6.43280418 47.5236454,33.3395276 46.9230164,34.4838467 C46.6979815,34.9145059 46.1843975,35.0922833 45.7610198,34.8948591 Z" id="Fill-284" fill="#CFCFCF"></path>
                    <path d="M55.2378506,49.6627266 L25.9671854,36.03881 L55.2378506,49.6627266 Z" id="Line-Copy" stroke="#FFFFFF" stroke-width="1.12936345" stroke-dasharray="4.743326488706365"></path>
                    <text id="COUPON" transform="translate(29.641756, 68.897099) rotate(-65.000000) translate(-29.641756, -68.897099) " font-family="Roboto-Bold, Roboto" font-size="10.5" font-weight="bold" letter-spacing="0.145833313" fill="#FFFFFF">
                        <tspan x="7.93252781" y="72.8970991">COUPON</tspan>
                    </text>
                </g>
            </g>
        </g>
    </g>
</svg>