<?xml version="1.0" encoding="UTF-8"?>
<svg width="130px" height="370px" viewBox="0 0 130 370" version="1.1" xmlns="http://www.w3.org/2000/svg" xmlns:xlink="http://www.w3.org/1999/xlink">
    <!-- Generator: Sketch 41.1 (35376) - http://www.bohemiancoding.com/sketch -->
    <title>MPIN</title>
    <desc>Created with Sketch.</desc>
    <defs></defs>
    <g id="Page-1" stroke="none" stroke-width="1" fill="none" fill-rule="evenodd">
        <g id="MPIN" transform="translate(11.000000, 4.000000)">
            <g id="VPA-Fig-Copy" transform="translate(0.000000, 154.056726)">
                <rect id="Rectangle-3" fill="#FEBBBA" x="12.6330979" y="118.667697" width="58.4865644" height="83.2755771" rx="3.45502949"></rect>
                <polygon id="Rectangle-4-Copy" fill="#FFFFFF" points="24.0964645 139.350277 24.0964645 118.531383 28.7753897 118.531383 28.7753897 139.350277"></polygon>
                <polygon id="Rectangle-4-Copy-2" fill="#FFFFFF" points="24.0964645 167.108803 24.0964645 146.289909 28.7753897 146.289909 28.7753897 167.108803"></polygon>
                <polygon id="Rectangle-4-Copy-3" fill="#FFFFFF" points="24.0964645 194.867329 24.0964645 174.048434 28.7753897 174.048434 28.7753897 194.867329"></polygon>
                <rect id="Rectangle" fill="#F1F1F1" x="0" y="0" width="83.7113402" height="132.962651" rx="2.07301769"></rect>
                <rect id="Rectangle-2" stroke="#CFCFCF" stroke-width="0.71979781" fill="#FFEBEB" x="6.97594502" y="6.99803426" width="69.7594502" height="43.9876439" rx="2.76402359"></rect>
                <rect id="Rectangle-2-Copy" fill="#FFFFFF" x="7.48628024" y="56.6736566" width="21.2891094" height="12.0286945" rx="2.76402359"></rect>
                <rect id="Rectangle-2-Copy-12" fill="#FFFFFF" x="7.48628024" y="74.2540562" width="21.2891094" height="12.0286945" rx="2.76402359"></rect>
                <rect id="Rectangle-2-Copy-4" fill="#FFFFFF" x="7.48628024" y="91.3718137" width="21.2891094" height="12.0286945" rx="2.76402359"></rect>
                <rect id="Rectangle-2-Copy-5" fill="#F69A98" x="7.48628024" y="108.720892" width="21.2891094" height="12.0286945" rx="2.76402359"></rect>
                <rect id="Rectangle-2-Copy-3" fill="#FFFFFF" x="54.9773705" y="56.6736566" width="21.2891094" height="12.0286945" rx="2.76402359"></rect>
                <rect id="Rectangle-2-Copy-9" fill="#FFFFFF" x="54.9773705" y="74.2540562" width="21.2891094" height="12.0286945" rx="2.76402359"></rect>
                <rect id="Rectangle-2-Copy-10" fill="#FFFFFF" x="54.9773705" y="91.3718137" width="21.2891094" height="12.0286945" rx="2.76402359"></rect>
                <rect id="Rectangle-2-Copy-11" fill="#F69A98" x="54.9773705" y="108.720892" width="21.2891094" height="12.0286945" rx="2.76402359"></rect>
                <rect id="Rectangle-2-Copy-2" fill="#FFFFFF" x="32.5185298" y="56.6736566" width="19.1835931" height="12.0286945" rx="2.76402359"></rect>
                <rect id="Rectangle-2-Copy-6" fill="#FFFFFF" x="32.5185298" y="74.2540562" width="19.1835931" height="12.0286945" rx="2.76402359"></rect>
                <rect id="Rectangle-2-Copy-7" fill="#FFFFFF" x="32.5185298" y="91.3718137" width="19.1835931" height="12.0286945" rx="2.76402359"></rect>
                <rect id="Rectangle-2-Copy-8" fill="#FFFFFF" x="32.5185298" y="108.720892" width="19.1835931" height="12.0286945" rx="2.76402359"></rect>
                <rect id="Rectangle-5" fill="#FFFFFF" x="43.9930367" y="143.959562" width="19.9968349" height="45.9870823" rx="1.26684414"></rect>
                <text id="VPA" transform="translate(54.491375, 171.315136) rotate(90.000000) translate(-54.491375, -171.315136) " font-family="Roboto-Bold, Roboto" font-size="16.9952261" font-weight="bold" letter-spacing="0.963062797" fill="#7E7E7E">
                    <tspan x="34.1345693" y="177.815136">V</tspan>
                    <tspan x="45.9105127" y="177.815136" letter-spacing="1.07665642">PA</tspan>
                </text>
                <text id="MPIN" font-family="Roboto-Bold, Roboto" font-size="13.8201179" font-weight="bold" letter-spacing="0.783140021" fill="#7E7E7E">
                    <tspan x="22.9209622" y="24.996911">MPIN</tspan>
                </text>
                <text id="*-*-*-*" font-family="Roboto-Bold, Roboto" font-size="11.516765" font-weight="bold" fill="#7E7E7E">
                    <tspan x="26.9072165" y="44.9907329">* * * *</tspan>
                </text>
            </g>
            <g id="Tag" transform="translate(97.548291, 195.354756) rotate(-11.000000) translate(-97.548291, -195.354756) translate(85.048291, 151.354756)">
                <path d="M14.4643947,48.238475 C14.2602142,45.3093126 12.7231054,41.8656222 11.1367429,41.9769027 C9.5503804,42.0881832 8.50598688,45.7129614 8.71016734,48.6421239 L7.27670726,48.7426786 C6.97076457,44.3536404 8.65547239,40.6477188 11.0324677,40.4809768 C13.4094631,40.3142348 15.591912,43.7488821 15.8978547,48.1379204 L14.4643947,48.238475 Z" id="Fill-269" fill="#FEBBBA" transform="translate(11.569342, 44.608916) rotate(-4.000000) translate(-11.569342, -44.608916) "></path>
                <g id="Tag-In" transform="translate(12.574225, 65.475124) rotate(-1.000000) translate(-12.574225, -65.475124) translate(1.074225, 43.975124)">
                    <path d="M11.4267043,9.9526678 C9.905902,9.9526678 8.67332989,8.73973438 8.67332989,7.24347963 C8.67332989,5.74748139 9.905902,4.53454797 11.4267043,4.53454797 C12.9473763,4.53454797 14.1802092,5.74748139 14.1802092,7.24347963 C14.1802092,8.73973438 12.9473763,9.9526678 11.4267043,9.9526678 Z M3.68072846,42.2403987 L19.1725499,42.2403987 C21.1897705,42.2403987 22.8247699,40.6314054 22.8247699,38.6468734 L22.8247699,8.81489342 C22.8247699,7.58554301 22.1861267,6.44161226 21.1318898,5.78223923 L13.4960697,1.00694718 C12.312253,0.266515269 10.8016189,0.258691548 9.6099804,0.986938976 L1.75384869,5.78685651 C0.680839593,6.44212529 0.0283781031,7.59682969 0.0283781031,8.8395189 L0.0283781031,38.6468734 C0.0283781031,40.6314054 1.66350787,42.2403987 3.68072846,42.2403987 L3.68072846,42.2403987 Z" id="Fill-354" fill="#F69A98"></path>
                    <text id="UPI" transform="translate(11.978019, 25.640368) rotate(90.000000) translate(-11.978019, -25.640368) " font-family="Roboto-Bold, Roboto" font-size="15.5956192" font-weight="bold" letter-spacing="0.216605806" fill="#FFFFFF">
                        <tspan x="-1.07163612" y="31.6403678">UPI</tspan>
                    </text>
                    <path d="M11.3825856,9.45511014 C12.5697448,9.45511014 13.5356889,8.4862098 13.5356889,7.29514511 C13.5356889,6.10383616 12.5697448,5.13481369 11.3825856,5.13481369 C10.1949395,5.13481369 9.22911711,6.10383616 9.22911711,7.29514511 C9.22911711,8.4862098 10.1949395,9.45511014 11.3825856,9.45511014 Z M11.3825856,10.2941805 C9.73412544,10.2941805 8.39271228,8.94885879 8.39271228,7.29514511 C8.39271228,5.64143144 9.73412544,4.29586544 11.3825856,4.29586544 C13.030924,4.29586544 14.3720937,5.64143144 14.3720937,7.29514511 C14.3720937,8.94885879 13.030924,10.2941805 11.3825856,10.2941805 L11.3825856,10.2941805 Z" id="Fill-358" stroke="#AAAAAA" stroke-width="0.5" fill="#AAAAAA"></path>
                </g>
                <ellipse id="Oval-3" stroke="#AAAAAA" stroke-width="0.99971918" fill="#FFFFFF" cx="2.42721399" cy="4.12142068" rx="1.99968349" ry="1.99943836"></ellipse>
                <path d="M7.62748124,2.84693114 C7.31544113,2.86333625 6.40202664,3.4004493 6.43963526,4.1203368 C6.48056146,4.9037281 8.76460611,32.7715575 9.80252773,45.4167792 C9.54998629,32.7669222 8.99081706,4.9250639 8.94190356,3.98878323 C8.89434217,3.07838436 7.9482442,2.83006744 7.62748124,2.84693114 Z M9.44496489,52.2025912 C8.96005376,52.2280848 8.54912091,51.9877523 8.52251531,51.661128 C8.36703415,49.7656449 4.70876231,5.23527013 4.65541606,4.21413986 C4.58571884,2.88002662 6.19011198,1.71849927 7.56475374,1.64622923 C9.02503803,1.56945664 10.6484104,2.40744392 10.7261228,3.89498018 C10.7898399,5.1146265 11.671896,49.6012604 11.7099656,51.4943545 C11.7159396,51.8217959 11.3322723,52.1033684 10.8489472,52.1287787 L10.829519,52.1298001 C10.5509438,52.1398974 10.3012553,52.0636609 10.1347559,51.9359611 C9.98209223,52.080708 9.74131874,52.1827299 9.46360007,52.2016115 L9.44496489,52.2025912 Z" id="Fill-93" fill="#FEBBBA" transform="translate(8.181628, 26.922911) rotate(-5.000000) translate(-8.181628, -26.922911) "></path>
                <path d="M4.90952068,4.2303865 C4.91540221,3.95821641 4.97972304,3.6818264 4.90822544,3.4412067 C4.36326286,2.41146484 3.61892339,1.79520279 2.50937333,1.79520279 L2.58488618,2.68992219 C4.22456505,3.14870732 4.24152623,4.63479997 4.01366459,5.2964771 L4.90952068,4.2303865 Z" id="Oval-3-Copy" fill="#AAAAAA" transform="translate(3.725544, 3.545840) rotate(8.000000) translate(-3.725544, -3.545840) "></path>
                <path d="M2.59967314,1.61305288 C1.74843476,0.921497232 1.95212805,0.360880615 3.04855383,0.360880615 L4.06739432,0.360880615 C5.16654265,0.360880615 6.05757843,1.24733796 6.05757843,2.35842086 L6.05757843,6.36109381 C6.05757843,7.46430482 5.26172021,8.40417894 5.26172021,8.40417894 C5.26172021,8.40417894 5.28335861,8.45210532 5.26172021,8.40417894 C4.55020052,6.8282512 4.9067643,5.60165448 4.94554552,4.65967309 C4.98432674,3.7176917 4.84588916,3.85989775 4.64657645,3.36003816 C4.49709191,3.16009432 4.54692009,2.96015048 3.65001287,2.26034706 C2.45020278,1.66051555 2.59967314,1.61305288 2.59967314,1.61305288 Z" id="Rectangle-Copy" fill="#F1F1F1" transform="translate(4.066088, 4.393180) rotate(11.000000) translate(-4.066088, -4.393180) "></path>
            </g>
            <g id="Above" transform="translate(8.769759, 0.000000)">
                <g id="Coins-Copy" transform="translate(11.725357, 33.090705)" fill="#FEBBBA">
                    <path d="M12.0887863,95.8299268 C16.0916927,95.8299268 19.3360076,99.3088202 19.3360076,103.602253 C19.3360076,107.897839 16.0917115,111.37458 12.0887863,111.37458 C8.08457642,111.37458 4.88931466,107.902144 4.88931466,103.602253 C4.88931466,99.3043959 8.08459531,95.8299268 12.0887863,95.8299268 Z M9.3648379,99.1536857 L9.3648379,99.1653629 L9.33879162,99.1653629 L9.33879162,100.361105 L10.4804626,100.361105 C11.517563,100.361105 12.0410678,100.88924 12.2298671,101.545171 L9.3648379,101.545171 L9.3648379,102.740913 L12.2298671,102.740913 C12.041679,103.397311 11.5188276,103.927314 10.4804626,103.927314 L10.124505,103.927314 L10.1201632,103.922643 L10.1158226,103.927314 L9.33879162,103.927314 L9.33879162,105.123057 L9.66653374,105.123057 L13.0568181,108.719626 L13.8381897,107.869527 L11.1771855,105.043652 C12.3825943,104.771688 13.1565292,103.806353 13.3693667,102.740913 L14.8865306,102.740913 L14.8865306,101.545171 L13.3693667,101.545171 C13.2831544,101.115022 13.0962498,100.708248 12.8354303,100.349428 L14.8865306,100.349428 L14.8865306,99.1536857 L9.3648379,99.1536857 Z" id="Combined-Shape-Copy" transform="translate(12.112661, 103.602253) rotate(-19.000000) translate(-12.112661, -103.602253) "></path>
                    <path d="M41.7953052,25.5026403 C46.7219592,25.5026403 50.7149622,29.7843552 50.7149622,35.0685806 C50.7149622,40.3554551 46.7219824,44.634521 41.7953052,44.634521 C36.8670469,44.634521 32.934417,40.3607532 32.934417,35.0685806 C32.934417,29.7789099 36.8670701,25.5026403 41.7953052,25.5026403 Z M38.4427533,29.5934205 L38.4427533,29.6077924 L38.4106964,29.6077924 L38.4106964,31.0794755 L39.8158299,31.0794755 C41.0922611,31.0794755 41.7365747,31.7294875 41.9689432,32.5367868 L38.4427533,32.5367868 L38.4427533,34.0084699 L41.9689432,34.0084699 C41.7373269,34.8163435 41.0938176,35.4686555 39.8158299,35.4686555 L39.3777282,35.4686555 L39.3723845,35.4629067 L39.3670421,35.4686555 L38.4106964,35.4686555 L38.4106964,36.9403394 L38.8140713,36.9403394 L42.9867289,41.3668856 L43.9484171,40.3206101 L40.673335,36.8426093 C42.156915,36.5078853 43.1094502,35.3197804 43.3714042,34.0084699 L45.2386828,34.0084699 L45.2386828,32.5367868 L43.3714042,32.5367868 C43.2652967,32.0073726 43.0352602,31.5067284 42.7142516,31.0651036 L45.2386828,31.0651036 L45.2386828,29.5934205 L38.4427533,29.5934205 Z" id="Combined-Shape-Copy-2" transform="translate(41.824690, 35.068581) rotate(-20.000000) translate(-41.824690, -35.068581) "></path>
                    <path d="M10.6040099,1.58778929 C15.5306638,1.58778929 19.5236668,5.8695042 19.5236668,11.1537297 C19.5236668,16.4406042 15.5306871,20.7196701 10.6040099,20.7196701 C5.67575154,20.7196701 1.74312168,16.4459022 1.74312168,11.1537297 C1.74312168,5.86405898 5.67577479,1.58778929 10.6040099,1.58778929 Z M7.25145798,5.67856953 L7.25145798,5.6929414 L7.21940103,5.6929414 L7.21940103,7.16462454 L8.62453459,7.16462454 C9.90096574,7.16462454 10.5452794,7.81463651 10.7776478,8.6219358 L7.25145798,8.6219358 L7.25145798,10.0936189 L10.7776478,10.0936189 C10.5460316,10.9014925 9.90252222,11.5538046 8.62453459,11.5538046 L8.1864329,11.5538046 L8.18108917,11.5480557 L8.1757468,11.5538046 L7.21940103,11.5538046 L7.21940103,13.0254884 L7.62277594,13.0254884 L11.7954336,17.4520346 L12.7571217,16.4057592 L9.48203968,12.9277584 C10.9656196,12.5930343 11.9181549,11.4049294 12.1801088,10.0936189 L14.0473875,10.0936189 L14.0473875,8.6219358 L12.1801088,8.6219358 C12.0740014,8.09252164 11.8439649,7.5918774 11.5229563,7.15025267 L14.0473875,7.15025267 L14.0473875,5.67856953 L7.25145798,5.67856953 Z" id="Combined-Shape-Copy-4" transform="translate(10.633394, 11.153730) rotate(11.000000) translate(-10.633394, -11.153730) "></path>
                </g>
                <g id="Note-Copy-5" transform="translate(27.224543, 98.072452)">
                    <path d="M21.5117794,7.22999372 L14.6641654,0.400224477 C14.3245237,0.0614679232 13.8321803,-0.0744444847 13.3658578,0.0402956385 C13.1200284,0.100397608 12.90022,0.226748339 12.7262906,0.400224477 C12.5708498,0.555260239 12.4537556,0.747176755 12.386649,0.961631509 C12.076452,1.96492461 11.5402839,2.83708614 10.7466454,3.62797342 C9.68663476,4.68453872 8.30615578,5.48498768 6.84555971,6.33119608 C5.2952599,7.22726181 3.69360299,8.15611043 2.38091539,9.46469421 C1.26543907,10.5786296 0.506038674,11.8175497 0.0609437646,13.2558991 C-0.0890189819,13.7414957 0.0417704454,14.266705 0.400585419,14.6259508 L7.24819941,21.4557201 C7.58784107,21.7944766 8.08018451,21.930389 8.54650703,21.8156489 C8.79233637,21.754181 9.01214478,21.6291962 9.18607418,21.4557201 C9.34151501,21.3006843 9.45860921,21.1087678 9.52571583,20.8929471 C9.8365975,19.889654 10.3727657,19.0174924 11.1670889,18.2266052 C12.2264148,17.1700399 13.606209,16.3709569 15.0681746,15.5254314 C16.6171049,14.6279998 18.2194466,13.6991511 19.5314494,12.3905674 C20.6469257,11.2779979 21.4063261,10.0377119 21.8521058,8.59936245 C22.0013838,8.11444883 21.8699096,7.58719065 21.5117794,7.22999372 Z" id="Shape" fill="#FEBBBA"></path>
                    <path d="M10.2885617,16.4683389 L10.2871921,16.4683389 C9.85921627,16.7961678 9.44151182,17.1417542 9.05462163,17.5290021 C8.68279619,17.8998586 8.34657834,18.2905214 8.05418522,18.6893799 L7.58580843,19.3272803 L7.58717795,19.3286463 C7.50158277,19.4618268 7.51596276,19.6407667 7.6323722,19.7568728 C7.76590068,19.8900533 7.98433956,19.8900533 8.1185528,19.7568728 C8.13909564,19.7357005 8.15552991,19.7131623 8.16922514,19.6885751 L8.60678767,19.0909703 C8.87795319,18.7214798 9.19157391,18.3574531 9.53874794,18.0118668 C9.92289908,17.6287167 10.278975,17.3329877 10.712429,17.0044758 L10.7110595,17.0031099 C10.7233852,16.9935482 10.7350261,16.9860354 10.7459823,16.9751078 C10.8801955,16.8419273 10.8801955,16.6240577 10.7459823,16.4908772 C10.6220405,16.3652094 10.4234597,16.3597456 10.2885617,16.4683389 Z" id="Shape" fill="#F5F5F5"></path>
                    <path d="M12.2865026,3.93514229 C11.9283724,4.29233922 11.5401127,4.61402135 11.137473,4.92067799 C11.1093978,4.93638646 11.0813225,4.95414386 11.0573559,4.97941401 C10.9224579,5.11396046 10.9224579,5.33319605 11.0573559,5.46774251 C11.1881453,5.59955705 11.3997366,5.60228896 11.5360041,5.47730419 L11.5387432,5.47867014 C11.966719,5.15084122 12.3837387,4.80388894 12.7706289,4.41800698 C13.1424544,4.04715051 13.4779874,3.65785366 13.7710653,3.25899514 L14.2394421,2.61836278 L14.2380726,2.61699683 C14.354482,2.48108442 14.3490039,2.27824027 14.2209536,2.14984061 C14.0860556,2.01529416 13.8676167,2.01529416 13.7327187,2.14984061 C13.7073825,2.17511076 13.6888939,2.20447877 13.6724597,2.23384677 L13.2177781,2.85535577 C12.9459278,3.22689522 12.6329919,3.58955597 12.2865026,3.93514229 Z" id="Shape" fill="#F5F5F5"></path>
                    <path d="M8.90587438,7.92333415 L8.90587438,7.93184872 L8.88551058,7.93184872 L8.88551058,8.80374265 L9.7781051,8.80374265 C10.5889429,8.80374265 10.9982356,9.18884016 11.1458449,9.66712202 L8.90587438,9.66712202 L8.90587438,10.539016 L11.1458449,10.539016 C10.9987134,11.017638 10.5899317,11.4040982 9.7781051,11.4040982 L9.49980617,11.4040982 L9.49641162,11.4006923 L9.49301795,11.4040982 L8.88551058,11.4040982 L8.88551058,12.2759926 L9.14174974,12.2759926 L11.7923813,14.8984856 L12.4032823,14.2786231 L10.3228251,12.2180927 C11.2652518,12.0197866 11.8703386,11.3158976 12.0367417,10.539016 L13.2229084,10.539016 L13.2229084,9.66712202 L12.0367417,9.66712202 C11.9693382,9.3534723 11.8232102,9.05686724 11.6192933,8.79522809 L13.2229084,8.79522809 L13.2229084,7.92333415 L8.90587438,7.92333415 Z" id="Path" fill="#FFFFFF" transform="translate(11.054210, 11.410910) rotate(-45.000000) translate(-11.054210, -11.410910) "></path>
                </g>
                <g id="Note-Copy-4" transform="translate(10.727155, 82.576804) rotate(108.000000) translate(-10.727155, -82.576804) translate(2.228500, 74.079191)">
                    <path d="M16.6227386,5.58681333 L11.3314005,0.309264369 C11.0689501,0.0474979406 10.6885029,-0.0575252836 10.3281628,0.0311375389 C10.1382038,0.0775799697 9.96835182,0.175214625 9.83395184,0.309264369 C9.71383846,0.42906473 9.62335658,0.577363856 9.57150147,0.743078893 C9.33180385,1.51835084 8.91749208,2.19229384 8.30422599,2.80343401 C7.48512686,3.61987083 6.4183931,4.23839957 5.28975069,4.89228788 C4.09179174,5.58470231 2.85414776,6.30244897 1.83979825,7.31362735 C0.977839279,8.17439558 0.391029885,9.13174296 0.047092909,10.2431948 C-0.0687873951,10.6184285 0.0322771623,11.024272 0.309543278,11.3018711 L5.60088137,16.5794201 C5.86333173,16.8411865 6.24377894,16.9462097 6.60411907,16.8575469 C6.7940781,16.8100489 6.96393006,16.7134698 7.09833004,16.5794201 C7.21844342,16.4596197 7.3089253,16.3113206 7.36078041,16.14455 C7.60100716,15.3692781 8.01531893,14.6953351 8.62911415,14.0841949 C9.44768416,13.2677581 10.5138888,12.6502849 11.6435895,11.9969243 C12.8404901,11.3034544 14.0786632,10.5857077 15.0924836,9.57452932 C15.9544426,8.71481659 16.541252,7.7564137 16.8857181,6.64496189 C17.0010693,6.27025592 16.8994756,5.86282914 16.6227386,5.58681333 Z" id="Shape" fill="#FEBBBA"></path>
                    <path d="M7.9502522,12.7255346 L7.94919393,12.7255346 C7.6184853,12.978857 7.29571368,13.245901 6.99675308,13.545138 C6.70943342,13.8317089 6.44962872,14.1335847 6.22368858,14.4417935 L5.86176106,14.9347166 L5.86281932,14.9357721 C5.7966776,15.0386843 5.80778941,15.1769561 5.89774216,15.2666744 C6.00092325,15.3695867 6.16971693,15.3695867 6.27342716,15.2666744 C6.28930117,15.250314 6.30200039,15.2328981 6.31258306,15.213899 L6.65069957,14.7521134 C6.86023655,14.466598 7.10257984,14.1853047 7.37085068,13.9182607 C7.66769475,13.6221902 7.94284433,13.3936723 8.27778603,13.1398222 L8.27672776,13.1387667 C8.28625217,13.1313781 8.29524744,13.1255728 8.30371358,13.1171288 C8.40742381,13.0142166 8.40742381,12.8458627 8.30371358,12.7429505 C8.20794037,12.6458436 8.05449156,12.6416216 7.9502522,12.7255346 Z" id="Shape" fill="#F5F5F5"></path>
                    <path d="M9.49411565,3.04079177 C9.21737866,3.31680758 8.9173598,3.56538014 8.60622912,3.80234209 C8.58453463,3.81448045 8.56284014,3.82820208 8.54432046,3.84772901 C8.4400811,3.95169672 8.4400811,4.12110604 8.54432046,4.22507376 C8.64538502,4.32693045 8.80888736,4.32904147 8.91418499,4.23246233 L8.91630153,4.23351783 C9.24701016,3.98019549 9.56925265,3.712096 9.86821325,3.41391448 C10.1555329,3.12734357 10.4148085,2.82652328 10.6412777,2.51831442 L11.0032053,2.02328033 L11.002147,2.02222482 C11.0920997,1.9172016 11.0878667,1.76045839 10.9889187,1.66124047 C10.8846793,1.55727276 10.7158856,1.55727276 10.6116463,1.66124047 C10.5920683,1.6807674 10.5777817,1.70346086 10.5650825,1.72615433 L10.2137376,2.20641128 C10.0036715,2.49350994 9.76185735,2.77374779 9.49411565,3.04079177 Z" id="Shape" fill="#F5F5F5"></path>
                    <path d="M6.88181202,6.12257639 L6.88181202,6.12915583 L6.86607635,6.12915583 L6.86607635,6.80289205 L7.55580849,6.80289205 C8.18236499,6.80289205 8.49863656,7.10046739 8.61269832,7.47004883 L6.88181202,7.47004883 L6.88181202,8.14378505 L8.61269832,8.14378505 C8.49900582,8.51362939 8.18312901,8.81225771 7.55580849,8.81225771 L7.34075931,8.81225771 L7.33813625,8.8096259 L7.33551387,8.81225771 L6.86607635,8.81225771 L6.86607635,9.48599427 L7.06407934,9.48599427 L9.11229463,11.5124662 L9.58435453,11.0334815 L7.97672848,9.44125347 C8.70496727,9.28801688 9.17253434,8.74410269 9.30111859,8.14378505 L10.217702,8.14378505 L10.217702,7.47004883 L9.30111859,7.47004883 C9.24903406,7.22768314 9.13611699,6.99848832 8.97854483,6.79631261 L10.217702,6.79631261 L10.217702,6.12257639 L6.88181202,6.12257639 Z" id="Path" fill="#FFFFFF" transform="translate(8.541889, 8.817521) rotate(-45.000000) translate(-8.541889, -8.817521) "></path>
                </g>
                <g id="Note-Copy-3" transform="translate(10.727155, 9.597304) rotate(97.000000) translate(-10.727155, -9.597304) translate(2.228500, 1.099691)">
                    <path d="M16.6227386,5.58681333 L11.3314005,0.309264369 C11.0689501,0.0474979406 10.6885029,-0.0575252836 10.3281628,0.0311375389 C10.1382038,0.0775799697 9.96835182,0.175214625 9.83395184,0.309264369 C9.71383846,0.42906473 9.62335658,0.577363856 9.57150147,0.743078893 C9.33180385,1.51835084 8.91749208,2.19229384 8.30422599,2.80343401 C7.48512686,3.61987083 6.4183931,4.23839957 5.28975069,4.89228788 C4.09179174,5.58470231 2.85414776,6.30244897 1.83979825,7.31362735 C0.977839279,8.17439558 0.391029885,9.13174296 0.047092909,10.2431948 C-0.0687873951,10.6184285 0.0322771623,11.024272 0.309543278,11.3018711 L5.60088137,16.5794201 C5.86333173,16.8411865 6.24377894,16.9462097 6.60411907,16.8575469 C6.7940781,16.8100489 6.96393006,16.7134698 7.09833004,16.5794201 C7.21844342,16.4596197 7.3089253,16.3113206 7.36078041,16.14455 C7.60100716,15.3692781 8.01531893,14.6953351 8.62911415,14.0841949 C9.44768416,13.2677581 10.5138888,12.6502849 11.6435895,11.9969243 C12.8404901,11.3034544 14.0786632,10.5857077 15.0924836,9.57452932 C15.9544426,8.71481659 16.541252,7.7564137 16.8857181,6.64496189 C17.0010693,6.27025592 16.8994756,5.86282914 16.6227386,5.58681333 Z" id="Shape" fill="#FEBBBA"></path>
                    <path d="M7.9502522,12.7255346 L7.94919393,12.7255346 C7.6184853,12.978857 7.29571368,13.245901 6.99675308,13.545138 C6.70943342,13.8317089 6.44962872,14.1335847 6.22368858,14.4417935 L5.86176106,14.9347166 L5.86281932,14.9357721 C5.7966776,15.0386843 5.80778941,15.1769561 5.89774216,15.2666744 C6.00092325,15.3695867 6.16971693,15.3695867 6.27342716,15.2666744 C6.28930117,15.250314 6.30200039,15.2328981 6.31258306,15.213899 L6.65069957,14.7521134 C6.86023655,14.466598 7.10257984,14.1853047 7.37085068,13.9182607 C7.66769475,13.6221902 7.94284433,13.3936723 8.27778603,13.1398222 L8.27672776,13.1387667 C8.28625217,13.1313781 8.29524744,13.1255728 8.30371358,13.1171288 C8.40742381,13.0142166 8.40742381,12.8458627 8.30371358,12.7429505 C8.20794037,12.6458436 8.05449156,12.6416216 7.9502522,12.7255346 Z" id="Shape" fill="#F5F5F5"></path>
                    <path d="M9.49411565,3.04079177 C9.21737866,3.31680758 8.9173598,3.56538014 8.60622912,3.80234209 C8.58453463,3.81448045 8.56284014,3.82820208 8.54432046,3.84772901 C8.4400811,3.95169672 8.4400811,4.12110604 8.54432046,4.22507376 C8.64538502,4.32693045 8.80888736,4.32904147 8.91418499,4.23246233 L8.91630153,4.23351783 C9.24701016,3.98019549 9.56925265,3.712096 9.86821325,3.41391448 C10.1555329,3.12734357 10.4148085,2.82652328 10.6412777,2.51831442 L11.0032053,2.02328033 L11.002147,2.02222482 C11.0920997,1.9172016 11.0878667,1.76045839 10.9889187,1.66124047 C10.8846793,1.55727276 10.7158856,1.55727276 10.6116463,1.66124047 C10.5920683,1.6807674 10.5777817,1.70346086 10.5650825,1.72615433 L10.2137376,2.20641128 C10.0036715,2.49350994 9.76185735,2.77374779 9.49411565,3.04079177 Z" id="Shape" fill="#F5F5F5"></path>
                    <path d="M6.88181202,6.12257639 L6.88181202,6.12915583 L6.86607635,6.12915583 L6.86607635,6.80289205 L7.55580849,6.80289205 C8.18236499,6.80289205 8.49863656,7.10046739 8.61269832,7.47004883 L6.88181202,7.47004883 L6.88181202,8.14378505 L8.61269832,8.14378505 C8.49900582,8.51362939 8.18312901,8.81225771 7.55580849,8.81225771 L7.34075931,8.81225771 L7.33813625,8.8096259 L7.33551387,8.81225771 L6.86607635,8.81225771 L6.86607635,9.48599427 L7.06407934,9.48599427 L9.11229463,11.5124662 L9.58435453,11.0334815 L7.97672848,9.44125347 C8.70496727,9.28801688 9.17253434,8.74410269 9.30111859,8.14378505 L10.217702,8.14378505 L10.217702,7.47004883 L9.30111859,7.47004883 C9.24903406,7.22768314 9.13611699,6.99848832 8.97854483,6.79631261 L10.217702,6.79631261 L10.217702,6.12257639 L6.88181202,6.12257639 Z" id="Path" fill="#FFFFFF" transform="translate(8.541889, 8.817521) rotate(-45.000000) translate(-8.541889, -8.817521) "></path>
                </g>
            </g>
        </g>
    </g>
</svg>