<?xml version="1.0" encoding="UTF-8"?>
<svg width="140px" height="160px" viewBox="0 0 140 160" version="1.1" xmlns="http://www.w3.org/2000/svg" xmlns:xlink="http://www.w3.org/1999/xlink">
    <!-- Generator: Sketch 41.1 (35376) - http://www.bohemiancoding.com/sketch -->
    <title>Shopping</title>
    <desc>Created with Sketch.</desc>
    <defs></defs>
    <g id="Page-1" stroke="none" stroke-width="1" fill="none" fill-rule="evenodd">
        <g id="Shopping-Girl" transform="translate(15.000000, 6.000000)">
            <g id="Ballon">
                <path d="M25.78489,14.905518 C25.78489,6.90187103 20.0944479,0.414149281 13.0754825,0.414149281 C6.05635901,0.414149281 0.366074942,6.90187103 0.366074942,14.905518 C0.366074942,22.5125996 5.50835305,28.746279 12.0449088,29.3452144 L9.92464574,32.9286468 L16.2261612,32.9286468 L14.1058981,29.3452144 C20.6426119,28.746279 25.78489,22.5125996 25.78489,14.905518" id="Fill-38" fill="#FFEBEB"></path>
                <path d="M10.540619,32.5815944 L15.610346,32.5815944 L13.7981486,29.5187406 C13.7372941,29.4163216 13.734449,29.29092 13.7899293,29.1858788 C13.8455676,29.0806833 13.9522604,29.0108101 14.0725467,28.9997044 C20.4407649,28.4163478 25.4292473,22.2253944 25.4292473,14.905518 C25.4292473,7.10609213 19.8872267,0.761201751 13.0754825,0.761201751 C6.26358019,0.761201751 0.721717696,7.10609213 0.721717696,14.905518 C0.721717696,22.2253944 5.710042,28.4163478 12.0782602,28.9997044 C12.1987045,29.0108101 12.3053974,29.0806833 12.3608776,29.1858788 C12.416516,29.29092 12.4135128,29.4163216 12.3526583,29.5187406 L10.540619,32.5815944 Z M16.2261612,33.2756993 L9.92464574,33.2756993 C9.79740466,33.2756993 9.68012159,33.209528 9.61673815,33.1021731 C9.55303858,32.9948182 9.55303858,32.8624755 9.61673815,32.7551206 L11.4670288,29.6277922 C8.40518183,29.2006863 5.58469769,27.5613647 3.47549906,24.9692684 C1.24111418,22.2227723 0.0104321875,18.6485945 0.0104321875,14.905518 C0.0104321875,6.72356319 5.87142478,0.0670968109 13.0754825,0.0670968109 C20.2795402,0.0670968109 26.1405328,6.72356319 26.1405328,14.905518 C26.1405328,18.6485945 24.9092185,22.2227723 22.6753078,24.9692684 C20.5661092,27.5613647 17.7457831,29.2006863 14.683778,29.6277922 L16.5340688,32.7551206 C16.5979264,32.8624755 16.5979264,32.9948182 16.5340688,33.1021731 C16.4706853,33.209528 16.3534022,33.2756993 16.2261612,33.2756993 L16.2261612,33.2756993 Z" id="Fill-39" fill="#CFCFCF"></path>
                <path d="M22.5264121,14.3707487 C22.5264121,20.286528 17.887408,25.0821761 12.165037,25.0821761 C6.44234995,25.0821761 1.80350392,20.286528 1.80350392,14.3707487 C1.80350392,8.45481515 6.44234995,3.659167 12.165037,3.659167 C17.887408,3.659167 22.5264121,8.45481515 22.5264121,14.3707487" id="Fill-40" fill="#F69A98"></path>
                <path d="M12.162508,9.34419495 C12.162508,9.15308472 12.1044987,9.00979061 11.9887963,8.91446687 C11.8729358,8.81883463 11.7458528,8.77086427 11.606915,8.77086427 C11.4679772,8.77086427 11.34042,8.81883463 11.2247176,8.91446687 C11.1088571,9.00979061 11.0511639,9.15308472 11.0511639,9.34419495 L11.0511639,20.5504421 C11.0511639,20.7413981 11.1088571,20.8848464 11.2247176,20.9801702 C11.34042,21.0758024 11.4679772,21.1234643 11.606915,21.1234643 C11.7458528,21.1234643 11.8729358,21.0758024 11.9887963,20.9801702 C12.1044987,20.8848464 12.162508,20.7413981 12.162508,20.5504421 L12.162508,9.34419495 Z M13.6443528,20.5145029 C13.6443528,20.7676198 13.5863435,20.9889622 13.4706411,21.1788384 C13.3547806,21.3685604 13.2005107,21.5268164 13.0075152,21.6532977 C12.8145197,21.7797791 12.5965502,21.8746401 12.3534487,21.938035 C12.1103471,22.0012757 11.8615552,22.032896 11.606915,22.032896 C11.3521167,22.032896 11.1031668,22.0012757 10.8600652,21.938035 C10.6169636,21.8746401 10.3988361,21.7797791 10.2058406,21.6532977 C10.0130032,21.5268164 9.85857522,21.3685604 9.74287278,21.1788384 C9.62701227,20.9889622 9.56931911,20.7676198 9.56931911,20.5145029 L9.56931911,9.37997991 C9.56931911,9.12686298 9.62701227,8.90536638 9.74287278,8.71564436 C9.85857522,8.5257681 10.0130032,8.36766642 10.2058406,8.24118508 C10.3988361,8.11454949 10.6169636,8.01968848 10.8600652,7.9564478 C11.1031668,7.89320713 11.3521167,7.8615868 11.606915,7.8615868 C11.8615552,7.8615868 12.1103471,7.89320713 12.3534487,7.9564478 C12.5965502,8.01968848 12.8145197,8.11454949 13.0075152,8.24118508 C13.2005107,8.36766642 13.3547806,8.5257681 13.4706411,8.71564436 C13.5863435,8.90536638 13.6443528,9.12686298 13.6443528,9.37997991 L13.6443528,20.5145029 L13.6443528,20.5145029 Z" id="Fill-41" fill="#F9F9F9"></path>
                <path d="M20.0718448,11.8000925 C20.0718448,11.7494999 20.0459224,11.7090876 19.9943937,11.679164 C19.9425489,11.6490861 19.8816945,11.63397 19.8116724,11.63397 C19.7362761,11.63397 19.6695733,11.6490861 19.6107737,11.679164 C19.5522903,11.7090876 19.5230485,11.7494999 19.5230485,11.8000925 L19.5230485,14.6042764 C19.5230485,14.6295727 19.5464419,14.661193 19.5933868,14.6991374 C19.6403316,14.7370818 19.7128827,14.756054 19.8116724,14.756054 C19.8816945,14.756054 19.9425489,14.7410922 19.9943937,14.7111686 C20.0459224,14.6810907 20.0718448,14.6453057 20.0718448,14.6042764 L20.0718448,11.8000925 Z M20.9609517,14.5007777 C20.9609517,14.5987236 20.9301293,14.6903454 20.8689588,14.7756432 C20.8076302,14.860941 20.7241727,14.9359043 20.6193766,15.0006875 C20.5142644,15.0656248 20.3916072,15.1169886 20.2515629,15.154933 C20.1113607,15.1928774 19.9648359,15.2115411 19.8116724,15.2115411 C19.6483928,15.2115411 19.4950713,15.1928774 19.3517077,15.154933 C19.2083442,15.1169886 19.0837902,15.0646994 18.9780458,14.998528 C18.8719852,14.9320482 18.7882116,14.854 18.7265668,14.7637663 C18.664764,14.6738412 18.6339416,14.5783632 18.6339416,14.4770239 L18.6339416,11.9082186 C18.6339416,11.807342 18.664764,11.7126352 18.7265668,11.6239441 C18.7882116,11.5354071 18.8719852,11.4581301 18.9780458,11.3916503 C19.0837902,11.3256332 19.2083442,11.2733439 19.3517077,11.2353995 C19.4950713,11.1974551 19.6483928,11.1784829 19.8116724,11.1784829 C19.9648359,11.1784829 20.1113607,11.1966839 20.2515629,11.2327774 C20.3916072,11.2693336 20.5142644,11.3193091 20.6193766,11.3822413 C20.7241727,11.445482 20.8076302,11.5204453 20.8689588,11.6072855 C20.9301293,11.69428 20.9609517,11.7899123 20.9609517,11.8941823 L20.9609517,14.5007777 Z M18.883998,7.87130427 L17.5695424,16.2269395 L16.6404455,16.2269395 L17.9549011,7.87130427 L18.883998,7.87130427 Z M15.7859545,9.51741269 C15.7859545,9.47021356 15.7600321,9.4307267 15.7088195,9.39910636 C15.6569747,9.36733178 15.5935912,9.35175298 15.5186692,9.35175298 C15.4481729,9.35175298 15.3838411,9.36733178 15.3250415,9.39910636 C15.2663999,9.4307267 15.2373162,9.47021356 15.2373162,9.51741269 L15.2373162,12.3172778 C15.2373162,12.3459674 15.2607096,12.3782048 15.3078125,12.4146067 C15.3544413,12.4510087 15.4247795,12.4690554 15.5186692,12.4690554 C15.5935912,12.4690554 15.6569747,12.455019 15.7088195,12.4264836 C15.7600321,12.3981024 15.7859545,12.3617005 15.7859545,12.3172778 L15.7859545,9.51741269 Z M16.6750613,12.2105399 C16.6750613,12.3083315 16.6432906,12.4005704 16.5797491,12.4872564 C16.5163656,12.5740966 16.4318017,12.6496769 16.3268476,12.7141516 C16.2215773,12.7789347 16.0990781,12.8301442 15.9588759,12.8677801 C15.8186736,12.9057245 15.6718327,12.9245425 15.5186692,12.9245425 C15.3609219,12.9245425 15.2106035,12.9057245 15.0680303,12.8677801 C14.9256151,12.8301442 14.8018514,12.7781635 14.6965812,12.7119921 C14.5913109,12.6456665 14.5069051,12.5677725 14.4433635,12.4778474 C14.3799801,12.3879222 14.3482094,12.291056 14.3482094,12.1870945 L14.3482094,9.62430485 C14.3482094,9.52651318 14.3799801,9.43365736 14.4433635,9.34542891 C14.5069051,9.25720046 14.5913109,9.18007769 14.6965812,9.11375211 C14.8018514,9.04742652 14.9256151,8.99467455 15.0680303,8.95534194 C15.2104455,8.91616357 15.3606057,8.89626589 15.518195,8.89626589 C15.6713585,8.89626589 15.8181994,8.91446687 15.9585597,8.95056032 C16.0989201,8.98696227 16.2212612,9.03647509 16.3266895,9.09956152 C16.4318017,9.1624937 16.5163656,9.23822826 16.5797491,9.32661096 C16.6432906,9.41468516 16.6750613,9.51093438 16.6750613,9.61489587 L16.6750613,12.2105399 L16.6750613,12.2105399 Z" id="Fill-42" fill="#F9F9F9"></path>
                <polyline id="Fill-43" fill="#F9F9F9" points="5.21467116 8.11454949 5.21467116 9.17221117 7.22776722 9.17221117 5.86478612 21.7797791 7.35042445 21.7797791 8.82847574 8.11454949 5.21467116 8.11454949"></polyline>
                <path d="M13.2958229,26.7841214 C13.1074113,26.7841214 12.9501382,26.6399018 12.9408124,26.4541902 C12.9313286,26.2627715 13.0825953,26.0998882 13.2787521,26.0906335 C17.202361,25.9036879 20.5972477,22.8570299 21.9273516,18.3286893 C21.9817254,18.1446744 22.1785144,18.0382449 22.3672422,18.0905342 C22.556128,18.1434404 22.6653498,18.3356303 22.6114502,18.5197995 C21.1956759,23.3384303 17.5463071,26.5820598 13.313526,26.7839672 C13.3073616,26.7841214 13.3016713,26.7841214 13.2958229,26.7841214" id="Fill-44" fill="#CFCFCF"></path>
                <path d="M11.7053885,55.3038137 C11.6108666,55.3038137 11.5169769,55.267566 11.4469548,55.1953791 C11.3119686,55.0560954 11.317975,54.8366039 11.4607063,54.7045698 C11.5040157,54.6646202 15.7936996,50.6437474 15.5561302,46.0996737 C15.4213021,43.5216137 14.4501603,42.2723791 12.9800122,40.381483 C12.5725246,39.8572024 12.1508113,39.3150293 11.6979595,38.6815428 C9.43496518,35.5182753 12.8121488,32.6911087 12.8466066,32.663036 C12.9972411,32.5394853 13.221375,32.5583033 13.3476677,32.7054535 C13.4739604,32.8519868 13.4546767,33.070707 13.3046745,33.1941034 C13.1847043,33.2929748 10.3920394,35.6438311 12.2810556,38.2845148 C12.7260042,38.9062786 13.1432917,39.4432073 13.5468277,39.9620893 C15.0410014,41.8839888 16.1202586,43.2726614 16.2664673,46.0645057 C16.5209495,50.9314153 12.1362695,55.0365062 11.9495966,55.2089527 C11.880997,55.2723476 11.7929557,55.3038137 11.7053885,55.3038137" id="Fill-45" fill="#CFCFCF"></path>
            </g>
            <g id="Girl-Shopping" transform="translate(7.064220, 2.013605)">
                <polyline id="Fill-42" fill="#FFEBEB" points="44.6481782 145.752298 46.2709305 88.3044922 48.313211 145.752298 50.8554653 145.752298 53.9547837 80.5922642 39.3673132 80.5922642 41.6794758 145.752298 44.6481782 145.752298"></polyline>
                <polyline id="Fill-43" fill="#9E9E9E" points="45.2502228 145.752298 44.616173 142.010209 42.5479423 141.19735 36.5119266 145.752298 45.2502228 145.752298"></polyline>
                <polyline id="Fill-44" fill="#9E9E9E" points="56.4416776 145.752298 50.4073919 141.19735 48.3391612 142.010209 47.7042464 145.752298 56.4416776 145.752298"></polyline>
                <path d="M84.0647969,38.4220642 C77.1334993,43.7985098 73.6795282,35.9688017 73.4027261,29.3881842 C73.0281782,20.5313883 73.5990826,6.37070805 63.8469987,2.00407358 C54.5023329,-2.18115767 41.6076802,4.57999919 42.374076,15.2067721 L41.5471298,37.1021398 C51.3234338,44.241652 63.6402621,59.7576734 77.5954128,51.1988971 C81.3564613,48.8924848 84.9609436,42.8690343 84.0647969,38.4220642" id="Fill-41" fill="#AAAAAA"></path>
                <path d="M66.6902752,40.8520034 C69.9868152,32.7622839 69.1148886,22.8421197 62.2649017,18.0738067 C55.7211271,13.516267 45.0971166,12.1272366 39.0991612,13.6674363 C27.8955963,16.5431091 22.1571429,24.8254615 25.0566448,40.4753758 C38.9002097,39.3385823 53.0361468,38.6060588 66.6902752,40.8520034" id="Fill-45" fill="#AAAAAA"></path>
                <path d="M54.9728965,52.8522578 C58.8939712,51.7733406 62.1844561,49.8962492 64.3737877,47.5267778 C65.6989777,47.5103651 67.3381651,46.1126965 68.3415727,44.0092831 C69.5370118,41.5024635 69.3752556,38.9498611 67.982595,38.3089031 C67.6625426,38.1603252 64.8201311,38.1326828 64.4438532,38.1991974 C62.6870249,32.096275 54.5602883,27.4817228 44.7934993,27.4817228 C36.0725033,27.4817228 31.1419659,31.1633442 28.4024902,36.2979189 C27.9198165,35.9169722 27.3947575,35.7286584 26.8705636,35.8064026 C25.349017,36.0258141 24.4364351,38.3512305 24.8352031,40.9988536 C25.2305111,43.6473405 26.7857929,45.6159973 28.3090695,45.3965858 C28.3947051,45.3836284 28.4786107,45.3620328 28.5616514,45.3369818 C30.4473657,48.6238353 34.2706946,51.2775051 37.4539187,52.707999 L24.7590826,87.5521008 L39.3837484,61.3039198 L54.4703277,61.3289707 L72.7461861,85.4823765 L54.9728965,52.8522578" id="Fill-46" fill="#FFEBEB"></path>
                <path d="M43.2062051,49.1885077 C43.0785041,49.1885077 42.9558534,49.1827291 42.839696,49.1740612 C41.251009,49.0512658 39.9523547,48.1591938 39.417742,47.3805268 C39.3109638,47.2245045 39.3506449,47.0114185 39.5064834,46.9045143 C39.6623219,46.7983324 39.8751569,46.837338 39.9819352,46.992638 C40.427085,47.640564 41.5280552,48.3874486 42.8923636,48.4914635 C43.82018,48.5608068 45.2018038,48.3491654 46.543025,46.9240171 C46.6728905,46.7860529 46.8893328,46.7802743 47.026413,46.9088482 C47.1634932,47.0388668 47.1699865,47.2548422 47.0408425,47.3928064 C45.6786985,48.8389021 44.259558,49.1885077 43.2062051,49.1885077 Z" id="Shape" fill="#F27674"></path>
                <path d="M41.5298296,79.7612647 L38.5559371,59.6764739 C38.5559371,59.6764739 44.0634338,56.2151278 46.0572739,56.179711 C48.2699607,56.1425665 54.4703277,59.6764739 54.4703277,59.6764739 L51.077772,79.6696993 L41.5298296,79.7612647" id="Fill-47" fill="#F69A98"></path>
                <path d="M38.6502228,38.7451346 C38.6502228,39.7860436 37.8561468,40.6317281 36.8804194,40.6317281 C35.903827,40.6317281 35.110616,39.7860436 35.110616,38.7451346 C35.110616,37.7024981 35.903827,36.8585412 36.8804194,36.8585412 C37.8561468,36.8585412 38.6502228,37.7024981 38.6502228,38.7451346" id="Fill-48" fill="#AAAAAA"></path>
                <path d="M51.1781127,39.5839085 C51.1781127,40.6248175 50.3866317,41.470502 49.4109043,41.470502 C48.4325819,41.470502 47.6411009,40.6248175 47.6411009,39.5839085 C47.6411009,38.541272 48.4325819,37.6964513 49.4109043,37.6964513 C50.3866317,37.6964513 51.1781127,38.541272 51.1781127,39.5839085" id="Fill-49" fill="#AAAAAA"></path>
                <path d="M62.2062739,30.0919123 C63.3224207,29.3851368 66.7637051,26.6264974 64.8896684,25.1867695 C63.4182922,24.05613 59.5834298,27.2225246 59.7913198,28.4649192 C59.8175583,26.8570552 59.254439,23.1701436 57.0201271,24.4155586 C55.4498519,25.2924838 56.168384,29.5341436 57.1765491,30.7956675 C56.0432464,28.9975178 51.5847142,29.1928375 51.2193931,31.0574362 C50.5856317,34.3013545 55.6678335,34.4292185 57.6720537,33.2844838 C56.3227876,34.8490552 54.2963656,37.4365382 56.2470996,38.8007559 C56.4378335,38.932647 58.3996684,38.9477491 58.6448977,38.8178715 C59.2746225,38.4876402 59.8407693,37.5271504 60.0799436,36.6280756 C60.2646225,38.1181436 60.9589344,39.8297083 62.334439,39.6756675 C65.1359069,39.361545 64.134806,34.1533545 63.098384,32.9441845 C64.470861,34.1755042 67.0382005,34.0093817 67.4226959,32.2666062 C68.0806776,29.287477 64.1085675,28.8112593 62.2062739,30.0919123" id="Fill-66" fill="#F69A98"></path>
                <path d="M38.548152,108.134455 C38.548152,108.134455 24.3456094,78.6028757 47.7440367,79.2706122 C68.2100917,79.8562855 55.6467366,108.409151 55.6467366,108.409151 C55.6467366,108.409151 47.9256881,111.439449 38.548152,108.134455" id="Fill-50" fill="#E5E5E5"></path>
                <path d="M20.4132896,90.8277245 C23.0723198,87.4095697 24.6163565,87.0640398 25.3853473,87.2696301 C26.7252425,87.6263897 27.6006291,89.9215723 28.112713,92.5553741 L20.4132896,90.8277245 Z M13.1558847,89.1994147 L0.179056356,123.07776 L31.8806815,129.894202 L35.0457405,94.1102588 L29.8660813,92.9492783 C29.3315072,89.7911347 28.2009436,86.3125122 25.8143906,85.6732818 C23.7894102,85.1307998 21.4262123,86.6951866 18.6460813,90.4312289 L13.1558847,89.1994147 L13.1558847,89.1994147 Z" id="Fill-51" fill="#F1F1F1"></path>
                <polyline id="Fill-52" fill="#CFCFCF" points="76.425059 120.064739 102.073368 105.605176 85.5266579 80.4048142 66.4965138 88.6672986 76.425059 120.064739"></polyline>
                <path d="M68.3900131,90.7491165 C68.5716645,86.4230818 69.6287025,85.24828 70.3743381,84.9701284 C71.672713,84.4855227 73.7193185,85.8477744 75.6664482,87.6963595 L68.3900131,90.7491165 Z M61.5322412,93.6247893 L70.6338401,128.740132 L100.418611,115.933065 L82.2162779,84.9493966 L77.3229358,87.0018444 C75.0522936,84.7394872 72.1121363,82.5600572 69.7965138,83.4212905 C67.8320839,84.1520863 66.8148362,86.7953903 66.7196855,91.4488146 L61.5322412,93.6247893 L61.5322412,93.6247893 Z" id="Fill-53" fill="#F1F1F1"></path>
            </g>
        </g>
    </g>
</svg>