<?xml version="1.0" encoding="UTF-8"?>
<svg width="200px" height="170px" viewBox="0 0 200 170" version="1.1" xmlns="http://www.w3.org/2000/svg" xmlns:xlink="http://www.w3.org/1999/xlink">
    <!-- Generator: Sketch 41.1 (35376) - http://www.bohemiancoding.com/sketch -->
    <title>Travel</title>
    <desc>Created with Sketch.</desc>
    <defs></defs>
    <g id="Page-1" stroke="none" stroke-width="1" fill="none" fill-rule="evenodd">
        <g id="Car" transform="translate(61.000000, 27.000000)">
            <polygon id="Fill-438" fill="#2D2119" points="17.2838261 49.4588963 27.4487217 49.4588963 27.4487217 42.8948429 17.2838261 42.8948429"></polygon>
            <path d="M25.8755913,65.5804771 C24.7386783,65.5804771 23.8174696,64.6532336 23.8174696,63.5087107 L23.8174696,44.5541935 L20.8841652,44.5541935 L20.8841652,63.5087107 C20.8841652,64.6532336 19.9615826,65.5804771 18.8253565,65.5804771 C17.6884435,65.5804771 16.7679217,64.6532336 16.7679217,63.5087107 L16.7679217,42.4803512 C16.7679217,41.3358283 17.6884435,40.4085848 18.8253565,40.4085848 L25.8755913,40.4085848 C27.0118174,40.4085848 27.9330261,41.3358283 27.9330261,42.4803512 L27.9330261,63.5087107 C27.9330261,64.6532336 27.0118174,65.5804771 25.8755913,65.5804771" id="Fill-439" fill="#AAAAAA"></path>
            <path d="M26.1524348,29.3536284 L18.6055304,29.3536284 C17.8594957,29.3536284 17.1642957,28.9675076 16.7672348,28.3302007 L5.56297391,10.3645125 C4.92410435,9.34108482 5.23117391,7.99035403 6.24718261,7.34820333 C7.26113043,6.70466869 8.60275652,7.01328853 9.24231304,8.03740818 L19.8063304,24.9775928 L24.8959913,24.9775928 L34.6727565,7.87825445 C35.2717826,6.83199167 36.6003565,6.47147387 37.6397217,7.0748741 C38.679087,7.67689038 39.0369913,9.01585763 38.4386522,10.0628124 L28.0340087,28.2575435 C27.6465652,28.9356768 26.9280087,29.3536284 26.1524348,29.3536284" id="Fill-440" fill="#CFCFCF"></path>
            <polyline id="Fill-441" fill="#FBCFCE" points="23.8360174 23.3770598 23.8360174 21.8782469 20.0076087 21.8782469 20.0076087 23.3770598 17.7083652 23.3770598 17.7083652 35.9079941 26.4217217 35.9079941 26.4217217 23.3770598 23.8360174 23.3770598"></polyline>
            <path d="M28.0092783,42.3191215 L16.7143391,42.3191215 L17.0220957,23.3770598 L20.0076087,23.3770598 C20.0076087,23.3770598 20.4101652,25.7138518 21.8713217,25.7138518 C23.3503391,25.7138518 23.8360174,23.3770598 23.8360174,23.3770598 L27.5648174,23.3770598 L28.0092783,42.3191215" id="Fill-442" fill="#CFCFCF"></path>
            <path d="M32.8901043,11.2972917 C32.8901043,17.3997993 27.9790522,22.3453285 21.9214696,22.3453285 C15.8632,22.3453285 10.9528348,17.3997993 10.9528348,11.2972917 C10.9528348,5.19478417 15.8632,0.248563044 21.9214696,0.248563044 C27.9790522,0.248563044 32.8901043,5.19478417 32.8901043,11.2972917" id="Fill-443" fill="#FBCFCE"></path>
            <path d="M18.6453739,11.5782327 C18.6453739,12.2141556 18.1349652,12.7296753 17.5029652,12.7296753 C16.8723391,12.7296753 16.3612435,12.2141556 16.3612435,11.5782327 C16.3612435,10.9423097 16.8723391,10.428174 17.5029652,10.428174 C18.1349652,10.428174 18.6453739,10.9423097 18.6453739,11.5782327" id="Fill-444" fill="#666666"></path>
            <path d="M27.3814,11.5782327 C27.3814,12.2141556 26.8689304,12.7296753 26.2383043,12.7296753 C25.6076783,12.7296753 25.0952087,12.2141556 25.0952087,11.5782327 C25.0952087,10.9423097 25.6076783,10.428174 26.2383043,10.428174 C26.8689304,10.428174 27.3814,10.9423097 27.3814,11.5782327" id="Fill-445" fill="#666666"></path>
            <path d="M23.368887,13.879734 C23.368887,14.5156569 22.642087,15.0318686 21.7442348,15.0318686 C20.8470696,15.0318686 20.1188957,14.5156569 20.1188957,13.879734 C20.1188957,13.244503 20.8470696,12.7296753 21.7442348,12.7296753 C22.642087,12.7296753 23.368887,13.244503 23.368887,13.879734" id="Fill-446" fill="#F69A98"></path>
            <path d="M22.0114609,18.9103758 C20.9047739,18.9103758 19.607113,18.5367105 18.1919826,17.4184826 C18.0161217,17.2793961 17.9845217,17.0212902 18.123287,16.8434532 C18.2613652,16.6656162 18.5176,16.6351694 18.6934609,16.7749479 C22.3535652,19.667394 24.9921652,16.9341017 25.1034522,16.8164663 C25.2580174,16.6531607 25.5149391,16.6448571 25.6777478,16.799167 C25.8412435,16.9527849 25.8488,17.2115827 25.6962957,17.3762722 C25.675687,17.3991073 24.2330783,18.9103758 22.0114609,18.9103758" id="Fill-447" fill="#9E9E9E"></path>
            <path d="M32.991087,11.2972917 C31.8040261,11.0952357 28.2084957,7.64575161 27.903487,6.21336804 C26.3042522,7.07833396 25.3638087,7.74885555 22.9271739,8.46435536 C22.8914522,6.11164805 22.8687826,6.21544396 22.2388435,4.57685252 C20.8958435,8.15781144 13.7872174,10.8883359 10.8511652,11.2972917 C10.8511652,5.13804241 15.8075565,0.145459106 21.9214696,0.145459106 C28.0353826,0.145459106 32.991087,5.13804241 32.991087,11.2972917" id="Fill-448" fill="#AAAAAA"></path>
            <path d="M23.4602522,63.5087107 C23.4602522,62.2846109 24.5346522,61.2909381 25.8611652,61.2909381 C27.1876783,61.2909381 28.2620783,62.2846109 28.2620783,63.5087107 C28.2620783,64.7328105 27.1876783,65.7250994 25.8611652,65.7250994 C24.5346522,65.7250994 23.4602522,64.7328105 23.4602522,63.5087107" id="Fill-449" fill="#275897"></path>
            <path d="M16.4381826,63.5087107 C16.4381826,62.2846109 17.5132696,61.2909381 18.8390957,61.2909381 C20.1656087,61.2909381 21.2393217,62.2846109 21.2393217,63.5087107 C21.2393217,64.7328105 20.1656087,65.7250994 18.8390957,65.7250994 C17.5132696,65.7250994 16.4381826,64.7328105 16.4381826,63.5087107" id="Fill-450" fill="#275897"></path>
            <polygon id="Fill-451" fill="#2D2119" points="50.576487 49.5467768 60.7406957 49.5467768 60.7406957 42.9827234 50.576487 42.9827234"></polygon>
            <path d="M59.1668783,65.6690496 C58.0313391,65.6690496 57.1094435,64.7411142 57.1094435,63.5965913 L57.1094435,44.642074 L54.1740783,44.642074 L54.1740783,63.5965913 C54.1740783,64.7411142 53.2535565,65.6690496 52.1173304,65.6690496 C50.9804174,65.6690496 50.0592087,64.7411142 50.0592087,63.5965913 L50.0592087,42.5689237 C50.0592087,41.4244008 50.9804174,40.4964654 52.1173304,40.4964654 L59.1668783,40.4964654 C60.3037913,40.4964654 61.225,41.4244008 61.225,42.5689237 L61.225,63.5965913 C61.225,64.7411142 60.3037913,65.6690496 59.1668783,65.6690496" id="Fill-452" fill="#CFCFCF"></path>
            <path d="M59.4904348,28.3052897 L59.4883739,28.3052897 L51.8109478,28.2983699 C51.0944522,28.2983699 50.4267304,27.9433879 50.0214261,27.3496753 L39.0527913,11.2543894 C38.3740783,10.2593326 38.6248174,8.89614635 39.6147217,8.21316925 C40.6025652,7.52811624 41.9551826,7.78207024 42.6345826,8.77781901 L52.9561043,23.9244103 L58.2999391,23.9278701 L67.877487,8.80203805 C68.5225391,7.78414616 69.8662261,7.48382999 70.8760522,8.13497633 C71.8879391,8.78543071 72.1853913,10.1368535 71.5396522,11.1561293 L61.3218609,27.2936255 C60.9227391,27.9240127 60.2316609,28.3052897 59.4904348,28.3052897" id="Fill-453" fill="#F69A98"></path>
            <polyline id="Fill-454" fill="#FBCFCE" points="57.1286783 23.4642484 57.1286783 21.9661274 53.2982087 21.9661274 53.2982087 23.4642484 50.9996522 23.4642484 50.9996522 35.9958747 59.7136957 35.9958747 59.7136957 23.4642484 57.1286783 23.4642484"></polyline>
            <path d="M61.3012522,42.4063101 L50.006313,42.4063101 L49.8565565,23.4642484 L53.2982087,23.4642484 C53.2982087,23.4642484 53.7028261,25.8017323 55.1632957,25.8017323 C56.642313,25.8017323 57.1286783,23.4642484 57.1286783,23.4642484 L61.5423739,23.4642484 L61.3012522,42.4063101" id="Fill-455" fill="#F69A98"></path>
            <path d="M66.1813913,11.3851723 C66.1813913,17.4876799 61.271713,22.433209 55.2141304,22.433209 C49.1558609,22.433209 44.2454957,17.4876799 44.2454957,11.3851723 C44.2454957,5.28266471 49.1558609,0.336443582 55.2141304,0.336443582 C61.271713,0.336443582 66.1813913,5.28266471 66.1813913,11.3851723" id="Fill-456" fill="#FBCFCE"></path>
            <path d="M51.9380348,11.6661132 C51.9380348,12.3027281 51.4262522,12.8175559 50.7949391,12.8175559 C50.165,12.8175559 49.6532174,12.3027281 49.6532174,11.6661132 C49.6532174,11.0308822 50.165,10.5160545 50.7949391,10.5160545 C51.4262522,10.5160545 51.9380348,11.0308822 51.9380348,11.6661132" id="Fill-457" fill="#666666"></path>
            <path d="M60.672687,11.6661132 C60.672687,12.3027281 60.1609043,12.8175559 59.5295913,12.8175559 C58.8982783,12.8175559 58.3878696,12.3027281 58.3878696,11.6661132 C58.3878696,11.0308822 58.8982783,10.5160545 59.5295913,10.5160545 C60.1609043,10.5160545 60.672687,11.0308822 60.672687,11.6661132" id="Fill-458" fill="#666666"></path>
            <path d="M56.6608609,13.9676145 C56.6608609,14.6035375 55.932687,15.1190572 55.0362087,15.1190572 C54.1383565,15.1190572 53.4108696,14.6035375 53.4108696,13.9676145 C53.4108696,13.3323836 54.1383565,12.8175559 55.0362087,12.8175559 C55.932687,12.8175559 56.6608609,13.3323836 56.6608609,13.9676145" id="Fill-459" fill="#F69A98"></path>
            <path d="M55.3027478,18.9982563 C54.1967478,18.9982563 52.897713,18.6238991 51.4839565,17.5063631 C51.3080957,17.3672766 51.2771826,17.1091708 51.4145739,16.9313338 C51.5540261,16.7528048 51.808887,16.723742 51.9854348,16.8628285 C55.6455391,19.7552745 58.2848261,17.0219822 58.396113,16.9043468 C58.5506783,16.7410413 58.8076,16.7327376 58.9704087,16.8870475 C59.1332174,17.0406655 59.1414609,17.2987713 58.9889565,17.4634608 C58.9676609,17.4876799 57.5257391,18.9982563 55.3027478,18.9982563" id="Fill-460" fill="#9E9E9E"></path>
            <path d="M66.2837478,11.3851723 C65.096687,11.1838082 61.4997826,7.73363215 61.1961478,6.30194055 C59.5955391,7.1662145 58.6564696,7.83673608 56.2184609,8.5522359 C56.184113,6.19952859 56.1607565,6.3033245 55.5301304,4.66542503 C54.1864435,8.245 47.0778174,10.9769084 44.1424522,11.3851723 C44.1424522,5.22592295 49.0995304,0.233339644 55.2141304,0.233339644 C61.3273565,0.233339644 66.2837478,5.22592295 66.2837478,11.3851723" id="Fill-461" fill="#AAAAAA"></path>
            <path d="M56.7522261,63.5965913 C56.7522261,62.3717995 57.8266261,61.3795106 59.1531391,61.3795106 C60.4796522,61.3795106 61.5540522,62.3717995 61.5540522,63.5965913 C61.5540522,64.820691 60.4796522,65.8129799 59.1531391,65.8129799 C57.8266261,65.8129799 56.7522261,64.820691 56.7522261,63.5965913" id="Fill-462" fill="#EFAA2C"></path>
            <path d="M49.7301565,63.5965913 C49.7301565,62.3717995 50.8052435,61.3795106 52.1310696,61.3795106 C53.4575826,61.3795106 54.5319826,62.3717995 54.5319826,63.5965913 C54.5319826,64.820691 53.4575826,65.8129799 52.1310696,65.8129799 C50.8052435,65.8129799 49.7301565,64.820691 49.7301565,63.5965913" id="Fill-463" fill="#EFAA2C"></path>
            <path d="M21.1562,81.6633075 C21.1562,83.4721242 19.6991652,84.9391064 17.9034609,84.9391064 L12.7547217,84.9391064 C10.9583304,84.9391064 9.50266957,83.4721242 9.50266957,81.6633075 L9.50266957,70.7432857 C9.50266957,68.933777 10.9583304,67.4667948 12.7547217,67.4667948 L17.9034609,67.4667948 C19.6991652,67.4667948 21.1562,68.933777 21.1562,70.7432857 L21.1562,81.6633075" id="Fill-464" fill="#CFCFCF"></path>
            <path d="M57.8692174,81.6633075 C57.8692174,83.4721242 59.3248783,84.9391064 61.1205826,84.9391064 L66.2700087,84.9391064 C68.0664,84.9391064 69.5227478,83.4721242 69.5227478,81.6633075 L69.5227478,70.7432857 C69.5227478,68.933777 68.0664,67.4667948 66.2700087,67.4667948 L61.1205826,67.4667948 C59.3248783,67.4667948 57.8692174,68.933777 57.8692174,70.7432857 L57.8692174,81.6633075" id="Fill-465" fill="#CFCFCF"></path>
            <polyline id="Fill-466" fill="#CFCFCF" points="68.2587478 46.8439313 71.5444609 44.2137429 70.0235391 42.2865988 66.7364522 44.9154033 68.2587478 46.8439313"></polyline>
            <path d="M69.0130261,41.4679951 C69.0130261,43.6068828 70.7352261,45.3416585 72.8586087,45.3416585 C74.9833652,45.3416585 76.7048783,43.6068828 76.7048783,41.4679951 C76.7048783,39.3284154 74.9833652,37.5936397 72.8586087,37.5936397 C70.7352261,37.5936397 69.0130261,39.3284154 69.0130261,41.4679951" id="Fill-467" fill="#ECECEC"></path>
            <polyline id="Fill-468" fill="#CFCFCF" points="10.7652957 46.8439313 7.48095652 44.2137429 9.00187826 42.2865988 12.2869043 44.9154033 10.7652957 46.8439313"></polyline>
            <path d="M10.0117043,41.4679951 C10.0117043,43.6068828 8.28881739,45.3416585 6.16612174,45.3416585 C4.04136522,45.3416585 2.31916522,43.6068828 2.31916522,41.4679951 C2.31916522,39.3284154 4.04136522,37.5936397 6.16612174,37.5936397 C8.28881739,37.5936397 10.0117043,39.3284154 10.0117043,41.4679951" id="Fill-469" fill="#ECECEC"></path>
            <path d="M15.0951826,46.2765136 C15.1494522,45.2385545 16.0789043,33.7393516 20.0144783,29.0540042 C22.7265826,25.8252594 33.827113,24.4074072 39.5597652,24.4074072 C45.2931043,24.4074072 56.3936348,25.8252594 59.107113,29.0540042 C63.042,33.7393516 63.9714522,45.2385545 64.0257217,46.2765136 C64.5746,46.3740818 14.3017478,46.418368 15.0951826,46.2765136 Z M62.5391478,26.9856977 C58.9044609,22.6587921 45.5335391,21.1357601 39.7266957,21.1357601 C33.9198522,21.1357601 20.2116348,22.6587921 16.5762609,26.9856977 C12.5101652,31.826047 11.0297739,41.7918383 10.6086696,47.4957696 C10.823,47.4300322 40.0323913,47.4957696 40.0323913,47.4957696 C40.0323913,47.4957696 67.8465739,47.2937136 68.5074261,47.4957696 C68.0863217,41.7918383 66.6059304,31.826047 62.5391478,26.9856977 L62.5391478,26.9856977 Z" id="Fill-470" fill="#F1F1F1"></path>
            <path d="M47.0599565,45.9948807 C54.2537652,46.2855093 61.4489478,47.8023135 68.6420696,49.2644519 C68.6283304,48.9945825 68.5857391,48.2597075 68.5074261,47.1885337 C67.1554957,46.7733501 59.5151652,42.993795 39.5741913,42.993795 C19.6325304,42.993795 11.9606,46.7733501 10.6086696,47.1885337 C10.5228,48.3434362 10.4815826,49.10945 10.4712783,49.3211937 C9.91621739,49.5031825 9.38726087,49.7363773 8.88303478,50.0131664 C21.267487,46.4356674 34.2386,45.5388707 47.0599565,45.9948807" id="Fill-471" fill="#F1F1F1"></path>
            <path d="M75.2162435,58.197128 C75.1035826,54.0466755 72.3839217,50.5535971 68.6455043,49.3211937 C68.6448174,49.3052783 68.6434435,49.2852111 68.6420696,49.2644519 C61.4489478,47.8023135 54.2537652,46.2855093 47.0599565,45.9948807 C34.2386,45.5388707 21.267487,46.4356674 8.88303478,50.0131664 C5.98407826,51.6033198 3.99533913,54.6611473 3.90053913,58.197128 L3.89298261,58.2068156 L3.89298261,70.3917635 L39.5412174,71.4643213 L39.5412174,71.4650133 L39.5570174,71.4643213 L39.5741913,71.4650133 L39.5741913,71.4643213 L75.2217391,70.3917635 L75.2217391,58.2068156 L75.2162435,58.197128" id="Fill-472" fill="#F1F1F1"></path>
            <path d="M76.9034087,68.6978143 L2.21268696,68.6978143 C1.20011304,68.6978143 0.378513043,69.5254137 0.378513043,70.5460735 L0.378513043,74.3927499 C0.378513043,75.4134097 1.20011304,76.2403171 2.21268696,76.2403171 L76.9034087,76.2403171 C77.9152957,76.2403171 78.7362087,75.4134097 78.7362087,74.3927499 L78.7362087,70.5460735 C78.7362087,69.5254137 77.9152957,68.6978143 76.9034087,68.6978143" id="Fill-473" fill="#E5E5E5"></path>
            <path d="M60.6665043,58.6794846 C60.6665043,61.940797 63.0303524,64.5839724 65.9461579,64.5839724 C68.8612699,64.5839724 71.2265048,61.940797 71.2265048,58.6794846 C71.2265048,55.4181722 68.8612699,52.7734457 65.9461579,52.7734457 C63.0303524,52.7734457 60.6665043,55.4181722 60.6665043,58.6794846" id="Fill-474" fill="#F69A98"></path>
            <path d="M9.16743478,58.6794846 C9.16743478,61.940797 11.5312828,64.5839724 14.4470883,64.5839724 C17.3628938,64.5839724 19.7274352,61.940797 19.7274352,58.6794846 C19.7274352,55.4181722 17.3628938,52.7734457 14.4470883,52.7734457 C11.5312828,52.7734457 9.16743478,55.4181722 9.16743478,58.6794846" id="Fill-476" fill="#F69A98"></path>
            <path d="M28.5080087,55.2562438 L50.6074,55.2562438 C51.1988696,55.2562438 51.6776783,54.7739388 51.6776783,54.1774583 C51.6776783,53.5830538 51.1988696,53.1007488 50.6074,53.1007488 L28.5080087,53.1007488 C27.9172261,53.1007488 27.4391043,53.5830538 27.4391043,54.1774583 C27.4391043,54.7739388 27.9172261,55.2562438 28.5080087,55.2562438" id="Fill-478" fill="#C1C1C1"></path>
            <path d="M50.6074,56.7439852 L28.5080087,56.7439852 C27.9172261,56.7439852 27.4391043,57.2262902 27.4391043,57.8213868 C27.4391043,58.4164833 27.9172261,58.8994803 28.5080087,58.8994803 L50.6074,58.8994803 C51.1988696,58.8994803 51.6776783,58.4164833 51.6776783,57.8213868 C51.6776783,57.2262902 51.1988696,56.7439852 50.6074,56.7439852" id="Fill-479" fill="#C1C1C1"></path>
            <path d="M50.6074,60.3865297 L28.5080087,60.3865297 C27.9172261,60.3865297 27.4391043,60.8695267 27.4391043,61.4646232 C27.4391043,62.0590278 27.9172261,62.5413328 28.5080087,62.5413328 L50.6074,62.5413328 C51.1988696,62.5413328 51.6776783,62.0590278 51.6776783,61.4646232 C51.6776783,60.8695267 51.1988696,60.3865297 50.6074,60.3865297" id="Fill-480" fill="#C1C1C1"></path>
            <path d="M50.0166174,67.5325322 L29.0987913,67.5325322 C28.0855304,67.5325322 27.2653043,68.3594396 27.2653043,69.3794074 L27.2653043,75.3684315 C27.2653043,76.3883993 28.0855304,77.2146147 29.0987913,77.2146147 L50.0166174,77.2146147 C51.0291913,77.2146147 51.8501043,76.3883993 51.8501043,75.3684315 L51.8501043,69.3794074 C51.8501043,68.3594396 51.0291913,67.5325322 50.0166174,67.5325322" id="Fill-481" fill="#CFCFCF"></path>
        </g>
    </g>
</svg>