<?xml version="1.0" encoding="UTF-8"?>
<svg width="130px" height="370px" viewBox="0 0 130 370" version="1.1" xmlns="http://www.w3.org/2000/svg" xmlns:xlink="http://www.w3.org/1999/xlink">
    <!-- Generator: Sketch 41.1 (35376) - http://www.bohemiancoding.com/sketch -->
    <title>UPI Fig</title>
    <desc>Created with Sketch.</desc>
    <defs></defs>
    <g id="Page-1" stroke="none" stroke-width="1" fill="none" fill-rule="evenodd">
        <g id="UPI-Fig" transform="translate(3.000000, 16.000000)">
            <g id="Hand" transform="translate(55.500000, 252.500000) scale(-1, 1) translate(-55.500000, -252.500000) translate(18.000000, 161.000000)">
                <polyline id="Fill-144" fill="#EDC7B8" points="7.05542169 137.481998 40.1231928 137.481998 40.1231928 111.504734 56.2075301 74.7921514 7.05542169 74.7921514 7.05542169 137.481998"></polyline>
                <path d="M68.664759,66.476391 L68.664759,66.476391 C71.3846386,68.3294576 72.0569277,72.0491431 70.239759,74.7885374 L36.9903614,124.893614 C35.1731928,127.632105 31.3960843,128.321471 28.6771084,126.467501 C25.9581325,124.614434 25.2840361,120.899266 27.103012,118.157161 L60.3524096,68.0502779 C62.1731928,65.308173 65.9457831,64.6233245 68.664759,66.476391" id="Fill-145" fill="#EDC7B8"></path>
                <path d="M64.9174699,23.5956539 L64.9174699,23.5956539 C67.6373494,25.4487205 68.3123494,29.168406 66.4924699,31.9068968 L34.448494,80.135416 C32.6286145,82.8748103 28.8551205,83.5632729 26.135241,81.7102063 C23.4162651,79.8562363 22.7403614,76.1401647 24.5620482,73.3989634 L56.6060241,25.1695408 C58.4268072,22.4283394 62.1975904,21.7425874 64.9174699,23.5956539" id="Fill-146" fill="#EDC7B8"></path>
                <path d="M20.6376506,0 L50.2246988,0 C55.9545181,0 60.6433735,4.68732779 60.6433735,10.4163844 L60.6433735,88.9562296 C60.6433735,94.6852862 55.9545181,99.3735175 50.2246988,99.3735175 L20.6376506,99.3735175 C14.9078313,99.3735175 10.2207831,94.6852862 10.2207831,88.9562296 L10.2207831,10.4163844 C10.2207831,4.68732779 14.9078313,0 20.6376506,0" id="Fill-147" fill="#666666"></path>
                <path d="M14.8003012,8.33292679 L56.0620482,8.33292679 C56.1424699,8.33292679 56.2075301,8.39888186 56.2075301,8.47838935 L56.2075301,90.0602995 C56.2075301,90.1407105 56.1424699,90.2066656 56.0620482,90.2066656 L14.8003012,90.2066656 C14.7207831,90.2066656 14.6548193,90.1407105 14.6548193,90.0602995 L14.6548193,8.47838935 C14.6548193,8.39888186 14.7207831,8.33292679 14.8003012,8.33292679" id="Fill-148" fill="#F69A98"></path>
                <path d="M27.7879518,3.59997559 L43.0753012,3.59997559 C43.4900602,3.59997559 43.8289157,3.9387859 43.8289157,4.35348973 C43.8289157,4.76819356 43.4900602,5.10700387 43.0753012,5.10700387 L27.7879518,5.10700387 C27.3731928,5.10700387 27.0343373,4.76819356 27.0343373,4.35348973 C27.0343373,3.9387859 27.3731928,3.59997559 27.7879518,3.59997559" id="Fill-149" fill="#FFFFFF"></path>
                <path d="M35.4316265,97.1942895 C36.8340361,97.1942895 37.978012,96.0504659 37.978012,94.6473394 C37.978012,93.244213 36.8340361,92.1003894 35.4316265,92.1003894 C34.0283133,92.1003894 32.8843373,93.244213 32.8843373,94.6473394 C32.8843373,96.0504659 34.0283133,97.1942895 35.4316265,97.1942895" id="Fill-150" fill="#FFFFFF"></path>
                <path d="M71.7993976,61.8550183 L71.7993976,61.8550183 C74.5192771,63.7080849 75.2177711,67.4485507 73.3743976,70.1671647 L67.1051205,79.4081032 C65.261747,82.1267171 61.511747,82.8359601 58.7927711,80.9828935 C56.0728916,79.129827 55.3707831,75.394782 57.2177711,72.6716506 L63.4879518,63.4298087 C65.3358434,60.7057737 69.0795181,60.0019517 71.7993976,61.8550183" id="Fill-151" fill="#EDC7B8"></path>
                <path d="M69.1156627,42.2202829 L69.1156627,42.2202829 C71.8355422,44.0733494 72.5358434,47.8138153 70.6915663,50.5324293 L65.3512048,58.4027671 C63.5069277,61.1222845 59.7578313,61.830624 57.0388554,59.9775574 C54.3189759,58.1244908 53.6168675,54.3894459 55.464759,51.6663145 L60.8042169,43.7941697 C62.6521084,41.0710383 66.3975904,40.3672163 69.1156627,42.2202829" id="Fill-152" fill="#EDC7B8"></path>
                <polygon id="Fill-153" fill="#AAAAAA" points="2.69638554 144.24 44.4822289 144.24 44.4822289 127.5 2.69638554 127.5"></polygon>
                <path d="M36.1012048,138.541891 C37.5126506,138.541891 38.6629518,137.391743 38.6629518,135.981389 C38.6629518,134.571034 37.5126506,133.419983 36.1012048,133.419983 C34.6915663,133.419983 33.5403614,134.571034 33.5403614,135.981389 C33.5403614,137.391743 34.6915663,138.541891 36.1012048,138.541891" id="Fill-154" fill="#444444"></path>
                <polygon id="Fill-155" fill="#354C6D" points="0 182.340015 47.1777108 182.340015 47.1777108 142.890015 0 142.890015"></polygon>
                <path d="M11.0837349,111.490278 L15.3099398,111.490278 L14.85,106.263564 L12.028012,75.5429551 C11.2274096,66.8142978 6.36144578,76.7373744 0.837650602,76.7373744 L3.28283133,103.918093 C3.65692771,108.075973 7.15572289,111.490278 11.0837349,111.490278" id="Fill-156" fill="#EDC7B8"></path>
                <path d="M1.9373494,79.4984526 L4.29126506,83.0067205 L8.37650602,79.7125807 L16.5533133,73.1261082 C23.3756024,67.6301531 22.8966867,61.4583844 19.8180723,56.8722479 L3.87831325,68.8028885 C0.548493976,71.295629 -0.252108434,76.2377421 1.9373494,79.4984526" id="Fill-157" fill="#EDC7B8"></path>
            </g>
            <g id="Auto+Driver" transform="translate(104.000000, 118.000000) scale(-1, 1) translate(-104.000000, -118.000000) translate(84.000000, 103.000000)">
                <g id="Auto">
                    <path d="M39.6575191,13.3448182 L28.6031544,13.3448182 L28.6031544,1.81270934 L10.5134439,1.81270934 C10.4069329,1.81153169 10.3006827,1.80123216 10.1957186,1.78191012 L10.1214451,1.78191012 C10.0247215,1.76163778 9.92955203,1.73369416 9.83673025,1.69831223 L9.76658311,1.66751301 C9.69886122,1.63770439 9.63273917,1.6039202 9.56852059,1.56631556 L9.46948932,1.50911701 C9.39916082,1.46230955 9.33163389,1.410878 9.2673005,1.35512089 L9.14351142,1.23632389 L9.07336428,1.16152578 C9.03210125,1.113127 8.99083822,1.06472822 8.9495752,1.01632945 L8.9495752,1.01632945 C8.74247706,0.736512636 8.60609584,0.404764819 8.55345015,0.0527537703 L35.4115537,0.0527537703 C37.7478328,0.05030098 39.646157,2.06268688 39.6575191,4.55384015 L39.6575191,13.3448182 Z" id="Path" fill="#ECECEC"></path>
                    <path d="M19.0260061,13.3580179 L19.0260061,2.25269824 L19.0260061,13.3580179 Z" id="Path" stroke="#CFCFCF" stroke-width="0.5"></path>
                    <path d="M5.21939766,20.2922428 L5.18638724,20.2350443 C3.96522414,18.0276684 3.32118624,15.5116491 3.32129847,12.9488282 C3.32129847,12.6100368 3.32129847,12.2712453 3.35843519,11.9324539 L7.05972861,11.9324539 C8.09796882,11.9324645 8.94090517,11.0375725 8.94544889,9.93050442 L8.94544889,1.59711478 L9.07749058,1.71591179 L9.12287991,1.75551079 C9.22257591,1.8298554 9.32740864,1.89604297 9.4364789,1.95350579 L9.51075235,1.99750468 C9.61905206,2.04878634 9.73076845,2.09143551 9.84498286,2.12510146 L9.93163521,2.15590068 C10.0716058,2.20208168 10.2152521,2.23448311 10.3607707,2.25269824 L10.4102863,2.25269824 L10.4102863,22.7605805 C10.4102863,23.3680784 10.8721385,23.8605528 11.441862,23.8605528 L15.6878273,23.8605528 C16.2575508,23.8605528 16.719403,23.3680784 16.719403,22.7605805 L16.719403,18.1362973 L18.5267235,18.1362973 L18.5267235,13.7980068 L19.1621741,13.7980068 L19.1621741,22.7605805 C19.1621741,23.3680784 19.6240263,23.8605528 20.1937498,23.8605528 L24.3613154,23.8605528 C24.9310389,23.8605528 25.392891,23.3680784 25.392891,22.7605805 L25.392891,18.1362973 L25.392891,18.1362973 L25.392891,15.8571548 L25.392891,15.8571548 L25.392891,15.5051637 C25.3974043,14.5643276 26.1115618,13.8028193 26.9938964,13.7980068 L28.1863979,13.7980068 L39.6575191,13.7980068 L39.6575191,23.9177513 C38.8381738,21.7502155 36.8646153,20.3321767 34.6729455,20.3362417 L32.1228905,20.3362417 C29.2467401,20.3334958 26.8803794,22.7500002 26.7586972,25.8141035 L10.7734009,25.8141035 L10.6826223,25.7613048 C8.47623647,24.5562434 6.62117749,22.7303465 5.31842892,20.4814381 L5.21939766,20.2922428 Z" id="Path" fill="#F69A98"></path>
                    <path d="M8.7800127,2.32341074 L8.7800127,10.6260011 C8.77555906,11.4832507 8.12733546,12.1783697 7.32342788,12.1879617 L3.71291312,12.1879617 C4.08147849,8.39007084 5.83816531,4.89982752 8.60258169,2.47300696 L8.7800127,2.32341074 Z" id="Path" stroke="#ECECEC" stroke-width="0.766482719"></path>
                    <path d="M36.9795487,25.792104 C36.8743566,24.4393009 35.8139428,23.3985005 34.5409039,23.3985644 L32.2508059,23.3985644 C30.9769945,23.3963869 29.9154416,24.4383052 29.8121611,25.792104 L27.1630748,25.792104 C27.2844603,22.9710288 29.4661963,20.7512635 32.1146379,20.7542312 L34.6646929,20.7542312 C37.3131346,20.7512635 39.4948705,22.9710288 39.616256,25.792104 L36.9795487,25.792104 Z" id="Path" fill="#F69A98"></path>
                    <path d="M7.18764399,26.0120985 L7.18764399,26.0120985 C7.18764397,27.8807619 5.76698676,29.395613 4.0145173,29.395613 C2.26204784,29.395613 0.841390636,27.8807619 0.84139061,26.0120985 C0.841817063,25.2020603 1.11907189,24.4199501 1.6212618,23.812154 L5.15337682,23.812154 C6.2681924,23.8096765 7.17631696,24.7662274 7.18764399,25.9548999 L7.18764399,26.0120985 Z" id="Path" fill="#CFCFCF"></path>
                    <path d="M4.010391,24.3181412 C3.14311432,24.3254329 2.44429732,25.0784586 2.44657676,26.0032639 C2.44885619,26.9280692 3.15137559,27.6771677 4.01867623,27.6795983 C4.88597686,27.6820289 5.59217925,26.9368782 5.5990175,26.0120985 C5.60011702,25.5624747 5.43309746,25.1309285 5.13493352,24.8129954 C4.83676958,24.4950623 4.43205705,24.3169688 4.010391,24.3181412 L4.010391,24.3181412 Z" id="Shape" fill="#FFFFFF"></path>
                    <path d="M0.994063806,21.5506111 L0.0450142101,21.5506111 L0.0450142101,17.9295025 L0.994063806,17.9295025 C1.93182868,17.9295025 2.69203732,18.7401153 2.69203732,19.7400568 C2.69203732,20.7399983 1.93182868,21.5506111 0.994063806,21.5506111 L0.994063806,21.5506111 Z" id="Path" fill="#F69A98"></path>
                    <path d="M7.60027425,25.792104 C7.50720967,24.4271777 6.44093598,23.3708703 5.15750312,23.3721651 L0.977558595,23.3721651 C1.8078299,21.8194237 3.3225515,20.8244634 4.99657732,20.7322317 C6.2146891,22.8329273 7.90348091,24.5777479 9.9110037,25.8097036 L7.60027425,25.792104 Z" id="Path" fill="#F69A98"></path>
                    <path d="M36.5669184,26.0120985 C36.5669184,27.878332 35.1481086,29.3912132 33.397918,29.3912132 C31.6477275,29.3912132 30.2289176,27.878332 30.2289176,26.0120985 L30.2289176,26.0120985 L30.2289176,26.0120985 C30.2334666,24.8182616 31.1435742,23.8537165 32.2631848,23.8561529 L34.5409039,23.8561529 C35.659582,23.8561308 36.5683637,24.8192706 36.575171,26.0120985 L36.5669184,26.0120985 Z" id="Path" fill="#CFCFCF"></path>
                    <path d="M18.6216285,6.00580349 L18.6216285,11.492465 L18.5803654,11.492465 C17.7730066,10.8422097 17.2984296,9.82580508 17.2984296,8.7469343 C17.2984296,7.66806351 17.7730066,6.65165888 18.5803654,6.0014036 L18.6216285,6.00580349 Z" id="Path" fill="#CFCFCF"></path>
                    <path d="M18.1099669,16.2971437 L18.1099669,17.6963084 L15.1390291,17.6963084 C14.9446444,17.6963224 14.7864273,17.5295768 14.7841671,17.3223178 L14.7841671,16.6711343 C14.7841606,16.5711787 14.8216789,16.4753799 14.8883497,16.4051152 C14.9550206,16.3348505 15.0452953,16.2959678 15.1390291,16.2971437 L18.1099669,16.2971437 Z" id="Path" fill="#CFCFCF"></path>
                    <path d="M24.9843871,16.2971437 L24.9843871,17.6963084 L22.0134492,17.6963084 C21.8190645,17.6963224 21.6608475,17.5295768 21.6585872,17.3223178 L21.6585872,16.6711343 C21.6585807,16.5711787 21.696099,16.4753799 21.7627698,16.4051152 C21.8294407,16.3348505 21.9197154,16.2959678 22.0134492,16.2971437 L24.9843871,16.2971437 Z" id="Shape" fill="#CFCFCF"></path>
                    <path d="M33.397918,24.3181412 C32.5300863,24.3230148 31.8292013,25.0749849 31.8299725,26.000369 C31.8307436,26.9257531 32.5328808,27.6763938 33.4007193,27.6796228 C34.2685578,27.6828518 34.9755907,26.9374543 34.9824182,26.0120985 C34.9846196,25.5628806 34.8185214,25.1313193 34.5210112,24.8132571 C34.2235011,24.495195 33.8192077,24.3169622 33.397918,24.3181412 L33.397918,24.3181412 Z" id="Shape" fill="#FFFFFF"></path>
                </g>
            </g>
            <g id="Food-Delivery" transform="translate(25.000000, 17.000000) scale(-1, 1) translate(-25.000000, -17.000000) translate(7.000000, 0.000000)">
                <g id="Group">
                    <path d="M24.4337077,16.0073555 C24.1722501,16.2979708 23.813404,16.4692054 23.4232648,16.4891266 C23.2482286,16.4982083 23.0685131,16.5028956 22.8893825,16.503628 L22.88909,16.503628 L22.8809012,16.503628 C22.5213239,16.503628 22.1675958,16.4834139 21.8203017,16.4443038 C21.8276132,16.4976224 21.839604,16.5510874 21.8594911,16.6035271 C22.0025032,16.9818836 22.4242278,17.1727464 22.8020837,17.0300753 L24.191991,16.5034816 L27.4906264,26.1402209 C27.7551548,25.850338 28.0527309,25.593413 28.3773594,25.3728149 C28.4835218,25.300747 28.5918775,25.2316086 28.7037427,25.1674506 C28.9878658,25.0045654 29.2896826,24.8677536 29.6067072,24.7600912 C29.6377078,24.7495446 29.6690008,24.7404629 29.7001476,24.7305023 C30.1462925,24.5884172 30.6057442,24.5082929 31.0698753,24.4926196 C31.1267584,24.4907154 31.1834953,24.4891041 31.2405246,24.4891041 C33.0065331,24.4891041 34.6115434,25.4015249 35.5307393,26.8475704 C36.0774898,26.8213506 36.217431,26.500414 35.3388868,25.3534796 C33.9219271,23.503883 31.9509054,23.1453012 30.5648001,23.1639041 C30.4776476,22.928951 30.3877167,22.6834514 30.2939839,22.4238897 C29.444393,20.0712826 27.5366885,18.950568 26.4137955,18.4767068 L26.1040823,17.5717565 L27.2845896,17.5717565 C27.5162165,18.5578565 28.3979777,19.2928906 29.4531667,19.2928906 C30.6847079,19.2928906 30.6847079,14.825266 29.4531667,14.825266 C28.3979777,14.825266 27.5162165,15.5603001 27.2845896,16.5464001 L25.7529863,16.5464001 L25.3311155,15.3139216 C25.2666285,15.1262814 25.1300505,14.9730638 24.9506274,14.8888381 C24.9010558,14.8655479 24.8492907,14.8492886 24.7966482,14.8377168 C24.8014738,14.8752155 24.8060069,14.9127143 24.8080541,14.9509454 C24.827795,15.3414597 24.6953115,15.7167402 24.4337077,16.0073555 Z" id="Shape" fill="#EEEEEE"></path>
                    <ellipse id="Oval" fill="#CFCFCF" transform="translate(18.909054, 4.445483) rotate(-76.890715) translate(-18.909054, -4.445483) " cx="18.9090542" cy="4.44548261" rx="3.28914421" ry="3.29506996"></ellipse>
                    <path d="M14.6430866,21.0071401 C14.6483508,21.0080189 14.6533226,21.0094837 14.6585868,21.0103626 L20.2038856,21.8741522 L22.2810695,27.1481463 C22.5647539,27.8682395 23.2533466,28.307678 23.9820061,28.307678 C24.2050054,28.307678 24.4318067,28.2665173 24.6521739,28.1795084 C25.5915494,27.8086224 26.0523172,26.7451812 25.6816266,25.8044899 L23.2201526,19.5546494 C22.9823842,18.9515933 22.4401668,18.5169887 21.800707,18.4175291 L17.2064821,17.7015373 C17.1842553,16.6887781 17.2877855,15.6429145 17.4407411,14.6376258 C17.0601068,14.3360245 16.6980437,14.0020513 16.3593771,13.6330694 C15.2031439,12.3686584 14.6620963,11.1281236 14.5239099,10.7777447 L14.5228863,10.7755475 L14.5165984,10.7598742 C14.3789969,10.3936754 14.3920112,9.99583712 14.5534481,9.63945251 C14.7147388,9.28306791 15.004711,9.01105549 15.3705762,8.87351124 C15.5362537,8.81081802 15.7093889,8.77903197 15.8854487,8.77903197 C16.4908371,8.77903197 17.0405122,9.16061105 17.2538604,9.72821909 C17.2575161,9.73803321 17.26512,9.75561075 17.2757947,9.78080522 C17.2996301,9.83588151 17.3380883,9.92113258 17.392778,10.0301133 C17.495577,10.2354776 17.6711981,10.5565606 17.9259292,10.9195368 C17.9810575,10.9981963 18.0410114,11.0806642 18.1060834,11.1656224 C18.4408017,9.74374591 17.8876171,8.11577283 16.6860529,7.81578282 C15.4376953,7.50407446 13.6281106,8.18315339 12.8919935,10.3279061 C11.8967584,13.2831299 11.6828253,15.2065521 12.0609736,18.4605941 C12.4265463,20.3449063 13.5304296,20.8777987 14.6430866,21.0071401 Z" id="Shape" fill="#CFCFCF"></path>
                    <path d="M17.1311742,10.161066 C17.0732675,10.0456401 17.0324696,9.95496934 17.0076106,9.8974029 C16.9950349,9.86854644 16.9865536,9.84803931 16.9821668,9.83676039 C16.9812894,9.83470968 16.9805582,9.83295192 16.9798271,9.83134065 L16.9799733,9.83134065 C16.7522947,9.22550147 16.0778862,8.91921285 15.4730828,9.14728142 C14.8682793,9.37505703 14.5626606,10.0509134 14.7900468,10.6564596 C14.8251417,10.7422966 15.3210045,12.0639811 16.5744801,13.4344432 C16.8431029,13.7269628 17.1500377,14.0209471 17.4929449,14.3036525 C17.9510806,14.6811302 18.475458,15.0378078 19.0770444,15.3382372 C19.8710682,15.7356361 20.7964058,16.0304993 21.8400427,16.1506125 C22.1749072,16.1892831 22.5214701,16.2105226 22.8803163,16.2105226 L22.8883589,16.2105226 C23.0594469,16.2102296 23.2325821,16.2058352 23.4077645,16.1967535 C24.0530734,16.1633562 24.5489362,15.6123003 24.5154497,14.9658863 C24.5131101,14.9210636 24.5078458,14.8772662 24.5006806,14.8340548 C24.4049005,14.253703 23.8876883,13.825104 23.2869793,13.8561577 C23.1498164,13.8630422 23.0168942,13.8665577 22.8882126,13.8665577 C21.7672206,13.8653859 20.8709826,13.6137341 20.120535,13.2406509 C19.2180092,12.7913982 18.5273693,12.146742 18.0233177,11.5294774 C17.900924,11.3796289 17.7862804,11.2309522 17.6859673,11.0875488 C17.4300664,10.7220824 17.2466951,10.3919177 17.1311742,10.161066 Z" id="Shape" fill="#CFCFCF"></path>
                    <path d="M0.780424544,20.9100242 L10.0161063,20.9100242 C10.4470434,20.9100242 10.7965309,20.5599382 10.7965309,20.1282631 L10.7965309,11.0069851 C10.7965309,10.5751635 10.4470434,10.225224 10.0161063,10.225224 L0.780424544,10.225224 C0.349487476,10.225224 0,10.57531 0,11.0069851 L0,20.1282631 C0,20.5600846 0.349487476,20.9100242 0.780424544,20.9100242 Z" id="Shape" fill="#F69A98"></path>
                    <path d="M13.7083903,28.1852211 C12.9358622,25.9027777 10.4625437,24.6796739 8.1838561,25.4536716 C6.04101532,26.1813817 4.83418681,28.4157799 5.34028562,30.5776707 C5.37245601,30.7147755 5.41076803,30.8515874 5.45697641,30.9876668 C6.22935836,33.2701103 8.70282307,34.493214 10.9815107,33.7192164 C12.4604715,33.2169382 13.4931412,31.9964711 13.8249349,30.5776707 C14.0042118,29.8107041 13.979499,28.9860245 13.7083903,28.1852211 Z M10.1351368,31.2192509 C9.39492525,31.4706097 8.60309484,31.1876113 8.17537482,30.5776707 C8.08310427,30.4461321 8.00691893,30.2999456 7.95281417,30.13999 C7.6476341,29.2382622 8.1300438,28.2593398 9.03008373,27.9536371 C9.93012365,27.6479344 10.9075187,28.1313167 11.2125526,29.032898 C11.3959238,29.5745791 11.2935635,30.1430661 10.9886759,30.5776707 C10.7860024,30.8666747 10.4945679,31.097087 10.1351368,31.2192509 Z" id="Shape" fill="#CFCFCF"></path>
                    <path d="M26.2090748,28.8199168 L16.8856556,28.8199168 C16.0796409,27.1909183 15.8023906,25.5280831 15.7105588,24.4461856 C15.9499358,24.3727994 16.1251182,24.1523477 16.1251182,23.8885382 L16.1251182,22.2772637 C16.1251182,21.9536905 15.8632219,21.6913458 15.5402019,21.6913458 L3.62253274,21.6913458 C3.29951272,21.6913458 3.03761646,21.9536905 3.03761646,22.2772637 L3.03761646,23.8885382 C3.03761646,24.2121114 3.29951272,24.4744561 3.62253274,24.4744561 L3.68701976,24.4744561 C3.05180068,26.0357811 2.071481,28.7422827 2.071481,30.5778172 L4.59276261,30.5778172 C4.37327278,29.4817111 4.51818579,28.3501571 5.02033641,27.3310992 C5.62206903,26.1104856 6.6621964,25.197186 7.94901222,24.7603841 C8.47865391,24.5802143 9.02832898,24.4892506 9.58297584,24.4892506 C11.7641286,24.4892506 13.7002015,25.8799269 14.4006388,27.9504145 C14.6973375,28.8270943 14.7398902,29.729408 14.5704107,30.5778172 L15.5975237,30.5778172 L18.0103033,30.5778172 L26.2504576,30.5778172 C26.1337668,29.9942429 26.1203138,29.4011474 26.2090748,28.8199168 Z" id="Shape" fill="#EEEEEE"></path>
                    <path d="M34.5445705,26.7426911 C33.7471833,25.8135717 32.5871481,25.257682 31.3610174,25.2234058 C30.9461655,25.2118339 30.5240022,25.2604651 30.105787,25.3739867 C30.0174647,25.3980093 29.9291423,25.4237897 29.8412587,25.4536716 C29.5208708,25.5625058 29.222271,25.7060557 28.9463368,25.8769973 C28.8455849,25.9392511 28.7479039,26.0047274 28.6535862,26.0743052 C28.3143347,26.3249316 28.0169048,26.6208202 27.7677305,26.950692 C27.353756,27.4989647 27.0727037,28.1403984 26.9510411,28.8199168 C26.8491194,29.389722 26.8592092,29.986333 26.9975419,30.5776707 C27.0297123,30.7147755 27.0680244,30.8515874 27.1142327,30.9876668 C27.8866147,33.2701103 30.3600794,34.493214 32.638767,33.7192164 C34.9173083,32.9453652 36.1383211,30.4676646 35.3656467,28.1852211 C35.1812518,27.6391456 34.8981523,27.1545914 34.5445705,26.7426911 Z M31.7928318,31.2192509 C30.8927919,31.5249536 29.9153968,31.0415713 29.610363,30.13999 C29.3051829,29.2382622 29.7875926,28.2593398 30.6876325,27.9536371 C31.5876724,27.6479344 32.5650675,28.1313167 32.8701014,29.032898 C33.1754277,29.9344793 32.693018,30.9134017 31.7928318,31.2192509 Z" id="Shape" fill="#CFCFCF"></path>
                </g>
            </g>
            <g id="Merchant" transform="translate(72.000000, 1.000000)">
                <g id="Body-House" transform="translate(1.044225, 14.027310)">
                    <path d="M31.6743115,1.48595979 C31.6257913,1.4880675 31.576578,1.49368804 31.5252852,1.49368804 C30.5236903,1.49368804 29.6274535,1.03280346 29.0264965,0.311266175 C28.4283121,1.02437265 27.5369273,1.47752898 26.5436501,1.47752898 C25.5579976,1.47752898 24.672851,1.02999319 24.0739735,0.324614966 C23.4730166,1.03842401 22.5850975,1.49087777 21.5883546,1.49087777 C20.5839871,1.49087777 19.6877502,1.02999319 19.0895658,0.305645631 C18.4886089,1.0187521 17.5979172,1.47752898 16.6011743,1.47752898 C15.6155217,1.47752898 14.7303752,1.02999319 14.1321908,0.324614966 C13.5333133,1.03842401 12.6426216,1.49087777 11.6486513,1.49087777 C10.6470564,1.49087777 9.75081954,1.02999319 9.14986258,0.308455903 C8.55167821,1.02156237 7.66098653,1.4747187 6.66701621,1.4747187 C5.68136362,1.4747187 4.79621711,1.02718292 4.19733959,0.321804694 C3.59915521,1.03561373 2.70846353,1.4880675 1.71449321,1.4880675 L1.71449321,18.4571913 L0.163234081,18.4571913 L0.163234081,20.7321063 L33.2311158,20.7321063 L33.2311158,18.4571913 L31.6798566,18.4571913 L31.6798566,1.48595979 L31.6743115,1.48595979 Z" id="Fill-1" fill="#EEEEEE"></path>
                    <polygon id="Path" fill="#CFCFCF" points="22.8450269 5.24540091 30.0662144 5.24540091 30.0662144 11.8867758 22.8450269 11.8867758"></polygon>
                    <polygon id="Path" fill="#CFCFCF" points="3.35031606 5.24540091 10.5742761 5.24540091 10.5742761 11.8867758 3.35031606 11.8867758"></polygon>
                    <polygon id="Path" fill="#F69A98" points="12.2094058 5.24540091 21.1773194 5.24540091 21.1773194 18.4628118 12.2094058 18.4628118"></polygon>
                </g>
                <g id="Shade">
                    <path d="M5.24710974,12.261083 L5.24710974,11.7559366 C5.67755295,9.81263368 6.11631391,7.87003329 6.55230229,5.9295406 C6.98829067,3.98623765 7.42982421,2.04082698 7.86304001,0.0975240272 L3.94261033,0.0975240272 C3.33333563,2.04082698 2.71851577,3.98623765 2.10924107,5.9295406 C1.49996638,7.87284356 0.887919098,9.81544395 0.278644401,11.7587469 L0.27587182,11.7587469 L0.27587182,12.261083 C0.27587182,13.646547 1.3946083,14.7804917 2.76149078,14.7804917 C4.12906641,14.7804917 5.24710974,13.646547 5.24710974,12.261083 Z" id="Fill-2" fill="#F69A98"></path>
                    <path d="M10.2072929,12.261083 L10.2229716,11.7559366 L10.9904616,5.9295406 L11.7788566,0.0975240272 L7.85778667,0.0975240272 L6.54727921,5.9295406 L5.23680362,11.7587469 L5.23680362,12.261083 C5.23680362,12.261083 4.71371357,14.7804917 7.46050323,14.7804917 C10.2072929,14.7804917 10.2072929,12.261083 10.2072929,12.261083 Z" id="Fill-2-Copy" fill="#F9F9F9"></path>
                    <path d="M28.5679977,12.261083 L28.5836764,11.7559366 L29.3511664,5.9295406 L30.1395614,0.0975240272 L26.2184915,0.0975240272 L24.907984,5.9295406 L23.5975084,11.7587469 L23.5975084,12.261083 C23.5975084,12.261083 23.0744183,14.7804917 25.821208,14.7804917 C28.5679977,14.7804917 28.5679977,12.261083 28.5679977,12.261083 Z" id="Fill-2-Copy-2" fill="#F9F9F9" transform="translate(26.848637, 7.439008) scale(-1, 1) translate(-26.848637, -7.439008) "></path>
                    <path d="M35.0468114,11.6814644 C34.4430819,9.76345392 33.842125,7.84474084 33.241168,5.9295406 C32.6318933,3.98623765 32.0170734,2.04082698 31.4057193,0.0975240272 L27.4818239,0.0975240272 C27.9178123,2.04082698 28.3593458,3.98623765 28.7925616,5.9295406 C29.22855,7.87284356 29.6617658,9.81544395 30.1005268,11.7587469 L30.1060719,11.7587469 L30.1060719,12.2196315 C30.1060719,13.6057981 31.2241152,14.7390402 32.5916909,14.7390402 C33.9585734,14.7390402 35.0766167,13.6057981 35.0766167,12.2196315 L35.0766167,11.6786542 L35.0468114,11.6814644 Z" id="Fill-3" fill="#F69A98"></path>
                    <path d="M20.1635961,11.7587469 L20.1635961,12.2140109 C20.1635961,13.6001775 21.2816394,14.7334196 22.649215,14.7334196 C23.9890649,14.7334196 25.0856207,13.6409265 25.1265163,12.2912934 C25.1265163,12.2638933 25.1181985,12.2386008 25.1181985,12.2112007 L25.1181985,11.6491463 C24.858269,9.74167432 24.6038847,7.83420232 24.3467278,5.9295406 C24.0840258,3.98623765 23.8213237,2.04082698 23.5558491,0.0975240272 L19.6326468,0.0975240272 C19.7220625,2.04082698 19.8114783,3.98623765 19.8981214,5.9295406 C19.9847646,7.87284356 20.0714078,9.81544395 20.1635961,11.7587469 Z" id="Fill-4" fill="#F69A98"></path>
                    <polygon id="Fill-5" fill="#CFCFCF" points="20.5670066 27.2068111 21.484731 27.2068111 21.484731 24.6185507 20.5670066 24.6185507"></polygon>
                    <path d="M12.6928763,14.7306093 C14.0604519,14.7306093 15.1784953,13.5973672 15.1784953,12.2112007 L15.1784953,11.7587469 L15.1840404,11.7587469 C15.267911,9.81544395 15.3573267,7.87284356 15.4439699,5.9295406 C15.5306131,3.98623765 15.6172562,2.04082698 15.7038994,0.0975240272 L11.7862423,0.0975240272 C11.5263128,2.04082698 11.2608382,3.98623765 11.0009087,5.9295406 C10.7382066,7.87284356 10.4755046,9.81544395 10.2183477,11.7587469 L10.2100299,11.7587469 L10.2100299,12.2112007 C10.2100299,12.2224418 10.2079505,12.2308726 10.2079505,12.2386008 C10.2238928,13.610716 11.3343116,14.7306093 12.6928763,14.7306093 Z" id="Fill-6" fill="#F69A98"></path>
                    <path d="M17.7518248,14.7306093 C19.3181623,14.7306093 20.1744344,13.5077802 20.163982,12.2112007 L20.1744344,11.7587469 L19.9029257,5.9295406 L19.6314171,0.0975240272 L15.7014284,0.0975240272 C15.4231916,5.1953001 15.7014284,1.55859003 15.4231916,5.9295406 C15.1449548,10.3004912 15.1777588,10.9101302 15.1777588,11.7587469 C15.1749862,11.7587469 15.169441,12.2112007 15.169441,12.2112007 C15.1833039,13.610716 16.1854873,14.7306093 17.7518248,14.7306093 Z" id="Fill-6-Copy" fill="#F9F9F9"></path>
                </g>
            </g>
            <g id="P2P-B" transform="translate(0.000000, 89.000000)">
                <polyline id="Fill-804" fill="#FBCFCE" points="22.6913058 28.053 21.5785785 27.5358 21.5785785 23.9694 14.4380826 23.9694 14.4380826 27.5358 13.3208926 28.0218 13.6184132 38.1357 14.4380826 38.1357 14.4380826 39.6864 21.5785785 39.6864 21.5785785 38.1357 22.3937851 38.1357 22.6913058 28.053"></polyline>
                <path id="Fill-805" fill="#DB7C3E"></path>
                <path d="M21.5785785,27.2958 L14.4380826,25.8645 L14.4380826,24.4482 C15.6641653,25.3047 16.9705785,25.8252 18.0139835,25.8255 L18.014281,25.8255 L18.014876,25.8255 C19.0547107,25.8255 20.3560661,25.3089 21.5785785,24.4575 L21.5785785,27.2958" id="Fill-806" fill="#FFBFBD"></path>
                <path d="M34.0542149,33.6399 C33.4829752,30.2775 28.598876,30.2766 22.7912727,28.0764 L22.5258843,29.0811 C22.0668099,30.4074 20.8895207,32.5764 18.0946116,32.5764 C14.9414876,32.5764 13.7386116,29.8149 13.3655207,28.6185 L13.2221157,28.0764 C7.4145124,30.2766 2.52952066,30.2775 1.9597686,33.6399 C1.37603306,37.0845 0.384991736,40.8276 0.0223140496,44.7837 L35.9910744,44.7837 C35.6280992,40.8276 34.6373554,37.0845 34.0542149,33.6399 Z" id="Fill-807" fill="#F1F1F1"></path>
                <polygon id="Fill-808" fill="#F69A98" points="19.0383471 33.7209 16.9524298 33.7209 16.6195041 44.7899963 19.3793058 44.7899963"></polygon>
                <polyline id="Fill-809" fill="#F69A98" points="19.7238347 32.0808 19.0383471 33.4047 16.9524298 33.4047 16.2865785 32.0808 18.0053554 30.6642 19.7238347 32.0808"></polyline>
                <polyline id="Fill-810" fill="#CFCFCF" points="14.3991074 27.3021 12.0558347 28.4787 15.8105455 32.9958 18.0065455 30.6645 15.2806612 28.1244 14.3991074 27.3021"></polyline>
                <polyline id="Fill-811" fill="#CFCFCF" points="21.6154711 27.303 18.0065455 30.6639 20.2025455 32.9967 23.9566612 28.4772 21.6154711 27.303"></polyline>
                <path d="M25.8063471,13.6938 L26.0482314,10.5255 C26.0482314,6.3825 22.1209587,3.0255 18.014876,3.0255 C13.9061157,3.0255 9.9821157,6.3825 9.9821157,10.5255 L10.223405,13.6908 C9.99371901,13.7466 9.78634711,13.8528 9.61289256,14.0025 C9.29186777,14.2785 9.0892562,14.6865 9.0892562,15.1455 L9.0892562,16.7055 C9.0892562,17.5305 9.74796694,18.1995 10.5679339,18.2046 C10.5679339,22.1169 15.2297851,25.8255 18.014876,25.8255 C20.800562,25.8255 25.4624132,22.1175 25.4624132,18.2049 C26.2788099,18.1992 26.9396033,17.5308 26.9396033,16.7061 L26.9396033,15.1461 C26.9396033,14.4417 26.4558347,13.8546 25.8063471,13.6938" id="Fill-812" fill="#FBCFCE"></path>
                <path d="M27.2380165,3.4425 C27.1817851,2.9931 26.7271736,3.0609 26.2788099,3.0891 C24.8798678,3.1776 24.5380165,2.7021 21.6812231,1.0062 C18.8345455,-0.6837 15.9215207,-0.0099 13.9801983,1.4448 C5.05041322,3.5232 10.2808264,15.7461 10.2808264,15.7461 C10.2808264,15.7461 10.2480992,9.3126 13.009686,7.3566 C17.6343471,10.5363 22.3598678,10.7094 25.0503471,8.8182 C26.0883967,11.2596 25.7492231,15.7461 25.7492231,15.7461 C25.7492231,15.7461 27.5355372,11.208 26.560562,7.1916 C27.1579835,6.1716 27.4209917,4.908 27.2380165,3.4425" id="Fill-814" fill="#AAAAAA"></path>
                <path d="M16.0554242,20.5136268 C15.8961053,20.3770016 15.6612121,20.6088238 15.8231571,20.7477996 C16.9173803,21.6818465 19.0862767,22.0846707 19.9216797,20.6202827 C19.9788711,20.4528066 19.7702392,20.3241144 19.6482698,20.4516313 C18.9199548,21.7118159 16.9766143,21.3019401 16.0554242,20.5136268 Z" id="Path" fill="#EF5350"></path>
                <ellipse id="Oval" fill="#909090" cx="14.2809917" cy="14.4" rx="0.595041322" ry="0.6"></ellipse>
                <path d="M16.356092,12.8314737 C16.356092,12.8314737 16.4302233,13.0967783 16.1137339,13.145083 C15.7970899,13.1932639 15.6127677,12.9710621 14.6492164,12.978122 C13.6855103,12.9853058 12.9879957,13.3889601 12.5487798,13.3080806 C12.1090995,13.2272011 12.1058495,12.9753971 12.4127435,12.8239183 C13.21983,12.4253422 16.012055,12.1799788 16.356092,12.8314737" id="Fill-217" fill="#909090"></path>
                <path d="M23.7941085,12.8314737 C23.7941085,12.8314737 23.8682398,13.0967783 23.5517505,13.145083 C23.2351064,13.1932639 23.0507843,12.9710621 22.0872329,12.978122 C21.1235269,12.9853058 20.4260123,13.3889601 19.9867963,13.3080806 C19.547116,13.2272011 19.543866,12.9753971 19.8507601,12.8239183 C20.6578465,12.4253422 23.4500715,12.1799788 23.7941085,12.8314737" id="Fill-217-Copy" fill="#909090" transform="translate(21.719008, 12.873893) scale(-1, 1) translate(-21.719008, -12.873893) "></path>
                <ellipse id="Oval-Copy" fill="#909090" cx="21.7190083" cy="14.4" rx="0.595041322" ry="0.6"></ellipse>
            </g>
            <g id="Notes-+-Coins" transform="translate(26.000000, 45.000000)">
                <g id="Money-fly-Copy-5">
                    <g id="Group">
                        <path d="M17.6861718,5.87918085 L12.0563224,0.325448704 C11.7770819,0.0499835893 11.3722957,-0.0605356804 10.988903,0.0327670197 C10.7867914,0.0816398625 10.6060732,0.184383907 10.4630751,0.325448704 C10.3352775,0.451518423 10.2390071,0.607578297 10.1838345,0.781965486 C9.92880236,1.59780874 9.48798515,2.30702033 8.83548561,2.95014252 C7.96398492,3.80930488 6.82900729,4.46020229 5.62816042,5.1483097 C4.35356252,5.87695936 3.03674075,6.63226693 1.95749863,7.69636201 C1.04039616,8.60217572 0.416045869,9.60962273 0.0501056594,10.7792387 C-0.0731880419,11.1741091 0.0343420812,11.6011911 0.329346188,11.8933174 L5.95919556,17.4470495 C6.23843609,17.7225146 6.64322226,17.8330339 7.026615,17.7397312 C7.2287266,17.6897476 7.40944476,17.5881143 7.55244294,17.4470495 C7.68024052,17.3209798 7.77651094,17.1649199 7.83168346,16.989422 C8.08727863,16.1735788 8.52809583,15.4643672 9.18115836,14.821245 C10.0520961,13.9620826 11.1865107,13.312296 12.3884835,12.6247439 C13.6619555,11.8949835 14.9793402,11.1396759 16.0580194,10.0755809 C16.9751218,9.17087789 17.5994721,8.16232013 17.9659753,6.99270414 C18.088706,6.59838916 17.9806129,6.16964104 17.6861718,5.87918085 Z" id="Shape" fill="#FEBBBA"></path>
                        <path d="M8.45886648,13.3914837 L8.45774051,13.3914837 C8.10587492,13.6580628 7.76245411,13.9390817 7.44436762,14.2539783 C7.1386668,14.5555459 6.8622412,14.8732194 6.62184663,15.1975574 L6.23676493,15.7162759 L6.2378909,15.7173867 C6.16751778,15.8256845 6.17934047,15.9711923 6.27504791,16.0656057 C6.38482997,16.1739035 6.56442216,16.1739035 6.67476721,16.0656057 C6.69165676,16.0483891 6.7051684,16.0300618 6.7164281,16.0100684 L7.07617547,15.5241168 C7.29911751,15.2236599 7.55696461,14.927646 7.84239797,14.6466271 C8.15823252,14.3350628 8.45098469,14.0945862 8.80735415,13.8274516 L8.80622818,13.8263409 C8.81636191,13.8185657 8.82593266,13.8124566 8.83494042,13.8035706 C8.94528546,13.6952728 8.94528546,13.5181088 8.83494042,13.409811 C8.73304014,13.3076223 8.56977451,13.3031793 8.45886648,13.3914837 Z" id="Shape" fill="#F5F5F5"></path>
                        <path d="M10.101498,3.19992162 C9.80705686,3.49038181 9.4878444,3.75196259 9.15680926,4.00132517 C9.13372688,4.01409875 9.1106445,4.02853845 9.09094002,4.04908726 C8.98003199,4.15849579 8.98003199,4.33677059 9.09094002,4.44617911 C9.19847015,4.55336614 9.37243249,4.55558764 9.48446649,4.45395434 L9.48671843,4.45506508 C9.83858402,4.18848594 10.1814418,3.90635635 10.4995283,3.59257048 C10.8052292,3.29100283 11.0810918,2.97444009 11.3220493,2.65010214 L11.707131,2.12916206 L11.7060051,2.12805131 C11.8017125,2.01753204 11.7972086,1.8525862 11.6919304,1.74817604 C11.5810224,1.63876751 11.4014302,1.63876751 11.2905222,1.74817604 C11.2696917,1.76872484 11.2544911,1.79260589 11.2409795,1.81648694 L10.8671575,2.32187657 C10.6436525,2.6239996 10.3863684,2.91890277 10.101498,3.19992162 Z" id="Shape" fill="#F5F5F5"></path>
                        <path d="M7.32207325,6.44298131 L7.32207325,6.44990507 L7.30533091,6.44990507 L7.30533091,7.15889906 L8.03918838,7.15889906 C8.70582859,7.15889906 9.04233352,7.47204703 9.16369233,7.8609693 L7.32207325,7.8609693 L7.32207325,8.56996329 L9.16369233,8.56996329 C9.0427264,8.95916221 8.7066415,9.27341827 8.03918838,9.27341827 L7.81038152,9.27341827 L7.80759065,9.27064873 L7.8048005,9.27341827 L7.30533091,9.27341827 L7.30533091,9.98241262 L7.51600106,9.98241262 L9.69525012,12.1149333 L10.1975099,11.6108825 L8.48703657,9.93533045 C9.26186415,9.77407473 9.75934364,9.20169658 9.89615401,8.56996329 L10.8713755,8.56996329 L10.8713755,7.8609693 L9.89615401,7.8609693 C9.8407374,7.6059202 9.72059651,7.36473122 9.55294372,7.15197531 L10.8713755,7.15197531 L10.8713755,6.44298131 L7.32207325,6.44298131 Z" id="Path" fill="#FFFFFF" transform="translate(9.088353, 9.278957) rotate(-45.000000) translate(-9.088353, -9.278957) "></path>
                    </g>
                </g>
                <g id="Money-fly-Copy-4" transform="translate(48.301305, 24.230769) rotate(79.000000) translate(-48.301305, -24.230769) translate(37.536599, 13.500000)">
                    <g id="Group" transform="translate(-0.000000, 0.000000)">
                        <path d="M21.0549664,7.05501702 L14.3527648,0.390538444 C14.0203356,0.0599803072 13.5384473,-0.0726428165 13.0820274,0.0393204236 C12.8414183,0.097967835 12.6262777,0.221260689 12.4560417,0.390538444 C12.3039018,0.541822108 12.1892941,0.729093956 12.1236125,0.938358583 C11.8200028,1.91737049 11.2952204,2.7684244 10.5184352,3.54017102 C9.48093443,4.57116585 8.12977058,5.35224274 6.70019098,6.17797164 C5.18281252,7.05235123 3.61516756,7.95872031 2.33035551,9.23563441 C1.23856686,10.3226109 0.495292701,11.5315473 0.0596495946,12.9350865 C-0.0871286213,13.4089309 0.04088343,13.9214293 0.392078796,14.2719809 L7.09428043,20.9364594 C7.42670963,21.2670176 7.90859793,21.3996407 8.36501786,21.2876775 C8.6056269,21.2276972 8.82076757,21.1057372 8.99100349,20.9364594 C9.14314347,20.7851758 9.25775112,20.5979039 9.3234327,20.3873064 C9.62771265,19.4082945 10.152495,18.5572406 10.9299504,17.785494 C11.966781,16.7544991 13.3172747,15.9747551 14.7481947,15.1496927 C16.2642327,14.2739802 17.8325479,13.3676111 19.1166897,12.090697 C20.2084784,11.0050535 20.9517525,9.79478416 21.3880659,8.39124497 C21.5341739,7.91806699 21.4054916,7.40356925 21.0549664,7.05501702 Z" id="Shape" fill="#FEBBBA"></path>
                        <path d="M10.0700791,16.0697804 L10.0687387,16.0697804 C9.6498511,16.3896754 9.2410168,16.726898 8.86234241,17.1047739 C8.49841286,17.4666551 8.16933476,17.8478633 7.88315075,18.2370688 L7.42472016,18.8595311 L7.4260606,18.860864 C7.34228308,18.9908214 7.3563577,19.1654307 7.47029513,19.2787268 C7.60098806,19.4086842 7.81478829,19.4086842 7.94615144,19.2787268 C7.96625805,19.258067 7.98234333,19.2360742 7.99574773,19.2120821 L8.42401842,18.6289402 C8.6894256,18.2683919 8.99638644,17.9131752 9.33618806,17.5759526 C9.71218157,17.2020753 10.0606961,16.9135034 10.4849454,16.592942 L10.483605,16.5916091 C10.4956689,16.5822788 10.5070627,16.5749479 10.5177862,16.5642847 C10.6491494,16.4343274 10.6491494,16.2217305 10.5177862,16.0917732 C10.3964764,15.9691468 10.2021125,15.9638152 10.0700791,16.0697804 Z" id="Shape" fill="#F5F5F5"></path>
                        <path d="M12.0255928,3.83990594 C11.6750677,4.18845817 11.2950529,4.50235511 10.9009634,4.8015902 C10.8734844,4.8169185 10.8460054,4.83424615 10.8225476,4.85890472 C10.6905143,4.99019494 10.6905143,5.20412471 10.8225476,5.33541493 C10.9505597,5.46403937 11.1576577,5.46670516 11.2910315,5.3447452 L11.2937124,5.3460781 C11.7126,5.02618313 12.1207641,4.68762762 12.4994385,4.31108458 C12.863368,3.94920339 13.1917759,3.56932811 13.4786302,3.18012256 L13.9370607,2.55499447 L13.9357203,2.55366158 C14.0496577,2.42103845 14.044296,2.22310344 13.9189648,2.09781124 C13.7869314,1.96652102 13.5731312,1.96652102 13.4410978,2.09781124 C13.4162997,2.12246981 13.3982037,2.15112707 13.3821185,2.17978433 L12.9370923,2.78625188 C12.6710149,3.14879951 12.3647242,3.50268333 12.0255928,3.83990594 Z" id="Shape" fill="#F5F5F5"></path>
                        <path d="M8.71675387,7.73157758 L8.71675387,7.73988608 L8.69682251,7.73988608 L8.69682251,8.59067887 L9.57046236,8.59067887 C10.3640817,8.59067887 10.7646828,8.96645643 10.9091575,9.43316316 L8.71675387,9.43316316 L8.71675387,10.283956 L10.9091575,10.283956 C10.7651505,10.7509947 10.3650494,11.1281019 9.57046236,11.1281019 L9.29807324,11.1281019 L9.29475078,11.1247785 L9.29142917,11.1281019 L8.69682251,11.1281019 L8.69682251,11.9788951 L8.94762031,11.9788951 L11.5419644,14.5379199 L12.1398927,13.933059 L10.103615,11.9223965 C11.0260288,11.7288897 11.6182662,11.0420359 11.7811357,10.283956 L12.9421137,10.283956 L12.9421137,9.43316316 L11.7811357,9.43316316 C11.7151636,9.12710424 11.5721387,8.83767746 11.3725521,8.58237037 L12.9421137,8.58237037 L12.9421137,7.73157758 L8.71675387,7.73157758 Z" id="Path" fill="#FFFFFF" transform="translate(10.819468, 11.134749) rotate(-45.000000) translate(-10.819468, -11.134749) "></path>
                    </g>
                </g>
                <path d="M26.2938795,44.5384615 C31.2650414,44.5384615 35.2941176,48.5410385 35.2941176,53.4807692 C35.2941176,58.4229763 31.2650649,62.4230769 26.2938795,62.4230769 C21.3210988,62.4230769 17.3529412,58.427929 17.3529412,53.4807692 C17.3529412,48.5359482 21.3211223,44.5384615 26.2938795,44.5384615 Z M22.9110404,48.3625514 L22.9110404,48.3759863 L22.8786938,48.3759863 L22.8786938,49.751726 L24.2965215,49.751726 C25.584484,49.751726 26.2346185,50.3593617 26.4690862,51.1140307 L22.9110404,51.1140307 L22.9110404,52.4897703 L26.4690862,52.4897703 C26.2353775,53.2449761 25.5860546,53.854762 24.2965215,53.854762 L23.8544619,53.854762 L23.8490699,53.849388 L23.8436793,53.854762 L22.8786938,53.854762 L22.8786938,55.2305023 L23.2857129,55.2305023 L27.4960667,59.3684686 L28.4664429,58.390403 L25.1617734,55.1391436 C26.6587562,54.8262413 27.6198967,53.7155925 27.8842172,52.4897703 L29.768365,52.4897703 L29.768365,51.1140307 L27.8842172,51.1140307 C27.7771511,50.6191306 27.5450365,50.1511249 27.2211279,49.738291 L29.768365,49.738291 L29.768365,48.3625514 L22.9110404,48.3625514 Z" id="Combined-Shape-Copy-5" fill="#FEBBBA" transform="translate(26.323529, 53.480769) rotate(21.000000) translate(-26.323529, -53.480769) "></path>
            </g>
        </g>
    </g>
</svg>