<svg xmlns="http://www.w3.org/2000/svg" width="226" height="74" viewBox="0 0 226 74">
  <g fill="none" fill-rule="evenodd" transform="translate(2 1)">
    <polygon fill="#EF5350" fill-rule="nonzero" points="222 71 0 71 0 1 222 1"/>
    <g fill="#FFF" fill-rule="nonzero" transform="translate(7 11)">
      <g transform="translate(.911 .9)">
        <path d="M30.0790519 22.7436C30.0309333 17.42565 34.457837 14.83845 34.6602667 14.718 32.1531259 11.08305 28.2671407 10.5864 26.9015704 10.5468 23.6378074 10.20525 20.4719407 12.48885 18.809363 12.48885 17.1136 12.48885 14.553363 10.5798 11.7940148 10.6359 8.2432 10.69035 4.92136296 12.7347 3.0994963 15.9093-.660385185 22.38225 2.14376296 31.8945 5.74601481 37.12665 7.54797037 39.6891 9.65357037 42.5502 12.4096 42.44955 15.1058963 42.339 16.1130667 40.74015 19.3668741 40.74015 22.5908148 40.74015 23.5365926 42.44955 26.3473778 42.3852 29.2411259 42.339 31.0629926 39.8112 32.8018963 37.22565 34.8842667 34.28865 35.7205333 31.3962 35.7537185 31.2477 35.6856889 31.2246 30.1338074 29.11755 30.0790519 22.7436zM24.7694222 7.1049C26.2196148 5.30145 27.2118519 2.8479 26.9364148.35805 24.8374519.45045 22.2125037 1.8018 20.7009185 3.56565 19.3635556 5.11995 18.1688889 7.66755 18.4775111 10.06335 20.8353185 10.23825 23.2561778 8.8803 24.7694222 7.1049z"/>
      </g>
      <g transform="translate(50.689 20.7)">
        <path d="M19.3220741 22.2816L15.5538963 22.2816 13.4897778 15.83175 6.31514074 15.83175 4.34891852 22.2816.680296296 22.2816 7.78856296.3234 12.178963.3234 19.3220741 22.2816zM12.8675556 13.12575L11.0008889 7.392C10.803437 6.80625 10.4334222 5.42685 9.88752593 3.25545L9.82115556 3.25545C9.60379259 4.18935 9.25368889 5.56875 8.7725037 7.392L6.93902222 13.12575 12.8675556 13.12575 12.8675556 13.12575zM37.6021333 14.1702C37.6021333 16.863 36.8704 18.9915 35.4069333 20.55405 34.0961185 21.945 32.4683852 22.63965 30.5253926 22.63965 28.4280889 22.63965 26.9214815 21.89055 26.0039111 20.39235L25.9375407 20.39235 25.9375407 28.7331 22.4 28.7331 22.4 11.66055C22.4 9.96765 22.3552 8.2302 22.2689185 6.4482L25.3800296 6.4482 25.5774815 8.95785 25.6438519 8.95785C26.8235852 7.06695 28.6139259 6.12315 31.0165333 6.12315 32.8948148 6.12315 34.4628148 6.8607 35.7172148 8.33745 36.9749333 9.81585 37.6021333 11.75955 37.6021333 14.1702zM33.9982222 14.2989C33.9982222 12.7578 33.6497778 11.4873 32.9495704 10.4874 32.1846519 9.4446 31.1575704 8.9232 29.8699852 8.9232 28.9972148 8.9232 28.2040889 9.2136 27.4955852 9.78615 26.7854222 10.36365 26.3208296 11.1177 26.1034667 12.0516 25.9939556 12.4872 25.9392 12.8436 25.9392 13.1241L25.9392 15.7641C25.9392 16.9158 26.2942815 17.88765 27.0044444 18.6813 27.7146074 19.47495 28.6371556 19.87095 29.7720889 19.87095 31.1044741 19.87095 32.1415111 19.35945 32.8832 18.33975 33.6265481 17.3184 33.9982222 15.972 33.9982222 14.2989zM55.9153778 14.1702C55.9153778 16.863 55.1836444 18.9915 53.7185185 20.55405 52.409363 21.945 50.7816296 22.63965 48.838637 22.63965 46.7413333 22.63965 45.2347259 21.89055 44.3188148 20.39235L44.2524444 20.39235 44.2524444 28.7331 40.7149037 28.7331 40.7149037 11.66055C40.7149037 9.96765 40.6701037 8.2302 40.5838222 6.4482L43.6949333 6.4482 43.8923852 8.95785 43.9587556 8.95785C45.1368296 7.06695 46.9271704 6.12315 49.331437 6.12315 51.2080593 6.12315 52.7760593 6.8607 54.0337778 8.33745 55.2865185 9.81585 55.9153778 11.75955 55.9153778 14.1702zM52.3114667 14.2989C52.3114667 12.7578 51.961363 11.4873 51.2611556 10.4874 50.496237 9.4446 49.4724741 8.9232 48.1832296 8.9232 47.3088 8.9232 46.5173333 9.2136 45.8071704 9.78615 45.0970074 10.36365 44.6340741 11.1177 44.4167111 12.0516 44.3088593 12.4872 44.2524444 12.8436 44.2524444 13.1241L44.2524444 15.7641C44.2524444 16.9158 44.6075259 17.88765 45.3143704 18.6813 46.0245333 19.4733 46.9470815 19.87095 48.0853333 19.87095 49.4177185 19.87095 50.4547556 19.35945 51.1964444 18.33975 51.9397926 17.3184 52.3114667 15.972 52.3114667 14.2989zM76.390637 16.1238C76.390637 17.9916 75.7385481 19.51125 74.4293926 20.6844 72.9908148 21.96645 70.9880889 22.60665 68.4145778 22.60665 66.0385185 22.60665 64.1336889 22.15125 62.6917926 21.2388L63.5114667 18.30675C65.0645333 19.24065 66.7685926 19.70925 68.6253037 19.70925 69.9576889 19.70925 70.9947259 19.40895 71.7397333 18.81165 72.4814222 18.21435 72.851437 17.41245 72.851437 16.41255 72.851437 15.52155 72.5461333 14.7708 71.9338667 14.16195 71.3249185 13.5531 70.3077926 12.98715 68.8874667 12.4641 65.0213926 11.03025 63.0900148 8.9298 63.0900148 6.1677 63.0900148 4.3626 63.7669926 2.88255 65.1226074 1.73085 66.4732444.5775 68.2752.00165 70.5284741.00165 72.537837.00165 74.2070519.3498 75.539437 1.04445L74.6550519 3.91215C73.4106074 3.23895 72.0035556 2.90235 70.4289185 2.90235 69.1844741 2.90235 68.2121481 3.2076 67.5152593 3.8148 66.9262222 4.35765 66.6308741 5.0193 66.6308741 5.80305 66.6308741 6.67095 66.9677037 7.3887 67.6446815 7.953 68.2337185 8.4744 69.3039407 9.0387 70.8570074 9.64755 72.7568593 10.4082 74.1522963 11.29755 75.0499556 12.31725 75.9442963 13.33365 76.390637 14.6058 76.390637 16.1238zM88.0867556 9.0882L84.1874963 9.0882 84.1874963 16.77555C84.1874963 18.7308 84.8744296 19.7076 86.2516148 19.7076 86.8837926 19.7076 87.4081185 19.65315 87.8229333 19.54425L87.9208296 22.2156C87.2239407 22.47465 86.3063704 22.605 85.1697778 22.605 83.7726815 22.605 82.6808889 22.18095 81.8927407 21.3345 81.1079111 20.4864 80.7130074 19.0641 80.7130074 17.06595L80.7130074 9.0849 78.3900444 9.0849 78.3900444 6.4449 80.7130074 6.4449 80.7130074 3.54585 84.1874963 2.50305 84.1874963 6.4449 88.0867556 6.4449 88.0867556 9.0882zM105.679881 14.23455C105.679881 16.6683 104.979674 18.66645 103.582578 20.229 102.117452 21.83775 100.1728 22.63965 97.7486222 22.63965 95.4123852 22.63965 93.5523556 21.8691 92.1652148 20.328 90.7780741 18.7869 90.0845037 16.84155 90.0845037 14.4969 90.0845037 12.04335 90.7979852 10.03365 92.2299259 8.4711 93.6585481 6.9069 95.5866074 6.1248 98.0107852 6.1248 100.347022 6.1248 102.226963 6.89535 103.64563 8.4381 105.002904 9.93465 105.679881 11.8668 105.679881 14.23455zM102.0096 14.3484C102.0096 12.88815 101.696 11.6358 101.060504 10.59135 100.318815 9.32745 99.2585481 8.69715 97.8846815 8.69715 96.4626963 8.69715 95.3825185 9.3291 94.6408296 10.59135 94.0053333 11.63745 93.6917333 12.9096 93.6917333 14.4144 93.6917333 15.87465 94.0053333 17.127 94.6408296 18.1698 95.4057481 19.4337 96.4743111 20.064 97.8531556 20.064 99.2037926 20.064 100.264059 19.4205 101.028978 18.1368 101.681067 17.07255 102.0096 15.807 102.0096 14.3484zM117.178548 9.54195C116.828444 9.4776 116.455111 9.4446 116.063526 9.4446 114.819081 9.4446 113.856711 9.91155 113.179733 10.8471 112.590696 11.6721 112.295348 12.7149 112.295348 13.97385L112.295348 22.2816 108.759467 22.2816 108.792652 11.4345C108.792652 9.6096 108.747852 7.94805 108.659911 6.44985L111.741156 6.44985 111.870578 9.47925 111.968474 9.47925C112.341807 8.4381 112.930844 7.5999 113.737244 6.97125 114.525393 6.4053 115.376593 6.12315 116.294163 6.12315 116.621037 6.12315 116.916385 6.14625 117.178548 6.1875L117.178548 9.54195zM132.999585 13.6158C132.999585 14.2461 132.958104 14.7774 132.870163 15.21135L122.257541 15.21135C122.299022 16.77555 122.811733 17.9718 123.797333 18.7968 124.691674 19.53435 125.848178 19.90395 127.268504 19.90395 128.839822 19.90395 130.273422 19.6548 131.562667 19.15485L132.116859 21.59685C130.610252 22.25025 128.831526 22.5753 126.779022 22.5753 124.310044 22.5753 122.37203 21.8526 120.961659 20.40885 119.554607 18.9651 118.849422 17.02635 118.849422 14.59425 118.849422 12.2067 119.50483 10.21845 120.817304 8.6328 122.19117 6.9399 124.047881 6.09345 126.384119 6.09345 128.678874 6.09345 130.416119 6.9399 131.595852 8.6328 132.530015 9.97755 132.999585 11.64075 132.999585 13.6158zM129.626311 12.70335C129.649541 11.66055 129.418904 10.75965 128.939378 9.999 128.327111 9.02055 127.386311 8.53215 126.120296 8.53215 124.963793 8.53215 124.022993 9.009 123.304533 9.966 122.715496 10.72665 122.365393 11.6391 122.257541 12.7017L129.626311 12.7017 129.626311 12.70335z"/>
      </g>
      <g transform="translate(53.348 .9)">
        <path d="M9.03851852 6.61485C9.03851852 8.5569 8.4528 10.0188 7.28302222 11.00055 6.19952593 11.9064 4.65973333 12.36015 2.6653037 12.36015 1.67638519 12.36015.830162963 12.31725.121659259 12.23145L.121659259 1.6203C1.04586667 1.4718 2.04142222 1.3959 3.11662222 1.3959 5.01647407 1.3959 6.44841481 1.80675 7.4141037 2.62845 8.49594074 3.5574 9.03851852 4.88565 9.03851852 6.61485zM7.20503704 6.6627C7.20503704 5.40375 6.86986667 4.4385 6.19952593 3.7653 5.52918519 3.09375 4.55022222 2.75715 3.26097778 2.75715 2.71342222 2.75715 2.24717037 2.79345 1.86056296 2.86935L1.86056296 10.9362C2.07460741 10.9692 2.46619259 10.98405 3.03531852 10.98405 4.36604444 10.98405 5.39312593 10.6161 6.11656296 9.8802 6.84 9.1443 7.20503704 8.0718 7.20503704 6.6627zM18.7601185 8.31105C18.7601185 9.5073 18.4166519 10.4874 17.7297185 11.2563 17.0096 12.04665 16.0555259 12.441 14.8641778 12.441 13.7159704 12.441 12.8017185 12.06315 12.119763 11.30415 11.4394667 10.5468 11.0993185 9.59145 11.0993185 8.43975 11.0993185 7.23525 11.4494222 6.2469 12.1529481 5.47965 12.8564741 4.7124 13.8022519 4.32795 14.9936 4.32795 16.1418074 4.32795 17.0643556 4.7058 17.7629037 5.46315 18.4266074 6.19905 18.7601185 7.14945 18.7601185 8.31105zM16.9565037 8.36715C16.9565037 7.6494 16.8005333 7.03395 16.4902519 6.5208 16.1252148 5.9004 15.6058667 5.5902 14.9305481 5.5902 14.232 5.5902 13.701037 5.9004 13.336 6.5208 13.0240593 7.03395 12.8697481 7.6593 12.8697481 8.3985 12.8697481 9.11625 13.0257185 9.7317 13.336 10.24485 13.7126519 10.86525 14.2369778 11.17545 14.9139556 11.17545 15.5776593 11.17545 16.0986667 10.8603 16.4736593 10.22835 16.7955556 9.7053 16.9565037 9.0849 16.9565037 8.36715zM31.7952593 4.48635L29.3478519 12.26445 27.754963 12.26445 26.7411556 8.8869C26.4839704 8.04375 26.2749037 7.20555 26.1122963 6.37395L26.0807704 6.37395C25.9297778 7.22865 25.7207111 8.0652 25.4519111 8.8869L24.3750519 12.26445 22.7639111 12.26445 20.4625185 4.48635 22.2495407 4.48635 23.1339259 8.184C23.3479704 9.0585 23.5238519 9.89175 23.6648889 10.68045L23.6964148 10.68045C23.825837 10.03035 24.0398815 9.20205 24.3418667 8.2005L25.4519111 4.488 26.8689185 4.488 27.9325037 8.1213C28.1896889 9.00735 28.3987556 9.8604 28.5597037 10.6821L28.6078222 10.6821C28.7256296 9.88185 28.9031704 9.0288 29.1387852 8.1213L30.0878815 4.488 31.7952593 4.488 31.7952593 4.48635zM40.8100148 12.26445L39.0711111 12.26445 39.0711111 7.80945C39.0711111 6.43665 38.5467852 5.75025 37.4948148 5.75025 36.9787852 5.75025 36.5623111 5.93835 36.2387556 6.3162 35.9185185 6.69405 35.7559111 7.13955 35.7559111 7.6494L35.7559111 12.2628 34.0170074 12.2628 34.0170074 6.7089C34.0170074 6.0258 33.995437 5.28495 33.9539556 4.48305L35.4821333 4.48305 35.563437 5.6991 35.6115556 5.6991C35.8139852 5.32125 36.1159704 5.0094 36.5125333 4.76025 36.983763 4.46985 37.5114074 4.323 38.0888296 4.323 38.8189037 4.323 39.4261926 4.5573 39.909037 5.02755 40.5096889 5.6034 40.8100148 6.46305 40.8100148 7.60485L40.8100148 12.26445 40.8100148 12.26445z"/>
        <polygon points="45.605 12.264 43.868 12.264 43.868 .917 45.605 .917"/>
        <path d="M55.8429037 8.31105C55.8429037 9.5073 55.499437 10.4874 54.8125037 11.2563 54.0923852 12.04665 53.1366519 12.441 51.946963 12.441 50.7970963 12.441 49.8828444 12.06315 49.2025481 11.30415 48.5222519 10.5468 48.1821037 9.59145 48.1821037 8.43975 48.1821037 7.23525 48.5322074 6.2469 49.2357333 5.47965 49.9392593 4.7124 50.885037 4.32795 52.0747259 4.32795 53.2245926 4.32795 54.1454815 4.7058 54.8456889 5.46315 55.5093926 6.19905 55.8429037 7.14945 55.8429037 8.31105zM54.0376296 8.36715C54.0376296 7.6494 53.8816593 7.03395 53.5713778 6.5208 53.208 5.9004 52.6869926 5.5902 52.0133333 5.5902 51.3131259 5.5902 50.782163 5.9004 50.4187852 6.5208 50.1068444 7.03395 49.9525333 7.6593 49.9525333 8.3985 49.9525333 9.11625 50.1085037 9.7317 50.4187852 10.24485 50.795437 10.86525 51.319763 11.17545 51.9967407 11.17545 52.6604444 11.17545 53.1797926 10.8603 53.5547852 10.22835 53.8783407 9.7053 54.0376296 9.0849 54.0376296 8.36715zM64.2586667 12.26445L62.6973037 12.26445 62.5678815 11.3685 62.519763 11.3685C61.9854815 12.08295 61.2238815 12.441 60.234963 12.441 59.4965926 12.441 58.8992593 12.20505 58.4496 11.73645 58.0414222 11.31075 57.8373333 10.7811 57.8373333 10.15245 57.8373333 9.20205 58.2355556 8.4777 59.0369778 7.9761 59.8367407 7.4745 60.9617185 7.22865 62.4102519 7.2402L62.4102519 7.095C62.4102519 6.07035 61.8693333 5.55885 60.785837 5.55885 60.0142815 5.55885 59.3339852 5.7519 58.7466074 6.1347L58.3931852 4.9995C59.1199407 4.55235 60.0176 4.32795 61.0762074 4.32795 63.1204148 4.32795 64.145837 5.40045 64.145837 7.54545L64.145837 10.40985C64.145837 11.187 64.184 11.80575 64.2586667 12.26445zM62.4533926 9.59145L62.4533926 8.3919C60.5352889 8.3589 59.576237 8.88195 59.576237 9.9594 59.576237 10.3653 59.6857481 10.6689 59.9097481 10.87185 60.1337481 11.0748 60.4191407 11.17545 60.7592889 11.17545 61.1409185 11.17545 61.4976593 11.055 61.8228741 10.81575 62.1497481 10.57485 62.3505185 10.2696 62.4251852 9.89505 62.443437 9.8109 62.4533926 9.7086 62.4533926 9.59145zM74.1395556 12.26445L72.5964444 12.26445 72.5151407 11.0154 72.4670222 11.0154C71.9742222 11.9658 71.134637 12.441 69.9549037 12.441 69.0124444 12.441 68.2276148 12.07305 67.6053926 11.33715 66.9831704 10.60125 66.6728889 9.6459 66.6728889 8.47275 66.6728889 7.2138 67.0097185 6.1941 67.6866963 5.4153 68.3421037 4.6893 69.1451852 4.3263 70.1009185 4.3263 71.1512296 4.3263 71.8862815 4.67775 72.3044148 5.3823L72.3376 5.3823 72.3376.9174 74.078163.9174 74.078163 10.16895C74.078163 10.9263 74.0980741 11.62425 74.1395556 12.26445zM72.3376 8.98425L72.3376 7.68735C72.3376 7.46295 72.3210074 7.28145 72.2894815 7.14285 72.1915852 6.72705 71.9808593 6.37725 71.6606222 6.0951 71.3370667 5.81295 70.9471407 5.67105 70.4974815 5.67105 69.8487111 5.67105 69.3409778 5.9268 68.9676444 6.43995 68.5976296 6.9531 68.4101333 7.60815 68.4101333 8.4084 68.4101333 9.1773 68.5876741 9.801 68.9444148 10.28115 69.3210667 10.79265 69.8288 11.0484 70.4642963 11.0484 71.0350815 11.0484 71.4913778 10.83555 71.838163 10.4082 72.1733333 10.01385 72.3376 9.53865 72.3376 8.98425zM89.0114963 8.31105C89.0114963 9.5073 88.6680296 10.4874 87.9810963 11.2563 87.2609778 12.04665 86.308563 12.441 85.1155556 12.441 83.9690074 12.441 83.0547556 12.06315 82.3711407 11.30415 81.6908444 10.5468 81.3506963 9.59145 81.3506963 8.43975 81.3506963 7.23525 81.7008 6.2469 82.4043259 5.47965 83.1078519 4.7124 84.0536296 4.32795 85.246637 4.32795 86.3931852 4.32795 87.3173926 4.7058 88.0142815 5.46315 88.6779852 6.19905 89.0114963 7.14945 89.0114963 8.31105zM87.2095407 8.36715C87.2095407 7.6494 87.0535704 7.03395 86.7432889 6.5208 86.3765926 5.9004 85.8589037 5.5902 85.1819259 5.5902 84.485037 5.5902 83.9540741 5.9004 83.5873778 6.5208 83.275437 7.03395 83.1211259 7.6593 83.1211259 8.3985 83.1211259 9.11625 83.2770963 9.7317 83.5873778 10.24485 83.9640296 10.86525 84.4883556 11.17545 85.1653333 11.17545 85.829037 11.17545 86.3517037 10.8603 86.7266963 10.22835 87.0469333 9.7053 87.2095407 9.0849 87.2095407 8.36715zM98.3614222 12.26445L96.6241778 12.26445 96.6241778 7.80945C96.6241778 6.43665 96.0998519 5.75025 95.0462222 5.75025 94.5301926 5.75025 94.1137185 5.93835 93.7918222 6.3162 93.4699259 6.69405 93.3089778 7.13955 93.3089778 7.6494L93.3089778 12.2628 91.5684148 12.2628 91.5684148 6.7089C91.5684148 6.0258 91.5485037 5.28495 91.5070222 4.48305L93.0335407 4.48305 93.1148444 5.6991 93.162963 5.6991C93.3670519 5.32125 93.669037 5.0094 94.0639407 4.76025 94.5368296 4.46985 95.0628148 4.323 95.6418963 4.323 96.3703111 4.323 96.9776 4.5573 97.4604444 5.02755 98.0627556 5.6034 98.3614222 6.46305 98.3614222 7.60485L98.3614222 12.26445 98.3614222 12.26445zM110.064178 5.7816L108.149393 5.7816 108.149393 9.5601C108.149393 10.5204 108.489541 11.00055 109.1632 11.00055 109.475141 11.00055 109.733985 10.97415 109.938074 10.9197L109.982874 12.23145C109.639407 12.36015 109.188089 12.4245 108.632237 12.4245 107.945304 12.4245 107.411022 12.2166 107.024415 11.8008 106.636148 11.385 106.443674 10.6854 106.443674 9.70365L106.443674 5.7816 105.300444 5.7816 105.300444 4.48635 106.443674 4.48635 106.443674 3.06075 108.147733 2.54925 108.147733 4.4847 110.062519 4.4847 110.062519 5.7816 110.064178 5.7816zM119.269748 12.26445L117.529185 12.26445 117.529185 7.84245C117.529185 6.4482 117.004859 5.75025 115.954548 5.75025 115.148148 5.75025 114.597274 6.1545 114.295289 6.963 114.243852 7.13295 114.213985 7.34085 114.213985 7.58505L114.213985 12.2628 112.476741 12.2628 112.476741.9174 114.213985.9174 114.213985 5.60505 114.24717 5.60505C114.794726 4.752 115.579556 4.3263 116.596681 4.3263 117.3168 4.3263 117.912474 4.5606 118.385363 5.03085 118.9744 5.6166 119.269748 6.4878 119.269748 7.6395L119.269748 12.26445 119.269748 12.26445zM128.765689 8.00745C128.765689 8.31765 128.742459 8.57835 128.700978 8.7912L123.485926 8.7912C123.509156 9.5601 123.758044 10.14585 124.240889 10.55175 124.682252 10.91475 125.251378 11.09625 125.948267 11.09625 126.719822 11.09625 127.423348 10.97415 128.057185 10.7283L128.329304 11.9295C127.587615 12.2496 126.714844 12.40965 125.704356 12.40965 124.493096 12.40965 123.539022 12.0549 122.84877 11.3454 122.1552 10.6359 121.811733 9.68385 121.811733 8.48925 121.811733 7.3161 122.13197 6.3393 122.777422 5.5605 123.451081 4.7289 124.362015 4.3131 125.511881 4.3131 126.636859 4.3131 127.491378 4.7289 128.0688 5.5605 128.535052 6.2205 128.765689 7.03725 128.765689 8.00745zM127.10643 7.5603C127.119704 7.04715 127.005215 6.60495 126.7696 6.23205 126.467615 5.7519 126.008 5.511 125.385778 5.511 124.818311 5.511 124.355378 5.7453 124.001956 6.21555 123.713244 6.5901 123.542341 7.03725 123.485926 7.5603L127.10643 7.5603z"/>
      </g>
    </g>
    <g transform="translate(148.6 .5)">
      <polygon fill="#F7D917" points=".91 .467 73.481 .467 73.481 70.476"/>
      <path fill="#EF5350" d="M31.4721613,19.9040283 C31.4085217,20.7837528 31.0837772,21.4762914 30.4979182,21.981665 C29.9120591,22.4870387 29.1399721,22.7397217 28.181634,22.7397217 C27.1334517,22.7397217 26.3089563,22.3869013 25.7081232,21.68125 C25.1072902,20.9755987 24.8068781,20.0069804 24.8068781,18.7753662 L24.8068781,18.2756104 C24.8068781,17.4894736 24.9453858,16.796935 25.2224055,16.1979736 C25.4994251,15.5990123 25.8952951,15.1395036 26.4100275,14.8194336 C26.9247599,14.4993636 27.5227764,14.3393311 28.2040949,14.3393311 C29.147459,14.3393311 29.9073798,14.5920141 30.4838801,15.0973877 C31.0603804,15.6027613 31.3935476,16.3121455 31.4833918,17.2255615 L29.7988215,17.2255615 C29.7576429,16.6977269 29.6107124,16.3149589 29.3580256,16.0772461 C29.1053388,15.8395333 28.7206991,15.7206787 28.2040949,15.7206787 C27.6425687,15.7206787 27.2223662,15.9218893 26.9434748,16.3243164 C26.6645834,16.7267436 26.5213964,17.3509642 26.5139094,18.1969971 L26.5139094,18.8146729 C26.5139094,19.6981408 26.6477378,20.3438863 26.9153986,20.7519287 C27.1830595,21.1599711 27.6051337,21.3639893 28.181634,21.3639893 C28.7019816,21.3639893 29.0903648,21.2451347 29.3467951,21.0074219 C29.6032254,20.7697091 29.7501559,20.4019149 29.787591,19.9040283 L31.4721613,19.9040283 Z M39.9214555,18.7248291 C39.9214555,19.5296834 39.7792044,20.2353241 39.4946977,20.8417725 C39.2101911,21.4482208 38.8030907,21.9161523 38.2733842,22.2455811 C37.7436778,22.5750098 37.1363027,22.7397217 36.4512407,22.7397217 C35.7736657,22.7397217 35.1690982,22.5768815 34.63752,22.2511963 C34.1059418,21.9255111 33.6941621,21.4603871 33.4021684,20.8558106 C33.1101748,20.251234 32.9623084,19.5558877 32.9585649,18.769751 L32.9585649,18.3654541 C32.9585649,17.5605998 33.1036237,16.8521515 33.3937456,16.2400879 C33.6838675,15.6280243 34.0937755,15.158221 34.6234819,14.8306641 C35.1531883,14.5031071 35.7586917,14.3393311 36.4400102,14.3393311 C37.1213287,14.3393311 37.7268321,14.5031071 38.2565385,14.8306641 C38.786245,15.158221 39.196153,15.6280243 39.4862749,16.2400879 C39.7763968,16.8521515 39.9214555,17.5587281 39.9214555,18.3598389 L39.9214555,18.7248291 Z M38.2144243,18.3542236 C38.2144243,17.4969602 38.0609427,16.8455996 37.7539751,16.4001221 C37.4470074,15.9546446 37.0090235,15.7319092 36.4400102,15.7319092 C35.8747405,15.7319092 35.4386283,15.951837 35.1316606,16.3916992 C34.8246929,16.8315614 34.6693397,17.4763711 34.6655962,18.3261475 L34.6655962,18.7248291 C34.6655962,19.5596315 34.8190777,20.2072487 35.1260454,20.6677002 C35.4330131,21.1281517 35.8747404,21.358374 36.4512407,21.358374 C37.0165104,21.358374 37.4507509,21.1365745 37.7539751,20.6929688 C38.0571992,20.249363 38.2106808,19.6026817 38.2144243,18.7529053 L38.2144243,18.3542236 Z M43.9740212,14.4516357 L46.0741189,20.3813232 L48.1629861,14.4516357 L50.3753884,14.4516357 L50.3753884,22.627417 L48.6852029,22.627417 L48.6852029,20.3925537 L48.8536599,16.5348877 L46.6468728,22.627417 L45.4901345,22.627417 L43.2889626,16.5405029 L43.4574197,20.3925537 L43.4574197,22.627417 L41.7728494,22.627417 L41.7728494,14.4516357 L43.9740212,14.4516357 Z M54.2651123,22.627417 L52.580542,22.627417 L52.580542,14.4516357 L54.2651123,14.4516357 L54.2651123,22.627417 Z M63.1018577,22.627417 L61.4172874,22.627417 L58.1379905,17.2480225 L58.1379905,22.627417 L56.4534202,22.627417 L56.4534202,14.4516357 L58.1379905,14.4516357 L61.4229026,19.8422607 L61.4229026,14.4516357 L63.1018577,14.4516357 L63.1018577,22.627417 Z M71.6690718,21.5942139 C71.3658477,21.9573342 70.9372224,22.239029 70.3831832,22.4393066 C69.8291439,22.6395843 69.2152178,22.7397217 68.5413863,22.7397217 C67.8338632,22.7397217 67.213386,22.5853043 66.6799361,22.2764648 C66.1464861,21.9676254 65.7347064,21.519347 65.4445845,20.9316162 C65.1544626,20.3438854 65.0056604,19.6532185 64.9981734,18.8595947 L64.9981734,18.3036865 C64.9981734,17.4876017 65.1357453,16.7810251 65.4108931,16.1839356 C65.686041,15.586846 66.0828469,15.1301448 66.6013228,14.8138184 C67.1197987,14.4974919 67.7271738,14.3393311 68.4234664,14.3393311 C69.393035,14.3393311 70.1510841,14.5704892 70.6976363,15.0328125 C71.2441885,15.4951358 71.5679971,16.1680213 71.6690718,17.0514893 L70.0294234,17.0514893 C69.9545532,16.5835507 69.7889055,16.2410249 69.5324751,16.0239014 C69.2760448,15.8067779 68.9232245,15.6982178 68.4740035,15.6982178 C67.9012467,15.6982178 67.4651345,15.9134663 67.1656539,16.3439697 C66.8661732,16.7744732 66.7145634,17.4146035 66.7108199,18.2643799 L66.7108199,18.7865967 C66.7108199,19.6438601 66.87366,20.2914773 67.1993453,20.7294678 C67.5250305,21.1674583 68.0023206,21.3864502 68.63123,21.3864502 C69.2638829,21.3864502 69.7149689,21.2516859 69.9845015,20.9821533 L69.9845015,19.5727295 L68.4515425,19.5727295 L68.4515425,18.3317627 L71.6690718,18.3317627 L71.6690718,21.5942139 Z M36.7935519,34.4823975 C36.7935519,34.1641993 36.6812483,33.919939 36.4566378,33.7496094 C36.2320273,33.5792798 35.8277345,33.399594 35.2437472,33.2105469 C34.6597599,33.0214997 34.1974435,32.835263 33.8567843,32.6518311 C32.9283942,32.1502009 32.4642062,31.4745078 32.4642062,30.6247315 C32.4642062,30.1829975 32.5886759,29.7889991 32.8376192,29.4427246 C33.0865625,29.0964501 33.4440622,28.8259857 33.910129,28.6313232 C34.3761958,28.4366608 34.8993432,28.3393311 35.479587,28.3393311 C36.0635743,28.3393311 36.5839142,28.4450836 37.0406222,28.6565918 C37.4973302,28.8681 37.8520223,29.1666403 38.1047091,29.5522217 C38.3573959,29.937803 38.4837374,30.3757869 38.4837374,30.8661865 L36.7991671,30.8661865 C36.7991671,30.4918357 36.6812484,30.2007823 36.4454073,29.9930176 C36.2095663,29.7852529 35.8782708,29.6813721 35.4515108,29.6813721 C35.0397249,29.6813721 34.7196598,29.7684073 34.4913058,29.9424805 C34.2629518,30.1165536 34.1487765,30.3458401 34.1487765,30.6303467 C34.1487765,30.8961358 34.2826049,31.1188712 34.5502657,31.2985596 C34.8179266,31.478248 35.2119249,31.6467033 35.7322726,31.8039307 C36.6906107,32.0921808 37.3887645,32.4496805 37.826755,32.8764404 C38.2647455,33.3032004 38.4837374,33.8347706 38.4837374,34.471167 C38.4837374,35.1786901 38.2160806,35.7336568 37.6807589,36.136084 C37.1454372,36.5385111 36.4248227,36.7397217 35.5188937,36.7397217 C34.8899843,36.7397217 34.3172361,36.6246105 33.8006319,36.3943848 C33.2840278,36.164159 32.8900295,35.8487732 32.6186251,35.4482178 C32.3472208,35.0476624 32.2115206,34.5834743 32.2115206,34.0556397 L33.9017062,34.0556397 C33.9017062,34.9578252 34.4407633,35.4089111 35.5188937,35.4089111 C35.919449,35.4089111 36.2320273,35.3274911 36.4566378,35.1646484 C36.6812483,35.0018058 36.7935519,34.7743911 36.7935519,34.4823975 Z M46.966723,32.7248291 C46.966723,33.5296834 46.8244718,34.2353241 46.5399652,34.8417725 C46.2554586,35.4482208 45.8483582,35.9161523 45.3186517,36.2455811 C44.7889453,36.5750098 44.1815702,36.7397217 43.4965082,36.7397217 C42.8189332,36.7397217 42.2143657,36.5768815 41.6827875,36.2511963 C41.1512093,35.9255111 40.7394296,35.4603871 40.4474359,34.8558106 C40.1554423,34.251234 40.0075759,33.5558877 40.0038324,32.769751 L40.0038324,32.3654541 C40.0038324,31.5605998 40.1488912,30.8521515 40.4390131,30.2400879 C40.729135,29.6280243 41.139043,29.158221 41.6687494,28.8306641 C42.1984558,28.5031071 42.8039592,28.3393311 43.4852777,28.3393311 C44.1665962,28.3393311 44.7720996,28.5031071 45.301806,28.8306641 C45.8315125,29.158221 46.2414205,29.6280243 46.5315424,30.2400879 C46.8216643,30.8521515 46.966723,31.5587281 46.966723,32.3598389 L46.966723,32.7248291 Z M45.2596918,32.3542236 C45.2596918,31.4969602 45.1062102,30.8455996 44.7992426,30.4001221 C44.4922749,29.9546446 44.054291,29.7319092 43.4852777,29.7319092 C42.920008,29.7319092 42.4838958,29.951837 42.1769281,30.3916992 C41.8699604,30.8315614 41.7146072,31.4763711 41.7108636,32.3261475 L41.7108636,32.7248291 C41.7108636,33.5596315 41.8643452,34.2072487 42.1713129,34.6677002 C42.4782805,35.1281517 42.9200079,35.358374 43.4965082,35.358374 C44.0617779,35.358374 44.4960184,35.1365745 44.7992426,34.6929688 C45.1024667,34.249363 45.2559483,33.6026817 45.2596918,32.7529053 L45.2596918,32.3542236 Z M55.5339372,32.7248291 C55.5339372,33.5296834 55.391686,34.2353241 55.1071793,34.8417725 C54.8226727,35.4482208 54.4155723,35.9161523 53.8858659,36.2455811 C53.3561594,36.5750098 52.7487843,36.7397217 52.0637223,36.7397217 C51.3861473,36.7397217 50.7815798,36.5768815 50.2500016,36.2511963 C49.7184234,35.9255111 49.3066437,35.4603871 49.01465,34.8558106 C48.7226564,34.251234 48.57479,33.5558877 48.5710465,32.769751 L48.5710465,32.3654541 C48.5710465,31.5605998 48.7161053,30.8521515 49.0062272,30.2400879 C49.2963491,29.6280243 49.7062571,29.158221 50.2359635,28.8306641 C50.7656699,28.5031071 51.3711733,28.3393311 52.0524918,28.3393311 C52.7338104,28.3393311 53.3393137,28.5031071 53.8690202,28.8306641 C54.3987266,29.158221 54.8086346,29.6280243 55.0987565,30.2400879 C55.3888784,30.8521515 55.5339372,31.5587281 55.5339372,32.3598389 L55.5339372,32.7248291 Z M53.8269059,32.3542236 C53.8269059,31.4969602 53.6734244,30.8455996 53.3664567,30.4001221 C53.059489,29.9546446 52.6215051,29.7319092 52.0524918,29.7319092 C51.4872221,29.7319092 51.0511099,29.951837 50.7441422,30.3916992 C50.4371746,30.8315614 50.2818213,31.4763711 50.2780778,32.3261475 L50.2780778,32.7248291 C50.2780778,33.5596315 50.4315593,34.2072487 50.738527,34.6677002 C51.0454947,35.1281517 51.487222,35.358374 52.0637223,35.358374 C52.6289921,35.358374 53.0632325,35.1365745 53.3664567,34.6929688 C53.6696809,34.249363 53.8231624,33.6026817 53.8269059,32.7529053 L53.8269059,32.3542236 Z M64.0337685,36.627417 L62.3491982,36.627417 L59.0699013,31.2480225 L59.0699013,36.627417 L57.385331,36.627417 L57.385331,28.4516357 L59.0699013,28.4516357 L62.3548134,33.8422607 L62.3548134,28.4516357 L64.0337685,28.4516357 L64.0337685,36.627417 Z" transform="rotate(45 48.238 25.54)"/>
    </g>
  </g>
</svg>
