<svg xmlns="http://www.w3.org/2000/svg" width="42" height="42" viewBox="0 0 42 42">
  <g fill="#EF5350" transform="translate(5)">
    <path d="M26.5865617 21.1568372C26.5425676 16.209907 30.5900224 13.8032093 30.775101 13.6911628 28.482858 10.309814 24.9299572 9.84781395 23.6814358 9.81097674 20.6974239 9.49325581 17.8029172 11.6175349 16.2828461 11.6175349 14.7324343 11.6175349 12.3916461 9.84167442 9.86881354 9.89386047 6.62235429 9.94451163 3.58524614 11.8462326 1.91953947 14.7993488-1.51806646 20.8206977 1.04572614 29.6693023 4.33921354 34.5364186 5.98671577 36.920093 7.91183577 39.5815814 10.4316343 39.4879535 12.8968195 39.3851163 13.817661 37.897814 16.7925706 37.897814 19.7401735 37.897814 20.6048847 39.4879535 23.1747454 39.428093 25.820458 39.3851163 27.4861647 37.0336744 29.0760195 34.6285116 30.979901 31.8964186 31.7444876 29.2057674 31.7748284 29.0676279 31.7126298 29.0461395 26.6366239 27.086093 26.5865617 21.1568372zM21.7320432 6.6092093C23.0579335 4.9315814 23.9651217 2.6492093 23.7132935.333069767 21.7942417.419023256 19.3942891 1.67609302 18.0122684 3.31688372 16.7895365 4.76274419 15.6972698 7.13260465 15.9794387 9.36125581 18.1351484 9.52395349 20.3485054 8.26074419 21.7320432 6.6092093z"/>
  </g>
</svg>
