<svg xmlns="http://www.w3.org/2000/svg" width="77" height="77" viewBox="0 0 77 77">
  <g fill="none" fill-rule="evenodd" transform="translate(17 7)">
    <polygon fill="#FEBBBA" points="1.998 62.909 39.995 62.909 39.995 20.719 1.998 20.719"/>
    <polygon fill="#FBCFCE" points="5.731 20.719 36.262 20.719 36.262 3.616 5.731 3.616"/>
    <polygon fill="#FFF" points="11.497 62.909 30.496 62.909 30.496 39.717 11.497 39.717"/>
    <polygon fill="#FEDBDA" points="11.485 62.909 30.49 62.909 30.49 60.969 11.485 60.969"/>
    <polygon fill="#FBCFCE" points="5.731 8.276 36.262 8.276 36.262 3.616 5.731 3.616"/>
    <polygon fill="#FFF" points="15.884 17.783 18.825 17.783 18.825 12.887 15.884 12.887"/>
    <polygon fill="#FFF" points="7.954 17.783 10.894 17.783 10.894 12.887 7.954 12.887"/>
    <polygon fill="#FFF" points="24.703 17.783 27.644 17.783 27.644 12.887 24.703 12.887"/>
    <polygon fill="#FFF" points="31.696 17.783 34.636 17.783 34.636 12.887 31.696 12.887"/>
    <polygon fill="#F1F1F1" points="37.258 62.909 41.821 62.909 41.821 20.719 37.258 20.719"/>
    <polygon fill="#F1F1F1" points=".172 62.909 4.735 62.909 4.735 20.719 .172 20.719"/>
    <polygon fill="#F1F1F1" points="1.998 25.379 39.995 25.379 39.995 20.719 1.998 20.719"/>
    <path fill="#FFF" d="M12.4149355 33.5478443L11.8707931 33.5478443 11.8707931 35.0903307 12.4402804 35.0903307C13.2442624 35.0903307 13.5874093 34.8615675 13.5874093 34.339601 13.5874093 33.8008799 13.2103223 33.5478443 12.4149355 33.5478443zM12.3397826 31.2221932L11.8707931 31.2221932 11.8707931 32.4542921 12.2392849 32.4542921C12.9341739 32.4542921 13.227072 32.2669855 13.227072 31.8339466 13.227072 31.4180918 12.9341739 31.2221932 12.3397826 31.2221932zM12.3730615 36.1591807L10.7238846 36.1591807 10.7238846 30.128641 11.9964153 30.128641C12.9174243 30.128641 13.3026657 30.1939405 13.6711574 30.4224888 14.1148021 30.699797 14.3744213 31.1732185 14.3744213 31.7362121 14.3744213 32.2992057 14.1818006 32.6177557 13.6876867 32.8705765 14.4746987 33.1891265 14.7426927 33.6460083 14.7426927 34.3640883 14.7426927 35.4655881 13.9640555 36.1591807 12.3730615 36.1591807L12.3730615 36.1591807zM17.9334963 31.7035624L17.2718861 33.5315194 18.5946657 33.5315194 17.9334963 31.7035624zM19.7168906 36.1591807L19.0557211 34.6005842 16.8533658 34.6005842 16.1668516 36.1591807 14.9024753 36.1591807 17.4814768 30.128641 18.3855157 30.128641 20.9810465 36.1591807 19.7168906 36.1591807 19.7168906 36.1591807z"/>
    <polyline fill="#FFF" points="25.344 36.159 22.757 31.777 22.757 36.159 21.61 36.159 21.61 30.129 22.916 30.129 25.478 34.519 25.478 30.129 26.625 30.129 26.625 36.159 25.344 36.159"/>
    <polyline fill="#FFF" points="30.871 36.159 28.954 33.507 28.954 36.159 27.807 36.159 27.807 30.129 28.954 30.129 28.954 32.732 30.871 30.129 32.253 30.129 29.925 33.091 32.253 36.159 30.871 36.159"/>
    <path fill="#F69A98" d="M27.0732819,5.94590813 C27.0732819,2.67491759 24.3525697,0.0231985144 20.9964738,0.0231985144 C17.6403778,0.0231985144 14.9196657,2.67491759 14.9196657,5.94590813 C14.9196657,9.21689866 17.6403778,11.8686177 20.9964738,11.8686177 C24.3525697,11.8686177 27.0732819,9.21689866 27.0732819,5.94590813"/>
    <path fill="#FEBBBA" d="M25.9384948,5.94590813 C25.9384948,3.285597 23.7260015,1.12899437 20.9964738,1.12899437 C18.266946,1.12899437 16.0542324,3.285597 16.0542324,5.94590813 C16.0542324,8.60621925 18.266946,10.7626071 20.9964738,10.7626071 C23.7260015,10.7626071 25.9384948,8.60621925 25.9384948,5.94590813"/>
    <path fill="#FFF" d="M22.0693648,2.79672897 L18.2849185,2.79672897 L17.8043478,3.5473795 L20.1447276,3.54737954 C20.7333354,3.54737954 20.7443353,3.90003474 20.9513171,4.28723246 L18.0940839,4.28723246 L17.8043478,5.05050052 L20.9513171,5.05050052 C20.7443353,5.43769824 20.2474252,5.79100183 19.6677608,5.79100183 L18.2849185,5.79100183 C19.4442473,7.08171082 20.4828522,8.2771978 21.6969699,9.56775701 L23.0425694,9.56775701 L20.2072014,6.51146624 C21.3455297,6.51146624 21.8209098,5.88937899 22.0693649,5.05050052 L23.5711964,5.04524302 L23.8913043,4.29631126 L22.0693648,4.28723246 C22.028276,4.06131719 21.8485717,3.7409784 21.6836542,3.54737954 L23.5711964,3.5473795 L23.8913043,2.79672897 L22.0693648,2.79672897 Z"/>
  </g>
</svg>
