<svg xmlns="http://www.w3.org/2000/svg" xmlns:xlink="http://www.w3.org/1999/xlink" width="142" height="184" viewBox="0 0 142 184">
  <defs>
    <circle id="bike-a" cx="100.25" cy="104" r="23"/>
    <mask id="bike-c" width="46" height="46" x="0" y="0" fill="#fff">
      <use xlink:href="#bike-a"/>
    </mask>
    <circle id="bike-b" cx="23" cy="104" r="23"/>
    <mask id="bike-d" width="46" height="46" x="0" y="0" fill="#fff">
      <use xlink:href="#bike-b"/>
    </mask>
  </defs>
  <g fill="none" fill-rule="evenodd" transform="translate(0 3)">
    <g transform="matrix(-1 0 0 1 124 53)">
      <path fill="#CFCFCF" d="M77.744713,109.26518 L79.2964502,113.808236 L65.7635952,114.468625 C65.7635952,114.468625 65.2435801,111.989805 71.858006,111.66282 L71.3055136,110.17515 L77.744713,109.26518"/>
      <polyline fill="#CFCFCF" points="78.682 109.314 77.927 106.658 69.657 108.276 70.318 110.395 78.682 109.314"/>
      <polyline fill="#FEDBDA" points="57.909 18.487 71.054 13.737 76.847 18.308 56.777 25.281 57.909 18.487"/>
      <path fill="#FFEBEB" d="M30.9984894,17.9369912 C31.413142,18.3515752 31.8621601,18.6725192 32.3376133,18.8303481 C32.3376133,18.8303481 32.4331571,25.3239882 32.3965257,25.4195162 C32.3595166,25.5146667 34.9969789,24.8724012 34.9969789,24.8724012 C34.9969789,24.8724012 38.1306647,30.996767 40.4743202,28.4092035 C42.8175982,25.8216401 44.1208459,25.3549499 46.1559668,25.4840826 C48.1910876,25.6128378 50.2877644,25.3077522 50.2877644,25.3077522 L50.831571,18.0257227 L43.3168429,16.7223127 C43.3168429,16.7223127 45.1767372,13.3988437 43.6193353,10.3997168 C42.0619335,7.40021239 39.3100453,3.8879528 34.1253776,5.00521534 C32.5404079,5.34654867 31.3666918,6.21611799 30.5003776,7.25899705 C27.9037009,10.3849912 28.1257553,15.0624661 30.9984894,17.9369912"/>
      <path fill="#AAA" d="M26.4852719,7.72757522 C26.4852719,7.72757522 26.8885952,12.3378407 31.2473565,12.0459705 C35.6064955,11.7541003 38.1563444,11.1488378 38.1563444,11.1488378 L39.1076284,16.8314336 C39.1076284,16.8314336 40.4278701,13.7160118 41.7352719,13.7873746 C43.0422961,13.859115 42.7866314,17.3456991 42.7866314,17.3456991 L47.1521903,17.9090501 C47.1521903,17.9090501 49.7352719,13.3123776 47.2560423,7.91523304 C44.7771903,2.5180885 41.5630665,1.80521534 39.891994,1.59301475 C39.891994,1.59301475 38.304003,-0.661522124 34.4350453,0.607905605 C30.5664653,1.87733333 27.0343656,4.56306785 23.2356495,3.86529794 C23.2356495,3.86529794 22.647281,7.25559882 26.4852719,7.72757522"/>
      <path fill="#AAA" d="M38.9996224,0.965097345 C38.9996224,0.965097345 41.1839124,-0.249958702 43.098565,0.595445428 C43.098565,0.595445428 40.4165408,1.00587611 39.7635952,2.75143363 L38.9996224,0.965097345"/>
      <path fill="#DADADA" d="M49.7129909,17.8663835 C49.7129909,17.8663835 70.7953172,13.0684602 92.2904079,36.7099469 C92.2904079,36.7099469 95.4093656,42.5484838 85.3141994,45.6189735 C75.2186556,48.6890855 72.0173716,46.9846844 72.0173716,46.9846844 L49.7129909,25.3304071 L49.7129909,17.8663835"/>
      <polyline fill="#0D2531" points="63.852 39.057 59.082 34.426 63.852 39.057"/>
      <polyline fill="#FEDBDA" points="62.328 26.038 74.662 21.581 81.624 27.073 57.507 35.451 62.328 26.038"/>
      <path fill="#FFEBEB" d="M57.0932779,21.5851799 C57.0932779,21.5851799 50.2617069,21.8132389 51.4003021,31.8308437 C52.5388973,41.848826 53.5638218,49.1342537 53.5638218,49.1342537 C53.5638218,49.1342537 33.2024169,48.0974159 30.239426,49.8172979 C27.2760574,51.5375575 26.4425982,58.2139469 31.1782477,58.4926018 C35.9142749,58.7712566 31.1782477,58.4926018 31.1782477,58.4926018 C31.1782477,58.4926018 28.8942598,53.4209322 36.7352719,53.4209322 C44.576284,53.4209322 52.994713,58.0787729 58.6873112,55.2574867 C64.380287,52.435823 68.8206193,21.1301947 57.0932779,21.5851799"/>
      <path fill="#EDEDED" d="M73.0351208,116.378431 C73.348565,116.378431 73.6620091,116.25836 73.9010574,116.019729 C74.3791541,115.541333 74.3791541,114.766914 73.9010574,114.288897 L63.1805136,103.570501 C62.7024169,103.092484 61.9274924,103.092484 61.4493958,103.570501 C60.9709215,104.048519 60.9709215,104.823316 61.4493958,105.301711 L72.1695619,116.019729 C72.4086103,116.25836 72.7220544,116.378431 73.0351208,116.378431"/>
      <polygon fill="#DADADA" points="68.595 117.561 77.475 117.561 77.475 113.848 68.595 113.848"/>
      <polyline fill="#FEBBBA" points="62.279 64.094 78.469 54.036 76.847 107.692 70.86 108.408 62.279 64.094"/>
      <path fill="#EDEDED" d="M33.4754532 53.6905251L31.5271903 51.323469 31.494713 51.2860885C30.7998489 50.5460295 29.8519637 50.1650501 28.9044562 50.1658053 28.1227341 50.1650501 27.3323263 50.4244484 26.680136 50.9489086 26.3549849 51.2101947 26.3032477 51.6851917 26.564577 52.0106667 26.8259063 52.3353864 27.3013595 52.3874926 27.6265106 52.1262065 28.0037764 51.8230088 28.4524169 51.6765074 28.9044562 51.6761298 29.4524169 51.676885 29.9920695 51.8928614 30.3935045 52.3199056L30.9441088 51.8029971 30.3606495 52.2829027 32.3089124 54.6499587C32.5736405 54.9720354 33.0498489 55.0184779 33.3719789 54.7534159 33.6941088 54.488354 33.7401813 54.0126018 33.4754532 53.6905251M78.467145 72.1670796C79.3923716 72.1670796 80.2779456 71.6395988 80.6914653 70.7451091L88.1348187 54.6390088C88.7020393 53.4122478 88.1669184 51.9574277 86.9391994 51.3903009 85.7111027 50.8235516 84.2567976 51.3585841 83.6891994 52.5857227L76.2462236 68.6914454C75.6786254 69.9185841 76.2137462 71.3734041 77.4418429 71.940531 77.7741692 72.0942065 78.1231118 72.1670796 78.467145 72.1670796"/>
      <path fill="#EDEDED" d="M39.1518127,69.5621475 C39.8659366,69.5621475 40.5453172,69.1426549 40.842145,68.4441298 L46.1435045,55.975646 L44.4535498,53.4209322 L32.891994,53.4209322 C31.8776435,53.4209322 31.0555136,54.2429263 31.0555136,55.2574867 C31.0555136,56.2716696 31.8776435,57.0932861 32.891994,57.0932861 L41.6774924,57.0932861 L37.4622356,67.007056 C37.0653323,67.9408142 37.5007553,69.0184307 38.4339124,69.4152684 C38.6680514,69.5149499 38.9120091,69.5621475 39.1518127,69.5621475"/>
      <use stroke="#EDEDED" stroke-width="5" mask="url(#bike-c)" xlink:href="#bike-a"/>
      <path fill="#E6E6E2" d="M98.0861027,103.97187 C98.0861027,105.152944 99.043429,106.109735 100.22432,106.109735 C101.405211,106.109735 102.362538,105.152944 102.362538,103.97187 C102.362538,102.791174 101.405211,101.834383 100.22432,101.834383 C99.043429,101.834383 98.0861027,102.791174 98.0861027,103.97187"/>
      <use stroke="#EDEDED" stroke-width="5" mask="url(#bike-d)" xlink:href="#bike-b"/>
      <path fill="#E6E6E2" d="M20.7639728,103.97187 C20.7639728,105.152944 21.7212991,106.109735 22.9021903,106.109735 C24.0830816,106.109735 25.0404079,105.152944 25.0404079,103.97187 C25.0404079,102.791174 24.0830816,101.834383 22.9021903,101.834383 C21.7212991,101.834383 20.7639728,102.791174 20.7639728,103.97187"/>
      <path fill="#EDEDED" d="M81.6238671,68.7416637 L66.1544562,101.987681 L95.9493958,101.987681 L81.6238671,68.7416637 Z M60.0944109,103.403233 L79.4890483,61.7201652 L83.9584592,61.784354 L101.919562,103.467044 L99.6706949,106.884153 L62.3149547,106.884153 L60.0944109,103.403233 L60.0944109,103.403233 Z"/>
      <path fill="#EDEDED" d="M22.9010574,106.420484 C23.8361027,106.420484 24.728852,105.882053 25.1367069,104.972838 L42.9675227,65.2014631 L81.7095921,65.2014631 C83.0615559,65.2014631 84.1582326,64.1049676 84.1582326,62.7532271 C84.1582326,61.4011091 83.0615559,60.3049912 81.7095921,60.3049912 L41.3814199,60.3049912 L39.1469033,61.751882 L20.6672961,102.970525 C20.1148036,104.20446 20.6665408,105.652106 21.9010574,106.20564 C22.2258308,106.351764 22.5660876,106.420484 22.9010574,106.420484"/>
      <path fill="#DADADA" d="M18.4652568,103.97187 C18.4652568,106.422372 20.4516616,108.408071 22.9021903,108.408071 C25.352719,108.408071 27.3387462,106.422372 27.3387462,103.97187 C27.3387462,101.522124 25.352719,99.5360472 22.9021903,99.5360472 C20.4516616,99.5360472 18.4652568,101.522124 18.4652568,103.97187"/>
      <path fill="#EDEDED" d="M62.3160876,106.884153 C62.8617825,106.884153 63.4104985,106.703292 63.8655589,106.330619 C64.9123867,105.474265 65.0664653,103.932224 64.2099698,102.885569 L38.6121601,71.6067493 C37.755287,70.5597168 36.2129909,70.4056637 35.1661631,71.2623953 C34.1193353,72.1191268 33.9652568,73.6611681 34.8217523,74.707823 L60.4199396,105.986265 C60.9040785,106.577558 61.6072508,106.884153 62.3160876,106.884153"/>
      <path fill="#CFCFCF" d="M73.6778701 55.0860649L86.4780967 55.0860649C88.7677492 55.0860649 90.9799849 54.4090619 92.8768882 53.1283068L96.0075529 51.0157404C97.1283988 50.2594454 97.4244713 48.7377935 96.6676737 47.6171327 95.9112538 46.4960944 94.3904834 46.2000708 93.2685045 46.9571209L90.1367069 49.0700649C89.0517372 49.8029499 87.7866314 50.1895929 86.4780967 50.1895929L73.6778701 50.1895929C72.3255287 50.1895929 71.2292296 51.2860885 71.2292296 52.6378289 71.2292296 53.9899469 72.3255287 55.0860649 73.6778701 55.0860649M54.9410876 104.436295C54.9410876 100.36446 58.2424471 97.0632684 62.3149547 97.0632684 66.3874622 97.0632684 69.6888218 100.36446 69.6888218 104.436295 69.6888218 108.507752 66.3874622 111.808566 62.3149547 111.808566 58.2424471 111.808566 54.9410876 108.507752 54.9410876 104.436295"/>
      <path fill="#DADADA" d="M60.570997,104.436295 C60.570997,103.473086 61.3519637,102.692625 62.3149547,102.692625 C63.2779456,102.692625 64.0589124,103.473086 64.0589124,104.436295 C64.0589124,105.399127 63.2779456,106.179587 62.3149547,106.179587 C61.3519637,106.179587 60.570997,105.399127 60.570997,104.436295"/>
      <path fill="#CFCFCF" d="M96,103.999594 C96,101.790681 97.7910872,100 100,100 C102.208913,100 104,101.790681 104,103.999594 C104,106.209319 102.208913,108 100,108 C97.7910872,108 96,106.209319 96,103.999594"/>
      <path fill="#EDEDED" d="M29.1718278,55.2574867 C29.1718278,53.2026903 30.8372356,51.5375575 32.891994,51.5375575 C34.9467523,51.5375575 36.6125378,53.2026903 36.6125378,55.2574867 C36.6125378,57.3119056 34.9467523,58.9770383 32.891994,58.9770383 C30.8372356,58.9770383 29.1718278,57.3119056 29.1718278,55.2574867"/>
      <path fill="#DADADA" d="M30.7371601,55.2574867 C30.7371601,54.0677286 31.7020393,53.1030088 32.891994,53.1030088 C34.0819486,53.1030088 35.0468278,54.0677286 35.0468278,55.2574867 C35.0468278,56.4472448 34.0819486,57.411587 32.891994,57.411587 C31.7020393,57.411587 30.7371601,56.4472448 30.7371601,55.2574867"/>
      <polyline fill="#FFF" points="69.225 61.72 68.574 63.551 70.515 63.551 71.166 61.72 69.225 61.72"/>
      <polyline fill="#FFF" points="74.662 61.72 72.722 61.72 72.071 63.551 74.011 63.551 74.662 61.72"/>
      <path fill="#FBCFCE" d="M44.6574773,67.1814985 L82.8980363,37.0369322 C82.8980363,37.0369322 91.1212236,31.5053687 95.430136,41.1057463 C102.362538,56.5507021 59.390861,68.9901121 59.390861,68.9901121 L70.4225831,84.1322478 L62.7466012,87.956767 L44.6574773,67.1814985"/>
      <path fill="#FBCFCE" d="M68.1299094,83.6814159 L55.3361027,69.5221239 C58.2114804,69.4462301 59.4308912,68.9497109 59.4308912,68.9497109 L59.4482628,68.9731209 C59.4101208,68.9844484 59.390861,68.9901121 59.390861,68.9901121 L69.2896526,82.5773687 L68.1299094,83.6814159"/>
      <path fill="#EDEDED" d="M72.5109517,91.9980177 C72.4637462,91.6887788 72.2983384,91.3972861 72.0256798,91.1967906 C71.4807402,90.7965546 70.7148792,90.9132271 70.3141994,91.4584543 L61.3364804,103.672826 C60.9361782,104.217676 61.0532477,104.98341 61.5981873,105.384024 C62.1431269,105.78426 62.9089879,105.667587 63.30929,105.12236 L72.2870091,92.9079882 C72.4875378,92.6357522 72.5585347,92.3080118 72.5109517,91.9980177"/>
      <polyline fill="#DADADA" points="75.309 88.76 67.033 91.98 68.38 95.44 76.656 92.22 75.309 88.76"/>
      <path fill="#F1F1F1" d="M50.831571,38.176472 L65.6971299,36.8598466 C65.6971299,36.8598466 67.4746979,18.9028437 57.5067976,19.5088614 C47.5385196,20.1148791 50.831571,38.176472 50.831571,38.176472"/>
      <path fill="#FBCFCE" d="M86.4603474,18.6785605 L78.4796073,26.8354454 L62.5037764,11.2096283 C66.9112538,6.70508555 74.1367069,6.62541593 78.6423716,11.0321652 L86.4603474,18.6785605"/>
      <path fill="#FEBBBA" d="M94.4482628,26.491469 L86.4679003,34.6479764 L70.4920695,19.0225369 C74.8991692,14.5176165 82.1246224,14.4383245 86.6299094,18.8450737 L94.4482628,26.491469"/>
      <path fill="#F69A98" d="M79.0683535,12.3891917 C78.6944864,12.0233156 78.18429,11.939115 77.9282477,12.2004012 C77.6725831,12.4620649 77.7681269,12.9706667 78.141994,13.3361652 C78.515861,13.7016637 79.026435,13.7862419 79.2820997,13.5245782 C79.538142,13.263292 79.4422205,12.7546903 79.0683535,12.3891917"/>
      <path fill="#CFCFCF" d="M70.4222054,84.1322478 L74.2598187,89.1684248 L57.6049849,95.6405428 C57.6049849,95.6405428 55.9203172,92.7562006 64.0589124,89.588295 L62.7466012,87.956767 L70.4222054,84.1322478"/>
      <polyline fill="#FBCFCE" points="71.616 83.802 69.563 80.794 59.892 86.269 61.603 88.645 71.616 83.802"/>
      <polyline fill="#F69A98" points="85.471 20.611 80.452 26.243 82.259 28.019 86.548 26.975 87.756 23.128 85.471 20.611"/>
    </g>
    <g transform="translate(111)">
      <path fill="#FFEBEB" d="M29.4813253,18.0349443 C29.4813253,8.35092481 22.9751205,0.501100278 14.9499398,0.501100278 C6.92457834,0.501100278 0.418554217,8.35092481 0.418554217,18.0349443 C0.418554217,27.2391393 6.29801202,34.781585 13.7716265,35.5062674 L11.3474096,39.8420445 L18.5522891,39.8420445 L16.1280723,35.5062674 C23.6018675,34.781585 29.4813253,27.2391393 29.4813253,18.0349443"/>
      <path fill="#CFCFCF" d="M12.0516868,39.4221281 L17.8481928,39.4221281 L15.7762048,35.7162256 C15.7066265,35.5923036 15.7033735,35.4405738 15.7668072,35.3134791 C15.8304217,35.1861978 15.9524096,35.1016546 16.0899398,35.0882173 C23.3710843,34.3823844 29.0746988,26.8916351 29.0746988,18.0349443 C29.0746988,8.5980223 22.7381928,0.921016714 14.9499398,0.921016714 C7.16150604,0.921016714 0.82518072,8.5980223 0.82518072,18.0349443 C0.82518072,26.8916351 6.52861446,34.3823844 13.8097591,35.0882173 C13.9474699,35.1016546 14.0694578,35.1861978 14.1328916,35.3134791 C14.196506,35.4405738 14.1930723,35.5923036 14.123494,35.7162256 L12.0516868,39.4221281 Z M18.5522891,40.261961 L11.3474096,40.261961 C11.2019277,40.261961 11.0678313,40.181897 10.9953614,40.0520028 C10.9225301,39.9221086 10.9225301,39.7619805 10.9953614,39.6320863 L13.1109036,35.8481727 C9.6101205,35.3313955 6.38530122,33.347897 3.97373494,30.2115877 C1.41903614,26.8884624 0.0119277109,22.563883 0.0119277109,18.0349443 C0.0119277109,8.13518104 6.71313252,0.0811838438 14.9499398,0.0811838438 C23.186747,0.0811838438 29.8879518,8.13518104 29.8879518,18.0349443 C29.8879518,22.563883 28.4801205,26.8884624 25.9259639,30.2115877 C23.5143976,33.347897 20.2897591,35.3313955 16.7887952,35.8481727 L18.9043373,39.6320863 C18.9773494,39.7619805 18.9773494,39.9221086 18.9043373,40.0520028 C18.8318675,40.181897 18.6977711,40.261961 18.5522891,40.261961 L18.5522891,40.261961 Z"/>
      <path fill="#F69A98" d="M25.7557229,17.3878997 C25.7557229,24.545702 20.4516868,30.3482005 13.9089759,30.3482005 C7.3659036,30.3482005 2.06204819,24.545702 2.06204819,17.3878997 C2.06204819,10.2299109 7.3659036,4.42741225 13.9089759,4.42741225 C20.4516868,4.42741225 25.7557229,10.2299109 25.7557229,17.3878997"/>
      <path fill="#F9F9F9" d="M13.9060843 11.3060167C13.9060843 11.0747827 13.8397591 10.9014039 13.7074699 10.7860668 13.575 10.6703565 13.4296988 10.6123148 13.2708434 10.6123148 13.111988 10.6123148 12.9661446 10.6703565 12.8338554 10.7860668 12.7013855 10.9014039 12.6354217 11.0747827 12.6354217 11.3060167L12.6354217 24.865025C12.6354217 25.0960725 12.7013855 25.2696379 12.8338554 25.384975 12.9661446 25.5006852 13.111988 25.5583538 13.2708434 25.5583538 13.4296988 25.5583538 13.575 25.5006852 13.7074699 25.384975 13.8397591 25.2696379 13.9060843 25.0960725 13.9060843 24.865025L13.9060843 11.3060167zM15.6003614 24.8215404C15.6003614 25.1277995 15.5340361 25.3956128 15.401747 25.6253538 15.2692771 25.854908 15.0928916 26.04639 14.8722289 26.1994262 14.6515663 26.3524624 14.4023494 26.4672395 14.1243976 26.5439443 13.8464458 26.6204624 13.561988 26.6587215 13.2708434 26.6587215 12.9795181 26.6587215 12.6948795 26.6204624 12.4169277 26.5439443 12.1389759 26.4672395 11.8895783 26.3524624 11.6689157 26.1994262 11.4484337 26.04639 11.2718675 25.854908 11.1395783 25.6253538 11.0071084 25.3956128 10.9411446 25.1277995 10.9411446 24.8215404L10.9411446 11.3493148C10.9411446 11.0430557 11.0071084 10.7750557 11.1395783 10.5455014 11.2718675 10.3157605 11.4484337 10.1244652 11.6689157 9.97142898 11.8895783 9.81820614 12.1389759 9.70342898 12.4169277 9.62691085 12.6948795 9.55039278 12.9795181 9.51213369 13.2708434 9.51213369 13.561988 9.51213369 13.8464458 9.55039278 14.1243976 9.62691085 14.4023494 9.70342898 14.6515663 9.81820614 14.8722289 9.97142898 15.0928916 10.1244652 15.2692771 10.3157605 15.401747 10.5455014 15.5340361 10.7750557 15.6003614 11.0430557 15.6003614 11.3493148L15.6003614 24.8215404 15.6003614 24.8215404zM22.9492771 14.277532C22.9492771 14.2163175 22.9196386 14.1674206 22.8607229 14.1312145 22.8014458 14.0948217 22.7318675 14.076532 22.6518072 14.076532 22.5656024 14.076532 22.4893373 14.0948217 22.4221084 14.1312145 22.3552409 14.1674206 22.3218072 14.2163175 22.3218072 14.277532L22.3218072 17.6704568C22.3218072 17.701064 22.3485542 17.7393231 22.4022289 17.785234 22.4559036 17.8311448 22.5388554 17.8541003 22.6518072 17.8541003 22.7318675 17.8541003 22.8014458 17.8359972 22.8607229 17.7997911 22.9196386 17.7633983 22.9492771 17.7201003 22.9492771 17.6704568L22.9492771 14.277532zM23.9658434 17.5452284C23.9658434 17.6637382 23.9306024 17.7745961 23.8606627 17.8778022 23.7905422 17.9810083 23.6951205 18.0717103 23.5753012 18.1500947 23.4551205 18.2286657 23.3148795 18.2908134 23.1547591 18.3367242 22.9944578 18.3826351 22.8269277 18.4052173 22.6518072 18.4052173 22.4651205 18.4052173 22.2898193 18.3826351 22.1259036 18.3367242 21.961988 18.2908134 21.8195783 18.227546 21.6986747 18.1474819 21.5774096 18.0670445 21.4816265 17.97261 21.4111446 17.8634318 21.3404819 17.7546267 21.3052409 17.639103 21.3052409 17.5164875L21.3052409 14.4083593C21.3052409 14.2863036 21.3404819 14.1717131 21.4111446 14.0644011 21.4816265 13.9572758 21.5774096 13.8637744 21.6986747 13.783337 21.8195783 13.7034596 21.961988 13.6401922 22.1259036 13.5942813 22.2898193 13.5483705 22.4651205 13.525415 22.6518072 13.525415 22.8269277 13.525415 22.9944578 13.5474373 23.1547591 13.5911086 23.3148795 13.6353398 23.4551205 13.6958078 23.5753012 13.7719527 23.6951205 13.8484708 23.7905422 13.9391727 23.8606627 14.0442451 23.9306024 14.1495042 23.9658434 14.2652145 23.9658434 14.391376L23.9658434 17.5452284zM21.5911446 9.52389135L20.088253 19.6337995 19.0259639 19.6337995 20.5288554 9.52389135 21.5911446 9.52389135zM18.0489759 11.5156017C18.0489759 11.458493 18.0193373 11.4107159 17.9607832 11.3724568 17.901506 11.3340112 17.8290361 11.3151615 17.7433735 11.3151615 17.6627711 11.3151615 17.5892168 11.3340112 17.521988 11.3724568 17.4549398 11.4107159 17.4216868 11.458493 17.4216868 11.5156017L17.4216868 14.9033008C17.4216868 14.938014 17.4484337 14.9770195 17.5022891 15.021064 17.5556024 15.0651086 17.6360241 15.0869443 17.7433735 15.0869443 17.8290361 15.0869443 17.901506 15.069961 17.9607832 15.0354345 18.0193373 15.0010947 18.0489759 14.9570501 18.0489759 14.9033008L18.0489759 11.5156017zM19.0655422 14.7741532C19.0655422 14.8924763 19.0292168 15.0040808 18.9565663 15.1089665 18.8840964 15.214039 18.7874096 15.3054875 18.6674096 15.3834986 18.5470482 15.461883 18.406988 15.523844 18.2466868 15.5693816 18.0863855 15.6152925 17.918494 15.6380613 17.7433735 15.6380613 17.563012 15.6380613 17.3911446 15.6152925 17.2281325 15.5693816 17.0653012 15.523844 16.9237952 15.4609499 16.8034337 15.3808858 16.6830723 15.3006351 16.5865663 15.2063872 16.5139157 15.0975822 16.4414458 14.9887772 16.4051205 14.8715738 16.4051205 14.7457855L16.4051205 11.644936C16.4051205 11.5266128 16.4414458 11.4142618 16.5139157 11.3075097 16.5865663 11.2007577 16.6830723 11.1074429 16.8034337 11.0271922 16.9237952 10.9469415 17.0653012 10.8831142 17.2281325 10.8355237 17.3909639 10.7881198 17.5626506 10.7640445 17.7428313 10.7640445 17.9179518 10.7640445 18.0858434 10.7860668 18.2463253 10.8297382 18.4068072 10.8737827 18.5466868 10.9336908 18.6672289 11.0100223 18.7874096 11.0861671 18.8840964 11.1778022 18.9565663 11.284741 19.0292168 11.3913064 19.0655422 11.5077632 19.0655422 11.6335515L19.0655422 14.7741532 19.0655422 14.7741532z"/>
      <polyline fill="#F9F9F9" points="5.962 9.818 5.962 11.098 8.264 11.098 6.706 26.352 8.404 26.352 10.094 9.818 5.962 9.818"/>
      <path fill="#CFCFCF" d="M15.2018675 32.4074708C14.9864458 32.4074708 14.8066265 32.2329722 14.7959639 32.0082702 14.7851205 31.776663 14.9580723 31.5795822 15.1823494 31.5683844 19.6684337 31.3421894 23.55 27.655883 25.0707832 22.1768134 25.1329518 21.9541643 25.3579518 21.82539 25.573735 21.8886574 25.7896988 21.9526713 25.9145783 22.1852117 25.8529518 22.4080473 24.2342168 28.2383538 20.0616868 32.162986 15.2221084 32.4072841 15.2150602 32.4074708 15.2085542 32.4074708 15.2018675 32.4074708M13.3834337 66.9148968C13.2753614 66.9148968 13.168012 66.8710388 13.0879518 66.7836965 12.9336145 66.6151699 12.9404819 66.3495963 13.1036747 66.1898414 13.1531928 66.1415045 18.0578313 61.2764454 17.7862048 55.7783398 17.6320482 52.659014 16.5216868 51.1475014 14.8407832 48.85961 14.3748795 48.2252563 13.8927109 47.5692535 13.3749398 46.802766 10.7875301 42.9753677 14.6488554 39.5546351 14.688253 39.5206685 14.8604819 39.3711783 15.116747 39.393947 15.2611446 39.5719917 15.4055422 39.7492897 15.383494 40.0139304 15.211988 40.163234 15.0748193 40.2828635 11.8818072 43.1272841 14.0416265 46.3223816 14.5503614 47.0746852 15.0274699 47.7243426 15.4888554 48.3521643 17.1972289 50.6775682 18.4312048 52.3577939 18.5983735 55.7357883 18.8893373 61.6245098 13.8760843 66.5914681 13.6626506 66.8001199 13.5842168 66.8768247 13.4835542 66.9148968 13.3834337 66.9148968"/>
    </g>
  </g>
</svg>
