<svg xmlns="http://www.w3.org/2000/svg" width="36" height="36" viewBox="0 0 36 36">
  <g fill="none" fill-rule="evenodd" transform="translate(9 7)">
    <path fill="#FFEBEB" d="M14.9740655,16.3444444 L10.9500122,16.3444444 L10.9500122,11.3629862 C10.9264632,11.3629862 12.3288481,12.4613796 13.8315559,12.7756157 C15.239102,13.0699522 16.7346671,14.5536596 17.2288691,15.3232573 C17.6129451,15.921361 17.8155866,15.8089834 17.9398083,16.3444444 L14.9740655,16.3444444 Z"/>
    <path fill="#F69A98" d="M10.9699707,11.3713994 L10.9699707,16.0730454 L17.9705557,16.0730454 L17.9705557,22 L16.2771265,22 C16.2828617,21.9526808 16.2858161,21.9044732 16.2858161,21.8555556 C16.2858161,21.2173598 15.7829604,20.7 15.1626564,20.7 C14.5423524,20.7 14.0394966,21.2173598 14.0394966,21.8555556 C14.0394966,21.9044732 14.042451,21.9526808 14.0481862,22 L12.2056725,22 C12.2114077,21.9526808 12.2143621,21.9044732 12.2143621,21.8555556 C12.2143621,21.2173598 11.7115063,20.7 11.0912023,20.7 C10.4708983,20.7 9.96804261,21.2173598 9.96804261,21.8555556 C9.96804261,21.9044732 9.97099699,21.9526808 9.97673218,22 L8.13421847,22 C8.13995367,21.9526808 8.14290805,21.9044732 8.14290805,21.8555556 C8.14290805,21.2173598 7.64005231,20.7 7.01974832,20.7 C6.39944432,20.7 5.89658858,21.2173598 5.89658858,21.8555556 C5.89658858,21.9044732 5.89954296,21.9526808 5.90527816,22 L4.06276445,22 C4.06849965,21.9526808 4.07145402,21.9044732 4.07145402,21.8555556 C4.07145402,21.2173598 3.56859828,20.7 2.94829429,20.7 C2.3279903,20.7 1.82513456,21.2173598 1.82513456,21.8555556 C1.82513456,21.9044732 1.82808894,21.9526808 1.83382413,22 L0,22 L0,-1.66533453e-16 L1.90677663,-1.66533453e-16 C1.85412712,0.133817874 1.82513456,0.280092158 1.82513456,0.433333333 C1.82513456,1.07152904 2.3279903,1.58888889 2.94829429,1.58888889 C3.56859828,1.58888889 4.07145402,1.07152904 4.07145402,0.433333333 C4.07145402,0.280092158 4.04246146,0.133817874 3.98981196,-1.66533453e-16 L5.97823065,-1.66533453e-16 C5.92558115,0.133817874 5.89658858,0.280092158 5.89658858,0.433333333 C5.89658858,1.07152904 6.39944432,1.58888889 7.01974832,1.58888889 C7.64005231,1.58888889 8.14290805,1.07152904 8.14290805,0.433333333 C8.14290805,0.280092158 8.11391548,0.133817874 8.06126598,-2.72848411e-12 L10.0496847,-1.66533453e-16 C9.99703517,0.133817874 9.96804261,0.280092158 9.96804261,0.433333333 C9.96804261,1.07152904 10.4708983,1.58888889 11.0912023,1.58888889 C11.7115063,1.58888889 12.2143621,1.07152904 12.2143621,0.433333333 C12.2143621,0.280092158 12.1853695,0.133817874 12.13272,-2.72848411e-12 L14.1211387,-1.66533453e-16 C14.0684892,0.133817874 14.0394966,0.280092158 14.0394966,0.433333333 C14.0394966,1.07152904 14.5423524,1.58888889 15.1626564,1.58888889 C15.7829604,1.58888889 16.2858161,1.07152904 16.2858161,0.433333333 C16.2858161,0.280092158 16.2568235,0.133817874 16.204174,-2.72848411e-12 L17.9705557,-1.66533453e-16 L17.9705557,11.3713994 L10.9699707,11.3713994 Z"/>
    <rect width="1.685" height=".722" x="1.107" y="11.003" fill="#FFF" rx=".361"/>
    <rect width="1.685" height=".722" x="4.087" y="11.003" fill="#FFF" rx=".361"/>
    <rect width="1.685" height=".722" x="7.083" y="11.003" fill="#FFF" rx=".361"/>
    <path fill="#FFF" d="M10.9717062,11.7254682 L10.4995299,11.7254682 C10.3451336,11.7254682 10.2199707,11.5963493 10.2199707,11.4358742 L10.2199707,11.2928399 C10.2199707,11.1329016 10.3445403,11.0032459 10.5008718,11.0032459 L10.9636841,11.0032459 L11.62557,11.0032459 C11.7797349,11.0032459 11.9093553,11.2038819 11.9093553,11.3643571 C11.9093553,11.3643571 11.0326012,11.3643571 10.9717062,11.3643571 L10.9717062,11.4773762 L10.9717062,11.7254682 Z"/>
    <rect width="9.696" height=".867" x="3.089" y="3.333" fill="#FFF" rx=".433"/>
    <rect width="7.45" height=".867" x="3.089" y="6.356" fill="#FFF" rx=".433"/>
  </g>
</svg>
