<svg xmlns="http://www.w3.org/2000/svg" width="120" height="120" viewBox="0 0 120 120">
  <g fill="none" fill-rule="evenodd" transform="translate(-11 5)">
    <g transform="rotate(-15 83.756 -284.726)">
      <polyline fill="#F1F1F1" points="2.875 10.989 8.625 63.347 37.375 63.347 43.125 10.989"/>
      <path fill="#FBCFCE" d="M44.7222222,7.75683155 C44.0684293,5.84987157 42.1670285,1.15048834 41.5277778,0.646402629 C40.9063023,0.156333725 40.2607829,0.000223534732 40.25,-6.45261622e-13 L23,-6.45261622e-13 L5.75,-6.45261622e-13 C5.71171358,0.0105169015 5.11111111,-6.43001021e-13 4.47222222,0.646402629 C3.83333333,1.29280526 1.92609997,5.82651739 1.27777778,7.75683155 L44.7222222,7.75683155 Z"/>
      <rect width="46" height="3.232" y="7.757" fill="#FEBBBA" rx="1.616"/>
      <polygon fill="#FBCFCE" points="2.556 28.442 43.444 28.442 40.889 47.187 5.111 47.187"/>
      <ellipse cx="23" cy="38.138" fill="#FEBBBA" rx="7.667" ry="7.757"/>
    </g>
    <g transform="rotate(-35 103.136 32.39)">
      <path fill="#F1F1F1" d="M69.1311614,50.5672628 L68.5136929,56.7085711 C68.2667055,58.5509636 66.7847811,59.9020514 64.9323757,59.9020514 L10.7186421,59.9020514 C8.86623662,59.9020514 7.38431224,58.5509636 7.13732484,56.7085711 L6.51985635,50.5672628 C6.39636265,49.216175 6.76684375,47.8650872 7.75479333,46.7596517 C8.61924922,45.7770424 9.9776799,45.1629116 11.3361106,45.1629116 L64.3149072,45.1629116 C65.6733379,45.1629116 67.0317685,45.7770424 67.8962244,46.7596517 C68.7606803,47.742261 69.2546551,49.216175 69.1311614,50.5672628 Z"/>
      <path fill="#FEBBBA" d="M68.6371866,42.7063882 L64.1914135,42.7063882 L6.89033744,42.7063882 C3.55600759,42.7063882 0.839146226,40.0042126 0.839146226,36.6879062 C0.839146226,33.3715997 3.55600759,30.6694241 6.89033744,30.6694241 L8.00178073,30.6694241 C8.37226182,30.6694241 51.5075844,30.7408848 66.4143,30.5465979 L68.6371866,30.5465979 C71.9715165,30.5465979 74.6883778,33.2487735 74.6883778,36.56508 C74.8118715,40.0042126 72.0950102,42.7063882 68.6371866,42.7063882 Z"/>
      <path fill="#F1F1F1" d="M5.65540046,21.9487663 C5.65540046,6.96397417 15.9053774,0.0857089182 37.763762,0.0857089182 C59.6221466,0.0857089182 69.8721236,7.08680034 69.8721236,21.9487663 L69.8721236,24.650942 C69.8721236,26.6161606 68.2667055,28.2129008 66.2908063,28.2129008 L16.7698333,28.2129008 L16.0288711,28.2129008 L15.9053774,28.2129008 L9.11322401,28.2129008 C7.13732484,28.2129008 5.53190676,26.6161606 5.53190676,24.650942 L5.53190676,21.9487663 L5.65540046,21.9487663 Z"/>
      <ellipse cx="30.384" cy="18.571" fill="#FEBBBA" rx="1.876" ry="1.904"/>
      <ellipse cx="56.647" cy="18.571" fill="#FEBBBA" rx="1.876" ry="1.904"/>
      <ellipse cx="15.376" cy="18.571" fill="#FEBBBA" rx="1.876" ry="1.904"/>
      <ellipse cx="45.391" cy="10.956" fill="#FEBBBA" rx="1.876" ry="1.904"/>
      <ellipse cx="34.135" cy="10.956" fill="#FEBBBA" rx="1.876" ry="1.904"/>
      <ellipse cx="22.88" cy="10.956" fill="#FEBBBA" rx="1.876" ry="1.904"/>
    </g>
  </g>
</svg>
