<svg xmlns="http://www.w3.org/2000/svg" width="48" height="48" viewBox="0 0 48 48">
  <g fill="none" transform="translate(2 2)">
    <polygon fill="#F69A98" points="30.728 15.897 27.558 12.728 21.728 18.558 15.897 12.728 12.728 15.897 18.558 21.728 12.728 27.558 15.897 30.728 21.728 24.897 27.558 30.728 30.728 27.558 24.897 21.728"/>
    <path fill="#E5E5E5" d="M22,41.423 C32.7270267,41.423 41.423,32.7270267 41.423,22 C41.423,11.2729733 32.7270267,2.577 22,2.577 C11.2729733,2.577 2.577,11.2729733 2.577,22 C2.577,32.7270267 11.2729733,41.423 22,41.423 Z M22,43.808 C9.95577418,43.808 0.192,34.0442258 0.192,22 C0.192,9.95577418 9.95577418,0.192 22,0.192 C34.0442258,0.192 43.808,9.95577418 43.808,22 C43.808,34.0442258 34.0442258,43.808 22,43.808 Z"/>
  </g>
</svg>
