<svg xmlns="http://www.w3.org/2000/svg" width="36" height="36" viewBox="0 0 36 36">
  <path fill="#F69A98" d="M17.4545455,10.8654545 L20.0727273,8.24727273 L20.0727273,22.6909091 C20.0727273,23.4327273 19.5054545,24 18.7636364,24 L1.30909091,24 C0.567272727,24 0,23.4327273 0,22.6909091 L0,5.23636364 C0,4.49454545 0.567272727,3.92727273 1.30909091,3.92727273 L15.7527273,3.92727273 L13.1345455,6.54545455 L2.61818182,6.54545455 L2.61818182,21.3818182 L17.4545455,21.3818182 L17.4545455,10.8654545 Z M10.0363636,11.7818182 L10.0363636,13.9636364 L12.2181818,13.9636364 L21.8181818,4.36363636 L19.6363636,2.18181818 L10.0363636,11.7818182 Z M21.8181818,0 L20.5090909,1.30909091 L22.6909091,3.49090909 L24,2.18181818 L21.8181818,0 Z" transform="translate(8 6)"/>
</svg>
