<svg xmlns="http://www.w3.org/2000/svg" width="120" height="120" viewBox="0 0 120 120">
  <g fill="none" fill-rule="evenodd" transform="translate(3 10)">
    <g transform="translate(67 42)">
      <path fill="#FEBBBA" d="M15,0 C6.72894775,0 0,6.72894775 0,15 C0,23.2710522 6.72894775,30 15,30 C23.2710522,30 30,23.2710522 30,15 C30,6.72894775 23.2710522,0 15,0 L15,0 Z"/>
      <path fill="#FFF" d="M20.5263157,8.54492749 C20.5263157,8.18579874 20.2383599,7.89473684 19.8830635,7.89473684 L13.3020402,7.89473684 L10.1169365,7.89473684 C9.76164009,7.89473684 9.47368421,8.18579874 9.47368421,8.54492749 C9.47368421,8.90405624 9.76164009,9.19511815 10.1169365,9.19511815 L13.3020402,9.19511815 C14.2626469,9.19511815 15.1735022,9.67082405 15.7386094,10.4675616 C16.0047989,10.8429451 16.1832638,11.2588385 16.2798458,11.6848912 L10.1169365,11.6848912 C9.76164009,11.6848912 9.47368421,11.9759531 9.47368421,12.3350818 C9.47368421,12.6942106 9.76164009,12.9852725 10.1169365,12.9852725 L16.3030569,12.9852725 C16.2800657,13.097532 16.2516721,13.2087438 16.2152693,13.3177333 C15.9476663,14.1200584 15.3393407,14.70523 14.5023589,14.9655602 C13.2284179,15.3615162 11.8057248,15.311482 10.4280092,15.2624637 L10.1385457,15.2523045 C9.86843,15.2383355 9.62017482,15.4062168 9.51966666,15.6609595 C9.4191585,15.9154481 9.48700149,16.2060021 9.68952544,16.3881063 L17.62364,23.519885 C17.7462599,23.6301126 17.8987811,23.6842105 18.0507996,23.6842105 C18.2281966,23.6842105 18.4045884,23.6105561 18.5317312,23.4660411 C18.7679254,23.1978374 18.7440547,22.7868966 18.4784619,22.5481548 L11.8567328,16.5961164 C12.8673424,16.5945925 13.8857414,16.5176364 14.8805209,16.2085418 C16.1238069,15.8219831 17.0308931,14.9429559 17.4344334,13.7332457 C17.5157822,13.4894242 17.5660363,13.2383642 17.6013712,12.9852724 L19.8830635,12.9852724 C20.2383599,12.9852724 20.5263158,12.6942105 20.5263158,12.3350818 C20.5263158,11.975953 20.2383599,11.6848911 19.8830635,11.6848911 L17.5940843,11.6848911 C17.4835568,10.9902856 17.2107085,10.3112364 16.7843968,9.70993702 C16.6525741,9.52411836 16.5032881,9.35550692 16.3468094,9.19511809 L19.8830635,9.19511809 C20.2383599,9.19511815 20.5263157,8.90405624 20.5263157,8.54492749 L20.5263157,8.54492749 Z"/>
      <g fill="#FEBBBA" transform="matrix(-1 0 0 1 46 4)">
        <path d="M4.125 1.13333333C4.125.533333333 4.625 0 5.1875 0L13.6875 0C14.25 0 14.75.533333333 14.75 1.13333333 14.75 1.73333333 14.25 2.26666667 13.6875 2.26666667L5.1875 2.26666667C4.625 2.26666667 4.125 1.73333333 4.125 1.13333333zM13.25 8.06666667L1.0625 8.06666667C.5 8.06666667 0 7.53333333 0 6.93333333 0 6.33333333.5 5.8 1.0625 5.8L13.25 5.8C13.8125 5.8 14.3125 6.33333333 14.3125 6.93333333 14.3125 7.53333333 13.875 8.06666667 13.25 8.06666667zM12.8125 13.8L5.1875 13.8C4.625 13.8 4.125 13.2666667 4.125 12.6666667 4.125 12.0666667 4.625 11.5333333 5.1875 11.5333333L12.75 11.5333333C13.3125 11.5333333 13.8125 12.0666667 13.8125 12.6666667 13.8125 13.2666667 13.375 13.8 12.8125 13.8z"/>
      </g>
    </g>
    <g transform="translate(5 63)">
      <g transform="translate(10)">
        <path fill="#FEBBBA" d="M8,0 C3.58877213,0 0,3.58877213 0,8 C0,12.4112279 3.58877213,16 8,16 C12.4112279,16 16,12.4112279 16,8 C16,3.58877213 12.4112279,0 8,0 L8,0 Z"/>
        <path fill="#FFF" d="M10.5263158,4.55729466 C10.5263158,4.36575933 10.3823378,4.21052632 10.2046896,4.21052632 L6.91417798,4.21052632 L5.32162613,4.21052632 C5.14397794,4.21052632 5,4.36575933 5,4.55729466 C5,4.74883 5.14397794,4.90406301 5.32162613,4.90406301 L6.91417798,4.90406301 C7.39448137,4.90406301 7.849909,5.15777283 8.13246257,5.58269951 C8.26555735,5.78290406 8.35478977,6.00471387 8.4030808,6.23194196 L5.32162613,6.23194196 C5.14397794,6.23194196 5,6.38717498 5,6.57871031 C5,6.77024564 5.14397794,6.92547866 5.32162613,6.92547866 L8.41468636,6.92547866 C8.40319075,6.98535038 8.38899396,7.04466335 8.37079255,7.10279108 C8.23699106,7.53069781 7.93282823,7.84278932 7.51433735,7.98163212 C6.87736687,8.19280864 6.16602032,8.16612373 5.47716249,8.13998064 L5.33243073,8.1345624 C5.1973729,8.12711229 5.07324531,8.21664896 5.02299122,8.35251172 C4.97273714,8.48823901 5.00665864,8.64320113 5.10792062,8.74032334 L9.07497787,12.5439387 C9.13628784,12.6027267 9.21254843,12.6315789 9.28855771,12.6315789 C9.37725618,12.6315789 9.46545208,12.5922966 9.52902349,12.5152219 C9.64712059,12.37218 9.63518525,12.1530115 9.50238884,12.0256825 L6.19152429,8.85126209 C6.69682909,8.85044934 7.20602858,8.80940606 7.70341836,8.64455564 C8.32506135,8.43839101 8.77860444,7.96957646 8.98037458,7.32439769 C9.02104899,7.19435956 9.04617602,7.06046093 9.06384348,6.92547863 L10.2046897,6.92547863 C10.3823378,6.92547863 10.5263158,6.77024561 10.5263158,6.57871028 C10.5263158,6.38717495 10.3823378,6.23194193 10.2046897,6.23194193 L9.06020005,6.23194193 C9.00493627,5.86148565 8.86851214,5.49932608 8.65535631,5.17863308 C8.58944492,5.07952979 8.51480193,4.98960369 8.4365626,4.90406298 L10.2046897,4.90406298 C10.3823378,4.90406301 10.5263158,4.74883 10.5263158,4.55729466 L10.5263158,4.55729466 Z"/>
      </g>
      <g fill="#FEBBBA" transform="translate(.5 2.133)">
        <path d="M2.0625.604444444C2.0625.284444444 2.3125 0 2.59375 0L6.84375 0C7.125 0 7.375.284444444 7.375.604444444 7.375.924444444 7.125 1.20888889 6.84375 1.20888889L2.59375 1.20888889C2.3125 1.20888889 2.0625.924444444 2.0625.604444444zM6.625 4.30222222L.53125 4.30222222C.25 4.30222222 0 4.01777778 0 3.69777778 0 3.37777778.25 3.09333333.53125 3.09333333L6.625 3.09333333C6.90625 3.09333333 7.15625 3.37777778 7.15625 3.69777778 7.15625 4.01777778 6.9375 4.30222222 6.625 4.30222222zM6.40625 7.36L2.59375 7.36C2.3125 7.36 2.0625 7.07555556 2.0625 6.75555556 2.0625 6.43555556 2.3125 6.15111111 2.59375 6.15111111L6.375 6.15111111C6.65625 6.15111111 6.90625 6.43555556 6.90625 6.75555556 6.90625 7.07555556 6.6875 7.36 6.40625 7.36z"/>
      </g>
    </g>
    <g transform="translate(13.846)">
      <path fill="#FEBBBA" d="M11.0769231,0 C4.96906911,0 0,4.93456168 0,11 C0,17.0654383 4.96906911,22 11.0769231,22 C17.184777,22 22.1538462,17.0654383 22.1538462,11 C22.1538462,4.93456168 17.184777,0 11.0769231,0 L11.0769231,0 Z"/>
      <path fill="#FFF" d="M14.5748987,6.26628016 C14.5748987,6.00291908 14.3755447,5.78947368 14.1295703,5.78947368 L9.5734772,5.78947368 L7.3684054,5.78947368 C7.122431,5.78947368 6.92307692,6.00291908 6.92307692,6.26628016 C6.92307692,6.52964124 7.122431,6.74308664 7.3684054,6.74308664 L9.5734772,6.74308664 C10.2385127,6.74308664 10.8691048,7.09193764 11.2603328,7.67621183 C11.4446179,7.95149308 11.5681705,8.25648158 11.635035,8.5689202 L7.3684054,8.5689202 C7.122431,8.5689202 6.92307692,8.78236559 6.92307692,9.04572668 C6.92307692,9.30908776 7.122431,9.52253315 7.3684054,9.52253315 L11.6511042,9.52253315 C11.6351872,9.60485677 11.6155301,9.68641211 11.5903281,9.76633773 C11.4050645,10.3547095 10.983916,10.7838353 10.4044671,10.9747442 C9.52250797,11.2651119 8.5375666,11.2284201 7.58376344,11.1924734 L7.38336563,11.1850233 C7.19636247,11.1747794 7.0244935,11.2978923 6.95491093,11.4847036 C6.88532835,11.6713286 6.93229658,11.8844016 7.07250547,12.0179446 L12.565354,17.2479157 C12.6502447,17.3287493 12.7558363,17.3684211 12.8610799,17.3684211 C12.9838932,17.3684211 13.1060106,17.3144078 13.1940325,17.2084301 C13.3575516,17.0117475 13.3410257,16.7103908 13.1571538,16.5353135 L8.57287979,12.1704854 C9.27253259,12.1693678 9.97757803,12.1129333 10.6662716,11.886264 C11.527008,11.6027876 12.1549908,10.9581676 12.4343648,10.0710468 C12.4906832,9.8922444 12.5254745,9.70813378 12.5499371,9.52253312 L14.1295703,9.52253312 C14.3755447,9.52253312 14.5748988,9.30908772 14.5748988,9.04572664 C14.5748988,8.78236556 14.3755447,8.56892016 14.1295703,8.56892016 L12.5448924,8.56892016 C12.4683733,8.05954276 12.2794784,7.56157336 11.9843395,7.12062048 C11.8930776,6.98435346 11.7897258,6.86070507 11.6813944,6.7430866 L14.1295703,6.7430866 C14.3755447,6.74308664 14.5748987,6.52964124 14.5748987,6.26628016 L14.5748987,6.26628016 Z"/>
    </g>
    <g fill="#FEBBBA" transform="translate(.692 2.933)">
      <path d="M2.85576923.831111111C2.85576923.391111111 3.20192308 0 3.59134615 0L9.47596154 0C9.86538462 0 10.2115385.391111111 10.2115385.831111111 10.2115385 1.27111111 9.86538462 1.66222222 9.47596154 1.66222222L3.59134615 1.66222222C3.20192308 1.66222222 2.85576923 1.27111111 2.85576923.831111111zM9.17307692 5.91555556L.735576923 5.91555556C.346153846 5.91555556 0 5.52444444 0 5.08444444 0 4.64444444.346153846 4.25333333.735576923 4.25333333L9.17307692 4.25333333C9.5625 4.25333333 9.90865385 4.64444444 9.90865385 5.08444444 9.90865385 5.52444444 9.60576923 5.91555556 9.17307692 5.91555556zM8.87019231 10.12L3.59134615 10.12C3.20192308 10.12 2.85576923 9.72888889 2.85576923 9.28888889 2.85576923 8.84888889 3.20192308 8.45777778 3.59134615 8.45777778L8.82692308 8.45777778C9.21634615 8.45777778 9.5625 8.84888889 9.5625 9.28888889 9.5625 9.72888889 9.25961538 10.12 8.87019231 10.12z"/>
    </g>
    <g transform="translate(26.51 9)">
      <path fill="#F1F1F1" d="M0.840465336,3.58257502 C0.840465336,1.60397347 2.44215173,0 4.43633351,0 L44.5690471,0 C46.5549902,0 48.1649152,1.59872303 48.1649152,3.58257502 L48.1649152,77.3630056 C48.1649152,79.3416071 46.5632288,80.9455806 44.5690471,80.9455806 L4.43633351,80.9455806 C2.45039036,80.9455806 0.840465336,79.3468576 0.840465336,77.3630056 L0.840465336,3.58257502 Z"/>
      <path fill="#FEBBBA" d="M24.4904592,79 C25.8711711,79 26.9904592,77.8807119 26.9904592,76.5 C26.9904592,75.1192881 25.8711711,74 24.4904592,74 C23.1097474,74 21.9904592,75.1192881 21.9904592,76.5 C21.9904592,77.8807119 23.1097474,79 24.4904592,79 Z" opacity=".5"/>
      <path fill="#FFEBEB" d="M4.87270467,9.99006599 C4.87270467,9.19777593 5.5253713,8.55549793 6.30192372,8.55549793 L42.9450733,8.55549793 C43.7344092,8.55549793 44.3742923,9.1925272 44.3742923,9.99006599 L44.3742923,71.4845405 C44.3742923,72.2768306 43.7216257,72.9191086 42.9450733,72.9191086 L6.30192372,72.9191086 C5.51258784,72.9191086 4.87270467,72.2820793 4.87270467,71.4845405 L4.87270467,9.99006599 Z"/>
      <path fill="#F69A98" d="M16.4764359,5.61714233 C16.1006662,5.61714233 15.7960447,5.29234232 15.7960447,4.89168115 C15.7960447,4.49101998 16.1006662,4.16621996 16.4764359,4.16621996 C16.8522056,4.16621996 17.1568272,4.49101998 17.1568272,4.89168115 C17.1568272,5.29234232 16.8522056,5.61714233 16.4764359,5.61714233 Z M14.5486607,5.61714233 C14.1728909,5.61714233 13.8682694,5.29234232 13.8682694,4.89168115 C13.8682694,4.49101998 14.1728909,4.16621996 14.5486607,4.16621996 C14.9244304,4.16621996 15.2290519,4.49101998 15.2290519,4.89168115 C15.2290519,5.29234232 14.9244304,5.61714233 14.5486607,5.61714233 Z"/>
      <g fill="#AAA" transform="translate(18.587 3.876)">
        <path d="M0.17121647,2.03129132 C0.07665622,2.03129132 0,1.95550465 0,1.86201705 C0,1.76852944 0.07665622,1.69274277 0.17121647,1.69274277 C0.26577672,1.69274277 0.34243294,1.76852944 0.34243294,1.86201705 C0.34243294,1.95550465 0.26577672,2.03129132 0.17121647,2.03129132 Z M0.741938036,2.03129132 C0.647377786,2.03129132 0.570721566,1.95550465 0.570721566,1.86201705 C0.570721566,1.76852944 0.647377786,1.69274277 0.741938036,1.69274277 C0.836498286,1.69274277 0.913154506,1.76852944 0.913154506,1.86201705 C0.913154506,1.95550465 0.836498286,2.03129132 0.741938036,2.03129132 Z M0.17121647,1.46704373 C0.07665622,1.46704373 0,1.39125706 0,1.29776946 C0,1.20428185 0.07665622,1.12849518 0.17121647,1.12849518 C0.26577672,1.12849518 0.34243294,1.20428185 0.34243294,1.29776946 C0.34243294,1.39125706 0.26577672,1.46704373 0.17121647,1.46704373 Z M0.741938036,1.46704373 C0.647377786,1.46704373 0.570721566,1.39125706 0.570721566,1.29776946 C0.570721566,1.20428185 0.647377786,1.12849518 0.741938036,1.12849518 C0.836498286,1.12849518 0.913154506,1.20428185 0.913154506,1.29776946 C0.913154506,1.39125706 0.836498286,1.46704373 0.741938036,1.46704373 Z M0.17121647,0.902796144 C0.07665622,0.902796144 0,0.827009473 0,0.733521867 C0,0.640034261 0.07665622,0.56424759 0.17121647,0.56424759 C0.26577672,0.56424759 0.34243294,0.640034261 0.34243294,0.733521867 C0.34243294,0.827009473 0.26577672,0.902796144 0.17121647,0.902796144 Z M0.741938036,0.902796144 C0.647377786,0.902796144 0.570721566,0.827009473 0.570721566,0.733521867 C0.570721566,0.640034261 0.647377786,0.56424759 0.741938036,0.56424759 C0.836498286,0.56424759 0.913154506,0.640034261 0.913154506,0.733521867 C0.913154506,0.827009473 0.836498286,0.902796144 0.741938036,0.902796144 Z M0.17121647,0.338548554 C0.07665622,0.338548554 0,0.262761883 0,0.169274277 C0,0.0757866706 0.07665622,0 0.17121647,0 C0.26577672,0 0.34243294,0.0757866706 0.34243294,0.169274277 C0.34243294,0.262761883 0.26577672,0.338548554 0.17121647,0.338548554 Z M0.741938036,0.338548554 C0.647377786,0.338548554 0.570721566,0.262761883 0.570721566,0.169274277 C0.570721566,0.0757866706 0.647377786,0 0.741938036,0 C0.836498286,0 0.913154506,0.0757866706 0.913154506,0.169274277 C0.913154506,0.262761883 0.836498286,0.338548554 0.741938036,0.338548554 Z M1.3126596,2.03129132 C1.21809935,2.03129132 1.14144313,1.95550465 1.14144313,1.86201705 C1.14144313,1.76852944 1.21809935,1.69274277 1.3126596,1.69274277 C1.40721985,1.69274277 1.48387607,1.76852944 1.48387607,1.86201705 C1.48387607,1.95550465 1.40721985,2.03129132 1.3126596,2.03129132 Z M1.88338117,2.03129132 C1.78882092,2.03129132 1.7121647,1.95550465 1.7121647,1.86201705 C1.7121647,1.76852944 1.78882092,1.69274277 1.88338117,1.69274277 C1.97794142,1.69274277 2.05459764,1.76852944 2.05459764,1.86201705 C2.05459764,1.95550465 1.97794142,2.03129132 1.88338117,2.03129132 Z M1.3126596,1.46704373 C1.21809935,1.46704373 1.14144313,1.39125706 1.14144313,1.29776946 C1.14144313,1.20428185 1.21809935,1.12849518 1.3126596,1.12849518 C1.40721985,1.12849518 1.48387607,1.20428185 1.48387607,1.29776946 C1.48387607,1.39125706 1.40721985,1.46704373 1.3126596,1.46704373 Z M1.88338117,1.46704373 C1.78882092,1.46704373 1.7121647,1.39125706 1.7121647,1.29776946 C1.7121647,1.20428185 1.78882092,1.12849518 1.88338117,1.12849518 C1.97794142,1.12849518 2.05459764,1.20428185 2.05459764,1.29776946 C2.05459764,1.39125706 1.97794142,1.46704373 1.88338117,1.46704373 Z M1.3126596,0.902796144 C1.21809935,0.902796144 1.14144313,0.827009473 1.14144313,0.733521867 C1.14144313,0.640034261 1.21809935,0.56424759 1.3126596,0.56424759 C1.40721985,0.56424759 1.48387607,0.640034261 1.48387607,0.733521867 C1.48387607,0.827009473 1.40721985,0.902796144 1.3126596,0.902796144 Z M1.88338117,0.902796144 C1.78882092,0.902796144 1.7121647,0.827009473 1.7121647,0.733521867 C1.7121647,0.640034261 1.78882092,0.56424759 1.88338117,0.56424759 C1.97794142,0.56424759 2.05459764,0.640034261 2.05459764,0.733521867 C2.05459764,0.827009473 1.97794142,0.902796144 1.88338117,0.902796144 Z M1.3126596,0.338548554 C1.21809935,0.338548554 1.14144313,0.262761883 1.14144313,0.169274277 C1.14144313,0.0757866706 1.21809935,0 1.3126596,0 C1.40721985,0 1.48387607,0.0757866706 1.48387607,0.169274277 C1.48387607,0.262761883 1.40721985,0.338548554 1.3126596,0.338548554 Z M1.88338117,0.338548554 C1.78882092,0.338548554 1.7121647,0.262761883 1.7121647,0.169274277 C1.7121647,0.0757866706 1.78882092,0 1.88338117,0 C1.97794142,0 2.05459764,0.0757866706 2.05459764,0.169274277 C2.05459764,0.262761883 1.97794142,0.338548554 1.88338117,0.338548554 Z M2.45410274,2.03129132 C2.35954249,2.03129132 2.28288627,1.95550465 2.28288627,1.86201705 C2.28288627,1.76852944 2.35954249,1.69274277 2.45410274,1.69274277 C2.54866299,1.69274277 2.62531921,1.76852944 2.62531921,1.86201705 C2.62531921,1.95550465 2.54866299,2.03129132 2.45410274,2.03129132 Z M3.0248243,2.03129132 C2.93026405,2.03129132 2.85360783,1.95550465 2.85360783,1.86201705 C2.85360783,1.76852944 2.93026405,1.69274277 3.0248243,1.69274277 C3.11938455,1.69274277 3.19604077,1.76852944 3.19604077,1.86201705 C3.19604077,1.95550465 3.11938455,2.03129132 3.0248243,2.03129132 Z M2.45410274,1.46704373 C2.35954249,1.46704373 2.28288627,1.39125706 2.28288627,1.29776946 C2.28288627,1.20428185 2.35954249,1.12849518 2.45410274,1.12849518 C2.54866299,1.12849518 2.62531921,1.20428185 2.62531921,1.29776946 C2.62531921,1.39125706 2.54866299,1.46704373 2.45410274,1.46704373 Z M3.0248243,1.46704373 C2.93026405,1.46704373 2.85360783,1.39125706 2.85360783,1.29776946 C2.85360783,1.20428185 2.93026405,1.12849518 3.0248243,1.12849518 C3.11938455,1.12849518 3.19604077,1.20428185 3.19604077,1.29776946 C3.19604077,1.39125706 3.11938455,1.46704373 3.0248243,1.46704373 Z M2.45410274,0.902796144 C2.35954249,0.902796144 2.28288627,0.827009473 2.28288627,0.733521867 C2.28288627,0.640034261 2.35954249,0.56424759 2.45410274,0.56424759 C2.54866299,0.56424759 2.62531921,0.640034261 2.62531921,0.733521867 C2.62531921,0.827009473 2.54866299,0.902796144 2.45410274,0.902796144 Z M3.0248243,0.902796144 C2.93026405,0.902796144 2.85360783,0.827009473 2.85360783,0.733521867 C2.85360783,0.640034261 2.93026405,0.56424759 3.0248243,0.56424759 C3.11938455,0.56424759 3.19604077,0.640034261 3.19604077,0.733521867 C3.19604077,0.827009473 3.11938455,0.902796144 3.0248243,0.902796144 Z M2.45410274,0.338548554 C2.35954249,0.338548554 2.28288627,0.262761883 2.28288627,0.169274277 C2.28288627,0.0757866706 2.35954249,0 2.45410274,0 C2.54866299,0 2.62531921,0.0757866706 2.62531921,0.169274277 C2.62531921,0.262761883 2.54866299,0.338548554 2.45410274,0.338548554 Z M3.0248243,0.338548554 C2.93026405,0.338548554 2.85360783,0.262761883 2.85360783,0.169274277 C2.85360783,0.0757866706 2.93026405,0 3.0248243,0 C3.11938455,0 3.19604077,0.0757866706 3.19604077,0.169274277 C3.19604077,0.262761883 3.11938455,0.338548554 3.0248243,0.338548554 Z M3.59554587,2.03129132 C3.50098562,2.03129132 3.4243294,1.95550465 3.4243294,1.86201705 C3.4243294,1.76852944 3.50098562,1.69274277 3.59554587,1.69274277 C3.69010612,1.69274277 3.76676234,1.76852944 3.76676234,1.86201705 C3.76676234,1.95550465 3.69010612,2.03129132 3.59554587,2.03129132 Z M4.16626744,2.03129132 C4.07170719,2.03129132 3.99505097,1.95550465 3.99505097,1.86201705 C3.99505097,1.76852944 4.07170719,1.69274277 4.16626744,1.69274277 C4.26082768,1.69274277 4.3374839,1.76852944 4.3374839,1.86201705 C4.3374839,1.95550465 4.26082768,2.03129132 4.16626744,2.03129132 Z M3.59554587,1.46704373 C3.50098562,1.46704373 3.4243294,1.39125706 3.4243294,1.29776946 C3.4243294,1.20428185 3.50098562,1.12849518 3.59554587,1.12849518 C3.69010612,1.12849518 3.76676234,1.20428185 3.76676234,1.29776946 C3.76676234,1.39125706 3.69010612,1.46704373 3.59554587,1.46704373 Z M4.16626744,1.46704373 C4.07170719,1.46704373 3.99505097,1.39125706 3.99505097,1.29776946 C3.99505097,1.20428185 4.07170719,1.12849518 4.16626744,1.12849518 C4.26082768,1.12849518 4.3374839,1.20428185 4.3374839,1.29776946 C4.3374839,1.39125706 4.26082768,1.46704373 4.16626744,1.46704373 Z M3.59554587,0.902796144 C3.50098562,0.902796144 3.4243294,0.827009473 3.4243294,0.733521867 C3.4243294,0.640034261 3.50098562,0.56424759 3.59554587,0.56424759 C3.69010612,0.56424759 3.76676234,0.640034261 3.76676234,0.733521867 C3.76676234,0.827009473 3.69010612,0.902796144 3.59554587,0.902796144 Z M4.16626744,0.902796144 C4.07170719,0.902796144 3.99505097,0.827009473 3.99505097,0.733521867 C3.99505097,0.640034261 4.07170719,0.56424759 4.16626744,0.56424759 C4.26082768,0.56424759 4.3374839,0.640034261 4.3374839,0.733521867 C4.3374839,0.827009473 4.26082768,0.902796144 4.16626744,0.902796144 Z M3.59554587,0.338548554 C3.50098562,0.338548554 3.4243294,0.262761883 3.4243294,0.169274277 C3.4243294,0.0757866706 3.50098562,0 3.59554587,0 C3.69010612,0 3.76676234,0.0757866706 3.76676234,0.169274277 C3.76676234,0.262761883 3.69010612,0.338548554 3.59554587,0.338548554 Z M4.16626744,0.338548554 C4.07170719,0.338548554 3.99505097,0.262761883 3.99505097,0.169274277 C3.99505097,0.0757866706 4.07170719,0 4.16626744,0 C4.26082768,0 4.3374839,0.0757866706 4.3374839,0.169274277 C4.3374839,0.262761883 4.26082768,0.338548554 4.16626744,0.338548554 Z M4.736989,2.03129132 C4.64242875,2.03129132 4.56577253,1.95550465 4.56577253,1.86201705 C4.56577253,1.76852944 4.64242875,1.69274277 4.736989,1.69274277 C4.83154925,1.69274277 4.90820547,1.76852944 4.90820547,1.86201705 C4.90820547,1.95550465 4.83154925,2.03129132 4.736989,2.03129132 Z M5.30771057,2.03129132 C5.21315032,2.03129132 5.1364941,1.95550465 5.1364941,1.86201705 C5.1364941,1.76852944 5.21315032,1.69274277 5.30771057,1.69274277 C5.40227082,1.69274277 5.47892704,1.76852944 5.47892704,1.86201705 C5.47892704,1.95550465 5.40227082,2.03129132 5.30771057,2.03129132 Z M4.736989,1.46704373 C4.64242875,1.46704373 4.56577253,1.39125706 4.56577253,1.29776946 C4.56577253,1.20428185 4.64242875,1.12849518 4.736989,1.12849518 C4.83154925,1.12849518 4.90820547,1.20428185 4.90820547,1.29776946 C4.90820547,1.39125706 4.83154925,1.46704373 4.736989,1.46704373 Z M5.30771057,1.46704373 C5.21315032,1.46704373 5.1364941,1.39125706 5.1364941,1.29776946 C5.1364941,1.20428185 5.21315032,1.12849518 5.30771057,1.12849518 C5.40227082,1.12849518 5.47892704,1.20428185 5.47892704,1.29776946 C5.47892704,1.39125706 5.40227082,1.46704373 5.30771057,1.46704373 Z M4.736989,0.902796144 C4.64242875,0.902796144 4.56577253,0.827009473 4.56577253,0.733521867 C4.56577253,0.640034261 4.64242875,0.56424759 4.736989,0.56424759 C4.83154925,0.56424759 4.90820547,0.640034261 4.90820547,0.733521867 C4.90820547,0.827009473 4.83154925,0.902796144 4.736989,0.902796144 Z M5.30771057,0.902796144 C5.21315032,0.902796144 5.1364941,0.827009473 5.1364941,0.733521867 C5.1364941,0.640034261 5.21315032,0.56424759 5.30771057,0.56424759 C5.40227082,0.56424759 5.47892704,0.640034261 5.47892704,0.733521867 C5.47892704,0.827009473 5.40227082,0.902796144 5.30771057,0.902796144 Z M4.736989,0.338548554 C4.64242875,0.338548554 4.56577253,0.262761883 4.56577253,0.169274277 C4.56577253,0.0757866706 4.64242875,0 4.736989,0 C4.83154925,0 4.90820547,0.0757866706 4.90820547,0.169274277 C4.90820547,0.262761883 4.83154925,0.338548554 4.736989,0.338548554 Z M5.30771057,0.338548554 C5.21315032,0.338548554 5.1364941,0.262761883 5.1364941,0.169274277 C5.1364941,0.0757866706 5.21315032,0 5.30771057,0 C5.40227082,0 5.47892704,0.0757866706 5.47892704,0.169274277 C5.47892704,0.262761883 5.40227082,0.338548554 5.30771057,0.338548554 Z M5.87843213,2.03129132 C5.78387188,2.03129132 5.70721566,1.95550465 5.70721566,1.86201705 C5.70721566,1.76852944 5.78387188,1.69274277 5.87843213,1.69274277 C5.97299238,1.69274277 6.0496486,1.76852944 6.0496486,1.86201705 C6.0496486,1.95550465 5.97299238,2.03129132 5.87843213,2.03129132 Z M6.4491537,2.03129132 C6.35459345,2.03129132 6.27793723,1.95550465 6.27793723,1.86201705 C6.27793723,1.76852944 6.35459345,1.69274277 6.4491537,1.69274277 C6.54371395,1.69274277 6.62037017,1.76852944 6.62037017,1.86201705 C6.62037017,1.95550465 6.54371395,2.03129132 6.4491537,2.03129132 Z M5.87843213,1.46704373 C5.78387188,1.46704373 5.70721566,1.39125706 5.70721566,1.29776946 C5.70721566,1.20428185 5.78387188,1.12849518 5.87843213,1.12849518 C5.97299238,1.12849518 6.0496486,1.20428185 6.0496486,1.29776946 C6.0496486,1.39125706 5.97299238,1.46704373 5.87843213,1.46704373 Z M6.4491537,1.46704373 C6.35459345,1.46704373 6.27793723,1.39125706 6.27793723,1.29776946 C6.27793723,1.20428185 6.35459345,1.12849518 6.4491537,1.12849518 C6.54371395,1.12849518 6.62037017,1.20428185 6.62037017,1.29776946 C6.62037017,1.39125706 6.54371395,1.46704373 6.4491537,1.46704373 Z M5.87843213,0.902796144 C5.78387188,0.902796144 5.70721566,0.827009473 5.70721566,0.733521867 C5.70721566,0.640034261 5.78387188,0.56424759 5.87843213,0.56424759 C5.97299238,0.56424759 6.0496486,0.640034261 6.0496486,0.733521867 C6.0496486,0.827009473 5.97299238,0.902796144 5.87843213,0.902796144 Z M6.4491537,0.902796144 C6.35459345,0.902796144 6.27793723,0.827009473 6.27793723,0.733521867 C6.27793723,0.640034261 6.35459345,0.56424759 6.4491537,0.56424759 C6.54371395,0.56424759 6.62037017,0.640034261 6.62037017,0.733521867 C6.62037017,0.827009473 6.54371395,0.902796144 6.4491537,0.902796144 Z M5.87843213,0.338548554 C5.78387188,0.338548554 5.70721566,0.262761883 5.70721566,0.169274277 C5.70721566,0.0757866706 5.78387188,0 5.87843213,0 C5.97299238,0 6.0496486,0.0757866706 6.0496486,0.169274277 C6.0496486,0.262761883 5.97299238,0.338548554 5.87843213,0.338548554 Z M6.4491537,0.338548554 C6.35459345,0.338548554 6.27793723,0.262761883 6.27793723,0.169274277 C6.27793723,0.0757866706 6.35459345,0 6.4491537,0 C6.54371395,0 6.62037017,0.0757866706 6.62037017,0.169274277 C6.62037017,0.262761883 6.54371395,0.338548554 6.4491537,0.338548554 Z M7.01987527,2.03129132 C6.92531502,2.03129132 6.8486588,1.95550465 6.8486588,1.86201705 C6.8486588,1.76852944 6.92531502,1.69274277 7.01987527,1.69274277 C7.11443552,1.69274277 7.19109174,1.76852944 7.19109174,1.86201705 C7.19109174,1.95550465 7.11443552,2.03129132 7.01987527,2.03129132 Z M7.59059683,2.03129132 C7.49603658,2.03129132 7.41938036,1.95550465 7.41938036,1.86201705 C7.41938036,1.76852944 7.49603658,1.69274277 7.59059683,1.69274277 C7.68515708,1.69274277 7.7618133,1.76852944 7.7618133,1.86201705 C7.7618133,1.95550465 7.68515708,2.03129132 7.59059683,2.03129132 Z M7.01987527,1.46704373 C6.92531502,1.46704373 6.8486588,1.39125706 6.8486588,1.29776946 C6.8486588,1.20428185 6.92531502,1.12849518 7.01987527,1.12849518 C7.11443552,1.12849518 7.19109174,1.20428185 7.19109174,1.29776946 C7.19109174,1.39125706 7.11443552,1.46704373 7.01987527,1.46704373 Z M7.59059683,1.46704373 C7.49603658,1.46704373 7.41938036,1.39125706 7.41938036,1.29776946 C7.41938036,1.20428185 7.49603658,1.12849518 7.59059683,1.12849518 C7.68515708,1.12849518 7.7618133,1.20428185 7.7618133,1.29776946 C7.7618133,1.39125706 7.68515708,1.46704373 7.59059683,1.46704373 Z M7.01987527,0.902796144 C6.92531502,0.902796144 6.8486588,0.827009473 6.8486588,0.733521867 C6.8486588,0.640034261 6.92531502,0.56424759 7.01987527,0.56424759 C7.11443552,0.56424759 7.19109174,0.640034261 7.19109174,0.733521867 C7.19109174,0.827009473 7.11443552,0.902796144 7.01987527,0.902796144 Z M7.59059683,0.902796144 C7.49603658,0.902796144 7.41938036,0.827009473 7.41938036,0.733521867 C7.41938036,0.640034261 7.49603658,0.56424759 7.59059683,0.56424759 C7.68515708,0.56424759 7.7618133,0.640034261 7.7618133,0.733521867 C7.7618133,0.827009473 7.68515708,0.902796144 7.59059683,0.902796144 Z M7.01987527,0.338548554 C6.92531502,0.338548554 6.8486588,0.262761883 6.8486588,0.169274277 C6.8486588,0.0757866706 6.92531502,0 7.01987527,0 C7.11443552,0 7.19109174,0.0757866706 7.19109174,0.169274277 C7.19109174,0.262761883 7.11443552,0.338548554 7.01987527,0.338548554 Z M7.59059683,0.338548554 C7.49603658,0.338548554 7.41938036,0.262761883 7.41938036,0.169274277 C7.41938036,0.0757866706 7.49603658,0 7.59059683,0 C7.68515708,0 7.7618133,0.0757866706 7.7618133,0.169274277 C7.7618133,0.262761883 7.68515708,0.338548554 7.59059683,0.338548554 Z M8.1613184,2.03129132 C8.06675815,2.03129132 7.99010193,1.95550465 7.99010193,1.86201705 C7.99010193,1.76852944 8.06675815,1.69274277 8.1613184,1.69274277 C8.25587865,1.69274277 8.33253487,1.76852944 8.33253487,1.86201705 C8.33253487,1.95550465 8.25587865,2.03129132 8.1613184,2.03129132 Z M8.73203997,2.03129132 C8.63747972,2.03129132 8.5608235,1.95550465 8.5608235,1.86201705 C8.5608235,1.76852944 8.63747972,1.69274277 8.73203997,1.69274277 C8.82660022,1.69274277 8.90325644,1.76852944 8.90325644,1.86201705 C8.90325644,1.95550465 8.82660022,2.03129132 8.73203997,2.03129132 Z M8.1613184,1.46704373 C8.06675815,1.46704373 7.99010193,1.39125706 7.99010193,1.29776946 C7.99010193,1.20428185 8.06675815,1.12849518 8.1613184,1.12849518 C8.25587865,1.12849518 8.33253487,1.20428185 8.33253487,1.29776946 C8.33253487,1.39125706 8.25587865,1.46704373 8.1613184,1.46704373 Z M8.73203997,1.46704373 C8.63747972,1.46704373 8.5608235,1.39125706 8.5608235,1.29776946 C8.5608235,1.20428185 8.63747972,1.12849518 8.73203997,1.12849518 C8.82660022,1.12849518 8.90325644,1.20428185 8.90325644,1.29776946 C8.90325644,1.39125706 8.82660022,1.46704373 8.73203997,1.46704373 Z M8.1613184,0.902796144 C8.06675815,0.902796144 7.99010193,0.827009473 7.99010193,0.733521867 C7.99010193,0.640034261 8.06675815,0.56424759 8.1613184,0.56424759 C8.25587865,0.56424759 8.33253487,0.640034261 8.33253487,0.733521867 C8.33253487,0.827009473 8.25587865,0.902796144 8.1613184,0.902796144 Z M8.73203997,0.902796144 C8.63747972,0.902796144 8.5608235,0.827009473 8.5608235,0.733521867 C8.5608235,0.640034261 8.63747972,0.56424759 8.73203997,0.56424759 C8.82660022,0.56424759 8.90325644,0.640034261 8.90325644,0.733521867 C8.90325644,0.827009473 8.82660022,0.902796144 8.73203997,0.902796144 Z M8.1613184,0.338548554 C8.06675815,0.338548554 7.99010193,0.262761883 7.99010193,0.169274277 C7.99010193,0.0757866706 8.06675815,0 8.1613184,0 C8.25587865,0 8.33253487,0.0757866706 8.33253487,0.169274277 C8.33253487,0.262761883 8.25587865,0.338548554 8.1613184,0.338548554 Z M8.73203997,0.338548554 C8.63747972,0.338548554 8.5608235,0.262761883 8.5608235,0.169274277 C8.5608235,0.0757866706 8.63747972,0 8.73203997,0 C8.82660022,0 8.90325644,0.0757866706 8.90325644,0.169274277 C8.90325644,0.262761883 8.82660022,0.338548554 8.73203997,0.338548554 Z M9.30276153,2.03129132 C9.20820128,2.03129132 9.13154506,1.95550465 9.13154506,1.86201705 C9.13154506,1.76852944 9.20820128,1.69274277 9.30276153,1.69274277 C9.39732178,1.69274277 9.473978,1.76852944 9.473978,1.86201705 C9.473978,1.95550465 9.39732178,2.03129132 9.30276153,2.03129132 Z M9.8734831,2.03129132 C9.77892285,2.03129132 9.70226663,1.95550465 9.70226663,1.86201705 C9.70226663,1.76852944 9.77892285,1.69274277 9.8734831,1.69274277 C9.96804335,1.69274277 10.0446996,1.76852944 10.0446996,1.86201705 C10.0446996,1.95550465 9.96804335,2.03129132 9.8734831,2.03129132 Z M9.30276153,1.46704373 C9.20820128,1.46704373 9.13154506,1.39125706 9.13154506,1.29776946 C9.13154506,1.20428185 9.20820128,1.12849518 9.30276153,1.12849518 C9.39732178,1.12849518 9.473978,1.20428185 9.473978,1.29776946 C9.473978,1.39125706 9.39732178,1.46704373 9.30276153,1.46704373 Z M9.8734831,1.46704373 C9.77892285,1.46704373 9.70226663,1.39125706 9.70226663,1.29776946 C9.70226663,1.20428185 9.77892285,1.12849518 9.8734831,1.12849518 C9.96804335,1.12849518 10.0446996,1.20428185 10.0446996,1.29776946 C10.0446996,1.39125706 9.96804335,1.46704373 9.8734831,1.46704373 Z M9.30276153,0.902796144 C9.20820128,0.902796144 9.13154506,0.827009473 9.13154506,0.733521867 C9.13154506,0.640034261 9.20820128,0.56424759 9.30276153,0.56424759 C9.39732178,0.56424759 9.473978,0.640034261 9.473978,0.733521867 C9.473978,0.827009473 9.39732178,0.902796144 9.30276153,0.902796144 Z M9.8734831,0.902796144 C9.77892285,0.902796144 9.70226663,0.827009473 9.70226663,0.733521867 C9.70226663,0.640034261 9.77892285,0.56424759 9.8734831,0.56424759 C9.96804335,0.56424759 10.0446996,0.640034261 10.0446996,0.733521867 C10.0446996,0.827009473 9.96804335,0.902796144 9.8734831,0.902796144 Z M9.30276153,0.338548554 C9.20820128,0.338548554 9.13154506,0.262761883 9.13154506,0.169274277 C9.13154506,0.0757866706 9.20820128,0 9.30276153,0 C9.39732178,0 9.473978,0.0757866706 9.473978,0.169274277 C9.473978,0.262761883 9.39732178,0.338548554 9.30276153,0.338548554 Z M9.8734831,0.338548554 C9.77892285,0.338548554 9.70226663,0.262761883 9.70226663,0.169274277 C9.70226663,0.0757866706 9.77892285,0 9.8734831,0 C9.96804335,0 10.0446996,0.0757866706 10.0446996,0.169274277 C10.0446996,0.262761883 9.96804335,0.338548554 9.8734831,0.338548554 Z M10.4442047,2.03129132 C10.3496444,2.03129132 10.2729882,1.95550465 10.2729882,1.86201705 C10.2729882,1.76852944 10.3496444,1.69274277 10.4442047,1.69274277 C10.5387649,1.69274277 10.6154211,1.76852944 10.6154211,1.86201705 C10.6154211,1.95550465 10.5387649,2.03129132 10.4442047,2.03129132 Z M11.0149262,2.03129132 C10.920366,2.03129132 10.8437098,1.95550465 10.8437098,1.86201705 C10.8437098,1.76852944 10.920366,1.69274277 11.0149262,1.69274277 C11.1094865,1.69274277 11.1861427,1.76852944 11.1861427,1.86201705 C11.1861427,1.95550465 11.1094865,2.03129132 11.0149262,2.03129132 Z M10.4442047,1.46704373 C10.3496444,1.46704373 10.2729882,1.39125706 10.2729882,1.29776946 C10.2729882,1.20428185 10.3496444,1.12849518 10.4442047,1.12849518 C10.5387649,1.12849518 10.6154211,1.20428185 10.6154211,1.29776946 C10.6154211,1.39125706 10.5387649,1.46704373 10.4442047,1.46704373 Z M11.0149262,1.46704373 C10.920366,1.46704373 10.8437098,1.39125706 10.8437098,1.29776946 C10.8437098,1.20428185 10.920366,1.12849518 11.0149262,1.12849518 C11.1094865,1.12849518 11.1861427,1.20428185 11.1861427,1.29776946 C11.1861427,1.39125706 11.1094865,1.46704373 11.0149262,1.46704373 Z M10.4442047,0.902796144 C10.3496444,0.902796144 10.2729882,0.827009473 10.2729882,0.733521867 C10.2729882,0.640034261 10.3496444,0.56424759 10.4442047,0.56424759 C10.5387649,0.56424759 10.6154211,0.640034261 10.6154211,0.733521867 C10.6154211,0.827009473 10.5387649,0.902796144 10.4442047,0.902796144 Z M11.0149262,0.902796144 C10.920366,0.902796144 10.8437098,0.827009473 10.8437098,0.733521867 C10.8437098,0.640034261 10.920366,0.56424759 11.0149262,0.56424759 C11.1094865,0.56424759 11.1861427,0.640034261 11.1861427,0.733521867 C11.1861427,0.827009473 11.1094865,0.902796144 11.0149262,0.902796144 Z M10.4442047,0.338548554 C10.3496444,0.338548554 10.2729882,0.262761883 10.2729882,0.169274277 C10.2729882,0.0757866706 10.3496444,0 10.4442047,0 C10.5387649,0 10.6154211,0.0757866706 10.6154211,0.169274277 C10.6154211,0.262761883 10.5387649,0.338548554 10.4442047,0.338548554 Z M11.0149262,0.338548554 C10.920366,0.338548554 10.8437098,0.262761883 10.8437098,0.169274277 C10.8437098,0.0757866706 10.920366,0 11.0149262,0 C11.1094865,0 11.1861427,0.0757866706 11.1861427,0.169274277 C11.1861427,0.262761883 11.1094865,0.338548554 11.0149262,0.338548554 Z M11.5856478,2.03129132 C11.4910875,2.03129132 11.4144313,1.95550465 11.4144313,1.86201705 C11.4144313,1.76852944 11.4910875,1.69274277 11.5856478,1.69274277 C11.680208,1.69274277 11.7568643,1.76852944 11.7568643,1.86201705 C11.7568643,1.95550465 11.680208,2.03129132 11.5856478,2.03129132 Z M12.1563694,2.03129132 C12.0618091,2.03129132 11.9851529,1.95550465 11.9851529,1.86201705 C11.9851529,1.76852944 12.0618091,1.69274277 12.1563694,1.69274277 C12.2509296,1.69274277 12.3275858,1.76852944 12.3275858,1.86201705 C12.3275858,1.95550465 12.2509296,2.03129132 12.1563694,2.03129132 Z M11.5856478,1.46704373 C11.4910875,1.46704373 11.4144313,1.39125706 11.4144313,1.29776946 C11.4144313,1.20428185 11.4910875,1.12849518 11.5856478,1.12849518 C11.680208,1.12849518 11.7568643,1.20428185 11.7568643,1.29776946 C11.7568643,1.39125706 11.680208,1.46704373 11.5856478,1.46704373 Z M12.1563694,1.46704373 C12.0618091,1.46704373 11.9851529,1.39125706 11.9851529,1.29776946 C11.9851529,1.20428185 12.0618091,1.12849518 12.1563694,1.12849518 C12.2509296,1.12849518 12.3275858,1.20428185 12.3275858,1.29776946 C12.3275858,1.39125706 12.2509296,1.46704373 12.1563694,1.46704373 Z M11.5856478,0.902796144 C11.4910875,0.902796144 11.4144313,0.827009473 11.4144313,0.733521867 C11.4144313,0.640034261 11.4910875,0.56424759 11.5856478,0.56424759 C11.680208,0.56424759 11.7568643,0.640034261 11.7568643,0.733521867 C11.7568643,0.827009473 11.680208,0.902796144 11.5856478,0.902796144 Z M12.1563694,0.902796144 C12.0618091,0.902796144 11.9851529,0.827009473 11.9851529,0.733521867 C11.9851529,0.640034261 12.0618091,0.56424759 12.1563694,0.56424759 C12.2509296,0.56424759 12.3275858,0.640034261 12.3275858,0.733521867 C12.3275858,0.827009473 12.2509296,0.902796144 12.1563694,0.902796144 Z M11.5856478,0.338548554 C11.4910875,0.338548554 11.4144313,0.262761883 11.4144313,0.169274277 C11.4144313,0.0757866706 11.4910875,0 11.5856478,0 C11.680208,0 11.7568643,0.0757866706 11.7568643,0.169274277 C11.7568643,0.262761883 11.680208,0.338548554 11.5856478,0.338548554 Z M12.1563694,0.338548554 C12.0618091,0.338548554 11.9851529,0.262761883 11.9851529,0.169274277 C11.9851529,0.0757866706 12.0618091,0 12.1563694,0 C12.2509296,0 12.3275858,0.0757866706 12.3275858,0.169274277 C12.3275858,0.262761883 12.2509296,0.338548554 12.1563694,0.338548554 Z"/>
      </g>
    </g>
    <g fill-rule="nonzero" transform="translate(34 46)">
      <path fill="#6E6F73" d="M3.17696398,0.101982372 L0.904889677,10.738931 C0.904889677,10.738931 0.667182552,11.8999173 1.32277263,11.8815164 C1.97836271,11.8631155 11.1530391,11.8815164 11.1530391,11.8815164 C11.1530391,11.8815164 11.5257598,11.8823302 11.7201991,11.2715451 C11.9146383,10.66076 14.2287901,0.0620999565 14.2287901,0.0620999565 L12.4199286,0.0823782887 L10.3505569,9.7090454 L2.88097497,9.7090454 L4.980448,0.0811761987 L3.17696398,0.101982372 Z M15.4620057,0.0816326533 L25.6644935,0.0816326533 C25.6644935,0.0816326533 26.3503962,0.313716871 26.1115073,1.22254 C25.8726183,2.13136313 25.0023712,6.23604555 25.0023712,6.23604555 C25.0023712,6.23604555 24.6825463,7.17169933 24.033148,7.17169933 L15.671757,7.17169933 L14.7002694,11.8859578 L12.8969033,11.8843456 L14.4203994,4.93813204 L23.5692603,4.93813204 L24.1322666,2.37391905 L14.9630234,2.37391905 L15.4620057,0.0816326533 Z"/>
      <polygon fill="#6E6F73" points="27.77 .076 29.587 .076 27.071 11.834 25.236 11.834"/>
      <polygon fill="#008D42" points="32.786 .216 34.991 5.974 30.322 11.675"/>
      <polygon fill="#F57A00" points="31.135 .216 33.34 5.974 28.67 11.675"/>
    </g>
  </g>
</svg>
