<svg xmlns="http://www.w3.org/2000/svg" xmlns:xlink="http://www.w3.org/1999/xlink" width="35" height="35" viewBox="0 0 35 35">
  <defs>
    <linearGradient id="flipkart-a" x1="50%" x2="50%" y1="0%" y2="100%">
      <stop offset="0%" stop-color="#F7E830"/>
      <stop offset="100%" stop-color="#FDCB06"/>
    </linearGradient>
    <radialGradient id="flipkart-b" cx="49.578%" cy="353.56%" r="67.236%" fx="49.578%" fy="353.56%">
      <stop offset="59.6%" stop-color="#F29405"/>
      <stop offset="73.6%" stop-color="#F7D01E"/>
      <stop offset="100%" stop-color="#FDCB06"/>
    </radialGradient>
    <linearGradient id="flipkart-c" x1="49.794%" x2="50.6%" y1="-.027%" y2="98.027%">
      <stop offset="0%" stop-color="#FADA1C"/>
      <stop offset="100%" stop-color="#FDCB06"/>
    </linearGradient>
    <linearGradient id="flipkart-d" x1="50.197%" x2="49.391%" y1="-.024%" y2="98.027%">
      <stop offset="0%" stop-color="#FADA1C"/>
      <stop offset="100%" stop-color="#FDCB06"/>
    </linearGradient>
    <path id="flipkart-e" d="M14.0384836,0.63690113 C14.0042064,0.571223164 13.9999646,0.492409605 13.9999646,0.417974576 L13.9656446,0.422353107 C13.9142716,0.22969774 13.7557824,0.045799435 13.5500764,0.0370423729 C13.3957861,0.0239067797 13.2029769,0.0282853107 13.1130849,0.177155367 C12.941699,0.413596045 13.0230216,0.715714689 13.0144952,0.982805085 C13.0144952,1.00031921 13.0188227,1.03096893 13.0188227,1.04848305 C13.0188227,1.22800282 12.9973994,1.40314407 12.9674069,1.57828531 C12.941699,1.63082768 12.9288879,1.68774859 12.9288879,1.74904802 C12.8560917,2.16062994 12.7103279,2.56783333 12.5133197,2.94000847 C12.4747578,2.99255085 12.4446796,3.04947175 12.4319113,3.11077119 C12.3033718,3.3384548 12.1491244,3.54862429 11.9905924,3.75879379 C11.9648417,3.78068644 11.9434184,3.80695763 11.9219952,3.83322881 C11.8105514,3.97334181 11.6906669,4.09156215 11.5663264,4.21416102 C11.5363767,4.23167514 11.5149534,4.2535678 11.4892027,4.27108192 C11.3435674,4.41557345 11.1807079,4.55130791 11.0050373,4.66077119 C10.983614,4.67390678 10.9621908,4.6914209 10.93644,4.70893503 C9.83952683,5.44890678 8.50708644,5.75540395 7.20879471,5.76853955 C6.10768256,5.8035678 4.99787258,5.56274859 4.00383383,5.07673164 C3.98678092,5.06797458 3.94393443,5.05046045 3.92671013,5.04170339 C3.75965164,4.94975424 3.58826565,4.87094068 3.43397541,4.75709887 C3.39969821,4.73958475 3.36542101,4.71769209 3.32685917,4.70017797 C3.16832712,4.60385028 3.01836438,4.49876554 2.87697094,4.37616667 C2.82983979,4.33238136 2.77842399,4.29735311 2.7270082,4.25794633 C2.5727608,4.13096893 2.41422876,3.99523446 2.28149031,3.84198588 C2.24721311,3.8025791 2.21285022,3.76755085 2.17865872,3.7325226 C1.71171759,3.23774859 1.34752235,2.6335113 1.15471311,1.97673164 C0.970387481,1.45568644 0.996181073,0.886477401 0.974757824,0.339161017 C0.820424739,0.0983418079 0.494877049,-0.0373926554 0.237798063,0.111477401 C0.130681818,0.19029096 0.117827869,0.334782486 0.0364195231,0.435488701 C-0.09640462,1.88040395 0.507730999,3.32094068 1.4717772,4.36303107 C1.4717772,4.39805932 1.4889158,4.41995198 1.51899404,4.43308757 C1.69038003,4.59509322 1.85739568,4.7614774 2.02878167,4.91910452 C2.05877422,4.94975424 2.09305142,4.98040395 2.13161326,5.00667514 C2.30299925,5.15116667 2.4872392,5.2825226 2.66719449,5.41825706 C2.70147168,5.44452825 2.73574888,5.4664209 2.77431073,5.48831356 C3.00996647,5.62842655 3.23268256,5.79481073 3.48556259,5.89113842 C3.50270119,5.90427401 3.53269374,5.92616667 3.54983234,5.93492373 C4.3639158,6.33337006 5.242269,6.60483898 6.14204545,6.6924096 C6.2405924,6.6924096 6.33913934,6.70116667 6.43768629,6.72305932 C6.86615127,6.74933051 7.29461624,6.73619492 7.72308122,6.72743785 C9.04695231,6.60921751 10.4138413,6.28082768 11.5192809,5.48393503 L11.5321349,5.50144915 C11.5664121,5.47079944 11.5964046,5.44452825 11.6306818,5.41825706 C11.8064382,5.28690113 11.9778241,5.14678814 12.1492101,5.00229661 C12.1876863,4.97164689 12.2305328,4.93661864 12.2691803,4.89721186 C12.4576621,4.68704237 12.6762221,4.49438701 12.8347541,4.2535678 L12.860462,4.26670339 C12.8733159,4.24481073 12.8947392,4.20102542 12.9076788,4.17913277 C13.0532712,3.97772034 13.1861811,3.76755085 13.3147206,3.55738136 C13.3232042,3.54424576 13.3446274,3.52235311 13.3531967,3.50921751 L13.3361438,3.49170339 C13.3489978,3.47418927 13.3789903,3.43916102 13.3918443,3.42164689 C13.6275,2.93125141 13.8373621,2.41896328 13.9102869,1.87602542 C13.9402794,1.86288983 13.9574609,1.83661864 13.9574609,1.80596893 C13.9617884,1.63082768 14.0217306,1.4644435 14.0046349,1.28930226 C14.0427254,1.07475424 14.0470529,0.855827684 14.0384836,0.63690113 L14.0384836,0.63690113 Z"/>
  </defs>
  <g fill="none" fill-rule="evenodd" transform="translate(1.7 2)">
    <path fill="url(#flipkart-a)" fill-rule="nonzero" stroke="#FCD109" stroke-width=".596" d="M30.9700075,5.3680791 C30.9571535,5.32429379 30.9442139,5.28050847 30.927161,5.23672316 C20.7768256,5.24110169 10.630775,5.23672316 0.484724292,5.24110169 C0.459016393,5.27175141 0.441877794,5.30240113 0.437593145,5.34180791 C0.437593145,13.3851695 0.437593145,21.4241088 0.433222802,29.4675141 C0.497492548,29.8965664 0.728863636,30.2862556 1.03744411,30.579661 C1.05029806,30.5840395 1.08029061,30.5882867 1.09314456,30.5927528 C1.2516766,30.763428 1.47876304,30.8467514 1.69299553,30.9255212 C1.85152757,30.9168079 2.00577496,30.9868206 2.164307,30.9693065 L14.7611773,30.9693065 C14.8811475,30.964928 15.0053167,30.9868206 15.1210022,30.9387006 C15.1253726,30.921274 15.1295715,30.8905367 15.1338562,30.8730226 C15.1382265,30.8511299 15.1424255,30.8029661 15.146753,30.7767387 C15.4167288,29.2355395 15.6780067,27.6898743 15.9651639,26.1486751 L15.9908718,25.9516412 C14.8254899,25.9471751 13.6557377,25.9516412 12.4903558,25.9471751 C12.2075261,25.9384619 11.9162556,25.9471751 11.6334259,25.9121031 C11.1493033,25.8902105 10.6608532,25.9077246 10.1766878,25.8596045 C9.57683681,25.8596045 8.98127049,25.8026398 8.38141952,25.8026398 C7.91010805,25.754476 7.43451192,25.7720339 6.9589158,25.7501412 C6.65050671,25.710822 6.33335693,25.7282486 6.02066319,25.7150692 C5.51078987,25.6581921 4.99234724,25.6976427 4.48247392,25.640678 C3.94260805,25.6451441 3.40274218,25.5968927 2.8628763,25.5837133 C2.86716095,25.5793347 2.8714456,25.5618206 2.8714456,25.5574421 C3.05140089,25.5618206 3.22707154,25.5487288 3.40702683,25.5443503 C3.80549925,25.4917641 4.20825633,25.5268362 4.60672876,25.4698715 C5.02233979,25.4698715 5.43366617,25.4129944 5.8492772,25.4129944 C6.21775708,25.3604082 6.59052161,25.3911017 6.9589158,25.3385155 C7.39175112,25.3385155 7.81584575,25.2816384 8.24868107,25.2772161 C8.604307,25.2290523 8.96421759,25.2553234 9.31984352,25.2071596 C9.73545455,25.2115381 10.1467809,25.1458602 10.562392,25.1502825 C10.9694337,25.1020311 11.384959,25.1151229 11.7920007,25.0713376 C11.7535246,24.9094633 11.7234463,24.7474138 11.6892548,24.5853206 C11.6592623,24.4846582 11.5392921,24.5065508 11.4621684,24.4933715 C10.5323994,24.3575494 9.60691505,24.2219463 8.6814307,24.0905904 C8.7414158,24.042339 8.82282414,24.0642316 8.89137854,24.0555184 C9.6111997,23.9985537 10.3267362,23.9328757 11.0465574,23.8803771 C11.2093741,23.8716638 11.3679061,23.8409703 11.5307228,23.8365918 C11.4578838,23.608952 11.4150373,23.3593319 11.3164903,23.1492062 C9.77838674,22.908387 8.24011177,22.693839 6.70620715,22.4354619 C7.10467958,22.3697839 7.50743666,22.339178 7.90590909,22.2953927 L7.94018629,22.2822133 C9.21272727,22.1463912 10.4895529,21.9931427 11.7620939,21.8662528 C13.3773212,21.8575395 14.9884352,21.8617867 16.6037481,21.8662528 C16.6550782,21.8575395 16.7451416,21.8836794 16.7537109,21.8092881 C16.886535,21.1000099 17.0150745,20.3907316 17.147813,19.681322 C17.3320529,18.6962401 17.6234091,17.7241624 18.0732973,16.8265636 C18.7802645,15.3816483 19.8985581,14.1556596 21.2609911,13.3412966 C22.533532,12.5794322 24.0075373,12.2116356 25.4728875,12.1415791 C25.9484836,12.0977938 26.4283644,12.1109294 26.8996759,12.1722288 C27.2081706,12.2466638 27.5252347,12.3342345 27.7694598,12.5487825 C27.9708383,12.7151667 28.0908085,12.9603644 28.1807861,13.2055621 C28.3779657,13.7879068 28.4892809,14.3921441 28.5835432,15.0007599 C28.5878279,15.2459576 28.6306744,15.5218051 28.5021349,15.7451102 C28.3821647,15.9640367 28.14231,16.0691215 27.9151807,16.1347994 C27.0882004,16.353726 26.222744,16.1478912 25.3957638,16.353726 C24.7145902,16.502596 24.0804192,16.887863 23.6476267,17.4439802 C23.1377962,18.091959 22.8678204,18.8975212 22.7178577,19.7033023 C22.602215,20.4213814 22.456494,21.1394167 22.3408085,21.8618743 C23.154892,21.8663404 23.9733029,21.8574958 24.7916282,21.8663404 C25.1172615,21.8663404 25.4514642,22.0501949 25.5842884,22.3654054 C25.7556744,22.768274 25.7171125,23.223685 25.6614121,23.6483588 C25.5928577,24.1256186 25.4814568,24.5984562 25.2715089,25.0363093 C25.0957526,25.4084845 24.8044821,25.7500537 24.4060097,25.8814096 C24.2003465,25.9646017 23.9775447,25.9470876 23.7590276,25.9470876 C23.0391207,25.9470876 22.3192996,25.9558008 21.5995641,25.9470876 C21.4838785,26.4856907 21.4067548,27.0373418 21.3039232,27.5846582 C21.1154844,28.6485975 20.9312016,29.716959 20.7426341,30.7853644 C20.7383495,30.8204364 20.7340648,30.8948277 20.7340648,30.9342345 C21.0725522,30.9517486 21.4110395,30.9342345 21.7495268,30.9429477 C24.2603316,30.9429477 26.775421,30.9384816 29.2905104,30.9429477 C29.5604434,30.9517486 29.834661,30.8860706 30.0703167,30.7502924 C30.2117101,30.6977938 30.2974031,30.5707726 30.421658,30.5007599 C30.5416282,30.4307034 30.5759054,30.2862994 30.678737,30.1942627 C30.7901379,29.9928503 30.9058234,29.7827684 30.9143927,29.5461963 C30.9272466,29.5461963 30.9615238,29.5418178 30.9786624,29.5374831 C30.9656371,21.4810734 30.9785768,13.4245763 30.9700075,5.3680791 Z"/>
    <path fill="#F8F3B5" fill-rule="nonzero" stroke="#F8F3B5" stroke-width=".596" d="M4.43088674,0.0700564972 C4.79508197,-0.0481638418 5.1764158,0.0306497175 5.54926602,0.00437853107 C12.5460991,0.00875706215 19.5429322,0.00437853107 26.5396796,0.00437853107 C26.9552906,-0.0131355932 27.3194858,0.227683616 27.7051043,0.350282486 C28.0135991,0.477259887 28.3349478,0.577966102 28.6434426,0.713700565 C28.7077124,0.739971751 28.7548435,0.796892655 28.801889,0.845056497 C28.7976043,1.4230226 28.801889,2.00536723 28.801889,2.58771186 C28.8062593,2.74096045 28.7804657,2.89858757 28.8318815,3.04745763 C28.9219449,3.06059322 28.9689903,3.13064972 29.0290611,3.18757062 C29.311848,3.31892655 29.5517027,3.53347458 29.8087817,3.70861582 C30.1944001,3.98884181 30.6058122,4.23403955 30.9827757,4.5230226 C30.9998715,4.63686441 30.9870604,4.75508475 30.9527832,4.86016949 C30.914307,4.98276836 30.9399292,5.11412429 30.9270753,5.23672316 C20.7767399,5.24110169 10.6306893,5.23672316 0.484638599,5.24110169 C0.46321535,5.09661017 0.501777198,4.95211864 0.441792101,4.81638418 C0.433222802,4.70254237 0.394660954,4.55367232 0.501777198,4.47485876 C0.930242176,4.16836158 1.38441505,3.89251412 1.80422504,3.56850282 C2.06567437,3.39774011 2.31838301,3.22259887 2.57117735,3.04745763 C2.62259314,2.95988701 2.60545455,2.85042373 2.60545455,2.75409605 C2.60545455,2.11920904 2.60545455,1.48432203 2.6097392,0.849435028 C2.75541729,0.656779661 3.00829732,0.634887006 3.20959016,0.538559322 C3.61680328,0.380932203 4.02812966,0.227683616 4.43088674,0.0700564972 L4.43088674,0.0700564972 Z M4.45659463,0.144491525 C3.90815946,0.359039548 3.35543964,0.564830508 2.80700447,0.779378531 C2.73416542,0.792514124 2.69551788,0.85819209 2.65704173,0.915112994 C2.66132638,0.950141243 2.66561103,1.01144068 2.66561103,1.04646893 C2.66124069,1.57189266 2.66561103,2.09731638 2.66124069,2.62274011 C2.66561103,2.75409605 2.64838674,2.88545198 2.69551788,3.00367232 C2.63981744,3.06059322 2.57991803,3.11751412 2.51127794,3.16129944 C1.89000373,3.57288136 1.29015276,4.01949153 0.668878539,4.42669492 C0.561762295,4.49237288 0.441792101,4.5799435 0.4760693,4.72443503 C0.454646051,4.80324859 0.493207899,4.86892655 0.574616244,4.8470339 C1.91999627,4.83827684 3.26109165,4.85579096 4.60655738,4.83389831 C6.60748882,4.83389831 8.60413562,4.83827684 10.6050671,4.83389831 L10.6350596,4.82076271 C10.7250373,4.84265537 10.8149292,4.83389831 10.9091915,4.83389831 C14.5340052,4.83389831 18.1588189,4.83827684 21.7878744,4.83389831 C22.9276341,4.83827684 24.0716356,4.83389831 25.2155943,4.83389831 C27.1008402,4.83389831 28.9904136,4.85141243 30.8756595,4.84265537 C30.9313599,4.82951977 30.9484985,4.79011299 30.9270753,4.7200565 C30.9227049,4.65 30.9484985,4.55367232 30.8756595,4.50988701 C30.575734,4.36539548 30.318655,4.1420904 30.0315835,3.96694915 C29.9288376,3.87937853 29.7959277,3.83121469 29.718804,3.71299435 C29.4231632,3.54223164 29.1489456,3.33206215 28.8575466,3.14378531 C28.8018033,3.10875706 28.7589568,3.05183616 28.7119113,3.00367232 C28.7376192,2.91172316 28.7461885,2.81101695 28.7461885,2.71468927 C28.7419039,2.15861582 28.7461885,1.60254237 28.7419039,1.04646893 C28.7547578,0.958898305 28.7504303,0.85819209 28.6732638,0.801271186 C28.1591058,0.61299435 27.6493182,0.411581921 27.1393592,0.218926554 C26.9808271,0.140112994 26.8051565,0.0963276836 26.6337705,0.0700564972 L4.73492548,0.0700564972 C4.64083458,0.0744350282 4.55085693,0.12259887 4.45659463,0.144491525 L4.45659463,0.144491525 Z"/>
    <path fill="#F7B402" fill-rule="nonzero" stroke="#F7B402" stroke-width=".596" d="M2.66561103,1.04646893 C3.04266021,1.20847458 3.44533159,1.30042373 3.82675112,1.45805085 C4.03241431,1.54124294 4.09668405,1.76892655 4.1866617,1.95282486 C4.09659836,2.04477401 3.98948212,2.11920904 3.88236587,2.18926554 C3.48817809,2.46073446 3.08542101,2.72344633 2.69551788,3.00367232 C2.64838674,2.88545198 2.66561103,2.75409605 2.66124069,2.62274011 C2.66561103,2.09731638 2.66132638,1.57189266 2.66561103,1.04646893 L2.66561103,1.04646893 Z M27.5807638,1.45805085 C27.9620976,1.30480226 28.36057,1.19971751 28.7419896,1.04646893 C28.7462742,1.60254237 28.7419896,2.15861582 28.7462742,2.71468927 C28.7462742,2.81101695 28.7377049,2.91172316 28.711997,3.00367232 C28.3777943,2.76723164 28.039307,2.54392655 27.7051043,2.31186441 C27.5422876,2.18926554 27.3623323,2.09731638 27.2166542,1.94844633 C27.3066319,1.76454802 27.3751863,1.54124294 27.5807638,1.45805085 L27.5807638,1.45805085 Z"/>
    <path fill="#BDA727" fill-rule="nonzero" stroke="#BDA727" stroke-width=".596" d="M9.20398659,1.63757062 C9.67529806,1.52372881 10.20231,1.95282486 10.1637481,2.45635593 C10.1680328,2.95112994 9.65807377,3.3539548 9.19113264,3.24011299 C9.00260805,3.17443503 8.82256706,3.07372881 8.70696721,2.9029661 C8.55700447,2.67090395 8.52264158,2.36002825 8.64269747,2.10607345 C8.72839046,1.86087571 8.95976155,1.69449153 9.20398659,1.63757062 L9.20398659,1.63757062 Z M21.4280924,1.91341808 C21.6251863,1.69011299 21.9379657,1.56313559 22.2293219,1.64194915 C22.447839,1.70762712 22.6620715,1.85211864 22.7563338,2.0710452 C22.9448584,2.44759887 22.7991803,2.95550847 22.4307004,3.15254237 C22.1049814,3.33644068 21.6937407,3.24887006 21.445231,2.98177966 C21.1924367,2.68841808 21.1752124,2.20677966 21.4280924,1.91341808 L21.4280924,1.91341808 Z"/>
    <path fill="#F7E62D" fill-rule="nonzero" stroke="#F7E62D" stroke-width=".596" d="M3.88245156,2.18926554 C3.98956781,2.11920904 4.09668405,2.04477401 4.18674739,1.95282486 L4.21665425,1.98347458 C4.2466468,2.21115819 4.22522355,2.44322034 4.23379285,2.67090395 C4.2209389,3.3539548 4.2466468,4.04138418 4.21665425,4.72443503 C2.96982116,4.72443503 1.72307377,4.71567797 0.476154993,4.72443503 C0.441877794,4.5799435 0.561847988,4.49237288 0.668964232,4.42669492 C1.29023845,4.01949153 1.89008942,3.57288136 2.51136364,3.16129944 C2.58000373,3.11751412 2.63990313,3.06059322 2.69560358,3.00367232 C3.08550671,2.72344633 3.48826379,2.46073446 3.88245156,2.18926554 L3.88245156,2.18926554 Z M27.1737221,2.10169492 C27.1737221,2.04477401 27.1866617,1.99661017 27.2165686,1.94844633 C27.3622466,2.09731638 27.5422876,2.18926554 27.7050186,2.31186441 C28.0392213,2.54392655 28.3777086,2.76723164 28.7119113,3.00367232 C28.7590425,3.05183616 28.801889,3.10875706 28.8575466,3.14378531 C29.1489456,3.33206215 29.4230775,3.54223164 29.718804,3.71299435 C29.7959277,3.83121469 29.928709,3.87937853 30.0315835,3.96694915 C30.318655,4.1420904 30.575734,4.36539548 30.8756595,4.50988701 C30.9484985,4.55367232 30.9227906,4.65 30.9270753,4.7200565 C29.6801565,4.72443503 28.437608,4.71567797 27.1908607,4.72443503 C27.1694374,4.54929379 27.1822914,4.37415254 27.1780067,4.20338983 C27.1780924,3.50282486 27.1695231,2.80225989 27.1737221,2.10169492 L27.1737221,2.10169492 Z"/>
    <path fill="url(#flipkart-b)" fill-rule="nonzero" stroke="#FCD109" stroke-width=".596" d="M30.927161,4.7200565 C29.6802422,4.72443503 28.4376937,4.71567797 27.1909463,4.72443503 C27.1695231,4.54929379 27.182377,4.37415254 27.1780924,4.20338983 C27.1780924,3.50282486 27.1695231,2.80225989 27.1737221,2.10169492 C27.1737221,2.04477401 27.1866617,1.99661017 27.2165686,1.94844633 C27.3066319,1.76454802 27.3751006,1.54124294 27.5807638,1.45805085 C27.9620976,1.30480226 28.36057,1.19971751 28.7419896,1.04646893 C28.7548435,0.958898305 28.7505589,0.85819209 28.6733495,0.801271186 C28.1591915,0.61299435 27.6494039,0.411581921 27.1394449,0.218926554 C26.9809128,0.140112994 26.8052422,0.0963276836 26.6338562,0.0700564972 L4.73501118,0.0700564972 C4.64074888,0.0744350282 4.55077124,0.12259887 4.45650894,0.144491525 C3.90807377,0.359039548 3.35535395,0.564830508 2.80691878,0.779378531 C2.73407973,0.792514124 2.69543219,0.85819209 2.65695604,0.915112994 C2.66124069,0.950141243 2.66552534,1.01144068 2.66552534,1.04646893 C3.04257452,1.20847458 3.4452459,1.30042373 3.82666542,1.45805085 C4.03232861,1.54124294 4.09659836,1.76892655 4.18657601,1.95282486 L4.21648286,1.98347458 C4.24647541,2.21115819 4.22505216,2.44322034 4.23362146,2.67090395 C4.22076751,3.3539548 4.24647541,4.04138418 4.21648286,4.72443503 C2.96964978,4.72443503 1.72290238,4.71567797 0.475983607,4.72443503 C0.454560358,4.80324859 0.493122206,4.86892655 0.574530551,4.8470339 C1.91991058,4.83827684 3.26100596,4.85579096 4.60647168,4.83389831 C6.60740313,4.83389831 8.60404993,4.83827684 10.6049814,4.83389831 L10.6349739,4.82076271 C10.7249516,4.84265537 10.8148435,4.83389831 10.9091058,4.83389831 C14.5339195,4.83389831 18.1587332,4.83827684 21.7877887,4.83389831 C22.9275484,4.83827684 24.0715499,4.83389831 25.2155086,4.83389831 C27.1007545,4.83389831 28.9903279,4.85141243 30.8755738,4.84265537 C30.9314456,4.82951977 30.9485842,4.79011299 30.927161,4.7200565 L30.927161,4.7200565 Z M8.64269747,2.10607345 C8.72839046,1.86087571 8.95967586,1.69449153 9.20398659,1.63757062 C9.67529806,1.52372881 10.20231,1.95282486 10.1637481,2.45635593 C10.1680328,2.95112994 9.65807377,3.3539548 9.19113264,3.24011299 C9.00260805,3.17443503 8.82256706,3.07372881 8.70696721,2.9029661 C8.55700447,2.67090395 8.52272727,2.36002825 8.64269747,2.10607345 Z M21.4280924,1.91341808 C21.6251863,1.69011299 21.9379657,1.56313559 22.2293219,1.64194915 C22.447839,1.70762712 22.6620715,1.85211864 22.7563338,2.0710452 C22.9448584,2.44759887 22.7991803,2.95550847 22.4307004,3.15254237 C22.1049814,3.33644068 21.6937407,3.24887006 21.445231,2.98177966 C21.1924367,2.68841808 21.1752124,2.20677966 21.4280924,1.91341808 Z"/>
    <path fill="url(#flipkart-c)" fill-rule="nonzero" stroke="#FCD109" stroke-width=".596" d="M22.5201639,6.64424576 C22.5800633,6.65738136 22.2078987,6.27881356 22.2807377,6.26129944 C22.3492921,6.2700565 22.609199,6.06387147 22.9234352,6.23209463 C23.2375857,6.4003178 23.1596908,6.79399153 23.1240425,6.93997175 C23.0816244,7.11371186 22.9733942,7.22457627 22.8877012,7.31214689 C22.84057,7.35155367 22.7349106,7.41285311 22.6706408,7.40847458 C22.7092027,7.19392655 22.5849478,7.15889831 22.5763785,6.93997175 L22.5201639,6.64424576 Z"/>
    <path fill="url(#flipkart-d)" fill-rule="nonzero" stroke="#FCD109" stroke-width=".596" d="M8.8233383,6.88160593 C8.814769,7.10053249 8.69042846,7.13556073 8.72907601,7.35010876 C8.66480626,7.35448729 8.5590611,7.29318785 8.5119728,7.25378107 C8.42627981,7.16621045 8.31817809,7.05534605 8.27567437,6.88160593 C8.24002608,6.73566949 8.1620883,6.34199576 8.47628167,6.17372881 C8.79047504,6.00546186 9.05042474,6.21164689 9.11897914,6.20293362 C9.19181818,6.22044774 8.8196535,6.59901554 8.87955291,6.58587994 L8.8233383,6.88160593 Z"/>
    <path fill="#BDA727" fill-rule="nonzero" stroke="#BDA727" stroke-width=".596" d="M21.9592176,9.44913277 C22.0236587,9.39194915 22.0665052,9.39194915 22.1521982,9.39194915 C21.6380402,10.5303672 21.0381893,11.6687853 20.1363133,12.5551314 C20.0398532,12.6431238 19.9379693,12.7247027 19.8312891,12.7993658 C19.7280291,12.8765593 19.6268256,12.9489802 19.5261792,13.0227585 C19.4276323,13.0926836 19.3296852,13.1630028 19.2343089,13.2363432 C18.9900838,13.3720777 18.7758513,13.5603983 18.5059184,13.6435466 C18.0131837,13.8843658 17.4819728,14.0463715 16.9463916,14.1602133 C16.7364437,14.1952853 16.5222113,14.2477839 16.3079788,14.2521624 C16.0423305,14.3310198 15.7595436,14.2740551 15.4896107,14.2915692 C15.3396479,14.3178404 15.2067381,14.2302698 15.0611457,14.2477839 C14.9347485,14.2295254 14.8086513,14.2076328 14.6833253,14.1820621 C14.5561425,14.1555044 14.4298111,14.1248541 14.3045194,14.0901568 C12.3403502,13.4639831 10.4122578,11.9314972 9.85054024,9.85891949 C9.82523062,9.71934087 9.81246633,9.57768919 9.81240686,9.43573446 C9.87234911,9.55833333 9.93451937,9.6800565 9.99883197,9.80064124 C10.7978763,11.5812147 12.3831967,12.9823446 14.2561028,13.4048291 C14.4081222,13.4756737 14.5726528,13.4508475 14.7183737,13.5121469 C14.8511978,13.5121469 14.9797373,13.5077684 15.1082768,13.5515537 C15.5495958,13.5602669 15.9909147,13.5559322 16.4322336,13.5559322 C16.492133,13.5603107 16.5478335,13.529661 16.6079042,13.5165254 C17.3434072,13.4910424 18.0640853,13.2860395 18.7351043,12.9751638 C18.8693852,12.9129887 19.0016095,12.8465664 19.131563,12.7765099 C19.2453188,12.7153235 19.3563711,12.6490261 19.4643946,12.5778121 C19.5704974,12.5079181 19.6736638,12.4334751 19.7736177,12.3546822 C20.5668778,11.7125706 21.2524218,10.8806497 21.717949,9.92398446 C21.8065555,9.75182062 21.8876211,9.59239831 21.9592176,9.44913277 Z"/>
    <path fill="#0D69B3" fill-rule="nonzero" stroke="#0D69B3" stroke-width=".596" d="M21.2609054,13.3413842 C22.5334463,12.5795198 24.0074516,12.2117232 25.4728018,12.1416667 C25.9483979,12.0978814 26.4282787,12.1110169 26.8995902,12.1723164 C27.2080849,12.2467514 27.525149,12.334322 27.7693741,12.5488701 C27.6451192,12.5576271 27.525149,12.5007062 27.4008942,12.4831921 C27.0495529,12.4131356 26.6853577,12.4394068 26.3297317,12.4306497 C25.2970455,12.4306497 24.2559613,12.5138418 23.2576379,12.8028249 C22.7349106,12.9648305 22.2121833,13.1531073 21.7365872,13.4333333 C20.9139344,13.8974576 20.17269,14.510452 19.572839,15.2460452 C18.5016766,16.5027274 17.8718331,18.0964689 17.567623,19.7209477 C17.4219449,20.5921879 17.2547578,21.4590932 17.1220194,22.3347994 C16.9077869,22.3566921 16.6892697,22.3436003 16.4750373,22.3436003 C15.5324143,22.3392218 14.5897914,22.3347994 13.6471684,22.3261737 C13.4457899,22.3347994 13.2486103,22.2867669 13.0473174,22.299815 C11.3334575,22.3085282 9.61959762,22.2954364 7.9057377,22.2954364 L7.9400149,22.2822571 C9.21255589,22.146435 10.4893815,21.9931864 11.7619225,21.8662966 C13.3771498,21.8575833 14.9882638,21.8618305 16.6035768,21.8662966 C16.6549069,21.8575833 16.7449702,21.8837232 16.7535395,21.8093319 C16.8863636,21.1000537 17.0149031,20.3907754 17.1476416,19.6813658 C17.3319672,18.6963277 17.6233234,17.72425 18.0732116,16.8266511 C18.7801788,15.3817359 19.8984724,14.1557472 21.2609054,13.3413842 Z"/>
    <path fill="#107BD4" fill-rule="nonzero" stroke="#107BD4" stroke-width=".596" d="M23.2576379,12.8028249 C24.2559613,12.5138418 25.2971311,12.4306497 26.3297317,12.4306497 C26.6853577,12.4394068 27.0495529,12.4131356 27.4008942,12.4831921 C27.5250633,12.5007062 27.6450335,12.5576271 27.7693741,12.5488701 C27.9707526,12.7152542 28.0907228,12.960452 28.1807004,13.2056497 C28.37788,13.7879944 28.4891952,14.3922316 28.5834575,15.0008475 C28.5877422,15.2460452 28.6305887,15.5218927 28.5020492,15.7451977 C28.382079,15.9641243 28.1422243,16.069209 27.915095,16.134887 C27.0881148,16.3538136 26.2226583,16.1479788 25.3956781,16.3538136 C24.7145045,16.5026836 24.0803335,16.8879506 23.647541,17.4440678 C23.1377105,18.0920466 22.8677347,18.8976088 22.717772,19.7033898 C22.6021293,20.4214689 22.4564083,21.1395042 22.3407228,21.8619619 C22.289307,22.0240113 22.2593573,22.1991525 22.2293219,22.369959 C23.039035,22.3831384 23.8489195,22.369959 24.6587183,22.3786723 C24.9671274,22.369959 25.2756222,22.3873856 25.5842027,22.3654929 C25.7555887,22.7683616 25.7170268,23.2237726 25.6613264,23.6484463 C25.592772,24.1257062 25.4813711,24.5985438 25.2714232,25.0363969 C25.0956669,25.408572 24.8043964,25.7501412 24.405924,25.8814972 C24.2002608,25.9646893 23.977459,25.9471751 23.7589419,25.9471751 C23.039035,25.9471751 22.3192139,25.9558884 21.5994784,25.9471751 C21.4837928,26.4857782 21.4066692,27.0374294 21.3038376,27.5847458 C21.1153987,28.648685 20.9311159,29.7170466 20.7425484,30.785452 C20.7382638,30.820524 20.7339791,30.8949153 20.7339791,30.934322 L20.7339791,30.9387006 C18.8615872,30.9387006 16.9934799,30.9431667 15.1210879,30.9387006 C15.1254154,30.921274 15.1296572,30.8905367 15.1339419,30.8730226 C15.1383122,30.8511299 15.1425112,30.8029661 15.1468387,30.7767387 C15.1511662,30.8118107 15.1553651,30.8774887 15.1597355,30.9080946 C15.2753782,30.921274 15.4853689,30.9824859 15.5153614,30.8118107 C15.8067176,29.2004675 16.0766505,27.580411 16.376576,25.9690678 C16.2609333,25.9427966 16.1409203,25.9427966 16.0209501,25.9646893 C16.0038972,26.0259887 15.9866729,26.0872444 15.9652496,26.1485438 L15.9909575,25.9515099 C14.8256185,25.9470438 13.6558234,25.9515099 12.4904844,25.9470438 C12.2076118,25.9384181 11.9163413,25.9470438 11.6335544,25.9120593 C11.149389,25.8901667 10.6609389,25.9076808 10.1767735,25.8594732 C9.5769225,25.8594732 8.98135618,25.802596 8.38150522,25.802596 C7.91019374,25.7544322 7.43459762,25.7719025 6.95900149,25.7500099 C6.6505924,25.7106907 6.33344262,25.7281172 6.02074888,25.7150254 C5.51087556,25.6580607 4.99243294,25.6975989 4.48255961,25.6405466 C3.94269374,25.6450127 3.40282787,25.5967613 2.862962,25.5836695 C2.86724665,25.579291 2.8715313,25.5617768 2.8715313,25.5573983 C3.05148659,25.5617768 3.22715723,25.5485975 3.40711252,25.5442189 C3.80558495,25.4917203 4.20834203,25.5267048 4.60681446,25.4698277 C5.02242548,25.4698277 5.43375186,25.412863 5.84936289,25.412863 C6.21784277,25.3603644 6.5906073,25.3909703 6.95900149,25.3384718 C7.39183681,25.3384718 7.81593145,25.2815071 8.24876677,25.2771723 C8.6043927,25.2290085 8.96430328,25.2552797 9.31992921,25.2071158 C9.73554024,25.2114944 10.1468666,25.1458164 10.5624776,25.1501511 C10.9695194,25.1018997 11.3850447,25.1150791 11.7920864,25.0712938 C11.7536103,24.9093319 11.723532,24.7473701 11.6893405,24.5852768 C11.659348,24.4845268 11.5393778,24.5064195 11.4622541,24.4933277 C10.5324851,24.3575056 9.60700075,24.221815 8.68151639,24.090459 C8.74150149,24.0422076 8.82290984,24.0641003 8.89146423,24.0554746 C9.61128539,23.9984223 10.3268219,23.9327444 11.0466431,23.8803333 C11.2094598,23.8715325 11.3679918,23.8409266 11.5308085,23.836548 C11.4579694,23.6088206 11.415123,23.3592881 11.316576,23.1490749 C9.77847243,22.9082556 8.24019747,22.6937076 6.70629285,22.4354181 C7.10476528,22.3697401 7.50752235,22.3390466 7.90599478,22.2952613 C9.61985469,22.2952613 11.3337146,22.3084407 13.0475745,22.2996398 C13.2488674,22.286548 13.4460469,22.3347119 13.6474255,22.3259986 C14.5900484,22.3347119 15.5326714,22.339178 16.4752943,22.3434251 C16.6895268,22.3434251 16.908044,22.3566045 17.1222765,22.3347119 C17.2551006,21.4590056 17.4222019,20.5920127 17.56788,19.7207726 C17.8720902,18.09625 18.5019337,16.5025523 19.5730961,15.2459576 C20.1729471,14.5103206 20.9141915,13.8973263 21.7368443,13.433202 C22.2121833,13.1531073 22.7349106,12.9648305 23.2576379,12.8028249 Z"/>
    <path fill="#0D69B3" fill-rule="nonzero" stroke="#0D69B3" stroke-width=".596" d="M22.3407228,21.8619619 C23.1548063,21.866428 23.9732601,21.8575833 24.7915425,21.866428 C25.1171759,21.866428 25.4513785,22.0502825 25.5842027,22.3654929 C25.2757079,22.3873856 24.9672131,22.369959 24.6587183,22.3786723 C23.8489195,22.369959 23.039035,22.3831384 22.2293219,22.369959 C22.2593145,22.1991525 22.2892213,22.0240113 22.3407228,21.8619619 L22.3407228,21.8619619 Z M16.0208644,25.9646893 C16.1408346,25.9427966 16.2608905,25.9427966 16.3764903,25.9690678 C16.0765648,27.580411 15.8066319,29.2004675 15.5152757,30.8118107 C15.4852832,30.9824859 15.2752925,30.921274 15.1596498,30.9080946 C15.1552794,30.8774887 15.1510805,30.8118107 15.1467958,30.7767387 C15.4167288,29.2355395 15.6780067,27.6898743 15.9651639,26.1486751 C15.9865872,26.0872444 16.0037258,26.0260325 16.0208644,25.9646893 Z"/>
    <path fill="#FFF" fill-rule="nonzero" stroke="#FFF" stroke-width=".596" d="M22.7154583,6.76684463 C22.6811811,6.70116667 22.6769393,6.62235311 22.6769393,6.54791808 L22.6426192,6.55229661 C22.5912463,6.35964124 22.4327571,6.17574294 22.227051,6.16698588 C22.0727608,6.15385028 21.8799516,6.15822881 21.7900596,6.30709887 C21.6186736,6.54353955 21.6999963,6.84565819 21.6914698,7.11274859 C21.6914698,7.13026271 21.6957973,7.16091243 21.6957973,7.17842655 C21.6957973,7.35794633 21.6743741,7.53308757 21.6443815,7.70822881 C21.6186736,7.76077119 21.6058625,7.81769209 21.6058625,7.87899153 C21.5330663,8.29057345 21.3873025,8.69777684 21.1902943,9.06995198 C21.1517325,9.12249435 21.1216542,9.17941525 21.108886,9.24071469 C20.9803465,9.46839831 20.8260991,9.6785678 20.6675671,9.88873729 C20.6418163,9.91062994 20.6203931,9.93690113 20.5989698,9.96317232 C20.4875261,10.1032853 20.3676416,10.2215056 20.243301,10.3441045 C20.2133513,10.3616186 20.1919281,10.3835113 20.1661773,10.4010254 C20.0205421,10.5455169 19.8576826,10.6812514 19.6820119,10.7907147 C19.6605887,10.8038503 19.6391654,10.8213644 19.6134147,10.8388785 C18.5165015,11.5788503 17.1840611,11.8853475 15.8857694,11.8984831 C14.7846572,11.9335113 13.6748472,11.6926921 12.6808085,11.2066751 C12.6637556,11.1979181 12.6209091,11.180404 12.6036848,11.1716469 C12.4366263,11.0796977 12.2652403,11.0008842 12.1109501,10.8870424 C12.0766729,10.8695282 12.0423957,10.8476356 12.0038338,10.8301215 C11.8453018,10.7337938 11.695339,10.628709 11.5539456,10.5061102 C11.5068145,10.4623249 11.4553987,10.4272966 11.4039829,10.3878898 C11.2497355,10.2609124 11.0912034,10.125178 10.958465,9.97192938 C10.9241878,9.9325226 10.8898249,9.89749435 10.8556334,9.8624661 C10.3886923,9.36769209 10.024497,8.7634548 9.83168778,8.10667514 C9.64736215,7.58562994 9.67315574,7.0164209 9.65173249,6.46910452 C9.4973994,6.22828531 9.17185171,6.09255085 8.91477273,6.2414209 C8.80765648,6.32023446 8.79480253,6.46472599 8.71339419,6.5654322 C8.58057004,8.01034746 9.18470566,9.45088418 10.1487519,10.4929746 C10.1487519,10.5280028 10.1658905,10.5498955 10.1959687,10.5630311 C10.3673547,10.7250367 10.5343703,10.8914209 10.7057563,11.049048 C10.7357489,11.0796977 10.7700261,11.1103475 10.8085879,11.1366186 C10.9799739,11.2811102 11.1642139,11.4124661 11.3441692,11.5482006 C11.3784463,11.5744718 11.4127235,11.5963644 11.4512854,11.6182571 C11.6869411,11.7583701 11.9096572,11.9247542 12.1625373,12.0210819 C12.1796759,12.0342175 12.2096684,12.0561102 12.226807,12.0648672 C13.0408905,12.4633136 13.9192437,12.7347825 14.8190201,12.8223531 C14.9175671,12.8223531 15.016114,12.8311102 15.114661,12.8530028 C15.5431259,12.879274 15.9715909,12.8661384 16.4000559,12.8573814 C17.723927,12.739161 19.0908159,12.4107712 20.1962556,11.6138785 L20.2091095,11.6313927 C20.2433867,11.6007429 20.2733793,11.5744718 20.3076565,11.5482006 C20.4834128,11.4168446 20.6547988,11.2767316 20.8261848,11.1322401 C20.864661,11.1015904 20.9075075,11.0665621 20.946155,11.0271554 C21.1346367,10.8169859 21.3531967,10.6243305 21.5117288,10.3835113 L21.5374367,10.3966469 C21.5502906,10.3747542 21.5717139,10.3309689 21.5846535,10.3090763 C21.7302459,10.1076638 21.8631557,9.89749435 21.9916952,9.68732486 C22.0001788,9.67418927 22.0216021,9.65229661 22.0301714,9.63916102 L22.0131185,9.62164689 C22.0259724,9.60413277 22.055965,9.56910452 22.0688189,9.5515904 C22.3044747,9.06119492 22.5143368,8.54890678 22.5872615,8.00596893 C22.6172541,7.99283333 22.6344355,7.96656215 22.6344355,7.93591243 C22.638763,7.76077119 22.6987053,7.59438701 22.6816095,7.41924576 C22.7197001,7.20469774 22.7240276,6.98577119 22.7154583,6.76684463 L22.7154583,6.76684463 Z"/>
    <g transform="translate(8.677 6.13)">
      <mask id="flipkart-f" fill="#fff">
        <use xlink:href="#flipkart-e"/>
      </mask>
      <g stroke="#D1D1D1" stroke-width=".596" mask="url(#flipkart-f)">
        <path d="M0.00715536513,0.534371885 C0.354469076,0.653001964 1.1523994,0.354537454 1.37824329,0.6276712 M0.20711997,1.61278814 C0.539951565,1.49443644 1.25364568,1.21421045 1.54962928,1.37928107 M0.549891952,2.6928404 C0.710780551,2.74608333 1.02793033,2.45723164 1.1854769,2.37259463 C1.41984724,2.24662429 1.66030179,2.15007768 1.92097988,2.10905085 M1.06404993,3.83125847 C1.22999441,3.59026412 1.42863077,3.39012147 1.66835693,3.2189209 C1.90598361,3.04929661 2.55605067,2.59607486 2.83502422,2.75120621 M1.54962928,4.64859887 C1.73798249,4.49556921 1.81467772,4.22488842 2.01245715,4.06410876 C2.251712,3.86961441 2.61826379,3.83471751 2.86360283,3.71448305 M2.35655738,5.25423729 C2.41290052,4.8309209 2.83352459,4.32007768 3.23491058,4.35663842 M2.97783159,5.84538277 C3.18992176,5.82366525 3.36936289,5.33852401 3.51277012,5.17411017 C3.72768815,4.9278178 3.95031855,4.85206921 4.23460507,4.76533051 M4.2060693,6.3708065 C4.19235842,6.06448446 4.50209575,5.18619492 4.8630775,5.23238842 M5.12015648,6.66272316 C5.10511736,6.30070621 5.28828614,5.21180932 5.72000745,5.1740226 M6.06277943,7.24651271 C5.98089978,6.74026695 5.98621274,6.00791384 6.37692996,5.64103672 M7.2339456,7.36328814 C7.19037072,6.94128531 6.78002981,6.0882161 7.2339456,5.75781215 M8.49071908,7.07137147 C8.29482489,6.83926554 8.1809389,5.92371469 8.26217586,5.67024153 M9.69042101,6.86702542 C9.53934426,6.58666808 9.35210507,6.32338701 9.29486215,5.99793079 C9.26067064,5.80343644 9.32061289,5.52636299 9.2904918,5.37832486 M10.6902012,6.42917232 C10.3624683,6.21011441 10.2715052,5.40499011 10.375965,5.05724718 M11.6613599,5.99131921 C11.428275,5.48030085 11.1797224,5.08408757 11.1757377,4.50261864 M12.6039829,5.05724718 C12.2417586,4.80824011 11.7795306,4.35558757 11.8327459,3.86046328 M13.603763,4.26911158 C13.0533998,4.14449859 12.392921,3.64127401 12.0612891,3.18905932 M14.0607638,3.30583475 C13.6637481,3.21883333 12.3519169,2.6958178 12.4325969,2.16741667 M14.4892288,2.28419209 C13.9360805,2.07695621 13.1313376,1.89064972 12.6896759,1.4960565 M14.7748435,1.35007627 C14.4264158,1.38055085 13.9272541,1.20816808 13.5731278,1.14573023 C13.1798826,1.07641808 12.8152589,0.940990113 12.4325969,0.853813559 M14.4320715,0.44520904 C13.7600242,0.486323446 13.1294523,0.251327684 12.5182899,0.0365607345" transform="translate(-.3 -.044)"/>
      </g>
    </g>
  </g>
</svg>
