<svg xmlns="http://www.w3.org/2000/svg" width="42" height="42" viewBox="0 0 42 42">
  <g fill="none" transform="translate(3.56 1.032)">
    <g transform="translate(0 .287)">
      <path fill="#FFF" d="M35.6150725,17.2065508 C37.8511196,18.3934516 37.8463923,20.318654 35.6150725,21.5029212 L4.13833739,38.2002985 C1.90229033,39.3854436 0.088870353,38.4145025 0.088870353,36.0284105 L0.088870353,2.68281731 C0.088870353,0.296725213 1.90701771,-0.673337982 4.13928285,0.510929213 L35.616018,17.2083065 L35.6150725,17.2065508 Z"/>
      <path fill="#EF5350" d="M34.1684754,21.5029212 L27.2359948,25.2045767 L21.1470791,19.2196516 L26.9466753,13.6608942 L34.4587403,17.5037899 C36.6938419,18.6889349 36.3997952,20.318654 34.1684754,21.5029212 Z"/>
    </g>
    <path fill="#EF5350" d="M1.73591654 2.15922354C2.35407218 1.41868546 3.26465215 1.53239316 4.57124689 2.13067206L26.3277283 13.6915405 20.6032896 19.0912888C20.6032896 19.0912888 10.7960616 10.8951451 1.73591654 2.74939985 1.47997623 2.51929045 1.73591654 2.15922354 1.73591654 2.15922354zM1.21732512 36.0489658C1.01452193 35.6539012.867958271 35.1281978.867958271 34.4419501L.867958271 4.56027486C.867958271 3.90865445 1.03412056 3.35619367 1.21732512 2.95483326L19.9630402 19.6352647 1.21732512 36.0489658zM4.57124689 36.8820081C3.26465215 37.5126934 2.0325748 37.5779766 1.44659712 36.5341926L20.6574068 20.0928662 26.617387 25.9118763 4.57124689 36.8820081z"/>
  </g>
</svg>
