<svg xmlns="http://www.w3.org/2000/svg" width="36" height="36" viewBox="0 0 36 36">
  <g fill="none" fill-rule="evenodd" transform="translate(1 1)">
    <circle cx="17" cy="17" r="17" fill="#EF5350"/>
    <polygon fill="#000" points="9.404 21.702 23.872 21.702 23.872 24.596 9.404 24.596"/>
    <g transform="translate(6.12 3.876)">
      <path fill="#EF5350" d="M10.9169565,29.4809565 C4.90809843,29.4809565 0.036956504,24.6098146 0.036956504,18.6009565 C0.036956504,12.5920984 4.90809843,7.7209565 10.9169565,7.7209565 C16.9258146,7.7209565 21.7969565,12.5920984 21.7969565,18.6009565 C21.7969565,24.6098146 16.9258146,29.4809565 10.9169565,29.4809565 Z M17.0835948,18.2144705 C16.9951276,18.2624368 16.8386088,18.3446646 16.7841675,18.3720739 C16.6684797,18.4268926 16.559597,18.4817112 16.4439091,18.5228251 C16.3282213,18.5707914 16.2057284,18.6187577 16.0968458,18.6530193 C15.9675476,18.6941332 15.7089512,18.7763611 15.613679,18.8037704 C14.7426177,19.0298972 14.1165423,19.1258297 13.5585188,19.2080576 C12.5173283,19.3588088 11.5578,19.3793657 11.067828,19.3862181 L10.7207645,19.3862181 C10.2307926,19.3793657 9.27126423,19.3588088 8.23007387,19.2080576 C7.67205023,19.1258297 7.04597497,19.0298972 6.17491373,18.8037704 C6.07964139,18.7763611 5.82104509,18.6941332 5.69174693,18.6530193 C5.58286428,18.6187577 5.4603713,18.5707914 5.34468348,18.5228251 C5.22899565,18.4817112 5.12011299,18.4268926 5.00442518,18.3720739 C4.94998385,18.3446646 4.79346503,18.2624368 4.70499788,18.2144705 C4.66416688,18.1939135 4.51445322,18.1048333 4.4395964,18.2076182 C4.35112925,18.3309601 4.58931006,18.4748589 4.61653072,18.4954158 C4.69138754,18.5502344 5.160944,18.8037704 5.89590191,19.0161925 C6.3382377,19.1463867 6.86223549,19.2697285 7.40664878,19.365661 C8.62477354,19.5712308 9.68637941,19.6534587 10.7207645,19.660311 L10.8908937,19.660311 L11.0610229,19.660311 C12.0954081,19.6534587 13.1570141,19.5780831 14.3751387,19.365661 C14.919552,19.2697285 15.4503549,19.1463867 15.8858856,19.0161925 C16.6208434,18.8037704 17.0903999,18.5502344 17.1652567,18.4954158 C17.1924775,18.4748589 17.4306583,18.3241077 17.3489962,18.2076182 C17.2741394,18.097981 17.1176206,18.1939135 17.0835948,18.2144705 Z"/>
      <path fill="#F0B200" d="M3.95853355,2.11112574 C4.76,1.62560081 4.82360482,1.62560081 4.82360482,1.62560081 C4.82360482,1.62560081 7.78159044,-0.0702181457 11.123277,0.0212575659 C14.47194,0.112733277 16.8927443,1.52005191 16.8927443,1.52005191 C16.8927443,1.52005191 18.3089496,2.32926013 19.0484461,3.60288349 C19.0484461,3.60288349 19.4460998,4.07433524 19.5507455,5.68571508 C19.6553912,7.29005832 19.9693284,12.138271 19.9693284,12.138271 C19.9693284,12.138271 20.2606945,15.6192542 20.1724995,15.6489476 C20.0461014,15.6915033 19.8791321,15.6220454 19.7460842,15.4736162 C19.285643,14.9529083 18.5182411,14.4110906 17.2764452,13.7003947 C16.0346494,12.9896988 13.355719,12.2860395 10.4535445,12.3704786 C7.55136986,12.4549177 5.80727456,13.1656136 4.28642347,13.9044559 C2.76557237,14.6432982 1.73049973,15.8584983 1.62842224,15.6529285 C1.52634475,15.4473588 2.15165083,7.91631513 2.15165083,7.91631513 L2.3121076,5.00316554 C2.3121076,5.00316554 2.55579343,2.96089968 3.95853355,2.11112574 Z"/>
      <path fill="#000" d="M2.85307738,5.10496167 C2.85307738,5.10496167 3.08799634,3.22186861 4.39310166,2.42692968 C5.69820699,1.63199075 5.20226697,1.97733307 5.20226697,1.97733307 C5.20226697,1.97733307 7.96909025,0.407002883 11.0948175,0.491709491 C14.2270703,0.576416096 16.5631594,1.80890185 16.5631594,1.80890185 C16.5631594,1.80890185 17.8461669,2.47822535 18.5378727,3.65760196 C18.6995772,3.65760196 18.8797708,4.2448638 18.9776537,5.73700328 C19.0755365,7.22262687 19.4594056,11.8447025 19.4594056,11.8447025 L19.7227007,15.1459527 C19.7227007,15.1459527 19.5910532,15.2762705 19.1603684,14.8006103 C18.7296836,14.3184342 18.0118757,13.8167105 16.850332,13.1586053 C15.6887882,12.5005001 13.182986,11.8489109 10.468367,11.9271015 C7.75374787,12.0052922 6.12236622,12.6633974 4.69980142,13.3475662 C3.27723661,14.0317349 2.21357578,15.1459527 2.21357578,15.1459527 L2.70299027,7.80254134 L2.85307738,5.10496167 L2.85307738,5.10496167 Z"/>
      <g transform="translate(1.662 .155)">
        <rect width="15.572" height="10.744" x="1.564" y="6.188" fill="#000"/>
        <path fill="#FFF" d="M0.91189224,15.6022202 C0.91189224,15.6022202 0.415115124,18.8981883 3.03510402,20.9059195 C3.03510402,20.9059195 5.09706931,22.5984437 5.43732761,23.6742587 L5.62787226,25.263998 C5.62787226,25.263998 5.83202724,26.6687246 6.74391947,26.1822095 C6.74391947,26.1822095 7.22028107,25.77107 7.27472242,25.4627154 C7.32916376,25.1543608 7.60137041,24.4143098 7.60137041,24.4143098 C7.60137041,24.4143098 7.94843384,23.6537017 8.38396446,24.0579889 L8.56770393,24.7980399 L8.69700212,25.4490108 L8.88074159,25.8944119 C8.88074159,25.8944119 9.07809139,26.1410956 9.1189224,26.1342433 C9.15975341,26.1273909 9.52042718,26.2370281 9.52042718,26.2370281 L9.96276296,26.2027665 L10.3642677,25.6682852 L10.5071763,25.0173143 C10.5071763,25.0173143 10.5480073,24.6130272 10.5616176,24.5719132 C10.5752279,24.5307993 10.7113312,24.2018877 10.7113312,24.2018877 L10.908681,23.9826133 L11.3306013,24.0031703 L11.5483666,24.4691284 L11.7525216,25.284555 L11.847794,25.6751375 C11.847794,25.6751375 11.9634817,25.8601502 11.9907024,25.8944119 C12.0111179,25.9286735 12.1404161,26.0931293 12.1744419,26.1342433 C12.2084677,26.1685049 12.3990124,26.2370281 12.3990124,26.2370281 L12.6576087,26.2849944 C12.6576087,26.2849944 12.8549585,26.2438804 12.9093998,26.2027665 C12.9638412,26.1616526 13.1135548,25.9834921 13.1135548,25.9834921 C13.1135548,25.9834921 13.2768788,25.6751375 13.283684,25.579205 C13.2972943,25.4832724 13.3517356,25.1749178 13.3517356,25.1406562 C13.3517356,25.1063945 13.3653459,24.9145295 13.3517356,24.8117446 C13.3381253,24.715812 13.3925666,24.5582086 13.3585408,24.462276 C13.3245149,24.3663434 13.3789563,24.1059551 13.3721511,24.0511365 C13.3653459,23.9963179 13.4061769,23.8524191 13.4265925,23.7564866 C13.447008,23.660554 13.4674235,23.5851785 13.5014493,23.5166552 C13.5354751,23.448132 13.6443578,23.2014483 13.6511629,23.1671866 C13.6647733,23.132925 13.7464353,22.9616169 13.7804611,22.9410599 C13.8144869,22.920503 13.9505903,22.7560471 13.9505903,22.7560471 L16.155464,20.6112695 C16.155464,20.6112695 17.183044,19.2682138 17.3667836,18.5829814 C17.550523,17.8977489 18.0268847,16.5135793 17.7887038,15.3075702 C17.795509,15.3075702 13.3040995,12.6077543 10.7657726,12.7859147 C10.7657726,12.7859147 5.47135343,11.7854753 0.91189224,15.6022202 Z M7.0161261,14.3482447 C7.36999477,14.3482447 7.63539618,14.6428947 7.63539618,15.0814434 C7.63539618,15.5199922 7.37679994,15.9105748 7.02293127,15.9105748 C6.66906265,15.9105748 6.42407667,15.5199922 6.42407667,15.0814434 C6.43088184,14.6428947 6.66225748,14.3482447 7.0161261,14.3482447 L7.0161261,14.3482447 Z M11.5687821,14.3276877 C11.9226508,14.3276877 12.1880522,14.6223377 12.1880522,15.0608865 C12.1880522,15.4994353 11.929456,15.8900178 11.5755873,15.8900178 C11.2217187,15.8900178 10.9767327,15.4994353 10.9767327,15.0608865 C10.9767327,14.6223377 11.2081084,14.3276877 11.5687821,14.3276877 Z M12.0247283,18.4596396 C12.8821791,18.34315 13.5014493,18.1512849 14.3997312,17.836078 C14.6038862,17.7675548 14.9917806,17.6168036 15.1891304,17.541428 C15.4681422,17.4317908 15.9717245,17.3153013 16.0669968,17.8018164 C16.1078278,18.0142384 16.0533865,18.2266605 15.9240884,18.3979686 C15.7539592,18.6240953 15.3184286,19.0078255 14.6583275,19.2545092 C13.2768788,19.7684336 11.6776648,20.1453114 9.20058442,20.1453114 C6.79155563,20.1453114 5.05623831,19.7273197 3.73603612,19.2202476 C3.02829886,18.9461546 2.64720956,18.6103907 2.47708041,18.384264 C2.34778226,18.2129558 2.29334093,17.9868291 2.34778226,17.7744071 C2.46347008,17.287892 2.98066269,17.4317908 3.24606416,17.541428 C3.42299848,17.6099513 3.63395862,17.7195885 3.80408778,17.7881117 C4.38933205,18.0279431 4.89291433,18.2061036 5.43052244,18.3088884 C7.60817558,18.7337326 9.82665967,18.7679942 12.0247283,18.4596396 Z"/>
        <path fill="#F7D917" d="M3.29031765,1.61455298 C3.29031765,1.61455298 6.17570804,-0.0368572808 9.4353825,0.0522229404 C12.7018622,0.141303162 15.0632548,1.51176811 15.0632548,1.51176811 C15.0632548,1.51176811 16.4447035,2.29978545 17.166051,3.54005623 C17.166051,3.54005623 17.5539455,3.99916198 17.656023,5.56834435 C17.7581005,7.1306744 18.0643329,11.8519261 18.0643329,11.8519261 L18.2957086,15.3642972 C18.0500875,15.047263 16.6488585,14.065227 15.4375389,13.3731422 C14.2262193,12.6810574 11.6130356,11.995825 8.78208656,12.0780529 C5.95113753,12.1602807 4.24984605,12.8523655 2.76631987,13.5718596 C1.28279369,14.2913537 0.17355164,15.3985589 0.17355164,15.3985589 L0.683939092,7.74053126 L0.840457905,4.90366884 C0.840457905,4.90366884 1.08544388,2.923347 2.44647707,2.08736339 C3.80751026,1.25137977 3.29031765,1.61455298 3.29031765,1.61455298 Z M0.915353767,13.6403758 C0.935765558,13.5595954 0.780642347,13.5484562 0.770042111,13.63427 C0.717040893,14.0633389 0.705935873,14.4910877 0.696621217,14.9254581 C0.694042143,15.0096835 0.853605774,15.0059909 0.84816368,14.9233538 C0.843226379,14.4987819 0.870373722,14.0678565 0.915353767,13.6403758 Z M1.03804443,11.8027519 C1.05986293,11.72234 0.90495775,11.7084953 0.89286147,11.794111 C0.83238004,12.2221896 0.813811467,12.6496793 0.796917421,13.083821 C0.792868803,13.1679886 0.952472576,13.1670813 0.948473527,13.0843619 C0.950946779,12.6597685 0.985610674,12.2293824 1.03804443,11.8027519 Z M1.14684484,9.96675188 C1.16866334,9.88634002 1.01375816,9.87249528 1.00166189,9.95811099 C0.941180448,10.3861896 0.922611875,10.8136793 0.905717836,11.247821 C0.901669218,11.3319886 1.06127299,11.3310813 1.05727394,11.2483619 C1.05974719,10.8237685 1.09441109,10.3933824 1.14684484,9.96675188 Z M1.27604227,8.13075188 C1.29786076,8.05034002 1.14295559,8.03649528 1.13085931,8.12211099 C1.07037787,8.55018957 1.0518093,8.97767932 1.03491525,9.41182101 C1.03086664,9.49598859 1.19047042,9.49508131 1.18647137,9.41236188 C1.18894461,8.98776847 1.22360851,8.55738243 1.27604227,8.13075188 Z M1.36153695,6.28893484 C1.38194874,6.20815439 1.22682554,6.19701522 1.2162253,6.28282906 C1.16322408,6.71189799 1.15211906,7.1396467 1.1428044,7.57401705 C1.14022533,7.65824247 1.29978897,7.65454991 1.29434687,7.57191287 C1.28940956,7.14734091 1.31655691,6.71641545 1.36153695,6.28893484 Z M1.63896853,4.37048457 C1.66963766,4.29268819 1.51709649,4.26363158 1.49551785,4.34756165 C1.38762463,4.76721183 1.32148797,5.19041392 1.25627527,5.6203951 C1.24286315,5.70367975 1.40172293,5.71853283 1.40696852,5.63589363 C1.45677213,5.21398234 1.53924183,4.78948941 1.63896853,4.37048457 Z M1.89704428,3.83890485 C1.85767392,3.90826634 1.74950763,3.84566531 1.78887799,3.77630382 C1.98403202,3.44921642 2.27369443,3.04757746 2.51266199,2.74817596 C2.57078761,2.6937284 2.70692392,2.81134856 2.61121171,2.85838316 C2.39964214,3.12184837 2.21149401,3.38184164 1.89704428,3.83890485 Z M4.08622753,1.87760928 C4.16342705,1.84762394 4.09475246,1.72556058 4.01830903,1.76569 C3.636092,1.966337 3.27601036,2.19752774 2.91134001,2.43376261 C2.84024139,2.47899197 2.92343818,2.59606704 2.98919196,2.54573777 C3.338584,2.30434714 3.70935526,2.08335626 4.08622753,1.87760928 Z M5.90322254,1.15191618 C5.9847899,1.13749184 5.94934489,1.00235403 5.8659719,1.0270209 C5.44910679,1.15035524 5.04586239,1.30849298 4.63695573,1.47073304 C4.5574393,1.50154012 4.60806534,1.63461354 4.6837252,1.59766623 C5.07925647,1.42724804 5.49021402,1.28139074 5.90322254,1.15191618 Z M7.84617403,0.601150858 L7.81185544,0.606169652 L7.77753686,0.611188445 L7.74321828,0.616207238 L7.7088997,0.621226031 L7.67458122,0.626244832 L7.64026264,0.631263624 L7.60594406,0.636282415 L7.57162548,0.641301209 L7.53730689,0.646320004 L7.50298831,0.651338798 L7.46866973,0.656357586 L7.4343512,0.661376384 L7.40003262,0.666395179 L7.36571404,0.671413973 L7.33139545,0.676432761 L7.29707687,0.681451555 L7.26275829,0.68647035 L7.2284397,0.691489144 L7.19412118,0.696507942 L7.15980259,0.70152673 L7.12548401,0.706545525 L7.09116543,0.711564319 L7.05684685,0.716583113 L7.02252826,0.721601901 L6.98820974,0.7266207 L6.95389115,0.731639494 L6.91957257,0.736658288 L6.88525399,0.741677076 L6.85093541,0.746695871 L6.81661682,0.751714665 L6.78229824,0.756733459 L6.74797971,0.761752257 L6.71366113,0.766771052 L6.67934255,0.77178984 L6.64502396,0.776808634 L6.6174659,0.78230017 C6.53479158,0.798774762 6.55254121,0.933550414 6.63521553,0.917075821 L6.66277365,0.911584289 L6.69709223,0.906565495 L6.73141082,0.901546701 L6.76572934,0.896527903 L6.80004793,0.891509114 L6.83436651,0.88649032 L6.86868509,0.881471526 L6.90300368,0.876452732 L6.93732226,0.871433937 L6.97164084,0.866415143 L7.00595937,0.861396357 L7.04027795,0.856377563 L7.07459653,0.851358769 L7.10891512,0.846339974 L7.1432337,0.84132118 L7.17755228,0.836302392 L7.21187081,0.831283594 L7.24618939,0.826264799 L7.28050797,0.821246005 L7.31482656,0.816227211 L7.34914514,0.811208423 L7.38346372,0.806189628 L7.41778231,0.801170834 L7.45210078,0.796152032 L7.48641936,0.791133238 L7.52073794,0.786114443 L7.55505652,0.781095655 L7.58937511,0.776076861 L7.62369369,0.771058067 L7.65801227,0.766039272 L7.6923308,0.76102048 L7.72664938,0.756001686 L7.76096797,0.750982892 L7.79528655,0.745964097 L7.82960513,0.740945309 L7.86392371,0.735926515 L7.89148184,0.730434983 L7.91903991,0.724943448 L7.94659797,0.719451912 C8.03500034,0.71821503 8.02401111,0.583912111 7.94236926,0.585621739 L7.91481114,0.591113269 L7.88049261,0.596132066 L7.84617403,0.601150858 Z M9.91298975,0.61523155 C9.99296274,0.62555256 9.98877797,0.485732159 9.90488951,0.484679916 C9.48544732,0.479418627 9.0713155,0.51149539 8.65096176,0.545823575 C8.56937973,0.551788656 8.58831476,0.694123528 8.6675903,0.681141132 C9.07710926,0.635029715 9.49585394,0.616987605 9.91298975,0.61523155 Z M11.8006555,0.868155483 C11.8771899,0.893546432 11.899761,0.755496436 11.8176146,0.73845685 C11.4068826,0.653258884 10.994239,0.60572623 10.5750582,0.559216435 C10.4938369,0.549505336 10.4852653,0.692838089 10.5655615,0.695220703 C10.9763549,0.728096382 11.3908486,0.79028601 11.8006555,0.868155483 Z M13.6879424,1.46434731 C13.7610915,1.50392684 13.8063443,1.37221671 13.7261696,1.33979686 C13.3252961,1.17769762 12.916364,1.05234208 12.5006646,0.926750205 C12.4202316,0.901726355 12.3882551,1.04130512 12.4689464,1.05893297 C12.878395,1.16949651 13.2868106,1.30964406 13.6879424,1.46434731 Z M15.3241294,2.41478873 C15.3917863,2.45397243 15.4641888,2.35090961 15.3976972,2.30511787 C15.0544203,2.06062462 14.6944993,1.83363705 14.3245084,1.62531435 C14.2568515,1.58613066 14.1910233,1.69035271 14.2640893,1.73730368 C14.6275059,1.94446714 14.9808526,2.1702955 15.3241294,2.41478873 Z M16.6431228,3.74614722 C16.4340044,3.3911752 16.1940951,3.07812912 15.9033588,2.76348754 C15.8448942,2.70521475 15.7532867,2.77156914 15.8070027,2.84221245 C16.0939772,3.13728218 16.2654249,3.44964216 16.5274832,3.77938966 C16.5671446,3.84835969 16.6783773,3.80745388 16.6431228,3.74614722 Z M16.7171528,4.36541639 C16.6867512,4.28674944 16.8394206,4.26213686 16.8607086,4.34667143 C16.9671485,4.76934421 17.0318121,5.1943536 17.0955279,5.6261133 C17.1086502,5.70976515 16.949711,5.71999442 16.9447544,5.6372253 C16.896422,5.21398136 16.815427,4.7872065 16.7171528,4.36541639 Z M17.0435996,6.0834948 C17.0203811,6.00347597 17.175021,5.98692987 17.1886097,6.07232143 C17.2565529,6.49927927 17.2825794,6.92637984 17.3070477,7.36016051 C17.3125646,7.44424467 17.1529693,7.446123 17.1555241,7.36334637 C17.145641,6.93886079 17.1034711,6.50914527 17.0435996,6.0834948 Z M17.1867858,7.91750761 C17.1666359,7.83685861 17.3218159,7.82530291 17.3321364,7.91100761 C17.3837392,8.33953101 17.3934445,8.76685069 17.4013376,9.20079078 C17.4036411,9.28493067 17.2440687,9.28168064 17.2497822,9.19910562 C17.2561109,8.77491561 17.2303715,8.34446625 17.1867858,7.91750761 Z M17.3146696,9.72531022 C17.2931153,9.64502511 17.4480699,9.63076296 17.4598846,9.71627449 C17.5189583,10.143832 17.5361199,10.5709172 17.5515852,11.0046535 C17.5553568,11.0887404 17.3957519,11.0882757 17.4000234,11.0056135 C17.3989479,10.5813777 17.3657001,10.1514432 17.3146696,9.72531022 Z M17.4452896,11.5047464 C17.423471,11.4243345 17.5783762,11.4104898 17.5904725,11.4961055 C17.6509539,11.9241841 17.6695225,12.3516738 17.6864165,12.7858155 C17.6904652,12.8699831 17.5308614,12.8690758 17.5348604,12.7863564 C17.5323872,12.3617629 17.4977233,11.9313769 17.4452896,11.5047464 Z M17.5986833,13.3238166 C17.5782715,13.2430362 17.7333948,13.231897 17.743995,13.3177108 C17.7969962,13.7467798 17.8081012,14.1745284 17.8174159,14.6088989 C17.8199949,14.6931243 17.6604314,14.6894317 17.6658734,14.6067946 C17.6708107,14.1822227 17.6436634,13.7512973 17.5986833,13.3238166 Z"/>
        <path fill="#F0B200" d="M10.4878028,12.7249823 C10.4878028,12.7249823 14.3834864,12.9535001 17.3899379,15.4100662 L18.4419998,15.4100662 C18.4419998,15.4100662 17.8910132,14.610254 15.5620719,13.2605708 C13.825952,12.360782 11.5534699,11.8823229 8.83637172,11.92517 C5.54762429,11.9680171 3.37394575,12.9892059 1.99069576,13.7604535 C0.727421541,14.4674304 0.112918366,15.2815249 0,15.4100662 L1.07323404,15.402925 L1.81426081,14.88876 C4.42549802,13.1034648 7.6013271,12.4250527 10.4878028,12.7249823 Z"/>
        <path fill="#898989" d="M9.15294824,13.0394507 C6.64864715,13.0394507 4.16476157,13.7863541 2.17084795,15.1499667 L1.44950035,15.6433341 C1.44950035,15.6433341 1.40866935,15.6501864 1.30659187,15.6433341 C1.15687821,15.6364817 0.837035412,15.6296295 0.367478962,15.5679586 C0.0309408212,15.5474015 0.187187432,15.4280406 0.187187432,15.4280406 L0.272297374,15.3829458 C0.401595527,15.2321946 1.17901143,14.605977 2.41755164,13.9207444 C3.88066232,13.1121702 5.66556497,12.1870061 8.80955164,12.1527444 L9.15294824,12.1527444 C11.6300286,12.1527444 13.6566757,12.5064992 15.3375516,13.3767444 C17.6172822,14.6855385 18.2174293,15.3897981 18.24465,15.4172074 L18.2990913,15.4925829 C18.2990913,15.4925829 18.2174293,15.5336969 18.1017414,15.5474015 C17.5028869,15.6296295 17.2170699,15.6433341 17.0945769,15.6501864 C17.0197201,15.6364817 17.0061097,15.6364817 17.0061097,15.6364817 C14.1887711,13.3478053 10.4595401,13.1011216 10.4255142,13.1011216 C10.003594,13.0600076 9.57486852,13.0394507 9.15294824,13.0394507 Z"/>
        <path fill="#1F1A17" d="M2.57235274,20.2960626 L4.11032024,21.7761648 C4.12393058,21.7898694 4.70236968,22.3860216 4.71598002,22.3997263 C5.4781586,23.2083006 5.64828775,23.975761 5.66870325,24.3252296 C5.70953425,25.1680655 5.74356007,25.7779224 6.07020804,26.0383107 C6.22672686,26.1616526 6.58740065,26.2233235 6.8391918,25.9149688 C7.22708624,25.4353062 7.46526705,24.523947 7.51290323,24.3594911 C7.57414974,24.1333644 7.71025303,23.8113052 8.11856298,23.8181575 C8.56089876,23.8250098 8.6153401,24.2361493 8.66297628,24.4691284 C8.66297628,24.482833 8.7446383,25.1543608 8.7446383,25.1543608 C8.7446383,25.1543608 8.82630024,26.0246061 9.3162722,26.1205386 C9.3162722,26.1205386 9.64972537,26.1959142 9.89471128,26.0246061 C10.1192818,25.9081166 10.3098265,25.4695678 10.3506574,25.0036097 C10.4255142,24.4348667 10.4663453,24.2498539 10.4799556,24.2155923 C10.5071763,24.1470691 10.6636951,23.7427819 11.1604722,23.8318621 C11.6096131,23.9140901 11.6912752,24.5856179 11.6912752,24.6267318 C11.6912752,24.6267318 11.8205733,25.5723526 12.1948574,25.9629352 C12.3037401,26.0725723 12.4738692,26.1548002 12.6031674,26.1410956 C13.3857614,26.0931293 13.1748013,24.7706306 13.2156323,24.1813307 C13.2564633,23.6057354 13.4129821,23.1466297 13.9846161,22.5436251 C14.5222242,21.9817345 15.046222,21.4883671 15.2912079,21.255388 C16.073802,20.5427463 16.9993046,19.2819185 17.2783164,18.5007535 C17.2783164,18.4939012 17.4348352,18.1238756 17.5845489,17.4249385 C17.7002367,16.8561956 17.7682883,16.2120771 17.754678,15.5679586 C17.751468,15.5314799 17.742136,15.4942519 17.726995,15.4563357 C17.7091789,15.4117205 17.2749443,15.4631657 17.2415516,15.4167444 C16.8821899,14.9171731 14.5215516,13.7847444 14.5215516,13.7847444 C14.5215516,13.7847444 11.5755872,12.6556305 9.89471128,12.6967444 C8.02329062,12.751563 6.45129733,12.745324 5.05623831,13.2112821 C3.91140557,13.5917517 3.02955164,14.1247444 1.80555164,14.8047444 C0.58155164,15.4847444 1.49000842,15.0296514 1.26155164,15.2127444 L1.07521622,15.2548446 C0.986749068,15.8030305 0.973138732,18.2883315 2.10960145,19.7341719 C2.2184841,19.8712185 2.5587424,20.282358 2.57235274,20.2960626 Z M0.85355164,15.4847444 C0.856029693,15.4579661 0.690355504,15.4952084 0.64955164,15.4847444 C0.568936503,15.4640711 0.58155164,15.4139267 0.58155164,15.4133477 L0.78555164,15.1447444 C0.903292919,15.0498987 1.00912549,14.9597939 1.12555164,14.8727444 C2.3886022,13.9283878 3.67914047,13.452846 4.98138149,13.0199402 C5.64165209,12.8004455 6.30444385,12.5930027 7.04155164,12.4927444 C7.89223744,12.3770377 8.8334937,12.3841114 9.84707517,12.3547415 C11.1325746,12.3187857 12.4420852,12.5032601 13.6375516,12.9007444 C14.0368798,13.0335183 14.4254924,13.3023342 14.7935516,13.4447444 C16.610531,14.1505338 17.9520278,15.0266249 18.0064692,15.6707434 C18.081326,16.5546933 17.6594057,18.3568547 17.509692,18.6378 C17.264706,19.3709988 16.4140603,20.5016323 15.9308935,21.0155567 C15.3456493,21.6391182 14.1887711,22.5436251 13.7192146,23.3179378 C13.7192146,23.3179378 13.4606183,23.7907482 13.4606183,24.5650609 C13.487839,25.3119643 13.3993718,25.7299561 13.3653459,25.8395933 C13.3177098,25.9766398 13.0999445,26.4425978 12.5895571,26.4220409 C12.4126227,26.4151885 12.1948574,26.3877792 12.0383386,26.2438804 C11.5891976,25.8738549 11.439484,24.7637783 11.439484,24.7637783 C11.439484,24.756926 11.3714323,24.0785458 11.0447843,24.0785458 C10.7589674,24.0785458 10.7317467,24.3457865 10.7113312,24.3800481 C10.7113312,24.3800481 10.7045261,24.3937527 10.6977209,24.421162 C10.6909157,24.4485714 10.6636951,24.5513562 10.5888382,25.1406562 C10.5548124,25.5106817 10.4391246,25.7436607 10.3370471,25.9423781 C10.2621903,26.0931293 9.91512678,26.4220409 9.47959617,26.4083362 C8.52006782,26.3740746 8.46562648,25.3051119 8.46562648,25.2982596 C8.46562648,25.2982596 8.3975748,24.5513562 8.3975748,24.5445039 C8.3975748,24.5445039 8.38396446,24.0922505 8.10495264,24.0716935 C7.82594089,24.0442842 7.74427887,24.4348667 7.74427887,24.4417191 C7.72386337,24.50339 7.43804638,25.6203189 7.18625523,25.9697875 C7.04334677,26.1616526 6.85280214,26.319256 6.62142649,26.3809269 C6.17228553,26.5111211 5.88646856,26.2575851 5.88646856,26.2575851 C5.88646856,26.2575851 5.38969144,25.9560828 5.42371728,24.4280144 C5.36927595,23.1808913 4.32808556,22.3312031 4.32808556,22.3312031 L2.53152174,20.5838602 L2.00071879,19.987708 L1.94627746,19.9328894 C0.66938688,18.1986365 0.802989776,16.0311272 0.85355164,15.4847444 Z"/>
        <path fill="#FFF" d="M10.4818525,12.8847185 C10.4818525,12.8847185 14.2762067,13.1070447 17.2044583,15.4970523 L18.428,15.4970523 C18.428,15.4970523 17.6925002,14.7189103 15.4241363,13.4057957 C13.7331741,12.5303859 11.5198009,12.0648903 8.87337627,12.1065765 C5.67017148,12.1482627 3.55303183,13.1417833 2.20576114,13.8921345 C0.975345568,14.5799564 0.177981281,15.3789415 0.068,15.504 L1.31216324,15.4901046 L2.03391539,14.9898705 C4.57723251,13.2529464 7.670456,12.5929153 10.4818525,12.8847185 Z M11.0602314,12.4941632 C10.6188082,12.4116986 10.2005874,12.3879724 9.75436987,12.4079265 C9.66932011,12.4157009 9.68368465,12.5465236 9.76490259,12.5330684 C10.1730143,12.4809593 10.6293409,12.5368406 11.03106,12.6212897 C11.1163217,12.6381686 11.1360194,12.5091667 11.0602314,12.4941632 Z M13.0286709,12.8712413 C12.6030205,12.728145 12.1921719,12.6464446 11.7475198,12.604103 C11.6622157,12.5999651 11.6582335,12.7315138 11.7405336,12.7294929 C12.1519258,12.7346891 12.5960342,12.853535 12.9820909,12.9930707 C13.0641736,13.0216515 13.1016333,12.8966464 13.0286709,12.8712413 Z M14.8195934,13.6664459 C14.8914255,13.7074261 14.9527973,13.5950774 14.8809652,13.5540971 C14.5338877,13.3658269 14.0577788,13.1273144 13.6654402,13.0735675 C13.5851471,13.0556744 13.5564025,13.1781979 13.6366957,13.1960909 C13.9930457,13.2929249 14.3193184,13.3946715 14.7111062,13.6097474 C14.7477612,13.6254657 14.7829384,13.6507276 14.8195934,13.6664459 Z M16.4666408,14.5677961 C16.5311779,14.6195088 16.6093693,14.5181439 16.5448323,14.4664312 C16.2314798,14.226184 15.7985443,13.9161281 15.4194439,13.8016677 C15.3429383,13.7714343 15.2953807,13.8879526 15.3718863,13.918186 C15.7087009,14.0695732 16.01504,14.2211074 16.368359,14.4948245 C16.4021038,14.5160834 16.432896,14.5465372 16.4666408,14.5677961 Z M17.6912495,15.258621 C17.1735516,14.9065362 17.3775516,15.0087444 16.9695516,14.8047444 C16.8946948,14.7636305 16.792761,14.8722746 16.8676178,14.9065362 C17.2415516,15.1156232 17.270897,15.1447444 17.5959772,15.4157012 C17.6572237,15.4773721 17.7456908,15.3134396 17.6912495,15.258621 Z M9.06562515,12.3924966 C8.68147157,12.372002 8.30596179,12.3939206 7.89570516,12.4517016 C7.81666665,12.465732 7.80196723,12.5637591 7.8864264,12.5591177 C8.28064403,12.494608 8.61036413,12.5217 9.0120963,12.4918736 C9.08609438,12.4965546 9.13140114,12.3966575 9.06562515,12.3924966 Z M7.15314926,12.5136885 C6.70609573,12.5560912 6.2975363,12.6485614 5.87410453,12.7907366 C5.79449237,12.8216528 5.84436009,12.9434483 5.91872302,12.9081276 C6.29666196,12.7455463 6.75071419,12.6734822 7.16014877,12.643931 C7.24675994,12.6366548 7.2301369,12.5072208 7.15314926,12.5136885 Z M5.28311163,12.9384814 C4.84631012,13.0426892 4.45459612,13.1911199 4.05507213,13.3908419 C3.98053744,13.432537 4.04687051,13.546207 4.11559406,13.5008807 C4.46722797,13.2872827 4.90683202,13.1527281 5.30816928,13.0664822 C5.3929249,13.0472228 5.35844991,12.921362 5.28311163,12.9384814 Z M3.55345757,13.7378584 C3.63102305,13.7091734 3.58440796,13.5899434 3.50684248,13.6186285 C3.13952196,13.7634875 2.65077394,13.9748951 2.35741104,14.2408961 C2.29209272,14.2909028 2.36747445,14.391679 2.43279278,14.3416723 C2.7360293,14.130936 3.02369574,13.946398 3.4402898,13.7845192 C3.47589208,13.7665434 3.51785529,13.7558342 3.55345757,13.7378584 Z M1.99082115,14.635844 C2.06294434,14.5953782 1.9982515,14.4849084 1.9261283,14.5253742 C1.58599106,14.7259114 1.13633177,15.0111732 0.888192377,15.3197914 C0.831500998,15.3794004 0.921719531,15.4671436 0.978410904,15.4075345 C1.24494766,15.1519561 1.50020436,14.9246892 1.88634603,14.6996337 C1.91869795,14.6763098 1.95846923,14.6591679 1.99082115,14.635844 Z"/>
      </g>
    </g>
  </g>
</svg>
