<svg xmlns="http://www.w3.org/2000/svg" width="110" height="168" viewBox="0 0 110 168">
  <g fill="none" fill-rule="evenodd" transform="translate(2 5)">
    <g transform="translate(0 54)">
      <polygon fill="#F1F1F1" points="6.908 54.047 99.201 54.047 99.201 49.004 6.908 49.004"/>
      <polygon fill="#F1F1F1" points="6.908 70.859 99.201 70.859 99.201 65.815 6.908 65.815"/>
      <polygon fill="#F1F1F1" points="6.908 62.453 99.201 62.453 99.201 57.41 6.908 57.41"/>
      <polygon fill="#ECECEC" points="8.586 102.8 11.942 102.8 11.942 75.061 8.586 75.061"/>
      <polygon fill="#ECECEC" points="95.845 102.8 99.201 102.8 99.201 75.061 95.845 75.061"/>
      <polygon fill="#ECECEC" points="16.976 99.437 20.332 99.437 20.332 49.845 16.976 49.845"/>
      <polygon fill="#ECECEC" points="87.455 99.437 90.811 99.437 90.811 49.845 87.455 49.845"/>
      <polyline fill="#F1F1F1" points="105.914 80.945 .196 80.945 6.908 75.061 99.201 75.061 105.914 80.945"/>
      <path fill="#FFF" d="M62.5761213,38.3504023 L62.504496,38.3431176 C62.3234332,38.3034155 62.2085419,38.1245739 62.2478085,37.9431827 C62.3430665,37.5028173 62.4488683,37.0580809 62.5626688,36.6213579 C62.6092071,36.4414236 62.7917242,36.3347015 62.9720599,36.3809599 C63.1513049,36.4275825 63.2589246,36.6111592 63.2123863,36.7910935 C63.1007673,37.2190748 62.9971469,37.6543408 62.9037069,38.0856003 C62.8698939,38.243316 62.7306428,38.3504023 62.5761213,38.3504023"/>
      <polygon fill="#FDE4E4" points="46.716 42.495 54.435 42.495 54.435 27.908 46.716 27.908"/>
      <path fill="#DADADA" d="M69.2478147,105.045551 L59.7365613,105.045551 C59.7365613,105.045551 62.2841665,83.2986372 59.6562101,80.9452864 C57.0282537,78.5915714 51.9708556,77.5862707 51.9708556,77.5862707 L49.178561,77.5862707 C49.178561,77.5862707 43.15404,79.2639574 41.113629,80.9452864 C39.0732179,82.6262513 41.113629,105.045551 41.113629,105.045551 L31.6023756,105.045551 C31.6023756,105.045551 28.7228218,82.2900583 31.6023756,77.5829925 C34.4819293,72.8759267 39.6673076,70.159065 39.6673076,70.159065 L61.482109,70.159065 C61.482109,70.159065 65.9759581,71.5307906 69.1674635,77.5829925 L69.2009129,77.6467344 C72.338972,83.7794332 69.2478147,105.045551 69.2478147,105.045551"/>
      <path fill="#AAA" d="M42.147287 106.572442C42.147287 109.214999 30.4007436 109.214999 30.4007436 106.572442 30.4007436 103.93025 33.0305179 102.799651 36.2740153 102.799651 39.5178762 102.799651 42.147287 103.93025 42.147287 106.572442M70.6745027 106.572442C70.6745027 109.214999 58.9279593 109.214999 58.9279593 106.572442 58.9279593 103.93025 61.5573701 102.799651 64.801231 102.799651 68.0447284 102.799651 70.6745027 103.93025 70.6745027 106.572442"/>
      <path fill="#DADADA" d="M63.4821627,44.3811141 L61.9551266,51.0955032 L61.2672332,54.1114055 L60.716773,56.5423393 L59.3006289,62.7624555 L42.3319856,62.7624555 L38.808168,48.8696363 L38.5158497,47.709898 L38.4925806,47.6224805 L37.8112316,44.9325726 L37.6701626,44.3811141 L38.9590537,38.96451 L39.1772018,38.0568254 C39.5833206,36.5302981 41.3619541,35.5789047 43.1173185,35.0004926 C44.6207219,34.5029415 46.1074006,34.2811198 46.7149428,34.203901 C46.8996414,34.1802254 47.0036253,34.1700267 47.0036253,34.1700267 C47.1981406,34.9702607 47.9263914,36.2145025 50.5743447,36.2145025 C53.222298,36.2145025 54.0010864,34.8591677 54.2025098,33.9380062 L54.2025098,33.9347281 C54.2025098,33.9347281 54.282861,33.9551255 54.4341103,33.9951918 C54.9340328,34.1365167 56.1927468,34.5131402 57.5652614,35.1450956 C58.5218404,35.5891034 59.5318657,36.1573169 60.3811887,36.8566566 C61.3341319,37.6397713 62.0860154,38.5915288 62.3241603,39.7177571 C62.3310683,39.7479889 62.3343406,39.7818632 62.3412486,39.8153732 C62.3510652,39.8488832 62.354701,39.8860357 62.3612455,39.9228238 L62.5826657,40.8104753 L63.4821627,44.3811141"/>
      <path fill="#FEDBDA" d="M64.8045032,37.5592744 C64.3983844,36.8901666 63.9420914,36.2545688 63.415264,35.6663222 C62.1463697,34.2304905 60.5018972,33.0503548 58.3273251,32.2570414 C57.1827752,31.8367091 55.893884,31.5241917 54.4373825,31.3391581 L54.4341103,31.3391581 L54.3232183,31.5912118 L54.2326869,31.7897222 L51.759252,37.3644063 L50.5743447,40.0302745 L46.7149428,31.3391581 C45.2584412,31.5241917 43.96955,31.8367091 42.8253637,32.2570414 C39.750931,33.3767133 37.7374249,35.2663873 36.3445498,37.5592744 C36.3445498,37.5592744 38.532938,42.1956777 38.5027608,43.4734295 C38.4958528,43.7793906 38.4925806,44.0886299 38.4925806,44.4011473 L38.4925806,66.3866376 C38.4925806,67.1300502 39.0932148,67.7317737 39.834918,67.7317737 L61.314135,67.7317737 C62.0558383,67.7317737 62.6564725,67.1300502 62.6564725,66.3866376 L62.6564725,44.4011473 C62.6564725,43.1572697 64.8045032,37.5592744 64.8045032,37.5592744"/>
      <polyline points=".317 1.289 .311 1.289 .317 .242 .317 1.289" transform="translate(38.176 47.715)"/>
      <polyline fill="#E6E7E3" points="38.493 53.204 38.464 53.186 38.487 49.004 38.493 49.004 38.493 53.204"/>
      <polyline fill="#CDA231" points="41.755 46.366 40.401 46.366 40.401 45.84 40.704 45.539 41.943 45.539 41.755 46.366"/>
      <polyline fill="#E6E7E3" points="62.656 53.206 62.656 52.104 62.658 52.106 62.687 53.186 62.656 53.206"/>
      <path fill="#FEBBBA" d="M58.7974341,34.7575449 L58.3258708,32.2570414 C57.1816845,31.8367091 55.8927933,31.5241917 54.4362917,31.3391581 L50.7681329,39.3578885 L50.3831016,39.3578885 L46.7149428,31.3391581 C45.2584412,31.5241917 43.96955,31.8367091 42.8253637,32.2570414 L42.3538004,34.7575449 L47.0308938,36.2338072 L45.7081897,38.4134158 L50.212219,39.4992134 L50.2154912,62.7624555 L50.2154912,67.2644545 L50.9357433,67.2644545 L50.9357433,62.7624555 L50.9390155,39.4992134 L55.4430448,38.4134158 L54.1203407,36.2338072 L58.7974341,34.7575449"/>
      <polyline fill="#AAA" points="61.47 70.159 39.668 70.159 39.668 67.733 61.483 67.733 61.47 70.159"/>
      <path fill="#CFCFCF" d="M49.6086762,67.764191 C49.2272807,67.764191 48.9164198,68.0752514 48.9164198,68.4577028 L48.9164198,69.4345929 C48.9164198,69.8170442 49.2272807,70.1281047 49.6086762,70.1281047 L51.6054577,70.1281047 C51.9872167,70.1281047 52.297714,69.8170442 52.297714,69.4345929 L52.297714,68.4577028 C52.297714,68.0752514 51.9872167,67.764191 51.6054577,67.764191 L49.6086762,67.764191 Z M51.6054577,70.8004906 L49.6086762,70.8004906 C48.8567927,70.8004906 48.2452511,70.18784 48.2452511,69.4345929 L48.2452511,68.4577028 C48.2452511,67.7044557 48.8567927,67.091805 49.6086762,67.091805 L51.6054577,67.091805 C52.3573412,67.091805 52.9688828,67.7044557 52.9688828,68.4577028 L52.9688828,69.4345929 C52.9688828,70.18784 52.3573412,70.8004906 51.6054577,70.8004906 L51.6054577,70.8004906 Z"/>
      <path fill="#FFEBEB" d="M38.2849764,73.959539 C37.2589536,73.959539 36.2951029,73.3264909 35.9213427,72.3047994 L35.4657769,71.0583721 C35.186911,70.2778071 34.805152,69.2087644 34.3699467,67.8927675 C33.8133057,66.226008 33.3471961,64.7053085 32.9476217,63.2512648 C32.4687868,61.474505 31.9855889,59.5782747 31.7638051,57.5119445 C31.6910891,56.9852544 31.6907255,56.4898888 31.6903619,56.0509803 L31.6889076,55.7533967 C31.6878169,55.6685289 31.6910891,55.5840254 31.6987243,55.4998861 L31.8234322,54.1008425 C31.8263409,54.0676968 31.8299767,54.034551 31.833976,54.0014052 C31.8754242,53.6805103 31.9234167,53.3625293 31.9717729,53.0467337 L32.0386716,52.5994477 L32.0488518,52.5349774 C32.1033888,52.2169964 32.1673789,51.9041147 32.2310054,51.594147 C32.2604554,51.4499082 32.2899054,51.3067621 32.3179011,51.1639802 L32.3306264,51.1031523 C32.683299,49.5070552 33.1766771,47.8515871 33.796581,46.1830064 C34.3568578,44.6823401 34.866597,43.5484628 35.1956369,42.8607789 C35.5552176,42.1013397 35.7864545,41.6551464 35.7959076,41.6365702 C36.4379899,40.4014344 37.9584815,39.9213669 39.1910178,40.5646137 C40.4239177,41.2078604 40.9031161,42.7303811 40.2613974,43.965517 C40.2501264,43.9870071 40.0519753,44.3716439 39.7396601,45.0316457 C39.4498868,45.6366473 39.0070463,46.6233719 38.5133046,47.9459251 C37.9792056,49.3835781 37.5545441,50.8037475 37.2520455,52.1649101 C37.2229591,52.3124271 37.192782,52.4610368 37.1618777,52.6100107 C37.1109765,52.8595147 37.058621,53.1115683 37.0142642,53.3669001 L36.9484562,53.8050801 C36.9084624,54.068061 36.868105,54.3332273 36.8328378,54.6002148 L36.7237638,55.8262446 C36.7241273,55.8994567 36.7241273,55.9730331 36.7244909,56.0462452 C36.7248545,56.3423718 36.7248545,56.6479687 36.752123,56.8326381 C36.7572131,56.8668766 36.7615761,56.9018435 36.7652119,56.9364463 C36.9459112,58.6541993 37.3600288,60.2757931 37.8046872,61.9243406 C38.1766295,63.2785827 38.6165614,64.7133217 39.1462975,66.2995843 C39.5651416,67.5656805 39.9352661,68.6026701 40.2057696,69.3591953 L40.647883,70.5691986 C41.1263543,71.8768181 40.4562763,73.3253982 39.151024,73.8047372 C38.8652501,73.9096382 38.5725682,73.959539 38.2849764,73.959539"/>
      <path fill="#FFEBEB" d="M40.8645766,70.2118798 C40.5209935,70.2118798 40.198498,69.9984355 40.0752444,69.6556862 C39.930176,69.2524732 39.537146,68.8893265 38.9070618,68.5764448 C38.3929597,68.3236627 37.9192149,68.2158478 37.9141248,68.2147551 C37.462922,68.1131323 37.1775116,67.6651179 37.2774961,67.2127325 C37.3771171,66.7603472 37.8232298,66.4744193 38.2744326,66.5727639 C38.3013375,66.5785917 38.9419655,66.7206451 39.6491286,67.068858 C40.6831502,67.581707 41.356864,68.2599208 41.6539089,69.0860158 C41.8109754,69.5223746 41.5851923,70.0042633 41.1492598,70.1616147 C41.0550926,70.195489 40.9591075,70.2118798 40.8645766,70.2118798"/>
      <polyline fill="#FEDBDA" points="45.017 41.801 39.218 52.602 31.109 47.498 36.865 36.764 45.017 41.801"/>
      <path fill="#F1F1F1" d="M52.9147093,59.7480102 L48.160537,59.7480102 C47.1563289,59.7480102 46.3426368,58.9324782 46.3426368,57.9268132 L46.3426368,47.5059239 C46.3426368,46.500259 47.1563289,45.6847269 48.160537,45.6847269 L52.9147093,45.6847269 C53.9189174,45.6847269 54.7326095,46.500259 54.7326095,47.5059239 L54.7326095,57.9268132 C54.7326095,58.9324782 53.9189174,59.7480102 52.9147093,59.7480102"/>
      <path fill="#CFCFCF" d="M51.3767658,47.7157258 C51.3767658,48.1801311 51.0011877,48.5563904 50.5376231,48.5563904 C50.0740586,48.5563904 49.6984805,48.1801311 49.6984805,47.7157258 C49.6984805,47.2516848 50.0740586,46.8754255 50.5376231,46.8754255 C51.0011877,46.8754255 51.3767658,47.2516848 51.3767658,47.7157258"/>
      <path fill="#FFEBEB" d="M64.935392,60.1810909 L64.9037606,60.1807266 L63.4977966,60.1610577 C63.4552578,60.1603292 63.4123553,60.158508 63.3698165,60.1555941 C63.142579,60.1410245 62.9142507,60.1188059 62.6859224,60.0969516 L62.1983616,60.0510574 C61.9038618,60.0241037 61.5708225,59.9931433 61.2057882,59.9253948 L60.405185,59.7909905 C60.3702813,59.7847984 60.3353776,59.7782421 60.3008375,59.7713215 L60.0583296,59.7199638 C59.5882207,59.6216192 59.1021142,59.5192679 58.5985558,59.3837708 C56.4727034,58.8326766 54.3021307,58.0324426 52.170461,57.0111154 C50.91611,56.4101203 50.3856467,54.9043547 50.9855537,53.648093 C51.5850972,52.3918313 53.0877734,51.860406 54.3421245,52.4610368 C56.1825666,53.3428603 58.0466414,54.0312728 59.8823569,54.5073337 C60.2728418,54.6122347 60.6702348,54.6956455 61.0905333,54.7837914 L61.2894116,54.825679 L62.0623827,54.9557124 L62.115829,54.9651826 C62.254353,54.9914079 62.4506862,55.0096199 62.6582904,55.0285603 L62.8295366,55.0445868 C62.9302482,55.0536928 63.0520475,55.0653485 63.1738468,55.0773684 C63.3294591,55.0923022 63.4850713,55.1076002 63.64032,55.1192559 L63.7635736,55.1207129 L63.7628465,55.1101499 L63.7584835,55.0591564 C63.7363051,54.7327979 63.694857,54.3838566 63.651591,54.0137893 L63.6301398,53.8323981 L63.5352454,53.1862374 C63.5192479,53.0685881 63.5010689,52.9760713 63.4839806,52.8835545 L63.4461683,52.6722956 C63.1902079,51.2393778 62.8073582,49.8807648 62.3107079,48.6467217 C61.7907884,47.3547646 62.4146917,45.8857871 63.7039465,45.3649247 C64.9932013,44.8447909 66.4598831,45.4690972 66.9798025,46.7606901 C67.6055237,48.3163566 68.0847222,50.0104341 68.4035819,51.7966641 L68.4348498,51.9689493 C68.4657541,52.1375922 68.4959312,52.3065993 68.5192003,52.4759706 L68.6162762,53.1348797 L68.6260929,53.2106414 L68.6511799,53.422993 C68.6988089,53.8283915 68.7478922,54.2472668 68.77916,54.6861753 C68.8253347,55.2143224 68.842423,55.7213436 68.8573298,56.1697223 L68.8649649,56.4793258 C68.8758723,56.8657838 68.8878705,57.3035996 68.8616927,57.7548922 C68.7857045,59.0526772 67.7375033,60.0801966 66.4406133,60.1279119 L65.0266506,60.1792697 L64.935392,60.1810909"/>
      <path fill="#FFEBEB" d="M56.3589029,55.6291911 C55.9178803,55.6291911 55.5481194,55.2838921 55.5223053,54.8373346 C55.5219417,54.8325995 55.4928553,54.3674658 55.3677837,53.8775638 C55.1830851,53.1312373 54.962392,52.9964687 54.9202167,52.977164 C54.4988275,52.7841171 54.3134017,52.2854734 54.5060991,51.8629557 C54.6987965,51.4408022 55.196174,51.2550401 55.6182904,51.4484512 C56.284369,51.7536838 56.7344811,52.4140499 56.9951679,53.467066 C57.1605968,54.1146836 57.1958641,54.7160429 57.1973184,54.7408112 C57.2234962,55.2044879 56.8697328,55.6015089 56.4068955,55.6277341 L56.3589029,55.6291911"/>
      <polyline fill="#FEDBDA" points="69.52 48.567 61.405 52.716 60.539 50.672 58.898 46.802 58.713 46.365 56.539 41.234 64.805 37.559 69.52 48.567"/>
      <path fill="#FFEBEB" d="M50.5754355,4.19676638 C45.9419717,4.19676638 42.1854629,7.95972364 42.1854629,12.6023191 L42.1854629,21.3437004 C42.1854629,25.9862959 45.9419717,29.7492531 50.5754355,29.7492531 C55.2096264,29.7492531 58.9657717,25.9862959 58.9657717,21.3437004 L58.9657717,12.6023191 C58.9657717,7.95972364 55.2096264,4.19676638 50.5754355,4.19676638"/>
      <path fill="#FEBBBA" d="M50.5134161,25.5779953 C50.4272865,25.5779953 50.3445632,25.5741026 50.2662193,25.5682635 C49.1947088,25.4855437 48.3188146,24.8846086 47.9582381,24.3600677 C47.8862202,24.2549649 47.9129836,24.1114217 48.0180909,24.0394068 C48.1231982,23.9678785 48.2667475,23.9941542 48.3387655,24.0987704 C48.6390026,24.535239 49.3815662,25.0383701 50.3017417,25.1084387 C50.9275194,25.155151 51.8593735,25.012581 52.7639775,24.0525446 C52.851567,23.9596065 52.9975493,23.9557138 53.0900048,24.0423263 C53.1824603,24.129912 53.1868398,24.2754015 53.099737,24.3683397 C52.1810213,25.3424871 51.2238636,25.5779953 50.5134161,25.5779953 Z"/>
      <path fill="#AAA" d="M59.6514836,5.67193596 C60.22594,4.78646998 60.6375126,3.72762603 60.5880657,2.5329208 C59.9885223,2.66368274 59.4689664,2.6993782 59.0094013,2.67788808 C59.3518936,2.22950938 59.4529689,1.75053456 59.4820553,1.51560015 C59.490054,1.45112978 59.4227917,1.40705681 59.3642554,1.43510324 C57.6219799,2.27358234 55.5106707,1.24897691 55.5106707,1.24897691 L55.5110343,1.24970539 C54.1257944,0.563478354 52.6809274,0.20069591 50.5474398,0.257881496 C43.4943509,0.252053666 41.4430325,5.67193596 41.4430325,5.67193596 C39.8632773,9.40174743 40.3042998,14.5258673 42.1669203,19.298132 C42.2014604,19.3793574 42.2378184,19.4587615 42.2738128,19.53853 C42.1963703,19.158264 42.1854629,15.3821942 42.1854629,15.3821942 C43.6081515,13.4863281 44.0640808,9.63558913 44.0640808,9.63558913 C44.0640808,9.63558913 47.0447099,10.2770147 50.5474398,10.4256244 C54.0498062,10.2770147 57.0304352,9.63558913 57.0304352,9.63558913 C57.0304352,9.63558913 57.513633,13.4885135 58.9363217,15.3843796 C58.9363217,15.3843796 58.8981458,19.158264 58.8210668,19.53853 C58.8570612,19.4587615 58.8934192,19.3793574 58.9279593,19.298132 C60.7902162,14.5258673 61.2312388,9.40174743 59.6514836,5.67193596"/>
      <path fill="#AAA" d="M47.1913206 18.1414528C47.2054616 18.5424826 46.8919693 18.8789331 46.4910416 18.8928854 46.0903131 18.9068378 45.7541154 18.5931097 45.7401736 18.1920798 45.7262317 17.79105 46.0397241 17.4545996 46.4404526 17.4404479 46.8411811 17.4264956 47.1773788 17.7402237 47.1913206 18.1414528M55.1776223 18.1414528C55.1917632 18.5424826 54.8780742 18.8789331 54.4773491 18.8928854 54.0766239 18.9068378 53.740429 18.5931097 53.7264873 18.1920798 53.7123464 17.79105 54.0260354 17.4545996 54.4267605 17.4404479 54.8274857 17.4264956 55.1636805 17.7402237 55.1776223 18.1414528"/>
      <path fill="#FFEBEB" d="M42.1854629,16.0990173 C41.2586974,16.0990173 40.5071775,16.8515359 40.5071775,17.7799821 L40.5071775,19.5283313 C40.5071775,20.4567775 41.2586974,21.2092961 42.1854629,21.2092961 C43.1122283,21.2092961 43.8633847,20.4567775 43.8633847,19.5283313 L43.8633847,17.7799821 C43.8633847,16.8515359 43.1122283,16.0990173 42.1854629,16.0990173"/>
      <path fill="#F2CAB2" d="M58.9657717,16.0990173 C58.0390062,16.0990173 57.2878498,16.8515359 57.2878498,17.7799821 L57.2878498,19.5283313 C57.2878498,20.4567775 58.0390062,21.2092961 58.9657717,21.2092961 C59.8925371,21.2092961 60.644057,20.4567775 60.644057,19.5283313 L60.644057,17.7799821 C60.644057,16.8515359 59.8925371,16.0990173 58.9657717,16.0990173"/>
      <path fill="#FFEBEB" d="M58.9657717,21.2092961 L58.9657717,21.2092961 C58.0390062,21.2092961 57.2878498,20.4567775 57.2878498,19.5283313 L57.2878498,17.7799821 C57.2878498,16.8642843 58.0182821,16.119779 58.9275958,16.0993815 C58.9403211,16.0990173 58.9530464,16.0990173 58.9657717,16.0990173 L58.9734068,16.0997458 C59.3857066,16.101567 59.7580125,16.2570972 60.0492401,16.5058727 C60.4044578,16.8092841 60.6364219,17.2525635 60.6436935,17.7548496 L60.6436935,17.7563066 C60.644057,17.7595847 60.644057,17.7628629 60.644057,17.766141 L60.644057,17.7683265 L60.644057,17.7799821 L60.644057,19.5283313 C60.644057,20.4567775 59.8925371,21.2092961 58.9657717,21.2092961"/>
    </g>
    <g transform="translate(4.405)">
      <g transform="translate(64.855 44.151)">
        <path fill="#FEBBBA" d="M7.18228902,1.63709046e-13 C11.1756418,1.63709046e-13 14.4122137,3.22645 14.4122137,7.20833333 C14.4122137,11.1922128 11.1756607,14.4166667 7.18228902,14.4166667 C3.18763579,14.4166667 0,11.1962051 0,7.20833333 C0,3.22234679 3.18765463,1.63709046e-13 7.18228902,1.63709046e-13 Z"/>
        <path fill="#FFF" d="M4.82888153,2.88333333 L4.82888153,2.89506562 L4.80407125,2.89506562 L4.80407125,4.09645451 L5.89156578,4.09645451 C6.87945185,4.09645451 7.37811444,4.62708311 7.5579546,5.28611111 L4.82888153,5.28611111 L4.82888153,6.4875 L7.5579546,6.4875 C7.37869664,7.14699678 6.88065648,7.67950304 5.89156578,7.67950304 L5.55249965,7.67950304 L5.5483639,7.67481005 L5.54422921,7.67950304 L4.80407125,7.67950304 L4.80407125,8.88089253 L5.1162608,8.88089253 L8.34566366,12.4944444 L9.08995631,11.6403314 L6.5552266,8.8011119 C7.70343424,8.5278644 8.44064308,7.55797078 8.64338072,6.4875 L10.0885496,6.4875 L10.0885496,5.28611111 L8.64338072,5.28611111 C8.5612595,4.85393092 8.38322417,4.44523668 8.13478153,4.08472222 L10.0885496,4.08472222 L10.0885496,2.88333333 L4.82888153,2.88333333 Z"/>
      </g>
      <g transform="translate(63.954 1.802)">
        <ellipse cx="17.444" cy="17.467" fill="#F1F1F1" rx="17.444" ry="17.467"/>
        <rect width="3.876" height="2.717" x="15.506" y="27.134" fill="#FFEBEB"/>
        <path fill="#FEBBBA" d="M15.1150169,29.3201237 C15.1150169,29.3201237 12.8723505,29.296209 11.296351,30.1355829 C9.72035145,30.9749568 8.39967256,32.8196966 8.39967256,32.8196966 C8.39967256,32.8196966 11.6726363,35.1225149 17.1848874,34.9599596 C22.6971386,34.7974042 25.5906646,32.4713848 25.5906646,32.4713848 C25.5906646,32.4713848 24.2335818,30.7402759 23.0818937,30.1355829 C21.9302057,29.5308899 21.4518313,29.3332068 19.0891193,29.3332068 L15.1150169,29.3201237 Z"/>
        <g transform="translate(6.323 7.38)">
          <path fill="#AAA" d="M1.44097667,11.1649104 C1.47198827,11.8805211 2.23758714,12.6371914 2.96442151,12.3791023 C2.69888469,14.4731434 2.93147168,17.1166014 4.42196669,18.7140165 C4.74177382,19.0561801 5.09646899,19.3396871 5.47442286,19.5840896 C3.75909375,20.0181486 2.10384962,20.0631187 0.342003109,19.9047458 C0.489308208,18.5556437 0.648242656,17.2045864 0.776165505,15.8515738 C0.911841253,14.4262181 0.818806454,13.059519 0.73933923,11.6361185 C0.595910581,8.99852611 1.11341665,6.23775483 2.76284611,4.12025108 C4.24752645,2.21586635 6.4939292,1.07206239 8.8294903,0.651689991 C11.4402794,0.180481861 13.8204196,0.645824329 16.0900811,1.98710556 C16.1404749,2.01838909 16.1947452,1.99883688 16.2257568,1.96168769 C16.2412626,1.96755336 16.2567684,1.97341902 16.2780889,1.9714638 C18.2841518,1.86001623 19.9742839,2.84544734 20.6255275,4.80848868 C21.129466,6.32965019 21.0248019,7.99940846 21.0112343,9.57727136 C20.9976667,11.4308204 20.9647169,13.2863246 20.9589022,15.1398736 C20.9550258,16.651259 21.034493,18.1333161 21.7186864,19.5097913 C21.732254,19.5391196 21.7516363,19.5586718 21.7710185,19.5743135 C20.1157744,20.3739987 18.4314569,19.7991639 16.7800892,19.2517022 C18.4469627,17.6992571 18.9160131,15.0206051 18.8675575,12.8405343 C18.8675575,12.8072956 18.8598046,12.7799225 18.846237,12.7545046 C19.6002065,12.811206 20.2650177,12.199222 20.2262532,11.401492 C20.1836122,10.5353294 19.2978434,9.91356928 18.4818507,10.2068524 C18.4740978,10.2107628 18.4682831,10.2146732 18.4605302,10.2185837 C18.4430862,10.1873001 18.4178893,10.1599271 18.3791248,10.1442853 C17.7298194,9.87055443 17.1851782,9.40912241 16.8111008,8.80495928 C16.4757879,8.261408 16.4021353,7.68657319 16.2121893,7.09414139 C16.2121893,7.09023095 16.2083128,7.09023095 16.2083128,7.08632051 C16.175363,6.96509684 16.0164285,6.87320148 15.8943204,6.98660426 C12.3822567,10.2146732 7.59484099,10.3378521 3.11560306,9.91356928 C3.10009726,9.89988274 3.08071501,9.8861962 3.05551808,9.87837531 C2.22595779,9.57727136 1.4041504,10.3202551 1.44097667,11.1649104"/>
          <path fill="#FFEBEB" d="M1.81699232,11.2626714 C1.68519302,10.5314189 2.30930146,10.079763 2.97411263,10.177524 C3.04776518,10.1873001 3.10397371,10.1560166 3.13692353,10.1110465 C7.57933519,10.7934185 12.5043649,10.5020906 16.0164285,7.37569313 C15.9059497,8.70915348 17.1774253,9.99959898 18.2899664,10.4708071 C18.3364838,10.4903593 18.3752483,10.4864489 18.4081982,10.4688519 C18.4430862,10.5099115 18.4954183,10.5353294 18.5671326,10.5196876 C19.2222527,10.3710909 19.9006314,10.7249858 19.914199,11.4679695 C19.9277665,12.1659832 19.2997816,12.5726691 18.6640439,12.5198781 C18.5768237,12.5140125 18.5419357,12.6176392 18.5768237,12.6802062 C18.5244917,12.7095345 18.4837889,12.7603703 18.4837889,12.8405343 C18.5128623,14.8661427 18.1349084,17.4118397 16.6134018,18.8919416 C15.029872,20.4326553 12.7447048,20.616446 10.6552982,20.5245507 C8.620162,20.4346105 6.43384422,20.1256857 4.87357311,18.6749121 C3.14467643,17.0657657 3.15436756,14.4633673 3.17762626,12.2676547 C3.17762626,12.2089981 3.12917063,12.1738041 3.07877678,12.1698937 C3.06908566,12.1601176 3.05939453,12.1503415 3.04388873,12.146431 C2.49537106,12.0252074 1.93910049,11.9313568 1.81699232,11.2626714 Z"/>
          <path fill="#AAA" d="M19.2707083 11.4132234C19.1040209 11.5148948 18.9586541 11.6439394 18.8171636 11.7808048 18.768708 11.8277301 18.6640439 11.7808048 18.6931172 11.7084617 18.7783991 11.4992531 18.9257042 11.3369698 19.1001445 11.2040148 18.9644687 11.0827911 18.7939049 11.0065375 18.5923295 10.992851 18.4663449 10.9850301 18.4702214 10.8110155 18.5923295 10.7992841 19.06138 10.7523589 19.5536891 11.0984329 19.6506004 11.569641 19.6874266 11.7514765 19.4257663 11.8277301 19.3734342 11.6478498 19.3482373 11.5618201 19.3133492 11.4855665 19.2707083 11.4132234M15.7857798 13.1377278C16.1346603 13.0399668 16.3091005 12.6450123 16.1734248 12.3126248 16.1055869 12.1444758 16.3730619 12.0721327 16.4408998 12.2383264 16.6289076 12.695848 16.3226681 13.255041 15.8439265 13.3508468 15.7063125 13.3782199 15.650104 13.1768322 15.7857798 13.1377278M15.1771771 12.3360874C15.2043123 12.3263113 15.2333856 12.3204457 15.2605208 12.3184904 15.322544 12.2950278 15.3942583 12.2911174 15.4640344 12.3224009 15.4853549 12.332177 15.495046 12.3556396 15.4969842 12.3791023 15.6016484 12.4514454 15.6597951 12.58049 15.6055248 12.7290867 15.5047371 12.9989072 15.1132157 13.0341011 15.0356867 12.7271315 15.0318102 12.713445 15.0318102 12.6997584 15.0318102 12.6860719 15.0240573 12.6802062 15.0163044 12.6743406 15.0104898 12.6665197 14.9116403 12.5296543 15.0550689 12.3830127 15.1771771 12.3360874M12.0702025 16.6493037C12.0895847 16.1507225 11.4383411 16.2074239 11.1340398 16.2914984 11.0913989 16.3032297 11.0565108 16.2856327 11.0371286 16.2563044 10.963476 16.2543492 10.8975764 16.2074239 10.9072675 16.1116181 11.0293757 14.7195012 10.8200474 13.4446974 10.4866727 12.0975505 10.4672904 12.0193417 10.5797075 11.9665508 10.618472 12.0408491 11.2270746 13.2648171 11.3705033 14.6901729 11.2154453 16.039275 11.4538469 15.9376035 11.721322 15.9121856 11.9616619 16.0294989 12.1826195 16.1389912 12.3493069 16.3697072 12.3609362 16.6219307 12.3880714 17.2651982 11.6282872 17.308213 11.1824954 17.1889446 10.9789818 17.1341984 11.0662019 16.8311392 11.2677773 16.8741541 11.5042408 16.9230346 12.0546967 17.0423031 12.0702025 16.6493037"/>
          <path fill="#9B9B9B" d="M14.0665742,18.4305096 C12.5877085,19.3396871 9.93621677,19.7835221 8.62985313,18.3288381 C8.5658917,18.256495 8.66280295,18.1606892 8.7364555,18.2232562 C10.1823713,19.4374481 12.4229594,19.046404 13.9386514,18.2095697 C14.08208,18.1313609 14.2041882,18.3444799 14.0665742,18.4305096"/>
          <path fill="#AAA" d="M6.5637053 12.5589826C6.86994485 12.5022812 7.11609942 12.8776835 6.96491787 13.1475039 6.81761277 13.4075482 6.40477085 13.387996 6.27103333 13.1240413 6.21288658 13.0106385 6.23226883 12.8874596 6.2923538 12.7877434 6.34468588 12.6762958 6.4396589 12.5824452 6.5637053 12.5589826M5.44341126 12.8972357C5.47636108 13.0360563 5.56358121 13.15728 5.69731873 13.2120262 5.82717981 13.2648171 5.77872418 13.4446974 5.63917198 13.4212348 5.21082426 13.3508468 4.93365809 12.6567436 5.31161196 12.3595501 5.42596723 12.2696099 5.59459281 12.3791023 5.51900203 12.5198781 5.45116416 12.6450123 5.41046143 12.7525494 5.44341126 12.8972357M2.22401957 10.7210753C2.35194241 10.5392398 2.66399664 10.3691356 2.87332493 10.5079563 2.94697748 10.5548816 2.93534813 10.6663292 2.85006623 10.6937022 2.72989629 10.7308514 2.61166456 10.7288962 2.51281509 10.7953737 2.78998126 10.7973289 3.03225938 10.9341944 3.18925561 11.1609999 3.28229041 11.2919997 3.05357986 11.4308204 2.97217441 11.2880893 2.87332493 11.1140746 2.70276114 11.0006719 2.50506219 10.9811197 2.45466834 10.975254 2.42753319 10.94006 2.41978029 10.9029108 2.34225129 11.0300002 2.34612774 11.188373 2.39458336 11.3271937 2.42365674 11.4073577 2.30348679 11.4816561 2.24921649 11.4132234 2.09028204 11.2137909 2.07477624 10.9322391 2.22401957 10.7210753"/>
          <path fill="#AAA" d="M9.22101175,0.21958627 C11.4984261,-0.0971594434 14.4018871,0.139422232 16.1831159,1.78376263 C16.1966835,1.76225521 16.2160657,1.74661345 16.2451391,1.74074778 C17.6096495,1.46115126 19.0691329,1.96168769 20.009172,2.99795454 C20.9472729,4.0361766 21.2554507,5.44002488 21.3484855,6.80281354 C21.4860994,8.81278017 21.3601148,10.8540303 21.344609,12.8659522 C21.327165,15.0030081 21.0751957,17.343407 22.0384935,19.3201349 C22.0656287,19.3748811 22.0636905,19.427672 22.0481847,19.4726421 C22.1993662,19.4882838 22.2943392,19.7131342 22.1257137,19.8069848 C20.3328556,20.802192 18.3229163,20.252775 16.5746373,19.4296272 C14.8961345,20.8354307 12.574141,20.9879379 10.4769815,20.8764904 C8.91089575,20.7924159 7.23626937,20.5597447 5.84268561,19.8011191 C5.82524158,19.8187161 5.80392111,19.8343579 5.77484773,19.8421787 C4.00912477,20.3544465 2.10966429,20.501088 0.310991509,20.0709395 C0.23733896,20.2117154 -0.0107538376,20.1921632 0.00862841222,20.0083725 C0.19469801,18.2525845 0.458296608,16.48311 0.535825607,14.7155907 C0.605601706,13.1279517 0.312929734,11.5500888 0.398211633,9.96244979 C0.531949157,7.48323026 1.35181832,5.0118316 3.08652968,3.20325268 C4.69913287,1.51980787 6.94359739,0.536331984 9.22101175,0.21958627 Z M10.6552982,20.5245507 C12.7447048,20.616446 15.029872,20.4326553 16.6134018,18.8919416 C18.1349084,17.4118397 18.5128623,14.8661427 18.4837889,12.8405343 C18.4837889,12.7603703 18.5244917,12.7095345 18.5768237,12.6802062 C18.5419357,12.6176392 18.5768237,12.5140125 18.6640439,12.5198781 C19.2997816,12.5726691 19.9277665,12.1659832 19.914199,11.4679695 C19.9006314,10.7249858 19.2222527,10.3710909 18.5671326,10.5196876 C18.4954183,10.5353294 18.4430862,10.5099115 18.4081982,10.4688519 C18.3752483,10.4864489 18.3364838,10.4903593 18.2899664,10.4708071 C17.1774253,9.99959898 15.9059497,8.70915348 16.0164285,7.37569313 C12.5043649,10.5020906 7.57933519,10.7934185 3.13692353,10.1110465 C3.10397371,10.1560166 3.04776518,10.1873001 2.97411263,10.177524 C2.30930146,10.079763 1.68519302,10.5314189 1.81699232,11.2626714 C1.93910049,11.9313568 2.49537106,12.0252074 3.04388873,12.146431 C3.05939453,12.1503415 3.06908566,12.1601176 3.07877678,12.1698937 C3.12917063,12.1738041 3.17762626,12.2089981 3.17762626,12.2676547 C3.15436756,14.4633673 3.14467643,17.0657657 4.87357311,18.6749121 C6.43384422,20.1256857 8.620162,20.4346105 10.6552982,20.5245507 Z M4.42196669,18.7140165 C2.93147168,17.1166014 2.69888469,14.4731434 2.96442151,12.3791023 C2.23758714,12.6371914 1.47198827,11.8805211 1.44097667,11.1649104 C1.4041504,10.3202551 2.22595779,9.57727136 3.05551808,9.87837531 C3.08071501,9.8861962 3.10009726,9.89988274 3.11560306,9.91356928 C7.59484099,10.3378521 12.3822567,10.2146732 15.8943204,6.98660426 C16.0164285,6.87320148 16.175363,6.96509684 16.2083128,7.08632051 C16.2083128,7.09023095 16.2121893,7.09023095 16.2121893,7.09414139 C16.4021353,7.68657319 16.4757879,8.261408 16.8111008,8.80495928 C17.1851782,9.40912241 17.7298194,9.87055443 18.3791248,10.1442853 C18.4178893,10.1599271 18.4430862,10.1873001 18.4605302,10.2185837 C18.4682831,10.2146732 18.4740978,10.2107628 18.4818507,10.2068524 C19.2978434,9.91356928 20.1836122,10.5353294 20.2262532,11.401492 C20.2650177,12.199222 19.6002065,12.811206 18.846237,12.7545046 C18.8598046,12.7799225 18.8675575,12.8072956 18.8675575,12.8405343 C18.9160131,15.0206051 18.4469627,17.6992571 16.7800892,19.2517022 C18.4314569,19.7991639 20.1157744,20.3739987 21.7710185,19.5743135 C21.7516363,19.5586718 21.732254,19.5391196 21.7186864,19.5097913 C21.034493,18.1333161 20.9550258,16.651259 20.9589022,15.1398736 C20.9647169,13.2863246 20.9976667,11.4308204 21.0112343,9.57727136 C21.0248019,7.99940846 21.129466,6.32965019 20.6255275,4.80848868 C19.9742839,2.84544734 18.2841518,1.86001623 16.2780889,1.9714638 C16.2567684,1.97341902 16.2412626,1.96755336 16.2257568,1.96168769 C16.1947452,1.99883688 16.1404749,2.01838909 16.0900811,1.98710556 C13.8204196,0.645824329 11.4402794,0.180481861 8.8294903,0.651689991 C6.4939292,1.07206239 4.24752645,2.21586635 2.76284611,4.12025108 C1.11341665,6.23775483 0.595910581,8.99852611 0.73933923,11.6361185 C0.818806454,13.059519 0.911841253,14.4262181 0.776165505,15.8515738 C0.648242656,17.2045864 0.489308208,18.5556437 0.342003109,19.9047458 C2.10384962,20.0631187 3.75909375,20.0181486 5.47442286,19.5840896 C5.09646899,19.3396871 4.74177382,19.0561801 4.42196669,18.7140165 L4.42196669,18.7140165 Z"/>
        </g>
      </g>
      <g transform="translate(8.107 52.26)">
        <path fill="#FEBBBA" d="M8.30733845,0 C12.9262188,0 16.6697744,3.72498134 16.6697744,8.32212095 C16.6697744,12.9215651 12.9262406,16.6442419 8.30733845,16.6442419 C3.68695401,16.6442419 -5.68434189e-13,12.9261743 -5.68434189e-13,8.32212095 C-5.68434189e-13,3.72024413 3.68697581,0 8.30733845,0 Z"/>
        <path fill="#FFF" d="M5.58528807,3.32884838 L5.58528807,3.34239346 L5.55659145,3.34239346 L5.55659145,4.72941362 L6.8144335,4.72941362 C7.95706421,4.72941362 8.53383839,5.34203171 8.7418491,6.1028887 L5.58528807,6.1028887 L5.58528807,7.48990885 L8.7418491,7.48990885 C8.53451179,8.25130705 7.95845753,8.86609292 6.8144335,8.86609292 L6.42225532,8.86609292 L6.41747173,8.8606748 L6.41268937,8.86609292 L5.55659145,8.86609292 L5.55659145,10.2531138 L5.91768306,10.2531138 L9.65294663,14.4250096 L10.5138269,13.4389243 L7.5820516,10.1610059 C8.91011699,9.8455379 9.76280383,8.72578224 9.99729874,7.48990885 L11.6688421,7.48990885 L11.6688421,6.1028887 L9.99729874,6.1028887 C9.90231388,5.60393066 9.69639071,5.13208749 9.40903147,4.71586854 L11.6688421,4.71586854 L11.6688421,3.32884838 L5.58528807,3.32884838 Z"/>
      </g>
      <path fill="#F1F1F1" fill-rule="nonzero" d="M1.53390858,0.20379673 C0.767042482,0.20379673 0.180615462,0.77619098 0.180615462,1.52470654 L0.180615462,32.9186735 C0.180615462,33.6671891 0.767042482,34.2395833 1.53390858,34.2395833 L25.4889922,34.2395833 C26.2558583,34.2395833 26.8422853,33.6671891 26.8422853,32.9186735 L26.8422853,1.52470654 C26.8422853,0.77619098 26.2558583,0.20379673 25.4889922,0.20379673 L1.53390858,0.20379673 Z"/>
      <polygon fill="#FEBBBA" points="4.382 5.828 23.566 5.828 23.566 7.164 4.382 7.164"/>
      <text fill="#FEBBBA" font-family="LucidaGrande-Bold, Lucida Grande" font-size="10.08" font-weight="bold">
        <tspan x="2.921" y="27.848">BILL</tspan>
      </text>
      <polygon fill="#FEBBBA" points="4.382 12.385 18.161 12.385 18.161 13.844 4.382 13.844"/>
    </g>
  </g>
</svg>
