<svg xmlns="http://www.w3.org/2000/svg" xmlns:xlink="http://www.w3.org/1999/xlink" width="77" height="77" viewBox="0 0 77 77">
  <defs>
    <path id="merchant-fig-a" d="M11.3139312,48.1133367 C11.291504,48.2990265 11.2799689,48.4879586 11.2799689,48.6795044 C11.2799689,51.31989 13.4718168,53.4636514 16.1714286,53.4636514 C18.8710404,53.4636514 21.0628882,51.31989 21.0628882,48.6795044 C21.0628882,48.4900594 21.0516048,48.3031711 21.0296599,48.1194477"/>
    <mask id="merchant-fig-c" width="12.609" height="8.176" x="-1.413" y="-1.413">
      <rect width="12.609" height="8.176" x="9.867" y="46.701" fill="#fff"/>
      <use xlink:href="#merchant-fig-a"/>
    </mask>
    <path id="merchant-fig-b" d="M48.5987767,43.8953574 C45.8991649,43.8953574 43.7073171,46.0391187 43.7073171,48.6795044 C43.7073171,51.31989 45.8991649,53.4636514 48.5987767,53.4636514 C51.2983885,53.4636514 53.4902363,51.31989 53.4902363,48.6795044 C53.4902363,46.0391187 51.2983885,43.8953574 48.5987767,43.8953574 Z"/>
    <mask id="merchant-fig-d" width="12.609" height="12.394" x="-1.413" y="-1.413">
      <rect width="12.609" height="12.394" x="42.294" y="42.483" fill="#fff"/>
      <use xlink:href="#merchant-fig-b"/>
    </mask>
  </defs>
  <g fill="none" fill-rule="evenodd" transform="translate(6 11)">
    <polyline stroke="#FEBBBA" stroke-width="2.627" points="56.457 17.102 56.457 28.749 56.457 28.749"/>
    <path fill="#666" stroke="#FEBBBA" stroke-width="2.627" d="M8.40727273,17.1020991 L8.40727273,28.7494111"/>
    <rect width="5.818" height="5.765" x="34.909" y="23.062" fill="#FEBBBA"/>
    <rect width="5.818" height="5.765" x="43.636" y="23.062" fill="#FEBBBA"/>
    <use fill="#FFF" xlink:href="#merchant-fig-a"/>
    <use stroke="#FEBBBA" stroke-width="2.826" mask="url(#merchant-fig-c)" xlink:href="#merchant-fig-a"/>
    <path fill="#F69A98" d="M12.4739517,48.1391945 C12.4371105,48.3504759 12.4179104,48.567751 12.4179104,48.7894737 C12.4179104,50.8823422 14.1285836,52.5789474 16.238806,52.5789474 L16.238806,52.5789474 C18.3490283,52.5789474 20.0597015,50.8823422 20.0597015,48.7894737 C20.0597015,48.5776881 20.0421838,48.3699603 20.0085072,48.1676378"/>
    <use fill="#FFF" xlink:href="#merchant-fig-b"/>
    <use stroke="#FEBBBA" stroke-width="2.826" mask="url(#merchant-fig-d)" xlink:href="#merchant-fig-b"/>
    <ellipse cx="48.716" cy="48.789" fill="#F69A98" rx="3.821" ry="3.789"/>
    <path fill="#F1F1F1" stroke="#F1F1F1" stroke-linecap="round" stroke-linejoin="round" stroke-width="1.413" d="M21.6342857,47.3940525 L43.04,47.3940525 L21.6342857,47.3940525 Z M54.1142857,47.3940525 L59.3371429,47.3940525 L59.3371429,28.8388338 L5.34857143,28.8388338 L5.34857143,47.3940525 L10.5714286,47.3940525 L54.1142857,47.3940525 Z"/>
    <path fill="#FBCFCE" stroke="#FBCFCE" stroke-linecap="round" stroke-linejoin="round" stroke-width="1.413" d="M64,10.6582542 L64,10.8983247 C64,14.3237216 61.1338776,17.1020991 57.600302,17.1020991 C54.0667264,17.1020991 51.200604,14.3237216 51.200604,10.8983247 C51.200604,14.3237216 48.3329715,17.1020991 44.800906,17.1020991 C41.2673305,17.1020991 38.399698,14.3237216 38.399698,10.8983247 C38.399698,14.3237216 35.5335756,17.1020991 32,17.1020991 C28.4664244,17.1020991 25.600302,14.3237216 25.600302,10.8983247 C25.600302,14.3237216 22.7326695,17.1020991 19.199094,17.1020991 C15.6670285,17.1020991 12.799396,14.3237216 12.799396,10.8983247 C12.799396,14.3237216 9.93327356,17.1020991 6.39969798,17.1020991 C2.86612241,17.1020991 0,14.3237216 0,10.8983247 L0,10.6582542 L4.51111923,0 L59.513042,0 L64,10.6582542 Z"/>
  </g>
</svg>
