<svg xmlns="http://www.w3.org/2000/svg" width="435" height="150" viewBox="0 0 435 150">
  <g fill="none" fill-rule="evenodd" transform="translate(-544 -619)">
    <g transform="translate(549 622)">
      <g transform="translate(0 48.7)">
        <polygon fill="#F1F1F1" points="6.191 48.742 88.907 48.742 88.907 44.194 6.191 44.194"/>
        <polygon fill="#F1F1F1" points="6.191 63.903 88.907 63.903 88.907 59.355 6.191 59.355"/>
        <polygon fill="#F1F1F1" points="6.191 56.323 88.907 56.323 88.907 51.774 6.191 51.774"/>
        <polygon fill="#ECECEC" points="7.695 92.709 10.703 92.709 10.703 67.693 7.695 67.693"/>
        <polygon fill="#ECECEC" points="85.899 92.709 88.907 92.709 88.907 67.693 85.899 67.693"/>
        <polygon fill="#ECECEC" points="15.215 89.677 18.223 89.677 18.223 44.952 15.215 44.952"/>
        <polygon fill="#ECECEC" points="78.379 89.677 81.387 89.677 81.387 44.952 78.379 44.952"/>
        <polyline fill="#F1F1F1" points="94.923 73 .175 73 6.191 67.693 88.907 67.693 94.923 73"/>
        <path fill="#FFFFFE" d="M56.0823728,34.5859457 L56.0181804,34.579376 C55.8559071,34.543571 55.7529385,34.3822845 55.7881303,34.2186985 C55.873503,33.8215591 55.9683253,33.4204779 56.0703164,33.0266234 C56.1120252,32.8643514 56.2756019,32.768105 56.4372235,32.8098227 C56.5978676,32.8518689 56.6943192,33.0174258 56.6526104,33.1796978 C56.5525744,33.5656687 56.4597072,33.9582092 56.3759637,34.3471365 C56.3456597,34.4893708 56.2208591,34.5859457 56.0823728,34.5859457"/>
        <polygon fill="#FDE4E3" points="41.868 38.323 48.786 38.323 48.786 25.168 41.868 25.168"/>
        <path fill="#DADADA" d="M62.0617207,94.734331 L53.5374842,94.734331 C53.5374842,94.734331 55.8207153,75.1220839 53.4654713,72.9997368 C51.1102274,70.8770613 46.5776536,69.9704404 46.5776536,69.9704404 L44.0751254,69.9704404 C44.0751254,69.9704404 38.6757906,71.4834462 36.8471203,72.9997368 C35.01845,74.515699 36.8471203,94.734331 36.8471203,94.734331 L28.3228838,94.734331 C28.3228838,94.734331 25.7421516,74.2125066 28.3228838,69.9674841 C30.9036159,65.7224615 35.5508889,63.2722856 35.5508889,63.2722856 L55.1018901,63.2722856 C55.1018901,63.2722856 59.1293964,64.5093633 61.9897079,69.9674841 L62.0196861,70.0249691 C64.8320976,75.5556852 62.0617207,94.734331 62.0617207,94.734331"/>
        <path fill="#AAA" d="M37.7735119 96.1113436C37.7735119 98.4945084 27.2459494 98.4945084 27.2459494 96.1113436 27.2459494 93.7285073 29.6028226 92.7088873 32.5097307 92.7088873 35.4169646 92.7088873 37.7735119 93.7285073 37.7735119 96.1113436M63.3403562 96.1113436C63.3403562 98.4945084 52.8127937 98.4945084 52.8127937 96.1113436 52.8127937 93.7285073 55.1693411 92.7088873 58.076575 92.7088873 60.983483 92.7088873 63.3403562 93.7285073 63.3403562 96.1113436"/>
        <path fill="#DADADA" d="M56.8943911,40.0246857 L55.525821,46.0799937 L54.9093128,48.7998565 L54.4159758,50.992171 L53.14679,56.6017237 L37.9390437,56.6017237 L34.7809053,44.0726167 L34.5189219,43.0267178 L34.4980675,42.9478812 L33.8874246,40.5220133 L33.7609948,40.0246857 L34.9161331,35.1397728 L35.1116431,34.3211861 C35.4756176,32.9445019 37.0696759,32.0864969 38.6428798,31.5648614 C39.9902696,31.1161497 41.3226703,30.9161019 41.8671657,30.8464629 C42.0326975,30.8251113 42.1258906,30.8159137 42.1258906,30.8159137 C42.3002204,31.5375971 42.952898,32.6597047 45.3260637,32.6597047 C47.6992294,32.6597047 48.3972001,31.4374089 48.577721,30.6066682 L48.577721,30.6037118 C48.577721,30.6037118 48.6497339,30.622107 48.7852875,30.6582405 C49.2333313,30.785693 50.361424,31.1253473 51.5915079,31.6952703 C52.4488193,32.0956945 53.3540306,32.6081324 54.1152163,33.2388252 C54.9692692,33.9450698 55.643127,34.8034033 55.8565588,35.8190815 C55.8627499,35.8463458 55.8656826,35.876895 55.8718737,35.9071157 C55.8806717,35.9373364 55.8839302,35.970842 55.8897955,36.004019 L56.0882381,36.804539 L56.8943911,40.0246857"/>
        <path fill="#FDDADA" d="M58.0795076,33.8724744 C57.7155331,33.2690459 57.3065914,32.6958381 56.8344347,32.1653335 C55.6972181,30.8704423 54.2233985,29.8061482 52.2744895,29.090706 C51.2487136,28.7116334 50.0935753,28.4297925 48.7882201,28.2629217 L48.7852875,28.2629217 L48.6859032,28.4902339 L48.6047666,28.6692587 L46.3880089,33.6967345 L45.3260637,36.1009224 L41.8671657,28.2629217 C40.5618105,28.4297925 39.4066722,28.7116334 38.3812222,29.090706 C35.6258344,30.1004715 33.821277,31.8046561 32.5729456,33.8724744 C32.5729456,33.8724744 34.5342369,38.0537707 34.5071913,39.206099 C34.5010001,39.4820271 34.4980675,39.7609116 34.4980675,40.0427525 L34.4980675,59.8701578 C34.4980675,60.5405974 35.0363717,61.083256 35.7011058,61.083256 L54.9513474,61.083256 C55.6160815,61.083256 56.1543857,60.5405974 56.1543857,59.8701578 L56.1543857,40.0427525 C56.1543857,38.9209733 58.0795076,33.8724744 58.0795076,33.8724744"/>
        <polyline fill="#CDA231" points="37.422 41.815 36.208 41.815 36.208 41.341 36.48 41.069 37.59 41.069 37.422 41.815"/>
        <path fill="#FEBBBA" d="M52.6958136,31.3457613 L52.2731861,29.090706 C51.2477361,28.7116334 50.0925978,28.4297925 48.7872426,28.2629217 L45.4997417,35.4945375 L45.1546666,35.4945375 L41.8671657,28.2629217 C40.5618105,28.4297925 39.4066722,28.7116334 38.3812222,29.090706 L37.9585947,31.3457613 L42.1503294,32.6771145 L40.964887,34.6427737 L45.0015171,35.62199 L45.0044497,56.6017237 L45.0044497,60.6618087 L45.6499586,60.6618087 L45.6499586,56.6017237 L45.6528912,35.62199 L49.6895213,34.6427737 L48.5040789,32.6771145 L52.6958136,31.3457613"/>
        <polyline fill="#AAA" points="55.091 63.272 35.552 63.272 35.552 61.085 55.103 61.085 55.091 63.272"/>
        <path fill="#CFCFCF" d="M44.460606,61.1124912 C44.1187893,61.1124912 43.8401876,61.3930182 43.8401876,61.7379283 L43.8401876,62.6189273 C43.8401876,62.9638374 44.1187893,63.2443644 44.460606,63.2443644 L46.2501743,63.2443644 C46.5923169,63.2443644 46.8705928,62.9638374 46.8705928,62.6189273 L46.8705928,61.7379283 C46.8705928,61.3930182 46.5923169,61.1124912 46.2501743,61.1124912 L44.460606,61.1124912 Z M46.2501743,63.8507492 L44.460606,63.8507492 C43.7867482,63.8507492 43.2386684,63.298236 43.2386684,62.6189273 L43.2386684,61.7379283 C43.2386684,61.0586196 43.7867482,60.5061064 44.460606,60.5061064 L46.2501743,60.5061064 C46.9240322,60.5061064 47.4721119,61.0586196 47.4721119,61.7379283 L47.4721119,62.6189273 C47.4721119,63.298236 46.9240322,63.8507492 46.2501743,63.8507492 L46.2501743,63.8507492 Z"/>
        <path fill="#FFEBEB" d="M34.3120071,66.6997069 C33.3924584,66.6997069 32.52863,66.1287985 32.1936562,65.2073957 L31.7853661,64.0833172 C31.5354391,63.379372 31.1932966,62.4152661 30.8032541,61.2284467 C30.3043777,59.7252955 29.886638,58.3538672 29.5285288,57.0425517 C29.0993844,55.4401977 28.6663297,53.7301005 28.4675612,51.8666003 C28.4023912,51.3916098 28.4020653,50.944869 28.4017395,50.5490436 L28.4004361,50.2806707 C28.3994585,50.2041335 28.4023912,50.1279247 28.409234,50.0520445 L28.5210006,48.7903304 C28.5236074,48.7604382 28.5268659,48.730546 28.5304502,48.7006538 C28.5675971,48.4112577 28.6106093,48.1244896 28.6539474,47.8396924 L28.7139038,47.4363118 L28.7230276,47.3781698 C28.7719051,47.0914016 28.8292547,46.8092323 28.8862784,46.5296908 C28.9126723,46.3996104 28.9390662,46.2705155 28.9641566,46.1417491 L28.9755614,46.0868919 C29.2916359,44.647467 29.7338144,43.1544988 30.2893886,41.6497052 C30.7915235,40.2963435 31.2483652,39.2737671 31.5432595,38.6535858 C31.8655252,37.9686929 32.0727658,37.5662977 32.0812379,37.5495449 C32.656689,36.4356494 34.0193938,36.0027051 35.1240254,36.5828111 C36.2289828,37.1629171 36.6584531,38.5359879 36.0833278,39.6498834 C36.0732265,39.6692641 35.8956382,40.0161451 35.6157331,40.6113614 C35.3560306,41.1569764 34.9591453,42.0468446 34.516641,43.2395767 C34.0379673,44.5361103 33.6573744,45.8168766 33.3862672,47.0444281 C33.3601992,47.1774649 33.3331537,47.3114871 33.3054564,47.4458378 C33.2598374,47.6708506 33.212915,47.8981628 33.1731613,48.1284314 L33.1141825,48.5235999 C33.078339,48.7607667 33.0421696,48.9999044 33.0105622,49.2406845 L32.9128072,50.3463678 C32.913133,50.4123935 32.913133,50.4787476 32.9134589,50.5447733 C32.9137847,50.8118323 32.9137847,51.0874319 32.9382235,51.2539742 C32.9427854,51.2848519 32.9466956,51.3163865 32.9499541,51.3475927 C33.1119015,52.8967319 33.4830447,54.3591508 33.8815593,55.8458778 C34.2149038,57.0671881 34.6091824,58.3610938 35.0839458,59.7916497 C35.4593251,60.9334665 35.7910404,61.8686657 36.0334728,62.5509307 L36.4297064,63.6421607 C36.858525,64.8214249 36.2579835,66.1278131 35.0881819,66.5601004 C34.8320638,66.6547043 34.5697545,66.6997069 34.3120071,66.6997069"/>
        <path fill="#FFEBEB" d="M36.623913,63.3199161 C36.3159848,63.3199161 36.0269558,63.1274234 35.9164926,62.8183182 C35.7864785,62.4546844 35.4342346,62.127184 34.8695365,61.8450147 C34.4087846,61.6170455 33.984202,61.5198137 33.9796401,61.5188282 C33.5752602,61.4271807 33.319468,61.0231431 33.4090767,60.6151637 C33.4983596,60.2071843 33.8981776,59.9493229 34.3025575,60.0380141 C34.3266704,60.0432698 34.9008181,60.1713793 35.5345964,60.4854118 C36.4613139,60.9479198 37.065114,61.5595605 37.3313334,62.3045664 C37.4721006,62.6980924 37.2697478,63.1326792 36.8790536,63.274585 C36.7946584,63.3051342 36.708634,63.3199161 36.623913,63.3199161"/>
        <polyline fill="#FDDADA" points="40.345 37.698 35.148 47.438 27.881 42.836 33.04 33.155 40.345 37.698"/>
        <g transform="translate(40.33 39.681)">
          <path fill="#AAA" d="M6.88571684,15.0737331 L2.15147811,15.0737331 C1.1514806,15.0737331 0.341200215,14.2401894 0.341200215,13.2123134 L0.341200215,2.5612695 C0.341200215,1.53339351 1.1514806,0.699849736 2.15147811,0.699849736 L6.88571684,0.699849736 C7.88571435,0.699849736 8.69599474,1.53339351 8.69599474,2.5612695 L8.69599474,13.2123134 C8.69599474,14.2401894 7.88571435,15.0737331 6.88571684,15.0737331"/>
          <path fill="#FFF" d="M5.35422175,2.77570506 C5.35422175,3.2503671 4.98021834,3.63493642 4.51859748,3.63493642 C4.05697661,3.63493642 3.6829732,3.2503671 3.6829732,2.77570506 C3.6829732,2.3014153 4.05697661,1.91684598 4.51859748,1.91684598 C4.98021834,1.91684598 5.35422175,2.3014153 5.35422175,2.77570506"/>
        </g>
        <path fill="#FFEBEB" d="M58.1968136,54.2737445 L58.1684647,54.273416 L56.9084026,54.2556778 C56.8702782,54.2550208 56.8318279,54.2533784 56.7937034,54.2507505 C56.5900472,54.2376111 56.3854134,54.2175735 56.1807796,54.1978643 L55.7438147,54.1564751 C55.4798762,54.1321671 55.1813975,54.1042458 54.8542441,54.0431475 L54.1367224,53.9219362 C54.1054408,53.9163519 54.0741592,53.9104392 54.0432034,53.904198 L53.8258615,53.8578815 C53.4045374,53.7691903 52.9688759,53.6768858 52.5175736,53.554689 C50.6123286,53.0576899 48.6670039,52.3360066 46.7565453,51.4149323 C45.6323627,50.8729306 45.1569475,49.5149702 45.6946,48.3820225 C46.2319267,47.2490748 47.5786649,46.769814 48.7028474,47.3114871 C50.3523002,48.1067514 52.0229333,48.7275896 53.66815,49.1569206 C54.018113,49.2515245 54.374267,49.3267478 54.7509497,49.4062413 L54.9291896,49.4440172 L55.6219468,49.5612867 L55.6698467,49.5698273 C55.7939956,49.5934783 55.9699546,49.6099026 56.1560149,49.6269838 L56.3094903,49.6414372 C56.3997508,49.6496494 56.5089105,49.6601609 56.6180703,49.6710009 C56.7575341,49.6844689 56.8969979,49.6982653 57.0361359,49.7087768 L57.146599,49.7100907 L57.1459473,49.7005647 L57.1420371,49.6545766 C57.1221603,49.3602533 57.0850134,49.0455639 57.0462372,48.7118223 L57.0270121,48.5482363 L56.9419652,47.9655024 C56.9276278,47.8594015 56.9113353,47.7759661 56.8960203,47.6925307 L56.8621319,47.5020089 C56.6327335,46.2097456 56.2896135,44.9844934 55.8445023,43.8715834 C55.3785368,42.7064441 55.9376954,41.3816607 57.0931596,40.911926 C58.2486238,40.4428482 59.5631028,41.0058729 60.0290683,42.1706837 C60.5898562,43.5736468 61.0193265,45.1014344 61.305097,46.712329 L61.3331201,46.8677028 C61.3608173,47.0197917 61.3878629,47.1722091 61.4087173,47.3249551 L61.4957192,47.9191859 L61.5045172,47.987511 L61.5270008,48.1790182 C61.5696872,48.544623 61.6136769,48.9223817 61.6417,49.3182071 C61.683083,49.7945116 61.6983979,50.2517639 61.7117578,50.65613 L61.7186006,50.9353429 C61.7283761,51.2838664 61.7391292,51.6787064 61.715668,52.0857003 C61.6475653,53.2560954 60.7081397,54.182754 59.5458327,54.2257856 L58.278602,54.2721021 L58.1968136,54.2737445"/>
        <path fill="#FFEBEB" d="M50.5103375,50.168657 C50.1150814,50.168657 49.783692,49.8572524 49.7605566,49.4545288 C49.7602308,49.4502584 49.7341627,49.030782 49.6220703,48.5889686 C49.4565385,47.9159011 49.2587476,47.7943613 49.220949,47.7769516 C48.8432888,47.6028541 48.6771053,47.153157 48.8498058,46.7721134 C49.0225063,46.3913983 49.4682691,46.2238705 49.846581,46.3982965 C50.4435382,46.6735676 50.8469406,47.2691125 51.080575,48.218765 C51.2288368,48.8028129 51.2604442,49.345143 51.2617476,49.36748 C51.2852088,49.7856425 50.9681568,50.1436921 50.5533497,50.167343 L50.5103375,50.168657"/>
        <polyline fill="#FDDADA" points="62.305 43.8 55.032 47.541 54.257 45.698 52.786 42.208 52.62 41.814 50.671 37.187 58.08 33.872 62.305 43.8"/>
        <path fill="#FFEBEB" d="M45.3270412,3.78481386 C41.1744086,3.78481386 37.8077262,7.17840107 37.8077262,11.3652816 L37.8077262,19.2486133 C37.8077262,23.4354938 41.1744086,26.829081 45.3270412,26.829081 C49.4803256,26.829081 52.8466821,23.4354938 52.8466821,19.2486133 L52.8466821,11.3652816 C52.8466821,7.17840107 49.4803256,3.78481386 45.3270412,3.78481386"/>
        <path fill="#FEBBBA" d="M45.2714578,23.0672718 C45.1942662,23.0672718 45.1201274,23.0637612 45.0499135,23.0584953 C44.0895975,22.9838952 43.304598,22.4419476 42.9814398,21.9688954 C42.9168954,21.8741094 42.9408815,21.7446563 43.0350815,21.6797104 C43.1292814,21.6152033 43.2579341,21.6388998 43.3224785,21.7332469 C43.5915589,22.126872 44.257064,22.580616 45.0817496,22.6438067 C45.6425882,22.6859338 46.4777404,22.5573583 47.2884704,21.6915586 C47.3669704,21.6077433 47.4978036,21.6042327 47.5806647,21.6823433 C47.6635258,21.7613317 47.6674508,21.89254 47.5893869,21.9763554 C46.7660097,22.854881 45.9081797,23.0672718 45.2714578,23.0672718 Z"/>
        <path fill="#AAA" d="M53.4612353,5.11518151 C53.9760783,4.31663243 54.3449405,3.36172409 54.3006249,2.28429054 C53.7632982,2.40221695 53.2976586,2.43440856 52.8857841,2.4150279 C53.1927349,2.01066183 53.2833212,1.57870295 53.3093892,1.36682958 C53.3165579,1.30868759 53.2562756,1.2689408 53.2038138,1.29423421 C51.6423405,2.05040862 49.7501294,1.12637795 49.7501294,1.12637795 L49.7504552,1.12703492 C48.5089667,0.508167595 47.2140387,0.180995698 45.3019508,0.232567975 C38.9807862,0.227312202 37.1423404,5.11518151 37.1423404,5.11518151 C35.7265221,8.47887652 36.1217782,13.1000153 37.7911078,17.4038368 C37.8220636,17.4770891 37.8546486,17.5486991 37.8869077,17.6206375 C37.8175017,17.2776982 37.8077262,13.8722855 37.8077262,13.8722855 C39.0827773,12.1625167 39.4913932,8.68976443 39.4913932,8.68976443 C39.4913932,8.68976443 42.1627117,9.26822799 45.3019508,9.40225022 C48.440864,9.26822799 51.1121825,8.68976443 51.1121825,8.68976443 C51.1121825,8.68976443 51.5452372,12.1644876 52.8202883,13.8742564 C52.8202883,13.8742564 52.786074,17.2776982 52.7169938,17.6206375 C52.749253,17.5486991 52.781838,17.4770891 52.8127937,17.4038368 C54.4817975,13.1000153 54.8770536,8.47887652 53.4612353,5.11518151"/>
        <path fill="#AAA" d="M42.2941081 16.3606967C42.3067817 16.7223616 42.0258215 17.0257863 41.6664995 17.0383691 41.3073561 17.0509518 41.0060469 16.7680191 40.9935518 16.4063542 40.9810568 16.0446893 41.2620169 15.7412646 41.6211604 15.7285021 41.9803038 15.7159193 42.2816131 15.998852 42.2941081 16.3606967M49.4516426 16.3606967C49.464316 16.7223616 49.1831797 17.0257863 48.8240393 17.0383691 48.4648988 17.0509518 48.1635921 16.7680191 48.1510971 16.4063542 48.1384237 16.0446893 48.41956 15.7412646 48.7787005 15.7285021 49.1378409 15.7159193 49.4391477 15.998852 49.4516426 16.3606967"/>
        <path fill="#FFEBEB" d="M37.8077262,14.5187457 C36.9771345,14.5187457 36.3036025,15.1973974 36.3036025,16.0347078 L36.3036025,17.6114399 C36.3036025,18.4487503 36.9771345,19.127402 37.8077262,19.127402 C38.6383179,19.127402 39.311524,18.4487503 39.311524,17.6114399 L39.311524,16.0347078 C39.311524,15.1973974 38.6383179,14.5187457 37.8077262,14.5187457"/>
        <path fill="#F2C9B2" d="M52.8466821,14.5187457 C52.0160904,14.5187457 51.3428843,15.1973974 51.3428843,16.0347078 L51.3428843,17.6114399 C51.3428843,18.4487503 52.0160904,19.127402 52.8466821,19.127402 C53.6772738,19.127402 54.3508058,18.4487503 54.3508058,17.6114399 L54.3508058,16.0347078 C54.3508058,15.1973974 53.6772738,14.5187457 52.8466821,14.5187457"/>
        <path fill="#FFEBEB" d="M52.8466821,19.127402 L52.8466821,19.127402 C52.0160904,19.127402 51.3428843,18.4487503 51.3428843,17.6114399 L51.3428843,16.0347078 C51.3428843,15.2088944 51.997517,14.5374694 52.8124679,14.5190742 C52.8238726,14.5187457 52.8352774,14.5187457 52.8466821,14.5187457 L52.853525,14.5194026 C53.2230389,14.5210451 53.5567093,14.6613085 53.8177152,14.8856644 C54.1360707,15.1592931 54.343963,15.5590603 54.35048,16.0120423 L54.35048,16.0133562 C54.3508058,16.0163126 54.3508058,16.019269 54.3508058,16.0222254 L54.3508058,16.0241963 L54.3508058,16.0347078 L54.3508058,17.6114399 C54.3508058,18.4487503 53.6772738,19.127402 52.8466821,19.127402"/>
      </g>
      <g transform="translate(3.948)">
        <g transform="translate(58.125 39.817)">
          <path fill="#FEBBBA" d="M6.43695714,1.47639447e-13 C10.0159054,1.47639447e-13 12.9166067,2.90974325 12.9166067,6.50076687 C12.9166067,10.0935907 10.0159223,13.0015337 6.43695714,13.0015337 C2.85684339,13.0015337 0,10.0971911 0,6.50076687 C0,2.90604282 2.85686028,1.47639447e-13 6.43695714,1.47639447e-13 Z"/>
          <path fill="#FFF" d="M4.32777118,2.60030675 L4.32777118,2.6108874 L4.30553555,2.6108874 L4.30553555,3.69434854 L5.28017688,3.69434854 C6.16554647,3.69434854 6.61246105,4.1728909 6.77363855,4.76722904 L4.32777118,4.76722904 L4.32777118,5.85069018 L6.77363855,5.85069018 C6.61298284,6.44545109 6.16662609,6.92568679 5.28017688,6.92568679 L4.97629686,6.92568679 L4.97259029,6.92145446 L4.96888467,6.92568679 L4.30553555,6.92568679 L4.30553555,8.00914848 L4.58532807,8.00914848 L7.47960422,11.2679959 L8.14665896,10.4977222 L5.87496723,7.93719907 C6.90402125,7.69077342 7.56472729,6.81608408 7.74642612,5.85069018 L9.04162466,5.85069018 L9.04162466,4.76722904 L7.74642612,4.76722904 C7.67282691,4.37747144 7.51326695,4.00889443 7.29060609,3.68376789 L9.04162466,3.68376789 L9.04162466,2.60030675 L4.32777118,2.60030675 Z"/>
        </g>
        <g transform="translate(57.317 1.625)">
          <ellipse cx="15.634" cy="15.752" fill="#F1F1F1" rx="15.634" ry="15.752"/>
          <rect width="3.474" height="2.45" x="13.897" y="24.471" fill="#FFEBEB"/>
          <path fill="#FEBBBA" d="M13.5464774,26.4420747 C13.5464774,26.4420747 11.5365405,26.4205075 10.1240881,27.1774889 C8.71163573,27.9344702 7.52800843,29.5981313 7.52800843,29.5981313 C7.52800843,29.5981313 10.4613249,31.6749061 15.40155,31.5283071 C20.3417751,31.3817081 22.9350296,29.2840096 22.9350296,29.2840096 C22.9350296,29.2840096 21.7187761,27.7228255 20.6866029,27.1774889 C19.6544297,26.6321523 19.2256979,26.4538736 17.108173,26.4538736 L13.5464774,26.4420747 Z"/>
          <g transform="translate(5.667 6.655)">
            <path fill="#AAA" d="M1.29144136,10.0689683 C1.31923477,10.7143349 2.0053847,11.3967309 2.65679286,11.1639757 C2.41881175,13.0524667 2.62726236,15.4364442 3.96308336,16.8770579 C4.24970295,17.1856348 4.56759013,17.4413129 4.90632237,17.661725 C3.36899912,18.0531769 1.8855256,18.0937328 0.30651222,17.9509057 C0.438530941,16.7342308 0.580972192,15.5157926 0.695620028,14.2955911 C0.817216218,13.0101476 0.733835973,11.777603 0.662615348,10.4939228 C0.534070804,8.1152352 0.997873414,5.62545988 2.47613566,3.71580925 C3.8067454,1.998358 5.82003089,0.96682927 7.91322244,0.587720421 C10.2530806,0.16276585 12.3862251,0.58243053 14.4203557,1.79205225 C14.46552,1.82026501 14.5141585,1.80263204 14.5419519,1.76912939 C14.5558486,1.77441928 14.5697453,1.77970918 14.5888533,1.77794588 C16.3867398,1.67743795 17.9014809,2.56613963 18.4851426,4.33648979 C18.9367856,5.70833483 18.8429828,7.21419045 18.8308232,8.63717111 C18.8186636,10.3087766 18.7891331,11.9821455 18.7839218,13.653751 C18.7804476,15.0167796 18.8516683,16.3533587 19.4648605,17.5947197 C19.4770201,17.6211692 19.494391,17.6388022 19.5117619,17.6529085 C18.0282883,18.374097 16.5187585,17.8556877 15.0387592,17.3619645 C16.5326552,15.9619067 16.9530306,13.5461899 16.9096034,11.5801138 C16.9096034,11.5501377 16.902655,11.5254516 16.8904954,11.5025287 C17.5662228,11.5536643 18.1620442,11.0017524 18.1273024,10.2823272 C18.0890864,9.50118663 17.295237,8.94045819 16.5639228,9.20495273 C16.5569745,9.20847933 16.5517632,9.21200592 16.5448148,9.21553252 C16.529181,9.18731976 16.5065989,9.16263361 16.4718571,9.14852723 C15.8899325,8.90166565 15.4018106,8.48552757 15.0665526,7.9406688 C14.7660363,7.45047224 14.7000269,6.93206293 14.5297923,6.39778395 C14.5297923,6.39425736 14.5263181,6.39425736 14.5263181,6.39073076 C14.4967876,6.28140635 14.3543463,6.19853139 14.2449098,6.30080262 C11.0973055,9.21200592 6.80669711,9.32309363 2.79228576,8.94045819 C2.77838905,8.92811511 2.76101817,8.91577203 2.73843602,8.90871884 C1.99496217,8.63717111 1.25843668,9.30722396 1.29144136,10.0689683"/>
            <path fill="#FFEBEB" d="M1.62843651,10.1571331 C1.5103145,9.49766003 2.06965697,9.09033843 2.6654783,9.17850328 C2.73148766,9.18731976 2.78186323,9.15910701 2.81139373,9.11855118 C6.7928004,9.73394183 11.2067421,9.47121058 14.3543463,6.65169871 C14.2553323,7.85426725 15.3948623,9.01804325 16.391951,9.44299782 C16.4336412,9.46063079 16.4683829,9.4571042 16.4979134,9.44123453 C16.529181,9.47826376 16.5760824,9.50118663 16.6403547,9.48708025 C17.2274906,9.35306968 17.8354715,9.67222643 17.8476312,10.3422793 C17.8597908,10.9717763 17.2969741,11.3385421 16.7272091,11.2909331 C16.6490401,11.2856432 16.6177725,11.3790979 16.6490401,11.4355234 C16.6021387,11.4619729 16.5656599,11.5078186 16.5656599,11.5801138 C16.5917162,13.4068894 16.252984,15.7027021 14.8893696,17.0375179 C13.4701683,18.4269959 11.4221411,18.5927458 9.54955974,18.5098709 C7.72561689,18.4287592 5.76618114,18.1501583 4.36782496,16.8417919 C2.81834208,15.3905985 2.82702753,13.0436502 2.84787259,11.0634677 C2.84787259,11.0105688 2.80444538,10.9788295 2.75928108,10.9753029 C2.75059564,10.9664864 2.74191019,10.9576699 2.72801349,10.9541433 C2.23641746,10.8448189 1.73787308,10.7601807 1.62843651,10.1571331 Z"/>
            <path fill="#AAA" d="M17.2709178 10.292907C17.1215282 10.3845984 16.9912466 10.500976 16.8644391 10.6244068 16.8210119 10.6667259 16.7272091 10.6244068 16.7532654 10.5591648 16.8296973 10.370492 16.9617161 10.2241384 17.118054 10.1042342 16.9964578 9.99490978 16.843594 9.9261412 16.6629368 9.91379812 16.5500261 9.90674493 16.5535003 9.7498115 16.6629368 9.73923172 17.0833122 9.69691259 17.5245327 10.0090162 17.6113871 10.4339707 17.6443918 10.5979573 17.4098849 10.6667259 17.3629835 10.5045026 17.3404013 10.4269175 17.3091337 10.358149 17.2709178 10.292907M14.1476328 11.8481349C14.4603087 11.75997 14.6166467 11.4037841 14.4950505 11.1040236 14.4342524 10.95238 14.6739706 10.887138 14.7347687 11.0370183 14.9032663 11.4496298 14.6288063 11.9539327 14.1997455 12.0403343 14.0764122 12.0650204 14.0260366 11.8834008 14.1476328 11.8481349M13.602187 11.1251831C13.6265063 11.1163667 13.6525626 11.1110768 13.6768818 11.1093135 13.7324687 11.0881539 13.7967409 11.0846273 13.8592761 11.1128401 13.8783841 11.1216565 13.8870695 11.1428161 13.8888066 11.1639757 13.9826094 11.2292177 14.0347221 11.3455953 13.9860836 11.4796058 13.895755 11.7229408 13.5448631 11.7546802 13.4753796 11.4778425 13.4719054 11.4654995 13.4719054 11.4531564 13.4719054 11.4408133 13.4649571 11.4355234 13.4580087 11.4302335 13.4527974 11.4231803 13.3642059 11.2997495 13.4927505 11.1675023 13.602187 11.1251831M10.8176343 15.0150163C10.8350052 14.5653755 10.2513435 14.6165111 9.97862058 14.6923329 9.94040463 14.7029127 9.90913704 14.687043 9.89176616 14.6605936 9.8257568 14.6588303 9.76669579 14.6165111 9.77538123 14.5301096 9.8848178 13.2746421 9.69721225 12.1249725 9.39843304 10.9100609 9.38106216 10.839529 9.48181329 10.79192 9.51655506 10.8589253 10.0620008 11.9627492 10.1905454 13.2481927 10.0515783 14.4648676 10.2652402 14.3731762 10.5049584 14.3502533 10.7203573 14.4560511 10.9183854 14.5547958 11.067775 14.7628648 11.0781976 14.9903301 11.1025168 15.5704548 10.4215781 15.6092473 10.0220478 15.5016862 9.8396535 15.4523139 9.91782248 15.1790029 10.0984797 15.2177954 10.3104045 15.2618778 10.8037376 15.369439 10.8176343 15.0150163"/>
            <path fill="#9B9B9B" d="M12.6068354,16.6213798 C11.2814369,17.4413129 8.90509993,17.8415813 7.73430233,16.5296884 C7.67697841,16.4644464 7.76383284,16.3780448 7.8298422,16.4344703 C9.12571016,17.5294777 11.1337844,17.1768184 12.4921875,16.4221272 C12.6207321,16.3515954 12.7301686,16.5437947 12.6068354,16.6213798"/>
            <path fill="#AAA" d="M5.88256607 11.326199C6.15702604 11.2750634 6.37763627 11.6136164 6.24214337 11.8569514 6.11012465 12.0914699 5.74012482 12.0738369 5.62026572 11.8357918 5.56815306 11.7335206 5.58552395 11.6224329 5.63937369 11.5325047 5.68627508 11.4319968 5.77139241 11.3473586 5.88256607 11.326199M4.87852896 11.6312494C4.90805946 11.7564435 4.98622844 11.8657679 5.10608754 11.9151402 5.22247247 11.9627492 5.17904526 12.1249725 5.05397489 12.103813 4.67007835 12.0403343 4.4216747 11.4143638 4.76040695 11.1463427 4.86289516 11.065231 5.01402186 11.1639757 4.94627541 11.2909331 4.88547731 11.4037841 4.84899846 11.5007654 4.87852896 11.6312494M1.99322508 9.66869984C2.10787292 9.50471322 2.38754416 9.35130638 2.57514971 9.47650047 2.64115907 9.51881959 2.63073653 9.61932752 2.55430464 9.64401368 2.44660516 9.67751632 2.34064277 9.67575303 2.25205126 9.73570512 2.5004549 9.73746842 2.71759096 9.86089921 2.85829512 10.0654417 2.94167536 10.1835826 2.73669893 10.3087766 2.66374122 10.180056 2.57514971 10.0231225 2.42228592 9.9208513 2.2451029 9.90321834 2.19993861 9.89792844 2.17561937 9.8661891 2.16867101 9.83268646 2.09918748 9.94730076 2.10266165 10.0901278 2.14608886 10.2153219 2.17214519 10.2876171 2.06444571 10.3546224 2.01580723 10.292907 1.87336598 10.1130507 1.85946927 9.85913591 1.99322508 9.66869984"/>
            <path fill="#AAA" d="M8.2641143,0.19803179 C10.3051932,-0.0876223201 12.9073517,0.125736614 14.5037359,1.60866937 C14.5158955,1.5892731 14.5332664,1.57516673 14.5593228,1.56987684 C15.782233,1.31772537 17.0902606,1.76912939 17.9327485,2.70367679 C18.7734993,3.63998748 19.0496963,4.90603471 19.1330766,6.1350527 C19.2564099,7.94772199 19.1434991,9.78860403 19.1296024,11.6030366 C19.1139686,13.5303202 18.8881471,15.6409867 19.7514801,17.4236799 C19.7757993,17.4730522 19.7740622,17.5206613 19.7601655,17.5612171 C19.8956584,17.5753235 19.9807757,17.7781026 19.829649,17.8627409 C18.2228423,18.760259 16.4214816,18.2647726 14.8546278,17.5224246 C13.3503092,18.7902351 11.2692773,18.9277722 9.3897476,18.8272643 C7.98618015,18.7514426 6.48533575,18.5416102 5.23636917,17.857451 C5.22073538,17.8733207 5.20162741,17.887427 5.17557108,17.8944802 C3.59308352,18.356464 1.89073687,18.4887113 0.278718805,18.100786 C0.212709445,18.2277433 -0.00963787332,18.2101104 0.00773301095,18.0443605 C0.1744935,16.4609198 0.410737526,14.865136 0.480221063,13.2711156 C0.542756246,11.8393184 0.280455894,10.4163378 0.356887785,8.98454061 C0.476746886,6.74868005 1.21153529,4.51987267 2.76622943,2.88882297 C4.211487,1.37062428 6.2230354,0.4836859 8.2641143,0.19803179 Z M9.54955974,18.5098709 C11.4221411,18.5927458 13.4701683,18.4269959 14.8893696,17.0375179 C16.252984,15.7027021 16.5917162,13.4068894 16.5656599,11.5801138 C16.5656599,11.5078186 16.6021387,11.4619729 16.6490401,11.4355234 C16.6177725,11.3790979 16.6490401,11.2856432 16.7272091,11.2909331 C17.2969741,11.3385421 17.8597908,10.9717763 17.8476312,10.3422793 C17.8354715,9.67222643 17.2274906,9.35306968 16.6403547,9.48708025 C16.5760824,9.50118663 16.529181,9.47826376 16.4979134,9.44123453 C16.4683829,9.4571042 16.4336412,9.46063079 16.391951,9.44299782 C15.3948623,9.01804325 14.2553323,7.85426725 14.3543463,6.65169871 C11.2067421,9.47121058 6.7928004,9.73394183 2.81139373,9.11855118 C2.78186323,9.15910701 2.73148766,9.18731976 2.6654783,9.17850328 C2.06965697,9.09033843 1.5103145,9.49766003 1.62843651,10.1571331 C1.73787308,10.7601807 2.23641746,10.8448189 2.72801349,10.9541433 C2.74191019,10.9576699 2.75059564,10.9664864 2.75928108,10.9753029 C2.80444538,10.9788295 2.84787259,11.0105688 2.84787259,11.0634677 C2.82702753,13.0436502 2.81834208,15.3905985 4.36782496,16.8417919 C5.76618114,18.1501583 7.72561689,18.4287592 9.54955974,18.5098709 Z M3.96308336,16.8770579 C2.62726236,15.4364442 2.41881175,13.0524667 2.65679286,11.1639757 C2.0053847,11.3967309 1.31923477,10.7143349 1.29144136,10.0689683 C1.25843668,9.30722396 1.99496217,8.63717111 2.73843602,8.90871884 C2.76101817,8.91577203 2.77838905,8.92811511 2.79228576,8.94045819 C6.80669711,9.32309363 11.0973055,9.21200592 14.2449098,6.30080262 C14.3543463,6.19853139 14.4967876,6.28140635 14.5263181,6.39073076 C14.5263181,6.39425736 14.5297923,6.39425736 14.5297923,6.39778395 C14.7000269,6.93206293 14.7660363,7.45047224 15.0665526,7.9406688 C15.4018106,8.48552757 15.8899325,8.90166565 16.4718571,9.14852723 C16.5065989,9.16263361 16.529181,9.18731976 16.5448148,9.21553252 C16.5517632,9.21200592 16.5569745,9.20847933 16.5639228,9.20495273 C17.295237,8.94045819 18.0890864,9.50118663 18.1273024,10.2823272 C18.1620442,11.0017524 17.5662228,11.5536643 16.8904954,11.5025287 C16.902655,11.5254516 16.9096034,11.5501377 16.9096034,11.5801138 C16.9530306,13.5461899 16.5326552,15.9619067 15.0387592,17.3619645 C16.5187585,17.8556877 18.0282883,18.374097 19.5117619,17.6529085 C19.494391,17.6388022 19.4770201,17.6211692 19.4648605,17.5947197 C18.8516683,16.3533587 18.7804476,15.0167796 18.7839218,13.653751 C18.7891331,11.9821455 18.8186636,10.3087766 18.8308232,8.63717111 C18.8429828,7.21419045 18.9367856,5.70833483 18.4851426,4.33648979 C17.9014809,2.56613963 16.3867398,1.67743795 14.5888533,1.77794588 C14.5697453,1.77970918 14.5558486,1.77441928 14.5419519,1.76912939 C14.5141585,1.80263204 14.46552,1.82026501 14.4203557,1.79205225 C12.3862251,0.58243053 10.2530806,0.16276585 7.91322244,0.587720421 C5.82003089,0.96682927 3.8067454,1.998358 2.47613566,3.71580925 C0.997873414,5.62545988 0.534070804,8.1152352 0.662615348,10.4939228 C0.733835973,11.777603 0.817216218,13.0101476 0.695620028,14.2955911 C0.580972192,15.5157926 0.438530941,16.7342308 0.30651222,17.9509057 C1.8855256,18.0937328 3.36899912,18.0531769 4.90632237,17.661725 C4.56759013,17.4413129 4.24970295,17.1856348 3.96308336,16.8770579 L3.96308336,16.8770579 Z"/>
          </g>
        </g>
        <g transform="translate(7.266 47.13)">
          <path fill="#FEBBBA" d="M7.44525616,0 C11.5848187,0 14.9398921,3.359339 14.9398921,7.50522564 C14.9398921,11.6531907 11.5848382,15.0104513 7.44525616,15.0104513 C3.30434558,15.0104513 -5.09445735e-13,11.6573474 -5.09445735e-13,7.50522564 C-5.09445735e-13,3.35506679 3.30436512,0 7.44525616,0 Z"/>
          <path fill="#FFF" d="M5.00568271,3.00209026 L5.00568271,3.01430576 L4.97996404,3.01430576 L4.97996404,4.2651767 L6.10727531,4.2651767 C7.13133113,4.2651767 7.64825138,4.8176605 7.83467608,5.50383214 L5.00568271,5.50383214 L5.00568271,6.75470308 L7.83467608,6.75470308 C7.6488549,7.4413628 7.13257987,7.99580159 6.10727531,7.99580159 L5.75579486,7.99580159 L5.75150769,7.99091531 L5.74722161,7.99580159 L4.97996404,7.99580159 L4.97996404,9.24667315 L5.30358387,9.24667315 L8.65122575,13.0090578 L9.4227694,12.1197661 L6.79523492,9.16360657 C7.98548221,8.87910473 8.74968268,7.86926373 8.95984321,6.75470308 L10.4579245,6.75470308 L10.4579245,5.50383214 L8.95984321,5.50383214 C8.87471527,5.05385158 8.69016148,4.6283243 8.43262254,4.2529612 L10.4579245,4.2529612 L10.4579245,3.00209026 L5.00568271,3.00209026 Z"/>
        </g>
        <path fill="#F1F1F1" fill-rule="nonzero" d="M1.37472939,0.183792143 C0.687443734,0.183792143 0.161872348,0.700000454 0.161872348,1.37504209 L0.161872348,29.6873927 C0.161872348,30.3624343 0.687443734,30.8786426 1.37472939,30.8786426 L22.8439081,30.8786426 C23.5311937,30.8786426 24.0567651,30.3624343 24.0567651,29.6873927 L24.0567651,1.37504209 C24.0567651,0.700000454 23.5311937,0.183792143 22.8439081,0.183792143 L1.37472939,0.183792143 Z"/>
        <polygon fill="#FEBBBA" points="3.927 5.256 21.12 5.256 21.12 6.46 3.927 6.46"/>
        <path fill="#FEBBBA" d="M3.43772327,25.0963137 L3.43772327,18.5403762 L5.66585608,18.5403762 C6.32440625,18.5403762 6.8256942,18.6644062 7.16973498,18.91247 C7.51377577,19.1605337 7.68579358,19.5222879 7.68579358,19.9977434 C7.68579358,20.7862317 7.16161913,21.3443668 6.11325452,21.6721653 C7.33880752,21.9704324 7.95157483,22.5713873 7.95157483,23.4750481 C7.95157483,23.9977538 7.77217428,24.3986365 7.4133678,24.6777082 C7.05456132,24.95678 6.53998443,25.0963137 5.8696217,25.0963137 L3.43772327,25.0963137 Z M4.72233264,21.2690637 L5.04569983,21.2690637 C5.429608,21.2690637 5.73451511,21.1745647 5.9604303,20.9855637 C6.18634549,20.7965628 6.29930139,20.5396435 6.29930139,20.2147981 C6.29930139,19.9135778 6.20849371,19.709076 6.02687561,19.6012864 C5.84525751,19.4934968 5.50196017,19.4396028 4.99697327,19.4396028 L4.72233264,19.4396028 L4.72233264,21.2690637 Z M4.72233264,24.1660793 L5.01469202,24.1660793 C5.58760113,24.1660793 5.98257765,24.1048026 6.19963342,23.9822473 C6.4166892,23.859692 6.52521545,23.635995 6.52521545,23.3111497 C6.52521545,22.9774449 6.3797755,22.6998539 6.08889123,22.4783684 C5.79800697,22.2568829 5.43108486,22.1461418 4.98811389,22.1461418 L4.72233264,22.1461418 L4.72233264,24.1660793 Z M9.15202014,25.0963137 L9.15202014,18.5403762 L10.5163639,18.5403762 L10.5163639,25.0963137 L9.15202014,25.0963137 Z M12.159778,25.0963137 L12.159778,18.5403762 L13.5241217,18.5403762 L13.5241217,24.1660793 L16.4787233,24.1660793 L16.4787233,25.0963137 L12.159778,25.0963137 Z M17.4355358,25.0963137 L17.4355358,18.5403762 L18.7998795,18.5403762 L18.7998795,24.1660793 L21.7544811,24.1660793 L21.7544811,25.0963137 L17.4355358,25.0963137 Z"/>
        <polygon fill="#FEBBBA" points="3.927 11.169 16.277 11.169 16.277 12.485 3.927 12.485"/>
      </g>
    </g>
    <g transform="translate(714 634)">
      <g transform="translate(0 57.487)">
        <polygon fill="#FFEBEB" points=".339 64.472 51.963 64.472 51.963 .063 .339 .063"/>
        <polygon fill="#FFEBEB" points=".339 75.647 7.686 75.647 7.686 58.36 .339 58.36"/>
        <polygon fill="#FFEBEB" points="44.616 75.647 51.963 75.647 51.963 58.36 44.616 58.36"/>
        <polygon fill="#FEBBBA" points="4.518 58.023 47.785 58.023 47.785 6.513 4.518 6.513"/>
        <path fill="#FFF" d="M9.98911391 43.4691465L7.95497329 43.4691465 7.56825454 44.6293028 6.33462172 44.6293028 8.43063735 38.9986778 9.50571547 38.9986778 11.6133327 44.6293028 10.3796998 44.6293028 9.98911391 43.4691465zM8.26821547 42.52942L9.67587172 42.52942 8.96817641 40.4218028 8.26821547 42.52942zM16.5594655 42.7537169C16.5156371 43.3595793 16.291987 43.8365276 15.8885084 44.1845762 15.4850299 44.5326248 14.9532969 44.7066465 14.2932936 44.7066465 13.571415 44.7066465 13.0035886 44.4636607 12.5897975 43.9776817 12.1760064 43.4917027 11.9691139 42.8246195 11.9691139 41.9764122L11.9691139 41.6322325C11.9691139 41.0908235 12.0645036 40.6138752 12.2552858 40.2013731 12.446068 39.788871 12.718702 39.4724094 13.0731959 39.2519786 13.4276899 39.0315478 13.8395413 38.921334 14.3087623 38.921334 14.9584531 38.921334 15.4818072 39.0953557 15.8788405 39.4434044 16.2758737 39.791453 16.5053245 40.2800028 16.5671998 40.9090684L15.4070436 40.9090684C15.3786841 40.545551 15.2774937 40.2819403 15.1034694 40.1182286 14.9294451 39.9545168 14.6645454 39.8726622 14.3087623 39.8726622 13.9220417 39.8726622 13.63265 40.011235 13.4405788 40.2883848 13.2485075 40.5655347 13.1498952 40.9954327 13.1447389 41.5780919L13.1447389 42.0034825C13.1447389 42.611923 13.236906 43.0566451 13.4212428 43.3376622 13.6055797 43.6186792 13.8962604 43.7591856 14.2932936 43.7591856 14.6516548 43.7591856 14.9191326 43.677331 15.095735 43.5136192 15.2723375 43.3499074 15.3735278 43.0966092 15.3993092 42.7537169L16.5594655 42.7537169zM21.7414967 42.7537169C21.6976684 43.3595793 21.4740183 43.8365276 21.0705397 44.1845762 20.6670611 44.5326248 20.1353281 44.7066465 19.4753248 44.7066465 18.7534462 44.7066465 18.1856199 44.4636607 17.7718288 43.9776817 17.3580376 43.4917027 17.1511452 42.8246195 17.1511452 41.9764122L17.1511452 41.6322325C17.1511452 41.0908235 17.2465348 40.6138752 17.437317 40.2013731 17.6280992 39.788871 17.9007332 39.4724094 18.2552272 39.2519786 18.6097212 39.0315478 19.0215725 38.921334 19.4907936 38.921334 20.1404843 38.921334 20.6638385 39.0953557 21.0608717 39.4434044 21.457905 39.791453 21.6873558 40.2800028 21.7492311 40.9090684L20.5890748 40.9090684C20.5607153 40.545551 20.4595249 40.2819403 20.2855006 40.1182286 20.1114763 39.9545168 19.8465766 39.8726622 19.4907936 39.8726622 19.1040729 39.8726622 18.8146813 40.011235 18.62261 40.2883848 18.4305387 40.5655347 18.3319264 40.9954327 18.3267702 41.5780919L18.3267702 42.0034825C18.3267702 42.611923 18.4189372 43.0566451 18.6032741 43.3376622 18.7876109 43.6186792 19.0782916 43.7591856 19.4753248 43.7591856 19.833686 43.7591856 20.1011638 43.677331 20.2777663 43.5136192 20.4543687 43.3499074 20.5555591 43.0966092 20.5813405 42.7537169L21.7414967 42.7537169zM25.8909889 42.1891075L23.6634889 42.1891075 23.6634889 43.6973106 26.2777077 43.6973106 26.2777077 44.6293028 22.5033327 44.6293028 22.5033327 38.9986778 26.2699733 38.9986778 26.2699733 39.9384044 23.6634889 39.9384044 23.6634889 41.2803184 25.8909889 41.2803184 25.8909889 42.1891075zM28.1184889 42.6454356L28.1184889 44.6293028 26.9583327 44.6293028 26.9583327 38.9986778 29.1548952 38.9986778C29.5777098 38.9986778 29.9496006 39.0760208 30.2705788 39.230709 30.5915569 39.3853973 30.8384099 39.6051803 31.0111452 39.8900645 31.1838804 40.1749488 31.2702467 40.4991447 31.2702467 40.8626622 31.2702467 41.4143837 31.081401 41.8494379 30.7037038 42.167838 30.3260066 42.486238 29.8032969 42.6454356 29.1355592 42.6454356L28.1184889 42.6454356zM28.1184889 41.705709L29.1548952 41.705709C29.4616936 41.705709 29.6956561 41.6335223 29.8567897 41.4891465 30.0179233 41.3447708 30.0984889 41.1385229 30.0984889 40.8703965 30.0984889 40.5945358 30.0172788 40.3715302 29.8548561 40.2013731 29.6924334 40.031216 29.4681388 39.9435606 29.1819655 39.9384044L28.1184889 39.9384044 28.1184889 41.705709zM36.3053248 39.9384044L34.5805592 39.9384044 34.5805592 44.6293028 33.420403 44.6293028 33.420403 39.9384044 31.7188405 39.9384044 31.7188405 38.9986778 36.3053248 38.9986778 36.3053248 39.9384044zM40.3542702 42.1891075L38.1267702 42.1891075 38.1267702 43.6973106 40.7409889 43.6973106 40.7409889 44.6293028 36.9666139 44.6293028 36.9666139 38.9986778 40.7332545 38.9986778 40.7332545 39.9384044 38.1267702 39.9384044 38.1267702 41.2803184 40.3542702 41.2803184 40.3542702 42.1891075zM41.4216139 44.6293028L41.4216139 38.9986778 43.1541139 38.9986778C43.6491164 38.9986778 44.0919049 39.1101806 44.4824928 39.3331895 44.8730807 39.5561984 45.1779409 39.8733046 45.3970827 40.2845176 45.6162244 40.6957306 45.7257936 41.1630111 45.7257936 41.6863731L45.7257936 41.9454747C45.7257936 42.4688367 45.618158 42.9341836 45.4028834 43.3415294 45.1876089 43.7488751 44.8840377 44.0646923 44.4921608 44.2889903 44.1002838 44.5132883 43.6581398 44.6267247 43.1657155 44.6293028L41.4216139 44.6293028zM42.5817702 39.9384044L42.5817702 43.6973106 43.1425123 43.6973106C43.5962646 43.6973106 43.943019 43.5490699 44.1827858 43.252584 44.4225526 42.9560982 44.5450123 42.5320009 44.5501686 41.9802794L44.5501686 41.6825059C44.5501686 41.1101593 44.431576 40.6763941 44.1943873 40.3811973 43.9571987 40.0860005 43.6104443 39.9384044 43.1541139 39.9384044L42.5817702 39.9384044zM21.089122 18L21.089122 27.389632C21.089122 28.9496829 20.5939586 30.1833448 19.6036168 31.0906548 18.6132751 31.9979647 17.26027 32.4516129 15.544561 32.4516129 13.8553494 32.4516129 12.5139367 32.0110194 11.5202829 31.129819 10.526629 30.2486187 10.0198731 29.0378024 10 27.4973337L10 18 12.9809468 18 12.9809468 27.4092141C12.9809468 28.3426337 13.2078277 29.0231059 13.6615963 29.4506513 14.1153649 29.8781966 14.7430135 30.0919661 15.544561 30.0919661 17.2205239 30.0919661 18.0717413 29.2238336 18.0982387 27.4875426L18.0982387 18 21.089122 18zM27.5997748 27.2329749L27.5997748 32.2557916 24.618828 32.2557916 24.618828 18 30.2627539 18C31.3491488 18 32.3046983 18.1958194 33.129431 18.5874639 33.9541638 18.9791085 34.5884366 19.5355619 35.0322687 20.2568406 35.4761008 20.9781194 35.6980135 21.7989289 35.6980135 22.7192936 35.6980135 24.1161593 35.2127865 25.2176432 34.2423178 26.0237783 33.2718492 26.8299134 31.9287805 27.2329749 30.2130714 27.2329749L27.5997748 27.2329749zM27.5997748 24.853746L30.2627539 24.853746C31.0510526 24.853746 31.6522042 24.6709812 32.0662267 24.3054463 32.4802491 23.9399113 32.6872573 23.4177264 32.6872573 22.7388758 32.6872573 22.0404429 32.4785931 21.4758305 32.0612584 21.0450214 31.6439238 20.6142124 31.0676132 20.3922838 30.3323093 20.379229L27.5997748 20.379229 27.5997748 24.853746zM42 32.2557916L39.0190532 32.2557916 39.0190532 18 42 18 42 32.2557916z"/>
      </g>
      <g transform="translate(89)">
        <g transform="translate(.218)">
          <polygon fill="#ECECEC" points="144.044 85.163 155.868 85.163 155.868 22.24 144.044 22.24"/>
          <polygon fill="#ECECEC" points="18.812 85.163 30.636 85.163 30.636 22.24 18.812 22.24"/>
          <path fill="#FBCFCE" d="M25.0807812,29.470351 C25.0807812,35.1963726 19.4673816,39.8385943 12.5473778,39.8385943 C5.6246866,39.8385943 0.0112869965,35.1963726 0.0112869965,29.470351 L25.0807812,29.470351"/>
          <path fill="#FFEBEB" d="M50.1502754,29.470351 C50.1502754,35.1963726 44.5374133,39.8385943 37.616872,39.8385943 C30.6936433,39.8385943 25.0807812,35.1963726 25.0807812,29.470351 L50.1502754,29.470351"/>
          <path fill="#FBCFCE" d="M75.2197696,29.470351 C75.2197696,35.1963726 69.60637,39.8385943 62.6863662,39.8385943 C55.7631375,39.8385943 50.1502754,35.1963726 50.1502754,29.470351 L75.2197696,29.470351"/>
          <path fill="#FFEBEB" d="M100.289264,29.470351 C100.289264,35.1963726 94.6758642,39.8385943 87.755323,39.8385943 C80.8331692,39.8385943 75.2197696,35.1963726 75.2197696,29.470351 L100.289264,29.470351"/>
          <path fill="#FBCFCE" d="M125.358221,29.470351 C125.358221,35.1963726 119.745358,39.8385943 112.825355,39.8385943 C105.902126,39.8385943 100.289264,35.1963726 100.289264,29.470351 L125.358221,29.470351"/>
          <path fill="#FFEBEB" d="M150.428252,29.470351 C150.428252,35.1963726 144.814853,39.8385943 137.894311,39.8385943 C130.97162,39.8385943 125.358221,35.1963726 125.358221,29.470351 L150.428252,29.470351"/>
          <path fill="#FBCFCE" d="M175.497209,29.470351 C175.497209,35.1963726 169.884347,39.8385943 162.963806,39.8385943 C156.040577,39.8385943 150.428252,35.1963726 150.428252,29.470351 L175.497209,29.470351"/>
          <polyline fill="#FBCFCE" points="25.081 29.47 42.801 .592 19.53 .592 .011 29.47 25.081 29.47"/>
          <polyline fill="#FFEBEB" points="50.15 29.47 60.678 .592 42.801 .592 25.081 29.47 50.15 29.47"/>
          <polyline fill="#FBCFCE" points="75.22 29.47 78.401 .592 60.678 .592 50.15 29.47 75.22 29.47"/>
          <polyline fill="#FBCFCE" points="150.428 29.47 132.708 .592 155.978 .592 175.497 29.47 150.428 29.47"/>
          <polyline fill="#FFEBEB" points="125.358 29.47 114.831 .592 132.708 .592 150.428 29.47 125.358 29.47"/>
          <polyline fill="#FBCFCE" points="100.289 29.47 97.108 .592 114.831 .592 125.358 29.47 100.289 29.47"/>
          <polyline fill="#FFEBEB" points="78.401 .592 75.22 29.47 100.289 29.47 97.108 .592 78.401 .592"/>
          <polygon fill="#FBCFCE" points="9.675 119.88 165.543 119.88 165.543 78.654 9.675 78.654"/>
          <polygon fill="#FFEBEB" points="16.469 113.37 158.748 113.37 158.748 85.163 16.469 85.163"/>
          <polygon fill="#F1F1F1" points="48.533 78.654 75.406 78.654 75.406 53.702 48.533 53.702"/>
          <polygon fill="#FDDADA" points="48.484 53.702 58.159 53.702 58.159 46.108 48.484 46.108"/>
          <path fill="#FBCFCE" d="M121.175474,65.0594519 C120.973921,64.2501279 120.3139,63.6317436 119.489412,63.4983027 L119.312582,61.2162477 L119.001384,61.2162477 L118.824554,63.4983027 C118.000066,63.6317436 117.340583,64.2501279 117.139029,65.0594519 L116.230695,65.0594519 L116.230695,66.0787011 L116.981011,66.0787011 L116.981011,78.7333389 L121.332955,78.7333389 L121.332955,66.0787011 L122.083271,66.0787011 L122.083271,65.0594519 L121.175474,65.0594519"/>
          <path fill="#F69A98" d="M120.555764,71.4119943 C120.555764,72.7111438 119.929067,73.7651093 119.157252,73.7651093 C118.384361,73.7651093 117.758202,72.7111438 117.758202,71.4119943 C117.758202,70.1133873 118.384361,69.0594218 119.157252,69.0594218 C119.929067,69.0594218 120.555764,70.1133873 120.555764,71.4119943"/>
          <path fill="#FBCFCE" d="M130.671063,74.3802389 C130.671063,73.0322697 130.17551,71.8448634 129.412832,71.0474731 L130.138962,71.0474731 L130.138962,70.0276814 L129.230627,70.0276814 C129.029074,69.2183574 128.369591,68.5983458 127.545103,68.464905 L127.367736,66.1844773 L127.057074,66.1844773 L126.879707,68.464905 C126.055219,68.5983458 125.395736,69.2183574 125.194182,70.0276814 L124.286385,70.0276814 L124.286385,71.0474731 L125.011978,71.0474731 C124.2493,71.8448634 123.754284,73.0322697 123.754284,74.3802389 C123.754284,76.7848859 123.559718,78.7333389 127.212405,78.7333389 C130.865092,78.7333389 130.671063,76.7848859 130.671063,74.3802389"/>
          <path fill="#F69A98" d="M129.388645,74.8120231 C129.388645,76.1111725 128.413664,77.165138 127.212405,77.165138 C126.011684,77.165138 125.036165,76.1111725 125.036165,74.8120231 C125.036165,73.5117887 126.011684,72.4589081 127.212405,72.4589081 C128.413664,72.4589081 129.388645,73.5117887 129.388645,74.8120231"/>
        </g>
        <g transform="translate(22.437 100.128)">
          <path fill="#CFCFCF" fill-rule="nonzero" d="M16.8864278,0.273082052 C7.72513868,0.273082052 0.271389019,7.77333119 0.271389019,16.9917722 C0.271389019,26.2102131 7.72513868,33.7104623 16.8864278,33.7104623 C26.047717,33.7104623 33.5014667,26.2102131 33.5014667,16.9917722 C33.5014667,7.77333119 26.047717,0.273082052 16.8864278,0.273082052 Z M18.4580718,3.53145665 C22.0327678,3.95139616 25.1836948,5.78327102 27.3439514,8.458666 L18.4580718,14.1185444 L18.4580718,3.53145665 Z M15.3147839,3.53145665 L15.3147839,14.118949 L6.42890432,8.458666 C8.58916091,5.78327102 11.7400879,3.95180072 15.3147839,3.53145665 Z M4.74186976,22.8555518 C3.89191956,21.0803162 3.415079,19.0910651 3.415079,16.9917722 C3.415079,14.8924792 3.89191956,12.9032281 4.74227182,11.1279925 L13.9477873,16.9917722 L4.74186976,22.8555518 Z M15.3147839,30.4520877 C11.7400879,30.0317436 8.58916091,28.2002733 6.42890432,25.5248783 L15.3147839,19.8645953 L15.3147839,30.4520877 Z M16.8864278,18.7560845 C15.9178706,18.7560845 15.1330538,17.9659671 15.1330538,16.9917722 C15.1330538,16.0175772 15.9182727,15.2274598 16.8864278,15.2274598 C17.8549851,15.2274598 18.6398019,16.0175772 18.6398019,16.9917722 C18.6398019,17.9659671 17.8549851,18.7560845 16.8864278,18.7560845 Z M18.4580718,30.4520877 L18.4580718,19.8645953 L27.3439514,25.5248783 C25.1836948,28.2002733 22.0327678,30.0317436 18.4580718,30.4520877 Z M19.8250683,16.9917722 L29.0309859,11.1279925 C29.8813382,12.9036327 30.3581787,14.8928837 30.3581787,16.9917722 C30.3581787,19.0906606 29.8813382,21.0803162 29.0309859,22.8555518 L19.8250683,16.9917722 Z"/>
          <ellipse cx="16.886" cy="16.992" fill="#AAA" rx="2.666" ry="2.683"/>
        </g>
        <g transform="translate(120.2 100.128)">
          <path fill="#CFCFCF" fill-rule="nonzero" d="M16.8864278,0.273082052 C7.72513868,0.273082052 0.271389019,7.77333119 0.271389019,16.9917722 C0.271389019,26.2102131 7.72513868,33.7104623 16.8864278,33.7104623 C26.047717,33.7104623 33.5014667,26.2102131 33.5014667,16.9917722 C33.5014667,7.77333119 26.047717,0.273082052 16.8864278,0.273082052 Z M18.4580718,3.53145665 C22.0327678,3.95139616 25.1836948,5.78327102 27.3439514,8.458666 L18.4580718,14.1185444 L18.4580718,3.53145665 Z M15.3147839,3.53145665 L15.3147839,14.118949 L6.42890432,8.458666 C8.58916091,5.78327102 11.7400879,3.95180072 15.3147839,3.53145665 Z M4.74186976,22.8555518 C3.89191956,21.0803162 3.415079,19.0910651 3.415079,16.9917722 C3.415079,14.8924792 3.89191956,12.9032281 4.74227182,11.1279925 L13.9477873,16.9917722 L4.74186976,22.8555518 Z M15.3147839,30.4520877 C11.7400879,30.0317436 8.58916091,28.2002733 6.42890432,25.5248783 L15.3147839,19.8645953 L15.3147839,30.4520877 Z M16.8864278,18.7560845 C15.9178706,18.7560845 15.1330538,17.9659671 15.1330538,16.9917722 C15.1330538,16.0175772 15.9182727,15.2274598 16.8864278,15.2274598 C17.8549851,15.2274598 18.6398019,16.0175772 18.6398019,16.9917722 C18.6398019,17.9659671 17.8549851,18.7560845 16.8864278,18.7560845 Z M18.4580718,30.4520877 L18.4580718,19.8645953 L27.3439514,25.5248783 C25.1836948,28.2002733 22.0327678,30.0317436 18.4580718,30.4520877 Z M19.8250683,16.9917722 L29.0309859,11.1279925 C29.8813382,12.9036327 30.3581787,14.8928837 30.3581787,16.9917722 C30.3581787,19.0906606 29.8813382,21.0803162 29.0309859,22.8555518 L19.8250683,16.9917722 Z"/>
          <ellipse cx="16.886" cy="16.992" fill="#AAA" rx="2.666" ry="2.683"/>
        </g>
      </g>
    </g>
  </g>
</svg>
