<svg xmlns="http://www.w3.org/2000/svg" width="435" height="150" viewBox="0 0 435 150">
  <g fill="none" fill-rule="evenodd" transform="translate(5 1)">
    <g transform="translate(0 50.7)">
      <polygon fill="#F1F1F1" points="6.191 48.742 88.907 48.742 88.907 44.194 6.191 44.194"/>
      <polygon fill="#F1F1F1" points="6.191 63.903 88.907 63.903 88.907 59.355 6.191 59.355"/>
      <polygon fill="#F1F1F1" points="6.191 56.323 88.907 56.323 88.907 51.774 6.191 51.774"/>
      <polygon fill="#ECECEC" points="7.695 92.709 10.703 92.709 10.703 67.693 7.695 67.693"/>
      <polygon fill="#ECECEC" points="85.899 92.709 88.907 92.709 88.907 67.693 85.899 67.693"/>
      <polygon fill="#ECECEC" points="15.215 89.677 18.223 89.677 18.223 44.952 15.215 44.952"/>
      <polygon fill="#ECECEC" points="78.379 89.677 81.387 89.677 81.387 44.952 78.379 44.952"/>
      <polyline fill="#F1F1F1" points="94.923 73 .175 73 6.191 67.693 88.907 67.693 94.923 73"/>
      <g transform="translate(27)">
        <path fill="#FFFFFE" d="M29.0823728,34.5859457 L29.0181804,34.579376 C28.8559071,34.543571 28.7529385,34.3822845 28.7881303,34.2186985 C28.873503,33.8215591 28.9683253,33.4204779 29.0703164,33.0266234 C29.1120252,32.8643514 29.2756019,32.768105 29.4372235,32.8098227 C29.5978676,32.8518689 29.6943192,33.0174258 29.6526104,33.1796978 C29.5525744,33.5656687 29.4597072,33.9582092 29.3759637,34.3471365 C29.3456597,34.4893708 29.2208591,34.5859457 29.0823728,34.5859457"/>
        <polygon fill="#FDE4E3" points="14.868 38.323 21.786 38.323 21.786 25.168 14.868 25.168"/>
        <path fill="#DADADA" d="M35.0617207,94.734331 L26.5374842,94.734331 C26.5374842,94.734331 28.8207153,75.1220839 26.4654713,72.9997368 C24.1102274,70.8770613 19.5776536,69.9704404 19.5776536,69.9704404 L17.0751254,69.9704404 C17.0751254,69.9704404 11.6757906,71.4834462 9.8471203,72.9997368 C8.01844998,74.515699 9.8471203,94.734331 9.8471203,94.734331 L1.32288376,94.734331 C1.32288376,94.734331 -1.2578484,74.2125066 1.32288376,69.9674841 C3.90361593,65.7224615 8.55088892,63.2722856 8.55088892,63.2722856 L28.1018901,63.2722856 C28.1018901,63.2722856 32.1293964,64.5093633 34.9897079,69.9674841 L35.0196861,70.0249691 C37.8320976,75.5556852 35.0617207,94.734331 35.0617207,94.734331"/>
        <path fill="#AAA" d="M10.7735119 96.1113436C10.7735119 98.4945084.245949448 98.4945084.245949448 96.1113436.245949448 93.7285073 2.60282264 92.7088873 5.50973068 92.7088873 8.41696456 92.7088873 10.7735119 93.7285073 10.7735119 96.1113436M36.3403562 96.1113436C36.3403562 98.4945084 25.8127937 98.4945084 25.8127937 96.1113436 25.8127937 93.7285073 28.1693411 92.7088873 31.076575 92.7088873 33.983483 92.7088873 36.3403562 93.7285073 36.3403562 96.1113436"/>
        <path fill="#DADADA" d="M29.8943911,40.0246857 L28.525821,46.0799937 L27.9093128,48.7998565 L27.4159758,50.992171 L26.14679,56.6017237 L10.9390437,56.6017237 L7.78090532,44.0726167 L7.5189219,43.0267178 L7.4980675,42.9478812 L6.88742456,40.5220133 L6.76099475,40.0246857 L7.91613308,35.1397728 L8.11164309,34.3211861 C8.47561756,32.9445019 10.0696759,32.0864969 11.6428798,31.5648614 C12.9902696,31.1161497 14.3226703,30.9161019 14.8671657,30.8464629 C15.0326975,30.8251113 15.1258906,30.8159137 15.1258906,30.8159137 C15.3002204,31.5375971 15.952898,32.6597047 18.3260637,32.6597047 C20.6992294,32.6597047 21.3972001,31.4374089 21.577721,30.6066682 L21.577721,30.6037118 C21.577721,30.6037118 21.6497339,30.622107 21.7852875,30.6582405 C22.2333313,30.785693 23.361424,31.1253473 24.5915079,31.6952703 C25.4488193,32.0956945 26.3540306,32.6081324 27.1152163,33.2388252 C27.9692692,33.9450698 28.643127,34.8034033 28.8565588,35.8190815 C28.8627499,35.8463458 28.8656826,35.876895 28.8718737,35.9071157 C28.8806717,35.9373364 28.8839302,35.970842 28.8897955,36.004019 L29.0882381,36.804539 L29.8943911,40.0246857"/>
        <path fill="#FDDADA" d="M31.0795076,33.8724744 C30.7155331,33.2690459 30.3065914,32.6958381 29.8344347,32.1653335 C28.6972181,30.8704423 27.2233985,29.8061482 25.2744895,29.090706 C24.2487136,28.7116334 23.0935753,28.4297925 21.7882201,28.2629217 L21.7852875,28.2629217 L21.6859032,28.4902339 L21.6047666,28.6692587 L19.3880089,33.6967345 L18.3260637,36.1009224 L14.8671657,28.2629217 C13.5618105,28.4297925 12.4066722,28.7116334 11.3812222,29.090706 C8.62583442,30.1004715 6.82127701,31.8046561 5.57294558,33.8724744 C5.57294558,33.8724744 7.53423685,38.0537707 7.5071913,39.206099 C7.50100015,39.4820271 7.4980675,39.7609116 7.4980675,40.0427525 L7.4980675,59.8701578 C7.4980675,60.5405974 8.03637173,61.083256 8.70110577,61.083256 L27.9513474,61.083256 C28.6160815,61.083256 29.1543857,60.5405974 29.1543857,59.8701578 L29.1543857,40.0427525 C29.1543857,38.9209733 31.0795076,33.8724744 31.0795076,33.8724744"/>
        <polyline fill="#CDA231" points="10.422 41.815 9.208 41.815 9.208 41.341 9.48 41.069 10.59 41.069 10.422 41.815"/>
        <path fill="#FEBBBA" d="M25.6958136,31.3457613 L25.2731861,29.090706 C24.2477361,28.7116334 23.0925978,28.4297925 21.7872426,28.2629217 L18.4997417,35.4945375 L18.1546666,35.4945375 L14.8671657,28.2629217 C13.5618105,28.4297925 12.4066722,28.7116334 11.3812222,29.090706 L10.9585947,31.3457613 L15.1503294,32.6771145 L13.964887,34.6427737 L18.0015171,35.62199 L18.0044497,56.6017237 L18.0044497,60.6618087 L18.6499586,60.6618087 L18.6499586,56.6017237 L18.6528912,35.62199 L22.6895213,34.6427737 L21.5040789,32.6771145 L25.6958136,31.3457613"/>
        <polyline fill="#AAA" points="28.091 63.272 8.552 63.272 8.552 61.085 28.103 61.085 28.091 63.272"/>
        <path fill="#CFCFCF" d="M17.460606,61.1124912 C17.1187893,61.1124912 16.8401876,61.3930182 16.8401876,61.7379283 L16.8401876,62.6189273 C16.8401876,62.9638374 17.1187893,63.2443644 17.460606,63.2443644 L19.2501743,63.2443644 C19.5923169,63.2443644 19.8705928,62.9638374 19.8705928,62.6189273 L19.8705928,61.7379283 C19.8705928,61.3930182 19.5923169,61.1124912 19.2501743,61.1124912 L17.460606,61.1124912 Z M19.2501743,63.8507492 L17.460606,63.8507492 C16.7867482,63.8507492 16.2386684,63.298236 16.2386684,62.6189273 L16.2386684,61.7379283 C16.2386684,61.0586196 16.7867482,60.5061064 17.460606,60.5061064 L19.2501743,60.5061064 C19.9240322,60.5061064 20.4721119,61.0586196 20.4721119,61.7379283 L20.4721119,62.6189273 C20.4721119,63.298236 19.9240322,63.8507492 19.2501743,63.8507492 L19.2501743,63.8507492 Z"/>
        <path fill="#FFEBEB" d="M7.31200714,66.6997069 C6.39245838,66.6997069 5.52862998,66.1287985 5.19365616,65.2073957 L4.78536608,64.0833172 C4.53543911,63.379372 4.19329659,62.4152661 3.80325412,61.2284467 C3.30437774,59.7252955 2.88663801,58.3538672 2.52852884,57.0425517 C2.09938436,55.4401977 1.66632969,53.7301005 1.46756117,51.8666003 C1.40239117,51.3916098 1.40206532,50.944869 1.40173947,50.5490436 L1.40043607,50.2806707 C1.39945852,50.2041335 1.40239117,50.1279247 1.40923402,50.0520445 L1.52100058,48.7903304 C1.52360738,48.7604382 1.52686588,48.730546 1.53045023,48.7006538 C1.56759713,48.4112577 1.61060933,48.1244896 1.65394739,47.8396924 L1.71390379,47.4363118 L1.72302759,47.3781698 C1.77190509,47.0914016 1.8292547,46.8092323 1.88627845,46.5296908 C1.9126723,46.3996104 1.93906615,46.2705155 1.9641566,46.1417491 L1.97556136,46.0868919 C2.29163588,44.647467 2.73381435,43.1544988 3.28938864,41.6497052 C3.79152352,40.2963435 4.24836525,39.2737671 4.54325952,38.6535858 C4.86552519,37.9686929 5.0727658,37.5662977 5.0812379,37.5495449 C5.65668903,36.4356494 7.01939382,36.0027051 8.12402539,36.5828111 C9.22898281,37.1629171 9.65845313,38.5359879 9.08332785,39.6498834 C9.0732265,39.6692641 8.89563824,40.0161451 8.61573307,40.6113614 C8.3560306,41.1569764 7.95914528,42.0468446 7.51664095,43.2395767 C7.03796727,44.5361103 6.65737445,45.8168766 6.38626723,47.0444281 C6.36019923,47.1774649 6.33315368,47.3114871 6.30545643,47.4458378 C6.25983742,47.6708506 6.21291502,47.8981628 6.17316132,48.1284314 L6.11418246,48.5235999 C6.07833896,48.7607667 6.04216961,48.9999044 6.01056216,49.2406845 L5.91280715,50.3463678 C5.913133,50.4123935 5.913133,50.4787476 5.91345885,50.5447733 C5.9137847,50.8118323 5.9137847,51.0874319 5.93822345,51.2539742 C5.94278535,51.2848519 5.94669555,51.3163865 5.94995405,51.3475927 C6.11190151,52.8967319 6.48304469,54.3591508 6.88155926,55.8458778 C7.21490383,57.0671881 7.60918236,58.3610938 8.08394584,59.7916497 C8.45932506,60.9334665 8.79104038,61.8686657 9.0334728,62.5509307 L9.42970642,63.6421607 C9.85852505,64.8214249 9.25798346,66.1278131 8.08818189,66.5601004 C7.83206377,66.6547043 7.5697545,66.6997069 7.31200714,66.6997069"/>
        <path fill="#FFEBEB" d="M9.62391303,63.3199161 C9.31598476,63.3199161 9.02695579,63.1274234 8.91649264,62.8183182 C8.78647848,62.4546844 8.43423461,62.127184 7.86953652,61.8450147 C7.40878459,61.6170455 6.98420202,61.5198137 6.97964012,61.5188282 C6.57526024,61.4271807 6.31946798,61.0231431 6.40907673,60.6151637 C6.49835964,60.2071843 6.89817761,59.9493229 7.30255749,60.0380141 C7.32667039,60.0432698 7.90081812,60.1713793 8.53459641,60.4854118 C9.46131387,60.9479198 10.065114,61.5595605 10.3313334,62.3045664 C10.4721006,62.6980924 10.2697478,63.1326792 9.8790536,63.274585 C9.79465844,63.3051342 9.70863404,63.3199161 9.62391303,63.3199161"/>
        <polyline fill="#FDDADA" points="13.345 37.698 8.148 47.438 .881 42.836 6.04 33.155 13.345 37.698"/>
        <g transform="translate(13.33 39.681)">
          <path fill="#AAA" d="M6.88571684,15.0737331 L2.15147811,15.0737331 C1.1514806,15.0737331 0.341200215,14.2401894 0.341200215,13.2123134 L0.341200215,2.5612695 C0.341200215,1.53339351 1.1514806,0.699849736 2.15147811,0.699849736 L6.88571684,0.699849736 C7.88571435,0.699849736 8.69599474,1.53339351 8.69599474,2.5612695 L8.69599474,13.2123134 C8.69599474,14.2401894 7.88571435,15.0737331 6.88571684,15.0737331"/>
          <path fill="#FFF" d="M5.35422175,2.77570506 C5.35422175,3.2503671 4.98021834,3.63493642 4.51859748,3.63493642 C4.05697661,3.63493642 3.6829732,3.2503671 3.6829732,2.77570506 C3.6829732,2.3014153 4.05697661,1.91684598 4.51859748,1.91684598 C4.98021834,1.91684598 5.35422175,2.3014153 5.35422175,2.77570506"/>
        </g>
        <path fill="#FFEBEB" d="M31.1968136,54.2737445 L31.1684647,54.273416 L29.9084026,54.2556778 C29.8702782,54.2550208 29.8318279,54.2533784 29.7937034,54.2507505 C29.5900472,54.2376111 29.3854134,54.2175735 29.1807796,54.1978643 L28.7438147,54.1564751 C28.4798762,54.1321671 28.1813975,54.1042458 27.8542441,54.0431475 L27.1367224,53.9219362 C27.1054408,53.9163519 27.0741592,53.9104392 27.0432034,53.904198 L26.8258615,53.8578815 C26.4045374,53.7691903 25.9688759,53.6768858 25.5175736,53.554689 C23.6123286,53.0576899 21.6670039,52.3360066 19.7565453,51.4149323 C18.6323627,50.8729306 18.1569475,49.5149702 18.6946,48.3820225 C19.2319267,47.2490748 20.5786649,46.769814 21.7028474,47.3114871 C23.3523002,48.1067514 25.0229333,48.7275896 26.66815,49.1569206 C27.018113,49.2515245 27.374267,49.3267478 27.7509497,49.4062413 L27.9291896,49.4440172 L28.6219468,49.5612867 L28.6698467,49.5698273 C28.7939956,49.5934783 28.9699546,49.6099026 29.1560149,49.6269838 L29.3094903,49.6414372 C29.3997508,49.6496494 29.5089105,49.6601609 29.6180703,49.6710009 C29.7575341,49.6844689 29.8969979,49.6982653 30.0361359,49.7087768 L30.146599,49.7100907 L30.1459473,49.7005647 L30.1420371,49.6545766 C30.1221603,49.3602533 30.0850134,49.0455639 30.0462372,48.7118223 L30.0270121,48.5482363 L29.9419652,47.9655024 C29.9276278,47.8594015 29.9113353,47.7759661 29.8960203,47.6925307 L29.8621319,47.5020089 C29.6327335,46.2097456 29.2896135,44.9844934 28.8445023,43.8715834 C28.3785368,42.7064441 28.9376954,41.3816607 30.0931596,40.911926 C31.2486238,40.4428482 32.5631028,41.0058729 33.0290683,42.1706837 C33.5898562,43.5736468 34.0193265,45.1014344 34.305097,46.712329 L34.3331201,46.8677028 C34.3608173,47.0197917 34.3878629,47.1722091 34.4087173,47.3249551 L34.4957192,47.9191859 L34.5045172,47.987511 L34.5270008,48.1790182 C34.5696872,48.544623 34.6136769,48.9223817 34.6417,49.3182071 C34.683083,49.7945116 34.6983979,50.2517639 34.7117578,50.65613 L34.7186006,50.9353429 C34.7283761,51.2838664 34.7391292,51.6787064 34.715668,52.0857003 C34.6475653,53.2560954 33.7081397,54.182754 32.5458327,54.2257856 L31.278602,54.2721021 L31.1968136,54.2737445"/>
        <path fill="#FFEBEB" d="M23.5103375,50.168657 C23.1150814,50.168657 22.783692,49.8572524 22.7605566,49.4545288 C22.7602308,49.4502584 22.7341627,49.030782 22.6220703,48.5889686 C22.4565385,47.9159011 22.2587476,47.7943613 22.220949,47.7769516 C21.8432888,47.6028541 21.6771053,47.153157 21.8498058,46.7721134 C22.0225063,46.3913983 22.4682691,46.2238705 22.846581,46.3982965 C23.4435382,46.6735676 23.8469406,47.2691125 24.080575,48.218765 C24.2288368,48.8028129 24.2604442,49.345143 24.2617476,49.36748 C24.2852088,49.7856425 23.9681568,50.1436921 23.5533497,50.167343 L23.5103375,50.168657"/>
        <polyline fill="#FDDADA" points="35.305 43.8 28.032 47.541 27.257 45.698 25.786 42.208 25.62 41.814 23.671 37.187 31.08 33.872 35.305 43.8"/>
        <path fill="#FFEBEB" d="M18.3270412,3.78481386 C14.1744086,3.78481386 10.8077262,7.17840107 10.8077262,11.3652816 L10.8077262,19.2486133 C10.8077262,23.4354938 14.1744086,26.829081 18.3270412,26.829081 C22.4803256,26.829081 25.8466821,23.4354938 25.8466821,19.2486133 L25.8466821,11.3652816 C25.8466821,7.17840107 22.4803256,3.78481386 18.3270412,3.78481386"/>
        <path fill="#FEBBBA" d="M18.2714578,23.0672718 C18.1942662,23.0672718 18.1201274,23.0637612 18.0499135,23.0584953 C17.0895975,22.9838952 16.304598,22.4419476 15.9814398,21.9688954 C15.9168954,21.8741094 15.9408815,21.7446563 16.0350815,21.6797104 C16.1292814,21.6152033 16.2579341,21.6388998 16.3224785,21.7332469 C16.5915589,22.126872 17.257064,22.580616 18.0817496,22.6438067 C18.6425882,22.6859338 19.4777404,22.5573583 20.2884704,21.6915586 C20.3669704,21.6077433 20.4978036,21.6042327 20.5806647,21.6823433 C20.6635258,21.7613317 20.6674508,21.89254 20.5893869,21.9763554 C19.7660097,22.854881 18.9081797,23.0672718 18.2714578,23.0672718 Z"/>
        <path fill="#AAA" d="M26.4612353,5.11518151 C26.9760783,4.31663243 27.3449405,3.36172409 27.3006249,2.28429054 C26.7632982,2.40221695 26.2976586,2.43440856 25.8857841,2.4150279 C26.1927349,2.01066183 26.2833212,1.57870295 26.3093892,1.36682958 C26.3165579,1.30868759 26.2562756,1.2689408 26.2038138,1.29423421 C24.6423405,2.05040862 22.7501294,1.12637795 22.7501294,1.12637795 L22.7504552,1.12703492 C21.5089667,0.508167595 20.2140387,0.180995698 18.3019508,0.232567975 C11.9807862,0.227312202 10.1423404,5.11518151 10.1423404,5.11518151 C8.72652208,8.47887652 9.12177815,13.1000153 10.7911078,17.4038368 C10.8220636,17.4770891 10.8546486,17.5486991 10.8869077,17.6206375 C10.8175017,17.2776982 10.8077262,13.8722855 10.8077262,13.8722855 C12.0827773,12.1625167 12.4913932,8.68976443 12.4913932,8.68976443 C12.4913932,8.68976443 15.1627117,9.26822799 18.3019508,9.40225022 C21.440864,9.26822799 24.1121825,8.68976443 24.1121825,8.68976443 C24.1121825,8.68976443 24.5452372,12.1644876 25.8202883,13.8742564 C25.8202883,13.8742564 25.786074,17.2776982 25.7169938,17.6206375 C25.749253,17.5486991 25.781838,17.4770891 25.8127937,17.4038368 C27.4817975,13.1000153 27.8770536,8.47887652 26.4612353,5.11518151"/>
        <path fill="#AAA" d="M15.2941081 16.3606967C15.3067817 16.7223616 15.0258215 17.0257863 14.6664995 17.0383691 14.3073561 17.0509518 14.0060469 16.7680191 13.9935518 16.4063542 13.9810568 16.0446893 14.2620169 15.7412646 14.6211604 15.7285021 14.9803038 15.7159193 15.2816131 15.998852 15.2941081 16.3606967M22.4516426 16.3606967C22.464316 16.7223616 22.1831797 17.0257863 21.8240393 17.0383691 21.4648988 17.0509518 21.1635921 16.7680191 21.1510971 16.4063542 21.1384237 16.0446893 21.41956 15.7412646 21.7787005 15.7285021 22.1378409 15.7159193 22.4391477 15.998852 22.4516426 16.3606967"/>
        <path fill="#FFEBEB" d="M10.8077262,14.5187457 C9.97713445,14.5187457 9.30360246,15.1973974 9.30360246,16.0347078 L9.30360246,17.6114399 C9.30360246,18.4487503 9.97713445,19.127402 10.8077262,19.127402 C11.6383179,19.127402 12.311524,18.4487503 12.311524,17.6114399 L12.311524,16.0347078 C12.311524,15.1973974 11.6383179,14.5187457 10.8077262,14.5187457"/>
        <path fill="#F2C9B2" d="M25.8466821,14.5187457 C25.0160904,14.5187457 24.3428843,15.1973974 24.3428843,16.0347078 L24.3428843,17.6114399 C24.3428843,18.4487503 25.0160904,19.127402 25.8466821,19.127402 C26.6772738,19.127402 27.3508058,18.4487503 27.3508058,17.6114399 L27.3508058,16.0347078 C27.3508058,15.1973974 26.6772738,14.5187457 25.8466821,14.5187457"/>
        <path fill="#FFEBEB" d="M25.8466821,19.127402 L25.8466821,19.127402 C25.0160904,19.127402 24.3428843,18.4487503 24.3428843,17.6114399 L24.3428843,16.0347078 C24.3428843,15.2088944 24.997517,14.5374694 25.8124679,14.5190742 C25.8238726,14.5187457 25.8352774,14.5187457 25.8466821,14.5187457 L25.853525,14.5194026 C26.2230389,14.5210451 26.5567093,14.6613085 26.8177152,14.8856644 C27.1360707,15.1592931 27.343963,15.5590603 27.35048,16.0120423 L27.35048,16.0133562 C27.3508058,16.0163126 27.3508058,16.019269 27.3508058,16.0222254 L27.3508058,16.0241963 L27.3508058,16.0347078 L27.3508058,17.6114399 C27.3508058,18.4487503 26.6772738,19.127402 25.8466821,19.127402"/>
      </g>
    </g>
    <g transform="translate(3.948)">
      <g transform="translate(58.125 43.817)">
        <path fill="#FEBBBA" d="M6.43695714,1.47639447e-13 C10.0159054,1.47639447e-13 12.9166067,2.90974325 12.9166067,6.50076687 C12.9166067,10.0935907 10.0159223,13.0015337 6.43695714,13.0015337 C2.85684339,13.0015337 0,10.0971911 0,6.50076687 C0,2.90604282 2.85686028,1.47639447e-13 6.43695714,1.47639447e-13 Z"/>
        <path fill="#FFF" d="M4.32777118,2.60030675 L4.32777118,2.6108874 L4.30553555,2.6108874 L4.30553555,3.69434854 L5.28017688,3.69434854 C6.16554647,3.69434854 6.61246105,4.1728909 6.77363855,4.76722904 L4.32777118,4.76722904 L4.32777118,5.85069018 L6.77363855,5.85069018 C6.61298284,6.44545109 6.16662609,6.92568679 5.28017688,6.92568679 L4.97629686,6.92568679 L4.97259029,6.92145446 L4.96888467,6.92568679 L4.30553555,6.92568679 L4.30553555,8.00914848 L4.58532807,8.00914848 L7.47960422,11.2679959 L8.14665896,10.4977222 L5.87496723,7.93719907 C6.90402125,7.69077342 7.56472729,6.81608408 7.74642612,5.85069018 L9.04162466,5.85069018 L9.04162466,4.76722904 L7.74642612,4.76722904 C7.67282691,4.37747144 7.51326695,4.00889443 7.29060609,3.68376789 L9.04162466,3.68376789 L9.04162466,2.60030675 L4.32777118,2.60030675 Z"/>
      </g>
      <g transform="translate(54)">
        <ellipse cx="18.565" cy="18.706" fill="#F1F1F1" rx="18.565" ry="18.706"/>
        <rect width="4.126" height="2.91" x="16.502" y="29.059" fill="#FFEBEB"/>
        <path fill="#FEBBBA" d="M16.086442,31.3174898 C16.086442,31.3174898 13.6996419,31.2918788 12.0223546,32.1907941 C10.3450674,33.0897095 8.93951001,35.065307 8.93951001,35.065307 C8.93951001,35.065307 12.4228234,37.5314771 18.2893407,37.3573908 C24.155858,37.1833045 27.2353476,34.6922875 27.2353476,34.6922875 C27.2353476,34.6922875 25.7910466,32.8383813 24.5653409,32.1907941 C23.3396352,31.5432069 22.8305163,31.331501 20.3159554,31.331501 L16.086442,31.3174898 Z" transform="rotate(2 18.087 34.342)"/>
        <g transform="translate(6.73 7.903)">
          <path fill="#AAA" d="M1.53358661,11.9568998 C1.56659129,12.7232727 2.38139433,13.5336179 3.15494152,13.2572211 C2.87233895,15.4998042 3.11987405,18.3307775 4.70616149,20.0415062 C5.04652225,20.4079414 5.42401328,20.7115591 5.82625782,20.9732985 C4.00068645,21.4381476 2.23906165,21.4863077 0.363983262,21.3167005 C0.520755492,19.8718991 0.689904478,18.4250037 0.826048783,16.9760144 C0.970444259,15.4495503 0.871430218,13.9859036 0.786855725,12.4615334 C0.63420908,9.6368418 1.18497468,6.6802336 2.9404111,4.41252349 C4.52051016,2.37305013 6.91128668,1.14810976 9.39695165,0.697918 C12.1755332,0.193284447 14.7086424,0.691636254 17.1241724,2.12806205 C17.177805,2.16156469 17.2355632,2.14062554 17.2685679,2.10084115 C17.2850702,2.1071229 17.3015725,2.11340465 17.3242632,2.11131073 C19.4592535,1.99195757 21.2580086,3.04729081 21.9511068,5.14958162 C22.4874329,6.77864762 22.3760421,8.56685116 22.3616026,10.2566407 C22.347163,12.2416723 22.3120955,14.2287977 22.3059072,16.2138293 C22.3017816,17.8324257 22.3863561,19.4196134 23.1145218,20.8937297 C23.1289614,20.9251384 23.1495893,20.9460776 23.1702172,20.9628289 C21.4085924,21.8192402 19.6160257,21.2036291 17.8585265,20.6173329 C19.6325281,18.9547643 20.1317239,16.0861005 20.080154,13.7513851 C20.080154,13.7157885 20.0719029,13.6864737 20.0574633,13.6592528 C20.8598896,13.7199764 21.5674274,13.0645809 21.5261716,12.2102635 C21.4807902,11.2826591 20.538094,10.6167941 19.6696583,10.9308814 C19.6614072,10.9350692 19.6552188,10.939257 19.6469676,10.9434449 C19.6284025,10.9099422 19.6015862,10.8806274 19.5603303,10.8638761 C18.8692948,10.570728 18.2896501,10.076564 17.8915312,9.4295442 C17.5346681,8.84743579 17.456282,8.23182473 17.2541283,7.59736844 C17.2541283,7.59318061 17.2500027,7.59318061 17.2500027,7.58899278 C17.2149352,7.45917004 17.0457863,7.36075603 16.9158303,7.48220311 C13.1780503,10.939257 8.08295282,11.0711737 3.31583934,10.6167941 C3.299337,10.6021367 3.27870907,10.5874793 3.25189277,10.5791036 C2.36901758,10.2566407 1.49439356,11.0523285 1.53358661,11.9568998"/>
          <path fill="#FFEBEB" d="M1.93376836,12.0615956 C1.79349847,11.2784713 2.45771766,10.7947769 3.16525549,10.8994726 C3.2436416,10.9099422 3.30346258,10.8764396 3.33853006,10.8282795 C8.06645048,11.5590559 13.3080062,11.2470626 17.0457863,7.89889222 C16.9282071,9.32694236 18.281399,10.7089264 19.4654419,11.2135599 C19.5149489,11.2344991 19.5562047,11.2303112 19.5912722,11.211466 C19.6284025,11.2554382 19.6840979,11.2826591 19.7604212,11.2659078 C20.4576451,11.1067702 21.1796224,11.4857689 21.194062,12.2814566 C21.2085015,13.0289844 20.5401568,13.4645187 19.8635608,13.407983 C19.7707352,13.4017013 19.7336049,13.5126788 19.7707352,13.579684 C19.7150398,13.6110928 19.6717211,13.6655346 19.6717211,13.7513851 C19.702663,15.9206812 19.3004185,18.6469587 17.6811264,20.2320525 C15.9958249,21.8820576 13.5637925,22.0788857 11.3401022,21.9804717 C9.17417006,21.8841516 6.84734011,21.553313 5.18679214,19.9996279 C3.34678123,18.2763357 3.35709519,15.4893347 3.3818487,13.1378679 C3.3818487,13.0750505 3.33027889,13.03736 3.27664628,13.0331722 C3.26633232,13.0227026 3.25601836,13.012233 3.23951602,13.0080452 C2.65574574,12.8782225 2.06372429,12.7777145 1.93376836,12.0615956 Z"/>
          <path fill="#AAA" d="M20.5092149 12.222827C20.3318147 12.3317106 20.1771053 12.469909 20.0265214 12.6164831 19.9749516 12.666737 19.8635608 12.6164831 19.8945027 12.5390082 19.9852656 12.3149593 20.1420378 12.1411643 20.3276891 11.9987781 20.1832937 11.8689554 20.0017679 11.7872927 19.7872375 11.7726353 19.653156 11.7642596 19.6572816 11.5779012 19.7872375 11.5653377 20.2864333 11.5150837 20.8103826 11.8857067 20.9135222 12.3903402 20.9527153 12.5850743 20.6742383 12.666737 20.6185429 12.4740968 20.5917266 12.3819646 20.5545963 12.3003019 20.5092149 12.222827M16.800314 14.0696602C17.1716166 13.9649644 17.3572679 13.5419936 17.2128725 13.186028 17.1406747 13.0059513 17.4253401 12.9284764 17.4975378 13.1064592 17.6976287 13.5964354 17.3717075 14.1952951 16.8621977 14.2978969 16.7157395 14.3272118 16.6559185 14.1115385 16.800314 14.0696602M16.1525971 13.211155C16.1814762 13.2006854 16.2124181 13.1944037 16.2412972 13.1923097 16.3073065 13.1671828 16.3836299 13.1629949 16.4578904 13.1964976 16.4805811 13.2069671 16.4908951 13.2320941 16.4929579 13.2572211 16.6043487 13.334696 16.6662324 13.4728944 16.6084742 13.6320319 16.501209 13.9209922 16.084525 13.9586827 16.0020133 13.629938 15.9978877 13.6152806 15.9978877 13.6006232 15.9978877 13.5859658 15.9896365 13.579684 15.9813853 13.5734023 15.975197 13.5650266 15.8699945 13.4184526 16.0226412 13.2614089 16.1525971 13.211155M12.8459407 17.8303318C12.8665686 17.2963834 12.1734704 17.357107 11.8496119 17.4471453 11.8042305 17.4597088 11.7671002 17.4408636 11.7464723 17.4094549 11.6680862 17.407361 11.5979513 17.357107 11.6082652 17.2545051 11.7382211 15.7636376 11.5154396 14.3984049 11.1606392 12.9556973 11.1400113 12.8719407 11.2596533 12.815405 11.3009091 12.8949738 11.948626 14.2057647 12.1012726 15.7322288 11.9362492 17.1770303 12.1899727 17.0681467 12.4746381 17.0409258 12.7304243 17.1665607 12.9655827 17.28382 13.1429828 17.5309019 13.1553596 17.801017 13.1842387 18.4899151 12.375624 18.5359812 11.9011818 18.4082524 11.6845885 18.3496228 11.7774142 18.0250659 11.9919446 18.0711321 12.2436053 18.1234799 12.8294384 18.2512088 12.8459407 17.8303318"/>
          <path fill="#9B9B9B" d="M14.970617,19.7378885 C13.3967063,20.7115591 10.5748062,21.1868778 9.18448402,19.6290049 C9.11641187,19.5515301 9.21955149,19.4489282 9.29793761,19.5159335 C10.8367808,20.8162548 13.221369,20.3974718 14.8344727,19.5012761 C14.9871193,19.4175195 15.1170753,19.6457563 14.970617,19.7378885"/>
          <path fill="#AAA" d="M6.98554721 13.4498613C7.31146842 13.3891378 7.57344307 13.7911695 7.41254526 14.0801298 7.25577303 14.3586205 6.81639822 14.3376813 6.67406554 14.0550028 6.61218176 13.9335557 6.63280969 13.8016391 6.69675626 13.6948494 6.75245165 13.5754962 6.85352849 13.4749883 6.98554721 13.4498613M5.79325314 13.8121086C5.82832061 13.9607766 5.92114627 14.0905993 6.06347896 14.149229 6.20168605 14.2057647 6.15011624 14.3984049 6.00159518 14.3732779 5.54571804 14.2978969 5.25073871 13.5545571 5.65298325 13.236282 5.77468801 13.1399619 5.95415095 13.2572211 5.87370205 13.407983 5.80150431 13.5419936 5.75818567 13.6571589 5.79325314 13.8121086M2.36695479 11.4815811C2.50309909 11.2868469 2.83520868 11.1046763 3.05799028 11.2533443 3.13637639 11.3035983 3.12399964 11.4229514 3.03323676 11.4522662 2.90534363 11.4920506 2.77951329 11.4899567 2.67431087 11.5611498 2.9692902 11.5632437 3.22713926 11.7098178 3.39422545 11.952712 3.49323949 12.0930043 3.24982998 12.2416723 3.16319269 12.0888165 3.05799028 11.902458 2.87646453 11.7810109 2.6660597 11.7600718 2.61242709 11.75379 2.583548 11.7160996 2.57529683 11.6763152 2.49278513 11.8124197 2.49691071 11.9820268 2.54848053 12.1306948 2.57942241 12.2165453 2.45152928 12.2961141 2.39377109 12.222827 2.2246221 12.0092477 2.20811976 11.7077239 2.36695479 11.4815811"/>
          <path fill="#AAA" d="M9.81363573,0.23516275 C12.2374169,-0.104051505 15.3274801,0.149312229 17.2231864,1.91029488 C17.237626,1.88726181 17.2582539,1.87051049 17.2891958,1.86422874 C18.7414017,1.56479887 20.2946845,2.10084115 21.2951388,3.21061619 C22.2935304,4.32248514 22.6215144,5.82591622 22.7205284,7.28537508 C22.8669867,9.43791986 22.7329052,11.6239673 22.7164029,13.778606 C22.6978377,16.0672553 22.4296747,18.5736717 23.4548826,20.6906199 C23.4837617,20.7492495 23.4816989,20.8057853 23.4651965,20.8539453 C23.6260944,20.8706966 23.7271712,21.1114969 23.5477082,21.2120048 C21.6396252,22.2778076 19.5005093,21.6894174 17.6398705,20.8078792 C15.8534922,22.3134042 13.3822668,22.4767295 11.1503253,22.3573764 C9.48358893,22.267338 7.70133621,22.0181621 6.21818839,21.205723 C6.19962326,21.2245683 6.17693254,21.2413196 6.14599066,21.2496953 C4.26678668,21.798301 2.24525003,21.9553447 0.330978582,21.4946833 C0.252592466,21.6454452 -0.0114449746,21.6245061 0.0091829505,21.4276781 C0.207211031,19.5473422 0.487750812,17.652349 0.570262512,15.7594497 C0.644523042,14.0591906 0.333041374,12.3694011 0.423804244,10.669142 C0.566136927,8.01405756 1.43869816,5.3673488 3.28489745,3.43047728 C5.00114082,1.62761633 7.38985454,0.574377006 9.81363573,0.23516275 Z M11.3401022,21.9804717 C13.5637925,22.0788857 15.9958249,21.8820576 17.6811264,20.2320525 C19.3004185,18.6469587 19.702663,15.9206812 19.6717211,13.7513851 C19.6717211,13.6655346 19.7150398,13.6110928 19.7707352,13.579684 C19.7336049,13.5126788 19.7707352,13.4017013 19.8635608,13.407983 C20.5401568,13.4645187 21.2085015,13.0289844 21.194062,12.2814566 C21.1796224,11.4857689 20.4576451,11.1067702 19.7604212,11.2659078 C19.6840979,11.2826591 19.6284025,11.2554382 19.5912722,11.211466 C19.5562047,11.2303112 19.5149489,11.2344991 19.4654419,11.2135599 C18.281399,10.7089264 16.9282071,9.32694236 17.0457863,7.89889222 C13.3080062,11.2470626 8.06645048,11.5590559 3.33853006,10.8282795 C3.30346258,10.8764396 3.2436416,10.9099422 3.16525549,10.8994726 C2.45771766,10.7947769 1.79349847,11.2784713 1.93376836,12.0615956 C2.06372429,12.7777145 2.65574574,12.8782225 3.23951602,13.0080452 C3.25601836,13.012233 3.26633232,13.0227026 3.27664628,13.0331722 C3.33027889,13.03736 3.3818487,13.0750505 3.3818487,13.1378679 C3.35709519,15.4893347 3.34678123,18.2763357 5.18679214,19.9996279 C6.84734011,21.553313 9.17417006,21.8841516 11.3401022,21.9804717 Z M4.70616149,20.0415062 C3.11987405,18.3307775 2.87233895,15.4998042 3.15494152,13.2572211 C2.38139433,13.5336179 1.56659129,12.7232727 1.53358661,11.9568998 C1.49439356,11.0523285 2.36901758,10.2566407 3.25189277,10.5791036 C3.27870907,10.5874793 3.299337,10.6021367 3.31583934,10.6167941 C8.08295282,11.0711737 13.1780503,10.939257 16.9158303,7.48220311 C17.0457863,7.36075603 17.2149352,7.45917004 17.2500027,7.58899278 C17.2500027,7.59318061 17.2541283,7.59318061 17.2541283,7.59736844 C17.456282,8.23182473 17.5346681,8.84743579 17.8915312,9.4295442 C18.2896501,10.076564 18.8692948,10.570728 19.5603303,10.8638761 C19.6015862,10.8806274 19.6284025,10.9099422 19.6469676,10.9434449 C19.6552188,10.939257 19.6614072,10.9350692 19.6696583,10.9308814 C20.538094,10.6167941 21.4807902,11.2826591 21.5261716,12.2102635 C21.5674274,13.0645809 20.8598896,13.7199764 20.0574633,13.6592528 C20.0719029,13.6864737 20.080154,13.7157885 20.080154,13.7513851 C20.1317239,16.0861005 19.6325281,18.9547643 17.8585265,20.6173329 C19.6160257,21.2036291 21.4085924,21.8192402 23.1702172,20.9628289 C23.1495893,20.9460776 23.1289614,20.9251384 23.1145218,20.8937297 C22.3863561,19.4196134 22.3017816,17.8324257 22.3059072,16.2138293 C22.3120955,14.2287977 22.347163,12.2416723 22.3616026,10.2566407 C22.3760421,8.56685116 22.4874329,6.77864762 21.9511068,5.14958162 C21.2580086,3.04729081 19.4592535,1.99195757 17.3242632,2.11131073 C17.3015725,2.11340465 17.2850702,2.1071229 17.2685679,2.10084115 C17.2355632,2.14062554 17.177805,2.16156469 17.1241724,2.12806205 C14.7086424,0.691636254 12.1755332,0.193284447 9.39695165,0.697918 C6.91128668,1.14810976 4.52051016,2.37305013 2.9404111,4.41252349 C1.18497468,6.6802336 0.63420908,9.6368418 0.786855725,12.4615334 C0.871430218,13.9859036 0.970444259,15.4495503 0.826048783,16.9760144 C0.689904478,18.4250037 0.520755492,19.8718991 0.363983262,21.3167005 C2.23906165,21.4863077 4.00068645,21.4381476 5.82625782,20.9732985 C5.42401328,20.7115591 5.04652225,20.4079414 4.70616149,20.0415062 L4.70616149,20.0415062 Z"/>
        </g>
      </g>
      <g transform="translate(7.266 50.13)">
        <path fill="#FEBBBA" d="M7.44525616,0 C11.5848187,0 14.9398921,3.359339 14.9398921,7.50522564 C14.9398921,11.6531907 11.5848382,15.0104513 7.44525616,15.0104513 C3.30434558,15.0104513 -5.09445735e-13,11.6573474 -5.09445735e-13,7.50522564 C-5.09445735e-13,3.35506679 3.30436512,0 7.44525616,0 Z"/>
        <path fill="#FFF" d="M5.00568271,3.00209026 L5.00568271,3.01430576 L4.97996404,3.01430576 L4.97996404,4.2651767 L6.10727531,4.2651767 C7.13133113,4.2651767 7.64825138,4.8176605 7.83467608,5.50383214 L5.00568271,5.50383214 L5.00568271,6.75470308 L7.83467608,6.75470308 C7.6488549,7.4413628 7.13257987,7.99580159 6.10727531,7.99580159 L5.75579486,7.99580159 L5.75150769,7.99091531 L5.74722161,7.99580159 L4.97996404,7.99580159 L4.97996404,9.24667315 L5.30358387,9.24667315 L8.65122575,13.0090578 L9.4227694,12.1197661 L6.79523492,9.16360657 C7.98548221,8.87910473 8.74968268,7.86926373 8.95984321,6.75470308 L10.4579245,6.75470308 L10.4579245,5.50383214 L8.95984321,5.50383214 C8.87471527,5.05385158 8.69016148,4.6283243 8.43262254,4.2529612 L10.4579245,4.2529612 L10.4579245,3.00209026 L5.00568271,3.00209026 Z"/>
      </g>
      <g transform="translate(0 2)">
        <path fill="#F1F1F1" fill-rule="nonzero" d="M1.37472939,0.183792143 C0.687443734,0.183792143 0.161872348,0.700000454 0.161872348,1.37504209 L0.161872348,29.6873927 C0.161872348,30.3624343 0.687443734,30.8786426 1.37472939,30.8786426 L22.8439081,30.8786426 C23.5311937,30.8786426 24.0567651,30.3624343 24.0567651,29.6873927 L24.0567651,1.37504209 C24.0567651,0.700000454 23.5311937,0.183792143 22.8439081,0.183792143 L1.37472939,0.183792143 Z"/>
        <polygon fill="#FEBBBA" points="3.927 5.256 21.12 5.256 21.12 6.46 3.927 6.46"/>
        <text fill="#FEBBBA" font-family="LucidaGrande-Bold, Lucida Grande" font-size="9.072" font-weight="bold">
          <tspan x="2.618" y="25.096">BILL</tspan>
        </text>
        <polygon fill="#FEBBBA" points="3.927 11.169 16.277 11.169 16.277 12.485 3.927 12.485"/>
      </g>
    </g>
    <g transform="translate(165 14)">
      <g transform="translate(0 57.487)">
        <polygon fill="#FFEBEB" points=".339 64.472 51.963 64.472 51.963 .063 .339 .063"/>
        <polygon fill="#FFEBEB" points=".339 75.647 7.686 75.647 7.686 58.36 .339 58.36"/>
        <polygon fill="#FFEBEB" points="44.616 75.647 51.963 75.647 51.963 58.36 44.616 58.36"/>
        <polygon fill="#FEBBBA" points="4.518 58.023 47.785 58.023 47.785 6.513 4.518 6.513"/>
        <path fill="#FFF" d="M9.98911391 43.4691465L7.95497329 43.4691465 7.56825454 44.6293028 6.33462172 44.6293028 8.43063735 38.9986778 9.50571547 38.9986778 11.6133327 44.6293028 10.3796998 44.6293028 9.98911391 43.4691465zM8.26821547 42.52942L9.67587172 42.52942 8.96817641 40.4218028 8.26821547 42.52942zM16.5594655 42.7537169C16.5156371 43.3595793 16.291987 43.8365276 15.8885084 44.1845762 15.4850299 44.5326248 14.9532969 44.7066465 14.2932936 44.7066465 13.571415 44.7066465 13.0035886 44.4636607 12.5897975 43.9776817 12.1760064 43.4917027 11.9691139 42.8246195 11.9691139 41.9764122L11.9691139 41.6322325C11.9691139 41.0908235 12.0645036 40.6138752 12.2552858 40.2013731 12.446068 39.788871 12.718702 39.4724094 13.0731959 39.2519786 13.4276899 39.0315478 13.8395413 38.921334 14.3087623 38.921334 14.9584531 38.921334 15.4818072 39.0953557 15.8788405 39.4434044 16.2758737 39.791453 16.5053245 40.2800028 16.5671998 40.9090684L15.4070436 40.9090684C15.3786841 40.545551 15.2774937 40.2819403 15.1034694 40.1182286 14.9294451 39.9545168 14.6645454 39.8726622 14.3087623 39.8726622 13.9220417 39.8726622 13.63265 40.011235 13.4405788 40.2883848 13.2485075 40.5655347 13.1498952 40.9954327 13.1447389 41.5780919L13.1447389 42.0034825C13.1447389 42.611923 13.236906 43.0566451 13.4212428 43.3376622 13.6055797 43.6186792 13.8962604 43.7591856 14.2932936 43.7591856 14.6516548 43.7591856 14.9191326 43.677331 15.095735 43.5136192 15.2723375 43.3499074 15.3735278 43.0966092 15.3993092 42.7537169L16.5594655 42.7537169zM21.7414967 42.7537169C21.6976684 43.3595793 21.4740183 43.8365276 21.0705397 44.1845762 20.6670611 44.5326248 20.1353281 44.7066465 19.4753248 44.7066465 18.7534462 44.7066465 18.1856199 44.4636607 17.7718288 43.9776817 17.3580376 43.4917027 17.1511452 42.8246195 17.1511452 41.9764122L17.1511452 41.6322325C17.1511452 41.0908235 17.2465348 40.6138752 17.437317 40.2013731 17.6280992 39.788871 17.9007332 39.4724094 18.2552272 39.2519786 18.6097212 39.0315478 19.0215725 38.921334 19.4907936 38.921334 20.1404843 38.921334 20.6638385 39.0953557 21.0608717 39.4434044 21.457905 39.791453 21.6873558 40.2800028 21.7492311 40.9090684L20.5890748 40.9090684C20.5607153 40.545551 20.4595249 40.2819403 20.2855006 40.1182286 20.1114763 39.9545168 19.8465766 39.8726622 19.4907936 39.8726622 19.1040729 39.8726622 18.8146813 40.011235 18.62261 40.2883848 18.4305387 40.5655347 18.3319264 40.9954327 18.3267702 41.5780919L18.3267702 42.0034825C18.3267702 42.611923 18.4189372 43.0566451 18.6032741 43.3376622 18.7876109 43.6186792 19.0782916 43.7591856 19.4753248 43.7591856 19.833686 43.7591856 20.1011638 43.677331 20.2777663 43.5136192 20.4543687 43.3499074 20.5555591 43.0966092 20.5813405 42.7537169L21.7414967 42.7537169zM25.8909889 42.1891075L23.6634889 42.1891075 23.6634889 43.6973106 26.2777077 43.6973106 26.2777077 44.6293028 22.5033327 44.6293028 22.5033327 38.9986778 26.2699733 38.9986778 26.2699733 39.9384044 23.6634889 39.9384044 23.6634889 41.2803184 25.8909889 41.2803184 25.8909889 42.1891075zM28.1184889 42.6454356L28.1184889 44.6293028 26.9583327 44.6293028 26.9583327 38.9986778 29.1548952 38.9986778C29.5777098 38.9986778 29.9496006 39.0760208 30.2705788 39.230709 30.5915569 39.3853973 30.8384099 39.6051803 31.0111452 39.8900645 31.1838804 40.1749488 31.2702467 40.4991447 31.2702467 40.8626622 31.2702467 41.4143837 31.081401 41.8494379 30.7037038 42.167838 30.3260066 42.486238 29.8032969 42.6454356 29.1355592 42.6454356L28.1184889 42.6454356zM28.1184889 41.705709L29.1548952 41.705709C29.4616936 41.705709 29.6956561 41.6335223 29.8567897 41.4891465 30.0179233 41.3447708 30.0984889 41.1385229 30.0984889 40.8703965 30.0984889 40.5945358 30.0172788 40.3715302 29.8548561 40.2013731 29.6924334 40.031216 29.4681388 39.9435606 29.1819655 39.9384044L28.1184889 39.9384044 28.1184889 41.705709zM36.3053248 39.9384044L34.5805592 39.9384044 34.5805592 44.6293028 33.420403 44.6293028 33.420403 39.9384044 31.7188405 39.9384044 31.7188405 38.9986778 36.3053248 38.9986778 36.3053248 39.9384044zM40.3542702 42.1891075L38.1267702 42.1891075 38.1267702 43.6973106 40.7409889 43.6973106 40.7409889 44.6293028 36.9666139 44.6293028 36.9666139 38.9986778 40.7332545 38.9986778 40.7332545 39.9384044 38.1267702 39.9384044 38.1267702 41.2803184 40.3542702 41.2803184 40.3542702 42.1891075zM41.4216139 44.6293028L41.4216139 38.9986778 43.1541139 38.9986778C43.6491164 38.9986778 44.0919049 39.1101806 44.4824928 39.3331895 44.8730807 39.5561984 45.1779409 39.8733046 45.3970827 40.2845176 45.6162244 40.6957306 45.7257936 41.1630111 45.7257936 41.6863731L45.7257936 41.9454747C45.7257936 42.4688367 45.618158 42.9341836 45.4028834 43.3415294 45.1876089 43.7488751 44.8840377 44.0646923 44.4921608 44.2889903 44.1002838 44.5132883 43.6581398 44.6267247 43.1657155 44.6293028L41.4216139 44.6293028zM42.5817702 39.9384044L42.5817702 43.6973106 43.1425123 43.6973106C43.5962646 43.6973106 43.943019 43.5490699 44.1827858 43.252584 44.4225526 42.9560982 44.5450123 42.5320009 44.5501686 41.9802794L44.5501686 41.6825059C44.5501686 41.1101593 44.431576 40.6763941 44.1943873 40.3811973 43.9571987 40.0860005 43.6104443 39.9384044 43.1541139 39.9384044L42.5817702 39.9384044zM20.435657 17L20.435657 26.745935C20.435657 28.3651842 19.9250198 29.6456592 18.9037299 30.5873984 17.88244 31.5291375 16.4871535 32 14.7178285 32 12.975829 32 11.5924973 31.5426875 10.5677917 30.6280488 9.54308612 29.7134101 9.02049411 28.4566476 9 26.8577236L9 17 12.0741014 17 12.0741014 26.7662602C12.0741014 27.7350997 12.3080723 28.4413934 12.7760212 28.8851626 13.24397 29.3289318 13.8912327 29.550813 14.7178285 29.550813 16.4461653 29.550813 17.3239832 28.649738 17.3513087 26.847561L17.3513087 17 20.435657 17zM27.1497677 26.5833333L27.1497677 31.796748 24.0756664 31.796748 24.0756664 17 29.8959649 17C31.0163097 17 32.0017201 17.20325 32.8522257 17.6097561 33.7027314 18.0162622 34.3568253 18.5938309 34.8145271 19.3424797 35.2722289 20.0911284 35.5010764 20.9430847 35.5010764 21.898374 35.5010764 23.3482457 35.000686 24.491527 33.9998903 25.328252 32.9990945 26.1649771 31.6140549 26.5833333 29.8447299 26.5833333L27.1497677 26.5833333zM27.1497677 24.1138211L29.8959649 24.1138211C30.708898 24.1138211 31.3288356 23.9241211 31.7557963 23.5447154 32.1827569 23.1653098 32.396234 22.6233098 32.396234 21.9186992 32.396234 21.1937633 32.1810491 20.6077258 31.7506728 20.1605691 31.3202964 19.7134124 30.7259761 19.4830624 29.967694 19.4695122L27.1497677 19.4695122 27.1497677 24.1138211zM42 31.796748L38.9258986 31.796748 38.9258986 17 42 17 42 31.796748z"/>
      </g>
      <g transform="translate(89)">
        <g transform="translate(.218)">
          <polygon fill="#ECECEC" points="144.044 85.163 155.868 85.163 155.868 22.24 144.044 22.24"/>
          <polygon fill="#ECECEC" points="18.812 85.163 30.636 85.163 30.636 22.24 18.812 22.24"/>
          <path fill="#FBCFCE" d="M25.0807812,29.470351 C25.0807812,35.1963726 19.4673816,39.8385943 12.5473778,39.8385943 C5.6246866,39.8385943 0.0112869965,35.1963726 0.0112869965,29.470351 L25.0807812,29.470351"/>
          <path fill="#FFEBEB" d="M50.1502754,29.470351 C50.1502754,35.1963726 44.5374133,39.8385943 37.616872,39.8385943 C30.6936433,39.8385943 25.0807812,35.1963726 25.0807812,29.470351 L50.1502754,29.470351"/>
          <path fill="#FBCFCE" d="M75.2197696,29.470351 C75.2197696,35.1963726 69.60637,39.8385943 62.6863662,39.8385943 C55.7631375,39.8385943 50.1502754,35.1963726 50.1502754,29.470351 L75.2197696,29.470351"/>
          <path fill="#FFEBEB" d="M100.289264,29.470351 C100.289264,35.1963726 94.6758642,39.8385943 87.755323,39.8385943 C80.8331692,39.8385943 75.2197696,35.1963726 75.2197696,29.470351 L100.289264,29.470351"/>
          <path fill="#FBCFCE" d="M125.358221,29.470351 C125.358221,35.1963726 119.745358,39.8385943 112.825355,39.8385943 C105.902126,39.8385943 100.289264,35.1963726 100.289264,29.470351 L125.358221,29.470351"/>
          <path fill="#FFEBEB" d="M150.428252,29.470351 C150.428252,35.1963726 144.814853,39.8385943 137.894311,39.8385943 C130.97162,39.8385943 125.358221,35.1963726 125.358221,29.470351 L150.428252,29.470351"/>
          <path fill="#FBCFCE" d="M175.497209,29.470351 C175.497209,35.1963726 169.884347,39.8385943 162.963806,39.8385943 C156.040577,39.8385943 150.428252,35.1963726 150.428252,29.470351 L175.497209,29.470351"/>
          <polyline fill="#FBCFCE" points="25.081 29.47 42.801 .592 19.53 .592 .011 29.47 25.081 29.47"/>
          <polyline fill="#FFEBEB" points="50.15 29.47 60.678 .592 42.801 .592 25.081 29.47 50.15 29.47"/>
          <polyline fill="#FBCFCE" points="75.22 29.47 78.401 .592 60.678 .592 50.15 29.47 75.22 29.47"/>
          <polyline fill="#FBCFCE" points="150.428 29.47 132.708 .592 155.978 .592 175.497 29.47 150.428 29.47"/>
          <polyline fill="#FFEBEB" points="125.358 29.47 114.831 .592 132.708 .592 150.428 29.47 125.358 29.47"/>
          <polyline fill="#FBCFCE" points="100.289 29.47 97.108 .592 114.831 .592 125.358 29.47 100.289 29.47"/>
          <polyline fill="#FFEBEB" points="78.401 .592 75.22 29.47 100.289 29.47 97.108 .592 78.401 .592"/>
          <polygon fill="#FBCFCE" points="9.675 119.88 165.543 119.88 165.543 78.654 9.675 78.654"/>
          <polygon fill="#FFEBEB" points="16.469 113.37 158.748 113.37 158.748 85.163 16.469 85.163"/>
          <polygon fill="#F1F1F1" points="48.533 78.654 75.406 78.654 75.406 53.702 48.533 53.702"/>
          <polygon fill="#FDDADA" points="48.484 53.702 58.159 53.702 58.159 46.108 48.484 46.108"/>
          <path fill="#FBCFCE" d="M121.175474,65.0594519 C120.973921,64.2501279 120.3139,63.6317436 119.489412,63.4983027 L119.312582,61.2162477 L119.001384,61.2162477 L118.824554,63.4983027 C118.000066,63.6317436 117.340583,64.2501279 117.139029,65.0594519 L116.230695,65.0594519 L116.230695,66.0787011 L116.981011,66.0787011 L116.981011,78.7333389 L121.332955,78.7333389 L121.332955,66.0787011 L122.083271,66.0787011 L122.083271,65.0594519 L121.175474,65.0594519"/>
          <path fill="#F69A98" d="M120.555764,71.4119943 C120.555764,72.7111438 119.929067,73.7651093 119.157252,73.7651093 C118.384361,73.7651093 117.758202,72.7111438 117.758202,71.4119943 C117.758202,70.1133873 118.384361,69.0594218 119.157252,69.0594218 C119.929067,69.0594218 120.555764,70.1133873 120.555764,71.4119943"/>
          <path fill="#FBCFCE" d="M130.671063,74.3802389 C130.671063,73.0322697 130.17551,71.8448634 129.412832,71.0474731 L130.138962,71.0474731 L130.138962,70.0276814 L129.230627,70.0276814 C129.029074,69.2183574 128.369591,68.5983458 127.545103,68.464905 L127.367736,66.1844773 L127.057074,66.1844773 L126.879707,68.464905 C126.055219,68.5983458 125.395736,69.2183574 125.194182,70.0276814 L124.286385,70.0276814 L124.286385,71.0474731 L125.011978,71.0474731 C124.2493,71.8448634 123.754284,73.0322697 123.754284,74.3802389 C123.754284,76.7848859 123.559718,78.7333389 127.212405,78.7333389 C130.865092,78.7333389 130.671063,76.7848859 130.671063,74.3802389"/>
          <path fill="#F69A98" d="M129.388645,74.8120231 C129.388645,76.1111725 128.413664,77.165138 127.212405,77.165138 C126.011684,77.165138 125.036165,76.1111725 125.036165,74.8120231 C125.036165,73.5117887 126.011684,72.4589081 127.212405,72.4589081 C128.413664,72.4589081 129.388645,73.5117887 129.388645,74.8120231"/>
        </g>
        <g transform="translate(22.437 100.128)">
          <path fill="#CFCFCF" fill-rule="nonzero" d="M16.8864278,0.273082052 C7.72513868,0.273082052 0.271389019,7.77333119 0.271389019,16.9917722 C0.271389019,26.2102131 7.72513868,33.7104623 16.8864278,33.7104623 C26.047717,33.7104623 33.5014667,26.2102131 33.5014667,16.9917722 C33.5014667,7.77333119 26.047717,0.273082052 16.8864278,0.273082052 Z M18.4580718,3.53145665 C22.0327678,3.95139616 25.1836948,5.78327102 27.3439514,8.458666 L18.4580718,14.1185444 L18.4580718,3.53145665 Z M15.3147839,3.53145665 L15.3147839,14.118949 L6.42890432,8.458666 C8.58916091,5.78327102 11.7400879,3.95180072 15.3147839,3.53145665 Z M4.74186976,22.8555518 C3.89191956,21.0803162 3.415079,19.0910651 3.415079,16.9917722 C3.415079,14.8924792 3.89191956,12.9032281 4.74227182,11.1279925 L13.9477873,16.9917722 L4.74186976,22.8555518 Z M15.3147839,30.4520877 C11.7400879,30.0317436 8.58916091,28.2002733 6.42890432,25.5248783 L15.3147839,19.8645953 L15.3147839,30.4520877 Z M16.8864278,18.7560845 C15.9178706,18.7560845 15.1330538,17.9659671 15.1330538,16.9917722 C15.1330538,16.0175772 15.9182727,15.2274598 16.8864278,15.2274598 C17.8549851,15.2274598 18.6398019,16.0175772 18.6398019,16.9917722 C18.6398019,17.9659671 17.8549851,18.7560845 16.8864278,18.7560845 Z M18.4580718,30.4520877 L18.4580718,19.8645953 L27.3439514,25.5248783 C25.1836948,28.2002733 22.0327678,30.0317436 18.4580718,30.4520877 Z M19.8250683,16.9917722 L29.0309859,11.1279925 C29.8813382,12.9036327 30.3581787,14.8928837 30.3581787,16.9917722 C30.3581787,19.0906606 29.8813382,21.0803162 29.0309859,22.8555518 L19.8250683,16.9917722 Z"/>
          <ellipse cx="16.886" cy="16.992" fill="#AAA" rx="2.666" ry="2.683"/>
        </g>
        <g transform="translate(120.2 100.128)">
          <path fill="#CFCFCF" fill-rule="nonzero" d="M16.8864278,0.273082052 C7.72513868,0.273082052 0.271389019,7.77333119 0.271389019,16.9917722 C0.271389019,26.2102131 7.72513868,33.7104623 16.8864278,33.7104623 C26.047717,33.7104623 33.5014667,26.2102131 33.5014667,16.9917722 C33.5014667,7.77333119 26.047717,0.273082052 16.8864278,0.273082052 Z M18.4580718,3.53145665 C22.0327678,3.95139616 25.1836948,5.78327102 27.3439514,8.458666 L18.4580718,14.1185444 L18.4580718,3.53145665 Z M15.3147839,3.53145665 L15.3147839,14.118949 L6.42890432,8.458666 C8.58916091,5.78327102 11.7400879,3.95180072 15.3147839,3.53145665 Z M4.74186976,22.8555518 C3.89191956,21.0803162 3.415079,19.0910651 3.415079,16.9917722 C3.415079,14.8924792 3.89191956,12.9032281 4.74227182,11.1279925 L13.9477873,16.9917722 L4.74186976,22.8555518 Z M15.3147839,30.4520877 C11.7400879,30.0317436 8.58916091,28.2002733 6.42890432,25.5248783 L15.3147839,19.8645953 L15.3147839,30.4520877 Z M16.8864278,18.7560845 C15.9178706,18.7560845 15.1330538,17.9659671 15.1330538,16.9917722 C15.1330538,16.0175772 15.9182727,15.2274598 16.8864278,15.2274598 C17.8549851,15.2274598 18.6398019,16.0175772 18.6398019,16.9917722 C18.6398019,17.9659671 17.8549851,18.7560845 16.8864278,18.7560845 Z M18.4580718,30.4520877 L18.4580718,19.8645953 L27.3439514,25.5248783 C25.1836948,28.2002733 22.0327678,30.0317436 18.4580718,30.4520877 Z M19.8250683,16.9917722 L29.0309859,11.1279925 C29.8813382,12.9036327 30.3581787,14.8928837 30.3581787,16.9917722 C30.3581787,19.0906606 29.8813382,21.0803162 29.0309859,22.8555518 L19.8250683,16.9917722 Z"/>
          <ellipse cx="16.886" cy="16.992" fill="#AAA" rx="2.666" ry="2.683"/>
        </g>
      </g>
    </g>
  </g>
</svg>
