<svg xmlns="http://www.w3.org/2000/svg" width="77" height="77" viewBox="0 0 77 77">
  <g fill="none" fill-rule="evenodd" transform="translate(2 8)">
    <g transform="translate(16.408)">
      <path fill="#F1F1F1" d="M0.115612883,2.86404384 C0.115612883,1.28227611 1.396962,0 2.99230742,0 L35.0984783,0 C36.6872328,0 37.9751728,1.29405464 37.9751728,2.86404384 L37.9751728,59.0926997 C37.9751728,60.6744675 36.6938237,61.9567436 35.0984783,61.9567436 L2.99230742,61.9567436 C1.4035529,61.9567436 0.115612883,60.6626889 0.115612883,59.0926997 L0.115612883,2.86404384 Z"/>
      <path fill="#FEBBBA" d="M19.5923674,60.4102564 C20.6969369,60.4102564 21.5923674,59.5205658 21.5923674,58.4230769 C21.5923674,57.325588 20.6969369,56.4358974 19.5923674,56.4358974 C18.4877979,56.4358974 17.5923674,57.325588 17.5923674,58.4230769 C17.5923674,59.5205658 18.4877979,60.4102564 19.5923674,60.4102564 Z" opacity=".5"/>
      <path fill="#FEDBDA" d="M3.09816374,7.95812551 C3.09816374,7.31879985 3.62029704,6.800524 4.24153898,6.800524 L33.5560586,6.800524 C34.1875273,6.800524 34.6994339,7.31530082 34.6994339,7.95812551 L34.6994339,54.4191258 C34.6994339,55.0584515 34.1773006,55.5767273 33.5560586,55.5767273 L4.24153898,55.5767273 C3.61007027,55.5767273 3.09816374,55.0619505 3.09816374,54.4191258 L3.09816374,7.95812551 Z"/>
      <path fill="#F69A98" d="M13.1811487,4.46490801 C12.8805329,4.46490801 12.6368357,4.20673364 12.6368357,3.88825937 C12.6368357,3.56978511 12.8805329,3.31161074 13.1811487,3.31161074 C13.4817645,3.31161074 13.7254617,3.56978511 13.7254617,3.88825937 C13.7254617,4.20673364 13.4817645,4.46490801 13.1811487,4.46490801 Z M11.6389285,4.46490801 C11.3383128,4.46490801 11.0946155,4.20673364 11.0946155,3.88825937 C11.0946155,3.56978511 11.3383128,3.31161074 11.6389285,3.31161074 C11.9395443,3.31161074 12.1832416,3.56978511 12.1832416,3.88825937 C12.1832416,4.20673364 11.9395443,4.46490801 11.6389285,4.46490801 Z"/>
      <g fill="#AAA" transform="translate(14.07 3.081)">
        <path d="M0.860032658,1.61461618 C0.784384458,1.61461618 0.723059482,1.55437549 0.723059482,1.48006483 C0.723059482,1.40575417 0.784384458,1.34551348 0.860032658,1.34551348 C0.935680858,1.34551348 0.997005834,1.40575417 0.997005834,1.48006483 C0.997005834,1.55437549 0.935680858,1.61461618 0.860032658,1.61461618 Z M1.31660991,1.61461618 C1.24096171,1.61461618 1.17963673,1.55437549 1.17963673,1.48006483 C1.17963673,1.40575417 1.24096171,1.34551348 1.31660991,1.34551348 C1.39225811,1.34551348 1.45358309,1.40575417 1.45358309,1.48006483 C1.45358309,1.55437549 1.39225811,1.61461618 1.31660991,1.61461618 Z M0.860032658,1.16611169 C0.784384458,1.16611169 0.723059482,1.105871 0.723059482,1.03156034 C0.723059482,0.957249676 0.784384458,0.897008989 0.860032658,0.897008989 C0.935680858,0.897008989 0.997005834,0.957249676 0.997005834,1.03156034 C0.997005834,1.105871 0.935680858,1.16611169 0.860032658,1.16611169 Z M1.31660991,1.16611169 C1.24096171,1.16611169 1.17963673,1.105871 1.17963673,1.03156034 C1.17963673,0.957249676 1.24096171,0.897008989 1.31660991,0.897008989 C1.39225811,0.897008989 1.45358309,0.957249676 1.45358309,1.03156034 C1.45358309,1.105871 1.39225811,1.16611169 1.31660991,1.16611169 Z M0.860032658,0.717607191 C0.784384458,0.717607191 0.723059482,0.657366504 0.723059482,0.583055843 C0.723059482,0.508745181 0.784384458,0.448504495 0.860032658,0.448504495 C0.935680858,0.448504495 0.997005834,0.508745181 0.997005834,0.583055843 C0.997005834,0.657366504 0.935680858,0.717607191 0.860032658,0.717607191 Z M1.31660991,0.717607191 C1.24096171,0.717607191 1.17963673,0.657366504 1.17963673,0.583055843 C1.17963673,0.508745181 1.24096171,0.448504495 1.31660991,0.448504495 C1.39225811,0.448504495 1.45358309,0.508745181 1.45358309,0.583055843 C1.45358309,0.657366504 1.39225811,0.717607191 1.31660991,0.717607191 Z M0.860032658,0.269102697 C0.784384458,0.269102697 0.723059482,0.20886201 0.723059482,0.134551348 C0.723059482,0.0602406869 0.784384458,0 0.860032658,0 C0.935680858,0 0.997005834,0.0602406869 0.997005834,0.134551348 C0.997005834,0.20886201 0.935680858,0.269102697 0.860032658,0.269102697 Z M1.31660991,0.269102697 C1.24096171,0.269102697 1.17963673,0.20886201 1.17963673,0.134551348 C1.17963673,0.0602406869 1.24096171,0 1.31660991,0 C1.39225811,0 1.45358309,0.0602406869 1.45358309,0.134551348 C1.45358309,0.20886201 1.39225811,0.269102697 1.31660991,0.269102697 Z M1.77318716,1.61461618 C1.69753896,1.61461618 1.63621399,1.55437549 1.63621399,1.48006483 C1.63621399,1.40575417 1.69753896,1.34551348 1.77318716,1.34551348 C1.84883536,1.34551348 1.91016034,1.40575417 1.91016034,1.48006483 C1.91016034,1.55437549 1.84883536,1.61461618 1.77318716,1.61461618 Z M2.22976442,1.61461618 C2.15411622,1.61461618 2.09279124,1.55437549 2.09279124,1.48006483 C2.09279124,1.40575417 2.15411622,1.34551348 2.22976442,1.34551348 C2.30541262,1.34551348 2.36673759,1.40575417 2.36673759,1.48006483 C2.36673759,1.55437549 2.30541262,1.61461618 2.22976442,1.61461618 Z M1.77318716,1.16611169 C1.69753896,1.16611169 1.63621399,1.105871 1.63621399,1.03156034 C1.63621399,0.957249676 1.69753896,0.897008989 1.77318716,0.897008989 C1.84883536,0.897008989 1.91016034,0.957249676 1.91016034,1.03156034 C1.91016034,1.105871 1.84883536,1.16611169 1.77318716,1.16611169 Z M2.22976442,1.16611169 C2.15411622,1.16611169 2.09279124,1.105871 2.09279124,1.03156034 C2.09279124,0.957249676 2.15411622,0.897008989 2.22976442,0.897008989 C2.30541262,0.897008989 2.36673759,0.957249676 2.36673759,1.03156034 C2.36673759,1.105871 2.30541262,1.16611169 2.22976442,1.16611169 Z M1.77318716,0.717607191 C1.69753896,0.717607191 1.63621399,0.657366504 1.63621399,0.583055843 C1.63621399,0.508745181 1.69753896,0.448504495 1.77318716,0.448504495 C1.84883536,0.448504495 1.91016034,0.508745181 1.91016034,0.583055843 C1.91016034,0.657366504 1.84883536,0.717607191 1.77318716,0.717607191 Z M2.22976442,0.717607191 C2.15411622,0.717607191 2.09279124,0.657366504 2.09279124,0.583055843 C2.09279124,0.508745181 2.15411622,0.448504495 2.22976442,0.448504495 C2.30541262,0.448504495 2.36673759,0.508745181 2.36673759,0.583055843 C2.36673759,0.657366504 2.30541262,0.717607191 2.22976442,0.717607191 Z M1.77318716,0.269102697 C1.69753896,0.269102697 1.63621399,0.20886201 1.63621399,0.134551348 C1.63621399,0.0602406869 1.69753896,0 1.77318716,0 C1.84883536,0 1.91016034,0.0602406869 1.91016034,0.134551348 C1.91016034,0.20886201 1.84883536,0.269102697 1.77318716,0.269102697 Z M2.22976442,0.269102697 C2.15411622,0.269102697 2.09279124,0.20886201 2.09279124,0.134551348 C2.09279124,0.0602406869 2.15411622,0 2.22976442,0 C2.30541262,0 2.36673759,0.0602406869 2.36673759,0.134551348 C2.36673759,0.20886201 2.30541262,0.269102697 2.22976442,0.269102697 Z M2.68634167,1.61461618 C2.61069347,1.61461618 2.54936849,1.55437549 2.54936849,1.48006483 C2.54936849,1.40575417 2.61069347,1.34551348 2.68634167,1.34551348 C2.76198987,1.34551348 2.82331485,1.40575417 2.82331485,1.48006483 C2.82331485,1.55437549 2.76198987,1.61461618 2.68634167,1.61461618 Z M3.14291892,1.61461618 C3.06727072,1.61461618 3.00594575,1.55437549 3.00594575,1.48006483 C3.00594575,1.40575417 3.06727072,1.34551348 3.14291892,1.34551348 C3.21856712,1.34551348 3.2798921,1.40575417 3.2798921,1.48006483 C3.2798921,1.55437549 3.21856712,1.61461618 3.14291892,1.61461618 Z M2.68634167,1.16611169 C2.61069347,1.16611169 2.54936849,1.105871 2.54936849,1.03156034 C2.54936849,0.957249676 2.61069347,0.897008989 2.68634167,0.897008989 C2.76198987,0.897008989 2.82331485,0.957249676 2.82331485,1.03156034 C2.82331485,1.105871 2.76198987,1.16611169 2.68634167,1.16611169 Z M3.14291892,1.16611169 C3.06727072,1.16611169 3.00594575,1.105871 3.00594575,1.03156034 C3.00594575,0.957249676 3.06727072,0.897008989 3.14291892,0.897008989 C3.21856712,0.897008989 3.2798921,0.957249676 3.2798921,1.03156034 C3.2798921,1.105871 3.21856712,1.16611169 3.14291892,1.16611169 Z M2.68634167,0.717607191 C2.61069347,0.717607191 2.54936849,0.657366504 2.54936849,0.583055843 C2.54936849,0.508745181 2.61069347,0.448504495 2.68634167,0.448504495 C2.76198987,0.448504495 2.82331485,0.508745181 2.82331485,0.583055843 C2.82331485,0.657366504 2.76198987,0.717607191 2.68634167,0.717607191 Z M3.14291892,0.717607191 C3.06727072,0.717607191 3.00594575,0.657366504 3.00594575,0.583055843 C3.00594575,0.508745181 3.06727072,0.448504495 3.14291892,0.448504495 C3.21856712,0.448504495 3.2798921,0.508745181 3.2798921,0.583055843 C3.2798921,0.657366504 3.21856712,0.717607191 3.14291892,0.717607191 Z M2.68634167,0.269102697 C2.61069347,0.269102697 2.54936849,0.20886201 2.54936849,0.134551348 C2.54936849,0.0602406869 2.61069347,0 2.68634167,0 C2.76198987,0 2.82331485,0.0602406869 2.82331485,0.134551348 C2.82331485,0.20886201 2.76198987,0.269102697 2.68634167,0.269102697 Z M3.14291892,0.269102697 C3.06727072,0.269102697 3.00594575,0.20886201 3.00594575,0.134551348 C3.00594575,0.0602406869 3.06727072,0 3.14291892,0 C3.21856712,0 3.2798921,0.0602406869 3.2798921,0.134551348 C3.2798921,0.20886201 3.21856712,0.269102697 3.14291892,0.269102697 Z M3.59949618,1.61461618 C3.52384798,1.61461618 3.462523,1.55437549 3.462523,1.48006483 C3.462523,1.40575417 3.52384798,1.34551348 3.59949618,1.34551348 C3.67514438,1.34551348 3.73646935,1.40575417 3.73646935,1.48006483 C3.73646935,1.55437549 3.67514438,1.61461618 3.59949618,1.61461618 Z M4.05607343,1.61461618 C3.98042523,1.61461618 3.91910025,1.55437549 3.91910025,1.48006483 C3.91910025,1.40575417 3.98042523,1.34551348 4.05607343,1.34551348 C4.13172163,1.34551348 4.19304661,1.40575417 4.19304661,1.48006483 C4.19304661,1.55437549 4.13172163,1.61461618 4.05607343,1.61461618 Z M3.59949618,1.16611169 C3.52384798,1.16611169 3.462523,1.105871 3.462523,1.03156034 C3.462523,0.957249676 3.52384798,0.897008989 3.59949618,0.897008989 C3.67514438,0.897008989 3.73646935,0.957249676 3.73646935,1.03156034 C3.73646935,1.105871 3.67514438,1.16611169 3.59949618,1.16611169 Z M4.05607343,1.16611169 C3.98042523,1.16611169 3.91910025,1.105871 3.91910025,1.03156034 C3.91910025,0.957249676 3.98042523,0.897008989 4.05607343,0.897008989 C4.13172163,0.897008989 4.19304661,0.957249676 4.19304661,1.03156034 C4.19304661,1.105871 4.13172163,1.16611169 4.05607343,1.16611169 Z M3.59949618,0.717607191 C3.52384798,0.717607191 3.462523,0.657366504 3.462523,0.583055843 C3.462523,0.508745181 3.52384798,0.448504495 3.59949618,0.448504495 C3.67514438,0.448504495 3.73646935,0.508745181 3.73646935,0.583055843 C3.73646935,0.657366504 3.67514438,0.717607191 3.59949618,0.717607191 Z M4.05607343,0.717607191 C3.98042523,0.717607191 3.91910025,0.657366504 3.91910025,0.583055843 C3.91910025,0.508745181 3.98042523,0.448504495 4.05607343,0.448504495 C4.13172163,0.448504495 4.19304661,0.508745181 4.19304661,0.583055843 C4.19304661,0.657366504 4.13172163,0.717607191 4.05607343,0.717607191 Z M3.59949618,0.269102697 C3.52384798,0.269102697 3.462523,0.20886201 3.462523,0.134551348 C3.462523,0.0602406869 3.52384798,0 3.59949618,0 C3.67514438,0 3.73646935,0.0602406869 3.73646935,0.134551348 C3.73646935,0.20886201 3.67514438,0.269102697 3.59949618,0.269102697 Z M4.05607343,0.269102697 C3.98042523,0.269102697 3.91910025,0.20886201 3.91910025,0.134551348 C3.91910025,0.0602406869 3.98042523,0 4.05607343,0 C4.13172163,0 4.19304661,0.0602406869 4.19304661,0.134551348 C4.19304661,0.20886201 4.13172163,0.269102697 4.05607343,0.269102697 Z M4.51265068,1.61461618 C4.43700248,1.61461618 4.37567751,1.55437549 4.37567751,1.48006483 C4.37567751,1.40575417 4.43700248,1.34551348 4.51265068,1.34551348 C4.58829888,1.34551348 4.64962386,1.40575417 4.64962386,1.48006483 C4.64962386,1.55437549 4.58829888,1.61461618 4.51265068,1.61461618 Z M4.96922794,1.61461618 C4.89357974,1.61461618 4.83225476,1.55437549 4.83225476,1.48006483 C4.83225476,1.40575417 4.89357974,1.34551348 4.96922794,1.34551348 C5.04487614,1.34551348 5.10620111,1.40575417 5.10620111,1.48006483 C5.10620111,1.55437549 5.04487614,1.61461618 4.96922794,1.61461618 Z M4.51265068,1.16611169 C4.43700248,1.16611169 4.37567751,1.105871 4.37567751,1.03156034 C4.37567751,0.957249676 4.43700248,0.897008989 4.51265068,0.897008989 C4.58829888,0.897008989 4.64962386,0.957249676 4.64962386,1.03156034 C4.64962386,1.105871 4.58829888,1.16611169 4.51265068,1.16611169 Z M4.96922794,1.16611169 C4.89357974,1.16611169 4.83225476,1.105871 4.83225476,1.03156034 C4.83225476,0.957249676 4.89357974,0.897008989 4.96922794,0.897008989 C5.04487614,0.897008989 5.10620111,0.957249676 5.10620111,1.03156034 C5.10620111,1.105871 5.04487614,1.16611169 4.96922794,1.16611169 Z M4.51265068,0.717607191 C4.43700248,0.717607191 4.37567751,0.657366504 4.37567751,0.583055843 C4.37567751,0.508745181 4.43700248,0.448504495 4.51265068,0.448504495 C4.58829888,0.448504495 4.64962386,0.508745181 4.64962386,0.583055843 C4.64962386,0.657366504 4.58829888,0.717607191 4.51265068,0.717607191 Z M4.96922794,0.717607191 C4.89357974,0.717607191 4.83225476,0.657366504 4.83225476,0.583055843 C4.83225476,0.508745181 4.89357974,0.448504495 4.96922794,0.448504495 C5.04487614,0.448504495 5.10620111,0.508745181 5.10620111,0.583055843 C5.10620111,0.657366504 5.04487614,0.717607191 4.96922794,0.717607191 Z M4.51265068,0.269102697 C4.43700248,0.269102697 4.37567751,0.20886201 4.37567751,0.134551348 C4.37567751,0.0602406869 4.43700248,0 4.51265068,0 C4.58829888,0 4.64962386,0.0602406869 4.64962386,0.134551348 C4.64962386,0.20886201 4.58829888,0.269102697 4.51265068,0.269102697 Z M4.96922794,0.269102697 C4.89357974,0.269102697 4.83225476,0.20886201 4.83225476,0.134551348 C4.83225476,0.0602406869 4.89357974,0 4.96922794,0 C5.04487614,0 5.10620111,0.0602406869 5.10620111,0.134551348 C5.10620111,0.20886201 5.04487614,0.269102697 4.96922794,0.269102697 Z M5.42580519,1.61461618 C5.35015699,1.61461618 5.28883201,1.55437549 5.28883201,1.48006483 C5.28883201,1.40575417 5.35015699,1.34551348 5.42580519,1.34551348 C5.50145339,1.34551348 5.56277837,1.40575417 5.56277837,1.48006483 C5.56277837,1.55437549 5.50145339,1.61461618 5.42580519,1.61461618 Z M5.88238244,1.61461618 C5.80673424,1.61461618 5.74540927,1.55437549 5.74540927,1.48006483 C5.74540927,1.40575417 5.80673424,1.34551348 5.88238244,1.34551348 C5.95803064,1.34551348 6.01935562,1.40575417 6.01935562,1.48006483 C6.01935562,1.55437549 5.95803064,1.61461618 5.88238244,1.61461618 Z M5.42580519,1.16611169 C5.35015699,1.16611169 5.28883201,1.105871 5.28883201,1.03156034 C5.28883201,0.957249676 5.35015699,0.897008989 5.42580519,0.897008989 C5.50145339,0.897008989 5.56277837,0.957249676 5.56277837,1.03156034 C5.56277837,1.105871 5.50145339,1.16611169 5.42580519,1.16611169 Z M5.88238244,1.16611169 C5.80673424,1.16611169 5.74540927,1.105871 5.74540927,1.03156034 C5.74540927,0.957249676 5.80673424,0.897008989 5.88238244,0.897008989 C5.95803064,0.897008989 6.01935562,0.957249676 6.01935562,1.03156034 C6.01935562,1.105871 5.95803064,1.16611169 5.88238244,1.16611169 Z M5.42580519,0.717607191 C5.35015699,0.717607191 5.28883201,0.657366504 5.28883201,0.583055843 C5.28883201,0.508745181 5.35015699,0.448504495 5.42580519,0.448504495 C5.50145339,0.448504495 5.56277837,0.508745181 5.56277837,0.583055843 C5.56277837,0.657366504 5.50145339,0.717607191 5.42580519,0.717607191 Z M5.88238244,0.717607191 C5.80673424,0.717607191 5.74540927,0.657366504 5.74540927,0.583055843 C5.74540927,0.508745181 5.80673424,0.448504495 5.88238244,0.448504495 C5.95803064,0.448504495 6.01935562,0.508745181 6.01935562,0.583055843 C6.01935562,0.657366504 5.95803064,0.717607191 5.88238244,0.717607191 Z M5.42580519,0.269102697 C5.35015699,0.269102697 5.28883201,0.20886201 5.28883201,0.134551348 C5.28883201,0.0602406869 5.35015699,0 5.42580519,0 C5.50145339,0 5.56277837,0.0602406869 5.56277837,0.134551348 C5.56277837,0.20886201 5.50145339,0.269102697 5.42580519,0.269102697 Z M5.88238244,0.269102697 C5.80673424,0.269102697 5.74540927,0.20886201 5.74540927,0.134551348 C5.74540927,0.0602406869 5.80673424,0 5.88238244,0 C5.95803064,0 6.01935562,0.0602406869 6.01935562,0.134551348 C6.01935562,0.20886201 5.95803064,0.269102697 5.88238244,0.269102697 Z M6.3389597,1.61461618 C6.2633115,1.61461618 6.20198652,1.55437549 6.20198652,1.48006483 C6.20198652,1.40575417 6.2633115,1.34551348 6.3389597,1.34551348 C6.4146079,1.34551348 6.47593287,1.40575417 6.47593287,1.48006483 C6.47593287,1.55437549 6.4146079,1.61461618 6.3389597,1.61461618 Z M6.79553695,1.61461618 C6.71988875,1.61461618 6.65856377,1.55437549 6.65856377,1.48006483 C6.65856377,1.40575417 6.71988875,1.34551348 6.79553695,1.34551348 C6.87118515,1.34551348 6.93251012,1.40575417 6.93251012,1.48006483 C6.93251012,1.55437549 6.87118515,1.61461618 6.79553695,1.61461618 Z M6.3389597,1.16611169 C6.2633115,1.16611169 6.20198652,1.105871 6.20198652,1.03156034 C6.20198652,0.957249676 6.2633115,0.897008989 6.3389597,0.897008989 C6.4146079,0.897008989 6.47593287,0.957249676 6.47593287,1.03156034 C6.47593287,1.105871 6.4146079,1.16611169 6.3389597,1.16611169 Z M6.79553695,1.16611169 C6.71988875,1.16611169 6.65856377,1.105871 6.65856377,1.03156034 C6.65856377,0.957249676 6.71988875,0.897008989 6.79553695,0.897008989 C6.87118515,0.897008989 6.93251012,0.957249676 6.93251012,1.03156034 C6.93251012,1.105871 6.87118515,1.16611169 6.79553695,1.16611169 Z M6.3389597,0.717607191 C6.2633115,0.717607191 6.20198652,0.657366504 6.20198652,0.583055843 C6.20198652,0.508745181 6.2633115,0.448504495 6.3389597,0.448504495 C6.4146079,0.448504495 6.47593287,0.508745181 6.47593287,0.583055843 C6.47593287,0.657366504 6.4146079,0.717607191 6.3389597,0.717607191 Z M6.79553695,0.717607191 C6.71988875,0.717607191 6.65856377,0.657366504 6.65856377,0.583055843 C6.65856377,0.508745181 6.71988875,0.448504495 6.79553695,0.448504495 C6.87118515,0.448504495 6.93251012,0.508745181 6.93251012,0.583055843 C6.93251012,0.657366504 6.87118515,0.717607191 6.79553695,0.717607191 Z M6.3389597,0.269102697 C6.2633115,0.269102697 6.20198652,0.20886201 6.20198652,0.134551348 C6.20198652,0.0602406869 6.2633115,0 6.3389597,0 C6.4146079,0 6.47593287,0.0602406869 6.47593287,0.134551348 C6.47593287,0.20886201 6.4146079,0.269102697 6.3389597,0.269102697 Z M6.79553695,0.269102697 C6.71988875,0.269102697 6.65856377,0.20886201 6.65856377,0.134551348 C6.65856377,0.0602406869 6.71988875,0 6.79553695,0 C6.87118515,0 6.93251012,0.0602406869 6.93251012,0.134551348 C6.93251012,0.20886201 6.87118515,0.269102697 6.79553695,0.269102697 Z M7.2521142,1.61461618 C7.176466,1.61461618 7.11514103,1.55437549 7.11514103,1.48006483 C7.11514103,1.40575417 7.176466,1.34551348 7.2521142,1.34551348 C7.3277624,1.34551348 7.38908738,1.40575417 7.38908738,1.48006483 C7.38908738,1.55437549 7.3277624,1.61461618 7.2521142,1.61461618 Z M7.70869146,1.61461618 C7.63304326,1.61461618 7.57171828,1.55437549 7.57171828,1.48006483 C7.57171828,1.40575417 7.63304326,1.34551348 7.70869146,1.34551348 C7.78433966,1.34551348 7.84566463,1.40575417 7.84566463,1.48006483 C7.84566463,1.55437549 7.78433966,1.61461618 7.70869146,1.61461618 Z M7.2521142,1.16611169 C7.176466,1.16611169 7.11514103,1.105871 7.11514103,1.03156034 C7.11514103,0.957249676 7.176466,0.897008989 7.2521142,0.897008989 C7.3277624,0.897008989 7.38908738,0.957249676 7.38908738,1.03156034 C7.38908738,1.105871 7.3277624,1.16611169 7.2521142,1.16611169 Z M7.70869146,1.16611169 C7.63304326,1.16611169 7.57171828,1.105871 7.57171828,1.03156034 C7.57171828,0.957249676 7.63304326,0.897008989 7.70869146,0.897008989 C7.78433966,0.897008989 7.84566463,0.957249676 7.84566463,1.03156034 C7.84566463,1.105871 7.78433966,1.16611169 7.70869146,1.16611169 Z M7.2521142,0.717607191 C7.176466,0.717607191 7.11514103,0.657366504 7.11514103,0.583055843 C7.11514103,0.508745181 7.176466,0.448504495 7.2521142,0.448504495 C7.3277624,0.448504495 7.38908738,0.508745181 7.38908738,0.583055843 C7.38908738,0.657366504 7.3277624,0.717607191 7.2521142,0.717607191 Z M7.70869146,0.717607191 C7.63304326,0.717607191 7.57171828,0.657366504 7.57171828,0.583055843 C7.57171828,0.508745181 7.63304326,0.448504495 7.70869146,0.448504495 C7.78433966,0.448504495 7.84566463,0.508745181 7.84566463,0.583055843 C7.84566463,0.657366504 7.78433966,0.717607191 7.70869146,0.717607191 Z M7.2521142,0.269102697 C7.176466,0.269102697 7.11514103,0.20886201 7.11514103,0.134551348 C7.11514103,0.0602406869 7.176466,0 7.2521142,0 C7.3277624,0 7.38908738,0.0602406869 7.38908738,0.134551348 C7.38908738,0.20886201 7.3277624,0.269102697 7.2521142,0.269102697 Z M7.70869146,0.269102697 C7.63304326,0.269102697 7.57171828,0.20886201 7.57171828,0.134551348 C7.57171828,0.0602406869 7.63304326,0 7.70869146,0 C7.78433966,0 7.84566463,0.0602406869 7.84566463,0.134551348 C7.84566463,0.20886201 7.78433966,0.269102697 7.70869146,0.269102697 Z M8.16526871,1.61461618 C8.08962051,1.61461618 8.02829553,1.55437549 8.02829553,1.48006483 C8.02829553,1.40575417 8.08962051,1.34551348 8.16526871,1.34551348 C8.24091691,1.34551348 8.30224188,1.40575417 8.30224188,1.48006483 C8.30224188,1.55437549 8.24091691,1.61461618 8.16526871,1.61461618 Z M8.62184596,1.61461618 C8.54619776,1.61461618 8.48487279,1.55437549 8.48487279,1.48006483 C8.48487279,1.40575417 8.54619776,1.34551348 8.62184596,1.34551348 C8.69749416,1.34551348 8.75881914,1.40575417 8.75881914,1.48006483 C8.75881914,1.55437549 8.69749416,1.61461618 8.62184596,1.61461618 Z M8.16526871,1.16611169 C8.08962051,1.16611169 8.02829553,1.105871 8.02829553,1.03156034 C8.02829553,0.957249676 8.08962051,0.897008989 8.16526871,0.897008989 C8.24091691,0.897008989 8.30224188,0.957249676 8.30224188,1.03156034 C8.30224188,1.105871 8.24091691,1.16611169 8.16526871,1.16611169 Z M8.62184596,1.16611169 C8.54619776,1.16611169 8.48487279,1.105871 8.48487279,1.03156034 C8.48487279,0.957249676 8.54619776,0.897008989 8.62184596,0.897008989 C8.69749416,0.897008989 8.75881914,0.957249676 8.75881914,1.03156034 C8.75881914,1.105871 8.69749416,1.16611169 8.62184596,1.16611169 Z M8.16526871,0.717607191 C8.08962051,0.717607191 8.02829553,0.657366504 8.02829553,0.583055843 C8.02829553,0.508745181 8.08962051,0.448504495 8.16526871,0.448504495 C8.24091691,0.448504495 8.30224188,0.508745181 8.30224188,0.583055843 C8.30224188,0.657366504 8.24091691,0.717607191 8.16526871,0.717607191 Z M8.62184596,0.717607191 C8.54619776,0.717607191 8.48487279,0.657366504 8.48487279,0.583055843 C8.48487279,0.508745181 8.54619776,0.448504495 8.62184596,0.448504495 C8.69749416,0.448504495 8.75881914,0.508745181 8.75881914,0.583055843 C8.75881914,0.657366504 8.69749416,0.717607191 8.62184596,0.717607191 Z M8.16526871,0.269102697 C8.08962051,0.269102697 8.02829553,0.20886201 8.02829553,0.134551348 C8.02829553,0.0602406869 8.08962051,0 8.16526871,0 C8.24091691,0 8.30224188,0.0602406869 8.30224188,0.134551348 C8.30224188,0.20886201 8.24091691,0.269102697 8.16526871,0.269102697 Z M8.62184596,0.269102697 C8.54619776,0.269102697 8.48487279,0.20886201 8.48487279,0.134551348 C8.48487279,0.0602406869 8.54619776,0 8.62184596,0 C8.69749416,0 8.75881914,0.0602406869 8.75881914,0.134551348 C8.75881914,0.20886201 8.69749416,0.269102697 8.62184596,0.269102697 Z M9.07842321,1.61461618 C9.00277501,1.61461618 8.94145004,1.55437549 8.94145004,1.48006483 C8.94145004,1.40575417 9.00277501,1.34551348 9.07842321,1.34551348 C9.15407141,1.34551348 9.21539639,1.40575417 9.21539639,1.48006483 C9.21539639,1.55437549 9.15407141,1.61461618 9.07842321,1.61461618 Z M9.53500047,1.61461618 C9.45935227,1.61461618 9.39802729,1.55437549 9.39802729,1.48006483 C9.39802729,1.40575417 9.45935227,1.34551348 9.53500047,1.34551348 C9.61064867,1.34551348 9.67197364,1.40575417 9.67197364,1.48006483 C9.67197364,1.55437549 9.61064867,1.61461618 9.53500047,1.61461618 Z M9.07842321,1.16611169 C9.00277501,1.16611169 8.94145004,1.105871 8.94145004,1.03156034 C8.94145004,0.957249676 9.00277501,0.897008989 9.07842321,0.897008989 C9.15407141,0.897008989 9.21539639,0.957249676 9.21539639,1.03156034 C9.21539639,1.105871 9.15407141,1.16611169 9.07842321,1.16611169 Z M9.53500047,1.16611169 C9.45935227,1.16611169 9.39802729,1.105871 9.39802729,1.03156034 C9.39802729,0.957249676 9.45935227,0.897008989 9.53500047,0.897008989 C9.61064867,0.897008989 9.67197364,0.957249676 9.67197364,1.03156034 C9.67197364,1.105871 9.61064867,1.16611169 9.53500047,1.16611169 Z M9.07842321,0.717607191 C9.00277501,0.717607191 8.94145004,0.657366504 8.94145004,0.583055843 C8.94145004,0.508745181 9.00277501,0.448504495 9.07842321,0.448504495 C9.15407141,0.448504495 9.21539639,0.508745181 9.21539639,0.583055843 C9.21539639,0.657366504 9.15407141,0.717607191 9.07842321,0.717607191 Z M9.53500047,0.717607191 C9.45935227,0.717607191 9.39802729,0.657366504 9.39802729,0.583055843 C9.39802729,0.508745181 9.45935227,0.448504495 9.53500047,0.448504495 C9.61064867,0.448504495 9.67197364,0.508745181 9.67197364,0.583055843 C9.67197364,0.657366504 9.61064867,0.717607191 9.53500047,0.717607191 Z M9.07842321,0.269102697 C9.00277501,0.269102697 8.94145004,0.20886201 8.94145004,0.134551348 C8.94145004,0.0602406869 9.00277501,0 9.07842321,0 C9.15407141,0 9.21539639,0.0602406869 9.21539639,0.134551348 C9.21539639,0.20886201 9.15407141,0.269102697 9.07842321,0.269102697 Z M9.53500047,0.269102697 C9.45935227,0.269102697 9.39802729,0.20886201 9.39802729,0.134551348 C9.39802729,0.0602406869 9.45935227,0 9.53500047,0 C9.61064867,0 9.67197364,0.0602406869 9.67197364,0.134551348 C9.67197364,0.20886201 9.61064867,0.269102697 9.53500047,0.269102697 Z M9.99157772,1.61461618 C9.91592952,1.61461618 9.85460454,1.55437549 9.85460454,1.48006483 C9.85460454,1.40575417 9.91592952,1.34551348 9.99157772,1.34551348 C10.0672259,1.34551348 10.1285509,1.40575417 10.1285509,1.48006483 C10.1285509,1.55437549 10.0672259,1.61461618 9.99157772,1.61461618 Z M10.448155,1.61461618 C10.3725068,1.61461618 10.3111818,1.55437549 10.3111818,1.48006483 C10.3111818,1.40575417 10.3725068,1.34551348 10.448155,1.34551348 C10.5238032,1.34551348 10.5851281,1.40575417 10.5851281,1.48006483 C10.5851281,1.55437549 10.5238032,1.61461618 10.448155,1.61461618 Z M9.99157772,1.16611169 C9.91592952,1.16611169 9.85460454,1.105871 9.85460454,1.03156034 C9.85460454,0.957249676 9.91592952,0.897008989 9.99157772,0.897008989 C10.0672259,0.897008989 10.1285509,0.957249676 10.1285509,1.03156034 C10.1285509,1.105871 10.0672259,1.16611169 9.99157772,1.16611169 Z M10.448155,1.16611169 C10.3725068,1.16611169 10.3111818,1.105871 10.3111818,1.03156034 C10.3111818,0.957249676 10.3725068,0.897008989 10.448155,0.897008989 C10.5238032,0.897008989 10.5851281,0.957249676 10.5851281,1.03156034 C10.5851281,1.105871 10.5238032,1.16611169 10.448155,1.16611169 Z M9.99157772,0.717607191 C9.91592952,0.717607191 9.85460454,0.657366504 9.85460454,0.583055843 C9.85460454,0.508745181 9.91592952,0.448504495 9.99157772,0.448504495 C10.0672259,0.448504495 10.1285509,0.508745181 10.1285509,0.583055843 C10.1285509,0.657366504 10.0672259,0.717607191 9.99157772,0.717607191 Z M10.448155,0.717607191 C10.3725068,0.717607191 10.3111818,0.657366504 10.3111818,0.583055843 C10.3111818,0.508745181 10.3725068,0.448504495 10.448155,0.448504495 C10.5238032,0.448504495 10.5851281,0.508745181 10.5851281,0.583055843 C10.5851281,0.657366504 10.5238032,0.717607191 10.448155,0.717607191 Z M9.99157772,0.269102697 C9.91592952,0.269102697 9.85460454,0.20886201 9.85460454,0.134551348 C9.85460454,0.0602406869 9.91592952,0 9.99157772,0 C10.0672259,0 10.1285509,0.0602406869 10.1285509,0.134551348 C10.1285509,0.20886201 10.0672259,0.269102697 9.99157772,0.269102697 Z M10.448155,0.269102697 C10.3725068,0.269102697 10.3111818,0.20886201 10.3111818,0.134551348 C10.3111818,0.0602406869 10.3725068,0 10.448155,0 C10.5238032,0 10.5851281,0.0602406869 10.5851281,0.134551348 C10.5851281,0.20886201 10.5238032,0.269102697 10.448155,0.269102697 Z"/>
      </g>
    </g>
    <g transform="translate(0 10.333)">
      <path fill="#F69A98" d="M17.4694393,19.9084415 C19.8067205,19.9084415 22.0759662,19.6334326 24.2143745,19.0935626 L24.5723459,19.0144088 L30.2726744,25.1640552 L30.0204197,17.9742458 L29.9534309,17.0345473 L29.9764583,16.7098135 L30.2203394,16.5494762 C33.0171219,14.7187894 34.5578644,12.3908539 34.5578644,9.99695687 C34.5578644,4.53229578 26.8928799,0.0854722097 17.4694393,0.0854722097 C8.04704537,0.0854722097 0.381014146,4.53229578 0.381014146,9.99695687 C0.381014146,15.461618 8.04704537,19.9084415 17.4694393,19.9084415 Z"/>
      <path fill="#FFF" d="M19.6555084,5.05606524 L12.8509559,5.05606524 L11.9868747,6.40132792 L16.1949507,6.40132799 C17.2532859,6.40132799 17.2730639,7.03333164 17.6452237,7.72723995 L12.5078293,7.72723995 L11.9868747,9.09511488 L17.6452237,9.09511488 C17.273064,9.78902319 16.3796041,10.4221888 15.3373494,10.4221888 L12.8509559,10.4221888 C14.9354653,12.735306 16.8029091,14.8777731 18.9859307,17.1906218 L21.4053606,17.1906218 L16.3072805,11.7133541 C18.3540302,11.7133541 19.2087786,10.5984934 19.6555085,9.09511488 L22.3558485,9.08569276 L22.9314126,7.74351034 L19.6555084,7.72723995 C19.5816295,7.32237063 19.2585154,6.74828215 18.9619887,6.40132799 L22.3558485,6.40132792 L22.9314126,5.05606524 L19.6555084,5.05606524 Z"/>
    </g>
  </g>
</svg>
