<svg xmlns="http://www.w3.org/2000/svg" width="130" height="130" viewBox="0 0 130 130">
  <g fill="none" fill-rule="evenodd" transform="translate(23 14)">
    <rect width="52.037" height="99.552" fill="#F1F1F1" rx="3.809"/>
    <rect width="48.785" height="77.52" x="1.626" y="9.792" fill="#FFEBEB"/>
    <path fill="#FEBBBA" d="M30.6704451,37.536 L14.9993513,37.536 L13.0093458,40.3403682 L22.7006741,40.3403684 C25.1380527,40.3403684 25.1836022,41.657859 26.0406975,43.1043976 L14.2091202,43.1043976 L13.0093458,45.9559039 L26.0406977,45.9559039 C25.1836023,47.4024425 23.1259368,48.7223554 20.7255921,48.7223554 L14.9993513,48.7223554 C19.8000405,53.5443373 24.1008213,58.0105777 29.1283871,62.832 L34.7004085,62.832 L22.9593732,51.4139508 C27.6731008,51.4139508 29.6416126,49.0898843 30.6704454,45.9559039 L36.8894115,45.9362623 L38.2149533,43.1383152 L30.6704451,43.1043976 C30.5002997,42.2603969 29.7561581,41.0636377 29.0732479,40.3403684 L36.8894115,40.3403682 L38.2149533,37.536 L30.6704451,37.536 Z"/>
    <ellipse cx="26.019" cy="93.024" fill="#FEBBBA" opacity=".5" rx="2.439" ry="2.448"/>
    <path fill="#F69A98" d="M16.4018692,5.712 C16.0302383,5.712 15.728972,5.34666438 15.728972,4.896 C15.728972,4.44533562 16.0302383,4.08 16.4018692,4.08 C16.7735,4.08 17.0747664,4.44533562 17.0747664,4.896 C17.0747664,5.34666438 16.7735,5.712 16.4018692,5.712 Z M14.4953271,5.712 C14.1236962,5.712 13.8224299,5.34666438 13.8224299,4.896 C13.8224299,4.44533562 14.1236962,4.08 14.4953271,4.08 C14.866958,4.08 15.1682243,4.44533562 15.1682243,4.896 C15.1682243,5.34666438 14.866958,5.712 14.4953271,5.712 Z"/>
    <path fill="#AAA" d="M0.189678887,2.43712 C0.0849221252,2.43712 0,2.34619202 0,2.23402667 C0,2.12186131 0.0849221252,2.03093333 0.189678887,2.03093333 C0.294435649,2.03093333 0.379357774,2.12186131 0.379357774,2.23402667 C0.379357774,2.34619202 0.294435649,2.43712 0.189678887,2.43712 Z M0.821941844,2.43712 C0.717185082,2.43712 0.632262957,2.34619202 0.632262957,2.23402667 C0.632262957,2.12186131 0.717185082,2.03093333 0.821941844,2.03093333 C0.926698606,2.03093333 1.01162073,2.12186131 1.01162073,2.23402667 C1.01162073,2.34619202 0.926698606,2.43712 0.821941844,2.43712 Z M0.189678887,1.76014222 C0.0849221252,1.76014222 0,1.66921425 0,1.55704889 C0,1.44488353 0.0849221252,1.35395556 0.189678887,1.35395556 C0.294435649,1.35395556 0.379357774,1.44488353 0.379357774,1.55704889 C0.379357774,1.66921425 0.294435649,1.76014222 0.189678887,1.76014222 Z M0.821941844,1.76014222 C0.717185082,1.76014222 0.632262957,1.66921425 0.632262957,1.55704889 C0.632262957,1.44488353 0.717185082,1.35395556 0.821941844,1.35395556 C0.926698606,1.35395556 1.01162073,1.44488353 1.01162073,1.55704889 C1.01162073,1.66921425 0.926698606,1.76014222 0.821941844,1.76014222 Z M0.189678887,1.08316444 C0.0849221252,1.08316444 0,0.992236467 0,0.880071111 C0,0.767905755 0.0849221252,0.676977778 0.189678887,0.676977778 C0.294435649,0.676977778 0.379357774,0.767905755 0.379357774,0.880071111 C0.379357774,0.992236467 0.294435649,1.08316444 0.189678887,1.08316444 Z M0.821941844,1.08316444 C0.717185082,1.08316444 0.632262957,0.992236467 0.632262957,0.880071111 C0.632262957,0.767905755 0.717185082,0.676977778 0.821941844,0.676977778 C0.926698606,0.676977778 1.01162073,0.767905755 1.01162073,0.880071111 C1.01162073,0.992236467 0.926698606,1.08316444 0.821941844,1.08316444 Z M0.189678887,0.406186667 C0.0849221252,0.406186667 0,0.31525869 0,0.203093333 C0,0.090927977 0.0849221252,0 0.189678887,0 C0.294435649,0 0.379357774,0.090927977 0.379357774,0.203093333 C0.379357774,0.31525869 0.294435649,0.406186667 0.189678887,0.406186667 Z M0.821941844,0.406186667 C0.717185082,0.406186667 0.632262957,0.31525869 0.632262957,0.203093333 C0.632262957,0.090927977 0.717185082,0 0.821941844,0 C0.926698606,0 1.01162073,0.090927977 1.01162073,0.203093333 C1.01162073,0.31525869 0.926698606,0.406186667 0.821941844,0.406186667 Z M1.4542048,2.43712 C1.34944804,2.43712 1.26452591,2.34619202 1.26452591,2.23402667 C1.26452591,2.12186131 1.34944804,2.03093333 1.4542048,2.03093333 C1.55896156,2.03093333 1.64388369,2.12186131 1.64388369,2.23402667 C1.64388369,2.34619202 1.55896156,2.43712 1.4542048,2.43712 Z M2.08646776,2.43712 C1.981711,2.43712 1.89678887,2.34619202 1.89678887,2.23402667 C1.89678887,2.12186131 1.981711,2.03093333 2.08646776,2.03093333 C2.19122452,2.03093333 2.27614664,2.12186131 2.27614664,2.23402667 C2.27614664,2.34619202 2.19122452,2.43712 2.08646776,2.43712 Z M1.4542048,1.76014222 C1.34944804,1.76014222 1.26452591,1.66921425 1.26452591,1.55704889 C1.26452591,1.44488353 1.34944804,1.35395556 1.4542048,1.35395556 C1.55896156,1.35395556 1.64388369,1.44488353 1.64388369,1.55704889 C1.64388369,1.66921425 1.55896156,1.76014222 1.4542048,1.76014222 Z M2.08646776,1.76014222 C1.981711,1.76014222 1.89678887,1.66921425 1.89678887,1.55704889 C1.89678887,1.44488353 1.981711,1.35395556 2.08646776,1.35395556 C2.19122452,1.35395556 2.27614664,1.44488353 2.27614664,1.55704889 C2.27614664,1.66921425 2.19122452,1.76014222 2.08646776,1.76014222 Z M1.4542048,1.08316444 C1.34944804,1.08316444 1.26452591,0.992236467 1.26452591,0.880071111 C1.26452591,0.767905755 1.34944804,0.676977778 1.4542048,0.676977778 C1.55896156,0.676977778 1.64388369,0.767905755 1.64388369,0.880071111 C1.64388369,0.992236467 1.55896156,1.08316444 1.4542048,1.08316444 Z M2.08646776,1.08316444 C1.981711,1.08316444 1.89678887,0.992236467 1.89678887,0.880071111 C1.89678887,0.767905755 1.981711,0.676977778 2.08646776,0.676977778 C2.19122452,0.676977778 2.27614664,0.767905755 2.27614664,0.880071111 C2.27614664,0.992236467 2.19122452,1.08316444 2.08646776,1.08316444 Z M1.4542048,0.406186667 C1.34944804,0.406186667 1.26452591,0.31525869 1.26452591,0.203093333 C1.26452591,0.090927977 1.34944804,0 1.4542048,0 C1.55896156,0 1.64388369,0.090927977 1.64388369,0.203093333 C1.64388369,0.31525869 1.55896156,0.406186667 1.4542048,0.406186667 Z M2.08646776,0.406186667 C1.981711,0.406186667 1.89678887,0.31525869 1.89678887,0.203093333 C1.89678887,0.090927977 1.981711,0 2.08646776,0 C2.19122452,0 2.27614664,0.090927977 2.27614664,0.203093333 C2.27614664,0.31525869 2.19122452,0.406186667 2.08646776,0.406186667 Z M2.71873071,2.43712 C2.61397395,2.43712 2.52905183,2.34619202 2.52905183,2.23402667 C2.52905183,2.12186131 2.61397395,2.03093333 2.71873071,2.03093333 C2.82348748,2.03093333 2.9084096,2.12186131 2.9084096,2.23402667 C2.9084096,2.34619202 2.82348748,2.43712 2.71873071,2.43712 Z M3.35099367,2.43712 C3.24623691,2.43712 3.16131478,2.34619202 3.16131478,2.23402667 C3.16131478,2.12186131 3.24623691,2.03093333 3.35099367,2.03093333 C3.45575043,2.03093333 3.54067256,2.12186131 3.54067256,2.23402667 C3.54067256,2.34619202 3.45575043,2.43712 3.35099367,2.43712 Z M2.71873071,1.76014222 C2.61397395,1.76014222 2.52905183,1.66921425 2.52905183,1.55704889 C2.52905183,1.44488353 2.61397395,1.35395556 2.71873071,1.35395556 C2.82348748,1.35395556 2.9084096,1.44488353 2.9084096,1.55704889 C2.9084096,1.66921425 2.82348748,1.76014222 2.71873071,1.76014222 Z M3.35099367,1.76014222 C3.24623691,1.76014222 3.16131478,1.66921425 3.16131478,1.55704889 C3.16131478,1.44488353 3.24623691,1.35395556 3.35099367,1.35395556 C3.45575043,1.35395556 3.54067256,1.44488353 3.54067256,1.55704889 C3.54067256,1.66921425 3.45575043,1.76014222 3.35099367,1.76014222 Z M2.71873071,1.08316444 C2.61397395,1.08316444 2.52905183,0.992236467 2.52905183,0.880071111 C2.52905183,0.767905755 2.61397395,0.676977778 2.71873071,0.676977778 C2.82348748,0.676977778 2.9084096,0.767905755 2.9084096,0.880071111 C2.9084096,0.992236467 2.82348748,1.08316444 2.71873071,1.08316444 Z M3.35099367,1.08316444 C3.24623691,1.08316444 3.16131478,0.992236467 3.16131478,0.880071111 C3.16131478,0.767905755 3.24623691,0.676977778 3.35099367,0.676977778 C3.45575043,0.676977778 3.54067256,0.767905755 3.54067256,0.880071111 C3.54067256,0.992236467 3.45575043,1.08316444 3.35099367,1.08316444 Z M2.71873071,0.406186667 C2.61397395,0.406186667 2.52905183,0.31525869 2.52905183,0.203093333 C2.52905183,0.090927977 2.61397395,0 2.71873071,0 C2.82348748,0 2.9084096,0.090927977 2.9084096,0.203093333 C2.9084096,0.31525869 2.82348748,0.406186667 2.71873071,0.406186667 Z M3.35099367,0.406186667 C3.24623691,0.406186667 3.16131478,0.31525869 3.16131478,0.203093333 C3.16131478,0.090927977 3.24623691,0 3.35099367,0 C3.45575043,0 3.54067256,0.090927977 3.54067256,0.203093333 C3.54067256,0.31525869 3.45575043,0.406186667 3.35099367,0.406186667 Z M3.98325663,2.43712 C3.87849987,2.43712 3.79357774,2.34619202 3.79357774,2.23402667 C3.79357774,2.12186131 3.87849987,2.03093333 3.98325663,2.03093333 C4.08801339,2.03093333 4.17293552,2.12186131 4.17293552,2.23402667 C4.17293552,2.34619202 4.08801339,2.43712 3.98325663,2.43712 Z M4.61551959,2.43712 C4.51076282,2.43712 4.4258407,2.34619202 4.4258407,2.23402667 C4.4258407,2.12186131 4.51076282,2.03093333 4.61551959,2.03093333 C4.72027635,2.03093333 4.80519847,2.12186131 4.80519847,2.23402667 C4.80519847,2.34619202 4.72027635,2.43712 4.61551959,2.43712 Z M3.98325663,1.76014222 C3.87849987,1.76014222 3.79357774,1.66921425 3.79357774,1.55704889 C3.79357774,1.44488353 3.87849987,1.35395556 3.98325663,1.35395556 C4.08801339,1.35395556 4.17293552,1.44488353 4.17293552,1.55704889 C4.17293552,1.66921425 4.08801339,1.76014222 3.98325663,1.76014222 Z M4.61551959,1.76014222 C4.51076282,1.76014222 4.4258407,1.66921425 4.4258407,1.55704889 C4.4258407,1.44488353 4.51076282,1.35395556 4.61551959,1.35395556 C4.72027635,1.35395556 4.80519847,1.44488353 4.80519847,1.55704889 C4.80519847,1.66921425 4.72027635,1.76014222 4.61551959,1.76014222 Z M3.98325663,1.08316444 C3.87849987,1.08316444 3.79357774,0.992236467 3.79357774,0.880071111 C3.79357774,0.767905755 3.87849987,0.676977778 3.98325663,0.676977778 C4.08801339,0.676977778 4.17293552,0.767905755 4.17293552,0.880071111 C4.17293552,0.992236467 4.08801339,1.08316444 3.98325663,1.08316444 Z M4.61551959,1.08316444 C4.51076282,1.08316444 4.4258407,0.992236467 4.4258407,0.880071111 C4.4258407,0.767905755 4.51076282,0.676977778 4.61551959,0.676977778 C4.72027635,0.676977778 4.80519847,0.767905755 4.80519847,0.880071111 C4.80519847,0.992236467 4.72027635,1.08316444 4.61551959,1.08316444 Z M3.98325663,0.406186667 C3.87849987,0.406186667 3.79357774,0.31525869 3.79357774,0.203093333 C3.79357774,0.090927977 3.87849987,0 3.98325663,0 C4.08801339,0 4.17293552,0.090927977 4.17293552,0.203093333 C4.17293552,0.31525869 4.08801339,0.406186667 3.98325663,0.406186667 Z M4.61551959,0.406186667 C4.51076282,0.406186667 4.4258407,0.31525869 4.4258407,0.203093333 C4.4258407,0.090927977 4.51076282,0 4.61551959,0 C4.72027635,0 4.80519847,0.090927977 4.80519847,0.203093333 C4.80519847,0.31525869 4.72027635,0.406186667 4.61551959,0.406186667 Z M5.24778254,2.43712 C5.14302578,2.43712 5.05810365,2.34619202 5.05810365,2.23402667 C5.05810365,2.12186131 5.14302578,2.03093333 5.24778254,2.03093333 C5.3525393,2.03093333 5.43746143,2.12186131 5.43746143,2.23402667 C5.43746143,2.34619202 5.3525393,2.43712 5.24778254,2.43712 Z M5.8800455,2.43712 C5.77528874,2.43712 5.69036661,2.34619202 5.69036661,2.23402667 C5.69036661,2.12186131 5.77528874,2.03093333 5.8800455,2.03093333 C5.98480226,2.03093333 6.06972439,2.12186131 6.06972439,2.23402667 C6.06972439,2.34619202 5.98480226,2.43712 5.8800455,2.43712 Z M5.24778254,1.76014222 C5.14302578,1.76014222 5.05810365,1.66921425 5.05810365,1.55704889 C5.05810365,1.44488353 5.14302578,1.35395556 5.24778254,1.35395556 C5.3525393,1.35395556 5.43746143,1.44488353 5.43746143,1.55704889 C5.43746143,1.66921425 5.3525393,1.76014222 5.24778254,1.76014222 Z M5.8800455,1.76014222 C5.77528874,1.76014222 5.69036661,1.66921425 5.69036661,1.55704889 C5.69036661,1.44488353 5.77528874,1.35395556 5.8800455,1.35395556 C5.98480226,1.35395556 6.06972439,1.44488353 6.06972439,1.55704889 C6.06972439,1.66921425 5.98480226,1.76014222 5.8800455,1.76014222 Z M5.24778254,1.08316444 C5.14302578,1.08316444 5.05810365,0.992236467 5.05810365,0.880071111 C5.05810365,0.767905755 5.14302578,0.676977778 5.24778254,0.676977778 C5.3525393,0.676977778 5.43746143,0.767905755 5.43746143,0.880071111 C5.43746143,0.992236467 5.3525393,1.08316444 5.24778254,1.08316444 Z M5.8800455,1.08316444 C5.77528874,1.08316444 5.69036661,0.992236467 5.69036661,0.880071111 C5.69036661,0.767905755 5.77528874,0.676977778 5.8800455,0.676977778 C5.98480226,0.676977778 6.06972439,0.767905755 6.06972439,0.880071111 C6.06972439,0.992236467 5.98480226,1.08316444 5.8800455,1.08316444 Z M5.24778254,0.406186667 C5.14302578,0.406186667 5.05810365,0.31525869 5.05810365,0.203093333 C5.05810365,0.090927977 5.14302578,0 5.24778254,0 C5.3525393,0 5.43746143,0.090927977 5.43746143,0.203093333 C5.43746143,0.31525869 5.3525393,0.406186667 5.24778254,0.406186667 Z M5.8800455,0.406186667 C5.77528874,0.406186667 5.69036661,0.31525869 5.69036661,0.203093333 C5.69036661,0.090927977 5.77528874,0 5.8800455,0 C5.98480226,0 6.06972439,0.090927977 6.06972439,0.203093333 C6.06972439,0.31525869 5.98480226,0.406186667 5.8800455,0.406186667 Z M6.51230846,2.43712 C6.40755169,2.43712 6.32262957,2.34619202 6.32262957,2.23402667 C6.32262957,2.12186131 6.40755169,2.03093333 6.51230846,2.03093333 C6.61706522,2.03093333 6.70198734,2.12186131 6.70198734,2.23402667 C6.70198734,2.34619202 6.61706522,2.43712 6.51230846,2.43712 Z M7.14457141,2.43712 C7.03981465,2.43712 6.95489253,2.34619202 6.95489253,2.23402667 C6.95489253,2.12186131 7.03981465,2.03093333 7.14457141,2.03093333 C7.24932817,2.03093333 7.3342503,2.12186131 7.3342503,2.23402667 C7.3342503,2.34619202 7.24932817,2.43712 7.14457141,2.43712 Z M6.51230846,1.76014222 C6.40755169,1.76014222 6.32262957,1.66921425 6.32262957,1.55704889 C6.32262957,1.44488353 6.40755169,1.35395556 6.51230846,1.35395556 C6.61706522,1.35395556 6.70198734,1.44488353 6.70198734,1.55704889 C6.70198734,1.66921425 6.61706522,1.76014222 6.51230846,1.76014222 Z M7.14457141,1.76014222 C7.03981465,1.76014222 6.95489253,1.66921425 6.95489253,1.55704889 C6.95489253,1.44488353 7.03981465,1.35395556 7.14457141,1.35395556 C7.24932817,1.35395556 7.3342503,1.44488353 7.3342503,1.55704889 C7.3342503,1.66921425 7.24932817,1.76014222 7.14457141,1.76014222 Z M6.51230846,1.08316444 C6.40755169,1.08316444 6.32262957,0.992236467 6.32262957,0.880071111 C6.32262957,0.767905755 6.40755169,0.676977778 6.51230846,0.676977778 C6.61706522,0.676977778 6.70198734,0.767905755 6.70198734,0.880071111 C6.70198734,0.992236467 6.61706522,1.08316444 6.51230846,1.08316444 Z M7.14457141,1.08316444 C7.03981465,1.08316444 6.95489253,0.992236467 6.95489253,0.880071111 C6.95489253,0.767905755 7.03981465,0.676977778 7.14457141,0.676977778 C7.24932817,0.676977778 7.3342503,0.767905755 7.3342503,0.880071111 C7.3342503,0.992236467 7.24932817,1.08316444 7.14457141,1.08316444 Z M6.51230846,0.406186667 C6.40755169,0.406186667 6.32262957,0.31525869 6.32262957,0.203093333 C6.32262957,0.090927977 6.40755169,0 6.51230846,0 C6.61706522,0 6.70198734,0.090927977 6.70198734,0.203093333 C6.70198734,0.31525869 6.61706522,0.406186667 6.51230846,0.406186667 Z M7.14457141,0.406186667 C7.03981465,0.406186667 6.95489253,0.31525869 6.95489253,0.203093333 C6.95489253,0.090927977 7.03981465,0 7.14457141,0 C7.24932817,0 7.3342503,0.090927977 7.3342503,0.203093333 C7.3342503,0.31525869 7.24932817,0.406186667 7.14457141,0.406186667 Z M7.77683437,2.43712 C7.67207761,2.43712 7.58715548,2.34619202 7.58715548,2.23402667 C7.58715548,2.12186131 7.67207761,2.03093333 7.77683437,2.03093333 C7.88159113,2.03093333 7.96651326,2.12186131 7.96651326,2.23402667 C7.96651326,2.34619202 7.88159113,2.43712 7.77683437,2.43712 Z M8.40909733,2.43712 C8.30434056,2.43712 8.21941844,2.34619202 8.21941844,2.23402667 C8.21941844,2.12186131 8.30434056,2.03093333 8.40909733,2.03093333 C8.51385409,2.03093333 8.59877621,2.12186131 8.59877621,2.23402667 C8.59877621,2.34619202 8.51385409,2.43712 8.40909733,2.43712 Z M7.77683437,1.76014222 C7.67207761,1.76014222 7.58715548,1.66921425 7.58715548,1.55704889 C7.58715548,1.44488353 7.67207761,1.35395556 7.77683437,1.35395556 C7.88159113,1.35395556 7.96651326,1.44488353 7.96651326,1.55704889 C7.96651326,1.66921425 7.88159113,1.76014222 7.77683437,1.76014222 Z M8.40909733,1.76014222 C8.30434056,1.76014222 8.21941844,1.66921425 8.21941844,1.55704889 C8.21941844,1.44488353 8.30434056,1.35395556 8.40909733,1.35395556 C8.51385409,1.35395556 8.59877621,1.44488353 8.59877621,1.55704889 C8.59877621,1.66921425 8.51385409,1.76014222 8.40909733,1.76014222 Z M7.77683437,1.08316444 C7.67207761,1.08316444 7.58715548,0.992236467 7.58715548,0.880071111 C7.58715548,0.767905755 7.67207761,0.676977778 7.77683437,0.676977778 C7.88159113,0.676977778 7.96651326,0.767905755 7.96651326,0.880071111 C7.96651326,0.992236467 7.88159113,1.08316444 7.77683437,1.08316444 Z M8.40909733,1.08316444 C8.30434056,1.08316444 8.21941844,0.992236467 8.21941844,0.880071111 C8.21941844,0.767905755 8.30434056,0.676977778 8.40909733,0.676977778 C8.51385409,0.676977778 8.59877621,0.767905755 8.59877621,0.880071111 C8.59877621,0.992236467 8.51385409,1.08316444 8.40909733,1.08316444 Z M7.77683437,0.406186667 C7.67207761,0.406186667 7.58715548,0.31525869 7.58715548,0.203093333 C7.58715548,0.090927977 7.67207761,0 7.77683437,0 C7.88159113,0 7.96651326,0.090927977 7.96651326,0.203093333 C7.96651326,0.31525869 7.88159113,0.406186667 7.77683437,0.406186667 Z M8.40909733,0.406186667 C8.30434056,0.406186667 8.21941844,0.31525869 8.21941844,0.203093333 C8.21941844,0.090927977 8.30434056,0 8.40909733,0 C8.51385409,0 8.59877621,0.090927977 8.59877621,0.203093333 C8.59877621,0.31525869 8.51385409,0.406186667 8.40909733,0.406186667 Z M9.04136028,2.43712 C8.93660352,2.43712 8.8516814,2.34619202 8.8516814,2.23402667 C8.8516814,2.12186131 8.93660352,2.03093333 9.04136028,2.03093333 C9.14611704,2.03093333 9.23103917,2.12186131 9.23103917,2.23402667 C9.23103917,2.34619202 9.14611704,2.43712 9.04136028,2.43712 Z M9.67362324,2.43712 C9.56886648,2.43712 9.48394435,2.34619202 9.48394435,2.23402667 C9.48394435,2.12186131 9.56886648,2.03093333 9.67362324,2.03093333 C9.77838,2.03093333 9.86330213,2.12186131 9.86330213,2.23402667 C9.86330213,2.34619202 9.77838,2.43712 9.67362324,2.43712 Z M9.04136028,1.76014222 C8.93660352,1.76014222 8.8516814,1.66921425 8.8516814,1.55704889 C8.8516814,1.44488353 8.93660352,1.35395556 9.04136028,1.35395556 C9.14611704,1.35395556 9.23103917,1.44488353 9.23103917,1.55704889 C9.23103917,1.66921425 9.14611704,1.76014222 9.04136028,1.76014222 Z M9.67362324,1.76014222 C9.56886648,1.76014222 9.48394435,1.66921425 9.48394435,1.55704889 C9.48394435,1.44488353 9.56886648,1.35395556 9.67362324,1.35395556 C9.77838,1.35395556 9.86330213,1.44488353 9.86330213,1.55704889 C9.86330213,1.66921425 9.77838,1.76014222 9.67362324,1.76014222 Z M9.04136028,1.08316444 C8.93660352,1.08316444 8.8516814,0.992236467 8.8516814,0.880071111 C8.8516814,0.767905755 8.93660352,0.676977778 9.04136028,0.676977778 C9.14611704,0.676977778 9.23103917,0.767905755 9.23103917,0.880071111 C9.23103917,0.992236467 9.14611704,1.08316444 9.04136028,1.08316444 Z M9.67362324,1.08316444 C9.56886648,1.08316444 9.48394435,0.992236467 9.48394435,0.880071111 C9.48394435,0.767905755 9.56886648,0.676977778 9.67362324,0.676977778 C9.77838,0.676977778 9.86330213,0.767905755 9.86330213,0.880071111 C9.86330213,0.992236467 9.77838,1.08316444 9.67362324,1.08316444 Z M9.04136028,0.406186667 C8.93660352,0.406186667 8.8516814,0.31525869 8.8516814,0.203093333 C8.8516814,0.090927977 8.93660352,0 9.04136028,0 C9.14611704,0 9.23103917,0.090927977 9.23103917,0.203093333 C9.23103917,0.31525869 9.14611704,0.406186667 9.04136028,0.406186667 Z M9.67362324,0.406186667 C9.56886648,0.406186667 9.48394435,0.31525869 9.48394435,0.203093333 C9.48394435,0.090927977 9.56886648,0 9.67362324,0 C9.77838,0 9.86330213,0.090927977 9.86330213,0.203093333 C9.86330213,0.31525869 9.77838,0.406186667 9.67362324,0.406186667 Z M10.3058862,2.43712 C10.2011294,2.43712 10.1162073,2.34619202 10.1162073,2.23402667 C10.1162073,2.12186131 10.2011294,2.03093333 10.3058862,2.03093333 C10.410643,2.03093333 10.4955651,2.12186131 10.4955651,2.23402667 C10.4955651,2.34619202 10.410643,2.43712 10.3058862,2.43712 Z M10.9381492,2.43712 C10.8333924,2.43712 10.7484703,2.34619202 10.7484703,2.23402667 C10.7484703,2.12186131 10.8333924,2.03093333 10.9381492,2.03093333 C11.0429059,2.03093333 11.127828,2.12186131 11.127828,2.23402667 C11.127828,2.34619202 11.0429059,2.43712 10.9381492,2.43712 Z M10.3058862,1.76014222 C10.2011294,1.76014222 10.1162073,1.66921425 10.1162073,1.55704889 C10.1162073,1.44488353 10.2011294,1.35395556 10.3058862,1.35395556 C10.410643,1.35395556 10.4955651,1.44488353 10.4955651,1.55704889 C10.4955651,1.66921425 10.410643,1.76014222 10.3058862,1.76014222 Z M10.9381492,1.76014222 C10.8333924,1.76014222 10.7484703,1.66921425 10.7484703,1.55704889 C10.7484703,1.44488353 10.8333924,1.35395556 10.9381492,1.35395556 C11.0429059,1.35395556 11.127828,1.44488353 11.127828,1.55704889 C11.127828,1.66921425 11.0429059,1.76014222 10.9381492,1.76014222 Z M10.3058862,1.08316444 C10.2011294,1.08316444 10.1162073,0.992236467 10.1162073,0.880071111 C10.1162073,0.767905755 10.2011294,0.676977778 10.3058862,0.676977778 C10.410643,0.676977778 10.4955651,0.767905755 10.4955651,0.880071111 C10.4955651,0.992236467 10.410643,1.08316444 10.3058862,1.08316444 Z M10.9381492,1.08316444 C10.8333924,1.08316444 10.7484703,0.992236467 10.7484703,0.880071111 C10.7484703,0.767905755 10.8333924,0.676977778 10.9381492,0.676977778 C11.0429059,0.676977778 11.127828,0.767905755 11.127828,0.880071111 C11.127828,0.992236467 11.0429059,1.08316444 10.9381492,1.08316444 Z M10.3058862,0.406186667 C10.2011294,0.406186667 10.1162073,0.31525869 10.1162073,0.203093333 C10.1162073,0.090927977 10.2011294,0 10.3058862,0 C10.410643,0 10.4955651,0.090927977 10.4955651,0.203093333 C10.4955651,0.31525869 10.410643,0.406186667 10.3058862,0.406186667 Z M10.9381492,0.406186667 C10.8333924,0.406186667 10.7484703,0.31525869 10.7484703,0.203093333 C10.7484703,0.090927977 10.8333924,0 10.9381492,0 C11.0429059,0 11.127828,0.090927977 11.127828,0.203093333 C11.127828,0.31525869 11.0429059,0.406186667 10.9381492,0.406186667 Z M11.5704121,2.43712 C11.4656553,2.43712 11.3807332,2.34619202 11.3807332,2.23402667 C11.3807332,2.12186131 11.4656553,2.03093333 11.5704121,2.03093333 C11.6751689,2.03093333 11.760091,2.12186131 11.760091,2.23402667 C11.760091,2.34619202 11.6751689,2.43712 11.5704121,2.43712 Z M12.2026751,2.43712 C12.0979183,2.43712 12.0129962,2.34619202 12.0129962,2.23402667 C12.0129962,2.12186131 12.0979183,2.03093333 12.2026751,2.03093333 C12.3074318,2.03093333 12.392354,2.12186131 12.392354,2.23402667 C12.392354,2.34619202 12.3074318,2.43712 12.2026751,2.43712 Z M11.5704121,1.76014222 C11.4656553,1.76014222 11.3807332,1.66921425 11.3807332,1.55704889 C11.3807332,1.44488353 11.4656553,1.35395556 11.5704121,1.35395556 C11.6751689,1.35395556 11.760091,1.44488353 11.760091,1.55704889 C11.760091,1.66921425 11.6751689,1.76014222 11.5704121,1.76014222 Z M12.2026751,1.76014222 C12.0979183,1.76014222 12.0129962,1.66921425 12.0129962,1.55704889 C12.0129962,1.44488353 12.0979183,1.35395556 12.2026751,1.35395556 C12.3074318,1.35395556 12.392354,1.44488353 12.392354,1.55704889 C12.392354,1.66921425 12.3074318,1.76014222 12.2026751,1.76014222 Z M11.5704121,1.08316444 C11.4656553,1.08316444 11.3807332,0.992236467 11.3807332,0.880071111 C11.3807332,0.767905755 11.4656553,0.676977778 11.5704121,0.676977778 C11.6751689,0.676977778 11.760091,0.767905755 11.760091,0.880071111 C11.760091,0.992236467 11.6751689,1.08316444 11.5704121,1.08316444 Z M12.2026751,1.08316444 C12.0979183,1.08316444 12.0129962,0.992236467 12.0129962,0.880071111 C12.0129962,0.767905755 12.0979183,0.676977778 12.2026751,0.676977778 C12.3074318,0.676977778 12.392354,0.767905755 12.392354,0.880071111 C12.392354,0.992236467 12.3074318,1.08316444 12.2026751,1.08316444 Z M11.5704121,0.406186667 C11.4656553,0.406186667 11.3807332,0.31525869 11.3807332,0.203093333 C11.3807332,0.090927977 11.4656553,0 11.5704121,0 C11.6751689,0 11.760091,0.090927977 11.760091,0.203093333 C11.760091,0.31525869 11.6751689,0.406186667 11.5704121,0.406186667 Z M12.2026751,0.406186667 C12.0979183,0.406186667 12.0129962,0.31525869 12.0129962,0.203093333 C12.0129962,0.090927977 12.0979183,0 12.2026751,0 C12.3074318,0 12.392354,0.090927977 12.392354,0.203093333 C12.392354,0.31525869 12.3074318,0.406186667 12.2026751,0.406186667 Z M12.834938,2.43712 C12.7301813,2.43712 12.6452591,2.34619202 12.6452591,2.23402667 C12.6452591,2.12186131 12.7301813,2.03093333 12.834938,2.03093333 C12.9396948,2.03093333 13.0246169,2.12186131 13.0246169,2.23402667 C13.0246169,2.34619202 12.9396948,2.43712 12.834938,2.43712 Z M13.467201,2.43712 C13.3624442,2.43712 13.2775221,2.34619202 13.2775221,2.23402667 C13.2775221,2.12186131 13.3624442,2.03093333 13.467201,2.03093333 C13.5719577,2.03093333 13.6568799,2.12186131 13.6568799,2.23402667 C13.6568799,2.34619202 13.5719577,2.43712 13.467201,2.43712 Z M12.834938,1.76014222 C12.7301813,1.76014222 12.6452591,1.66921425 12.6452591,1.55704889 C12.6452591,1.44488353 12.7301813,1.35395556 12.834938,1.35395556 C12.9396948,1.35395556 13.0246169,1.44488353 13.0246169,1.55704889 C13.0246169,1.66921425 12.9396948,1.76014222 12.834938,1.76014222 Z M13.467201,1.76014222 C13.3624442,1.76014222 13.2775221,1.66921425 13.2775221,1.55704889 C13.2775221,1.44488353 13.3624442,1.35395556 13.467201,1.35395556 C13.5719577,1.35395556 13.6568799,1.44488353 13.6568799,1.55704889 C13.6568799,1.66921425 13.5719577,1.76014222 13.467201,1.76014222 Z M12.834938,1.08316444 C12.7301813,1.08316444 12.6452591,0.992236467 12.6452591,0.880071111 C12.6452591,0.767905755 12.7301813,0.676977778 12.834938,0.676977778 C12.9396948,0.676977778 13.0246169,0.767905755 13.0246169,0.880071111 C13.0246169,0.992236467 12.9396948,1.08316444 12.834938,1.08316444 Z M13.467201,1.08316444 C13.3624442,1.08316444 13.2775221,0.992236467 13.2775221,0.880071111 C13.2775221,0.767905755 13.3624442,0.676977778 13.467201,0.676977778 C13.5719577,0.676977778 13.6568799,0.767905755 13.6568799,0.880071111 C13.6568799,0.992236467 13.5719577,1.08316444 13.467201,1.08316444 Z M12.834938,0.406186667 C12.7301813,0.406186667 12.6452591,0.31525869 12.6452591,0.203093333 C12.6452591,0.090927977 12.7301813,0 12.834938,0 C12.9396948,0 13.0246169,0.090927977 13.0246169,0.203093333 C13.0246169,0.31525869 12.9396948,0.406186667 12.834938,0.406186667 Z M13.467201,0.406186667 C13.3624442,0.406186667 13.2775221,0.31525869 13.2775221,0.203093333 C13.2775221,0.090927977 13.3624442,0 13.467201,0 C13.5719577,0 13.6568799,0.090927977 13.6568799,0.203093333 C13.6568799,0.31525869 13.5719577,0.406186667 13.467201,0.406186667 Z" transform="translate(19.514 4.08)"/>
    <g transform="translate(34.15 63.648)">
      <polygon fill="#FFF" points=".041 25.759 25.531 25.759 25.571 32.64 24.393 34.485 1.626 34.485 0 31.824"/>
      <path fill="#F69A98" d="M51.1396887,9.01108636 C49.5681752,10.5941031 47.5737688,11.4298349 45.4736391,11.8919241 C44.1314913,12.1951702 42.7732163,12.4244098 41.3952302,12.5489573 C41.042222,12.585058 40.6892139,12.6193537 40.3362057,12.6554545 C40.0889208,12.6554545 39.8416359,12.6735048 39.594351,12.6735048 C38.4994882,12.6915552 37.3705789,12.5489573 36.2936352,12.4063595 C34.9335683,12.2294659 33.5932125,11.9081695 32.3048223,11.4460802 C31.5629676,11.1789348 30.8211129,10.8413931 30.1330158,10.4497002 C28.9861873,9.82696273 27.9791285,9.04538205 27.3089506,7.87210852 C26.7444959,6.87572854 26.7444959,5.88115359 27.344789,4.90282397 C28.2102861,3.46240508 29.5345147,2.59057259 30.998513,1.91548906 C33.8584166,0.599617664 36.8939283,0.137528397 40.019036,0.189874446 C42.8968588,0.22597517 45.720924,0.651963714 48.3335427,1.94978474 C49.3567287,2.44797473 50.3817067,3.12305827 51.2113655,3.90644399 C52.9764062,5.63205859 52.7990062,7.32157248 51.1396887,9.01108636 Z"/>
      <path fill="#F69A98" d="M52.4298708,11.2926521 C52.4298708,12.4099695 52.5338021,13.4839661 52.4047839,14.527277 C52.1485394,16.5759931 49.7796217,17.6860903 48.1185123,18.4117149 C43.1316002,20.5940037 36.8132919,20.3340785 31.7726222,18.5308473 C29.4341672,17.6933105 26.810797,16.6319492 26.8215485,13.6861301 C26.8233404,12.9117696 26.8215485,12.1374091 26.8215485,11.2403061 C27.2928233,11.6626845 27.6476234,12.0218867 28.0418457,12.3305479 C30.4394341,14.2150057 33.2581235,15.0038066 36.2004554,15.4189649 C38.748565,15.7781671 41.3038423,15.7366512 43.8429923,15.3106627 C46.5093686,14.8630137 49.0503105,14.0687978 51.2274927,12.3720638 C51.6414262,12.0489623 52.0105616,11.6735148 52.4298708,11.2926521 Z"/>
      <path fill="#F69A98" d="M52.4621253,18.5723631 C52.4621253,19.6896805 52.5660566,20.7636771 52.4370384,21.806988 C52.1807939,23.8557041 49.8118763,24.9658013 48.1507669,25.6914259 C43.1638548,27.8737147 36.8455464,27.6137895 31.8048768,25.8105583 C29.4664217,24.9730215 26.8430515,23.9116602 26.853803,20.9658411 C26.855595,20.1914806 26.853803,19.4171201 26.853803,18.5200171 C27.3250779,18.9423955 27.679878,19.3015977 28.0741003,19.6102589 C30.4716886,21.4947167 33.2903781,22.2835176 36.23271,22.6986759 C38.7808196,23.0578781 41.3360968,23.0163623 43.8752468,22.5903737 C46.5416231,22.1427247 49.082565,21.3485088 51.2597473,19.6517748 C51.6718888,19.3286733 52.0410242,18.9532258 52.4621253,18.5723631 Z"/>
      <path fill="#F69A98" d="M52.4621253 25.7221115C52.4621253 26.8394289 52.5660566 27.9134255 52.4370384 28.9567364 52.1807939 31.0054525 49.8118763 32.1155497 48.1507669 32.8411743 43.1638548 35.0234631 36.8455464 34.7635378 31.8048768 32.9603067 29.4664217 32.1227699 26.8430515 31.0614086 26.853803 28.1155895 26.855595 27.341229 26.853803 26.5668685 26.853803 25.6697655 27.3250779 26.0921439 27.679878 26.4513461 28.0741003 26.7600073 30.4716886 28.6444651 33.2903781 29.4332659 36.23271 29.8484243 38.7808196 30.2076265 41.3360968 30.1661106 43.8752468 29.7401221 46.5416231 29.2924731 49.082565 28.4982572 51.2597473 26.8015232 51.6718888 26.4802267 52.0410242 26.1029742 52.4621253 25.7221115zM25.6083552 29.6414804C25.6083552 30.7587978 25.7122865 31.8327943 25.5832683 32.8761053 25.3270238 34.9248213 22.9581062 36.0349186 21.2969968 36.7605432 16.3100847 38.9428319 9.99177634 38.6829067 4.95110665 36.8796755 2.61265164 36.0421387-.0107185796 34.9807775.0000329376616 32.0349584.00182485721 31.2605979.0000329376616 30.4862373.0000329376616 29.5891343.471307779 30.0115128.82610785 30.370715 1.22033015 30.6793762 3.61791851 32.563834 6.43660796 33.3526348 9.37893985 33.7677931 11.9270495 34.1269953 14.4823267 34.0854795 17.0214767 33.659491 19.687853 33.211842 22.2287949 32.4176261 24.4059772 30.720892 24.8181187 30.3995956 25.1872541 30.022343 25.6083552 29.6414804z"/>
      <path fill="#F69A98" d="M24.2497027,28.7806258 C22.6781892,30.3636426 20.6837828,31.1993743 18.5836531,31.6614636 C17.2415053,31.9647097 15.8832303,32.1939493 14.5052442,32.3184968 C14.152236,32.3545975 13.7992279,32.3888932 13.4462197,32.4249939 C13.1989348,32.4249939 12.9516499,32.4430443 12.704365,32.4430443 C11.6095022,32.4610946 10.4805929,32.3184968 9.40364921,32.1758989 C8.04358227,31.9990054 6.70322645,31.6777089 5.41483629,31.2156197 C4.6729816,30.9484743 3.93112691,30.6109325 3.2430298,30.2192397 C2.09620129,29.5965022 1.0891425,28.8149215 0.418964591,27.641648 C-0.145490067,26.645268 -0.145490067,25.6506931 0.454802982,24.6723634 C1.32030012,23.2319445 2.64452867,22.3601121 4.10852694,21.6850285 C6.96843054,20.3691571 10.0039423,19.9070679 13.1290499,19.9594139 C16.0068727,19.9955146 18.830938,20.4215032 21.4435567,21.7193242 C22.4667427,22.2175142 23.4917207,22.8925977 24.3213794,23.6759835 C26.0864202,25.4015981 25.9090202,27.0911119 24.2497027,28.7806258 Z"/>
    </g>
  </g>
</svg>
