<svg xmlns="http://www.w3.org/2000/svg" width="77" height="77" viewBox="0 0 77 77">
  <g fill="none" fill-rule="evenodd" transform="translate(4 4)">
    <g>
      <ellipse cx="17.211" cy="17.125" fill="#F1F1F1" rx="17.211" ry="17.125"/>
      <rect width="3.825" height="2.664" x="16.064" y="26.259" fill="#FFEBEB"/>
      <path fill="#FEBBBA" d="M15.6783919,28.7466703 C15.6783919,28.7466703 13.4656339,28.7232234 11.9106521,29.5461805 C10.3556703,30.3691376 9.05260414,32.1777974 9.05260414,32.1777974 C9.05260414,32.1777974 12.2819192,34.4355764 17.7206583,34.2762003 C23.1593974,34.1168243 26.014335,31.836298 26.014335,31.836298 C26.014335,31.836298 24.6753504,30.1390467 23.5390214,29.5461805 C22.4026925,28.9533144 21.9306977,28.7594976 19.5994951,28.7594976 L15.6783919,28.7466703 Z"/>
    </g>
    <g transform="translate(5.865 7.245)">
      <path fill="#9B9B9B" d="M18.4945674,1.63111229 C18.3949725,1.84576057 18.2932585,2.06040885 18.1936636,2.27291065 C18.1406875,2.38667423 18.1894255,2.48755893 18.2996156,2.53478155 C19.8931346,3.2152166 20.9823217,4.58252615 21.3446778,6.27180812 C21.1815116,6.24390384 21.0183454,6.21814605 20.8572983,6.19024177 C20.6941321,6.16233749 20.5712277,6.34264205 20.6920131,6.47787047 C21.4866535,7.35578194 21.7133909,8.49556431 21.7536527,9.65466502 C21.7727241,10.1998717 21.7578908,10.7472248 21.7049148,11.2881384 C21.6985576,11.343947 21.3383206,13.3659338 21.2048211,13.2178265 C21.1052261,13.1083559 20.9611313,13.2070941 20.946298,13.3251506 C20.8742506,13.8703573 20.7089654,14.3039468 20.4186568,14.7203645 C20.5754658,13.7909374 20.583942,12.8271666 20.4631566,11.8827142 C20.4546805,11.8097338 20.4122997,11.7582182 20.3593236,11.7303139 L20.4440853,11.7303139 C20.6602275,11.8848607 21.0056312,11.7453393 21.1836306,11.5736207 C21.4781774,11.2967244 21.5565819,10.8287911 21.5057249,10.4424242 C21.3997728,9.65251854 20.5775849,9.03862446 19.8465157,9.52158309 C19.7723492,9.57309868 19.761754,9.65466502 19.7871825,9.72120599 C19.7829444,9.72335247 19.7808254,9.72335247 19.7787064,9.72549896 C19.5604451,9.92726834 19.3527791,10.1397701 19.1493511,10.3544184 C19.1768987,9.70403413 19.0116135,9.11375136 18.6323051,8.53634748 C18.5602577,8.42473037 18.4013296,8.4461952 18.3589488,8.57283769 C18.3398774,8.6093279 18.318687,8.6458181 18.2974966,8.68445479 C18.2593538,8.15212706 18.0813544,7.66487546 17.7592601,7.19908869 C17.7147603,7.13684069 17.6236415,7.09391103 17.5515941,7.14542662 C16.4560498,7.92889285 15.2587916,8.40111906 13.9386289,8.55137286 C14.0297477,8.36033589 14.0911999,8.16929892 14.1399378,7.92889285 C14.1653663,7.80225036 14.0297477,7.66487546 13.9068433,7.74858829 C12.3832527,8.77031411 10.645639,9.26400515 8.83809686,9.25112626 C9.09873892,9.04721039 9.31276208,8.8089508 9.51407099,8.50629672 C9.57552318,8.41185148 9.52466619,8.3216992 9.44626167,8.28520899 C9.45473784,8.28091603 9.463214,8.27876954 9.47169017,8.27447658 C9.51619003,8.25515823 9.51619003,8.18217782 9.45897592,8.1843243 C8.08159917,8.1972032 6.65124638,8.63937865 5.30565525,8.9205679 C3.81173123,9.23395439 2.0698794,9.84355551 0.656478951,9.06223577 C1.16928691,8.783193 1.58673802,8.42258389 1.90671323,7.90313505 C1.93637981,7.85161946 1.92790364,7.79581091 1.89611803,7.75502774 C1.96604639,7.70136567 1.97240351,7.58116263 1.86433241,7.55540484 C0.989168412,7.34075656 1.73930898,6.4113295 2.04868899,5.86397638 C2.40892599,5.22861747 2.83061518,4.62974877 3.30951848,4.07810269 C4.23977755,3.01130073 5.37346457,2.11836388 6.64277022,1.50017683 C9.63909442,0.0384220423 13.0994886,0.227312529 16.0597891,1.66545601 C16.1954078,1.73199698 16.3267883,1.64828415 16.3416216,1.50017683 C16.360693,1.31557931 16.3818834,1.13098179 16.4009547,0.94638427 C16.9964053,1.47012608 17.7062841,1.69550677 18.4945674,1.63111229"/>
      <path fill="#FFEBEB" d="M17.4159755,7.62623877 C18.0644021,7.54896539 18.0432116,8.80680431 17.9923547,9.26185867 C17.9796404,9.38850115 18.163997,9.46148157 18.2445206,9.36703633 C18.3653059,9.22322198 18.4521866,9.09014004 18.526353,8.94203273 C18.8272569,9.50441123 18.9183756,10.0710827 18.8124236,10.7386388 C18.7912332,10.8717208 18.9522803,11.0112422 19.0603514,10.8845997 C19.3570172,10.5433089 19.6409687,10.1955787 19.9058488,9.83067661 C19.9397535,9.83496958 19.9736581,9.8328231 20.0118009,9.8070653 C20.5542754,9.44645619 21.1031071,9.92082889 21.1857497,10.4853539 C21.2260115,10.7579572 21.1942258,11.0541718 21.0310597,11.2795525 C20.8488221,11.530691 20.6644656,11.4963473 20.4080616,11.5736207 C20.3635617,11.588646 20.3529665,11.6401616 20.3826331,11.6745053 C20.4017045,11.6959702 20.4228949,11.7152885 20.4440853,11.7303139 L20.3593236,11.7303139 C20.2448954,11.6702124 20.0774912,11.7195815 20.0986816,11.8827142 C20.3932283,14.2760425 19.8867775,16.7809879 18.1279733,18.5110531 C16.309836,20.3033662 13.8877719,20.3205381 11.5102078,20.2217999 C9.31700016,20.1316476 7.00088818,19.9212923 5.14672716,18.6097913 C2.94928148,17.0578842 2.718306,14.5464993 2.41740215,12.0716047 C2.40680695,11.9728665 2.26271215,11.966427 2.26059311,12.0716047 L2.26059311,12.0758976 C1.82407063,11.8913001 1.36000061,11.6272827 1.2307391,11.1314452 C1.06757294,10.5046722 1.50409541,10.0238601 2.12285543,10.0818151 C2.28178352,10.0968405 2.28814064,9.8693133 2.15887913,9.8199442 C2.1313316,9.80921179 2.10378406,9.80277234 2.07623653,9.79418641 C2.71618696,9.81350475 3.37520876,9.69330171 4.03211151,9.5580733 C5.70615403,9.21463605 7.5942197,9.00213425 9.20257194,8.37750775 C8.92709659,8.76816762 8.62195466,9.03218501 8.20450355,9.2575657 C8.04769451,9.34342502 8.13245615,9.56880571 8.29138424,9.57953812 C10.2472592,9.69974116 12.0653965,9.22966143 13.7330819,8.2336934 C13.6737488,8.38609368 13.5953443,8.53205451 13.4936303,8.66942941 C13.430059,8.77246059 13.5127017,8.93130032 13.6377251,8.92271439 C14.51077,8.85402694 15.3520294,8.68016183 16.1593841,8.33028513 C16.5090258,8.17788485 17.0663337,7.66916843 17.4159755,7.62623877 Z"/>
      <path fill="#AAA" d="M20.5924182 10.7085881C20.5373231 10.7343459 20.4843471 10.7622502 20.4356091 10.8051798 20.3550855 10.8760137 20.3169428 10.9640195 20.2576097 11.0498788 20.2131098 11.1142733 20.0774912 11.1013944 20.0902054 11.0048027 20.1135149 10.8137657 20.2788001 10.6034104 20.4631566 10.5025257 20.3699188 10.410227 20.2448954 10.3501255 20.1092768 10.3265141 20.0287532 10.3114888 20.0308723 10.1805533 20.1092768 10.1655279 20.2131098 10.1440631 20.2936334 10.1419166 20.3974664 10.1784068 20.4907042 10.2127506 20.5733468 10.2621197 20.6453942 10.3265141 20.8022032 10.4595961 20.8975601 10.6635119 20.8975601 10.8695743 20.895441 11.0477324 20.6284419 11.0455859 20.6242038 10.8695743 20.6220847 10.8116193 20.6093705 10.7579572 20.5924182 10.7085881M17.5664274 12.1853683C17.6914508 12.4515321 17.6956889 12.7498932 17.5749036 13.0203501 17.5049752 13.1727503 17.2485712 13.0611332 17.3057853 12.90444 17.3841898 12.6940847 17.3884279 12.4837294 17.3015472 12.273374 17.2167856 12.0737511 17.0387861 11.9685735 16.9413102 11.7861225 16.9349531 11.7710971 16.9413102 11.7517787 16.9561435 11.7496322 17.2273808 11.6852378 17.4583563 11.9535481 17.5664274 12.1853683M16.7272871 12.2368838C16.8120487 12.2540557 16.8629057 12.344208 16.8671438 12.4214814 16.877739 12.6146648 16.7908583 12.8164342 16.621335 12.9108794 16.464526 12.9988852 16.258979 12.9645415 16.1403127 12.8314596 16.0894557 12.7735045 16.0640272 12.7026706 16.0597891 12.6296902 16.0428368 12.5846141 16.0449558 12.535245 16.0788605 12.4880223 16.0830986 12.4815829 16.0873367 12.4794364 16.0915747 12.4751434 16.1127652 12.4322138 16.1445508 12.3957236 16.1890506 12.3656728 16.2293124 12.3420615 16.2716932 12.3291826 16.3161931 12.3205967 16.4327404 12.2433233 16.5789542 12.211126 16.7272871 12.2368838M12.7413707 15.5725181C12.6714423 16.1026994 11.9191827 16.3860351 11.5419934 15.9932288 11.4021367 15.8472679 11.6076837 15.656231 11.7581356 15.7742875 11.9785159 15.9502991 12.4044431 15.842975 12.4468239 15.531735 12.4934429 15.211909 12.1480391 15.0552158 11.8746828 15.0745341 11.7983974 15.2290809 11.5483505 15.1646864 11.6034456 14.9865283 12.1289678 13.2607561 12.0738727 11.6745053 11.4635889 9.97878393 11.4275652 9.87575275 11.5907313 9.80921179 11.6394693 9.90365703 12.4044431 11.4126344 12.5167523 13.2049476 11.9742778 14.8040773 12.3620623 14.7611476 12.7943467 15.1603934 12.7413707 15.5725181M14.9748401 17.7984208C13.3156308 19.017623 10.9783284 19.1979276 9.25130988 18.0066296 9.14535783 17.9336492 9.2364766 17.7812489 9.35090482 17.834911 11.1753993 18.706383 13.1122029 18.6655999 14.7904835 17.4764484 14.9854353 17.336927 15.1634347 17.6588994 14.9748401 17.7984208M7.18312572 12.3055713C7.25517311 12.3742587 7.30179202 12.4665575 7.29755394 12.5738816 7.29331586 12.7971159 7.09412599 12.9817134 6.87798379 12.9881528 6.67031776 12.9924458 6.48172309 12.8228736 6.44358035 12.6211043 6.40119953 12.4000165 6.54105624 12.1961007 6.75084132 12.1381456 6.92036461 12.090923 7.09412599 12.1617569 7.18312572 12.3055713M5.7972728 13.0589868C5.40525018 12.775651 5.37982169 12.148878 5.7612491 11.841931 5.92017719 11.7152885 6.14479555 11.9406692 5.98586746 12.0694582 5.73793965 12.2669346 5.71674923 12.6404226 5.93924856 12.8700963 6.03248637 12.9645415 5.90746294 13.1384066 5.7972728 13.0589868M1.68209487 11.34824C1.53376199 11.037 1.57826185 10.4789144 1.9618083 10.3565649 2.04233187 10.3308071 2.12921255 10.4338383 2.07623653 10.5068187 2.01054625 10.5991175 1.93214173 10.6720979 1.87704666 10.7665431 1.95757022 10.7858615 2.03597474 10.8137657 2.11226023 10.8502559 2.12921255 10.845963 2.14828393 10.8502559 2.16523625 10.8631348L2.34323571 11.0005097C2.34959284 11.0069492 2.35594996 11.0090957 2.36230708 11.0155351 2.45342585 11.094955 2.32416434 11.2215975 2.23304557 11.1464706 2.17371242 11.099248 2.11649831 11.0520253 2.05716516 11.0048027 2.04233187 10.9919238 2.03597474 10.9768984 2.03173666 10.9618731 1.97240351 10.9189434 1.90671323 10.8824532 1.83466583 10.8524024 1.78380885 10.9962168 1.78592789 11.1378846 1.83678488 11.281699 1.87068953 11.3739978 1.72235665 11.4362458 1.68209487 11.34824"/>
      <path fill="#9B9B9B" d="M16.0597891,1.66545601 C13.0994886,0.227312529 9.63909442,0.0384220423 6.64277022,1.50017683 C5.37346457,2.11836388 4.23977755,3.01130073 3.30951848,4.07810269 C2.83061518,4.62974877 2.40892599,5.22861747 2.04868899,5.86397638 C1.73930898,6.4113295 0.989168412,7.34075656 1.86433241,7.55540484 C1.97240351,7.58116263 1.96604639,7.70136567 1.89611803,7.75502774 C1.92790364,7.79581091 1.93637981,7.85161946 1.90671323,7.90313505 C1.58673802,8.42258389 1.16928691,8.783193 0.656478951,9.06223577 C2.0698794,9.84355551 3.81173123,9.23395439 5.30565525,8.9205679 C6.65124638,8.63937865 8.08159917,8.1972032 9.45897592,8.1843243 C9.51619003,8.18217782 9.51619003,8.25515823 9.47169017,8.27447658 C9.463214,8.27876954 9.45473784,8.28091603 9.44626167,8.28520899 C9.52466619,8.3216992 9.57552318,8.41185148 9.51407099,8.50629672 C9.31276208,8.8089508 9.09873892,9.04721039 8.83809686,9.25112626 C10.645639,9.26400515 12.3832527,8.77031411 13.9068433,7.74858829 C14.0297477,7.66487546 14.1653663,7.80225036 14.1399378,7.92889285 C14.0911999,8.16929892 14.0297477,8.36033589 13.9386289,8.55137286 C15.2587916,8.40111906 16.4560498,7.92889285 17.5515941,7.14542662 C17.6236415,7.09391103 17.7147603,7.13684069 17.7592601,7.19908869 C18.0813544,7.66487546 18.2593538,8.15212706 18.2974966,8.68445479 C18.318687,8.6458181 18.3398774,8.6093279 18.3589488,8.57283769 C18.4013296,8.4461952 18.5602577,8.42473037 18.6323051,8.53634748 C19.0116135,9.11375136 19.1768987,9.70403413 19.1493511,10.3544184 C19.3527791,10.1397701 19.5604451,9.92726834 19.7787064,9.72549896 C19.7808254,9.72335247 19.7829444,9.72335247 19.7871825,9.72120599 C19.761754,9.65466502 19.7723492,9.57309868 19.8465157,9.52158309 C20.5775849,9.03862446 21.3997728,9.65251854 21.5057249,10.4424242 C21.5565819,10.8287911 21.4781774,11.2967244 21.1836306,11.5736207 C21.0056312,11.7453393 20.6602275,11.8848607 20.4440853,11.7303139 C20.4228949,11.7152885 20.4017045,11.6959702 20.3826331,11.6745053 C20.3529665,11.6401616 20.3635617,11.588646 20.4080616,11.5736207 C20.6644656,11.4963473 20.8488221,11.530691 21.0310597,11.2795525 C21.1942258,11.0541718 21.2260115,10.7579572 21.1857497,10.4853539 C21.1031071,9.92082889 20.5542754,9.44645619 20.0118009,9.8070653 C19.9736581,9.8328231 19.9397535,9.83496958 19.9058488,9.83067661 C19.6409687,10.1955787 19.3570172,10.5433089 19.0603514,10.8845997 C18.9522803,11.0112422 18.7912332,10.8717208 18.8124236,10.7386388 C18.9183756,10.0710827 18.8272569,9.50441123 18.526353,8.94203273 C18.4521866,9.09014004 18.3653059,9.22322198 18.2445206,9.36703633 C18.163997,9.46148157 17.9796404,9.38850115 17.9923547,9.26185867 C18.0432116,8.80680431 18.0644021,7.54896539 17.4159755,7.62623877 C17.0663337,7.66916843 16.5090258,8.17788485 16.1593841,8.33028513 C15.3520294,8.68016183 14.51077,8.85402694 13.6377251,8.92271439 C13.5127017,8.93130032 13.430059,8.77246059 13.4936303,8.66942941 C13.5953443,8.53205451 13.6737488,8.38609368 13.7330819,8.2336934 C12.0653965,9.22966143 10.2472592,9.69974116 8.29138424,9.57953812 C8.13245615,9.56880571 8.04769451,9.34342502 8.20450355,9.2575657 C8.62195466,9.03218501 8.92709659,8.76816762 9.20257194,8.37750775 C7.5942197,9.00213425 5.70615403,9.21463605 4.03211151,9.5580733 C3.37520876,9.69330171 2.71618696,9.81350475 2.07623653,9.79418641 C2.10378406,9.80277234 2.1313316,9.80921179 2.15887913,9.8199442 C2.28814064,9.8693133 2.28178352,10.0968405 2.12285543,10.0818151 C1.50409541,10.0238601 1.06757294,10.5046722 1.2307391,11.1314452 C1.36000061,11.6272827 1.82407063,11.8913001 2.26059311,12.0758976 L2.26059311,12.0716047 C2.26271215,11.966427 2.40680695,11.9728665 2.41740215,12.0716047 C2.718306,14.5464993 2.94928148,17.0578842 5.14672716,18.6097913 C7.00088818,19.9212923 9.31700016,20.1316476 11.5102078,20.2217999 C13.8877719,20.3205381 16.309836,20.3033662 18.1279733,18.5110531 C19.8867775,16.7809879 20.3932283,14.2760425 20.0986816,11.8827142 C20.0774912,11.7195815 20.2448954,11.6702124 20.3593236,11.7303139 C20.4122997,11.7582182 20.4546805,11.8097338 20.4631566,11.8827142 C20.583942,12.8271666 20.5754658,13.7909374 20.4186568,14.7203645 C20.7089654,14.3039468 20.8742506,13.8703573 20.946298,13.3251506 C20.9611313,13.2070941 21.1052261,13.1083559 21.2048211,13.2178265 C21.3383206,13.3659338 21.6985576,11.343947 21.7049148,11.2881384 C21.7578908,10.7472248 21.7727241,10.1998717 21.7536527,9.65466502 C21.7133909,8.49556431 21.4866535,7.35578194 20.6920131,6.47787047 C20.5712277,6.34264205 20.6941321,6.16233749 20.8572983,6.19024177 C21.0183454,6.21814605 21.1815116,6.24390384 21.3446778,6.27180812 C20.9823217,4.58252615 19.8931346,3.2152166 18.2996156,2.53478155 C18.1894255,2.48755893 18.1406875,2.38667423 18.1936636,2.27291065 C18.2932585,2.06040885 18.3949725,1.84576057 18.4945674,1.63111229 C17.7062841,1.69550677 16.9964053,1.47012608 16.4009547,0.94638427 C16.3818834,1.13098179 16.360693,1.31557931 16.3416216,1.50017683 C16.3267883,1.64828415 16.1954078,1.73199698 16.0597891,1.66545601 Z M18.2614729,18.8759552 C16.3755263,20.6274851 13.9280337,20.6661218 11.5102078,20.5609442 C9.09026276,20.4557665 6.50715159,20.1896026 4.56610989,18.5733011 C2.73313928,17.0450053 2.24152174,14.5958684 2.25847407,12.2948389 C1.53588103,12.2240049 0.885335396,11.6852378 0.862025943,10.9060645 C0.845073614,10.3715903 1.23497719,9.83926254 1.73930898,9.77057509 C1.21378677,9.71262006 0.703097856,9.5451944 0.219956472,9.1953177 C0.126718661,9.12877674 0.0906949615,8.95491163 0.219956472,8.89695659 C0.811168955,8.63079272 1.24345335,8.24871878 1.66726158,7.75717422 C1.47654788,7.72926994 1.28795322,7.69921918 1.09723951,7.66702194 C1.02731115,7.65414305 0.976454165,7.5596978 0.999763618,7.49101035 C3.15270943,1.37782731 10.2260688,-1.61866269 15.9983369,1.21254814 C16.0237654,0.991460409 16.0491939,0.77037268 16.0746224,0.549284951 C16.0915747,0.401177637 16.2695742,0.285267565 16.3882405,0.416203017 C17.0091196,1.10737048 17.8249504,1.40573159 18.7467333,1.23830593 C18.9035424,1.21040166 19.0158515,1.35636249 18.9480422,1.5044698 C18.5178769,2.41243203 18.7700428,2.27076416 19.4947548,2.78592004 C19.8783013,3.05852335 20.221586,3.38264226 20.5224898,3.74539785 C21.1687974,4.52457111 21.56082,5.43467982 21.7239861,6.43708729 C21.7472956,6.57231571 21.6498197,6.6732004 21.5142011,6.64958909 C21.4146061,6.63241723 21.3150112,6.61524537 21.2154163,6.5980735 C22.1011755,7.86879133 22.1499134,9.56880571 22.0333661,11.0842226 C22.0079377,11.406195 21.8341763,13.8445995 21.1984639,13.5977539 C21.0628453,14.2309664 20.7958461,14.7461222 20.3572046,15.2462527 C20.3402523,15.2655711 20.3211809,15.2763035 20.3021095,15.2827429 C19.9778962,16.6371736 19.3209935,17.892866 18.2614729,18.8759552 L18.2614729,18.8759552 Z"/>
    </g>
    <g transform="translate(43.844 7.188)">
      <path fill="#FEBBBA" d="M7.16374365,1.63424829e-13 C11.1467852,1.63424829e-13 14.375,3.217125 14.375,7.1875 C14.375,11.1598654 11.146804,14.375 7.16374365,14.375 C3.179405,14.375 0,11.1638462 0,7.1875 C0,3.21303365 3.1794238,1.63424829e-13 7.16374365,1.63424829e-13 Z"/>
      <path fill="#FFF" d="M4.81641289,2.875 L4.81641289,2.88669838 L4.79166667,2.88669838 L4.79166667,4.08461504 L5.87635318,4.08461504 C6.86168844,4.08461504 7.35906343,4.61371004 7.53843922,5.27083333 L4.81641289,5.27083333 L4.81641289,6.46875 L7.53843922,6.46875 C7.35964412,7.12634072 6.86288996,7.65730794 5.87635318,7.65730794 L5.53816256,7.65730794 L5.53403748,7.65262852 L5.52991347,7.65730794 L4.79166667,7.65730794 L4.79166667,8.85522521 L5.10305011,8.85522521 L8.32411434,12.4583333 L9.06648516,11.6066889 L6.53830036,8.77567516 C7.68354322,8.5032174 8.41884851,7.53612693 8.62106267,6.46875 L10.0625,6.46875 L10.0625,5.27083333 L8.62106267,5.27083333 C8.5391535,4.83990222 8.36157787,4.43238918 8.11377674,4.07291667 L10.0625,4.07291667 L10.0625,2.875 L4.81641289,2.875 Z"/>
    </g>
    <g transform="translate(34.5 34.5)">
      <ellipse cx="17.131" cy="17.149" fill="#F1F1F1" rx="17.131" ry="17.149"/>
      <rect width="3.807" height="2.668" x="15.228" y="26.639" fill="#FFEBEB"/>
      <path fill="#FEBBBA" d="M14.8440502,28.7856083 C14.8440502,28.7856083 12.641588,28.7621296 11.0938414,29.5862014 C9.54609483,30.4102733 8.24909173,32.2213829 8.24909173,32.2213829 C8.24909173,32.2213829 11.463381,34.4822201 16.8768141,34.3226282 C22.2902472,34.1630362 25.131901,31.8794209 25.131901,31.8794209 C25.131901,31.8794209 23.7991466,30.1798707 22.6681049,29.5862014 C21.5370632,28.9925322 21.0672646,28.7984529 18.7469089,28.7984529 L14.8440502,28.7856083 Z"/>
      <g transform="translate(6.21 7.245)">
        <path fill="#9B9B9B" d="M1.4151443,10.9613704 C1.44559996,11.6639353 2.19747394,12.4068113 2.91127836,12.1534272 C2.65050181,14.2092933 2.87891923,16.8045602 4.34269415,18.372854 C4.65676809,18.7087798 5.00510465,18.9871183 5.37628294,19.2270653 C3.69170452,19.6532112 2.06613393,19.6973615 0.335872023,19.5418758 C0.480536385,18.2173683 0.636621617,16.8909412 0.762251195,15.5625945 C0.895494686,14.1632235 0.804127721,12.8214397 0.726085104,11.4239883 C0.585227699,8.83448006 1.09345644,6.12403853 2.7133166,4.04513756 C4.17138109,2.17547039 6.37751261,1.05251834 8.67120413,0.639809471 C11.2351896,0.177191618 13.5726611,0.634050742 15.8016344,1.95087998 C15.8511248,1.9815932 15.9044222,1.96239744 15.9348779,1.92592549 C15.9501057,1.93168422 15.9653335,1.93744295 15.9862718,1.93552337 C17.956372,1.82610753 19.6162052,2.79357391 20.2557739,4.72082837 C20.7506783,6.21425861 20.6478905,7.85357665 20.6345662,9.4026746 C20.6212418,11.2224328 20.5888827,13.0441106 20.5831722,14.8638687 C20.5793653,16.3477011 20.6574079,17.8027398 21.3293358,19.1541214 C21.3426601,19.1829151 21.3616949,19.2021108 21.3807297,19.2174675 C19.7551591,20.0025741 18.1010363,19.4382187 16.4792727,18.9007374 C18.1162642,17.3765939 18.576906,14.7467746 18.529319,12.6064472 C18.529319,12.5738144 18.5217051,12.5469403 18.5083807,12.5219858 C19.2488338,12.5776536 19.901727,11.9768262 19.8636574,11.1936391 C19.8217809,10.3432669 18.9518912,9.7328417 18.1505268,10.0207781 C18.1429129,10.0246173 18.1372024,10.0284564 18.1295885,10.0322956 C18.1124572,10.0015824 18.087712,9.97470829 18.0496424,9.95935168 C17.4119772,9.69061102 16.8770997,9.23759105 16.5097284,8.64444202 C16.1804266,8.11079985 16.1080944,7.54644446 15.9215535,6.96481289 C15.9215535,6.96097373 15.9177466,6.96097373 15.9177466,6.95713458 C15.8853874,6.83812086 15.7293022,6.74790078 15.6093831,6.8592362 C12.1602801,10.0284564 7.45868836,10.1493897 3.05974968,9.7328417 C3.04452185,9.71940466 3.02548707,9.70596763 3.00074185,9.69828933 C2.18605307,9.4026746 1.37897821,10.1321135 1.4151443,10.9613704"/>
        <path fill="#FFEBEB" d="M1.78441912,11.0573492 C1.65498259,10.3394278 2.26790264,9.89600567 2.92079575,9.99198448 C2.99312793,10.0015824 3.04832881,9.97086914 3.08068794,9.92671889 C7.44346054,10.596651 12.2801993,10.3106341 15.7293022,7.24123185 C15.6208039,8.55038279 16.8694858,9.81730305 17.9620824,10.2799209 C18.0077659,10.2991167 18.0458355,10.2952775 18.0781946,10.2780013 C18.1124572,10.3183124 18.1638511,10.3432669 18.2342798,10.3279103 C18.8776556,10.1820225 19.543873,10.5294658 19.5571974,11.2589047 C19.5705217,11.9441934 18.9537947,12.3434653 18.3294538,12.2916367 C18.2437972,12.285878 18.2095346,12.3876155 18.2437972,12.4490419 C18.1924033,12.4778356 18.1524303,12.5277446 18.1524303,12.6064472 C18.1809824,14.5951281 17.8098041,17.0944162 16.3155736,18.5475354 C14.7604317,20.0601614 12.5162306,20.2406015 10.4642808,20.1503815 C8.46562846,20.062081 6.31850477,19.7587879 4.78620463,18.3344624 C3.08830185,16.7546513 3.09781925,14.1996954 3.12066099,12.0440114 C3.12066099,11.9864241 3.07307403,11.9518717 3.02358359,11.9480326 C3.01406619,11.9384347 3.0045488,11.9288368 2.98932098,11.9249977 C2.45063658,11.8059839 1.90433826,11.7138443 1.78441912,11.0573492 Z"/>
        <path fill="#AAA" d="M18.9252425 11.2051566C18.7615434 11.3049746 18.6187825 11.4316666 18.4798286 11.5660369 18.4322416 11.6121067 18.3294538 11.5660369 18.3580059 11.4950126 18.441759 11.289618 18.5864234 11.1302931 18.7577364 10.999762 18.6244929 10.8807482 18.4569868 10.8058848 18.2590251 10.7924477 18.135299 10.7847694 18.1391059 10.6139271 18.2590251 10.6024097 18.7196668 10.5563399 19.2031504 10.8961048 19.2983243 11.3587227 19.3344904 11.5372433 19.0775208 11.6121067 19.0261269 11.4355057 19.0013817 11.3510444 18.967119 11.2761809 18.9252425 11.2051566M15.5027883 12.8982228C15.8454144 12.802244 16.0167275 12.4144896 15.883484 12.0881616 15.8168622 11.9230781 16.0795422 11.8520538 16.146164 12.0152177 16.3308014 12.4643986 16.0300518 13.0133973 15.5598926 13.1074566 15.4247457 13.1343306 15.3695448 12.9366143 15.5027883 12.8982228M14.905096 12.1111965C14.9317447 12.1015987 14.9602969 12.0958399 14.9869456 12.0939204 15.0478569 12.0708854 15.1182856 12.0670463 15.1868108 12.0977595 15.2077491 12.1073574 15.2172665 12.1303923 15.21917 12.1534272 15.3219578 12.2244515 15.3790622 12.3511436 15.3257648 12.4970314 15.2267839 12.7619329 14.8422812 12.7964852 14.7661421 12.4951118 14.7623352 12.4816747 14.7623352 12.4682377 14.7623352 12.4548007 14.7547212 12.4490419 14.7471073 12.4432832 14.7413969 12.4356049 14.6443195 12.3012346 14.7851769 12.1572664 14.905096 12.1111965M11.8538201 16.3457815C11.8728549 15.8562896 11.2332861 15.9119573 10.93444 15.9944991 10.8925635 16.0060166 10.8583009 15.9887404 10.8392661 15.9599467 10.7669339 15.9580272 10.7022156 15.9119573 10.711733 15.8178981 10.8316522 14.4511599 10.6260765 13.1995962 10.2986782 11.8770083 10.2796434 11.8002252 10.3900452 11.7483967 10.4281147 11.8213405 11.025807 13.0229952 11.1666644 14.4223662 11.0143861 15.7468738 11.2485139 15.6470558 11.511194 15.6221013 11.7472253 15.7372759 11.9642218 15.8447722 12.127921 16.0712821 12.1393419 16.3189075 12.1659906 16.950448 11.419827 16.9926787 10.982027 16.8755846 10.7821617 16.8218364 10.8678183 16.5243021 11.06578 16.5665328 11.2980044 16.6145222 11.8385923 16.7316163 11.8538201 16.3457815"/>
        <path fill="#9B9B9B" d="M13.8144029,18.0945154 C12.3620488,18.9871183 9.75809032,19.4228621 8.47514585,17.9946974 C8.41233106,17.9236731 8.50750499,17.8296139 8.57983717,17.8910403 C9.99983209,19.0830971 12.2002532,18.6991819 13.6887733,17.8776033 C13.8296307,17.8008203 13.9495499,18.0100541 13.8144029,18.0945154"/>
        <path fill="#AAA" d="M6.44603783 12.3300282C6.74678742 12.2743605 6.98852919 12.6429191 6.84005787 12.9078207 6.69539351 13.1631243 6.2899526 13.1439285 6.15861259 12.8847857 6.10150823 12.7734503 6.12054302 12.652517 6.17955085 12.5546186 6.23094477 12.4452028 6.32421521 12.3530631 6.44603783 12.3300282M5.34582729 12.6621149C5.37818642 12.7984048 5.46384295 12.9174185 5.59518297 12.9711667 5.72271602 13.0229952 5.67512906 13.1995962 5.53807861 13.1765613 5.11740988 13.1074566 4.84521246 12.426007 5.21639076 12.1342315 5.32869598 12.045931 5.49429861 12.1534272 5.42006295 12.2916367 5.3534412 12.4144896 5.31346816 12.5200663 5.34582729 12.6621149M2.18414959 10.5256266C2.30977917 10.3471061 2.6162392 10.1801029 2.82181487 10.3163928 2.89414705 10.3624627 2.88272618 10.4718785 2.79897313 10.4987526 2.68095747 10.5352245 2.56484528 10.533305 2.46776788 10.5985705 2.7399653 10.6004901 2.9779001 10.7348604 3.13208186 10.9575313 3.22344882 11.0861429 2.99883837 11.2224328 2.91889227 11.0823037 2.82181487 10.9114615 2.65430877 10.800126 2.46015397 10.7809303 2.41066353 10.7751715 2.38401483 10.7406192 2.37640092 10.7041472 2.30026178 10.8289197 2.30406873 10.9844053 2.3516557 11.1206953 2.38020787 11.1993979 2.26219221 11.2723418 2.20889481 11.2051566 2.05280958 11.0093598 2.03758175 10.7329409 2.18414959 10.5256266"/>
        <path fill="#AAA" d="M9.05570678,0.215583141 C11.292294,-0.0953881952 14.1437047,0.136880519 15.8930014,1.75124406 C15.9063257,1.73012872 15.9253605,1.71477211 15.9539127,1.70901339 C17.2939615,1.434514 18.7272808,1.92592549 19.6504678,2.94330085 C20.5717514,3.96259579 20.8744044,5.34085146 20.9657714,6.67879604 C21.1009184,8.65212032 20.9771923,10.6561578 20.9619644,12.6314017 C20.9448331,14.7294984 20.6973809,17.0272311 21.6434097,18.9679226 C21.6700584,19.0216707 21.668155,19.0734992 21.6529271,19.1176495 C21.8013984,19.1330061 21.8946689,19.3537574 21.7290663,19.445897 C19.9683487,20.4229613 17.9944416,19.8835604 16.277504,19.0754188 C14.6290917,20.4555941 12.3487245,20.605321 10.2891608,20.4959052 C8.75115023,20.4133634 7.10654485,20.1849338 5.73794385,19.4401383 C5.72081254,19.4574145 5.69987428,19.4727711 5.6713221,19.4804494 C3.93725324,19.9833783 2.07184436,20.1273466 0.305416368,19.7050398 C0.233084187,19.8432493 -0.0105610537,19.8240535 0.00847373077,19.6436134 C0.191207661,17.919834 0.45008073,16.1826176 0.526219868,14.4473207 C0.594745092,12.8886249 0.307319847,11.3395269 0.391072898,9.7808311 C0.522412911,7.34680854 1.32758429,4.92046429 3.0311975,3.14485635 C4.61489157,1.49210128 6.81911961,0.526554478 9.05570678,0.215583141 Z M10.4642808,20.1503815 C12.5162306,20.2406015 14.7604317,20.0601614 16.3155736,18.5475354 C17.8098041,17.0944162 18.1809824,14.5951281 18.1524303,12.6064472 C18.1524303,12.5277446 18.1924033,12.4778356 18.2437972,12.4490419 C18.2095346,12.3876155 18.2437972,12.285878 18.3294538,12.2916367 C18.9537947,12.3434653 19.5705217,11.9441934 19.5571974,11.2589047 C19.543873,10.5294658 18.8776556,10.1820225 18.2342798,10.3279103 C18.1638511,10.3432669 18.1124572,10.3183124 18.0781946,10.2780013 C18.0458355,10.2952775 18.0077659,10.2991167 17.9620824,10.2799209 C16.8694858,9.81730305 15.6208039,8.55038279 15.7293022,7.24123185 C12.2801993,10.3106341 7.44346054,10.596651 3.08068794,9.92671889 C3.04832881,9.97086914 2.99312793,10.0015824 2.92079575,9.99198448 C2.26790264,9.89600567 1.65498259,10.3394278 1.78441912,11.0573492 C1.90433826,11.7138443 2.45063658,11.8059839 2.98932098,11.9249977 C3.0045488,11.9288368 3.01406619,11.9384347 3.02358359,11.9480326 C3.07307403,11.9518717 3.12066099,11.9864241 3.12066099,12.0440114 C3.09781925,14.1996954 3.08830185,16.7546513 4.78620463,18.3344624 C6.31850477,19.7587879 8.46562846,20.062081 10.4642808,20.1503815 Z M4.34269415,18.372854 C2.87891923,16.8045602 2.65050181,14.2092933 2.91127836,12.1534272 C2.19747394,12.4068113 1.44559996,11.6639353 1.4151443,10.9613704 C1.37897821,10.1321135 2.18605307,9.4026746 3.00074185,9.69828933 C3.02548707,9.70596763 3.04452185,9.71940466 3.05974968,9.7328417 C7.45868836,10.1493897 12.1602801,10.0284564 15.6093831,6.8592362 C15.7293022,6.74790078 15.8853874,6.83812086 15.9177466,6.95713458 C15.9177466,6.96097373 15.9215535,6.96097373 15.9215535,6.96481289 C16.1080944,7.54644446 16.1804266,8.11079985 16.5097284,8.64444202 C16.8770997,9.23759105 17.4119772,9.69061102 18.0496424,9.95935168 C18.087712,9.97470829 18.1124572,10.0015824 18.1295885,10.0322956 C18.1372024,10.0284564 18.1429129,10.0246173 18.1505268,10.0207781 C18.9518912,9.7328417 19.8217809,10.3432669 19.8636574,11.1936391 C19.901727,11.9768262 19.2488338,12.5776536 18.5083807,12.5219858 C18.5217051,12.5469403 18.529319,12.5738144 18.529319,12.6064472 C18.576906,14.7467746 18.1162642,17.3765939 16.4792727,18.9007374 C18.1010363,19.4382187 19.7551591,20.0025741 21.3807297,19.2174675 C21.3616949,19.2021108 21.3426601,19.1829151 21.3293358,19.1541214 C20.6574079,17.8027398 20.5793653,16.3477011 20.5831722,14.8638687 C20.5888827,13.0441106 20.6212418,11.2224328 20.6345662,9.4026746 C20.6478905,7.85357665 20.7506783,6.21425861 20.2557739,4.72082837 C19.6162052,2.79357391 17.956372,1.82610753 15.9862718,1.93552337 C15.9653335,1.93744295 15.9501057,1.93168422 15.9348779,1.92592549 C15.9044222,1.96239744 15.8511248,1.9815932 15.8016344,1.95087998 C13.5726611,0.634050742 11.2351896,0.177191618 8.67120413,0.639809471 C6.37751261,1.05251834 4.17138109,2.17547039 2.7133166,4.04513756 C1.09345644,6.12403853 0.585227699,8.83448006 0.726085104,11.4239883 C0.804127721,12.8214397 0.895494686,14.1632235 0.762251195,15.5625945 C0.636621617,16.8909412 0.480536385,18.2173683 0.335872023,19.5418758 C2.06613393,19.6973615 3.69170452,19.6532112 5.37628294,19.2270653 C5.00510465,18.9871183 4.65676809,18.7087798 4.34269415,18.372854 L4.34269415,18.372854 Z"/>
      </g>
    </g>
    <g transform="translate(9.344 46)">
      <path fill="#FEBBBA" d="M7.16374365,1.63424829e-13 C11.1467852,1.63424829e-13 14.375,3.217125 14.375,7.1875 C14.375,11.1598654 11.146804,14.375 7.16374365,14.375 C3.179405,14.375 0,11.1638462 0,7.1875 C0,3.21303365 3.1794238,1.63424829e-13 7.16374365,1.63424829e-13 Z"/>
      <path fill="#FFF" d="M4.81641289,2.875 L4.81641289,2.88669838 L4.79166667,2.88669838 L4.79166667,4.08461504 L5.87635318,4.08461504 C6.86168844,4.08461504 7.35906343,4.61371004 7.53843922,5.27083333 L4.81641289,5.27083333 L4.81641289,6.46875 L7.53843922,6.46875 C7.35964412,7.12634072 6.86288996,7.65730794 5.87635318,7.65730794 L5.53816256,7.65730794 L5.53403748,7.65262852 L5.52991347,7.65730794 L4.79166667,7.65730794 L4.79166667,8.85522521 L5.10305011,8.85522521 L8.32411434,12.4583333 L9.06648516,11.6066889 L6.53830036,8.77567516 C7.68354322,8.5032174 8.41884851,7.53612693 8.62106267,6.46875 L10.0625,6.46875 L10.0625,5.27083333 L8.62106267,5.27083333 C8.5391535,4.83990222 8.36157787,4.43238918 8.11377674,4.07291667 L10.0625,4.07291667 L10.0625,2.875 L4.81641289,2.875 Z"/>
    </g>
  </g>
</svg>
