<svg xmlns="http://www.w3.org/2000/svg" width="230" height="443" viewBox="0 0 230 443">
  <g fill="none" transform="translate(.793 .79)">
    <path fill="#F1F1F1" d="M-5.54223334e-13,-3.97903932e-13 L228.413793,-3.97903932e-13 L228.413793,441.419708 L-1.98951966e-13,441.419708 L-5.54223334e-13,-3.97903932e-13 Z M6.34482759,40.2974453 L6.34482759,386.899635 L222.068966,386.899635 L222.068966,40.2974453 L6.34482759,40.2974453 Z"/>
    <path fill="#FEBBBA" d="M114.413792 426C120.627416 426 126 420.627418 126 414.413794 126 407.372584 120.627416 402 114.413792 402 107.372582 402 102 407.372584 102 414.413794 102 420.627418 107.372582 426 114.413792 426zM75.078429 24.9725639C73.2648416 24.9725639 71.7946387 23.4867702 71.7946387 21.6539507 71.7946387 19.8211312 73.2648416 18.3353376 75.078429 18.3353376 76.8920164 18.3353376 78.3622193 19.8211312 78.3622193 21.6539507 78.3622193 23.4867702 76.8920164 24.9725639 75.078429 24.9725639zM65.7743564 24.9725639C63.960769 24.9725639 62.490566 23.4867702 62.490566 21.6539507 62.490566 19.8211312 63.960769 18.3353376 65.7743564 18.3353376 67.5879438 18.3353376 69.0581467 19.8211312 69.0581467 21.6539507 69.0581467 23.4867702 67.5879438 24.9725639 65.7743564 24.9725639z"/>
    <path fill="#AAA" d="M0.826346582,9.29211679 C0.369967944,9.29211679 0,8.94543161 0,8.51777372 C0,8.09011584 0.369967944,7.74343066 0.826346582,7.74343066 C1.28272522,7.74343066 1.65269316,8.09011584 1.65269316,8.51777372 C1.65269316,8.94543161 1.28272522,9.29211679 0.826346582,9.29211679 Z M3.58083519,9.29211679 C3.12445655,9.29211679 2.75448861,8.94543161 2.75448861,8.51777372 C2.75448861,8.09011584 3.12445655,7.74343066 3.58083519,7.74343066 C4.03721383,7.74343066 4.40718177,8.09011584 4.40718177,8.51777372 C4.40718177,8.94543161 4.03721383,9.29211679 3.58083519,9.29211679 Z M0.826346582,6.71097324 C0.369967944,6.71097324 0,6.36428806 0,5.93663017 C0,5.50897228 0.369967944,5.1622871 0.826346582,5.1622871 C1.28272522,5.1622871 1.65269316,5.50897228 1.65269316,5.93663017 C1.65269316,6.36428806 1.28272522,6.71097324 0.826346582,6.71097324 Z M3.58083519,6.71097324 C3.12445655,6.71097324 2.75448861,6.36428806 2.75448861,5.93663017 C2.75448861,5.50897228 3.12445655,5.1622871 3.58083519,5.1622871 C4.03721383,5.1622871 4.40718177,5.50897228 4.40718177,5.93663017 C4.40718177,6.36428806 4.03721383,6.71097324 3.58083519,6.71097324 Z M0.826346582,4.12982968 C0.369967944,4.12982968 0,3.78314451 0,3.35548662 C0,2.92782873 0.369967944,2.58114355 0.826346582,2.58114355 C1.28272522,2.58114355 1.65269316,2.92782873 1.65269316,3.35548662 C1.65269316,3.78314451 1.28272522,4.12982968 0.826346582,4.12982968 Z M3.58083519,4.12982968 C3.12445655,4.12982968 2.75448861,3.78314451 2.75448861,3.35548662 C2.75448861,2.92782873 3.12445655,2.58114355 3.58083519,2.58114355 C4.03721383,2.58114355 4.40718177,2.92782873 4.40718177,3.35548662 C4.40718177,3.78314451 4.03721383,4.12982968 3.58083519,4.12982968 Z M0.826346582,1.54868613 C0.369967944,1.54868613 0,1.20200095 0,0.774343066 C0,0.346685178 0.369967944,0 0.826346582,0 C1.28272522,0 1.65269316,0.346685178 1.65269316,0.774343066 C1.65269316,1.20200095 1.28272522,1.54868613 0.826346582,1.54868613 Z M3.58083519,1.54868613 C3.12445655,1.54868613 2.75448861,1.20200095 2.75448861,0.774343066 C2.75448861,0.346685178 3.12445655,0 3.58083519,0 C4.03721383,0 4.40718177,0.346685178 4.40718177,0.774343066 C4.40718177,1.20200095 4.03721383,1.54868613 3.58083519,1.54868613 Z M6.3353238,9.29211679 C5.87894516,9.29211679 5.50897721,8.94543161 5.50897721,8.51777372 C5.50897721,8.09011584 5.87894516,7.74343066 6.3353238,7.74343066 C6.79170243,7.74343066 7.16167038,8.09011584 7.16167038,8.51777372 C7.16167038,8.94543161 6.79170243,9.29211679 6.3353238,9.29211679 Z M9.0898124,9.29211679 C8.63343376,9.29211679 8.26346582,8.94543161 8.26346582,8.51777372 C8.26346582,8.09011584 8.63343376,7.74343066 9.0898124,7.74343066 C9.54619104,7.74343066 9.91615898,8.09011584 9.91615898,8.51777372 C9.91615898,8.94543161 9.54619104,9.29211679 9.0898124,9.29211679 Z M6.3353238,6.71097324 C5.87894516,6.71097324 5.50897721,6.36428806 5.50897721,5.93663017 C5.50897721,5.50897228 5.87894516,5.1622871 6.3353238,5.1622871 C6.79170243,5.1622871 7.16167038,5.50897228 7.16167038,5.93663017 C7.16167038,6.36428806 6.79170243,6.71097324 6.3353238,6.71097324 Z M9.0898124,6.71097324 C8.63343376,6.71097324 8.26346582,6.36428806 8.26346582,5.93663017 C8.26346582,5.50897228 8.63343376,5.1622871 9.0898124,5.1622871 C9.54619104,5.1622871 9.91615898,5.50897228 9.91615898,5.93663017 C9.91615898,6.36428806 9.54619104,6.71097324 9.0898124,6.71097324 Z M6.3353238,4.12982968 C5.87894516,4.12982968 5.50897721,3.78314451 5.50897721,3.35548662 C5.50897721,2.92782873 5.87894516,2.58114355 6.3353238,2.58114355 C6.79170243,2.58114355 7.16167038,2.92782873 7.16167038,3.35548662 C7.16167038,3.78314451 6.79170243,4.12982968 6.3353238,4.12982968 Z M9.0898124,4.12982968 C8.63343376,4.12982968 8.26346582,3.78314451 8.26346582,3.35548662 C8.26346582,2.92782873 8.63343376,2.58114355 9.0898124,2.58114355 C9.54619104,2.58114355 9.91615898,2.92782873 9.91615898,3.35548662 C9.91615898,3.78314451 9.54619104,4.12982968 9.0898124,4.12982968 Z M6.3353238,1.54868613 C5.87894516,1.54868613 5.50897721,1.20200095 5.50897721,0.774343066 C5.50897721,0.346685178 5.87894516,0 6.3353238,0 C6.79170243,0 7.16167038,0.346685178 7.16167038,0.774343066 C7.16167038,1.20200095 6.79170243,1.54868613 6.3353238,1.54868613 Z M9.0898124,1.54868613 C8.63343376,1.54868613 8.26346582,1.20200095 8.26346582,0.774343066 C8.26346582,0.346685178 8.63343376,0 9.0898124,0 C9.54619104,0 9.91615898,0.346685178 9.91615898,0.774343066 C9.91615898,1.20200095 9.54619104,1.54868613 9.0898124,1.54868613 Z M11.844301,9.29211679 C11.3879224,9.29211679 11.0179544,8.94543161 11.0179544,8.51777372 C11.0179544,8.09011584 11.3879224,7.74343066 11.844301,7.74343066 C12.3006796,7.74343066 12.6706476,8.09011584 12.6706476,8.51777372 C12.6706476,8.94543161 12.3006796,9.29211679 11.844301,9.29211679 Z M14.5987896,9.29211679 C14.142411,9.29211679 13.772443,8.94543161 13.772443,8.51777372 C13.772443,8.09011584 14.142411,7.74343066 14.5987896,7.74343066 C15.0551683,7.74343066 15.4251362,8.09011584 15.4251362,8.51777372 C15.4251362,8.94543161 15.0551683,9.29211679 14.5987896,9.29211679 Z M11.844301,6.71097324 C11.3879224,6.71097324 11.0179544,6.36428806 11.0179544,5.93663017 C11.0179544,5.50897228 11.3879224,5.1622871 11.844301,5.1622871 C12.3006796,5.1622871 12.6706476,5.50897228 12.6706476,5.93663017 C12.6706476,6.36428806 12.3006796,6.71097324 11.844301,6.71097324 Z M14.5987896,6.71097324 C14.142411,6.71097324 13.772443,6.36428806 13.772443,5.93663017 C13.772443,5.50897228 14.142411,5.1622871 14.5987896,5.1622871 C15.0551683,5.1622871 15.4251362,5.50897228 15.4251362,5.93663017 C15.4251362,6.36428806 15.0551683,6.71097324 14.5987896,6.71097324 Z M11.844301,4.12982968 C11.3879224,4.12982968 11.0179544,3.78314451 11.0179544,3.35548662 C11.0179544,2.92782873 11.3879224,2.58114355 11.844301,2.58114355 C12.3006796,2.58114355 12.6706476,2.92782873 12.6706476,3.35548662 C12.6706476,3.78314451 12.3006796,4.12982968 11.844301,4.12982968 Z M14.5987896,4.12982968 C14.142411,4.12982968 13.772443,3.78314451 13.772443,3.35548662 C13.772443,2.92782873 14.142411,2.58114355 14.5987896,2.58114355 C15.0551683,2.58114355 15.4251362,2.92782873 15.4251362,3.35548662 C15.4251362,3.78314451 15.0551683,4.12982968 14.5987896,4.12982968 Z M11.844301,1.54868613 C11.3879224,1.54868613 11.0179544,1.20200095 11.0179544,0.774343066 C11.0179544,0.346685178 11.3879224,0 11.844301,0 C12.3006796,0 12.6706476,0.346685178 12.6706476,0.774343066 C12.6706476,1.20200095 12.3006796,1.54868613 11.844301,1.54868613 Z M14.5987896,1.54868613 C14.142411,1.54868613 13.772443,1.20200095 13.772443,0.774343066 C13.772443,0.346685178 14.142411,0 14.5987896,0 C15.0551683,0 15.4251362,0.346685178 15.4251362,0.774343066 C15.4251362,1.20200095 15.0551683,1.54868613 14.5987896,1.54868613 Z M17.3532782,9.29211679 C16.8968996,9.29211679 16.5269316,8.94543161 16.5269316,8.51777372 C16.5269316,8.09011584 16.8968996,7.74343066 17.3532782,7.74343066 C17.8096569,7.74343066 18.1796248,8.09011584 18.1796248,8.51777372 C18.1796248,8.94543161 17.8096569,9.29211679 17.3532782,9.29211679 Z M20.1077668,9.29211679 C19.6513882,9.29211679 19.2814202,8.94543161 19.2814202,8.51777372 C19.2814202,8.09011584 19.6513882,7.74343066 20.1077668,7.74343066 C20.5641455,7.74343066 20.9341134,8.09011584 20.9341134,8.51777372 C20.9341134,8.94543161 20.5641455,9.29211679 20.1077668,9.29211679 Z M17.3532782,6.71097324 C16.8968996,6.71097324 16.5269316,6.36428806 16.5269316,5.93663017 C16.5269316,5.50897228 16.8968996,5.1622871 17.3532782,5.1622871 C17.8096569,5.1622871 18.1796248,5.50897228 18.1796248,5.93663017 C18.1796248,6.36428806 17.8096569,6.71097324 17.3532782,6.71097324 Z M20.1077668,6.71097324 C19.6513882,6.71097324 19.2814202,6.36428806 19.2814202,5.93663017 C19.2814202,5.50897228 19.6513882,5.1622871 20.1077668,5.1622871 C20.5641455,5.1622871 20.9341134,5.50897228 20.9341134,5.93663017 C20.9341134,6.36428806 20.5641455,6.71097324 20.1077668,6.71097324 Z M17.3532782,4.12982968 C16.8968996,4.12982968 16.5269316,3.78314451 16.5269316,3.35548662 C16.5269316,2.92782873 16.8968996,2.58114355 17.3532782,2.58114355 C17.8096569,2.58114355 18.1796248,2.92782873 18.1796248,3.35548662 C18.1796248,3.78314451 17.8096569,4.12982968 17.3532782,4.12982968 Z M20.1077668,4.12982968 C19.6513882,4.12982968 19.2814202,3.78314451 19.2814202,3.35548662 C19.2814202,2.92782873 19.6513882,2.58114355 20.1077668,2.58114355 C20.5641455,2.58114355 20.9341134,2.92782873 20.9341134,3.35548662 C20.9341134,3.78314451 20.5641455,4.12982968 20.1077668,4.12982968 Z M17.3532782,1.54868613 C16.8968996,1.54868613 16.5269316,1.20200095 16.5269316,0.774343066 C16.5269316,0.346685178 16.8968996,0 17.3532782,0 C17.8096569,0 18.1796248,0.346685178 18.1796248,0.774343066 C18.1796248,1.20200095 17.8096569,1.54868613 17.3532782,1.54868613 Z M20.1077668,1.54868613 C19.6513882,1.54868613 19.2814202,1.20200095 19.2814202,0.774343066 C19.2814202,0.346685178 19.6513882,0 20.1077668,0 C20.5641455,0 20.9341134,0.346685178 20.9341134,0.774343066 C20.9341134,1.20200095 20.5641455,1.54868613 20.1077668,1.54868613 Z M22.8622554,9.29211679 C22.4058768,9.29211679 22.0359089,8.94543161 22.0359089,8.51777372 C22.0359089,8.09011584 22.4058768,7.74343066 22.8622554,7.74343066 C23.3186341,7.74343066 23.688602,8.09011584 23.688602,8.51777372 C23.688602,8.94543161 23.3186341,9.29211679 22.8622554,9.29211679 Z M25.616744,9.29211679 C25.1603654,9.29211679 24.7903975,8.94543161 24.7903975,8.51777372 C24.7903975,8.09011584 25.1603654,7.74343066 25.616744,7.74343066 C26.0731227,7.74343066 26.4430906,8.09011584 26.4430906,8.51777372 C26.4430906,8.94543161 26.0731227,9.29211679 25.616744,9.29211679 Z M22.8622554,6.71097324 C22.4058768,6.71097324 22.0359089,6.36428806 22.0359089,5.93663017 C22.0359089,5.50897228 22.4058768,5.1622871 22.8622554,5.1622871 C23.3186341,5.1622871 23.688602,5.50897228 23.688602,5.93663017 C23.688602,6.36428806 23.3186341,6.71097324 22.8622554,6.71097324 Z M25.616744,6.71097324 C25.1603654,6.71097324 24.7903975,6.36428806 24.7903975,5.93663017 C24.7903975,5.50897228 25.1603654,5.1622871 25.616744,5.1622871 C26.0731227,5.1622871 26.4430906,5.50897228 26.4430906,5.93663017 C26.4430906,6.36428806 26.0731227,6.71097324 25.616744,6.71097324 Z M22.8622554,4.12982968 C22.4058768,4.12982968 22.0359089,3.78314451 22.0359089,3.35548662 C22.0359089,2.92782873 22.4058768,2.58114355 22.8622554,2.58114355 C23.3186341,2.58114355 23.688602,2.92782873 23.688602,3.35548662 C23.688602,3.78314451 23.3186341,4.12982968 22.8622554,4.12982968 Z M25.616744,4.12982968 C25.1603654,4.12982968 24.7903975,3.78314451 24.7903975,3.35548662 C24.7903975,2.92782873 25.1603654,2.58114355 25.616744,2.58114355 C26.0731227,2.58114355 26.4430906,2.92782873 26.4430906,3.35548662 C26.4430906,3.78314451 26.0731227,4.12982968 25.616744,4.12982968 Z M22.8622554,1.54868613 C22.4058768,1.54868613 22.0359089,1.20200095 22.0359089,0.774343066 C22.0359089,0.346685178 22.4058768,0 22.8622554,0 C23.3186341,0 23.688602,0.346685178 23.688602,0.774343066 C23.688602,1.20200095 23.3186341,1.54868613 22.8622554,1.54868613 Z M25.616744,1.54868613 C25.1603654,1.54868613 24.7903975,1.20200095 24.7903975,0.774343066 C24.7903975,0.346685178 25.1603654,0 25.616744,0 C26.0731227,0 26.4430906,0.346685178 26.4430906,0.774343066 C26.4430906,1.20200095 26.0731227,1.54868613 25.616744,1.54868613 Z M28.3712326,9.29211679 C27.914854,9.29211679 27.5448861,8.94543161 27.5448861,8.51777372 C27.5448861,8.09011584 27.914854,7.74343066 28.3712326,7.74343066 C28.8276113,7.74343066 29.1975792,8.09011584 29.1975792,8.51777372 C29.1975792,8.94543161 28.8276113,9.29211679 28.3712326,9.29211679 Z M31.1257213,9.29211679 C30.6693426,9.29211679 30.2993747,8.94543161 30.2993747,8.51777372 C30.2993747,8.09011584 30.6693426,7.74343066 31.1257213,7.74343066 C31.5820999,7.74343066 31.9520678,8.09011584 31.9520678,8.51777372 C31.9520678,8.94543161 31.5820999,9.29211679 31.1257213,9.29211679 Z M28.3712326,6.71097324 C27.914854,6.71097324 27.5448861,6.36428806 27.5448861,5.93663017 C27.5448861,5.50897228 27.914854,5.1622871 28.3712326,5.1622871 C28.8276113,5.1622871 29.1975792,5.50897228 29.1975792,5.93663017 C29.1975792,6.36428806 28.8276113,6.71097324 28.3712326,6.71097324 Z M31.1257213,6.71097324 C30.6693426,6.71097324 30.2993747,6.36428806 30.2993747,5.93663017 C30.2993747,5.50897228 30.6693426,5.1622871 31.1257213,5.1622871 C31.5820999,5.1622871 31.9520678,5.50897228 31.9520678,5.93663017 C31.9520678,6.36428806 31.5820999,6.71097324 31.1257213,6.71097324 Z M28.3712326,4.12982968 C27.914854,4.12982968 27.5448861,3.78314451 27.5448861,3.35548662 C27.5448861,2.92782873 27.914854,2.58114355 28.3712326,2.58114355 C28.8276113,2.58114355 29.1975792,2.92782873 29.1975792,3.35548662 C29.1975792,3.78314451 28.8276113,4.12982968 28.3712326,4.12982968 Z M31.1257213,4.12982968 C30.6693426,4.12982968 30.2993747,3.78314451 30.2993747,3.35548662 C30.2993747,2.92782873 30.6693426,2.58114355 31.1257213,2.58114355 C31.5820999,2.58114355 31.9520678,2.92782873 31.9520678,3.35548662 C31.9520678,3.78314451 31.5820999,4.12982968 31.1257213,4.12982968 Z M28.3712326,1.54868613 C27.914854,1.54868613 27.5448861,1.20200095 27.5448861,0.774343066 C27.5448861,0.346685178 27.914854,0 28.3712326,0 C28.8276113,0 29.1975792,0.346685178 29.1975792,0.774343066 C29.1975792,1.20200095 28.8276113,1.54868613 28.3712326,1.54868613 Z M31.1257213,1.54868613 C30.6693426,1.54868613 30.2993747,1.20200095 30.2993747,0.774343066 C30.2993747,0.346685178 30.6693426,0 31.1257213,0 C31.5820999,0 31.9520678,0.346685178 31.9520678,0.774343066 C31.9520678,1.20200095 31.5820999,1.54868613 31.1257213,1.54868613 Z M33.8802099,9.29211679 C33.4238312,9.29211679 33.0538633,8.94543161 33.0538633,8.51777372 C33.0538633,8.09011584 33.4238312,7.74343066 33.8802099,7.74343066 C34.3365885,7.74343066 34.7065564,8.09011584 34.7065564,8.51777372 C34.7065564,8.94543161 34.3365885,9.29211679 33.8802099,9.29211679 Z M36.6346985,9.29211679 C36.1783198,9.29211679 35.8083519,8.94543161 35.8083519,8.51777372 C35.8083519,8.09011584 36.1783198,7.74343066 36.6346985,7.74343066 C37.0910771,7.74343066 37.461045,8.09011584 37.461045,8.51777372 C37.461045,8.94543161 37.0910771,9.29211679 36.6346985,9.29211679 Z M33.8802099,6.71097324 C33.4238312,6.71097324 33.0538633,6.36428806 33.0538633,5.93663017 C33.0538633,5.50897228 33.4238312,5.1622871 33.8802099,5.1622871 C34.3365885,5.1622871 34.7065564,5.50897228 34.7065564,5.93663017 C34.7065564,6.36428806 34.3365885,6.71097324 33.8802099,6.71097324 Z M36.6346985,6.71097324 C36.1783198,6.71097324 35.8083519,6.36428806 35.8083519,5.93663017 C35.8083519,5.50897228 36.1783198,5.1622871 36.6346985,5.1622871 C37.0910771,5.1622871 37.461045,5.50897228 37.461045,5.93663017 C37.461045,6.36428806 37.0910771,6.71097324 36.6346985,6.71097324 Z M33.8802099,4.12982968 C33.4238312,4.12982968 33.0538633,3.78314451 33.0538633,3.35548662 C33.0538633,2.92782873 33.4238312,2.58114355 33.8802099,2.58114355 C34.3365885,2.58114355 34.7065564,2.92782873 34.7065564,3.35548662 C34.7065564,3.78314451 34.3365885,4.12982968 33.8802099,4.12982968 Z M36.6346985,4.12982968 C36.1783198,4.12982968 35.8083519,3.78314451 35.8083519,3.35548662 C35.8083519,2.92782873 36.1783198,2.58114355 36.6346985,2.58114355 C37.0910771,2.58114355 37.461045,2.92782873 37.461045,3.35548662 C37.461045,3.78314451 37.0910771,4.12982968 36.6346985,4.12982968 Z M33.8802099,1.54868613 C33.4238312,1.54868613 33.0538633,1.20200095 33.0538633,0.774343066 C33.0538633,0.346685178 33.4238312,0 33.8802099,0 C34.3365885,0 34.7065564,0.346685178 34.7065564,0.774343066 C34.7065564,1.20200095 34.3365885,1.54868613 33.8802099,1.54868613 Z M36.6346985,1.54868613 C36.1783198,1.54868613 35.8083519,1.20200095 35.8083519,0.774343066 C35.8083519,0.346685178 36.1783198,0 36.6346985,0 C37.0910771,0 37.461045,0.346685178 37.461045,0.774343066 C37.461045,1.20200095 37.0910771,1.54868613 36.6346985,1.54868613 Z M39.3891871,9.29211679 C38.9328084,9.29211679 38.5628405,8.94543161 38.5628405,8.51777372 C38.5628405,8.09011584 38.9328084,7.74343066 39.3891871,7.74343066 C39.8455657,7.74343066 40.2155337,8.09011584 40.2155337,8.51777372 C40.2155337,8.94543161 39.8455657,9.29211679 39.3891871,9.29211679 Z M42.1436757,9.29211679 C41.687297,9.29211679 41.3173291,8.94543161 41.3173291,8.51777372 C41.3173291,8.09011584 41.687297,7.74343066 42.1436757,7.74343066 C42.6000543,7.74343066 42.9700223,8.09011584 42.9700223,8.51777372 C42.9700223,8.94543161 42.6000543,9.29211679 42.1436757,9.29211679 Z M39.3891871,6.71097324 C38.9328084,6.71097324 38.5628405,6.36428806 38.5628405,5.93663017 C38.5628405,5.50897228 38.9328084,5.1622871 39.3891871,5.1622871 C39.8455657,5.1622871 40.2155337,5.50897228 40.2155337,5.93663017 C40.2155337,6.36428806 39.8455657,6.71097324 39.3891871,6.71097324 Z M42.1436757,6.71097324 C41.687297,6.71097324 41.3173291,6.36428806 41.3173291,5.93663017 C41.3173291,5.50897228 41.687297,5.1622871 42.1436757,5.1622871 C42.6000543,5.1622871 42.9700223,5.50897228 42.9700223,5.93663017 C42.9700223,6.36428806 42.6000543,6.71097324 42.1436757,6.71097324 Z M39.3891871,4.12982968 C38.9328084,4.12982968 38.5628405,3.78314451 38.5628405,3.35548662 C38.5628405,2.92782873 38.9328084,2.58114355 39.3891871,2.58114355 C39.8455657,2.58114355 40.2155337,2.92782873 40.2155337,3.35548662 C40.2155337,3.78314451 39.8455657,4.12982968 39.3891871,4.12982968 Z M42.1436757,4.12982968 C41.687297,4.12982968 41.3173291,3.78314451 41.3173291,3.35548662 C41.3173291,2.92782873 41.687297,2.58114355 42.1436757,2.58114355 C42.6000543,2.58114355 42.9700223,2.92782873 42.9700223,3.35548662 C42.9700223,3.78314451 42.6000543,4.12982968 42.1436757,4.12982968 Z M39.3891871,1.54868613 C38.9328084,1.54868613 38.5628405,1.20200095 38.5628405,0.774343066 C38.5628405,0.346685178 38.9328084,0 39.3891871,0 C39.8455657,0 40.2155337,0.346685178 40.2155337,0.774343066 C40.2155337,1.20200095 39.8455657,1.54868613 39.3891871,1.54868613 Z M42.1436757,1.54868613 C41.687297,1.54868613 41.3173291,1.20200095 41.3173291,0.774343066 C41.3173291,0.346685178 41.687297,0 42.1436757,0 C42.6000543,0 42.9700223,0.346685178 42.9700223,0.774343066 C42.9700223,1.20200095 42.6000543,1.54868613 42.1436757,1.54868613 Z M44.8981643,9.29211679 C44.4417856,9.29211679 44.0718177,8.94543161 44.0718177,8.51777372 C44.0718177,8.09011584 44.4417856,7.74343066 44.8981643,7.74343066 C45.3545429,7.74343066 45.7245109,8.09011584 45.7245109,8.51777372 C45.7245109,8.94543161 45.3545429,9.29211679 44.8981643,9.29211679 Z M47.6526529,9.29211679 C47.1962743,9.29211679 46.8263063,8.94543161 46.8263063,8.51777372 C46.8263063,8.09011584 47.1962743,7.74343066 47.6526529,7.74343066 C48.1090315,7.74343066 48.4789995,8.09011584 48.4789995,8.51777372 C48.4789995,8.94543161 48.1090315,9.29211679 47.6526529,9.29211679 Z M44.8981643,6.71097324 C44.4417856,6.71097324 44.0718177,6.36428806 44.0718177,5.93663017 C44.0718177,5.50897228 44.4417856,5.1622871 44.8981643,5.1622871 C45.3545429,5.1622871 45.7245109,5.50897228 45.7245109,5.93663017 C45.7245109,6.36428806 45.3545429,6.71097324 44.8981643,6.71097324 Z M47.6526529,6.71097324 C47.1962743,6.71097324 46.8263063,6.36428806 46.8263063,5.93663017 C46.8263063,5.50897228 47.1962743,5.1622871 47.6526529,5.1622871 C48.1090315,5.1622871 48.4789995,5.50897228 48.4789995,5.93663017 C48.4789995,6.36428806 48.1090315,6.71097324 47.6526529,6.71097324 Z M44.8981643,4.12982968 C44.4417856,4.12982968 44.0718177,3.78314451 44.0718177,3.35548662 C44.0718177,2.92782873 44.4417856,2.58114355 44.8981643,2.58114355 C45.3545429,2.58114355 45.7245109,2.92782873 45.7245109,3.35548662 C45.7245109,3.78314451 45.3545429,4.12982968 44.8981643,4.12982968 Z M47.6526529,4.12982968 C47.1962743,4.12982968 46.8263063,3.78314451 46.8263063,3.35548662 C46.8263063,2.92782873 47.1962743,2.58114355 47.6526529,2.58114355 C48.1090315,2.58114355 48.4789995,2.92782873 48.4789995,3.35548662 C48.4789995,3.78314451 48.1090315,4.12982968 47.6526529,4.12982968 Z M44.8981643,1.54868613 C44.4417856,1.54868613 44.0718177,1.20200095 44.0718177,0.774343066 C44.0718177,0.346685178 44.4417856,0 44.8981643,0 C45.3545429,0 45.7245109,0.346685178 45.7245109,0.774343066 C45.7245109,1.20200095 45.3545429,1.54868613 44.8981643,1.54868613 Z M47.6526529,1.54868613 C47.1962743,1.54868613 46.8263063,1.20200095 46.8263063,0.774343066 C46.8263063,0.346685178 47.1962743,0 47.6526529,0 C48.1090315,0 48.4789995,0.346685178 48.4789995,0.774343066 C48.4789995,1.20200095 48.1090315,1.54868613 47.6526529,1.54868613 Z M50.4071415,9.29211679 C49.9507629,9.29211679 49.5807949,8.94543161 49.5807949,8.51777372 C49.5807949,8.09011584 49.9507629,7.74343066 50.4071415,7.74343066 C50.8635201,7.74343066 51.2334881,8.09011584 51.2334881,8.51777372 C51.2334881,8.94543161 50.8635201,9.29211679 50.4071415,9.29211679 Z M53.1616301,9.29211679 C52.7052515,9.29211679 52.3352835,8.94543161 52.3352835,8.51777372 C52.3352835,8.09011584 52.7052515,7.74343066 53.1616301,7.74343066 C53.6180087,7.74343066 53.9879767,8.09011584 53.9879767,8.51777372 C53.9879767,8.94543161 53.6180087,9.29211679 53.1616301,9.29211679 Z M50.4071415,6.71097324 C49.9507629,6.71097324 49.5807949,6.36428806 49.5807949,5.93663017 C49.5807949,5.50897228 49.9507629,5.1622871 50.4071415,5.1622871 C50.8635201,5.1622871 51.2334881,5.50897228 51.2334881,5.93663017 C51.2334881,6.36428806 50.8635201,6.71097324 50.4071415,6.71097324 Z M53.1616301,6.71097324 C52.7052515,6.71097324 52.3352835,6.36428806 52.3352835,5.93663017 C52.3352835,5.50897228 52.7052515,5.1622871 53.1616301,5.1622871 C53.6180087,5.1622871 53.9879767,5.50897228 53.9879767,5.93663017 C53.9879767,6.36428806 53.6180087,6.71097324 53.1616301,6.71097324 Z M50.4071415,4.12982968 C49.9507629,4.12982968 49.5807949,3.78314451 49.5807949,3.35548662 C49.5807949,2.92782873 49.9507629,2.58114355 50.4071415,2.58114355 C50.8635201,2.58114355 51.2334881,2.92782873 51.2334881,3.35548662 C51.2334881,3.78314451 50.8635201,4.12982968 50.4071415,4.12982968 Z M53.1616301,4.12982968 C52.7052515,4.12982968 52.3352835,3.78314451 52.3352835,3.35548662 C52.3352835,2.92782873 52.7052515,2.58114355 53.1616301,2.58114355 C53.6180087,2.58114355 53.9879767,2.92782873 53.9879767,3.35548662 C53.9879767,3.78314451 53.6180087,4.12982968 53.1616301,4.12982968 Z M50.4071415,1.54868613 C49.9507629,1.54868613 49.5807949,1.20200095 49.5807949,0.774343066 C49.5807949,0.346685178 49.9507629,0 50.4071415,0 C50.8635201,0 51.2334881,0.346685178 51.2334881,0.774343066 C51.2334881,1.20200095 50.8635201,1.54868613 50.4071415,1.54868613 Z M53.1616301,1.54868613 C52.7052515,1.54868613 52.3352835,1.20200095 52.3352835,0.774343066 C52.3352835,0.346685178 52.7052515,0 53.1616301,0 C53.6180087,0 53.9879767,0.346685178 53.9879767,0.774343066 C53.9879767,1.20200095 53.6180087,1.54868613 53.1616301,1.54868613 Z M55.9161187,9.29211679 C55.4597401,9.29211679 55.0897721,8.94543161 55.0897721,8.51777372 C55.0897721,8.09011584 55.4597401,7.74343066 55.9161187,7.74343066 C56.3724974,7.74343066 56.7424653,8.09011584 56.7424653,8.51777372 C56.7424653,8.94543161 56.3724974,9.29211679 55.9161187,9.29211679 Z M58.6706073,9.29211679 C58.2142287,9.29211679 57.8442607,8.94543161 57.8442607,8.51777372 C57.8442607,8.09011584 58.2142287,7.74343066 58.6706073,7.74343066 C59.126986,7.74343066 59.4969539,8.09011584 59.4969539,8.51777372 C59.4969539,8.94543161 59.126986,9.29211679 58.6706073,9.29211679 Z M55.9161187,6.71097324 C55.4597401,6.71097324 55.0897721,6.36428806 55.0897721,5.93663017 C55.0897721,5.50897228 55.4597401,5.1622871 55.9161187,5.1622871 C56.3724974,5.1622871 56.7424653,5.50897228 56.7424653,5.93663017 C56.7424653,6.36428806 56.3724974,6.71097324 55.9161187,6.71097324 Z M58.6706073,6.71097324 C58.2142287,6.71097324 57.8442607,6.36428806 57.8442607,5.93663017 C57.8442607,5.50897228 58.2142287,5.1622871 58.6706073,5.1622871 C59.126986,5.1622871 59.4969539,5.50897228 59.4969539,5.93663017 C59.4969539,6.36428806 59.126986,6.71097324 58.6706073,6.71097324 Z M55.9161187,4.12982968 C55.4597401,4.12982968 55.0897721,3.78314451 55.0897721,3.35548662 C55.0897721,2.92782873 55.4597401,2.58114355 55.9161187,2.58114355 C56.3724974,2.58114355 56.7424653,2.92782873 56.7424653,3.35548662 C56.7424653,3.78314451 56.3724974,4.12982968 55.9161187,4.12982968 Z M58.6706073,4.12982968 C58.2142287,4.12982968 57.8442607,3.78314451 57.8442607,3.35548662 C57.8442607,2.92782873 58.2142287,2.58114355 58.6706073,2.58114355 C59.126986,2.58114355 59.4969539,2.92782873 59.4969539,3.35548662 C59.4969539,3.78314451 59.126986,4.12982968 58.6706073,4.12982968 Z M55.9161187,1.54868613 C55.4597401,1.54868613 55.0897721,1.20200095 55.0897721,0.774343066 C55.0897721,0.346685178 55.4597401,0 55.9161187,0 C56.3724974,0 56.7424653,0.346685178 56.7424653,0.774343066 C56.7424653,1.20200095 56.3724974,1.54868613 55.9161187,1.54868613 Z M58.6706073,1.54868613 C58.2142287,1.54868613 57.8442607,1.20200095 57.8442607,0.774343066 C57.8442607,0.346685178 58.2142287,0 58.6706073,0 C59.126986,0 59.4969539,0.346685178 59.4969539,0.774343066 C59.4969539,1.20200095 59.126986,1.54868613 58.6706073,1.54868613 Z" transform="translate(85.116 17.298)"/>
  </g>
</svg>
