<svg xmlns="http://www.w3.org/2000/svg" width="290" height="548" viewBox="0 0 290 548">
  <g fill="none" fill-rule="evenodd" transform="translate(-40)">
    <g transform="translate(41 1)">
      <path fill="#F1F1F1" d="M0,23.1556599 C0,10.3671421 10.377561,0 23.1571981,0 L264.842802,0 C277.632169,0 288,10.3593805 288,23.1556599 L288,522.84434 C288,535.632858 277.622439,546 264.842802,546 L23.1571981,546 C10.3678307,546 0,535.640619 0,522.84434 L0,23.1556599 Z M8,51 L8,477 L280,477 L280,51 L8,51 Z"/>
      <ellipse cx="144.679" cy="512.531" fill="#F06B69" stroke="#F06B69" stroke-width="2.012" opacity=".5" rx="14.264" ry="13.781"/>
      <path fill="#F69A98" d="M94.6641061,31.605 C92.377409,31.605 90.5236748,29.7245961 90.5236748,27.405 C90.5236748,25.0854039 92.377409,23.205 94.6641061,23.205 C96.9508033,23.205 98.8045374,25.0854039 98.8045374,27.405 C98.8045374,29.7245961 96.9508033,31.605 94.6641061,31.605 Z M82.9328841,31.605 C80.646187,31.605 78.7924528,29.7245961 78.7924528,27.405 C78.7924528,25.0854039 80.646187,23.205 82.9328841,23.205 C85.2195813,23.205 87.0733154,25.0854039 87.0733154,27.405 C87.0733154,29.7245961 85.2195813,31.605 82.9328841,31.605 Z"/>
      <path fill="#AAA" d="M1.04191526,11.76 C0.466481321,11.76 0,11.3212391 0,10.78 C0,10.2387609 0.466481321,9.8 1.04191526,9.8 C1.61734919,9.8 2.08383051,10.2387609 2.08383051,10.78 C2.08383051,11.3212391 1.61734919,11.76 1.04191526,11.76 Z M4.51496611,11.76 C3.93953217,11.76 3.47305085,11.3212391 3.47305085,10.78 C3.47305085,10.2387609 3.93953217,9.8 4.51496611,9.8 C5.09040004,9.8 5.55688136,10.2387609 5.55688136,10.78 C5.55688136,11.3212391 5.09040004,11.76 4.51496611,11.76 Z M1.04191526,8.49333333 C0.466481321,8.49333333 0,8.05457241 0,7.51333333 C0,6.97209425 0.466481321,6.53333333 1.04191526,6.53333333 C1.61734919,6.53333333 2.08383051,6.97209425 2.08383051,7.51333333 C2.08383051,8.05457241 1.61734919,8.49333333 1.04191526,8.49333333 Z M4.51496611,8.49333333 C3.93953217,8.49333333 3.47305085,8.05457241 3.47305085,7.51333333 C3.47305085,6.97209425 3.93953217,6.53333333 4.51496611,6.53333333 C5.09040004,6.53333333 5.55688136,6.97209425 5.55688136,7.51333333 C5.55688136,8.05457241 5.09040004,8.49333333 4.51496611,8.49333333 Z M1.04191526,5.22666667 C0.466481321,5.22666667 0,4.78790575 0,4.24666667 C0,3.70542759 0.466481321,3.26666667 1.04191526,3.26666667 C1.61734919,3.26666667 2.08383051,3.70542759 2.08383051,4.24666667 C2.08383051,4.78790575 1.61734919,5.22666667 1.04191526,5.22666667 Z M4.51496611,5.22666667 C3.93953217,5.22666667 3.47305085,4.78790575 3.47305085,4.24666667 C3.47305085,3.70542759 3.93953217,3.26666667 4.51496611,3.26666667 C5.09040004,3.26666667 5.55688136,3.70542759 5.55688136,4.24666667 C5.55688136,4.78790575 5.09040004,5.22666667 4.51496611,5.22666667 Z M1.04191526,1.96 C0.466481321,1.96 0,1.52123908 0,0.98 C0,0.438760918 0.466481321,0 1.04191526,0 C1.61734919,0 2.08383051,0.438760918 2.08383051,0.98 C2.08383051,1.52123908 1.61734919,1.96 1.04191526,1.96 Z M4.51496611,1.96 C3.93953217,1.96 3.47305085,1.52123908 3.47305085,0.98 C3.47305085,0.438760918 3.93953217,0 4.51496611,0 C5.09040004,0 5.55688136,0.438760918 5.55688136,0.98 C5.55688136,1.52123908 5.09040004,1.96 4.51496611,1.96 Z M7.98801696,11.76 C7.41258302,11.76 6.9461017,11.3212391 6.9461017,10.78 C6.9461017,10.2387609 7.41258302,9.8 7.98801696,9.8 C8.56345089,9.8 9.02993221,10.2387609 9.02993221,10.78 C9.02993221,11.3212391 8.56345089,11.76 7.98801696,11.76 Z M11.4610678,11.76 C10.8856339,11.76 10.4191526,11.3212391 10.4191526,10.78 C10.4191526,10.2387609 10.8856339,9.8 11.4610678,9.8 C12.0365017,9.8 12.5029831,10.2387609 12.5029831,10.78 C12.5029831,11.3212391 12.0365017,11.76 11.4610678,11.76 Z M7.98801696,8.49333333 C7.41258302,8.49333333 6.9461017,8.05457241 6.9461017,7.51333333 C6.9461017,6.97209425 7.41258302,6.53333333 7.98801696,6.53333333 C8.56345089,6.53333333 9.02993221,6.97209425 9.02993221,7.51333333 C9.02993221,8.05457241 8.56345089,8.49333333 7.98801696,8.49333333 Z M11.4610678,8.49333333 C10.8856339,8.49333333 10.4191526,8.05457241 10.4191526,7.51333333 C10.4191526,6.97209425 10.8856339,6.53333333 11.4610678,6.53333333 C12.0365017,6.53333333 12.5029831,6.97209425 12.5029831,7.51333333 C12.5029831,8.05457241 12.0365017,8.49333333 11.4610678,8.49333333 Z M7.98801696,5.22666667 C7.41258302,5.22666667 6.9461017,4.78790575 6.9461017,4.24666667 C6.9461017,3.70542759 7.41258302,3.26666667 7.98801696,3.26666667 C8.56345089,3.26666667 9.02993221,3.70542759 9.02993221,4.24666667 C9.02993221,4.78790575 8.56345089,5.22666667 7.98801696,5.22666667 Z M11.4610678,5.22666667 C10.8856339,5.22666667 10.4191526,4.78790575 10.4191526,4.24666667 C10.4191526,3.70542759 10.8856339,3.26666667 11.4610678,3.26666667 C12.0365017,3.26666667 12.5029831,3.70542759 12.5029831,4.24666667 C12.5029831,4.78790575 12.0365017,5.22666667 11.4610678,5.22666667 Z M7.98801696,1.96 C7.41258302,1.96 6.9461017,1.52123908 6.9461017,0.98 C6.9461017,0.438760918 7.41258302,0 7.98801696,0 C8.56345089,0 9.02993221,0.438760918 9.02993221,0.98 C9.02993221,1.52123908 8.56345089,1.96 7.98801696,1.96 Z M11.4610678,1.96 C10.8856339,1.96 10.4191526,1.52123908 10.4191526,0.98 C10.4191526,0.438760918 10.8856339,0 11.4610678,0 C12.0365017,0 12.5029831,0.438760918 12.5029831,0.98 C12.5029831,1.52123908 12.0365017,1.96 11.4610678,1.96 Z M14.9341187,11.76 C14.3586847,11.76 13.8922034,11.3212391 13.8922034,10.78 C13.8922034,10.2387609 14.3586847,9.8 14.9341187,9.8 C15.5095526,9.8 15.9760339,10.2387609 15.9760339,10.78 C15.9760339,11.3212391 15.5095526,11.76 14.9341187,11.76 Z M18.4071695,11.76 C17.8317356,11.76 17.3652543,11.3212391 17.3652543,10.78 C17.3652543,10.2387609 17.8317356,9.8 18.4071695,9.8 C18.9826034,9.8 19.4490848,10.2387609 19.4490848,10.78 C19.4490848,11.3212391 18.9826034,11.76 18.4071695,11.76 Z M14.9341187,8.49333333 C14.3586847,8.49333333 13.8922034,8.05457241 13.8922034,7.51333333 C13.8922034,6.97209425 14.3586847,6.53333333 14.9341187,6.53333333 C15.5095526,6.53333333 15.9760339,6.97209425 15.9760339,7.51333333 C15.9760339,8.05457241 15.5095526,8.49333333 14.9341187,8.49333333 Z M18.4071695,8.49333333 C17.8317356,8.49333333 17.3652543,8.05457241 17.3652543,7.51333333 C17.3652543,6.97209425 17.8317356,6.53333333 18.4071695,6.53333333 C18.9826034,6.53333333 19.4490848,6.97209425 19.4490848,7.51333333 C19.4490848,8.05457241 18.9826034,8.49333333 18.4071695,8.49333333 Z M14.9341187,5.22666667 C14.3586847,5.22666667 13.8922034,4.78790575 13.8922034,4.24666667 C13.8922034,3.70542759 14.3586847,3.26666667 14.9341187,3.26666667 C15.5095526,3.26666667 15.9760339,3.70542759 15.9760339,4.24666667 C15.9760339,4.78790575 15.5095526,5.22666667 14.9341187,5.22666667 Z M18.4071695,5.22666667 C17.8317356,5.22666667 17.3652543,4.78790575 17.3652543,4.24666667 C17.3652543,3.70542759 17.8317356,3.26666667 18.4071695,3.26666667 C18.9826034,3.26666667 19.4490848,3.70542759 19.4490848,4.24666667 C19.4490848,4.78790575 18.9826034,5.22666667 18.4071695,5.22666667 Z M14.9341187,1.96 C14.3586847,1.96 13.8922034,1.52123908 13.8922034,0.98 C13.8922034,0.438760918 14.3586847,0 14.9341187,0 C15.5095526,0 15.9760339,0.438760918 15.9760339,0.98 C15.9760339,1.52123908 15.5095526,1.96 14.9341187,1.96 Z M18.4071695,1.96 C17.8317356,1.96 17.3652543,1.52123908 17.3652543,0.98 C17.3652543,0.438760918 17.8317356,0 18.4071695,0 C18.9826034,0 19.4490848,0.438760918 19.4490848,0.98 C19.4490848,1.52123908 18.9826034,1.96 18.4071695,1.96 Z M21.8802204,11.76 C21.3047864,11.76 20.8383051,11.3212391 20.8383051,10.78 C20.8383051,10.2387609 21.3047864,9.8 21.8802204,9.8 C22.4556543,9.8 22.9221356,10.2387609 22.9221356,10.78 C22.9221356,11.3212391 22.4556543,11.76 21.8802204,11.76 Z M25.3532712,11.76 C24.7778373,11.76 24.311356,11.3212391 24.311356,10.78 C24.311356,10.2387609 24.7778373,9.8 25.3532712,9.8 C25.9287052,9.8 26.3951865,10.2387609 26.3951865,10.78 C26.3951865,11.3212391 25.9287052,11.76 25.3532712,11.76 Z M21.8802204,8.49333333 C21.3047864,8.49333333 20.8383051,8.05457241 20.8383051,7.51333333 C20.8383051,6.97209425 21.3047864,6.53333333 21.8802204,6.53333333 C22.4556543,6.53333333 22.9221356,6.97209425 22.9221356,7.51333333 C22.9221356,8.05457241 22.4556543,8.49333333 21.8802204,8.49333333 Z M25.3532712,8.49333333 C24.7778373,8.49333333 24.311356,8.05457241 24.311356,7.51333333 C24.311356,6.97209425 24.7778373,6.53333333 25.3532712,6.53333333 C25.9287052,6.53333333 26.3951865,6.97209425 26.3951865,7.51333333 C26.3951865,8.05457241 25.9287052,8.49333333 25.3532712,8.49333333 Z M21.8802204,5.22666667 C21.3047864,5.22666667 20.8383051,4.78790575 20.8383051,4.24666667 C20.8383051,3.70542759 21.3047864,3.26666667 21.8802204,3.26666667 C22.4556543,3.26666667 22.9221356,3.70542759 22.9221356,4.24666667 C22.9221356,4.78790575 22.4556543,5.22666667 21.8802204,5.22666667 Z M25.3532712,5.22666667 C24.7778373,5.22666667 24.311356,4.78790575 24.311356,4.24666667 C24.311356,3.70542759 24.7778373,3.26666667 25.3532712,3.26666667 C25.9287052,3.26666667 26.3951865,3.70542759 26.3951865,4.24666667 C26.3951865,4.78790575 25.9287052,5.22666667 25.3532712,5.22666667 Z M21.8802204,1.96 C21.3047864,1.96 20.8383051,1.52123908 20.8383051,0.98 C20.8383051,0.438760918 21.3047864,0 21.8802204,0 C22.4556543,0 22.9221356,0.438760918 22.9221356,0.98 C22.9221356,1.52123908 22.4556543,1.96 21.8802204,1.96 Z M25.3532712,1.96 C24.7778373,1.96 24.311356,1.52123908 24.311356,0.98 C24.311356,0.438760918 24.7778373,0 25.3532712,0 C25.9287052,0 26.3951865,0.438760918 26.3951865,0.98 C26.3951865,1.52123908 25.9287052,1.96 25.3532712,1.96 Z M28.8263221,11.76 C28.2508881,11.76 27.7844068,11.3212391 27.7844068,10.78 C27.7844068,10.2387609 28.2508881,9.8 28.8263221,9.8 C29.401756,9.8 29.8682373,10.2387609 29.8682373,10.78 C29.8682373,11.3212391 29.401756,11.76 28.8263221,11.76 Z M32.2993729,11.76 C31.723939,11.76 31.2574577,11.3212391 31.2574577,10.78 C31.2574577,10.2387609 31.723939,9.8 32.2993729,9.8 C32.8748069,9.8 33.3412882,10.2387609 33.3412882,10.78 C33.3412882,11.3212391 32.8748069,11.76 32.2993729,11.76 Z M28.8263221,8.49333333 C28.2508881,8.49333333 27.7844068,8.05457241 27.7844068,7.51333333 C27.7844068,6.97209425 28.2508881,6.53333333 28.8263221,6.53333333 C29.401756,6.53333333 29.8682373,6.97209425 29.8682373,7.51333333 C29.8682373,8.05457241 29.401756,8.49333333 28.8263221,8.49333333 Z M32.2993729,8.49333333 C31.723939,8.49333333 31.2574577,8.05457241 31.2574577,7.51333333 C31.2574577,6.97209425 31.723939,6.53333333 32.2993729,6.53333333 C32.8748069,6.53333333 33.3412882,6.97209425 33.3412882,7.51333333 C33.3412882,8.05457241 32.8748069,8.49333333 32.2993729,8.49333333 Z M28.8263221,5.22666667 C28.2508881,5.22666667 27.7844068,4.78790575 27.7844068,4.24666667 C27.7844068,3.70542759 28.2508881,3.26666667 28.8263221,3.26666667 C29.401756,3.26666667 29.8682373,3.70542759 29.8682373,4.24666667 C29.8682373,4.78790575 29.401756,5.22666667 28.8263221,5.22666667 Z M32.2993729,5.22666667 C31.723939,5.22666667 31.2574577,4.78790575 31.2574577,4.24666667 C31.2574577,3.70542759 31.723939,3.26666667 32.2993729,3.26666667 C32.8748069,3.26666667 33.3412882,3.70542759 33.3412882,4.24666667 C33.3412882,4.78790575 32.8748069,5.22666667 32.2993729,5.22666667 Z M28.8263221,1.96 C28.2508881,1.96 27.7844068,1.52123908 27.7844068,0.98 C27.7844068,0.438760918 28.2508881,0 28.8263221,0 C29.401756,0 29.8682373,0.438760918 29.8682373,0.98 C29.8682373,1.52123908 29.401756,1.96 28.8263221,1.96 Z M32.2993729,1.96 C31.723939,1.96 31.2574577,1.52123908 31.2574577,0.98 C31.2574577,0.438760918 31.723939,0 32.2993729,0 C32.8748069,0 33.3412882,0.438760918 33.3412882,0.98 C33.3412882,1.52123908 32.8748069,1.96 32.2993729,1.96 Z M35.7724238,11.76 C35.1969898,11.76 34.7305085,11.3212391 34.7305085,10.78 C34.7305085,10.2387609 35.1969898,9.8 35.7724238,9.8 C36.3478577,9.8 36.814339,10.2387609 36.814339,10.78 C36.814339,11.3212391 36.3478577,11.76 35.7724238,11.76 Z M39.2454746,11.76 C38.6700407,11.76 38.2035594,11.3212391 38.2035594,10.78 C38.2035594,10.2387609 38.6700407,9.8 39.2454746,9.8 C39.8209086,9.8 40.2873899,10.2387609 40.2873899,10.78 C40.2873899,11.3212391 39.8209086,11.76 39.2454746,11.76 Z M35.7724238,8.49333333 C35.1969898,8.49333333 34.7305085,8.05457241 34.7305085,7.51333333 C34.7305085,6.97209425 35.1969898,6.53333333 35.7724238,6.53333333 C36.3478577,6.53333333 36.814339,6.97209425 36.814339,7.51333333 C36.814339,8.05457241 36.3478577,8.49333333 35.7724238,8.49333333 Z M39.2454746,8.49333333 C38.6700407,8.49333333 38.2035594,8.05457241 38.2035594,7.51333333 C38.2035594,6.97209425 38.6700407,6.53333333 39.2454746,6.53333333 C39.8209086,6.53333333 40.2873899,6.97209425 40.2873899,7.51333333 C40.2873899,8.05457241 39.8209086,8.49333333 39.2454746,8.49333333 Z M35.7724238,5.22666667 C35.1969898,5.22666667 34.7305085,4.78790575 34.7305085,4.24666667 C34.7305085,3.70542759 35.1969898,3.26666667 35.7724238,3.26666667 C36.3478577,3.26666667 36.814339,3.70542759 36.814339,4.24666667 C36.814339,4.78790575 36.3478577,5.22666667 35.7724238,5.22666667 Z M39.2454746,5.22666667 C38.6700407,5.22666667 38.2035594,4.78790575 38.2035594,4.24666667 C38.2035594,3.70542759 38.6700407,3.26666667 39.2454746,3.26666667 C39.8209086,3.26666667 40.2873899,3.70542759 40.2873899,4.24666667 C40.2873899,4.78790575 39.8209086,5.22666667 39.2454746,5.22666667 Z M35.7724238,1.96 C35.1969898,1.96 34.7305085,1.52123908 34.7305085,0.98 C34.7305085,0.438760918 35.1969898,0 35.7724238,0 C36.3478577,0 36.814339,0.438760918 36.814339,0.98 C36.814339,1.52123908 36.3478577,1.96 35.7724238,1.96 Z M39.2454746,1.96 C38.6700407,1.96 38.2035594,1.52123908 38.2035594,0.98 C38.2035594,0.438760918 38.6700407,0 39.2454746,0 C39.8209086,0 40.2873899,0.438760918 40.2873899,0.98 C40.2873899,1.52123908 39.8209086,1.96 39.2454746,1.96 Z M42.7185255,11.76 C42.1430915,11.76 41.6766102,11.3212391 41.6766102,10.78 C41.6766102,10.2387609 42.1430915,9.8 42.7185255,9.8 C43.2939594,9.8 43.7604407,10.2387609 43.7604407,10.78 C43.7604407,11.3212391 43.2939594,11.76 42.7185255,11.76 Z M46.1915763,11.76 C45.6161424,11.76 45.1496611,11.3212391 45.1496611,10.78 C45.1496611,10.2387609 45.6161424,9.8 46.1915763,9.8 C46.7670103,9.8 47.2334916,10.2387609 47.2334916,10.78 C47.2334916,11.3212391 46.7670103,11.76 46.1915763,11.76 Z M42.7185255,8.49333333 C42.1430915,8.49333333 41.6766102,8.05457241 41.6766102,7.51333333 C41.6766102,6.97209425 42.1430915,6.53333333 42.7185255,6.53333333 C43.2939594,6.53333333 43.7604407,6.97209425 43.7604407,7.51333333 C43.7604407,8.05457241 43.2939594,8.49333333 42.7185255,8.49333333 Z M46.1915763,8.49333333 C45.6161424,8.49333333 45.1496611,8.05457241 45.1496611,7.51333333 C45.1496611,6.97209425 45.6161424,6.53333333 46.1915763,6.53333333 C46.7670103,6.53333333 47.2334916,6.97209425 47.2334916,7.51333333 C47.2334916,8.05457241 46.7670103,8.49333333 46.1915763,8.49333333 Z M42.7185255,5.22666667 C42.1430915,5.22666667 41.6766102,4.78790575 41.6766102,4.24666667 C41.6766102,3.70542759 42.1430915,3.26666667 42.7185255,3.26666667 C43.2939594,3.26666667 43.7604407,3.70542759 43.7604407,4.24666667 C43.7604407,4.78790575 43.2939594,5.22666667 42.7185255,5.22666667 Z M46.1915763,5.22666667 C45.6161424,5.22666667 45.1496611,4.78790575 45.1496611,4.24666667 C45.1496611,3.70542759 45.6161424,3.26666667 46.1915763,3.26666667 C46.7670103,3.26666667 47.2334916,3.70542759 47.2334916,4.24666667 C47.2334916,4.78790575 46.7670103,5.22666667 46.1915763,5.22666667 Z M42.7185255,1.96 C42.1430915,1.96 41.6766102,1.52123908 41.6766102,0.98 C41.6766102,0.438760918 42.1430915,0 42.7185255,0 C43.2939594,0 43.7604407,0.438760918 43.7604407,0.98 C43.7604407,1.52123908 43.2939594,1.96 42.7185255,1.96 Z M46.1915763,1.96 C45.6161424,1.96 45.1496611,1.52123908 45.1496611,0.98 C45.1496611,0.438760918 45.6161424,0 46.1915763,0 C46.7670103,0 47.2334916,0.438760918 47.2334916,0.98 C47.2334916,1.52123908 46.7670103,1.96 46.1915763,1.96 Z M49.6646272,11.76 C49.0891932,11.76 48.6227119,11.3212391 48.6227119,10.78 C48.6227119,10.2387609 49.0891932,9.8 49.6646272,9.8 C50.2400611,9.8 50.7065424,10.2387609 50.7065424,10.78 C50.7065424,11.3212391 50.2400611,11.76 49.6646272,11.76 Z M53.137678,11.76 C52.5622441,11.76 52.0957628,11.3212391 52.0957628,10.78 C52.0957628,10.2387609 52.5622441,9.8 53.137678,9.8 C53.713112,9.8 54.1795933,10.2387609 54.1795933,10.78 C54.1795933,11.3212391 53.713112,11.76 53.137678,11.76 Z M49.6646272,8.49333333 C49.0891932,8.49333333 48.6227119,8.05457241 48.6227119,7.51333333 C48.6227119,6.97209425 49.0891932,6.53333333 49.6646272,6.53333333 C50.2400611,6.53333333 50.7065424,6.97209425 50.7065424,7.51333333 C50.7065424,8.05457241 50.2400611,8.49333333 49.6646272,8.49333333 Z M53.137678,8.49333333 C52.5622441,8.49333333 52.0957628,8.05457241 52.0957628,7.51333333 C52.0957628,6.97209425 52.5622441,6.53333333 53.137678,6.53333333 C53.713112,6.53333333 54.1795933,6.97209425 54.1795933,7.51333333 C54.1795933,8.05457241 53.713112,8.49333333 53.137678,8.49333333 Z M49.6646272,5.22666667 C49.0891932,5.22666667 48.6227119,4.78790575 48.6227119,4.24666667 C48.6227119,3.70542759 49.0891932,3.26666667 49.6646272,3.26666667 C50.2400611,3.26666667 50.7065424,3.70542759 50.7065424,4.24666667 C50.7065424,4.78790575 50.2400611,5.22666667 49.6646272,5.22666667 Z M53.137678,5.22666667 C52.5622441,5.22666667 52.0957628,4.78790575 52.0957628,4.24666667 C52.0957628,3.70542759 52.5622441,3.26666667 53.137678,3.26666667 C53.713112,3.26666667 54.1795933,3.70542759 54.1795933,4.24666667 C54.1795933,4.78790575 53.713112,5.22666667 53.137678,5.22666667 Z M49.6646272,1.96 C49.0891932,1.96 48.6227119,1.52123908 48.6227119,0.98 C48.6227119,0.438760918 49.0891932,0 49.6646272,0 C50.2400611,0 50.7065424,0.438760918 50.7065424,0.98 C50.7065424,1.52123908 50.2400611,1.96 49.6646272,1.96 Z M53.137678,1.96 C52.5622441,1.96 52.0957628,1.52123908 52.0957628,0.98 C52.0957628,0.438760918 52.5622441,0 53.137678,0 C53.713112,0 54.1795933,0.438760918 54.1795933,0.98 C54.1795933,1.52123908 53.713112,1.96 53.137678,1.96 Z M56.6107289,11.76 C56.0352949,11.76 55.5688136,11.3212391 55.5688136,10.78 C55.5688136,10.2387609 56.0352949,9.8 56.6107289,9.8 C57.1861628,9.8 57.6526441,10.2387609 57.6526441,10.78 C57.6526441,11.3212391 57.1861628,11.76 56.6107289,11.76 Z M60.0837797,11.76 C59.5083458,11.76 59.0418645,11.3212391 59.0418645,10.78 C59.0418645,10.2387609 59.5083458,9.8 60.0837797,9.8 C60.6592137,9.8 61.125695,10.2387609 61.125695,10.78 C61.125695,11.3212391 60.6592137,11.76 60.0837797,11.76 Z M56.6107289,8.49333333 C56.0352949,8.49333333 55.5688136,8.05457241 55.5688136,7.51333333 C55.5688136,6.97209425 56.0352949,6.53333333 56.6107289,6.53333333 C57.1861628,6.53333333 57.6526441,6.97209425 57.6526441,7.51333333 C57.6526441,8.05457241 57.1861628,8.49333333 56.6107289,8.49333333 Z M60.0837797,8.49333333 C59.5083458,8.49333333 59.0418645,8.05457241 59.0418645,7.51333333 C59.0418645,6.97209425 59.5083458,6.53333333 60.0837797,6.53333333 C60.6592137,6.53333333 61.125695,6.97209425 61.125695,7.51333333 C61.125695,8.05457241 60.6592137,8.49333333 60.0837797,8.49333333 Z M56.6107289,5.22666667 C56.0352949,5.22666667 55.5688136,4.78790575 55.5688136,4.24666667 C55.5688136,3.70542759 56.0352949,3.26666667 56.6107289,3.26666667 C57.1861628,3.26666667 57.6526441,3.70542759 57.6526441,4.24666667 C57.6526441,4.78790575 57.1861628,5.22666667 56.6107289,5.22666667 Z M60.0837797,5.22666667 C59.5083458,5.22666667 59.0418645,4.78790575 59.0418645,4.24666667 C59.0418645,3.70542759 59.5083458,3.26666667 60.0837797,3.26666667 C60.6592137,3.26666667 61.125695,3.70542759 61.125695,4.24666667 C61.125695,4.78790575 60.6592137,5.22666667 60.0837797,5.22666667 Z M56.6107289,1.96 C56.0352949,1.96 55.5688136,1.52123908 55.5688136,0.98 C55.5688136,0.438760918 56.0352949,0 56.6107289,0 C57.1861628,0 57.6526441,0.438760918 57.6526441,0.98 C57.6526441,1.52123908 57.1861628,1.96 56.6107289,1.96 Z M60.0837797,1.96 C59.5083458,1.96 59.0418645,1.52123908 59.0418645,0.98 C59.0418645,0.438760918 59.5083458,0 60.0837797,0 C60.6592137,0 61.125695,0.438760918 61.125695,0.98 C61.125695,1.52123908 60.6592137,1.96 60.0837797,1.96 Z M63.5568306,11.76 C62.9813967,11.76 62.5149153,11.3212391 62.5149153,10.78 C62.5149153,10.2387609 62.9813967,9.8 63.5568306,9.8 C64.1322645,9.8 64.5987458,10.2387609 64.5987458,10.78 C64.5987458,11.3212391 64.1322645,11.76 63.5568306,11.76 Z M67.0298814,11.76 C66.4544475,11.76 65.9879662,11.3212391 65.9879662,10.78 C65.9879662,10.2387609 66.4544475,9.8 67.0298814,9.8 C67.6053154,9.8 68.0717967,10.2387609 68.0717967,10.78 C68.0717967,11.3212391 67.6053154,11.76 67.0298814,11.76 Z M63.5568306,8.49333333 C62.9813967,8.49333333 62.5149153,8.05457241 62.5149153,7.51333333 C62.5149153,6.97209425 62.9813967,6.53333333 63.5568306,6.53333333 C64.1322645,6.53333333 64.5987458,6.97209425 64.5987458,7.51333333 C64.5987458,8.05457241 64.1322645,8.49333333 63.5568306,8.49333333 Z M67.0298814,8.49333333 C66.4544475,8.49333333 65.9879662,8.05457241 65.9879662,7.51333333 C65.9879662,6.97209425 66.4544475,6.53333333 67.0298814,6.53333333 C67.6053154,6.53333333 68.0717967,6.97209425 68.0717967,7.51333333 C68.0717967,8.05457241 67.6053154,8.49333333 67.0298814,8.49333333 Z M63.5568306,5.22666667 C62.9813967,5.22666667 62.5149153,4.78790575 62.5149153,4.24666667 C62.5149153,3.70542759 62.9813967,3.26666667 63.5568306,3.26666667 C64.1322645,3.26666667 64.5987458,3.70542759 64.5987458,4.24666667 C64.5987458,4.78790575 64.1322645,5.22666667 63.5568306,5.22666667 Z M67.0298814,5.22666667 C66.4544475,5.22666667 65.9879662,4.78790575 65.9879662,4.24666667 C65.9879662,3.70542759 66.4544475,3.26666667 67.0298814,3.26666667 C67.6053154,3.26666667 68.0717967,3.70542759 68.0717967,4.24666667 C68.0717967,4.78790575 67.6053154,5.22666667 67.0298814,5.22666667 Z M63.5568306,1.96 C62.9813967,1.96 62.5149153,1.52123908 62.5149153,0.98 C62.5149153,0.438760918 62.9813967,0 63.5568306,0 C64.1322645,0 64.5987458,0.438760918 64.5987458,0.98 C64.5987458,1.52123908 64.1322645,1.96 63.5568306,1.96 Z M67.0298814,1.96 C66.4544475,1.96 65.9879662,1.52123908 65.9879662,0.98 C65.9879662,0.438760918 66.4544475,0 67.0298814,0 C67.6053154,0 68.0717967,0.438760918 68.0717967,0.98 C68.0717967,1.52123908 67.6053154,1.96 67.0298814,1.96 Z M70.5029323,11.76 C69.9274984,11.76 69.461017,11.3212391 69.461017,10.78 C69.461017,10.2387609 69.9274984,9.8 70.5029323,9.8 C71.0783662,9.8 71.5448475,10.2387609 71.5448475,10.78 C71.5448475,11.3212391 71.0783662,11.76 70.5029323,11.76 Z M73.9759831,11.76 C73.4005492,11.76 72.9340679,11.3212391 72.9340679,10.78 C72.9340679,10.2387609 73.4005492,9.8 73.9759831,9.8 C74.5514171,9.8 75.0178984,10.2387609 75.0178984,10.78 C75.0178984,11.3212391 74.5514171,11.76 73.9759831,11.76 Z M70.5029323,8.49333333 C69.9274984,8.49333333 69.461017,8.05457241 69.461017,7.51333333 C69.461017,6.97209425 69.9274984,6.53333333 70.5029323,6.53333333 C71.0783662,6.53333333 71.5448475,6.97209425 71.5448475,7.51333333 C71.5448475,8.05457241 71.0783662,8.49333333 70.5029323,8.49333333 Z M73.9759831,8.49333333 C73.4005492,8.49333333 72.9340679,8.05457241 72.9340679,7.51333333 C72.9340679,6.97209425 73.4005492,6.53333333 73.9759831,6.53333333 C74.5514171,6.53333333 75.0178984,6.97209425 75.0178984,7.51333333 C75.0178984,8.05457241 74.5514171,8.49333333 73.9759831,8.49333333 Z M70.5029323,5.22666667 C69.9274984,5.22666667 69.461017,4.78790575 69.461017,4.24666667 C69.461017,3.70542759 69.9274984,3.26666667 70.5029323,3.26666667 C71.0783662,3.26666667 71.5448475,3.70542759 71.5448475,4.24666667 C71.5448475,4.78790575 71.0783662,5.22666667 70.5029323,5.22666667 Z M73.9759831,5.22666667 C73.4005492,5.22666667 72.9340679,4.78790575 72.9340679,4.24666667 C72.9340679,3.70542759 73.4005492,3.26666667 73.9759831,3.26666667 C74.5514171,3.26666667 75.0178984,3.70542759 75.0178984,4.24666667 C75.0178984,4.78790575 74.5514171,5.22666667 73.9759831,5.22666667 Z M70.5029323,1.96 C69.9274984,1.96 69.461017,1.52123908 69.461017,0.98 C69.461017,0.438760918 69.9274984,0 70.5029323,0 C71.0783662,0 71.5448475,0.438760918 71.5448475,0.98 C71.5448475,1.52123908 71.0783662,1.96 70.5029323,1.96 Z M73.9759831,1.96 C73.4005492,1.96 72.9340679,1.52123908 72.9340679,0.98 C72.9340679,0.438760918 73.4005492,0 73.9759831,0 C74.5514171,0 75.0178984,0.438760918 75.0178984,0.98 C75.0178984,1.52123908 74.5514171,1.96 73.9759831,1.96 Z" transform="translate(107.32 21.892)"/>
    </g>
  </g>
</svg>
