<svg xmlns="http://www.w3.org/2000/svg" width="35" height="35" viewBox="0 0 35 35">
  <path fill="#F1373D" fill-rule="evenodd" d="M18.9372338,10.7808241 C19.3025596,10.6907996 19.5140426,10.8709345 19.6140056,11.1754248 L20.1349854,12.7620791 C20.3185188,12.9572767 22.1984648,13.3215933 22.6096624,13.4330625 C23.4407791,13.6584376 24.1704489,13.9524799 24.9463392,14.264476 C25.2732044,14.3958716 25.8526548,14.6256658 25.6695107,15.1025046 C25.5122936,15.5119182 24.8411859,15.4388176 24.3757871,15.4714323 C18.7708721,15.8643581 14.7961036,16.632337 9.4906831,17.7679997 C9.00806225,17.8712569 6.98680224,18.4545932 6.71169415,18.2073435 C6.30870115,17.8453228 7.96289058,16.8735756 8.24720082,16.6837834 C8.91045611,16.2410389 9.54598606,15.8206396 10.2689075,15.4495381 C12.4472892,14.3310974 11.7596285,14.9200935 12.8368456,13.0966934 C13.2612736,12.3782999 13.1590185,12.34981 13.591513,12.2318481 L18.9372338,10.7808241 Z M11.9735293,3.10554765 C12.0306117,3.33880091 11.6799424,3.38834956 11.0766319,3.63220524 C10.0332965,4.05389886 9.14222818,4.44880369 8.18142409,4.99412154 C5.87189731,6.30507554 3.98682756,8.79084845 3.13336397,11.3573411 C2.33726713,13.7515798 2.35262179,19.107004 3.40875277,21.3864538 C4.27970362,23.2661923 4.51777205,23.3708735 5.83272869,24.7037392 C7.06188402,25.9495943 9.44192853,27.4739397 11.1961993,27.9199482 C11.7942493,28.0719869 12.3873944,28.1509396 12.9962497,28.2513799 C13.355165,28.3105414 13.6476856,28.5061914 13.4679792,28.5844373 C12.1838029,29.1431142 8.09676016,27.5222161 6.84606564,26.661865 C5.19949084,25.5290316 4.21601019,24.2130592 3.05914975,22.7254688 C1.63422241,20.8932998 1.37916432,24.4309036 5.60830886,27.6819592 C9.48905883,30.6651977 15.87788,30.5540137 20.3015169,28.5689578 C23.5421337,27.1147297 25.9356135,25.0465508 27.5770701,21.9472511 C28.1417096,20.8811424 28.5545084,19.9679205 28.8874772,18.6607834 C29.4865936,16.308601 29.2023901,12.5814966 28.6014255,10.2575167 C27.6809985,6.69828399 24.8329209,4.48838606 21.8202784,3.14993645 C19.6825675,2.20017159 17.5629125,2.47753092 18.4094807,1.94663237 C19.17302,1.46782704 21.6967302,2.40218305 22.4026894,2.71389422 C23.5730563,3.23065622 24.6815069,3.93833247 25.5951096,4.55885682 C30.1281486,7.63765848 31.048078,14.4111918 29.7796829,19.4756855 C29.4514769,20.786074 28.9433512,22.0198424 28.3352068,23.0568298 C27.1118095,25.1431035 25.3443167,26.7276 23.3322155,28.0471066 C23.0639353,28.2230361 21.8513431,28.8359974 22.025576,29.1711046 C22.2263951,29.5573861 23.7328586,28.8933212 23.9764006,28.7590238 C25.7849103,27.7614774 28.0708364,25.6904005 29.391551,24.1062574 C30.8981567,22.2991808 31.9104273,19.9371028 32.1942043,16.8862916 C32.5123161,13.4652438 32.2715464,11.0716412 31.0667737,8.16516425 C27.541598,-0.338966842 18.6101577,-1.45582586 10.6383841,1.42979969 C8.89356787,2.06142124 7.14299363,2.93463663 5.72773405,4.0389141 C4.9971078,4.60890025 4.36820622,5.13718354 3.77577197,5.84514252 C2.22175169,7.70240393 1.39309726,8.8802622 0.814169439,11.658874 C0.608516418,12.6461714 0.44793219,15.3438514 0.897127294,16.1769896 C0.979800803,16.3303006 1.28319765,16.7586384 1.59256576,16.545247 C1.82878595,16.3822525 1.76260449,15.749288 1.77461809,15.4520668 C1.80589612,14.6732836 1.88707681,13.8918852 2.02199884,13.1499278 C2.47972432,10.6319942 3.58113735,8.22086231 5.4138164,6.48503396 C5.97440393,5.95406472 5.94198852,5.88825903 6.71739922,5.30781183 C7.80715408,4.49220293 11.8069738,2.42550838 11.9735293,3.10554765 Z M1.83108523,21.0271731 C1.95569973,20.9145047 1.89257499,19.145314 1.5281149,18.2894159 C1.11467627,17.3183049 -0.589762885,17.7115133 0.211452183,20.1586227 C0.397769696,20.8126507 1.30099378,21.5066852 1.83108523,21.0271731 Z" transform="translate(1 2)"/>
</svg>
