<svg xmlns="http://www.w3.org/2000/svg" width="226" height="74" viewBox="0 0 226 74">
  <g fill="none" fill-rule="evenodd" transform="translate(1 1)">
    <rect width="222" height="70" x=".821" y="1" fill="#EF5350" fill-rule="nonzero"/>
    <g transform="translate(15)">
      <path fill="#FFF" fill-rule="nonzero" d="M62.9394583,44.6966512 L71.1803591,44.6966512 C71.2272691,44.8702969 71.2676336,45.0802871 71.2981796,45.3266217 C71.3287257,45.5729562 71.3450897,45.8182813 71.3450897,46.0636063 C71.3450897,47.0630787 71.18145,48.0060152 70.8519884,48.8903967 C70.5247089,49.7727593 70.0065163,50.5622414 69.302865,51.2578338 C68.5501219,51.9978471 67.6511938,52.5702723 66.6017171,52.9740996 C65.5544225,53.3809554 64.3543972,53.5838786 63.0092779,53.5838786 C61.7874342,53.5838786 60.6386826,53.3819649 59.5575689,52.9751091 C58.4775463,52.5712818 57.5393448,52.0059238 56.7407825,51.2820635 C55.944402,50.5571936 55.3094795,49.6990607 54.8392878,48.707665 C54.3701871,47.71425 54.1356367,46.631993 54.1356367,45.4588751 C54.1356367,44.285757 54.3701871,43.2024905 54.8392878,42.210085 C55.3083886,41.2186893 55.9433111,40.3595469 56.7418734,39.6356867 C57.5415265,38.9118264 58.4797282,38.3464683 59.5597508,37.9396124 C60.6397735,37.5357851 61.7907069,37.3338715 63.0114598,37.3338715 C64.3751249,37.3338715 65.5904232,37.5499192 66.6628094,37.9840333 C67.7351957,38.4201668 68.6548512,39.0208597 69.4228674,39.789141 L67.2377306,41.7658752 C66.6922645,41.2308041 66.0813426,40.8209196 65.4082376,40.5382404 C64.7351325,40.2555614 63.9289338,40.1142218 62.9896412,40.1142218 C62.2227159,40.1142218 61.4950643,40.2414275 60.8055953,40.494829 C60.118308,40.747221 59.5139317,41.1066273 58.9979208,41.570019 C58.4808191,42.0344202 58.0706287,42.5957402 57.7651677,43.2539784 C57.4597066,43.9132263 57.3069762,44.6471823 57.3069762,45.4598847 C57.3069762,46.2705677 57.4597066,47.0045237 57.7651677,47.6647812 C58.0706287,48.3230196 58.4851828,48.8843394 59.0088302,49.347731 C59.5324774,49.8121325 60.1401267,50.1695195 60.8306866,50.422921 C61.5179739,50.6773323 62.253262,50.8035282 63.0365513,50.8035282 C63.9278428,50.8035282 64.6838587,50.6823801 65.3013262,50.444122 C65.9198847,50.2048544 66.4468049,49.8969361 66.8864505,49.5203672 C67.1973662,49.2578796 67.4679173,48.9297699 67.6937402,48.5309906 C67.9228359,48.1332208 68.0973852,47.6869917 68.2228423,47.1953321 L62.9405493,47.1953321 L62.9405493,44.6966512 L62.9394583,44.6966512 Z M79.3765314,42.2767166 C80.2710958,42.2767166 81.0892947,42.4180561 81.8354923,42.7007353 C82.5816898,42.9803856 83.2242489,43.3710884 83.766442,43.8688054 C84.3075443,44.3665224 84.730826,44.9621675 85.037378,45.6557408 C85.3428389,46.3483044 85.4955693,47.1064901 85.4955693,47.9302976 C85.4955693,48.7530955 85.3428389,49.5112811 85.037378,50.2038448 C84.7297352,50.8974181 84.3064535,51.4930632 83.7653511,51.9907802 C83.2231579,52.4884973 82.5805991,52.8792001 81.8344015,53.15986 C81.0892947,53.4425391 80.2700048,53.5838786 79.3754406,53.5838786 C78.4808763,53.5838786 77.6626772,53.4425391 76.9164796,53.15986 C76.1702822,52.8792001 75.5277232,52.4884973 74.98553,51.9907802 C74.4444278,51.4930632 74.0211459,50.8974181 73.7145941,50.2038448 C73.4091332,49.5112811 73.2564026,48.7530955 73.2564026,47.9302976 C73.2564026,47.1064901 73.4091332,46.3483044 73.7145941,45.6557408 C74.0222369,44.9621675 74.4455186,44.3665224 74.986621,43.8688054 C75.5288142,43.3710884 76.171373,42.9803856 76.9175706,42.6997257 C77.6626772,42.4170465 78.4819672,42.275707 79.3765314,42.275707 L79.3765314,42.2767166 Z M79.3765314,50.7570881 C79.7714489,50.7570881 80.1554569,50.6884375 80.5263738,50.5521458 C80.8972908,50.4168636 81.2267522,50.2189883 81.5114856,49.962558 C81.7951279,49.7051183 82.0209507,49.390133 82.1878635,49.0186119 C82.3536851,48.6470908 82.4365958,48.2250914 82.4365958,47.7536233 C82.4365958,47.2811453 82.3536851,46.8591459 82.1856815,46.4876248 C82.0220417,46.1161039 81.7962188,45.8011187 81.5114856,45.5436787 C81.2278432,45.2872485 80.8983818,45.0893731 80.5263738,44.9551006 C80.1554569,44.8188089 79.7714489,44.7511678 79.3765314,44.7511678 C78.9652501,44.7511678 78.5779693,44.8188089 78.2146888,44.9551006 C77.8503176,45.0903827 77.5274018,45.2882581 77.2415774,45.5446883 C76.9579352,45.8031378 76.7321123,46.118123 76.5651996,46.489644 C76.3993778,46.861165 76.3164671,47.2831645 76.3164671,47.7556424 C76.3164671,48.2271106 76.3993778,48.64911 76.5673815,49.0206311 C76.7310213,49.3921522 76.9568442,49.7071374 77.2415774,49.9645772 C77.5252198,50.2220169 77.8503176,50.4188828 78.2146888,50.5541649 C78.5779693,50.6904566 78.9652501,50.7580977 79.3765314,50.7580977 L79.3765314,50.7570881 Z M93.144094,42.2767166 C94.0386582,42.2767166 94.859039,42.4180561 95.6041457,42.7007353 C96.3503431,42.9803856 96.9929023,43.3710884 97.5350954,43.8688054 C98.0761977,44.3665224 98.4994794,44.9621675 98.8049403,45.6557408 C99.1104013,46.3483044 99.2631319,47.1064901 99.2631319,47.9302976 C99.2631319,48.7530955 99.1104013,49.5112811 98.8049403,50.2038448 C98.4994794,50.8974181 98.0740159,51.4930632 97.5329135,51.9907802 C96.9918113,52.4884973 96.3492523,52.8792001 95.6019639,53.15986 C94.8579481,53.4425391 94.0386582,53.5838786 93.144094,53.5838786 C92.2495297,53.5838786 91.4313308,53.4425391 90.6851332,53.15986 C89.9400264,52.8792001 89.2974676,52.4884973 88.7541834,51.9907802 C88.214172,51.4930632 87.7908903,50.8974181 87.4843385,50.2038448 C87.1788774,49.5112811 87.026147,48.7530955 87.026147,47.9302976 C87.026147,47.1064901 87.1788774,46.3483044 87.4843385,45.6557408 C87.7897995,44.9621675 88.215263,44.3665224 88.7552744,43.8688054 C89.2974676,43.3710884 89.9400264,42.9803856 90.686224,42.6997257 C91.4313308,42.4170465 92.2506206,42.275707 93.1451848,42.275707 L93.144094,42.2767166 Z M93.144094,50.7570881 C93.5401023,50.7570881 93.9241103,50.6884375 94.2950274,50.5521458 C94.6659442,50.4168636 94.9954056,50.2189883 95.280139,49.962558 C95.5637813,49.7051183 95.7896041,49.390133 95.9565169,49.0186119 C96.1201565,48.6470908 96.2052492,48.2250914 96.2052492,47.7536233 C96.2052492,47.2811453 96.1212475,46.8591459 95.954335,46.4876248 C95.7906951,46.1161039 95.5637813,45.8011187 95.280139,45.5436787 C94.9964966,45.2872485 94.6670352,45.0893731 94.2950274,44.9551006 C93.9241103,44.8188089 93.5401023,44.7511678 93.1451848,44.7511678 C92.7349944,44.7511678 92.3488044,44.8188089 91.9844332,44.9551006 C91.620062,45.0903827 91.2971461,45.2882581 91.0113218,45.5446883 C90.7276795,45.8031378 90.5018566,46.118123 90.3349439,46.489644 C90.1691222,46.861165 90.0862113,47.2831645 90.0862113,47.7556424 C90.0862113,48.2271106 90.1691222,48.64911 90.3371258,49.0206311 C90.5007657,49.3921522 90.7265886,49.7071374 91.0113218,49.9645772 C91.294964,50.2220169 91.620062,50.4188828 91.9844332,50.5541649 C92.3477136,50.6904566 92.7349944,50.7580977 93.1462758,50.7580977 L93.144094,50.7570881 Z M106.47092,58.5287428 C105.643993,58.5287428 104.908705,58.4298051 104.265055,58.2319297 C103.621405,58.0320354 103.059575,57.775605 102.582838,57.4596102 C102.106101,57.144625 101.70791,56.7953144 101.389358,56.4136977 C101.072988,56.0300619 100.84171,55.6494547 100.697708,55.267838 L103.680316,54.1674089 C103.902866,54.7388244 104.269419,55.1830343 104.777793,55.5000387 C105.286168,55.8150239 105.851271,55.9725166 106.47092,55.9725166 C107.457123,55.9725166 108.23823,55.6898374 108.809878,55.1244793 C109.381527,54.5591213 109.668442,53.7716582 109.668442,52.7570423 L109.668442,52.009962 L109.477529,52.009962 C109.112066,52.4784015 108.630965,52.8479035 108.034225,53.1204869 C107.436395,53.3930703 106.732744,53.5283523 105.922181,53.5283523 C105.221803,53.5283523 104.542152,53.3971085 103.882138,53.1315921 C103.222124,52.8660756 102.638476,52.4884973 102.127919,51.9968375 C101.619545,51.5041684 101.206082,50.9135711 100.88753,50.2240362 C100.568977,49.5334917 100.409701,48.7631913 100.409701,47.9121253 C100.409701,47.06005 100.568977,46.2867209 100.886439,45.5880997 C101.202809,44.8914977 101.617363,44.2958526 102.125738,43.804193 C102.635203,43.313543 103.219942,42.9359645 103.879956,42.6714578 C104.53997,42.4069509 105.219621,42.2746974 105.919999,42.2746974 C106.730562,42.2746974 107.434213,42.4109891 108.030953,42.682563 C108.626602,42.9531272 109.107703,43.3236386 109.473165,43.7930878 L109.664078,43.7930878 L109.664078,42.6260271 L112.645595,42.6260271 L112.645595,52.6459899 C112.645595,53.5546011 112.495047,54.3723513 112.192858,55.0992403 C111.89067,55.8261291 111.469571,56.4439848 110.927377,56.950788 C110.387366,57.4555719 109.738261,57.8462747 108.985518,58.1178486 C108.228411,58.390432 107.389485,58.5247045 106.465465,58.5247045 L106.47092,58.5287428 Z M106.901838,50.755069 C107.283664,50.755069 107.661127,50.6904566 108.034225,50.5592127 C108.407324,50.4279688 108.735695,50.236151 109.021519,49.9797208 C109.307343,49.7253095 109.53753,49.4123434 109.712079,49.0408225 C109.886628,48.6693014 109.973903,48.2432637 109.973903,47.7627093 C109.973903,47.2821549 109.886628,46.8540981 109.712079,46.4745005 C109.53753,46.0959125 109.308434,45.7778986 109.021519,45.5255066 C108.735695,45.2690762 108.407324,45.0762488 108.034225,44.9460145 C107.661127,44.8147706 107.283664,44.7491487 106.902929,44.7491487 C106.523285,44.7491487 106.150186,44.8147706 105.784724,44.9460145 C105.419261,45.0772584 105.094164,45.2731145 104.80834,45.5356022 C104.522515,45.7980898 104.292329,46.1140848 104.117779,46.4845961 C103.94323,46.8581364 103.855956,47.2821549 103.855956,47.7627093 C103.855956,48.2432637 103.94323,48.6693014 104.117779,49.0408225 C104.292329,49.4123434 104.521424,49.7253095 104.80834,49.9797208 C105.094164,50.2351414 105.419261,50.4279688 105.784724,50.5582032 C106.150186,50.689447 106.523285,50.7540594 106.90402,50.7540594 L106.901838,50.755069 Z M115.328197,53.2285107 L115.328197,37.6852013 L118.388261,37.6852013 L118.388261,53.2305298 L115.327106,53.2305298 L115.328197,53.2285107 Z M131.967093,50.680361 C131.429263,51.5455606 130.705975,52.2451914 129.796138,52.7802624 C128.888482,53.3153334 127.777914,53.5818594 126.465523,53.5818594 C125.581868,53.5818594 124.763668,53.4405199 124.010925,53.1578409 C123.260364,52.8781906 122.609078,52.4844589 122.054884,51.9786654 C121.501782,51.4738813 121.070863,50.8782362 120.763221,50.19173 C120.454487,49.5052237 120.300665,48.7520859 120.300665,47.9302976 C120.300665,47.1630259 120.451214,46.4381561 120.75122,45.7516498 C121.051227,45.0651434 121.471236,44.4674792 122.007974,43.9546188 C122.545804,43.4417582 123.181817,43.0338926 123.917105,42.7310222 C124.652393,42.4281519 125.461865,42.2767166 126.347702,42.2767166 C127.280449,42.2767166 128.109557,42.4180561 128.837209,42.698716 C129.56486,42.979376 130.17251,43.3700788 130.663429,43.8677958 C131.154348,44.3655128 131.525265,44.954091 131.778362,45.6325208 C132.031458,46.31196 132.158006,47.0479351 132.158006,47.8434747 L132.158006,48.1019242 C132.142733,48.188747 132.134005,48.2685028 132.134005,48.3401821 C132.118732,48.4128712 132.112187,48.4916175 132.112187,48.5784402 L123.36073,48.5784402 C123.424004,49.0125546 123.553825,49.3830659 123.753465,49.6940129 C123.949833,50.0039503 124.194202,50.2644189 124.486572,50.4733995 C124.781123,50.6833897 125.099675,50.8348248 125.446592,50.9277051 C125.79569,51.0226044 126.151334,51.0690446 126.515705,51.0690446 C127.224811,51.0690446 127.813914,50.9216477 128.280833,50.6248347 C128.747752,50.3290313 129.115396,49.9585198 129.382675,49.5102716 L131.968184,50.6813705 L131.967093,50.680361 Z M129.479768,46.5158928 C129.463404,46.3139791 129.394675,46.0888455 129.272491,45.8394823 C129.152488,45.5911285 128.975757,45.3589278 128.741207,45.1408612 C128.506656,44.9238039 128.215377,44.7451104 127.868461,44.60579 C127.521545,44.4644505 127.104809,44.3957999 126.622617,44.3957999 C125.944057,44.3957999 125.346226,44.5825701 124.831306,44.9551006 C124.314204,45.3266217 123.952015,45.8465492 123.740374,46.5148832 L129.478677,46.5148832 L129.479768,46.5158928 Z M139.80653,53.2295202 L139.80653,37.6821724 L145.828475,37.6821724 C146.642311,37.6821724 147.403781,37.8033207 148.112887,38.0415788 C148.821993,38.2808464 149.43946,38.6170325 149.96529,39.0511468 C150.491119,39.485261 150.905673,40.0031694 151.208952,40.6038623 C151.51114,41.2045554 151.66278,41.8658225 151.66278,42.5906922 C151.66278,43.327677 151.510049,43.9980301 151.207861,44.5997326 C150.905673,45.199416 150.491119,45.7173244 149.964199,46.1514388 C149.440551,46.585553 148.821993,46.9217392 148.112887,47.1610068 C147.403781,47.4002743 146.642311,47.5194034 145.829566,47.5194034 L143.033507,47.5194034 L143.033507,53.2295202 L139.80653,53.2295202 L139.80653,53.2295202 Z M146.06848,44.7491487 C146.905225,44.7491487 147.536875,44.5341107 147.963429,44.1030252 C148.388893,43.6729491 148.601625,43.1782608 148.601625,42.6189601 C148.601625,42.3463767 148.550351,42.0808605 148.448894,41.8214014 C148.345256,41.5639616 148.18707,41.3368087 147.973248,41.1449909 C147.759425,40.9501442 147.493238,40.7966899 147.179049,40.6805896 C146.862679,40.5665083 146.491762,40.5089631 146.066298,40.5089631 L143.246239,40.5089631 L143.246239,44.7491487 L146.065208,44.7491487 L146.06848,44.7491487 Z M153.574093,53.2295202 L153.574093,37.6821724 L156.634158,37.6821724 L156.634158,53.2295202 L153.574093,53.2295202 Z M166.245269,52.1088997 L166.059811,52.1088997 C165.699802,52.5127268 165.269976,52.8600183 164.763782,53.1487548 C164.257591,53.4374912 163.607395,53.582869 162.815378,53.582869 C162.224093,53.582869 161.667718,53.4920078 161.146251,53.3102856 C160.625878,53.1305825 160.170959,52.8812192 159.782586,52.5632053 C159.393124,52.246201 159.089846,51.8635747 158.871659,51.4153265 C158.653471,50.9680878 158.544379,50.4764282 158.544379,49.9433762 C158.544379,49.3941713 158.661109,48.899483 158.893478,48.4593113 C159.128027,48.0191395 159.454218,47.6395419 159.875316,47.3225376 C160.294235,47.0045237 160.788427,46.7632369 161.355712,46.5956486 C161.922997,46.4310891 162.541555,46.3472949 163.210296,46.3472949 C163.957584,46.3472949 164.571778,46.4018116 165.053971,46.5088258 C165.536163,46.6198783 165.932171,46.7309307 166.243087,46.8460216 L166.243087,46.5219501 C166.243087,45.9586112 166.003081,45.4921908 165.519799,45.124708 C165.037606,44.7572253 164.439777,44.5724743 163.724125,44.5724743 C162.665922,44.5724743 161.771358,44.9833685 161.040432,45.8061665 L158.825839,44.3988286 C160.036775,42.9834143 161.694991,42.275707 163.793946,42.275707 C165.566709,42.275707 166.920555,42.6623715 167.852212,43.4346912 C168.787139,44.2070107 169.252968,45.3528705 169.252968,46.8672224 L169.252968,53.2355776 L166.241997,53.2355776 L166.241997,52.1099093 L166.245269,52.1088997 Z M166.196177,48.7773252 C165.841625,48.62589 165.476161,48.5047418 165.099791,48.4158999 C164.723419,48.3270578 164.312137,48.2816273 163.867036,48.2816273 C163.14375,48.2816273 162.586284,48.4229668 162.194639,48.7056458 C161.801903,48.9883249 161.605534,49.3346067 161.605534,49.7455009 C161.605534,50.1594239 161.794265,50.4895525 162.17282,50.7368967 C162.5481,50.9852504 162.982291,51.1084178 163.4743,51.1084178 C163.873583,51.1084178 164.243408,51.0427958 164.581596,50.9125615 C164.919786,50.7813178 165.207791,50.6096912 165.446707,50.3976819 C165.684531,50.1836534 165.868897,49.9363092 165.999808,49.6536302 C166.130721,49.3709512 166.196177,49.0801956 166.196177,48.7773252 L166.196177,48.7773252 Z M175.700377,52.8903053 L170.785727,42.6290558 L174.338894,42.6290558 L177.297502,49.1690375 L177.463322,49.1690375 L180.303018,42.6290558 L183.786365,42.6290558 L176.461848,58.1743844 L173.097414,58.1743844 L175.698195,52.8903053 L175.700377,52.8903053 Z M60.0277606,21.7239306 L65.6460607,21.7239306 C65.6787887,21.8430597 65.706062,21.9864183 65.7267897,22.1540067 C65.7486083,22.3226044 65.7595177,22.4912023 65.7595177,22.6587906 C65.7595177,23.3412587 65.6471516,23.9843534 65.4213288,24.5870655 C65.1987786,25.1928064 64.8464076,25.7309061 64.3663974,26.2054031 C63.8536594,26.7101871 63.2427373,27.10089 62.5259951,27.3765021 C61.8114346,27.6551429 60.9943265,27.7934537 60.0768527,27.7934537 C59.2444715,27.7934537 58.4600913,27.6541333 57.7237121,27.3765021 C56.988424,27.0998805 56.3491378,26.7142255 55.8036718,26.219537 C55.2582057,25.7248487 54.8261967,25.1392992 54.5054627,24.4628887 C54.1858196,23.7844589 54.0254524,23.0444456 54.0254524,22.2438581 C54.0254524,21.4422611 54.1858196,20.7022478 54.5054627,20.0248277 C54.8261967,19.348417 55.2582057,18.7608485 55.8036718,18.2681793 C56.3491378,17.7734909 56.988424,17.3858168 57.7237121,17.1091952 C58.4611822,16.8325735 59.2455625,16.6952723 60.0779436,16.6952723 C61.0052357,16.6952723 61.8365261,16.8416596 62.5674504,17.1394822 C63.2983751,17.4352856 63.9256609,17.8461798 64.4482173,18.3711552 L62.9590951,19.7209477 C62.5849054,19.3544744 62.1681693,19.0748241 61.7099779,18.8830062 C61.2517864,18.6891691 60.7008656,18.5932602 60.0604887,18.5932602 C59.5368413,18.5932602 59.0415581,18.680083 58.5713664,18.8527192 C58.1022656,19.0263649 57.6909843,19.2706803 57.3386131,19.5876847 C56.987333,19.904689 56.7058725,20.2883249 56.4985956,20.7385922 C56.2913184,21.1888596 56.1865891,21.6906148 56.1865891,22.2448677 C56.1865891,22.798111 56.2902275,23.300876 56.4985956,23.7511432 C56.7058725,24.2004009 56.9895149,24.5840368 57.3473406,24.9020509 C57.7040754,25.2170361 58.1186297,25.4623611 58.5877304,25.6349973 C59.0568313,25.808643 59.5586599,25.8944562 60.0932167,25.8944562 C60.7008656,25.8944562 61.2168766,25.8136908 61.6379763,25.6501407 C62.0579853,25.4865906 62.4179928,25.2766005 62.7179991,25.0191607 C62.9307308,24.8414767 63.1150984,24.6153334 63.2700107,24.34275 C63.4227412,24.0721859 63.5427437,23.7672963 63.6300183,23.4321197 L60.0277606,23.4321197 L60.0277606,21.7259497 L60.0277606,21.7239306 Z M69.7130554,18.8305087 L69.7130554,21.2938547 L74.3080612,21.2938547 L74.3080612,23.1938616 L69.7130554,23.1938616 L69.7130554,25.6572076 L74.8207992,25.6572076 L74.8207992,27.5572148 L67.5508282,27.5572148 L67.5508282,16.9315112 L74.8207992,16.9315112 L74.8207992,18.8294991 L69.7130554,18.8294991 L69.7130554,18.8305087 Z M79.2390741,27.5572148 L79.2390741,18.8294991 L76.0382793,18.8294991 L76.0382793,16.9315112 L84.6020961,16.9315112 L84.6020961,18.8294991 L81.4002104,18.8294991 L81.4002104,27.5562052 L79.240165,27.5562052 L79.2390741,27.5572148 Z M89.6618388,16.9325207 L91.8218843,16.9325207 L91.8218843,27.5572148 L89.6618388,27.5572148 L89.6618388,16.9315112 L89.6618388,16.9325207 Z M96.561984,27.5572148 L96.561984,18.8294991 L93.3600985,18.8294991 L93.3600985,16.9315112 L101.923915,16.9315112 L101.923915,18.8294991 L98.7231205,18.8294991 L98.7231205,27.5562052 L96.563075,27.5562052 L96.561984,27.5572148 Z M110.034995,27.3653967 C109.30407,27.0766603 108.67133,26.6839384 108.136773,26.1842021 C107.602216,25.684466 107.18439,25.0958878 106.880019,24.4174582 C106.57674,23.7410475 106.42401,23.0161776 106.42401,22.2448677 C106.42401,21.4725482 106.57674,20.7486879 106.882201,20.0702582 C107.18548,19.3938475 107.604398,18.8042599 108.136773,18.3035141 C108.67133,17.8047875 109.30407,17.4120656 110.034995,17.1253483 C110.765919,16.8396405 111.557936,16.6962818 112.413227,16.6962818 C113.266336,16.6962818 114.058352,16.8396405 114.789277,17.1263578 C115.520201,17.4140847 116.152942,17.8068067 116.687498,18.3075524 C117.219873,18.806279 117.638791,19.3948571 117.94207,20.0722774 C118.247531,20.750707 118.400262,21.4755769 118.400262,22.2468868 C118.400262,23.0181968 118.247531,23.7430667 117.94207,24.4204869 C117.638791,25.0968974 117.219873,25.6864851 116.687498,26.1872308 C116.152942,26.6859575 115.520201,27.0786795 114.789277,27.3664063 C114.058352,27.6531238 113.266336,27.7964824 112.411045,27.7964824 C111.557936,27.7964824 110.765919,27.652114 110.034995,27.3653967 L110.034995,27.3653967 Z M113.907804,25.6289397 C114.372541,25.4492366 114.777276,25.2018925 115.124193,24.8858977 C115.471109,24.5688933 115.743842,24.1862671 115.942392,23.7349901 C116.13876,23.2857324 116.236944,22.7890249 116.236944,22.2448677 C116.236944,21.6997011 116.13876,21.2029935 115.942392,20.7527261 C115.743842,20.3034685 115.471109,19.9198325 115.124193,19.6018186 C114.777276,19.2868333 114.37145,19.0394892 113.907804,18.8607957 C113.444157,18.6831117 112.944511,18.5942697 112.411045,18.5942697 C111.87867,18.5942697 111.379023,18.6831117 110.916468,18.8607957 C110.45064,19.0394892 110.045904,19.2868333 109.698988,19.6028281 C109.352071,19.9198325 109.079338,20.3034685 108.880789,20.7537357 C108.684421,21.2029935 108.586237,21.7007106 108.586237,22.2448677 C108.586237,22.7900345 108.684421,23.2847228 108.880789,23.7359997 C109.079338,24.1852575 109.352071,24.5678838 109.698988,24.8848881 C110.045904,25.2008829 110.451731,25.4482271 110.915377,25.6269206 C111.377932,25.8046045 111.877579,25.8934466 112.409954,25.8934466 C112.944511,25.8934466 113.444157,25.8046045 113.907804,25.6269206 L113.907804,25.6289397 Z M120.143571,16.9325207 L122.655988,16.9325207 L127.267358,24.0550232 L127.394997,24.0550232 L127.267358,22.0056 L127.267358,16.9315112 L129.41213,16.9315112 L129.41213,27.5562052 L127.138627,27.5562052 L122.273071,20.0329042 L122.142159,20.0329042 L122.273071,22.0803082 L122.273071,27.5562052 L120.14248,27.5562052 L120.14248,16.9315112 L120.143571,16.9325207 Z"/>
      <g fill="#FFF" fill-rule="nonzero" transform="translate(.647 15.037)">
        <path d="M38.4251639 24.0583159L30.4261478 28.3152197 23.4004759 21.4325559 30.0923177 15.0399849 38.760085 19.4593149C41.3390484 20.8222317 40.9997636 22.6964087 38.4251639 24.0583159zM1.00298063 1.48310707C1.71623714.631488278 2.76690633.762252138 4.27451564 1.45027287L29.378148 14.7452716 22.7730264 20.9549822C22.7730264 20.9549822 11.4569942 11.5294169 1.00298063 2.16180983.707664886 1.89718402 1.00298063 1.48310707 1.00298063 1.48310707zM.404605912 40.4563107C.170602224 40.0019864.00149031297 39.3974275.00149031297 38.6082427L.00149031297 4.24431609C.00149031297 3.49495261.193216025 2.85962272.404605912 2.39805825L22.0342772 21.5805544.404605912 40.4563107zM4.27451564 41.4143094C2.76690633 42.1395974 1.34527861 42.2146731.669150522 41.0143215L22.8354694 22.1067961 29.7123696 28.7986578 4.27451564 41.4143094z"/>
      </g>
      <g transform="translate(134.5 .5)">
        <polygon fill="#F7D917" points=".91 .467 73.481 .467 73.481 70.476"/>
        <path fill="#EF5350" d="M31.4721613,19.9040283 C31.4085217,20.7837528 31.0837772,21.4762914 30.4979182,21.981665 C29.9120591,22.4870387 29.1399721,22.7397217 28.181634,22.7397217 C27.1334517,22.7397217 26.3089563,22.3869013 25.7081232,21.68125 C25.1072902,20.9755987 24.8068781,20.0069804 24.8068781,18.7753662 L24.8068781,18.2756104 C24.8068781,17.4894736 24.9453858,16.796935 25.2224055,16.1979736 C25.4994251,15.5990123 25.8952951,15.1395036 26.4100275,14.8194336 C26.9247599,14.4993636 27.5227764,14.3393311 28.2040949,14.3393311 C29.147459,14.3393311 29.9073798,14.5920141 30.4838801,15.0973877 C31.0603804,15.6027613 31.3935476,16.3121455 31.4833918,17.2255615 L29.7988215,17.2255615 C29.7576429,16.6977269 29.6107124,16.3149589 29.3580256,16.0772461 C29.1053388,15.8395333 28.7206991,15.7206787 28.2040949,15.7206787 C27.6425687,15.7206787 27.2223662,15.9218893 26.9434748,16.3243164 C26.6645834,16.7267436 26.5213964,17.3509642 26.5139094,18.1969971 L26.5139094,18.8146729 C26.5139094,19.6981408 26.6477378,20.3438863 26.9153986,20.7519287 C27.1830595,21.1599711 27.6051337,21.3639893 28.181634,21.3639893 C28.7019816,21.3639893 29.0903648,21.2451347 29.3467951,21.0074219 C29.6032254,20.7697091 29.7501559,20.4019149 29.787591,19.9040283 L31.4721613,19.9040283 Z M39.9214555,18.7248291 C39.9214555,19.5296834 39.7792044,20.2353241 39.4946977,20.8417725 C39.2101911,21.4482208 38.8030907,21.9161523 38.2733842,22.2455811 C37.7436778,22.5750098 37.1363027,22.7397217 36.4512407,22.7397217 C35.7736657,22.7397217 35.1690982,22.5768815 34.63752,22.2511963 C34.1059418,21.9255111 33.6941621,21.4603871 33.4021684,20.8558106 C33.1101748,20.251234 32.9623084,19.5558877 32.9585649,18.769751 L32.9585649,18.3654541 C32.9585649,17.5605998 33.1036237,16.8521515 33.3937456,16.2400879 C33.6838675,15.6280243 34.0937755,15.158221 34.6234819,14.8306641 C35.1531883,14.5031071 35.7586917,14.3393311 36.4400102,14.3393311 C37.1213287,14.3393311 37.7268321,14.5031071 38.2565385,14.8306641 C38.786245,15.158221 39.196153,15.6280243 39.4862749,16.2400879 C39.7763968,16.8521515 39.9214555,17.5587281 39.9214555,18.3598389 L39.9214555,18.7248291 Z M38.2144243,18.3542236 C38.2144243,17.4969602 38.0609427,16.8455996 37.7539751,16.4001221 C37.4470074,15.9546446 37.0090235,15.7319092 36.4400102,15.7319092 C35.8747405,15.7319092 35.4386283,15.951837 35.1316606,16.3916992 C34.8246929,16.8315614 34.6693397,17.4763711 34.6655962,18.3261475 L34.6655962,18.7248291 C34.6655962,19.5596315 34.8190777,20.2072487 35.1260454,20.6677002 C35.4330131,21.1281517 35.8747404,21.358374 36.4512407,21.358374 C37.0165104,21.358374 37.4507509,21.1365745 37.7539751,20.6929688 C38.0571992,20.249363 38.2106808,19.6026817 38.2144243,18.7529053 L38.2144243,18.3542236 Z M43.9740212,14.4516357 L46.0741189,20.3813232 L48.1629861,14.4516357 L50.3753884,14.4516357 L50.3753884,22.627417 L48.6852029,22.627417 L48.6852029,20.3925537 L48.8536599,16.5348877 L46.6468728,22.627417 L45.4901345,22.627417 L43.2889626,16.5405029 L43.4574197,20.3925537 L43.4574197,22.627417 L41.7728494,22.627417 L41.7728494,14.4516357 L43.9740212,14.4516357 Z M54.2651123,22.627417 L52.580542,22.627417 L52.580542,14.4516357 L54.2651123,14.4516357 L54.2651123,22.627417 Z M63.1018577,22.627417 L61.4172874,22.627417 L58.1379905,17.2480225 L58.1379905,22.627417 L56.4534202,22.627417 L56.4534202,14.4516357 L58.1379905,14.4516357 L61.4229026,19.8422607 L61.4229026,14.4516357 L63.1018577,14.4516357 L63.1018577,22.627417 Z M71.6690718,21.5942139 C71.3658477,21.9573342 70.9372224,22.239029 70.3831832,22.4393066 C69.8291439,22.6395843 69.2152178,22.7397217 68.5413863,22.7397217 C67.8338632,22.7397217 67.213386,22.5853043 66.6799361,22.2764648 C66.1464861,21.9676254 65.7347064,21.519347 65.4445845,20.9316162 C65.1544626,20.3438854 65.0056604,19.6532185 64.9981734,18.8595947 L64.9981734,18.3036865 C64.9981734,17.4876017 65.1357453,16.7810251 65.4108931,16.1839356 C65.686041,15.586846 66.0828469,15.1301448 66.6013228,14.8138184 C67.1197987,14.4974919 67.7271738,14.3393311 68.4234664,14.3393311 C69.393035,14.3393311 70.1510841,14.5704892 70.6976363,15.0328125 C71.2441885,15.4951358 71.5679971,16.1680213 71.6690718,17.0514893 L70.0294234,17.0514893 C69.9545532,16.5835507 69.7889055,16.2410249 69.5324751,16.0239014 C69.2760448,15.8067779 68.9232245,15.6982178 68.4740035,15.6982178 C67.9012467,15.6982178 67.4651345,15.9134663 67.1656539,16.3439697 C66.8661732,16.7744732 66.7145634,17.4146035 66.7108199,18.2643799 L66.7108199,18.7865967 C66.7108199,19.6438601 66.87366,20.2914773 67.1993453,20.7294678 C67.5250305,21.1674583 68.0023206,21.3864502 68.63123,21.3864502 C69.2638829,21.3864502 69.7149689,21.2516859 69.9845015,20.9821533 L69.9845015,19.5727295 L68.4515425,19.5727295 L68.4515425,18.3317627 L71.6690718,18.3317627 L71.6690718,21.5942139 Z M36.7935519,34.4823975 C36.7935519,34.1641993 36.6812483,33.919939 36.4566378,33.7496094 C36.2320273,33.5792798 35.8277345,33.399594 35.2437472,33.2105469 C34.6597599,33.0214997 34.1974435,32.835263 33.8567843,32.6518311 C32.9283942,32.1502009 32.4642062,31.4745078 32.4642062,30.6247315 C32.4642062,30.1829975 32.5886759,29.7889991 32.8376192,29.4427246 C33.0865625,29.0964501 33.4440622,28.8259857 33.910129,28.6313232 C34.3761958,28.4366608 34.8993432,28.3393311 35.479587,28.3393311 C36.0635743,28.3393311 36.5839142,28.4450836 37.0406222,28.6565918 C37.4973302,28.8681 37.8520223,29.1666403 38.1047091,29.5522217 C38.3573959,29.937803 38.4837374,30.3757869 38.4837374,30.8661865 L36.7991671,30.8661865 C36.7991671,30.4918357 36.6812484,30.2007823 36.4454073,29.9930176 C36.2095663,29.7852529 35.8782708,29.6813721 35.4515108,29.6813721 C35.0397249,29.6813721 34.7196598,29.7684073 34.4913058,29.9424805 C34.2629518,30.1165536 34.1487765,30.3458401 34.1487765,30.6303467 C34.1487765,30.8961358 34.2826049,31.1188712 34.5502657,31.2985596 C34.8179266,31.478248 35.2119249,31.6467033 35.7322726,31.8039307 C36.6906107,32.0921808 37.3887645,32.4496805 37.826755,32.8764404 C38.2647455,33.3032004 38.4837374,33.8347706 38.4837374,34.471167 C38.4837374,35.1786901 38.2160806,35.7336568 37.6807589,36.136084 C37.1454372,36.5385111 36.4248227,36.7397217 35.5188937,36.7397217 C34.8899843,36.7397217 34.3172361,36.6246105 33.8006319,36.3943848 C33.2840278,36.164159 32.8900295,35.8487732 32.6186251,35.4482178 C32.3472208,35.0476624 32.2115206,34.5834743 32.2115206,34.0556397 L33.9017062,34.0556397 C33.9017062,34.9578252 34.4407633,35.4089111 35.5188937,35.4089111 C35.919449,35.4089111 36.2320273,35.3274911 36.4566378,35.1646484 C36.6812483,35.0018058 36.7935519,34.7743911 36.7935519,34.4823975 Z M46.966723,32.7248291 C46.966723,33.5296834 46.8244718,34.2353241 46.5399652,34.8417725 C46.2554586,35.4482208 45.8483582,35.9161523 45.3186517,36.2455811 C44.7889453,36.5750098 44.1815702,36.7397217 43.4965082,36.7397217 C42.8189332,36.7397217 42.2143657,36.5768815 41.6827875,36.2511963 C41.1512093,35.9255111 40.7394296,35.4603871 40.4474359,34.8558106 C40.1554423,34.251234 40.0075759,33.5558877 40.0038324,32.769751 L40.0038324,32.3654541 C40.0038324,31.5605998 40.1488912,30.8521515 40.4390131,30.2400879 C40.729135,29.6280243 41.139043,29.158221 41.6687494,28.8306641 C42.1984558,28.5031071 42.8039592,28.3393311 43.4852777,28.3393311 C44.1665962,28.3393311 44.7720996,28.5031071 45.301806,28.8306641 C45.8315125,29.158221 46.2414205,29.6280243 46.5315424,30.2400879 C46.8216643,30.8521515 46.966723,31.5587281 46.966723,32.3598389 L46.966723,32.7248291 Z M45.2596918,32.3542236 C45.2596918,31.4969602 45.1062102,30.8455996 44.7992426,30.4001221 C44.4922749,29.9546446 44.054291,29.7319092 43.4852777,29.7319092 C42.920008,29.7319092 42.4838958,29.951837 42.1769281,30.3916992 C41.8699604,30.8315614 41.7146072,31.4763711 41.7108636,32.3261475 L41.7108636,32.7248291 C41.7108636,33.5596315 41.8643452,34.2072487 42.1713129,34.6677002 C42.4782805,35.1281517 42.9200079,35.358374 43.4965082,35.358374 C44.0617779,35.358374 44.4960184,35.1365745 44.7992426,34.6929688 C45.1024667,34.249363 45.2559483,33.6026817 45.2596918,32.7529053 L45.2596918,32.3542236 Z M55.5339372,32.7248291 C55.5339372,33.5296834 55.391686,34.2353241 55.1071793,34.8417725 C54.8226727,35.4482208 54.4155723,35.9161523 53.8858659,36.2455811 C53.3561594,36.5750098 52.7487843,36.7397217 52.0637223,36.7397217 C51.3861473,36.7397217 50.7815798,36.5768815 50.2500016,36.2511963 C49.7184234,35.9255111 49.3066437,35.4603871 49.01465,34.8558106 C48.7226564,34.251234 48.57479,33.5558877 48.5710465,32.769751 L48.5710465,32.3654541 C48.5710465,31.5605998 48.7161053,30.8521515 49.0062272,30.2400879 C49.2963491,29.6280243 49.7062571,29.158221 50.2359635,28.8306641 C50.7656699,28.5031071 51.3711733,28.3393311 52.0524918,28.3393311 C52.7338104,28.3393311 53.3393137,28.5031071 53.8690202,28.8306641 C54.3987266,29.158221 54.8086346,29.6280243 55.0987565,30.2400879 C55.3888784,30.8521515 55.5339372,31.5587281 55.5339372,32.3598389 L55.5339372,32.7248291 Z M53.8269059,32.3542236 C53.8269059,31.4969602 53.6734244,30.8455996 53.3664567,30.4001221 C53.059489,29.9546446 52.6215051,29.7319092 52.0524918,29.7319092 C51.4872221,29.7319092 51.0511099,29.951837 50.7441422,30.3916992 C50.4371746,30.8315614 50.2818213,31.4763711 50.2780778,32.3261475 L50.2780778,32.7248291 C50.2780778,33.5596315 50.4315593,34.2072487 50.738527,34.6677002 C51.0454947,35.1281517 51.487222,35.358374 52.0637223,35.358374 C52.6289921,35.358374 53.0632325,35.1365745 53.3664567,34.6929688 C53.6696809,34.249363 53.8231624,33.6026817 53.8269059,32.7529053 L53.8269059,32.3542236 Z M64.0337685,36.627417 L62.3491982,36.627417 L59.0699013,31.2480225 L59.0699013,36.627417 L57.385331,36.627417 L57.385331,28.4516357 L59.0699013,28.4516357 L62.3548134,33.8422607 L62.3548134,28.4516357 L64.0337685,28.4516357 L64.0337685,36.627417 Z" transform="rotate(45 48.238 25.54)"/>
      </g>
    </g>
  </g>
</svg>
