<svg xmlns="http://www.w3.org/2000/svg" width="48" height="48" viewBox="0 0 48 48">
  <g fill="none" transform="translate(2 2)">
    <polygon fill="#F69A98" points="31 16.17 27.83 13 22 18.83 16.17 13 13 16.17 18.83 22 13 27.83 16.17 31 22 25.17 27.83 31 31 27.83 25.17 22" transform="rotate(45 22 22)"/>
    <path fill="#E5E5E5" d="M22,41.423 C32.7270267,41.423 41.423,32.7270267 41.423,22 C41.423,11.2729733 32.7270267,2.577 22,2.577 C11.2729733,2.577 2.577,11.2729733 2.577,22 C2.577,32.7270267 11.2729733,41.423 22,41.423 Z M22,43.808 C9.95577418,43.808 0.192,34.0442258 0.192,22 C0.192,9.95577418 9.95577418,0.192 22,0.192 C34.0442258,0.192 43.808,9.95577418 43.808,22 C43.808,34.0442258 34.0442258,43.808 22,43.808 Z"/>
  </g>
</svg>
