<svg xmlns="http://www.w3.org/2000/svg" width="77" height="77" viewBox="0 0 77 77">
  <g fill="none" fill-rule="evenodd" transform="translate(6 5)">
    <path fill="#FEBBBA" fill-rule="nonzero" d="M8.2862033,21.1124928 L5.07103873,24.3138824 L4.52178375,23.7641265 L7.73694833,20.5649448 L8.2862033,21.1124928 Z M13.8740828,30.9617333 L14.7638556,30.9617333 L14.7638556,22.7490652 L13.8740828,22.7490652 L13.8740828,30.9617333 Z M24.2899745,24.0539074 L20.7860493,20.5649448 L20.2362401,21.1124928 L23.7401653,24.6014554 L24.2899745,24.0539074 Z M7.66046277,28.943202 L8.36490583,29.2589252 L11.2187039,22.9036151 L10.5142608,22.5917556 L7.66046277,28.943202 Z M17.3081735,22.9036151 L20.1597545,29.2589252 L20.8647518,28.943202 L18.0109538,22.5917556 L17.3081735,22.9036151 Z"/>
    <path fill="#FBCFCE" d="M11.2541754,5.29080826 C11.2541754,5.70809283 11.3179134,6.11930579 11.449269,6.5222393 C13.3536485,6.18222965 15.1898561,6.18222965 17.0759456,6.5222393 C17.2073012,6.11930579 17.2727019,5.70809283 17.2727019,5.29080826 L17.2727019,3.26510144 C17.2727019,1.53138342 16.2351587,0.123323997 14.9615079,0.123323997 L13.5675864,0.123323997 C12.2867304,0.123323997 11.2541754,1.53138342 11.2541754,3.26510144 L11.2541754,5.29080826 L11.2541754,5.29080826 Z"/>
    <path fill="#FEBBBA" d="M19.9363945,16.6134366 L8.58438612,16.6134366 C9.52992495,18.9239567 11.7358127,20.4540001 14.26427,20.4540001 C16.7849679,20.4540001 18.9952896,18.9234048 19.9363945,16.6134366 Z"/>
    <path fill="#F1F1F1" d="M17.2533034,6.48103877 C15.235304,6.07368955 13.2965615,6.07368955 11.2741282,6.48103877 C6.18506748,7.48616469 1.91129847,11.0463306 0.00691897093,15.8406874 L28.5199583,15.8406874 C26.6161331,11.0463306 22.3440268,7.48616469 17.2533034,6.48103877 Z"/>
    <g transform="translate(43 1)">
      <rect width="1.868" height="5.066" x="8.353" y="17.535" fill="#FBCFCE"/>
      <polygon fill="#FEBBBA" points="4.655 30.227 6.693 21.666 11.895 21.666 13.933 30.227"/>
      <polygon stroke="#F1F1F1" stroke-width=".68" points="10.651 7.964 14.451 4.062"/>
      <polygon stroke="#F1F1F1" stroke-width=".68" points="13.288 10.479 14.555 4.062"/>
      <polygon stroke="#F1F1F1" stroke-width=".68" points="8.384 5.365 14.303 4.062"/>
      <path fill="#F1F1F1" d="M3.2488968,0 C-0.945896509,4.30926748 -0.945017558,11.297891 3.25109418,15.6076098 C7.44588749,19.9168773 14.2476493,19.9168773 18.4442005,15.6076098 L3.2488968,0 L3.2488968,0 Z"/>
      <path fill="#FEBBBA" stroke="#FEBBBA" stroke-width=".68" d="M14.5606656,2.20891153 C15.0836414,1.67087374 15.9349053,1.67087374 16.4591996,2.20981428 C16.9830543,2.74875482 16.9830543,3.62216349 16.4600785,4.16020129 C15.9349053,4.69869046 15.0845203,4.69869046 14.5606656,4.16020129 C14.0354924,3.62261487 14.0350529,2.74875482 14.5606656,2.20891153 L14.5606656,2.20891153 Z"/>
    </g>
    <g transform="translate(24 40)">
      <g transform="translate(.04)">
        <path fill="#F1F1F1" d="M0.859123753,1.1793308 C0.859123753,0.528004386 1.37977874,-8.15409043e-13 2.0241878,-8.15409043e-13 L15.8940597,-8.15409043e-13 C16.5375068,-8.15409043e-13 17.0591238,0.516994088 17.0591238,1.1793308 L17.0591238,24.7022349 C17.0591238,25.3535614 16.5384688,25.8815657 15.8940597,25.8815657 L2.0241878,25.8815657 C1.3807407,25.8815657 0.859123753,25.3645717 0.859123753,24.7022349 L0.859123753,1.1793308 Z"/>
        <path fill="#FEBBBA" d="M8.96814574,25.3459617 C9.51987821,25.3459617 9.96714575,24.9173832 9.96714575,24.3887048 C9.96714575,23.8600263 9.51987821,23.4314478 8.96814574,23.4314478 C8.41641327,23.4314478 7.96914573,23.8600263 7.96914573,24.3887048 C7.96914573,24.9173832 8.41641327,25.3459617 8.96814574,25.3459617 Z" opacity=".5"/>
        <path fill="#FBCFCE" d="M2.20912375,3.59341303 C2.20912375,3.33007725 2.42117652,3.11660142 2.67382431,3.11660142 L15.2444232,3.11660142 C15.5010702,3.11660142 15.7091238,3.33322694 15.7091238,3.59341303 L15.7091238,21.9288796 C15.7091238,22.1922154 15.497071,22.4056913 15.2444232,22.4056913 L2.67382431,22.4056913 C2.41717728,22.4056913 2.20912375,22.1890657 2.20912375,21.9288796 L2.20912375,3.59341303 Z"/>
        <g transform="translate(4.64 1.287)">
          <path fill="#F69A98"/>
          <path fill="#AAA" d="M6.30346352,0.00151349937 C6.27156938,0.000523806853 6.23829848,0 6.20409319,0 C6.1698879,0 6.136617,0.000523806853 6.10472286,0.00151349937 C6.07282871,0.000523806853 6.03955781,0 6.00535252,0 C5.97114724,0 5.93787634,0.000523806853 5.90598219,0.00151349937 C5.87408804,0.000523806853 5.84081714,0 5.80661186,0 C5.77240657,0 5.73913567,0.000523806853 5.70724152,0.00151349937 C5.67534738,0.000523806853 5.64207647,0 5.60787119,0 C5.5736659,0 5.540395,0.000523806853 5.50850085,0.00151349937 C5.47660671,0.000523806853 5.44333581,0 5.40913052,0 C5.37492524,0 5.34165433,0.000523806853 5.30976019,0.00151349937 C5.27786604,0.000523806853 5.24459514,0 5.21038985,0 C5.17618457,0 5.14291367,0.000523806853 5.11101952,0.00151349937 C5.07912537,0.000523806853 5.04585447,0 5.01164919,0 C4.9774439,0 4.944173,0.000523806853 4.91227885,0.00151349937 C4.88038471,0.000523806853 4.8471138,0 4.81290852,0 C4.77870323,0 4.74543233,0.000523806853 4.71353818,0.00151349937 C4.68164404,0.000523806853 4.64837314,0 4.61416785,0 C4.57996257,0 4.54669166,0.000523806853 4.51479752,0.00151349937 C4.48290337,0.000523806853 4.44963247,0 4.41542718,0 C4.3812219,0 4.347951,0.000523806853 4.31605685,0.00151349937 C4.2841627,0.000523806853 4.2508918,0 4.21668652,0 C4.18248123,0 4.14921033,0.000523806853 4.11731618,0.00151349937 C4.08542204,0.000523806853 4.05215113,0 4.01794585,0 C3.98374056,0 3.95046966,0.000523806853 3.91857551,0.00151349937 C3.88668137,0.000523806853 3.85341047,0 3.81920518,0 C3.7849999,0 3.75172899,0.000523806853 3.71983485,0.00151349937 C3.6879407,0.000523806853 3.6546698,0 3.62046451,0 C3.58625923,0 3.55298833,0.000523806853 3.52109418,0.00151349937 C3.48920003,0.000523806853 3.45592913,0 3.42172385,0 C3.38751856,0 3.35424766,0.000523806853 3.32235351,0.00151349937 C3.29045937,0.000523806853 3.25718846,0 3.22298318,0 C3.18877789,0 3.15550699,0.000523806853 3.12361285,0.00151349937 C3.0917187,0.000523806853 3.0584478,0 3.02424251,0 C2.99003723,0 2.95676632,0.000523806853 2.92487218,0.00151349937 C2.89297803,0.000523806853 2.85970713,0 2.82550184,0 C2.79129656,0 2.75802566,0.000523806853 2.72613151,0.00151349937 C2.69423736,0.000523806853 2.66096646,0 2.62676118,0 C2.59255589,0 2.55928499,0.000523806853 2.52739084,0.00151349937 C2.4954967,0.000523806853 2.46222579,0 2.42802051,0 C2.39381522,0 2.36054432,0.000523806853 2.32865018,0.00151349937 C2.29675603,0.000523806853 2.26348513,0 2.22927984,0 C1.99219512,0 1.8,0.025164707 1.8,0.0562069497 C1.8,0.0872491924 1.99219512,0.112413899 2.22927984,0.112413899 C2.26348513,0.112413899 2.29675603,0.111890093 2.32865018,0.1109004 C2.36054432,0.111890093 2.39381522,0.112413899 2.42802051,0.112413899 C2.46222579,0.112413899 2.4954967,0.111890093 2.52739084,0.1109004 C2.55928499,0.111890093 2.59255589,0.112413899 2.62676118,0.112413899 C2.66096646,0.112413899 2.69423736,0.111890093 2.72613151,0.1109004 C2.75802566,0.111890093 2.79129656,0.112413899 2.82550184,0.112413899 C2.85970713,0.112413899 2.89297803,0.111890093 2.92487218,0.1109004 C2.95676632,0.111890093 2.99003723,0.112413899 3.02424251,0.112413899 C3.0584478,0.112413899 3.0917187,0.111890093 3.12361285,0.1109004 C3.15550699,0.111890093 3.18877789,0.112413899 3.22298318,0.112413899 C3.25718846,0.112413899 3.29045937,0.111890093 3.32235351,0.1109004 C3.35424766,0.111890093 3.38751856,0.112413899 3.42172385,0.112413899 C3.45592913,0.112413899 3.48920003,0.111890093 3.52109418,0.1109004 C3.55298833,0.111890093 3.58625923,0.112413899 3.62046451,0.112413899 C3.6546698,0.112413899 3.6879407,0.111890093 3.71983485,0.1109004 C3.75172899,0.111890093 3.7849999,0.112413899 3.81920518,0.112413899 C3.85341047,0.112413899 3.88668137,0.111890093 3.91857551,0.1109004 C3.95046966,0.111890093 3.98374056,0.112413899 4.01794585,0.112413899 C4.05215113,0.112413899 4.08542204,0.111890093 4.11731618,0.1109004 C4.14921033,0.111890093 4.18248123,0.112413899 4.21668652,0.112413899 C4.2508918,0.112413899 4.2841627,0.111890093 4.31605685,0.1109004 C4.347951,0.111890093 4.3812219,0.112413899 4.41542718,0.112413899 C4.44963247,0.112413899 4.48290337,0.111890093 4.51479752,0.1109004 C4.54669166,0.111890093 4.57996257,0.112413899 4.61416785,0.112413899 C4.64837314,0.112413899 4.68164404,0.111890093 4.71353818,0.1109004 C4.74543233,0.111890093 4.77870323,0.112413899 4.81290852,0.112413899 C4.8471138,0.112413899 4.88038471,0.111890093 4.91227885,0.1109004 C4.944173,0.111890093 4.9774439,0.112413899 5.01164919,0.112413899 C5.04585447,0.112413899 5.07912537,0.111890093 5.11101952,0.1109004 C5.14291367,0.111890093 5.17618457,0.112413899 5.21038985,0.112413899 C5.24459514,0.112413899 5.27786604,0.111890093 5.30976019,0.1109004 C5.34165433,0.111890093 5.37492524,0.112413899 5.40913052,0.112413899 C5.44333581,0.112413899 5.47660671,0.111890093 5.50850085,0.1109004 C5.540395,0.111890093 5.5736659,0.112413899 5.60787119,0.112413899 C5.64207647,0.112413899 5.67534738,0.111890093 5.70724152,0.1109004 C5.73913567,0.111890093 5.77240657,0.112413899 5.80661186,0.112413899 C5.84081714,0.112413899 5.87408804,0.111890093 5.90598219,0.1109004 C5.93787634,0.111890093 5.97114724,0.112413899 6.00535252,0.112413899 C6.03955781,0.112413899 6.07282871,0.111890093 6.10472286,0.1109004 C6.136617,0.111890093 6.1698879,0.112413899 6.20409319,0.112413899 C6.23829848,0.112413899 6.27156938,0.111890093 6.30346352,0.1109004 C6.33535767,0.111890093 6.36862857,0.112413899 6.40283386,0.112413899 C6.63991858,0.112413899 6.8321137,0.0872491924 6.8321137,0.0562069497 C6.8321137,0.025164707 6.63991858,0 6.40283386,0 C6.36862857,0 6.33535767,0.000523806853 6.30346352,0.00151349937 Z M6.30346352,0.188869998 C6.27156938,0.187880306 6.23829848,0.187356499 6.20409319,0.187356499 C6.1698879,0.187356499 6.136617,0.187880306 6.10472286,0.188869998 C6.07282871,0.187880306 6.03955781,0.187356499 6.00535252,0.187356499 C5.97114724,0.187356499 5.93787634,0.187880306 5.90598219,0.188869998 C5.87408804,0.187880306 5.84081714,0.187356499 5.80661186,0.187356499 C5.77240657,0.187356499 5.73913567,0.187880306 5.70724152,0.188869998 C5.67534738,0.187880306 5.64207647,0.187356499 5.60787119,0.187356499 C5.5736659,0.187356499 5.540395,0.187880306 5.50850085,0.188869998 C5.47660671,0.187880306 5.44333581,0.187356499 5.40913052,0.187356499 C5.37492524,0.187356499 5.34165433,0.187880306 5.30976019,0.188869998 C5.27786604,0.187880306 5.24459514,0.187356499 5.21038985,0.187356499 C5.17618457,0.187356499 5.14291367,0.187880306 5.11101952,0.188869998 C5.07912537,0.187880306 5.04585447,0.187356499 5.01164919,0.187356499 C4.9774439,0.187356499 4.944173,0.187880306 4.91227885,0.188869998 C4.88038471,0.187880306 4.8471138,0.187356499 4.81290852,0.187356499 C4.77870323,0.187356499 4.74543233,0.187880306 4.71353818,0.188869998 C4.68164404,0.187880306 4.64837314,0.187356499 4.61416785,0.187356499 C4.57996257,0.187356499 4.54669166,0.187880306 4.51479752,0.188869998 C4.48290337,0.187880306 4.44963247,0.187356499 4.41542718,0.187356499 C4.3812219,0.187356499 4.347951,0.187880306 4.31605685,0.188869998 C4.2841627,0.187880306 4.2508918,0.187356499 4.21668652,0.187356499 C4.18248123,0.187356499 4.14921033,0.187880306 4.11731618,0.188869998 C4.08542204,0.187880306 4.05215113,0.187356499 4.01794585,0.187356499 C3.98374056,0.187356499 3.95046966,0.187880306 3.91857551,0.188869998 C3.88668137,0.187880306 3.85341047,0.187356499 3.81920518,0.187356499 C3.7849999,0.187356499 3.75172899,0.187880306 3.71983485,0.188869998 C3.6879407,0.187880306 3.6546698,0.187356499 3.62046451,0.187356499 C3.58625923,0.187356499 3.55298833,0.187880306 3.52109418,0.188869998 C3.48920003,0.187880306 3.45592913,0.187356499 3.42172385,0.187356499 C3.38751856,0.187356499 3.35424766,0.187880306 3.32235351,0.188869998 C3.29045937,0.187880306 3.25718846,0.187356499 3.22298318,0.187356499 C3.18877789,0.187356499 3.15550699,0.187880306 3.12361285,0.188869998 C3.0917187,0.187880306 3.0584478,0.187356499 3.02424251,0.187356499 C2.99003723,0.187356499 2.95676632,0.187880306 2.92487218,0.188869998 C2.89297803,0.187880306 2.85970713,0.187356499 2.82550184,0.187356499 C2.79129656,0.187356499 2.75802566,0.187880306 2.72613151,0.188869998 C2.69423736,0.187880306 2.66096646,0.187356499 2.62676118,0.187356499 C2.59255589,0.187356499 2.55928499,0.187880306 2.52739084,0.188869998 C2.4954967,0.187880306 2.46222579,0.187356499 2.42802051,0.187356499 C2.39381522,0.187356499 2.36054432,0.187880306 2.32865018,0.188869998 C2.29675603,0.187880306 2.26348513,0.187356499 2.22927984,0.187356499 C1.99219512,0.187356499 1.8,0.212521206 1.8,0.243563449 C1.8,0.274605691 1.99219512,0.299770398 2.22927984,0.299770398 C2.26348513,0.299770398 2.29675603,0.299246592 2.32865018,0.298256899 C2.36054432,0.299246592 2.39381522,0.299770398 2.42802051,0.299770398 C2.46222579,0.299770398 2.4954967,0.299246592 2.52739084,0.298256899 C2.55928499,0.299246592 2.59255589,0.299770398 2.62676118,0.299770398 C2.66096646,0.299770398 2.69423736,0.299246592 2.72613151,0.298256899 C2.75802566,0.299246592 2.79129656,0.299770398 2.82550184,0.299770398 C2.85970713,0.299770398 2.89297803,0.299246592 2.92487218,0.298256899 C2.95676632,0.299246592 2.99003723,0.299770398 3.02424251,0.299770398 C3.0584478,0.299770398 3.0917187,0.299246592 3.12361285,0.298256899 C3.15550699,0.299246592 3.18877789,0.299770398 3.22298318,0.299770398 C3.25718846,0.299770398 3.29045937,0.299246592 3.32235351,0.298256899 C3.35424766,0.299246592 3.38751856,0.299770398 3.42172385,0.299770398 C3.45592913,0.299770398 3.48920003,0.299246592 3.52109418,0.298256899 C3.55298833,0.299246592 3.58625923,0.299770398 3.62046451,0.299770398 C3.6546698,0.299770398 3.6879407,0.299246592 3.71983485,0.298256899 C3.75172899,0.299246592 3.7849999,0.299770398 3.81920518,0.299770398 C3.85341047,0.299770398 3.88668137,0.299246592 3.91857551,0.298256899 C3.95046966,0.299246592 3.98374056,0.299770398 4.01794585,0.299770398 C4.05215113,0.299770398 4.08542204,0.299246592 4.11731618,0.298256899 C4.14921033,0.299246592 4.18248123,0.299770398 4.21668652,0.299770398 C4.2508918,0.299770398 4.2841627,0.299246592 4.31605685,0.298256899 C4.347951,0.299246592 4.3812219,0.299770398 4.41542718,0.299770398 C4.44963247,0.299770398 4.48290337,0.299246592 4.51479752,0.298256899 C4.54669166,0.299246592 4.57996257,0.299770398 4.61416785,0.299770398 C4.64837314,0.299770398 4.68164404,0.299246592 4.71353818,0.298256899 C4.74543233,0.299246592 4.77870323,0.299770398 4.81290852,0.299770398 C4.8471138,0.299770398 4.88038471,0.299246592 4.91227885,0.298256899 C4.944173,0.299246592 4.9774439,0.299770398 5.01164919,0.299770398 C5.04585447,0.299770398 5.07912537,0.299246592 5.11101952,0.298256899 C5.14291367,0.299246592 5.17618457,0.299770398 5.21038985,0.299770398 C5.24459514,0.299770398 5.27786604,0.299246592 5.30976019,0.298256899 C5.34165433,0.299246592 5.37492524,0.299770398 5.40913052,0.299770398 C5.44333581,0.299770398 5.47660671,0.299246592 5.50850085,0.298256899 C5.540395,0.299246592 5.5736659,0.299770398 5.60787119,0.299770398 C5.64207647,0.299770398 5.67534738,0.299246592 5.70724152,0.298256899 C5.73913567,0.299246592 5.77240657,0.299770398 5.80661186,0.299770398 C5.84081714,0.299770398 5.87408804,0.299246592 5.90598219,0.298256899 C5.93787634,0.299246592 5.97114724,0.299770398 6.00535252,0.299770398 C6.03955781,0.299770398 6.07282871,0.299246592 6.10472286,0.298256899 C6.136617,0.299246592 6.1698879,0.299770398 6.20409319,0.299770398 C6.23829848,0.299770398 6.27156938,0.299246592 6.30346352,0.298256899 C6.33535767,0.299246592 6.36862857,0.299770398 6.40283386,0.299770398 C6.63991858,0.299770398 6.8321137,0.274605691 6.8321137,0.243563449 C6.8321137,0.212521206 6.63991858,0.187356499 6.40283386,0.187356499 C6.36862857,0.187356499 6.33535767,0.187880306 6.30346352,0.188869998 Z M6.30346352,0.376226497 C6.27156938,0.375236805 6.23829848,0.374712998 6.20409319,0.374712998 C6.1698879,0.374712998 6.136617,0.375236805 6.10472286,0.376226497 C6.07282871,0.375236805 6.03955781,0.374712998 6.00535252,0.374712998 C5.97114724,0.374712998 5.93787634,0.375236805 5.90598219,0.376226497 C5.87408804,0.375236805 5.84081714,0.374712998 5.80661186,0.374712998 C5.77240657,0.374712998 5.73913567,0.375236805 5.70724152,0.376226497 C5.67534738,0.375236805 5.64207647,0.374712998 5.60787119,0.374712998 C5.5736659,0.374712998 5.540395,0.375236805 5.50850085,0.376226497 C5.47660671,0.375236805 5.44333581,0.374712998 5.40913052,0.374712998 C5.37492524,0.374712998 5.34165433,0.375236805 5.30976019,0.376226497 C5.27786604,0.375236805 5.24459514,0.374712998 5.21038985,0.374712998 C5.17618457,0.374712998 5.14291367,0.375236805 5.11101952,0.376226497 C5.07912537,0.375236805 5.04585447,0.374712998 5.01164919,0.374712998 C4.9774439,0.374712998 4.944173,0.375236805 4.91227885,0.376226497 C4.88038471,0.375236805 4.8471138,0.374712998 4.81290852,0.374712998 C4.77870323,0.374712998 4.74543233,0.375236805 4.71353818,0.376226497 C4.68164404,0.375236805 4.64837314,0.374712998 4.61416785,0.374712998 C4.57996257,0.374712998 4.54669166,0.375236805 4.51479752,0.376226497 C4.48290337,0.375236805 4.44963247,0.374712998 4.41542718,0.374712998 C4.3812219,0.374712998 4.347951,0.375236805 4.31605685,0.376226497 C4.2841627,0.375236805 4.2508918,0.374712998 4.21668652,0.374712998 C4.18248123,0.374712998 4.14921033,0.375236805 4.11731618,0.376226497 C4.08542204,0.375236805 4.05215113,0.374712998 4.01794585,0.374712998 C3.98374056,0.374712998 3.95046966,0.375236805 3.91857551,0.376226497 C3.88668137,0.375236805 3.85341047,0.374712998 3.81920518,0.374712998 C3.7849999,0.374712998 3.75172899,0.375236805 3.71983485,0.376226497 C3.6879407,0.375236805 3.6546698,0.374712998 3.62046451,0.374712998 C3.58625923,0.374712998 3.55298833,0.375236805 3.52109418,0.376226497 C3.48920003,0.375236805 3.45592913,0.374712998 3.42172385,0.374712998 C3.38751856,0.374712998 3.35424766,0.375236805 3.32235351,0.376226497 C3.29045937,0.375236805 3.25718846,0.374712998 3.22298318,0.374712998 C3.18877789,0.374712998 3.15550699,0.375236805 3.12361285,0.376226497 C3.0917187,0.375236805 3.0584478,0.374712998 3.02424251,0.374712998 C2.99003723,0.374712998 2.95676632,0.375236805 2.92487218,0.376226497 C2.89297803,0.375236805 2.85970713,0.374712998 2.82550184,0.374712998 C2.79129656,0.374712998 2.75802566,0.375236805 2.72613151,0.376226497 C2.69423736,0.375236805 2.66096646,0.374712998 2.62676118,0.374712998 C2.59255589,0.374712998 2.55928499,0.375236805 2.52739084,0.376226497 C2.4954967,0.375236805 2.46222579,0.374712998 2.42802051,0.374712998 C2.39381522,0.374712998 2.36054432,0.375236805 2.32865018,0.376226497 C2.29675603,0.375236805 2.26348513,0.374712998 2.22927984,0.374712998 C1.99219512,0.374712998 1.8,0.399877705 1.8,0.430919948 C1.8,0.46196219 1.99219512,0.487126897 2.22927984,0.487126897 C2.26348513,0.487126897 2.29675603,0.486603091 2.32865018,0.485613398 C2.36054432,0.486603091 2.39381522,0.487126897 2.42802051,0.487126897 C2.46222579,0.487126897 2.4954967,0.486603091 2.52739084,0.485613398 C2.55928499,0.486603091 2.59255589,0.487126897 2.62676118,0.487126897 C2.66096646,0.487126897 2.69423736,0.486603091 2.72613151,0.485613398 C2.75802566,0.486603091 2.79129656,0.487126897 2.82550184,0.487126897 C2.85970713,0.487126897 2.89297803,0.486603091 2.92487218,0.485613398 C2.95676632,0.486603091 2.99003723,0.487126897 3.02424251,0.487126897 C3.0584478,0.487126897 3.0917187,0.486603091 3.12361285,0.485613398 C3.15550699,0.486603091 3.18877789,0.487126897 3.22298318,0.487126897 C3.25718846,0.487126897 3.29045937,0.486603091 3.32235351,0.485613398 C3.35424766,0.486603091 3.38751856,0.487126897 3.42172385,0.487126897 C3.45592913,0.487126897 3.48920003,0.486603091 3.52109418,0.485613398 C3.55298833,0.486603091 3.58625923,0.487126897 3.62046451,0.487126897 C3.6546698,0.487126897 3.6879407,0.486603091 3.71983485,0.485613398 C3.75172899,0.486603091 3.7849999,0.487126897 3.81920518,0.487126897 C3.85341047,0.487126897 3.88668137,0.486603091 3.91857551,0.485613398 C3.95046966,0.486603091 3.98374056,0.487126897 4.01794585,0.487126897 C4.05215113,0.487126897 4.08542204,0.486603091 4.11731618,0.485613398 C4.14921033,0.486603091 4.18248123,0.487126897 4.21668652,0.487126897 C4.2508918,0.487126897 4.2841627,0.486603091 4.31605685,0.485613398 C4.347951,0.486603091 4.3812219,0.487126897 4.41542718,0.487126897 C4.44963247,0.487126897 4.48290337,0.486603091 4.51479752,0.485613398 C4.54669166,0.486603091 4.57996257,0.487126897 4.61416785,0.487126897 C4.64837314,0.487126897 4.68164404,0.486603091 4.71353818,0.485613398 C4.74543233,0.486603091 4.77870323,0.487126897 4.81290852,0.487126897 C4.8471138,0.487126897 4.88038471,0.486603091 4.91227885,0.485613398 C4.944173,0.486603091 4.9774439,0.487126897 5.01164919,0.487126897 C5.04585447,0.487126897 5.07912537,0.486603091 5.11101952,0.485613398 C5.14291367,0.486603091 5.17618457,0.487126897 5.21038985,0.487126897 C5.24459514,0.487126897 5.27786604,0.486603091 5.30976019,0.485613398 C5.34165433,0.486603091 5.37492524,0.487126897 5.40913052,0.487126897 C5.44333581,0.487126897 5.47660671,0.486603091 5.50850085,0.485613398 C5.540395,0.486603091 5.5736659,0.487126897 5.60787119,0.487126897 C5.64207647,0.487126897 5.67534738,0.486603091 5.70724152,0.485613398 C5.73913567,0.486603091 5.77240657,0.487126897 5.80661186,0.487126897 C5.84081714,0.487126897 5.87408804,0.486603091 5.90598219,0.485613398 C5.93787634,0.486603091 5.97114724,0.487126897 6.00535252,0.487126897 C6.03955781,0.487126897 6.07282871,0.486603091 6.10472286,0.485613398 C6.136617,0.486603091 6.1698879,0.487126897 6.20409319,0.487126897 C6.23829848,0.487126897 6.27156938,0.486603091 6.30346352,0.485613398 C6.33535767,0.486603091 6.36862857,0.487126897 6.40283386,0.487126897 C6.63991858,0.487126897 6.8321137,0.46196219 6.8321137,0.430919948 C6.8321137,0.399877705 6.63991858,0.374712998 6.40283386,0.374712998 C6.36862857,0.374712998 6.33535767,0.375236805 6.30346352,0.376226497 Z M6.30346352,0.563582996 C6.27156938,0.562593304 6.23829848,0.562069497 6.20409319,0.562069497 C6.1698879,0.562069497 6.136617,0.562593304 6.10472286,0.563582996 C6.07282871,0.562593304 6.03955781,0.562069497 6.00535252,0.562069497 C5.97114724,0.562069497 5.93787634,0.562593304 5.90598219,0.563582996 C5.87408804,0.562593304 5.84081714,0.562069497 5.80661186,0.562069497 C5.77240657,0.562069497 5.73913567,0.562593304 5.70724152,0.563582996 C5.67534738,0.562593304 5.64207647,0.562069497 5.60787119,0.562069497 C5.5736659,0.562069497 5.540395,0.562593304 5.50850085,0.563582996 C5.47660671,0.562593304 5.44333581,0.562069497 5.40913052,0.562069497 C5.37492523,0.562069497 5.34165433,0.562593304 5.30976019,0.563582996 C5.27786604,0.562593304 5.24459514,0.562069497 5.21038985,0.562069497 C5.17618457,0.562069497 5.14291367,0.562593304 5.11101952,0.563582996 C5.07912537,0.562593304 5.04585447,0.562069497 5.01164919,0.562069497 C4.9774439,0.562069497 4.944173,0.562593304 4.91227885,0.563582996 C4.88038471,0.562593304 4.8471138,0.562069497 4.81290852,0.562069497 C4.77870323,0.562069497 4.74543233,0.562593304 4.71353818,0.563582996 C4.68164404,0.562593304 4.64837314,0.562069497 4.61416785,0.562069497 C4.57996257,0.562069497 4.54669166,0.562593304 4.51479752,0.563582996 C4.48290337,0.562593304 4.44963247,0.562069497 4.41542718,0.562069497 C4.3812219,0.562069497 4.347951,0.562593304 4.31605685,0.563582996 C4.2841627,0.562593304 4.2508918,0.562069497 4.21668652,0.562069497 C4.18248123,0.562069497 4.14921033,0.562593304 4.11731618,0.563582996 C4.08542204,0.562593304 4.05215113,0.562069497 4.01794585,0.562069497 C3.98374056,0.562069497 3.95046966,0.562593304 3.91857551,0.563582996 C3.88668137,0.562593304 3.85341047,0.562069497 3.81920518,0.562069497 C3.7849999,0.562069497 3.75172899,0.562593304 3.71983485,0.563582996 C3.6879407,0.562593304 3.6546698,0.562069497 3.62046451,0.562069497 C3.58625923,0.562069497 3.55298833,0.562593304 3.52109418,0.563582996 C3.48920003,0.562593304 3.45592913,0.562069497 3.42172385,0.562069497 C3.38751856,0.562069497 3.35424766,0.562593304 3.32235351,0.563582996 C3.29045937,0.562593304 3.25718846,0.562069497 3.22298318,0.562069497 C3.18877789,0.562069497 3.15550699,0.562593304 3.12361284,0.563582996 C3.0917187,0.562593304 3.0584478,0.562069497 3.02424251,0.562069497 C2.99003723,0.562069497 2.95676632,0.562593304 2.92487218,0.563582996 C2.89297803,0.562593304 2.85970713,0.562069497 2.82550184,0.562069497 C2.79129656,0.562069497 2.75802566,0.562593304 2.72613151,0.563582996 C2.69423736,0.562593304 2.66096646,0.562069497 2.62676118,0.562069497 C2.59255589,0.562069497 2.55928499,0.562593304 2.52739084,0.563582996 C2.4954967,0.562593304 2.46222579,0.562069497 2.42802051,0.562069497 C2.39381522,0.562069497 2.36054432,0.562593304 2.32865018,0.563582996 C2.29675603,0.562593304 2.26348513,0.562069497 2.22927984,0.562069497 C1.99219512,0.562069497 1.8,0.587234204 1.8,0.618276447 C1.8,0.649318689 1.99219512,0.674483396 2.22927984,0.674483396 C2.26348513,0.674483396 2.29675603,0.67395959 2.32865018,0.672969897 C2.36054432,0.67395959 2.39381522,0.674483396 2.42802051,0.674483396 C2.46222579,0.674483396 2.4954967,0.67395959 2.52739084,0.672969897 C2.55928499,0.67395959 2.59255589,0.674483396 2.62676118,0.674483396 C2.66096646,0.674483396 2.69423736,0.67395959 2.72613151,0.672969897 C2.75802566,0.67395959 2.79129656,0.674483396 2.82550184,0.674483396 C2.85970713,0.674483396 2.89297803,0.67395959 2.92487218,0.672969897 C2.95676632,0.67395959 2.99003723,0.674483396 3.02424251,0.674483396 C3.0584478,0.674483396 3.0917187,0.67395959 3.12361285,0.672969897 C3.15550699,0.67395959 3.18877789,0.674483396 3.22298318,0.674483396 C3.25718846,0.674483396 3.29045937,0.67395959 3.32235351,0.672969897 C3.35424766,0.67395959 3.38751856,0.674483396 3.42172385,0.674483396 C3.45592913,0.674483396 3.48920003,0.67395959 3.52109418,0.672969897 C3.55298833,0.67395959 3.58625923,0.674483396 3.62046451,0.674483396 C3.6546698,0.674483396 3.6879407,0.67395959 3.71983485,0.672969897 C3.75172899,0.67395959 3.7849999,0.674483396 3.81920518,0.674483396 C3.85341047,0.674483396 3.88668137,0.67395959 3.91857551,0.672969897 C3.95046966,0.67395959 3.98374056,0.674483396 4.01794585,0.674483396 C4.05215113,0.674483396 4.08542204,0.67395959 4.11731618,0.672969897 C4.14921033,0.67395959 4.18248123,0.674483396 4.21668652,0.674483396 C4.2508918,0.674483396 4.2841627,0.67395959 4.31605685,0.672969897 C4.347951,0.67395959 4.3812219,0.674483396 4.41542718,0.674483396 C4.44963247,0.674483396 4.48290337,0.67395959 4.51479752,0.672969897 C4.54669166,0.67395959 4.57996257,0.674483396 4.61416785,0.674483396 C4.64837314,0.674483396 4.68164404,0.67395959 4.71353818,0.672969897 C4.74543233,0.67395959 4.77870323,0.674483396 4.81290852,0.674483396 C4.8471138,0.674483396 4.88038471,0.67395959 4.91227885,0.672969897 C4.944173,0.67395959 4.9774439,0.674483396 5.01164919,0.674483396 C5.04585447,0.674483396 5.07912537,0.67395959 5.11101952,0.672969897 C5.14291367,0.67395959 5.17618457,0.674483396 5.21038985,0.674483396 C5.24459514,0.674483396 5.27786604,0.67395959 5.30976019,0.672969897 C5.34165433,0.67395959 5.37492524,0.674483396 5.40913052,0.674483396 C5.44333581,0.674483396 5.47660671,0.67395959 5.50850085,0.672969897 C5.540395,0.67395959 5.5736659,0.674483396 5.60787119,0.674483396 C5.64207647,0.674483396 5.67534738,0.67395959 5.70724152,0.672969897 C5.73913567,0.67395959 5.77240657,0.674483396 5.80661186,0.674483396 C5.84081714,0.674483396 5.87408804,0.67395959 5.90598219,0.672969897 C5.93787634,0.67395959 5.97114724,0.674483396 6.00535252,0.674483396 C6.03955781,0.674483396 6.07282871,0.67395959 6.10472286,0.672969897 C6.136617,0.67395959 6.1698879,0.674483396 6.20409319,0.674483396 C6.23829848,0.674483396 6.27156938,0.67395959 6.30346352,0.672969897 C6.33535767,0.67395959 6.36862857,0.674483396 6.40283386,0.674483396 C6.63991858,0.674483396 6.8321137,0.649318689 6.8321137,0.618276447 C6.8321137,0.587234204 6.63991858,0.562069497 6.40283386,0.562069497 C6.36862857,0.562069497 6.33535767,0.562593304 6.30346352,0.563582996 Z"/>
        </g>
      </g>
    </g>
    <polygon fill="#F69A98" points="33.083 27.9 29.997 27.9 32.237 23.582 34.912 18.306 34.177 25.161 36.838 25.161 31.978 34.833"/>
  </g>
</svg>
