<svg xmlns="http://www.w3.org/2000/svg" xmlns:xlink="http://www.w3.org/1999/xlink" width="120" height="120" viewBox="0 0 120 120">
  <defs>
    <path id="settle-fig_120x120-a" d="M28.1417004,5.01619433 C21.7651822,-1.36032389 11.3927126,-1.36032389 5.01619433,5.01619433 C-1.36032389,11.3927126 -1.36032389,21.7651822 5.01619433,28.1417004 C8.20445344,31.3299595 12.3704453,32.9453441 16.5789474,32.9453441 C20.7874494,32.9453441 24.9534413,31.3299595 28.1417004,28.1417004 C34.5182186,21.7651822 34.5182186,11.3927126 28.1417004,5.01619433 Z"/>
    <mask id="settle-fig_120x120-b" width="37.427" height="37.448" x="-2.368" y="-2.368">
      <rect width="37.427" height="37.448" x="-2.135" y="-2.135" fill="#fff"/>
      <use xlink:href="#settle-fig_120x120-a"/>
    </mask>
  </defs>
  <g fill="none" fill-rule="evenodd" transform="translate(15 16)">
    <g transform="translate(14.21)">
      <path fill="#FEBBBA" fill-rule="nonzero" d="M61.2084266,40.5239856 C59.6542175,40.8636012 44.8687943,44.5117148 44.8687943,44.5117148 L41.759901,49.5211648 L43.868302,51.8663806 L64.6196064,42.02615 C64.6196064,42.02615 62.7602591,40.184849 61.2084266,40.5239856 Z M46.6131206,48.3404138 C45.9543641,48.3087993 45.4472262,47.7435717 45.4781203,47.0811057 C45.5109155,46.4176816 46.0703357,45.9061027 46.7295675,45.9386751 C47.3868981,45.9707686 47.8949866,46.5350382 47.8626666,47.1984623 C47.8293961,47.8614073 47.2704512,48.3734652 46.6131206,48.3404138 Z" transform="rotate(180 53.19 46.174)"/>
      <path fill="#FEDBDA" d="M60.3248576,60.1578947 L40.5269465,60.1578947 L40.5269465,43.1052632 L46.9873218,43.5302469 C46.9873218,43.5302469 54.8474828,45.653139 57.8238168,50.250358 C59.0969185,52.2167795 59.8254618,54.3136716 60.2423768,56.0696369 L60.3248576,60.1578947 Z"/>
      <path fill="#F1F1F1" d="M55.4041762,43.8495284 L47.3327801,43.8495284 L47.3327801,55.9885294 L60.3130778,55.9885294 L60.3130778,85.2631579 L54.6295627,85.2631579 C54.6488112,85.1079817 54.6587268,84.9498917 54.6587268,84.7894737 C54.6587268,82.6966052 52.971034,81 50.8891594,81 C48.8072848,81 47.119592,82.6966052 47.119592,84.7894737 C47.119592,84.9498917 47.1295076,85.1079817 47.1487561,85.2631579 L47.1487561,85.2631579 L40.964881,85.2631579 C40.9841295,85.1079817 40.9940451,84.9498917 40.9940451,84.7894737 C40.9940451,82.6966052 39.3063523,81 37.2244777,81 C35.1426031,81 33.4549104,82.6966052 33.4549104,84.7894737 C33.4549104,84.9498917 33.4648259,85.1079817 33.4840744,85.2631579 L27.3001993,85.2631579 C27.3194479,85.1079817 27.3293634,84.9498917 27.3293634,84.7894737 C27.3293634,82.6966052 25.6416706,81 23.559796,81 C21.4779215,81 19.7902287,82.6966052 19.7902287,84.7894737 C19.7902287,84.9498917 19.8001442,85.1079817 19.8193927,85.2631579 L13.6355176,85.2631579 C13.6547662,85.1079817 13.6646817,84.9498917 13.6646817,84.7894737 C13.6646817,82.6966052 11.9769889,81 9.89511433,81 C7.81323976,81 6.12554697,82.6966052 6.12554697,84.7894737 C6.12554697,84.9498917 6.1354625,85.1079817 6.15471105,85.2631579 L0,85.2631579 L0,1.42780524e-14 L6.39955543,1.42780524e-14 C6.22285229,0.438835943 6.12554697,0.918520842 6.12554697,1.42105263 C6.12554697,3.51392116 7.81323976,5.21052632 9.89511433,5.21052632 C11.9769889,5.21052632 13.6646817,3.51392116 13.6646817,1.42105263 C13.6646817,0.918520842 13.5673764,0.438835943 13.3906732,1.44200441e-14 L20.0642371,1.42780524e-14 C19.887534,0.438835943 19.7902287,0.918520842 19.7902287,1.42105263 C19.7902287,3.51392116 21.4779215,5.21052632 23.559796,5.21052632 C25.6416706,5.21052632 27.3293634,3.51392116 27.3293634,1.42105263 C27.3293634,0.918520842 27.2320581,0.438835943 27.0553549,-8.8855239e-12 L33.7289188,1.42780524e-14 C33.5522157,0.438835943 33.4549104,0.918520842 33.4549104,1.42105263 C33.4549104,3.51392116 35.1426031,5.21052632 37.2244777,5.21052632 C39.3063523,5.21052632 40.9940451,3.51392116 40.9940451,1.42105263 C40.9940451,0.918520842 40.8967398,0.438835943 40.7200366,-8.8855239e-12 L47.3936005,1.42780524e-14 C47.2168974,0.438835943 47.119592,0.918520842 47.119592,1.42105263 C47.119592,3.51392116 48.8072848,5.21052632 50.8891594,5.21052632 C52.971034,5.21052632 54.6587268,3.51392116 54.6587268,1.42105263 C54.6587268,0.918520842 54.5614215,0.438835943 54.3847183,-8.8855239e-12 L60.3130778,1.42780524e-14 L60.3130778,41.5200962"/>
      <rect width="5.654" height="2.368" x="3.716" y="42.642" fill="#FBCFCE" rx="1.184"/>
      <rect width="5.654" height="2.368" x="13.718" y="42.642" fill="#FBCFCE" rx="1.184"/>
      <rect width="5.654" height="2.368" x="23.773" y="42.642" fill="#FBCFCE" rx="1.184"/>
      <rect width="5.654" height="2.368" x="34.299" y="42.642" fill="#FBCFCE" rx="1.184"/>
      <path fill="#FBCFCE" d="M47.3141851,45.0106446 L45.6936788,45.0106446 C45.1754915,45.0106446 44.7554177,44.5872184 44.7554177,44.0609639 L44.7554177,43.5919042 C44.7554177,43.0674101 45.1735002,42.6422235 45.6981828,42.6422235 L47.2872612,42.6422235 L49.4729135,42.6422235 C49.9903244,42.6422235 50.4253585,43.3001796 50.4253585,43.8264341 L47.3141851,43.8264341 L47.3141851,44.1970638 L47.3141851,45.0106446 Z"/>
      <rect width="32.543" height="2.842" x="10.366" y="14.211" fill="#FEBBBA" rx="1.421"/>
      <rect width="25.003" height="2.842" x="10.366" y="20.842" fill="#FEBBBA" rx="1.421"/>
      <rect width="19.446" height="2.842" x="10.366" y="27.474" fill="#FEBBBA" rx="1.421"/>
      <g fill="#FEBBBA" fill-rule="nonzero" transform="rotate(180 37.895 25.627)">
        <path d="M17.6722205,10.1284468 C17.6722205,10.1284468 24.7264502,12.5099109 25.9127335,12.7846211 C27.0978834,13.0601019 27.9743729,12.7541834 29.1179651,11.6796156 L20.8744298,8.45128879 L17.6722205,10.1284468 Z"/>
        <polygon points="11.666 7.769 12.958 5.621 11.489 4.991 10.51 7.265"/>
        <path d="M9.60284973 11.3216832C8.58959759 9.65878089 6.05911181 9.31972759 3.87846626 10.5807747 1.65399623 11.8668655.639610693 14.3253872 1.61017175 16.0726676 2.582244 17.8207185 5.17166614 18.1952183 7.39613617 16.9079716 8.5336836 16.2506706 9.35274797 15.2851392 9.75321302 14.2633559 10.4581826 13.3486825 12.3010775 12.0687563 12.3010775 12.0687563L10.712818 10.2390244C10.6043902 10.3052939 9.99991461 10.7803538 9.60284973 11.3216832zM6.6035176 15.4831772C5.38172139 16.1890245 3.95969266 15.9828955 3.42624298 15.0227582 2.89317111 14.0645473 3.45004421 12.7129576 4.67184042 12.0071103 5.89212544 11.301263 7.31490977 11.5070067 7.84911503 12.4663734 8.38256471 13.4265107 7.82418042 14.776174 6.6035176 15.4831772zM8.13472973 6.41504255L8.13359634 6.42159245C8.38974286 6.18001697 8.79927504 6.24127774 9.12078048 6.3183353 9.79401512 6.47900033 9.99764782 7.0249532 9.99764782 7.0249532L10.9765204 4.73826987C10.9765204 4.73826987 9.7430125 3.99736135 8.76036193 2.49627992L8.75922854 2.50051809C8.13095176 1.41207994 6.91142234.522450312 5.38738835.186479315 2.88901534-.362170571.527404919.783675469.111072383 2.74710231-.304882356 4.71052914 1.38500461 6.74793125 3.88337762 7.297737 5.53548486 7.66106343 7.12487776 7.28039904 8.13472973 6.41504255zM2.15079957 3.19634793C2.3782335 2.11831255 3.67596695 1.48798164 5.04850425 1.79004731 6.42066375 2.0913424 7.34891152 3.21098887 7.1199664 4.28902425 6.89253247 5.36705963 5.59479903 5.99700525 4.22226173 5.69455429 2.85010222 5.39402977 1.92223225 4.2747686 2.15079957 3.19634793z"/>
      </g>
    </g>
    <g transform="translate(0 56.842)">
      <path fill="#FEBBBA" d="M28.1417004,5.01619433 C21.7651822,-1.36032389 11.3927126,-1.36032389 5.01619433,5.01619433 C-1.36032389,11.3927126 -1.36032389,21.7651822 5.01619433,28.1417004 C8.20445344,31.3299595 12.3704453,32.9453441 16.5789474,32.9453441 C20.7874494,32.9453441 24.9534413,31.3299595 28.1417004,28.1417004 C34.5182186,21.7651822 34.5182186,11.3927126 28.1417004,5.01619433 Z"/>
      <path fill="#FFF" fill-rule="nonzero" d="M17.854251,16.9615385 C17.854251,17.2165992 17.7267206,17.4716599 17.5566802,17.6842105 L12.0303644,23.6781377 C11.8178138,23.8906883 11.562753,24.0182186 11.2651822,24.0182186 C11.0101215,24.0182186 10.7125506,23.9331984 10.5,23.7206478 C10.0748988,23.3380567 10.0748988,22.6578947 10.4574899,22.2327935 L15.7287449,16.5789474 L15.7287449,8.92712551 C15.7287449,8.33198381 16.1963563,7.86437247 16.791498,7.86437247 C17.3866397,7.86437247 17.854251,8.33198381 17.854251,8.92712551 L17.854251,16.9615385 Z"/>
      <use stroke="#FFF" stroke-width="4.737" mask="url(#settle-fig_120x120-b)" xlink:href="#settle-fig_120x120-a"/>
    </g>
  </g>
</svg>
