<svg xmlns="http://www.w3.org/2000/svg" width="130" height="130" viewBox="0 0 130 130">
  <g fill="none" fill-rule="evenodd" transform="translate(24 5)">
    <path fill="#AAA" d="M70.2197135,33.47504 C64.7909257,37.7034667 62.085678,31.5456165 61.8688787,26.3701418 C61.5755223,19.4045153 62.0226707,8.26752959 54.3845633,4.83329163 C47.0655573,1.54172232 36.9661014,6.85918631 37.5663642,15.2168511 L36.9186766,32.4369558 C44.5757539,38.0519858 54.2226414,50.2549101 65.1527094,43.5236678 C68.0984687,41.709738 70.921601,36.9724598 70.2197135,33.47504"/>
    <polygon fill="#FFEBEB" points="40.618 72.706 42.218 113.816 44.209 113.816 46.637 66.641 35.211 66.641 37.022 113.816 39.348 113.816"/>
    <polygon fill="#9E9E9E" points="39.322 110.873 37.703 110.234 32.975 113.816 39.819 113.816"/>
    <polygon fill="#9E9E9E" points="43.858 110.234 42.238 110.873 41.741 113.816 48.585 113.816"/>
    <path fill="#AAA" d="M53.1454203,17.4716949 C48.0201514,13.8873152 39.6991265,12.7948811 35.0013585,14.0062057 C26.2264103,16.2678434 21.7318916,22.7816858 24.0028633,35.0899131 C34.8455341,34.1958563 45.917199,33.6197467 56.6114978,35.3861204 C59.1934409,29.0237784 58.5105234,21.221842 53.1454203,17.4716949 Z"/>
    <path fill="#FFEBEB" d="M47.434116,44.8239905 C50.5052124,43.9754518 53.0824131,42.4991711 54.7971594,40.6356469 C55.8350856,40.6227388 57.1189434,39.5235109 57.9048406,37.8692341 C58.8411422,35.8976893 58.7144502,33.8901378 57.6236791,33.3860419 C57.373005,33.2691895 55.1467481,33.2474495 54.8520367,33.2997614 C53.4760391,28.4999807 47.1109497,24.8707623 39.4613249,24.8707623 C32.6307946,24.8707623 28.7690586,27.7662563 26.6234239,31.8044582 C26.2453802,31.504854 25.8341392,31.3567504 25.4235757,31.4178941 C24.2318575,31.5904552 23.5170976,33.4193313 23.829424,35.501614 C24.1390404,37.5845762 25.3571809,39.1328706 26.5502541,38.9603095 C26.6173264,38.9501189 26.6830436,38.9331345 26.7480834,38.9134326 C28.2250281,41.4984525 31.2195672,43.5854909 33.7127582,44.710535 L23.7698042,72.1144631 L35.2242552,51.4709904 L47.0404899,51.4906922 L61.3546581,70.4866818 L47.434116,44.8239905"/>
    <path fill="#F69A98" d="M36.9051266,65.9871847 L34.5758901,50.1910489 C34.5758901,50.1910489 38.8895169,47.4687954 40.4511488,47.440941 C42.1841875,47.4117279 47.0404899,50.1910489 47.0404899,50.1910489 L44.3833446,65.915171 L36.9051266,65.9871847"/>
    <path fill="#AAA" d="M34.6497373 33.729126C34.6497373 34.5477723 34.0277946 35.2128799 33.2635773 35.2128799 32.4986826 35.2128799 31.8774173 34.5477723 31.8774173 33.729126 31.8774173 32.909121 32.4986826 32.2453722 33.2635773 32.2453722 34.0277946 32.2453722 34.6497373 32.909121 34.6497373 33.729126M44.4619343 34.3887986C44.4619343 35.2074449 43.842024 35.8725525 43.0778068 35.8725525 42.3115571 35.8725525 41.6916468 35.2074449 41.6916468 34.3887986 41.6916468 33.5687937 42.3115571 32.9043654 43.0778068 32.9043654 43.842024 32.9043654 44.4619343 33.5687937 44.4619343 34.3887986"/>
    <path fill="#E5E5E5" d="M34.349229,88.3019186 C34.349229,88.3019186 23.2253968,65.0761435 41.5517054,65.6013 C57.5812974,66.0619159 47.741323,88.5179597 47.741323,88.5179597 C47.741323,88.5179597 41.6939799,90.9012053 34.349229,88.3019186"/>
    <path fill="#F1F1F1" d="M20.3660565,74.6906511 C22.448684,72.0023663 23.6580171,71.7306165 24.2603124,71.8923076 C25.3097561,72.1728893 25.9953836,73.9779872 26.3964622,76.0494 L20.3660565,74.6906511 Z M14.6818521,73.4100302 L4.5180339,100.054418 L29.3476415,105.415362 L31.826605,77.272274 L27.7697497,76.3591948 C27.3510562,73.8754017 26.4655669,71.1395607 24.5963512,70.6368236 C23.0103294,70.2101764 21.1594061,71.4405236 18.981929,74.3788182 L14.6818521,73.4100302 L14.6818521,73.4100302 Z"/>
    <polyline fill="#CFCFCF" points="64.236 97.685 84.325 86.313 71.365 66.493 56.46 72.992 64.236 97.685"/>
    <path fill="#F1F1F1" d="M57.9427805,74.628828 C58.0850549,71.2265206 58.912957,70.3025713 59.4969598,70.0838128 C60.5138837,69.7026837 62.1168429,70.7740572 63.6418898,72.2279186 L57.9427805,74.628828 Z M52.5715799,76.8904656 L59.7002091,104.507717 L83.0284821,94.4353113 L68.7719013,70.0675078 L64.9392976,71.6817015 C63.1608666,69.9024198 60.8580524,68.188358 59.0443915,68.8656943 C57.5057945,69.4404451 56.7090574,71.519331 56.6345327,75.1791213 L52.5715799,76.8904656 L52.5715799,76.8904656 Z"/>
    <path fill="#F27674" d="M38.278139,40.9820612 C38.1821041,40.9820612 38.0898673,40.9776991 38.0025135,40.971156 C36.8077744,40.8784621 35.8311485,40.2050682 35.4291041,39.6172799 C35.3488038,39.4995042 35.3786451,39.338653 35.4958402,39.2579548 C35.6130353,39.1778018 35.7730935,39.2072458 35.8533938,39.3244763 C36.1881595,39.8135729 37.0161213,40.3773698 38.0421211,40.455887 C38.7398661,40.5082318 39.7788876,40.3484711 40.7875251,39.2726768 C40.8851877,39.1685324 41.0479587,39.1641704 41.151047,39.2612263 C41.2541353,39.3593728 41.2590185,39.522405 41.1618984,39.6265493 C40.1375263,40.7181562 39.0702912,40.9820612 38.278139,40.9820612 Z"/>
    <path fill="#F69A98" d="M51.8921699,26.5399854 C52.6414822,26.0630645 54.9517489,24.2015784 53.6936359,23.230073 C52.7058445,22.4671354 50.1313538,24.6037681 50.2709183,25.4421162 C50.2885332,24.3571552 49.9104896,21.8692859 48.41051,22.7096721 C47.3563239,23.3014073 47.8387021,26.1636119 48.5155222,27.0148681 C47.7546924,25.8015053 44.7615083,25.933304 44.5162541,27.1915055 C44.0907857,29.38045 47.5026633,29.4667306 48.8481735,28.6942818 C47.9423592,29.7500298 46.5819442,31.4960221 47.8915469,32.4165746 C48.019594,32.5055726 49.3366492,32.5157632 49.5012811,32.4281239 C49.9240396,32.2052891 50.3041157,31.5571658 50.4646826,30.9504844 C50.5886647,31.9559587 51.054783,33.1108953 51.9782121,33.006951 C53.8589453,32.7949861 53.1868677,29.280582 52.4910778,28.4646533 C53.4124744,29.2955282 55.1360282,29.1834314 55.3941548,28.0074342 C55.8358832,25.9971652 53.1692528,25.675821 51.8921699,26.5399854"/>
    <path fill="#FFEBEB" d="M19.8881956,12.3960592 C19.8881956,5.7398879 15.4990892,0.34442406 10.0852768,0.34442406 C4.67134251,0.34442406 0.282358003,5.7398879 0.282358003,12.3960592 C0.282358003,18.7224301 4.24865892,23.9066215 9.29038296,24.4047216 L7.65499857,27.3848556 L12.5154332,27.3848556 L10.8800488,24.4047216 C15.9218947,23.9066215 19.8881956,18.7224301 19.8881956,12.3960592"/>
    <path fill="#CFCFCF" d="M8.13010614,27.0962321 L12.0404475,27.0962321 L10.6426779,24.5490333 C10.5957401,24.4638573 10.5935456,24.359568 10.6363382,24.2722113 C10.6792527,24.1847263 10.7615462,24.1266168 10.8543244,24.1173808 C15.7662077,23.6322368 19.6138841,18.4835781 19.6138841,12.3960592 C19.6138841,5.9097268 15.339257,0.633047574 10.0852768,0.633047574 C4.8311747,0.633047574 0.556669535,5.9097268 0.556669535,12.3960592 C0.556669535,18.4835781 4.40422404,23.6322368 9.31610729,24.1173808 C9.40900746,24.1266168 9.49130092,24.1847263 9.53409352,24.2722113 C9.57700803,24.359568 9.57469162,24.4638573 9.52775387,24.5490333 L8.13010614,27.0962321 Z M12.5154332,27.6734791 L7.65499857,27.6734791 C7.556856,27.6734791 7.46639415,27.6184482 7.41750574,27.5291673 C7.36837349,27.4398865 7.36837349,27.3298247 7.41750574,27.2405438 L8.8446572,24.6397253 C6.48301779,24.2845259 4.30754446,22.9211967 2.68069421,20.7654998 C0.957286288,18.4813974 0.0080464716,15.50896 0.0080464716,12.3960592 C0.0080464716,5.59159955 4.52870052,0.0558005461 10.0852768,0.0558005461 C15.6418531,0.0558005461 20.1625072,5.59159955 20.1625072,12.3960592 C20.1625072,15.50896 19.2127797,18.4813974 17.4897375,20.7654998 C15.8628873,22.9211967 13.6875359,24.2845259 11.3257745,24.6397253 L12.752926,27.2405438 C12.8021801,27.3298247 12.8021801,27.4398865 12.752926,27.5291673 C12.7040376,27.6184482 12.6135757,27.6734791 12.5154332,27.6734791 L12.5154332,27.6734791 Z"/>
    <path fill="#F69A98" d="M17.3748924,11.9513225 C17.3748924,16.8711348 13.7967728,20.8593986 9.3830393,20.8593986 C4.96906196,20.8593986 1.39106426,16.8711348 1.39106426,11.9513225 C1.39106426,7.03138191 4.96906196,3.04311806 9.3830393,3.04311806 C13.7967728,3.04311806 17.3748924,7.03138191 17.3748924,11.9513225"/>
    <path fill="#F9F9F9" d="M9.38108864 7.77102777C9.38108864 7.61209242 9.33634538 7.49292298 9.2471027 7.41364772 9.1577381 7.33411591 9.05971744 7.29422173 8.95255307 7.29422173 8.8453887 7.29422173 8.74700229 7.33411591 8.65775961 7.41364772 8.56839501 7.49292298 8.52389558 7.61209242 8.52389558 7.77102777L8.52389558 17.0906169C8.52389558 17.249424 8.56839501 17.3687217 8.65775961 17.447997 8.74700229 17.5275288 8.8453887 17.5671664 8.95255307 17.5671664 9.05971744 17.5671664 9.1577381 17.5275288 9.2471027 17.447997 9.33634538 17.3687217 9.38108864 17.249424 9.38108864 17.0906169L9.38108864 7.77102777zM10.5240534 17.0607283C10.5240534 17.2712311 10.4793101 17.4553088 10.3900674 17.6132179 10.3007028 17.7709987 10.1817126 17.9026111 10.0328528 18.0077983 9.88399312 18.1129855 9.71587063 18.191876 9.52836345 18.2445979 9.34085628 18.2971915 9.14896013 18.3234883 8.95255307 18.3234883 8.7560241 18.3234883 8.56400602 18.2971915 8.37649885 18.2445979 8.18899168 18.191876 8.02074727 18.1129855 7.87188755 18.0077983 7.72314974 17.9026111 7.60403758 17.7709987 7.51479489 17.6132179 7.42543029 17.4553088 7.38093087 17.2712311 7.38093087 17.0607283L7.38093087 7.80078806C7.38093087 7.59028531 7.42543029 7.40607937 7.51479489 7.24829852 7.60403758 7.09038939 7.72314974 6.95890534 7.87188755 6.85371811 8.02074727 6.74840259 8.18899168 6.66951217 8.37649885 6.61691855 8.56400602 6.56432493 8.7560241 6.53802812 8.95255307 6.53802812 9.14896013 6.53802812 9.34085628 6.56432493 9.52836345 6.61691855 9.71587063 6.66951217 9.88399312 6.74840259 10.0328528 6.85371811 10.1817126 6.95890534 10.3007028 7.09038939 10.3900674 7.24829852 10.4793101 7.40607937 10.5240534 7.59028531 10.5240534 7.80078806L10.5240534 17.0607283 10.5240534 17.0607283zM15.4816552 9.81345604C15.4816552 9.77138114 15.4616609 9.73777254 15.4219162 9.71288678 15.3819277 9.68787274 15.33499 9.67530158 15.2809811 9.67530158 15.222827 9.67530158 15.1713784 9.68787274 15.1260255 9.71288678 15.0809165 9.73777254 15.058362 9.77138114 15.058362 9.81345604L15.058362 12.145534C15.058362 12.1665715 15.0764056 12.1928683 15.1126147 12.2244245 15.1488239 12.2559806 15.2047834 12.2717587 15.2809811 12.2717587 15.33499 12.2717587 15.3819277 12.2593158 15.4219162 12.2344301 15.4616609 12.209416 15.4816552 12.1796557 15.4816552 12.145534L15.4816552 9.81345604zM16.167434 12.0594601C16.167434 12.1409161 16.1436604 12.2171127 16.0964788 12.2880499 16.0491753 12.3589872 15.9848035 12.4213298 15.903973 12.4752062 15.8228987 12.5292109 15.7282917 12.5719272 15.620274 12.6034833 15.5121343 12.6350395 15.3991179 12.650561 15.2809811 12.650561 15.1550416 12.650561 15.0367828 12.6350395 14.9262048 12.6034833 14.8156268 12.5719272 14.7195568 12.5284412 14.6379948 12.4734103 14.556189 12.4181229 14.4915734 12.3532147 14.4440261 12.2781726 14.3963569 12.203387 14.3725832 12.1239835 14.3725832 12.0397054L14.3725832 9.9033783C14.3725832 9.81948506 14.3963569 9.74072291 14.4440261 9.66696357 14.4915734 9.5933325 14.556189 9.52906567 14.6379948 9.47377823 14.7195568 9.41887562 14.8156268 9.37538968 14.9262048 9.34383351 15.0367828 9.31227734 15.1550416 9.29649925 15.2809811 9.29649925 15.3991179 9.29649925 15.5121343 9.31163595 15.620274 9.3416528 15.7282917 9.37205447 15.8228987 9.41361626 15.903973 9.46595332 15.9848035 9.51854694 16.0491753 9.58088962 16.0964788 9.65310964 16.1436604 9.72545793 16.167434 9.80498975 16.167434 9.89170508L16.167434 12.0594601zM14.5654547 6.54610958L13.5515993 13.4950093 12.8349756 13.4950093 13.848831 6.54610958 14.5654547 6.54610958zM12.1758964 7.91508298C12.1758964 7.87583018 12.1559022 7.84299124 12.1164013 7.81669443 12.0764128 7.79026934 12.0275244 7.77731335 11.9697361 7.77731335 11.9153614 7.77731335 11.8657415 7.79026934 11.8203887 7.81669443 11.7751578 7.84299124 11.7527252 7.87583018 11.7527252 7.91508298L11.7527252 10.2435692C11.7527252 10.2674288 11.7707688 10.2942387 11.8070998 10.3245121 11.8430651 10.3547855 11.8973178 10.3697939 11.9697361 10.3697939 12.0275244 10.3697939 12.0764128 10.3581207 12.1164013 10.3343894 12.1559022 10.3107864 12.1758964 10.280513 12.1758964 10.2435692L12.1758964 7.91508298zM12.8616753 10.1548014C12.8616753 10.2361291 12.8371701 10.3128389 12.7881598 10.3849306 12.7392714 10.4571506 12.6740462 10.5200064 12.5930938 10.5736262 12.5118976 10.6275026 12.4174125 10.6700906 12.3092728 10.7013902 12.2011331 10.7329464 12.0878729 10.7485962 11.9697361 10.7485962 11.8480637 10.7485962 11.7321213 10.7329464 11.6221529 10.7013902 11.5123064 10.6700906 11.416846 10.6268612 11.3356497 10.5718304 11.2544535 10.5166712 11.1893503 10.4518912 11.1403399 10.3771057 11.0914515 10.3023201 11.0669464 10.2217621 11.0669464 10.1353033L11.0669464 8.00397902C11.0669464 7.92265133 11.0914515 7.8454285 11.1403399 7.77205399 11.1893503 7.69867948 11.2544535 7.63454092 11.3356497 7.57938176 11.416846 7.5242226 11.5123064 7.48035182 11.6221529 7.44764116 11.7319994 7.41505877 11.8478199 7.39851102 11.9693703 7.39851102 12.0875072 7.39851102 12.2007674 7.41364772 12.309029 7.44366457 12.4172906 7.47393797 12.5116538 7.51511492 12.5929719 7.56758026 12.6740462 7.61991733 12.7392714 7.68290139 12.7881598 7.75640418 12.8371701 7.82965042 12.8616753 7.90969534 12.8616753 7.99615411L12.8616753 10.1548014 12.8616753 10.1548014z"/>
    <polyline fill="#F9F9F9" points="4.022 6.748 4.022 7.628 5.575 7.628 4.524 18.113 5.669 18.113 6.81 6.748 4.022 6.748"/>
    <path fill="#CFCFCF" d="M10.2552281 22.2748083C10.1099039 22.2748083 9.98859725 22.1548692 9.98140419 22.0004236 9.97408921 21.8412317 10.0907631 21.705771 10.2420611 21.6980744 13.2683878 21.5426025 15.8869048 19.0088729 16.9128299 15.2429133 16.9547691 15.0898787 17.1065548 15.0013675 17.2521228 15.0448534 17.3978127 15.0888525 17.4820568 15.2486858 17.4404834 15.4018487 16.3484796 19.4092258 13.5336776 22.1067653 10.2688827 22.2746801 10.2641279 22.2748083 10.259739 22.2748083 10.2552281 22.2748083M11.9986302 38.2066847C11.8946357 36.0093728 11.1455823 35.3558089 10.0116394 33.7441752 9.69733936 33.2973245 9.37206684 32.8352238 9.02277682 32.2952956 7.27730207 29.5992042 9.88216437 27.1895757 9.90874211 27.165649 10.0249283 27.0603453 10.1978055 27.0763841 10.2952166 27.201802 10.3926277 27.3266941 10.3777539 27.513112 10.2620554 27.6182842 10.1695209 27.7025535 8.01550488 29.706217 9.47252582 31.9569038 9.81572002 32.4868406 10.1375789 32.9444715 10.448831 33.3867209 11.6013052 35.0247792 12.4337493 35.7971878 12.5465218 38.1767106 12.7428069 42.3248368 12.1818703 42.079654 11.9986302 38.2066847z"/>
  </g>
</svg>
