<svg xmlns="http://www.w3.org/2000/svg" width="160" height="160" viewBox="0 0 160 160">
  <g fill="none" fill-rule="evenodd" transform="translate(27 6)">
    <path fill="#AAA" d="M86.741999,41.1096982 C80.0358494,46.302503 76.6940728,38.7402308 76.426262,32.3843846 C76.0638805,23.8301065 76.6162403,10.1531065 67.1809312,5.9356213 C58.1398061,1.8933432 45.6640076,8.42356213 46.4055088,18.6873609 L45.605424,39.834858 C55.0641665,46.7305089 66.98091,61.7165562 80.4827586,53.4501183 C84.1216378,51.2224852 87.6090365,45.4047751 86.741999,41.1096982"/>
    <polygon fill="#FFEBEB" points="50.176 89.288 52.152 139.774 54.611 139.774 57.61 81.84 43.496 81.84 45.733 139.774 48.606 139.774"/>
    <polygon fill="#9E9E9E" points="48.575 136.16 46.574 135.375 40.734 139.774 49.188 139.774"/>
    <polygon fill="#9E9E9E" points="54.178 135.375 52.177 136.16 51.563 139.774 60.016 139.774"/>
    <path fill="#AAA" d="M65.6502251,21.4564675 C59.3190105,17.0545976 49.0400975,15.7130118 43.2369723,17.2006036 C32.3973304,19.9780533 26.8452778,27.9775089 29.6505959,43.0928757 C43.0444833,41.9949112 56.7212458,41.2874083 69.9318502,43.4566391 C73.1213094,35.6432367 72.2777054,26.0619112 65.6502251,21.4564675 Z"/>
    <path fill="#FFEBEB" d="M58.5950845,55.0470059 C62.3887918,54.0049408 65.5723926,52.1919645 67.6906086,49.903426 C68.9727528,49.887574 70.5586948,48.537645 71.529509,46.5060769 C72.6861168,44.0848817 72.5296149,41.6194675 71.1821919,41.0004024 C70.8725356,40.8568994 68.1224535,40.8302012 67.7583982,40.8944438 C66.0586366,34.9999763 58.195879,30.5430414 48.7463425,30.5430414 C40.3086286,30.5430414 35.5382488,34.0989112 32.8877589,39.0581065 C32.4207638,38.6901716 31.9127602,38.5082899 31.4055935,38.5833787 C29.9334711,38.7952959 29.0505323,41.041284 29.4363473,43.5984734 C29.8188146,46.156497 31.3235765,48.0579112 32.7973727,47.8459941 C32.8802267,47.8334793 32.9614069,47.8126213 33.0417501,47.788426 C34.8662111,50.9630118 38.5653477,53.5260414 41.6451719,54.9076746 L29.3626993,88.5616213 L43.5123153,63.2099882 L58.1088405,63.2341834 L75.7910483,86.5625917 L58.5950845,55.0470059"/>
    <path fill="#F69A98" d="M45.5886858,81.0368935 L42.7113936,61.6381302 C42.7113936,61.6381302 48.0399915,58.2950118 49.9690662,58.2608047 C52.1098787,58.224929 58.1088405,61.6381302 58.1088405,61.6381302 L54.8264845,80.9484556 L45.5886858,81.0368935"/>
    <path fill="#AAA" d="M42.8026167 41.4217337C42.8026167 42.4270888 42.0343344 43.2438876 41.0903014 43.2438876 40.1454314 43.2438876 39.3779861 42.4270888 39.3779861 41.4217337 39.3779861 40.4147101 40.1454314 39.5995799 41.0903014 39.5995799 42.0343344 39.5995799 42.8026167 40.4147101 42.8026167 41.4217337M54.9235659 42.231858C54.9235659 43.237213 54.1577944 44.0540118 53.2137613 44.0540118 52.2672175 44.0540118 51.5014461 43.237213 51.5014461 42.231858 51.5014461 41.2248343 52.2672175 40.4088698 53.2137613 40.4088698 54.1577944 40.4088698 54.9235659 41.2248343 54.9235659 42.231858"/>
    <path fill="#E5E5E5" d="M42.4314005,108.440953 C42.4314005,108.440953 28.690196,79.918071 51.3285773,80.563 C71.1298379,81.1286686 58.9745755,108.706266 58.9745755,108.706266 C58.9745755,108.706266 51.5043281,111.633059 42.4314005,108.440953"/>
    <path fill="#F1F1F1" d="M25.1580698,91.7253609 C27.7307273,88.4239586 29.2246094,88.0902308 29.9686212,88.2887988 C31.2649928,88.6333728 32.1119445,90.8501598 32.6073945,93.394 L25.1580698,91.7253609 Z M18.1364055,90.1526686 L5.58110069,122.873846 L36.2529689,129.457462 L39.315218,94.8957751 L34.3038085,93.7744497 C33.7865989,90.7241775 32.6927592,87.3643728 30.383728,86.7469763 C28.4245246,86.2230237 26.1380899,87.7339763 23.4482653,91.3424083 L18.1364055,90.1526686 L18.1364055,90.1526686 Z"/>
    <polyline fill="#CFCFCF" points="79.35 119.964 104.166 105.998 88.156 81.658 69.744 89.639 79.35 119.964"/>
    <path fill="#F1F1F1" d="M71.5763759,91.6494379 C71.7521267,87.4711657 72.7748292,86.3364911 73.4962445,86.0678402 C74.7524445,85.599787 76.7325706,86.9155089 78.6164521,88.7009527 L71.5763759,91.6494379 Z M64.9413634,94.4268876 L73.7473171,128.342811 L102.564596,115.973189 L84.9535251,86.0478166 L80.2191324,88.0301598 C78.0222469,85.8450769 75.1775942,83.7400888 72.9371895,84.5719053 C71.0365697,85.2777396 70.0523651,87.8307574 69.9603051,92.3252367 L64.9413634,94.4268876 L64.9413634,94.4268876 Z"/>
    <path fill="#F27674" d="M47.28476,50.328847 C47.1661287,50.328847 47.052189,50.3234901 46.9442814,50.3154547 C45.4684272,50.2016201 44.2620069,49.3746452 43.7653639,48.6527999 C43.6661694,48.508163 43.7030322,48.3106265 43.8478026,48.2115234 C43.9925731,48.11309 44.1902919,48.1492492 44.2894865,48.2932165 C44.7030206,48.8938614 45.7257969,49.5862437 46.9932084,49.6826683 C47.8551287,49.7469513 49.1386258,49.550754 50.3845899,48.229603 C50.5052319,48.1017065 50.706302,48.0963496 50.8336463,48.2155411 C50.9609907,48.3360719 50.9670228,48.5362868 50.847051,48.6641834 C49.5816502,50.0047532 48.2633009,50.328847 47.28476,50.328847 Z"/>
    <path fill="#F69A98" d="M64.1020923,32.5929645 C65.0277133,32.0072722 67.8815721,29.7212367 66.3274326,28.5281598 C65.1072197,27.5912189 61.9269665,30.2151538 62.0993697,31.2447041 C62.1211293,29.9122959 61.6541342,26.8570178 59.8012183,27.889071 C58.4989883,28.6157633 59.0948673,32.1307515 59.9309391,33.1761538 C58.9910906,31.6860592 55.2936278,31.8479172 54.9906669,33.3930769 C54.4650882,36.0812544 58.6797606,36.187213 60.3418613,35.2385917 C59.2229143,36.5351243 57.5424016,38.6793254 59.1601462,39.8098284 C59.3183219,39.9191243 60.9452725,39.9316391 61.1486413,39.8240118 C61.6708724,39.550355 62.1403782,38.7544142 62.3387256,38.0093669 C62.4918799,39.2441598 63.0676731,40.662503 64.2083797,40.5348521 C66.5316383,40.2745444 65.7014249,35.9586095 64.8419196,34.9565917 C65.9801155,35.9769645 68.1092113,35.8393018 68.4280735,34.3950947 C68.973738,31.9263432 65.6796652,31.5317101 64.1020923,32.5929645"/>
    <path fill="#FFEBEB" d="M24.5677711,15.2232306 C24.5677711,7.04898513 19.1459337,0.422976916 12.4582831,0.422976916 C5.77048193,0.422976916 0.348795181,7.04898513 0.348795181,15.2232306 C0.348795181,22.992458 5.24834337,29.3590089 11.4763554,29.9707107 L9.4561747,33.6305244 L15.460241,33.6305244 L13.4400602,29.9707107 C19.6682229,29.3590089 24.5677711,22.992458 24.5677711,15.2232306"/>
    <path fill="#CFCFCF" d="M10.0430723,33.2760745 L14.873494,33.2760745 L13.1468373,30.1479357 C13.0888554,30.0433336 13.0861446,29.915259 13.139006,29.8079788 C13.1920181,29.7005411 13.2936747,29.6291785 13.4082831,29.6178361 C19.4759036,29.0220452 24.2289157,22.699131 24.2289157,15.2232306 C24.2289157,7.25755923 18.948494,0.777426846 12.4582831,0.777426846 C5.96792169,0.777426846 0.687650602,7.25755923 0.687650602,15.2232306 C0.687650602,22.699131 5.44051205,29.0220452 11.5081325,29.6178361 C11.6228916,29.6291785 11.7245482,29.7005411 11.7774096,29.8079788 C11.8304217,29.915259 11.8275602,30.0433336 11.7695783,30.1479357 L10.0430723,33.2760745 Z M15.460241,33.9849743 L9.4561747,33.9849743 C9.33493976,33.9849743 9.22319277,33.9173925 9.1628012,33.8077494 C9.10210843,33.6981062 9.10210843,33.5629426 9.1628012,33.4532994 L10.925753,30.2593117 C8.00843373,29.823102 5.32108434,28.1488381 3.31144578,25.5014909 C1.18253012,22.696453 0.00993975904,19.0460913 0.00993975904,15.2232306 C0.00993975904,6.86687664 5.59427711,0.0685269864 12.4582831,0.0685269864 C19.3222892,0.0685269864 24.9066265,6.86687664 24.9066265,15.2232306 C24.9066265,19.0460913 23.7334337,22.696453 21.6049699,25.5014909 C19.5953313,28.1488381 16.9081325,29.823102 13.9906627,30.2593117 L15.7536145,33.4532994 C15.8144578,33.5629426 15.8144578,33.6981062 15.7536145,33.8077494 C15.6932229,33.9173925 15.5814759,33.9849743 15.460241,33.9849743 L15.460241,33.9849743 Z"/>
    <path fill="#F69A98" d="M21.4631024,14.6770627 C21.4631024,20.7189374 17.0430723,25.6168053 11.5908133,25.6168053 C6.13825301,25.6168053 1.71837349,20.7189374 1.71837349,14.6770627 C1.71837349,8.63503042 6.13825301,3.73716253 11.5908133,3.73716253 C17.0430723,3.73716253 21.4631024,8.63503042 21.4631024,14.6770627"/>
    <path fill="#F9F9F9" d="M11.5884036 9.54336744C11.5884036 9.34818368 11.5331325 9.20183524 11.4228916 9.10447966 11.3125 9.00680901 11.1914157 8.95781616 11.0590361 8.95781616 10.9266566 8.95781616 10.8051205 9.00680901 10.6948795 9.10447966 10.584488 9.20183524 10.5295181 9.34818368 10.5295181 9.54336744L10.5295181 20.9884769C10.5295181 21.1835031 10.584488 21.3300091 10.6948795 21.4273647 10.8051205 21.5250353 10.9266566 21.5737131 11.0590361 21.5737131 11.1914157 21.5737131 11.3125 21.5250353 11.4228916 21.4273647 11.5331325 21.3300091 11.5884036 21.1835031 11.5884036 20.9884769L11.5884036 9.54336744zM13.0003012 20.9517716C13.0003012 21.2102838 12.9450301 21.4363441 12.8347892 21.6302676 12.7243976 21.8240335 12.5774096 21.9856627 12.3935241 22.11484 12.2096386 22.2440173 12.0019578 22.3409003 11.7703313 22.4056465 11.5387048 22.4702351 11.3016566 22.5025295 11.0590361 22.5025295 10.8162651 22.5025295 10.5790663 22.4702351 10.3474398 22.4056465 10.1158133 22.3409003 9.90798193 22.2440173 9.72409639 22.11484 9.54036145 21.9856627 9.39322289 21.8240335 9.28298193 21.6302676 9.17259036 21.4363441 9.11762048 21.2102838 9.11762048 20.9517716L9.11762048 9.57991517C9.11762048 9.32140302 9.17259036 9.0951852 9.28298193 8.90141923 9.39322289 8.70749574 9.54036145 8.5460241 9.72409639 8.4168468 9.90798193 8.28751196 10.1158133 8.19062897 10.3474398 8.12604032 10.5790663 8.06145167 10.8162651 8.02915734 11.0590361 8.02915734 11.3016566 8.02915734 11.5387048 8.06145167 11.7703313 8.12604032 12.0019578 8.19062897 12.2096386 8.28751196 12.3935241 8.4168468 12.5774096 8.5460241 12.7243976 8.70749574 12.8347892 8.90141923 12.9450301 9.0951852 13.0003012 9.32140302 13.0003012 9.57991517L13.0003012 20.9517716 13.0003012 20.9517716zM19.1243976 12.0516127C19.1243976 11.9999418 19.0996988 11.958668 19.0506024 11.9281066 19.0012048 11.8973876 18.9432229 11.8819493 18.876506 11.8819493 18.8046687 11.8819493 18.7411145 11.8973876 18.6850904 11.9281066 18.6293675 11.958668 18.601506 11.9999418 18.601506 12.0516127L18.601506 14.9155681C18.601506 14.9414036 18.6237952 14.9736979 18.6685241 15.0124511 18.713253 15.0512043 18.7823795 15.0705809 18.876506 15.0705809 18.9432229 15.0705809 19.0012048 15.0553001 19.0506024 15.0247387 19.0996988 14.9940197 19.1243976 14.957472 19.1243976 14.9155681L19.1243976 12.0516127zM19.9715361 14.8098633C19.9715361 14.9098969 19.9421687 15.0034717 19.8838855 15.0905876 19.8254518 15.1777035 19.7459337 15.2542647 19.6460843 15.3204287 19.5459337 15.3867502 19.4290663 15.4392088 19.2956325 15.477962 19.1620482 15.5167152 19.0224398 15.5357767 18.876506 15.5357767 18.7209337 15.5357767 18.5748494 15.5167152 18.438253 15.477962 18.3016566 15.4392088 18.1829819 15.385805 18.0822289 15.3182232 17.9811747 15.2503264 17.9013554 15.1706145 17.8426205 15.0784575 17.7837349 14.9866156 17.7543675 14.8891025 17.7543675 14.7856031L17.7543675 12.1620435C17.7543675 12.0590167 17.7837349 11.9622913 17.8426205 11.8717096 17.9013554 11.7812855 17.9811747 11.7023613 18.0822289 11.6344645 18.1829819 11.5670402 18.3016566 11.5136364 18.438253 11.4748833 18.5748494 11.4361301 18.7209337 11.4167535 18.876506 11.4167535 19.0224398 11.4167535 19.1620482 11.4353424 19.2956325 11.4722052 19.4290663 11.5095406 19.5459337 11.5605814 19.6460843 11.624855 19.7459337 11.6894436 19.8254518 11.7660048 19.8838855 11.854696 19.9421687 11.9435448 19.9715361 12.0412155 19.9715361 12.147708L19.9715361 14.8098633zM17.9926205 8.03908194L16.7402108 16.5728184 15.8549699 16.5728184 17.1073795 8.03908194 17.9926205 8.03908194zM15.0408133 9.72027734C15.0408133 9.67207215 15.0161145 9.63174362 14.9673193 9.5994493 14.9179217 9.56699744 14.8575301 9.55108657 14.7861446 9.55108657 14.7189759 9.55108657 14.6576807 9.56699744 14.6016566 9.5994493 14.5457831 9.63174362 14.5180723 9.67207215 14.5180723 9.72027734L14.5180723 12.5798218C14.5180723 12.609123 14.5403614 12.6420475 14.585241 12.6792254 14.6296687 12.7164032 14.6966867 12.7348346 14.7861446 12.7348346 14.8575301 12.7348346 14.9179217 12.7204991 14.9673193 12.6913554 15.0161145 12.6623693 15.0408133 12.6251914 15.0408133 12.5798218L15.0408133 9.72027734zM15.8879518 12.4708088C15.8879518 12.5706849 15.8576807 12.6648898 15.7971386 12.7534235 15.736747 12.8421148 15.6561747 12.9193061 15.5561747 12.985155 15.4558735 13.051319 15.3391566 13.1036201 15.2055723 13.1420582 15.071988 13.1808114 14.9320783 13.2000304 14.7861446 13.2000304 14.6358434 13.2000304 14.4926205 13.1808114 14.3567771 13.1420582 14.2210843 13.1036201 14.1031627 13.0505313 14.0028614 12.9829496 13.9025602 12.9152102 13.8221386 12.8356559 13.7615964 12.743814 13.7012048 12.6519721 13.6709337 12.5530412 13.6709337 12.4468637L13.6709337 9.82944792C13.6709337 9.7295718 13.7012048 9.63473676 13.7615964 9.54462771 13.8221386 9.45451866 13.9025602 9.37575201 14.0028614 9.30801269 14.1031627 9.24027337 14.2210843 9.18639698 14.3567771 9.14622599 14.4924699 9.10621253 14.6355422 9.08589073 14.7856928 9.08589073 14.9316265 9.08589073 15.0715361 9.10447966 15.2052711 9.14134245 15.339006 9.17852031 15.4555723 9.2290885 15.5560241 9.29351962 15.6561747 9.35779321 15.736747 9.43514206 15.7971386 9.52540864 15.8576807 9.61536016 15.8879518 9.71366094 15.8879518 9.81983838L15.8879518 12.4708088 15.8879518 12.4708088z"/>
    <polyline fill="#F9F9F9" points="4.969 8.288 4.969 9.368 6.887 9.368 5.588 22.244 7.003 22.244 8.412 8.288 4.969 8.288"/>
    <path fill="#CFCFCF" d="M12.6682229 27.3550278C12.4887048 27.3550278 12.3388554 27.2077341 12.3299699 27.018064 12.3209337 26.8225652 12.4650602 26.65621 12.6519578 26.646758 16.3903614 26.4558277 19.625 23.3442299 20.8923193 18.7193672 20.9441265 18.53143 21.1316265 18.422732 21.3114458 18.4761358 21.4914157 18.5301697 21.5954819 18.7264562 21.5441265 18.914551 20.1951807 23.8358913 16.7180723 27.1486591 12.6850904 27.3548702 12.6792169 27.3550278 12.6737952 27.3550278 12.6682229 27.3550278M14.8218373 46.92049C14.6933735 44.2220368 13.7680723 43.4194145 12.3673193 41.4402152 11.9790663 40.8914511 11.577259 40.323959 11.1457831 39.6608893 8.98960843 36.3498998 12.2073795 33.390707 12.2402108 33.3613234 12.3837349 33.232003 12.5972892 33.2516997 12.7176205 33.4057218 12.8379518 33.559098 12.8195783 33.7880322 12.6766566 33.9171912 12.5623494 34.0206798 9.90150602 36.4813191 11.7013554 39.2453204 12.1253012 39.89612 12.5228916 40.4581229 12.9073795 41.0012362 14.3310241 43.0128867 15.3593373 43.9614587 15.4986446 46.8836797 15.7411145 51.9778698 15.0481928 51.676768 14.8218373 46.92049z"/>
  </g>
</svg>
