<svg xmlns="http://www.w3.org/2000/svg" width="77" height="77" viewBox="0 0 77 77">
  <g fill="none" fill-rule="evenodd" transform="translate(18.5 9)">
    <path fill="#FEBBBA" fill-rule="nonzero" d="M40.4392945,27.5663161 C39.4124569,27.7973386 29.6439966,30.2789566 29.6439966,30.2789566 L27.5900073,33.6866195 L28.9829895,35.2819454 L42.692999,28.5881588 C42.692999,28.5881588 41.4645621,27.3356195 40.4392945,27.5663161 Z M30.7964413,32.8834173 C30.3612129,32.8619116 30.026156,32.4774173 30.0465672,32.0267768 C30.0682344,31.5754847 30.4378332,31.2274847 30.8733756,31.249642 C31.307662,31.2714734 31.6433468,31.6553161 31.6219936,32.1066083 C31.6000124,32.5575746 31.2307277,32.9059004 30.7964413,32.8834173 Z" transform="rotate(180 35.142 31.41)"/>
    <path fill="#FEDBDA" d="M39.8555366,40.9222222 L26.7754167,40.9222222 L26.7754167,29.3222222 L31.0436692,29.6113161 C31.0436692,29.6113161 36.2367346,31.0554069 38.2031444,34.1826509 C39.0442596,35.5203031 39.5255949,36.9467075 39.801043,38.1411975 L39.8555366,40.9222222 Z"/>
    <path fill="#F1F1F1" d="M36.6045319,29.8285064 L31.2719072,29.8285064 L31.2719072,38.0860243 L39.8477539,38.0860243 L39.8477539,58 L36.0927588,58 C36.105476,57.8944419 36.112027,57.7869017 36.112027,57.6777778 C36.112027,56.2541104 34.996999,55.1 33.6215424,55.1 C32.2460857,55.1 31.1310577,56.2541104 31.1310577,57.6777778 C31.1310577,57.7869017 31.1376088,57.8944419 31.1503259,58 L31.1503259,58 L27.0647521,58 C27.0774692,57.8944419 27.0840202,57.7869017 27.0840202,57.6777778 C27.0840202,56.2541104 25.9689923,55.1 24.5935356,55.1 C23.2180789,55.1 22.103051,56.2541104 22.103051,57.6777778 C22.103051,57.7869017 22.109602,57.8944419 22.1223192,58 L18.0367453,58 C18.0494625,57.8944419 18.0560135,57.7869017 18.0560135,57.6777778 C18.0560135,56.2541104 16.9409855,55.1 15.5655289,55.1 C14.1900722,55.1 13.0750443,56.2541104 13.0750443,57.6777778 C13.0750443,57.7869017 13.0815953,57.8944419 13.0943124,58 L9.00873857,58 C9.02145573,57.8944419 9.02800675,57.7869017 9.02800675,57.6777778 C9.02800675,56.2541104 7.9129788,55.1 6.53752213,55.1 C5.16206545,55.1 4.04703751,56.2541104 4.04703751,57.6777778 C4.04703751,57.7869017 4.05358852,57.8944419 4.06630569,58 L0,58 L0,1.42347245e-13 L4.22806991,1.42347245e-13 C4.11132536,0.298516796 4.04703751,0.624820968 4.04703751,0.966666667 C4.04703751,2.39033402 5.16206545,3.54444444 6.53752213,3.54444444 C7.9129788,3.54444444 9.02800675,2.39033402 9.02800675,0.966666667 C9.02800675,0.624820968 8.96371889,0.298516796 8.84697434,1.42443835e-13 L13.2560767,1.42347245e-13 C13.1393321,0.298516796 13.0750443,0.624820968 13.0750443,0.966666667 C13.0750443,2.39033402 14.1900722,3.54444444 15.5655289,3.54444444 C16.9409855,3.54444444 18.0560135,2.39033402 18.0560135,0.966666667 C18.0560135,0.624820968 17.9917256,0.298516796 17.8749811,-5.91171556e-12 L22.2840834,1.42347245e-13 C22.1673389,0.298516796 22.103051,0.624820968 22.103051,0.966666667 C22.103051,2.39033402 23.2180789,3.54444444 24.5935356,3.54444444 C25.9689923,3.54444444 27.0840202,2.39033402 27.0840202,0.966666667 C27.0840202,0.624820968 27.0197324,0.298516796 26.9029878,-5.91171556e-12 L31.3120902,1.42347245e-13 C31.1953456,0.298516796 31.1310577,0.624820968 31.1310577,0.966666667 C31.1310577,2.39033402 32.2460857,3.54444444 33.6215424,3.54444444 C34.996999,3.54444444 36.112027,2.39033402 36.112027,0.966666667 C36.112027,0.624820968 36.0477391,0.298516796 35.9309946,-5.91171556e-12 L39.8477539,1.42347245e-13 L39.8477539,28.2439173"/>
    <rect width="3.736" height="1.611" x="2.455" y="29.007" fill="#FBCFCE" rx=".806"/>
    <rect width="3.736" height="1.611" x="9.063" y="29.007" fill="#FBCFCE" rx=".806"/>
    <rect width="3.736" height="1.611" x="15.706" y="29.007" fill="#FBCFCE" rx=".806"/>
    <rect width="3.736" height="1.611" x="22.661" y="29.007" fill="#FBCFCE" rx=".806"/>
    <path fill="#FBCFCE" d="M31.2596218,30.6183521 L30.1889828,30.6183521 C29.8466259,30.6183521 29.5690908,30.3303177 29.5690908,29.9723347 L29.5690908,29.6532583 C29.5690908,29.2964728 29.8453102,29.0072409 30.1919585,29.0072409 L31.2418337,29.0072409 L32.6858545,29.0072409 C33.0276984,29.0072409 33.3151175,29.4548135 33.3151175,29.8127965 L31.2596218,29.8127965 L31.2596218,30.0649162 L31.2596218,30.6183521 Z"/>
    <rect width="21.501" height="1.933" x="6.849" y="9.667" fill="#FEBBBA" rx=".967"/>
    <rect width="16.519" height="1.933" x="6.849" y="14.178" fill="#FEBBBA" rx=".967"/>
    <rect width="12.848" height="1.933" x="6.849" y="18.689" fill="#FEBBBA" rx=".967"/>
    <g fill="#FEBBBA" fill-rule="nonzero" transform="rotate(180 25.5 17.433)">
      <path d="M11.8919317,6.88984465 C11.8919317,6.88984465 16.6388405,8.50982829 17.4371102,8.69669907 C18.2346174,8.88409404 18.8244218,8.67599389 19.593964,7.94502247 L14.0467517,5.74896312 L11.8919317,6.88984465 Z"/>
      <polygon points="7.851 5.285 8.72 3.824 7.731 3.395 7.072 4.942"/>
      <path d="M6.46191763 7.70154006C5.78008338 6.57035589 4.07727732 6.33971593 2.60988459 7.19753933 1.11300163 8.07239863.430404695 9.74480044 1.08351141 10.9333825 1.73763502 12.1224888 3.48010034 12.3772411 4.9769833 11.5015955 5.74245792 11.0544685 6.29361999 10.3976688 6.5630996 9.70260381 7.0374854 9.0804001 8.27760005 8.20973425 8.27760005 8.20973425L7.20883375 6.96506473C7.13587088 7.01014436 6.7291092 7.33330239 6.46191763 7.70154006zM4.44361705 10.5323835C3.62145002 11.012534 2.66454319 10.8723153 2.30557601 10.2191849 1.94686306 9.56736492 2.32159225 8.64795017 3.14375928 8.16779971 3.96490941 7.68764924 4.9223247 7.82760576 5.28180033 8.48021202 5.6407675 9.13334245 5.26502141 10.0514468 4.44361705 10.5323835zM5.47399522 4.3638129L5.47323254 4.36826844C5.6455978 4.20393747 5.92117883 4.24560992 6.1375252 4.29802809 6.59055601 4.40731998 6.72758385 4.77870274 6.72758385 4.77870274L7.38628353 3.22319345C7.38628353 3.22319345 6.55623549 2.71919272 5.89499355 1.69808671L5.89423087 1.70096971C5.47145296.960563019 4.65081128.355395213 3.62526341.126851979 1.94406657-.246365413.35489956.533092819.0747424574 1.86870787-.205160419 3.20432291.931992684 4.5902594 2.61318952 4.96426307 3.72492002 5.21141475 4.794449 4.95246898 5.47399522 4.3638129zM1.44730888 2.17430581C1.60035296 1.44097557 2.47361942 1.01219492 3.39722265 1.21767416 4.32057165 1.42262921 4.94520504 2.18426527 4.79114406 2.91759551 4.63809998 3.65092574 3.76483351 4.07944431 2.84123029 3.87370298 1.91788129 3.66927211 1.29350212 2.90789814 1.44730888 2.17430581z"/>
    </g>
  </g>
</svg>
