<svg xmlns="http://www.w3.org/2000/svg" width="120" height="120" viewBox="0 0 120 120">
  <g fill="none" fill-rule="evenodd" transform="translate(19 15)">
    <polygon fill="#2D2119" points="18.159 52.753 28.839 52.753 28.839 45.874 18.159 45.874"/>
    <path fill="#AAA" d="M27.1857478,69.6485525 C25.9912696,69.6485525 25.0234174,68.6768115 25.0234174,67.477364 L25.0234174,47.6132374 L21.9415913,47.6132374 L21.9415913,67.477364 C21.9415913,68.6768115 20.9722957,69.6485525 19.7785391,69.6485525 C18.5840609,69.6485525 17.6169304,68.6768115 17.6169304,67.477364 L17.6169304,45.4398734 C17.6169304,44.2404259 18.5840609,43.2686849 19.7785391,43.2686849 L27.1857478,43.2686849 C28.3795043,43.2686849 29.3473565,44.2404259 29.3473565,45.4398734 L29.3473565,67.477364 C29.3473565,68.6768115 28.3795043,69.6485525 27.1857478,69.6485525"/>
    <path fill="#CFCFCF" d="M27.4766087,31.6832115 L19.5475826,31.6832115 C18.7637739,31.6832115 18.0333739,31.2785612 17.6162087,30.6106705 L5.84464348,11.7828259 C5.17342609,10.7102849 5.49604348,9.29473381 6.56349565,8.62176691 C7.62878261,7.94734964 9.03833913,8.27077986 9.71027826,9.34404604 L20.8091826,27.0971741 L26.1565478,27.0971741 L36.4283391,9.17725468 C37.0576957,8.08078273 38.4535391,7.70296403 39.5455304,8.33532086 C40.6375217,8.96622734 41.0135478,10.3694504 40.384913,11.4666475 L29.4534522,30.5345266 C29.0463913,31.2452029 28.2914522,31.6832115 27.4766087,31.6832115"/>
    <polyline fill="#FBCFCE" points="25.043 25.42 25.043 23.849 21.021 23.849 21.021 25.42 18.605 25.42 18.605 38.552 27.76 38.552 27.76 25.42 25.043 25.42"/>
    <path fill="#CFCFCF" d="M29.4274696,45.2709065 L17.5606348,45.2709065 L17.8839739,25.4198331 L21.0206522,25.4198331 C21.0206522,25.4198331 21.4435913,27.8687655 22.9787304,27.8687655 C24.5326348,27.8687655 25.0429043,25.4198331 25.0429043,25.4198331 L28.9605043,25.4198331 L29.4274696,45.2709065"/>
    <path fill="#FBCFCE" d="M34.5554261,12.7603683 C34.5554261,19.1557295 29.395713,24.3385899 23.0314174,24.3385899 C16.6664,24.3385899 11.5074087,19.1557295 11.5074087,12.7603683 C11.5074087,6.36500719 16.6664,1.18142158 23.0314174,1.18142158 C29.395713,1.18142158 34.5554261,6.36500719 34.5554261,12.7603683"/>
    <path fill="#666" d="M19.5894435 13.0547914C19.5894435 13.7212317 19.0531913 14.2614906 18.3891913 14.2614906 17.7266348 14.2614906 17.1896609 13.7212317 17.1896609 13.0547914 17.1896609 12.3883511 17.7266348 11.8495424 18.3891913 11.8495424 19.0531913 11.8495424 19.5894435 12.3883511 19.5894435 13.0547914M28.7678 13.0547914C28.7678 13.7212317 28.2293826 14.2614906 27.5668261 14.2614906 26.9042696 14.2614906 26.3658522 13.7212317 26.3658522 13.0547914 26.3658522 12.3883511 26.9042696 11.8495424 27.5668261 11.8495424 28.2293826 11.8495424 28.7678 12.3883511 28.7678 13.0547914"/>
    <path fill="#F69A98" d="M24.5521217,15.4667396 C24.5521217,16.1331799 23.7885217,16.674164 22.8452087,16.674164 C21.9026174,16.674164 21.1375739,16.1331799 21.1375739,15.4667396 C21.1375739,14.8010245 21.9026174,14.2614906 22.8452087,14.2614906 C23.7885217,14.2614906 24.5521217,14.8010245 24.5521217,15.4667396"/>
    <path fill="#9E9E9E" d="M23.1259652,20.7387971 C21.9632435,20.7387971 20.5998783,20.3472 19.1130957,19.1753094 C18.9283304,19.0295482 18.8951304,18.7590561 19.0409217,18.5726849 C19.1859913,18.3863137 19.4552,18.3544058 19.6399652,18.5008921 C23.4853913,21.5321439 26.2575913,18.6676835 26.374513,18.5444029 C26.5369043,18.3732604 26.8068348,18.3645583 26.977887,18.5262734 C27.1496609,18.6872633 27.1576,18.9584806 26.9973739,19.1310734 C26.9757217,19.1550043 25.4600696,20.7387971 23.1259652,20.7387971"/>
    <path fill="#AAA" d="M34.6615217,12.7603683 C33.4143565,12.5486158 29.6367739,8.93359424 29.3163217,7.43247194 C27.636113,8.33894676 26.6480522,9.04164604 24.0880435,9.79148201 C24.050513,7.3258705 24.0266957,7.43464748 23.3648609,5.71742158 C21.9538609,9.47022734 14.4853043,12.3317871 11.4005913,12.7603683 C11.4005913,6.30554245 16.6079391,1.07336978 23.0314174,1.07336978 C29.4548957,1.07336978 34.6615217,6.30554245 34.6615217,12.7603683"/>
    <path fill="#275897" d="M24.648113 67.477364C24.648113 66.1945209 25.776913 65.1531626 27.1705913 65.1531626 28.5642696 65.1531626 29.6930696 66.1945209 29.6930696 67.477364 29.6930696 68.7602072 28.5642696 69.8001151 27.1705913 69.8001151 25.776913 69.8001151 24.648113 68.7602072 24.648113 67.477364M17.2704957 67.477364C17.2704957 66.1945209 18.4000174 65.1531626 19.7929739 65.1531626 21.1866522 65.1531626 22.3147304 66.1945209 22.3147304 67.477364 22.3147304 68.7602072 21.1866522 69.8001151 19.7929739 69.8001151 18.4000174 69.8001151 17.2704957 68.7602072 17.2704957 67.477364"/>
    <polygon fill="#2D2119" points="53.137 52.845 63.816 52.845 63.816 45.966 53.137 45.966"/>
    <path fill="#CFCFCF" d="M62.1626696,69.7413755 C60.9696348,69.7413755 60.0010609,68.7689094 60.0010609,67.5694619 L60.0010609,47.7053353 L56.9170696,47.7053353 L56.9170696,67.5694619 C56.9170696,68.7689094 55.9499391,69.7413755 54.7561826,69.7413755 C53.5617043,69.7413755 52.5938522,68.7689094 52.5938522,67.5694619 L52.5938522,45.5326964 C52.5938522,44.3332489 53.5617043,43.3607827 54.7561826,43.3607827 L62.1626696,43.3607827 C63.3571478,43.3607827 64.325,44.3332489 64.325,45.5326964 L64.325,67.5694619 C64.325,68.7689094 63.3571478,69.7413755 62.1626696,69.7413755"/>
    <path fill="#F69A98" d="M62.5026087,30.584564 L62.5004435,30.584564 L54.434287,30.5773122 C53.681513,30.5773122 52.9799826,30.205295 52.5541565,29.5830906 L41.0301478,12.7154072 C40.3170696,11.6725986 40.5805043,10.2439942 41.6205304,9.52824173 C42.6583913,8.81031367 44.0794957,9.07645468 44.7932957,10.1199885 L55.6374261,25.9934504 L61.2518348,25.9970763 L71.3143217,10.1453698 C71.9920348,9.07863022 73.4037565,8.76390216 74.464713,9.4462964 C75.5278348,10.1279655 75.8403478,11.5442417 75.161913,12.6124317 L64.4267652,29.5243511 C64.0074348,30.1849899 63.2813652,30.584564 62.5026087,30.584564"/>
    <polyline fill="#D7CA9F" points="60.021 25.511 60.021 23.941 55.997 23.941 55.997 25.511 53.582 25.511 53.582 38.644 62.737 38.644 62.737 25.511 60.021 25.511"/>
    <path fill="#F69A98" d="M64.405113,45.3622791 L52.5382783,45.3622791 L52.3809391,25.5112058 L55.9968522,25.5112058 C55.9968522,25.5112058 56.4219565,27.9608633 57.9563739,27.9608633 C59.5102783,27.9608633 60.0212696,25.5112058 60.0212696,25.5112058 L64.6584435,25.5112058 L64.405113,45.3622791"/>
    <path fill="#FBCFCE" d="M69.5323478,12.8524662 C69.5323478,19.2478273 64.3740783,24.4306878 58.0097826,24.4306878 C51.6447652,24.4306878 46.4857739,19.2478273 46.4857739,12.8524662 C46.4857739,6.45710504 51.6447652,1.27351942 58.0097826,1.27351942 C64.3740783,1.27351942 69.5323478,6.45710504 69.5323478,12.8524662"/>
    <path fill="#666" d="M54.5678087 13.1468892C54.5678087 13.8140547 54.030113 14.3535885 53.3668348 14.3535885 52.705 14.3535885 52.1673043 13.8140547 52.1673043 13.1468892 52.1673043 12.4811741 52.705 11.9416403 53.3668348 11.9416403 54.030113 11.9416403 54.5678087 12.4811741 54.5678087 13.1468892M63.7447217 13.1468892C63.7447217 13.8140547 63.2070261 14.3535885 62.5437478 14.3535885 61.8804696 14.3535885 61.3442174 13.8140547 61.3442174 13.1468892 61.3442174 12.4811741 61.8804696 11.9416403 62.5437478 11.9416403 63.2070261 11.9416403 63.7447217 12.4811741 63.7447217 13.1468892"/>
    <path fill="#F69A98" d="M59.5297652,15.5588374 C59.5297652,16.2252777 58.7647217,16.7655367 57.8228522,16.7655367 C56.8795391,16.7655367 56.1152174,16.2252777 56.1152174,15.5588374 C56.1152174,14.8931223 56.8795391,14.3535885 57.8228522,14.3535885 C58.7647217,14.3535885 59.5297652,14.8931223 59.5297652,15.5588374"/>
    <path fill="#9E9E9E" d="M58.102887,20.830895 C56.940887,20.830895 55.5760783,20.4385727 54.0907391,19.2674072 C53.9059739,19.121646 53.8734957,18.851154 54.0178435,18.6647827 C54.1643565,18.4776863 54.4321217,18.4472288 54.6176087,18.5929899 C58.4630348,21.6242417 61.2359565,18.7597813 61.3528783,18.6365007 C61.5152696,18.4653583 61.7852,18.4566561 61.9562522,18.6183712 C62.1273043,18.7793612 62.1359652,19.0498532 61.9757391,19.222446 C61.9533652,19.2478273 60.4384348,20.830895 58.102887,20.830895"/>
    <path fill="#AAA" d="M69.639887,12.8524662 C68.3927217,12.6414388 64.6136957,9.02569209 64.294687,7.52529496 C62.6130348,8.4310446 61.6264174,9.13374388 59.0649652,9.88357986 C59.0288783,7.41796835 59.0043391,7.52674532 58.3417826,5.8102446 C56.9300609,9.5616 49.4615043,12.4246101 46.377513,12.8524662 C46.377513,6.39764029 51.5855826,1.16546763 58.0097826,1.16546763 C64.4325391,1.16546763 69.639887,6.39764029 69.639887,12.8524662"/>
    <path fill="#EFAA2C" d="M59.6257565 67.5694619C59.6257565 66.2858935 60.7545565 65.2459856 62.1482348 65.2459856 63.541913 65.2459856 64.670713 66.2858935 64.670713 67.5694619 64.670713 68.852305 63.541913 69.8922129 62.1482348 69.8922129 60.7545565 69.8922129 59.6257565 68.852305 59.6257565 67.5694619M52.2481391 67.5694619C52.2481391 66.2858935 53.3776609 65.2459856 54.7706174 65.2459856 56.1642957 65.2459856 57.2930957 66.2858935 57.2930957 67.5694619 57.2930957 68.852305 56.1642957 69.8922129 54.7706174 69.8922129 53.3776609 69.8922129 52.2481391 68.852305 52.2481391 67.5694619"/>
    <path fill="#CFCFCF" d="M22.2274 86.5031827C22.2274 88.3988029 20.6965913 89.9361842 18.8099652 89.9361842L13.4005304 89.9361842C11.5131826 89.9361842 9.98381739 88.3988029 9.98381739 86.5031827L9.98381739 75.0591194C9.98381739 73.1627741 11.5131826 71.6253928 13.4005304 71.6253928L18.8099652 71.6253928C20.6965913 71.6253928 22.2274 73.1627741 22.2274 75.0591194L22.2274 86.5031827M60.7993043 86.5031827C60.7993043 88.3988029 62.3286696 89.9361842 64.2152957 89.9361842L69.6254522 89.9361842C71.5128 89.9361842 73.042887 88.3988029 73.042887 86.5031827L73.042887 75.0591194C73.042887 73.1627741 71.5128 71.6253928 69.6254522 71.6253928L64.2152957 71.6253928C62.3286696 71.6253928 60.7993043 73.1627741 60.7993043 75.0591194L60.7993043 86.5031827"/>
    <polyline fill="#CFCFCF" points="71.715 50.013 75.167 47.256 73.569 45.237 70.116 47.992 71.715 50.013"/>
    <path fill="#CFCFCF" d="M72.5073565,44.3789353 C72.5073565,46.6204662 74.3167565,48.4384921 76.5476522,48.4384921 C78.7799913,48.4384921 80.5886696,46.6204662 80.5886696,44.3789353 C80.5886696,42.1366791 78.7799913,40.3186532 76.5476522,40.3186532 C74.3167565,40.3186532 72.5073565,42.1366791 72.5073565,44.3789353"/>
    <polyline fill="#CFCFCF" points="11.31 50.013 7.86 47.256 9.458 45.237 12.909 47.992 11.31 50.013"/>
    <path fill="#CFCFCF" d="M10.5186261,44.3789353 C10.5186261,46.6204662 8.70850435,48.4384921 6.47833043,48.4384921 C4.2459913,48.4384921 2.4365913,46.6204662 2.4365913,44.3789353 C2.4365913,42.1366791 4.2459913,40.3186532 6.47833043,40.3186532 C8.70850435,40.3186532 10.5186261,42.1366791 10.5186261,44.3789353"/>
    <path fill="#F1F1F1" d="M15.8594957,49.4182101 C15.916513,48.3304403 16.8930261,36.2794014 21.0278696,31.3692086 C23.8772957,27.9855194 35.5398783,26.4996259 41.5627913,26.4996259 C47.5864261,26.4996259 59.2490087,27.9855194 62.0998783,31.3692086 C66.234,36.2794014 67.210513,48.3304403 67.2675304,49.4182101 C67.8442,49.5204604 15.025887,49.5668719 15.8594957,49.4182101 Z M65.705687,29.201646 C61.8869652,24.6670964 47.8390348,23.0709755 41.7381739,23.0709755 C35.637313,23.0709755 21.2350087,24.6670964 17.4155652,29.201646 C13.1435913,34.2742791 11.5882435,44.7183194 11.1458174,50.695977 C11.371,50.6270849 42.0593478,50.695977 42.0593478,50.695977 C42.0593478,50.695977 71.2818435,50.4842245 71.9761565,50.695977 C71.5337304,44.7183194 69.9783826,34.2742791 65.705687,29.201646 L65.705687,29.201646 Z"/>
    <path fill="#F1F1F1" d="M49.4427391,49.1230619 C57.0007913,49.4276374 64.560287,51.0172317 72.1176174,52.5495367 C72.1031826,52.2667165 72.0584348,51.4965755 71.9761565,50.3739971 C70.5557739,49.9388892 62.5285913,45.9779568 41.5779478,45.9779568 C20.6265826,45.9779568 12.5662,49.9388892 11.1458174,50.3739971 C11.0556,51.5843223 11.0122957,52.3870964 11.0014696,52.6090014 C10.4183043,52.7997237 9.86256522,53.0441094 9.3328087,53.3341813 C22.3443217,49.5850014 35.9722,48.6451683 49.4427391,49.1230619"/>
    <path fill="#F1F1F1" d="M79.0246609,61.9108835 C78.9062957,57.5612547 76.0489304,53.9005468 72.1212261,52.6090014 C72.1205043,52.5923223 72.1190609,52.5712921 72.1176174,52.5495367 C64.560287,51.0172317 57.0007913,49.4276374 49.4427391,49.1230619 C35.9722,48.6451683 22.3443217,49.5850014 9.3328087,53.3341813 C6.28706957,55.0006446 4.19763478,58.2052144 4.09803478,61.9108835 L4.09009565,61.921036 L4.09009565,74.6907281 L41.5433043,75.8147568 L41.5433043,75.815482 L41.5599043,75.8147568 L41.5779478,75.815482 L41.5779478,75.8147568 L79.0304348,74.6907281 L79.0304348,61.921036 L79.0246609,61.9108835"/>
    <path fill="#E5E5E5" d="M80.7972522,72.9154878 L2.32472174,72.9154878 C1.26087826,72.9154878 0.397678261,73.7828029 0.397678261,74.8524432 L0.397678261,78.883718 C0.397678261,79.9533583 1.26087826,80.8199482 2.32472174,80.8199482 L80.7972522,80.8199482 C81.8603739,80.8199482 82.7228522,79.9533583 82.7228522,78.883718 L82.7228522,74.8524432 C82.7228522,73.7828029 81.8603739,72.9154878 80.7972522,72.9154878"/>
    <path fill="#F69A98" d="M63.7382261,61.7491683 C63.7382261,64.7985496 66.1986348,67.2699626 69.2335478,67.2699626 C72.2677391,67.2699626 74.7295913,64.7985496 74.7295913,61.7491683 C74.7295913,58.6997871 72.2677391,56.2269237 69.2335478,56.2269237 C66.1986348,56.2269237 63.7382261,58.6997871 63.7382261,61.7491683"/>
    <path fill="#F69A98" d="M69.2335478 57.4343482C66.8662435 57.4343482 64.9392 59.3705784 64.9392 61.7491683 64.9392 64.1284835 66.8662435 66.0639885 69.2335478 66.0639885 71.6015739 66.0639885 73.5271739 64.1284835 73.5271739 61.7491683 73.5271739 59.3705784 71.6015739 57.4343482 69.2335478 57.4343482zM69.2335478 68.4781122C65.5411304 68.4781122 62.5372522 65.4599137 62.5372522 61.7491683 62.5372522 58.038423 65.5411304 55.0202245 69.2335478 55.0202245 72.9259652 55.0202245 75.9305652 58.038423 75.9305652 61.7491683 75.9305652 65.4599137 72.9259652 68.4781122 69.2335478 68.4781122L69.2335478 68.4781122zM9.6316087 61.7491683C9.6316087 64.7985496 12.0920174 67.2699626 15.1269304 67.2699626 18.1618435 67.2699626 20.6229739 64.7985496 20.6229739 61.7491683 20.6229739 58.6997871 18.1618435 56.2269237 15.1269304 56.2269237 12.0920174 56.2269237 9.6316087 58.6997871 9.6316087 61.7491683"/>
    <path fill="#F69A98" d="M15.1269304,57.4343482 C12.7589043,57.4343482 10.8333043,59.3705784 10.8333043,61.7491683 C10.8333043,64.1284835 12.7589043,66.0639885 15.1269304,66.0639885 C17.4949565,66.0639885 19.4205565,64.1284835 19.4205565,61.7491683 C19.4205565,59.3705784 17.4949565,57.4343482 15.1269304,57.4343482 Z M15.1269304,68.4781122 C11.434513,68.4781122 8.43135652,65.4599137 8.43135652,61.7491683 C8.43135652,58.038423 11.434513,55.0202245 15.1269304,55.0202245 C18.8193478,55.0202245 21.8232261,58.038423 21.8232261,61.7491683 C21.8232261,65.4599137 18.8193478,68.4781122 15.1269304,68.4781122 L15.1269304,68.4781122 Z"/>
    <path fill="#C1C1C1" d="M29.9514522 58.8288691L53.1698 58.8288691C53.7912174 58.8288691 54.2942696 58.3234187 54.2942696 57.6983137 54.2942696 57.0753842 53.7912174 56.5699338 53.1698 56.5699338L29.9514522 56.5699338C29.3307565 56.5699338 28.8284261 57.0753842 28.8284261 57.6983137 28.8284261 58.3234187 29.3307565 58.8288691 29.9514522 58.8288691M53.1698 60.3880058L29.9514522 60.3880058C29.3307565 60.3880058 28.8284261 60.8934561 28.8284261 61.5171108 28.8284261 62.1407655 29.3307565 62.646941 29.9514522 62.646941L53.1698 62.646941C53.7912174 62.646941 54.2942696 62.1407655 54.2942696 61.5171108 54.2942696 60.8934561 53.7912174 60.3880058 53.1698 60.3880058M53.1698 64.2053525L29.9514522 64.2053525C29.3307565 64.2053525 28.8284261 64.7115281 28.8284261 65.3351827 28.8284261 65.9581122 29.3307565 66.4635626 29.9514522 66.4635626L53.1698 66.4635626C53.7912174 66.4635626 54.2942696 65.9581122 54.2942696 65.3351827 54.2942696 64.7115281 53.7912174 64.2053525 53.1698 64.2053525"/>
    <path fill="#CFCFCF" d="M52.5491043,71.6942849 L30.5721478,71.6942849 C29.5075826,71.6942849 28.6458261,72.5608748 28.6458261,73.6297899 L28.6458261,79.9062216 C28.6458261,80.9751367 29.5075826,81.8410014 30.5721478,81.8410014 L52.5491043,81.8410014 C53.6129478,81.8410014 54.4754261,80.9751367 54.4754261,79.9062216 L54.4754261,73.6297899 C54.4754261,72.5608748 53.6129478,71.6942849 52.5491043,71.6942849"/>
  </g>
</svg>
