<svg xmlns="http://www.w3.org/2000/svg" width="36" height="36" viewBox="0 0 36 36">
  <path fill="#F69A98" d="M15,0.127828235 L0,6.12782824 L15,12.1278353 L30,6.12782824 L15,0.127828235 Z M1.66666667,7.53959294 L1.66666667,10.5175412 C1.87186667,10.4219294 2.09476667,10.3631294 2.33333333,10.3631294 C2.5719,10.3631294 2.7948,10.4219294 3,10.5175412 L3,8.06900471 L1.66666667,7.53959294 Z M5.66666667,9.13884706 L5.66666667,14.2454824 C5.66666667,15.7229647 9.82933333,17.7748941 15,17.7748941 C20.1706667,17.7748941 24.3333333,15.7229647 24.3333333,14.2454824 L24.3333333,9.13884706 L15.2396,12.7785882 C15.0853863,12.8414675 14.9146137,12.8414675 14.7604,12.7785882 L5.66666667,9.13884706 L5.66666667,9.13884706 Z M2.33333333,11.0690118 C1.78106667,11.0690118 1.33333333,11.5430471 1.33333333,12.1278353 C1.33333333,12.7126235 1.78106667,13.1866588 2.33333333,13.1866588 C2.8856,13.1866588 3.33333333,12.7126235 3.33333333,12.1278353 C3.33333333,11.5430471 2.8856,11.0690118 2.33333333,11.0690118 Z" transform="translate(3 9)"/>
</svg>
