<svg xmlns="http://www.w3.org/2000/svg" width="77" height="77" viewBox="0 0 77 77">
  <g fill="none" fill-rule="evenodd" transform="translate(11 5)">
    <path fill="#FFEBEB" d="M25.3795757,15.2803215 C25.3795757,7.07542057 19.778582,0.424563183 12.8699482,0.424563183 C5.96115874,0.424563183 0.360320586,7.07542057 0.360320586,15.2803215 C0.360320586,23.0786854 5.42176687,29.4691124 11.8555741,30.0831082 L9.7686396,33.7566471 L15.9711011,33.7566471 L13.8841666,30.0831082 C20.3181294,29.4691124 25.3795757,23.0786854 25.3795757,15.2803215"/>
    <path fill="#CFCFCF" d="M10.3749303,33.4008679 L15.364966,33.4008679 L13.5812546,30.2609979 C13.5213567,30.1560035 13.5185563,30.0274486 13.5731645,29.9197661 C13.6279282,29.8119255 13.732944,29.7402952 13.8513395,29.7289103 C20.1194552,29.130885 25.0295233,22.7842584 25.0295233,15.2803215 C25.0295233,7.28477687 19.5746181,0.780342388 12.8699482,0.780342388 C6.16512259,0.780342388 0.710372968,7.28477687 0.710372968,15.2803215 C0.710372968,22.7842584 5.62028549,29.130885 11.8884013,29.7289103 C12.0069523,29.7402952 12.1119681,29.8119255 12.1665762,29.9197661 C12.22134,30.0274486 12.218384,30.1560035 12.1584861,30.2609979 L10.3749303,33.4008679 Z M15.9711011,34.1124263 L9.7686396,34.1124263 C9.64339863,34.1124263 9.52795912,34.0445911 9.46557202,33.9345367 C9.40287377,33.8244824 9.40287377,33.6888119 9.46557202,33.5787575 L11.2867779,30.3727916 C8.27306026,29.934946 5.49691149,28.2544032 3.42086747,25.5971278 C1.22160503,22.7815702 0.0102682033,19.1175188 0.0102682033,15.2803215 C0.0102682033,6.89262909 5.77913147,0.0687839792 12.8699482,0.0687839792 C19.9607648,0.0687839792 25.7296281,6.89262909 25.7296281,15.2803215 C25.7296281,19.1175188 24.517669,22.7815702 22.3188733,25.5971278 C20.2428293,28.2544032 17.4668361,29.934946 14.4529628,30.3727916 L16.2741687,33.5787575 C16.3370225,33.6888119 16.3370225,33.8244824 16.2741687,33.9345367 C16.2117816,34.0445911 16.0963421,34.1124263 15.9711011,34.1124263 L15.9711011,34.1124263 Z"/>
    <path fill="#F69A98" d="M22.172318,14.7321053 C22.172318,20.7966385 17.6062347,25.7128746 11.973814,25.7128746 C6.34108223,25.7128746 1.77515453,20.7966385 1.77515453,14.7321053 C1.77515453,8.6674139 6.34108223,3.7511778 11.973814,3.7511778 C17.6062347,3.7511778 22.172318,8.6674139 22.172318,14.7321053"/>
    <path fill="#F9F9F9" d="M11.9713248 9.5791574C11.9713248 9.38324164 11.9142274 9.23634436 11.8003436 9.13862369 11.6863043 9.04058675 11.5612189 8.99141019 11.4244652 8.99141019 11.2877114 8.99141019 11.1621593 9.04058675 11.0482755 9.13862369 10.9342362 9.23634436 10.87745 9.38324164 10.87745 9.5791574L10.87745 21.0671888C10.87745 21.2629465 10.9342362 21.4100019 11.0482755 21.5077226 11.1621593 21.6057595 11.2877114 21.6546199 11.4244652 21.6546199 11.5612189 21.6546199 11.6863043 21.6057595 11.8003436 21.5077226 11.9142274 21.4100019 11.9713248 21.2629465 11.9713248 21.0671888L11.9713248 9.5791574zM13.4298764 21.0303459C13.4298764 21.2898276 13.3727789 21.5167356 13.2588952 21.7113864 13.144856 21.905879 12.993011 22.0681143 12.8030492 22.1977761 12.6130875 22.3274378 12.3985443 22.4246841 12.159264 22.4896732 11.9199837 22.554504 11.6751027 22.5869195 11.4244652 22.5869195 11.1736721 22.5869195 10.9286354 22.554504 10.6893552 22.4896732 10.4500749 22.4246841 10.2353761 22.3274378 10.0454144 22.1977761 9.85560818 22.0681143 9.70360766 21.905879 9.58972396 21.7113864 9.47568464 21.5167356 9.41889839 21.2898276 9.41889839 21.0303459L9.41889839 9.61584222C9.41889839 9.35636056 9.47568464 9.12929436 9.58972396 8.93480172 9.70360766 8.740151 9.85560818 8.57807379 10.0454144 8.44841205 10.2353761 8.31859217 10.4500749 8.22134586 10.6893552 8.15651496 10.9286354 8.09168411 11.1736721 8.05926864 11.4244652 8.05926864 11.6751027 8.05926864 11.9199837 8.09168411 12.159264 8.15651496 12.3985443 8.22134586 12.6130875 8.31859217 12.8030492 8.44841205 12.993011 8.57807379 13.144856 8.740151 13.2588952 8.93480172 13.3727789 9.12929436 13.4298764 9.35636056 13.4298764 9.61584222L13.4298764 21.0303459 13.4298764 21.0303459zM19.7563342 12.0968092C19.7563342 12.0449445 19.7308193 12.003516 19.6801006 11.9728399 19.6290707 11.9420057 19.5691729 11.9265095 19.5002514 11.9265095 19.4260403 11.9265095 19.3603861 11.9420057 19.3025107 11.9728399 19.2449465 12.003516 19.2161645 12.0449445 19.2161645 12.0968092L19.2161645 14.9715052C19.2161645 14.9974375 19.2391902 15.029853 19.2853971 15.0687515 19.331604 15.10765 19.4030146 15.1270993 19.5002514 15.1270993 19.5691729 15.1270993 19.6290707 15.1117612 19.6801006 15.0810852 19.7308193 15.050251 19.7563342 15.0135662 19.7563342 14.9715052L19.7563342 12.0968092zM20.6314652 14.8654039C20.6314652 14.9658127 20.6011273 15.0597384 20.5409183 15.147181 20.4805537 15.2346236 20.3984081 15.311472 20.2952593 15.3778841 20.1917994 15.4444543 20.0710702 15.4971096 19.9332274 15.5360081 19.7952289 15.5749067 19.6510073 15.5940397 19.5002514 15.5940397 19.3395385 15.5940397 19.188627 15.5749067 19.047517 15.5360081 18.906407 15.4971096 18.7838109 15.4435056 18.6797286 15.3756703 18.5753353 15.3075188 18.4928784 15.227508 18.4322027 15.1350055 18.3713714 15.0428191 18.3410335 14.9449403 18.3410335 14.8410528L18.3410335 12.2076542C18.3410335 12.104241 18.3713714 12.0071528 18.4322027 11.9162315 18.4928784 11.8254683 18.5753353 11.7462481 18.6797286 11.6780966 18.7838109 11.6104195 18.906407 11.5568154 19.047517 11.5179169 19.188627 11.4790184 19.3395385 11.4595691 19.5002514 11.4595691 19.6510073 11.4595691 19.7952289 11.4782277 19.9332274 11.5152288 20.0710702 11.5527042 20.1917994 11.6039364 20.2952593 11.668451 20.3984081 11.7332819 20.4805537 11.8101302 20.5409183 11.8991541 20.6011273 11.9883361 20.6314652 12.086373 20.6314652 12.1932649L20.6314652 14.8654039zM18.5871593 8.06923046L17.2933656 16.6349706 16.3788733 16.6349706 17.6726668 8.06923046 18.5871593 8.06923046zM15.537814 9.75673076C15.537814 9.70834478 15.5122991 9.66786501 15.4618916 9.63544959 15.4108617 9.60287603 15.3484746 9.58690547 15.2747302 9.58690547 15.2053421 9.58690547 15.1420215 9.60287603 15.0841462 9.63544959 15.0264264 9.66786501 14.9977999 9.70834478 14.9977999 9.75673076L14.9977999 12.6269993C14.9977999 12.6564104 15.0208256 12.6894583 15.067188 12.7267755 15.1130838 12.7640929 15.1823164 12.7825934 15.2747302 12.7825934 15.3484746 12.7825934 15.4108617 12.7682041 15.4618916 12.7389511 15.5122991 12.7098563 15.537814 12.672539 15.537814 12.6269993L15.537814 9.75673076zM16.412945 12.5175774C16.412945 12.6178281 16.3816736 12.7123863 16.319131 12.801252 16.2567439 12.8902759 16.1735092 12.9677567 16.0702048 13.0338526 15.9665893 13.1002647 15.8460157 13.1527619 15.7080173 13.1913442 15.5700189 13.2302427 15.4254861 13.2495338 15.2747302 13.2495338 15.1194625 13.2495338 14.9715071 13.2302427 14.831175 13.1913442 14.6909984 13.1527619 14.5691802 13.099474 14.4655647 13.0316388 14.3619492 12.9636455 14.2788701 12.8837928 14.2163274 12.7916064 14.1539403 12.6994201 14.122669 12.6001182 14.122669 12.4935425L14.122669 9.86631078C14.122669 9.76606009 14.1539403 9.67086938 14.2163274 9.58042238 14.2788701 9.48997543 14.3619492 9.41091336 14.4655647 9.34292001 14.5691802 9.27492666 14.6909984 9.22084821 14.831175 9.18052658 14.9713515 9.14036308 15.1191514 9.11996503 15.2742635 9.11996503 15.4250194 9.11996503 15.5695521 9.13862369 15.7077061 9.17562473 15.8458601 9.212942 15.9662782 9.26369986 16.0700492 9.32837262 16.1735092 9.39288724 16.2567439 9.47052614 16.319131 9.56113128 16.3816736 9.6514201 16.412945 9.75008953 16.412945 9.85666518L16.412945 12.5175774 16.412945 12.5175774z"/>
    <polyline fill="#F9F9F9" points="5.133 8.319 5.133 9.403 7.114 9.403 5.773 22.327 7.235 22.327 8.69 8.319 5.133 8.319"/>
    <path fill="#CFCFCF" d="M13.086825 27.4576159C12.901375 27.4576159 12.7465741 27.3097698 12.737395 27.1193884 12.7280603 26.9231564 12.8769492 26.7561774 13.0700225 26.7466899 16.931956 26.5550435 20.2734783 23.4317765 21.5826742 18.7895694 21.6361933 18.6009274 21.8298889 18.4918218 22.0156501 18.5454258 22.2015668 18.5996624 22.3090718 18.796685 22.2560194 18.9854852 20.8624997 23.9252818 17.2704956 27.2504733 13.1042499 27.4574577 13.0981823 27.4576159 13.0925815 27.4576159 13.086825 27.4576159M11.2670194 56.5832828C11.1341551 56.4404967 11.1400671 56.2154863 11.2805547 56.080132 11.3231834 56.039178 15.5454374 51.9171987 15.3116024 47.2588632 15.1788937 44.6159772 14.2230173 43.3353301 12.7759785 41.3968869 12.3748963 40.8594232 11.959812 40.303617 11.5140786 39.6542013 9.28665638 36.4113925 12.6107538 33.513136 12.64467 33.4843574 12.7929366 33.3577001 13.0135474 33.3769912 13.1378549 33.5278416 13.2621624 33.6780594 13.2431818 33.9022794 13.0955375 34.0287787 12.9774531 34.1301362 10.2286862 36.5401055 12.0880089 39.2471899 12.5259633 39.8845881 12.9366914 40.4350181 13.3338842 40.9669475 14.804571 42.9371737 15.8668633 44.3607649 16.0107737 47.2228109 16.2612556 52.2121004 11.9454987 56.420415 11.7617601 56.5971977 11.6942388 56.6621868 11.6075815 56.6944439 11.5213908 56.6944439 11.4283546 56.6944439 11.3359408 56.6572846 11.2670194 56.5832828z"/>
    <g transform="translate(14.087 .767)">
      <path fill="#FEBBBA" fill-rule="nonzero" d="M37.9424574,21.1400279 L21.5348771,13.6111028 C20.7264935,13.2401609 19.7658564,13.5842089 19.3889156,14.3796654 L0.309035345,54.643857 C-0.0678380868,55.4391714 0.281876631,56.3846717 1.09013512,56.7555562 L5.4975152,58.777965 L5.96131582,58.2007127 C7.14477695,56.7277617 9.20955885,56.2456972 10.9425579,57.0409162 C12.675557,57.8361353 13.6275038,59.7024821 13.2415797,61.541398 L13.0903354,62.2620725 L17.4977155,64.2844812 C18.305974,64.6553658 19.2668035,64.3112332 19.6436769,63.5159188 L38.7235572,23.2517272 C39.1004979,22.4562707 38.750841,21.5109698 37.9424574,21.1400279 Z"/>
      <path fill="#CFCFCF" d="M28.5381438,19.1729998 C27.6040442,19.1729998 26.8443298,19.9202882 26.8443298,20.8388097 C26.8443298,21.7570877 27.6040442,22.5046196 28.5381438,22.5046196 C29.4722434,22.5046196 30.2319579,21.7570877 30.2319579,20.8388097 C30.2319579,19.9202882 29.4722434,19.1729998 28.5381438,19.1729998 Z M28.5381438,23.6007074 C26.9894855,23.6007074 25.7296524,22.361641 25.7296524,20.8388097 C25.7296524,19.3159784 26.9894855,18.076912 28.5381438,18.076912 C30.0868021,18.076912 31.3466352,19.3159784 31.3466352,20.8388097 C31.3466352,22.361641 30.0868021,23.6007074 28.5381438,23.6007074 L28.5381438,23.6007074 Z"/>
      <path fill="#CFCFCF" d="M37.9643311,1.35271521 C37.7874267,1.2715393 37.0648165,1.4312409 36.7825839,2.02683514 C36.4774422,2.67077451 31.9320433,13.4643272 29.8840929,18.3334651 C32.3609755,13.6977015 37.8346068,3.4461879 38.1991659,2.67686028 C38.5561933,1.92342694 38.1459499,1.43605438 37.9643311,1.35271521 Z M28.9404762,21.3335498 C28.9319453,21.3296352 28.9241925,21.3258089 28.9158708,21.3214528 C28.7673377,21.2444268 28.6681775,21.1105047 28.6330778,20.9613646 C28.4930844,21.0306975 28.324314,21.0419433 28.168637,20.9788394 C27.8819627,20.8634188 27.7486229,20.5420782 27.8659743,20.2621329 C28.1724134,19.534131 35.3692883,2.41383241 35.7723433,1.56326732 C36.2953836,0.459497416 37.6562841,0.00196299355 38.4350674,0.359322291 C39.2612198,0.738417755 39.7925967,1.90972468 39.2094067,3.14042813 C38.7282095,4.15589644 30.0380724,20.4009737 29.6683201,21.0918606 C29.5298001,21.3518795 29.2080778,21.4563437 28.9404762,21.3335498 Z"/>
      <path fill="#CFCFCF" d="M33.4190094,18.9522666 L32.4087688,18.4886988 C32.929717,17.389344 32.4439232,16.0774318 31.3259235,15.5644167 C30.2079238,15.0514016 28.8743862,15.5284797 28.353438,16.6278345 L27.3431973,16.1642666 C28.1237827,14.5170005 30.1214562,13.8023253 31.7966598,14.5710238 C33.4718634,15.3397223 34.1995949,17.3050005 33.4190094,18.9522666 Z"/>
      <path stroke="#FFF" stroke-dasharray="2.929" stroke-width=".697" d="M34.0128894,31.4378475 L15.7584936,23.0769532 L34.0128894,31.4378475 Z"/>
      <text fill="#FFF" font-family="Roboto-Bold, Roboto" font-size="6.483" font-weight="bold" letter-spacing=".09" transform="rotate(-65 17.862 41.986)">
        <tspan x="4.482" y="43.986">COUPON</tspan>
      </text>
    </g>
  </g>
</svg>
