<svg xmlns="http://www.w3.org/2000/svg" width="77" height="77" viewBox="0 0 77 77">
  <g fill="none" fill-rule="evenodd" transform="translate(16 7)">
    <polygon fill="#FFEBEB" points="3.981 11.128 38.222 11.128 38.222 53.256 3.981 53.256"/>
    <path fill="#F1F1F1" d="M35.195,11.7312983 C36.105,12.2874562 37.156,12.5983394 38.3,12.5983394 L38.3,38.8008466 C38.3,39.0057468 38.281,39.2025722 38.25,39.3963696 L38.25,54.9208466 C38.25,58.3900204 35.461,61.2051282 32.023,61.2051282 L10.3,61.2051282 C6.863,61.2051282 4.074,58.3900204 4.074,54.9208466 L4.074,39.2974522 C4.074,39.2025722 4.078,39.1087017 4.082,39.0178592 C4.078,38.9472039 4.074,38.8755393 4.074,38.8008466 L4.074,12.5983394 C5.257,12.5983394 6.351,12.2591941 7.281,11.671746 L7.281,32.3702076 C7.281,32.3782825 7.281,51.072153 7.281,51.072153 C7.281,51.7423687 7.82,52.2864143 8.484,52.2864143 L33.984,52.2864143 C34.648,52.2864143 35.187,51.7423687 35.187,51.072153 L35.187,32.5155556 C35.191,32.4691249 35.195,11.7312983 35.195,11.7312983 Z"/>
    <path fill="#FEBBBA" d="M23.8888889,56.4363028 C23.8888889,55.1189477 22.820122,54.0512821 21.5004061,54.0512821 C20.1806901,54.0512821 19.1111111,55.1189477 19.1111111,56.4363028 C19.1111111,57.7536579 20.1806901,58.8205128 21.5004061,58.8205128 C22.820122,58.8205128 23.8888889,57.7536579 23.8888889,56.4363028 Z"/>
    <path fill="#F1F1F1" d="M38.281,8.02115901 L4.101,8.02115901 L4.101,7.03097586 C4.101,3.54161485 6.902,0.715404021 10.359,0.715404021 L32.019,0.715404021 C35.476,0.715404021 38.277,3.54161485 38.277,7.03097586 L38.277,8.02115901 L38.281,8.02115901 Z"/>
    <path fill="#FEBBBA" d="M42.382,15.2504355 L42.382,15.4159707 C42.382,17.7778755 40.484,19.6936427 38.144,19.6936427 C35.804,19.6936427 33.906,17.7778755 33.906,15.4159707 C33.906,17.7778755 32.007,19.6936427 29.668,19.6936427 C27.328,19.6936427 25.429,17.7778755 25.429,15.4159707 C25.429,17.7778755 23.531,19.6936427 21.191,19.6936427 C18.851,19.6936427 16.953,17.7778755 16.953,15.4159707 C16.953,17.7778755 15.054,19.6936427 12.714,19.6936427 C10.375,19.6936427 8.476,17.7778755 8.476,15.4159707 C8.476,17.7778755 6.578,19.6936427 4.238,19.6936427 C1.898,19.6936427 0,17.7778755 0,15.4159707 L0,15.2504355 L3.82,7.90127798 L38.578,7.90127798 L42.382,15.2504355 Z"/>
    <path fill="#F69A98" d="M24.543,5.22041514 C24.543,5.00340252 24.367,4.83080179 24.156,4.83080179 L18.226,4.83080179 C18.011,4.83080179 17.839,5.00743997 17.839,5.22041514 C17.839,5.43742776 18.015,5.61103785 18.226,5.61103785 L24.156,5.61103785 C24.371,5.61103785 24.543,5.43742776 24.543,5.22041514 Z"/>
    <g fill-rule="nonzero" transform="translate(9.556 30.205)">
      <path fill="#6E6F73" d="M2.16840399,0.0557307514 L0.617623113,5.86855043 C0.617623113,5.86855043 0.455378567,6.50299966 0.902844813,6.49294406 C1.35031105,6.48288846 7.61239178,6.49294406 7.61239178,6.49294406 C7.61239178,6.49294406 7.86678847,6.49338878 7.99950095,6.1596104 C8.13221346,5.82583199 9.71171386,0.0339360339 9.71171386,0.0339360339 L8.47709409,0.0450176225 L7.06466582,5.30574436 L1.96637974,5.30574436 L3.3993534,0.0443607111 L2.16840399,0.0557307514 Z M10.5534324,0.0446101519 L17.5170353,0.0446101519 C17.5170353,0.0446101519 17.985191,0.171438226 17.8221399,0.668086763 C17.6590887,1.1647353 17.0651105,3.40783899 17.0651105,3.40783899 C17.0651105,3.40783899 16.8468173,3.9191498 16.4035772,3.9191498 L10.6965961,3.9191498 L10.0335172,6.49537117 L8.80264825,6.49449014 L9.84249485,2.69856254 L16.0869555,2.69856254 L16.4712296,1.29728589 L10.2128572,1.29728589 L10.5534324,0.0446101519 Z"/>
      <polygon fill="#6E6F73" points="18.954 .042 20.194 .042 18.477 6.467 17.224 6.467"/>
      <polygon fill="#008D42" points="22.378 .118 23.883 3.265 20.696 6.38"/>
      <polygon fill="#F57A00" points="21.251 .118 22.756 3.265 19.569 6.38"/>
    </g>
  </g>
</svg>
