<svg xmlns="http://www.w3.org/2000/svg" xmlns:xlink="http://www.w3.org/1999/xlink" width="77" height="77" viewBox="0 0 77 77">
  <defs>
    <path id="upi-fig-a" d="M0.481974483,0.975496012 C0.481974483,0.66160197 0.73030388,0.407140572 1.04876579,0.407140572 L9.19936356,0.407140572 C9.51239376,0.407140572 9.76615487,0.661873331 9.76615487,0.975496012 L9.76615487,16.9209874 C9.76615487,17.2348815 9.51782547,17.4893428 9.19936356,17.4893428 L1.04876579,17.4893428 C0.735735594,17.4893428 0.481974483,17.2346101 0.481974483,16.9209874 L0.481974483,0.975496012 Z"/>
  </defs>
  <g fill="none" fill-rule="evenodd" transform="translate(21 4)">
    <g transform="translate(0 2.42)">
      <g fill-rule="nonzero" transform="translate(4.856 29.004)">
        <rect width="23.991" height="33.844" x=".326" y=".019" fill="#FEBBBA" rx="1.413"/>
        <polygon fill="#FFF" points="5.028 10.179 5.028 1.718 6.947 1.718 6.947 10.179"/>
        <polygon fill="#FFF" points="5.028 19.86 5.028 11.399 6.947 11.399 6.947 19.86"/>
        <polygon fill="#FFF" points="5.028 31.142 5.028 22.681 6.947 22.681 6.947 31.142"/>
      </g>
      <g transform="translate(16.324 43.18)">
        <use fill="#FFF" fill-rule="nonzero" xlink:href="#upi-fig-a"/>
        <path fill="#AAA" d="M1.37138944,6.92031412 L2.50753308,6.92031412 L0.703496689,11.8998781 L-0.523393253,11.8998781 L-2.3237998,6.92031412 L-1.18765615,6.92031412 L-0.189446878,9.88352938 C-0.133788871,10.0583713 -0.0763167903,10.2621613 -0.0170289128,10.4949054 C0.0422589647,10.7276495 0.07916209,10.8894326 0.0936815702,10.9802596 C0.120300617,10.7713576 0.211046007,10.4057845 0.365920463,9.88352938 L1.37138944,6.92031412 Z M4.48652834,9.26363837 L4.85677324,9.26363837 C5.20282085,9.26363837 5.46174769,9.19949278 5.63356154,9.07119968 C5.80537539,8.94290657 5.89128103,8.75614641 5.89128103,8.51091357 C5.89128103,8.26341006 5.81928969,8.08062352 5.67530484,7.96254845 C5.53132,7.84447338 5.30566646,7.78543673 4.99833746,7.78543673 L4.48652834,7.78543673 L4.48652834,9.26363837 Z M7.02742467,8.47344763 C7.02742467,9.00932679 6.84895874,9.41917737 6.49202152,9.70301166 C6.1350843,9.98684596 5.62751508,10.128761 4.96929865,10.128761 L4.48652834,10.128761 L4.48652834,11.8998781 L3.36127425,11.8998781 L3.36127425,6.92031412 L5.05641509,6.92031412 C5.70011205,6.92031412 6.18953218,7.05030828 6.52469019,7.31030049 C6.85984819,7.57029271 7.02742467,7.95800455 7.02742467,8.47344763 Z M11.4638297,11.8998781 L11.0790654,10.714592 L9.1443543,10.714592 L8.75959,11.8998781 L7.54721947,11.8998781 L9.42022305,6.89987815 L10.7959369,6.89987815 L12.6762002,11.8998781 L11.4638297,11.8998781 Z M10.8104563,9.82903346 C10.4547291,8.75500448 10.2544842,8.14760819 10.2097158,8.00682638 C10.1649474,7.86604457 10.1328841,7.75478319 10.1135248,7.67303891 C10.0336676,7.96368523 9.80498924,8.6823429 9.42748275,9.82903346 L10.8104563,9.82903346 Z" transform="rotate(90 5.176 9.4)"/>
      </g>
      <path fill="#F1F1F1" fill-rule="nonzero" d="M0,0.841978578 C0,0.37696665 0.385626307,-4.54747351e-13 0.848797035,-4.54747351e-13 L33.4887107,-4.54747351e-13 C33.9574883,-4.54747351e-13 34.3375077,0.372172821 34.3375077,0.841978578 L34.3375077,45.3938671 C34.3375077,45.858879 33.9518814,46.2358456 33.4887107,46.2358456 L0.848797035,46.2358456 C0.380019377,46.2358456 0,45.8636728 0,45.3938671 L0,0.841978578 Z"/>
      <path fill="#FFEBEB" fill-rule="nonzero" stroke="#CFCFCF" stroke-width=".5" d="M2.86145898,3.96836934 C2.86145898,3.3474311 3.35811876,2.8440612 3.98318481,2.8440612 L30.3543229,2.8440612 C30.973835,2.8440612 31.4760487,3.34897417 31.4760487,3.96836934 L31.4760487,20.5967091 C31.4760487,21.2176474 30.979389,21.7210173 30.3543229,21.7210173 L3.98318481,21.7210173 C3.36367274,21.7210173 2.86145898,21.2161043 2.86145898,20.5967091 L2.86145898,3.96836934 Z"/>
      <g fill-rule="nonzero" transform="translate(2.861 23.752)">
        <rect width="8.733" height="4.889" x=".209" y=".28" fill="#FFF" rx="1.13"/>
        <rect width="8.733" height="4.889" x=".209" y="7.425" fill="#FFF" rx="1.13"/>
        <rect width="8.733" height="4.889" x=".21" y="14.57" fill="#F69A98" rx="1.13"/>
        <rect width="8.733" height="4.889" x="19.69" y=".28" fill="#FFF" rx="1.13"/>
        <rect width="8.733" height="4.889" x="19.69" y="7.425" fill="#FFF" rx="1.13"/>
        <rect width="8.733" height="4.889" x="19.691" y="14.57" fill="#F69A98" rx="1.13"/>
        <rect width="7.869" height="4.889" x="10.477" y=".28" fill="#FFF" rx="1.13"/>
        <rect width="7.869" height="4.889" x="10.477" y="7.425" fill="#FFF" rx="1.13"/>
        <rect width="7.869" height="4.889" x="10.476" y="14.57" fill="#FFF" rx="1.13"/>
      </g>
      <g fill="#AAA" transform="translate(8.903 6)">
        <path d="M1.43952255 10.8815992L.48661463 10.6115075.665664207 10.0622198 1.60946791 10.4415621 1.54877314 9.38243835 2.1435819 9.38243835 2.08288713 10.4628053 3.00241292 10.0895324 3.1814625 10.6448896 2.21034615 10.9149813 2.84764125 11.7222218 2.36511782 12.0651473 1.81279539 11.1790036 1.26654245 12.0347999.784019012 11.7070481 1.43952255 10.8815992zM5.80347663 10.8815992L4.85056872 10.6115075 5.02961829 10.0622198 5.973422 10.4415621 5.91272722 9.38243835 6.50753599 9.38243835 6.44684121 10.4628053 7.36636701 10.0895324 7.54541658 10.6448896 6.57430024 10.9149813 7.21159534 11.7222218 6.7290719 12.0651473 6.17674948 11.1790036 5.63049653 12.0347999 5.1479731 11.7070481 5.80347663 10.8815992zM10.1674307 10.8815992L9.21452281 10.6115075 9.39357238 10.0622198 10.3373761 10.4415621 10.2766813 9.38243835 10.8714901 9.38243835 10.8107953 10.4628053 11.7303211 10.0895324 11.9093707 10.6448896 10.9382543 10.9149813 11.5755494 11.7222218 11.093026 12.0651473 10.5407036 11.1790036 9.99445062 12.0347999 9.51192719 11.7070481 10.1674307 10.8815992zM14.5313848 10.8815992L13.5784769 10.6115075 13.7575265 10.0622198 14.7013302 10.4415621 14.6406354 9.38243835 15.2354442 9.38243835 15.1747494 10.4628053 16.0942752 10.0895324 16.2733248 10.6448896 15.3022084 10.9149813 15.9395035 11.7222218 15.4569801 12.0651473 14.9046577 11.1790036 14.3584047 12.0347999 13.8758813 11.7070481 14.5313848 10.8815992zM2.25725338 4.06473856L2.25725338 6.17874955 1 6.17874955 1 .178749553 3.38039974.178749553C3.83860104.178749553 4.24161657.261166311 4.58945841.4260023 4.93730026.590838289 5.20481316.825039243 5.39200516 1.12861219 5.57919715 1.43218514 5.67279175 1.77764871 5.67279175 2.16501329 5.67279175 2.75292832 5.46814088 3.21652258 5.05883301 3.55580999 4.64952514 3.8950974 4.08306831 4.06473856 3.35944552 4.06473856L2.25725338 4.06473856zM2.25725338 3.06336494L3.38039974 3.06336494C3.71287508 3.06336494 3.96641864 2.98644263 4.14103804 2.83259571 4.31565744 2.67874878 4.40296583 2.45897076 4.40296583 2.17325505 4.40296583 1.87929753 4.31495897 1.64166255 4.13894262 1.46034296 3.96292626 1.27902337 3.71985971 1.18561771 3.40973565 1.18012318L2.25725338 1.18012318 2.25725338 3.06336494zM8.87298517 6.17874955L7.61573179 6.17874955 7.61573179.178749553 8.87298517.178749553 8.87298517 6.17874955zM16 6.17874955L14.7427466 6.17874955 12.2952934 2.23094735 12.2952934 6.17874955 11.03804 6.17874955 11.03804.178749553 12.2952934.178749553 14.7469375 4.13479351 14.7469375.178749553 16 .178749553 16 6.17874955z"/>
      </g>
    </g>
    <g transform="translate(25.57)">
      <path fill="#FFF" fill-rule="nonzero" stroke="#CFCFCF" stroke-width=".5" d="M7.23927145,4.85812529 C7.6922825,4.85812529 8.0595205,4.49431684 8.0595205,4.04553638 C8.0595205,3.59675591 7.6922825,3.23294746 7.23927145,3.23294746 C6.78626041,3.23294746 6.4190224,3.59675591 6.4190224,4.04553638 C6.4190224,4.49431684 6.78626041,4.85812529 7.23927145,4.85812529 Z"/>
      <g transform="rotate(-19 15.782 -.059)">
        <g transform="translate(.035 .025)">
          <path fill="#FEBBBA" fill-rule="nonzero" d="M8.33428056,20.0551399 C8.33428056,18.8618641 7.78052967,17.4090591 7.12826071,17.4090591 C6.47599171,17.4090591 5.96829919,18.8618641 5.96829919,20.0551399 L5.37889947,20.0551399 C5.37889947,18.2671431 6.17393414,16.8126884 7.15128986,16.8126884 C8.12864553,16.8126884 8.92368024,18.2671431 8.92368024,20.0551399 L8.33428056,20.0551399 Z" transform="rotate(4 7.151 18.434)"/>
          <g transform="rotate(8 -127.175 28.317)">
            <path fill="#F69A98" fill-rule="nonzero" d="M4.72580303,3.90713249 C4.10198596,3.90713249 3.59639789,3.41419117 3.59639789,2.80610685 C3.59639789,2.19812679 4.10198596,1.70518547 4.72580303,1.70518547 C5.34956659,1.70518547 5.8552616,2.19812679 5.8552616,2.80610685 C5.8552616,3.41419117 5.34956659,3.90713249 4.72580303,3.90713249 Z M1.54848551,17.029004 L7.90306705,17.029004 C8.73050962,17.029004 9.4011691,16.3751023 9.4011691,15.5685801 L9.4011691,3.44473612 C9.4011691,2.94512287 9.13920445,2.48022453 8.70676757,2.21225253 L5.57463485,0.271553465 C5.08904571,-0.0293612236 4.46939955,-0.0325408175 3.98060206,0.263422044 L0.758099774,2.21412901 C0.317962774,2.48043303 0.0503299626,2.94970983 0.0503299626,3.45474402 L0.0503299626,15.5685801 C0.0503299626,16.3751023 0.721042924,17.029004 1.54848551,17.029004 L1.54848551,17.029004 Z"/>
            <path fill="#AAA" fill-rule="nonzero" stroke="#AAA" stroke-width=".5" d="M4.7258247,3.58658115 C5.21438669,3.58658115 5.61191013,3.19463474 5.61191013,2.71281684 C5.61191013,2.23090013 5.21438669,1.83890432 4.7258247,1.83890432 C4.23706228,1.83890432 3.83958895,2.23090013 3.83958895,2.71281684 C3.83958895,3.19463474 4.23706228,3.58658115 4.7258247,3.58658115 Z M4.7258247,3.92600783 C4.04741945,3.92600783 3.49537597,3.38178878 3.49537597,2.71281684 C3.49537597,2.04384491 4.04741945,1.49952705 4.7258247,1.49952705 C5.40417982,1.49952705 5.95612313,2.04384491 5.95612313,2.71281684 C5.95612313,3.38178878 5.40417982,3.92600783 4.7258247,3.92600783 L4.7258247,3.92600783 Z"/>
            <path fill="#FFF" d="M3.83076678,0.0836852478 L3.83076678,3.4627817 C3.83076678,4.02420546 3.66282718,4.4681699 3.32694295,4.79468833 C2.99105872,5.12120675 2.53217361,5.28446352 1.95027384,5.28446352 C1.37736094,5.28446352 0.922407521,5.12590479 0.585399933,4.80878258 C0.248392345,4.49166037 0.0765210535,4.05591749 0.0697809018,3.50154088 L0.0697809018,0.0836852478 L1.08079861,0.0836852478 L1.08079861,3.46982882 C1.08079861,3.80574346 1.15774752,4.05062861 1.31164765,4.20449161 C1.46554779,4.35835461 1.67842105,4.43528495 1.95027384,4.43528495 C2.5186933,4.43528495 2.80739214,4.12286553 2.81637901,3.49801732 L2.81637901,0.0836852478 L3.83076678,0.0836852478 Z M5.67081901,3.4064047 L5.67081901,5.21399227 L4.6598013,5.21399227 L4.6598013,0.0836852478 L6.57399483,0.0836852478 C6.94245646,0.0836852478 7.26654056,0.154155793 7.54625686,0.295098999 C7.82597315,0.436042204 8.0410931,0.636296004 8.19162316,0.895866407 C8.34215322,1.15543681 8.41741712,1.45082585 8.41741712,1.78204238 C8.41741712,2.28473981 8.25284755,2.68113663 7.92370347,2.97124473 C7.59455939,3.26135282 7.1390443,3.4064047 6.55714453,3.4064047 L5.67081901,3.4064047 Z M5.67081901,2.55017901 L6.57399483,2.55017901 C6.84135418,2.55017901 7.04524071,2.4844065 7.18566054,2.35285951 C7.32608037,2.22131251 7.39628923,2.03339106 7.39628923,1.7890895 C7.39628923,1.53774079 7.3255187,1.33455071 7.18397551,1.17951319 C7.04243232,1.02447566 6.84697085,0.944609045 6.59758524,0.939910938 L5.67081901,0.939910938 L5.67081901,2.55017901 Z M10.1866981,5.21399227 L9.1756804,5.21399227 L9.1756804,0.0836852478 L10.1866981,0.0836852478 L10.1866981,5.21399227 Z" transform="rotate(90 1.165 6.131)"/>
          </g>
          <path fill="#FEBBBA" fill-rule="nonzero" d="M1.76861285,0.838431133 C1.64024867,0.838431133 1.25466756,1.13321191 1.25466756,1.5682877 C1.25466756,2.03867914 1.48244245,16.0984796 1.63703327,19.5839236 C1.8040044,16.1204107 2.2825581,2.13027404 2.2825581,1.5682877 C2.2825581,1.01791199 1.90039783,0.838431133 1.76861285,0.838431133 Z M1.90386127,21.6433576 C1.79357887,21.6380361 1.69665418,21.584982 1.63361238,21.505159 C1.56975612,21.5853045 1.47234273,21.6385199 1.36173452,21.6435189 C1.15827412,21.6531944 0.988045005,21.4970961 0.97892269,21.2968128 C0.955953992,20.7756249 0.521623612,2.18961721 0.521623612,1.5682877 C0.521623612,0.761994542 1.2035174,0.112767288 1.76861285,0.112767288 C2.36807989,0.112767288 3.01560208,0.669270826 3.01560208,1.5682877 C3.01560208,2.31007741 2.31273693,20.7820753 2.28748761,21.2984254 C2.27836529,21.4925808 2.11611823,21.6438414 1.92194301,21.6438414 C1.91575287,21.6438414 1.9100514,21.6436802 1.90386127,21.6433576 Z" transform="rotate(1 4.063 333.207)"/>
        </g>
        <path fill="#CFCFCF" fill-rule="nonzero" d="M7.45525659,1.06986895 C7.45525659,0.516164456 7.04951883,0.0308929342 6.48339896,0.0308929342 L6.50171606,0.443811033 C7.174295,0.630265249 7.18125231,1.23422605 7.08778586,1.50313732 L7.45525659,1.06986895 Z"/>
      </g>
      <path fill="#F1F1F1" fill-rule="nonzero" d="M7.44123249,2.96098533 C7.10318696,2.66240563 7.19575717,2.42035855 7.65139799,2.42035855 L8.05751848,2.42035855 C8.51163521,2.42035855 8.87976955,2.7868975 8.87976955,3.23217591 L8.87976955,4.85889684 C8.87976955,5.30725131 8.5533169,5.68922416 8.5533169,5.68922416 C8.10053296,4.69560751 8.43598827,4.00910045 8.23092602,3.64343544 C8.23092602,3.64343544 8.17614818,3.44585532 7.84804859,3.1614492 C7.35589915,2.91767253 7.47417653,2.90076617 7.44123249,2.96098533 Z"/>
    </g>
  </g>
</svg>
