<svg xmlns="http://www.w3.org/2000/svg" width="58" height="58" viewBox="0 0 58 58">
  <g fill="none" fill-rule="evenodd" transform="translate(2 -1)">
    <g fill="#FEBBBA" transform="rotate(-20 45.36 6.512)">
      <path d="M13.6721857,10.6474115 C13.6536171,8.89097129 12.2153286,7.46760884 10.4652433,7.48006034 L9.26834588,7.4987376 L9.26525112,6.29483289 C9.24745626,4.53761451 7.80916776,3.11503028 6.05908244,3.12670357 C4.08540091,3.15160657 2.49546929,4.78041882 2.50784832,6.76565535 L2.56819609,13.6085345 C2.57129085,14.0311074 2.89778775,14.3532901 3.31790107,14.3470643 L10.1209515,14.2832504 C12.0946331,14.2622385 13.6806963,12.632648 13.6721857,10.6474115 Z" transform="rotate(-31 8.09 8.737)"/>
      <path d="M41.3182468,17.3213432 C39.9341166,17.3337947 38.8130407,18.479333 38.8215513,19.869232 L38.8339303,20.8202155 L37.8877082,20.8233284 C36.503578,20.8357799 35.3825021,21.9813182 35.3917864,23.3712172 C35.4095812,24.9424413 36.6884897,26.21016 38.2505685,26.2039342 L43.6362201,26.1650233 C43.9689065,26.1619104 44.2226767,25.9035417 44.2195819,25.5689075 L44.177029,20.1517255 C44.1623289,18.5828361 42.8803256,17.3151174 41.3182468,17.3213432 Z" transform="rotate(31 39.806 21.763)"/>
      <path d="M41.1799674,5.80292456 C39.9374223,4.16788656 37.5954647,3.84881679 35.9637538,5.09474532 L34.8542833,5.95545547 L34.0109619,4.83015088 C32.7691905,3.19511288 30.4264591,2.87604311 28.7947483,4.12197164 C26.9603308,5.53910834 26.6067548,8.18660919 28.0001693,10.0411049 L32.8264435,16.4154963 C33.1258613,16.8108315 33.6542911,16.8808712 34.0442305,16.5828134 L40.379199,11.7251707 C42.2190322,10.3056994 42.575703,7.65742031 41.1799674,5.80292456 Z" transform="rotate(45 34.59 10.064)"/>
    </g>
    <g transform="translate(10.41 22.79)">
      <g transform="rotate(-37 17.263 5.627)">
        <path fill="#DADADA" d="M12.9795469,0.0315293536 L18.0436779,0.0315293536 L18.0436779,26.3000591 L13.0416709,26.3000591 C12.9375251,24.1943754 11.1897339,22.5189828 9.0489036,22.5189828 C6.90807332,22.5189828 5.16028204,24.1943754 5.05613629,26.3000591 L0.0541293189,26.3000591 L0.0541293189,0.0315293536 L5.11826028,0.0315293536 C5.46248803,1.88117624 7.09139099,3.28192823 9.0489036,3.28192823 C11.0064162,3.28192823 12.6353192,1.88117624 12.9795469,0.0315293536 L12.9795469,0.0315293536 Z"/>
        <path stroke="#F9F9F9" stroke-dasharray="2.467" stroke-linecap="square" stroke-width=".5" d="M0.26651183,7.46300116 L17.7807287,7.46300116"/>
      </g>
      <g transform="translate(15.191 6.29)">
        <path fill="#F1F1F1" d="M5.09118498,26.2685297 L0,26.2685297 L0,0 L5.06413096,0 C5.40835871,1.84964689 7.03726167,3.25039888 8.99477428,3.25039888 C10.9522869,3.25039888 12.5811898,1.84964689 12.9254176,0 L17.9895486,0 L17.9895486,26.2685297 L12.8983636,26.2685297 C12.5026439,24.4849815 10.9052053,23.1508002 8.99477428,23.1508002 C7.08434324,23.1508002 5.48690468,24.4849815 5.09118498,26.2685297 L5.09118498,26.2685297 Z"/>
        <path stroke="#CFCFCF" stroke-dasharray="2.467" stroke-linecap="square" stroke-width=".5" d="M0.333139788,7.52933583 L17.8473567,7.52933583"/>
      </g>
    </g>
  </g>
</svg>
