<svg xmlns="http://www.w3.org/2000/svg" width="58" height="58" viewBox="0 0 58 58">
  <g fill="none" transform="translate(6 10)">
    <path fill="#F1F1F1" d="M39.4287647,39.994359 L6.44845588,39.994359 C4.53708824,39.994359 2.98763235,38.4280342 2.98763235,36.4960684 L2.98763235,16.8789744 C2.98763235,14.9470085 4.53725735,13.3808547 6.44845588,13.3808547 L39.4285956,13.3808547 C41.3399632,13.3808547 42.8894191,14.9471795 42.8894191,16.8789744 L42.8894191,36.4960684 C42.8894191,38.4283761 41.3401324,39.994359 39.4287647,39.994359 Z"/>
    <path fill="#FEBBBA" d="M42.9371103,2.67965812 C42.5501691,1.10837607 41.1542721,0.00547008547 39.5522206,0.00547008547 L21.5134559,0.00547008547 L6.56903676,0.00547008547 C4.9795,0.00547008547 3.59121324,1.09162393 3.19260294,2.64666667 L0.124470588,14.6155556 L0.124470588,14.6155556 C0.124470588,17.7976068 2.676625,20.377265 5.82475,20.377265 C8.972875,20.377265 11.5250294,17.7976068 11.5250294,14.6155556 L11.5698456,14.6155556 C11.5698456,17.7976068 14.122,20.377265 17.270125,20.377265 C20.41825,20.377265 22.9704044,17.7976068 22.9704044,14.6155556 L23.0152206,14.6155556 C23.0152206,17.7976068 25.567375,20.377265 28.7155,20.377265 C31.863625,20.377265 34.4157794,17.7976068 34.4157794,14.6155556 L34.4607647,14.6155556 C34.4607647,17.7976068 37.0129191,20.377265 40.1610441,20.377265 C43.3091691,20.377265 45.8613235,17.7976068 45.8613235,14.6155556 L45.8753603,14.6155556 L42.9371103,2.67965812 Z"/>
    <path fill="#FEDBDA" d="M11.5251985,14.6155556 C11.5251985,17.7976068 8.97304412,20.377265 5.82491912,20.377265 C2.67679412,20.377265 0.124639706,17.7976068 0.124639706,14.6155556 L11.5251985,14.6155556 L11.5251985,14.6155556 Z"/>
    <path fill="#FEBBBA" d="M22.9705735,14.6155556 C22.9705735,17.7976068 20.4184191,20.377265 17.2702941,20.377265 C14.1221691,20.377265 11.5700147,17.7976068 11.5700147,14.6155556 L22.9705735,14.6155556 L22.9705735,14.6155556 Z"/>
    <path fill="#FEDBDA" d="M34.4159485,14.6155556 C34.4159485,17.7976068 31.8637941,20.377265 28.7156691,20.377265 C25.5675441,20.377265 23.0153897,17.7976068 23.0153897,14.6155556 L34.4159485,14.6155556 L34.4159485,14.6155556 Z"/>
    <path fill="#FEBBBA" d="M45.8613235 14.6155556C45.8613235 17.7976068 43.3091691 20.377265 40.1610441 20.377265 37.0129191 20.377265 34.4607647 17.7976068 34.4607647 14.6155556L45.8613235 14.6155556 45.8613235 14.6155556zM42.9371103 2.67965812C42.5501691 1.10837607 41.1542721.00547008547 39.5522206.00547008547L21.5134559.00547008547 21.5134559 14.6155556 45.8753603 14.6155556 42.9371103 2.67965812z"/>
    <path fill="#FEDBDA" d="M6.56920588,0.00564102564 C4.97966912,0.00564102564 3.59138235,1.09179487 3.19277206,2.64683761 L0.124639706,14.6157265 L11.5251985,14.6157265 L13.3616471,0.00547008547 L6.56920588,0.00564102564 L6.56920588,0.00564102564 Z"/>
    <polygon fill="#FEDBDA" points="22.938 .006 22.938 14.616 34.352 14.616 32.515 .006"/>
  </g>
</svg>
