<svg xmlns="http://www.w3.org/2000/svg" width="58" height="58" viewBox="0 0 58 58">
  <g fill="none" fill-rule="evenodd" transform="translate(8 6)">
    <path fill="#FEE7E7" d="M20.5691616,19.1351712 L20.5691616,30.7037568 C16.8004747,30.7037568 15.0503131,27.3391261 15.0503131,26.2782252 L15.0503131,19.1351712 L20.5691616,19.1351712 Z M20.5691616,19.1351712 L26.0882172,19.1351712 L26.0882172,26.2782252 C26.0882172,27.3391261 24.3378485,30.7037568 20.5691616,30.7037568 L20.5691616,19.1351712 Z"/>
    <path fill="#FFEBEB" d="M20.5691616,4.98561261 L20.5691616,24.8963604 C17.0671818,24.8963604 13.4299848,20.8583063 13.4299848,14.7744955 C13.4299848,9.27625225 14.3512424,4.98561261 20.5691616,4.98561261 Z M20.5691616,4.98561261 C26.7872879,4.98561261 27.7083384,9.27625225 27.7083384,14.7744955 C27.7083384,20.8583063 24.0711414,24.8963604 20.5691616,24.8963604 L20.5691616,4.98561261 Z"/>
    <path fill="#FEDBDA" d="M13.5136414,14.0422252 C13.076101,12.4061171 12.4774596,12.4061171 12.2240051,12.8209459 C11.9707576,13.2357748 12.1616768,14.2276757 12.5917626,15.8117748 C12.9361212,17.0794685 13.2815152,17.6739459 13.7660606,17.1946757 C14.2506061,16.7154054 13.5136414,14.0422252 13.5136414,14.0422252"/>
    <path fill="#F1F1F1" d="M12.6503636,27.5465405 L20.5691616,30.9298198 L20.5691616,45.7981802 L0.179737374,45.7981802 C0.179737374,45.7981802 1.33684848,34.5292162 1.90691414,32.2476577 C2.83541919,28.532018 11.9782121,27.647036 12.5963182,27.555036 L12.6503636,27.5465405 Z M28.4881667,27.5465405 L28.5420051,27.555036 L28.5422121,27.555036 C29.1603182,27.647036 38.302904,28.532018 39.2314091,32.2476577 C39.8014747,34.5292162 40.9587929,45.7981802 40.9587929,45.7981802 L20.5691616,45.7981802 L20.5691616,30.9298198 L28.4881667,27.5465405 Z"/>
    <path fill="#F69A98" d="M20.5691616 35.0304505L20.5691616 45.7981802 18.5241313 45.7981802 18.8856768 35.0304505 20.5691616 35.0304505zM20.5691616 35.0304505L22.2526465 35.0304505 22.614399 45.7981802 20.5691616 45.7981802 20.5691616 35.0304505zM20.5691616 30.9298198L20.5691616 35.0304505 18.8856768 35.0304505 17.8097374 33.1811261 19.0877778 30.9298198 20.5691616 30.9298198zM20.5691616 30.9298198L22.0505455 30.9298198 23.3287929 33.1811261 22.2526465 35.0304505 20.5691616 35.0304505 20.5691616 30.9298198z"/>
    <path fill="#CFCFCF" d="M17.0903737,27.5465405 L15.0503131,25.749018 C14.0667273,26.3022613 12.6503636,27.5465405 12.6503636,27.5465405 L19.1894495,34.8864414 L20.5691616,30.9298198 L20.5691616,30.611964 L17.0903737,27.5465405"/>
    <path fill="#FEDBDA" d="M27.6246818,14.0422252 C28.0622222,12.4061171 28.6610707,12.4061171 28.9143182,12.8209459 C29.1675657,13.2357748 28.9766465,14.2276757 28.5465606,15.8117748 C28.202202,17.0794685 27.8570152,17.6739459 27.3722626,17.1946757 C26.8877172,16.7154054 27.6246818,14.0422252 27.6246818,14.0422252"/>
    <path fill="#5D857C" d="M20.5691616,30.9298198 L20.672904,30.8137838 L20.7973535,30.6996126 C20.9224242,30.6950541 21.0454242,30.6867658 21.1659394,30.6747477 L20.5691616,30.9298198 M24.2562626,29.3546306 C25.4951667,28.2939369 26.0882172,26.8959099 26.0882172,26.2782252 L26.0882172,25.749018 C27.071803,26.3252613 28.4881667,27.5465405 28.4881667,27.5465405 L24.2562626,29.3546306"/>
    <path fill="#A78B77" d="M20.7973535,30.6996126 L24.1516919,27.6213423 L26.0882172,25.749018 L26.0882172,26.2782252 C26.0882172,26.8959099 25.4951667,28.2939369 24.2562626,29.3546306 L21.1659394,30.6747477 C21.0454242,30.6867658 20.9224242,30.6950541 20.7973535,30.6996126"/>
    <path fill="#CFCFCF" d="M24.0481566,27.5465405 L26.0882172,25.749018 C27.071803,26.3022613 28.4881667,27.5465405 28.4881667,27.5465405 L21.9488737,34.8864414 L20.5691616,30.9298198 L20.5691616,30.611964 L24.0481566,27.5465405"/>
    <path fill="#AAA" d="M16.3389141,10.5623874 C16.3389141,10.5623874 18.687303,9.94159459 20.5691616,8.77854054 L20.5691616,9.4500991 C18.4466869,10.2511622 16.3389141,10.5623874 16.3389141,10.5623874 Z M13.1330455,5.93047748 C13.8973434,2.74881081 16.5619293,0.998738739 20.5691616,0.998738739 L20.5691616,7.71909009 C18.6019899,8.83158559 16.0287222,9.3924955 14.9902626,9.58540541 C13.4960404,11.9239459 14.0476768,15.267027 13.4190101,15.1412523 C13.2709545,14.7247658 12.0289444,10.5261261 13.1330455,5.93047748 Z M24.1376111,7.2336036 C23.3186465,8.21037838 21.9410051,8.93228829 20.5691616,9.4500991 L20.5691616,8.77854054 C21.2970152,8.32869369 21.9552929,7.79782883 22.3804091,7.1902973 C21.8749495,7.74209009 21.2338586,8.19525225 20.5691616,8.56325225 L20.5691616,7.72820721 L20.5921465,7.70665766 L20.5691616,7.71909009 L20.5691616,0.998738739 C21.1021616,0.998738739 21.6175606,1.02194595 22.1095606,1.07209009 C21.1388131,0.434306306 20.8677576,0.0296306306 20.8677576,0.0296306306 C22.6330354,-0.0211351351 23.5580202,0.725846847 24.4610556,1.6414955 L24.4898384,1.656 C23.9479343,0.784486486 23.2513485,0.138414414 23.2513485,0.138414414 C24.5956515,0.461657658 25.3307525,1.41045946 25.7297778,2.27202703 C25.7457222,1.45563063 25.5560455,0.694351351 25.5560455,0.694351351 C25.5560455,0.694351351 26.7605758,2.32030631 26.5178889,4.04924324 C26.5178889,4.04924324 28.0313687,4.26018018 28.4881667,5.73114414 C30.0664596,10.8145586 27.8675758,14.7247658 27.7193131,15.1412523 C27.0560657,15.2738649 28.4881667,12.1883423 26.1894747,8.85230631 C25.6782172,8.1102973 24.9948838,7.58461261 24.1376111,7.2336036 Z M16.8563838,9.91755856 C16.8563838,9.91755856 19.0807374,9.15151351 20.5691616,7.72820721 L20.5691616,8.56325225 C18.7972576,9.54458559 16.8563838,9.91755856 16.8563838,9.91755856 Z"/>
    <polyline fill="#524D42" points="20.569 7.719 20.569 7.728 20.592 7.707 20.569 7.719"/>
  </g>
</svg>
