<svg xmlns="http://www.w3.org/2000/svg" width="58" height="58" viewBox="0 0 58 58">
  <g fill="none" fill-rule="evenodd" transform="translate(12 3)">
    <ellipse cx="28.805" cy="5.169" fill="#FEBBBA" rx="5.071" ry="4.998"/>
    <path fill="#F1F1F1" d="M13.9687241,16.8208444 L20.0693793,16.6885333 C20.0693793,16.6885333 20.9973448,13.1196 21.1204483,12.9520444 C21.2441379,12.7844889 17.9983103,13.3333778 17.9983103,13.3333778 L21.3326552,8.7464 C21.7054828,8.48524444 21.9511034,8.05884444 21.9511034,7.57408889 C21.9511034,7.09337778 21.7113448,6.66871111 21.3443793,6.40697778 L21.3373448,7.79075556 L20.2868621,8.18942222 L19.9931724,8.23044444 L18.1606897,8.16573333 L13.1222414,14.2156444 C12.7541034,14.4768 12.5114138,14.9003111 12.5114138,15.3827556 C12.5102414,16.1766222 13.1632759,16.8208444 13.9687241,16.8208444 Z"/>
    <polygon fill="#FEBBBA" points="7.74 29.461 9.19 29.461 9.652 18.032 7.74 18.032"/>
    <polygon fill="#FEBBBA" points="7.335 29.461 7.335 18.032 5.381 18.032 5.843 29.461"/>
    <polygon fill="#FEBBBA" points="2.987 18.032 3.859 29.461 5.438 29.461 4.976 18.032"/>
    <polygon fill="#FEBBBA" points="11.392 22.596 11.84 18.032 10.058 18.032 9.594 29.461 10.718 29.461 11.122 25.344"/>
    <path fill="#F1F1F1" d="M11.4896588 25.3442222C11.4896588 25.3442222 19.3754665 25.2054112 19.9732414 25.1795556 20.5823103 24.8034222 25.6107931 20.2141333 28.0752069 17.6696L28.1449655 17.6176C28.863069 17.2276 29.3097586 16.4926667 29.3097586 15.6999556 29.3097586 14.4866222 28.305 13.4997778 27.0722069 13.4997778 26.4361724 13.4997778 25.8247586 13.7765333 25.395069 14.2595556L25.2995172 14.3670222 18.9796207 21.4511556 11.8059701 22.5337986 11.4896588 25.3442222zM21.4117931 36.4184889C21.434069 36.4190667 21.4545862 36.4219556 21.4762759 36.4219556 21.4897586 36.4219556 21.502069 36.4202222 21.5155517 36.4202222 21.5964483 36.4213778 21.6404138 36.4219556 21.6404138 36.4219556L21.6404138 36.4138667C23.902 36.3283556 25.7104483 34.4991111 25.7104483 32.2480889 25.7104483 29.9433333 23.8146552 28.0748 21.4756897 28.0748 21.4270345 28.0748 21.3801379 28.0805778 21.332069 28.0823111 21.332069 28.0823111 7.58903448 30.9007111 6.511 31.3092 4.89541379 31.9210667 4.42937931 33.3296889 4.0882069 34.5846222 3.74644828 35.8395556.173517241 48.5743556.173517241 48.5743556L.200482759 48.5841778C.153586207 48.7754222.122517241 48.9718667.122517241 49.1769778.122517241 50.5856 1.28203448 51.7278667 2.7112069 51.7278667 4.00144828 51.7278667 5.06248276 50.7947556 5.25886207 49.5768 6.06372414 46.9756444 9.14717241 37.0696444 9.52468966 36.6969778 9.92506897 36.3040889 19.7950345 36.4005778 21.4117931 36.4184889z"/>
    <path fill="#F1F1F1" d="M18.3728966,28.1920889 C18.3963448,28.184 18.4532069,28.1684 18.5335172,28.1476 C19.3161034,27.6986667 20.2258966,27.4398222 21.1966552,27.4398222 C23.3451034,27.4398222 25.194,28.7005333 26.0264138,30.5107111 C26.4432069,30.4096 27.2808966,27.8812444 27.4127931,27.6582222 C27.54,27.4415556 29.8250345,18.7587111 30.5554483,15.6843556 C30.6433793,15.4544 30.7090345,15.2134667 30.7447931,14.9621333 C31.0548966,12.8133778 29.2183103,10.7784444 26.6401724,10.4173333 C24.1575862,10.0683556 21.8965862,11.4012889 21.456931,13.4212 L21.4481379,13.4229333 C21.4481379,13.4229333 20.7523103,16.3147111 20.0248276,19.4133333 L25.0445172,13.7759556 L25.0591724,13.7771111 C25.5920345,13.2380444 26.3165862,12.9318222 27.0704483,12.9318222 C28.6227241,12.9318222 29.8848276,14.1740444 29.8848276,15.7005333 C29.8848276,16.6862222 29.3402414,17.5991111 28.460931,18.0942667 C27.1513448,19.4445333 25.0814483,21.3997333 23.5743103,22.7875556 C20.3888621,25.7180444 20.1866207,25.7348 20.0652759,25.7446222 C19.9738276,25.7521333 19.3981724,25.7665778 18.5745517,25.7827556 C18.4731379,26.2675111 18.4074828,26.6124444 18.3916552,26.7586222 C18.3312759,27.352 18.1858966,28.2533333 18.3728966,28.1920889 Z"/>
    <polygon fill="#CFCFCF" points="31.673 37.02 14.092 37.02 14.092 39.878 14.092 39.878 14.092 51.828 16.212 51.828 16.212 39.878 31.673 39.878 31.673 51.828 33.543 51.828 33.543 14.96 31.673 14.96"/>
    <path fill="#FEDBDA" d="M8.53341379 13.5933778C8.53341379 13.5933778 7.92493103 13.7932889 8.29717241 14.4600444 8.66941379 15.1268 9.19406897 14.4895111 9.12606897 14.7570222 9.05748276 15.0233778 9.24506897 15.1608889 9.58331034 15.2273333 9.92155172 15.2943556 9.91862069 14.8633333 9.91862069 14.8633333 9.91862069 14.8633333 10.1243793 14.8610222 10.3272069 14.794 10.5224138 14.7304444 10.6132759 14.3294667 10.3805517 13.8250667 10.4848966 13.9105778 10.7381379 13.1502222 10.4948621 12.8208889 10.2240345 12.454 9.37931034 12.6932 9.37931034 12.6932L9.21634483 12.9636C9.21634483 12.9636 9.21282759 12.7047556 8.568 12.7330667 8.15296552 12.7504 8.13537931 13.1236444 8.20748276 13.3189333 8.2877931 13.5379111 8.53341379 13.5933778 8.53341379 13.5933778zM9.64134483 15.7600444L9.71989655 16.0674222C9.71989655 16.0674222 9.53172414 15.8854222 9.09148276 16.3580444 8.80893103 16.6608 9.06627586 16.9398667 9.25855172 17.0288444 9.47427586 17.1276444 9.68941379 16.9941778 9.68941379 16.9941778 9.68941379 16.9941778 9.401 17.5644444 10.1472414 17.7782222 10.8946552 17.992 10.8073103 17.1698222 10.9521034 17.4072889 11.0963103 17.6447556 11.3278621 17.6118222 11.6174483 17.4211556 11.9064483 17.2304889 11.5928276 16.9271556 11.5928276 16.9271556 11.5928276 16.9271556 11.7370345 16.7804 11.8343448 16.5903111 11.9275517 16.4077333 11.6983448 16.0581778 11.166069 15.8628889 11.319069 15.8709778 10.945069 15.1331556 10.5288621 15.0678667 10.0710345 14.9973778 9.64134483 15.7600444 9.64134483 15.7600444zM5.11582759 14.3190667C5.34210345 14.4224889 5.5677931 14.2832444 5.5677931 14.2832444 5.5677931 14.2832444 5.26531034 14.8812444 6.04789655 15.1048444 6.83106897 15.3296 6.7402069 14.4675556 6.89144828 14.7165778 7.04268966 14.9656 7.28596552 14.9309333 7.58903448 14.7316 7.89210345 14.5322667 7.56382759 14.2127556 7.56382759 14.2127556 7.56382759 14.2127556 7.71506897 14.0590667 7.81706897 13.8603111 7.91437931 13.6690667 7.67872414 13.3027556 7.12182759 13.0976444 7.26662069 13.0866667 6.87796552 12.3309333 6.44768966 12.2639111 5.96758621 12.1893778 5.51737931 12.9884444 5.51737931 12.9884444L5.60003448 13.3108444C5.60003448 13.3108444 5.40248276 13.1201778 4.94055172 13.6159111 4.64510345 13.9336889 4.91358621 14.2254667 5.11582759 14.3190667zM7.43955172 15.2712444C7.43955172 15.2712444 7.2507931 15.1915111 7.03682759 15.1707111 6.83165517 15.1504889 6.58310345 15.4809778 6.5872069 16.0356444 6.528 15.9143111 5.98106897 16.5082667 6.06665517 16.9075111 6.1622069 17.3512444 7.03272414 17.4731556 7.03272414 17.4731556L7.29417241 17.2917333C7.29417241 17.2917333 7.19041379 17.5292 7.79127586 17.7637778 8.17758621 17.914 8.34817241 17.5806222 8.36341379 17.3726222 8.36341379 17.3726222 8.54455172 17.2432 8.64244828 17.1143556 8.74093103 16.9855111 8.77375862 16.6625333 8.75382759 16.2927556 8.7127931 15.5324 7.94662069 15.9056444 8.11896552 15.6889778 8.29131034 15.4723111 8.17758621 15.2718222 7.8962069 15.0753778 7.61541379 14.8772 7.43955172 15.2712444 7.43955172 15.2712444zM3.27513793 16.8277778C3.49262069 16.9271556 3.71010345 16.7931111 3.71010345 16.7931111 3.71010345 16.7931111 3.41875862 17.3685778 4.17262069 17.5840889 4.92589655 17.8001778 4.83796552 16.9699111 4.98393103 17.2096889 5.12931034 17.4500444 5.3637931 17.4159556 5.65513793 17.2241333 5.94648276 17.0317333 5.63051724 16.7249333 5.63051724 16.7249333 5.63051724 16.7249333 5.77589655 16.5770222 5.8737931 16.3857778 5.96817241 16.2020444 5.7372069 15.8490222 5.20024138 15.6514222 5.35441379 15.6595111 4.97631034 14.9147556 4.55658621 14.8494667 4.09465517 14.7772444 3.77810345 15.4607556 3.77810345 15.4607556L3.74117241 15.8576889C3.74117241 15.8576889 3.55065517 15.6739556 3.10748276 16.1512 2.822 16.4568444 3.08051724 16.7376444 3.27513793 16.8277778z"/>
    <polygon fill="#FEBBBA" points="19.843 3.519 13.238 3.683 13.204 7.497 19.803 7.782"/>
    <polygon fill="#FEBBBA" points="20.979 3.754 20.298 3.523 20.257 7.787 20.943 7.568"/>
    <rect width="2.04" height=".321" x="21.218" y="5.335" fill="#F69A98" transform="rotate(.544 22.238 5.624)"/>
  </g>
</svg>
