<svg xmlns="http://www.w3.org/2000/svg" width="370" height="195" viewBox="0 0 370 195">
  <g fill="none" fill-rule="evenodd" transform="translate(3 -3)">
    <path fill="#FEBBBA" d="M52.7382348,135.384436 C40.6924178,135.384436 30.8950981,145.192582 30.8950981,157.251709 C30.8950981,169.306691 40.6965587,179.118982 52.7382348,179.118982 C64.7799109,179.118982 74.5813715,169.306691 74.5813715,157.251709 C74.5855123,145.192582 64.7840518,135.384436 52.7382348,135.384436 Z M52.7382348,169.518109 C45.9720385,169.518109 40.4895148,164.025382 40.4895148,157.255855 C40.4895148,150.482182 45.9720385,144.9936 52.7382348,144.9936 C59.5044311,144.9936 64.9869548,150.482182 64.9869548,157.255855 C64.9869548,164.021236 59.5044311,169.518109 52.7382348,169.518109 Z"/>
    <ellipse cx="52.738" cy="157.252" fill="#FEBBBA" rx="3.449" ry="3.453"/>
    <path fill="#FEBBBA" d="M266.183983,135.384436 C254.138166,135.384436 244.340846,145.192582 244.340846,157.251709 C244.340846,169.306691 254.138166,179.118982 266.183983,179.118982 C278.225659,179.118982 288.02712,169.306691 288.02712,157.251709 C288.031261,145.192582 278.225659,135.384436 266.183983,135.384436 Z M266.183983,169.518109 C259.413646,169.518109 253.931122,164.025382 253.931122,157.255855 C253.931122,150.482182 259.413646,144.9936 266.183983,144.9936 C272.946039,144.9936 278.432703,150.482182 278.432703,157.255855 C278.432703,164.021236 272.946039,169.518109 266.183983,169.518109 Z"/>
    <ellipse cx="266.184" cy="157.252" fill="#FEBBBA" rx="3.449" ry="3.453"/>
    <path fill="#F1F1F1" d="M51.5208164 16.8037091L358.061806 16.8037091C357.780226 11.8208727 354.049294 8.86101818 347.953921 8.86101818L62.1587345 8.86101818C54.8128152 8.86101818 51.5746478 14.7309818 51.4421397 14.9797091 51.1936869 15.4398545 51.1605599 15.9912 51.3510403 16.4762182 51.3924491 16.5922909 51.4504214 16.7000727 51.5208164 16.8037091zM76.4985984 148.508945C76.4985984 148.600145 76.4861758 148.695491 76.4737532 148.782545L84.6644118 161.223055C84.9956821 161.724655 85.5588417 162.027273 86.1592691 162.027273L132.868384 162.027273 132.868384 37.5226909 76.4985984 37.5226909 76.4985984 148.508945zM84.4283817 43.6413818L124.88891 43.6413818C125.940694 43.6413818 126.793715 44.4953455 126.793715 45.5482909L126.806137 74.8442182 82.5235774 74.8442182 82.5235774 45.5482909C82.5235774 44.4953455 83.3765984 43.6413818 84.4283817 43.6413818zM82.5235774 85.2949091C82.5235774 84.3041455 83.322767 83.5040727 84.3124371 83.5040727 85.3021072 83.5040727 86.1054377 84.3041455 86.1054377 85.2949091L86.1054377 93.0552C86.1054377 94.0459636 85.3021072 94.8501818 84.3124371 94.8501818 83.3269079 94.8501818 82.5235774 94.0501091 82.5235774 93.0552L82.5235774 85.2949091zM359.676749 148.202182L358.086651 148.202182 358.086651 139.956873C358.778178 139.741309 359.279225 139.107055 359.279225 138.344291L359.279225 136.358618C359.279225 135.595855 358.778178 134.965745 358.086651 134.746036L358.086651 107.386036 136.441963 107.386036 136.441963 162.031418 237.413156 162.031418C238.402826 162.031418 239.206157 161.231345 239.206157 160.240582L239.206157 157.251709C239.206157 141.867927 251.305805 129.3528 266.188124 129.3528 281.066302 129.3528 293.170092 141.872073 293.170092 157.293164L293.228064 160.244727C293.244627 161.218909 294.039676 162.006545 295.016924 162.006545L354.517214 162.006545 354.517214 163.030473C354.517214 163.967345 355.279135 164.717673 356.206692 164.717673L359.685031 164.717673C360.62501 164.717673 361.374509 163.9632 361.374509 163.030473L361.374509 149.893527C361.370368 148.9608 360.616728 148.202182 359.676749 148.202182z"/>
    <g transform="translate(177.513 52.145)">
      <ellipse cx="46.89" cy="8.105" fill="#F69A98" rx="8.042" ry="8.05"/>
      <rect width="12.025" height="9.6" x="40.646" y="18.655" fill="#DADADA"/>
      <path fill="#DADADA" d="M54.7304335 30.3487013L54.7304335 46.2545455 59.0410885 46.2545455C59.0410885 46.2545455 62.6767803 41.4766824 63.542224 40.3239669 64.4118085 39.1712515 64.705811 37.7456316 64.6644022 36.8250885 64.6229934 35.9045455 63.7368453 26.2144038 63.7368453 26.2144038 63.7368453 22.0393743 60.2999157 18.6545455 56.0555148 18.6545455L54.7345744 18.6545455 54.7345744 30.3487013 54.7304335 30.3487013zM34.2794627 46.2545455L38.5859768 46.2545455 38.5859768 40.5406898 38.5859768 18.6545455 37.2691773 18.6545455C33.0247763 18.6545455 29.5878468 22.0388748 29.5878468 26.2132883 29.5878468 26.2132883 28.7099804 35.9020001 28.6644308 36.8224073 28.6147402 37.7468872 28.9170244 39.1722967 29.7824681 40.3207694 30.6437709 41.4773874 34.2794627 46.2545455 34.2794627 46.2545455z"/>
      <polygon fill="#F69A98" points=".288 46.183 .288 51.663 112.013 51.663 112.013 46.255"/>
      <path fill="#DADADA" d="M112.013174,46.2874422 C111.894804,46.1588219 95.4665205,24.5512061 95.3420126,24.4307725 C93.8854339,23.0218566 92.0175358,22.1845091 89.942289,22.1845091 C85.4287309,22.1845091 82.8323998,25.6915636 81.9918013,29.8743273 C81.9918013,29.8743273 79.3323781,40.7972715 78.0026666,46.2587436 L112.013174,46.2874422 Z M96.0209406,46.2874422 C96.1691868,43.3421632 96.0045358,40.6525091 96.0045358,40.6525091 C96.0045358,40.6525091 99.7747944,44.3859498 101.659924,46.2526702 L96.0209406,46.2874422 Z"/>
      <path fill="#FEBBBA" d="M158.20882 76.7472L119.735913 76.7472C119.243149 76.7472 118.837343 76.3450909 118.837343 75.8517818 118.837343 75.3543273 119.243149 74.9563636 119.735913 74.9563636L158.20882 74.9563636C158.701585 74.9563636 159.10325 75.3543273 159.10325 75.8517818 159.10325 76.3450909 158.701585 76.7472 158.20882 76.7472zM158.20882 83.3177455L119.735913 83.3177455C119.243149 83.3177455 118.837343 82.9156364 118.837343 82.4223273 118.837343 81.9290182 119.243149 81.5227636 119.735913 81.5227636L158.20882 81.5227636C158.701585 81.5227636 159.10325 81.9290182 159.10325 82.4223273 159.10325 82.9156364 158.701585 83.3177455 158.20882 83.3177455zM158.20882 89.8882909L119.735913 89.8882909C119.243149 89.8882909 118.837343 89.4820364 118.837343 88.9887273 118.837343 88.4954182 119.243149 88.0933091 119.735913 88.0933091L158.20882 88.0933091C158.701585 88.0933091 159.10325 88.4954182 159.10325 88.9887273 159.10325 89.4820364 158.701585 89.8882909 158.20882 89.8882909z"/>
      <ellipse cx="97.268" cy="13.475" fill="#F69A98" rx="8.042" ry="8.05"/>
    </g>
    <path fill="#F1F1F1" d="M359.283365,30.7573091 L359.283365,28.7716364 C359.283365,28.0088727 358.782319,27.3746182 358.090792,27.1632 L358.090792,18.5986909 L54.166838,18.5986909 L36.8952318,86.1488727 C36.3569175,86.4141818 35.5453052,86.8162909 34.5473534,87.3096 L34.5473534,84.3994909 C34.5473534,83.9020364 34.1456881,83.5040727 33.6529235,83.5040727 C33.1601589,83.5040727 32.7584937,83.9061818 32.7584937,84.3994909 L32.7584937,88.2008727 C26.4892029,91.3099636 16.0790331,96.4710545 13.3667574,97.8307636 C7.92150151,100.558473 7.22169296,105.010691 7.22169296,108.588218 L7.22169296,110.478545 C7.28794702,110.461964 10.2279711,110.453673 10.2279711,110.453673 C10.7207357,110.453673 11.122401,110.855782 11.122401,111.353236 C11.122401,111.846545 10.7207357,112.248655 10.2279711,112.248655 L7.42045515,112.248655 C7.3500602,112.248655 7.22169296,114.454036 7.22169296,114.454036 C7.28794702,114.4416 10.2279711,114.429164 10.2279711,114.429164 C10.7207357,114.429164 11.122401,114.835418 11.122401,115.328727 C11.122401,115.822036 10.7207357,116.224145 10.2279711,116.224145 L7.42045515,116.224145 C7.3500602,116.224145 7.22169296,118.433673 7.22169296,118.433673 C7.28794702,118.417091 10.2279711,118.404655 10.2279711,118.404655 C10.7207357,118.404655 11.122401,118.810909 11.122401,119.304218 C11.122401,119.797527 10.7207357,120.203782 10.2279711,120.203782 L7.42045515,120.203782 C7.3500602,120.203782 7.22169296,122.409164 7.22169296,122.409164 C7.28794702,122.396727 10.2279711,122.384291 10.2279711,122.384291 C10.7207357,122.384291 11.122401,122.7864 11.122401,123.279709 C11.122401,123.773018 10.7207357,124.179273 10.2279711,124.179273 L7.42045515,124.179273 C7.3500602,124.179273 7.22169296,126.384655 7.22169296,126.384655 C7.28794702,126.372218 10.2279711,126.359782 10.2279711,126.359782 C10.7207357,126.359782 11.122401,126.761891 11.122401,127.2552 C11.122401,127.752655 10.7207357,128.154764 10.2279711,128.154764 L7.42045515,128.154764 C7.3500602,128.154764 7.22169296,130.364291 7.22169296,130.364291 C7.28794702,130.347709 10.2279711,130.339418 10.2279711,130.339418 C10.7207357,130.339418 11.122401,130.741527 11.122401,131.234836 C11.122401,131.728145 10.7207357,132.130255 10.2279711,132.130255 L7.42045515,132.130255 C7.3500602,132.130255 7.22169296,134.339782 7.22169296,134.339782 C7.28794702,134.3232 10.2279711,134.314909 10.2279711,134.314909 C10.7207357,134.314909 11.122401,134.717018 11.122401,135.210327 C11.122401,135.707782 10.7207357,136.105745 10.2279711,136.105745 L7.42045515,136.105745 C7.3500602,136.105745 7.22169296,138.825164 7.22169296,138.825164 C7.06019868,138.775418 1.73916918,138.738109 1.73916918,138.738109 C0.803330524,138.738109 0.0455496689,139.496727 0.0455496689,140.429455 L0.0455496689,153.5664 C0.0455496689,154.499127 0.803330524,155.257745 1.73916918,155.257745 L6.70822396,155.257745 C7.64406261,155.257745 8.39770259,154.494982 8.39770259,153.5664 L8.39770259,152.617091 L26.3773992,152.617091 C27.0357989,152.617091 27.6403672,152.260582 27.9509332,151.676073 L30.4396014,147.037309 C30.8578302,146.245527 31.1104238,145.7688 31.379581,145.287927 C35.7647718,137.569091 43.9388669,132.747927 52.7382348,132.747927 C60.8212306,132.747927 68.3534895,136.735855 72.920879,143.393455 L72.920879,35.7318545 C72.920879,34.7452364 73.7242095,33.9410182 74.7097387,33.9410182 L134.657244,33.9410182 C135.642773,33.9410182 136.446104,34.7410909 136.446104,35.7318545 L136.446104,103.808509 L174.355851,103.808509 L174.355851,39.5622545 L293.091415,39.5622545 L293.091415,103.808509 L358.086651,103.808509 L358.086651,86.1613091 C358.778178,85.9457455 359.279225,85.3114909 359.279225,84.5528727 L359.279225,82.5672 C359.279225,81.8044364 358.778178,81.1701818 358.086651,80.9546182 L358.086651,32.3698909 C358.782319,32.1543273 359.283365,31.5200727 359.283365,30.7573091 Z M18.066655,135.359564 C16.4724166,135.359564 15.1846033,132.192436 15.1846033,128.291564 C15.1846033,124.390691 16.4765575,121.223564 18.066655,121.223564 C19.6567526,121.223564 20.9487068,124.390691 20.9487068,128.291564 C20.9487068,132.192436 19.6608934,135.359564 18.066655,135.359564 Z M20.5346189,117.264655 L15.9962155,117.264655 C15.5490006,117.264655 15.1846033,116.899855 15.1846033,116.456291 L15.1846033,114.636436 C15.1846033,114.192873 15.5490006,113.828073 15.9962155,113.828073 L20.5387598,113.828073 C20.9859747,113.828073 21.3503721,114.192873 21.3503721,114.636436 L21.3503721,116.456291 C21.3462312,116.899855 20.9859747,117.264655 20.5346189,117.264655 Z M67.9435424,76.9418182 C67.9435424,78.9813818 66.2871908,80.6437091 64.2457375,80.6437091 L48.9783167,80.6437091 C46.9410042,80.6437091 45.2805117,78.9813818 45.2805117,76.9418182 C45.2805117,76.4982545 45.3591884,76.0671273 45.5082601,75.6567273 L56.1254738,32.1211636 C56.8128597,29.4432 59.2021469,27.5860364 61.9475497,27.5860364 C65.2602529,27.5860364 67.9518242,30.2805818 67.9518242,33.5969455 L67.9435424,76.9418182 Z"/>
    <polygon fill="#F69A98" points="293.091 33 174.352 33 159.399 24.709 308.901 24.709"/>
    <path fill="#FBCFCE" d="M337.788063,74.1726545 L328.322013,74.1726545 L328.529057,72.0874909 L337.788063,72.0874909 C338.392631,72.0874909 338.897818,72.5559273 338.897818,73.128 C338.897818,73.7000727 338.396772,74.1726545 337.788063,74.1726545 Z"/>
    <path fill="#F27674" d="M336.115148,77.6860364 L327.841671,77.6860364 L328.106688,75.0951273 L338.889536,75.0951273 C338.889536,76.5211636 337.651414,77.6860364 336.115148,77.6860364 Z"/>
    <path fill="#FBCFCE" d="M315.845545,80.0094545 L313.634315,58.2665455 C314.582577,58.5194182 316.561917,58.6603636 320.893276,58.6603636 C325.29089,58.6603636 327.290934,58.5152727 328.251618,58.2624 L326.040389,80.0094545 C325.787795,82.2231273 316.122984,82.2521455 315.845545,80.0094545 Z"/>
    <path fill="#F27674" d="M313.621893 57.2048727C313.621893 56.5747636 313.534934 55.6503273 320.8146 55.6461818L321.974046 51.1027636C321.998891 50.9825455 322.085849 50.8747636 322.201794 50.8125818L325.444102 49.2C325.613878 49.2 325.771232 49.2870545 325.849908 49.4445818 325.907881 49.5482182 325.920303 49.6725818 325.883036 49.7928 325.845768 49.9130182 325.76295 50.0125091 325.647005 50.0664L322.785658 51.6582545 321.767002 55.6586182C328.201928 55.7373818 328.30545 56.6037818 328.30545 57.2090182 328.30545 57.2090182 328.901736 57.7810909 320.893276 57.7810909 312.884816 57.7728 313.621893 57.2048727 313.621893 57.2048727zM329.24957 66.2443636C329.597404 66.2236364 329.945238 66.2070545 330.301353 66.2070545 335.017815 66.2070545 338.848128 68.4248727 338.848128 71.1608727L328.748524 71.1608727 329.24957 66.2443636z"/>
    <g transform="rotate(-15 380.868 -115.997)">
      <polygon fill="#FBCFCE" points="1.024 13.821 12.771 13.821 7.41 30.903"/>
      <ellipse cx="8.776" cy="3.714" fill="#EF5350" rx="1.776" ry="1.389"/>
      <path stroke="#F69A98" stroke-width=".72" d="M13.897561,0.355208333 C13.2829268,0.096875 11.8487805,-0.161458333 11.0634146,0.226041667 C10.2780488,0.613541667 10.1414634,1.67916667 9.52682927,2.55104167"/>
      <path fill="#F69A98" d="M13.897561,10.559375 C14.4439024,13.4010417 10.8585366,16.2104167 7.13658537,16.2104167 C3.41463415,16.2104167 -0.717073171,13.6916667 0.341463415,10.559375 C1.33170732,7.52395833 3.3804878,4.90833333 7.10243902,4.90833333 C10.8243902,4.90833333 13.2829268,7.459375 13.897561,10.559375 Z"/>
      <path fill="#FFEBEB" d="M7.13658537 6.33679924L7.13658537 6.27104167C7.13658537 6.20528409 7.20487805 6.10664773 7.30731707 6.10664773L9.08292683 5.909375C9.18536585 5.909375 9.28780488 5.94225379 9.28780488 6.04089015L9.28780488 6.10664773C9.28780488 6.1724053 9.2195122 6.27104167 9.11707317 6.27104167L7.34146341 6.46831439C7.27317073 6.46831439 7.17073171 6.40255682 7.13658537 6.33679924zM10.0390244 12.1416667L10.0390244 12.1416667C9.93658537 12.1739583 9.76585366 12.1416667 9.73170732 12.0770833L8.91219512 10.9145833C8.84390244 10.8177083 8.87804878 10.7208333 9.01463415 10.65625L9.01463415 10.65625C9.11707317 10.6239583 9.28780488 10.65625 9.32195122 10.7208333L10.1414634 11.8833333C10.2097561 11.9802083 10.1756098 12.0770833 10.0390244 12.1416667zM7.5804878 8.88020833L7.5804878 8.88020833C7.64878049 8.97708333 7.61463415 9.07395833 7.51219512 9.13854167L6.11219512 9.88125C6.0097561 9.94583333 5.83902439 9.91354167 5.77073171 9.84895833L5.77073171 9.84895833C5.70243902 9.75208333 5.73658537 9.65520833 5.83902439 9.590625L7.23902439 8.84791667C7.37560976 8.78333333 7.51219512 8.78333333 7.5804878 8.88020833zM9.52682927 9.26770833L9.52682927 9.26770833C9.42439024 9.23541667 9.35609756 9.10625 9.42439024 9.009375L10.2439024 7.846875C10.3121951 7.75 10.4487805 7.71770833 10.5512195 7.78229167L10.5512195 7.78229167C10.6536585 7.81458333 10.7219512 7.94375 10.6536585 8.040625L9.83414634 9.203125C9.76585366 9.26770833 9.62926829 9.3 9.52682927 9.26770833zM6.21463415 7.62083333L6.21463415 7.62083333C6.14634146 7.68541667 5.97560976 7.71770833 5.87317073 7.653125L4.54146341 6.78125C4.43902439 6.71666667 4.43902439 6.5875 4.50731707 6.52291667L4.50731707 6.52291667C4.57560976 6.45833333 4.74634146 6.42604167 4.84878049 6.490625L6.14634146 7.33020833C6.28292683 7.42708333 6.28292683 7.52395833 6.21463415 7.62083333zM3.09365854 9.75208333L2.9297561 9.75208333C2.83141463 9.75208333 2.76585366 9.6875 2.76585366 9.590625L2.76585366 8.20208333C2.76585366 8.10520833 2.83141463 8.040625 2.9297561 8.040625L3.09365854 8.040625C3.192 8.040625 3.25756098 8.10520833 3.25756098 8.20208333L3.25756098 9.590625C3.25756098 9.6875 3.192 9.75208333 3.09365854 9.75208333zM3.41463415 12.5614583L3.41463415 12.5614583C3.31219512 12.5291667 3.24390244 12.4 3.31219512 12.303125L4.02926829 11.1083333C4.09756098 11.0114583 4.23414634 10.9791667 4.33658537 11.0114583L4.33658537 11.0114583C4.43902439 11.04375 4.50731707 11.1729167 4.43902439 11.2697917L3.75609756 12.4645833C3.68780488 12.5614583 3.55121951 12.59375 3.41463415 12.5614583z"/>
    </g>
    <g transform="matrix(-1 0 0 1 202 65)">
      <g transform="translate(.193 13.24)">
        <path fill="#FFF" stroke="#AAA" stroke-width=".749" d="M8.74661778,17.1145894 L0.918153248,17.1145894 C0.531562407,17.1145894 0.193295421,16.8081298 0.193295421,16.407375 L0.193295421,0.70721444 C0.193295421,0.330033405 0.531562407,0 0.918153248,0 L8.74661778,0 C9.15737055,0 9.47147561,0.330033405 9.47147561,0.70721444 L9.47147561,16.407375 C9.47147561,16.784556 9.15737055,17.1145894 8.74661778,17.1145894 L8.74661778,17.1145894 Z"/>
        <polygon fill="#AAA" fill-rule="nonzero" points="0 3.629 9.482 3.629 9.482 2.877 0 2.877"/>
        <polygon fill="#AAA" fill-rule="nonzero" points=".193 14.889 9.471 14.889 9.471 14.137 .193 14.137"/>
        <path fill="#F69A98" d="M5.90030964,1.77941149 L3.62721179,1.77941149 C3.49350015,1.77941149 3.38653084,1.68546077 3.38653084,1.56802238 L3.38653084,1.56802238 C3.38653084,1.45058399 3.49350015,1.35663327 3.62721179,1.35663327 L5.90030964,1.35663327 C6.03402128,1.35663327 6.14099059,1.45058399 6.14099059,1.56802238 L6.14099059,1.56802238 C6.14099059,1.66197309 6.03402128,1.77941149 5.90030964,1.77941149 L5.90030964,1.77941149 Z"/>
        <path fill="#9E9E9E" fill-rule="nonzero" d="M4.83238551,16.7854445 C5.42901709,16.7854445 5.93218068,16.3466525 5.93218068,15.7771631 C5.93218068,15.2076736 5.42901709,14.7688816 4.83238551,14.7688816 C4.23575393,14.7688816 3.73259034,15.2076736 3.73259034,15.7771631 C3.73259034,16.3466525 4.23575393,16.7854445 4.83238551,16.7854445 Z M4.83238551,16.0331297 C4.62836125,16.0331297 4.48246503,15.9058985 4.48246503,15.7771631 C4.48246503,15.6484276 4.62836125,15.5211964 4.83238551,15.5211964 C5.03640978,15.5211964 5.182306,15.6484276 5.182306,15.7771631 C5.182306,15.9058985 5.03640978,16.0331297 4.83238551,16.0331297 Z"/>
        <path fill="#F69A98" d="M5.82852497,4.96545512 L2.45970998,4.96545512 L2.03191851,5.71745132 L4.11526333,5.71745137 C4.6392266,5.71745137 4.64901835,6.07073876 4.83326814,6.45863061 L2.289834,6.45863061 L2.03191851,7.22326697 L4.83326817,7.22326697 C4.64901838,7.61115881 4.20668203,7.96509576 3.69067996,7.96509576 L2.45970998,7.96509576 C3.49171412,9.25811859 4.41625295,10.4557487 5.49702876,11.7486215 L6.69484619,11.7486215 L4.17087586,8.68685174 C5.18418587,8.68685174 5.60735684,8.06364928 5.82852503,7.22326697 L7.16541615,7.21800004 L7.45036786,6.46772568 L5.82852497,6.45863061 C5.7919488,6.23231035 5.63198069,5.91139729 5.48517549,5.71745137 L7.16541615,5.71745132 L7.45036786,4.96545512 L5.82852497,4.96545512 Z" transform="matrix(-1 0 0 1 9.482 0)"/>
      </g>
      <g transform="matrix(-1 0 0 1 66.638 0)">
        <path fill="#DADADA" d="M0.594712899,74.6368802 C0.730898309,76.9918974 2.66824559,78.8102232 4.97735708,78.8102232 C5.06357123,78.8102232 5.14978538,78.8069 5.23764694,78.8024691 C7.65933104,78.6573575 9.50826763,76.5609935 9.36549261,74.1173585 C9.1502318,70.4330748 9.05248582,67.0794461 9.05413322,64.0254563 C9.03491351,50.6126032 10.9739082,43.0784314 12.8783074,39.1460179 L12.8783074,57.3431227 L12.8783074,67.833251 L12.8783074,122.111634 C12.8783074,125.894505 15.9188663,128.959018 19.6672599,128.959018 C23.4167518,128.959018 26.4573107,125.894505 26.4573107,122.111634 L26.4573107,72.1140431 L29.0025501,72.1140431 L29.0025501,122.111634 C29.0025501,125.894505 32.043109,128.959018 35.7915026,128.959018 C39.5409945,128.959018 42.5815534,125.894505 42.5815534,122.111634 L42.5815534,67.833251 L42.5815534,57.3431227 L42.5815534,39.4102096 C43.1213528,39.7336645 43.680372,40.0471498 44.2811254,40.3318344 C46.1586169,41.2218891 48.3705316,41.8926149 50.8366956,41.8948303 L50.9097305,41.8948303 C53.4500277,41.8948303 56.2011927,41.0900702 58.6547266,39.3797473 C61.1450525,37.6577933 63.3498284,35.1188942 65.3278117,31.6971406 C66.5507347,29.5836069 65.8418018,26.8702416 63.7457545,25.6384546 C61.6497073,24.4061138 58.9589472,25.1211484 57.7376716,27.235236 C56.2379847,29.8328443 54.8195697,31.2939298 53.6943927,32.0654582 C52.5549381,32.8336635 51.7284904,33.0197608 50.8366956,33.0336074 C49.9866351,33.0358228 49.0300424,32.7943394 48.0190854,32.3130341 C46.5067684,31.6057536 44.9647981,30.3612278 43.8846501,29.2939375 C43.3415558,28.7616771 42.9077394,28.2770487 42.6227385,27.944732 C42.4805126,27.7769121 42.3750787,27.6473086 42.3135757,27.5681065 C42.2806276,27.5271208 42.2592113,27.5010893 42.2504252,27.4872428 L42.249876,27.4872428 C41.4690065,26.4454302 40.3196675,25.8550143 39.1247504,25.7497807 C38.8694027,25.7010409 38.6074654,25.672794 38.3378403,25.672794 L17.1220205,25.672794 C16.6558051,25.672794 16.2088095,25.7519961 15.7887214,25.8915691 C14.8568398,26.0256035 13.6866337,26.3307809 12.4098955,26.9810138 C9.45609984,28.4576074 6.27166761,31.6899405 4.04382806,37.415756 C1.78963004,43.1631721 0.274018224,51.4755188 0.266330338,64.0260102 C0.267428607,67.2699743 0.370665934,70.7975154 0.594712899,74.6368802 Z"/>
        <ellipse cx="26.246" cy="10.833" fill="#F69A98" rx="10.737" ry="10.833"/>
      </g>
    </g>
  </g>
</svg>
