<svg xmlns="http://www.w3.org/2000/svg" width="58" height="58" viewBox="0 0 58 58">
  <g fill="none" fill-rule="evenodd" transform="translate(1 4)">
    <path fill="#F1F1F1" d="M9.96552941 36.5793387C9.51011765 36.5793387 9.142 36.9478548 9.142 37.4019194L9.142 46.8615968C9.142 47.3156613 9.51011765 47.6841774 9.96552941 47.6841774L15.7302353 47.6841774C16.1856471 47.6841774 16.5537647 47.3156613 16.5537647 46.8615968L16.5537647 37.4019194C16.5537647 36.9478548 16.1856471 36.5793387 15.7302353 36.5793387L9.96552941 36.5793387 9.96552941 36.5793387zM26.3051765 28.3535323L20.5404706 28.3535323C20.0850588 28.3535323 19.7169412 28.7220484 19.7169412 29.1761129L19.7169412 46.8615968C19.7169412 47.3156613 20.0850588 47.6841774 20.5404706 47.6841774L26.3051765 47.6841774C26.7605882 47.6841774 27.1287059 47.3156613 27.1287059 46.8615968L27.1287059 29.1761129C27.1287059 28.7220484 26.7605882 28.3535323 26.3051765 28.3535323zM31.1162353 20.1277258C30.6608235 20.1277258 30.2927059 20.4962419 30.2927059 20.9503065L30.2927059 46.8615968C30.2927059 47.3156613 30.6608235 47.6841774 31.1162353 47.6841774L36.8809412 47.6841774C37.3363529 47.6841774 37.7044706 47.3156613 37.7044706 46.8615968L37.7044706 20.9503065C37.7044706 20.4962419 37.3363529 20.1277258 36.8809412 20.1277258L31.1162353 20.1277258 31.1162353 20.1277258z"/>
    <path fill="#FEBBBA" d="M40.8684706,12.7245 L40.8684706,46.8615968 C40.8684706,47.3156613 41.2365882,47.6841774 41.692,47.6841774 L47.4567059,47.6841774 C47.9121176,47.6841774 48.2802353,47.3156613 48.2802353,46.8615968 L48.2802353,12.7245 C48.2802353,12.2704355 47.9121176,11.9019194 47.4567059,11.9019194 L41.692,11.9019194 C41.2365882,11.9019194 40.8684706,12.2704355 40.8684706,12.7245 Z"/>
    <path fill="#CFCFCF" d="M0.890235294,50.4538065 L55.09,50.4538065 C55.5454118,50.4538065 55.9135294,50.0852903 55.9135294,49.6312258 C55.9135294,49.1771613 55.5454118,48.8086452 55.09,48.8086452 L0.890235294,48.8086452 C0.434823529,48.8086452 0.0667058824,49.1771613 0.0667058824,49.6312258 C0.0667058824,50.0852903 0.434823529,50.4538065 0.890235294,50.4538065 Z"/>
    <path fill="#F69A98" d="M6.95964706,33.4847903 C7.08152941,33.4847903 7.20670588,33.4576452 7.32364706,33.3992419 C7.44305882,33.3408387 19.2582353,27.4626774 27.1221176,20.6056452 C33.1421176,15.3567581 38.1244706,7.44517742 40.2697647,3.76083871 L40.3867059,4.51267742 C40.4501176,4.91903226 40.8001176,5.20940323 41.1995294,5.20940323 C41.2415294,5.20940323 41.2843529,5.2061129 41.3263529,5.19953226 C41.776,5.1296129 42.084,4.70927419 42.014,4.26014516 L41.5552941,1.30872581 C41.5190588,1.07593548 41.3815294,0.876048387 41.1863529,0.749370968 C41.1418824,0.712354839 41.1056471,0.668758065 41.0529412,0.640790323 C40.9252941,0.57333871 40.7885882,0.555241935 40.6535294,0.557709677 C40.5225882,0.54783871 40.3908235,0.560177419 40.2672941,0.612822581 L37.4310588,1.83353226 C37.0127059,2.01367742 36.8208235,2.49735484 37.0011765,2.91440323 C37.1815294,3.33145161 37.6674118,3.5231129 38.0824706,3.34379032 L38.7725882,3.04683871 C36.6272941,6.69909677 31.7503529,14.3861129 26.04,19.3651935 C18.3391765,26.0799194 6.71011765,31.8659516 6.594,31.9243548 C6.18635294,32.1258871 6.01917647,32.6194355 6.22094118,33.0266129 C6.36505882,33.3169839 6.65658824,33.4847903 6.95964706,33.4847903 Z"/>
  </g>
</svg>
