<svg xmlns="http://www.w3.org/2000/svg" width="58" height="58" viewBox="0 0 58 58">
  <g fill="none" fill-rule="evenodd" transform="translate(10 6)">
    <path fill="#F1F1F1" fill-rule="nonzero" d="M18.1051805,1.77175385 C20.9046542,1.84401758 23.7185489,2.59506462 26.3123911,4.09592967 C34.6128647,8.89869363 37.4697595,19.5630119 32.6775489,27.8816703 C27.8852858,36.2002813 17.2444437,39.0470505 8.94397,34.2443077 C0.643601579,29.4415121 -2.19687189,18.7936826 2.59533842,10.4750505 C5.88991737,4.75599297 11.9462858,1.61277363 18.1051805,1.77175385 Z"/>
    <path fill="#FEDBDA" d="M7.13507526,26.0355165 C5.60965421,26.127244 3.68639105,26.4608703 2.48044368,26.9420835 C3.71249632,29.448422 5.59365421,31.6622769 8.05612789,33.3047209 C8.70054895,32.976844 9.51523316,32.4919385 10.29297,31.8377143 C13.1737595,29.2619077 11.9962858,26.0355165 7.13507526,26.0355165 Z"/>
    <path fill="#FEDBDA" d="M26.6981927,19.7694639 C25.1727716,19.8611914 24.1929103,20.8807411 23.4109926,22.2644895 C24.1929103,25.4425698 22.3885384,26.3875516 24.851012,28.0299956 C25.4954331,27.7021187 26.3101173,27.2172132 27.0878542,26.562989 C29.9686436,23.9871824 31.5594032,19.7694639 26.6981927,19.7694639 Z" transform="matrix(-1 0 0 1 53.224 0)"/>
    <polygon fill="#FEBBBA" points="23.944 43.97 24.997 47.662 10.26 47.662 11.313 43.97"/>
    <path fill="#FEBBBA" d="M29.2893911,0.337687912 C35.5643384,4.24650725 39.7334437,11.2376862 39.7334437,19.1783473 C39.7334437,31.046822 30.3883384,40.7629187 18.6808121,41.3157099 L18.6808121,43.4421099 L16.5755489,43.4421099 L16.5755489,41.3157099 C13.8199174,41.1823648 11.1987595,40.5222857 8.79597,39.469556 C8.24965421,39.2795604 7.94502263,38.5824527 8.17607526,38.0512352 C8.40712789,37.5199648 9.12407526,37.2692044 9.63481211,37.541011 C12.0865489,38.6152088 14.7806542,39.2223297 17.6281805,39.2223297 C28.6864437,39.2223297 37.6281805,30.2608352 37.6281805,19.1783473 C37.6281805,11.9777934 33.8643911,5.6707411 28.1874437,2.13439121 C27.7740753,1.89406418 27.5664963,1.34833582 27.7153384,0.893227253 C27.9587068,0.181967473 28.6642332,0.0434268132 29.2893911,0.337687912 L29.2893911,0.337687912 Z"/>
    <path fill="#FEDBDA" d="M18.0725489,1.77175385 C15.4797068,1.70366769 12.9003911,2.25362637 10.5725489,3.37065495 C9.88054895,5.40303824 9.75628579,7.59285099 9.73370684,8.6288967 C9.69423316,10.4369301 10.5318121,11.5803376 11.3126542,12.8486769 C12.4305489,14.6639051 14.7246542,15.7035851 14.9968647,17.0684571 C15.5231805,19.7058198 15.7601805,23.4039033 18.6810753,23.3981011 C19.9407595,23.3981011 20.7021805,22.4939077 21.3126542,21.2882374 C22.8240226,18.3033547 21.8401279,16.0591385 22.3652858,13.3761495 C22.8831805,10.7306954 25.5231805,9.98523956 25.5231805,7.57395165 C25.5231805,6.16585319 25.0316016,4.55507868 24.33897,3.2223033 C22.3168647,2.30561407 20.1878647,1.8272967 18.0725489,1.77175385 Z"/>
  </g>
</svg>
