<svg xmlns="http://www.w3.org/2000/svg" width="58" height="58" viewBox="0 0 58 58">
  <g fill="none" fill-rule="evenodd" transform="translate(1 8)">
    <path fill="#FEBBBA" d="M50.1052632,7.45576271 C50.1052632,11.4808889 46.8063087,14.7438983 42.7368421,14.7438983 C38.6673755,14.7438983 35.3684211,11.4808889 35.3684211,7.45576271 C35.3684211,3.43063657 38.6673755,0.167627119 42.7368421,0.167627119 C46.8063087,0.167627119 50.1052632,3.43063657 50.1052632,7.45576271 Z"/>
    <path fill="#F1F1F1" d="M23.8589474,31.0547458 C25.2260553,32.2378213 27.2745579,32.2126903 28.6115789,30.9964407 L33.3052632,26.6672881 L35.0252959,43 L50.4515789,43 C50.4515789,43 53.6735148,40.9006939 53.9,38.9259322 L55.8968421,23.540678 C56.0984761,21.7924027 55.5362233,20.0421075 54.3513548,18.7295698 C53.1664862,17.4170321 51.4716291,16.6670147 49.6926316,16.6679661 L47.4010526,16.6679661 C47.309668,16.6614434 47.2202284,16.6962933 47.1578947,16.7627119 L43.3336842,21.4854237 C43.1945284,21.6689432 42.976137,21.7769492 42.7442105,21.7769492 C42.5122841,21.7769492 42.2938927,21.6689432 42.1547368,21.4854237 L38.3157895,16.7627119 C38.2586128,16.6920421 38.1714928,16.6516495 38.08,16.6533898 L34.8452632,16.7627119 C33.956955,16.801236 33.1155691,17.1679321 32.4873684,17.790339 C32.2368421,18.0381356 28.7589474,21.2886441 26.1357895,23.6937288 L22.3778947,21.1064407 C22.0376242,20.8866595 21.5981652,20.8866595 21.2578947,21.1064407 L18.7378947,22.5932203 L17.2642105,23.4969492 C17.0863751,23.6084534 16.9694754,23.7939156 16.946538,24.0009385 C16.9236006,24.2079615 16.9971165,24.4140637 17.1463158,24.5610169 L23.8589474,31.0547458 Z"/>
    <path fill="#FEDBDA" d="M24.0431579,16.7627119 L25.1852632,16.0338983 C25.7561192,16.6238311 26.6531483,16.7680831 27.3835467,16.3874063 C28.1139451,16.0067294 28.5007981,15.19333 28.3315789,14.3940678 L27.4694737,10.4949153 L27.4694737,10.4438983 C27.2800097,9.6815354 26.6198815,9.12374404 25.8289866,9.05772908 C25.0380918,8.99171411 24.2927931,9.4321963 23.9768421,10.1523729 L10.1315789,8.42508475 L10.1315789,8.42508475 C9.88425521,7.46047665 8.90272054,6.8683638 7.92244667,7.09242106 C6.9421728,7.31647832 6.32279636,8.27450499 6.52842105,9.24864407 L9.76315789,24.1237288 L9.76315789,24.1747458 C10.0012217,25.1629142 11.0041039,25.7730969 12.0031579,25.5376271 C13.0022119,25.3021572 13.6191164,24.3102024 13.3810526,23.3220339 L13.3810526,23.2272881 L17.6031579,20.6691525 L24.0431579,16.7627119 Z"/>
    <path fill="#FEBBBA" d="M1.42210526 19.0438983C1.4980385 19.051754 1.57459308 19.051754 1.65052632 19.0438983L5.20947368 18.3150847C5.79724428 18.1879129 6.16983257 17.6139215 6.04210526 17.0323729 5.91353255 16.4510066 5.33321805 16.082478 4.74526316 16.2088136L1.18631579 16.9376271C.635911988 17.0488173.260961503 17.5553819.320067641 18.1079432.379173778 18.6605046.85299499 19.0782458 1.41473684 19.0730508L1.42210526 19.0438983zM4.64210526 15.1884746L4.81894737 15.1884746C5.31837106 15.1214274 5.70378725 14.7204172 5.74622778 14.2236764 5.7886683 13.7269356 5.47675502 13.2676384 4.99578947 13.1186441L1.31157895 12.5064407 1.13473684 12.5064407C.635313151 12.5734879.249896957 12.974498.207456435 13.4712388.165015913 13.9679796.476929194 14.4272769.957894737 14.5762712L4.64210526 15.1884746zM3.01368421 23.2054237C3.22647156 23.20441 3.43417558 23.1410024 3.61052632 23.0232203L6.71263158 20.9679661C7.0324783 20.7557564 7.21356919 20.3908896 7.18768906 20.0108075 7.16180893 19.6307253 6.93288959 19.2931714 6.58716274 19.125299 6.24143589 18.9574266 5.83142567 18.9847394 5.51157895 19.1969492L2.40947368 21.2522034C2.0101316 21.5117807 1.83176681 22.0007972 1.97157871 22.4527645 2.1113906 22.9047319 2.53586437 23.2113074 3.01368421 23.2054237L3.01368421 23.2054237z"/>
  </g>
</svg>
