<svg xmlns="http://www.w3.org/2000/svg" width="58" height="58" viewBox="0 0 58 58">
  <g fill="none" fill-rule="evenodd" transform="translate(3 12)">
    <path fill="#F1F1F1" d="M36.4,0.343137255 C34.4877867,0.343137255 32.9333333,1.88176471 32.9333333,3.7745098 L32.9333333,4.86019608 L6.02853333,13.2533333 C5.83370667,11.7819608 4.57184,12.1153846 3.03333333,12.1153846 C1.35962667,12.1153846 0,11.9830392 0,13.6397059 L0,21.3602941 C0,23.0169608 1.35962667,22.8846154 3.03333333,22.8846154 C4.57184,22.8846154 5.83370667,23.2180392 6.02853333,21.7466667 L7.87557333,22.322451 C7.6024,22.6230392 7.38261333,22.9764706 7.25018667,23.3786275 C6.74890667,24.9097059 7.59962667,26.5581373 9.14576,27.0543137 L19.0396267,30.2255882 C19.3322133,30.3196078 19.6352,30.3676471 19.9416533,30.3676471 C21.2250133,30.3676471 22.3544533,29.5578431 22.7496533,28.3493137 C22.8959467,27.9039216 22.91536,27.44 22.8418667,26.9898039 L32.9333333,30.1398039 L32.9333333,31.2254902 C32.9333333,33.1182353 34.4877867,34.6568627 36.4,34.6568627 C38.3122133,34.6568627 39.8666667,33.1182353 39.8666667,31.2254902 L39.8666667,3.7745098 C39.8666667,1.88176471 38.3122133,0.343137255 36.4,0.343137255 Z M21.1009067,27.8208824 C20.9026133,28.4268627 20.1877867,28.7912745 19.5728,28.5956863 L9.67962667,25.4216667 C9.04314667,25.2178431 8.69093333,24.5398039 8.89962667,23.9098039 C9.05909333,23.4191176 9.53610667,23.0787255 10.05888,23.0787255 C10.1809067,23.0787255 10.3050133,23.0972549 10.42704,23.135 L20.3209067,26.3090196 C20.6266667,26.4078431 20.8755733,26.619902 21.02464,26.9067647 C21.1737067,27.1936275 21.2007467,27.5182353 21.1009067,27.8208824 Z"/>
    <path fill="#FBCFCE" d="M38.1333333,31.2254902 C38.1333333,32.1718627 37.3561067,32.9411765 36.4,32.9411765 C35.4438933,32.9411765 34.6666667,32.1718627 34.6666667,31.2254902 L34.6666667,3.7745098 C34.6666667,2.82813725 35.4438933,2.05882353 36.4,2.05882353 C37.3561067,2.05882353 38.1333333,2.82813725 38.1333333,3.7745098 L38.1333333,31.2254902 Z"/>
    <path fill="#FEBBBA" d="M6.5,22.5480769 C6.5,23.4769231 6.5,24.2307692 3.25,24.2307692 C0,24.2307692 0,23.4769231 0,22.5480769 L0,12.4519231 C0,11.5230769 0,10.7692308 3.25,10.7692308 C6.5,10.7692308 6.5,11.5230769 6.5,12.4519231 L6.5,22.5480769 Z"/>
    <path fill="#FEBBBA" fill-rule="nonzero" d="M41.5,17.5 C41.5,16.9454566 41.9537304,16.5 42.5096495,16.5 L51.4903505,16.5 C52.0442592,16.5 52.5,16.9521004 52.5,17.5 C52.5,18.0545434 52.0462696,18.5 51.4903505,18.5 L42.5096495,18.5 C41.9557408,18.5 41.5,18.0478996 41.5,17.5 Z"/>
    <g fill="#FEBBBA" fill-rule="nonzero" transform="translate(41)">
      <path d="M0.5,11.65065 C0.5,11.0961066 0.953730404,10.65065 1.50964952,10.65065 L10.4903505,10.65065 C11.0442592,10.65065 11.5,11.1027504 11.5,11.65065 C11.5,12.2051933 11.0462696,12.65065 10.4903505,12.65065 L1.50964952,12.65065 C0.955740835,12.65065 0.5,12.1985496 0.5,11.65065 Z" transform="rotate(-18 6 11.65)"/>
      <path d="M-0.503781508,4.65064999 C-0.503781508,4.09610663 -0.0500511047,3.65064999 0.505868007,3.65064999 L9.48656898,3.65064999 C10.0404777,3.65064999 10.4962185,4.10275035 10.4962185,4.65064999 C10.4962185,5.20519334 10.0424881,5.65064999 9.48656898,5.65064999 L0.505868007,5.65064999 C-0.048040673,5.65064999 -0.503781508,5.19854962 -0.503781508,4.65064999 Z" transform="rotate(-45 4.996 4.65)"/>
    </g>
    <g fill="#FEBBBA" fill-rule="nonzero" transform="matrix(1 0 0 -1 41 35)">
      <path d="M0.5,11.65065 C0.5,11.0961066 0.953730404,10.65065 1.50964952,10.65065 L10.4903505,10.65065 C11.0442592,10.65065 11.5,11.1027504 11.5,11.65065 C11.5,12.2051933 11.0462696,12.65065 10.4903505,12.65065 L1.50964952,12.65065 C0.955740835,12.65065 0.5,12.1985496 0.5,11.65065 Z" transform="rotate(-18 6 11.65)"/>
      <path d="M-0.503781508,4.65064999 C-0.503781508,4.09610663 -0.0500511047,3.65064999 0.505868007,3.65064999 L9.48656898,3.65064999 C10.0404777,3.65064999 10.4962185,4.10275035 10.4962185,4.65064999 C10.4962185,5.20519334 10.0424881,5.65064999 9.48656898,5.65064999 L0.505868007,5.65064999 C-0.048040673,5.65064999 -0.503781508,5.19854962 -0.503781508,4.65064999 Z" transform="rotate(-45 4.996 4.65)"/>
    </g>
  </g>
</svg>
