<svg xmlns="http://www.w3.org/2000/svg" xmlns:xlink="http://www.w3.org/1999/xlink" width="58" height="58" viewBox="0 0 58 58">
  <defs>
    <path id="money-price_58x58-a" d="M9.0651241,3.34615385 L45.8829368,3.34615385 C45.8829368,6.42620341 48.4195582,8.92307692 51.5486394,8.92307692 L51.5486394,20.0769231 C48.4195582,20.0769231 45.8829368,22.5737966 45.8829368,25.6538462 L9.0651241,25.6538462 C9.0651241,22.5737966 6.52850266,20.0769231 3.39942154,20.0769231 L3.39942154,8.92307692 C6.52850266,8.92307692 9.0651241,6.42620341 9.0651241,3.34615385 Z"/>
    <mask id="money-price_58x58-b" width="48.149" height="22.308" x="0" y="0" fill="#fff">
      <use xlink:href="#money-price_58x58-a"/>
    </mask>
  </defs>
  <g fill="none" fill-rule="evenodd" transform="translate(2 15)">
    <path fill="#F1F1F1" d="M53.9694542,3.58509172 C54.0155037,1.40841865 53.2644977,0.256226338 50.6112461,0.290803261 L3.36058929,0.293591722 C0.575442606,0.295264799 -0.0493535156,1.51995711 0.00294970841,3.58788018 L0.0296698337,25.4661494 C-0.0971086332,28.3789763 1.22241075,28.8379571 3.38844644,28.7593225 L50.6385347,28.756534 C52.8534625,28.9567456 54.0649644,28.3839956 53.9973113,25.4628033 L53.9694542,3.58509172 Z" opacity=".99"/>
    <use fill="#F1F1F1" stroke="#CFCFCF" stroke-width="2.251" mask="url(#money-price_58x58-b)" xlink:href="#money-price_58x58-a"/>
    <path fill="#FEDBDA" d="M27.7744582,22.9618607 L27.7744582,22.9618607 C24.2058105,22.9618607 20.9849931,20.846254 19.6173879,17.6073556 C18.2543,14.3640173 19.008685,10.6311813 21.53723,8.15039378 C24.0646457,5.67071623 27.8580278,4.9292549 31.1578976,6.27787094 C34.4532501,7.62204708 36.6012146,10.7865774 36.6012146,14.295199 C36.6012146,16.597281 35.6706558,18.7994656 34.0162037,20.4255746 C32.3617515,22.0516837 30.1166656,22.9663006 27.7744582,22.9618607 Z"/>
    <path fill="#F69A98" d="M29.3767234,9.35483871 L24.0164095,9.35483871 L23.3357261,10.6268754 L26.650655,10.6268755 C27.4843629,10.6268755 27.4999431,11.2244777 27.7931135,11.8806148 L23.7461101,11.8806148 L23.3357261,13.174033 L27.7931135,13.174033 C27.4999432,13.8301702 26.7961165,14.4288711 25.9750761,14.4288711 L24.0164095,14.4288711 C25.6584902,16.6160796 27.1295768,18.6419269 28.8492609,20.8288817 L30.7551766,20.8288817 L26.7391433,15.649755 C28.3514787,15.649755 29.0248102,14.595579 29.3767235,13.174033 L31.5039274,13.1651237 L31.9573303,11.8959996 L29.3767234,11.8806148 C29.318525,11.4977835 29.0639906,10.9549441 28.8304005,10.6268755 L31.5039274,10.6268754 L31.9573303,9.35483871 L29.3767234,9.35483871 Z"/>
  </g>
</svg>
