<svg xmlns="http://www.w3.org/2000/svg" width="58" height="58" viewBox="0 0 58 58">
  <g fill="none" fill-rule="evenodd" transform="translate(1 8)">
    <polygon fill="#F1F1F1" points="40.012 33.339 40.012 23.454 12.111 23.454 12.111 16.04 6.056 22.218 0 28.397 6.056 34.575 12.111 40.753 12.111 33.339"/>
    <polygon fill="#F1F1F1" points="55.831 17.454 55.831 7.569 27.93 7.569 27.93 .155 21.874 6.334 15.819 12.512 21.874 18.69 27.93 24.868 27.93 17.454" transform="matrix(-1 0 0 1 71.65 0)"/>
    <ellipse cx="28" cy="20.658" fill="#FEDBDA" rx="10.769" ry="11.036"/>
    <path fill="#F69A98" d="M33.090037,18.0423063 C32.9828288,17.8258739 32.8008063,17.6936937 32.6033581,17.6936937 L29.2004617,17.6936937 L30.2864268,4.91156757 C30.3180493,4.54327928 30.1402688,4.1981982 29.8660781,4.09981982 C29.5918873,4.00093694 29.3041991,4.1765045 29.1854217,4.51351351 L22.8223447,22.6756757 C22.7394319,22.9102703 22.7544719,23.1821982 22.8612945,23.3991351 C22.9685027,23.6155676 23.1505252,23.7477477 23.3479734,23.7477477 L26.7508699,23.7477477 L25.6649047,36.5298739 C25.6332822,36.8981622 25.8126052,37.2432432 26.0852534,37.3416216 C26.1377006,37.3612973 26.1889909,37.3693694 26.2402811,37.3693694 C26.4616391,37.3693694 26.6694996,37.2018739 26.7659099,36.9279279 L33.1289868,18.7657658 C33.2118996,18.5311712 33.1968596,18.2592432 33.090037,18.0423063 Z"/>
  </g>
</svg>
