<svg xmlns="http://www.w3.org/2000/svg" width="58" height="58" viewBox="0 0 58 58">
  <g fill="none" fill-rule="evenodd" transform="translate(8 1)">
    <path fill="#CFCFCF" d="M34.3316396,15.280464 C31.5150567,17.4186777 30.1115106,14.3048009 29.99903,11.6876878 C29.8468298,8.16533797 30.0788209,2.53363209 26.1159911,0.797020536 C22.3187186,-0.86744692 17.0788832,1.82146676 17.3903137,6.04773686 L17.0542781,14.7555298 C21.0269499,17.5949154 26.0319822,23.7656408 31.7027586,20.3618134 C33.2310879,19.4445527 34.6957953,17.0490251 34.3316396,15.280464"/>
    <polygon fill="#FFEBEB" points="18.974 35.119 19.804 55.907 20.837 55.907 22.096 32.052 16.168 32.052 17.108 55.907 18.314 55.907"/>
    <polygon fill="#CFCFCF" points="18.301 54.419 17.461 54.095 15.008 55.907 18.559 55.907"/>
    <polygon fill="#CFCFCF" points="20.655 54.095 19.814 54.419 19.556 55.907 23.107 55.907"/>
    <path fill="#CFCFCF" d="M25.4730945,7.18795719 C22.8139844,5.37542255 18.4968409,4.82300487 16.0595284,5.43554264 C11.5068788,6.5791984 9.17501669,9.87309189 10.3532503,16.0970665 C15.978683,15.6449635 21.7229232,15.3536387 27.2713771,16.2468514 C28.6109499,13.029568 28.2566363,9.08431639 25.4730945,7.18795719 Z"/>
    <path fill="#FFEBEB" d="M22.5099355,21.0193554 C24.1032925,20.5902698 25.4404049,19.8437501 26.3300556,18.9014107 C26.8685562,18.8948834 27.5346518,18.3390303 27.9423938,17.5025023 C28.4281691,16.5055395 28.3624383,15.490369 27.7965206,15.2354598 C27.666465,15.1763703 26.5114305,15.165377 26.3585273,15.1918298 C25.6446274,12.7646961 22.3422692,10.9294876 18.3734638,10.9294876 C14.829624,10.9294876 12.8260645,12.3936693 11.7128587,14.4356909 C11.5167208,14.2841883 11.3033593,14.2092959 11.0903493,14.2402148 C10.4720578,14.3274748 10.1012236,15.2522934 10.2632659,16.3052537 C10.4239021,17.3585576 11.0559021,18.1414929 11.6748966,18.0542329 C11.7096952,18.0490797 11.7437909,18.0404911 11.777535,18.0305284 C12.5438087,19.3377108 14.0974461,20.3930759 15.3909722,20.9619836 L10.2323337,34.8194911 L16.1751724,24.3805834 L22.305713,24.3905461 L29.7322403,33.9963613 L22.5099355,21.0193554"/>
    <path fill="#FEBBBA" d="M17.0472481,31.7210738 L15.8387853,23.7333477 C15.8387853,23.7333477 18.0767964,22.3567696 18.8870078,22.3426843 C19.7861491,22.3279119 22.305713,23.7333477 22.305713,23.7333477 L20.9271235,31.6846582 L17.0472481,31.7210738"/>
    <path fill="#AAA" d="M15.877099 15.4089492C15.877099 15.8229189 15.5544205 16.1592478 15.1579266 16.1592478 14.7610812 16.1592478 14.4387542 15.8229189 14.4387542 15.4089492 14.4387542 14.9942924 14.7610812 14.6586505 15.1579266 14.6586505 15.5544205 14.6586505 15.877099 14.9942924 15.877099 15.4089492M20.9678977 15.7425298C20.9678977 16.1564995 20.6462736 16.4928284 20.2497798 16.4928284 19.8522314 16.4928284 19.5306073 16.1564995 19.5306073 15.7425298 19.5306073 15.327873 19.8522314 14.9918876 20.2497798 14.9918876 20.6462736 14.9918876 20.9678977 15.327873 20.9678977 15.7425298"/>
    <path fill="#E5E5E5" d="M15.7211882,43.0050982 C15.7211882,43.0050982 9.94988231,31.2603822 19.4580024,31.5259412 C27.7745319,31.7588636 22.6693217,43.1143449 22.6693217,43.1143449 C22.6693217,43.1143449 19.5318178,44.319495 15.7211882,43.0050982"/>
    <path fill="#F1F1F1" d="M8.46638932,36.1222074 C9.54690545,34.7628065 10.1743359,34.6253891 10.4868209,34.7071525 C11.031297,34.8490359 11.3870167,35.7618305 11.5951057,36.8092941 L8.46638932,36.1222074 Z M5.51729032,35.4746283 L0.244062291,48.9480543 L13.1262469,51.6589548 L14.4123915,37.4276721 L12.3075996,36.9659499 C12.0903715,35.7099554 11.6309588,34.3265064 10.6611657,34.0722844 C9.83830033,33.8565392 8.87799778,34.4786961 7.74827141,35.9645211 L5.51729032,35.4746283 L5.51729032,35.4746283 Z"/>
    <polyline fill="#CFCFCF" points="31.227 47.75 41.65 41.999 34.926 31.977 27.193 35.263 31.227 47.75"/>
    <path fill="#F1F1F1" d="M27.9620779,36.090945 C28.0358932,34.37048 28.4654283,33.9032611 28.7684227,33.7926401 C29.2960267,33.5999123 30.1276796,34.1416801 30.9189099,34.8768629 L27.9620779,36.090945 Z M25.1753726,37.2346008 L28.8738732,51.1999809 L40.9771301,46.1066074 L33.5804805,33.7843951 L31.5920356,34.600654 C30.6693437,33.700914 29.4745895,32.8341542 28.5336196,33.1766669 C27.7353593,33.4673046 27.3219933,34.5185472 27.2833281,36.3692151 L25.1753726,37.2346008 L25.1753726,37.2346008 Z"/>
    <path fill="#F69A98" d="M17.7595992 19.0765841C17.709774 19.0765841 17.6619194 19.0743783 17.6165982 19.0710696 16.9967394 19.0241965 16.4900429 18.6836774 16.2814528 18.386447 16.2397911 18.3268906 16.2552735 18.2455521 16.3160771 18.2047449 16.3768807 18.1642135 16.4599226 18.1791026 16.5015843 18.2383833 16.6752686 18.4857076 17.1048347 18.7708062 17.6371475 18.8105105 17.999154 18.83698 18.5382228 18.7561928 19.0615278 18.2121895 19.1121974 18.1595262 19.1966468 18.1573204 19.2501315 18.2063993 19.3036161 18.2560296 19.3061496 18.3384711 19.2557614 18.3911343 18.7242931 18.9431337 18.1705864 19.0765841 17.7595992 19.0765841zM24.8228788 11.7735736C25.2116396 11.5324062 26.4102603 10.5910975 25.7575217 10.0998305 25.2450323 9.71403133 23.9093259 10.7944751 23.9817353 11.2184076 23.9908743 10.6697689 23.7947364 9.41171319 23.0165117 9.8366763 22.4695751 10.1359025 22.7198443 11.5832506 23.0709944 12.0137104 22.6762581 11.400142 21.1233237 11.4667894 20.9960801 12.1030317 20.775337 13.2099283 22.5454994 13.2535583 23.2435818 12.8629495 22.773624 13.3968159 22.0678087 14.2797222 22.7472614 14.7452235 22.8136952 14.7902276 23.4970145 14.7953808 23.5824294 14.7510637 23.8017664 14.6383815 23.9989588 14.3106411 24.0822647 14.0038569 24.1465895 14.5123011 24.3884227 15.0963247 24.8675195 15.0437626 25.8432881 14.9365771 25.4945984 13.1594274 25.1336062 12.7468319 25.6116485 13.1669854 26.5058687 13.1103007 26.6397909 12.5156272 26.86897 11.4990825 25.4854594 11.3365865 24.8228788 11.7735736"/>
  </g>
</svg>
