<svg xmlns="http://www.w3.org/2000/svg" width="58" height="58" viewBox="0 0 58 58">
  <g fill="none" fill-rule="evenodd" transform="translate(6 5)">
    <ellipse cx="22.949" cy="22.834" fill="#F1F1F1" rx="22.949" ry="22.834"/>
    <rect width="5.1" height="3.552" x="21.419" y="35.012" fill="#FFEBEB"/>
    <path fill="#FBCFCE" d="M20.9045225,38.3288938 C20.9045225,38.3288938 17.9541785,38.2976312 15.8808694,39.3949074 C13.8075604,40.4921835 12.0701388,42.9037298 12.0701388,42.9037298 C12.0701388,42.9037298 16.3758922,45.9141019 23.6275444,45.7016005 C30.8791965,45.4890991 34.68578,42.4483973 34.68578,42.4483973 C34.68578,42.4483973 32.9004672,40.1853956 31.3853619,39.3949074 C29.8702566,38.6044192 29.2409303,38.3459968 26.1326601,38.3459968 L20.9045225,38.3288938 Z"/>
    <g transform="translate(7.82 9.66)">
      <path fill="#9B9B9B" d="M24.6594232,2.17481638 C24.52663,2.46101409 24.3910113,2.7472118 24.2582181,3.03054753 C24.1875834,3.18223231 24.2525673,3.31674524 24.3994875,3.37970873 C26.5241794,4.28695546 27.976429,6.11003486 28.4595704,8.36241082 C28.2420155,8.32520512 28.0244606,8.2908614 27.8097311,8.25365569 C27.5921762,8.21644999 27.4283037,8.45685607 27.5893508,8.63716062 C28.6488714,9.80770925 28.9511879,11.3274191 29.0048703,12.8728867 C29.0302988,13.5998289 29.0105211,14.329633 28.9398864,15.0508513 C28.9314102,15.1252627 28.4510942,17.8212451 28.2730947,17.6237686 C28.1403015,17.4778078 27.9481751,17.6094588 27.9283974,17.7668675 C27.8323342,18.4938097 27.6119539,19.071929 27.2248757,19.6271526 C27.4339544,18.3879165 27.445256,17.1028888 27.2842089,15.8436189 C27.2729073,15.7463117 27.2163995,15.6776242 27.1457648,15.6404185 L27.2587804,15.6404185 C27.54697,15.8464809 28.0075082,15.6604524 28.2448409,15.4314942 C28.6375698,15.0622992 28.7421092,14.4383882 28.6742999,13.9232323 C28.5330305,12.8700247 27.4367798,12.0514993 26.4620209,12.6954441 C26.3631323,12.7641316 26.3490054,12.8728867 26.38291,12.961608 C26.3772592,12.96447 26.3744339,12.96447 26.3716085,12.9673319 C26.0805935,13.2363578 25.8037054,13.5196935 25.5324682,13.8058912 C25.5691982,12.9387122 25.3488179,12.1516685 24.8430735,11.3817966 C24.7470103,11.2329738 24.5351061,11.2615936 24.4785984,11.4304503 C24.4531699,11.4791039 24.424916,11.5277575 24.3966621,11.5792731 C24.3458051,10.8695027 24.1084725,10.2198339 23.6790135,9.59878492 C23.6196804,9.51578759 23.4981887,9.45854804 23.4021255,9.52723549 C21.9413998,10.5718571 20.3450554,11.2014921 18.5848386,11.4018305 C18.7063303,11.1471145 18.7882665,10.8923986 18.8532504,10.5718571 C18.8871551,10.4030005 18.7063303,10.2198339 18.5424577,10.3314511 C16.5110036,11.6937521 14.1941853,12.3520069 11.7841291,12.334835 C12.1316519,12.0629472 12.4170161,11.7452677 12.685428,11.341729 C12.7673642,11.215802 12.6995549,11.0955989 12.5950156,11.0469453 C12.6063171,11.0412214 12.6176187,11.0383594 12.6289202,11.0326354 C12.6882534,11.0068776 12.6882534,10.9095704 12.6119679,10.9124324 C10.7754656,10.9296043 8.86832851,11.5191715 7.074207,11.8940905 C5.08230831,12.3119392 2.7598392,13.1247407 0.875305267,12.082981 C1.55904921,11.710924 2.11565069,11.2301119 2.54228431,10.5375134 C2.58183975,10.468826 2.57053819,10.3944145 2.52815737,10.340037 C2.62139518,10.2684876 2.62987135,10.1082168 2.48577655,10.0738731 C1.31889122,9.78767541 2.31907864,8.54843933 2.73158532,7.81863518 C3.21190132,6.97148996 3.77415357,6.17299836 4.41269131,5.43747025 C5.65303673,4.01506764 7.16461942,2.82448518 8.85702696,2.00023578 C12.8521259,0.0512293897 17.4659848,0.303083373 21.4130522,2.22060801 C21.593877,2.3093293 21.7690511,2.1977122 21.7888288,2.00023578 C21.8142573,1.75410575 21.8425112,1.50797572 21.8679397,1.26184569 C22.6618738,1.9601681 23.6083788,2.26067569 24.6594232,2.17481638"/>
      <path fill="#FFEBEB" d="M23.2213006,10.1683184 C24.0858694,10.0652872 24.0576155,11.7424058 23.9898062,12.3491449 C23.9728539,12.5180015 24.2186627,12.6153088 24.3260274,12.4893818 C24.4870745,12.2976293 24.6029155,12.1201867 24.701804,11.9227103 C25.1030092,12.6725483 25.2245009,13.4281103 25.0832314,14.3181851 C25.0549776,14.4956277 25.2697071,14.6816562 25.4138019,14.5127996 C25.8093562,14.0577452 26.1879582,13.5941049 26.5411318,13.1075688 C26.586338,13.1132928 26.6315442,13.1104308 26.6824012,13.0760871 C27.4057006,12.5952749 28.1374761,13.2277719 28.2476662,13.9804718 C28.3013486,14.3439429 28.2589678,14.7388958 28.0414129,15.0394033 C27.7984295,15.3742547 27.5526207,15.328463 27.2107488,15.4314942 C27.1514156,15.451528 27.1372887,15.5202155 27.1768441,15.5660071 C27.2022726,15.5946269 27.2305265,15.6203847 27.2587804,15.6404185 L27.1457648,15.6404185 C26.9931939,15.5602832 26.7699882,15.6261086 26.7982421,15.8436189 C27.1909711,19.0347233 26.5157033,22.3746506 24.1706311,24.6814041 C21.746448,27.071155 18.5170292,27.0940508 15.3469437,26.9623999 C12.4226669,26.8421968 9.33451757,26.5617231 6.86230288,24.8130551 C3.93237531,22.7438456 3.624408,19.3953325 3.22320287,16.0954729 C3.20907593,15.9638219 3.01694953,15.955236 3.01412414,16.0954729 L3.01412414,16.1011968 C2.43209417,15.8550668 1.81333415,15.5030436 1.64098547,14.8419269 C1.42343058,14.0062296 2.00546055,13.3651468 2.83047391,13.4424201 C3.04237802,13.462454 3.05085419,13.1590844 2.87850551,13.0932589 C2.84177546,13.078949 2.80504541,13.0703631 2.76831537,13.0589152 C3.62158261,13.084673 4.50027834,12.9244023 5.37614869,12.7440977 C7.60820537,12.2861814 10.1256263,12.0028457 12.2700959,11.1700103 C11.9027955,11.6908902 11.4959395,12.0429133 10.9393381,12.3434209 C10.7302593,12.4579 10.8432749,12.7584076 11.055179,12.7727175 C13.6630123,12.9329882 16.0871954,12.3062152 18.3107759,10.9782579 C18.231665,11.1814582 18.1271257,11.3760727 17.991507,11.5592392 C17.9067454,11.6966141 18.0169355,11.9084004 18.1836334,11.8969525 C19.3476934,11.8053692 20.4693725,11.5735491 21.5458454,11.1070468 C22.0120345,10.9038465 22.7551116,10.2255579 23.2213006,10.1683184 Z"/>
      <path fill="#AAA" d="M27.4565575 14.2781174C27.3830975 14.3124612 27.3124627 14.3496669 27.2474788 14.4069064 27.1401141 14.5013517 27.0892571 14.6186927 27.0101462 14.7331718 26.9508131 14.8190311 26.7699882 14.8018592 26.7869405 14.6730703 26.8180198 14.4183543 27.0384001 14.1378806 27.2842089 14.0033676 27.1598918 13.8803026 26.9931939 13.8001673 26.812369 13.7686855 26.7050043 13.7486517 26.7078297 13.5740711 26.812369 13.5540372 26.9508131 13.5254175 27.0581778 13.5225555 27.1966218 13.5712091 27.3209389 13.6170007 27.4311291 13.6828262 27.5271923 13.7686855 27.736271 13.9461281 27.8634134 14.2180159 27.8634134 14.4927657 27.8605881 14.7303098 27.5045891 14.7274478 27.4989384 14.4927657 27.496113 14.4154923 27.4791607 14.3439429 27.4565575 14.2781174M23.4219032 16.2471577C23.5886011 16.6020428 23.5942519 16.9998576 23.4332047 17.3604668 23.3399669 17.5636671 22.9980949 17.4148443 23.0743804 17.20592 23.1789198 16.9254462 23.1845706 16.6449725 23.0687297 16.3644987 22.9557141 16.0983349 22.7183815 15.958098 22.5884137 15.7148299 22.5799375 15.6947961 22.5884137 15.6690383 22.6081914 15.6661763 22.9698411 15.580317 23.2778084 15.9380641 23.4219032 16.2471577M22.3030495 16.3158451C22.416065 16.3387409 22.4838743 16.458944 22.4895251 16.5619752 22.503652 16.8195531 22.3878111 17.0885789 22.16178 17.2145059 21.9527013 17.331847 21.6786387 17.2860554 21.5204169 17.1086128 21.4526076 17.0313394 21.4187029 16.9368941 21.4130522 16.8395869 21.3904491 16.7794854 21.3932744 16.7136599 21.4384807 16.6506964 21.4441314 16.6421105 21.4497822 16.6392485 21.455433 16.6335246 21.4836869 16.576285 21.5260677 16.5276314 21.5854008 16.4875637 21.6390832 16.456082 21.695591 16.4389101 21.7549241 16.4274622 21.9103205 16.3244311 22.1052723 16.2815014 22.3030495 16.3158451M16.9884942 20.7633575C16.8952564 21.4702658 15.8922436 21.8480468 15.3893245 21.324305 15.2028489 21.1296906 15.4769115 20.8749746 15.6775141 21.0323833 15.9713545 21.2670655 16.5392575 21.1239666 16.5957653 20.7089799 16.6579238 20.2825454 16.1973855 20.073621 15.8329104 20.0993788 15.7311965 20.3054412 15.3978007 20.2195819 15.4712608 19.9820378 16.171957 17.6810082 16.0984969 15.5660071 15.2847851 13.3050452 15.2367535 13.1676703 15.4543084 13.078949 15.5192924 13.204876 16.5392575 15.2168459 16.6890031 17.6065968 15.9657037 19.7387697 16.4827497 19.6815302 17.0591289 20.2138579 16.9884942 20.7633575M19.9664534 23.7312277C17.7541744 25.3568307 14.6377712 25.5972368 12.3350798 24.0088395 12.1938104 23.9115323 12.3153021 23.7083319 12.4678731 23.7798813 14.9005323 24.941844 17.4829372 24.8874665 19.7206446 23.3019312 19.9805803 23.1159027 20.217913 23.5451992 19.9664534 23.7312277M9.57750095 16.4074284C9.67356415 16.4990117 9.73572269 16.6220767 9.73007192 16.7651755 9.72442114 17.0628211 9.45883465 17.3089512 9.17064505 17.3175371 8.89375701 17.3232611 8.64229746 17.0971649 8.59144047 16.828139 8.5349327 16.5333554 8.72140833 16.2614676 9.00112176 16.1841942 9.22715282 16.1212307 9.45883465 16.2156759 9.57750095 16.4074284M7.72969706 17.4119823C7.20700025 17.0342014 7.17309559 16.1985041 7.68166546 15.7892413 7.89356958 15.6203847 8.19306073 15.9208923 7.98115661 16.0926109 7.65058619 16.3559128 7.62233231 16.8538968 7.91899807 17.1601284 8.04331516 17.2860554 7.87661725 17.5178755 7.72969706 17.4119823M2.24279316 15.1309866C2.04501599 14.7159999 2.10434914 13.9718859 2.6157444 13.8087532 2.72310916 13.7744095 2.83895007 13.9117844 2.76831537 14.0090916 2.68072833 14.1321566 2.57618897 14.2294638 2.50272888 14.3553908 2.61009363 14.3811486 2.71463299 14.4183543 2.81634697 14.4670079 2.83895007 14.461284 2.86437857 14.4670079 2.88698167 14.4841798L3.12431428 14.6673463C3.13279045 14.6759323 3.14126661 14.6787942 3.14974278 14.6873802 3.27123447 14.7932733 3.09888579 14.96213 2.9773941 14.8619608 2.89828323 14.7989973 2.82199774 14.7360338 2.74288687 14.6730703 2.72310916 14.6558984 2.71463299 14.6358646 2.70898222 14.6158307 2.62987135 14.5585912 2.54228431 14.5099376 2.44622111 14.4698699 2.37841179 14.6616224 2.38123718 14.8505129 2.4490465 15.0422653 2.49425271 15.1653303 2.29647554 15.2483277 2.24279316 15.1309866"/>
      <path fill="#9B9B9B" d="M21.4130522,2.22060801 C17.4659848,0.303083373 12.8521259,0.0512293897 8.85702696,2.00023578 C7.16461942,2.82448518 5.65303673,4.01506764 4.41269131,5.43747025 C3.77415357,6.17299836 3.21190132,6.97148996 2.73158532,7.81863518 C2.31907864,8.54843933 1.31889122,9.78767541 2.48577655,10.0738731 C2.62987135,10.1082168 2.62139518,10.2684876 2.52815737,10.340037 C2.57053819,10.3944145 2.58183975,10.468826 2.54228431,10.5375134 C2.11565069,11.2301119 1.55904921,11.710924 0.875305267,12.082981 C2.7598392,13.1247407 5.08230831,12.3119392 7.074207,11.8940905 C8.86832851,11.5191715 10.7754656,10.9296043 12.6119679,10.9124324 C12.6882534,10.9095704 12.6882534,11.0068776 12.6289202,11.0326354 C12.6176187,11.0383594 12.6063171,11.0412214 12.5950156,11.0469453 C12.6995549,11.0955989 12.7673642,11.215802 12.685428,11.341729 C12.4170161,11.7452677 12.1316519,12.0629472 11.7841291,12.334835 C14.1941853,12.3520069 16.5110036,11.6937521 18.5424577,10.3314511 C18.7063303,10.2198339 18.8871551,10.4030005 18.8532504,10.5718571 C18.7882665,10.8923986 18.7063303,11.1471145 18.5848386,11.4018305 C20.3450554,11.2014921 21.9413998,10.5718571 23.4021255,9.52723549 C23.4981887,9.45854804 23.6196804,9.51578759 23.6790135,9.59878492 C24.1084725,10.2198339 24.3458051,10.8695027 24.3966621,11.5792731 C24.424916,11.5277575 24.4531699,11.4791039 24.4785984,11.4304503 C24.5351061,11.2615936 24.7470103,11.2329738 24.8430735,11.3817966 C25.3488179,12.1516685 25.5691982,12.9387122 25.5324682,13.8058912 C25.8037054,13.5196935 26.0805935,13.2363578 26.3716085,12.9673319 C26.3744339,12.96447 26.3772592,12.96447 26.38291,12.961608 C26.3490054,12.8728867 26.3631323,12.7641316 26.4620209,12.6954441 C27.4367798,12.0514993 28.5330305,12.8700247 28.6742999,13.9232323 C28.7421092,14.4383882 28.6375698,15.0622992 28.2448409,15.4314942 C28.0075082,15.6604524 27.54697,15.8464809 27.2587804,15.6404185 C27.2305265,15.6203847 27.2022726,15.5946269 27.1768441,15.5660071 C27.1372887,15.5202155 27.1514156,15.451528 27.2107488,15.4314942 C27.5526207,15.328463 27.7984295,15.3742547 28.0414129,15.0394033 C28.2589678,14.7388958 28.3013486,14.3439429 28.2476662,13.9804718 C28.1374761,13.2277719 27.4057006,12.5952749 26.6824012,13.0760871 C26.6315442,13.1104308 26.586338,13.1132928 26.5411318,13.1075688 C26.1879582,13.5941049 25.8093562,14.0577452 25.4138019,14.5127996 C25.2697071,14.6816562 25.0549776,14.4956277 25.0832314,14.3181851 C25.2245009,13.4281103 25.1030092,12.6725483 24.701804,11.9227103 C24.6029155,12.1201867 24.4870745,12.2976293 24.3260274,12.4893818 C24.2186627,12.6153088 23.9728539,12.5180015 23.9898062,12.3491449 C24.0576155,11.7424058 24.0858694,10.0652872 23.2213006,10.1683184 C22.7551116,10.2255579 22.0120345,10.9038465 21.5458454,11.1070468 C20.4693725,11.5735491 19.3476934,11.8053692 18.1836334,11.8969525 C18.0169355,11.9084004 17.9067454,11.6966141 17.991507,11.5592392 C18.1271257,11.3760727 18.231665,11.1814582 18.3107759,10.9782579 C16.0871954,12.3062152 13.6630123,12.9329882 11.055179,12.7727175 C10.8432749,12.7584076 10.7302593,12.4579 10.9393381,12.3434209 C11.4959395,12.0429133 11.9027955,11.6908902 12.2700959,11.1700103 C10.1256263,12.0028457 7.60820537,12.2861814 5.37614869,12.7440977 C4.50027834,12.9244023 3.62158261,13.084673 2.76831537,13.0589152 C2.80504541,13.0703631 2.84177546,13.078949 2.87850551,13.0932589 C3.05085419,13.1590844 3.04237802,13.462454 2.83047391,13.4424201 C2.00546055,13.3651468 1.42343058,14.0062296 1.64098547,14.8419269 C1.81333415,15.5030436 2.43209417,15.8550668 3.01412414,16.1011968 L3.01412414,16.0954729 C3.01694953,15.955236 3.20907593,15.9638219 3.22320287,16.0954729 C3.624408,19.3953325 3.93237531,22.7438456 6.86230288,24.8130551 C9.33451757,26.5617231 12.4226669,26.8421968 15.3469437,26.9623999 C18.5170292,27.0940508 21.746448,27.071155 24.1706311,24.6814041 C26.5157033,22.3746506 27.1909711,19.0347233 26.7982421,15.8436189 C26.7699882,15.6261086 26.9931939,15.5602832 27.1457648,15.6404185 C27.2163995,15.6776242 27.2729073,15.7463117 27.2842089,15.8436189 C27.445256,17.1028888 27.4339544,18.3879165 27.2248757,19.6271526 C27.6119539,19.071929 27.8323342,18.4938097 27.9283974,17.7668675 C27.9481751,17.6094588 28.1403015,17.4778078 28.2730947,17.6237686 C28.4510942,17.8212451 28.9314102,15.1252627 28.9398864,15.0508513 C29.0105211,14.329633 29.0302988,13.5998289 29.0048703,12.8728867 C28.9511879,11.3274191 28.6488714,9.80770925 27.5893508,8.63716062 C27.4283037,8.45685607 27.5921762,8.21644999 27.8097311,8.25365569 C28.0244606,8.2908614 28.2420155,8.32520512 28.4595704,8.36241082 C27.976429,6.11003486 26.5241794,4.28695546 24.3994875,3.37970873 C24.2525673,3.31674524 24.1875834,3.18223231 24.2582181,3.03054753 C24.3910113,2.7472118 24.52663,2.46101409 24.6594232,2.17481638 C23.6083788,2.26067569 22.6618738,1.9601681 21.8679397,1.26184569 C21.8425112,1.50797572 21.8142573,1.75410575 21.7888288,2.00023578 C21.7690511,2.1977122 21.593877,2.3093293 21.4130522,2.22060801 Z M24.3486305,25.1679402 C21.834035,27.5033135 18.5707116,27.5548291 15.3469437,27.4145922 C12.1203503,27.2743554 8.67620211,26.9194702 6.08814651,24.7644015 C3.64418571,22.7266738 2.98869565,19.4611579 3.01129875,16.3931185 C2.04784137,16.2986733 1.18044719,15.580317 1.14936792,14.5414193 C1.12676482,13.828787 1.64663625,13.1190167 2.31907864,13.0274335 C1.61838237,12.9501601 0.937463808,12.7269259 0.293275296,12.2604236 C0.168958215,12.1717023 0.120926615,11.9398822 0.293275296,11.8626088 C1.08155861,11.5077236 1.6579378,10.9982917 2.22301544,10.342899 C1.9687305,10.3056933 1.71727095,10.2656256 1.46298602,10.2226959 C1.3697482,10.2055241 1.30193889,10.0795971 1.33301816,9.9880138 C4.20361258,1.83710309 13.6347584,-2.15821691 21.3311159,1.61673085 C21.3650206,1.32194721 21.3989252,1.02716357 21.4328299,0.732379934 C21.455433,0.534903516 21.6927656,0.380356754 21.8509873,0.554937355 C22.6788261,1.47649397 23.7666005,1.87430879 24.9956444,1.65107458 C25.2047231,1.61386887 25.3544687,1.80848332 25.2640563,2.00595973 C24.6905025,3.21657604 25.0267237,3.02768555 25.9930065,3.71456005 C26.5044017,4.07803114 26.9621146,4.51018968 27.3633197,4.9938638 C28.2250631,6.03276148 28.74776,7.24623976 28.9653148,8.58278306 C28.9963941,8.76308761 28.8664263,8.89760054 28.6856014,8.86611879 C28.5528082,8.84322297 28.4200149,8.82032716 28.2872217,8.79743134 C29.468234,10.4917218 29.5332179,12.7584076 29.3778215,14.7789634 C29.3439169,15.20826 29.112235,18.459466 28.2646186,18.1303386 C28.0837937,18.9746218 27.7277948,19.6614963 27.1429395,20.328337 C27.1203363,20.3540948 27.0949079,20.3684047 27.0694794,20.3769906 C26.637195,22.1828981 25.7613246,23.8571547 24.3486305,25.1679402 L24.3486305,25.1679402 Z"/>
    </g>
    <g transform="translate(31 34)">
      <path fill="#FEBBBA" d="M1.92721209,12.1500226 C2.15165784,12.4333969 2.39729253,12.7025233 2.66097705,12.9510694 C3.19462429,13.4544941 3.80204042,13.8779723 4.46674514,14.2040902 C4.84500687,14.3885209 5.2421032,14.5420813 5.65411026,14.660022 C6.01118305,14.7621317 6.38002747,14.8389119 6.75750441,14.8856132 C7.05493428,14.9220244 7.35864234,14.9433962 7.66627428,14.9433962 C7.97390622,14.9433962 8.27604473,14.9220244 8.57347459,14.8856132 C8.95173632,14.8381203 9.31979596,14.7621317 9.67765352,14.660022 C10.0888758,14.5420813 10.4867569,14.3885209 10.8650186,14.2040902 C11.5297234,13.8779723 12.1371395,13.4544941 12.6715715,12.9510694 C12.9344713,12.7033148 13.1785364,12.4341884 13.4037669,12.1500226 C13.6501864,11.8373611 13.8730626,11.5041193 14.0684716,11.1534634 C14.660977,10.0864564 15,8.85797364 15,7.54637826 C15,3.46278108 11.7164999,0.150943396 7.66705905,0.150943396 C3.61604866,0.150943396 0.333333333,3.46278108 0.333333333,7.54637826 C0.333333333,8.85718209 0.671571513,10.0864564 1.26486168,11.1534634 C1.45791642,11.5041193 1.68000785,11.8381526 1.92721209,12.1500226 Z"/>
      <path fill="#FFF" d="M4.50348754,6.44962938 C4.2905912,6.15400847 3.91933555,6.12405353 3.67614088,6.38382672 C3.43213825,6.64310885 3.40830355,7.0939062 3.62200784,7.39001818 L5.73965979,10.3231473 C5.91579414,10.5672064 6.16787633,10.7105973 6.43005796,10.7169811 L6.44823696,10.7169811 C6.70557086,10.7169811 6.95401725,10.5863579 7.13297944,10.3575218 L11.6955054,4.52514705 C11.9193091,4.23983849 11.9092097,3.78855008 11.6744986,3.51699134 C11.4397874,3.24543259 11.0685318,3.25721814 10.845132,3.54301776 L6.45631652,9.15392237 L4.50348754,6.44962938 L4.50348754,6.44962938 Z"/>
    </g>
  </g>
</svg>
