<svg xmlns="http://www.w3.org/2000/svg" width="58" height="58" viewBox="0 0 58 58">
  <g fill="none" fill-rule="evenodd" transform="translate(2 7)">
    <polygon fill="#F1F1F1" points=".402 39.631 22.835 17.544 26.415 21.069 3.982 43.157"/>
    <polygon fill="#F69A98" points="24.665 15.728 29.679 10.792 33.259 14.317 28.246 19.254"/>
    <polygon fill="#FEBBBA" points="45.442 10.721 38.345 6.651 42.478 13.71 38.345 20.697 45.442 16.628 52.61 20.697 48.477 13.71 52.61 6.651"/>
    <polygon fill="#FEBBBA" points="38.268 30.366 34.53 28.291 36.709 31.977 34.53 35.663 38.268 33.512 42.011 35.663 39.827 31.977 42.011 28.291"/>
    <polygon fill="#FEBBBA" points="20.808 6.651 24.941 8.953 22.526 4.965 24.941 .895 20.808 3.198 16.68 .895 19.096 4.965 16.68 8.953"/>
    <polygon fill="#FEBBBA" points="46.842 25.378 44.191 23.843 45.672 26.529 44.191 29.139 46.842 27.604 49.493 29.139 48.011 26.529 49.493 23.843"/>
  </g>
</svg>
