<?xml version="1.0" encoding="UTF-8"?>
<svg width="103px" height="105px" viewBox="0 0 103 105" version="1.1" xmlns="http://www.w3.org/2000/svg" xmlns:xlink="http://www.w3.org/1999/xlink">
    <!-- Generator: Sketch 41.1 (35376) - http://www.bohemiancoding.com/sketch -->
    <title>Hoodie</title>
    <desc>Created with Sketch.</desc>
    <defs></defs>
    <g id="Page-1" stroke="none" stroke-width="1" fill="none" fill-rule="evenodd">
        <g id="Homepage-Final-Copy" transform="translate(-78.000000, -2716.000000)">
            <g id="SLP" transform="translate(78.000000, 2693.000000)">
                <g id="Hoodie" transform="translate(55.792838, 73.425246) rotate(15.000000) translate(-55.792838, -73.425246) translate(13.292838, 31.925246)">
                    <polygon id="Rectangle-15" fill="#F69A98" points="25.4250308 15.611968 42.299423 32.2236174 59.6299545 15.764272 59.4083002 45.8466733 27 44"></polygon>
                    <path d="M31.7331525,21.4079583 L31.7331525,39.6091587 C31.7239366,40.2588569 32.7569515,40.2588569 32.7467402,39.6091587 L32.7467402,22.3930483 L42.107059,31.49746 C42.226129,31.6111047 42.3644971,31.646422 42.4969486,31.6362814 C42.6294739,31.6450233 42.7678052,31.610755 42.8870041,31.49746 L52.247286,22.3930483 L52.247286,39.6091587 C52.2380701,40.2588569 53.2706242,40.2588569 53.2608737,39.6091587 L53.2608737,21.4079583 L59.942579,14.9098574 C64.4629432,15.677379 67.601598,16.7763235 69.805609,18.6833521 C72.0665744,20.6396849 73.4227187,23.4859609 74.2798013,27.8872291 C74.2797733,27.890143 84.7031605,76.8799102 84.7031605,76.8799102 L75.8596349,79.051049 L65.303603,34.9906892 C65.243896,34.7548659 65.0081104,34.5982004 64.7538542,34.625414 C64.499598,34.6526275 64.3066116,34.8551854 64.3038945,35.0976901 L64.3038945,82.8357683 L20.6960669,82.8357683 L20.6960669,35.0976901 C20.6976825,34.8520451 20.5035223,34.6448165 20.2459768,34.6173056 C19.9884312,34.5897948 19.7504777,34.7508653 19.6943677,34.9906892 L9.13837269,79.051049 L0.296764009,76.8799102 L10.7201048,27.895971 C11.5771321,23.4859609 12.933516,20.6397024 15.1943708,18.6833521 C17.3977182,16.776883 20.5334977,15.6773615 25.051521,14.9098574 L31.7331525,21.4079583 Z" id="Path" fill="#E5E5E5"></path>
                    <path d="M34.8829403,64.3461201 C34.6037891,64.3461311 34.3771928,64.5600714 34.3761003,64.8246518 C34.3668844,68.5041186 31.9603992,71.7912487 28.3239913,73.0770077 C28.1259556,73.1466692 27.9942629,73.3254333 27.9934892,73.5256422 L27.9934892,76.1412194 C27.9934641,76.4065307 28.2203537,76.6216323 28.5002739,76.6216744 L56.4937708,76.6216744 C56.7736982,76.621642 57.000599,76.4065375 57.0005739,76.1412194 L57.0005739,73.5349086 C57.000868,73.3345209 56.8699011,73.1550081 56.6719887,73.0845258 C53.0328529,71.7978926 50.6217414,68.5077902 50.6199166,64.8264002 C50.6198398,64.5611299 50.3929351,64.3461235 50.1130582,64.3461201 L34.8829403,64.3461201 L34.8829403,64.3461201 Z" id="Path" fill="#CFCFCF"></path>
                    <path d="M54.2072219,13.431252 C55.9126688,13.5851095 57.5599816,13.8480659 59.0832846,14.3694505 L45.1260909,27.9435095 L54.2072219,13.431252 L54.2072219,13.431252 Z" id="Path" fill="#F69A98"></path>
                    <path d="M30.7868228,13.431252 L39.8678985,27.9435095 L25.9107601,14.3694505 C27.4340816,13.8480659 29.0813943,13.5850046 30.7868228,13.431252 Z" id="Path" fill="#F69A98"></path>
                    <path d="M42.4969486,12.8946216 C46.2474314,12.9302886 49.7102847,13.007567 53.0906,13.3336924 L42.4969486,30.2646769 L31.9053616,13.3336924 C35.2857322,13.0078642 38.746687,12.9299913 42.4969486,12.8946216 Z" id="Path"></path>
                    <path d="M42.4969486,2.71782596e-13 C45.4225493,0.00160851005 48.3465096,0.45440409 50.9545106,1.36043234 C55.6596175,2.99513314 58.6252154,9.32442863 59.1704674,12.3914552 C56.5592962,11.5963617 53.482683,11.3876225 51.1643023,11.2318243 C48.4795141,11.0555176 45.4876876,10.967644 42.4969486,10.9672594 C39.5064861,10.967644 36.5164659,11.0553778 33.8316778,11.2318243 C31.513297,11.3877799 28.4348222,11.5963617 25.8236142,12.3914552 C26.3688477,9.32442863 29.3344088,2.99513314 34.0395526,1.36043234 C36.6475351,0.45440409 39.5715138,0.00192321854 42.4969486,2.71782596e-13 Z" id="Path" fill="#F69A98"></path>
                </g>
            </g>
        </g>
    </g>
</svg>