<?xml version="1.0" encoding="UTF-8"?>
<svg width="118px" height="138px" viewBox="0 0 118 138" version="1.1" xmlns="http://www.w3.org/2000/svg" xmlns:xlink="http://www.w3.org/1999/xlink">
    <!-- Generator: Sketch 41.1 (35376) - http://www.bohemiancoding.com/sketch -->
    <title>Mobile Accept</title>
    <desc>Created with Sketch.</desc>
    <defs></defs>
    <g id="Page-1" stroke="none" stroke-width="1" fill="none" fill-rule="evenodd">
        <g id="Mobile-Accept" transform="translate(2.000000, 6.000000)">
            <g id="Group-3" transform="translate(3.000000, 1.000000)">
                <rect id="Combined-Shape" fill="#ECECEC" x="0" y="0" width="64" height="122" rx="4.68820961"></rect>
                <rect id="Rectangle-14" fill="#F5F5F5" x="2" y="12" width="60" height="95"></rect>
                <path d="M37.7211222,46 L18.447478,46 L16,49.4367257 L27.9192199,49.4367259 C30.9169154,49.4367259 30.972936,51.0512978 32.0270648,52.8240167 L17.4755846,52.8240167 L16,56.3185096 L32.0270649,56.3185096 C30.9729362,58.0912285 28.4422441,59.7087689 25.4900961,59.7087689 L18.447478,59.7087689 C24.3517739,65.6180605 29.6412399,71.0913942 35.8245681,77 L42.6775139,77 L28.23739,63.0072927 C34.0347332,63.0072927 36.4557764,60.159172 37.7211225,56.3185096 L45.369736,56.2944391 L47,52.8655824 L37.7211222,52.8240167 C37.5118628,51.789702 36.5966542,50.3230854 35.7567532,49.4367259 L45.369736,49.4367257 L47,46 L37.7211222,46 Z" id="Shape-Copy-2" fill="#AAAAAA"></path>
                <ellipse id="Oval-4" fill="#F27674" opacity="0.5" cx="32" cy="114" rx="3" ry="3"></ellipse>
                <path d="M20.1724138,7 C20.6294771,7 21,6.55228478 21,6 C21,5.44771522 20.6294771,5 20.1724138,5 C19.7153505,5 19.3448276,5.44771522 19.3448276,6 C19.3448276,6.55228478 19.7153505,7 20.1724138,7 Z M17.8275862,7 C18.2846495,7 18.6551724,6.55228478 18.6551724,6 C18.6551724,5.44771522 18.2846495,5 17.8275862,5 C17.3705229,5 17,5.44771522 17,6 C17,6.55228478 17.3705229,7 17.8275862,7 Z" id="Sensors" fill="#F69A98"></path>
                <g id="Group" transform="translate(24.000000, 5.000000)" fill="#9E9E9E">
                    <path d="M0.233283229,2.98666667 C0.362122005,2.98666667 0.466566458,2.87523532 0.466566458,2.73777778 C0.466566458,2.60032023 0.362122005,2.48888889 0.233283229,2.48888889 C0.104444453,2.48888889 0,2.60032023 0,2.73777778 C0,2.87523532 0.104444453,2.98666667 0.233283229,2.98666667 Z M1.01089399,2.98666667 C1.13973277,2.98666667 1.24417722,2.87523532 1.24417722,2.73777778 C1.24417722,2.60032023 1.13973277,2.48888889 1.01089399,2.48888889 C0.882055216,2.48888889 0.777610763,2.60032023 0.777610763,2.73777778 C0.777610763,2.87523532 0.882055216,2.98666667 1.01089399,2.98666667 Z M0.233283229,2.15703704 C0.362122005,2.15703704 0.466566458,2.04560569 0.466566458,1.90814815 C0.466566458,1.7706906 0.362122005,1.65925926 0.233283229,1.65925926 C0.104444453,1.65925926 0,1.7706906 0,1.90814815 C0,2.04560569 0.104444453,2.15703704 0.233283229,2.15703704 Z M1.01089399,2.15703704 C1.13973277,2.15703704 1.24417722,2.04560569 1.24417722,1.90814815 C1.24417722,1.7706906 1.13973277,1.65925926 1.01089399,1.65925926 C0.882055216,1.65925926 0.777610763,1.7706906 0.777610763,1.90814815 C0.777610763,2.04560569 0.882055216,2.15703704 1.01089399,2.15703704 Z M0.233283229,1.32740741 C0.362122005,1.32740741 0.466566458,1.21597606 0.466566458,1.07851852 C0.466566458,0.941060974 0.362122005,0.82962963 0.233283229,0.82962963 C0.104444453,0.82962963 0,0.941060974 0,1.07851852 C0,1.21597606 0.104444453,1.32740741 0.233283229,1.32740741 Z M1.01089399,1.32740741 C1.13973277,1.32740741 1.24417722,1.21597606 1.24417722,1.07851852 C1.24417722,0.941060974 1.13973277,0.82962963 1.01089399,0.82962963 C0.882055216,0.82962963 0.777610763,0.941060974 0.777610763,1.07851852 C0.777610763,1.21597606 0.882055216,1.32740741 1.01089399,1.32740741 Z M0.233283229,0.497777778 C0.362122005,0.497777778 0.466566458,0.386346433 0.466566458,0.248888889 C0.466566458,0.111431344 0.362122005,0 0.233283229,0 C0.104444453,0 0,0.111431344 0,0.248888889 C0,0.386346433 0.104444453,0.497777778 0.233283229,0.497777778 Z M1.01089399,0.497777778 C1.13973277,0.497777778 1.24417722,0.386346433 1.24417722,0.248888889 C1.24417722,0.111431344 1.13973277,0 1.01089399,0 C0.882055216,0 0.777610763,0.111431344 0.777610763,0.248888889 C0.777610763,0.386346433 0.882055216,0.497777778 1.01089399,0.497777778 Z M1.78850475,2.98666667 C1.91734353,2.98666667 2.02178798,2.87523532 2.02178798,2.73777778 C2.02178798,2.60032023 1.91734353,2.48888889 1.78850475,2.48888889 C1.65966598,2.48888889 1.55522153,2.60032023 1.55522153,2.73777778 C1.55522153,2.87523532 1.65966598,2.98666667 1.78850475,2.98666667 Z M2.56611552,2.98666667 C2.69495429,2.98666667 2.79939875,2.87523532 2.79939875,2.73777778 C2.79939875,2.60032023 2.69495429,2.48888889 2.56611552,2.48888889 C2.43727674,2.48888889 2.33283229,2.60032023 2.33283229,2.73777778 C2.33283229,2.87523532 2.43727674,2.98666667 2.56611552,2.98666667 Z M1.78850475,2.15703704 C1.91734353,2.15703704 2.02178798,2.04560569 2.02178798,1.90814815 C2.02178798,1.7706906 1.91734353,1.65925926 1.78850475,1.65925926 C1.65966598,1.65925926 1.55522153,1.7706906 1.55522153,1.90814815 C1.55522153,2.04560569 1.65966598,2.15703704 1.78850475,2.15703704 Z M2.56611552,2.15703704 C2.69495429,2.15703704 2.79939875,2.04560569 2.79939875,1.90814815 C2.79939875,1.7706906 2.69495429,1.65925926 2.56611552,1.65925926 C2.43727674,1.65925926 2.33283229,1.7706906 2.33283229,1.90814815 C2.33283229,2.04560569 2.43727674,2.15703704 2.56611552,2.15703704 Z M1.78850475,1.32740741 C1.91734353,1.32740741 2.02178798,1.21597606 2.02178798,1.07851852 C2.02178798,0.941060974 1.91734353,0.82962963 1.78850475,0.82962963 C1.65966598,0.82962963 1.55522153,0.941060974 1.55522153,1.07851852 C1.55522153,1.21597606 1.65966598,1.32740741 1.78850475,1.32740741 Z M2.56611552,1.32740741 C2.69495429,1.32740741 2.79939875,1.21597606 2.79939875,1.07851852 C2.79939875,0.941060974 2.69495429,0.82962963 2.56611552,0.82962963 C2.43727674,0.82962963 2.33283229,0.941060974 2.33283229,1.07851852 C2.33283229,1.21597606 2.43727674,1.32740741 2.56611552,1.32740741 Z M1.78850475,0.497777778 C1.91734353,0.497777778 2.02178798,0.386346433 2.02178798,0.248888889 C2.02178798,0.111431344 1.91734353,0 1.78850475,0 C1.65966598,0 1.55522153,0.111431344 1.55522153,0.248888889 C1.55522153,0.386346433 1.65966598,0.497777778 1.78850475,0.497777778 Z M2.56611552,0.497777778 C2.69495429,0.497777778 2.79939875,0.386346433 2.79939875,0.248888889 C2.79939875,0.111431344 2.69495429,0 2.56611552,0 C2.43727674,0 2.33283229,0.111431344 2.33283229,0.248888889 C2.33283229,0.386346433 2.43727674,0.497777778 2.56611552,0.497777778 Z M3.34372628,2.98666667 C3.47256506,2.98666667 3.57700951,2.87523532 3.57700951,2.73777778 C3.57700951,2.60032023 3.47256506,2.48888889 3.34372628,2.48888889 C3.2148875,2.48888889 3.11044305,2.60032023 3.11044305,2.73777778 C3.11044305,2.87523532 3.2148875,2.98666667 3.34372628,2.98666667 Z M4.12133704,2.98666667 C4.25017582,2.98666667 4.35462027,2.87523532 4.35462027,2.73777778 C4.35462027,2.60032023 4.25017582,2.48888889 4.12133704,2.48888889 C3.99249827,2.48888889 3.88805382,2.60032023 3.88805382,2.73777778 C3.88805382,2.87523532 3.99249827,2.98666667 4.12133704,2.98666667 Z M3.34372628,2.15703704 C3.47256506,2.15703704 3.57700951,2.04560569 3.57700951,1.90814815 C3.57700951,1.7706906 3.47256506,1.65925926 3.34372628,1.65925926 C3.2148875,1.65925926 3.11044305,1.7706906 3.11044305,1.90814815 C3.11044305,2.04560569 3.2148875,2.15703704 3.34372628,2.15703704 Z M4.12133704,2.15703704 C4.25017582,2.15703704 4.35462027,2.04560569 4.35462027,1.90814815 C4.35462027,1.7706906 4.25017582,1.65925926 4.12133704,1.65925926 C3.99249827,1.65925926 3.88805382,1.7706906 3.88805382,1.90814815 C3.88805382,2.04560569 3.99249827,2.15703704 4.12133704,2.15703704 Z M3.34372628,1.32740741 C3.47256506,1.32740741 3.57700951,1.21597606 3.57700951,1.07851852 C3.57700951,0.941060974 3.47256506,0.82962963 3.34372628,0.82962963 C3.2148875,0.82962963 3.11044305,0.941060974 3.11044305,1.07851852 C3.11044305,1.21597606 3.2148875,1.32740741 3.34372628,1.32740741 Z M4.12133704,1.32740741 C4.25017582,1.32740741 4.35462027,1.21597606 4.35462027,1.07851852 C4.35462027,0.941060974 4.25017582,0.82962963 4.12133704,0.82962963 C3.99249827,0.82962963 3.88805382,0.941060974 3.88805382,1.07851852 C3.88805382,1.21597606 3.99249827,1.32740741 4.12133704,1.32740741 Z M3.34372628,0.497777778 C3.47256506,0.497777778 3.57700951,0.386346433 3.57700951,0.248888889 C3.57700951,0.111431344 3.47256506,0 3.34372628,0 C3.2148875,0 3.11044305,0.111431344 3.11044305,0.248888889 C3.11044305,0.386346433 3.2148875,0.497777778 3.34372628,0.497777778 Z M4.12133704,0.497777778 C4.25017582,0.497777778 4.35462027,0.386346433 4.35462027,0.248888889 C4.35462027,0.111431344 4.25017582,0 4.12133704,0 C3.99249827,0 3.88805382,0.111431344 3.88805382,0.248888889 C3.88805382,0.386346433 3.99249827,0.497777778 4.12133704,0.497777778 Z M4.89894781,2.98666667 C5.02778658,2.98666667 5.13223104,2.87523532 5.13223104,2.73777778 C5.13223104,2.60032023 5.02778658,2.48888889 4.89894781,2.48888889 C4.77010903,2.48888889 4.66566458,2.60032023 4.66566458,2.73777778 C4.66566458,2.87523532 4.77010903,2.98666667 4.89894781,2.98666667 Z M5.67655857,2.98666667 C5.80539735,2.98666667 5.9098418,2.87523532 5.9098418,2.73777778 C5.9098418,2.60032023 5.80539735,2.48888889 5.67655857,2.48888889 C5.54771979,2.48888889 5.44327534,2.60032023 5.44327534,2.73777778 C5.44327534,2.87523532 5.54771979,2.98666667 5.67655857,2.98666667 Z M4.89894781,2.15703704 C5.02778658,2.15703704 5.13223104,2.04560569 5.13223104,1.90814815 C5.13223104,1.7706906 5.02778658,1.65925926 4.89894781,1.65925926 C4.77010903,1.65925926 4.66566458,1.7706906 4.66566458,1.90814815 C4.66566458,2.04560569 4.77010903,2.15703704 4.89894781,2.15703704 Z M5.67655857,2.15703704 C5.80539735,2.15703704 5.9098418,2.04560569 5.9098418,1.90814815 C5.9098418,1.7706906 5.80539735,1.65925926 5.67655857,1.65925926 C5.54771979,1.65925926 5.44327534,1.7706906 5.44327534,1.90814815 C5.44327534,2.04560569 5.54771979,2.15703704 5.67655857,2.15703704 Z M4.89894781,1.32740741 C5.02778658,1.32740741 5.13223104,1.21597606 5.13223104,1.07851852 C5.13223104,0.941060974 5.02778658,0.82962963 4.89894781,0.82962963 C4.77010903,0.82962963 4.66566458,0.941060974 4.66566458,1.07851852 C4.66566458,1.21597606 4.77010903,1.32740741 4.89894781,1.32740741 Z M5.67655857,1.32740741 C5.80539735,1.32740741 5.9098418,1.21597606 5.9098418,1.07851852 C5.9098418,0.941060974 5.80539735,0.82962963 5.67655857,0.82962963 C5.54771979,0.82962963 5.44327534,0.941060974 5.44327534,1.07851852 C5.44327534,1.21597606 5.54771979,1.32740741 5.67655857,1.32740741 Z M4.89894781,0.497777778 C5.02778658,0.497777778 5.13223104,0.386346433 5.13223104,0.248888889 C5.13223104,0.111431344 5.02778658,0 4.89894781,0 C4.77010903,0 4.66566458,0.111431344 4.66566458,0.248888889 C4.66566458,0.386346433 4.77010903,0.497777778 4.89894781,0.497777778 Z M5.67655857,0.497777778 C5.80539735,0.497777778 5.9098418,0.386346433 5.9098418,0.248888889 C5.9098418,0.111431344 5.80539735,0 5.67655857,0 C5.54771979,0 5.44327534,0.111431344 5.44327534,0.248888889 C5.44327534,0.386346433 5.54771979,0.497777778 5.67655857,0.497777778 Z M6.45416933,2.98666667 C6.58300811,2.98666667 6.68745256,2.87523532 6.68745256,2.73777778 C6.68745256,2.60032023 6.58300811,2.48888889 6.45416933,2.48888889 C6.32533056,2.48888889 6.2208861,2.60032023 6.2208861,2.73777778 C6.2208861,2.87523532 6.32533056,2.98666667 6.45416933,2.98666667 Z M7.2317801,2.98666667 C7.36061887,2.98666667 7.46506333,2.87523532 7.46506333,2.73777778 C7.46506333,2.60032023 7.36061887,2.48888889 7.2317801,2.48888889 C7.10294132,2.48888889 6.99849687,2.60032023 6.99849687,2.73777778 C6.99849687,2.87523532 7.10294132,2.98666667 7.2317801,2.98666667 Z M6.45416933,2.15703704 C6.58300811,2.15703704 6.68745256,2.04560569 6.68745256,1.90814815 C6.68745256,1.7706906 6.58300811,1.65925926 6.45416933,1.65925926 C6.32533056,1.65925926 6.2208861,1.7706906 6.2208861,1.90814815 C6.2208861,2.04560569 6.32533056,2.15703704 6.45416933,2.15703704 Z M7.2317801,2.15703704 C7.36061887,2.15703704 7.46506333,2.04560569 7.46506333,1.90814815 C7.46506333,1.7706906 7.36061887,1.65925926 7.2317801,1.65925926 C7.10294132,1.65925926 6.99849687,1.7706906 6.99849687,1.90814815 C6.99849687,2.04560569 7.10294132,2.15703704 7.2317801,2.15703704 Z M6.45416933,1.32740741 C6.58300811,1.32740741 6.68745256,1.21597606 6.68745256,1.07851852 C6.68745256,0.941060974 6.58300811,0.82962963 6.45416933,0.82962963 C6.32533056,0.82962963 6.2208861,0.941060974 6.2208861,1.07851852 C6.2208861,1.21597606 6.32533056,1.32740741 6.45416933,1.32740741 Z M7.2317801,1.32740741 C7.36061887,1.32740741 7.46506333,1.21597606 7.46506333,1.07851852 C7.46506333,0.941060974 7.36061887,0.82962963 7.2317801,0.82962963 C7.10294132,0.82962963 6.99849687,0.941060974 6.99849687,1.07851852 C6.99849687,1.21597606 7.10294132,1.32740741 7.2317801,1.32740741 Z M6.45416933,0.497777778 C6.58300811,0.497777778 6.68745256,0.386346433 6.68745256,0.248888889 C6.68745256,0.111431344 6.58300811,0 6.45416933,0 C6.32533056,0 6.2208861,0.111431344 6.2208861,0.248888889 C6.2208861,0.386346433 6.32533056,0.497777778 6.45416933,0.497777778 Z M7.2317801,0.497777778 C7.36061887,0.497777778 7.46506333,0.386346433 7.46506333,0.248888889 C7.46506333,0.111431344 7.36061887,0 7.2317801,0 C7.10294132,0 6.99849687,0.111431344 6.99849687,0.248888889 C6.99849687,0.386346433 7.10294132,0.497777778 7.2317801,0.497777778 Z M8.00939086,2.98666667 C8.13822964,2.98666667 8.24267409,2.87523532 8.24267409,2.73777778 C8.24267409,2.60032023 8.13822964,2.48888889 8.00939086,2.48888889 C7.88055208,2.48888889 7.77610763,2.60032023 7.77610763,2.73777778 C7.77610763,2.87523532 7.88055208,2.98666667 8.00939086,2.98666667 Z M8.78700162,2.98666667 C8.9158404,2.98666667 9.02028485,2.87523532 9.02028485,2.73777778 C9.02028485,2.60032023 8.9158404,2.48888889 8.78700162,2.48888889 C8.65816285,2.48888889 8.55371839,2.60032023 8.55371839,2.73777778 C8.55371839,2.87523532 8.65816285,2.98666667 8.78700162,2.98666667 Z M8.00939086,2.15703704 C8.13822964,2.15703704 8.24267409,2.04560569 8.24267409,1.90814815 C8.24267409,1.7706906 8.13822964,1.65925926 8.00939086,1.65925926 C7.88055208,1.65925926 7.77610763,1.7706906 7.77610763,1.90814815 C7.77610763,2.04560569 7.88055208,2.15703704 8.00939086,2.15703704 Z M8.78700162,2.15703704 C8.9158404,2.15703704 9.02028485,2.04560569 9.02028485,1.90814815 C9.02028485,1.7706906 8.9158404,1.65925926 8.78700162,1.65925926 C8.65816285,1.65925926 8.55371839,1.7706906 8.55371839,1.90814815 C8.55371839,2.04560569 8.65816285,2.15703704 8.78700162,2.15703704 Z M8.00939086,1.32740741 C8.13822964,1.32740741 8.24267409,1.21597606 8.24267409,1.07851852 C8.24267409,0.941060974 8.13822964,0.82962963 8.00939086,0.82962963 C7.88055208,0.82962963 7.77610763,0.941060974 7.77610763,1.07851852 C7.77610763,1.21597606 7.88055208,1.32740741 8.00939086,1.32740741 Z M8.78700162,1.32740741 C8.9158404,1.32740741 9.02028485,1.21597606 9.02028485,1.07851852 C9.02028485,0.941060974 8.9158404,0.82962963 8.78700162,0.82962963 C8.65816285,0.82962963 8.55371839,0.941060974 8.55371839,1.07851852 C8.55371839,1.21597606 8.65816285,1.32740741 8.78700162,1.32740741 Z M8.00939086,0.497777778 C8.13822964,0.497777778 8.24267409,0.386346433 8.24267409,0.248888889 C8.24267409,0.111431344 8.13822964,0 8.00939086,0 C7.88055208,0 7.77610763,0.111431344 7.77610763,0.248888889 C7.77610763,0.386346433 7.88055208,0.497777778 8.00939086,0.497777778 Z M8.78700162,0.497777778 C8.9158404,0.497777778 9.02028485,0.386346433 9.02028485,0.248888889 C9.02028485,0.111431344 8.9158404,0 8.78700162,0 C8.65816285,0 8.55371839,0.111431344 8.55371839,0.248888889 C8.55371839,0.386346433 8.65816285,0.497777778 8.78700162,0.497777778 Z M9.56461239,2.98666667 C9.69345116,2.98666667 9.79789561,2.87523532 9.79789561,2.73777778 C9.79789561,2.60032023 9.69345116,2.48888889 9.56461239,2.48888889 C9.43577361,2.48888889 9.33132916,2.60032023 9.33132916,2.73777778 C9.33132916,2.87523532 9.43577361,2.98666667 9.56461239,2.98666667 Z M10.3422231,2.98666667 C10.4710619,2.98666667 10.5755064,2.87523532 10.5755064,2.73777778 C10.5755064,2.60032023 10.4710619,2.48888889 10.3422231,2.48888889 C10.2133844,2.48888889 10.1089399,2.60032023 10.1089399,2.73777778 C10.1089399,2.87523532 10.2133844,2.98666667 10.3422231,2.98666667 Z M9.56461239,2.15703704 C9.69345116,2.15703704 9.79789561,2.04560569 9.79789561,1.90814815 C9.79789561,1.7706906 9.69345116,1.65925926 9.56461239,1.65925926 C9.43577361,1.65925926 9.33132916,1.7706906 9.33132916,1.90814815 C9.33132916,2.04560569 9.43577361,2.15703704 9.56461239,2.15703704 Z M10.3422231,2.15703704 C10.4710619,2.15703704 10.5755064,2.04560569 10.5755064,1.90814815 C10.5755064,1.7706906 10.4710619,1.65925926 10.3422231,1.65925926 C10.2133844,1.65925926 10.1089399,1.7706906 10.1089399,1.90814815 C10.1089399,2.04560569 10.2133844,2.15703704 10.3422231,2.15703704 Z M9.56461239,1.32740741 C9.69345116,1.32740741 9.79789561,1.21597606 9.79789561,1.07851852 C9.79789561,0.941060974 9.69345116,0.82962963 9.56461239,0.82962963 C9.43577361,0.82962963 9.33132916,0.941060974 9.33132916,1.07851852 C9.33132916,1.21597606 9.43577361,1.32740741 9.56461239,1.32740741 Z M10.3422231,1.32740741 C10.4710619,1.32740741 10.5755064,1.21597606 10.5755064,1.07851852 C10.5755064,0.941060974 10.4710619,0.82962963 10.3422231,0.82962963 C10.2133844,0.82962963 10.1089399,0.941060974 10.1089399,1.07851852 C10.1089399,1.21597606 10.2133844,1.32740741 10.3422231,1.32740741 Z M9.56461239,0.497777778 C9.69345116,0.497777778 9.79789561,0.386346433 9.79789561,0.248888889 C9.79789561,0.111431344 9.69345116,0 9.56461239,0 C9.43577361,0 9.33132916,0.111431344 9.33132916,0.248888889 C9.33132916,0.386346433 9.43577361,0.497777778 9.56461239,0.497777778 Z M10.3422231,0.497777778 C10.4710619,0.497777778 10.5755064,0.386346433 10.5755064,0.248888889 C10.5755064,0.111431344 10.4710619,0 10.3422231,0 C10.2133844,0 10.1089399,0.111431344 10.1089399,0.248888889 C10.1089399,0.386346433 10.2133844,0.497777778 10.3422231,0.497777778 Z M11.1198339,2.98666667 C11.2486727,2.98666667 11.3531171,2.87523532 11.3531171,2.73777778 C11.3531171,2.60032023 11.2486727,2.48888889 11.1198339,2.48888889 C10.9909951,2.48888889 10.8865507,2.60032023 10.8865507,2.73777778 C10.8865507,2.87523532 10.9909951,2.98666667 11.1198339,2.98666667 Z M11.8974447,2.98666667 C12.0262835,2.98666667 12.1307279,2.87523532 12.1307279,2.73777778 C12.1307279,2.60032023 12.0262835,2.48888889 11.8974447,2.48888889 C11.7686059,2.48888889 11.6641614,2.60032023 11.6641614,2.73777778 C11.6641614,2.87523532 11.7686059,2.98666667 11.8974447,2.98666667 Z M11.1198339,2.15703704 C11.2486727,2.15703704 11.3531171,2.04560569 11.3531171,1.90814815 C11.3531171,1.7706906 11.2486727,1.65925926 11.1198339,1.65925926 C10.9909951,1.65925926 10.8865507,1.7706906 10.8865507,1.90814815 C10.8865507,2.04560569 10.9909951,2.15703704 11.1198339,2.15703704 Z M11.8974447,2.15703704 C12.0262835,2.15703704 12.1307279,2.04560569 12.1307279,1.90814815 C12.1307279,1.7706906 12.0262835,1.65925926 11.8974447,1.65925926 C11.7686059,1.65925926 11.6641614,1.7706906 11.6641614,1.90814815 C11.6641614,2.04560569 11.7686059,2.15703704 11.8974447,2.15703704 Z M11.1198339,1.32740741 C11.2486727,1.32740741 11.3531171,1.21597606 11.3531171,1.07851852 C11.3531171,0.941060974 11.2486727,0.82962963 11.1198339,0.82962963 C10.9909951,0.82962963 10.8865507,0.941060974 10.8865507,1.07851852 C10.8865507,1.21597606 10.9909951,1.32740741 11.1198339,1.32740741 Z M11.8974447,1.32740741 C12.0262835,1.32740741 12.1307279,1.21597606 12.1307279,1.07851852 C12.1307279,0.941060974 12.0262835,0.82962963 11.8974447,0.82962963 C11.7686059,0.82962963 11.6641614,0.941060974 11.6641614,1.07851852 C11.6641614,1.21597606 11.7686059,1.32740741 11.8974447,1.32740741 Z M11.1198339,0.497777778 C11.2486727,0.497777778 11.3531171,0.386346433 11.3531171,0.248888889 C11.3531171,0.111431344 11.2486727,0 11.1198339,0 C10.9909951,0 10.8865507,0.111431344 10.8865507,0.248888889 C10.8865507,0.386346433 10.9909951,0.497777778 11.1198339,0.497777778 Z M11.8974447,0.497777778 C12.0262835,0.497777778 12.1307279,0.386346433 12.1307279,0.248888889 C12.1307279,0.111431344 12.0262835,0 11.8974447,0 C11.7686059,0 11.6641614,0.111431344 11.6641614,0.248888889 C11.6641614,0.386346433 11.7686059,0.497777778 11.8974447,0.497777778 Z M12.6750554,2.98666667 C12.8038942,2.98666667 12.9083387,2.87523532 12.9083387,2.73777778 C12.9083387,2.60032023 12.8038942,2.48888889 12.6750554,2.48888889 C12.5462167,2.48888889 12.4417722,2.60032023 12.4417722,2.73777778 C12.4417722,2.87523532 12.5462167,2.98666667 12.6750554,2.98666667 Z M13.4526662,2.98666667 C13.581505,2.98666667 13.6859494,2.87523532 13.6859494,2.73777778 C13.6859494,2.60032023 13.581505,2.48888889 13.4526662,2.48888889 C13.3238274,2.48888889 13.219383,2.60032023 13.219383,2.73777778 C13.219383,2.87523532 13.3238274,2.98666667 13.4526662,2.98666667 Z M12.6750554,2.15703704 C12.8038942,2.15703704 12.9083387,2.04560569 12.9083387,1.90814815 C12.9083387,1.7706906 12.8038942,1.65925926 12.6750554,1.65925926 C12.5462167,1.65925926 12.4417722,1.7706906 12.4417722,1.90814815 C12.4417722,2.04560569 12.5462167,2.15703704 12.6750554,2.15703704 Z M13.4526662,2.15703704 C13.581505,2.15703704 13.6859494,2.04560569 13.6859494,1.90814815 C13.6859494,1.7706906 13.581505,1.65925926 13.4526662,1.65925926 C13.3238274,1.65925926 13.219383,1.7706906 13.219383,1.90814815 C13.219383,2.04560569 13.3238274,2.15703704 13.4526662,2.15703704 Z M12.6750554,1.32740741 C12.8038942,1.32740741 12.9083387,1.21597606 12.9083387,1.07851852 C12.9083387,0.941060974 12.8038942,0.82962963 12.6750554,0.82962963 C12.5462167,0.82962963 12.4417722,0.941060974 12.4417722,1.07851852 C12.4417722,1.21597606 12.5462167,1.32740741 12.6750554,1.32740741 Z M13.4526662,1.32740741 C13.581505,1.32740741 13.6859494,1.21597606 13.6859494,1.07851852 C13.6859494,0.941060974 13.581505,0.82962963 13.4526662,0.82962963 C13.3238274,0.82962963 13.219383,0.941060974 13.219383,1.07851852 C13.219383,1.21597606 13.3238274,1.32740741 13.4526662,1.32740741 Z M12.6750554,0.497777778 C12.8038942,0.497777778 12.9083387,0.386346433 12.9083387,0.248888889 C12.9083387,0.111431344 12.8038942,0 12.6750554,0 C12.5462167,0 12.4417722,0.111431344 12.4417722,0.248888889 C12.4417722,0.386346433 12.5462167,0.497777778 12.6750554,0.497777778 Z M13.4526662,0.497777778 C13.581505,0.497777778 13.6859494,0.386346433 13.6859494,0.248888889 C13.6859494,0.111431344 13.581505,0 13.4526662,0 C13.3238274,0 13.219383,0.111431344 13.219383,0.248888889 C13.219383,0.386346433 13.3238274,0.497777778 13.4526662,0.497777778 Z M14.230277,2.98666667 C14.3591157,2.98666667 14.4635602,2.87523532 14.4635602,2.73777778 C14.4635602,2.60032023 14.3591157,2.48888889 14.230277,2.48888889 C14.1014382,2.48888889 13.9969937,2.60032023 13.9969937,2.73777778 C13.9969937,2.87523532 14.1014382,2.98666667 14.230277,2.98666667 Z M15.0078877,2.98666667 C15.1367265,2.98666667 15.241171,2.87523532 15.241171,2.73777778 C15.241171,2.60032023 15.1367265,2.48888889 15.0078877,2.48888889 C14.879049,2.48888889 14.7746045,2.60032023 14.7746045,2.73777778 C14.7746045,2.87523532 14.879049,2.98666667 15.0078877,2.98666667 Z M14.230277,2.15703704 C14.3591157,2.15703704 14.4635602,2.04560569 14.4635602,1.90814815 C14.4635602,1.7706906 14.3591157,1.65925926 14.230277,1.65925926 C14.1014382,1.65925926 13.9969937,1.7706906 13.9969937,1.90814815 C13.9969937,2.04560569 14.1014382,2.15703704 14.230277,2.15703704 Z M15.0078877,2.15703704 C15.1367265,2.15703704 15.241171,2.04560569 15.241171,1.90814815 C15.241171,1.7706906 15.1367265,1.65925926 15.0078877,1.65925926 C14.879049,1.65925926 14.7746045,1.7706906 14.7746045,1.90814815 C14.7746045,2.04560569 14.879049,2.15703704 15.0078877,2.15703704 Z M14.230277,1.32740741 C14.3591157,1.32740741 14.4635602,1.21597606 14.4635602,1.07851852 C14.4635602,0.941060974 14.3591157,0.82962963 14.230277,0.82962963 C14.1014382,0.82962963 13.9969937,0.941060974 13.9969937,1.07851852 C13.9969937,1.21597606 14.1014382,1.32740741 14.230277,1.32740741 Z M15.0078877,1.32740741 C15.1367265,1.32740741 15.241171,1.21597606 15.241171,1.07851852 C15.241171,0.941060974 15.1367265,0.82962963 15.0078877,0.82962963 C14.879049,0.82962963 14.7746045,0.941060974 14.7746045,1.07851852 C14.7746045,1.21597606 14.879049,1.32740741 15.0078877,1.32740741 Z M14.230277,0.497777778 C14.3591157,0.497777778 14.4635602,0.386346433 14.4635602,0.248888889 C14.4635602,0.111431344 14.3591157,0 14.230277,0 C14.1014382,0 13.9969937,0.111431344 13.9969937,0.248888889 C13.9969937,0.386346433 14.1014382,0.497777778 14.230277,0.497777778 Z M15.0078877,0.497777778 C15.1367265,0.497777778 15.241171,0.386346433 15.241171,0.248888889 C15.241171,0.111431344 15.1367265,0 15.0078877,0 C14.879049,0 14.7746045,0.111431344 14.7746045,0.248888889 C14.7746045,0.386346433 14.879049,0.497777778 15.0078877,0.497777778 Z M15.7854985,2.98666667 C15.9143373,2.98666667 16.0187817,2.87523532 16.0187817,2.73777778 C16.0187817,2.60032023 15.9143373,2.48888889 15.7854985,2.48888889 C15.6566597,2.48888889 15.5522153,2.60032023 15.5522153,2.73777778 C15.5522153,2.87523532 15.6566597,2.98666667 15.7854985,2.98666667 Z M16.5631093,2.98666667 C16.691948,2.98666667 16.7963925,2.87523532 16.7963925,2.73777778 C16.7963925,2.60032023 16.691948,2.48888889 16.5631093,2.48888889 C16.4342705,2.48888889 16.329826,2.60032023 16.329826,2.73777778 C16.329826,2.87523532 16.4342705,2.98666667 16.5631093,2.98666667 Z M15.7854985,2.15703704 C15.9143373,2.15703704 16.0187817,2.04560569 16.0187817,1.90814815 C16.0187817,1.7706906 15.9143373,1.65925926 15.7854985,1.65925926 C15.6566597,1.65925926 15.5522153,1.7706906 15.5522153,1.90814815 C15.5522153,2.04560569 15.6566597,2.15703704 15.7854985,2.15703704 Z M16.5631093,2.15703704 C16.691948,2.15703704 16.7963925,2.04560569 16.7963925,1.90814815 C16.7963925,1.7706906 16.691948,1.65925926 16.5631093,1.65925926 C16.4342705,1.65925926 16.329826,1.7706906 16.329826,1.90814815 C16.329826,2.04560569 16.4342705,2.15703704 16.5631093,2.15703704 Z M15.7854985,1.32740741 C15.9143373,1.32740741 16.0187817,1.21597606 16.0187817,1.07851852 C16.0187817,0.941060974 15.9143373,0.82962963 15.7854985,0.82962963 C15.6566597,0.82962963 15.5522153,0.941060974 15.5522153,1.07851852 C15.5522153,1.21597606 15.6566597,1.32740741 15.7854985,1.32740741 Z M16.5631093,1.32740741 C16.691948,1.32740741 16.7963925,1.21597606 16.7963925,1.07851852 C16.7963925,0.941060974 16.691948,0.82962963 16.5631093,0.82962963 C16.4342705,0.82962963 16.329826,0.941060974 16.329826,1.07851852 C16.329826,1.21597606 16.4342705,1.32740741 16.5631093,1.32740741 Z M15.7854985,0.497777778 C15.9143373,0.497777778 16.0187817,0.386346433 16.0187817,0.248888889 C16.0187817,0.111431344 15.9143373,0 15.7854985,0 C15.6566597,0 15.5522153,0.111431344 15.5522153,0.248888889 C15.5522153,0.386346433 15.6566597,0.497777778 15.7854985,0.497777778 Z M16.5631093,0.497777778 C16.691948,0.497777778 16.7963925,0.386346433 16.7963925,0.248888889 C16.7963925,0.111431344 16.691948,0 16.5631093,0 C16.4342705,0 16.329826,0.111431344 16.329826,0.248888889 C16.329826,0.386346433 16.4342705,0.497777778 16.5631093,0.497777778 Z" id="Speaker"></path>
                </g>
            </g>
            <g id="Coins" transform="translate(45.000000, 79.000000)">
                <polygon id="Rectangle-6" fill="#FFFFFF" points="0.0500030518 31.5675535 31.3999939 31.5675535 31.4498472 40 30 42.261194 2 42.261194 0 39"></polygon>
                <path d="M62.895939,11.042998 C60.9631581,12.9829695 58.5102674,14.0071506 55.9273492,14.5734364 C54.2766617,14.9450615 52.6061396,15.2259924 50.911375,15.3786242 C50.4772156,15.4228652 50.0430561,15.4648943 49.6088967,15.5091354 C49.3047647,15.5091354 49.0006327,15.5312559 48.6965007,15.5312559 C47.3499452,15.5533764 45.9615165,15.3786242 44.6369996,15.2038719 C42.9642736,14.9870906 41.31579,14.5933449 39.7312182,14.0270591 C38.8188222,13.6996751 37.9064262,13.2860209 37.0601459,12.8060052 C35.6496786,12.0428465 34.4111121,11.085027 33.5868703,9.64719181 C32.8926559,8.42613791 32.8926559,7.20729607 33.6309474,6.00836271 C34.6954094,4.24314348 36.3240583,3.17472132 38.1246079,2.34741306 C41.6419606,0.734825569 45.3752911,0.168539702 49.2188143,0.232689273 C52.7582056,0.276930356 56.2314812,0.79897514 59.4447019,2.38944209 C60.7031032,2.99996904 61.9637083,3.8272773 62.9840932,4.78730881 C65.1548904,6.90203259 64.9367088,8.97251529 62.895939,11.042998 Z" id="Shape" fill="#F69A98"></path>
                <path d="M64.4827146,13.8390345 C64.4827146,15.208296 64.6105382,16.5244682 64.4518606,17.8030355 C64.1367094,20.313717 61.223213,21.6741303 59.1802393,22.5633761 C53.0469106,25.2377496 45.2761176,24.9192138 39.0766733,22.7093717 C36.2006424,21.6829785 32.9741986,20.3822907 32.9874217,16.7722183 C32.9896256,15.8232471 32.9874217,14.8742758 32.9874217,13.7748849 C33.5670356,14.2925056 34.0033989,14.7327043 34.488247,15.1109656 C37.4370051,17.4203502 40.9036691,18.3870178 44.5223992,18.8957903 C47.6562811,19.3359891 50.7989784,19.2851118 53.9218411,18.763067 C57.2011774,18.2144776 60.3262439,17.2411738 63.0039279,15.1618429 C63.5130184,14.7658852 63.9670125,14.3057779 64.4827146,13.8390345 Z" id="Shape" fill="#F69A98"></path>
                <path d="M64.522384,22.7602489 C64.522384,24.1295105 64.6502076,25.4456827 64.49153,26.72425 C64.1763788,29.2349315 61.2628823,30.5953448 59.2199087,31.4845906 C53.08658,34.1589641 45.315787,33.8404283 39.1163427,31.6305861 C36.2403118,30.604193 33.013868,29.3035052 33.0270911,25.6934328 C33.029295,24.7444615 33.0270911,23.7954903 33.0270911,22.6960994 C33.606705,23.21372 34.0430683,23.6539188 34.5279164,24.0321801 C37.4766745,26.3415646 40.9433385,27.3082323 44.5620686,27.8170048 C47.6959505,28.2572035 50.8386478,28.2063263 53.9615105,27.6842815 C57.2408468,27.1356921 60.3659133,26.1623882 63.0435972,24.0830573 C63.5504839,23.6870996 64.0044781,23.2269924 64.522384,22.7602489 Z" id="Shape" fill="#F69A98"></path>
                <path d="M64.522384,31.5221955 C64.522384,32.891457 64.6502076,34.2076292 64.49153,35.4861966 C64.1763788,37.996878 61.2628823,39.3572914 59.2199087,40.2465371 C53.08658,42.9209106 45.315787,42.6023748 39.1163427,40.3925327 C36.2403118,39.3661396 33.013868,38.0654517 33.0270911,34.4553793 C33.029295,33.5064081 33.0270911,32.5574368 33.0270911,31.4580459 C33.606705,31.9756666 34.0430683,32.4158654 34.5279164,32.7941266 C37.4766745,35.1035112 40.9433385,36.0701789 44.5620686,36.5789513 C47.6959505,37.0191501 50.8386478,36.9682728 53.9615105,36.4462281 C57.2408468,35.8976386 60.3659133,34.9243348 63.0435972,32.8450039 C63.5504839,32.4512582 64.0044781,31.9889389 64.522384,31.5221955 Z" id="Shape" fill="#F69A98"></path>
                <path d="M31.4953334,36.3253436 C31.4953334,37.6946051 31.623157,39.0107774 31.4644794,40.2893447 C31.1493282,42.8000262 28.2358318,44.1604395 26.1928581,45.0496852 C20.0595294,47.7240587 12.2887364,47.4055229 6.08929209,45.1956808 C3.21326121,44.1692877 -0.0131826209,42.8685998 4.05095379e-05,39.2585274 C0.00224436461,38.3095562 4.05095379e-05,37.360585 4.05095379e-05,36.261194 C0.579654395,36.7788147 1.0160177,37.2190135 1.50086582,37.5972747 C4.44962391,39.9066593 7.91628795,40.873327 11.535018,41.3820994 C14.6688999,41.8222982 17.8115972,41.771421 20.9344599,41.2493762 C24.2137962,40.7007867 27.3388627,39.7274829 30.0165467,37.648152 C30.5234333,37.2544064 30.9774275,36.792087 31.4953334,36.3253436 Z" id="Shape" fill="#F69A98"></path>
                <path d="M29.824347,35.2703748 C27.8915661,37.2103463 25.4386754,38.2345274 22.8557572,38.8008132 C21.2050698,39.1724383 19.5345476,39.4533692 17.839783,39.606001 C17.4056236,39.650242 16.9714641,39.6922711 16.5373047,39.7365122 C16.2331727,39.7365122 15.9290407,39.7586327 15.6249087,39.7586327 C14.2783532,39.7807532 12.8899245,39.606001 11.5654076,39.4312487 C9.89268164,39.2144674 8.24419804,38.8207217 6.65962624,38.2544359 C5.74723024,37.9270518 4.83483424,37.5133977 3.98855389,37.033382 C2.57808664,36.2702233 1.33952009,35.3124038 0.51527829,33.8745686 C-0.178936059,32.6535147 -0.178936059,31.4346729 0.559355391,30.2357395 C1.62381739,28.4705203 3.2524663,27.4020981 5.05301589,26.5747899 C8.5703686,24.9622024 12.3036991,24.3959165 16.1472224,24.4600661 C19.6866136,24.5043072 23.1598892,25.0263519 26.3731099,26.6168189 C27.6315112,27.2273458 28.8921163,28.0546541 29.9125012,29.0146856 C32.0832984,31.1294094 31.8651168,33.1998921 29.824347,35.2703748 Z" id="Shape" fill="#F69A98"></path>
            </g>
        </g>
    </g>
</svg>