<?xml version="1.0" encoding="UTF-8"?>
<svg width="69px" height="66px" viewBox="0 0 69 66" version="1.1" xmlns="http://www.w3.org/2000/svg" xmlns:xlink="http://www.w3.org/1999/xlink">
    <!-- Generator: Sketch 41.1 (35376) - http://www.bohemiancoding.com/sketch -->
    <title>Student</title>
    <desc>Created with Sketch.</desc>
    <defs></defs>
    <g id="Page-1" stroke="none" stroke-width="1" fill="none" fill-rule="evenodd">
        <g id="Student">
            <g id="Girl-Student" transform="translate(39.928934, 0.410450)">
                <path d="M14.1753198,3.28180014 C14.2189302,3.21236003 14.2649467,3.13537208 14.3145723,3.05204394 C14.9588033,1.97360879 16.2980939,-0.270514529 20.5604848,0.338445074 C22.2261015,0.576654855 23.6297551,1.42805103 24.6192602,2.80054996 C26.0292297,4.75604394 26.5540584,7.70664493 26.0235152,10.6934755 C25.214467,15.2490489 25.2430393,16.1294288 25.3116129,18.2570135 C25.392217,20.7556499 26.2869822,21.5206988 26.7170711,21.8884295 C26.8839937,22.0309327 27.0039975,22.1335833 27.0181332,22.2772941 C27.0349759,22.445158 26.8181269,22.6347597 26.3733008,22.8409667 C25.8087716,23.1033296 24.9756624,23.3273494 24.0222487,23.3273494 C22.6459645,23.3273494 21.0194467,22.860893 19.5878223,21.3694401 C19.5878223,21.3694401 21.8387232,17.8660813 21.4641736,16.614402 C20.0345557,11.836868 14.1753198,3.28180014 14.1753198,3.28180014 Z" id="Shape" fill="#9E9E9E"></path>
                <g id="Group" transform="translate(0.000000, 2.823529)">
                    <path d="M17.1925584,3.87502622 C17.1925584,3.87502622 17.465349,2.33164422 19.4897741,2.4693168 C19.4894734,2.46780723 19.4903756,2.46569383 19.4900749,2.46418427 C19.4227043,1.73083629 17.3263972,0.625530829 16.6409619,0.645155209 C16.3690736,0.652703047 15.9480076,1.01107442 15.6264937,1.32898937 C16.8990152,2.41889724 17.1925584,3.87502622 17.1925584,3.87502622 Z" id="Shape" fill="#EF5350"></path>
                    <path d="M15.6869949,7.71544322 C15.8057954,10.32203 18.4059109,12.9526609 22.4973731,13.9592145 L22.6765039,14.003283 L22.5971899,13.8355435 C21.9798712,12.5299874 21.8527527,11.3849409 21.9033886,9.64930012 C21.9121666,9.35348194 21.9140026,9.2294165 21.9087461,9.11517761 C21.9041237,9.02187438 21.9080553,8.91644023 21.9276722,8.53265632 C21.9337822,8.41348069 21.9365714,8.35814625 21.9400899,8.28481831 C21.9844404,7.36054651 21.9853995,6.61945957 21.9144978,5.86923606 C21.7411203,4.03470009 21.166682,2.85746589 20.0288452,2.62289333 C19.7206101,2.55904557 19.4286662,2.52660383 19.1616434,2.52660383 C18.4095567,2.52660383 17.8731915,2.78027278 17.5224201,3.20424407 C17.3097189,3.46133228 17.2005206,3.73561133 17.1735117,3.90215827 C17.1691725,3.92726082 17.1468834,3.94634599 17.1200486,3.94681858 C17.0931201,3.9468051 17.0705757,3.92830153 17.0653933,3.9028682 C17.0354781,3.75635938 16.9719524,3.53631241 16.8640927,3.26767913 C16.6921433,2.83942502 16.455018,2.41532231 16.142073,2.02155997 C15.2604504,0.91226052 13.9503303,0.243470136 12.1359893,0.228139176 L12.0594632,0.228136074 C8.25545394,0.228136074 5.55862939,2.4870706 3.81057967,5.77709832 C3.47982834,6.3995697 3.2493498,6.89250329 2.76726677,7.97387714 C2.49909633,8.57531848 2.38442144,8.82803751 2.2400624,9.12899784 C1.5796132,10.5059051 1.03774981,11.1946108 0.297946654,11.4483252 L0.16781682,11.4929531 L0.262958989,11.5929271 C1.22091676,12.5995349 2.1766474,12.9925897 3.95063452,12.9925897 C4.01728236,12.9925897 4.08456182,12.9919819 4.15338076,12.9907646 L4.40572951,12.9871463 C6.44888367,12.9608621 7.71805313,12.8227372 9.34141698,12.2785054 C11.6613475,11.5007501 13.7594963,10.0352046 15.5892247,7.68437807 C15.6708238,7.67281998 15.6859659,7.69260316 15.6869949,7.71544322 Z M2.39773721,9.20579338 C2.54305919,8.90282551 2.65814978,8.64919036 2.92701275,8.04619586 C3.40747145,6.96846559 3.63673499,6.47813057 3.96496998,5.86039491 C5.68572917,2.62173106 8.33263878,0.404606662 12.0594632,0.404606662 L12.1352551,0.404606662 C13.8950816,0.419480083 15.1560144,1.06316133 16.0053788,2.13187199 C16.3070111,2.51140012 16.5358553,2.92069203 16.7017499,3.33386592 C16.8053749,3.59195244 16.865973,3.80185829 16.8938525,3.93839738 C16.9157595,4.04590851 17.0100222,4.12327569 17.1191726,4.12327569 C17.2336467,4.12131553 17.3272643,4.04115512 17.3461963,3.93151378 C17.3511251,3.90114932 17.3715046,3.8270796 17.4060151,3.7403977 C17.4635381,3.5959143 17.5457864,3.45158697 17.6569324,3.31724672 C17.9744674,2.93344765 18.4615754,2.70307442 19.1616434,2.70307442 C19.4162863,2.70307442 19.6965081,2.73421356 19.9936633,2.7957662 C21.0310571,3.0096318 21.5733574,4.1210035 21.7401596,5.88596613 C21.8100967,6.6259819 21.809147,7.35975174 21.7651674,8.2762955 C21.761661,8.34936872 21.7588789,8.40456519 21.7527778,8.52356521 C21.7326745,8.91686538 21.7287673,9.02164552 21.7338221,9.12366433 C21.7387713,9.23123635 21.736963,9.35342846 21.7283386,9.64407013 C21.6791114,11.3314239 21.7959881,12.4741613 22.3616589,13.7429043 C18.4428426,12.7224986 15.9751271,10.1908271 15.8619395,7.70739344 C15.857583,7.61069588 15.7938522,7.5274314 15.7024491,7.49766039 C15.6788123,7.4902402 15.6556156,7.48674132 15.6319074,7.48674132 C15.5612664,7.48674132 15.4935311,7.51974075 15.4506613,7.57646738 C13.6431867,9.89868781 11.5738651,11.3440977 9.2861322,12.1110587 C7.68413857,12.6481262 6.42995008,12.7846207 4.4033657,12.8106918 L4.1505979,12.8143165 C4.08250184,12.8155206 4.01624651,12.8161191 3.95123604,12.8161191 C2.28149236,12.8161191 1.37568966,12.4666805 0.482574682,11.5667357 C1.21421877,11.2614252 1.75515221,10.5454573 2.39773721,9.20579338 Z" id="Shape" fill="#9E9E9E"></path>
                    <path d="M2.39773721,9.20579338 C2.54305919,8.90282551 2.65814978,8.64919036 2.92701275,8.04619586 C3.40747145,6.96846559 3.63673499,6.47813057 3.96496998,5.86039491 C5.68572917,2.62173106 8.33263878,0.404606662 12.0594632,0.404606662 L12.1352551,0.404606662 C13.8950816,0.419480083 15.1560144,1.06316133 16.0053788,2.13187199 C16.3070111,2.51140012 16.5358553,2.92069203 16.7017499,3.33386592 C16.8053749,3.59195244 16.865973,3.80185829 16.8938525,3.93839738 C16.9157595,4.04590851 17.0100222,4.12327569 17.1191726,4.12327569 C17.2336467,4.12131553 17.3272643,4.04115512 17.3461963,3.93151378 C17.3511251,3.90114932 17.3715046,3.8270796 17.4060151,3.7403977 C17.4635381,3.5959143 17.5457864,3.45158697 17.6569324,3.31724672 C17.9744674,2.93344765 18.4615754,2.70307442 19.1616434,2.70307442 C19.4162863,2.70307442 19.6965081,2.73421356 19.9936633,2.7957662 C21.0310571,3.0096318 21.5733574,4.1210035 21.7401596,5.88596613 C21.8100967,6.6259819 21.809147,7.35975174 21.7651674,8.2762955 C21.761661,8.34936872 21.7588789,8.40456519 21.7527778,8.52356521 C21.7326745,8.91686538 21.7287673,9.02164552 21.7338221,9.12366433 C21.7387713,9.23123635 21.736963,9.35342846 21.7283386,9.64407013 C21.6791114,11.3314239 21.7959881,12.4741613 22.3616589,13.7429043 C18.4428426,12.7224986 15.9751271,10.1908271 15.8619395,7.70739344 C15.857583,7.61069588 15.7938522,7.5274314 15.7024491,7.49766039 C15.6788123,7.4902402 15.6556156,7.48674132 15.6319074,7.48674132 C15.5612664,7.48674132 15.4935311,7.51974075 15.4506613,7.57646738 C13.6431867,9.89868781 11.5738651,11.3440977 9.2861322,12.1110587 C7.68413857,12.6481262 6.42995008,12.7846207 4.4033657,12.8106918 L4.1505979,12.8143165 C4.08250184,12.8155206 4.01624651,12.8161191 3.95123604,12.8161191 C2.28149236,12.8161191 1.37568966,12.4666805 0.482574682,11.5667357 C1.21421877,11.2614252 1.75515221,10.5454573 2.39773721,9.20579338 Z" id="Path-Copy" fill="#9E9E9E"></path>
                    <path d="M16.8373591,18.4275606 C14.8243629,18.4275606 13.1864162,16.9678086 13.1864162,15.1738384 C13.1864162,13.3798682 14.8243629,11.9201162 16.8373591,11.9201162 C18.8500546,11.9201162 20.488302,13.3798682 20.488302,15.1738384 C20.488302,16.9678086 18.8503553,18.4275606 16.8373591,18.4275606 Z M16.8123236,12.3660034 C15.0738704,12.3660034 13.6598985,13.6327783 13.6598985,15.1896764 C13.6598985,16.7465745 15.0738704,18.0130622 16.8123236,18.0130622 C18.5504951,18.0130622 19.964467,16.7465745 19.964467,15.1896764 C19.964467,13.6327783 18.5504951,12.3660034 16.8123236,12.3660034 Z" id="Shape" fill="#9E9E9E"></path>
                    <ellipse id="Oval" fill="#9E9E9E" cx="16.8121827" cy="15.5294118" rx="0.700507614" ry="0.705882353"></ellipse>
                    <path d="M7.35826142,18.4275606 C5.34526523,18.4275606 3.70731853,16.9678086 3.70731853,15.1738384 C3.70731853,14.3366322 4.06582614,13.5398824 4.71697462,12.9309227 C4.74253934,12.9070716 4.77622462,12.8934855 4.81111294,12.8925797 C5.90377919,12.870842 7.36367513,12.7829851 8.96853807,12.2929794 C9.00192259,12.2824125 9.03891624,12.2854316 9.07109772,12.3005273 C10.2663236,12.8678228 11.0089036,13.9685996 11.0089036,15.1738384 C11.0092043,16.9678086 9.37125761,18.4275606 7.35826142,18.4275606 Z M5.02724225,13.1777853 C4.55329949,13.7071971 4.20304569,14.49911 4.20304569,15.2042255 C4.20304569,16.7628414 5.6170808,18.0307265 7.35532995,18.0307265 C9.0935791,18.0307265 10.5076142,16.7628414 10.5076142,15.2042255 C10.5076142,14.1787598 10.1573604,13.3542559 8.89133264,12.6660378 C8.89133264,12.6660378 5.39868432,12.7628706 5.02724225,13.1777853 Z" id="Shape" fill="#9E9E9E"></path>
                    <path d="M4.16029425,13.2551296 L4.41187364,13.2515234 C6.47969084,13.2249222 7.77132495,13.0843517 9.42671452,12.5293728 C11.6616585,11.780095 13.6945358,10.4057635 15.4811335,8.24273546 C15.8570712,10.5342128 18.0203259,12.7854837 21.3476628,13.9000749 C21.1381988,18.174411 16.9598661,21.6498795 11.9301358,21.6498795 C6.83311926,21.6498795 2.8611434,18.0915365 2.8611434,13.5646393 C2.8611434,13.4473705 2.86466155,13.3268399 2.87209829,13.1945023 C3.25837885,13.243717 3.68153193,13.2634561 4.16029425,13.2551296 Z M11.9301358,22.3557619 C17.3799469,22.3557619 21.9300074,18.515189 22.0538122,13.7619917 L22.0568004,13.6555282 L22.064283,13.3888771 L21.7097879,13.2765577 C18.3068278,12.1832357 16.2261392,9.87159955 16.1267581,7.69491883 L16.1090083,7.30866628 L16.0653397,6.35839301 L15.2466513,7.41204093 C13.470956,9.69361611 11.4449613,11.1088192 9.20557165,11.8595875 C7.63566475,12.3859078 6.4039551,12.5199567 4.4024184,12.5457056 L4.14926596,12.5493355 C3.61413312,12.5586408 3.16144265,12.5308609 2.75951174,12.4650995 L2.60726685,12.4400803 L2.23288421,12.378556 L2.18918198,12.9143923 C2.16972436,13.1588508 2.16063579,13.3648873 2.16063579,13.5646393 C2.16063579,18.5010849 6.4633924,22.3557619 11.9301358,22.3557619 Z" id="Shape" fill="#9E9E9E"></path>
                    <ellipse id="Oval" fill="#9E9E9E" cx="7.70558376" cy="15.5294118" rx="0.700507614" ry="0.705882353"></ellipse>
                    <path d="M13.3289772,15.6381814 C13.2904797,15.6381814 13.2513807,15.62218 13.2234099,15.5913848 C12.9403934,15.2773948 12.5103046,15.0926237 12.0435228,15.0841701 C11.620953,15.0723955 11.2152259,15.217314 10.9875495,15.4519008 C10.9322094,15.5086605 10.8422817,15.5101701 10.7860393,15.4549199 C10.7294962,15.3996697 10.7833325,15.1189618 10.7833325,15.1189618 C10.7833325,15.1189618 10.857868,14.58955 12.0486358,14.58955 C13.2394036,14.58955 13.4342437,15.2248614 13.4342437,15.2248614 C13.4342437,15.2248614 13.4826662,15.5482112 13.4243185,15.601348 C13.3969492,15.6261049 13.363264,15.6381814 13.3289772,15.6381814 Z" id="Shape" fill="#9E9E9E"></path>
                    <path d="M12.0907424,19.6482055 C12.0375076,19.6482055 11.9863782,19.6457902 11.9379556,19.6421673 C11.2756789,19.590842 10.7343084,19.2179787 10.5114442,18.8925159 C10.4669315,18.8273026 10.4834734,18.7382381 10.5484378,18.6935549 C10.6134023,18.6491736 10.7021269,18.665477 10.7466396,18.7303884 C10.9322094,19.0012048 11.3911713,19.3133834 11.9599112,19.356859 C12.3466904,19.3858427 12.9226485,19.297382 13.481764,18.7017066 C13.535901,18.6440411 13.6261294,18.6416258 13.6832741,18.6953664 C13.7404188,18.7497108 13.7431256,18.839983 13.6892893,18.8976485 C13.1214518,19.5020794 12.5298541,19.6482055 12.0907424,19.6482055 Z" id="Shape" stroke="#F27674" stroke-width="0.5" fill="#F27674"></path>
                </g>
            </g>
            <path d="M26.2967903,13.296753 C26.1098226,13.0494974 25.7904194,12.8615385 25.2896129,12.6299462 C25.3207742,12.0101291 25.3508226,11.3925496 25.3842097,10.7749701 C25.403129,10.4236658 25.4209355,10.0712427 25.4365161,9.71993846 C25.4365161,9.71993846 25.4365161,9.71658205 25.4398548,9.71322564 C25.4710161,9.01621111 25.5010645,8.31584017 25.5166452,7.61546923 C25.5478065,6.2639547 25.0314194,5.10039915 24.092129,4.13822821 C22.7844677,2.79902051 21.1607419,2.07067949 19.3567258,1.72496923 C17.8064516,1.42960513 16.1860645,1.54931709 14.6880968,0.913836752 C14.1628065,0.691194872 13.5985645,0.564770085 13.0487903,0.401424786 C12.8618226,0.345484615 12.6681774,0.305207692 12.4044194,0.238079487 C12.6103065,0.845589744 12.7816935,1.34905128 12.9998226,1.99683846 C11.8145806,1.99683846 10.8118548,1.49113932 9.70340323,1.31772479 C9.56540323,1.29646752 9.43074194,1.28080427 9.28940323,1.27185385 C9.34504839,1.36135812 9.39958065,1.44750598 9.45522581,1.53365385 C9.79020968,2.05837265 10.1118387,2.55847778 10.5202742,3.20290855 C9.58766129,3.23647265 8.75298387,3.26779915 7.93945161,3.29800684 C7.74246774,3.30807607 7.54993548,3.31478889 7.35629032,3.32373932 C7.35295161,3.36961026 7.35295161,3.4166 7.35295161,3.46247094 C7.47314516,3.53071795 7.59556452,3.59560855 7.71798387,3.66273675 C8.09859677,3.86971538 8.49145161,4.08340684 8.91880645,4.31388034 C7.58332258,5.80748291 7.53435484,7.56959829 7.70574194,9.39324786 C7.81035484,10.4829624 7.85264516,11.5749145 7.92720968,12.6914803 C7.26725806,12.789935 6.7608871,13.0550915 6.69633871,13.7811949 C6.693,13.8248282 6.68966129,13.8673427 6.68743548,13.9109761 C6.59506452,15.2501838 6.88664516,16.4931744 7.67569355,17.6075026 C7.98841935,18.0460735 8.33898387,18.3638137 8.97667742,18.1076077 C9.29941935,18.9041957 9.56651613,19.6470812 9.9003871,20.3564026 C10.7228226,22.1084487 11.8590968,23.5964573 13.7521452,24.2621453 C15.6552097,24.9311897 17.5983387,24.9379026 19.4913871,24.2375316 C21.4801452,23.5002402 22.6064032,21.8925197 23.4288387,20.0285932 C23.6525323,19.5195376 23.8250323,18.9858684 24.0554032,18.4801692 C24.1166129,18.3470316 24.3280645,18.1713795 24.4360161,18.1926368 C24.8989839,18.282141 25.1660806,18.0348855 25.4086935,17.7205017 C26.0475,16.893706 26.3724677,15.9460795 26.4826452,14.9067111 C26.5727903,14.0832718 26.5605484,13.6357504 26.2967903,13.296753 Z M21.7138548,21.0411103 C20.4952258,22.9296504 18.7424032,23.7933667 16.6223226,23.8795145 C14.2896774,23.7709906 12.5368548,22.8177701 11.3338065,20.8341316 C10.6126452,19.6493188 10.0417258,18.4242291 9.62995161,17.149912 C9.58098387,16.9999923 9.54203226,16.8467162 9.49640323,16.6956778 C9.84919355,17.1152291 10.3143871,17.3759103 10.8919839,17.4587017 C11.3861129,17.5303051 11.8713387,17.5661068 12.3331935,17.5661068 C12.7894839,17.5661068 13.2402097,17.5303051 13.6720161,17.4609393 C14.7003387,17.2942376 15.4137097,16.7102222 15.7331129,15.772665 C15.9000484,15.2815103 16.0102258,14.7668607 16.1159516,14.270112 C16.146,14.1313803 16.1749355,13.9926487 16.2060968,13.8539171 C16.2773226,13.5350581 16.3852742,13.4757615 16.6000645,13.4690487 C16.8137419,13.4757615 16.9228065,13.5339393 16.9940323,13.8539171 C17.0251935,13.9926487 17.054129,14.1313803 17.0841774,14.270112 C17.1899032,14.7668607 17.3000806,15.2815103 17.4670161,15.772665 C17.7864194,16.7102222 18.4997903,17.2942376 19.5281129,17.4609393 C19.9599194,17.5314239 20.4106452,17.5661068 20.8669355,17.5661068 C21.3287903,17.5661068 21.8140161,17.5303051 22.3081452,17.4587017 C22.8579194,17.3792667 23.3086452,17.1454368 23.6547581,16.7616872 C23.2229516,18.2530521 22.5885968,19.6828829 21.7138548,21.0411103 Z M12.4734194,14.861959 C13.2446613,14.861959 13.869,14.2343103 13.869,13.4589795 C13.869,13.2665453 13.8300484,13.0819427 13.7599355,12.915241 C14.0748871,12.9734188 14.3942903,13.051735 14.7170323,13.1703282 C15.0675968,13.2978718 15.2334194,13.5708598 15.1978065,13.9602034 C15.1866774,14.0754402 15.1788871,14.1917957 15.1722097,14.3036761 C15.1610806,14.4681402 15.1499516,14.6370795 15.1299194,14.8004248 C14.9985968,15.8252487 14.4477097,16.4081453 13.4449839,16.5837974 C13.1923548,16.6274308 12.9375,16.6453316 12.6893226,16.6609949 C12.5891613,16.6677077 12.4934516,16.6744205 12.4021935,16.6822521 C12.2875645,16.6766581 12.1773871,16.6721829 12.0727742,16.6677077 C11.8435161,16.6587573 11.6276129,16.6498068 11.4195,16.6285496 C10.6282258,16.5468769 10.1385484,16.2313744 9.92375806,15.6630222 C9.76906452,15.254659 9.67112903,14.7702171 9.64108065,14.2622803 C9.59656452,13.4712863 9.78019355,13.2240308 10.5792581,13.0013889 C10.7818065,12.9454487 10.994371,12.909647 11.2091613,12.8749641 C11.1268065,13.0539726 11.0789516,13.2508821 11.0789516,13.4600983 C11.0778387,14.2343103 11.7032903,14.861959 12.4734194,14.861959 Z M20.5786935,14.861959 C21.3499355,14.861959 21.9742742,14.2343103 21.9742742,13.4589795 C21.9742742,13.2352188 21.9175161,13.0271214 21.8251452,12.8402812 C22.1022581,12.8760829 22.3682419,12.9286667 22.6253226,13.0002701 C23.4243871,13.222912 23.6080161,13.4701675 23.5635,14.2600427 C23.5334516,14.7679795 23.436629,15.2524214 23.2808226,15.6607846 C23.0649194,16.2291368 22.5763548,16.5446393 21.7850806,16.626312 C21.5769677,16.6475692 21.3610645,16.6565197 21.1318065,16.6654701 C21.0260806,16.6699453 20.9170161,16.6744205 20.8023871,16.6800145 C20.711129,16.6721829 20.6154194,16.6654701 20.5152581,16.6587573 C20.2681935,16.6419752 20.0122258,16.6251932 19.7595968,16.5815598 C18.756871,16.4059077 18.204871,15.8230111 18.0746613,14.7981872 C18.0535161,14.6348419 18.0423871,14.4659026 18.032371,14.3014385 C18.0245806,14.1895581 18.0179032,14.0732026 18.0067742,13.9579658 C17.9711613,13.569741 18.1369839,13.296753 18.4875484,13.1680906 C18.7557581,13.0696359 19.020629,12.9991513 19.2843871,12.9420923 C19.2209516,13.1020812 19.1842258,13.2754957 19.1842258,13.4578607 C19.1831129,14.2343103 19.8085645,14.861959 20.5786935,14.861959 Z M22.8556935,11.9441197 C22.1055968,11.8960111 21.4389677,11.873635 20.8168548,11.873635 C19.9343226,11.873635 19.1308065,11.919506 18.3629032,12.0146043 C17.8064516,12.0839701 17.2065968,12.1488607 16.6045161,12.1589299 C15.9957581,12.1488607 15.3970161,12.0839701 14.8405645,12.0146043 C14.0726613,11.919506 13.2702581,11.873635 12.3866129,11.873635 C11.7645,11.873635 11.097871,11.8971299 10.3477742,11.9441197 C9.91819355,11.9709709 9.44409677,12.0213171 8.92548387,12.0884453 C9.01674194,11.783012 9.17366129,11.521212 9.40180645,11.3064017 C11.4985161,11.4026188 16.5466452,11.1799769 20.0611935,7.28318462 C20.1190645,7.31674872 20.1813871,7.36038205 20.2392581,7.41632222 C20.4384677,8.20284103 21.252,10.5512094 23.9474516,11.2605308 C24.0331452,11.350035 24.1099355,11.464153 24.1778226,11.5872214 C24.264629,11.7494479 24.3147097,11.9262188 24.3403065,12.0962769 C23.7960968,12.0246735 23.3030806,11.9732085 22.8556935,11.9441197 Z" id="Shape" fill="#9E9E9E"></path>
            <path d="M16.6174833,20.8235294 C16.5542095,20.8235294 16.493438,20.8209501 16.4358839,20.8170812 C15.6487152,20.7622715 15.005253,20.3640949 14.7403611,20.0165368 C14.6874542,19.9468962 14.7071156,19.8517852 14.784331,19.8040685 C14.8615465,19.7566742 14.9670028,19.7740844 15.0199097,19.8434025 C15.2404742,20.1326044 15.7859871,20.4659765 16.4619799,20.5124036 C16.9216979,20.543355 17.6062701,20.4488888 18.2708236,19.8127736 C18.3351698,19.7511932 18.4424135,19.748614 18.5103345,19.806003 C18.5782555,19.8640368 18.5814728,19.9604374 18.517484,20.0220178 C17.8425637,20.6674829 17.1394026,20.8235294 16.6174833,20.8235294 Z" id="Shape" stroke="#F27674" stroke-width="0.5" fill="#F27674"></path>
            <path d="M32.9935989,38.1717098 C32.9942305,38.2252273 32.9948161,38.2787304 32.9953548,38.3322171 C33.0153871,39.0918846 33.0153871,39.8705718 32.9986935,40.6335957 C32.9408226,43.2336949 32.8284194,45.8528137 32.6959839,48.4529128 C32.6358871,49.6936658 32.5702258,50.9321812 32.5012258,52.1639838 C32.4600484,52.9158197 32.418871,53.6665368 32.3743548,54.4127786 C32.3554355,54.8133103 32.3354032,55.2104855 32.3164839,55.6087795 C32.2964516,56.0070735 32.2608387,56.4266248 32.2419194,56.8249188 C32.2029677,57.4682308 31.7878548,58.3420162 31.1835484,58.6843701 C30.3722419,59.1016838 29.4852581,59.4820769 28.3690161,59.8803709 C28.1442097,59.9743504 27.8804516,60.0705675 27.6356129,60.1455274 C27.2561129,60.278665 27.2171613,60.3167043 27.162629,60.6210188 C26.4648387,63.903588 24.2167742,65.7272376 20.8747258,65.7462573 C19.7417903,65.7652769 18.6099677,65.7652769 17.4748065,65.7652769 L15.732,65.7652769 C14.5968387,65.7652769 13.4639032,65.7652769 12.3320806,65.7462573 C8.99003226,65.7272376 6.74196774,63.903588 6.04417742,60.6210188 C5.98853226,60.3167043 5.95069355,60.278665 5.57119355,60.1455274 C5.32746774,60.0705675 5.06370968,59.9743504 4.83779032,59.8803709 C3.72154839,59.4831957 2.83456452,59.1016838 2.02325806,58.6843701 C1.41783871,58.3420162 1.00383871,57.4682308 0.964887097,56.8249188 C0.944854839,56.4266248 0.909241935,56.0070735 0.890322581,55.6087795 C0.871403226,55.2116043 0.851370968,54.8133103 0.832451613,54.4127786 C0.787935484,53.6665368 0.746758065,52.9158197 0.705580645,52.1639838 C0.637693548,50.9310624 0.570919355,49.6936658 0.510822581,48.4529128 C0.378387097,45.8528137 0.265983871,43.2336949 0.208112903,40.6335957 C0.189193548,39.8739282 0.189193548,39.0941222 0.208112903,38.3344547 C0.209496741,38.1969739 0.211190191,38.0593974 0.213177141,37.9217544 C0.0732953067,37.3526017 -5.53977354e-05,36.7040197 8.62920846e-14,35.9649233 C8.62920846e-14,34.9760998 0.131308389,34.017906 0.377813291,33.1067068 C0.384218576,32.9765198 0.390721094,32.8465897 0.397306452,32.7169427 C0.399574186,32.6730477 0.437657525,32.6546697 0.509562636,32.6583364 C1.76829121,28.6932656 5.23468336,25.7032726 9.50870265,25.1103783 C9.66195181,25.09048 9.81565438,25.0728428 9.97615794,25.1049515 C9.97842494,25.1506272 9.98567934,25.194494 9.99112014,25.240622 C10.0196843,25.496587 10.0967623,25.7457685 10.2169133,25.9859053 C11.0235117,28.0110138 13.6341883,31.8509413 15.1721208,34.0307141 L18.1010841,34.0307141 C19.6385632,31.8509413 22.2492398,28.011466 23.0562916,25.9859053 C23.1764426,25.7457685 23.2526137,25.496587 23.2811779,25.240622 C23.2870721,25.194494 23.2947799,25.1506272 23.3029411,25.0588235 C23.4570971,25.0728428 23.6107997,25.09048 23.8216306,25.1176141 C28.0532538,25.7051232 31.5118686,28.6970753 32.7670355,32.6653571 C32.7917894,32.6753178 32.8049842,32.6916084 32.8061613,32.7147051 C32.8077271,32.745531 32.8092882,32.7763732 32.8108444,32.8072313 C33.1121037,33.8070754 33.2740217,34.8671228 33.2741117,35.9649233 C33.2741117,36.8145051 33.1771276,37.5444886 32.9935989,38.1717098 L32.9935989,38.1717098 Z" id="Combined-Shape" fill="#ECECEC"></path>
            <path d="M18.0855613,34.1615269 C17.9852446,32.7260092 17.784611,29.8549738 17.784611,29.8549738 C18.2330235,29.6256906 18.6197736,29.2449088 18.8673299,28.8039796 C19.0455161,28.4874151 19.1543321,28.1410031 19.1543321,27.7878075 C19.1543321,27.7878075 18.0076837,28.2943107 16.8370052,28.2943107 C16.7703554,28.2943107 16.7037056,28.2938585 16.6366024,28.2897884 C16.5699527,28.2938585 16.5033029,28.2943107 16.4361997,28.2943107 C15.2655211,28.2943107 14.1188728,27.7878075 14.1188728,27.7878075 C14.1188728,28.1410031 14.2276888,28.4874151 14.4058749,28.8039796 C14.6529779,29.245361 15.0392746,29.6247862 15.4881405,29.8549738 L15.1857854,34.1878367 L18.0855613,34.1615269 Z" id="Path" fill="#F69A98"></path>
            <g id="Group" transform="translate(35.893391, 26.287179)">
                <path d="M21.1384477,1.62338376 C20.1301574,2.04293504 17.8297864,2.28907179 16.430867,2.28907179 C15.0319477,2.28907179 12.877367,2.04293504 11.8690767,1.62562137 L16.430867,8.05762222 L21.1384477,1.62338376 Z" id="Shape" fill="#F69A98"></path>
                <path d="M32.8984961,12.0450376 C32.8795767,10.1665667 32.8027864,8.26795726 32.7093025,6.42752564 C32.6736896,5.76407521 32.5991251,5.08719915 32.4177219,4.44612479 C32.2340928,3.79386239 31.9425122,3.18075812 31.4773186,2.66163333 C30.9464638,2.07090513 30.1362703,1.85497607 29.4162219,1.58646325 C27.712367,0.950982906 25.9395122,0.398294017 24.1343832,0.0313264957 C23.4555122,1.00356667 22.8211574,1.91874786 22.1778993,2.80260256 C21.0405122,4.37787778 19.869738,5.8580547 18.6933993,7.33599402 C17.9677864,8.24446239 17.2343832,9.15404957 16.5032057,10.0826564 C15.7720283,9.15404957 15.0408509,8.2455812 14.3185767,7.33599402 C13.1366735,5.85469829 11.969238,4.37452137 10.8251735,2.79365214 C10.1819154,1.91203504 9.5531251,1.00021026 8.9321251,0.0413957265 C7.06578639,0.401650427 5.29627026,0.950982906 3.59464123,1.58646325 C2.87459284,1.85497607 2.06328639,2.06978632 1.53354445,2.66163333 C1.06946381,3.18075812 0.777883163,3.79162479 0.593141227,4.44388718 C0.413963808,5.08496154 0.337173485,5.76407521 0.301560582,6.42752564 C0.208076711,8.26795726 0.131286389,10.1654479 0.112367034,12.0450376 C0.093447679,12.8047051 0.093447679,13.5845111 0.112367034,14.3441786 C0.11793155,14.5567513 0.123496066,14.7670863 0.129060582,14.979659 C0.189157356,17.3694231 0.29377026,19.7759692 0.415076711,22.1634957 C0.510786389,24.1583222 0.624302518,26.1497923 0.736705744,28.1233615 C0.755625098,28.5238932 0.775657356,28.9221872 0.794576711,29.3193624 C0.813496066,29.7176564 0.849108969,30.1372077 0.869141227,30.5355017 C0.90809284,31.1788137 1.32209284,32.0525991 1.9275122,32.394953 C2.73881865,32.8122667 3.62580252,33.1937786 4.74204445,33.5909538 C4.9668509,33.6849333 5.23172187,33.7811504 5.47544768,33.8561103 C5.85494768,33.9892479 5.89278639,34.0272872 5.94843155,34.3316017 C6.64622187,37.6141709 8.89428639,39.4378205 12.2363348,39.4568402 C13.3681574,39.4758598 14.5010928,39.4758598 15.6362541,39.4758598 L17.3790606,39.4758598 C18.5142219,39.4758598 19.6460445,39.4758598 20.7789799,39.4568402 C24.1210283,39.4378205 26.3690928,37.6141709 27.0668832,34.3316017 C27.1214154,34.0272872 27.160367,33.9892479 27.539867,33.8561103 C27.7847057,33.7811504 28.0484638,33.6849333 28.2732703,33.5909538 C29.3895122,33.1926598 30.2764961,32.8122667 31.0878025,32.394953 C31.692109,32.0525991 32.1072219,31.1788137 32.1461735,30.5355017 C32.1650928,30.1372077 32.2007057,29.7176564 32.220738,29.3193624 C32.2396574,28.9210684 32.2596896,28.5238932 32.278609,28.1233615 C32.3910122,26.1509111 32.5034154,24.1583222 32.600238,22.1634957 C32.7215445,19.7759692 32.8250445,17.3694231 32.8862541,14.979659 C32.8918186,14.7670863 32.8973832,14.5567513 32.9029477,14.3441786 C32.9174154,13.5833923 32.9174154,12.8047051 32.8984961,12.0450376 Z" id="Shape" fill="#ECECEC"></path>
            </g>
        </g>
    </g>
</svg>