<?xml version="1.0" encoding="UTF-8"?>
<svg width="162px" height="273px" viewBox="0 0 162 273" version="1.1" xmlns="http://www.w3.org/2000/svg" xmlns:xlink="http://www.w3.org/1999/xlink">
    <!-- Generator: Sketch 41.1 (35376) - http://www.bohemiancoding.com/sketch -->
    <title>Students</title>
    <desc>Created with Sketch.</desc>
    <defs></defs>
    <g id="Page-1" stroke="none" stroke-width="1" fill="none" fill-rule="evenodd">
        <g id="Students" transform="translate(7.000000, 12.000000)">
            <g id="Sweater-Boy">
                <path d="M49.0568452,228.506047 C48.8605595,230.696233 48.7714759,232.634093 49.2128673,233.72414 C50.328173,236.479535 57.8992672,237.130535 61.2074373,240.713558 C64.2871106,244.054349 75.4009112,243.766698 76.2419202,239.68407 C76.3294938,239.255116 76.4155576,237.761349 76.1216322,237.322302 C75.2313002,235.984977 72.5733896,235.656953 69.7589537,234.410465 C68.56916,233.885628 65.6173241,231.079767 62.2432222,228.612023 C62.1813167,228.566605 62.1199145,228.521186 62.0580089,228.470721 C61.3589296,228.450535 60.7111866,228.586791 60.1097469,228.904721 C58.5394608,229.747488 58.853518,230.797163 57.0738604,231.110047 C55.2942029,231.42293 51.0025908,231.322 50.0604191,228.904721 C49.7151575,228.783605 49.3814717,228.647349 49.0568452,228.506047" id="Fill-335" fill="#FFFFFF"></path>
                <path d="M29.6779041,231.776186 C29.0970996,232.830907 28.6023588,233.905814 28.5022027,234.617372 C28.2007279,236.767186 29.6577723,233.80993 33.0781775,233.880581 C35.9087189,233.94114 36.9027301,236.923628 37.2142709,235.626674 C37.5263149,234.334767 37.0119455,233.078186 36.8463609,231.533953 C36.6812795,229.984674 37.3879083,231.801419 37.6013061,233.330512 C37.814704,234.854558 39.1856845,240.723651 38.5761921,242.833093 C37.9666996,244.937488 35.8337277,248.424628 31.8113794,247.904837 C27.7890311,247.385047 25.2292635,243.685953 25.7164548,240.663093 C26.2041494,237.635186 28.6114182,232.931837 29.1298139,232.043651 C29.6477063,231.160512 30.5657197,230.161302 29.6779041,231.776186" id="Fill-336" fill="#FFFFFF"></path>
                <path d="M57.9506035,173.684781 C56.8750582,187.402209 58.3285794,232.058791 52.1843317,225.205628 C47.576146,220.068279 47.1463305,192.49414 46.3601808,185.237256 C43.8477231,162.034909 61.0665142,133.963688 57.9506035,173.684781" id="Fill-337" fill="#EDC7B8"></path>
                <path d="M49.1942453,216.88393 C50.3714566,220.900953 48.0970582,229.071256 49.2128673,231.826651 C50.328173,234.577 57.8992672,235.228 61.2074373,238.81607 C64.2871106,242.151814 75.4009112,241.869209 76.2419202,237.786581 C76.5957379,236.060674 73.501469,234.168233 69.7589537,232.512977 C68.56916,231.98814 65.6173241,229.182279 62.2432222,226.709488 C58.9954477,224.332581 55.8181349,220.088465 56.0728031,218.095093 C56.7024274,213.184837 47.8116889,212.165442 49.1942453,216.88393" id="Fill-338" fill="#EDC7B8"></path>
                <path d="M49.0568452,226.608558 C48.8605595,228.798744 48.7714759,230.736605 49.2128673,231.826651 C50.328173,234.577 57.8992672,235.228 61.2074373,238.81607 C64.2871106,242.151814 75.4009112,241.869209 76.2419202,237.786581 C76.5957379,236.060674 73.501469,234.168233 69.7589537,232.512977 C68.56916,231.98814 65.6173241,229.182279 62.2432222,226.709488 C62.1813167,226.669116 62.1199145,226.618651 62.0580089,226.573233 C61.3589296,226.548 60.7111866,226.684256 60.1097469,227.007233 C58.5394608,227.85 58.853518,228.899674 57.0738604,229.212558 C55.2942029,229.525442 51.0025908,229.424512 50.0604191,227.007233 C49.7151575,226.886116 49.3814717,226.74986 49.0568452,226.608558" id="Fill-339" fill="#58BEC7"></path>
                <path d="M29.5339612,174.977698 C29.2717436,189.980977 29.4076337,234.021884 35.6324089,227.012279 C40.3009903,221.753814 41.8818457,181.906558 41.6080522,172.805174 C40.8908542,148.949809 30.2461263,134.207435 29.5339612,174.977698" id="Fill-340" fill="#EDC7B8"></path>
                <path d="M37.3184533,224.055023 C36.6223938,228.031674 37.906304,232.341395 38.6204822,237.988442 C39.3341571,243.635488 34.5855515,245.638953 31.890397,245.583442 C29.1952425,245.532977 24.3389314,241.712767 26.1034901,236.767186 C27.868552,231.826651 31.5023551,226.285581 31.2310781,223.600837 C30.713689,218.483674 38.3003854,218.443302 37.3184533,224.055023" id="Fill-341" fill="#EDC7B8"></path>
                <path d="M29.6779041,229.480023 C29.0970996,230.534744 28.6023588,231.609651 28.5022027,232.321209 C28.2007279,234.471023 29.6577723,231.513767 33.0781775,231.584419 C35.9087189,231.644977 36.9027301,234.627465 37.2142709,233.330512 C37.5263149,232.033558 37.0119455,230.782023 36.8463609,229.232744 C36.6812795,227.688512 37.3879083,229.505256 37.6013061,231.029302 C37.814704,232.558395 39.1856845,238.427488 38.5761921,240.531884 C37.9666996,242.641326 35.8337277,246.123419 31.8113794,245.603628 C27.7890311,245.088884 25.2292635,241.389791 25.7164548,238.361884 C26.2041494,235.339023 28.6114182,230.635674 29.1298139,229.747488 C29.6477063,228.859302 30.5657197,227.86514 29.6779041,229.480023" id="Fill-342" fill="#58BEC7"></path>
                <path d="M44.1461781,129.982495 C27.3441167,129.982495 23.287041,113.198807 28.2631367,100.205049 C31.4741705,91.8187558 24.2825621,74.4123279 20.4298249,62.6398256 C14.4848827,44.473393 73.6303129,45.711807 68.2878171,62.0357581 C64.4355832,73.8082605 57.0909725,91.8192605 60.3025096,100.205049 C65.6993615,114.299451 62.7168245,129.982495 44.1461781,129.982495" id="Fill-343" fill="#EDC7B8"></path>
                <path d="M25.2569448,119.76886 C25.111492,154.959195 30.9029286,171.709577 36.821196,171.709577 C42.7399667,171.709577 43.5799692,138.759893 42.772681,126.58266 C40.3080365,89.3928977 25.3792459,90.2381884 25.2569448,119.76886" id="Fill-344" fill="#EDC7B8"></path>
                <path d="M63.3117213,120.621721 C63.307695,154.824958 57.8076672,171.709577 51.8893998,171.709577 C45.9706291,171.709577 45.13113,138.759893 45.9379148,126.58266 C48.4025594,89.3934023 63.3157477,91.0910488 63.3117213,120.621721" id="Fill-345" fill="#EDC7B8"></path>
                <path d="M15.3213621,71.8108512 C13.0167659,84.8853535 12.0247678,96.2344535 15.9429337,97.119107 C19.8610995,98.0042651 23.7062873,86.6506233 27.2001738,76.4077186 C37.511216,46.1776 20.1333831,44.505186 15.3213621,71.8108512" id="Fill-346" fill="#EDC7B8"></path>
                <path d="M72.6659962,71.8108512 C74.9700891,84.8853535 75.9625904,96.2344535 72.0444246,97.119107 C68.1257555,98.0042651 64.2805677,86.6506233 60.7866812,76.4077186 C50.475639,46.1776 67.8534719,44.505186 72.6659962,71.8108512" id="Fill-347" fill="#EDC7B8"></path>
                <path d="M75.7114453,106.436986 C75.3390057,115.456112 74.8301726,126.148156 72.0776422,125.735856 C69.6874856,125.378058 68.5319161,113.95427 67.8947423,106.916909 C65.2358251,77.5810326 76.6193928,84.4296535 75.7114453,106.436986" id="Fill-348" fill="#EDC7B8"></path>
                <path d="M39.0719395,32.920414 L49.1811596,32.920414 L49.1811596,52.5654744 C49.1811596,55.3526628 46.9067612,57.633686 44.1270528,57.633686 L44.1260462,57.633686 C41.3463378,57.633686 39.0719395,55.3526628 39.0719395,52.5654744 L39.0719395,32.920414" id="Fill-349" fill="#D1A196"></path>
                <path d="M23.5915356,71.8895767 C22.4722034,68.616914 21.3548845,65.4658721 20.4298249,62.6398256 C17.9636704,55.1038698 26.6983869,50.9071907 37.3843852,49.7414465 C39.6416715,49.4951767 41.7821929,52.4282093 44.1265495,52.4494047 C46.3073347,52.469086 48.6924583,49.5597721 50.802782,49.8065465 C61.5718242,51.0646419 70.5103759,55.2451721 68.2878171,62.0357581 C67.3038718,65.0434791 66.091933,68.4579488 64.8860338,72.0152349 C59.8958458,75.8137442 52.5326132,78.2158837 44.3198155,78.2158837 C36.0169277,78.2158837 28.5842401,75.7602512 23.5915356,71.8895767" id="Fill-350" fill="#BF3D38"></path>
                <path d="M25.6011998,111.937684 C25.4476943,119.495844 25.2690239,134.770626 25.764268,148.013681 C26.2590088,161.256737 26.8871232,172.136512 27.1865848,183.556767 C27.2630859,186.483744 26.9228573,222.137349 26.9470155,228.652395 C31.2960034,229.545628 36.6299432,229.525442 39.5943616,228.924907 C40.5430761,225.412535 40.3291749,207.446953 40.8304586,199.609721 C41.3317422,191.767442 41.8516478,173.170037 42.0001204,165.73047 C42.0509534,163.186523 42.8678041,130.4387 44.0777297,130.317079 C44.2196594,130.302949 44.3349144,130.067781 44.4270177,129.656995 C44.519121,130.067781 44.634376,130.302949 44.7763057,130.317079 C45.9862313,130.4387 45.3817718,163.899091 45.4326048,166.443037 C45.580574,173.882605 46.3133742,194.442093 46.2811632,200.679581 C46.2494555,206.912023 48.4720143,227.814674 48.4720143,227.814674 C52.8441539,226.709488 57.520788,224.736302 61.1827758,225.114791 C60.4122283,217.257372 60.0221733,191.197186 60.0221733,185.484535 C60.0221733,173.760479 61.7988111,160.5366 62.4883277,146.660207 C63.1773411,132.783814 63.4063412,119.495844 63.2523323,111.937684 C58.1458827,105.99794 30.7081527,105.99794 25.6011998,111.937684" id="Fill-351" fill="#354C6D"></path>
                <path d="M45.1900157,130.684465 C48.4795638,146.135874 47.8091724,172.437788 48.5666341,184.939512 C49.3240959,197.439721 50.0815576,220.613302 51.2718546,225.150116" id="Stroke-352" stroke="#24253B" stroke-width="0.96768"></path>
                <path d="M25.6293844,110.232467 L24.8799755,116.491151 C29.9854185,117.428288 37.0079192,118.973026 43.4571647,116.808577 L44.8915607,112.262679 L25.6293844,110.232467" id="Fill-353" fill="#D84B44"></path>
                <path d="M62.9266993,110.232467 L63.6761083,116.491151 C58.5711685,117.428288 51.5486679,118.973026 45.098919,116.808577 L43.6650263,112.262679 L62.9266993,110.232467" id="Fill-354" fill="#D84B44"></path>
                <path d="M23.875395,115.171488 C23.9951796,92.0473628 29.5017502,89.9399395 19.3598158,58.7948884 C20.1907589,56.6581953 20.4499568,53.0691163 30.8415264,50.776486 C38.1599656,58.4451651 49.8032344,59.2647186 57.5977924,50.8274558 C63.4768027,52.3197093 67.5464609,53.7160791 69.1615404,59.1012116 C59.2299841,91.9116116 64.8950932,91.8000837 64.4672909,115.210347 C52.9141121,112.439307 35.3470396,112.651765 23.875395,115.171488" id="Fill-355" fill="#434950"></path>
                <polyline id="Fill-356" fill="#FFFFFF" points="2.28094123 109.173205 33.5844941 109.173205 33.5844941 130.859579 31.7077002 132.452258 2.87030182 130.359974 2.28094123 109.173205"></polyline>
                <polyline id="Fill-357" fill="#D8D7D0" points="2.87785127 110.092679 0.811314489 111.535477 1.17016513 131.324867 31.025733 131.540858 32.9483269 129.95373 32.9483269 110.092679 2.87785127 110.092679"></polyline>
                <polygon id="Fill-358" fill="#FFFFFF" points="0.403644057 132.452258 31.7077002 132.452258 31.7077002 110.765884 0.403644057 110.765884"></polygon>
                <polyline id="Fill-359" fill="#58BEC7" points="6.06019712 110.684635 31.7449442 116.080365 28.0270905 133.874365 26.2137121 134.857426 2.91106886 128.169788 6.06019712 110.684635"></polyline>
                <polyline id="Fill-360" fill="#FFFFFF" points="6.39237303 111.541533 4.44964727 112.36916 1.35084869 128.668384 25.8105713 133.991949 27.6601871 133.021505 31.0654935 116.724805 6.39237303 111.541533"></polyline>
                <polyline id="Fill-361" fill="#58BEC7" points="4.24681865 111.667695 29.932069 117.063426 26.2137121 134.857426 0.528964968 129.461695 4.24681865 111.667695"></polyline>
                <path d="M44.2251957,1.16675349 C60.126859,1.0643093 61.3538967,19.7924186 58.1952058,32.0085093 C56.5952252,38.1965419 48.8957903,43.2198395 44.2251957,43.2198395 C39.422234,43.2198395 31.9744476,38.4735953 30.047324,31.8157326 C26.5705495,19.8045302 29.0467699,1.26465581 44.2251957,1.16675349" id="Fill-362" fill="#EDC7B8"></path>
                <path d="M54.455207,21.5703047 C53.44962,20.9788535 47.5630603,20.7921326 46.2630446,22.5407488 C45.1703871,24.010293 46.9475282,27.579186 48.6250166,28.3684605 C50.2531818,29.1345209 53.592053,28.6904279 54.5010071,27.0382 C55.3772468,25.4465302 55.5866183,22.2359395 54.455207,21.5703047" id="Fill-363" fill="#FADCCE"></path>
                <path d="M33.5069864,21.6298535 C34.5095537,21.0328512 40.3946035,20.8123186 41.7046852,22.5533651 C42.8058986,24.0168535 41.0488894,27.5958395 39.3754274,28.3947023 C37.7517919,29.1698465 34.4104042,28.7449302 33.4923908,27.0977488 C32.6070917,25.5111256 32.3796015,22.3015442 33.5069864,21.6298535" id="Fill-364" fill="#FADCCE"></path>
                <path d="M37.9390183,26.0243558 C38.564113,26.0243558 39.0739526,24.7465791 39.0739526,23.1796372 C39.0739526,21.6132 38.564113,20.3354233 37.9390183,20.3354233 C37.3144269,20.3354233 36.8040839,21.6132 36.8040839,23.1796372 C36.8040839,24.7465791 37.3144269,26.0243558 37.9390183,26.0243558" id="Fill-365" fill="#474647"></path>
                <path d="M49.7750498,26.0243558 C50.3996412,26.0243558 50.9094809,24.7465791 50.9094809,23.1796372 C50.9094809,21.6132 50.3996412,20.3354233 49.7750498,20.3354233 C49.1499552,20.3354233 48.6401155,21.6132 48.6401155,23.1796372 C48.6401155,24.7465791 49.1499552,26.0243558 49.7750498,26.0243558" id="Fill-366" fill="#474647"></path>
                <path d="M50.8873358,33.0995651 C47.0884514,34.015507 41.3775422,34.0346837 37.3989808,33.1848512 C40.4283244,35.1933628 47.5142405,35.2680512 50.8873358,33.0995651" id="Fill-367" fill="#BA8A7E"></path>
                <path d="M42.7666415,30.4294558 C45.5926532,31.0198977 46.753759,29.2884395 46.7728842,27.8365581 C47.4936053,30.5102 45.5624554,31.9560256 42.7666415,30.4294558" id="Fill-368" fill="#BA8A7E"></path>
                <path d="M47.4155943,17.5966814 C48.5449924,17.0960674 50.5340214,16.523793 52.869822,17.4240907 C54.0389806,17.8752488 53.8245761,18.4878953 52.6015648,18.0382512 C50.7116852,17.3438512 49.5062893,17.7677581 47.7165658,18.511614 C47.0230228,18.7992651 46.64706,17.9368163 47.4155943,17.5966814" id="Fill-369" fill="#654937"></path>
                <path d="M47.5031679,35.966993 C45.6107719,36.4237023 42.7656349,36.4332907 40.7831487,36.0093837 C42.3931952,37.617707 45.9333851,37.7120767 47.5031679,35.966993" id="Fill-370" fill="#BA8A7E"></path>
                <path d="M40.1500013,17.5966814 C39.0206032,17.0960674 37.0310708,16.523793 34.6957735,17.4240907 C33.526615,17.8752488 33.7410194,18.4878953 34.9640307,18.0382512 C36.8539103,17.3438512 38.0593062,17.7677581 39.8490298,18.511614 C40.5420695,18.7992651 40.9185355,17.9368163 40.1500013,17.5966814" id="Fill-371" fill="#654937"></path>
                <path d="M27.739708,21.3416977 C28.7583808,21.1337814 29.9280427,22.6603512 30.3523219,24.7511209 C30.7766011,26.8418907 30.2954493,28.7050628 29.2772799,28.9129791 C28.2586071,29.1208953 27.0889452,27.5948302 26.664666,25.5035558 C26.2403868,23.4132907 26.7215386,21.549614 27.739708,21.3416977" id="Fill-372" fill="#EDC7B8"></path>
                <path d="M60.513391,21.3416977 C59.4947182,21.1337814 58.3250564,22.6603512 57.9007771,24.7511209 C57.4759946,26.8418907 57.9576497,28.7050628 58.9758192,28.9129791 C59.9939886,29.1208953 61.1636505,27.5948302 61.588433,25.5035558 C62.0127122,23.4132907 61.5315605,21.549614 60.513391,21.3416977" id="Fill-373" fill="#EDC7B8"></path>
                <polygon id="Fill-374" fill="#334D6A" points="56.1940976 22.4862465 59.2727643 22.4862465 59.2727643 21.0737279 56.1940976 21.0737279"></polygon>
                <polygon id="Fill-375" fill="#334D6A" points="28.9566798 22.4862465 32.0348432 22.4862465 32.0348432 21.0737279 28.9566798 21.0737279"></polygon>
                <path d="M28.3582598,22.5922233 C28.6360797,23.9441837 29.7131349,26.8100977 29.6416668,23.5934512 C29.5707019,20.3763 29.9985042,12.2983488 33.3489512,8.93787674 C36.6999015,5.5779093 40.5501222,7.5082 44.0435055,7.5082 C44.0716902,7.5082 44.0988682,7.5071907 44.1265495,7.5061814 C44.1542308,7.5071907 44.1814089,7.5082 44.2095935,7.5082 C47.7029768,7.5082 51.5531975,5.5779093 54.9041478,8.93787674 C58.2550981,12.2983488 58.6823971,20.3763 58.6114323,23.5934512 C58.5399641,26.8100977 59.621549,23.945193 59.8948392,22.5922233 C60.9009295,17.6057651 62.2125211,7.59651395 54.0928333,4.27338605 C46.4155435,-3.15306047 33.9091206,0.4774 29.8158075,10.199 C27.169976,16.481907 27.8267784,20.0038674 28.3582598,22.5922233" id="Fill-376" fill="#654937"></path>
                <path d="M16.7693471,90.360314 C21.7368868,90.2442442 21.6669285,98.1874535 21.2350998,105.013365 C20.8681964,110.819377 20.9371481,125.7732 18.1720353,126.054291 C14.3952959,126.437321 13.8869661,112.106742 13.5064737,105.560407 C13.0907505,98.4155558 12.2039415,90.4678047 16.7693471,90.360314" id="Fill-377" fill="#EDC7B8"></path>
                <path d="M74.2820823,114.602242 C73.8572998,119.83396 75.5619662,129.185651 74.0928427,132.8691 C73.48637,134.388605 72.8859369,136.842723 71.7223147,137.814177 C70.0639516,139.196416 67.862028,140.081574 67.104063,140.143647 C65.8126033,140.249623 65.3395043,139.210547 67.080408,138.297128 C67.7679115,137.936807 68.5847622,137.574467 69.5470658,136.512177 C71.0187057,134.8872 71.2225409,131.555493 70.9482441,131.459105 C69.1404019,130.825767 67.7120455,136.441021 66.2439287,135.889942 C65.5569285,135.63257 66.8805992,132.221633 67.1679817,130.549219 C67.4931114,128.656272 67.0079333,125.662177 68.2742281,123.903467 C70.6603584,120.589928 68.6768655,115.564107 68.4936655,111.880153 C68.3099622,108.196705 74.6686143,109.836821 74.2820823,114.602242" id="Fill-378" fill="#EDC7B8"></path>
                <polyline id="Fill-379" fill="#D84B44" points="38.7488229 48.4051302 44.1265495 52.4494047 40.2853881 58.6117 33.1793402 50.1381023 38.7488229 48.4051302"></polyline>
                <polyline id="Fill-380" fill="#D84B44" points="49.5042761 48.4051302 44.1265495 52.4494047 47.9682142 58.6117 55.0742621 50.1381023 49.5042761 48.4051302"></polyline>
                <path d="M22.1777748,54.2722047 C15.8251622,60.1988279 12.7308933,87.5095395 12.17928,93.3614744 C11.6276666,99.2134093 12.3654998,120.691363 12.6241944,123.721793 C15.8347248,124.439407 19.5485521,124.611998 22.8723244,123.117726 C22.8723244,123.117726 21.9281396,97.3487233 22.0499374,93.9559535 C22.1717352,90.5626791 27.6722663,77.0541767 31.5048716,68.0577605 C35.3379803,59.0618488 28.2696796,53.4688 22.1777748,54.2722047" id="Fill-381" fill="#434950"></path>
                <path d="M75.6938299,123.289812 L66.5559727,123.289812 C66.5559727,124.132074 66.3737793,124.626128 66.3737793,125.468391 C68.7790348,126.547335 72.7440072,126.79966 75.8760234,125.903905 C75.8760234,125.061642 75.6938299,124.132074 75.6938299,123.289812" id="Fill-382" fill="#D84B44"></path>
                <path d="M66.2489616,54.782407 C73.0349128,61.7359953 76.1558564,87.3258465 76.2474565,93.8716767 C76.3390565,100.417507 76.1332081,124.694256 76.1332081,124.694256 C72.8320842,125.668737 69.479624,125.279651 66.0260011,124.35513 C66.0260011,124.35513 66.4985969,97.8589256 66.376799,94.4661558 C66.2550012,91.073386 60.7549735,76.9895814 56.9218648,67.9931651 C53.0887561,58.9972535 60.1575601,53.9790023 66.2489616,54.782407" id="Fill-383" fill="#434950"></path>
                <path d="M27.1141101,224.231651 C31.5531881,225.003767 35.9469694,225.235907 40.2687793,224.817047 C40.5471025,224.791814 40.7675465,225.059279 40.7554673,225.326744 C40.6895355,226.825558 40.6231003,228.324372 40.5566651,229.828233 C40.544586,230.095698 40.3045134,230.257186 40.0266935,230.287465 C35.6112705,230.792116 31.2230254,230.660907 26.8720243,229.707116 C26.5992374,229.646558 26.3737604,229.464884 26.3853363,229.197419 C26.4517715,227.698605 26.5182066,226.194744 26.5841385,224.69593 C26.5962176,224.428465 26.8388067,224.186233 27.1141101,224.231651" id="Fill-384" fill="#567693"></path>
                <path d="M60.839024,220.477047 C56.7431944,221.799233 51.8375602,222.712651 47.6929108,222.838814 C47.4261635,222.848907 47.2535327,223.141605 47.3008426,223.404023 C47.56608,224.882651 47.8313175,226.361279 48.0960516,227.83486 C48.1433615,228.102326 48.3929967,228.233535 48.6602473,228.228488 C52.9050528,228.172977 57.8187398,227.360488 61.8058572,225.871767 C62.0559958,225.775884 62.2452354,225.568977 62.1979255,225.306558 C61.932688,223.82793 61.6674506,222.349302 61.4027165,220.870674 C61.3554066,220.608256 61.0926856,220.396302 60.839024,220.477047" id="Fill-385" fill="#567693"></path>
                <path d="M15.4879533,119.61696 C18.2762178,118.451216 21.6905835,123.363995 23.8255686,127.713079 C27.5872091,135.374693 22.422377,128.964614 22.3700342,129.375905 C22.2467264,130.341807 22.137511,131.689226 22.1430473,133.827937 C22.1470737,135.361067 21.1736976,135.637112 20.7343195,135.163244 C20.4268051,134.832698 20.1006688,134.917984 19.9708182,135.068874 C19.2641894,135.889942 18.318998,135.634084 18.0577869,135.037586 C17.8479122,134.558672 17.4412483,134.593493 17.0577361,134.965421 C16.6077888,135.402449 16.0053425,135.698679 15.543316,135.35047 C15.0994082,135.016391 15.0893422,133.552902 14.5135707,134.395165 C13.819021,135.410523 13.2588517,135.15517 12.9166098,134.709058 C11.9834975,133.494363 13.0716253,120.627777 15.4879533,119.61696" id="Fill-386" fill="#EDC7B8"></path>
                <path d="M13.2080187,122.482874 L22.3458759,122.482874 C22.3458759,123.325137 22.5275661,123.818686 22.5275661,124.660949 C20.5224315,125.870598 16.6087954,126.288953 13.0258252,125.096967 C13.0258252,124.254705 13.2080187,123.325137 13.2080187,122.482874" id="Fill-387" fill="#D84B44"></path>
                <path d="M12.8174604,87.647814 C12.5003833,90.1771256 12.2889987,92.1957302 12.17928,93.3614744 C11.6276666,99.2134093 12.3654998,120.691363 12.6241944,123.721793 C15.8347248,124.439407 19.5485521,124.611998 22.8723244,123.117726 C22.8723244,123.117726 21.9281396,97.3487233 22.0499374,93.9559535 C22.0912077,92.8134233 22.7419705,90.5243256 23.732962,87.647814 L12.8174604,87.647814" id="Fill-388" fill="#434950"></path>
                <path d="M53.4551562,5.15450698 C54.6499829,12.1706721 49.5072959,17.0117907 42.3473952,17.8227651 C47.5620537,15.2066535 51.5904415,9.46927442 53.4551562,5.15450698" id="Fill-389" fill="#654937"></path>
                <path d="M53.1395891,4.46616279 C51.2753777,13.8324884 36.8851147,18.2708953 24.6368831,15.5558721 C35.356099,14.5894651 46.7542623,9.90529302 53.1395891,4.46616279" id="Fill-390" fill="#654937"></path>
                <path d="M53.4637123,5.89432558 C48.871632,12.2307256 38.581225,17.9019953 29.5631525,14.1519326 C35.5503715,0.10395814 45.8105807,0.0615674419 53.4637123,5.89432558" id="Fill-391" fill="#654937"></path>
                <path d="M53.0942924,4.96122558 C51.6427844,11.7200186 55.9963019,19.1611 59.4328127,21.1948442 C59.4715665,11.3379977 55.4084512,6.89454419 53.0942924,4.96122558" id="Fill-392" fill="#654937"></path>
                <path d="M29.1640381,239.325767 L34.8553186,237.746209 M29.5540931,237.362674 L35.2453737,235.783116 M29.7493723,235.596395 L35.4406528,234.016837 M35.3606286,239.749674 L29.9511943,237.655372 M35.273055,237.766395 L29.8636207,235.667047 M35.3490528,235.99507 L29.9396185,233.895721" id="Stroke-393" stroke="#308E9A" stroke-width="0.96768" stroke-linecap="round" stroke-linejoin="round"></path>
                <path d="M37.3602269,243.721279 C34.437079,247.718116 29.8193305,247.233651 26.908765,243.554744 C27.1553804,241.934814 29.4489041,240.693372 32.2084806,240.748884 C34.9489318,240.799349 37.1664577,242.106395 37.3602269,243.721279" id="Fill-394" fill="#9E9E9E"></path>
                <path d="M65.5961857,233.936093 L66.8156739,230.363163 M63.7737478,232.164767 L64.9932361,228.586791 M62.0554925,230.630628 L63.2749807,227.365535 M69.1278195,231.811512 L64.2720117,232.245512 M67.0441706,230.211767 L62.1883628,230.645767 M65.2604867,228.718 L60.4046789,229.152" id="Stroke-395" stroke="#308E9A" stroke-width="0.96768" stroke-linecap="round" stroke-linejoin="round"></path>
                <path d="M68.8595623,241.10214 C72.7888006,241.566419 76.5287994,240.895233 76.2419202,237.786581 C76.1608894,236.908488 75.7320805,236.020302 74.5322209,235.122023 L74.3953241,235.122023 C71.382086,235.122023 68.9315337,237.786581 68.8595623,241.10214" id="Fill-396" fill="#9E9E9E"></path>
                <path d="M55.2151853,119.285909 C55.2151853,119.285909 58.6803839,124.813353 60.7282987,126.392912" id="Stroke-397" stroke="#24253B" stroke-width="0.96768"></path>
                <path d="M54.455207,21.5703047 C55.5866183,22.2359395 55.3772468,25.4465302 54.5010071,27.0382 C53.592053,28.6904279 50.2531818,29.1345209 48.6250166,28.3684605 C46.9475282,27.579186 45.1703871,24.010293 46.2630446,22.5407488 C47.5630603,20.7921326 53.44962,20.9788535 54.455207,21.5703047 Z M33.5069864,21.6298535 C34.5095537,21.0328512 40.3946035,20.8123186 41.7046852,22.5533651 C42.8058986,24.0168535 41.0488894,27.5958395 39.3754274,28.3947023 C37.7517919,29.1698465 34.4104042,28.7449302 33.4923908,27.0977488 C32.6070917,25.5111256 32.3796015,22.3015442 33.5069864,21.6298535 Z M43.9569385,21.6919256 C43.1954504,21.7105977 40.052865,20.8779233 37.8303062,20.7012953 C35.6062375,20.5241628 32.3076301,20.8082814 31.7384014,20.9934884 C31.057944,21.2145256 31.0383155,21.2705419 31.0096275,21.7898279 C30.9804363,22.309114 31.0670034,22.7547209 31.4696408,22.8879488 C32.0182344,23.0696233 32.0252805,23.7645279 32.3916806,25.7568907 C32.7253664,27.5716163 33.5286282,29.0058349 36.9711785,29.2566465 C40.3488035,29.5029163 41.4746785,27.3197953 41.8380588,26.615807 C42.4863051,25.3612442 42.28096,23.6353372 43.9871363,23.6302907 C45.6928092,23.6252442 45.5277279,25.322386 46.1830204,26.5729116 C46.550427,27.2743767 47.6581834,29.4827302 51.0342985,29.2167791 C54.4753389,28.946286 55.2710512,27.5075256 55.5941678,25.691286 C55.948992,23.6964 55.9520118,23.002 56.5001021,22.8172977 C56.9017329,22.6815465 56.9857835,22.2354349 56.9540758,21.7161488 C56.9218648,21.1968628 56.9022362,21.1413512 56.220269,20.9238465 C55.6500337,20.7421721 52.3499164,20.4767256 50.1268543,20.6664744 C48.1388318,20.8360372 45.7481719,21.6475163 43.9569385,21.6919256 L43.9569385,21.6919256 Z" id="Fill-398" fill="#334D6A"></path>
                <path d="M25.9716263,78.5635884 L28.5842401,74.918493 M31.196854,78.5635884 L28.5842401,74.918493 M36.4225849,78.5635884 L33.8094678,74.918493 M31.196854,78.5635884 L33.8094678,74.918493 M36.4225849,78.5635884 L39.0351988,74.918493 M41.6483159,78.5635884 L39.0351988,74.918493 M46.8735436,78.5635884 L44.2609298,74.918493 M41.6483159,78.5635884 L44.2609298,74.918493 M46.8735436,78.5635884 L49.4861574,74.918493 M52.0992746,78.5635884 L49.4861574,74.918493 M57.3245023,78.5635884 L54.7118884,74.918493 M52.0992746,78.5635884 L54.7118884,74.918493 M57.3245023,78.5635884 L59.9376194,74.918493 M62.5502332,78.5635884 L59.9376194,74.918493 M25.9716263,84.5432 L28.5842401,80.8981047 M31.196854,84.5432 L28.5842401,80.8981047 M36.4225849,84.5432 L33.8094678,80.8981047 M31.196854,84.5432 L33.8094678,80.8981047 M36.4225849,84.5432 L39.0351988,80.8981047 M41.6483159,84.5432 L39.0351988,80.8981047 M46.8735436,84.5432 L44.2609298,80.8981047 M41.6483159,84.5432 L44.2609298,80.8981047 M46.8735436,84.5432 L49.4861574,80.8981047 M52.0992746,84.5432 L49.4861574,80.8981047 M57.3245023,84.5432 L54.7118884,80.8981047 M52.0992746,84.5432 L54.7118884,80.8981047 M57.3245023,84.5432 L59.9376194,80.8981047 M62.5502332,84.5432 L59.9376194,80.8981047" id="Stroke-399" stroke="#757775" stroke-width="1.2096" stroke-linecap="round" stroke-linejoin="round"></path>
                <path d="M53.6101717,5.29328605 C50.2627445,11.5701372 38.1614755,15.2778093 31.831008,10.4377 C37.5499698,11.577707 48.8751551,8.64770233 53.6101717,5.29328605" id="Fill-400" fill="#483327"></path>
                <path d="M53.5054859,5.0561 C52.2900241,9.7205907 55.6374513,14.6702093 59.4313028,15.213214 C57.1095945,13.6311326 53.9569432,7.81704651 53.5054859,5.0561" id="Fill-401" fill="#483327"></path>
            </g>
            <g id="Girl" transform="translate(88.000000, 4.000000)">
                <path d="M29.4330956,122.371696 C21.7955892,122.371696 12.1410396,112.366979 11.853103,107.070364 C11.5651664,101.773242 14.0143622,96.7706307 16.8962063,89.1199644 C19.7785461,81.4692981 15.4996394,70.2536511 12.0414264,59.5136722 C6.70592618,42.9401804 51.6626947,44.8008524 46.8683765,59.6933128 C45.4267111,64.1721836 43.1311475,66.9609144 41.9739496,71.2753255 C40.3563504,77.3072021 40.289446,84.6598167 41.9689937,89.1199644 C44.8508379,96.7706307 47.3005293,101.773242 47.0125927,107.070364 C46.7241604,112.366979 37.0701065,122.371696 29.4330956,122.371696" id="Fill-599" fill="#D84B44"></path>
                <path d="M20.4034825,24.4680644 C17.8844088,25.7538865 45.9173432,35.5344326 39.4127509,40.4110429 C34.3230623,44.2270145 25.9466341,43.6167424 21.1845292,41.5708635 C16.4229198,39.5249845 9.31965722,34.542614 11.2628577,29.6685339 C13.2055626,24.7939477 13.2828743,24.3025927 14.5664472,16.5886727 C15.8505157,8.87475264 24.6011128,16.7526263 20.4034825,24.4680644" id="Fill-600" fill="#B0934B"></path>
                <path d="M16.62958,167.780796 C17.6891471,182.727402 17.0557857,227.875391 21.521529,222.724006 C26.2385355,217.284185 27.7485921,187.079259 27.9701199,179.13459 C28.6758372,153.846251 13.5618904,124.49348 16.62958,167.780796" id="Fill-601" fill="#EDC7B8"></path>
                <path d="M42.4150229,167.780796 C41.3554558,182.727402 41.9888172,227.875391 37.5235695,222.724006 C32.8060675,217.284185 31.2965064,187.079259 31.074483,179.13459 C30.3687657,153.846251 45.4832081,124.49348 42.4150229,167.780796" id="Fill-602" fill="#EDC7B8"></path>
                <path d="M17.9959161,50.5265809 C24.3359732,52.1605515 18.3145792,65.6568754 15.7652746,72.0014784 C13.2833699,78.1795976 7.76152859,90.8359118 4.73398159,89.6968385 C1.70643458,88.5577652 5.0303432,75.6909425 6.52404539,68.9106477 C7.95778144,62.403103 11.928928,48.9629485 17.9959161,50.5265809" id="Fill-604" fill="#D84B44"></path>
                <path d="M11.2152813,122.590301 C13.0692759,141.555796 15.9838289,169.142523 21.8119436,169.142523 C27.6395627,169.142523 29.2299045,134.314508 28.4344858,120.865751 C26.0070959,79.7983873 8.04302257,90.1406267 11.2152813,122.590301" id="Fill-605" fill="#434950"></path>
                <path d="M47.8298172,122.590301 C45.975327,141.555796 43.0607741,169.142523 37.2326593,169.142523 C31.4050402,169.142523 29.815194,134.314508 30.6101171,120.865751 C33.0380026,79.7983873 51.0020759,90.1406267 47.8298172,122.590301" id="Fill-606" fill="#434950"></path>
                <path d="M29.4137677,122.371696 C21.7767568,122.371696 12.1222073,112.366979 11.8342707,107.070364 C11.6816296,104.269994 12.2951675,101.551601 13.3324331,98.4810118 L45.4955978,98.4810118 C46.5328635,101.551601 47.1459058,104.269994 46.9937603,107.070364 C46.7053281,112.366979 37.0512741,122.371696 29.4137677,122.371696" id="Fill-607" fill="#434950"></path>
                <path d="M41.1393794,51.2674087 C34.7091253,52.4758081 38.7679909,65.1867736 40.9064531,71.6877399 C42.9879226,78.0176681 47.3109366,91.3535804 50.4048924,90.4189432 C53.4988482,89.4837999 51.3826875,76.0846338 50.3251027,69.2188199 C49.3106341,62.6298044 47.293591,50.1116364 41.1393794,51.2674087" id="Fill-608" fill="#D84B44"></path>
                <path d="M10.515511,104.275054 C10.9902843,99.8862568 13.6719109,94.187348 15.7167069,88.758659 C17.7619986,83.3299701 17.1866209,77.6624351 15.7890628,71.6715469 C15.0258573,62.8129872 20.2493547,56.9607513 20.3152679,48.734729 C25.6289622,47.2227116 32.544397,47.3760387 37.9349075,49.039359 C38.5871013,58.0978005 43.1321387,63.7294074 41.3336499,73.4203863 C40.1254064,78.5950482 41.3306764,84.6790459 42.9130888,88.8790942 C44.4950057,93.0791424 46.9774059,99.2481531 47.9041554,102.513564 C37.8427282,111.582126 22.3095139,111.023469 10.515511,104.275054" id="Fill-609" fill="#FFFFFF"></path>
                <polyline id="Fill-610" fill="#354C6D" points="37.929456 95.4028318 37.929456 63.9292892 16.6325535 63.9292892 15.0684779 65.8162748 17.1231856 94.8102708 37.929456 95.4028318"></polyline>
                <polyline id="Fill-611" fill="#FFFFFF" points="37.0264947 94.8026803 35.6096087 96.8799331 16.1756214 96.5196398 15.9635098 66.5019453 17.522134 64.568911 37.0264947 64.568911 37.0264947 94.8026803"></polyline>
                <polygon id="Fill-612" fill="#354C6D" points="15.0684779 97.2898174 36.3653804 97.2898174 36.3653804 65.8162748 15.0684779 65.8162748"></polygon>
                <path d="M23.0920473,48.1168665 C27.058238,47.4549793 31.5368666,47.5708602 35.507022,48.412894 C34.9866546,51.4192177 32.4150485,53.7029307 29.3215883,53.7029307 C26.1270282,53.7029307 23.4895089,51.2684208 23.0920473,48.1168665" id="Fill-613" fill="#D84B44"></path>
                <path d="M25.5749432,32.6915566 L33.1797408,32.6915566 C33.1955996,32.6915566 33.2089805,32.7052194 33.2089805,32.7219184 L33.2089805,47.4600396 C33.2089805,49.6035824 31.4912725,51.356976 29.3914662,51.356976 C27.2926511,51.356976 25.5749432,49.6035824 25.5749432,47.4600396 L25.5749432,32.6915566" id="Fill-614" fill="#D1A196"></path>
                <path d="M14.7205751,12.9477874 C14.4569223,17.4818154 13.2442185,22.3943539 12.8383319,24.8232974 C12.4319498,27.252241 21.3669056,28.9702126 21.3669056,28.9702126 C21.3669056,28.9702126 22.6693108,11.1114049 14.7205751,12.9477874" id="Fill-615" fill="#C8A757"></path>
                <path d="M29.5951529,1.99426389 C44.4563498,1.99426389 45.437614,19.7877938 42.4070935,31.7214972 C40.8722575,37.7670366 34.0757639,43.0742784 29.5951529,43.0742784 C24.9876714,43.0742784 18.2362763,37.2346932 16.3877331,30.7306907 C13.0519303,18.996869 15.0342823,1.99426389 29.5951529,1.99426389" id="Fill-616" fill="#EDC7B8"></path>
                <path d="M36.2162084,31.7979078 C32.6187352,31.5712064 26.4000971,31.6182671 23.1926517,31.853065 C25.3687786,37.7948683 34.7036739,37.9745089 36.2162084,31.7979078" id="Fill-617" fill="#E67D79"></path>
                <path d="M23.847819,24.4953901 C24.433604,24.4953901 24.9108553,23.276364 24.9108553,21.7815516 C24.9108553,20.2867393 24.433604,19.0677132 23.847819,19.0677132 C23.262034,19.0677132 22.7842872,20.2867393 22.7842872,21.7815516 C22.7842872,23.276364 23.262034,24.4953901 23.847819,24.4953901" id="Fill-618" fill="#474647"></path>
                <path d="M34.9366002,24.4953901 C35.5223852,24.4953901 35.9996364,23.276364 35.9996364,21.7815516 C35.9996364,20.2867393 35.5223852,19.0677132 34.9366002,19.0677132 C34.3508152,19.0677132 33.8730684,20.2867393 33.8730684,21.7815516 C33.8730684,23.276364 34.3508152,24.4953901 34.9366002,24.4953901" id="Fill-619" fill="#474647"></path>
                <path d="M13.8929432,20.705732 C14.8558706,20.5058502 15.9625186,21.9758671 16.3639448,23.9893601 C16.7653711,26.0033592 16.3099258,27.7977413 15.3469983,27.9981291 C14.3835753,28.198517 13.2774229,26.7285001 12.8759966,24.714501 C12.4745703,22.701008 12.9295201,20.9061199 13.8929432,20.705732" id="Fill-620" fill="#EDC7B8"></path>
                <path d="M44.8909805,20.705732 C43.928053,20.5058502 42.8219006,21.9758671 42.4199788,23.9893601 C42.0185525,26.0033592 42.4739979,27.7977413 43.4369253,27.9981291 C44.4003484,28.198517 45.5065008,26.7285001 45.907927,24.714501 C46.3098489,22.701008 45.8544035,20.9061199 44.8909805,20.705732" id="Fill-621" fill="#EDC7B8"></path>
                <path d="M35.9793173,31.852559 C32.4200044,32.7264726 27.0691409,32.7446897 23.3418237,31.9335238 C26.314856,35.7575918 32.9587086,35.9271119 35.9793173,31.852559" id="Fill-622" fill="#BA8A7E"></path>
                <path d="M28.370555,29.3052044 C31.0184816,29.8684157 32.1062972,28.2167341 32.1236428,26.8312241 C32.7991292,29.3821209 30.9897375,30.7615585 28.370555,29.3052044" id="Fill-623" fill="#BA8A7E"></path>
                <path d="M35.5531117,31.9512348 C32.1236428,32.7001591 27.2663849,32.7128098 23.7110367,32.0099343 C25.5471902,34.5223728 33.5846362,34.440902 35.5531117,31.9512348" id="Fill-624" fill="#FFFFFF"></path>
                <path d="M32.7262778,16.4550808 C33.7843581,15.9773885 35.498597,15.0877879 37.7619473,16.4049838 C38.7813718,16.9985569 38.692166,17.4008507 37.5850224,16.8766037 C35.7017881,15.984979 34.6848415,16.6185284 33.0082674,17.3279824 C32.3585515,17.6027566 32.0061884,16.7794459 32.7262778,16.4550808" id="Fill-625" fill="#C8A757"></path>
                <path d="M25.9545635,16.4550808 C24.8964832,15.9773885 23.1822444,15.0877879 20.9193896,16.4049838 C19.8999651,16.9985569 19.989171,17.4008507 21.0958189,16.8766037 C22.9790533,15.984979 23.9959998,16.6185284 25.672574,17.3279824 C26.3222898,17.6027566 26.6746529,16.7794459 25.9545635,16.4550808" id="Fill-626" fill="#C8A757"></path>
                <path d="M16.0328921,21.1986052 C16.5943933,13.6992418 21.7812171,15.4824913 25.1199934,7.42801311 C26.379778,4.38829142 37.2861828,6.20038454 39.5718346,8.5341945 C42.6940389,11.722183 43.0924917,19.3875241 43.0260829,22.4398966 C42.9596741,25.492269 44.5698395,22.649899 44.6540894,21.3433297 C44.7541982,19.7953842 45.9133785,15.4232858 43.4483239,9.46124131 C40.1997446,1.60613895 28.3908741,-3.73956107 20.9193896,3.40305117 C10.7761903,6.96955001 15.4362041,29.1660462 16.0328921,21.1986052" id="Fill-627" fill="#C8A757"></path>
                <path d="M3.64765272,87.844263 C3.30272349,83.6523112 10.5026257,82.262753 15.3355998,82.61748 C20.1338827,82.9691708 32.6677984,82.51678 33.0380026,84.8399634 C33.5435024,88.0122649 21.5448217,89.2444477 16.2499596,90.4078105 C11.3718871,91.4800879 3.96433345,91.6971747 3.64765272,87.844263" id="Fill-628" fill="#E2B6A9"></path>
                <path d="M27.7827876,83.1326184 C29.6248882,83.2484993 32.3595427,80.7487115 34.6219018,79.7973753 C40.9654281,77.1290795 35.3880809,80.9738948 35.6948498,81.0336064 C36.4149392,81.1747887 37.4269298,81.3220434 39.0579099,81.4121167 C40.227002,81.4763825 40.3072872,82.2668013 39.8870286,82.5972388 C39.5941361,82.8279884 39.6154464,83.0921361 39.7135728,83.2029566 C40.2448431,83.8041201 39.9232065,84.5479841 39.4335656,84.7306609 C39.0405643,84.8774096 39.0128114,85.2032929 39.2447466,85.526646 C39.51732,85.9056624 39.6630228,86.4000536 39.3359348,86.7537685 C39.0212364,87.0938206 37.9046767,87.0371453 38.469647,87.5350787 C39.1505848,88.1347241 38.8804894,88.571428 38.4954175,88.824949 C37.6895915,89.3552683 31.110661,87.2390512 28.5598696,87.9267459 C26.5978368,88.4555471 25.9109518,83.0142074 27.7827876,83.1326184" id="Fill-629" fill="#E2B6A9"></path>
                <path d="M53.4111291,107.0147 C52.7435721,111.351883 53.1796895,119.553109 51.7504138,122.533626 C51.1611597,123.762772 50.5188777,125.772723 49.5058958,126.509503 C48.0632392,127.559009 46.2052798,128.159666 45.5803434,128.163714 C44.5158204,128.171305 44.1922014,127.27462 45.6740095,126.622347 C46.2592989,126.364272 46.9506442,126.113787 47.8040467,125.28744 C49.1089298,124.02439 49.4796296,121.257418 49.2610753,121.16026 C47.8189143,120.518615 46.304893,125.11286 45.1362965,124.561288 C44.5891674,124.303212 45.8821565,121.541301 46.2196519,120.164394 C46.6022458,118.605821 46.3881518,116.07719 47.53296,114.689656 C49.6907501,112.075505 48.77193,108.583393 48.005751,105.437911 C47.276741,102.443732 54.0192156,103.063619 53.4111291,107.0147" id="Fill-630" fill="#EDC7B8"></path>
                <path d="M3.64765272,87.844263 C3.30421025,83.6710343 10.4381993,82.2754038 15.2701822,82.6129257 C15.5328438,84.2934511 15.5318526,87.7400208 15.3717777,90.5859331 C10.5308743,91.4912206 3.94599669,91.4719914 3.64765272,87.844263" id="Fill-631" fill="#D84B44"></path>
                <path d="M45.9644241,79.9132561 C45.4871728,82.4428997 45.8662976,92.0038289 46.2622724,94.7379085 C46.9650162,99.5968077 48.5860845,112.196447 50.8905686,112.220736 C54.0375524,112.25464 53.9998877,99.9616553 53.7585363,94.4373267 C53.5835938,90.4346301 52.3114194,82.4428997 51.8371417,80.6333367 C50.0208117,73.7052811 46.0937725,79.2260675 45.9644241,79.9132561" id="Fill-632" fill="#EDC7B8"></path>
                <path d="M45.9639285,79.9132561 C45.6209816,81.7334457 45.7210904,87.1945206 45.9520344,91.1329514 C47.7980996,91.2361815 50.7369364,91.1127102 53.4423512,90.7701279 C52.9869058,86.7643951 52.1904959,81.9819064 51.8371417,80.6333367 C50.0213073,73.7052811 46.0937725,79.2255615 45.9639285,79.9132561" id="Fill-633" fill="#D84B44"></path>
                <path d="M24.7730818,225.15295 C24.9485199,227.146708 25.0283096,228.907692 24.6338216,229.899511 C23.6366985,232.409419 16.8679578,233.001474 13.9107843,236.265367 C11.1568019,239.306607 1.22125395,239.043471 0.469942559,235.329212 C0.391144069,234.939569 0.314327931,233.578348 0.576989564,233.178585 C1.37290387,231.959052 3.74924826,231.660495 6.26534846,230.526988 C7.32888028,230.05132 9.96788631,227.495869 12.9845304,225.249096 C13.0395406,225.203553 13.0945509,225.163071 13.1495612,225.122588 C13.7749932,225.097287 14.3543356,225.223794 14.8920485,225.517292 C16.2955537,226.281397 16.0150509,227.237793 17.6058883,227.52117 C19.1967258,227.809607 23.033568,227.713461 23.8755719,225.517292 C24.1843233,225.405965 24.4826672,225.279458 24.7730818,225.15295" id="Fill-634" fill="#FFFFFF"></path>
                <path d="M24.5168628,214.344151 C23.4647295,218.002747 25.6309446,225.669101 24.6338216,228.173949 C23.6366985,230.678797 16.8674622,231.275912 13.9107843,234.539805 C11.1568019,237.575984 1.22125395,237.317909 0.469942559,233.598589 C0.153261836,232.029897 2.91963397,230.309395 6.26534846,228.801426 C7.32888028,228.320697 10.4600052,226.154889 13.4761537,223.908116 C16.3793081,221.747369 18.7690333,217.344908 18.6788363,215.538382 C18.4280688,210.523625 25.7523637,210.047957 24.5168628,214.344151" id="Fill-635" fill="#EDC7B8"></path>
                <path d="M24.3443982,218.362029 C25.2305095,221.241339 25.027814,227.18213 24.6338216,228.173949 C23.6366985,230.678797 16.8674622,231.275912 13.9107843,234.539805 C11.1568019,237.575984 1.47499499,237.353331 0.723683608,233.634011 C0.407498473,232.070379 2.75608994,230.309395 6.10180443,228.801426 C6.74111293,228.512989 12.7724187,225.066925 15.6364217,221.610741 C16.2960493,220.816274 15.7375216,219.379149 15.359388,218.690948 C14.782028,217.638406 20.3722605,216.479597 20.5035913,218.250702 C20.5367957,218.701069 20.8361308,219.439872 20.8059,220.097711 C24.5703863,220.568319 24.1119674,219.191918 24.3443982,218.362029" id="Fill-636" fill="#D84B44"></path>
                <path d="M21.0541895,220.138194 C20.3568973,222.27364 15.4892321,227.870331 13.2749449,229.585772 C8.248196,233.482202 4.36030825,230.086742 6.01111183,229.110104" id="Stroke-637" stroke="#B63B37" stroke-width="0.6048"></path>
                <path d="M13.8399152,227.941175 L12.3531513,224.682342 M15.2726601,226.321879 L13.7858961,223.068107 M16.6385006,224.925237 L15.1869234,221.954841 M10.4471199,226.00308 L14.8360471,226.397784 M12.132119,224.545714 L16.5215418,224.940418 M13.5613948,223.189554 L18.0231734,223.174373 M11.819403,228.887451 L10.3876493,225.967658 M8.64516197,227.394663 L13.5257125,228.017079 M6.47101748,228.543351 L11.9675838,229.089863 M9.75428788,230.440963 L8.61245316,227.409843" id="Stroke-638" stroke="#FFFFFF" stroke-width="0.96768" stroke-linecap="round" stroke-linejoin="round"></path>
                <path d="M7.06919218,236.619588 C3.55646453,237.044653 0.212732394,236.432357 0.469942559,233.598589 C0.542298405,232.799062 0.925387918,231.989414 1.99784032,231.174706 L2.12074614,231.174706 C4.81377125,231.174706 7.00526133,233.598589 7.06919218,236.619588" id="Fill-639" fill="#7870CC"></path>
                <path d="M24.9876714,222.157253 C25.4426212,224.788609 25.0848066,228.209371 24.8181803,228.882391 C24.5183496,229.636375 23.5484839,230.299274 22.4230036,230.041199 C24.2418115,228.36624 24.8459332,223.908116 24.9876714,222.157253" id="Fill-640" fill="#FFFFFF"></path>
                <path d="M34.5247666,225.15295 C34.3493284,227.146708 34.2695388,228.907692 34.6640268,229.899511 C35.6611498,232.409419 42.4298905,233.001474 45.3870641,236.265367 C48.1405509,239.306607 58.0760988,239.043471 58.8279058,235.329212 C58.9062087,234.939569 58.9830249,233.578348 58.7203632,233.178585 C57.9244489,231.959052 55.5481045,231.660495 53.0324999,230.526988 C51.9684725,230.05132 49.3294665,227.495869 46.313318,225.249096 C46.2578122,225.203553 46.2028019,225.163071 46.1477916,225.122588 C45.5223596,225.097287 44.9435128,225.223794 44.4057998,225.517292 C43.0017991,226.281397 43.2827975,227.237793 41.69196,227.52117 C40.1011226,227.809607 36.2637848,227.713461 35.4217808,225.517292 C35.1130295,225.405965 34.8146856,225.279458 34.5247666,225.15295" id="Fill-641" fill="#FFFFFF"></path>
                <path d="M34.7809856,214.344151 C35.8331189,218.002747 33.6669038,225.669101 34.6640268,228.173949 C35.6611498,230.678797 42.4298905,231.275912 45.3870641,234.539805 C48.1405509,237.575984 58.0760988,237.317909 58.8279058,233.598589 C59.144091,232.029897 56.3782144,230.309395 53.0324999,228.801426 C51.9689681,228.320697 48.8378432,226.154889 45.8216947,223.908116 C42.9185403,221.747369 40.528815,217.344908 40.619012,215.538382 C40.8697796,210.523625 33.5449891,210.047957 34.7809856,214.344151" id="Fill-642" fill="#EDC7B8"></path>
                <path d="M34.9534502,218.362029 C34.0673389,221.241339 34.2695388,227.18213 34.6640268,228.173949 C35.6606543,230.678797 42.4298905,231.275912 45.3870641,234.539805 C48.1405509,237.575984 57.8228534,237.353331 58.5736692,233.634011 C58.8903499,232.070379 56.5417584,230.309395 53.196044,228.801426 C52.5255134,228.497808 45.9277506,224.722825 43.2684254,221.109771 C42.8065374,220.482294 43.5945223,218.599863 43.7590575,217.997687 C44.0881279,216.803456 38.6574748,216.616225 38.3100676,218.144436 C38.21095,218.579621 38.0711942,219.419631 38.4914528,220.097711 C34.7274621,220.568319 35.185881,219.191918 34.9534502,218.362029" id="Fill-643" fill="#D84B44"></path>
                <path d="M38.2436588,220.138194 C38.9409511,222.27364 43.8081207,227.870331 46.0224079,229.585772 C51.0496524,233.482202 54.9370445,230.086742 53.286241,229.110104" id="Stroke-644" stroke="#B63B37" stroke-width="0.6048"></path>
                <path d="M45.4579331,227.941175 L46.9442015,224.682342 M44.0251883,226.321879 L45.5119522,223.068107 M42.6593478,224.925237 L44.110925,221.954841 M48.8507285,226.00308 L44.4618013,226.397784 M47.1652338,224.545714 L42.7763066,224.940418 M45.735958,223.189554 L41.274675,223.174373 M47.4779498,228.887451 L48.9097035,225.967658 M50.6526864,227.394663 L45.7721359,228.017079 M52.8263353,228.543351 L47.3302646,229.089863 M49.5435605,230.440963 L50.6853952,227.409843" id="Stroke-645" stroke="#FFFFFF" stroke-width="0.96768" stroke-linecap="round" stroke-linejoin="round"></path>
                <path d="M52.2281606,236.619588 C55.7413838,237.044653 59.0846204,236.432357 58.8279058,233.598589 C58.75555,232.799062 58.3719649,231.989414 57.3000081,231.174706 L57.1771022,231.174706 C54.4835815,231.174706 52.2925871,233.598589 52.2281606,236.619588" id="Fill-646" fill="#7870CC"></path>
                <path d="M34.3096814,222.157253 C33.8552272,224.788609 34.2130417,228.209371 34.4791725,228.882391 C34.7790032,229.636375 35.7488689,230.299274 36.8743492,230.041199 C35.0555413,228.36624 34.4514196,223.908116 34.3096814,222.157253" id="Fill-647" fill="#FFFFFF"></path>
                <path d="M16.62958,167.780796 C16.9551813,172.36897 17.1207077,179.807609 17.3234032,187.7624 C20.5675221,188.561927 23.9895572,188.546746 27.5781098,187.7624 C27.7956729,184.068381 27.9180831,180.991719 27.9701199,179.13459 C28.1093801,174.129954 26.678122,160.002105 26.8476131,156.626379 C27.8273905,137.175601 14.1684901,133.056012 16.62958,167.780796" id="Fill-648" fill="#434950"></path>
                <path d="M42.4150229,167.780796 C42.0899172,172.36897 41.9238952,179.807609 41.7211997,187.7624 C38.3031294,188.77952 34.8850591,188.678314 31.4664931,187.7624 C31.24893,184.068381 31.1849992,180.986659 31.074483,179.13459 C30.6215156,171.508719 32.8704939,159.251156 32.2366369,156.465462 C27.8729846,137.294518 44.8924672,132.827792 42.4150229,167.780796" id="Fill-649" fill="#434950"></path>
                <path d="M44.0499677,25.8626829 C38.9295526,25.408268 25.0139376,13.109717 21.4516511,6.28995183 C33.3958172,-3.51791996 48.8799682,5.66905313 44.0499677,25.8626829" id="Fill-650" fill="#C8A757"></path>
                <path d="M40.9897119,24.4680644 C43.5087856,25.7538865 43.4428724,33.8579555 37.4546828,39.380766 C34.8067562,41.8223604 36.1195687,42.661864 40.2081696,40.9595794 C44.2972661,39.2572947 50.594207,35.3026709 48.6510065,30.4280848 C46.707806,25.5534986 45.5540772,18.2848849 44.522263,13.6420605 C43.4904488,8.999236 36.7920816,16.7526263 40.9897119,24.4680644" id="Fill-651" fill="#C8A757"></path>
                <path d="M45.5337581,20.1617499 C41.5814439,24.7635859 27.3045452,15.5563716 21.5507687,4.76730782 C26.9021278,9.68541256 37.0364065,18.2904513 45.5337581,20.1617499" id="Fill-652" fill="#D4B569"></path>
                <path d="M41.4872822,12.0586929 C39.5029479,15.9971237 27.8982596,12.0905727 22.0047273,5.54659389 C26.6067573,8.04081534 35.1997574,12.2671772 41.4872822,12.0586929" id="Fill-653" fill="#D4B569"></path>
                <path d="M15.6106511,17.7818912 C13.5187742,16.0451965 16.9165255,6.47262863 22.4011977,5.34974825 C19.0782802,9.05591135 16.2920846,13.8505448 15.6106511,17.7818912" id="Fill-654" fill="#D4B569"></path>
                <path d="M38.2823147,5.62199235 C37.3010505,1.80703282 24.9906449,-0.393691273 22.0364449,4.9919851 C27.545401,2.58125859 34.7532326,3.9025027 38.2823147,5.62199235" id="Fill-655" fill="#D4B569"></path>
                <path d="M48.4597096,111.015879 C50.1362837,111.760755 51.60818,112.181772 53.5801246,111.863479 M52.3238091,111.970757 C52.5953913,111.394389 53.2565057,111.148459 53.5801246,111.863479 C54.2625493,113.672536 53.4349174,114.343025 53.9037436,115.50234" id="Stroke-656" stroke="#58BEC7" stroke-width="0.96768" stroke-linecap="round" stroke-linejoin="round"></path>
                <path d="M53.2426292,110.11717 C51.4372022,110.411173 49.9088088,110.443559 48.0771156,109.632393 M49.2670224,110.056446 C49.1456033,109.428969 48.5652698,109.022627 48.0771156,109.632393 C46.9739368,111.210194 47.6112629,112.070445 46.873828,113.073396" id="Stroke-657" stroke="#507294" stroke-width="0.96768" stroke-linecap="round" stroke-linejoin="round"></path>
            </g>
        </g>
    </g>
</svg>