<?xml version="1.0" encoding="UTF-8"?>
<svg width="148px" height="455px" viewBox="0 0 148 455" version="1.1" xmlns="http://www.w3.org/2000/svg" xmlns:xlink="http://www.w3.org/1999/xlink">
    <!-- Generator: Sketch 41.1 (35376) - http://www.bohemiancoding.com/sketch -->
    <title>UPI Fig SVG</title>
    <desc>Created with Sketch.</desc>
    <defs></defs>
    <g id="Page-1" stroke="none" stroke-width="1" fill="none" fill-rule="evenodd">
        <g id="UPI-Fig-SVG" transform="translate(6.000000, 17.000000)">
            <g id="Page-1">
                <g id="UPI2-Copy-4">
                    <g id="Phone" transform="translate(31.000000, 237.000000)">
                        <g id="Group">
                            <rect id="Combined-Shape" fill="#666666" x="0" y="0" width="75" height="144" rx="5.53362445"></rect>
                            <rect id="Rectangle-14" fill="#F5F5F5" x="2.34375" y="14.1639344" width="70.3125" height="112.131148"></rect>
                            <ellipse id="Oval-4" fill="#757775" opacity="0.5" cx="37.5" cy="134.557377" rx="3.515625" ry="3.54098361"></ellipse>
                            <path d="M23.6395474,8.26229508 C24.1751684,8.26229508 24.609375,7.73384433 24.609375,7.08196721 C24.609375,6.4300901 24.1751684,5.90163934 23.6395474,5.90163934 C23.1039264,5.90163934 22.6697198,6.4300901 22.6697198,7.08196721 C22.6697198,7.73384433 23.1039264,8.26229508 23.6395474,8.26229508 Z M20.8917026,8.26229508 C21.4273236,8.26229508 21.8615302,7.73384433 21.8615302,7.08196721 C21.8615302,6.4300901 21.4273236,5.90163934 20.8917026,5.90163934 C20.3560816,5.90163934 19.921875,6.4300901 19.921875,7.08196721 C19.921875,7.73384433 20.3560816,8.26229508 20.8917026,8.26229508 Z" id="Sensors" fill="#E5E5E5"></path>
                            <g transform="translate(28.125000, 5.901639)" id="Speaker" fill="#E5E5E5">
                                <path d="M0.273378784,3.5252459 C0.424361725,3.5252459 0.546757568,3.39372038 0.546757568,3.23147541 C0.546757568,3.06923044 0.424361725,2.93770492 0.273378784,2.93770492 C0.122395843,2.93770492 0,3.06923044 0,3.23147541 C0,3.39372038 0.122395843,3.5252459 0.273378784,3.5252459 Z M1.1846414,3.5252459 C1.33562434,3.5252459 1.45802018,3.39372038 1.45802018,3.23147541 C1.45802018,3.06923044 1.33562434,2.93770492 1.1846414,2.93770492 C1.03365846,2.93770492 0.911262613,3.06923044 0.911262613,3.23147541 C0.911262613,3.39372038 1.03365846,3.5252459 1.1846414,3.5252459 Z M0.273378784,2.54601093 C0.424361725,2.54601093 0.546757568,2.41448541 0.546757568,2.25224044 C0.546757568,2.08999547 0.424361725,1.95846995 0.273378784,1.95846995 C0.122395843,1.95846995 0,2.08999547 0,2.25224044 C0,2.41448541 0.122395843,2.54601093 0.273378784,2.54601093 Z M1.1846414,2.54601093 C1.33562434,2.54601093 1.45802018,2.41448541 1.45802018,2.25224044 C1.45802018,2.08999547 1.33562434,1.95846995 1.1846414,1.95846995 C1.03365846,1.95846995 0.911262613,2.08999547 0.911262613,2.25224044 C0.911262613,2.41448541 1.03365846,2.54601093 1.1846414,2.54601093 Z M0.273378784,1.56677596 C0.424361725,1.56677596 0.546757568,1.43525044 0.546757568,1.27300546 C0.546757568,1.11076049 0.424361725,0.979234973 0.273378784,0.979234973 C0.122395843,0.979234973 0,1.11076049 0,1.27300546 C0,1.43525044 0.122395843,1.56677596 0.273378784,1.56677596 Z M1.1846414,1.56677596 C1.33562434,1.56677596 1.45802018,1.43525044 1.45802018,1.27300546 C1.45802018,1.11076049 1.33562434,0.979234973 1.1846414,0.979234973 C1.03365846,0.979234973 0.911262613,1.11076049 0.911262613,1.27300546 C0.911262613,1.43525044 1.03365846,1.56677596 1.1846414,1.56677596 Z M0.273378784,0.587540984 C0.424361725,0.587540984 0.546757568,0.456015462 0.546757568,0.293770492 C0.546757568,0.131525521 0.424361725,0 0.273378784,0 C0.122395843,0 0,0.131525521 0,0.293770492 C0,0.456015462 0.122395843,0.587540984 0.273378784,0.587540984 Z M1.1846414,0.587540984 C1.33562434,0.587540984 1.45802018,0.456015462 1.45802018,0.293770492 C1.45802018,0.131525521 1.33562434,0 1.1846414,0 C1.03365846,0 0.911262613,0.131525521 0.911262613,0.293770492 C0.911262613,0.456015462 1.03365846,0.587540984 1.1846414,0.587540984 Z M2.09590401,3.5252459 C2.24688695,3.5252459 2.36928279,3.39372038 2.36928279,3.23147541 C2.36928279,3.06923044 2.24688695,2.93770492 2.09590401,2.93770492 C1.94492107,2.93770492 1.82252523,3.06923044 1.82252523,3.23147541 C1.82252523,3.39372038 1.94492107,3.5252459 2.09590401,3.5252459 Z M3.00716662,3.5252459 C3.15814956,3.5252459 3.28054541,3.39372038 3.28054541,3.23147541 C3.28054541,3.06923044 3.15814956,2.93770492 3.00716662,2.93770492 C2.85618368,2.93770492 2.73378784,3.06923044 2.73378784,3.23147541 C2.73378784,3.39372038 2.85618368,3.5252459 3.00716662,3.5252459 Z M2.09590401,2.54601093 C2.24688695,2.54601093 2.36928279,2.41448541 2.36928279,2.25224044 C2.36928279,2.08999547 2.24688695,1.95846995 2.09590401,1.95846995 C1.94492107,1.95846995 1.82252523,2.08999547 1.82252523,2.25224044 C1.82252523,2.41448541 1.94492107,2.54601093 2.09590401,2.54601093 Z M3.00716662,2.54601093 C3.15814956,2.54601093 3.28054541,2.41448541 3.28054541,2.25224044 C3.28054541,2.08999547 3.15814956,1.95846995 3.00716662,1.95846995 C2.85618368,1.95846995 2.73378784,2.08999547 2.73378784,2.25224044 C2.73378784,2.41448541 2.85618368,2.54601093 3.00716662,2.54601093 Z M2.09590401,1.56677596 C2.24688695,1.56677596 2.36928279,1.43525044 2.36928279,1.27300546 C2.36928279,1.11076049 2.24688695,0.979234973 2.09590401,0.979234973 C1.94492107,0.979234973 1.82252523,1.11076049 1.82252523,1.27300546 C1.82252523,1.43525044 1.94492107,1.56677596 2.09590401,1.56677596 Z M3.00716662,1.56677596 C3.15814956,1.56677596 3.28054541,1.43525044 3.28054541,1.27300546 C3.28054541,1.11076049 3.15814956,0.979234973 3.00716662,0.979234973 C2.85618368,0.979234973 2.73378784,1.11076049 2.73378784,1.27300546 C2.73378784,1.43525044 2.85618368,1.56677596 3.00716662,1.56677596 Z M2.09590401,0.587540984 C2.24688695,0.587540984 2.36928279,0.456015462 2.36928279,0.293770492 C2.36928279,0.131525521 2.24688695,0 2.09590401,0 C1.94492107,0 1.82252523,0.131525521 1.82252523,0.293770492 C1.82252523,0.456015462 1.94492107,0.587540984 2.09590401,0.587540984 Z M3.00716662,0.587540984 C3.15814956,0.587540984 3.28054541,0.456015462 3.28054541,0.293770492 C3.28054541,0.131525521 3.15814956,0 3.00716662,0 C2.85618368,0 2.73378784,0.131525521 2.73378784,0.293770492 C2.73378784,0.456015462 2.85618368,0.587540984 3.00716662,0.587540984 Z M3.91842924,3.5252459 C4.06941218,3.5252459 4.19180802,3.39372038 4.19180802,3.23147541 C4.19180802,3.06923044 4.06941218,2.93770492 3.91842924,2.93770492 C3.76744629,2.93770492 3.64505045,3.06923044 3.64505045,3.23147541 C3.64505045,3.39372038 3.76744629,3.5252459 3.91842924,3.5252459 Z M4.82969185,3.5252459 C4.98067479,3.5252459 5.10307063,3.39372038 5.10307063,3.23147541 C5.10307063,3.06923044 4.98067479,2.93770492 4.82969185,2.93770492 C4.67870891,2.93770492 4.55631306,3.06923044 4.55631306,3.23147541 C4.55631306,3.39372038 4.67870891,3.5252459 4.82969185,3.5252459 Z M3.91842924,2.54601093 C4.06941218,2.54601093 4.19180802,2.41448541 4.19180802,2.25224044 C4.19180802,2.08999547 4.06941218,1.95846995 3.91842924,1.95846995 C3.76744629,1.95846995 3.64505045,2.08999547 3.64505045,2.25224044 C3.64505045,2.41448541 3.76744629,2.54601093 3.91842924,2.54601093 Z M4.82969185,2.54601093 C4.98067479,2.54601093 5.10307063,2.41448541 5.10307063,2.25224044 C5.10307063,2.08999547 4.98067479,1.95846995 4.82969185,1.95846995 C4.67870891,1.95846995 4.55631306,2.08999547 4.55631306,2.25224044 C4.55631306,2.41448541 4.67870891,2.54601093 4.82969185,2.54601093 Z M3.91842924,1.56677596 C4.06941218,1.56677596 4.19180802,1.43525044 4.19180802,1.27300546 C4.19180802,1.11076049 4.06941218,0.979234973 3.91842924,0.979234973 C3.76744629,0.979234973 3.64505045,1.11076049 3.64505045,1.27300546 C3.64505045,1.43525044 3.76744629,1.56677596 3.91842924,1.56677596 Z M4.82969185,1.56677596 C4.98067479,1.56677596 5.10307063,1.43525044 5.10307063,1.27300546 C5.10307063,1.11076049 4.98067479,0.979234973 4.82969185,0.979234973 C4.67870891,0.979234973 4.55631306,1.11076049 4.55631306,1.27300546 C4.55631306,1.43525044 4.67870891,1.56677596 4.82969185,1.56677596 Z M3.91842924,0.587540984 C4.06941218,0.587540984 4.19180802,0.456015462 4.19180802,0.293770492 C4.19180802,0.131525521 4.06941218,0 3.91842924,0 C3.76744629,0 3.64505045,0.131525521 3.64505045,0.293770492 C3.64505045,0.456015462 3.76744629,0.587540984 3.91842924,0.587540984 Z M4.82969185,0.587540984 C4.98067479,0.587540984 5.10307063,0.456015462 5.10307063,0.293770492 C5.10307063,0.131525521 4.98067479,0 4.82969185,0 C4.67870891,0 4.55631306,0.131525521 4.55631306,0.293770492 C4.55631306,0.456015462 4.67870891,0.587540984 4.82969185,0.587540984 Z M5.74095446,3.5252459 C5.8919374,3.5252459 6.01433325,3.39372038 6.01433325,3.23147541 C6.01433325,3.06923044 5.8919374,2.93770492 5.74095446,2.93770492 C5.58997152,2.93770492 5.46757568,3.06923044 5.46757568,3.23147541 C5.46757568,3.39372038 5.58997152,3.5252459 5.74095446,3.5252459 Z M6.65221707,3.5252459 C6.80320002,3.5252459 6.92559586,3.39372038 6.92559586,3.23147541 C6.92559586,3.06923044 6.80320002,2.93770492 6.65221707,2.93770492 C6.50123413,2.93770492 6.37883829,3.06923044 6.37883829,3.23147541 C6.37883829,3.39372038 6.50123413,3.5252459 6.65221707,3.5252459 Z M5.74095446,2.54601093 C5.8919374,2.54601093 6.01433325,2.41448541 6.01433325,2.25224044 C6.01433325,2.08999547 5.8919374,1.95846995 5.74095446,1.95846995 C5.58997152,1.95846995 5.46757568,2.08999547 5.46757568,2.25224044 C5.46757568,2.41448541 5.58997152,2.54601093 5.74095446,2.54601093 Z M6.65221707,2.54601093 C6.80320002,2.54601093 6.92559586,2.41448541 6.92559586,2.25224044 C6.92559586,2.08999547 6.80320002,1.95846995 6.65221707,1.95846995 C6.50123413,1.95846995 6.37883829,2.08999547 6.37883829,2.25224044 C6.37883829,2.41448541 6.50123413,2.54601093 6.65221707,2.54601093 Z M5.74095446,1.56677596 C5.8919374,1.56677596 6.01433325,1.43525044 6.01433325,1.27300546 C6.01433325,1.11076049 5.8919374,0.979234973 5.74095446,0.979234973 C5.58997152,0.979234973 5.46757568,1.11076049 5.46757568,1.27300546 C5.46757568,1.43525044 5.58997152,1.56677596 5.74095446,1.56677596 Z M6.65221707,1.56677596 C6.80320002,1.56677596 6.92559586,1.43525044 6.92559586,1.27300546 C6.92559586,1.11076049 6.80320002,0.979234973 6.65221707,0.979234973 C6.50123413,0.979234973 6.37883829,1.11076049 6.37883829,1.27300546 C6.37883829,1.43525044 6.50123413,1.56677596 6.65221707,1.56677596 Z M5.74095446,0.587540984 C5.8919374,0.587540984 6.01433325,0.456015462 6.01433325,0.293770492 C6.01433325,0.131525521 5.8919374,0 5.74095446,0 C5.58997152,0 5.46757568,0.131525521 5.46757568,0.293770492 C5.46757568,0.456015462 5.58997152,0.587540984 5.74095446,0.587540984 Z M6.65221707,0.587540984 C6.80320002,0.587540984 6.92559586,0.456015462 6.92559586,0.293770492 C6.92559586,0.131525521 6.80320002,0 6.65221707,0 C6.50123413,0 6.37883829,0.131525521 6.37883829,0.293770492 C6.37883829,0.456015462 6.50123413,0.587540984 6.65221707,0.587540984 Z M7.56347969,3.5252459 C7.71446263,3.5252459 7.83685847,3.39372038 7.83685847,3.23147541 C7.83685847,3.06923044 7.71446263,2.93770492 7.56347969,2.93770492 C7.41249675,2.93770492 7.2901009,3.06923044 7.2901009,3.23147541 C7.2901009,3.39372038 7.41249675,3.5252459 7.56347969,3.5252459 Z M8.4747423,3.5252459 C8.62572524,3.5252459 8.74812108,3.39372038 8.74812108,3.23147541 C8.74812108,3.06923044 8.62572524,2.93770492 8.4747423,2.93770492 C8.32375936,2.93770492 8.20136352,3.06923044 8.20136352,3.23147541 C8.20136352,3.39372038 8.32375936,3.5252459 8.4747423,3.5252459 Z M7.56347969,2.54601093 C7.71446263,2.54601093 7.83685847,2.41448541 7.83685847,2.25224044 C7.83685847,2.08999547 7.71446263,1.95846995 7.56347969,1.95846995 C7.41249675,1.95846995 7.2901009,2.08999547 7.2901009,2.25224044 C7.2901009,2.41448541 7.41249675,2.54601093 7.56347969,2.54601093 Z M8.4747423,2.54601093 C8.62572524,2.54601093 8.74812108,2.41448541 8.74812108,2.25224044 C8.74812108,2.08999547 8.62572524,1.95846995 8.4747423,1.95846995 C8.32375936,1.95846995 8.20136352,2.08999547 8.20136352,2.25224044 C8.20136352,2.41448541 8.32375936,2.54601093 8.4747423,2.54601093 Z M7.56347969,1.56677596 C7.71446263,1.56677596 7.83685847,1.43525044 7.83685847,1.27300546 C7.83685847,1.11076049 7.71446263,0.979234973 7.56347969,0.979234973 C7.41249675,0.979234973 7.2901009,1.11076049 7.2901009,1.27300546 C7.2901009,1.43525044 7.41249675,1.56677596 7.56347969,1.56677596 Z M8.4747423,1.56677596 C8.62572524,1.56677596 8.74812108,1.43525044 8.74812108,1.27300546 C8.74812108,1.11076049 8.62572524,0.979234973 8.4747423,0.979234973 C8.32375936,0.979234973 8.20136352,1.11076049 8.20136352,1.27300546 C8.20136352,1.43525044 8.32375936,1.56677596 8.4747423,1.56677596 Z M7.56347969,0.587540984 C7.71446263,0.587540984 7.83685847,0.456015462 7.83685847,0.293770492 C7.83685847,0.131525521 7.71446263,0 7.56347969,0 C7.41249675,0 7.2901009,0.131525521 7.2901009,0.293770492 C7.2901009,0.456015462 7.41249675,0.587540984 7.56347969,0.587540984 Z M8.4747423,0.587540984 C8.62572524,0.587540984 8.74812108,0.456015462 8.74812108,0.293770492 C8.74812108,0.131525521 8.62572524,0 8.4747423,0 C8.32375936,0 8.20136352,0.131525521 8.20136352,0.293770492 C8.20136352,0.456015462 8.32375936,0.587540984 8.4747423,0.587540984 Z M9.38600491,3.5252459 C9.53698785,3.5252459 9.6593837,3.39372038 9.6593837,3.23147541 C9.6593837,3.06923044 9.53698785,2.93770492 9.38600491,2.93770492 C9.23502197,2.93770492 9.11262613,3.06923044 9.11262613,3.23147541 C9.11262613,3.39372038 9.23502197,3.5252459 9.38600491,3.5252459 Z M10.2972675,3.5252459 C10.4482505,3.5252459 10.5706463,3.39372038 10.5706463,3.23147541 C10.5706463,3.06923044 10.4482505,2.93770492 10.2972675,2.93770492 C10.1462846,2.93770492 10.0238887,3.06923044 10.0238887,3.23147541 C10.0238887,3.39372038 10.1462846,3.5252459 10.2972675,3.5252459 Z M9.38600491,2.54601093 C9.53698785,2.54601093 9.6593837,2.41448541 9.6593837,2.25224044 C9.6593837,2.08999547 9.53698785,1.95846995 9.38600491,1.95846995 C9.23502197,1.95846995 9.11262613,2.08999547 9.11262613,2.25224044 C9.11262613,2.41448541 9.23502197,2.54601093 9.38600491,2.54601093 Z M10.2972675,2.54601093 C10.4482505,2.54601093 10.5706463,2.41448541 10.5706463,2.25224044 C10.5706463,2.08999547 10.4482505,1.95846995 10.2972675,1.95846995 C10.1462846,1.95846995 10.0238887,2.08999547 10.0238887,2.25224044 C10.0238887,2.41448541 10.1462846,2.54601093 10.2972675,2.54601093 Z M9.38600491,1.56677596 C9.53698785,1.56677596 9.6593837,1.43525044 9.6593837,1.27300546 C9.6593837,1.11076049 9.53698785,0.979234973 9.38600491,0.979234973 C9.23502197,0.979234973 9.11262613,1.11076049 9.11262613,1.27300546 C9.11262613,1.43525044 9.23502197,1.56677596 9.38600491,1.56677596 Z M10.2972675,1.56677596 C10.4482505,1.56677596 10.5706463,1.43525044 10.5706463,1.27300546 C10.5706463,1.11076049 10.4482505,0.979234973 10.2972675,0.979234973 C10.1462846,0.979234973 10.0238887,1.11076049 10.0238887,1.27300546 C10.0238887,1.43525044 10.1462846,1.56677596 10.2972675,1.56677596 Z M9.38600491,0.587540984 C9.53698785,0.587540984 9.6593837,0.456015462 9.6593837,0.293770492 C9.6593837,0.131525521 9.53698785,0 9.38600491,0 C9.23502197,0 9.11262613,0.131525521 9.11262613,0.293770492 C9.11262613,0.456015462 9.23502197,0.587540984 9.38600491,0.587540984 Z M10.2972675,0.587540984 C10.4482505,0.587540984 10.5706463,0.456015462 10.5706463,0.293770492 C10.5706463,0.131525521 10.4482505,0 10.2972675,0 C10.1462846,0 10.0238887,0.131525521 10.0238887,0.293770492 C10.0238887,0.456015462 10.1462846,0.587540984 10.2972675,0.587540984 Z M11.2085301,3.5252459 C11.3595131,3.5252459 11.4819089,3.39372038 11.4819089,3.23147541 C11.4819089,3.06923044 11.3595131,2.93770492 11.2085301,2.93770492 C11.0575472,2.93770492 10.9351514,3.06923044 10.9351514,3.23147541 C10.9351514,3.39372038 11.0575472,3.5252459 11.2085301,3.5252459 Z M12.1197928,3.5252459 C12.2707757,3.5252459 12.3931715,3.39372038 12.3931715,3.23147541 C12.3931715,3.06923044 12.2707757,2.93770492 12.1197928,2.93770492 C11.9688098,2.93770492 11.846414,3.06923044 11.846414,3.23147541 C11.846414,3.39372038 11.9688098,3.5252459 12.1197928,3.5252459 Z M11.2085301,2.54601093 C11.3595131,2.54601093 11.4819089,2.41448541 11.4819089,2.25224044 C11.4819089,2.08999547 11.3595131,1.95846995 11.2085301,1.95846995 C11.0575472,1.95846995 10.9351514,2.08999547 10.9351514,2.25224044 C10.9351514,2.41448541 11.0575472,2.54601093 11.2085301,2.54601093 Z M12.1197928,2.54601093 C12.2707757,2.54601093 12.3931715,2.41448541 12.3931715,2.25224044 C12.3931715,2.08999547 12.2707757,1.95846995 12.1197928,1.95846995 C11.9688098,1.95846995 11.846414,2.08999547 11.846414,2.25224044 C11.846414,2.41448541 11.9688098,2.54601093 12.1197928,2.54601093 Z M11.2085301,1.56677596 C11.3595131,1.56677596 11.4819089,1.43525044 11.4819089,1.27300546 C11.4819089,1.11076049 11.3595131,0.979234973 11.2085301,0.979234973 C11.0575472,0.979234973 10.9351514,1.11076049 10.9351514,1.27300546 C10.9351514,1.43525044 11.0575472,1.56677596 11.2085301,1.56677596 Z M12.1197928,1.56677596 C12.2707757,1.56677596 12.3931715,1.43525044 12.3931715,1.27300546 C12.3931715,1.11076049 12.2707757,0.979234973 12.1197928,0.979234973 C11.9688098,0.979234973 11.846414,1.11076049 11.846414,1.27300546 C11.846414,1.43525044 11.9688098,1.56677596 12.1197928,1.56677596 Z M11.2085301,0.587540984 C11.3595131,0.587540984 11.4819089,0.456015462 11.4819089,0.293770492 C11.4819089,0.131525521 11.3595131,0 11.2085301,0 C11.0575472,0 10.9351514,0.131525521 10.9351514,0.293770492 C10.9351514,0.456015462 11.0575472,0.587540984 11.2085301,0.587540984 Z M12.1197928,0.587540984 C12.2707757,0.587540984 12.3931715,0.456015462 12.3931715,0.293770492 C12.3931715,0.131525521 12.2707757,0 12.1197928,0 C11.9688098,0 11.846414,0.131525521 11.846414,0.293770492 C11.846414,0.456015462 11.9688098,0.587540984 12.1197928,0.587540984 Z M13.0310554,3.5252459 C13.1820383,3.5252459 13.3044341,3.39372038 13.3044341,3.23147541 C13.3044341,3.06923044 13.1820383,2.93770492 13.0310554,2.93770492 C12.8800724,2.93770492 12.7576766,3.06923044 12.7576766,3.23147541 C12.7576766,3.39372038 12.8800724,3.5252459 13.0310554,3.5252459 Z M13.942318,3.5252459 C14.0933009,3.5252459 14.2156968,3.39372038 14.2156968,3.23147541 C14.2156968,3.06923044 14.0933009,2.93770492 13.942318,2.93770492 C13.791335,2.93770492 13.6689392,3.06923044 13.6689392,3.23147541 C13.6689392,3.39372038 13.791335,3.5252459 13.942318,3.5252459 Z M13.0310554,2.54601093 C13.1820383,2.54601093 13.3044341,2.41448541 13.3044341,2.25224044 C13.3044341,2.08999547 13.1820383,1.95846995 13.0310554,1.95846995 C12.8800724,1.95846995 12.7576766,2.08999547 12.7576766,2.25224044 C12.7576766,2.41448541 12.8800724,2.54601093 13.0310554,2.54601093 Z M13.942318,2.54601093 C14.0933009,2.54601093 14.2156968,2.41448541 14.2156968,2.25224044 C14.2156968,2.08999547 14.0933009,1.95846995 13.942318,1.95846995 C13.791335,1.95846995 13.6689392,2.08999547 13.6689392,2.25224044 C13.6689392,2.41448541 13.791335,2.54601093 13.942318,2.54601093 Z M13.0310554,1.56677596 C13.1820383,1.56677596 13.3044341,1.43525044 13.3044341,1.27300546 C13.3044341,1.11076049 13.1820383,0.979234973 13.0310554,0.979234973 C12.8800724,0.979234973 12.7576766,1.11076049 12.7576766,1.27300546 C12.7576766,1.43525044 12.8800724,1.56677596 13.0310554,1.56677596 Z M13.942318,1.56677596 C14.0933009,1.56677596 14.2156968,1.43525044 14.2156968,1.27300546 C14.2156968,1.11076049 14.0933009,0.979234973 13.942318,0.979234973 C13.791335,0.979234973 13.6689392,1.11076049 13.6689392,1.27300546 C13.6689392,1.43525044 13.791335,1.56677596 13.942318,1.56677596 Z M13.0310554,0.587540984 C13.1820383,0.587540984 13.3044341,0.456015462 13.3044341,0.293770492 C13.3044341,0.131525521 13.1820383,0 13.0310554,0 C12.8800724,0 12.7576766,0.131525521 12.7576766,0.293770492 C12.7576766,0.456015462 12.8800724,0.587540984 13.0310554,0.587540984 Z M13.942318,0.587540984 C14.0933009,0.587540984 14.2156968,0.456015462 14.2156968,0.293770492 C14.2156968,0.131525521 14.0933009,0 13.942318,0 C13.791335,0 13.6689392,0.131525521 13.6689392,0.293770492 C13.6689392,0.456015462 13.791335,0.587540984 13.942318,0.587540984 Z M14.8535806,3.5252459 C15.0045635,3.5252459 15.1269594,3.39372038 15.1269594,3.23147541 C15.1269594,3.06923044 15.0045635,2.93770492 14.8535806,2.93770492 C14.7025976,2.93770492 14.5802018,3.06923044 14.5802018,3.23147541 C14.5802018,3.39372038 14.7025976,3.5252459 14.8535806,3.5252459 Z M15.7648432,3.5252459 C15.9158261,3.5252459 16.038222,3.39372038 16.038222,3.23147541 C16.038222,3.06923044 15.9158261,2.93770492 15.7648432,2.93770492 C15.6138603,2.93770492 15.4914644,3.06923044 15.4914644,3.23147541 C15.4914644,3.39372038 15.6138603,3.5252459 15.7648432,3.5252459 Z M14.8535806,2.54601093 C15.0045635,2.54601093 15.1269594,2.41448541 15.1269594,2.25224044 C15.1269594,2.08999547 15.0045635,1.95846995 14.8535806,1.95846995 C14.7025976,1.95846995 14.5802018,2.08999547 14.5802018,2.25224044 C14.5802018,2.41448541 14.7025976,2.54601093 14.8535806,2.54601093 Z M15.7648432,2.54601093 C15.9158261,2.54601093 16.038222,2.41448541 16.038222,2.25224044 C16.038222,2.08999547 15.9158261,1.95846995 15.7648432,1.95846995 C15.6138603,1.95846995 15.4914644,2.08999547 15.4914644,2.25224044 C15.4914644,2.41448541 15.6138603,2.54601093 15.7648432,2.54601093 Z M14.8535806,1.56677596 C15.0045635,1.56677596 15.1269594,1.43525044 15.1269594,1.27300546 C15.1269594,1.11076049 15.0045635,0.979234973 14.8535806,0.979234973 C14.7025976,0.979234973 14.5802018,1.11076049 14.5802018,1.27300546 C14.5802018,1.43525044 14.7025976,1.56677596 14.8535806,1.56677596 Z M15.7648432,1.56677596 C15.9158261,1.56677596 16.038222,1.43525044 16.038222,1.27300546 C16.038222,1.11076049 15.9158261,0.979234973 15.7648432,0.979234973 C15.6138603,0.979234973 15.4914644,1.11076049 15.4914644,1.27300546 C15.4914644,1.43525044 15.6138603,1.56677596 15.7648432,1.56677596 Z M14.8535806,0.587540984 C15.0045635,0.587540984 15.1269594,0.456015462 15.1269594,0.293770492 C15.1269594,0.131525521 15.0045635,0 14.8535806,0 C14.7025976,0 14.5802018,0.131525521 14.5802018,0.293770492 C14.5802018,0.456015462 14.7025976,0.587540984 14.8535806,0.587540984 Z M15.7648432,0.587540984 C15.9158261,0.587540984 16.038222,0.456015462 16.038222,0.293770492 C16.038222,0.131525521 15.9158261,0 15.7648432,0 C15.6138603,0 15.4914644,0.131525521 15.4914644,0.293770492 C15.4914644,0.456015462 15.6138603,0.587540984 15.7648432,0.587540984 Z M16.6761058,3.5252459 C16.8270888,3.5252459 16.9494846,3.39372038 16.9494846,3.23147541 C16.9494846,3.06923044 16.8270888,2.93770492 16.6761058,2.93770492 C16.5251229,2.93770492 16.402727,3.06923044 16.402727,3.23147541 C16.402727,3.39372038 16.5251229,3.5252459 16.6761058,3.5252459 Z M17.5873684,3.5252459 C17.7383514,3.5252459 17.8607472,3.39372038 17.8607472,3.23147541 C17.8607472,3.06923044 17.7383514,2.93770492 17.5873684,2.93770492 C17.4363855,2.93770492 17.3139896,3.06923044 17.3139896,3.23147541 C17.3139896,3.39372038 17.4363855,3.5252459 17.5873684,3.5252459 Z M16.6761058,2.54601093 C16.8270888,2.54601093 16.9494846,2.41448541 16.9494846,2.25224044 C16.9494846,2.08999547 16.8270888,1.95846995 16.6761058,1.95846995 C16.5251229,1.95846995 16.402727,2.08999547 16.402727,2.25224044 C16.402727,2.41448541 16.5251229,2.54601093 16.6761058,2.54601093 Z M17.5873684,2.54601093 C17.7383514,2.54601093 17.8607472,2.41448541 17.8607472,2.25224044 C17.8607472,2.08999547 17.7383514,1.95846995 17.5873684,1.95846995 C17.4363855,1.95846995 17.3139896,2.08999547 17.3139896,2.25224044 C17.3139896,2.41448541 17.4363855,2.54601093 17.5873684,2.54601093 Z M16.6761058,1.56677596 C16.8270888,1.56677596 16.9494846,1.43525044 16.9494846,1.27300546 C16.9494846,1.11076049 16.8270888,0.979234973 16.6761058,0.979234973 C16.5251229,0.979234973 16.402727,1.11076049 16.402727,1.27300546 C16.402727,1.43525044 16.5251229,1.56677596 16.6761058,1.56677596 Z M17.5873684,1.56677596 C17.7383514,1.56677596 17.8607472,1.43525044 17.8607472,1.27300546 C17.8607472,1.11076049 17.7383514,0.979234973 17.5873684,0.979234973 C17.4363855,0.979234973 17.3139896,1.11076049 17.3139896,1.27300546 C17.3139896,1.43525044 17.4363855,1.56677596 17.5873684,1.56677596 Z M16.6761058,0.587540984 C16.8270888,0.587540984 16.9494846,0.456015462 16.9494846,0.293770492 C16.9494846,0.131525521 16.8270888,0 16.6761058,0 C16.5251229,0 16.402727,0.131525521 16.402727,0.293770492 C16.402727,0.456015462 16.5251229,0.587540984 16.6761058,0.587540984 Z M17.5873684,0.587540984 C17.7383514,0.587540984 17.8607472,0.456015462 17.8607472,0.293770492 C17.8607472,0.131525521 17.7383514,0 17.5873684,0 C17.4363855,0 17.3139896,0.131525521 17.3139896,0.293770492 C17.3139896,0.456015462 17.4363855,0.587540984 17.5873684,0.587540984 Z M18.498631,3.5252459 C18.649614,3.5252459 18.7720098,3.39372038 18.7720098,3.23147541 C18.7720098,3.06923044 18.649614,2.93770492 18.498631,2.93770492 C18.3476481,2.93770492 18.2252523,3.06923044 18.2252523,3.23147541 C18.2252523,3.39372038 18.3476481,3.5252459 18.498631,3.5252459 Z M19.4098937,3.5252459 C19.5608766,3.5252459 19.6832724,3.39372038 19.6832724,3.23147541 C19.6832724,3.06923044 19.5608766,2.93770492 19.4098937,2.93770492 C19.2589107,2.93770492 19.1365149,3.06923044 19.1365149,3.23147541 C19.1365149,3.39372038 19.2589107,3.5252459 19.4098937,3.5252459 Z M18.498631,2.54601093 C18.649614,2.54601093 18.7720098,2.41448541 18.7720098,2.25224044 C18.7720098,2.08999547 18.649614,1.95846995 18.498631,1.95846995 C18.3476481,1.95846995 18.2252523,2.08999547 18.2252523,2.25224044 C18.2252523,2.41448541 18.3476481,2.54601093 18.498631,2.54601093 Z M19.4098937,2.54601093 C19.5608766,2.54601093 19.6832724,2.41448541 19.6832724,2.25224044 C19.6832724,2.08999547 19.5608766,1.95846995 19.4098937,1.95846995 C19.2589107,1.95846995 19.1365149,2.08999547 19.1365149,2.25224044 C19.1365149,2.41448541 19.2589107,2.54601093 19.4098937,2.54601093 Z M18.498631,1.56677596 C18.649614,1.56677596 18.7720098,1.43525044 18.7720098,1.27300546 C18.7720098,1.11076049 18.649614,0.979234973 18.498631,0.979234973 C18.3476481,0.979234973 18.2252523,1.11076049 18.2252523,1.27300546 C18.2252523,1.43525044 18.3476481,1.56677596 18.498631,1.56677596 Z M19.4098937,1.56677596 C19.5608766,1.56677596 19.6832724,1.43525044 19.6832724,1.27300546 C19.6832724,1.11076049 19.5608766,0.979234973 19.4098937,0.979234973 C19.2589107,0.979234973 19.1365149,1.11076049 19.1365149,1.27300546 C19.1365149,1.43525044 19.2589107,1.56677596 19.4098937,1.56677596 Z M18.498631,0.587540984 C18.649614,0.587540984 18.7720098,0.456015462 18.7720098,0.293770492 C18.7720098,0.131525521 18.649614,0 18.498631,0 C18.3476481,0 18.2252523,0.131525521 18.2252523,0.293770492 C18.2252523,0.456015462 18.3476481,0.587540984 18.498631,0.587540984 Z M19.4098937,0.587540984 C19.5608766,0.587540984 19.6832724,0.456015462 19.6832724,0.293770492 C19.6832724,0.131525521 19.5608766,0 19.4098937,0 C19.2589107,0 19.1365149,0.131525521 19.1365149,0.293770492 C19.1365149,0.456015462 19.2589107,0.587540984 19.4098937,0.587540984 Z"></path>
                            </g>
                        </g>
                        <g id="UPI" transform="translate(17.000000, 61.000000)">
                            <polygon id="Shape" fill="#128B47" points="37.5252772 20.4588232 43.2194882 13.2563859 37.5252772 6.05535246"></polygon>
                            <polygon id="Shape" fill="#F27930" points="34.8683615 20.4588232 40.5625722 13.2563859 34.8683615 6.05535246"></polygon>
                            <g id="Group" font-size="18.4443329" font-family="Roboto-Regular, Roboto" fill="#1D357F" font-weight="normal">
                                <text id="UPI">
                                    <tspan x="0.37764823" y="19">UPI</tspan>
                                </text>
                            </g>
                        </g>
                        <g id="Button" transform="translate(30.000000, 104.000000)">
                            <rect id="Rectangle-4" fill="#F69A98" x="0" y="0" width="16" height="8" rx="1"></rect>
                            <g id="PAY" transform="translate(4.000000, 2.000000)" font-size="5" font-family="MyriadPro-Regular, Myriad Pro" fill="#F9F9F9" font-weight="normal">
                                <text>
                                    <tspan x="0.195" y="4">PAY</tspan>
                                </text>
                            </g>
                        </g>
                        <g id="Hand" transform="translate(47.500000, 152.000000) rotate(45.000000) translate(-47.500000, -152.000000) translate(11.000000, 122.000000)">
                            <path d="M36.1314364,11.1639355 L36.1176354,11.1782052 C35.7358072,11.564044 35.1221219,11.5718275 34.7471022,11.1954401 L31.5152715,7.95287475 C31.1402518,7.57648736 31.1455882,6.95862641 31.5274164,6.57260232 L31.5414014,6.5585179 C31.9232296,6.17267913 32.5367309,6.16489564 32.9119347,6.54128303 L36.1437653,9.78384838 C36.518785,10.1602358 36.5132646,10.7780967 36.1314364,11.1639355" id="Fill-54" fill="#D8A88A"></path>
                            <path d="M38.1395767,39.4615589 L38.116575,39.5329075 C37.4894567,41.48434 35.31276,42.5225094 33.254752,41.8516466 L10.9640817,34.5861283 C7.69416024,33.3698651 7.91736872,31.6819595 8.54448704,29.730527 L8.56748874,29.6591784 C9.58489988,27.4006687 13.7651366,27.5211275 16.0492973,28.29855 L35.5486654,34.7136293 C37.6066734,35.3843068 38.766695,37.5101264 38.1395767,39.4615589" id="Fill-56" fill="#EDC7B8"></path>
                            <path d="M8.04525817,31.4566089 C7.93264185,31.7260659 7.90669594,32.0298074 7.95729967,32.3252094 C8.04323402,32.8290978 8.3652578,33.5286854 9.30814344,33.9180453 C10.8509134,34.5551796 13.2590992,35.4945729 13.581491,35.4078426 C13.9038828,35.3212975 14.3950151,34.6830513 14.312209,33.6941772 C14.2292189,32.7053032 14.1189947,32.4706866 13.4072302,32.020356 C12.6954656,31.5700254 9.71941381,30.7688818 9.41119105,30.7483112 C9.12928223,30.7295937 8.39009964,30.6310028 8.04525817,31.4566089" id="Fill-57" fill="#E4DBCB"></path>
                            <polyline id="Fill-58" fill="#D8A88A" points="30.4743066 40.9448699 17.724741 28.8604439 19.4616453 29.4325305 33.133119 41.8019805 30.4743066 40.9448699"></polyline>
                            <path d="M42.9237461,6.7191914 L42.882895,6.68638955 L37.3328612,1.11952548 C35.8782337,-0.340064435 33.49857,-0.309857076 32.0179966,1.18679708 L31.9638966,1.24146684 C30.4831393,2.738121 30.4619777,5.13450967 31.9166051,6.59409958 L35.2001436,9.88744294 C35.0409719,10.0073458 34.880328,10.1305844 34.7187641,10.2558615 L29.4622319,4.98347287 C28.0076045,3.52406828 25.6281247,3.55409032 24.1473674,5.05074448 L24.0932674,5.10541423 C22.61251,6.60206839 22.5915325,8.99864238 24.0461599,10.458047 L28.9600588,15.3866648 C28.9118472,15.4352189 28.8636357,15.4824758 28.8154241,15.5312153 L28.5850391,15.7639788 L28.5366435,15.8134595 L21.8819761,9.13874522 C20.4273486,7.67915531 18.0476849,7.70936267 16.5671115,9.20601683 L16.5128275,9.26068658 C15.0322542,10.7573407 15.0110926,13.1537294 16.46572,14.6133193 L23.4510599,21.619388 C23.3090014,21.8056358 23.1704392,21.9902157 23.0353732,22.1731278 L6.93731234,6.02090105 C5.19010331,4.26776233 2.57839842,4.05501357 1.10371351,5.54573745 L1.04979753,5.60022189 C-0.424887379,7.09076044 -0.204071071,9.72028321 1.54313797,11.4732366 L19.3512372,29.3415378 C19.5205297,29.5114774 19.6568837,29.7092151 19.7994943,29.9023198 C19.8263602,29.9388281 19.8558024,29.9731125 19.8876368,30.0049878 L29.6753196,39.8259004 C31.9718092,42.1301844 35.3863654,42.7543463 38.251641,41.5264079 L54.2805128,57.6096951 L70.3769176,41.3388628 L54.4229393,25.330816 C54.8290573,24.5795238 55.1157505,23.8512114 55.257625,23.1330917 C55.6996256,20.8973765 54.5329794,18.3679272 53.1817676,17.0121172 L42.9237461,6.7191914" id="Fill-59" fill="#EDC7B8"></path>
                            <path d="M5.76367367,10.1116816 L5.72411074,10.151711 C4.64100675,11.2465888 3.40185924,11.7717891 2.10345935,10.4689809 L0.981896516,9.34352517 C-0.316319361,8.04071701 0.0412190442,6.63190511 1.12432303,5.53702735 L1.16388596,5.49699797 C2.24698995,4.40212021 3.64549323,4.03592549 4.94389312,5.33854833 L6.06545595,6.46400408 C7.36367183,7.76681225 6.84677766,9.01680386 5.76367367,10.1116816" id="Fill-60" fill="#E4DBCB"></path>
                            <path d="M64.3121977,33.0929952 L46.1207982,51.3843848 C46.0087339,51.4970601 45.8272965,51.4968747 45.7154162,51.3840141 L41.4617581,47.093272 C41.3498778,46.9804113 41.3500618,46.7976846 41.4621261,46.6850093 L59.6535256,28.3936198 C59.7655899,28.2809445 59.9470273,28.2811298 60.0589075,28.3939904 L64.3125657,32.6845473 C64.424446,32.7974079 64.4242619,32.9803199 64.3121977,33.0929952" id="Fill-61" fill="#58BEC7"></path>
                            <path d="M72.223678,39.5679333 L52.5885078,59.3109439 C52.3787323,59.5220248 52.0372031,59.5203569 51.8257715,59.3070521 L44.4271371,51.8439814 C44.2158895,51.630862 44.2146014,51.2869058 44.4245609,51.0758249 L64.059731,31.3328143 C64.2695065,31.1217334 64.6110357,31.1234013 64.8224674,31.336706 L72.2211018,38.7997768 C72.4323494,39.0128962 72.4336375,39.3568524 72.223678,39.5679333" id="Fill-62" fill="#354C6D"></path>
                            <path d="M58.9124613,33.5535219 C58.4007663,33.2207124 58.2545905,32.5358002 58.5860076,32.0213121 C58.9174246,31.5068241 59.6009121,31.3605165 60.1126072,31.693326 C60.6244623,32.0261355 60.7706381,32.7126555 60.4392211,33.2271435 C60.107804,33.7400238 59.4241564,33.8863314 58.9124613,33.5535219 Z" id="Fill-99" fill="#D84B44"></path>
                        </g>
                    </g>
                    <g id="Auto+Driver" transform="translate(115.500000, 108.000000) scale(-1, 1) translate(-115.500000, -108.000000) translate(94.000000, 92.000000)">
                        <g id="Auto">
                            <path d="M42.4459384,14.2583999 L30.6143137,14.2583999 L30.6143137,1.9368068 L11.2526704,1.9368068 C11.1386703,1.93554853 11.0249494,1.92454389 10.912605,1.90389908 L10.8331092,1.90389908 C10.7295847,1.8822389 10.6277237,1.85238227 10.5283754,1.8145781 L10.453296,1.78167038 C10.3808124,1.74982107 10.3100411,1.71372402 10.2413072,1.67354499 L10.1353128,1.61243064 C10.0600393,1.56241876 9.9877644,1.50746622 9.91890756,1.44789201 L9.78641457,1.3209622 L9.7113352,1.24104344 C9.66717087,1.1893313 9.62300654,1.13761915 9.5788422,1.08590701 L9.5788422,1.08590701 C9.35718248,0.786934039 9.21121196,0.43247488 9.15486461,0.0563652754 L37.9014286,0.0563652754 C40.4019773,0.0537445678 42.4337774,2.20389772 42.4459384,4.86559448 L42.4459384,14.2583999 Z" id="Path" fill="#E5E5E5"></path>
                            <path d="M19.7410551,5.94684836 L19.6836415,5.9938594 C18.6715018,6.77361451 18.0721761,8.02284921 18.0721761,9.35279808 C18.0721761,10.682747 18.6715018,11.9319817 19.6836415,12.7117368 L19.7410551,12.7587478 L19.9221289,12.7587478 L19.9221289,14.2866065 L19.3877404,14.2866065 L19.3877404,16.9568335 L16.2079085,16.9568335 C15.7559497,16.9568266 15.3888818,17.3454539 15.3864519,17.8265377 L15.3864519,18.5223011 C15.3888818,19.0033849 15.7559497,19.3920122 16.2079085,19.3920053 L17.4533427,19.3920053 L17.4533427,24.3187621 C17.4533427,24.7082143 17.156747,25.0239277 16.7908777,25.0239277 L12.2507843,25.0239277 C11.884915,25.0239277 11.5883193,24.7082143 11.5883193,24.3187621 L11.5883193,2.40691719 L19.9221289,2.40691719 L19.9221289,5.95625057 L19.7410551,5.94684836 Z" id="Path"></path>
                            <path d="M20.3637722,14.2725032 L20.3637722,2.40691719 L20.3637722,14.2725032 Z" id="Path" stroke="#C1C1C1" stroke-width="0.5"></path>
                            <path d="M5.58638655,21.6814428 L5.55105509,21.6203285 C4.24402896,19.2618364 3.55470715,16.5735713 3.55482726,13.8353006 C3.55482726,13.4733156 3.55482726,13.1113306 3.59457516,12.7493456 L7.55611578,12.7493456 C8.66735725,12.7493569 9.56956257,11.7932009 9.57442577,10.6103434 L9.57442577,1.70645272 L9.71575163,1.83338252 L9.7643324,1.87569245 C9.87103828,1.95512667 9.98324206,2.02584542 10.0999813,2.08724213 L10.1794771,2.13425316 C10.2953917,2.18904556 10.4149631,2.23461446 10.5372082,2.27058517 L10.6299533,2.3034929 C10.7797656,2.35283543 10.933512,2.38745506 11.0892624,2.40691719 L11.1422596,2.40691719 L11.1422596,24.3187621 C11.1422596,24.9678491 11.6365857,25.494038 12.2463679,25.494038 L16.7908777,25.494038 C17.4006599,25.494038 17.894986,24.9678491 17.894986,24.3187621 L17.894986,19.377902 L19.8293838,19.377902 L19.8293838,14.7426136 L20.5095145,14.7426136 L20.5095145,24.3187621 C20.5095145,24.9678491 21.0038406,25.494038 21.6136228,25.494038 L26.0742204,25.494038 C26.6840025,25.494038 27.1783287,24.9678491 27.1783287,24.3187621 L27.1783287,19.377902 L27.1783287,19.377902 L27.1783287,16.9427302 L27.1783287,16.9427302 L27.1783287,16.5666419 C27.1831593,15.5613965 27.947531,14.7477556 28.8919048,14.7426136 L30.168254,14.7426136 L42.4459384,14.7426136 L42.4459384,25.5551524 C41.5689829,23.2392279 39.4566586,21.7241106 37.110887,21.7284539 L34.3815313,21.7284539 C31.3031515,21.72552 28.770406,24.3074574 28.6401681,27.5813281 L11.5309057,27.5813281 L11.4337442,27.5249149 C9.07222184,26.2373554 7.08672903,24.2864582 5.69238095,21.8835903 L5.58638655,21.6814428 Z" id="Path" fill="#F69A98"></path>
                            <path d="M9.39735734,2.48247064 L9.39735734,11.3534535 C9.39259056,12.2693902 8.69878873,13.0120967 7.83835641,13.0223454 L3.97397732,13.0223454 C4.36845744,8.96445222 6.24866131,5.23526804 9.20745071,2.64230817 L9.39735734,2.48247064 Z" id="Path" stroke="#E5E5E5" stroke-width="0.818955863"></path>
                            <path d="M39.5796732,27.5578226 C39.4670848,26.112407 38.3321107,25.0003539 36.9695612,25.0004221 L34.5184407,25.0004221 C33.1550644,24.9980955 32.0188711,26.1113433 31.9083287,27.5578226 L29.0729785,27.5578226 C29.202899,24.5436176 31.5380382,22.1718879 34.3726984,22.1750587 L37.1020542,22.1750587 C39.9367144,22.1718879 42.2718536,24.5436176 42.401774,27.5578226 L39.5796732,27.5578226 Z" id="Path" fill="#F69A98"></path>
                            <path d="M7.69302521,27.7928778 L7.69302521,27.7928778 C7.69302518,29.7894694 6.17247802,31.4080266 4.29678805,31.4080266 C2.42109808,31.4080266 0.900550915,29.7894694 0.900550887,27.7928778 C0.901007326,26.9273847 1.19775664,26.0917315 1.73525677,25.4423259 L5.51572362,25.4423259 C6.70892468,25.4396788 7.68090175,26.4617149 7.69302521,27.7317635 L7.69302521,27.7928778 Z" id="Path" fill="#C1C1C1"></path>
                            <path d="M4.29237162,25.9829528 C3.36411455,25.9907437 2.61616198,26.7953213 2.61860168,27.7834384 C2.62104139,28.7715556 3.37295669,29.5719372 4.3012394,29.5745341 C5.22952211,29.5771311 5.98537936,28.7809677 5.99269841,27.7928778 C5.99387525,27.3124729 5.81511213,26.8513832 5.49598353,26.5116845 C5.17685494,26.1719858 4.74368606,25.9817001 4.29237162,25.9829528 L4.29237162,25.9829528 Z" id="Shape" fill="#FFFFFF"></path>
                            <path d="M1.06395892,23.0259585 L0.0481792717,23.0259585 L0.0481792717,19.1569501 L1.06395892,19.1569501 C2.06766039,19.1569501 2.8813212,20.0230571 2.8813212,21.0914543 C2.8813212,22.1598515 2.06766039,23.0259585 1.06395892,23.0259585 L1.06395892,23.0259585 Z" id="Path" fill="#F69A98"></path>
                            <path d="M8.13466853,27.5578226 C8.03506035,26.0994539 6.8938143,24.9708321 5.52014006,24.9722155 L1.04629318,24.9722155 C1.93494294,23.313174 3.5561684,22.250099 5.34789916,22.1515532 C6.65165943,24.3960616 8.45919441,26.2603322 10.6078711,27.576627 L8.13466853,27.5578226 Z" id="Path" fill="#F69A98"></path>
                            <path d="M39.1380299,27.7928778 C39.1380299,29.786873 37.61946,31.4033255 35.7462092,31.4033255 C33.8729583,31.4033255 32.3543884,29.786873 32.3543884,27.7928778 L32.3543884,27.7928778 L32.3543884,27.7928778 C32.3592572,26.5173113 33.3333568,25.4867338 34.53169,25.4893369 L36.9695612,25.4893369 C38.1668964,25.4893133 39.1395767,26.5183894 39.1468627,27.7928778 L39.1380299,27.7928778 Z" id="Path" fill="#C1C1C1"></path>
                            <path d="M19.9309617,6.41695874 L19.9309617,12.2792352 L19.8867974,12.2792352 C19.0226711,11.5844637 18.5147255,10.4984763 18.5147255,9.34574642 C18.5147255,8.19301651 19.0226711,7.10702917 19.8867974,6.41225764 L19.9309617,6.41695874 Z" id="Path" fill="#C1C1C1"></path>
                            <path d="M19.383324,17.4128406 L19.383324,18.9077916 L16.2034921,18.9077916 C15.9954397,18.9078066 15.826098,18.7296456 15.8236788,18.5081978 L15.8236788,17.8124344 C15.8236719,17.705636 15.8638282,17.6032787 15.9351868,17.5282037 C16.0065455,17.4531287 16.1031676,17.4115841 16.2034921,17.4128406 L19.383324,17.4128406 Z" id="Path" fill="#C1C1C1"></path>
                            <path d="M26.7411018,17.4128406 L26.7411018,18.9077916 L23.5612698,18.9077916 C23.3532175,18.9078066 23.1838758,18.7296456 23.1814566,18.5081978 L23.1814566,17.8124344 C23.1814496,17.705636 23.2216059,17.6032787 23.2929646,17.5282037 C23.3643232,17.4531287 23.4609454,17.4115841 23.5612698,17.4128406 L26.7411018,17.4128406 Z" id="Shape" fill="#C1C1C1"></path>
                            <path d="M35.7462092,25.9829528 C34.817358,25.9881601 34.067192,26.7916098 34.0680174,27.7803454 C34.0688428,28.7690809 34.820349,29.5711103 35.7492074,29.5745603 C36.6780658,29.5780104 37.4348119,28.7815832 37.4421195,27.7928778 C37.4444757,27.3129067 37.2666987,26.8518008 36.9482698,26.5119642 C36.629841,26.1721277 36.1971207,25.9816931 35.7462092,25.9829528 L35.7462092,25.9829528 Z" id="Shape" fill="#FFFFFF"></path>
                        </g>
                    </g>
                    <g id="Bills" transform="translate(109.186465, 26.848973) rotate(-9.000000) translate(-109.186465, -26.848973) translate(96.186465, 11.848973)">
                        <path d="M3.02823529,30 C1.29851207,30 1.60582658e-12,28.7385498 1.60582658e-12,27.0491803 L1.60582658e-12,2.95081967 C1.60582658e-12,1.2625538 1.29851207,1.98951966e-13 3.02823529,1.98951966e-13 L22.2070588,1.98951966e-13 C23.936782,1.98951966e-13 25.2352941,1.2625538 25.2352941,2.95081967 L25.2352941,27.0491803 C25.2352941,28.7385498 23.936782,30 22.2070588,30 L3.02823529,30" id="Fill-1976" fill="#F69A98"></path>
                        <g id="BILLS" transform="translate(4.000000, 1.000000)" font-size="6.144" font-family="Lato-Bold, Lato" fill="#ECECEC" font-weight="bold">
                            <text>
                                <tspan x="0.31495782" y="6.88266603">BILLS</tspan>
                            </text>
                        </g>
                        <polygon id="Fill-1977" fill="#E5E5E5" points="12.8944327 12.4246532 15.4179621 12.4246532 15.4179621 11.4410466 12.8944327 11.4410466"></polygon>
                        <polygon id="Fill-1978" fill="#E5E5E5" points="12.8944327 16.8508827 21.4744327 16.8508827 21.4744327 15.8672761 12.8944327 15.8672761"></polygon>
                        <polygon id="Fill-1979" fill="#E5E5E5" points="4.31443272 20.7853089 21.4744327 20.7853089 21.4744327 19.8017023 4.31443272 19.8017023"></polygon>
                        <polygon id="Fill-1980" fill="#E5E5E5" points="4.31443272 24.7197351 21.4744327 24.7197351 21.4744327 23.7361286 4.31443272 23.7361286"></polygon>
                        <polygon id="Fill-1985" fill="#F5F5F5" points="4.31443272 16.3590794 9.36149154 16.3590794 9.36149154 11.4410466 4.31443272 11.4410466"></polygon>
                    </g>
                    <g id="Merchant" transform="translate(8.000000, 0.000000)">
                        <g id="Body-House" transform="translate(1.117647, 14.987615)">
                            <path d="M33.9014115,1.58768809 C33.8494798,1.58994009 33.7968061,1.59594541 33.7419069,1.59594541 C32.6698873,1.59594541 31.7106338,1.10350883 31.0674221,0.33257535 C30.4271778,1.09450085 29.4731175,1.5786801 28.4100005,1.5786801 C27.3550443,1.5786801 26.4076609,1.10050617 25.7666748,0.346837995 C25.123463,1.10951416 24.1731121,1.59294275 23.1062857,1.59294275 C22.0312986,1.59294275 21.0720451,1.10050617 20.4318009,0.326570026 C19.7885892,1.08849552 18.8352708,1.5786801 17.7684444,1.5786801 C16.7134881,1.5786801 15.7661047,1.10050617 15.1258605,0.346837995 C14.4848744,1.10951416 13.531556,1.59294275 12.4676971,1.59294275 C11.3956775,1.59294275 10.436424,1.10050617 9.7932123,0.329572688 C9.15296808,1.09149819 8.19964965,1.57567744 7.13579078,1.57567744 C6.0808345,1.57567744 5.13345112,1.09750351 4.49246503,0.343835333 C3.85222081,1.1065115 2.89890238,1.58994009 1.83504351,1.58994009 L1.83504351,19.7207643 L0.174711478,19.7207643 L0.174711478,22.1514192 L35.5676786,22.1514192 L35.5676786,19.7207643 L33.9073466,19.7207643 L33.9073466,1.58768809 L33.9014115,1.58768809 Z" id="Fill-1" fill="#F69A98"></path>
                            <polygon id="Path" fill="#E5E5E5" points="24.4513179 5.60449926 32.1802451 5.60449926 32.1802451 12.7005404 24.4513179 12.7005404"></polygon>
                            <polygon id="Path" fill="#E5E5E5" points="3.58588516 5.60449926 11.3177799 5.60449926 11.3177799 12.7005404 3.58588516 12.7005404"></polygon>
                            <polygon id="Path" fill="#CFCFCF" points="13.0678797 5.60449926 22.6663497 5.60449926 22.6663497 19.7267696 13.0678797 19.7267696"></polygon>
                        </g>
                        <g id="Shade">
                            <path d="M5.61604714,13.1004725 L5.61604714,12.560744 C6.0767559,10.4844032 6.54636724,8.40881307 7.01301105,6.33547492 C7.47965486,4.25913411 7.95223373,2.1805413 8.41591001,0.104200489 L4.21982512,0.104200489 C3.56771079,2.1805413 2.90966141,4.25913411 2.25754709,6.33547492 C1.60543276,8.41181574 0.95035091,10.4874059 0.298236585,12.5637467 L0.295269057,12.5637467 L0.295269057,13.1004725 C0.295269057,14.5807849 1.49266669,15.7923591 2.9556581,15.7923591 C4.41939139,15.7923591 5.61604714,14.5807849 5.61604714,13.1004725 Z" id="Fill-2" fill="#F69A98"></path>
                            <path d="M10.9249932,13.1004725 L10.9417743,12.560744 L11.7632285,6.33547492 L12.6070575,0.104200489 L8.4102873,0.104200489 L7.00763478,6.33547492 L5.60501637,12.5637467 L5.60501637,13.1004725 C5.60501637,13.1004725 5.04514655,15.7923591 7.98506986,15.7923591 C10.9249932,15.7923591 10.9249932,13.1004725 10.9249932,13.1004725 Z" id="Fill-2-Copy" fill="#ECECEC"></path>
                            <path d="M30.5766848,13.1004725 L30.5934659,12.560744 L31.4149201,6.33547492 L32.2587491,0.104200489 L28.0619789,0.104200489 L26.6593264,6.33547492 L25.256708,12.5637467 L25.256708,13.1004725 C25.256708,13.1004725 24.6968382,15.7923591 27.6367615,15.7923591 C30.5766848,15.7923591 30.5766848,13.1004725 30.5766848,13.1004725 Z" id="Fill-2-Copy-2" fill="#ECECEC" transform="translate(28.736432, 7.948280) scale(-1, 1) translate(-28.736432, -7.948280) "></path>
                            <path d="M37.5110404,12.4811735 C36.8648611,10.4318566 36.2216494,8.38178912 35.5784376,6.33547492 C34.9263233,4.25913411 34.2682739,2.1805413 33.6139339,0.104200489 L29.4141396,0.104200489 C29.8807835,2.1805413 30.3533623,4.25913411 30.8170386,6.33547492 C31.2836824,8.41181574 31.7473587,10.4874059 32.21697,12.5637467 L32.2229051,12.5637467 L32.2229051,13.0561833 C32.2229051,14.5372463 33.4195608,15.7480698 34.8832941,15.7480698 C36.3462855,15.7480698 37.5429413,14.5372463 37.5429413,13.0561833 L37.5429413,12.4781708 L37.5110404,12.4811735 Z" id="Fill-3" fill="#F69A98"></path>
                            <path d="M21.5813489,12.5637467 L21.5813489,13.050178 C21.5813489,14.531241 22.7780047,15.7420645 24.241738,15.7420645 C25.675796,15.7420645 26.8494534,14.5747796 26.8932244,13.1327512 C26.8932244,13.1034752 26.8843218,13.0764512 26.8843218,13.0471753 L26.8843218,12.4466429 C26.6061161,10.408586 26.3338454,8.37052913 26.0586071,6.33547492 C25.7774338,4.25913411 25.4962605,2.1805413 25.2121197,0.104200489 L21.0130673,0.104200489 C21.1087701,2.1805413 21.2044728,4.25913411 21.2972081,6.33547492 C21.3899434,8.41181574 21.4826786,10.4874059 21.5813489,12.5637467 Z" id="Fill-4" fill="#F69A98"></path>
                            <polygon id="Fill-5" fill="#F7F7F7" points="22.0131243 29.06938 22.9953761 29.06938 22.9953761 26.3039283 22.0131243 26.3039283"></polygon>
                            <path d="M13.5853442,15.7390618 C15.0490774,15.7390618 16.2457332,14.5282383 16.2457332,13.0471753 L16.2457332,12.5637467 L16.2516683,12.5637467 C16.341436,10.4874059 16.4371388,8.41181574 16.529874,6.33547492 C16.6226093,4.25913411 16.7153445,2.1805413 16.8080798,0.104200489 L12.6149624,0.104200489 C12.3367567,2.1805413 12.0526158,4.25913411 11.7744101,6.33547492 C11.4932368,8.41181574 11.2120635,10.4874059 10.9368252,12.5637467 L10.9279226,12.5637467 L10.9279226,13.0471753 C10.9279226,13.0591859 10.925697,13.0681939 10.925697,13.0764512 C10.9427603,14.542501 12.1312553,15.7390618 13.5853442,15.7390618 Z" id="Fill-6" fill="#F69A98"></path>
                            <path d="M19,15.7390618 C20.6764706,15.7390618 21.5929494,14.4325183 21.581762,13.0471753 L21.5929494,12.5637467 L21.3023502,6.33547492 L21.0117511,0.104200489 L16.8054351,0.104200489 C16.5076348,5.55096856 16.8054351,1.66529057 16.5076348,6.33547492 C16.2098345,11.0056593 16.2449449,11.657034 16.2449449,12.5637467 C16.2419774,12.5637467 16.2360424,13.0471753 16.2360424,13.0471753 C16.25088,14.542501 17.3235294,15.7390618 19,15.7390618 Z" id="Fill-6-Copy" fill="#ECECEC"></path>
                        </g>
                    </g>
                    <g id="P2P-Boy" transform="translate(0.000000, 91.000000)">
                        <polyline id="Fill-804" fill="#FBCFCE" points="23.9365746 29.2566197 22.7656722 28.7224225 22.7656722 25.0388169 15.25186 25.0388169 15.25186 28.7224225 14.0762615 29.2243944 14.389337 39.6706761 15.25186 39.6706761 15.25186 41.272338 22.7656722 41.272338 22.7656722 39.6706761 23.6234991 39.6706761 23.9365746 29.2566197"></polyline>
                        <path d="M22.7656722,28.4745352 L15.25186,26.9961972 L15.25186,25.5333521 C16.5420442,26.418 17.9167587,26.9556056 19.0147145,26.9559155 L19.0150276,26.9559155 L19.0156538,26.9559155 C20.1098527,26.9559155 21.4792449,26.422338 22.7656722,25.5429577 L22.7656722,28.4745352" id="Fill-806" fill="#FFBFBD"></path>
                        <path d="M35.8935543,35.0271268 C35.2924494,31.5542254 30.1530018,31.5532958 24.041768,29.2807887 L23.7625046,30.318507 C23.2794291,31.6883944 22.0405893,33.9286761 19.099558,33.9286761 C15.7815838,33.9286761 14.5158195,31.0764225 14.1232228,29.8407042 L13.9723204,29.2807887 C7.86108656,31.5532958 2.72069982,31.5542254 2.12116022,35.0271268 C1.50690608,38.5849296 0.464051565,42.4510423 0.082412523,46.5371549 L37.9316759,46.5371549 C37.5497238,42.4510423 36.5071823,38.5849296 35.8935543,35.0271268 Z" id="Fill-807" fill="#ECECEC"></path>
                        <polyline id="Fill-808" fill="#F69A98" points="20.451418 46.5371549 20.0926335 35.1107887 17.8976611 35.1107887 17.5473297 46.5371549 20.451418 46.5371549"></polyline>
                        <polyline id="Fill-809" fill="#F69A98" points="20.8139595 33.4167887 20.0926335 34.7841972 17.8976611 34.7841972 17.1969982 33.4167887 19.0056354 31.9536338 20.8139595 33.4167887"></polyline>
                        <polyline id="Fill-810" fill="#CFCFCF" points="15.2108471 28.4810423 12.7450645 29.6963099 16.6960773 34.3618592 19.0068877 31.9539437 16.1384899 29.3303662 15.2108471 28.4810423"></polyline>
                        <polyline id="Fill-811" fill="#CFCFCF" points="22.8044936 28.4819718 19.0068877 31.9533239 21.317698 34.3627887 25.2680847 29.6947606 22.8044936 28.4819718"></polyline>
                        <path d="M27.2144751,14.4255211 L27.4690055,11.1530986 C27.4690055,6.87394366 23.3364088,3.40661972 19.0156538,3.40661972 C14.692081,3.40661972 10.5629282,6.87394366 10.5629282,11.1530986 L10.8168324,14.4224225 C10.5751381,14.4800563 10.3569245,14.5897465 10.1744015,14.7443662 C9.836593,15.0294366 9.62338858,15.4508451 9.62338858,15.9249296 L9.62338858,17.5361972 C9.62338858,18.3883099 10.3165378,19.0792958 11.1793738,19.0845634 C11.1793738,23.1254366 16.084954,26.9559155 19.0156538,26.9559155 C21.9469797,26.9559155 26.8525599,23.1260563 26.8525599,19.0848732 C27.711639,19.0789859 28.4069797,18.3886197 28.4069797,17.5368169 L28.4069797,15.9255493 C28.4069797,15.198 27.897919,14.5916056 27.2144751,14.4255211" id="Fill-812" fill="#FBCFCE"></path>
                        <path d="M17.2670142,21.4708205 C17.0992659,21.3280858 16.8519447,21.5702743 17.0224581,21.7154646 C18.1745756,22.6912784 20.4582263,23.1121153 21.3378296,21.5822456 C21.398047,21.4072805 21.1783766,21.2728337 21.0499538,21.4060527 C20.2831044,22.7225879 18.2369436,22.294384 17.2670142,21.4708205 Z" id="Path" fill="#EF5350"></path>
                        <path d="M28.7209945,3.83732394 C28.6618232,3.37315493 28.1834438,3.4431831 27.711639,3.47230986 C26.239558,3.56371831 25.8798343,3.07259155 22.8736832,1.32095775 C19.8781768,-0.424478873 16.8128545,0.271464789 14.7700368,1.77397183 C5.37338858,3.92067606 10.877256,16.5452676 10.877256,16.5452676 C10.877256,16.5452676 10.8428177,9.90033803 13.7487845,7.88005634 C18.6152302,11.1642535 23.5878085,11.3430423 26.4189503,9.38969014 C27.5112707,11.9113239 27.1543646,16.5452676 27.1543646,16.5452676 C27.1543646,16.5452676 29.03407,11.8580282 28.0081215,7.7096338 C28.6367772,6.65611268 28.9135359,5.35098592 28.7209945,3.83732394" id="Fill-814" fill="#AAAAAA"></path>
                        <path d="M17.2701459,13.4063885 C17.2701459,13.4063885 17.3481529,13.6835565 17.015117,13.7340213 C16.6819183,13.7843566 16.4879595,13.5522187 15.4740322,13.5595944 C14.4599421,13.5670994 13.7259603,13.9888036 13.2637814,13.9043075 C12.801114,13.8198113 12.7976941,13.5567476 13.120633,13.3984953 C13.9699152,12.9820964 16.9081221,12.7257613 17.2701459,13.4063885" id="Fill-217" fill="#909090"></path>
                        <path d="M15.0863764,15.7746479 C15.4311819,15.7746479 15.7127072,15.4963707 15.7127072,15.1551075 C15.7127072,14.8138443 15.4311819,14.5352113 15.0863764,14.5352113 C14.7419304,14.5352113 14.4604052,14.8138443 14.4604052,15.1551075 C14.4604052,15.4963707 14.7419304,15.7746479 15.0863764,15.7746479" id="Fill-222" fill="#909090"></path>
                        <path d="M20.7279705,13.4595657 C20.7279705,13.4595657 20.6581739,13.7509783 20.9925142,13.7971762 C21.3266918,13.8433741 21.5133041,13.5963982 22.5264121,13.5842052 C23.5393575,13.5717413 24.2849933,13.9986316 24.7442841,13.9009521 C25.2037376,13.8034082 25.1991821,13.527982 24.8721632,13.3687956 C24.0111759,12.9496276 21.0689813,12.7397726 20.7279705,13.4595657" id="Fill-225" fill="#909090"></path>
                        <path d="M23.5395948,15.1551015 C23.5395948,14.8140415 23.2581396,14.5352113 22.9134438,14.5352113 C22.568748,14.5352113 22.2872928,14.8140415 22.2872928,15.1551015 C22.2872928,15.4958176 22.568748,15.7746479 22.9134438,15.7746479 C23.2581396,15.7746479 23.5395948,15.4958176 23.5395948,15.1551015 Z" id="Fill-230" fill="#909090"></path>
                    </g>
                </g>
                <g id="Notes-+-Coins" transform="translate(50.000000, 179.000000)">
                    <g id="Money-fly-Copy-5" transform="translate(0.000000, 15.129630)">
                        <g id="Group">
                            <path d="M15.8264962,5.26849537 L10.7886174,0.291643519 C10.5387386,0.0447916667 10.1765152,-0.0542476852 9.83343561,0.0293634259 C9.65257576,0.0731597222 9.49085985,0.165231481 9.36289773,0.291643519 C9.24853788,0.404618056 9.16239015,0.544467593 9.11301894,0.700740741 C8.88480303,1.43184028 8.49033712,2.06738426 7.90644697,2.6437037 C7.12658333,3.41362269 6.11094697,3.99690972 5.03636742,4.61354167 C3.89579167,5.26650463 2.71743182,5.94335648 1.75167045,6.8969213 C0.931,7.70864583 0.372299242,8.61144676 0.0448371212,9.65957176 C-0.0654924242,10.0134259 0.0307310606,10.3961458 0.294715909,10.6579282 L5.3325947,15.6347801 C5.58247348,15.8816319 5.94469697,15.9806713 6.28777652,15.8970602 C6.46863636,15.8522685 6.63035227,15.7611921 6.75831439,15.6347801 C6.87267424,15.5218056 6.95882197,15.381956 7.00819318,15.2246875 C7.23691288,14.493588 7.63137879,13.858044 8.21577273,13.2817245 C8.99513258,12.5118056 10.0102652,11.9295139 11.0858523,11.3133796 C12.2254205,10.6594213 13.4042841,9.98256944 14.3695417,9.02900463 C15.1902121,8.21827546 15.7489129,7.31447917 16.0768788,6.26635417 C16.1867045,5.91299769 16.0899773,5.52878472 15.8264962,5.26849537 Z" id="Shape" fill="#FBCFCE"></path>
                            <path d="M7.5694288,12.0004762 L7.56842123,12.0004762 C7.2535538,12.2393651 6.9462432,12.4911938 6.66160304,12.7733813 C6.38804623,13.0436243 6.14068638,13.3283003 5.92556895,13.6189484 L5.58097804,14.0837864 L5.58198562,14.0847817 C5.51901213,14.1818303 5.52959168,14.3122239 5.61523562,14.3968303 C5.71347426,14.493879 5.87418259,14.493879 5.97292501,14.3968303 C5.98803865,14.3814021 6.00012956,14.3649785 6.01020532,14.3470618 L6.33212577,13.9115873 C6.53162577,13.6423396 6.76236062,13.3770734 7.01778107,13.1252447 C7.30040607,12.8460433 7.56237577,12.6305456 7.8812735,12.3911591 L7.88026592,12.3901637 C7.8893341,12.3831961 7.8978985,12.3777216 7.9059591,12.3697586 C8.00470153,12.27271 8.00470153,12.1139484 7.9059591,12.0168998 C7.8147735,11.9253257 7.66867501,11.9213442 7.5694288,12.0004762 Z" id="Shape" fill="#F5F5F5"></path>
                            <path d="M9.03933996,2.86753762 C8.7758589,3.12782697 8.49021117,3.36223669 8.1939839,3.58569734 C8.1733286,3.5971441 8.1526733,3.61008391 8.13504072,3.62849826 C8.03579451,3.72654225 8.03579451,3.88629919 8.13504072,3.98434317 C8.2312642,4.08039641 8.38693466,4.08238715 8.48718845,3.99131076 L8.4892036,3.99230613 C8.80407102,3.75341725 9.11087784,3.50059317 9.39551799,3.21940104 C9.66907481,2.94915799 9.91593087,2.66547743 10.1315521,2.37482928 L10.476143,1.90800058 L10.4751354,1.90700521 C10.5607794,1.80796586 10.5567491,1.66015336 10.4625407,1.56658854 C10.3632945,1.46854456 10.2025862,1.46854456 10.10334,1.56658854 C10.0846998,1.58500289 10.0710975,1.60640336 10.0590066,1.62780382 L9.72449148,2.08069734 C9.52448769,2.35143808 9.29425663,2.61570891 9.03933996,2.86753762 Z" id="Shape" fill="#F5F5F5"></path>
                            <path d="M6.55216806,5.77373242 L6.55216806,5.77993698 L6.53718614,5.77993698 L6.53718614,6.41528596 L7.19387956,6.41528596 C7.7904235,6.41528596 8.09154542,6.69590646 8.20014353,7.04443038 L6.55216806,7.04443038 L6.55216806,7.67977936 L8.20014353,7.67977936 C8.09189699,8.0285512 7.79115093,8.31016468 7.19387956,8.31016468 L6.98913141,8.31016468 L6.986634,8.30768282 L6.98413722,8.31016468 L6.53718614,8.31016468 L6.53718614,8.94551398 L6.72570463,8.94551398 L8.67580877,10.8565243 L9.12525663,10.4048306 L7.59463715,8.90332236 C8.28799272,8.75881668 8.73316295,8.24589291 8.85558792,7.67977936 L9.72826623,7.67977936 L9.72826623,7.04443038 L8.85558792,7.04443038 C8.80599828,6.81587388 8.69849003,6.59973781 8.54846569,6.4090814 L9.72826623,6.4090814 L9.72826623,5.77373242 L6.55216806,5.77373242 Z" id="Path" fill="#FFFFFF" transform="translate(8.132726, 8.315128) rotate(-45.000000) translate(-8.132726, -8.315128) "></path>
                        </g>
                    </g>
                    <g id="Money-fly-Copy-4" transform="translate(26.104430, 12.131501) rotate(79.000000) translate(-26.104430, -12.131501) translate(16.104430, 2.131501)">
                        <g id="Group">
                            <path d="M18.8410669,6.32219444 L12.8435922,0.349972222 C12.5461174,0.05375 12.114899,-0.0650972222 11.706471,0.0352361111 C11.4911616,0.0877916667 11.2986427,0.198277778 11.1463068,0.349972222 C11.0101641,0.485541667 10.9076073,0.653361111 10.8488321,0.840888889 C10.5771465,1.71820833 10.1075442,2.48086111 9.41243687,3.17244444 C8.48402778,4.09634722 7.27493687,4.79629167 5.99567551,5.53625 C4.63784722,6.31980556 3.23503788,7.13202778 2.08532197,8.27630556 C1.10833333,9.250375 0.443213384,10.3337361 0.0533775253,11.5914861 C-0.0779671717,12.0161111 0.036584596,12.475375 0.350852273,12.7895139 L6.34832702,18.7617361 C6.64580177,19.0579583 7.0770202,19.1768056 7.48544823,19.0764722 C7.70075758,19.0227222 7.89327652,18.9134306 8.04561237,18.7617361 C8.18175505,18.6261667 8.28431187,18.4583472 8.34308712,18.269625 C8.61537247,17.3923056 9.08497475,16.6296528 9.78068182,15.9380694 C10.7084912,15.0141667 11.9169823,14.3154167 13.1974432,13.5760556 C14.554072,12.7913056 15.9574811,11.9790833 17.1065972,10.8348056 C18.0835859,9.86193056 18.7487058,8.777375 19.1391414,7.519625 C19.2698864,7.09559722 19.1547348,6.63454167 18.8410669,6.32219444 Z" id="Shape" fill="#FBCFCE"></path>
                            <path d="M9.01122476,14.4005714 L9.01002527,14.4005714 C8.6351831,14.6872381 8.26933714,14.9894325 7.93047981,15.3280575 C7.60481694,15.6523492 7.31034093,15.9939603 7.05424875,16.3427381 L6.64402148,16.9005436 L6.64522098,16.9017381 C6.57025254,17.0181964 6.58284724,17.1746686 6.68480431,17.2761964 C6.80175507,17.3926547 6.99307451,17.3926547 7.11062502,17.2761964 C7.12861744,17.2576825 7.14301138,17.2379742 7.15500633,17.2164742 L7.53824497,16.6939047 C7.77574497,16.3708075 8.05042931,16.0524881 8.35450128,15.7502936 C8.69095961,15.415252 9.0028283,15.1566547 9.38246845,14.8693909 L9.38126896,14.8681964 C9.39206441,14.8598353 9.40226012,14.8532659 9.41185608,14.8437103 C9.52940658,14.727252 9.52940658,14.5367381 9.41185608,14.4202797 C9.30330178,14.3103909 9.12937502,14.3056131 9.01122476,14.4005714 Z" id="Shape" fill="#F5F5F5"></path>
                            <path d="M10.761119,3.44104514 C10.4474511,3.75339236 10.1073943,4.03468403 9.75474274,4.30283681 C9.73015309,4.31657292 9.70556345,4.33210069 9.68457229,4.35419792 C9.56642203,4.47185069 9.56642203,4.66355903 9.68457229,4.78121181 C9.79912405,4.89647569 9.98444602,4.89886458 10.1037958,4.78957292 L10.1061948,4.79076736 C10.4810369,4.50410069 10.8462831,4.20071181 11.1851405,3.86328125 C11.5108033,3.53898958 11.8046796,3.19857292 12.0613715,2.84979514 L12.4715988,2.28960069 L12.4703993,2.28840625 C12.5723564,2.16955903 12.5675584,1.99218403 12.4554056,1.87990625 C12.3372554,1.76225347 12.1459359,1.76225347 12.0277857,1.87990625 C12.005595,1.90200347 11.9894018,1.92768403 11.9750079,1.95336458 L11.5767756,2.49683681 C11.3386758,2.82172569 11.0645912,3.13885069 10.761119,3.44104514 Z" id="Shape" fill="#F5F5F5"></path>
                            <path d="M7.80019989,6.92847924 L7.80019989,6.93592471 L7.78236428,6.93592471 L7.78236428,7.69834349 L8.56414215,7.69834349 C9.27431352,7.69834349 9.63279199,8.03508808 9.76207545,8.45331679 L7.80019989,8.45331679 L7.80019989,9.21573557 L9.76207545,9.21573557 C9.63321052,9.63426178 9.2751795,9.97219795 8.56414215,9.97219795 L8.32039436,9.97219795 L8.31742125,9.96921972 L8.3144489,9.97219795 L7.78236428,9.97219795 L7.78236428,10.7346171 L8.00679104,10.7346171 L10.3283436,13.0278295 L10.8634006,12.485797 L9.04123452,10.6839872 C9.86665783,10.5105804 10.3966224,9.89507182 10.5423664,9.21573557 L11.5812692,9.21573557 L11.5812692,8.45331679 L10.5423664,8.45331679 C10.4833311,8.17904899 10.3553451,7.91968571 10.1767447,7.69089801 L11.5812692,7.69089801 L11.5812692,6.92847924 L7.80019989,6.92847924 Z" id="Path" fill="#FFFFFF" transform="translate(9.681817, 9.978154) rotate(-45.000000) translate(-9.681817, -9.978154) "></path>
                        </g>
                    </g>
                    <path d="M23.3345419,28.6666668 C26.6248806,28.6666668 29.2916667,31.3398334 29.2916667,34.638889 C29.2916667,37.9395984 26.6248961,40.6111112 23.3345419,40.6111112 C20.0431317,40.6111112 17.4166667,37.9429061 17.4166667,34.638889 C17.4166667,31.3364339 20.0431472,28.6666668 23.3345419,28.6666668 Z M21.0954905,31.2206288 L21.0954905,31.2296015 L21.0740808,31.2296015 L21.0740808,32.1484049 L22.01252,32.1484049 C22.8650034,32.1484049 23.2953178,32.5542213 23.4505085,33.0582356 L21.0954905,33.0582356 L21.0954905,33.9770391 L23.4505085,33.9770391 C23.2958202,34.4814119 22.866043,34.8886643 22.01252,34.8886643 L21.7199273,34.8886643 L21.7163584,34.8850752 L21.7127905,34.8886643 L21.0740808,34.8886643 L21.0740808,35.8074682 L21.3434807,35.8074682 L24.1302518,38.5710562 L24.7725295,37.9178439 L22.5852175,35.7464532 C23.5760483,35.5374778 24.2122131,34.7957184 24.3871629,33.9770391 L25.6342525,33.9770391 L25.6342525,33.0582356 L24.3871629,33.0582356 C24.3162974,32.727711 24.1626642,32.415148 23.9482738,32.1394322 L25.6342525,32.1394322 L25.6342525,31.2206288 L21.0954905,31.2206288 Z" id="Combined-Shape" fill="#FBCFCE" transform="translate(23.354167, 34.638889) rotate(-20.000000) translate(-23.354167, -34.638889) "></path>
                </g>
            </g>
        </g>
    </g>
</svg>