<?xml version="1.0" encoding="UTF-8"?>
<svg width="191px" height="58px" viewBox="0 0 191 58" version="1.1" xmlns="http://www.w3.org/2000/svg" xmlns:xlink="http://www.w3.org/1999/xlink">
    <!-- Generator: Sketch 41.1 (35376) - http://www.bohemiancoding.com/sketch -->
    <title>Wallet</title>
    <desc>Created with Sketch.</desc>
    <defs></defs>
    <g id="Page-1" stroke="none" stroke-width="1" fill="none" fill-rule="evenodd">
        <g id="Wallet" transform="translate(-1.000000, 0.000000)">
            <g id="Wallet-2" transform="translate(116.974955, 0.000000)">
                <path d="M67.8323353,21.6533333 L67.8323353,7.09146667 C67.8323353,3.35884444 65.0581078,2.86190824e-16 61.7285749,2.86190824e-16 L44.2116334,0.322222227 L6.02213174,0.322222222 C2.73283832,0.376355556 0,3.39235556 0,7.09146667 L0,50.9343111 C0,54.6656444 2.99611976,58 6.32565269,58 L8.21231138,58 L61.7285749,58 C65.0581078,58 67.8323353,54.6656444 67.8323353,50.9343111 L67.8323353,37.6355556 L69.0119281,37.6355556 C72.3403114,37.6355556 74.7305389,37.0014222 74.7305389,33.2688 L74.7305389,26.1876444 C74.7305389,22.4563111 72.3403114,21.6533333 69.0119281,21.6533333 L67.8323353,21.6533333 Z" id="Shape" fill="#ECECEC"></path>
                <path d="M74.7305389,33.1863111 C74.7305389,35.5011556 73.0565749,37.3777778 70.9917126,37.3777778 L50.8765509,37.3777778 C48.8116886,37.3777778 47.1377246,35.5011556 47.1377246,33.1863111 L47.1377246,26.1025778 C47.1377246,23.7877333 48.8116886,21.9111111 50.8765509,21.9111111 L70.9917126,21.9111111 C73.0565749,21.9111111 74.7305389,23.7877333 74.7305389,26.1025778 L74.7305389,33.1863111 L74.7305389,33.1863111 Z" id="Path" fill="#F69A98"></path>
                <ellipse id="Oval" fill="#ECECEC" cx="52.8862275" cy="30.16" rx="2.3005509" ry="2.32116"></ellipse>
                <path d="M13.2215569,19.14 L13.2215569,40.02" id="Line-2" stroke="#AAAAAA" stroke-width="1.15" stroke-linecap="round" stroke-linejoin="round"></path>
            </g>
            <g id="Wallet-1" transform="translate(38.320259, 29.000000) scale(-1, 1) translate(-38.320259, -29.000000) translate(0.820259, 0.000000)">
                <path d="M67.8323353,21.6533333 L67.8323353,7.09146667 C67.8323353,3.35884444 65.0581078,2.86190824e-16 61.7285749,2.86190824e-16 L44.2116334,0.322222227 L6.02213174,0.322222222 C2.73283832,0.376355556 0,3.39235556 0,7.09146667 L0,50.9343111 C0,54.6656444 2.99611976,58 6.32565269,58 L8.21231138,58 L61.7285749,58 C65.0581078,58 67.8323353,54.6656444 67.8323353,50.9343111 L67.8323353,37.6355556 L69.0119281,37.6355556 C72.3403114,37.6355556 74.7305389,37.0014222 74.7305389,33.2688 L74.7305389,26.1876444 C74.7305389,22.4563111 72.3403114,21.6533333 69.0119281,21.6533333 L67.8323353,21.6533333 Z" id="Shape" fill="#ECECEC"></path>
                <path d="M74.7305389,33.1863111 C74.7305389,35.5011556 73.0565749,37.3777778 70.9917126,37.3777778 L50.8765509,37.3777778 C48.8116886,37.3777778 47.1377246,35.5011556 47.1377246,33.1863111 L47.1377246,26.1025778 C47.1377246,23.7877333 48.8116886,21.9111111 50.8765509,21.9111111 L70.9917126,21.9111111 C73.0565749,21.9111111 74.7305389,23.7877333 74.7305389,26.1025778 L74.7305389,33.1863111 L74.7305389,33.1863111 Z" id="Path" fill="#F69A98"></path>
                <ellipse id="Oval" fill="#ECECEC" cx="52.8862275" cy="30.16" rx="2.3005509" ry="2.32116"></ellipse>
                <path d="M13.5112765,19.14 L13.5112765,40.02" id="Line-1" stroke="#AAAAAA" stroke-width="1.15" stroke-linecap="round" stroke-linejoin="round"></path>
            </g>
            <g id="Coin" transform="translate(87.000000, 9.000000)">
                <g id="Send-&amp;-Request">
                    <g id="Coin-Rupee" transform="translate(0.000000, 11.000000)">
                        <path d="M9.77245509,0.255 C4.52324877,0.255 0.252735907,4.56376954 0.252735907,9.86 C0.252735907,15.1562305 4.52324877,19.465 9.77245509,19.465 C15.0216614,19.465 19.2921743,15.1562305 19.2921743,9.86 C19.2921743,4.56376954 15.0216614,0.255 9.77245509,0.255 L9.77245509,0.255 Z" id="Shape" fill="#F69A98"></path>
                        <path d="M13.3912186,5.8045703 C13.3912186,5.56982421 13.202654,5.3795703 12.9699921,5.3795703 L8.66048291,5.3795703 L6.57475351,5.3795703 C6.34209168,5.3795703 6.153527,5.56982421 6.153527,5.8045703 C6.153527,6.0393164 6.34209168,6.2295703 6.57475351,6.2295703 L8.66048291,6.2295703 C9.28952546,6.2295703 9.88598881,6.54051758 10.2560429,7.0613086 C10.4303541,7.3066797 10.5472198,7.57853027 10.6104655,7.85702148 L6.57475351,7.85702148 C6.34209168,7.85702148 6.153527,8.04727538 6.153527,8.28202148 C6.153527,8.51676758 6.34209168,8.70702148 6.57475351,8.70702148 L10.625665,8.70702148 C10.6106095,8.78040038 10.5920163,8.85309449 10.5681783,8.92433595 C10.3929415,9.44877932 9.99458626,9.83127932 9.44649815,10.0014453 C8.61227222,10.2602637 7.68063762,10.2275586 6.77845599,10.1955176 L6.58890406,10.188877 C6.41202185,10.1797461 6.24945474,10.2894825 6.18363809,10.4559961 C6.11782145,10.6223438 6.16224767,10.8122657 6.29486821,10.9312989 L11.490434,15.5930176 C11.5707303,15.6650684 11.6706071,15.7004297 11.7701547,15.7004297 C11.8863211,15.7004297 12.0018293,15.6522852 12.0850873,15.5578223 C12.2397565,15.3825098 12.224125,15.1138965 12.0502045,14.9578419 L7.71403961,11.0672656 C8.37582595,11.0662695 9.04271308,11.0159668 9.69413331,10.8139258 C10.5082852,10.56125 11.1022804,9.98666989 11.3665342,9.19593747 C11.4198046,9.03656247 11.4527129,8.87245603 11.4758515,8.70702144 L12.9699922,8.70702144 C13.202654,8.70702144 13.3912187,8.51676754 13.3912187,8.28202144 C13.3912187,8.04727535 13.202654,7.85702144 12.9699922,7.85702144 L11.4710798,7.85702144 C11.3987021,7.40298946 11.2200305,6.95912595 10.9408651,6.56608394 C10.8545424,6.44462275 10.7567841,6.33440913 10.6543158,6.22957027 L12.9699922,6.22957027 C13.202654,6.2295703 13.3912186,6.0393164 13.3912186,5.8045703 L13.3912186,5.8045703 Z" id="Shape" fill="#FFFFFF"></path>
                    </g>
                    <g id="Coupon-send" transform="translate(2.000000, 31.000000)">
                        <path d="M12.5880289,0.88149583 C12.5472603,0.889417402 12.5182405,0.930194017 12.5182405,0.995124933 L12.5182405,2.11115752 L0.299401198,2.11115752 L0.299401198,3.15005217 L12.5182405,3.15005217 L12.5182405,4.24167073 C12.5182405,4.3455602 12.5901437,4.39594659 12.6725034,4.33101567 L15.1838273,2.70774277 C15.2660695,2.66878422 15.2660695,2.59008795 15.1838273,2.52515704 L12.6725034,0.901884138 C12.6416038,0.882404863 12.6124666,0.876820804 12.5880289,0.881625692 L12.5880289,0.88149583 Z" id="Shape" fill="#AAAAAA"></path>
                        <path d="M12.6009282,5.52149583 C12.5727037,5.5294174 12.5526132,5.57019402 12.5526132,5.63512493 L12.5526132,6.75115752 L4.09341668,6.75115752 L4.09341668,7.79005217 L12.5526132,7.79005217 L12.5526132,8.88167073 C12.5526132,8.9855602 12.6023923,9.03594659 12.6594105,8.97101567 L14.3980194,7.34774277 C14.4549563,7.30878422 14.4549563,7.23008795 14.3980194,7.16515704 L12.6594105,5.54188414 C12.6380185,5.52240486 12.6178466,5.5168208 12.6009282,5.52162569 L12.6009282,5.52149583 Z" id="Shape-Copy" fill="#AAAAAA"></path>
                        <path d="M2.0239521,7.2368 L2.5988024,7.2368" id="Line" stroke="#AAAAAA" stroke-width="1.0005" stroke-linecap="square"></path>
                    </g>
                    <g id="Coupon-send-Copy" transform="translate(10.000000, 5.000000) scale(-1, 1) translate(-10.000000, -5.000000) translate(2.000000, 0.000000)">
                        <path d="M12.5880289,0.88149583 C12.5472603,0.889417402 12.5182405,0.930194017 12.5182405,0.995124933 L12.5182405,2.11115752 L0.299401198,2.11115752 L0.299401198,3.15005217 L12.5182405,3.15005217 L12.5182405,4.24167073 C12.5182405,4.3455602 12.5901437,4.39594659 12.6725034,4.33101567 L15.1838273,2.70774277 C15.2660695,2.66878422 15.2660695,2.59008795 15.1838273,2.52515704 L12.6725034,0.901884138 C12.6416038,0.882404863 12.6124666,0.876820804 12.5880289,0.881625692 L12.5880289,0.88149583 Z" id="Shape" fill="#AAAAAA"></path>
                        <path d="M12.6009282,5.52149583 C12.5727037,5.5294174 12.5526132,5.57019402 12.5526132,5.63512493 L12.5526132,6.75115752 L4.09341668,6.75115752 L4.09341668,7.79005217 L12.5526132,7.79005217 L12.5526132,8.88167073 C12.5526132,8.9855602 12.6023923,9.03594659 12.6594105,8.97101567 L14.3980194,7.34774277 C14.4549563,7.30878422 14.4549563,7.23008795 14.3980194,7.16515704 L12.6594105,5.54188414 C12.6380185,5.52240486 12.6178466,5.5168208 12.6009282,5.52162569 L12.6009282,5.52149583 Z" id="Shape-Copy" fill="#AAAAAA"></path>
                        <path d="M2.0239521,7.2368 L2.5988024,7.2368" id="Line" stroke="#AAAAAA" stroke-width="1.0005" stroke-linecap="square"></path>
                    </g>
                </g>
            </g>
        </g>
    </g>
</svg>