<?xml version="1.0" encoding="UTF-8"?>
<svg width="800px" height="148px" viewBox="0 0 800 148" version="1.1" xmlns="http://www.w3.org/2000/svg" xmlns:xlink="http://www.w3.org/1999/xlink">
    <!-- Generator: Sketch 41.1 (35376) - http://www.bohemiancoding.com/sketch -->
    <title>Top</title>
    <desc>Created with Sketch.</desc>
    <defs>
        <polygon id="path-1" points="6.70189278 56.3154601 6.70189278 15.5242513 25.6618997 15.5242513 25.6618997 56.3154601"></polygon>
        <mask id="mask-2" maskContentUnits="userSpaceOnUse" maskUnits="objectBoundingBox" x="-0.578870432" y="-0.578870432" width="20.1177478" height="41.9489497">
            <rect x="6.12302234" y="14.9453808" width="20.1177478" height="41.9489497" fill="white"></rect>
            <use xlink:href="#path-1" fill="black"></use>
        </mask>
    </defs>
    <g id="Page-1" stroke="none" stroke-width="1" fill="none" fill-rule="evenodd">
        <g id="Artboard" transform="translate(-2750.000000, -4990.000000)">
            <g id="About-Us-Header" transform="translate(2772.000000, 5001.000000)">
                <g id="Top">
                    <path d="M755.186868,131 C755.553764,131 755.851192,130.821286 755.851192,130.600832 C755.851192,130.380377 755.553764,130.201663 755.186868,130.201663 L0.781244288,130.201663 C0.41434862,130.201663 0.116920914,130.380377 0.116920914,130.600832 C0.116920914,130.821286 0.41434862,131 0.781244288,131 L755.186868,131 Z" id="Line" fill="#E9E9E9"></path>
                    <g id="Merchant" transform="translate(87.222144, 55.883576)">
                        <rect id="Rectangle-7" fill="#C1C1C1" x="20.7778559" y="12.1164241" width="1.15897108" height="6.15384615"></rect>
                        <rect id="Rectangle-7-Copy" fill="#C1C1C1" x="86.7778559" y="12.1164241" width="1.15897108" height="6.15384615"></rect>
                        <g id="Store-Merchant" transform="translate(0.000000, 17.479907)">
                            <g id="Group">
                                <g id="Shine" transform="translate(73.328915, 27.486930)" fill="#ECEBED">
                                    <path d="M12.7986697,0.318971594 C8.74458881,3.88820236 4.57924674,7.34480614 0.320028015,10.6655609 C4.37179092,7.09516898 8.53945093,3.64088741 12.7986697,0.318971594 Z" id="Shape"></path>
                                    <path d="M15.5952669,2.90474808 C11.541186,6.47513995 7.37584396,9.93058262 3.11662523,13.2513373 C7.17070608,9.68094547 11.3360481,6.22782501 15.5952669,2.90474808 Z" id="Shape"></path>
                                    <path d="M18.4811049,14.3822517 C16.3659826,16.3270993 14.1523479,18.1639643 11.8494723,19.8812357 C13.9645946,17.9375492 16.1793883,16.1006842 18.4811049,14.3822517 Z" id="Shape"></path>
                                    <path d="M18.4811049,12.2272445 C16.3659826,14.1720921 14.1523479,16.0089571 11.8494723,17.7262285 C13.9645946,15.7813809 16.1793883,13.945677 18.4811049,12.2272445 Z" id="Shape"></path>
                                    <path d="M8.5846508,2.20460294 C6.46952857,4.14828945 4.25589381,5.98631557 1.95301827,7.70242588 C4.06814049,5.75873937 6.28293423,3.92187435 8.5846508,2.20460294 Z" id="Shape"></path>
                                </g>
                                <g id="Window" transform="translate(4.129222, 0.000000)">
                                    <polygon id="Shape" fill="#ECECEC" points="99.4468796 9.49450549 99.7977568 9.49450549 99.7977568 9.14285714 99.4468796 9.14285714 99.4468796 1.75824176 100.148634 0 0.148633967 0 0.850388353 1.75824176 0.850388353 9.14285714 0.49951116 9.49450549 0.850388353 9.84615385 1.20126555 9.84615385 1.20126555 56.967033 5.41179186 56.967033 27.1661778 56.967033 100.148634 56.967033"></polygon>
                                    <path d="M92.7550385,44.5495053 L37.791729,44.5495053 L37.791729,22.3707783 C38.4987014,23.122012 39.3296837,22.8282529 39.3702476,21.4709235 L39.3806784,20.1879046 L42.1865474,14.5507493 L90.1679502,14.5507493 C90.1679502,14.5507493 91.6830864,18.5017774 92.7550385,21.3932983 C92.6017894,23.0813734 92.7550385,44.5495053 92.7550385,44.5495053 Z" id="Path" fill="#F9F9F9"></path>
                                    <g id="Seller" transform="translate(44.591127, 31.706710)">
                                        <rect id="Rectangle-12" fill="#F69A98" x="4.76345418" y="5.30503979" width="2.0266161" height="6.36604775"></rect>
                                        <rect id="Rectangle-path" fill="#F69A98" x="4.6611844" y="5.14186014" width="2.25691338" height="1.81647877"></rect>
                                        <path d="M3.24628779,7.73590815 L3.24628779,11.7769059 L4.09695606,11.7769059 L4.09695606,5.14186014 L3.97310793,5.14186014 C3.92825178,5.14186014 3.88461812,5.14682292 3.84201888,5.15496189 C3.73255858,5.15893212 3.62225194,5.18722 3.51871604,5.24449054 C3.43220103,5.29153775 2.73509691,5.70305193 2.02887109,6.80052233 C1.37455429,7.8140224 0.724845348,9.40648103 0.514576251,11.7769059 L2.02604995,11.7769059 C2.22494044,9.7646949 2.76123949,8.50613248 3.24628779,7.73590815 L3.24628779,7.73590815 Z" id="Shape" fill="#C1C1C1"></path>
                                        <path d="M7.48232613,11.7769059 L8.3329944,11.7769059 L8.3329944,7.73729773 C8.37427711,7.80270725 8.41584193,7.87039964 8.45759483,7.94295557 C8.90596829,8.72499132 9.37014014,9.9368043 9.55219782,11.7769059 L11.0645179,11.7769059 C10.8544368,9.40638178 10.2044458,7.8140224 9.55012898,6.80052233 C8.84380913,5.70305193 8.14679905,5.29153775 8.06028403,5.24449054 C7.95665409,5.18712074 7.84625341,5.15873361 7.73669908,5.15486263 C7.69428791,5.14672367 7.65084233,5.14186014 7.60617425,5.14186014 L7.48232613,5.14186014 L7.48232613,11.7769059 L7.48232613,11.7769059 Z" id="Shape" fill="#C1C1C1"></path>
                                        <ellipse id="Oval" fill="#C5C5C5" cx="5.78964109" cy="2.24369262" rx="2.1158563" ry="2.23325351"></ellipse>
                                    </g>
                                    <g id="Seller" transform="translate(63.933025, 32.051724)">
                                        <rect id="Rectangle-12" fill="#F69A98" x="4.56120088" y="5.30503979" width="2.08994785" height="6.36604775"></rect>
                                        <rect id="Rectangle-path" fill="#F69A98" x="4.45573518" y="5.14186014" width="2.32744193" height="1.81647877"></rect>
                                        <path d="M2.99662304,7.73590815 L2.99662304,11.7769059 L3.87387469,11.7769059 L3.87387469,5.14186014 L3.74615632,5.14186014 C3.69989841,5.14186014 3.6549012,5.14682292 3.61097073,5.15496189 C3.4980898,5.15893212 3.38433608,5.18722 3.27756468,5.24449054 C3.18834607,5.29153775 2.46945745,5.70305193 1.74116208,6.80052233 C1.06639787,7.8140224 0.396385526,9.40648103 0.17954552,11.7769059 L1.73825277,11.7769059 C1.94335859,9.7646949 2.49641698,8.50613248 2.99662304,7.73590815 L2.99662304,7.73590815 Z" id="Shape" fill="#C1C1C1"></path>
                                        <path d="M7.36503758,11.7769059 L8.24228924,11.7769059 L8.24228924,7.73729773 C8.28486203,7.80270725 8.32772575,7.87039964 8.37078343,7.94295557 C8.83316856,8.72499132 9.31184578,9.9368043 9.49959276,11.7769059 L11.0591728,11.7769059 C10.8425268,9.40638178 10.1722235,7.8140224 9.49745927,6.80052233 C8.76906693,5.70305193 8.05027528,5.29153775 7.96105667,5.24449054 C7.8541883,5.18712074 7.74033759,5.15873361 7.62735968,5.15486263 C7.58362317,5.14672367 7.53881991,5.14186014 7.49275596,5.14186014 L7.36503758,5.14186014 L7.36503758,11.7769059 L7.36503758,11.7769059 Z" id="Shape" fill="#C1C1C1"></path>
                                        <ellipse id="Oval" fill="#C5C5C5" cx="5.61945614" cy="2.24369262" rx="2.18197681" ry="2.23325351"></ellipse>
                                    </g>
                                    <g id="Path">
                                        <use fill="#F9F9F9" fill-rule="evenodd" xlink:href="#path-1"></use>
                                        <use stroke="#AAAAAA" mask="url(#mask-2)" stroke-width="1.15774086" xlink:href="#path-1"></use>
                                    </g>
                                    <rect id="Rectangle-5" fill="#F69A98" x="37.7401349" y="42.9528227" width="55.0542166" height="1.75824176"></rect>
                                    <g id="Top-Head" transform="translate(37.217791, 13.420996)" fill="#F69A98">
                                        <path d="M2.85363291,8.02786647 L2.84552012,9.31088534 C2.79104847,11.0571843 0.283035054,11.0455733 0.218132673,9.31088534 C0.216973702,8.88359942 0.216973702,8.45515239 0.216973702,8.02786647 L1.9403637,3.86415094 L3.03675034,1.13091437 L5.44393328,1.13091437 L2.85363291,8.02786647 Z" id="Path"></path>
                                        <path d="M6.22739862,8.02670537 L6.22739862,9.30972424 L6.22739862,9.30972424 C6.292301,11.0432511 8.80031442,11.0560232 8.85246812,9.30972424 L8.85478606,9.30972424 L8.86289886,8.02670537 L8.88144239,8.02670537 L11.8947672,1.12975327 L9.45629205,1.12975327 L6.22739862,8.02670537 Z" id="Shape"></path>
                                        <path d="M12.0442745,8.02670537 L12.0442745,9.30972424 L12.0442745,9.30972424 C12.1091769,11.0432511 14.6171903,11.0560232 14.669344,9.30972424 L14.6716619,9.30972424 L14.6797747,8.02670537 L14.6983183,8.02670537 L17.0649372,1.12975327 L14.626462,1.12975327 L12.0442745,8.02670537 Z" id="Shape"></path>
                                        <path d="M17.8599914,8.02670537 L17.8599914,9.30972424 L17.8599914,9.30972424 C17.9248937,11.0432511 20.4329072,11.0560232 20.4850609,9.30972424 L20.4873788,9.30972424 L20.4954916,8.02670537 L20.5140351,8.02670537 L22.2351072,1.12975327 L19.796632,1.12975327 L17.8599914,8.02670537 Z" id="Shape"></path>
                                        <path d="M23.7846515,8.02670537 L23.7846515,8.02670537 L23.7846515,9.30972424 L23.7846515,9.30972424 C23.8495539,11.0432511 26.3587263,11.0560232 26.409721,9.30972424 L26.412039,9.30972424 L26.4213107,8.02670537 L26.4386953,8.02670537 L27.2998108,1.12975327 L24.8613357,1.12975327 L23.7846515,8.02670537 Z" id="Shape"></path>
                                        <path d="M29.6003684,8.02670537 L29.6003684,8.02670537 L29.6003684,9.30972424 L29.6015274,9.30972424 C29.6652708,11.0432511 32.1744432,11.0560232 32.2254379,9.30972424 L32.2277559,9.30972424 L32.2370276,8.02670537 L32.2555712,8.02670537 L32.4711398,1.12975327 L30.0326646,1.12975327 L29.6003684,8.02670537 Z" id="Shape"></path>
                                        <path d="M35.0950503,1.12975327 L35.3106189,8.02670537 L35.3106189,8.02670537 L35.3106189,9.30972424 L35.3117779,9.30972424 C35.3755213,11.0432511 37.8846937,11.0560232 37.9356884,9.30972424 L37.9380064,9.30972424 L37.9472781,8.02670537 L37.9658217,8.02670537 L37.5346844,1.12975327 L35.0950503,1.12975327 Z" id="Shape"></path>
                                        <path d="M40.2652203,1.12975327 L41.1251769,8.02670537 L41.1251769,8.02670537 L41.1251769,9.30972424 L41.1263358,9.30972424 C41.1900792,11.0432511 43.6992516,11.0560232 43.7514053,9.30972424 L43.7525643,9.30972424 L43.7618361,8.02670537 L43.7803796,8.02670537 L42.7036955,1.12975327 L40.2652203,1.12975327 Z" id="Shape"></path>
                                        <path d="M45.4365493,1.12975327 L46.9432117,8.02670537 L46.9420527,8.02670537 L46.9420527,9.30972424 L46.9432117,9.30972424 C47.0081141,11.0432511 49.5161275,11.0560232 49.5682812,9.30972424 L49.5705991,9.30972424 L49.5787119,8.02670537 L49.5972555,8.02670537 L47.8761834,1.12975327 L45.4365493,1.12975327 Z" id="Shape"></path>
                                        <path d="M50.5000939,1.12975327 L52.8678719,8.02670537 C52.8667129,8.45399129 52.8667129,8.88243832 52.8667129,9.30972424 C52.9327742,11.0432511 55.4407877,11.0560232 55.4929414,9.30972424 C55.4929414,9.30972424 55.5404599,8.61538462 55.5404599,8.02670537 C55.4929414,7.68650218 53.0081074,1.12975327 53.0081074,1.12975327 L50.5000939,1.12975327 Z" id="Shape"></path>
                                        <polygon id="Rectangle" points="3.00333482 0.255442671 52.6797151 0.255442671 55.268101 7.22206096 0.564665911 7.22206096"></polygon>
                                    </g>
                                </g>
                                <path d="M27.6844542,44.0077677 L12.9377821,44.0077677 L12.9377821,17.6341414 L27.6844542,17.6341414 L27.6844542,44.0077677 L27.6844542,44.0077677 Z M13.2888934,43.6561194 L27.3333429,43.6561194 L27.3333429,17.9857897 L13.2888934,17.9857897 L13.2888934,43.6561194 Z" id="Shape" fill="#AAAAAA"></path>
                                <g id="Open-Copy" transform="translate(15.395561, 21.423372)">
                                    <path d="M2.25524753,2.27152821 L4.35704158,0.513966523 C4.51906574,0.378465797 4.71690211,0.311237931 4.91543385,0.311121821 C5.11767431,0.311237931 5.31921938,0.381136334 5.4825184,0.521281472 L7.55267255,2.29904635 L7.70357058,2.1226748 L5.63330054,0.34502603 C5.42711958,0.167841704 5.17098697,0.078901211 4.91543385,0.078901211 C4.66463251,0.078901211 4.41313578,0.164474506 4.20857739,0.335621095 L2.10666743,2.09329889 L2.25524753,2.27152821" id="Fill-69" fill="#AAAAAA"></path>
                                    <polygon id="Fill-70" fill="#FBCFCE" points="0 6.76021989 9.8311147 6.76021989 9.8311147 2.18879132 0 2.18879132"></polygon>
                                    <path d="M2.91455078,4.83863363 C2.91455078,5.10035369 2.83178794,5.31666012 2.66625977,5.48755941 C2.50073159,5.6584587 2.28564585,5.74390706 2.02099609,5.74390706 C1.75829947,5.74390706 1.5449227,5.6584587 1.38085938,5.48755941 C1.21679605,5.31666012 1.13476562,5.10035369 1.13476562,4.83863363 L1.13476562,4.45484456 C1.13476562,4.19410107 1.21655192,3.97803878 1.38012695,3.8066512 C1.54370199,3.63526363 1.75683462,3.54957113 2.01953125,3.54957113 C2.28418101,3.54957113 2.49951089,3.63526363 2.66552734,3.8066512 C2.8315438,3.97803878 2.91455078,4.19410107 2.91455078,4.45484456 L2.91455078,4.83863363 Z M2.48681641,4.45191488 C2.48681641,4.28589842 2.44531292,4.14966931 2.36230469,4.04322347 C2.27929646,3.93677763 2.16503979,3.8835555 2.01953125,3.8835555 C1.87402271,3.8835555 1.76123087,3.93653349 1.68115234,4.04249105 C1.60107382,4.14844861 1.56103516,4.28492185 1.56103516,4.45191488 L1.56103516,4.83863363 C1.56103516,5.00757978 1.60156209,5.14527372 1.68261719,5.25171956 C1.76367228,5.35816541 1.87646412,5.41138753 2.02099609,5.41138753 C2.1674812,5.41138753 2.28173787,5.35816541 2.36376953,5.25171956 C2.44580119,5.14527372 2.48681641,5.00757978 2.48681641,4.83863363 L2.48681641,4.45191488 Z M3.67626953,4.93970785 L3.67626953,5.71314535 L3.24853516,5.71314535 L3.24853516,3.58033285 L4.09814453,3.58033285 C4.34326294,3.58033285 4.53613211,3.64283222 4.67675781,3.76783285 C4.81738352,3.89283347 4.88769531,4.05738261 4.88769531,4.26148519 C4.88769531,4.46558777 4.81738352,4.62964863 4.67675781,4.75367269 C4.53613211,4.87769675 4.34326294,4.93970785 4.09814453,4.93970785 L3.67626953,4.93970785 Z M3.67626953,4.610118 L4.09814453,4.610118 C4.21728575,4.610118 4.30761688,4.57764762 4.36914062,4.51270589 C4.43066437,4.44776416 4.46142578,4.36500132 4.46142578,4.26441488 C4.46142578,4.1618753 4.43090851,4.07715935 4.36987305,4.01026449 C4.30883759,3.94336962 4.21826232,3.90992269 4.09814453,3.90992269 L3.67626953,3.90992269 L3.67626953,4.610118 Z M6.51367188,4.77564535 L5.63037109,4.77564535 L5.63037109,5.38502035 L6.66308594,5.38502035 L6.66308594,5.71314535 L5.20263672,5.71314535 L5.20263672,3.58033285 L6.66015625,3.58033285 L6.66015625,3.90992269 L5.63037109,3.90992269 L5.63037109,4.4460555 L6.51367188,4.4460555 L6.51367188,4.77564535 Z M8.64941406,5.71314535 L8.22314453,5.71314535 L7.36181641,4.25562581 L7.35302734,4.25709066 L7.35302734,5.71314535 L6.92529297,5.71314535 L6.92529297,3.58033285 L7.35302734,3.58033285 L8.21435547,5.03638753 L8.22314453,5.03492269 L8.22314453,3.58033285 L8.64941406,3.58033285 L8.64941406,5.71314535 Z" id="OPEN" fill="#444444"></path>
                                </g>
                                <g id="Top-Line" transform="translate(0.000000, 5.747764)" fill="#CFCFCF">
                                    <rect id="Rectangle-2" x="0.697777763" y="0" width="107.349998" height="2"></rect>
                                </g>
                                <g id="Design-Board" transform="translate(32.987602, 24.605006)" fill="#FBCFCE">
                                    <path d="M1.21738322,4.73555878 C1.21738322,4.19018868 0.776162933,3.74815675 0.231794216,3.74815675 L0.231794216,1.05613933 C0.776162933,1.05613933 1.21738322,0.613991292 1.21738322,0.0687373004 L5.37959607,0.0687373004 C5.37959607,0.613991292 5.82081636,1.05613933 6.36518508,1.05613933 L6.36518508,3.74815675 C5.82081636,3.74815675 5.37959607,4.19018868 5.37959607,4.73555878 L1.21738322,4.73555878 Z" id="Fill-103"></path>
                                </g>
                            </g>
                        </g>
                        <g id="Store-Name" transform="translate(9.344592, 0.000000)">
                            <polygon id="Rectangle-3" fill="#D9D9D9" points="0 0 90 0 90 14 0 14"></polygon>
                            <g id="Brand-Name" transform="translate(8.000000, 3.000000)" fill="#FFFFFF">
                                <g id="Brand-Store" transform="translate(0.808916, 0.000000)">
                                    <path d="M0.288410654,7.61642412 L0.288410654,0.507049116 L2.6907544,0.507049116 C3.52734713,0.507049116 4.18000987,0.669807905 4.64876222,0.995330366 C5.11751456,1.32085283 5.35188722,1.80750161 5.35188722,2.4552913 C5.35188722,2.78406899 5.26481126,3.0778486 5.09065675,3.33663896 C4.91650223,3.59542932 4.66341231,3.78992607 4.3313794,3.92013505 C4.75781383,4.01128134 5.07763485,4.20659189 5.29085206,4.50607255 C5.50406927,4.80555322 5.61067628,5.15222944 5.61067628,5.54611162 C5.61067628,6.22645356 5.38606915,6.74158513 4.93684815,7.09152177 C4.48762716,7.44145842 3.85124029,7.61642412 3.02766847,7.61642412 L0.288410654,7.61642412 Z M1.7141919,4.47189287 L1.7141919,6.52267412 L3.02766847,6.52267412 C3.40527452,6.52267412 3.69335758,6.44048093 3.89192628,6.27609209 C4.09049498,6.11170324 4.18977784,5.86837885 4.18977784,5.54611162 C4.18977784,5.19780258 4.10514327,4.93169196 3.93587159,4.74777177 C3.76659991,4.56385158 3.4996755,4.47189287 3.13509034,4.47189287 L1.7141919,4.47189287 Z M1.7141919,3.48556474 L2.73958253,3.48556474 C3.12044381,3.48556474 3.41340963,3.40744052 3.61848878,3.25118974 C3.82356793,3.09493896 3.92610597,2.86707666 3.92610597,2.56759599 C3.92610597,2.23881831 3.82275414,1.99630771 3.61604737,1.84005693 C3.40934061,1.68380615 3.1009127,1.60568193 2.6907544,1.60568193 L1.7141919,1.60568193 L1.7141919,3.48556474 Z M8.73020755,4.77462724 L8.73020755,7.61642412 L7.3044263,7.61642412 L7.3044263,0.507049116 L9.98509037,0.507049116 C10.7956413,0.507049116 11.4295868,0.691780342 11.8869458,1.06124834 C12.3443049,1.43071633 12.572981,1.9458479 12.572981,2.60665849 C12.572981,2.97449887 12.4769533,3.29025092 12.2848951,3.55392412 C12.0928368,3.81759731 11.8112641,4.03081132 11.4401685,4.19357255 C11.8600925,4.31727109 12.16201,4.52397475 12.3459302,4.81368974 C12.5298504,5.10340473 12.6218091,5.46147407 12.6218091,5.88790849 L12.6218091,6.41036943 C12.6218091,6.60893813 12.6486643,6.81645559 12.7023755,7.03292802 C12.7560867,7.24940046 12.8480454,7.40971787 12.9782544,7.51388505 L12.9782544,7.61642412 L11.5085279,7.61642412 C11.3783189,7.51225693 11.2936843,7.33810502 11.2546216,7.09396318 C11.2155589,6.84982133 11.1960279,6.61870385 11.1960279,6.4006038 L11.1960279,5.89767412 C11.1960279,5.54285463 11.0991864,5.26697849 10.9055005,5.0700374 C10.7118147,4.87309631 10.4391937,4.77462724 10.0876294,4.77462724 L8.73020755,4.77462724 Z M8.73020755,3.67599443 L9.9606763,3.67599443 C10.3610689,3.67599443 10.6597313,3.59135986 10.8566724,3.42208818 C11.0536135,3.2528165 11.1520826,3.00216796 11.1520826,2.67013505 C11.1520826,2.34461259 11.0536135,2.08582612 10.8566724,1.89376787 C10.6597313,1.70170961 10.3692069,1.60568193 9.98509037,1.60568193 L8.73020755,1.60568193 L8.73020755,3.67599443 Z M18.329231,6.08322099 L15.8341138,6.08322099 L15.3507154,7.61642412 L13.9102857,7.61642412 L16.3565748,0.507049116 L17.8165357,0.507049116 L20.2530591,7.61642412 L18.8126295,7.61642412 L18.329231,6.08322099 Z M16.1856763,4.96505693 L17.9776685,4.96505693 L17.0987623,2.17208818 L17.0694654,2.17208818 L16.1856763,4.96505693 Z M27.264192,7.61642412 L25.8432935,7.61642412 L22.9721998,2.75802568 L22.9429029,2.76290849 L22.9429029,7.61642412 L21.5171217,7.61642412 L21.5171217,0.507049116 L22.9429029,0.507049116 L25.8139967,5.36056474 L25.8432935,5.35568193 L25.8432935,0.507049116 L27.264192,0.507049116 L27.264192,7.61642412 Z M29.1971998,7.61642412 L29.1971998,0.507049116 L31.6386061,0.507049116 C32.507751,0.507049116 33.2238897,0.784552852 33.7870436,1.33956865 C34.3501974,1.89458444 34.6317701,2.60665415 34.6317701,3.47579912 L34.6317701,4.65255693 C34.6317701,5.52495712 34.3501974,6.23702683 33.7870436,6.7887874 C33.2238897,7.34054797 32.507751,7.61642412 31.6386061,7.61642412 L29.1971998,7.61642412 Z M30.6229811,1.60568193 L30.6229811,6.52267412 L31.5653639,6.52267412 C32.0764341,6.52267412 32.4768208,6.3501498 32.7665357,6.00509599 C33.0562507,5.66004218 33.2011061,5.20920034 33.2011061,4.65255693 L33.2011061,3.46603349 C33.2011061,2.91590053 33.0562507,2.46831386 32.7665357,2.12326005 C32.4768208,1.77820625 32.0764341,1.60568193 31.5653639,1.60568193 L30.6229811,1.60568193 Z M43.2780592,5.76095537 C43.2780592,5.4875165 43.1812178,5.26779213 42.9875319,5.10177568 C42.793846,4.93575922 42.454494,4.77951079 41.9694655,4.63302568 C41.1231071,4.38888383 40.483465,4.09917319 40.0505202,3.76388505 C39.6175753,3.42859692 39.4011061,2.96961713 39.4011061,2.38693193 C39.4011061,1.80424672 39.6493133,1.32817727 40.145735,0.958709273 C40.6421568,0.58924128 41.2761023,0.404510054 42.0475905,0.404510054 C42.8288444,0.404510054 43.4652313,0.61202751 43.9567702,1.02706865 C44.4483091,1.44210979 44.6859369,1.95398618 44.6696608,2.56271318 L44.6598952,2.59201005 L43.2780592,2.59201005 C43.2780592,2.26323237 43.1681971,1.99712175 42.9484694,1.79367021 C42.7287417,1.59021867 42.4203138,1.48849443 42.0231764,1.48849443 C41.6423151,1.48849443 41.3477217,1.573129 41.1393874,1.74240068 C40.931053,1.91167236 40.8268874,2.12814155 40.8268874,2.39181474 C40.8268874,2.63270136 40.9383771,2.83045329 41.16136,2.98507646 C41.3843429,3.13969963 41.7692674,3.30327221 42.3161452,3.47579912 C43.1006543,3.69389917 43.6947239,3.98198222 44.0983717,4.34005693 C44.5020196,4.69813164 44.7038405,5.16850454 44.7038405,5.75118974 C44.7038405,6.35991674 44.4637713,6.84005517 43.9836256,7.19161943 C43.50348,7.54318369 42.8695345,7.71896318 42.0817702,7.71896318 C41.3070267,7.71896318 40.6315777,7.51958366 40.055403,7.12081865 C39.4792282,6.72205363 39.1992831,6.16297719 39.2155592,5.44357255 L39.2253249,5.41427568 L40.6120436,5.41427568 C40.6120436,5.83745488 40.7414368,6.14751037 41.0002272,6.34445146 C41.2590176,6.54139255 41.6195283,6.63986162 42.0817702,6.63986162 C42.4691419,6.63986162 42.7653629,6.56010981 42.970442,6.4006038 C43.1755212,6.2410978 43.2780592,6.02788378 43.2780592,5.76095537 Z M51.2950514,1.60568193 L49.2833327,1.60568193 L49.2833327,7.61642412 L47.8575514,7.61642412 L47.8575514,1.60568193 L45.8555983,1.60568193 L45.8555983,0.507049116 L51.2950514,0.507049116 L51.2950514,1.60568193 Z M58.2475905,4.70138505 C58.2475905,5.57378525 57.9717144,6.29480668 57.4199538,6.86447099 C56.8681932,7.4341353 56.1512408,7.71896318 55.2690749,7.71896318 C54.3934195,7.71896318 53.6821636,7.4341353 53.1352858,6.86447099 C52.5884081,6.29480668 52.3149733,5.57378525 52.3149733,4.70138505 L52.3149733,3.42208818 C52.3149733,2.55294321 52.5875943,1.83273557 53.1328444,1.26144365 C53.6780946,0.690151729 54.3885367,0.404510054 55.2641921,0.404510054 C56.146358,0.404510054 56.8641242,0.690151729 57.4175124,1.26144365 C57.9709006,1.83273557 58.2475905,2.55294321 58.2475905,3.42208818 L58.2475905,4.70138505 Z M56.8218093,3.41232255 C56.8218093,2.85893437 56.6834643,2.40483735 56.4067702,2.05001787 C56.1300761,1.69519838 55.7492206,1.5177913 55.2641921,1.5177913 C54.7791636,1.5177913 54.4031908,1.69438459 54.1362624,2.04757646 C53.869334,2.40076833 53.7358718,2.85567915 53.7358718,3.41232255 L53.7358718,4.70138505 C53.7358718,5.26453891 53.8709616,5.7235187 54.1411452,6.07833818 C54.4113289,6.43315766 54.7873017,6.61056474 55.2690749,6.61056474 C55.7573586,6.61056474 56.1382142,6.43315766 56.411653,6.07833818 C56.6850919,5.7235187 56.8218093,5.26453891 56.8218093,4.70138505 L56.8218093,3.41232255 Z M61.3866531,4.77462724 L61.3866531,7.61642412 L59.9608718,7.61642412 L59.9608718,0.507049116 L62.6415359,0.507049116 C63.4520868,0.507049116 64.0860323,0.691780342 64.5433913,1.06124834 C65.0007504,1.43071633 65.2294265,1.9458479 65.2294265,2.60665849 C65.2294265,2.97449887 65.1333988,3.29025092 64.9413406,3.55392412 C64.7492823,3.81759731 64.4677096,4.03081132 64.096614,4.19357255 C64.516538,4.31727109 64.8184555,4.52397475 65.0023757,4.81368974 C65.1862959,5.10340473 65.2782546,5.46147407 65.2782546,5.88790849 L65.2782546,6.41036943 C65.2782546,6.60893813 65.3051098,6.81645559 65.358821,7.03292802 C65.4125322,7.24940046 65.5044909,7.40971787 65.6346999,7.51388505 L65.6346999,7.61642412 L64.1649734,7.61642412 C64.0347644,7.51225693 63.9501298,7.33810502 63.9110671,7.09396318 C63.8720044,6.84982133 63.8524734,6.61870385 63.8524734,6.4006038 L63.8524734,5.89767412 C63.8524734,5.54285463 63.7556319,5.26697849 63.561946,5.0700374 C63.3682602,4.87309631 63.0956392,4.77462724 62.7440749,4.77462724 L61.3866531,4.77462724 Z M61.3866531,3.67599443 L62.6171218,3.67599443 C63.0175144,3.67599443 63.3161768,3.59135986 63.5131179,3.42208818 C63.710059,3.2528165 63.8085281,3.00216796 63.8085281,2.67013505 C63.8085281,2.34461259 63.710059,2.08582612 63.5131179,1.89376787 C63.3161768,1.70170961 63.0256524,1.60568193 62.6415359,1.60568193 L61.3866531,1.60568193 L61.3866531,3.67599443 Z M71.5423171,4.49142412 L68.5979812,4.49142412 L68.5979812,6.52267412 L72.040364,6.52267412 L72.040364,7.61642412 L67.1722,7.61642412 L67.1722,0.507049116 L72.0305984,0.507049116 L72.0305984,1.60568193 L68.5979812,1.60568193 L68.5979812,3.3927913 L71.5423171,3.3927913 L71.5423171,4.49142412 Z" id="BRAND-STORE"></path>
                                </g>
                            </g>
                            <g id="Purchasing" transform="translate(75.944330, 60.515147) scale(-1, 1) translate(-75.944330, -60.515147) translate(68.944330, 46.015147)">
                                <g id="Group">
                                    <path d="M8.90216048,2.89638932 C8.90216048,1.41601256 7.70875491,0.193092622 6.19280729,0.193092622 C4.70911388,0.193092622 3.4834541,1.38383046 3.4834541,2.89638932 C3.51570831,4.37676609 4.70911388,5.59968603 6.19280729,5.59968603 C7.6765007,5.59968603 8.90216048,4.40894819 8.90216048,2.89638932 Z" id="Shape" fill="#F69A98"></path>
                                    <path d="M11.4502426,7.85243328 C11.4502426,7.82025118 11.4179884,7.82025118 11.4179884,7.78806907 C10.9986838,6.79042386 10.0310576,6.11459969 8.90216048,6.11459969 L2.99964103,6.11459969 C1.51594762,6.11459969 0.322542046,7.30533752 0.258033637,8.75353218 L0.258033637,15.2543171 C0.258033637,15.8657771 0.741846707,16.3485086 1.35467659,16.3485086 C1.96750648,16.3485086 2.45131955,15.8657771 2.45131955,15.2543171 L2.45131955,8.81789639 L2.96738683,8.81789639 L2.96738683,16.8634223 L2.96738683,27.5478807 C2.96738683,28.2237049 3.51570831,28.7708006 4.1930466,28.7708006 C4.8703849,28.7708006 5.41870638,28.2237049 5.41870638,27.5478807 L5.41870638,18.2794349 L5.90251945,18.2794349 L6.38633252,18.2794349 L6.38633252,27.5478807 C6.38633252,28.2237049 6.934654,28.7708006 7.61199229,28.7708006 C8.28933059,28.7708006 8.83765207,28.2237049 8.83765207,27.5478807 L8.83765207,16.8956044 L8.83765207,8.85007849 L9.41822775,8.85007849 L11.7727847,14.7072214 C11.9985641,15.2864992 12.6436482,15.543956 13.2242239,15.3186813 C13.8370538,15.0612245 14.0950874,14.4175824 13.869308,13.8704867 L11.4502426,7.85243328 Z" id="Shape" fill="#D9D9D9"></path>
                                </g>
                            </g>
                        </g>
                    </g>
                    <g id="Bank" transform="translate(304.525835, 0.000000)">
                        <polygon id="Rectangle-7" fill="#9E9E9E" points="26.3743255 48.3253091 27.8586521 48.3253091 27.8586521 55.7005299 26.3743255 55.7005299"></polygon>
                        <polygon id="Rectangle-7-Copy" fill="#9E9E9E" points="121.294409 48.3253091 122.778735 48.3253091 122.778735 55.7005299 121.294409 55.7005299"></polygon>
                        <g id="Bank-Boundary" transform="translate(0.000000, 54.838308)">
                            <rect id="Rectangle-7" fill="#ECECEC" x="0" y="0.125176687" width="146.94833" height="75.2272521"></rect>
                            <polygon id="Rectangle-8-Copy-2" fill="#CFCFCF" points="129.136412 19.3007508 133.589391 19.3007508 133.589391 63.5520755 129.136412 63.5520755"></polygon>
                            <polygon id="Rectangle-8-Copy-3" fill="#CFCFCF" points="118.746126 19.3007508 123.199105 19.3007508 123.199105 63.5520755 118.746126 63.5520755"></polygon>
                            <polygon id="Rectangle-8-Copy-4" fill="#CFCFCF" points="25.2335517 19.3007508 29.6865314 19.3007508 29.6865314 63.5520755 25.2335517 63.5520755"></polygon>
                            <polygon id="Rectangle-8-Copy-5" fill="#CFCFCF" points="14.8432657 19.3007508 19.2962454 19.3007508 19.2962454 63.5520755 14.8432657 63.5520755"></polygon>
                            <polygon id="Rectangle-11" fill="#C9C9C9" points="40.0768174 6.02535332 106.871513 6.02535332 106.871513 67.977208 40.0768174 67.977208"></polygon>
                        </g>
                        <g id="Rupees" transform="translate(14.841162, 54.943503)">
                            <polygon id="Rectangle-12" fill="#ECECEC" points="0.00210379379 0.0199815251 117.263903 0.0199815251 117.263903 14.7704231 0.00210379379 14.7704231"></polygon>
                            <path d="M60.5975117,2.98752599 L55.8150646,2.98752599 L55.207762,3.83574253 L58.1653261,3.83574258 C58.9091564,3.83574258 58.923057,4.23423424 59.1846223,4.67175809 L55.5739048,4.67175809 L55.207762,5.53423214 L59.1846223,5.53423214 C58.9230571,5.97175599 58.2951062,6.37098031 57.5625779,6.37098031 L55.8150646,6.37098031 C57.2801214,7.82944958 58.5926179,9.18032032 60.1269121,10.6386203 L61.8273612,10.6386203 L58.244275,7.1850873 C59.6827931,7.1850873 60.2835364,6.48214407 60.5975118,5.53423214 L62.4953931,5.52829129 L62.8999171,4.68201691 L60.5975117,4.67175809 C60.5455873,4.41647942 60.3184929,4.05450451 60.1100849,3.83574258 L62.4953931,3.83574253 L62.8999171,2.98752599 L60.5975117,2.98752599 Z" id="Shape" fill="#F27674"></path>
                        </g>
                        <g id="Pillar-1" transform="translate(32.572781, 68.076524)">
                            <rect id="Rectangle-9" fill="#D9D9D9" x="3.05105687" y="0.162358026" width="8.90595942" height="56.0516781"></rect>
                            <path d="M11.9570163,0.162358026 L3.05105687,0.162358026 C1.30114249,0.162358026 0.0824037297,1.48320284 0.0824037297,3.11244634 C0.0824037297,4.74168985 1.30114249,6.06253466 3.05105687,6.06253466 C3.79600994,6.06253466 4.65526461,5.48201948 4.53538344,4.5874905 L10.4726897,4.5874905 C10.3528085,5.48201948 11.2120632,6.06253466 11.9570163,6.06253466 C13.7069307,6.06253466 14.9256694,4.74168985 14.9256694,3.11244634 C14.9256694,1.48320284 13.7069307,0.162358026 11.9570163,0.162358026" id="Fill-145" fill="#F69A98"></path>
                            <rect id="Rectangle-10" fill="#F69A98" x="1.5667303" y="54.7389919" width="11.8746126" height="4.42513248"></rect>
                        </g>
                        <g id="Pillar-1-Copy" transform="translate(66.683993, 68.076524)">
                            <polygon id="Rectangle-9" fill="#D9D9D9" points="3.07935615 0.162358026 11.9853156 0.162358026 11.9853156 56.2140361 3.07935615 56.2140361"></polygon>
                            <path d="M11.9853156,0.162358026 L3.07935615,0.162358026 C1.32944177,0.162358026 0.110703007,1.48320284 0.110703007,3.11244634 C0.110703007,4.74168985 1.32944177,6.06253466 3.07935615,6.06253466 C3.82430922,6.06253466 4.68356389,5.48201948 4.56368272,4.5874905 L10.500989,4.5874905 C10.3811078,5.48201948 11.2403625,6.06253466 11.9853156,6.06253466 C13.7352299,6.06253466 14.9539687,4.74168985 14.9539687,3.11244634 C14.9539687,1.48320284 13.7352299,0.162358026 11.9853156,0.162358026" id="Fill-145" fill="#F69A98"></path>
                            <rect id="Rectangle-10" fill="#F69A98" x="1.59502958" y="54.7389919" width="11.8746126" height="4.42513248"></rect>
                        </g>
                        <g id="Pillar-1-Copy-2" transform="translate(99.310878, 68.076524)">
                            <rect id="Rectangle-9" fill="#D9D9D9" x="3.10765542" y="0.162358026" width="8.90595942" height="56.0516781"></rect>
                            <path d="M12.0136148,0.162358026 L3.10765542,0.162358026 C1.35774105,0.162358026 0.139002285,1.48320284 0.139002285,3.11244634 C0.139002285,4.74168985 1.35774105,6.06253466 3.10765542,6.06253466 C3.8526085,6.06253466 4.71186317,5.48201948 4.59198199,4.5874905 L10.5292883,4.5874905 C10.4094071,5.48201948 11.2686618,6.06253466 12.0136148,6.06253466 C13.7635292,6.06253466 14.982268,4.74168985 14.982268,3.11244634 C14.982268,1.48320284 13.7635292,0.162358026 12.0136148,0.162358026" id="Fill-145" fill="#F69A98"></path>
                            <polygon id="Rectangle-10" fill="#F69A98" points="1.62332885 54.7389919 13.4979414 54.7389919 13.4979414 59.1641244 1.62332885 59.1641244"></polygon>
                        </g>
                        <g id="Flag" transform="translate(72.038188, 0.000000)">
                            <path d="M1.12006219,0 C0.558313555,0 0.100518402,0.449711461 0.100518402,1.00119677 C0.100518402,1.55268209 0.558599142,2.00239355 1.12006219,2.00239355 C1.68152524,2.00239355 2.13960598,1.55268209 2.13960598,1.00119677 C2.13960598,0.449711461 1.68152524,0 1.12006219,0 L1.12006219,0 Z" id="Shape" fill="#CFCFCF"></path>
                            <polygon id="Rectangle-path" fill="#CFCFCF" points="0.462796296 2.61579344 1.82218802 2.61579344 1.82218802 36.812003 0.462796296 36.812003"></polygon>
                            <path d="M2.48584172,3.34418566 C2.48371245,3.341612 2.48158318,3.33946729 2.47945391,3.33732258 L2.47945391,18.080925 C8.37029332,21.815725 14.2611327,6.97346589 20.1515463,10.7082659 C14.2628361,2.06121944 8.37455186,11.9779349 2.48584172,3.34418566 L2.48584172,3.34418566 Z" id="Shape" fill="#F27674"></path>
                        </g>
                        <g id="Bank-Name" transform="translate(17.000000, 32.000000)">
                            <g id="Bank-Note">
                                <polygon id="Rectangle-3" fill="#D9D9D9" points="0 0 114 0 114 19 0 19"></polygon>
                                <g id="Bank-Top" transform="translate(37.065656, 4.000000)" fill="#FFFFFF">
                                    <g id="Bank">
                                        <g id="BANK">
                                            <path d="M0.838196783,10.5 L0.838196783,0.546875 L4.20147803,0.546875 C5.37270785,0.546875 6.28643569,0.774737305 6.94268897,1.23046875 C7.59894225,1.6862002 7.92706397,2.36750849 7.92706397,3.27441406 C7.92706397,3.73470282 7.80515764,4.14599428 7.56134131,4.50830078 C7.31752499,4.87060728 6.96319911,5.14290273 6.49835303,5.32519531 C7.09536123,5.45280012 7.54311065,5.72623488 7.84161475,6.14550781 C8.14011885,6.56478074 8.28936866,7.05012745 8.28936866,7.6015625 C8.28936866,8.55404122 7.97491868,9.27522542 7.34600928,9.76513672 C6.71709989,10.255048 5.82615828,10.5 4.67315772,10.5 L0.838196783,10.5 Z M2.83429053,6.09765625 L2.83429053,8.96875 L4.67315772,8.96875 C5.2018062,8.96875 5.60512248,8.85367954 5.88311866,8.62353516 C6.16111484,8.39339078 6.30011085,8.05273663 6.30011085,7.6015625 C6.30011085,7.11392985 6.18162245,6.74137499 5.9446421,6.48388672 C5.70766174,6.22639845 5.33396756,6.09765625 4.82354835,6.09765625 L2.83429053,6.09765625 Z M2.83429053,4.71679688 L4.26983741,4.71679688 C4.8030432,4.71679688 5.21319535,4.60742297 5.50030616,4.38867188 C5.78741697,4.16992078 5.93097022,3.85091355 5.93097022,3.43164062 C5.93097022,2.97135187 5.78627766,2.63183703 5.49688819,2.41308594 C5.20749872,2.19433484 4.77569965,2.08496094 4.20147803,2.08496094 L2.83429053,2.08496094 L2.83429053,4.71679688 Z M15.9994859,8.35351562 L12.5063218,8.35351562 L11.829564,10.5 L9.81296244,10.5 L13.2377671,0.546875 L15.2817124,0.546875 L18.6928453,10.5 L16.6762437,10.5 L15.9994859,8.35351562 Z M12.9985093,6.78808594 L15.5072984,6.78808594 L14.2768296,2.87792969 L14.235814,2.87792969 L12.9985093,6.78808594 Z M28.5084312,10.5 L26.5191734,10.5 L22.4996422,3.69824219 L22.4586265,3.70507812 L22.4586265,10.5 L20.4625328,10.5 L20.4625328,0.546875 L22.4586265,0.546875 L26.4781578,7.34179688 L26.5191734,7.33496094 L26.5191734,0.546875 L28.5084312,0.546875 L28.5084312,10.5 Z M34.3181578,6.34375 L33.2107359,6.34375 L33.2107359,10.5 L31.2146422,10.5 L31.2146422,0.546875 L33.2107359,0.546875 L33.2107359,4.61425781 L34.0789,4.61425781 L36.7175719,0.546875 L39.1580016,0.546875 L35.8083922,5.18164062 L39.4246031,10.5 L36.9910094,10.5 L34.3181578,6.34375 Z"></path>
                                        </g>
                                    </g>
                                </g>
                            </g>
                        </g>
                    </g>
                    <g id="Student-Cyclist" transform="translate(556.968717, 59.681913)">
                        <path d="M33.5246906,0.00299549603 C36.9994809,0.00299549603 39.9828699,2.86301392 39.9828699,6.45632776 C39.9828699,10.062944 36.9978152,13.0327073 33.5246906,13.0327073 C29.9183047,13.0327073 26.9365814,10.062944 26.9365814,6.45632776 C26.9365814,2.86467672 29.9183047,0.00299549603 33.5246906,0.00299549603 L33.5246906,0.00299549603 Z" id="Shape" fill="#F69A98"></path>
                        <path d="M31.018844,33.6748375 C31.6783732,32.7101075 32.2973711,32.0192942 31.3179,31.4090461 C30.3400947,30.8037864 29.6254866,31.4622799 29.1077615,32.498616 L25.8963287,37.6479931 C23.4821373,36.452347 20.3055132,35.4330255 17.5470028,35.4330255 C7.96384421,35.4346883 0.166388052,43.2681457 0.166388052,52.9090683 C0.166388052,62.4668508 7.96384421,70.2437729 17.545337,70.2437729 C27.1934605,70.2437729 35.0475528,62.465188 35.0475528,52.9074055 C35.0475528,47.5199289 32.0158505,42.3402783 27.7695254,38.8849626 L31.018844,33.6748375 Z M1.86547057,52.8608073 C1.86547057,44.1821932 8.8453404,37.1255156 17.4248439,37.1255156 C19.7386342,37.1255156 23.3085405,37.8938054 25.0473249,39.2840126 L16.9124849,52.3925771 C16.2079531,53.5285113 16.0063405,53.8499892 16.8956675,54.4259766 C17.7849946,55.0019641 18.2528948,54.2412563 18.711033,53.5026098 L26.7669501,40.5194031 C31.4641366,44.7033731 33.1285886,48.1081569 33.1285886,52.8608073 C33.1285886,61.4584022 26.0851954,68.4495269 17.4248439,68.4495269 C8.8453404,68.4495269 1.86547057,61.4584211 1.86547057,52.8608073 Z" id="Shape" fill="#CFCFCF"></path>
                        <rect id="Rectangle-2" fill="#CFCFCF" x="42.3382647" y="52.8748543" width="25.1464213" height="2.0428703" rx="1.02143515"></rect>
                        <path d="M66.6251502,35.3026066 C56.9736952,35.3026066 49.1229345,43.0878428 49.1229345,52.6522764 C49.1229345,62.2798966 56.9736952,70.1200052 66.6251502,70.1200052 C76.206643,70.1200052 84.0040992,62.2798966 84.0040992,52.6522764 C84.0040992,43.0878428 76.206643,35.3026066 66.6251502,35.3026066 L66.6251502,35.3026066 Z M66.6024601,68.3325812 C57.950547,68.3325812 50.9016241,61.2724261 50.9016241,52.6049715 C50.9016241,44.0031209 57.950547,37.0085699 66.6024601,37.0085699 C75.1812476,37.0085699 82.1647424,44.0031209 82.1647424,52.6049715 C82.1647424,61.2724261 75.1812476,68.3325812 66.6024601,68.3325812 L66.6024601,68.3325812 Z" id="Shape" fill="#CFCFCF"></path>
                        <path d="M65.3125257,15.0971149 C66.5035492,16.2477734 66.5185411,18.1450298 65.3525041,19.3272816 L62.5756702,22.1590324 C61.4162962,23.3412842 59.5206532,23.3629007 58.3396242,22.2055909 L48.6748431,12.7592161 C47.4954799,11.6019063 47.4721592,9.7046499 48.6348647,8.5223981 L51.4166959,5.6939729 C52.5727383,4.5117211 54.4700471,4.49010468 55.6577391,5.64408886 L65.3125257,15.0971149 L65.3125257,15.0971149 Z" id="Shape" fill="#D9D9D9"></path>
                        <path d="M53.8187321,18.3503462 L47.0673778,11.670873 C47.0673778,11.670873 45.4515836,9.68216249 42.9679247,9.9332455 C42.9679247,9.9332455 40.2310693,10.0646068 38.6202724,12.5388553 L31.4091663,23.6995783 L20.5983373,23.6995783 C16.7470836,23.6995783 16.7470836,28.7894135 20.5983373,28.7894135 L33.149893,28.7894135 C34.1460218,28.7894135 35.138819,28.2839218 35.8800854,27.1748333 L40.1127998,20.4770692 L41.5070469,18.3503462 L53.8187321,18.3503462 L53.8187321,18.3503462 Z" id="Shape" fill="#E9E9E9"></path>
                        <path d="M60.8565985,25.3124957 L55.9342564,20.4421504 L40.1127998,20.4770692 L48.9313712,29.1568926 L40.7307994,33.3770825 C40.7307994,33.3770825 37.5025426,34.9899999 37.9972755,37.8450299 L37.9972755,56.2023575 C37.9972755,58.315778 39.6097381,59.9220442 41.7235967,59.9220442 C43.7158542,59.9220442 45.4532494,58.315778 45.4532494,56.2023575 L45.4532494,41.5697051 L59.4940009,33.7512129 C61.1147924,32.8799049 62.2341879,31.0258813 62.2341879,29.0321825 C62.2325221,27.6803249 61.8560588,26.3051882 60.8565985,25.3124957 L60.8565985,25.3124957 Z" id="Shape" fill="#E9E9E9"></path>
                        <rect id="Rectangle-13" fill="#CFCFCF" transform="translate(63.154994, 44.842197) rotate(-20.000000) translate(-63.154994, -44.842197) " x="62.1355447" y="34.4421995" width="2.03889903" height="20.7999942" rx="1.01944951"></rect>
                    </g>
                </g>
            </g>
        </g>
    </g>
</svg>