<?xml version="1.0" encoding="UTF-8"?>
<svg width="800px" height="148px" viewBox="0 0 800 148" version="1.1" xmlns="http://www.w3.org/2000/svg" xmlns:xlink="http://www.w3.org/1999/xlink">
    <!-- Generator: Sketch 41.1 (35376) - http://www.bohemiancoding.com/sketch -->
    <title>Top</title>
    <desc>Created with Sketch.</desc>
    <defs>
        <polygon id="path-1" points="6.70189278 56.3154601 6.70189278 15.5242513 25.6618997 15.5242513 25.6618997 56.3154601"></polygon>
        <mask id="mask-2" maskContentUnits="userSpaceOnUse" maskUnits="objectBoundingBox" x="-0.578870432" y="-0.578870432" width="20.1177478" height="41.9489497">
            <rect x="6.12302234" y="14.9453808" width="20.1177478" height="41.9489497" fill="white"></rect>
            <use xlink:href="#path-1" fill="black"></use>
        </mask>
    </defs>
    <g id="Page-1" stroke="none" stroke-width="1" fill="none" fill-rule="evenodd">
        <g id="Artboard" transform="translate(-2750.000000, -4990.000000)">
            <g id="About-Us-Header" transform="translate(2772.000000, 5001.000000)">
                <g id="Top">
                    <path d="M755.186868,131 C755.553764,131 755.851192,130.821286 755.851192,130.600832 C755.851192,130.380377 755.553764,130.201663 755.186868,130.201663 L0.781244288,130.201663 C0.41434862,130.201663 0.116920914,130.380377 0.116920914,130.600832 C0.116920914,130.821286 0.41434862,131 0.781244288,131 L755.186868,131 Z" id="Line" fill="#E9E9E9"></path>
                    <g id="Merchant" transform="translate(86.222144, 57.883576)">
                        <rect id="Rectangle-7" fill="#C1C1C1" x="21.7778559" y="10.1164241" width="1.15897108" height="6.15384615"></rect>
                        <rect id="Rectangle-7-Copy" fill="#C1C1C1" x="87.7778559" y="10.1164241" width="1.15897108" height="6.15384615"></rect>
                        <g id="Store-Merchant" transform="translate(1.000000, 15.479907)">
                            <g id="Group">
                                <g id="Shine" transform="translate(73.328915, 27.486930)" fill="#ECEBED">
                                    <path d="M12.7986697,0.318971594 C8.74458881,3.88820236 4.57924674,7.34480614 0.320028015,10.6655609 C4.37179092,7.09516898 8.53945093,3.64088741 12.7986697,0.318971594 Z" id="Shape"></path>
                                    <path d="M15.5952669,2.90474808 C11.541186,6.47513995 7.37584396,9.93058262 3.11662523,13.2513373 C7.17070608,9.68094547 11.3360481,6.22782501 15.5952669,2.90474808 Z" id="Shape"></path>
                                    <path d="M18.4811049,14.3822517 C16.3659826,16.3270993 14.1523479,18.1639643 11.8494723,19.8812357 C13.9645946,17.9375492 16.1793883,16.1006842 18.4811049,14.3822517 Z" id="Shape"></path>
                                    <path d="M18.4811049,12.2272445 C16.3659826,14.1720921 14.1523479,16.0089571 11.8494723,17.7262285 C13.9645946,15.7813809 16.1793883,13.945677 18.4811049,12.2272445 Z" id="Shape"></path>
                                    <path d="M8.5846508,2.20460294 C6.46952857,4.14828945 4.25589381,5.98631557 1.95301827,7.70242588 C4.06814049,5.75873937 6.28293423,3.92187435 8.5846508,2.20460294 Z" id="Shape"></path>
                                </g>
                                <g id="Window" transform="translate(4.129222, 0.000000)">
                                    <polygon id="Shape" fill="#ECECEC" points="99.4468796 9.49450549 99.7977568 9.49450549 99.7977568 9.14285714 99.4468796 9.14285714 99.4468796 1.75824176 100.148634 0 0.148633967 0 0.850388353 1.75824176 0.850388353 9.14285714 0.49951116 9.49450549 0.850388353 9.84615385 1.20126555 9.84615385 1.20126555 56.967033 5.41179186 56.967033 27.1661778 56.967033 100.148634 56.967033"></polygon>
                                    <path d="M92.7550385,44.5495053 L37.791729,44.5495053 L37.791729,22.3707783 C38.4987014,23.122012 39.3296837,22.8282529 39.3702476,21.4709235 L39.3806784,20.1879046 L42.1865474,14.5507493 L90.1679502,14.5507493 C90.1679502,14.5507493 91.6830864,18.5017774 92.7550385,21.3932983 C92.6017894,23.0813734 92.7550385,44.5495053 92.7550385,44.5495053 Z" id="Path" fill="#F9F9F9"></path>
                                    <g id="Seller" transform="translate(44.591127, 31.706710)">
                                        <rect id="Rectangle-12" fill="#EF5350" x="4.76345418" y="5.30503979" width="2.0266161" height="6.36604775"></rect>
                                        <rect id="Rectangle-path" fill="#EF5350" x="4.6611844" y="5.14186014" width="2.25691338" height="1.81647877"></rect>
                                        <path d="M3.24628779,7.73590815 L3.24628779,11.7769059 L4.09695606,11.7769059 L4.09695606,5.14186014 L3.97310793,5.14186014 C3.92825178,5.14186014 3.88461812,5.14682292 3.84201888,5.15496189 C3.73255858,5.15893212 3.62225194,5.18722 3.51871604,5.24449054 C3.43220103,5.29153775 2.73509691,5.70305193 2.02887109,6.80052233 C1.37455429,7.8140224 0.724845348,9.40648103 0.514576251,11.7769059 L2.02604995,11.7769059 C2.22494044,9.7646949 2.76123949,8.50613248 3.24628779,7.73590815 L3.24628779,7.73590815 Z" id="Shape" fill="#C1C1C1"></path>
                                        <path d="M7.48232613,11.7769059 L8.3329944,11.7769059 L8.3329944,7.73729773 C8.37427711,7.80270725 8.41584193,7.87039964 8.45759483,7.94295557 C8.90596829,8.72499132 9.37014014,9.9368043 9.55219782,11.7769059 L11.0645179,11.7769059 C10.8544368,9.40638178 10.2044458,7.8140224 9.55012898,6.80052233 C8.84380913,5.70305193 8.14679905,5.29153775 8.06028403,5.24449054 C7.95665409,5.18712074 7.84625341,5.15873361 7.73669908,5.15486263 C7.69428791,5.14672367 7.65084233,5.14186014 7.60617425,5.14186014 L7.48232613,5.14186014 L7.48232613,11.7769059 L7.48232613,11.7769059 Z" id="Shape" fill="#C1C1C1"></path>
                                        <ellipse id="Oval" fill="#9C9C9C" cx="5.78964109" cy="2.24369262" rx="2.1158563" ry="2.23325351"></ellipse>
                                    </g>
                                    <g id="Seller" transform="translate(63.933025, 32.051724)">
                                        <rect id="Rectangle-12" fill="#EF5350" x="4.56120088" y="5.30503979" width="2.08994785" height="6.36604775"></rect>
                                        <rect id="Rectangle-path" fill="#EF5350" x="4.45573518" y="5.14186014" width="2.32744193" height="1.81647877"></rect>
                                        <path d="M2.99662304,7.73590815 L2.99662304,11.7769059 L3.87387469,11.7769059 L3.87387469,5.14186014 L3.74615632,5.14186014 C3.69989841,5.14186014 3.6549012,5.14682292 3.61097073,5.15496189 C3.4980898,5.15893212 3.38433608,5.18722 3.27756468,5.24449054 C3.18834607,5.29153775 2.46945745,5.70305193 1.74116208,6.80052233 C1.06639787,7.8140224 0.396385526,9.40648103 0.17954552,11.7769059 L1.73825277,11.7769059 C1.94335859,9.7646949 2.49641698,8.50613248 2.99662304,7.73590815 L2.99662304,7.73590815 Z" id="Shape" fill="#C1C1C1"></path>
                                        <path d="M7.36503758,11.7769059 L8.24228924,11.7769059 L8.24228924,7.73729773 C8.28486203,7.80270725 8.32772575,7.87039964 8.37078343,7.94295557 C8.83316856,8.72499132 9.31184578,9.9368043 9.49959276,11.7769059 L11.0591728,11.7769059 C10.8425268,9.40638178 10.1722235,7.8140224 9.49745927,6.80052233 C8.76906693,5.70305193 8.05027528,5.29153775 7.96105667,5.24449054 C7.8541883,5.18712074 7.74033759,5.15873361 7.62735968,5.15486263 C7.58362317,5.14672367 7.53881991,5.14186014 7.49275596,5.14186014 L7.36503758,5.14186014 L7.36503758,11.7769059 L7.36503758,11.7769059 Z" id="Shape" fill="#C1C1C1"></path>
                                        <ellipse id="Oval" fill="#9C9C9C" cx="5.61945614" cy="2.24369262" rx="2.18197681" ry="2.23325351"></ellipse>
                                    </g>
                                    <g id="Path">
                                        <use fill="#F9F9F9" fill-rule="evenodd" xlink:href="#path-1"></use>
                                        <use stroke="#AAAAAA" mask="url(#mask-2)" stroke-width="1.15774086" xlink:href="#path-1"></use>
                                    </g>
                                    <rect id="Rectangle-5" fill="#F69A98" x="37.7401349" y="42.9528227" width="55.0542166" height="1.75824176"></rect>
                                    <g id="Top-Head" transform="translate(37.217791, 13.420996)" fill="#F69A98">
                                        <path d="M2.85363291,8.02786647 L2.84552012,9.31088534 C2.79104847,11.0571843 0.283035054,11.0455733 0.218132673,9.31088534 C0.216973702,8.88359942 0.216973702,8.45515239 0.216973702,8.02786647 L1.9403637,3.86415094 L3.03675034,1.13091437 L5.44393328,1.13091437 L2.85363291,8.02786647 Z" id="Path"></path>
                                        <path d="M6.22739862,8.02670537 L6.22739862,9.30972424 L6.22739862,9.30972424 C6.292301,11.0432511 8.80031442,11.0560232 8.85246812,9.30972424 L8.85478606,9.30972424 L8.86289886,8.02670537 L8.88144239,8.02670537 L11.8947672,1.12975327 L9.45629205,1.12975327 L6.22739862,8.02670537 Z" id="Shape"></path>
                                        <path d="M12.0442745,8.02670537 L12.0442745,9.30972424 L12.0442745,9.30972424 C12.1091769,11.0432511 14.6171903,11.0560232 14.669344,9.30972424 L14.6716619,9.30972424 L14.6797747,8.02670537 L14.6983183,8.02670537 L17.0649372,1.12975327 L14.626462,1.12975327 L12.0442745,8.02670537 Z" id="Shape"></path>
                                        <path d="M17.8599914,8.02670537 L17.8599914,9.30972424 L17.8599914,9.30972424 C17.9248937,11.0432511 20.4329072,11.0560232 20.4850609,9.30972424 L20.4873788,9.30972424 L20.4954916,8.02670537 L20.5140351,8.02670537 L22.2351072,1.12975327 L19.796632,1.12975327 L17.8599914,8.02670537 Z" id="Shape"></path>
                                        <path d="M23.7846515,8.02670537 L23.7846515,8.02670537 L23.7846515,9.30972424 L23.7846515,9.30972424 C23.8495539,11.0432511 26.3587263,11.0560232 26.409721,9.30972424 L26.412039,9.30972424 L26.4213107,8.02670537 L26.4386953,8.02670537 L27.2998108,1.12975327 L24.8613357,1.12975327 L23.7846515,8.02670537 Z" id="Shape"></path>
                                        <path d="M29.6003684,8.02670537 L29.6003684,8.02670537 L29.6003684,9.30972424 L29.6015274,9.30972424 C29.6652708,11.0432511 32.1744432,11.0560232 32.2254379,9.30972424 L32.2277559,9.30972424 L32.2370276,8.02670537 L32.2555712,8.02670537 L32.4711398,1.12975327 L30.0326646,1.12975327 L29.6003684,8.02670537 Z" id="Shape"></path>
                                        <path d="M35.0950503,1.12975327 L35.3106189,8.02670537 L35.3106189,8.02670537 L35.3106189,9.30972424 L35.3117779,9.30972424 C35.3755213,11.0432511 37.8846937,11.0560232 37.9356884,9.30972424 L37.9380064,9.30972424 L37.9472781,8.02670537 L37.9658217,8.02670537 L37.5346844,1.12975327 L35.0950503,1.12975327 Z" id="Shape"></path>
                                        <path d="M40.2652203,1.12975327 L41.1251769,8.02670537 L41.1251769,8.02670537 L41.1251769,9.30972424 L41.1263358,9.30972424 C41.1900792,11.0432511 43.6992516,11.0560232 43.7514053,9.30972424 L43.7525643,9.30972424 L43.7618361,8.02670537 L43.7803796,8.02670537 L42.7036955,1.12975327 L40.2652203,1.12975327 Z" id="Shape"></path>
                                        <path d="M45.4365493,1.12975327 L46.9432117,8.02670537 L46.9420527,8.02670537 L46.9420527,9.30972424 L46.9432117,9.30972424 C47.0081141,11.0432511 49.5161275,11.0560232 49.5682812,9.30972424 L49.5705991,9.30972424 L49.5787119,8.02670537 L49.5972555,8.02670537 L47.8761834,1.12975327 L45.4365493,1.12975327 Z" id="Shape"></path>
                                        <path d="M50.5000939,1.12975327 L52.8678719,8.02670537 C52.8667129,8.45399129 52.8667129,8.88243832 52.8667129,9.30972424 C52.9327742,11.0432511 55.4407877,11.0560232 55.4929414,9.30972424 C55.4929414,9.30972424 55.5404599,8.61538462 55.5404599,8.02670537 C55.4929414,7.68650218 53.0081074,1.12975327 53.0081074,1.12975327 L50.5000939,1.12975327 Z" id="Shape"></path>
                                        <polygon id="Rectangle" points="3.00333482 0.255442671 52.6797151 0.255442671 55.268101 7.22206096 0.564665911 7.22206096"></polygon>
                                    </g>
                                </g>
                                <path d="M27.6844542,44.0077677 L12.9377821,44.0077677 L12.9377821,17.6341414 L27.6844542,17.6341414 L27.6844542,44.0077677 L27.6844542,44.0077677 Z M13.2888934,43.6561194 L27.3333429,43.6561194 L27.3333429,17.9857897 L13.2888934,17.9857897 L13.2888934,43.6561194 Z" id="Shape" fill="#AAAAAA"></path>
                                <g id="Open-Copy" transform="translate(15.395561, 21.423372)">
                                    <path d="M2.25524753,2.27152821 L4.35704158,0.513966523 C4.51906574,0.378465797 4.71690211,0.311237931 4.91543385,0.311121821 C5.11767431,0.311237931 5.31921938,0.381136334 5.4825184,0.521281472 L7.55267255,2.29904635 L7.70357058,2.1226748 L5.63330054,0.34502603 C5.42711958,0.167841704 5.17098697,0.078901211 4.91543385,0.078901211 C4.66463251,0.078901211 4.41313578,0.164474506 4.20857739,0.335621095 L2.10666743,2.09329889 L2.25524753,2.27152821" id="Fill-69" fill="#AAAAAA"></path>
                                    <polygon id="Fill-70" fill="#FBCFCE" points="0 6.76021989 9.8311147 6.76021989 9.8311147 2.18879132 0 2.18879132"></polygon>
                                    <text id="OPEN" font-family="OpenSans-Semibold, Open Sans" font-size="2.38865095" font-weight="500" fill="#444444">
                                        <tspan x="1.33722083" y="5.47647767">OPEN</tspan>
                                    </text>
                                </g>
                                <g id="Top-Line" transform="translate(0.000000, 5.747764)" fill="#CFCFCF">
                                    <rect id="Rectangle-2" x="0.697777763" y="0" width="107.349998" height="2"></rect>
                                </g>
                                <g id="Design-Board" transform="translate(32.987602, 24.605006)" fill="#FBCFCE">
                                    <path d="M1.21738322,4.73555878 C1.21738322,4.19018868 0.776162933,3.74815675 0.231794216,3.74815675 L0.231794216,1.05613933 C0.776162933,1.05613933 1.21738322,0.613991292 1.21738322,0.0687373004 L5.37959607,0.0687373004 C5.37959607,0.613991292 5.82081636,1.05613933 6.36518508,1.05613933 L6.36518508,3.74815675 C5.82081636,3.74815675 5.37959607,4.19018868 5.37959607,4.73555878 L1.21738322,4.73555878 Z" id="Fill-103"></path>
                                </g>
                            </g>
                        </g>
                        <g id="Store-Name" transform="translate(0.344592, 0.000000)">
                            <polygon id="Rectangle-3" fill="#D9D9D9" points="0.9332641 0 108.933264 0 108.933264 12 0.9332641 12"></polygon>
                            <g id="Brand-Name" transform="translate(21.000000, 3.000000)" fill="#FFFFFF">
                                <rect id="Rectangle-4" x="0.4332641" y="3.11642412" width="1" height="1"></rect>
                                <rect id="Rectangle-4-Copy" x="66.4332641" y="3.11642412" width="1" height="1"></rect>
                                <g id="Brand-Store" transform="translate(5.808916, 0.000000)">
                                    <path d="M0.35019198,0.501639 L1.98240038,0.501639 C2.73958839,0.501639 3.28678643,0.611956129 3.62401089,0.832593698 C3.96123536,1.05323127 4.12984506,1.40173311 4.12984506,1.87810967 C4.12984506,2.19903705 4.04710721,2.46605464 3.88162904,2.67917048 C3.71615086,2.89228631 3.47796615,3.02642191 3.16706776,3.0815813 L3.16706776,3.11918979 C3.5531835,3.1918999 3.83712475,3.33543753 4.01890002,3.54980698 C4.20067529,3.76417644 4.29156156,4.0543857 4.29156156,4.42044349 C4.29156156,4.91437077 4.11919105,5.30110753 3.77444485,5.58066535 C3.42969865,5.86022318 2.95019521,6 2.33592017,6 L0.35019198,6 L0.35019198,0.501639 Z M1.24903485,2.7731917 L2.11403008,2.7731917 C2.49011685,2.7731917 2.76465607,2.71364552 2.93765598,2.59455138 C3.11065589,2.47545724 3.19715455,2.27300023 3.19715455,1.98717429 C3.19715455,1.72892805 3.10376107,1.54214109 2.91697131,1.42680781 C2.73018155,1.31147454 2.43370427,1.25380877 2.02753056,1.25380877 L1.24903485,1.25380877 L1.24903485,2.7731917 Z M1.24903485,3.50279637 L1.24903485,5.24406938 L2.20429046,5.24406938 C2.58037722,5.24406938 2.86431847,5.17198717 3.05612272,5.02782058 C3.24792697,4.88365398 3.34382765,4.6561249 3.34382765,4.34522651 C3.34382765,4.05940057 3.24604656,3.84754154 3.05048144,3.70964306 C2.85491633,3.57174458 2.55781224,3.50279637 2.15916027,3.50279637 L1.24903485,3.50279637 Z M6.65462826,3.05901621 L7.27892916,3.05901621 C7.6976391,3.05901621 8.0010112,2.98129278 8.18905458,2.82584358 C8.37709797,2.67039439 8.47111825,2.4397313 8.47111825,2.1338474 C8.47111825,1.822949 8.36957634,1.59980754 8.16648949,1.4644163 C7.96340264,1.32902507 7.65752332,1.26133047 7.24884237,1.26133047 L6.65462826,1.26133047 L6.65462826,3.05901621 Z M6.65462826,3.80366428 L6.65462826,6 L5.75578539,6 L5.75578539,0.501639 L7.30901596,0.501639 C8.01856632,0.501639 8.54382629,0.634520997 8.88481162,0.900288977 C9.22579695,1.16605696 9.39628706,1.56721015 9.39628706,2.1037606 C9.39628706,2.78823852 9.0402636,3.27589037 8.32820599,3.5667308 L9.88143656,6 L8.85848568,6 L7.54218858,3.80366428 L6.65462826,3.80366428 Z M14.4107522,6 L13.8616683,4.47309537 L11.7593538,4.47309537 L11.2215524,6 L10.2738185,6 L12.3310028,0.479073907 L13.3088235,0.479073907 L15.3660078,6 L14.4107522,6 Z M13.6247348,3.69836051 L13.1094985,2.20154267 C13.0718898,2.10125287 13.0198653,1.9432988 12.9534233,1.72767572 C12.8869813,1.51205264 12.8412247,1.35409857 12.8161523,1.25380877 C12.7484567,1.56219991 12.649422,1.89941932 12.5190452,2.2654771 L12.0226132,3.69836051 L13.6247348,3.69836051 Z M20.9934913,6 L19.8915626,6 L17.1875123,1.6186111 L17.1574255,1.6186111 L17.1762297,1.86306628 C17.2113311,2.32941387 17.2288816,2.75563914 17.2288816,3.14175488 L17.2288816,6 L16.4127774,6 L16.4127774,0.501639 L17.5034236,0.501639 L20.1999522,4.8604628 L20.2225173,4.8604628 C20.2175028,4.80279617 20.2074739,4.59281754 20.1924305,4.23052062 C20.177387,3.86822371 20.1698654,3.58553606 20.1698654,3.38244921 L20.1698654,0.501639 L20.9934913,0.501639 L20.9934913,6 Z M27.237754,3.19816762 C27.237754,4.10579034 26.9857796,4.79966001 26.4818234,5.27979745 C25.9778671,5.75993488 25.2520305,6 24.3042919,6 L22.7661047,6 L22.7661047,0.501639 L24.4660084,0.501639 C25.3410369,0.501639 26.0217438,0.737316504 26.5081493,1.20867858 C26.9945548,1.68004066 27.237754,2.34319704 27.237754,3.19816762 Z M26.2900201,3.22825441 C26.2900201,1.91195073 25.6745006,1.25380877 24.4434433,1.25380877 L23.6649476,1.25380877 L23.6649476,5.24406938 L24.3042919,5.24406938 C25.6281173,5.24406938 26.2900201,4.57213778 26.2900201,3.22825441 Z M34.2316792,4.50694301 C34.2316792,4.99585581 34.0549211,5.37945855 33.7013995,5.65776276 C33.347878,5.93606696 32.8602261,6.07521698 32.2384293,6.07521698 C31.6166326,6.07521698 31.1076694,5.97868949 30.7115247,5.78563162 L30.7115247,4.93567978 C30.9622492,5.0535203 31.22864,5.14628698 31.5107051,5.21398259 C31.7927702,5.28167821 32.0554001,5.31552551 32.2986029,5.31552551 C32.6546317,5.31552551 32.9172617,5.24783091 33.0865007,5.11243967 C33.2557398,4.97704844 33.340358,4.7952759 33.340358,4.56711659 C33.340358,4.3615225 33.2626346,4.18727158 33.1071854,4.0443586 C32.9517362,3.90144563 32.6308137,3.73220913 32.1444081,3.53664401 C31.6429591,3.33355716 31.2894428,3.10164047 31.0838487,2.84088698 C30.8782546,2.58013349 30.7754591,2.26673255 30.7754591,1.90067477 C30.7754591,1.44184892 30.9384276,1.08081104 31.2643695,0.817550302 C31.5903113,0.554289567 32.0278191,0.422661174 32.5769057,0.422661174 C33.1034272,0.422661174 33.6274336,0.537992719 34.1489405,0.768659267 L33.863116,1.50202479 C33.3742032,1.29643069 32.9379491,1.19363519 32.5543406,1.19363519 C32.2635002,1.19363519 32.0428659,1.25694218 31.8924312,1.38355805 C31.7419965,1.51017393 31.6667803,1.67753003 31.6667803,1.88563137 C31.6667803,2.02854434 31.6968668,2.15077071 31.7570407,2.25231413 C31.8172146,2.35385756 31.9162493,2.44975825 32.0541477,2.54001907 C32.1920462,2.63027989 32.4402598,2.74937225 32.7987958,2.89729971 C33.2024623,3.06528513 33.4983128,3.2219856 33.6863561,3.36740581 C33.8743995,3.51282603 34.0122959,3.67704812 34.1000495,3.86007701 C34.1878031,4.0431059 34.2316792,4.25872575 34.2316792,4.50694301 Z M37.5161539,6 L36.617311,6 L36.617311,1.27261301 L35.000146,1.27261301 L35.000146,0.501639 L39.1333189,0.501639 L39.1333189,1.27261301 L37.5161539,1.27261301 L37.5161539,6 Z M45.0240618,3.2432978 C45.0240618,4.1383843 44.8002935,4.83413438 44.3527503,5.33056891 C43.905207,5.82700344 43.2715103,6.07521698 42.4516412,6.07521698 C41.6217431,6.07521698 40.9842856,5.82888384 40.5392495,5.33621018 C40.0942135,4.84353652 39.8716989,4.14339883 39.8716989,3.2357761 C39.8716989,2.32815338 40.0954671,1.6311497 40.5430104,1.14474415 C40.9905536,0.658338603 41.6292648,0.415139477 42.4591629,0.415139477 C43.2765248,0.415139477 43.9083411,0.662099414 44.3546307,1.1560267 C44.8009203,1.64995398 45.0240618,2.34570406 45.0240618,3.2432978 Z M40.8269545,3.2432978 C40.8269545,3.92025398 40.9635973,4.43360471 41.236887,4.7833654 C41.5101767,5.13312609 41.9150907,5.30800381 42.4516412,5.30800381 C42.9856844,5.30800381 43.388718,5.1350065 43.6607541,4.78900667 C43.9327902,4.44300685 44.0688062,3.92777571 44.0688062,3.2432978 C44.0688062,2.56884887 43.9340438,2.05737854 43.6645149,1.70887148 C43.3949861,1.36036441 42.9932061,1.18611349 42.4591629,1.18611349 C41.9201052,1.18611349 41.5133108,1.36036441 41.2387674,1.70887148 C40.9642241,2.05737854 40.8269545,2.56884887 40.8269545,3.2432978 Z M47.424737,3.05901621 L48.0490379,3.05901621 C48.4677478,3.05901621 48.7711199,2.98129278 48.9591633,2.82584358 C49.1472067,2.67039439 49.241227,2.4397313 49.241227,2.1338474 C49.241227,1.822949 49.1396851,1.59980754 48.9365982,1.4644163 C48.7335114,1.32902507 48.427632,1.26133047 48.0189511,1.26133047 L47.424737,1.26133047 L47.424737,3.05901621 Z M47.424737,3.80366428 L47.424737,6 L46.5258941,6 L46.5258941,0.501639 L48.0791247,0.501639 C48.788675,0.501639 49.313935,0.634520997 49.6549203,0.900288977 C49.9959057,1.16605696 50.1663958,1.56721015 50.1663958,2.1037606 C50.1663958,2.78823852 49.8103723,3.27589037 49.0983147,3.5667308 L50.6515453,6 L49.6285944,6 L48.3122973,3.80366428 L47.424737,3.80366428 Z M54.879993,6 L51.769771,6 L51.769771,0.501639 L54.879993,0.501639 L54.879993,1.26133047 L52.6686139,1.26133047 L52.6686139,2.7581483 L54.7408416,2.7581483 L54.7408416,3.51031807 L52.6686139,3.51031807 L52.6686139,5.23654769 L54.879993,5.23654769 L54.879993,6 Z" id="BRAND-STORE"></path>
                                </g>
                            </g>
                            <g id="Purchasing" transform="translate(85.944330, 58.515147) scale(-1, 1) translate(-85.944330, -58.515147) translate(78.944330, 44.015147)">
                                <g id="Group">
                                    <path d="M8.90216048,2.89638932 C8.90216048,1.41601256 7.70875491,0.193092622 6.19280729,0.193092622 C4.70911388,0.193092622 3.4834541,1.38383046 3.4834541,2.89638932 C3.51570831,4.37676609 4.70911388,5.59968603 6.19280729,5.59968603 C7.6765007,5.59968603 8.90216048,4.40894819 8.90216048,2.89638932 Z" id="Shape" fill="#F27674"></path>
                                    <path d="M11.4502426,7.85243328 C11.4502426,7.82025118 11.4179884,7.82025118 11.4179884,7.78806907 C10.9986838,6.79042386 10.0310576,6.11459969 8.90216048,6.11459969 L2.99964103,6.11459969 C1.51594762,6.11459969 0.322542046,7.30533752 0.258033637,8.75353218 L0.258033637,15.2543171 C0.258033637,15.8657771 0.741846707,16.3485086 1.35467659,16.3485086 C1.96750648,16.3485086 2.45131955,15.8657771 2.45131955,15.2543171 L2.45131955,8.81789639 L2.96738683,8.81789639 L2.96738683,16.8634223 L2.96738683,27.5478807 C2.96738683,28.2237049 3.51570831,28.7708006 4.1930466,28.7708006 C4.8703849,28.7708006 5.41870638,28.2237049 5.41870638,27.5478807 L5.41870638,18.2794349 L5.90251945,18.2794349 L6.38633252,18.2794349 L6.38633252,27.5478807 C6.38633252,28.2237049 6.934654,28.7708006 7.61199229,28.7708006 C8.28933059,28.7708006 8.83765207,28.2237049 8.83765207,27.5478807 L8.83765207,16.8956044 L8.83765207,8.85007849 L9.41822775,8.85007849 L11.7727847,14.7072214 C11.9985641,15.2864992 12.6436482,15.543956 13.2242239,15.3186813 C13.8370538,15.0612245 14.0950874,14.4175824 13.869308,13.8704867 L11.4502426,7.85243328 Z" id="Shape" fill="#D9D9D9"></path>
                                </g>
                            </g>
                        </g>
                    </g>
                    <g id="Bank" transform="translate(304.525835, 0.000000)">
                        <polygon id="Rectangle-7" fill="#9E9E9E" points="26.3743255 48.3253091 27.8586521 48.3253091 27.8586521 55.7005299 26.3743255 55.7005299"></polygon>
                        <polygon id="Rectangle-7-Copy" fill="#9E9E9E" points="121.294409 48.3253091 122.778735 48.3253091 122.778735 55.7005299 121.294409 55.7005299"></polygon>
                        <g id="Bank-Boundary" transform="translate(0.000000, 54.838308)">
                            <rect id="Rectangle-7" fill="#ECECEC" x="0" y="0.125176687" width="146.94833" height="75.2272521"></rect>
                            <polygon id="Rectangle-8-Copy-2" fill="#CFCFCF" points="129.136412 19.3007508 133.589391 19.3007508 133.589391 63.5520755 129.136412 63.5520755"></polygon>
                            <polygon id="Rectangle-8-Copy-3" fill="#CFCFCF" points="118.746126 19.3007508 123.199105 19.3007508 123.199105 63.5520755 118.746126 63.5520755"></polygon>
                            <polygon id="Rectangle-8-Copy-4" fill="#CFCFCF" points="25.2335517 19.3007508 29.6865314 19.3007508 29.6865314 63.5520755 25.2335517 63.5520755"></polygon>
                            <polygon id="Rectangle-8-Copy-5" fill="#CFCFCF" points="14.8432657 19.3007508 19.2962454 19.3007508 19.2962454 63.5520755 14.8432657 63.5520755"></polygon>
                            <polygon id="Rectangle-11" fill="#C9C9C9" points="40.0768174 6.02535332 106.871513 6.02535332 106.871513 67.977208 40.0768174 67.977208"></polygon>
                        </g>
                        <g id="Rupees" transform="translate(14.841162, 54.943503)">
                            <polygon id="Rectangle-12" fill="#ECECEC" points="0.00210379379 0.0199815251 117.263903 0.0199815251 117.263903 14.7704231 0.00210379379 14.7704231"></polygon>
                            <path d="M60.5975117,2.98752599 L55.8150646,2.98752599 L55.207762,3.83574253 L58.1653261,3.83574258 C58.9091564,3.83574258 58.923057,4.23423424 59.1846223,4.67175809 L55.5739048,4.67175809 L55.207762,5.53423214 L59.1846223,5.53423214 C58.9230571,5.97175599 58.2951062,6.37098031 57.5625779,6.37098031 L55.8150646,6.37098031 C57.2801214,7.82944958 58.5926179,9.18032032 60.1269121,10.6386203 L61.8273612,10.6386203 L58.244275,7.1850873 C59.6827931,7.1850873 60.2835364,6.48214407 60.5975118,5.53423214 L62.4953931,5.52829129 L62.8999171,4.68201691 L60.5975117,4.67175809 C60.5455873,4.41647942 60.3184929,4.05450451 60.1100849,3.83574258 L62.4953931,3.83574253 L62.8999171,2.98752599 L60.5975117,2.98752599 Z" id="Shape" fill="#EF5350"></path>
                        </g>
                        <g id="Pillar-1" transform="translate(32.572781, 68.076524)">
                            <rect id="Rectangle-9" fill="#D9D9D9" x="3.05105687" y="0.162358026" width="8.90595942" height="56.0516781"></rect>
                            <path d="M11.9570163,0.162358026 L3.05105687,0.162358026 C1.30114249,0.162358026 0.0824037297,1.48320284 0.0824037297,3.11244634 C0.0824037297,4.74168985 1.30114249,6.06253466 3.05105687,6.06253466 C3.79600994,6.06253466 4.65526461,5.48201948 4.53538344,4.5874905 L10.4726897,4.5874905 C10.3528085,5.48201948 11.2120632,6.06253466 11.9570163,6.06253466 C13.7069307,6.06253466 14.9256694,4.74168985 14.9256694,3.11244634 C14.9256694,1.48320284 13.7069307,0.162358026 11.9570163,0.162358026" id="Fill-145" fill="#F69A98"></path>
                            <rect id="Rectangle-10" fill="#F69A98" x="1.5667303" y="54.7389919" width="11.8746126" height="4.42513248"></rect>
                        </g>
                        <g id="Pillar-1-Copy" transform="translate(66.683993, 68.076524)">
                            <polygon id="Rectangle-9" fill="#D9D9D9" points="3.07935615 0.162358026 11.9853156 0.162358026 11.9853156 56.2140361 3.07935615 56.2140361"></polygon>
                            <path d="M11.9853156,0.162358026 L3.07935615,0.162358026 C1.32944177,0.162358026 0.110703007,1.48320284 0.110703007,3.11244634 C0.110703007,4.74168985 1.32944177,6.06253466 3.07935615,6.06253466 C3.82430922,6.06253466 4.68356389,5.48201948 4.56368272,4.5874905 L10.500989,4.5874905 C10.3811078,5.48201948 11.2403625,6.06253466 11.9853156,6.06253466 C13.7352299,6.06253466 14.9539687,4.74168985 14.9539687,3.11244634 C14.9539687,1.48320284 13.7352299,0.162358026 11.9853156,0.162358026" id="Fill-145" fill="#F69A98"></path>
                            <rect id="Rectangle-10" fill="#F69A98" x="1.59502958" y="54.7389919" width="11.8746126" height="4.42513248"></rect>
                        </g>
                        <g id="Pillar-1-Copy-2" transform="translate(99.310878, 68.076524)">
                            <rect id="Rectangle-9" fill="#D9D9D9" x="3.10765542" y="0.162358026" width="8.90595942" height="56.0516781"></rect>
                            <path d="M12.0136148,0.162358026 L3.10765542,0.162358026 C1.35774105,0.162358026 0.139002285,1.48320284 0.139002285,3.11244634 C0.139002285,4.74168985 1.35774105,6.06253466 3.10765542,6.06253466 C3.8526085,6.06253466 4.71186317,5.48201948 4.59198199,4.5874905 L10.5292883,4.5874905 C10.4094071,5.48201948 11.2686618,6.06253466 12.0136148,6.06253466 C13.7635292,6.06253466 14.982268,4.74168985 14.982268,3.11244634 C14.982268,1.48320284 13.7635292,0.162358026 12.0136148,0.162358026" id="Fill-145" fill="#F69A98"></path>
                            <polygon id="Rectangle-10" fill="#F69A98" points="1.62332885 54.7389919 13.4979414 54.7389919 13.4979414 59.1641244 1.62332885 59.1641244"></polygon>
                        </g>
                        <g id="Flag" transform="translate(72.038188, 0.000000)">
                            <path d="M1.12006219,0 C0.558313555,0 0.100518402,0.449711461 0.100518402,1.00119677 C0.100518402,1.55268209 0.558599142,2.00239355 1.12006219,2.00239355 C1.68152524,2.00239355 2.13960598,1.55268209 2.13960598,1.00119677 C2.13960598,0.449711461 1.68152524,0 1.12006219,0 L1.12006219,0 Z" id="Shape" fill="#CFCFCF"></path>
                            <polygon id="Rectangle-path" fill="#CFCFCF" points="0.462796296 2.61579344 1.82218802 2.61579344 1.82218802 36.812003 0.462796296 36.812003"></polygon>
                            <path d="M2.48584172,3.34418566 C2.48371245,3.341612 2.48158318,3.33946729 2.47945391,3.33732258 L2.47945391,18.080925 C8.37029332,21.815725 14.2611327,6.97346589 20.1515463,10.7082659 C14.2628361,2.06121944 8.37455186,11.9779349 2.48584172,3.34418566 L2.48584172,3.34418566 Z" id="Shape" fill="#EF5350"></path>
                        </g>
                        <g id="Bank-Name" transform="translate(17.000000, 32.000000)">
                            <g id="Bank-Note">
                                <polygon id="Rectangle-3" fill="#D9D9D9" points="0 0 114 0 114 19 0 19"></polygon>
                                <g id="Bank-Top" transform="translate(30.065656, 4.000000)" fill="#FFFFFF">
                                    <g id="Bank">
                                        <rect id="Rectangle-4" x="0.0843885208" y="5.32530911" width="2.09328106" height="2.06506182"></rect>
                                        <polygon id="Rectangle-4-Copy" points="52.416415 5.32530911 54.5096961 5.32530911 54.5096961 7.39037094 52.416415 7.39037094"></polygon>
                                        <g transform="translate(8.000000, 0.000000)" id="BANK">
                                            <path d="M0.159527138,0.93970808 L3.19778689,0.93970808 C4.60724777,0.93970808 5.62582467,1.14505692 6.25354814,1.55576075 C6.88127161,1.96646458 7.19512864,2.61518022 7.19512864,3.50192713 C7.19512864,4.09931453 7.04111701,4.59635205 6.73308914,4.99305462 C6.42506126,5.38975718 5.98169446,5.6394427 5.40297542,5.74211866 L5.40297542,5.81212464 C6.12170713,5.94747022 6.65024703,6.21465706 6.98861098,6.61369317 C7.32697493,7.01272928 7.49615437,7.55293673 7.49615437,8.23433172 C7.49615437,9.15374826 7.17529682,9.87363594 6.53357208,10.3940164 C5.89184734,10.9143968 4.99927996,11.1745831 3.85584315,11.1745831 L0.159527138,11.1745831 L0.159527138,0.93970808 Z M1.83267018,5.16806958 L3.44280784,5.16806958 C4.14287119,5.16806958 4.65390977,5.05722788 4.97593891,4.83554115 C5.29796805,4.61385442 5.45898021,4.23699264 5.45898021,3.70494449 C5.45898021,3.22423432 5.28513375,2.87654141 4.93743562,2.66185531 C4.58973749,2.44716922 4.03786249,2.33982778 3.28179407,2.33982778 L1.83267018,2.33982778 L1.83267018,5.16806958 Z M1.83267018,6.52618569 L1.83267018,9.7674628 L3.6108222,9.7674628 C4.31088555,9.7674628 4.83942545,9.633286 5.19645776,9.36492838 C5.55349007,9.09657076 5.73200355,8.67303879 5.73200355,8.09431975 C5.73200355,7.56227161 5.54998981,7.1679085 5.18595687,6.91121861 C4.82192392,6.65452871 4.26888217,6.52618569 3.52681502,6.52618569 L1.83267018,6.52618569 Z M16.284239,11.1745831 L15.2621516,8.3323401 L11.3488171,8.3323401 L10.3477315,11.1745831 L8.58358064,11.1745831 L12.412908,0.897704489 L14.2330636,0.897704489 L18.062391,11.1745831 L16.284239,11.1745831 Z M14.8211139,6.89021681 L13.8620319,4.1039786 C13.7920256,3.91729504 13.6951849,3.62327285 13.5715071,3.22190319 C13.4478292,2.82053354 13.3626561,2.52651134 13.3159852,2.33982778 C13.1899738,2.91387973 13.0056266,3.54159378 12.762938,4.22298878 L11.8388589,6.89021681 L14.8211139,6.89021681 Z M28.5376199,11.1745831 L26.4864445,11.1745831 L21.4530142,3.01888584 L21.3970094,3.01888584 L21.4320124,3.47392474 C21.4973517,4.34200329 21.5300208,5.13539652 21.5300208,5.85412823 L21.5300208,11.1745831 L20.0108909,11.1745831 L20.0108909,0.93970808 L22.0410645,0.93970808 L27.0604936,9.05340175 L27.1024972,9.05340175 C27.093163,8.9460587 27.0744949,8.55519586 27.0464924,7.8808015 C27.0184899,7.20640714 27.0044888,6.68020075 27.0044888,6.30216654 L27.0044888,0.93970808 L28.5376199,0.93970808 L28.5376199,11.1745831 Z M39.6499032,11.1745831 L37.7107374,11.1745831 L34.4974627,6.54018689 L33.5103783,7.34525571 L33.5103783,11.1745831 L31.8372353,11.1745831 L31.8372353,0.93970808 L33.5103783,0.93970808 L33.5103783,5.82612584 C33.9677531,5.26607516 34.4227874,4.72703446 34.875495,4.20898758 L37.6407314,0.93970808 L39.5448942,0.93970808 C37.7573992,3.03989813 36.4763024,4.53567772 35.7015657,5.42709172 L39.6499032,11.1745831 Z"></path>
                                        </g>
                                    </g>
                                </g>
                            </g>
                        </g>
                    </g>
                    <g id="Student-Cyclist" transform="translate(556.968717, 59.681913)">
                        <path d="M33.5246906,0.00299549603 C36.9994809,0.00299549603 39.9828699,2.86301392 39.9828699,6.45632776 C39.9828699,10.062944 36.9978152,13.0327073 33.5246906,13.0327073 C29.9183047,13.0327073 26.9365814,10.062944 26.9365814,6.45632776 C26.9365814,2.86467672 29.9183047,0.00299549603 33.5246906,0.00299549603 L33.5246906,0.00299549603 Z" id="Shape" fill="#F27674"></path>
                        <path d="M31.018844,33.6748375 C31.6783732,32.7101075 32.2973711,32.0192942 31.3179,31.4090461 C30.3400947,30.8037864 29.6254866,31.4622799 29.1077615,32.498616 L25.8963287,37.6479931 C23.4821373,36.452347 20.3055132,35.4330255 17.5470028,35.4330255 C7.96384421,35.4346883 0.166388052,43.2681457 0.166388052,52.9090683 C0.166388052,62.4668508 7.96384421,70.2437729 17.545337,70.2437729 C27.1934605,70.2437729 35.0475528,62.465188 35.0475528,52.9074055 C35.0475528,47.5199289 32.0158505,42.3402783 27.7695254,38.8849626 L31.018844,33.6748375 Z M1.86547057,52.8608073 C1.86547057,44.1821932 8.8453404,37.1255156 17.4248439,37.1255156 C19.7386342,37.1255156 23.3085405,37.8938054 25.0473249,39.2840126 L16.9124849,52.3925771 C16.2079531,53.5285113 16.0063405,53.8499892 16.8956675,54.4259766 C17.7849946,55.0019641 18.2528948,54.2412563 18.711033,53.5026098 L26.7669501,40.5194031 C31.4641366,44.7033731 33.1285886,48.1081569 33.1285886,52.8608073 C33.1285886,61.4584022 26.0851954,68.4495269 17.4248439,68.4495269 C8.8453404,68.4495269 1.86547057,61.4584211 1.86547057,52.8608073 Z" id="Shape" fill="#CFCFCF"></path>
                        <rect id="Rectangle-2" fill="#CFCFCF" x="42.3382647" y="52.8748543" width="25.1464213" height="2.0428703" rx="1.02143515"></rect>
                        <path d="M66.6251502,35.3026066 C56.9736952,35.3026066 49.1229345,43.0878428 49.1229345,52.6522764 C49.1229345,62.2798966 56.9736952,70.1200052 66.6251502,70.1200052 C76.206643,70.1200052 84.0040992,62.2798966 84.0040992,52.6522764 C84.0040992,43.0878428 76.206643,35.3026066 66.6251502,35.3026066 L66.6251502,35.3026066 Z M66.6024601,68.3325812 C57.950547,68.3325812 50.9016241,61.2724261 50.9016241,52.6049715 C50.9016241,44.0031209 57.950547,37.0085699 66.6024601,37.0085699 C75.1812476,37.0085699 82.1647424,44.0031209 82.1647424,52.6049715 C82.1647424,61.2724261 75.1812476,68.3325812 66.6024601,68.3325812 L66.6024601,68.3325812 Z" id="Shape" fill="#CFCFCF"></path>
                        <path d="M65.3125257,15.0971149 C66.5035492,16.2477734 66.5185411,18.1450298 65.3525041,19.3272816 L62.5756702,22.1590324 C61.4162962,23.3412842 59.5206532,23.3629007 58.3396242,22.2055909 L48.6748431,12.7592161 C47.4954799,11.6019063 47.4721592,9.7046499 48.6348647,8.5223981 L51.4166959,5.6939729 C52.5727383,4.5117211 54.4700471,4.49010468 55.6577391,5.64408886 L65.3125257,15.0971149 L65.3125257,15.0971149 Z" id="Shape" fill="#D9D9D9"></path>
                        <path d="M53.8187321,18.3503462 L47.0673778,11.670873 C47.0673778,11.670873 45.4515836,9.68216249 42.9679247,9.9332455 C42.9679247,9.9332455 40.2310693,10.0646068 38.6202724,12.5388553 L31.4091663,23.6995783 L20.5983373,23.6995783 C16.7470836,23.6995783 16.7470836,28.7894135 20.5983373,28.7894135 L33.149893,28.7894135 C34.1460218,28.7894135 35.138819,28.2839218 35.8800854,27.1748333 L40.1127998,20.4770692 L41.5070469,18.3503462 L53.8187321,18.3503462 L53.8187321,18.3503462 Z" id="Shape" fill="#E9E9E9"></path>
                        <path d="M60.8565985,25.3124957 L55.9342564,20.4421504 L40.1127998,20.4770692 L48.9313712,29.1568926 L40.7307994,33.3770825 C40.7307994,33.3770825 37.5025426,34.9899999 37.9972755,37.8450299 L37.9972755,56.2023575 C37.9972755,58.315778 39.6097381,59.9220442 41.7235967,59.9220442 C43.7158542,59.9220442 45.4532494,58.315778 45.4532494,56.2023575 L45.4532494,41.5697051 L59.4940009,33.7512129 C61.1147924,32.8799049 62.2341879,31.0258813 62.2341879,29.0321825 C62.2325221,27.6803249 61.8560588,26.3051882 60.8565985,25.3124957 L60.8565985,25.3124957 Z" id="Shape" fill="#E9E9E9"></path>
                        <rect id="Rectangle-13" fill="#CFCFCF" transform="translate(63.154994, 44.842197) rotate(-20.000000) translate(-63.154994, -44.842197) " x="62.1355447" y="34.4421995" width="2.03889903" height="20.7999942" rx="1.01944951"></rect>
                    </g>
                </g>
            </g>
        </g>
    </g>
</svg>