<?xml version="1.0" encoding="UTF-8"?>
<svg width="800px" height="148px" viewBox="0 0 800 148" version="1.1" xmlns="http://www.w3.org/2000/svg" xmlns:xlink="http://www.w3.org/1999/xlink">
    <!-- Generator: Sketch 41.1 (35376) - http://www.bohemiancoding.com/sketch -->
    <title>Top</title>
    <desc>Created with Sketch.</desc>
    <defs>
        <polygon id="path-1" points="6.70189278 56.3154601 6.70189278 15.5242513 25.6618997 15.5242513 25.6618997 56.3154601"></polygon>
        <mask id="mask-2" maskContentUnits="userSpaceOnUse" maskUnits="objectBoundingBox" x="-0.578870432" y="-0.578870432" width="20.1177478" height="41.9489497">
            <rect x="6.12302234" y="14.9453808" width="20.1177478" height="41.9489497" fill="white"></rect>
            <use xlink:href="#path-1" fill="black"></use>
        </mask>
    </defs>
    <g id="Page-1" stroke="none" stroke-width="1" fill="none" fill-rule="evenodd">
        <g id="Artboard" transform="translate(-1640.000000, -4577.000000)">
            <g id="About-Us-Header" transform="translate(1662.000000, 4591.000000)">
                <g id="Top">
                    <path d="M755.186868,128 C755.553764,128 755.851192,127.821286 755.851192,127.600832 C755.851192,127.380377 755.553764,127.201663 755.186868,127.201663 L0.781244288,127.201663 C0.41434862,127.201663 0.116920914,127.380377 0.116920914,127.600832 C0.116920914,127.821286 0.41434862,128 0.781244288,128 L755.186868,128 Z" id="Line" fill="#E9E9E9"></path>
                    <g id="Merchant" transform="translate(88.222144, 55.883576)">
                        <g id="Store-Merchant" transform="translate(0.000000, 14.479907)">
                            <g id="Group">
                                <g id="Shine" transform="translate(72.328915, 27.486930)" fill="#ECEBED">
                                    <path d="M12.7986697,0.318971594 C8.74458881,3.88820236 4.57924674,7.34480614 0.320028015,10.6655609 C4.37179092,7.09516898 8.53945093,3.64088741 12.7986697,0.318971594 Z" id="Shape"></path>
                                    <path d="M15.5952669,2.90474808 C11.541186,6.47513995 7.37584396,9.93058262 3.11662523,13.2513373 C7.17070608,9.68094547 11.3360481,6.22782501 15.5952669,2.90474808 Z" id="Shape"></path>
                                    <path d="M18.4811049,14.3822517 C16.3659826,16.3270993 14.1523479,18.1639643 11.8494723,19.8812357 C13.9645946,17.9375492 16.1793883,16.1006842 18.4811049,14.3822517 Z" id="Shape"></path>
                                    <path d="M18.4811049,12.2272445 C16.3659826,14.1720921 14.1523479,16.0089571 11.8494723,17.7262285 C13.9645946,15.7813809 16.1793883,13.945677 18.4811049,12.2272445 Z" id="Shape"></path>
                                    <path d="M8.5846508,2.20460294 C6.46952857,4.14828945 4.25589381,5.98631557 1.95301827,7.70242588 C4.06814049,5.75873937 6.28293423,3.92187435 8.5846508,2.20460294 Z" id="Shape"></path>
                                </g>
                                <g id="Window" transform="translate(3.129222, 0.000000)">
                                    <polygon id="Shape" fill="#ECECEC" points="99.3952599 9.54622928 99.7463712 9.54622928 99.7463712 9.19458093 99.3952599 9.19458093 99.3952599 1.80996555 100.097482 0.0517237881 0.030779232 0.0517237881 0.73300171 1.80996555 0.73300171 9.19458093 0.381890471 9.54622928 0.73300171 9.89787763 1.08411295 9.89787763 1.08411295 57.0187568 5.29744782 57.0187568 27.0663446 57.0187568 100.097482 57.0187568"></polygon>
                                    <path d="M92.7550385,44.5495053 L37.791729,44.5495053 L37.791729,22.3707783 C38.4987014,23.122012 39.3296837,22.8282529 39.3702476,21.4709235 L39.3806784,20.1879046 L42.1865474,14.5507493 L90.1679502,14.5507493 C90.1679502,14.5507493 91.6830864,18.5017774 92.7550385,21.3932983 C92.6017894,23.0813734 92.7550385,44.5495053 92.7550385,44.5495053 Z" id="Path" fill="#F9F9F9"></path>
                                    <g id="Seller" transform="translate(44.591127, 31.706710)">
                                        <rect id="Rectangle-12" fill="#EF5350" x="4.76345418" y="5.30503979" width="2.0266161" height="6.36604775"></rect>
                                        <rect id="Rectangle-path" fill="#EF5350" x="4.6611844" y="5.14186014" width="2.25691338" height="1.81647877"></rect>
                                        <path d="M3.24628779,7.73590815 L3.24628779,11.7769059 L4.09695606,11.7769059 L4.09695606,5.14186014 L3.97310793,5.14186014 C3.92825178,5.14186014 3.88461812,5.14682292 3.84201888,5.15496189 C3.73255858,5.15893212 3.62225194,5.18722 3.51871604,5.24449054 C3.43220103,5.29153775 2.73509691,5.70305193 2.02887109,6.80052233 C1.37455429,7.8140224 0.724845348,9.40648103 0.514576251,11.7769059 L2.02604995,11.7769059 C2.22494044,9.7646949 2.76123949,8.50613248 3.24628779,7.73590815 L3.24628779,7.73590815 Z" id="Shape" fill="#C1C1C1"></path>
                                        <path d="M7.48232613,11.7769059 L8.3329944,11.7769059 L8.3329944,7.73729773 C8.37427711,7.80270725 8.41584193,7.87039964 8.45759483,7.94295557 C8.90596829,8.72499132 9.37014014,9.9368043 9.55219782,11.7769059 L11.0645179,11.7769059 C10.8544368,9.40638178 10.2044458,7.8140224 9.55012898,6.80052233 C8.84380913,5.70305193 8.14679905,5.29153775 8.06028403,5.24449054 C7.95665409,5.18712074 7.84625341,5.15873361 7.73669908,5.15486263 C7.69428791,5.14672367 7.65084233,5.14186014 7.60617425,5.14186014 L7.48232613,5.14186014 L7.48232613,11.7769059 L7.48232613,11.7769059 Z" id="Shape" fill="#C1C1C1"></path>
                                        <ellipse id="Oval" fill="#9C9C9C" cx="5.78964109" cy="2.24369262" rx="2.1158563" ry="2.23325351"></ellipse>
                                    </g>
                                    <g id="Seller" transform="translate(63.933025, 32.051724)">
                                        <rect id="Rectangle-12" fill="#EF5350" x="4.56120088" y="5.30503979" width="2.08994785" height="6.36604775"></rect>
                                        <rect id="Rectangle-path" fill="#EF5350" x="4.45573518" y="5.14186014" width="2.32744193" height="1.81647877"></rect>
                                        <path d="M2.99662304,7.73590815 L2.99662304,11.7769059 L3.87387469,11.7769059 L3.87387469,5.14186014 L3.74615632,5.14186014 C3.69989841,5.14186014 3.6549012,5.14682292 3.61097073,5.15496189 C3.4980898,5.15893212 3.38433608,5.18722 3.27756468,5.24449054 C3.18834607,5.29153775 2.46945745,5.70305193 1.74116208,6.80052233 C1.06639787,7.8140224 0.396385526,9.40648103 0.17954552,11.7769059 L1.73825277,11.7769059 C1.94335859,9.7646949 2.49641698,8.50613248 2.99662304,7.73590815 L2.99662304,7.73590815 Z" id="Shape" fill="#C1C1C1"></path>
                                        <path d="M7.36503758,11.7769059 L8.24228924,11.7769059 L8.24228924,7.73729773 C8.28486203,7.80270725 8.32772575,7.87039964 8.37078343,7.94295557 C8.83316856,8.72499132 9.31184578,9.9368043 9.49959276,11.7769059 L11.0591728,11.7769059 C10.8425268,9.40638178 10.1722235,7.8140224 9.49745927,6.80052233 C8.76906693,5.70305193 8.05027528,5.29153775 7.96105667,5.24449054 C7.8541883,5.18712074 7.74033759,5.15873361 7.62735968,5.15486263 C7.58362317,5.14672367 7.53881991,5.14186014 7.49275596,5.14186014 L7.36503758,5.14186014 L7.36503758,11.7769059 L7.36503758,11.7769059 Z" id="Shape" fill="#C1C1C1"></path>
                                        <ellipse id="Oval" fill="#9C9C9C" cx="5.61945614" cy="2.24369262" rx="2.18197681" ry="2.23325351"></ellipse>
                                    </g>
                                    <g id="Path">
                                        <use fill="#F9F9F9" fill-rule="evenodd" xlink:href="#path-1"></use>
                                        <use stroke="#AAAAAA" mask="url(#mask-2)" stroke-width="1.15774086" xlink:href="#path-1"></use>
                                    </g>
                                    <rect id="Rectangle-5" fill="#F69A98" x="37.7401349" y="42.9528227" width="55.0542166" height="1.75824176"></rect>
                                    <g id="Top-Head" transform="translate(37.217791, 13.420996)" fill="#F69A98">
                                        <path d="M2.85363291,8.02786647 L2.84552012,9.31088534 C2.79104847,11.0571843 0.283035054,11.0455733 0.218132673,9.31088534 C0.216973702,8.88359942 0.216973702,8.45515239 0.216973702,8.02786647 L1.9403637,3.86415094 L3.03675034,1.13091437 L5.44393328,1.13091437 L2.85363291,8.02786647 Z" id="Path"></path>
                                        <path d="M6.22739862,8.02670537 L6.22739862,9.30972424 L6.22739862,9.30972424 C6.292301,11.0432511 8.80031442,11.0560232 8.85246812,9.30972424 L8.85478606,9.30972424 L8.86289886,8.02670537 L8.88144239,8.02670537 L11.8947672,1.12975327 L9.45629205,1.12975327 L6.22739862,8.02670537 Z" id="Shape"></path>
                                        <path d="M12.0442745,8.02670537 L12.0442745,9.30972424 L12.0442745,9.30972424 C12.1091769,11.0432511 14.6171903,11.0560232 14.669344,9.30972424 L14.6716619,9.30972424 L14.6797747,8.02670537 L14.6983183,8.02670537 L17.0649372,1.12975327 L14.626462,1.12975327 L12.0442745,8.02670537 Z" id="Shape"></path>
                                        <path d="M17.8599914,8.02670537 L17.8599914,9.30972424 L17.8599914,9.30972424 C17.9248937,11.0432511 20.4329072,11.0560232 20.4850609,9.30972424 L20.4873788,9.30972424 L20.4954916,8.02670537 L20.5140351,8.02670537 L22.2351072,1.12975327 L19.796632,1.12975327 L17.8599914,8.02670537 Z" id="Shape"></path>
                                        <path d="M23.7846515,8.02670537 L23.7846515,8.02670537 L23.7846515,9.30972424 L23.7846515,9.30972424 C23.8495539,11.0432511 26.3587263,11.0560232 26.409721,9.30972424 L26.412039,9.30972424 L26.4213107,8.02670537 L26.4386953,8.02670537 L27.2998108,1.12975327 L24.8613357,1.12975327 L23.7846515,8.02670537 Z" id="Shape"></path>
                                        <path d="M29.6003684,8.02670537 L29.6003684,8.02670537 L29.6003684,9.30972424 L29.6015274,9.30972424 C29.6652708,11.0432511 32.1744432,11.0560232 32.2254379,9.30972424 L32.2277559,9.30972424 L32.2370276,8.02670537 L32.2555712,8.02670537 L32.4711398,1.12975327 L30.0326646,1.12975327 L29.6003684,8.02670537 Z" id="Shape"></path>
                                        <path d="M35.0950503,1.12975327 L35.3106189,8.02670537 L35.3106189,8.02670537 L35.3106189,9.30972424 L35.3117779,9.30972424 C35.3755213,11.0432511 37.8846937,11.0560232 37.9356884,9.30972424 L37.9380064,9.30972424 L37.9472781,8.02670537 L37.9658217,8.02670537 L37.5346844,1.12975327 L35.0950503,1.12975327 Z" id="Shape"></path>
                                        <path d="M40.2652203,1.12975327 L41.1251769,8.02670537 L41.1251769,8.02670537 L41.1251769,9.30972424 L41.1263358,9.30972424 C41.1900792,11.0432511 43.6992516,11.0560232 43.7514053,9.30972424 L43.7525643,9.30972424 L43.7618361,8.02670537 L43.7803796,8.02670537 L42.7036955,1.12975327 L40.2652203,1.12975327 Z" id="Shape"></path>
                                        <path d="M45.4365493,1.12975327 L46.9432117,8.02670537 L46.9420527,8.02670537 L46.9420527,9.30972424 L46.9432117,9.30972424 C47.0081141,11.0432511 49.5161275,11.0560232 49.5682812,9.30972424 L49.5705991,9.30972424 L49.5787119,8.02670537 L49.5972555,8.02670537 L47.8761834,1.12975327 L45.4365493,1.12975327 Z" id="Shape"></path>
                                        <path d="M50.5000939,1.12975327 L52.8678719,8.02670537 C52.8667129,8.45399129 52.8667129,8.88243832 52.8667129,9.30972424 C52.9327742,11.0432511 55.4407877,11.0560232 55.4929414,9.30972424 C55.4929414,9.30972424 55.5404599,8.61538462 55.5404599,8.02670537 C55.4929414,7.68650218 53.0081074,1.12975327 53.0081074,1.12975327 L50.5000939,1.12975327 Z" id="Shape"></path>
                                        <polygon id="Rectangle" points="3.00333482 0.255442671 52.6797151 0.255442671 55.268101 7.22206096 0.564665911 7.22206096"></polygon>
                                    </g>
                                </g>
                                <path d="M26.6844542,44.0077677 L11.9377821,44.0077677 L11.9377821,17.6341414 L26.6844542,17.6341414 L26.6844542,44.0077677 L26.6844542,44.0077677 Z M12.2888934,43.6561194 L26.3333429,43.6561194 L26.3333429,17.9857897 L12.2888934,17.9857897 L12.2888934,43.6561194 Z" id="Shape" fill="#AAAAAA"></path>
                                <g id="Open-Copy" transform="translate(14.395561, 21.423372)">
                                    <path d="M2.25524753,2.27152821 L4.35704158,0.513966523 C4.51906574,0.378465797 4.71690211,0.311237931 4.91543385,0.311121821 C5.11767431,0.311237931 5.31921938,0.381136334 5.4825184,0.521281472 L7.55267255,2.29904635 L7.70357058,2.1226748 L5.63330054,0.34502603 C5.42711958,0.167841704 5.17098697,0.078901211 4.91543385,0.078901211 C4.66463251,0.078901211 4.41313578,0.164474506 4.20857739,0.335621095 L2.10666743,2.09329889 L2.25524753,2.27152821" id="Fill-69" fill="#AAAAAA"></path>
                                    <polygon id="Fill-70" fill="#FBCFCE" points="0 6.76021989 9.8311147 6.76021989 9.8311147 2.18879132 0 2.18879132"></polygon>
                                    <text id="OPEN" font-family="OpenSans-Semibold, Open Sans" font-size="2.38865095" font-weight="500" fill="#444444">
                                        <tspan x="1.33722083" y="5.47647767">OPEN</tspan>
                                    </text>
                                </g>
                                <g id="Top-Line" transform="translate(0.000000, 5.747764)" fill="#CFCFCF">
                                    <rect id="Rectangle-2" x="0" y="0" width="107.088928" height="2.3222061"></rect>
                                </g>
                                <g id="Design-Board" transform="translate(31.987602, 24.605006)" fill="#FBCFCE">
                                    <path d="M1.21738322,4.73555878 C1.21738322,4.19018868 0.776162933,3.74815675 0.231794216,3.74815675 L0.231794216,1.05613933 C0.776162933,1.05613933 1.21738322,0.613991292 1.21738322,0.0687373004 L5.37959607,0.0687373004 C5.37959607,0.613991292 5.82081636,1.05613933 6.36518508,1.05613933 L6.36518508,3.74815675 C5.82081636,3.74815675 5.37959607,4.19018868 5.37959607,4.73555878 L1.21738322,4.73555878 Z" id="Fill-103"></path>
                                </g>
                            </g>
                        </g>
                        <g id="Store-Name" transform="translate(8.344592, 0.000000)">
                            <rect id="Rectangle-7" fill="#C1C1C1" x="11.821505" y="8.38441925" width="1.15897108" height="6.15384615"></rect>
                            <rect id="Rectangle-7-Copy" fill="#C1C1C1" x="78.8100336" y="8.38441925" width="1.15897108" height="6.15384615"></rect>
                            <polygon id="Rectangle-3" fill="#CFCFCF" points="0 0 90.3997444 0 90.3997444 9.89385321 0 9.89385321"></polygon>
                            <g id="Brand-Name" transform="translate(20.195431, 1.064449)">
                                <rect id="Rectangle-4" fill="#FFFFFF" x="0.345974736" y="3.66456185" width="0.614104158" height="0.612217971"></rect>
                                <rect id="Rectangle-4-Copy" fill="#FFFFFF" x="48.246099" y="3.66456185" width="0.614104158" height="0.612217971"></rect>
                                <g id="Brand-Store" transform="translate(4.137858, 0.000000)" font-size="5.50158458" font-family="OpenSans-Semibold, Open Sans" letter-spacing="0.229232699" font-weight="500">
                                    <text id="BRAND-STORE" fill="#666666">
                                        <tspan x="0.448122703" y="6">BRAND STORE</tspan>
                                    </text>
                                    <text id="BRAND-STORE" fill="#FFFFFF">
                                        <tspan x="0.448122703" y="6">BRAND STORE</tspan>
                                    </text>
                                </g>
                            </g>
                            <g id="Purchasing" transform="translate(75.944330, 57.515147) scale(-1, 1) translate(-75.944330, -57.515147) translate(68.944330, 43.015147)">
                                <g id="Group">
                                    <path d="M8.90216048,2.89638932 C8.90216048,1.41601256 7.70875491,0.193092622 6.19280729,0.193092622 C4.70911388,0.193092622 3.4834541,1.38383046 3.4834541,2.89638932 C3.51570831,4.37676609 4.70911388,5.59968603 6.19280729,5.59968603 C7.6765007,5.59968603 8.90216048,4.40894819 8.90216048,2.89638932 Z" id="Shape" fill="#F27674"></path>
                                    <path d="M11.4502426,7.85243328 C11.4502426,7.82025118 11.4179884,7.82025118 11.4179884,7.78806907 C10.9986838,6.79042386 10.0310576,6.11459969 8.90216048,6.11459969 L2.99964103,6.11459969 C1.51594762,6.11459969 0.322542046,7.30533752 0.258033637,8.75353218 L0.258033637,15.2543171 C0.258033637,15.8657771 0.741846707,16.3485086 1.35467659,16.3485086 C1.96750648,16.3485086 2.45131955,15.8657771 2.45131955,15.2543171 L2.45131955,8.81789639 L2.96738683,8.81789639 L2.96738683,16.8634223 L2.96738683,27.5478807 C2.96738683,28.2237049 3.51570831,28.7708006 4.1930466,28.7708006 C4.8703849,28.7708006 5.41870638,28.2237049 5.41870638,27.5478807 L5.41870638,18.2794349 L5.90251945,18.2794349 L6.38633252,18.2794349 L6.38633252,27.5478807 C6.38633252,28.2237049 6.934654,28.7708006 7.61199229,28.7708006 C8.28933059,28.7708006 8.83765207,28.2237049 8.83765207,27.5478807 L8.83765207,16.8956044 L8.83765207,8.85007849 L9.41822775,8.85007849 L11.7727847,14.7072214 C11.9985641,15.2864992 12.6436482,15.543956 13.2242239,15.3186813 C13.8370538,15.0612245 14.0950874,14.4175824 13.869308,13.8704867 L11.4502426,7.85243328 Z" id="Shape" fill="#D9D9D9"></path>
                                </g>
                            </g>
                        </g>
                    </g>
                    <g id="Bank" transform="translate(304.525835, 0.000000)">
                        <g id="Bank-Boundary" transform="translate(0.000000, 51.838308)">
                            <rect id="Rectangle-7" fill="#ECECEC" x="1.45007661e-12" y="0.125176687" width="146.94833" height="75.2272521"></rect>
                            <polygon id="Rectangle-8-Copy-2" fill="#CFCFCF" points="129.136412 19.3007508 133.589391 19.3007508 133.589391 63.5520755 129.136412 63.5520755"></polygon>
                            <polygon id="Rectangle-8-Copy-3" fill="#CFCFCF" points="118.746126 19.3007508 123.199105 19.3007508 123.199105 63.5520755 118.746126 63.5520755"></polygon>
                            <polygon id="Rectangle-8-Copy-4" fill="#CFCFCF" points="25.2335517 19.3007508 29.6865314 19.3007508 29.6865314 63.5520755 25.2335517 63.5520755"></polygon>
                            <polygon id="Rectangle-8-Copy-5" fill="#CFCFCF" points="14.8432657 19.3007508 19.2962454 19.3007508 19.2962454 63.5520755 14.8432657 63.5520755"></polygon>
                            <polygon id="Rectangle-11" fill="#C1C1C1" points="40.0768174 6.02535332 106.871513 6.02535332 106.871513 67.977208 40.0768174 67.977208"></polygon>
                        </g>
                        <g id="Rupees" transform="translate(14.841162, 51.943503)">
                            <polygon id="Rectangle-12" fill="#ECECEC" points="0.00210379379 0.0199815251 117.263903 0.0199815251 117.263903 14.7704231 0.00210379379 14.7704231"></polygon>
                            <path d="M60.5975117,2.98752599 L55.8150646,2.98752599 L55.207762,3.83574253 L58.1653261,3.83574258 C58.9091564,3.83574258 58.923057,4.23423424 59.1846223,4.67175809 L55.5739048,4.67175809 L55.207762,5.53423214 L59.1846223,5.53423214 C58.9230571,5.97175599 58.2951062,6.37098031 57.5625779,6.37098031 L55.8150646,6.37098031 C57.2801214,7.82944958 58.5926179,9.18032032 60.1269121,10.6386203 L61.8273612,10.6386203 L58.244275,7.1850873 C59.6827931,7.1850873 60.2835364,6.48214407 60.5975118,5.53423214 L62.4953931,5.52829129 L62.8999171,4.68201691 L60.5975117,4.67175809 C60.5455873,4.41647942 60.3184929,4.05450451 60.1100849,3.83574258 L62.4953931,3.83574253 L62.8999171,2.98752599 L60.5975117,2.98752599 Z" id="Shape" fill="#EF5350"></path>
                        </g>
                        <g id="Pillar-1" transform="translate(32.572781, 65.076524)">
                            <rect id="Rectangle-9" fill="#D9D9D9" x="3.05105687" y="0.162358026" width="8.90595942" height="56.0516781"></rect>
                            <path d="M11.9570163,0.162358026 L3.05105687,0.162358026 C1.30114249,0.162358026 0.0824037297,1.48320284 0.0824037297,3.11244634 C0.0824037297,4.74168985 1.30114249,6.06253466 3.05105687,6.06253466 C3.79600994,6.06253466 4.65526461,5.48201948 4.53538344,4.5874905 L10.4726897,4.5874905 C10.3528085,5.48201948 11.2120632,6.06253466 11.9570163,6.06253466 C13.7069307,6.06253466 14.9256694,4.74168985 14.9256694,3.11244634 C14.9256694,1.48320284 13.7069307,0.162358026 11.9570163,0.162358026" id="Fill-145" fill="#F69A98"></path>
                            <rect id="Rectangle-10" fill="#F69A98" x="1.5667303" y="54.7389919" width="11.8746126" height="4.42513248"></rect>
                        </g>
                        <g id="Pillar-1-Copy" transform="translate(66.683993, 65.076524)">
                            <polygon id="Rectangle-9" fill="#D9D9D9" points="3.07935615 0.162358026 11.9853156 0.162358026 11.9853156 56.2140361 3.07935615 56.2140361"></polygon>
                            <path d="M11.9853156,0.162358026 L3.07935615,0.162358026 C1.32944177,0.162358026 0.110703007,1.48320284 0.110703007,3.11244634 C0.110703007,4.74168985 1.32944177,6.06253466 3.07935615,6.06253466 C3.82430922,6.06253466 4.68356389,5.48201948 4.56368272,4.5874905 L10.500989,4.5874905 C10.3811078,5.48201948 11.2403625,6.06253466 11.9853156,6.06253466 C13.7352299,6.06253466 14.9539687,4.74168985 14.9539687,3.11244634 C14.9539687,1.48320284 13.7352299,0.162358026 11.9853156,0.162358026" id="Fill-145" fill="#F69A98"></path>
                            <rect id="Rectangle-10" fill="#F69A98" x="1.59502958" y="54.7389919" width="11.8746126" height="4.42513248"></rect>
                        </g>
                        <g id="Pillar-1-Copy-2" transform="translate(99.310878, 65.076524)">
                            <rect id="Rectangle-9" fill="#D9D9D9" x="3.10765542" y="0.162358026" width="8.90595942" height="56.0516781"></rect>
                            <path d="M12.0136148,0.162358026 L3.10765542,0.162358026 C1.35774105,0.162358026 0.139002285,1.48320284 0.139002285,3.11244634 C0.139002285,4.74168985 1.35774105,6.06253466 3.10765542,6.06253466 C3.8526085,6.06253466 4.71186317,5.48201948 4.59198199,4.5874905 L10.5292883,4.5874905 C10.4094071,5.48201948 11.2686618,6.06253466 12.0136148,6.06253466 C13.7635292,6.06253466 14.982268,4.74168985 14.982268,3.11244634 C14.982268,1.48320284 13.7635292,0.162358026 12.0136148,0.162358026" id="Fill-145" fill="#F69A98"></path>
                            <polygon id="Rectangle-10" fill="#F69A98" points="1.62332885 54.7389919 13.4979414 54.7389919 13.4979414 59.1641244 1.62332885 59.1641244"></polygon>
                        </g>
                        <g id="Flag" transform="translate(72.038188, 0.000000)">
                            <path d="M1.12006219,0 C0.558313555,0 0.100518402,0.449711461 0.100518402,1.00119677 C0.100518402,1.55268209 0.558599142,2.00239355 1.12006219,2.00239355 C1.68152524,2.00239355 2.13960598,1.55268209 2.13960598,1.00119677 C2.13960598,0.449711461 1.68152524,0 1.12006219,0 L1.12006219,0 Z" id="Shape" fill="#CFCFCF"></path>
                            <polygon id="Rectangle-path" fill="#CFCFCF" points="0.462796296 2.61579344 1.82218802 2.61579344 1.82218802 36.812003 0.462796296 36.812003"></polygon>
                            <path d="M2.48584172,3.34418566 C2.48371245,3.341612 2.48158318,3.33946729 2.47945391,3.33732258 L2.47945391,18.080925 C8.37029332,21.815725 14.2611327,6.97346589 20.1515463,10.7082659 C14.2628361,2.06121944 8.37455186,11.9779349 2.48584172,3.34418566 L2.48584172,3.34418566 Z" id="Shape" fill="#EF5350"></path>
                        </g>
                        <g id="Bank-Name" transform="translate(32.639798, 34.262955)">
                            <polygon id="Rectangle-7" fill="#9E9E9E" points="13.3743255 10.3253091 14.8586521 10.3253091 14.8586521 17.7005299 13.3743255 17.7005299"></polygon>
                            <polygon id="Rectangle-7-Copy" fill="#9E9E9E" points="68.2944086 10.3253091 69.7787351 10.3253091 69.7787351 17.7005299 68.2944086 17.7005299"></polygon>
                            <polygon id="Rectangle-3" fill="#CFCFCF" points="0.0153863582 1.47504416 81.6533477 1.47504416 81.6533477 14.7504416 0.0153863582 14.7504416"></polygon>
                            <g id="Bank-Top" transform="translate(21.065656, 0.000000)">
                                <rect id="Rectangle-4" fill="#FFFFFF" x="1.21462898" y="7.3752208" width="1.48432657" height="1.47504416"></rect>
                                <polygon id="Rectangle-4-Copy" fill="#FFFFFF" points="38.3227932 7.3752208 39.8071198 7.3752208 39.8071198 8.85026496 38.3227932 8.85026496"></polygon>
                                <g id="Bank" transform="translate(5.154790, 0.000000)" font-size="10.2408755" font-family="OpenSans-Semibold, Open Sans" letter-spacing="0.426703133" font-weight="500">
                                    <text id="BANK" fill="#666666">
                                        <tspan x="0.828020926" y="11.8389879">BANK</tspan>
                                    </text>
                                    <text id="BANK" fill="#FFFFFF">
                                        <tspan x="0.725712966" y="11.8389879">BANK</tspan>
                                    </text>
                                </g>
                            </g>
                        </g>
                    </g>
                    <g id="Student-Cyclist" transform="translate(556.968717, 56.681913)">
                        <path d="M33.5246906,0.00299549603 C36.9994809,0.00299549603 39.9828699,2.86301392 39.9828699,6.45632776 C39.9828699,10.062944 36.9978152,13.0327073 33.5246906,13.0327073 C29.9183047,13.0327073 26.9365814,10.062944 26.9365814,6.45632776 C26.9365814,2.86467672 29.9183047,0.00299549603 33.5246906,0.00299549603 L33.5246906,0.00299549603 Z" id="Shape" fill="#F27674"></path>
                        <path d="M31.018844,33.6748375 C31.6783732,32.7101075 32.2973711,32.0192942 31.3179,31.4090461 C30.3400947,30.8037864 29.6254866,31.4622799 29.1077615,32.498616 L25.8963287,37.6479931 C23.4821373,36.452347 20.3055132,35.4330255 17.5470028,35.4330255 C7.96384421,35.4346883 0.166388052,43.2681457 0.166388052,52.9090683 C0.166388052,62.4668508 7.96384421,70.2437729 17.545337,70.2437729 C27.1934605,70.2437729 35.0475528,62.465188 35.0475528,52.9074055 C35.0475528,47.5199289 32.0158505,42.3402783 27.7695254,38.8849626 L31.018844,33.6748375 Z M1.86547057,52.8608073 C1.86547057,44.1821932 8.8453404,37.1255156 17.4248439,37.1255156 C19.7386342,37.1255156 23.3085405,37.8938054 25.0473249,39.2840126 L16.9124849,52.3925771 C16.2079531,53.5285113 16.0063405,53.8499892 16.8956675,54.4259766 C17.7849946,55.0019641 18.2528948,54.2412563 18.711033,53.5026098 L26.7669501,40.5194031 C31.4641366,44.7033731 33.1285886,48.1081569 33.1285886,52.8608073 C33.1285886,61.4584022 26.0851954,68.4495269 17.4248439,68.4495269 C8.8453404,68.4495269 1.86547057,61.4584211 1.86547057,52.8608073 Z" id="Shape" fill="#CFCFCF"></path>
                        <rect id="Rectangle-2" fill="#CFCFCF" x="42.3382647" y="52.8748543" width="25.1464213" height="2.0428703" rx="1.02143515"></rect>
                        <path d="M66.6251502,35.3026066 C56.9736952,35.3026066 49.1229345,43.0878428 49.1229345,52.6522764 C49.1229345,62.2798966 56.9736952,70.1200052 66.6251502,70.1200052 C76.206643,70.1200052 84.0040992,62.2798966 84.0040992,52.6522764 C84.0040992,43.0878428 76.206643,35.3026066 66.6251502,35.3026066 L66.6251502,35.3026066 Z M66.6024601,68.3325812 C57.950547,68.3325812 50.9016241,61.2724261 50.9016241,52.6049715 C50.9016241,44.0031209 57.950547,37.0085699 66.6024601,37.0085699 C75.1812476,37.0085699 82.1647424,44.0031209 82.1647424,52.6049715 C82.1647424,61.2724261 75.1812476,68.3325812 66.6024601,68.3325812 L66.6024601,68.3325812 Z" id="Shape" fill="#CFCFCF"></path>
                        <path d="M65.3125257,15.0971149 C66.5035492,16.2477734 66.5185411,18.1450298 65.3525041,19.3272816 L62.5756702,22.1590324 C61.4162962,23.3412842 59.5206532,23.3629007 58.3396242,22.2055909 L48.6748431,12.7592161 C47.4954799,11.6019063 47.4721592,9.7046499 48.6348647,8.5223981 L51.4166959,5.6939729 C52.5727383,4.5117211 54.4700471,4.49010468 55.6577391,5.64408886 L65.3125257,15.0971149 L65.3125257,15.0971149 Z" id="Shape" fill="#CFCFCF"></path>
                        <path d="M53.8187321,18.3503462 L47.0673778,11.670873 C47.0673778,11.670873 45.4515836,9.68216249 42.9679247,9.9332455 C42.9679247,9.9332455 40.2310693,10.0646068 38.6202724,12.5388553 L31.4091663,23.6995783 L20.5983373,23.6995783 C16.7470836,23.6995783 16.7470836,28.7894135 20.5983373,28.7894135 L33.149893,28.7894135 C34.1460218,28.7894135 35.138819,28.2839218 35.8800854,27.1748333 L40.1127998,20.4770692 L41.5070469,18.3503462 L53.8187321,18.3503462 L53.8187321,18.3503462 Z" id="Shape" fill="#E9E9E9"></path>
                        <path d="M60.8565985,25.3124957 L55.9342564,20.4421504 L40.1127998,20.4770692 L48.9313712,29.1568926 L40.7307994,33.3770825 C40.7307994,33.3770825 37.5025426,34.9899999 37.9972755,37.8450299 L37.9972755,56.2023575 C37.9972755,58.315778 39.6097381,59.9220442 41.7235967,59.9220442 C43.7158542,59.9220442 45.4532494,58.315778 45.4532494,56.2023575 L45.4532494,41.5697051 L59.4940009,33.7512129 C61.1147924,32.8799049 62.2341879,31.0258813 62.2341879,29.0321825 C62.2325221,27.6803249 61.8560588,26.3051882 60.8565985,25.3124957 L60.8565985,25.3124957 Z" id="Shape" fill="#E9E9E9"></path>
                        <rect id="Rectangle-13" fill="#CFCFCF" transform="translate(63.154994, 44.842197) rotate(-20.000000) translate(-63.154994, -44.842197) " x="62.1355447" y="34.4421995" width="2.03889903" height="20.7999942" rx="1.01944951"></rect>
                    </g>
                </g>
            </g>
        </g>
    </g>
</svg>