<?xml version="1.0" encoding="UTF-8"?>
<svg width="102px" height="156px" viewBox="0 0 102 156" version="1.1" xmlns="http://www.w3.org/2000/svg" xmlns:xlink="http://www.w3.org/1999/xlink">
    <!-- Generator: Sketch 41.1 (35376) - http://www.bohemiancoding.com/sketch -->
    <title>Balloon +Rupee</title>
    <desc>Created with Sketch.</desc>
    <defs></defs>
    <g id="Page-1" stroke="none" stroke-width="1" fill="none" fill-rule="evenodd">
        <g id="Balloon-+Rupee" transform="translate(5.000000, 8.000000)">
            <g id="Balloon" transform="translate(0.000000, 25.000000)">
                <g id="Ballon" transform="translate(25.000000, 58.000000) scale(-1, 1) translate(-25.000000, -58.000000) ">
                    <path d="M49.1355422,32.0207111 C49.1355422,14.8878353 38.2918675,1 24.9165663,1 C11.5409639,1 0.697590361,14.8878353 0.697590361,32.0207111 C0.697590361,48.3046859 10.4966867,61.6487095 22.9527108,62.9308107 L18.9123494,70.6016267 L30.9204819,70.6016267 L26.8801205,62.9308107 C39.3364458,61.6487095 49.1355422,48.3046859 49.1355422,32.0207111" id="Fill-38" fill="#FFEBEB"></path>
                    <path d="M20.0861446,69.8132349 L29.746988,69.8132349 L26.2936747,63.2368538 C26.1777108,63.0169457 26.1722892,62.7476906 26.278012,62.5221522 C26.3840361,62.2962827 26.5873494,62.1462549 26.8165663,62.1224095 C38.9518072,60.86986 48.4578313,47.5770058 48.4578313,31.8601935 C48.4578313,15.1137207 37.896988,1.49034169 24.9165663,1.49034169 C11.9358434,1.49034169 1.3753012,15.1137207 1.3753012,31.8601935 C1.3753012,47.5770058 10.8810241,60.86986 23.0162651,62.1224095 C23.2457831,62.1462549 23.4490964,62.2962827 23.5548193,62.5221522 C23.6608434,62.7476906 23.6551205,63.0169457 23.5391566,63.2368538 L20.0861446,69.8132349 Z M30.9204819,71.3035766 L18.9123494,71.3035766 C18.6698795,71.3035766 18.4463855,71.1614974 18.3256024,70.9309912 C18.2042169,70.700485 18.2042169,70.4163265 18.3256024,70.1858203 L21.851506,63.471003 C16.0168675,62.5539461 10.6421687,59.0340903 6.62289157,53.468492 C2.36506024,47.5713755 0.0198795181,39.8971094 0.0198795181,31.8601935 C0.0198795181,14.2923768 11.1885542,0 24.9165663,0 C38.6445783,0 49.813253,14.2923768 49.813253,31.8601935 C49.813253,39.8971094 47.4668675,47.5713755 43.2099398,53.468492 C39.1906627,59.0340903 33.8162651,62.5539461 27.9813253,63.471003 L31.5072289,70.1858203 C31.6289157,70.4163265 31.6289157,70.700485 31.5072289,70.9309912 C31.3864458,71.1614974 31.1629518,71.3035766 30.9204819,71.3035766 L30.9204819,71.3035766 Z" id="Fill-39" fill="#CFCFCF"></path>
                    <path d="M42.9262048,31.7522948 C42.9262048,44.4433058 34.0861446,54.7313203 23.1816265,54.7313203 C12.276506,54.7313203 3.43674699,44.4433058 3.43674699,31.7522948 C3.43674699,19.060953 12.276506,8.7729385 23.1816265,8.7729385 C34.0861446,8.7729385 42.9262048,19.060953 42.9262048,31.7522948" id="Fill-40" fill="#F69A98"></path>
                    <text id="VPA" transform="translate(22.901515, 31.000000) scale(-1, 1) translate(-22.901515, -31.000000) " font-family="Roboto-Regular, Roboto" font-size="15.68" font-weight="normal" letter-spacing="0.217777777" fill="#F9F9F9">
                        <tspan x="8.19641099" y="37">VPA</tspan>
                    </text>
                    <path d="M26.3364458,58.1736825 C25.9774096,58.1736825 25.6777108,57.8819833 25.6599398,57.5063621 C25.6418675,57.1191978 25.9301205,56.7897493 26.3039157,56.7710306 C33.7807229,56.3929136 40.25,50.2307298 42.7846386,41.071688 C42.888253,40.6994986 43.263253,40.484234 43.6228916,40.5899944 C43.9828313,40.6970028 44.1909639,41.085727 44.088253,41.4582284 C41.3903614,51.2044123 34.4361446,57.7649916 26.3701807,58.1733705 C26.3584337,58.1736825 26.3475904,58.1736825 26.3364458,58.1736825" id="Fill-44" fill="#CFCFCF"></path>
                    <path d="M22.3057229,115.857738 C22.1256024,115.857738 21.9466867,115.784423 21.813253,115.638418 C21.5560241,115.356702 21.5674699,114.912758 21.8394578,114.645705 C21.921988,114.564903 30.0963855,106.432267 29.6436747,97.2414039 C29.386747,92.0270084 27.5361446,89.5003008 24.7346386,85.675766 C23.9581325,84.6153538 23.1545181,83.5187521 22.2915663,82.2374596 C17.9792169,75.8394206 24.414759,70.1211811 24.4804217,70.0644011 C24.7674699,69.814507 25.1945783,69.8525682 25.435241,70.150195 C25.6759036,70.4465738 25.6391566,70.8889582 25.3533133,71.1385404 C25.1246988,71.3385181 19.803012,76.0933705 23.4027108,81.434429 C24.2506024,82.6920111 25.0457831,83.7780056 25.814759,84.8274986 C28.6620482,88.7147409 30.7186747,91.5234763 30.9972892,97.170273 C31.4822289,107.014106 23.1268072,115.317081 22.7710843,115.665872 C22.6403614,115.794095 22.4725904,115.857738 22.3057229,115.857738" id="Fill-45" fill="#CFCFCF"></path>
                </g>
            </g>
            <g id="Password" transform="translate(54.000000, 0.000000)">
                <path d="M6.62068559,9.50512633 C6.62068559,4.77651039 10.452285,0.943209775 15.1926407,0.943209775 L24.7915876,0.943209775 C29.5257477,0.943209775 33.3635427,4.77696438 33.3635427,9.50512633 L33.3635427,20.9178786 C33.3635427,25.6464945 29.5319433,29.4797951 24.7915876,29.4797951 L15.1926407,29.4797951 C10.4584806,29.4797951 6.62068559,25.6460405 6.62068559,20.9178786 L6.62068559,9.50512633 Z" id="Rectangle-5" stroke="#CFCFCF" stroke-width="2.64357415"></path>
                <path d="M38.9349713,40.4554049 C38.9349713,42.7822342 36.7091856,44.8456488 34.4778284,44.8456488 L5.50639988,44.8456488 C3.27504274,44.8456488 1.04925702,42.7822342 1.04925702,40.4554049 L1.04925702,22.8944293 C1.04925702,20.5676 3.27504274,18.5041854 5.50639988,18.5041854 L34.4778284,18.5041854 C36.7091856,18.5041854 38.9349713,20.5676 38.9349713,22.8944293 L38.9349713,40.4554049 L38.9349713,40.4554049 Z" id="Path" fill="#FFEBEB"></path>
                <rect id="Rectangle-16" fill="#FEBBBA" x="5.50639988" y="25.6383317" width="28.9714286" height="13.1707317" rx="5.5"></rect>
                <text id="MPIN" font-family="Roboto-Bold, Roboto" font-size="8.8" font-weight="bold" letter-spacing="0.122222215" fill="#FFFFFF">
                    <tspan x="8.63595098" y="35.1871122">MPIN</tspan>
                </text>
            </g>
        </g>
    </g>
</svg>