<?xml version="1.0" encoding="UTF-8"?>
<svg width="134px" height="120px" viewBox="0 0 134 120" version="1.1" xmlns="http://www.w3.org/2000/svg" xmlns:xlink="http://www.w3.org/1999/xlink">
    <!-- Generator: Sketch 41.1 (35376) - http://www.bohemiancoding.com/sketch -->
    <title>Bank</title>
    <desc>Created with Sketch.</desc>
    <defs></defs>
    <g id="Page-1" stroke="none" stroke-width="1" fill="none" fill-rule="evenodd">
        <g id="Bank" transform="translate(6.000000, 4.000000)">
            <g id="Bank-Right" transform="translate(70.114943, 54.797468)">
                <path d="M51.0561411,50.7050024 L2.10286833,50.7050024 C1.80576783,50.7050024 1.56492028,50.9500138 1.56492028,51.2522507 L1.56492028,54.4167738 C1.56492028,54.7190108 1.80576783,54.9640222 2.10286833,54.9640222 L51.0561411,54.9640222 C51.1988138,54.9640222 51.335643,54.9063658 51.4365278,54.8037369 C51.5374127,54.7011079 51.5940892,54.5619131 51.5940892,54.4167738 L51.5940892,51.2522507 C51.6004727,51.1030345 51.5466269,50.9576473 51.445042,50.849813 C51.343457,50.7419787 51.2029602,50.6810677 51.0561411,50.681209 L51.0561411,50.7050024 Z" id="Path" fill="#F1F1F1"></path>
                <path d="M3.71671249,44.4473364 L3.71671249,47.6118595 C3.71671249,47.9140964 3.95756004,48.1591078 4.25466054,48.1591078 L48.8809599,48.1591078 C49.1780604,48.1591078 49.4189079,47.9140964 49.4189079,47.6118595 L49.4189079,44.4473364 C49.4252914,44.2981201 49.3714457,44.152733 49.2698607,44.0448986 C49.1682757,43.9370643 49.027779,43.8761534 48.8809599,43.8762946 L4.27804959,43.8762946 C4.12721557,43.8694647 3.98050307,43.9274315 3.87374171,44.0360386 C3.76698035,44.1446457 3.70999865,44.2938946 3.71671249,44.4473364 Z" id="Path" fill="#F1F1F1"></path>
                <path d="M43.4780903,41.3541935 C43.7262167,41.3541935 43.9641805,41.2539215 44.1396324,41.0754364 C44.3150843,40.8969512 44.4136521,40.6548733 44.4136521,40.4024572 L44.4136521,20.5587558 C44.4136521,20.0331264 43.9947868,19.6070196 43.4780903,19.6070196 L40.3673472,19.6070196 C40.1192208,19.6070196 39.881257,19.7072915 39.7058051,19.8857767 C39.5303532,20.0642618 39.4317854,20.3063397 39.4317854,20.5587558 L39.4317854,40.4024572 C39.4317854,40.6548733 39.5303532,40.8969512 39.7058051,41.0754364 C39.881257,41.2539215 40.1192208,41.3541935 40.3673472,41.3541935 L43.4780903,41.3541935 L43.4780903,41.3541935 Z" id="Path" fill="#CFCFCF"></path>
                <path d="M28.1348763,41.3541935 C28.6515728,41.3541935 29.0704381,40.9280866 29.0704381,40.4024572 L29.0704381,20.5587558 C29.0704381,20.0331264 28.6515728,19.6070196 28.1348763,19.6070196 L25.0241332,19.6070196 C24.5074366,19.6070196 24.0885713,20.0331264 24.0885713,20.5587558 L24.0885713,40.4024572 C24.0885713,40.6548733 24.1871392,40.8969512 24.3625911,41.0754364 C24.5380429,41.2539215 24.7760068,41.3541935 25.0241332,41.3541935 L28.1348763,41.3541935 L28.1348763,41.3541935 Z" id="Path" fill="#FEBBBA"></path>
                <path d="M12.7916622,41.3541935 C13.0397887,41.3541935 13.2777525,41.2539215 13.4532044,41.0754364 C13.6286562,40.8969512 13.7272241,40.6548733 13.7272241,40.4024572 L13.7272241,20.5587558 C13.7272241,20.0331264 13.3083588,19.6070196 12.7916622,19.6070196 L9.68091916,19.6070196 C9.43279274,19.6070196 9.19482892,19.7072915 9.01937705,19.8857767 C8.84392517,20.0642618 8.74535733,20.3063397 8.74535733,20.5587558 L8.74535733,40.4024572 C8.74535733,40.6548733 8.84392517,40.8969512 9.01937705,41.0754364 C9.19482892,41.2539215 9.43279274,41.3541935 9.68091916,41.3541935 L12.7916622,41.3541935 L12.7916622,41.3541935 Z" id="Path" fill="#CFCFCF"></path>
                <path d="M26.3105307,1.35747648 L4.62888528,10.8748392 C4.09211026,11.1175899 3.74452166,11.657292 3.74010154,12.2548568 L3.74010154,15.4669668 C3.74010154,16.3079739 4.41028602,16.9897448 5.23700047,16.9897448 L47.945398,16.9897448 C48.7721125,16.9897448 49.4422969,16.3079739 49.4422969,15.4669668 L49.4422969,12.3500305 C49.4378768,11.7524656 49.0902882,11.2127636 48.5535132,10.9700129 L27.503372,1.4526501 C27.1360521,1.25361793 26.7038616,1.2191346 26.3105307,1.35747648 L26.3105307,1.35747648 Z" id="Path" fill="#F1F1F1"></path>
            </g>
            <g id="Bank-Left">
                <path d="M49.8866737,50.7050024 L0.668788683,50.7050024 C0.370082228,50.7050024 0.127932803,50.9500138 0.127932803,51.2522507 L0.127932803,54.4167738 C0.127932803,54.7190108 0.370082228,54.9640222 0.668788683,54.9640222 L49.8866737,54.9640222 C50.0301176,54.9640222 50.1676864,54.9063658 50.2691166,54.8037369 C50.3705468,54.7011079 50.4275296,54.5619131 50.4275296,54.4167738 L50.4275296,51.2522507 C50.4339476,51.1030345 50.3798109,50.9576473 50.2776768,50.849813 C50.1755427,50.7419787 50.0342865,50.6810677 49.8866737,50.681209 L49.8866737,50.7050024 Z" id="Path-Copy-6" fill="#F1F1F1"></path>
                <path d="M2.29135632,44.4473364 L2.29135632,47.6118595 C2.29135632,47.9140964 2.53350575,48.1591078 2.8322122,48.1591078 L47.6997347,48.1591078 C47.9984412,48.1591078 48.2405906,47.9140964 48.2405906,47.6118595 L48.2405906,44.4473364 C48.2470086,44.2981201 48.1928719,44.152733 48.0907378,44.0448986 C47.9886037,43.9370643 47.8473475,43.8761534 47.6997347,43.8762946 L2.85572767,43.8762946 C2.70407834,43.8694647 2.5565728,43.9274315 2.44923435,44.0360386 C2.3418959,44.1446457 2.28460619,44.2938946 2.29135632,44.4473364 Z" id="Path-Copy-5" fill="#F1F1F1"></path>
                <path d="M42.2676605,41.3541935 C42.5171281,41.3541935 42.7563782,41.2539215 42.9327785,41.0754364 C43.1091788,40.8969512 43.2082794,40.6548733 43.2082794,40.4024572 L43.2082794,20.5587558 C43.2082794,20.0331264 42.78715,19.6070196 42.2676605,19.6070196 L39.1401026,19.6070196 C38.8906349,19.6070196 38.6513848,19.7072915 38.4749845,19.8857767 C38.2985843,20.0642618 38.1994836,20.3063397 38.1994836,20.5587558 L38.1994836,40.4024572 C38.1994836,40.6548733 38.2985843,40.8969512 38.4749845,41.0754364 C38.6513848,41.2539215 38.8906349,41.3541935 39.1401026,41.3541935 L42.2676605,41.3541935 L42.2676605,41.3541935 Z" id="Path-Copy-4" fill="#CFCFCF"></path>
                <path d="M26.8415102,41.3541935 C27.3609997,41.3541935 27.7821291,40.9280866 27.7821291,40.4024572 L27.7821291,20.5587558 C27.7821291,20.0331264 27.3609997,19.6070196 26.8415102,19.6070196 L23.7139523,19.6070196 C23.1944628,19.6070196 22.7733333,20.0331264 22.7733333,20.5587558 L22.7733333,40.4024572 C22.7733333,40.6548733 22.872434,40.8969512 23.0488342,41.0754364 C23.2252345,41.2539215 23.4644846,41.3541935 23.7139523,41.3541935 L26.8415102,41.3541935 L26.8415102,41.3541935 Z" id="Path-Copy-3" fill="#FEBBBA"></path>
                <path d="M11.4153599,41.3541935 C11.6648275,41.3541935 11.9040776,41.2539215 12.0804779,41.0754364 C12.2568781,40.8969512 12.3559788,40.6548733 12.3559788,40.4024572 L12.3559788,20.5587558 C12.3559788,20.0331264 11.9348493,19.6070196 11.4153599,19.6070196 L8.28780195,19.6070196 C8.0383343,19.6070196 7.79908419,19.7072915 7.62268393,19.8857767 C7.44628366,20.0642618 7.34718302,20.3063397 7.34718302,20.5587558 L7.34718302,40.4024572 C7.34718302,40.6548733 7.44628366,40.8969512 7.62268393,41.0754364 C7.79908419,41.2539215 8.0383343,41.3541935 8.28780195,41.3541935 L11.4153599,41.3541935 L11.4153599,41.3541935 Z" id="Path-Copy-2" fill="#CFCFCF"></path>
                <path d="M25.0073033,1.35747648 L3.20845977,10.8748392 C2.66878327,11.1175899 2.31931581,11.657292 2.31487179,12.2548568 L2.31487179,15.4669668 C2.31487179,16.3079739 2.98867889,16.9897448 3.81986207,16.9897448 L46.7591158,16.9897448 C47.590299,16.9897448 48.2641061,16.3079739 48.2641061,15.4669668 L48.2641061,12.3500305 C48.2596621,11.7524656 47.9101946,11.2127636 47.3705181,10.9700129 L26.2065924,1.4526501 C25.837287,1.25361793 25.4027603,1.2191346 25.0073033,1.35747648 L25.0073033,1.35747648 Z" id="Path-Copy" fill="#F1F1F1"></path>
            </g>
            <path d="M51.2716706,83.7839241 L28.3440844,83.7839241 L28.3440844,73.2881013 L29.2696016,74.215443 C30.0983876,74.9892363 31.3899047,74.9664041 32.1909317,74.163798 C32.9919587,73.3611919 33.014746,72.0671287 32.2424752,71.2367089 L27.9093717,66.9231646 C27.5152694,66.3685511 26.8780542,66.0388487 26.1985671,66.0379747 L26.1004062,66.0379747 C25.8996893,66.0466826 25.7012978,66.0845459 25.5114407,66.1503797 C25.3996106,66.1923102 25.2916839,66.244029 25.188912,66.3049367 L24.9084522,66.4875949 C24.8253946,66.533323 24.7457256,66.5849751 24.6700614,66.6421519 L20.1967281,71.1383544 C19.4244572,71.9687742 19.4472445,73.2628374 20.2482715,74.0654435 C21.0492985,74.8680496 22.3408156,74.8908819 23.1696016,74.1170886 L24.1371878,73.1897468 L24.1371878,85.8353165 C24.1371878,86.999309 25.0789337,87.9429114 26.2406361,87.9429114 L51.2716706,87.9429114 C52.2875172,87.7750136 53.0327741,86.8950217 53.0327741,85.8634177 C53.0327741,84.8318138 52.2875172,83.9518218 51.2716706,83.7839241 Z" id="Path" fill="#FEBBBA"></path>
            <path d="M95.188046,31.6560759 L94.3045977,30.5882278 C93.4758117,29.8144346 92.1842946,29.8372668 91.3832676,30.6398729 C90.5822406,31.442479 90.5594533,32.7365422 91.3317241,33.566962 L95.6227586,37.8664557 C96.0168609,38.4210691 96.6540761,38.7507716 97.3335632,38.7516456 L97.3896552,38.7516456 C97.5903492,38.7427413 97.7887127,38.7048833 97.9786207,38.6392405 C98.0904508,38.5973101 98.1983775,38.5455912 98.3011494,38.4846835 L98.5816092,38.3020253 C98.6646668,38.2562973 98.7443358,38.2046451 98.82,38.1474684 L103.293333,33.6653165 C104.065604,32.8348966 104.042817,31.5408334 103.24179,30.7382273 C102.440763,29.9356213 101.149246,29.912789 100.32046,30.6865823 L99.3949425,31.6139241 L99.3949425,18.9683544 C99.3949425,17.8043619 98.4531967,16.8607595 97.2914943,16.8607595 L72.2183908,16.8607595 C71.0566884,16.8607595 70.1149425,17.8043619 70.1149425,18.9683544 C70.1149425,20.132347 71.0566884,21.0759494 72.2183908,21.0759494 L95.188046,21.0759494 L95.188046,31.5717722 L95.188046,31.6560759 Z" id="Path" fill="#FEBBBA"></path>
        </g>
    </g>
</svg>