<?xml version="1.0" encoding="UTF-8"?>
<svg width="140px" height="160px" viewBox="0 0 140 160" version="1.1" xmlns="http://www.w3.org/2000/svg" xmlns:xlink="http://www.w3.org/1999/xlink">
    <!-- Generator: Sketch 41.1 (35376) - http://www.bohemiancoding.com/sketch -->
    <title>Shopping</title>
    <desc>Created with Sketch.</desc>
    <defs></defs>
    <g id="Page-1" stroke="none" stroke-width="1" fill="none" fill-rule="evenodd">
        <g id="Shopping" transform="translate(14.000000, 5.000000)">
            <path d="M92.524799,44.0461052 C85.3715726,49.6098246 81.807011,41.5073901 81.5213461,34.6975549 C81.1348059,25.532257 81.7239896,10.8783284 71.6596599,6.35959425 C62.0157932,2.02858199 48.7082748,9.02524514 49.4992094,20.0221724 L48.6457856,42.680205 C58.735111,50.0684024 71.446304,66.1248817 85.8482759,57.2679839 C89.729747,54.8812342 93.4496389,48.6479734 92.524799,44.0461052" id="Fill-41" fill="#AAAAAA"></path>
            <polygon id="Fill-42" fill="#FFEBEB" points="53.5208348 95.6660503 55.6285057 149.757749 58.2521588 149.757749 61.4507124 87.6851881 46.3961749 87.6851881 48.7823691 149.757749 51.8461246 149.757749"></polygon>
            <polygon id="Fill-43" fill="#9E9E9E" points="51.8130946 145.885315 49.6786426 145.044142 43.4493635 149.757749 52.4674457 149.757749"></polygon>
            <polygon id="Fill-44" fill="#9E9E9E" points="57.7897389 145.044142 55.6552868 145.885315 55.0000431 149.757749 64.0172326 149.757749"></polygon>
            <path d="M70.0269068,22.9890723 C63.2736112,18.2727832 52.3094373,16.8353698 46.1194371,18.4292181 C34.5571524,21.4050571 28.634963,29.9759024 31.6273023,46.1709383 C45.9141155,44.9945478 60.5026622,44.2365089 74.5939736,46.5606847 C77.9960634,38.1891822 77.0962191,27.9234763 70.0269068,22.9890723 Z" id="Fill-45" fill="#AAAAAA"></path>
            <path d="M62.5014235,58.9789349 C66.5480446,57.8624366 69.9438854,55.919962 72.2033159,53.4679565 C73.5709363,53.4509721 75.2626078,52.0046196 76.2981429,49.8279396 C77.531858,47.2338018 77.3649226,44.5922866 75.9276713,43.9290025 C75.5973713,43.7752494 72.6639504,43.7466441 72.2756248,43.8154755 C70.4625457,37.4999746 62.0756043,32.7246872 51.9960987,32.7246872 C42.9958705,32.7246872 37.9074654,36.5345478 35.0802761,41.8479713 C34.5821481,41.4537553 34.0402776,41.2588821 33.4992998,41.3393343 C31.9290358,41.5663884 30.9872345,43.9728043 31.3987704,46.71265 C31.8067355,49.4533897 33.4118149,51.4906192 34.9838643,51.2635651 C35.0722418,51.2501564 35.158834,51.2278085 35.2445334,51.201885 C37.1906252,54.603227 41.1363709,57.3493301 44.4215167,58.8296513 L31.3202126,94.8874514 L46.4131363,67.7249873 L61.9827632,67.7509108 L80.8437848,92.745634 L62.5014235,58.9789349" id="Fill-46" fill="#FFEBEB"></path>
            <path d="M48.6279316,86.825243 L45.5588199,66.0408538 C45.5588199,66.0408538 51.2426576,62.4589413 53.3003372,62.4222908 C55.5838706,62.3838525 61.9827632,66.0408538 61.9827632,66.0408538 L58.4815834,86.7304882 L48.6279316,86.825243" id="Fill-47" fill="#F69A98"></path>
            <path d="M45.6561244,44.380429 C45.6561244,45.4575951 44.8366234,46.3327367 43.8296548,46.3327367 C42.8217935,46.3327367 42.0031852,45.4575951 42.0031852,44.380429 C42.0031852,43.3014751 42.8217935,42.4281213 43.8296548,42.4281213 C44.8366234,42.4281213 45.6561244,43.3014751 45.6561244,44.380429" id="Fill-48" fill="#AAAAAA"></path>
            <path d="M58.5851369,45.2484193 C58.5851369,46.3255854 57.768314,47.200727 56.7613454,47.200727 C55.7516987,47.200727 54.9348758,46.3255854 54.9348758,45.2484193 C54.9348758,44.1694653 55.7516987,43.2952177 56.7613454,43.2952177 C57.768314,43.2952177 58.5851369,44.1694653 58.5851369,45.2484193" id="Fill-49" fill="#AAAAAA"></path>
            <path d="M45.5507855,116.186735 C45.5507855,116.186735 30.8935007,85.6265046 55.0411074,86.3175 C76.1624521,86.9235735 63.1968388,116.471 63.1968388,116.471 C63.1968388,116.471 55.228575,119.606849 45.5507855,116.186735" id="Fill-50" fill="#E5E5E5"></path>
            <path d="M26.8352745,98.2771724 C29.5794424,94.7399556 31.1729166,94.3823901 31.9665293,94.5951416 C33.3493257,94.964328 34.2527408,97.3394569 34.7812208,100.065 L26.8352745,98.2771724 Z M19.3454992,96.592145 L5.95317407,131.650549 L38.6698335,138.704423 L41.9362325,101.674045 L36.590729,100.472625 C36.0390388,97.2044759 34.8722764,93.6046851 32.4093098,92.9431889 C30.3194929,92.3818111 27.8806293,94.0006889 25.011483,97.866866 L19.3454992,96.592145 L19.3454992,96.592145 Z" id="Fill-51" fill="#F1F1F1"></path>
            <polyline id="Fill-52" fill="#CFCFCF" points="84.6404492 128.532578 111.109975 113.569355 94.0334665 87.4912088 74.3940082 96.0414941 84.6404492 128.532578"></polyline>
            <path d="M76.3481343,98.1958263 C76.5356018,93.7191061 77.6264845,92.5033833 78.3959941,92.2155431 C79.7359408,91.7140575 81.8480753,93.1237595 83.857549,95.036735 L76.3481343,98.1958263 Z M69.2707876,101.171665 L78.6638049,137.510154 L109.402235,124.256989 L90.6170934,92.1940892 L85.5670745,94.3180283 C83.2237301,91.9768681 80.1894338,89.7215237 77.7996688,90.6127557 C75.772341,91.3690068 74.7225227,94.1043829 74.6243254,98.9198964 L69.2707876,101.171665 L69.2707876,101.171665 Z" id="Fill-53" fill="#F1F1F1"></path>
            <path d="M50.4370773,53.9237647 C50.3105372,53.9237647 50.1890016,53.9180251 50.0739001,53.9094158 C48.4996557,53.7874501 47.2128074,52.9014056 46.6830548,52.1279999 C46.5772473,51.9730318 46.6165677,51.7613855 46.7709895,51.6552037 C46.9254113,51.5497393 47.1363114,51.5884813 47.2421189,51.742732 C47.6832219,52.3862801 48.7741833,53.1281182 50.126089,53.2314303 C51.0454706,53.300305 52.4145342,53.0900936 53.7435625,51.6745747 C53.8722474,51.5375427 54.0867221,51.5318031 54.2225561,51.6595083 C54.3583901,51.7886484 54.3648243,52.0031645 54.2368544,52.1401965 C52.8870935,53.5765213 51.4808543,53.9237647 50.4370773,53.9237647 Z" id="Shape" fill="#F27674"></path>
            <path d="M68.3755651,34.9210334 C69.3628942,34.2935059 72.4070103,31.8441822 70.7492614,30.5658855 C69.447701,29.5620203 66.0554309,32.3733791 66.2393276,33.4764687 C66.2625379,32.0488884 65.7644098,28.7753762 63.7879662,29.8811475 C62.3989208,30.6597464 63.0345251,34.4258052 63.9263351,35.5458791 C62.92383,33.9493491 58.9798697,34.1227684 58.6567113,35.7782967 C58.0960941,38.6584869 62.5917446,38.7720139 64.3646521,37.755634 C63.1711086,39.144776 61.3785617,41.4421344 63.1041559,42.6533876 C63.2728767,42.7704903 65.0082907,42.783899 65.2252174,42.6685841 C65.7822639,42.3753804 66.2830701,41.5225866 66.4946406,40.7243216 C66.6580052,42.047314 67.2721846,43.5669675 68.4889383,43.4301986 C70.9670809,43.1512975 70.0815199,38.5270816 69.1647142,37.4534911 C70.3787898,38.5467477 72.6498254,38.3992519 72.9899451,36.8518872 C73.5719872,34.2067963 70.0583096,33.7839751 68.3755651,34.9210334" id="Fill-66" fill="#F69A98"></path>
            <g id="Ballon">
                <path d="M26.2056225,16.3106043 C26.2056225,7.55248407 20.4223293,0.453189553 13.2888353,0.453189553 C6.15518072,0.453189553 0.372048193,7.55248407 0.372048193,16.3106043 C0.372048193,24.6347765 5.59823293,31.456081 12.2414458,32.1114758 L10.0865863,36.0327047 L16.4909237,36.0327047 L14.3360643,32.1114758 C20.9794378,31.456081 26.2056225,24.6347765 26.2056225,16.3106043" id="Fill-38" fill="#FFEBEB"></path>
                <path d="M10.7126104,35.6529369 L15.8650602,35.6529369 L14.0232932,32.3013597 C13.9614458,32.189286 13.9585542,32.0520632 14.0149398,31.9371202 C14.0714859,31.8220083 14.1799197,31.7455484 14.3021687,31.7333958 C20.7742972,31.0950484 25.8441767,24.3204975 25.8441767,16.3106043 C25.8441767,7.77595631 20.2117269,0.832957335 13.2888353,0.832957335 C6.36578313,0.832957335 0.733493976,7.77595631 0.733493976,16.3106043 C0.733493976,24.3204975 5.80321285,31.0950484 12.2753414,31.7333958 C12.397751,31.7455484 12.5061847,31.8220083 12.5625703,31.9371202 C12.6191165,32.0520632 12.6160643,32.189286 12.5542169,32.3013597 L10.7126104,35.6529369 Z M16.4909237,36.4124725 L10.0865863,36.4124725 C9.95726908,36.4124725 9.83807229,36.3400634 9.77365462,36.2225886 C9.70891566,36.1051138 9.70891566,35.9602957 9.77365462,35.8428208 L11.6541365,32.4206911 C8.54232932,31.9533236 5.67582329,30.1594694 3.53220884,27.323026 C1.26136546,24.3176282 0.0106024096,20.4065264 0.0106024096,16.3106043 C0.0106024096,7.35736783 5.96722892,0.0734217711 13.2888353,0.0734217711 C20.6104418,0.0734217711 26.5670683,7.35736783 26.5670683,16.3106043 C26.5670683,20.4065264 25.3156627,24.3176282 23.0453012,27.323026 C20.9016867,30.1594694 18.0353414,31.9533236 14.9233735,32.4206911 L16.8038554,35.8428208 C16.868755,35.9602957 16.868755,36.1051138 16.8038554,36.2225886 C16.7394378,36.3400634 16.620241,36.4124725 16.4909237,36.4124725 L16.4909237,36.4124725 Z" id="Fill-39" fill="#CFCFCF"></path>
                <path d="M22.8939759,15.7254243 C22.8939759,22.1988615 18.1792771,27.4465771 12.3635341,27.4465771 C6.54746988,27.4465771 1.83293173,22.1988615 1.83293173,15.7254243 C1.83293173,9.25181831 6.54746988,4.00410271 12.3635341,4.00410271 C18.1792771,4.00410271 22.8939759,9.25181831 22.8939759,15.7254243" id="Fill-40" fill="#F69A98"></path>
                <path d="M12.3609639,10.2250365 C12.3609639,10.0159111 12.302008,9.85910919 12.1844177,9.75479964 C12.0666667,9.65015251 11.93751,9.59766017 11.7963052,9.59766017 C11.6551004,9.59766017 11.5254618,9.65015251 11.4078715,9.75479964 C11.2901205,9.85910919 11.2314859,10.0159111 11.2314859,10.2250365 L11.2314859,22.4876538 C11.2314859,22.6966105 11.2901205,22.8535812 11.4078715,22.9578907 C11.5254618,23.0625379 11.6551004,23.1146926 11.7963052,23.1146926 C11.93751,23.1146926 12.0666667,23.0625379 12.1844177,22.9578907 C12.302008,22.8535812 12.3609639,22.6966105 12.3609639,22.4876538 L12.3609639,10.2250365 Z M13.866988,22.4483268 C13.866988,22.7253041 13.8080321,22.9675115 13.6904418,23.1752867 C13.5726908,23.3828931 13.4159036,23.5560672 13.219759,23.6944714 C13.0236145,23.8328757 12.8020884,23.9366789 12.5550201,24.0060498 C12.3079518,24.0752519 12.0551004,24.109853 11.7963052,24.109853 C11.5373494,24.109853 11.2843373,24.0752519 11.0372691,24.0060498 C10.7902008,23.9366789 10.5685141,23.8328757 10.3723695,23.6944714 C10.1763855,23.5560672 10.0194378,23.3828931 9.90184739,23.1752867 C9.78409639,22.9675115 9.72546185,22.7253041 9.72546185,22.4483268 L9.72546185,10.2641948 C9.72546185,9.98721752 9.78409639,9.74484128 9.90184739,9.53723489 C10.0194378,9.32945972 10.1763855,9.1564544 10.3723695,9.01805014 C10.5685141,8.8794771 10.7902008,8.7756739 11.0372691,8.70647177 C11.2843373,8.63726964 11.5373494,8.60266858 11.7963052,8.60266858 C12.0551004,8.60266858 12.3079518,8.63726964 12.5550201,8.70647177 C12.8020884,8.7756739 13.0236145,8.8794771 13.219759,9.01805014 C13.4159036,9.1564544 13.5726908,9.32945972 13.6904418,9.53723489 C13.8080321,9.74484128 13.866988,9.98721752 13.866988,10.2641948 L13.866988,22.4483268 L13.866988,22.4483268 Z" id="Fill-41" fill="#F9F9F9"></path>
                <path d="M20.3993574,12.9124422 C20.3993574,12.8570804 20.373012,12.8128586 20.3206426,12.7801142 C20.2679518,12.747201 20.2061044,12.73066 20.1349398,12.73066 C20.0583133,12.73066 19.9905221,12.747201 19.9307631,12.7801142 C19.8713253,12.8128586 19.8416064,12.8570804 19.8416064,12.9124422 L19.8416064,15.9809658 C19.8416064,16.0086467 19.8653815,16.0432477 19.9130924,16.084769 C19.9608032,16.1262903 20.0345382,16.1470509 20.1349398,16.1470509 C20.2061044,16.1470509 20.2679518,16.1306787 20.3206426,16.0979343 C20.373012,16.0650211 20.3993574,16.0258628 20.3993574,15.9809658 L20.3993574,12.9124422 Z M21.3029719,15.8677106 C21.3029719,15.9748895 21.2716466,16.0751482 21.2094779,16.1684867 C21.1471486,16.2618252 21.0623293,16.343855 20.9558233,16.414745 C20.848996,16.4858038 20.7243373,16.5420094 20.582008,16.5835307 C20.4395181,16.625052 20.2906024,16.6454751 20.1349398,16.6454751 C19.968996,16.6454751 19.8131727,16.625052 19.6674699,16.5835307 C19.5217671,16.5420094 19.3951807,16.4847911 19.2877108,16.412382 C19.1799197,16.3396354 19.0947791,16.2542298 19.0321285,16.1554902 C18.9693173,16.0570882 18.937992,15.9526098 18.937992,15.8417176 L18.937992,13.0307609 C18.937992,12.9203751 18.9693173,12.8167407 19.0321285,12.7196889 C19.0947791,12.6228059 19.1799197,12.5382443 19.2877108,12.4654977 C19.3951807,12.3932574 19.5217671,12.3360391 19.6674699,12.2945178 C19.8131727,12.2529965 19.968996,12.2322359 20.1349398,12.2322359 C20.2906024,12.2322359 20.4395181,12.2521526 20.582008,12.2916484 C20.7243373,12.3316506 20.848996,12.3863372 20.9558233,12.4552017 C21.0623293,12.5244039 21.1471486,12.6064337 21.2094779,12.7014601 C21.2716466,12.7966552 21.3029719,12.9013023 21.3029719,13.0154014 L21.3029719,15.8677106 Z M19.1921285,8.61330208 L17.8562249,17.7565912 L16.9119679,17.7565912 L18.2478715,8.61330208 L19.1921285,8.61330208 Z M16.0435341,10.4145829 C16.0435341,10.3629344 16.0171888,10.3197253 15.9651406,10.2851242 C15.9124498,10.2503544 15.8480321,10.233307 15.7718876,10.233307 C15.700241,10.233307 15.6348594,10.2503544 15.5751004,10.2851242 C15.515502,10.3197253 15.4859438,10.3629344 15.4859438,10.4145829 L15.4859438,13.4783805 C15.4859438,13.5097747 15.5097189,13.5450509 15.5575904,13.5848843 C15.6049799,13.6247177 15.6764659,13.6444656 15.7718876,13.6444656 C15.8480321,13.6444656 15.9124498,13.6291062 15.9651406,13.5978808 C16.0171888,13.5668242 16.0435341,13.5269908 16.0435341,13.4783805 L16.0435341,10.4145829 Z M16.9471486,13.3615808 C16.9471486,13.468591 16.9148594,13.5695248 16.8502811,13.6643824 C16.7858635,13.7594087 16.6999197,13.8421137 16.593253,13.9126661 C16.4862651,13.9835561 16.3617671,14.0395929 16.2192771,14.0807766 C16.0767871,14.1222979 15.9275502,14.1428898 15.7718876,14.1428898 C15.6115663,14.1428898 15.4587952,14.1222979 15.3138956,14.0807766 C15.1691566,14.0395929 15.0433735,13.9827122 14.9363855,13.9103031 C14.8293976,13.8377253 14.7436145,13.7524885 14.6790361,13.6540864 C14.6146185,13.5556844 14.5823293,13.449687 14.5823293,13.3359254 L14.5823293,10.5315513 C14.5823293,10.4245412 14.6146185,10.3229322 14.6790361,10.2263868 C14.7436145,10.1298414 14.8293976,10.0454486 14.9363855,9.97287074 C15.0433735,9.90029289 15.1691566,9.84256819 15.3138956,9.79952784 C15.4586345,9.75665628 15.611245,9.73488293 15.7714056,9.73488293 C15.9270683,9.73488293 16.0763052,9.75479964 16.2189558,9.79429549 C16.3616064,9.83412891 16.4859438,9.88830911 16.5930924,9.95734245 C16.6999197,10.026207 16.7858635,10.1090808 16.8502811,10.205795 C16.9148594,10.3021716 16.9471486,10.4074939 16.9471486,10.5212554 L16.9471486,13.3615808 L16.9471486,13.3615808 Z" id="Fill-42" fill="#F9F9F9"></path>
                <polyline id="Fill-43" fill="#F9F9F9" points="5.29975904 8.8794771 5.29975904 10.0368405 7.34570281 10.0368405 5.96048193 23.8328757 7.47036145 23.8328757 8.97253012 8.8794771 5.29975904 8.8794771"></polyline>
                <path d="M13.5127711,29.3089583 C13.3212851,29.3089583 13.1614458,29.1511437 13.1519679,28.9479258 C13.1423293,28.7384627 13.2960643,28.560225 13.4954217,28.5500979 C17.4830522,28.3455297 20.9333333,25.0116749 22.2851406,20.0564649 C22.3404016,19.8551036 22.5404016,19.7386414 22.7322088,19.7958598 C22.9241767,19.8537533 23.0351807,20.0640602 22.9804016,20.2655903 C21.5415261,25.538455 17.8326104,29.0878491 13.5307631,29.3087895 C13.524498,29.3089583 13.5187149,29.3089583 13.5127711,29.3089583" id="Fill-44" fill="#CFCFCF"></path>
                <path d="M15.8099598,50.2719536 C15.6729317,47.3807537 14.6859438,46.5208012 13.1918072,44.4002305 C12.7776707,43.8122691 12.3490763,43.2042418 11.8888353,42.49381 C9.58891566,38.9463213 13.0212048,35.7757576 13.0562249,35.7442751 C13.2093173,35.6057175 13.4371084,35.6268211 13.5654618,35.7918448 C13.6938153,35.9561764 13.6742169,36.2014631 13.5217671,36.3398477 C13.3998394,36.4507283 10.5616064,39.0871276 12.4814458,42.0485576 C12.9336546,42.7458429 13.357751,43.3479888 13.7678715,43.9298959 C15.2864257,46.0852358 16.3832932,47.1015629 16.5318876,50.232514 C16.7905221,55.6905748 16.0514056,55.3679657 15.8099598,50.2719536 Z" id="Fill-45" fill="#CFCFCF"></path>
            </g>
        </g>
    </g>
</svg>