<?xml version="1.0" encoding="UTF-8"?>
<svg width="152px" height="27px" viewBox="0 0 152 27" version="1.1" xmlns="http://www.w3.org/2000/svg" xmlns:xlink="http://www.w3.org/1999/xlink">
    <!-- Generator: Sketch 41.1 (35376) - http://www.bohemiancoding.com/sketch -->
    <title>KhaaliJeb Font</title>
    <desc>Created with Sketch.</desc>
    <defs></defs>
    <g id="Page-1" stroke="none" stroke-width="1" fill="none" fill-rule="evenodd">
        <path d="M4.51970224,20.1803041 C4.51970224,20.2236001 4.54258752,20.2524642 4.59598651,20.2019522 L11.3852868,10.972676 C11.4081721,10.5108514 11.4310574,10.0778908 11.4691995,9.69544229 C11.5073416,9.32020981 11.995561,8.9377613 12.4380097,8.90889726 C12.4380097,8.90889726 13.1321966,8.90168125 13.5288748,8.94497731 L14.924877,8.83673717 C15.2605278,8.80787313 15.4893806,9.10372952 15.4741238,9.42844995 C15.4207248,10.3665312 15.1918719,10.7634117 14.3680018,11.4417166 C13.0635408,13.0725348 11.942162,14.2559603 10.6377009,15.8867785 C10.5614166,15.9733706 10.5080176,16.0816107 10.6453293,16.2259309 L15.6724629,22.1719227 C16.1606823,22.4461311 16.603131,22.8935237 16.8701259,23.2543242 C17.1066072,23.5646125 16.603131,24.2789975 16.2903654,24.5748539 C15.7716324,25.0438946 14.0933785,26.097432 13.5899023,25.4696391 C13.2695083,25.0799745 13.0940544,24.4810458 12.9872565,23.903765 L12.8575732,23.7450128 C11.2479751,21.8472023 10.3096785,20.1803041 8.68482351,18.2897097 C8.66193823,18.2680616 8.63142452,18.2824936 8.6237961,18.2897097 L5.22914597,23.1965961 C5.07657743,24.5315578 5.51139778,25.5273671 3.90942806,25.6933354 C3.90942806,25.6933354 3.49749299,25.6789034 3.10081477,25.6500394 L1.65141359,25.6789034 C1.3157628,25.6861194 1.15556582,25.426343 1.07928155,25.1016226 C0.94196986,24.5387739 1.36153336,23.4130764 1.40730392,23.1677321 C1.45307449,22.9584678 1.18607953,5.90703731 1.20896481,3.67729037 C0.94196986,3.15052167 0.995368851,2.3423286 1.02588256,1.85885597 C1.04113941,1.47640747 1.42256078,1.13725502 1.85738113,1.08674295 C1.85738113,1.08674295 3.10081477,1.00015084 3.50512141,1.02179887 L4.43578954,1.00015084 C4.77144034,0.992934831 4.9850363,1.24549516 5.01555001,1.57021559 C5.04606371,1.97431212 4.99266472,3.11444162 4.70278449,3.56183422 C4.70278449,6.77295844 4.51970224,16.9763959 4.51970224,20.1803041 Z M23.5957681,11.5574848 C23.5957681,11.694589 23.6567956,11.658509 23.7559651,11.5863489 C24.038217,11.3698686 24.6942617,10.5472435 25.6554435,9.88337062 C27.0361889,8.93807337 29.6756247,8.19482439 31.8268412,9.06796155 C35.5037431,10.7709398 35.038409,15.0644654 35.038409,15.0644654 L35.3282893,22.5041713 C35.7402243,23.1969082 35.7859949,24.1061254 35.7478528,24.7844303 C35.7249675,25.2751189 35.3206609,25.4915992 34.7485288,25.5565433 C34.7485288,25.5565433 34.2069105,25.5709753 33.6881774,25.5348952 L32.4447437,25.5926233 C32.0099234,25.6070553 31.7505569,25.2823349 31.6971579,24.8565904 C31.6361305,24.3659017 31.8573549,23.1608281 32.2006341,22.6340594 L31.9794097,13.5635355 C31.7353001,11.2760604 29.7137669,10.8214519 29.7137669,10.8214519 C25.9605806,10.2297391 24.0000748,13.159439 23.6415387,13.7439357 C23.5576261,13.8593919 23.5805113,13.8160958 23.5805113,13.945984 L23.5957681,22.1289388 C24.0687307,22.8288916 24.183157,24.1061254 24.1450149,24.8205103 C24.1221296,25.318415 23.717823,25.5276792 23.1456909,25.5998393 C23.1456909,25.5998393 22.6040726,25.6070553 22.0853395,25.5709753 L20.841906,25.6287034 C20.4070856,25.6503514 20.2240033,25.325631 20.2240033,24.8926704 C20.2316318,24.2720936 20.1782328,23.06702 20.5367688,22.4103631 L20.4223425,3.99510686 L20.3384298,3.99510686 C20.0104073,3.31680197 20.0714348,2.43644881 20.1019485,1.80865598 C20.1324622,1.31796733 20.7198511,1.10148705 21.2843547,1.03654296 C21.2843547,1.03654296 21.6810329,1.02932695 22.199766,1.05819099 L23.4431997,1.00046292 C23.87802,0.986030897 24.0763591,1.31075133 24.0687307,1.73649589 C24.0611023,2.40036876 24.0153317,3.24464187 23.6186534,3.91573076 L23.5957681,11.5574848 Z M56.234058,11.9576485 C56.2264296,12.6215214 56.1577737,13.3142583 55.8678935,14.1296673 L55.8678935,22.5218864 C56.2569433,23.2074073 56.2645717,23.8352001 56.2722001,24.491857 C56.2722001,24.9392496 56.0052052,25.235106 55.5703848,25.3289141 C54.7388863,25.5093143 54.1743826,25.5165304 53.3352557,25.5093143 C52.7478668,25.4371542 52.3359317,25.4443703 52.305418,24.9392496 C52.2825327,24.484641 52.19862,23.8568482 52.2062484,23.2651354 C52.2062484,23.1785433 52.2062484,23.1496792 52.1223357,23.2146233 C51.5120615,23.734176 50.1465731,25.0402737 49.3379597,25.278402 C44.1735145,26.8226281 40.0617922,23.0847351 39.771912,18.1273366 C39.6956277,17.0593672 39.8176826,15.8254295 40.0846775,14.678084 C41.5111934,8.76095626 48.94891,6.94252187 51.1611539,9.98767787 C51.4586625,10.4567185 51.2603235,11.0772953 50.8178747,11.0917273 C47.3316834,11.2071835 45.0278984,10.6731988 43.4716993,14.9306444 C41.6027345,23.3950236 48.1784389,25.9350589 52.4808718,20.7972601 C52.5495276,20.710668 52.6258119,20.6168599 52.6944678,20.5302678 L52.6105551,14.5265479 C52.3817023,13.7255708 52.2291337,12.8524337 52.2749043,12.0875366 C52.2977896,11.5752 52.7173531,11.3587197 53.304742,11.2865596 C53.304742,11.2865596 53.8616172,11.2793436 54.3956071,11.3154237 L55.4635869,11.1999675 C55.9136641,11.1494554 56.2416864,11.5174719 56.234058,11.9576485 Z M76.8011065,11.9578876 C76.8011065,12.6217605 76.7248222,13.3072814 76.4349419,14.1226904 L76.4349419,22.5221255 C76.8239918,23.2076465 76.8316202,23.8354393 76.8392486,24.4920962 C76.8392486,24.9322727 76.5798821,25.2353451 76.1374333,25.3291532 C75.3059348,25.5023374 74.7414311,25.5167694 73.9023041,25.5023374 C73.3225436,25.4373934 72.9029801,25.4446093 72.8724664,24.9322727 C72.8495811,24.4848801 72.7656685,23.8570873 72.7732969,23.2581585 C72.7732969,23.1787824 72.7732969,23.1499184 72.6893842,23.2148624 C72.07911,23.7344151 70.7136215,25.0405128 69.9126367,25.2786412 C64.740563,26.8156512 60.6288407,23.0849743 60.3389604,18.1275757 C60.2626762,17.0596064 60.384731,15.8256687 60.651726,14.6711071 C62.0782419,8.7611954 69.5159585,6.942761 71.7282024,9.98791701 C72.025711,10.4569576 71.8350003,11.0775345 71.3849231,11.0919665 C67.8987319,11.2074226 65.5949468,10.6662219 64.0387477,14.9308835 C62.169783,23.3952627 68.7531157,25.935298 73.0479203,20.7974993 C73.1165761,20.7109071 73.1928604,20.6170991 73.2615163,20.5232909 L73.1776036,14.519571 C72.9487507,13.7258099 72.7961821,12.8454568 72.8419527,12.0877758 C72.864838,11.5754391 73.2844015,11.3589588 73.8717904,11.2867987 C73.8717904,11.2867987 74.4286656,11.2795827 74.9626555,11.3084468 L76.0306353,11.2002066 C76.4807125,11.1496946 76.8087349,11.510495 76.8011065,11.9578876 Z M83.8114035,1.0721601 L85.0395803,1.01443202 C85.4667722,1 85.7719093,1.31750442 85.7719093,1.73603297 C85.7795377,2.43598589 85.8100514,3.36685112 85.3599742,4.05237202 L85.4057448,22.287228 C85.7871661,23.2036612 85.855822,23.8675341 85.8176798,24.6468631 C85.7871661,25.1375518 85.3904879,25.3468161 84.8336127,25.4117602 L83.445239,25.4045442 L82.5603414,25.4406242 C82.1331495,25.4622723 81.820384,25.1447678 81.820384,24.7190232 C81.8280124,24.1200945 82.0034662,23.3479814 82.3467455,22.7129727 C82.5374561,19.7904887 82.2933465,6.21717488 82.2475759,4.11731611 C81.9576956,3.38849915 81.7440997,2.47928195 81.7822419,1.80819307 C81.8051271,1.32472043 82.2094338,1.10824014 82.766309,1.04329606 C82.766309,1.04329606 83.7808898,1.06494409 83.8114035,1.0721601 Z M92.6496587,9.19373533 C92.672544,9.15765528 92.8022277,9.20095134 92.8022277,9.20095134 L93.9846339,9.15043927 C94.4194545,9.12879124 94.6940771,9.46072768 94.7322196,9.88647224 C94.7856183,10.5864252 94.7474768,11.4451303 94.2516284,12.1162191 L94.3355415,22.5866489 C94.610165,23.5608103 94.8771595,24.1886031 94.8313889,24.9895802 C94.8085036,25.4802688 94.4041973,25.696749 93.832065,25.7616932 L92.4284348,25.7544771 L91.5282802,25.7905572 C91.0934599,25.8122052 90.7730659,25.4874848 90.7806943,25.0545242 C90.7806943,24.4483794 90.8417217,23.6690504 91.185001,23.0196095 C91.3757116,20.0538296 91.131602,14.3171021 91.0858315,12.1883792 C90.6815248,11.4884264 90.7044101,10.6297212 90.7349238,9.95863234 C90.7654375,9.46072768 91.1697442,9.24424739 91.7342478,9.17930331 C91.7342478,9.17930331 92.1843247,9.1720873 92.6496587,9.19373533 Z M94.8402211,4.80694931 C94.8631064,5.29763796 94.8554783,5.24712589 94.8554783,5.24712589 C94.7944505,5.78111059 94.7257947,6.25736722 94.062122,6.32952731 L92.6813762,6.48827952 C92.2084141,6.51714356 91.7201946,6.50992755 91.7201946,6.50992755 C91.2853742,6.45219948 90.9573519,6.28623125 90.8505539,5.9398628 C90.781898,5.79554261 90.7437559,5.62957439 90.7208706,5.43474213 C90.7208706,5.43474213 90.7132422,5.4852542 90.7437559,4.99456555 L90.7971549,3.63073976 C90.8124117,3.21942721 91.0794067,3.053459 91.4531997,2.93800285 C91.4913418,2.93078684 91.7125661,2.90913881 91.7964789,2.89470679 C91.7964789,2.89470679 92.2923262,2.8297627 92.7576603,2.85862674 L93.9476956,2.80811467 L94.1231489,2.80811467 C94.5350842,2.80089866 94.8478502,3.14005111 94.8402211,3.55136365 L94.8402211,4.80694931 Z M109.007911,1.05149316 L110.304744,1.00098109 C110.762449,0.979333062 111.090472,1.31848551 111.082843,1.7658781 C111.082843,2.40088694 110.892133,3.21629601 110.533597,3.89460091 L110.648024,13.838262 C110.594624,17.3308106 111.189642,21.422288 109.503759,23.9551073 C107.711079,26.8920232 99.9605965,27.462088 99.6783448,20.2244304 C99.5562902,18.391564 100.136051,18.0307635 101.112489,18.0884916 C102.577147,18.1822998 101.974501,19.6904457 102.249125,20.9099513 C102.653431,22.6706576 103.835838,23.659251 105.689545,23.2695865 C107.306772,22.7572497 107.375428,19.9646541 107.375428,19.9646541 C107.367799,19.9790861 107.283887,6.39134019 107.154203,3.8873849 C106.887209,3.22351202 106.818553,2.42253497 106.849066,1.83803819 C106.87958,1.32570152 107.299143,1.10200522 107.894161,1.02984513 C107.894161,1.02984513 108.466293,1.02262912 109.007911,1.05149316 Z M128.085608,16.9743238 C130.641131,15.3435056 130.595361,13.351887 129.733348,11.4540765 C129.733348,11.4540765 128.474658,9.13773747 125.995419,8.95012123 C125.995419,8.95012123 120.26647,7.78112768 117.001504,12.8828464 C117.001504,12.8828464 114.308669,16.3898271 116.848935,21.5925698 C120.213071,27.7911221 127.078656,25.0634704 127.078656,25.0634704 C127.078656,25.0634704 129.321413,24.0460131 130.030857,22.9130997 C130.740301,21.7801861 130.11477,21.3183615 130.11477,21.3183615 C130.11477,21.3183615 129.329042,20.3225522 128.207663,21.3472255 C128.207663,21.3472255 127.475334,22.5667312 126.323441,23.1007159 C121.563303,25.3160308 117.237985,19.1463426 120.152044,18.8937824 C120.152044,18.8937824 125.072379,18.8937824 128.085608,16.9743238 Z M125.705539,11.3674844 C128.192407,12.6375021 127.276995,14.7012808 126.857431,15.1631054 C125.408031,16.5702273 121.792156,17.154724 119.58754,17.2196681 C119.58754,17.2196681 119.206119,17.3856363 119.183234,16.9887558 C119.015408,15.7620342 120.26647,13.4889912 120.480066,13.301375 C120.480066,13.301375 122.707567,10.1984909 125.705539,11.3674844 Z M137.191852,21.3501911 C137.191852,21.3501911 137.199481,21.8336637 137.634301,22.2161122 C139.159987,23.601586 141.082351,23.7026101 142.92843,23.4716978 C148.054733,22.829473 147.978449,11.6735223 143.11914,10.9663534 C140.708558,10.4035046 138.954019,12.1209148 137.413077,13.6362768 C137.214738,13.8238931 137.130825,14.0115093 137.123197,14.2640697 C137.100311,14.8774305 137.138454,16.789673 137.138454,16.789673 L137.191852,21.3501911 Z M137.069798,11.5292021 C137.085054,11.8394905 137.321536,11.7312503 137.321536,11.7312503 C139.167615,10.0354881 139.373583,9.77571178 140.746699,9.19121501 C142.501238,8.44796603 144.461743,8.90257463 144.461743,8.90257463 C147.802995,9.53758347 149.115084,12.4961473 149.115084,12.4961473 C150.617885,15.6639755 150.213578,20.527566 147.848765,23.2047055 C147.635169,23.5149938 145.117789,25.8385489 141.051836,25.5138286 C137.443591,25.2324041 134.888068,23.4572658 134.560045,23.2768656 C134.232022,23.0892493 134.308307,22.7861769 134.308307,22.7861769 L134.140482,4.58740095 C133.926885,3.82250394 133.61412,2.50197419 133.644634,1.78037324 C133.667519,1.30411662 134.071826,1.09485234 134.621072,1.02990825 C134.621072,1.02990825 135.147434,1.02269224 135.658539,1.05155628 L136.871458,1.00104422 C137.291022,0.979396187 137.603788,1.29690061 137.596159,1.71542916 C137.596159,2.42259809 137.603788,3.7214798 137.130825,4.3997847 C137.130825,6.04503487 137.054541,11.2766418 137.069798,11.5292021 Z" id="KhaaliJeb-Font" fill="#4A4A4A"></path>
    </g>
</svg>