<?xml version="1.0" encoding="UTF-8"?>
<svg width="140px" height="160px" viewBox="0 0 140 160" version="1.1" xmlns="http://www.w3.org/2000/svg" xmlns:xlink="http://www.w3.org/1999/xlink">
    <!-- Generator: Sketch 41.1 (35376) - http://www.bohemiancoding.com/sketch -->
    <title>Mobile Accept</title>
    <desc>Created with Sketch.</desc>
    <defs></defs>
    <g id="Page-1" stroke="none" stroke-width="1" fill="none" fill-rule="evenodd">
        <g id="Mobile-Accept" transform="translate(7.000000, 7.000000)">
            <g id="Group-3" transform="translate(3.468750, 1.158730)">
                <rect id="Combined-Shape" fill="#F1F1F1" x="0" y="0" width="74" height="141.365079" rx="5.43560534"></rect>
                <rect id="Rectangle-14" fill="#FCFCFC" x="2.3125" y="13.9047619" width="69.375" height="110.079365"></rect>
                <path d="M43.6150475,53.3015873 L21.3298964,53.3015873 L18.5,57.2838251 L32.281598,57.2838253 C35.7476835,57.2838253 35.8124572,59.1546784 37.0312936,61.2087812 L20.2061446,61.2087812 L18.5,65.2579556 L37.0312938,65.2579556 C35.8124574,67.3120585 32.8863447,69.1863512 29.4729236,69.1863512 L21.3298964,69.1863512 C28.1567386,76.0336256 34.2726837,82.3757425 41.4221568,89.2222222 L49.3458755,89.2222222 L32.6494822,73.0084502 C39.3526603,73.0084502 42.1519914,69.7082469 43.6150479,65.2579556 L52.4587573,65.2300643 L54.34375,61.2569447 L43.6150475,61.2087812 C43.3730914,60.0102897 42.3148815,58.3108767 41.3437459,57.2838253 L52.4587573,57.2838251 L54.34375,53.3015873 L43.6150475,53.3015873 Z" id="Shape-Copy-2" fill="#CFCFCF"></path>
                <ellipse id="Oval-4" fill="#F69A98" opacity="0.5" cx="37" cy="132.095238" rx="3.46875" ry="3.47619048"></ellipse>
                <path d="M23.3243534,8.11111111 C23.8528328,8.11111111 24.28125,7.59232998 24.28125,6.95238095 C24.28125,6.31243192 23.8528328,5.79365079 23.3243534,5.79365079 C22.795874,5.79365079 22.3674569,6.31243192 22.3674569,6.95238095 C22.3674569,7.59232998 22.795874,8.11111111 23.3243534,8.11111111 Z M20.6131466,8.11111111 C21.141626,8.11111111 21.5700431,7.59232998 21.5700431,6.95238095 C21.5700431,6.31243192 21.141626,5.79365079 20.6131466,5.79365079 C20.0846672,5.79365079 19.65625,6.31243192 19.65625,6.95238095 C19.65625,7.59232998 20.0846672,8.11111111 20.6131466,8.11111111 Z" id="Sensors" fill="#F69A98"></path>
                <g id="Group" transform="translate(27.750000, 5.793651)" fill="#9E9E9E">
                    <path d="M0.269733733,3.46074074 C0.418703568,3.46074074 0.539467467,3.33162188 0.539467467,3.17234568 C0.539467467,3.01306948 0.418703568,2.88395062 0.269733733,2.88395062 C0.120763899,2.88395062 0,3.01306948 0,3.17234568 C0,3.33162188 0.120763899,3.46074074 0.269733733,3.46074074 Z M1.16884618,3.46074074 C1.31781601,3.46074074 1.43857991,3.33162188 1.43857991,3.17234568 C1.43857991,3.01306948 1.31781601,2.88395062 1.16884618,2.88395062 C1.01987634,2.88395062 0.899112445,3.01306948 0.899112445,3.17234568 C0.899112445,3.33162188 1.01987634,3.46074074 1.16884618,3.46074074 Z M0.269733733,2.49942387 C0.418703568,2.49942387 0.539467467,2.37030501 0.539467467,2.21102881 C0.539467467,2.0517526 0.418703568,1.92263374 0.269733733,1.92263374 C0.120763899,1.92263374 0,2.0517526 0,2.21102881 C0,2.37030501 0.120763899,2.49942387 0.269733733,2.49942387 Z M1.16884618,2.49942387 C1.31781601,2.49942387 1.43857991,2.37030501 1.43857991,2.21102881 C1.43857991,2.0517526 1.31781601,1.92263374 1.16884618,1.92263374 C1.01987634,1.92263374 0.899112445,2.0517526 0.899112445,2.21102881 C0.899112445,2.37030501 1.01987634,2.49942387 1.16884618,2.49942387 Z M0.269733733,1.538107 C0.418703568,1.538107 0.539467467,1.40898814 0.539467467,1.24971193 C0.539467467,1.09043573 0.418703568,0.961316872 0.269733733,0.961316872 C0.120763899,0.961316872 0,1.09043573 0,1.24971193 C0,1.40898814 0.120763899,1.538107 0.269733733,1.538107 Z M1.16884618,1.538107 C1.31781601,1.538107 1.43857991,1.40898814 1.43857991,1.24971193 C1.43857991,1.09043573 1.31781601,0.961316872 1.16884618,0.961316872 C1.01987634,0.961316872 0.899112445,1.09043573 0.899112445,1.24971193 C0.899112445,1.40898814 1.01987634,1.538107 1.16884618,1.538107 Z M0.269733733,0.576790123 C0.418703568,0.576790123 0.539467467,0.447671264 0.539467467,0.288395062 C0.539467467,0.129118859 0.418703568,0 0.269733733,0 C0.120763899,0 0,0.129118859 0,0.288395062 C0,0.447671264 0.120763899,0.576790123 0.269733733,0.576790123 Z M1.16884618,0.576790123 C1.31781601,0.576790123 1.43857991,0.447671264 1.43857991,0.288395062 C1.43857991,0.129118859 1.31781601,0 1.16884618,0 C1.01987634,0 0.899112445,0.129118859 0.899112445,0.288395062 C0.899112445,0.447671264 1.01987634,0.576790123 1.16884618,0.576790123 Z M2.06795862,3.46074074 C2.21692846,3.46074074 2.33769236,3.33162188 2.33769236,3.17234568 C2.33769236,3.01306948 2.21692846,2.88395062 2.06795862,2.88395062 C1.91898879,2.88395062 1.79822489,3.01306948 1.79822489,3.17234568 C1.79822489,3.33162188 1.91898879,3.46074074 2.06795862,3.46074074 Z M2.96707107,3.46074074 C3.1160409,3.46074074 3.2368048,3.33162188 3.2368048,3.17234568 C3.2368048,3.01306948 3.1160409,2.88395062 2.96707107,2.88395062 C2.81810123,2.88395062 2.69733733,3.01306948 2.69733733,3.17234568 C2.69733733,3.33162188 2.81810123,3.46074074 2.96707107,3.46074074 Z M2.06795862,2.49942387 C2.21692846,2.49942387 2.33769236,2.37030501 2.33769236,2.21102881 C2.33769236,2.0517526 2.21692846,1.92263374 2.06795862,1.92263374 C1.91898879,1.92263374 1.79822489,2.0517526 1.79822489,2.21102881 C1.79822489,2.37030501 1.91898879,2.49942387 2.06795862,2.49942387 Z M2.96707107,2.49942387 C3.1160409,2.49942387 3.2368048,2.37030501 3.2368048,2.21102881 C3.2368048,2.0517526 3.1160409,1.92263374 2.96707107,1.92263374 C2.81810123,1.92263374 2.69733733,2.0517526 2.69733733,2.21102881 C2.69733733,2.37030501 2.81810123,2.49942387 2.96707107,2.49942387 Z M2.06795862,1.538107 C2.21692846,1.538107 2.33769236,1.40898814 2.33769236,1.24971193 C2.33769236,1.09043573 2.21692846,0.961316872 2.06795862,0.961316872 C1.91898879,0.961316872 1.79822489,1.09043573 1.79822489,1.24971193 C1.79822489,1.40898814 1.91898879,1.538107 2.06795862,1.538107 Z M2.96707107,1.538107 C3.1160409,1.538107 3.2368048,1.40898814 3.2368048,1.24971193 C3.2368048,1.09043573 3.1160409,0.961316872 2.96707107,0.961316872 C2.81810123,0.961316872 2.69733733,1.09043573 2.69733733,1.24971193 C2.69733733,1.40898814 2.81810123,1.538107 2.96707107,1.538107 Z M2.06795862,0.576790123 C2.21692846,0.576790123 2.33769236,0.447671264 2.33769236,0.288395062 C2.33769236,0.129118859 2.21692846,0 2.06795862,0 C1.91898879,0 1.79822489,0.129118859 1.79822489,0.288395062 C1.79822489,0.447671264 1.91898879,0.576790123 2.06795862,0.576790123 Z M2.96707107,0.576790123 C3.1160409,0.576790123 3.2368048,0.447671264 3.2368048,0.288395062 C3.2368048,0.129118859 3.1160409,0 2.96707107,0 C2.81810123,0 2.69733733,0.129118859 2.69733733,0.288395062 C2.69733733,0.447671264 2.81810123,0.576790123 2.96707107,0.576790123 Z M3.86618351,3.46074074 C4.01515335,3.46074074 4.13591725,3.33162188 4.13591725,3.17234568 C4.13591725,3.01306948 4.01515335,2.88395062 3.86618351,2.88395062 C3.71721368,2.88395062 3.59644978,3.01306948 3.59644978,3.17234568 C3.59644978,3.33162188 3.71721368,3.46074074 3.86618351,3.46074074 Z M4.76529596,3.46074074 C4.91426579,3.46074074 5.03502969,3.33162188 5.03502969,3.17234568 C5.03502969,3.01306948 4.91426579,2.88395062 4.76529596,2.88395062 C4.61632612,2.88395062 4.49556222,3.01306948 4.49556222,3.17234568 C4.49556222,3.33162188 4.61632612,3.46074074 4.76529596,3.46074074 Z M3.86618351,2.49942387 C4.01515335,2.49942387 4.13591725,2.37030501 4.13591725,2.21102881 C4.13591725,2.0517526 4.01515335,1.92263374 3.86618351,1.92263374 C3.71721368,1.92263374 3.59644978,2.0517526 3.59644978,2.21102881 C3.59644978,2.37030501 3.71721368,2.49942387 3.86618351,2.49942387 Z M4.76529596,2.49942387 C4.91426579,2.49942387 5.03502969,2.37030501 5.03502969,2.21102881 C5.03502969,2.0517526 4.91426579,1.92263374 4.76529596,1.92263374 C4.61632612,1.92263374 4.49556222,2.0517526 4.49556222,2.21102881 C4.49556222,2.37030501 4.61632612,2.49942387 4.76529596,2.49942387 Z M3.86618351,1.538107 C4.01515335,1.538107 4.13591725,1.40898814 4.13591725,1.24971193 C4.13591725,1.09043573 4.01515335,0.961316872 3.86618351,0.961316872 C3.71721368,0.961316872 3.59644978,1.09043573 3.59644978,1.24971193 C3.59644978,1.40898814 3.71721368,1.538107 3.86618351,1.538107 Z M4.76529596,1.538107 C4.91426579,1.538107 5.03502969,1.40898814 5.03502969,1.24971193 C5.03502969,1.09043573 4.91426579,0.961316872 4.76529596,0.961316872 C4.61632612,0.961316872 4.49556222,1.09043573 4.49556222,1.24971193 C4.49556222,1.40898814 4.61632612,1.538107 4.76529596,1.538107 Z M3.86618351,0.576790123 C4.01515335,0.576790123 4.13591725,0.447671264 4.13591725,0.288395062 C4.13591725,0.129118859 4.01515335,0 3.86618351,0 C3.71721368,0 3.59644978,0.129118859 3.59644978,0.288395062 C3.59644978,0.447671264 3.71721368,0.576790123 3.86618351,0.576790123 Z M4.76529596,0.576790123 C4.91426579,0.576790123 5.03502969,0.447671264 5.03502969,0.288395062 C5.03502969,0.129118859 4.91426579,0 4.76529596,0 C4.61632612,0 4.49556222,0.129118859 4.49556222,0.288395062 C4.49556222,0.447671264 4.61632612,0.576790123 4.76529596,0.576790123 Z M5.6644084,3.46074074 C5.81337824,3.46074074 5.93414214,3.33162188 5.93414214,3.17234568 C5.93414214,3.01306948 5.81337824,2.88395062 5.6644084,2.88395062 C5.51543857,2.88395062 5.39467467,3.01306948 5.39467467,3.17234568 C5.39467467,3.33162188 5.51543857,3.46074074 5.6644084,3.46074074 Z M6.56352085,3.46074074 C6.71249068,3.46074074 6.83325458,3.33162188 6.83325458,3.17234568 C6.83325458,3.01306948 6.71249068,2.88395062 6.56352085,2.88395062 C6.41455101,2.88395062 6.29378711,3.01306948 6.29378711,3.17234568 C6.29378711,3.33162188 6.41455101,3.46074074 6.56352085,3.46074074 Z M5.6644084,2.49942387 C5.81337824,2.49942387 5.93414214,2.37030501 5.93414214,2.21102881 C5.93414214,2.0517526 5.81337824,1.92263374 5.6644084,1.92263374 C5.51543857,1.92263374 5.39467467,2.0517526 5.39467467,2.21102881 C5.39467467,2.37030501 5.51543857,2.49942387 5.6644084,2.49942387 Z M6.56352085,2.49942387 C6.71249068,2.49942387 6.83325458,2.37030501 6.83325458,2.21102881 C6.83325458,2.0517526 6.71249068,1.92263374 6.56352085,1.92263374 C6.41455101,1.92263374 6.29378711,2.0517526 6.29378711,2.21102881 C6.29378711,2.37030501 6.41455101,2.49942387 6.56352085,2.49942387 Z M5.6644084,1.538107 C5.81337824,1.538107 5.93414214,1.40898814 5.93414214,1.24971193 C5.93414214,1.09043573 5.81337824,0.961316872 5.6644084,0.961316872 C5.51543857,0.961316872 5.39467467,1.09043573 5.39467467,1.24971193 C5.39467467,1.40898814 5.51543857,1.538107 5.6644084,1.538107 Z M6.56352085,1.538107 C6.71249068,1.538107 6.83325458,1.40898814 6.83325458,1.24971193 C6.83325458,1.09043573 6.71249068,0.961316872 6.56352085,0.961316872 C6.41455101,0.961316872 6.29378711,1.09043573 6.29378711,1.24971193 C6.29378711,1.40898814 6.41455101,1.538107 6.56352085,1.538107 Z M5.6644084,0.576790123 C5.81337824,0.576790123 5.93414214,0.447671264 5.93414214,0.288395062 C5.93414214,0.129118859 5.81337824,0 5.6644084,0 C5.51543857,0 5.39467467,0.129118859 5.39467467,0.288395062 C5.39467467,0.447671264 5.51543857,0.576790123 5.6644084,0.576790123 Z M6.56352085,0.576790123 C6.71249068,0.576790123 6.83325458,0.447671264 6.83325458,0.288395062 C6.83325458,0.129118859 6.71249068,0 6.56352085,0 C6.41455101,0 6.29378711,0.129118859 6.29378711,0.288395062 C6.29378711,0.447671264 6.41455101,0.576790123 6.56352085,0.576790123 Z M7.46263329,3.46074074 C7.61160313,3.46074074 7.73236702,3.33162188 7.73236702,3.17234568 C7.73236702,3.01306948 7.61160313,2.88395062 7.46263329,2.88395062 C7.31366346,2.88395062 7.19289956,3.01306948 7.19289956,3.17234568 C7.19289956,3.33162188 7.31366346,3.46074074 7.46263329,3.46074074 Z M8.36174574,3.46074074 C8.51071557,3.46074074 8.63147947,3.33162188 8.63147947,3.17234568 C8.63147947,3.01306948 8.51071557,2.88395062 8.36174574,2.88395062 C8.2127759,2.88395062 8.092012,3.01306948 8.092012,3.17234568 C8.092012,3.33162188 8.2127759,3.46074074 8.36174574,3.46074074 Z M7.46263329,2.49942387 C7.61160313,2.49942387 7.73236702,2.37030501 7.73236702,2.21102881 C7.73236702,2.0517526 7.61160313,1.92263374 7.46263329,1.92263374 C7.31366346,1.92263374 7.19289956,2.0517526 7.19289956,2.21102881 C7.19289956,2.37030501 7.31366346,2.49942387 7.46263329,2.49942387 Z M8.36174574,2.49942387 C8.51071557,2.49942387 8.63147947,2.37030501 8.63147947,2.21102881 C8.63147947,2.0517526 8.51071557,1.92263374 8.36174574,1.92263374 C8.2127759,1.92263374 8.092012,2.0517526 8.092012,2.21102881 C8.092012,2.37030501 8.2127759,2.49942387 8.36174574,2.49942387 Z M7.46263329,1.538107 C7.61160313,1.538107 7.73236702,1.40898814 7.73236702,1.24971193 C7.73236702,1.09043573 7.61160313,0.961316872 7.46263329,0.961316872 C7.31366346,0.961316872 7.19289956,1.09043573 7.19289956,1.24971193 C7.19289956,1.40898814 7.31366346,1.538107 7.46263329,1.538107 Z M8.36174574,1.538107 C8.51071557,1.538107 8.63147947,1.40898814 8.63147947,1.24971193 C8.63147947,1.09043573 8.51071557,0.961316872 8.36174574,0.961316872 C8.2127759,0.961316872 8.092012,1.09043573 8.092012,1.24971193 C8.092012,1.40898814 8.2127759,1.538107 8.36174574,1.538107 Z M7.46263329,0.576790123 C7.61160313,0.576790123 7.73236702,0.447671264 7.73236702,0.288395062 C7.73236702,0.129118859 7.61160313,0 7.46263329,0 C7.31366346,0 7.19289956,0.129118859 7.19289956,0.288395062 C7.19289956,0.447671264 7.31366346,0.576790123 7.46263329,0.576790123 Z M8.36174574,0.576790123 C8.51071557,0.576790123 8.63147947,0.447671264 8.63147947,0.288395062 C8.63147947,0.129118859 8.51071557,0 8.36174574,0 C8.2127759,0 8.092012,0.129118859 8.092012,0.288395062 C8.092012,0.447671264 8.2127759,0.576790123 8.36174574,0.576790123 Z M9.26085818,3.46074074 C9.40982802,3.46074074 9.53059191,3.33162188 9.53059191,3.17234568 C9.53059191,3.01306948 9.40982802,2.88395062 9.26085818,2.88395062 C9.11188835,2.88395062 8.99112445,3.01306948 8.99112445,3.17234568 C8.99112445,3.33162188 9.11188835,3.46074074 9.26085818,3.46074074 Z M10.1599706,3.46074074 C10.3089405,3.46074074 10.4297044,3.33162188 10.4297044,3.17234568 C10.4297044,3.01306948 10.3089405,2.88395062 10.1599706,2.88395062 C10.0110008,2.88395062 9.89023689,3.01306948 9.89023689,3.17234568 C9.89023689,3.33162188 10.0110008,3.46074074 10.1599706,3.46074074 Z M9.26085818,2.49942387 C9.40982802,2.49942387 9.53059191,2.37030501 9.53059191,2.21102881 C9.53059191,2.0517526 9.40982802,1.92263374 9.26085818,1.92263374 C9.11188835,1.92263374 8.99112445,2.0517526 8.99112445,2.21102881 C8.99112445,2.37030501 9.11188835,2.49942387 9.26085818,2.49942387 Z M10.1599706,2.49942387 C10.3089405,2.49942387 10.4297044,2.37030501 10.4297044,2.21102881 C10.4297044,2.0517526 10.3089405,1.92263374 10.1599706,1.92263374 C10.0110008,1.92263374 9.89023689,2.0517526 9.89023689,2.21102881 C9.89023689,2.37030501 10.0110008,2.49942387 10.1599706,2.49942387 Z M9.26085818,1.538107 C9.40982802,1.538107 9.53059191,1.40898814 9.53059191,1.24971193 C9.53059191,1.09043573 9.40982802,0.961316872 9.26085818,0.961316872 C9.11188835,0.961316872 8.99112445,1.09043573 8.99112445,1.24971193 C8.99112445,1.40898814 9.11188835,1.538107 9.26085818,1.538107 Z M10.1599706,1.538107 C10.3089405,1.538107 10.4297044,1.40898814 10.4297044,1.24971193 C10.4297044,1.09043573 10.3089405,0.961316872 10.1599706,0.961316872 C10.0110008,0.961316872 9.89023689,1.09043573 9.89023689,1.24971193 C9.89023689,1.40898814 10.0110008,1.538107 10.1599706,1.538107 Z M9.26085818,0.576790123 C9.40982802,0.576790123 9.53059191,0.447671264 9.53059191,0.288395062 C9.53059191,0.129118859 9.40982802,0 9.26085818,0 C9.11188835,0 8.99112445,0.129118859 8.99112445,0.288395062 C8.99112445,0.447671264 9.11188835,0.576790123 9.26085818,0.576790123 Z M10.1599706,0.576790123 C10.3089405,0.576790123 10.4297044,0.447671264 10.4297044,0.288395062 C10.4297044,0.129118859 10.3089405,0 10.1599706,0 C10.0110008,0 9.89023689,0.129118859 9.89023689,0.288395062 C9.89023689,0.447671264 10.0110008,0.576790123 10.1599706,0.576790123 Z M11.0590831,3.46074074 C11.2080529,3.46074074 11.3288168,3.33162188 11.3288168,3.17234568 C11.3288168,3.01306948 11.2080529,2.88395062 11.0590831,2.88395062 C10.9101132,2.88395062 10.7893493,3.01306948 10.7893493,3.17234568 C10.7893493,3.33162188 10.9101132,3.46074074 11.0590831,3.46074074 Z M11.9581955,3.46074074 C12.1071654,3.46074074 12.2279292,3.33162188 12.2279292,3.17234568 C12.2279292,3.01306948 12.1071654,2.88395062 11.9581955,2.88395062 C11.8092257,2.88395062 11.6884618,3.01306948 11.6884618,3.17234568 C11.6884618,3.33162188 11.8092257,3.46074074 11.9581955,3.46074074 Z M11.0590831,2.49942387 C11.2080529,2.49942387 11.3288168,2.37030501 11.3288168,2.21102881 C11.3288168,2.0517526 11.2080529,1.92263374 11.0590831,1.92263374 C10.9101132,1.92263374 10.7893493,2.0517526 10.7893493,2.21102881 C10.7893493,2.37030501 10.9101132,2.49942387 11.0590831,2.49942387 Z M11.9581955,2.49942387 C12.1071654,2.49942387 12.2279292,2.37030501 12.2279292,2.21102881 C12.2279292,2.0517526 12.1071654,1.92263374 11.9581955,1.92263374 C11.8092257,1.92263374 11.6884618,2.0517526 11.6884618,2.21102881 C11.6884618,2.37030501 11.8092257,2.49942387 11.9581955,2.49942387 Z M11.0590831,1.538107 C11.2080529,1.538107 11.3288168,1.40898814 11.3288168,1.24971193 C11.3288168,1.09043573 11.2080529,0.961316872 11.0590831,0.961316872 C10.9101132,0.961316872 10.7893493,1.09043573 10.7893493,1.24971193 C10.7893493,1.40898814 10.9101132,1.538107 11.0590831,1.538107 Z M11.9581955,1.538107 C12.1071654,1.538107 12.2279292,1.40898814 12.2279292,1.24971193 C12.2279292,1.09043573 12.1071654,0.961316872 11.9581955,0.961316872 C11.8092257,0.961316872 11.6884618,1.09043573 11.6884618,1.24971193 C11.6884618,1.40898814 11.8092257,1.538107 11.9581955,1.538107 Z M11.0590831,0.576790123 C11.2080529,0.576790123 11.3288168,0.447671264 11.3288168,0.288395062 C11.3288168,0.129118859 11.2080529,0 11.0590831,0 C10.9101132,0 10.7893493,0.129118859 10.7893493,0.288395062 C10.7893493,0.447671264 10.9101132,0.576790123 11.0590831,0.576790123 Z M11.9581955,0.576790123 C12.1071654,0.576790123 12.2279292,0.447671264 12.2279292,0.288395062 C12.2279292,0.129118859 12.1071654,0 11.9581955,0 C11.8092257,0 11.6884618,0.129118859 11.6884618,0.288395062 C11.6884618,0.447671264 11.8092257,0.576790123 11.9581955,0.576790123 Z M12.857308,3.46074074 C13.0062778,3.46074074 13.1270417,3.33162188 13.1270417,3.17234568 C13.1270417,3.01306948 13.0062778,2.88395062 12.857308,2.88395062 C12.7083381,2.88395062 12.5875742,3.01306948 12.5875742,3.17234568 C12.5875742,3.33162188 12.7083381,3.46074074 12.857308,3.46074074 Z M13.7564204,3.46074074 C13.9053902,3.46074074 14.0261541,3.33162188 14.0261541,3.17234568 C14.0261541,3.01306948 13.9053902,2.88395062 13.7564204,2.88395062 C13.6074506,2.88395062 13.4866867,3.01306948 13.4866867,3.17234568 C13.4866867,3.33162188 13.6074506,3.46074074 13.7564204,3.46074074 Z M12.857308,2.49942387 C13.0062778,2.49942387 13.1270417,2.37030501 13.1270417,2.21102881 C13.1270417,2.0517526 13.0062778,1.92263374 12.857308,1.92263374 C12.7083381,1.92263374 12.5875742,2.0517526 12.5875742,2.21102881 C12.5875742,2.37030501 12.7083381,2.49942387 12.857308,2.49942387 Z M13.7564204,2.49942387 C13.9053902,2.49942387 14.0261541,2.37030501 14.0261541,2.21102881 C14.0261541,2.0517526 13.9053902,1.92263374 13.7564204,1.92263374 C13.6074506,1.92263374 13.4866867,2.0517526 13.4866867,2.21102881 C13.4866867,2.37030501 13.6074506,2.49942387 13.7564204,2.49942387 Z M12.857308,1.538107 C13.0062778,1.538107 13.1270417,1.40898814 13.1270417,1.24971193 C13.1270417,1.09043573 13.0062778,0.961316872 12.857308,0.961316872 C12.7083381,0.961316872 12.5875742,1.09043573 12.5875742,1.24971193 C12.5875742,1.40898814 12.7083381,1.538107 12.857308,1.538107 Z M13.7564204,1.538107 C13.9053902,1.538107 14.0261541,1.40898814 14.0261541,1.24971193 C14.0261541,1.09043573 13.9053902,0.961316872 13.7564204,0.961316872 C13.6074506,0.961316872 13.4866867,1.09043573 13.4866867,1.24971193 C13.4866867,1.40898814 13.6074506,1.538107 13.7564204,1.538107 Z M12.857308,0.576790123 C13.0062778,0.576790123 13.1270417,0.447671264 13.1270417,0.288395062 C13.1270417,0.129118859 13.0062778,0 12.857308,0 C12.7083381,0 12.5875742,0.129118859 12.5875742,0.288395062 C12.5875742,0.447671264 12.7083381,0.576790123 12.857308,0.576790123 Z M13.7564204,0.576790123 C13.9053902,0.576790123 14.0261541,0.447671264 14.0261541,0.288395062 C14.0261541,0.129118859 13.9053902,0 13.7564204,0 C13.6074506,0 13.4866867,0.129118859 13.4866867,0.288395062 C13.4866867,0.447671264 13.6074506,0.576790123 13.7564204,0.576790123 Z M14.6555328,3.46074074 C14.8045027,3.46074074 14.9252666,3.33162188 14.9252666,3.17234568 C14.9252666,3.01306948 14.8045027,2.88395062 14.6555328,2.88395062 C14.506563,2.88395062 14.3857991,3.01306948 14.3857991,3.17234568 C14.3857991,3.33162188 14.506563,3.46074074 14.6555328,3.46074074 Z M15.5546453,3.46074074 C15.7036151,3.46074074 15.824379,3.33162188 15.824379,3.17234568 C15.824379,3.01306948 15.7036151,2.88395062 15.5546453,2.88395062 C15.4056755,2.88395062 15.2849116,3.01306948 15.2849116,3.17234568 C15.2849116,3.33162188 15.4056755,3.46074074 15.5546453,3.46074074 Z M14.6555328,2.49942387 C14.8045027,2.49942387 14.9252666,2.37030501 14.9252666,2.21102881 C14.9252666,2.0517526 14.8045027,1.92263374 14.6555328,1.92263374 C14.506563,1.92263374 14.3857991,2.0517526 14.3857991,2.21102881 C14.3857991,2.37030501 14.506563,2.49942387 14.6555328,2.49942387 Z M15.5546453,2.49942387 C15.7036151,2.49942387 15.824379,2.37030501 15.824379,2.21102881 C15.824379,2.0517526 15.7036151,1.92263374 15.5546453,1.92263374 C15.4056755,1.92263374 15.2849116,2.0517526 15.2849116,2.21102881 C15.2849116,2.37030501 15.4056755,2.49942387 15.5546453,2.49942387 Z M14.6555328,1.538107 C14.8045027,1.538107 14.9252666,1.40898814 14.9252666,1.24971193 C14.9252666,1.09043573 14.8045027,0.961316872 14.6555328,0.961316872 C14.506563,0.961316872 14.3857991,1.09043573 14.3857991,1.24971193 C14.3857991,1.40898814 14.506563,1.538107 14.6555328,1.538107 Z M15.5546453,1.538107 C15.7036151,1.538107 15.824379,1.40898814 15.824379,1.24971193 C15.824379,1.09043573 15.7036151,0.961316872 15.5546453,0.961316872 C15.4056755,0.961316872 15.2849116,1.09043573 15.2849116,1.24971193 C15.2849116,1.40898814 15.4056755,1.538107 15.5546453,1.538107 Z M14.6555328,0.576790123 C14.8045027,0.576790123 14.9252666,0.447671264 14.9252666,0.288395062 C14.9252666,0.129118859 14.8045027,0 14.6555328,0 C14.506563,0 14.3857991,0.129118859 14.3857991,0.288395062 C14.3857991,0.447671264 14.506563,0.576790123 14.6555328,0.576790123 Z M15.5546453,0.576790123 C15.7036151,0.576790123 15.824379,0.447671264 15.824379,0.288395062 C15.824379,0.129118859 15.7036151,0 15.5546453,0 C15.4056755,0 15.2849116,0.129118859 15.2849116,0.288395062 C15.2849116,0.447671264 15.4056755,0.576790123 15.5546453,0.576790123 Z M16.4537577,3.46074074 C16.6027276,3.46074074 16.7234915,3.33162188 16.7234915,3.17234568 C16.7234915,3.01306948 16.6027276,2.88395062 16.4537577,2.88395062 C16.3047879,2.88395062 16.184024,3.01306948 16.184024,3.17234568 C16.184024,3.33162188 16.3047879,3.46074074 16.4537577,3.46074074 Z M17.3528702,3.46074074 C17.50184,3.46074074 17.6226039,3.33162188 17.6226039,3.17234568 C17.6226039,3.01306948 17.50184,2.88395062 17.3528702,2.88395062 C17.2039003,2.88395062 17.0831365,3.01306948 17.0831365,3.17234568 C17.0831365,3.33162188 17.2039003,3.46074074 17.3528702,3.46074074 Z M16.4537577,2.49942387 C16.6027276,2.49942387 16.7234915,2.37030501 16.7234915,2.21102881 C16.7234915,2.0517526 16.6027276,1.92263374 16.4537577,1.92263374 C16.3047879,1.92263374 16.184024,2.0517526 16.184024,2.21102881 C16.184024,2.37030501 16.3047879,2.49942387 16.4537577,2.49942387 Z M17.3528702,2.49942387 C17.50184,2.49942387 17.6226039,2.37030501 17.6226039,2.21102881 C17.6226039,2.0517526 17.50184,1.92263374 17.3528702,1.92263374 C17.2039003,1.92263374 17.0831365,2.0517526 17.0831365,2.21102881 C17.0831365,2.37030501 17.2039003,2.49942387 17.3528702,2.49942387 Z M16.4537577,1.538107 C16.6027276,1.538107 16.7234915,1.40898814 16.7234915,1.24971193 C16.7234915,1.09043573 16.6027276,0.961316872 16.4537577,0.961316872 C16.3047879,0.961316872 16.184024,1.09043573 16.184024,1.24971193 C16.184024,1.40898814 16.3047879,1.538107 16.4537577,1.538107 Z M17.3528702,1.538107 C17.50184,1.538107 17.6226039,1.40898814 17.6226039,1.24971193 C17.6226039,1.09043573 17.50184,0.961316872 17.3528702,0.961316872 C17.2039003,0.961316872 17.0831365,1.09043573 17.0831365,1.24971193 C17.0831365,1.40898814 17.2039003,1.538107 17.3528702,1.538107 Z M16.4537577,0.576790123 C16.6027276,0.576790123 16.7234915,0.447671264 16.7234915,0.288395062 C16.7234915,0.129118859 16.6027276,0 16.4537577,0 C16.3047879,0 16.184024,0.129118859 16.184024,0.288395062 C16.184024,0.447671264 16.3047879,0.576790123 16.4537577,0.576790123 Z M17.3528702,0.576790123 C17.50184,0.576790123 17.6226039,0.447671264 17.6226039,0.288395062 C17.6226039,0.129118859 17.50184,0 17.3528702,0 C17.2039003,0 17.0831365,0.129118859 17.0831365,0.288395062 C17.0831365,0.447671264 17.2039003,0.576790123 17.3528702,0.576790123 Z M18.2519826,3.46074074 C18.4009525,3.46074074 18.5217164,3.33162188 18.5217164,3.17234568 C18.5217164,3.01306948 18.4009525,2.88395062 18.2519826,2.88395062 C18.1030128,2.88395062 17.9822489,3.01306948 17.9822489,3.17234568 C17.9822489,3.33162188 18.1030128,3.46074074 18.2519826,3.46074074 Z M19.1510951,3.46074074 C19.3000649,3.46074074 19.4208288,3.33162188 19.4208288,3.17234568 C19.4208288,3.01306948 19.3000649,2.88395062 19.1510951,2.88395062 C19.0021252,2.88395062 18.8813613,3.01306948 18.8813613,3.17234568 C18.8813613,3.33162188 19.0021252,3.46074074 19.1510951,3.46074074 Z M18.2519826,2.49942387 C18.4009525,2.49942387 18.5217164,2.37030501 18.5217164,2.21102881 C18.5217164,2.0517526 18.4009525,1.92263374 18.2519826,1.92263374 C18.1030128,1.92263374 17.9822489,2.0517526 17.9822489,2.21102881 C17.9822489,2.37030501 18.1030128,2.49942387 18.2519826,2.49942387 Z M19.1510951,2.49942387 C19.3000649,2.49942387 19.4208288,2.37030501 19.4208288,2.21102881 C19.4208288,2.0517526 19.3000649,1.92263374 19.1510951,1.92263374 C19.0021252,1.92263374 18.8813613,2.0517526 18.8813613,2.21102881 C18.8813613,2.37030501 19.0021252,2.49942387 19.1510951,2.49942387 Z M18.2519826,1.538107 C18.4009525,1.538107 18.5217164,1.40898814 18.5217164,1.24971193 C18.5217164,1.09043573 18.4009525,0.961316872 18.2519826,0.961316872 C18.1030128,0.961316872 17.9822489,1.09043573 17.9822489,1.24971193 C17.9822489,1.40898814 18.1030128,1.538107 18.2519826,1.538107 Z M19.1510951,1.538107 C19.3000649,1.538107 19.4208288,1.40898814 19.4208288,1.24971193 C19.4208288,1.09043573 19.3000649,0.961316872 19.1510951,0.961316872 C19.0021252,0.961316872 18.8813613,1.09043573 18.8813613,1.24971193 C18.8813613,1.40898814 19.0021252,1.538107 19.1510951,1.538107 Z M18.2519826,0.576790123 C18.4009525,0.576790123 18.5217164,0.447671264 18.5217164,0.288395062 C18.5217164,0.129118859 18.4009525,0 18.2519826,0 C18.1030128,0 17.9822489,0.129118859 17.9822489,0.288395062 C17.9822489,0.447671264 18.1030128,0.576790123 18.2519826,0.576790123 Z M19.1510951,0.576790123 C19.3000649,0.576790123 19.4208288,0.447671264 19.4208288,0.288395062 C19.4208288,0.129118859 19.3000649,0 19.1510951,0 C19.0021252,0 18.8813613,0.129118859 18.8813613,0.288395062 C18.8813613,0.447671264 19.0021252,0.576790123 19.1510951,0.576790123 Z" id="Speaker"></path>
                </g>
            </g>
            <g id="Coins" transform="translate(52.031250, 91.539683)">
                <polygon id="Rectangle-6" fill="#FFFFFF" points="0.0578160286 36.5782763 36.3062429 36.5782763 36.3638859 46.3492063 34.6875 48.9693201 2.3125 48.9693201 0 45.1904762"></polygon>
                <path d="M72.7234294,12.7958548 C70.4886515,15.0437583 67.6524966,16.2305078 64.6659975,16.8866803 C62.7573901,17.3172935 60.8258489,17.6428166 58.8662774,17.8196756 C58.3642805,17.8709391 57.8622837,17.9196394 57.3602868,17.9709029 C57.0086342,17.9709029 56.6569816,17.9965346 56.3053289,17.9965346 C54.7483742,18.0221664 53.1430035,17.8196756 51.6115308,17.6171849 C49.6774414,17.3659938 47.7713822,16.9097489 45.9392211,16.2535764 C44.8842632,15.8742266 43.8293053,15.3949131 42.8507937,14.8387044 C41.2199409,13.9544094 39.7878483,12.8445551 38.8348188,11.1784921 C38.0321334,9.76362012 38.0321334,8.35131131 38.8857829,6.96207107 C40.1165671,4.91665832 41.9996924,3.67864534 44.0815779,2.7200183 C48.1485169,0.851464548 52.4651803,0.195292035 56.9092541,0.269624078 C61.0016752,0.320887555 65.0176501,0.92579659 68.7329366,2.76871861 C70.187963,3.4761546 71.6455377,4.43478163 72.8253577,5.54719909 C75.335342,7.99759332 75.0830695,10.3967241 72.7234294,12.7958548 Z" id="Shape" fill="#F69A98"></path>
                <path d="M74.5581388,16.0357066 C74.5581388,17.6223112 74.7059348,19.1473997 74.5224639,20.6289142 C74.1580702,23.5381165 70.78934,25.1144685 68.4271517,26.1448644 C61.3354904,29.2437416 52.350511,28.8746446 45.1824035,26.3140338 C41.8569928,25.1247212 38.1264171,23.6175749 38.1417063,19.4344752 C38.1442546,18.3348736 38.1417063,17.235272 38.1417063,15.9613746 C38.8118849,16.5611572 39.31643,17.0712288 39.8770356,17.5095316 C43.2865372,20.1854851 47.2948674,21.3055921 51.479024,21.8951221 C55.102575,22.4051937 58.7363188,22.3462407 62.3471287,21.7413317 C66.1388614,21.1056645 69.7522195,19.977868 72.8482916,17.5684846 C73.4369275,17.1096765 73.9618582,16.5765363 74.5581388,16.0357066 Z" id="Shape" fill="#F69A98"></path>
                <path d="M74.6040065,26.3729868 C74.6040065,27.9595915 74.7518025,29.4846799 74.5683316,30.9661944 C74.2039379,33.8753968 70.8352077,35.4517487 68.4730194,36.4821446 C61.3813581,39.5810218 52.3963787,39.2119248 45.2282712,36.6513141 C41.9028605,35.4620014 38.1722848,33.9548552 38.1875741,29.7717554 C38.1901223,28.6721538 38.1875741,27.5725522 38.1875741,26.2986548 C38.8577526,26.8984375 39.3622977,27.4085091 39.9229033,27.8468118 C43.3324049,30.5227654 47.3407352,31.6428723 51.5248918,32.2324023 C55.1484428,32.7424739 58.7821866,32.6835209 62.3929965,32.0786119 C66.1847291,31.4429448 69.7980873,30.3151483 72.8941593,27.9057648 C73.480247,27.4469567 74.0051778,26.9138165 74.6040065,26.3729868 Z" id="Shape" fill="#F69A98"></path>
                <path d="M74.6040065,36.5257186 C74.6040065,38.1123232 74.7518025,39.6374117 74.5683316,41.1189262 C74.2039379,44.0281285 70.8352077,45.6044805 68.4730194,46.6348764 C61.3813581,49.7337536 52.3963787,49.3646565 45.2282712,46.8040458 C41.9028605,45.6147331 38.1722848,44.1075869 38.1875741,39.9244871 C38.1901223,38.8248855 38.1875741,37.725284 38.1875741,36.4513865 C38.8577526,37.0511692 39.3622977,37.5612408 39.9229033,37.9995436 C43.3324049,40.6754971 47.3407352,41.7956041 51.5248918,42.3851341 C55.1484428,42.8952057 58.7821866,42.8362527 62.3929965,42.2313436 C66.1847291,41.5956765 69.7980873,40.46788 72.8941593,38.0584966 C73.480247,37.6022516 74.0051778,37.0665483 74.6040065,36.5257186 Z" id="Shape" fill="#F69A98"></path>
                <path d="M36.4164793,42.0912712 C36.4164793,43.6778758 36.5642753,45.2029642 36.3808044,46.6844787 C36.0164107,49.5936811 32.6476805,51.170033 30.2854922,52.2004289 C23.1938309,55.2993061 14.2088515,54.9302091 7.04074398,52.3695984 C3.71533328,51.1802857 -0.0152424054,49.6731395 4.68391531e-05,45.4900397 C0.00259504659,44.3904381 4.68391531e-05,43.2908365 4.68391531e-05,42.0169391 C0.670225394,42.6167218 1.17477047,43.1267934 1.7353761,43.5650961 C5.14487765,46.2410497 9.15320794,47.3611566 13.3373645,47.9506866 C16.9609155,48.4607582 20.5946593,48.4018052 24.2054692,47.7968962 C27.9972019,47.1612291 31.61056,46.0334326 34.7066321,43.6240491 C35.2927198,43.1678042 35.8176505,42.6321008 36.4164793,42.0912712 Z" id="Shape" fill="#F69A98"></path>
                <path d="M34.4844012,40.868847 C32.2496233,43.1167505 29.4134684,44.3035 26.4269693,44.9596725 C24.5183619,45.3902857 22.5868207,45.7158088 20.6272492,45.8926678 C20.1252523,45.9439313 19.6232554,45.9926316 19.1212586,46.043895 C18.7696059,46.043895 18.4179533,46.0695268 18.0663007,46.0695268 C16.5093459,46.0951585 14.9039753,45.8926678 13.3725026,45.690177 C11.4384131,45.438986 9.53235399,44.9827411 7.70019285,44.3265685 C6.64523497,43.9472188 5.59027709,43.4679053 4.61176544,42.9116966 C2.98091268,42.0274016 1.5488201,40.9175473 0.595790523,39.2514843 C-0.206894819,37.8366123 -0.206894819,36.4243035 0.646754671,35.0350632 C1.87753886,32.9896505 3.76066415,31.7516375 5.84254963,30.7930105 C9.90948869,28.9244567 14.2261521,28.2682842 18.6702258,28.3426162 C22.762647,28.3938797 26.7786219,28.9987888 30.4939083,30.8417108 C31.9489348,31.5491468 33.4065094,32.5077738 34.5863295,33.6201913 C37.0963138,36.0705855 36.8440413,38.4697162 34.4844012,40.868847 Z" id="Shape" fill="#F69A98"></path>
            </g>
        </g>
    </g>
</svg>