<?xml version="1.0" encoding="UTF-8"?>
<svg width="140px" height="160px" viewBox="0 0 140 160" version="1.1" xmlns="http://www.w3.org/2000/svg" xmlns:xlink="http://www.w3.org/1999/xlink">
    <!-- Generator: Sketch 41.1 (35376) - http://www.bohemiancoding.com/sketch -->
    <title>Mobile Accept</title>
    <desc>Created with Sketch.</desc>
    <defs></defs>
    <g id="Page-1" stroke="none" stroke-width="1" fill="none" fill-rule="evenodd">
        <g id="Mobile-Accept" transform="translate(7.000000, 8.000000)">
            <g id="Group-3" transform="translate(0.468750, 0.158730)">
                <rect id="Combined-Shape" fill="#F1F1F1" x="0" y="0" width="74" height="141.365079" rx="5.43560534"></rect>
                <rect id="Rectangle-14" fill="#FCFCFC" x="2.3125" y="13.9047619" width="69.375" height="110.079365"></rect>
                <path d="M43.6150475,53.3015873 L21.3298964,53.3015873 L18.5,57.2838251 L32.281598,57.2838253 C35.7476835,57.2838253 35.8124572,59.1546784 37.0312936,61.2087812 L20.2061446,61.2087812 L18.5,65.2579556 L37.0312938,65.2579556 C35.8124574,67.3120585 32.8863447,69.1863512 29.4729236,69.1863512 L21.3298964,69.1863512 C28.1567386,76.0336256 34.2726837,82.3757425 41.4221568,89.2222222 L49.3458755,89.2222222 L32.6494822,73.0084502 C39.3526603,73.0084502 42.1519914,69.7082469 43.6150479,65.2579556 L52.4587573,65.2300643 L54.34375,61.2569447 L43.6150475,61.2087812 C43.3730914,60.0102897 42.3148815,58.3108767 41.3437459,57.2838253 L52.4587573,57.2838251 L54.34375,53.3015873 L43.6150475,53.3015873 Z" id="Shape-Copy-2" fill="#CFCFCF"></path>
                <ellipse id="Oval-4" fill="#F69A98" opacity="0.5" cx="37" cy="132.095238" rx="3.46875" ry="3.47619048"></ellipse>
                <path d="M23.3243534,8.11111111 C23.8528328,8.11111111 24.28125,7.59232998 24.28125,6.95238095 C24.28125,6.31243192 23.8528328,5.79365079 23.3243534,5.79365079 C22.795874,5.79365079 22.3674569,6.31243192 22.3674569,6.95238095 C22.3674569,7.59232998 22.795874,8.11111111 23.3243534,8.11111111 Z M20.6131466,8.11111111 C21.141626,8.11111111 21.5700431,7.59232998 21.5700431,6.95238095 C21.5700431,6.31243192 21.141626,5.79365079 20.6131466,5.79365079 C20.0846672,5.79365079 19.65625,6.31243192 19.65625,6.95238095 C19.65625,7.59232998 20.0846672,8.11111111 20.6131466,8.11111111 Z" id="Sensors" fill="#F69A98"></path>
                <g id="Group" transform="translate(27.750000, 5.793651)" fill="#9E9E9E">
                    <path d="M0.269733733,3.46074074 C0.418703568,3.46074074 0.539467467,3.33162188 0.539467467,3.17234568 C0.539467467,3.01306948 0.418703568,2.88395062 0.269733733,2.88395062 C0.120763899,2.88395062 0,3.01306948 0,3.17234568 C0,3.33162188 0.120763899,3.46074074 0.269733733,3.46074074 Z M1.16884618,3.46074074 C1.31781601,3.46074074 1.43857991,3.33162188 1.43857991,3.17234568 C1.43857991,3.01306948 1.31781601,2.88395062 1.16884618,2.88395062 C1.01987634,2.88395062 0.899112445,3.01306948 0.899112445,3.17234568 C0.899112445,3.33162188 1.01987634,3.46074074 1.16884618,3.46074074 Z M0.269733733,2.49942387 C0.418703568,2.49942387 0.539467467,2.37030501 0.539467467,2.21102881 C0.539467467,2.0517526 0.418703568,1.92263374 0.269733733,1.92263374 C0.120763899,1.92263374 0,2.0517526 0,2.21102881 C0,2.37030501 0.120763899,2.49942387 0.269733733,2.49942387 Z M1.16884618,2.49942387 C1.31781601,2.49942387 1.43857991,2.37030501 1.43857991,2.21102881 C1.43857991,2.0517526 1.31781601,1.92263374 1.16884618,1.92263374 C1.01987634,1.92263374 0.899112445,2.0517526 0.899112445,2.21102881 C0.899112445,2.37030501 1.01987634,2.49942387 1.16884618,2.49942387 Z M0.269733733,1.538107 C0.418703568,1.538107 0.539467467,1.40898814 0.539467467,1.24971193 C0.539467467,1.09043573 0.418703568,0.961316872 0.269733733,0.961316872 C0.120763899,0.961316872 0,1.09043573 0,1.24971193 C0,1.40898814 0.120763899,1.538107 0.269733733,1.538107 Z M1.16884618,1.538107 C1.31781601,1.538107 1.43857991,1.40898814 1.43857991,1.24971193 C1.43857991,1.09043573 1.31781601,0.961316872 1.16884618,0.961316872 C1.01987634,0.961316872 0.899112445,1.09043573 0.899112445,1.24971193 C0.899112445,1.40898814 1.01987634,1.538107 1.16884618,1.538107 Z M0.269733733,0.576790123 C0.418703568,0.576790123 0.539467467,0.447671264 0.539467467,0.288395062 C0.539467467,0.129118859 0.418703568,0 0.269733733,0 C0.120763899,0 0,0.129118859 0,0.288395062 C0,0.447671264 0.120763899,0.576790123 0.269733733,0.576790123 Z M1.16884618,0.576790123 C1.31781601,0.576790123 1.43857991,0.447671264 1.43857991,0.288395062 C1.43857991,0.129118859 1.31781601,0 1.16884618,0 C1.01987634,0 0.899112445,0.129118859 0.899112445,0.288395062 C0.899112445,0.447671264 1.01987634,0.576790123 1.16884618,0.576790123 Z M2.06795862,3.46074074 C2.21692846,3.46074074 2.33769236,3.33162188 2.33769236,3.17234568 C2.33769236,3.01306948 2.21692846,2.88395062 2.06795862,2.88395062 C1.91898879,2.88395062 1.79822489,3.01306948 1.79822489,3.17234568 C1.79822489,3.33162188 1.91898879,3.46074074 2.06795862,3.46074074 Z M2.96707107,3.46074074 C3.1160409,3.46074074 3.2368048,3.33162188 3.2368048,3.17234568 C3.2368048,3.01306948 3.1160409,2.88395062 2.96707107,2.88395062 C2.81810123,2.88395062 2.69733733,3.01306948 2.69733733,3.17234568 C2.69733733,3.33162188 2.81810123,3.46074074 2.96707107,3.46074074 Z M2.06795862,2.49942387 C2.21692846,2.49942387 2.33769236,2.37030501 2.33769236,2.21102881 C2.33769236,2.0517526 2.21692846,1.92263374 2.06795862,1.92263374 C1.91898879,1.92263374 1.79822489,2.0517526 1.79822489,2.21102881 C1.79822489,2.37030501 1.91898879,2.49942387 2.06795862,2.49942387 Z M2.96707107,2.49942387 C3.1160409,2.49942387 3.2368048,2.37030501 3.2368048,2.21102881 C3.2368048,2.0517526 3.1160409,1.92263374 2.96707107,1.92263374 C2.81810123,1.92263374 2.69733733,2.0517526 2.69733733,2.21102881 C2.69733733,2.37030501 2.81810123,2.49942387 2.96707107,2.49942387 Z M2.06795862,1.538107 C2.21692846,1.538107 2.33769236,1.40898814 2.33769236,1.24971193 C2.33769236,1.09043573 2.21692846,0.961316872 2.06795862,0.961316872 C1.91898879,0.961316872 1.79822489,1.09043573 1.79822489,1.24971193 C1.79822489,1.40898814 1.91898879,1.538107 2.06795862,1.538107 Z M2.96707107,1.538107 C3.1160409,1.538107 3.2368048,1.40898814 3.2368048,1.24971193 C3.2368048,1.09043573 3.1160409,0.961316872 2.96707107,0.961316872 C2.81810123,0.961316872 2.69733733,1.09043573 2.69733733,1.24971193 C2.69733733,1.40898814 2.81810123,1.538107 2.96707107,1.538107 Z M2.06795862,0.576790123 C2.21692846,0.576790123 2.33769236,0.447671264 2.33769236,0.288395062 C2.33769236,0.129118859 2.21692846,0 2.06795862,0 C1.91898879,0 1.79822489,0.129118859 1.79822489,0.288395062 C1.79822489,0.447671264 1.91898879,0.576790123 2.06795862,0.576790123 Z M2.96707107,0.576790123 C3.1160409,0.576790123 3.2368048,0.447671264 3.2368048,0.288395062 C3.2368048,0.129118859 3.1160409,0 2.96707107,0 C2.81810123,0 2.69733733,0.129118859 2.69733733,0.288395062 C2.69733733,0.447671264 2.81810123,0.576790123 2.96707107,0.576790123 Z M3.86618351,3.46074074 C4.01515335,3.46074074 4.13591725,3.33162188 4.13591725,3.17234568 C4.13591725,3.01306948 4.01515335,2.88395062 3.86618351,2.88395062 C3.71721368,2.88395062 3.59644978,3.01306948 3.59644978,3.17234568 C3.59644978,3.33162188 3.71721368,3.46074074 3.86618351,3.46074074 Z M4.76529596,3.46074074 C4.91426579,3.46074074 5.03502969,3.33162188 5.03502969,3.17234568 C5.03502969,3.01306948 4.91426579,2.88395062 4.76529596,2.88395062 C4.61632612,2.88395062 4.49556222,3.01306948 4.49556222,3.17234568 C4.49556222,3.33162188 4.61632612,3.46074074 4.76529596,3.46074074 Z M3.86618351,2.49942387 C4.01515335,2.49942387 4.13591725,2.37030501 4.13591725,2.21102881 C4.13591725,2.0517526 4.01515335,1.92263374 3.86618351,1.92263374 C3.71721368,1.92263374 3.59644978,2.0517526 3.59644978,2.21102881 C3.59644978,2.37030501 3.71721368,2.49942387 3.86618351,2.49942387 Z M4.76529596,2.49942387 C4.91426579,2.49942387 5.03502969,2.37030501 5.03502969,2.21102881 C5.03502969,2.0517526 4.91426579,1.92263374 4.76529596,1.92263374 C4.61632612,1.92263374 4.49556222,2.0517526 4.49556222,2.21102881 C4.49556222,2.37030501 4.61632612,2.49942387 4.76529596,2.49942387 Z M3.86618351,1.538107 C4.01515335,1.538107 4.13591725,1.40898814 4.13591725,1.24971193 C4.13591725,1.09043573 4.01515335,0.961316872 3.86618351,0.961316872 C3.71721368,0.961316872 3.59644978,1.09043573 3.59644978,1.24971193 C3.59644978,1.40898814 3.71721368,1.538107 3.86618351,1.538107 Z M4.76529596,1.538107 C4.91426579,1.538107 5.03502969,1.40898814 5.03502969,1.24971193 C5.03502969,1.09043573 4.91426579,0.961316872 4.76529596,0.961316872 C4.61632612,0.961316872 4.49556222,1.09043573 4.49556222,1.24971193 C4.49556222,1.40898814 4.61632612,1.538107 4.76529596,1.538107 Z M3.86618351,0.576790123 C4.01515335,0.576790123 4.13591725,0.447671264 4.13591725,0.288395062 C4.13591725,0.129118859 4.01515335,0 3.86618351,0 C3.71721368,0 3.59644978,0.129118859 3.59644978,0.288395062 C3.59644978,0.447671264 3.71721368,0.576790123 3.86618351,0.576790123 Z M4.76529596,0.576790123 C4.91426579,0.576790123 5.03502969,0.447671264 5.03502969,0.288395062 C5.03502969,0.129118859 4.91426579,0 4.76529596,0 C4.61632612,0 4.49556222,0.129118859 4.49556222,0.288395062 C4.49556222,0.447671264 4.61632612,0.576790123 4.76529596,0.576790123 Z M5.6644084,3.46074074 C5.81337824,3.46074074 5.93414214,3.33162188 5.93414214,3.17234568 C5.93414214,3.01306948 5.81337824,2.88395062 5.6644084,2.88395062 C5.51543857,2.88395062 5.39467467,3.01306948 5.39467467,3.17234568 C5.39467467,3.33162188 5.51543857,3.46074074 5.6644084,3.46074074 Z M6.56352085,3.46074074 C6.71249068,3.46074074 6.83325458,3.33162188 6.83325458,3.17234568 C6.83325458,3.01306948 6.71249068,2.88395062 6.56352085,2.88395062 C6.41455101,2.88395062 6.29378711,3.01306948 6.29378711,3.17234568 C6.29378711,3.33162188 6.41455101,3.46074074 6.56352085,3.46074074 Z M5.6644084,2.49942387 C5.81337824,2.49942387 5.93414214,2.37030501 5.93414214,2.21102881 C5.93414214,2.0517526 5.81337824,1.92263374 5.6644084,1.92263374 C5.51543857,1.92263374 5.39467467,2.0517526 5.39467467,2.21102881 C5.39467467,2.37030501 5.51543857,2.49942387 5.6644084,2.49942387 Z M6.56352085,2.49942387 C6.71249068,2.49942387 6.83325458,2.37030501 6.83325458,2.21102881 C6.83325458,2.0517526 6.71249068,1.92263374 6.56352085,1.92263374 C6.41455101,1.92263374 6.29378711,2.0517526 6.29378711,2.21102881 C6.29378711,2.37030501 6.41455101,2.49942387 6.56352085,2.49942387 Z M5.6644084,1.538107 C5.81337824,1.538107 5.93414214,1.40898814 5.93414214,1.24971193 C5.93414214,1.09043573 5.81337824,0.961316872 5.6644084,0.961316872 C5.51543857,0.961316872 5.39467467,1.09043573 5.39467467,1.24971193 C5.39467467,1.40898814 5.51543857,1.538107 5.6644084,1.538107 Z M6.56352085,1.538107 C6.71249068,1.538107 6.83325458,1.40898814 6.83325458,1.24971193 C6.83325458,1.09043573 6.71249068,0.961316872 6.56352085,0.961316872 C6.41455101,0.961316872 6.29378711,1.09043573 6.29378711,1.24971193 C6.29378711,1.40898814 6.41455101,1.538107 6.56352085,1.538107 Z M5.6644084,0.576790123 C5.81337824,0.576790123 5.93414214,0.447671264 5.93414214,0.288395062 C5.93414214,0.129118859 5.81337824,0 5.6644084,0 C5.51543857,0 5.39467467,0.129118859 5.39467467,0.288395062 C5.39467467,0.447671264 5.51543857,0.576790123 5.6644084,0.576790123 Z M6.56352085,0.576790123 C6.71249068,0.576790123 6.83325458,0.447671264 6.83325458,0.288395062 C6.83325458,0.129118859 6.71249068,0 6.56352085,0 C6.41455101,0 6.29378711,0.129118859 6.29378711,0.288395062 C6.29378711,0.447671264 6.41455101,0.576790123 6.56352085,0.576790123 Z M7.46263329,3.46074074 C7.61160313,3.46074074 7.73236702,3.33162188 7.73236702,3.17234568 C7.73236702,3.01306948 7.61160313,2.88395062 7.46263329,2.88395062 C7.31366346,2.88395062 7.19289956,3.01306948 7.19289956,3.17234568 C7.19289956,3.33162188 7.31366346,3.46074074 7.46263329,3.46074074 Z M8.36174574,3.46074074 C8.51071557,3.46074074 8.63147947,3.33162188 8.63147947,3.17234568 C8.63147947,3.01306948 8.51071557,2.88395062 8.36174574,2.88395062 C8.2127759,2.88395062 8.092012,3.01306948 8.092012,3.17234568 C8.092012,3.33162188 8.2127759,3.46074074 8.36174574,3.46074074 Z M7.46263329,2.49942387 C7.61160313,2.49942387 7.73236702,2.37030501 7.73236702,2.21102881 C7.73236702,2.0517526 7.61160313,1.92263374 7.46263329,1.92263374 C7.31366346,1.92263374 7.19289956,2.0517526 7.19289956,2.21102881 C7.19289956,2.37030501 7.31366346,2.49942387 7.46263329,2.49942387 Z M8.36174574,2.49942387 C8.51071557,2.49942387 8.63147947,2.37030501 8.63147947,2.21102881 C8.63147947,2.0517526 8.51071557,1.92263374 8.36174574,1.92263374 C8.2127759,1.92263374 8.092012,2.0517526 8.092012,2.21102881 C8.092012,2.37030501 8.2127759,2.49942387 8.36174574,2.49942387 Z M7.46263329,1.538107 C7.61160313,1.538107 7.73236702,1.40898814 7.73236702,1.24971193 C7.73236702,1.09043573 7.61160313,0.961316872 7.46263329,0.961316872 C7.31366346,0.961316872 7.19289956,1.09043573 7.19289956,1.24971193 C7.19289956,1.40898814 7.31366346,1.538107 7.46263329,1.538107 Z M8.36174574,1.538107 C8.51071557,1.538107 8.63147947,1.40898814 8.63147947,1.24971193 C8.63147947,1.09043573 8.51071557,0.961316872 8.36174574,0.961316872 C8.2127759,0.961316872 8.092012,1.09043573 8.092012,1.24971193 C8.092012,1.40898814 8.2127759,1.538107 8.36174574,1.538107 Z M7.46263329,0.576790123 C7.61160313,0.576790123 7.73236702,0.447671264 7.73236702,0.288395062 C7.73236702,0.129118859 7.61160313,0 7.46263329,0 C7.31366346,0 7.19289956,0.129118859 7.19289956,0.288395062 C7.19289956,0.447671264 7.31366346,0.576790123 7.46263329,0.576790123 Z M8.36174574,0.576790123 C8.51071557,0.576790123 8.63147947,0.447671264 8.63147947,0.288395062 C8.63147947,0.129118859 8.51071557,0 8.36174574,0 C8.2127759,0 8.092012,0.129118859 8.092012,0.288395062 C8.092012,0.447671264 8.2127759,0.576790123 8.36174574,0.576790123 Z M9.26085818,3.46074074 C9.40982802,3.46074074 9.53059191,3.33162188 9.53059191,3.17234568 C9.53059191,3.01306948 9.40982802,2.88395062 9.26085818,2.88395062 C9.11188835,2.88395062 8.99112445,3.01306948 8.99112445,3.17234568 C8.99112445,3.33162188 9.11188835,3.46074074 9.26085818,3.46074074 Z M10.1599706,3.46074074 C10.3089405,3.46074074 10.4297044,3.33162188 10.4297044,3.17234568 C10.4297044,3.01306948 10.3089405,2.88395062 10.1599706,2.88395062 C10.0110008,2.88395062 9.89023689,3.01306948 9.89023689,3.17234568 C9.89023689,3.33162188 10.0110008,3.46074074 10.1599706,3.46074074 Z M9.26085818,2.49942387 C9.40982802,2.49942387 9.53059191,2.37030501 9.53059191,2.21102881 C9.53059191,2.0517526 9.40982802,1.92263374 9.26085818,1.92263374 C9.11188835,1.92263374 8.99112445,2.0517526 8.99112445,2.21102881 C8.99112445,2.37030501 9.11188835,2.49942387 9.26085818,2.49942387 Z M10.1599706,2.49942387 C10.3089405,2.49942387 10.4297044,2.37030501 10.4297044,2.21102881 C10.4297044,2.0517526 10.3089405,1.92263374 10.1599706,1.92263374 C10.0110008,1.92263374 9.89023689,2.0517526 9.89023689,2.21102881 C9.89023689,2.37030501 10.0110008,2.49942387 10.1599706,2.49942387 Z M9.26085818,1.538107 C9.40982802,1.538107 9.53059191,1.40898814 9.53059191,1.24971193 C9.53059191,1.09043573 9.40982802,0.961316872 9.26085818,0.961316872 C9.11188835,0.961316872 8.99112445,1.09043573 8.99112445,1.24971193 C8.99112445,1.40898814 9.11188835,1.538107 9.26085818,1.538107 Z M10.1599706,1.538107 C10.3089405,1.538107 10.4297044,1.40898814 10.4297044,1.24971193 C10.4297044,1.09043573 10.3089405,0.961316872 10.1599706,0.961316872 C10.0110008,0.961316872 9.89023689,1.09043573 9.89023689,1.24971193 C9.89023689,1.40898814 10.0110008,1.538107 10.1599706,1.538107 Z M9.26085818,0.576790123 C9.40982802,0.576790123 9.53059191,0.447671264 9.53059191,0.288395062 C9.53059191,0.129118859 9.40982802,0 9.26085818,0 C9.11188835,0 8.99112445,0.129118859 8.99112445,0.288395062 C8.99112445,0.447671264 9.11188835,0.576790123 9.26085818,0.576790123 Z M10.1599706,0.576790123 C10.3089405,0.576790123 10.4297044,0.447671264 10.4297044,0.288395062 C10.4297044,0.129118859 10.3089405,0 10.1599706,0 C10.0110008,0 9.89023689,0.129118859 9.89023689,0.288395062 C9.89023689,0.447671264 10.0110008,0.576790123 10.1599706,0.576790123 Z M11.0590831,3.46074074 C11.2080529,3.46074074 11.3288168,3.33162188 11.3288168,3.17234568 C11.3288168,3.01306948 11.2080529,2.88395062 11.0590831,2.88395062 C10.9101132,2.88395062 10.7893493,3.01306948 10.7893493,3.17234568 C10.7893493,3.33162188 10.9101132,3.46074074 11.0590831,3.46074074 Z M11.9581955,3.46074074 C12.1071654,3.46074074 12.2279292,3.33162188 12.2279292,3.17234568 C12.2279292,3.01306948 12.1071654,2.88395062 11.9581955,2.88395062 C11.8092257,2.88395062 11.6884618,3.01306948 11.6884618,3.17234568 C11.6884618,3.33162188 11.8092257,3.46074074 11.9581955,3.46074074 Z M11.0590831,2.49942387 C11.2080529,2.49942387 11.3288168,2.37030501 11.3288168,2.21102881 C11.3288168,2.0517526 11.2080529,1.92263374 11.0590831,1.92263374 C10.9101132,1.92263374 10.7893493,2.0517526 10.7893493,2.21102881 C10.7893493,2.37030501 10.9101132,2.49942387 11.0590831,2.49942387 Z M11.9581955,2.49942387 C12.1071654,2.49942387 12.2279292,2.37030501 12.2279292,2.21102881 C12.2279292,2.0517526 12.1071654,1.92263374 11.9581955,1.92263374 C11.8092257,1.92263374 11.6884618,2.0517526 11.6884618,2.21102881 C11.6884618,2.37030501 11.8092257,2.49942387 11.9581955,2.49942387 Z M11.0590831,1.538107 C11.2080529,1.538107 11.3288168,1.40898814 11.3288168,1.24971193 C11.3288168,1.09043573 11.2080529,0.961316872 11.0590831,0.961316872 C10.9101132,0.961316872 10.7893493,1.09043573 10.7893493,1.24971193 C10.7893493,1.40898814 10.9101132,1.538107 11.0590831,1.538107 Z M11.9581955,1.538107 C12.1071654,1.538107 12.2279292,1.40898814 12.2279292,1.24971193 C12.2279292,1.09043573 12.1071654,0.961316872 11.9581955,0.961316872 C11.8092257,0.961316872 11.6884618,1.09043573 11.6884618,1.24971193 C11.6884618,1.40898814 11.8092257,1.538107 11.9581955,1.538107 Z M11.0590831,0.576790123 C11.2080529,0.576790123 11.3288168,0.447671264 11.3288168,0.288395062 C11.3288168,0.129118859 11.2080529,0 11.0590831,0 C10.9101132,0 10.7893493,0.129118859 10.7893493,0.288395062 C10.7893493,0.447671264 10.9101132,0.576790123 11.0590831,0.576790123 Z M11.9581955,0.576790123 C12.1071654,0.576790123 12.2279292,0.447671264 12.2279292,0.288395062 C12.2279292,0.129118859 12.1071654,0 11.9581955,0 C11.8092257,0 11.6884618,0.129118859 11.6884618,0.288395062 C11.6884618,0.447671264 11.8092257,0.576790123 11.9581955,0.576790123 Z M12.857308,3.46074074 C13.0062778,3.46074074 13.1270417,3.33162188 13.1270417,3.17234568 C13.1270417,3.01306948 13.0062778,2.88395062 12.857308,2.88395062 C12.7083381,2.88395062 12.5875742,3.01306948 12.5875742,3.17234568 C12.5875742,3.33162188 12.7083381,3.46074074 12.857308,3.46074074 Z M13.7564204,3.46074074 C13.9053902,3.46074074 14.0261541,3.33162188 14.0261541,3.17234568 C14.0261541,3.01306948 13.9053902,2.88395062 13.7564204,2.88395062 C13.6074506,2.88395062 13.4866867,3.01306948 13.4866867,3.17234568 C13.4866867,3.33162188 13.6074506,3.46074074 13.7564204,3.46074074 Z M12.857308,2.49942387 C13.0062778,2.49942387 13.1270417,2.37030501 13.1270417,2.21102881 C13.1270417,2.0517526 13.0062778,1.92263374 12.857308,1.92263374 C12.7083381,1.92263374 12.5875742,2.0517526 12.5875742,2.21102881 C12.5875742,2.37030501 12.7083381,2.49942387 12.857308,2.49942387 Z M13.7564204,2.49942387 C13.9053902,2.49942387 14.0261541,2.37030501 14.0261541,2.21102881 C14.0261541,2.0517526 13.9053902,1.92263374 13.7564204,1.92263374 C13.6074506,1.92263374 13.4866867,2.0517526 13.4866867,2.21102881 C13.4866867,2.37030501 13.6074506,2.49942387 13.7564204,2.49942387 Z M12.857308,1.538107 C13.0062778,1.538107 13.1270417,1.40898814 13.1270417,1.24971193 C13.1270417,1.09043573 13.0062778,0.961316872 12.857308,0.961316872 C12.7083381,0.961316872 12.5875742,1.09043573 12.5875742,1.24971193 C12.5875742,1.40898814 12.7083381,1.538107 12.857308,1.538107 Z M13.7564204,1.538107 C13.9053902,1.538107 14.0261541,1.40898814 14.0261541,1.24971193 C14.0261541,1.09043573 13.9053902,0.961316872 13.7564204,0.961316872 C13.6074506,0.961316872 13.4866867,1.09043573 13.4866867,1.24971193 C13.4866867,1.40898814 13.6074506,1.538107 13.7564204,1.538107 Z M12.857308,0.576790123 C13.0062778,0.576790123 13.1270417,0.447671264 13.1270417,0.288395062 C13.1270417,0.129118859 13.0062778,0 12.857308,0 C12.7083381,0 12.5875742,0.129118859 12.5875742,0.288395062 C12.5875742,0.447671264 12.7083381,0.576790123 12.857308,0.576790123 Z M13.7564204,0.576790123 C13.9053902,0.576790123 14.0261541,0.447671264 14.0261541,0.288395062 C14.0261541,0.129118859 13.9053902,0 13.7564204,0 C13.6074506,0 13.4866867,0.129118859 13.4866867,0.288395062 C13.4866867,0.447671264 13.6074506,0.576790123 13.7564204,0.576790123 Z M14.6555328,3.46074074 C14.8045027,3.46074074 14.9252666,3.33162188 14.9252666,3.17234568 C14.9252666,3.01306948 14.8045027,2.88395062 14.6555328,2.88395062 C14.506563,2.88395062 14.3857991,3.01306948 14.3857991,3.17234568 C14.3857991,3.33162188 14.506563,3.46074074 14.6555328,3.46074074 Z M15.5546453,3.46074074 C15.7036151,3.46074074 15.824379,3.33162188 15.824379,3.17234568 C15.824379,3.01306948 15.7036151,2.88395062 15.5546453,2.88395062 C15.4056755,2.88395062 15.2849116,3.01306948 15.2849116,3.17234568 C15.2849116,3.33162188 15.4056755,3.46074074 15.5546453,3.46074074 Z M14.6555328,2.49942387 C14.8045027,2.49942387 14.9252666,2.37030501 14.9252666,2.21102881 C14.9252666,2.0517526 14.8045027,1.92263374 14.6555328,1.92263374 C14.506563,1.92263374 14.3857991,2.0517526 14.3857991,2.21102881 C14.3857991,2.37030501 14.506563,2.49942387 14.6555328,2.49942387 Z M15.5546453,2.49942387 C15.7036151,2.49942387 15.824379,2.37030501 15.824379,2.21102881 C15.824379,2.0517526 15.7036151,1.92263374 15.5546453,1.92263374 C15.4056755,1.92263374 15.2849116,2.0517526 15.2849116,2.21102881 C15.2849116,2.37030501 15.4056755,2.49942387 15.5546453,2.49942387 Z M14.6555328,1.538107 C14.8045027,1.538107 14.9252666,1.40898814 14.9252666,1.24971193 C14.9252666,1.09043573 14.8045027,0.961316872 14.6555328,0.961316872 C14.506563,0.961316872 14.3857991,1.09043573 14.3857991,1.24971193 C14.3857991,1.40898814 14.506563,1.538107 14.6555328,1.538107 Z M15.5546453,1.538107 C15.7036151,1.538107 15.824379,1.40898814 15.824379,1.24971193 C15.824379,1.09043573 15.7036151,0.961316872 15.5546453,0.961316872 C15.4056755,0.961316872 15.2849116,1.09043573 15.2849116,1.24971193 C15.2849116,1.40898814 15.4056755,1.538107 15.5546453,1.538107 Z M14.6555328,0.576790123 C14.8045027,0.576790123 14.9252666,0.447671264 14.9252666,0.288395062 C14.9252666,0.129118859 14.8045027,0 14.6555328,0 C14.506563,0 14.3857991,0.129118859 14.3857991,0.288395062 C14.3857991,0.447671264 14.506563,0.576790123 14.6555328,0.576790123 Z M15.5546453,0.576790123 C15.7036151,0.576790123 15.824379,0.447671264 15.824379,0.288395062 C15.824379,0.129118859 15.7036151,0 15.5546453,0 C15.4056755,0 15.2849116,0.129118859 15.2849116,0.288395062 C15.2849116,0.447671264 15.4056755,0.576790123 15.5546453,0.576790123 Z M16.4537577,3.46074074 C16.6027276,3.46074074 16.7234915,3.33162188 16.7234915,3.17234568 C16.7234915,3.01306948 16.6027276,2.88395062 16.4537577,2.88395062 C16.3047879,2.88395062 16.184024,3.01306948 16.184024,3.17234568 C16.184024,3.33162188 16.3047879,3.46074074 16.4537577,3.46074074 Z M17.3528702,3.46074074 C17.50184,3.46074074 17.6226039,3.33162188 17.6226039,3.17234568 C17.6226039,3.01306948 17.50184,2.88395062 17.3528702,2.88395062 C17.2039003,2.88395062 17.0831365,3.01306948 17.0831365,3.17234568 C17.0831365,3.33162188 17.2039003,3.46074074 17.3528702,3.46074074 Z M16.4537577,2.49942387 C16.6027276,2.49942387 16.7234915,2.37030501 16.7234915,2.21102881 C16.7234915,2.0517526 16.6027276,1.92263374 16.4537577,1.92263374 C16.3047879,1.92263374 16.184024,2.0517526 16.184024,2.21102881 C16.184024,2.37030501 16.3047879,2.49942387 16.4537577,2.49942387 Z M17.3528702,2.49942387 C17.50184,2.49942387 17.6226039,2.37030501 17.6226039,2.21102881 C17.6226039,2.0517526 17.50184,1.92263374 17.3528702,1.92263374 C17.2039003,1.92263374 17.0831365,2.0517526 17.0831365,2.21102881 C17.0831365,2.37030501 17.2039003,2.49942387 17.3528702,2.49942387 Z M16.4537577,1.538107 C16.6027276,1.538107 16.7234915,1.40898814 16.7234915,1.24971193 C16.7234915,1.09043573 16.6027276,0.961316872 16.4537577,0.961316872 C16.3047879,0.961316872 16.184024,1.09043573 16.184024,1.24971193 C16.184024,1.40898814 16.3047879,1.538107 16.4537577,1.538107 Z M17.3528702,1.538107 C17.50184,1.538107 17.6226039,1.40898814 17.6226039,1.24971193 C17.6226039,1.09043573 17.50184,0.961316872 17.3528702,0.961316872 C17.2039003,0.961316872 17.0831365,1.09043573 17.0831365,1.24971193 C17.0831365,1.40898814 17.2039003,1.538107 17.3528702,1.538107 Z M16.4537577,0.576790123 C16.6027276,0.576790123 16.7234915,0.447671264 16.7234915,0.288395062 C16.7234915,0.129118859 16.6027276,0 16.4537577,0 C16.3047879,0 16.184024,0.129118859 16.184024,0.288395062 C16.184024,0.447671264 16.3047879,0.576790123 16.4537577,0.576790123 Z M17.3528702,0.576790123 C17.50184,0.576790123 17.6226039,0.447671264 17.6226039,0.288395062 C17.6226039,0.129118859 17.50184,0 17.3528702,0 C17.2039003,0 17.0831365,0.129118859 17.0831365,0.288395062 C17.0831365,0.447671264 17.2039003,0.576790123 17.3528702,0.576790123 Z M18.2519826,3.46074074 C18.4009525,3.46074074 18.5217164,3.33162188 18.5217164,3.17234568 C18.5217164,3.01306948 18.4009525,2.88395062 18.2519826,2.88395062 C18.1030128,2.88395062 17.9822489,3.01306948 17.9822489,3.17234568 C17.9822489,3.33162188 18.1030128,3.46074074 18.2519826,3.46074074 Z M19.1510951,3.46074074 C19.3000649,3.46074074 19.4208288,3.33162188 19.4208288,3.17234568 C19.4208288,3.01306948 19.3000649,2.88395062 19.1510951,2.88395062 C19.0021252,2.88395062 18.8813613,3.01306948 18.8813613,3.17234568 C18.8813613,3.33162188 19.0021252,3.46074074 19.1510951,3.46074074 Z M18.2519826,2.49942387 C18.4009525,2.49942387 18.5217164,2.37030501 18.5217164,2.21102881 C18.5217164,2.0517526 18.4009525,1.92263374 18.2519826,1.92263374 C18.1030128,1.92263374 17.9822489,2.0517526 17.9822489,2.21102881 C17.9822489,2.37030501 18.1030128,2.49942387 18.2519826,2.49942387 Z M19.1510951,2.49942387 C19.3000649,2.49942387 19.4208288,2.37030501 19.4208288,2.21102881 C19.4208288,2.0517526 19.3000649,1.92263374 19.1510951,1.92263374 C19.0021252,1.92263374 18.8813613,2.0517526 18.8813613,2.21102881 C18.8813613,2.37030501 19.0021252,2.49942387 19.1510951,2.49942387 Z M18.2519826,1.538107 C18.4009525,1.538107 18.5217164,1.40898814 18.5217164,1.24971193 C18.5217164,1.09043573 18.4009525,0.961316872 18.2519826,0.961316872 C18.1030128,0.961316872 17.9822489,1.09043573 17.9822489,1.24971193 C17.9822489,1.40898814 18.1030128,1.538107 18.2519826,1.538107 Z M19.1510951,1.538107 C19.3000649,1.538107 19.4208288,1.40898814 19.4208288,1.24971193 C19.4208288,1.09043573 19.3000649,0.961316872 19.1510951,0.961316872 C19.0021252,0.961316872 18.8813613,1.09043573 18.8813613,1.24971193 C18.8813613,1.40898814 19.0021252,1.538107 19.1510951,1.538107 Z M18.2519826,0.576790123 C18.4009525,0.576790123 18.5217164,0.447671264 18.5217164,0.288395062 C18.5217164,0.129118859 18.4009525,0 18.2519826,0 C18.1030128,0 17.9822489,0.129118859 17.9822489,0.288395062 C17.9822489,0.447671264 18.1030128,0.576790123 18.2519826,0.576790123 Z M19.1510951,0.576790123 C19.3000649,0.576790123 19.4208288,0.447671264 19.4208288,0.288395062 C19.4208288,0.129118859 19.3000649,0 19.1510951,0 C19.0021252,0 18.8813613,0.129118859 18.8813613,0.288395062 C18.8813613,0.447671264 19.0021252,0.576790123 19.1510951,0.576790123 Z" id="Speaker"></path>
                </g>
            </g>
            <g id="Coins" transform="translate(48.000000, 93.000000)">
                <polygon id="Rectangle-6" fill="#FFFFFF" points="0.0523108849 32.9108537 32.8492244 32.9108537 32.9013786 41.7021277 31.3846154 44.0595427 2.09230769 44.0595427 0 40.6595745"></polygon>
                <path d="M65.7988284,11.5129128 C63.7768423,13.5354363 61.2107412,14.6031995 58.5086115,15.1935827 C56.7817384,15.5810216 55.0341153,15.873907 53.2611308,16.0330337 C52.8069332,16.0791574 52.3527357,16.1229749 51.8985381,16.1690986 C51.5803692,16.1690986 51.2622004,16.1921604 50.9440315,16.1921604 C49.5353273,16.2152222 48.0828173,16.0330337 46.6971689,15.8508452 C44.9472401,15.6248391 43.2226727,15.2143383 41.5649668,14.6239552 C40.6104602,14.2826399 39.6559536,13.8513835 38.7706142,13.3509416 C37.2950484,12.555308 35.9993173,11.5567303 35.1370335,10.0577106 C34.4107785,8.78469697 34.4107785,7.51398952 35.183145,6.26403772 C36.296736,4.42370278 38.0005533,3.30981584 39.8842052,2.44730297 C43.5638972,0.766094742 47.4695353,0.175711604 51.4904519,0.242590944 C55.1931997,0.288714626 58.8267803,0.832974082 62.1883035,2.49112047 C63.5047848,3.12762729 64.8235717,3.99014016 65.8910513,4.99102407 C68.1620392,7.1957361 67.9337876,9.35432445 65.7988284,11.5129128 Z" id="Shape" fill="#F69A98"></path>
                <path d="M67.4588399,14.4279295 C67.4588399,15.8554575 67.592563,17.2276371 67.4265619,18.5606115 C67.0968652,21.1781305 64.0488997,22.5964337 61.911635,23.5235198 C55.4952296,26.3116964 47.3657846,25.9796059 40.880212,23.6757279 C37.8714413,22.6056585 34.4960847,21.2496222 34.5099181,17.4859297 C34.5122237,16.4965767 34.5099181,15.5072237 34.5099181,14.3610502 C35.1162834,14.9006973 35.5727865,15.3596279 36.0800123,15.7539854 C39.1648669,18.1616417 42.7915308,19.1694441 46.5772791,19.6998665 C49.8558018,20.1587971 53.1435467,20.1057549 56.4105414,19.5614954 C59.8412318,18.9895618 63.1105321,17.9748407 65.9118014,15.8070277 C66.4443885,15.3942207 66.9193362,14.9145344 67.4588399,14.4279295 Z" id="Shape" fill="#F69A98"></path>
                <path d="M67.5003402,23.7287702 C67.5003402,25.1562981 67.6340633,26.5284777 67.4680622,27.8614521 C67.1383655,30.4789711 64.0904,31.8972744 61.9531352,32.8243604 C55.5367299,35.612537 47.4072849,35.2804465 40.9217123,32.9765685 C37.9129416,31.9064991 34.5375849,30.5504628 34.5514184,26.7867703 C34.5537239,25.7974173 34.5514184,24.8080643 34.5514184,23.6618908 C35.1577837,24.2015379 35.6142868,24.6604685 36.1215125,25.054826 C39.2063672,27.4624823 42.8330311,28.4702847 46.6187794,29.0007071 C49.897302,29.4596377 53.185047,29.4065955 56.4520417,28.862336 C59.8827321,28.2904024 63.1520324,27.2756814 65.9533017,25.1078683 C66.4835832,24.6950613 66.9585309,24.215375 67.5003402,23.7287702 Z" id="Shape" fill="#F69A98"></path>
                <path d="M67.5003402,32.8635655 C67.5003402,34.2910935 67.6340633,35.663273 67.4680622,36.9962475 C67.1383655,39.6137665 64.0904,41.0320697 61.9531352,41.9591557 C55.5367299,44.7473323 47.4072849,44.4152418 40.9217123,42.1113639 C37.9129416,41.0412944 34.5375849,39.6852582 34.5514184,35.9215657 C34.5537239,34.9322127 34.5514184,33.9428597 34.5514184,32.7966862 C35.1577837,33.3363333 35.6142868,33.7952639 36.1215125,34.1896214 C39.2063672,36.5972776 42.8330311,37.6050801 46.6187794,38.1355024 C49.897302,38.5944331 53.185047,38.5413908 56.4520417,37.9971314 C59.8827321,37.4251977 63.1520324,36.4104767 65.9533017,34.2426636 C66.4835832,33.8321628 66.9585309,33.3501704 67.5003402,32.8635655 Z" id="Shape" fill="#F69A98"></path>
                <path d="M32.9489642,37.8711029 C32.9489642,39.2986309 33.0826873,40.6708104 32.9166862,42.0037849 C32.5869895,44.6213039 29.539024,46.0396071 27.4017592,46.9666931 C20.9853539,49.7548697 12.8559089,49.4227792 6.37033634,47.1189013 C3.36156558,46.0488318 -0.0137910496,44.6927956 4.23792088e-05,40.9291031 C0.00234795067,39.9397501 4.23792088e-05,38.9503971 4.23792088e-05,37.8042236 C0.606407675,38.3438707 1.06291082,38.8028013 1.57013655,39.1971588 C4.65499117,41.604815 8.28165508,42.6126175 12.0674034,43.1430398 C15.3459261,43.6019705 18.633671,43.5489282 21.9006657,43.0046688 C25.3313561,42.4327351 28.6006564,41.4180141 31.4019257,39.250201 C31.9322072,38.8397002 32.4071549,38.3577078 32.9489642,37.8711029 Z" id="Shape" fill="#F69A98"></path>
                <path d="M31.2008553,36.7712418 C29.1788691,38.7937653 26.6127681,39.8615285 23.9106383,40.4519117 C22.1837653,40.8393506 20.4361421,41.132236 18.6631577,41.2913627 C18.2089601,41.3374864 17.7547625,41.3813039 17.3005649,41.4274276 C16.9823961,41.4274276 16.6642272,41.4504894 16.3460583,41.4504894 C14.9373542,41.4735513 13.4848441,41.2913627 12.0991957,41.1091742 C10.3492669,40.8831681 8.62469949,40.4726673 6.96699361,39.8822842 C6.01248702,39.5409689 5.05798044,39.1097125 4.17264099,38.6092706 C2.69707526,37.813637 1.40134409,36.8150593 0.539060365,35.3160396 C-0.187194647,34.043026 -0.187194647,32.7723185 0.585171794,31.5223667 C1.69876281,29.6820318 3.40258012,28.5681448 5.28623201,27.705632 C8.96592407,26.0244237 12.8715621,25.4340406 16.8924788,25.5009199 C20.5952265,25.5470436 24.2288072,26.0913031 27.5903304,27.7494495 C28.9068117,28.3859563 30.2255985,29.2484692 31.2930781,30.2493531 C33.564066,32.4540651 33.3358145,34.6126535 31.2008553,36.7712418 Z" id="Shape" fill="#F69A98"></path>
            </g>
        </g>
    </g>
</svg>