<?xml version="1.0" encoding="UTF-8"?>
<svg width="88px" height="378px" viewBox="0 0 88 378" version="1.1" xmlns="http://www.w3.org/2000/svg" xmlns:xlink="http://www.w3.org/1999/xlink">
    <!-- Generator: Sketch 41.1 (35376) - http://www.bohemiancoding.com/sketch -->
    <title>UPI</title>
    <desc>Created with Sketch.</desc>
    <defs></defs>
    <g id="Page-1" stroke="none" stroke-width="1" fill="none" fill-rule="evenodd">
        <g id="UPI" transform="translate(-2.000000, 8.000000)">
            <g id="VPA-Fig" transform="translate(4.000000, 159.000000)">
                <rect id="Rectangle-3" fill="#FEBBBA" x="12.6350975" y="118.701031" width="58.4958217" height="83.2989691" rx="3.456"></rect>
                <polygon id="Rectangle-4-Copy" fill="#FFFFFF" points="24.1002786 139.389421 24.1002786 118.564678 28.7799443 118.564678 28.7799443 139.389421"></polygon>
                <polygon id="Rectangle-4-Copy-2" fill="#FFFFFF" points="24.1002786 167.155744 24.1002786 146.331001 28.7799443 146.331001 28.7799443 167.155744"></polygon>
                <polygon id="Rectangle-4-Copy-3" fill="#FFFFFF" points="24.1002786 194.922067 24.1002786 174.097324 28.7799443 174.097324 28.7799443 194.922067"></polygon>
                <rect id="Rectangle" fill="#F1F1F1" x="0" y="0" width="84" height="132.584192" rx="2.0736"></rect>
                <rect id="Rectangle-2" stroke="#CFCFCF" stroke-width="0.72" fill="#FFEBEB" x="7.72144847" y="6.71019473" width="68.5571031" height="43.9633448" rx="2.7648"></rect>
                <rect id="Rectangle-2-Copy" fill="#FFFFFF" x="7.48746518" y="56.6895762" width="21.2924791" height="12.0320733" rx="2.7648"></rect>
                <rect id="Rectangle-2-Copy-12" fill="#FFFFFF" x="7.48746518" y="74.2749141" width="21.2924791" height="12.0320733" rx="2.7648"></rect>
                <rect id="Rectangle-2-Copy-4" fill="#FFFFFF" x="7.48746518" y="91.39748" width="21.2924791" height="12.0320733" rx="2.7648"></rect>
                <rect id="Rectangle-2-Copy-5" fill="#F69A98" x="7.48746518" y="108.751432" width="21.2924791" height="12.0320733" rx="2.7648"></rect>
                <rect id="Rectangle-2-Copy-3" fill="#FFFFFF" x="54.9860724" y="56.6895762" width="21.2924791" height="12.0320733" rx="2.7648"></rect>
                <rect id="Rectangle-2-Copy-9" fill="#FFFFFF" x="54.9860724" y="74.2749141" width="21.2924791" height="12.0320733" rx="2.7648"></rect>
                <rect id="Rectangle-2-Copy-10" fill="#FFFFFF" x="54.9860724" y="91.39748" width="21.2924791" height="12.0320733" rx="2.7648"></rect>
                <rect id="Rectangle-2-Copy-11" fill="#F69A98" x="54.9860724" y="108.751432" width="21.2924791" height="12.0320733" rx="2.7648"></rect>
                <rect id="Rectangle-2-Copy-2" fill="#FFFFFF" x="32.5236769" y="56.6895762" width="19.1866295" height="12.0320733" rx="2.7648"></rect>
                <rect id="Rectangle-2-Copy-6" fill="#FFFFFF" x="32.5236769" y="74.2749141" width="19.1866295" height="12.0320733" rx="2.7648"></rect>
                <rect id="Rectangle-2-Copy-7" fill="#FFFFFF" x="32.5236769" y="91.39748" width="19.1866295" height="12.0320733" rx="2.7648"></rect>
                <rect id="Rectangle-2-Copy-8" fill="#FFFFFF" x="32.5236769" y="108.751432" width="19.1866295" height="12.0320733" rx="2.7648"></rect>
                <rect id="Rectangle-5" fill="#FFFFFF" x="45" y="144" width="17" height="46" rx="1.2672"></rect>
                <text id="VPA" transform="translate(53.500000, 167.000000) rotate(90.000000) translate(-53.500000, -167.000000) " font-family="Roboto-Bold, Roboto" font-size="15.2064" font-weight="bold" letter-spacing="0.861696005" fill="#AAAAAA">
                    <tspan x="38" y="173">V</tspan>
                    <tspan x="48.536471" y="173">PA</tspan>
                </text>
                <text id="MPIN" font-family="Roboto-Bold, Roboto" font-size="13.824" font-weight="bold" letter-spacing="0.783360028" fill="#AAAAAA">
                    <tspan x="22.6963788" y="24.4123711">MPIN</tspan>
                </text>
                <text id="*-*-*-*" font-family="Roboto-Bold, Roboto" font-size="11.52" font-weight="bold" fill="#AAAAAA">
                    <tspan x="27.1420613" y="44.8568156">* * * *</tspan>
                </text>
            </g>
            <g id="Piggy" transform="translate(19.000000, 0.000000)" fill="#FEBBBA">
                <path d="M8.28582982,124.831133 C11.6108037,124.831133 14.3056612,127.740533 14.3056612,131.331133 C14.3056612,134.923533 11.6108194,137.831133 8.28582982,137.831133 C4.9597732,137.831133 2.3056612,134.927133 2.3056612,131.331133 C2.3056612,127.736833 4.95978889,124.831133 8.28582982,124.831133 Z M6.02320951,127.610794 L6.02320951,127.62056 L6.00157443,127.62056 L6.00157443,128.62056 L6.94989197,128.62056 C7.81134889,128.62056 8.24619289,129.062239 8.4030172,129.610794 L6.02320951,129.610794 L6.02320951,130.610794 L8.4030172,130.610794 C8.24670058,131.159739 7.81239935,131.602981 6.94989197,131.602981 L6.65421935,131.602981 L6.65061289,131.599075 L6.64700735,131.602981 L6.00157443,131.602981 L6.00157443,132.602982 L6.27381012,132.602982 L9.08991566,135.610794 L9.73895412,134.899856 L7.52861782,132.536575 C8.52987843,132.309132 9.17273966,131.501822 9.34953105,130.610794 L10.609748,130.610794 L10.609748,129.610794 L9.34953105,129.610794 C9.27791966,129.25106 9.1226692,128.910875 8.90602212,128.610794 L10.609748,128.610794 L10.609748,127.610794 L6.02320951,127.610794 Z" id="Combined-Shape-Copy" transform="translate(8.305661, 131.331133) rotate(-20.000000) translate(-8.305661, -131.331133) "></path>
                <path d="M47.2832844,64 C51.37556,64 54.6923077,67.5808 54.6923077,72 C54.6923077,76.4214154 51.3755793,80 47.2832844,80 C43.1896763,80 39.9230769,76.4258462 39.9230769,72 C39.9230769,67.5762462 43.1896956,64 47.2832844,64 Z M44.498521,67.4211213 L44.498521,67.4331405 L44.4718932,67.4331405 L44.4718932,68.6639097 L45.6390533,68.6639097 C46.6993079,68.6639097 47.2345005,69.207515 47.4275151,69.8826597 L44.498521,69.8826597 L44.498521,71.1134289 L47.4275151,71.1134289 C47.2351254,71.7890539 46.7006008,72.3345828 45.6390533,72.3345828 L45.2751485,72.3345828 L45.2707098,72.329775 L45.2662722,72.3345828 L44.4718932,72.3345828 L44.4718932,73.5653526 L44.8069525,73.5653526 L48.2729286,77.2672751 L49.0717451,76.3922745 L46.3513312,73.4836209 C47.583652,73.2036911 48.3748658,72.2100784 48.5924552,71.1134289 L50.1434914,71.1134289 L50.1434914,69.8826597 L48.5924552,69.8826597 C48.5043181,69.4399104 48.3132406,69.0212214 48.0465981,68.6518905 L50.1434914,68.6518905 L50.1434914,67.4211213 L44.498521,67.4211213 Z" id="Combined-Shape-Copy-2" transform="translate(47.307692, 72.000000) rotate(-20.000000) translate(-47.307692, -72.000000) "></path>
                <path d="M18.0525152,33 C22.1447907,33 25.4615385,36.5808 25.4615385,41 C25.4615385,45.4214154 22.14481,49 18.0525152,49 C13.9589071,49 10.6923077,45.4258462 10.6923077,41 C10.6923077,36.5762462 13.9589264,33 18.0525152,33 Z M15.2677518,36.4211213 L15.2677518,36.4331405 L15.241124,36.4331405 L15.241124,37.6639097 L16.408284,37.6639097 C17.4685387,37.6639097 18.0037313,38.207515 18.1967458,38.8826597 L15.2677518,38.8826597 L15.2677518,40.1134289 L18.1967458,40.1134289 C18.0043562,40.7890539 17.4698316,41.3345828 16.408284,41.3345828 L16.0443793,41.3345828 L16.0399405,41.329775 L16.035503,41.3345828 L15.241124,41.3345828 L15.241124,42.5653526 L15.5761833,42.5653526 L19.0421593,46.2672751 L19.8409759,45.3922745 L17.120562,42.4836209 C18.3528827,42.2036911 19.1440966,41.2100784 19.361686,40.1134289 L20.9127222,40.1134289 L20.9127222,38.8826597 L19.361686,38.8826597 C19.2735489,38.4399104 19.0824714,38.0212214 18.8158288,37.6518905 L20.9127222,37.6518905 L20.9127222,36.4211213 L15.2677518,36.4211213 Z" id="Combined-Shape-Copy-4" transform="translate(18.076923, 41.000000) rotate(-20.000000) translate(-18.076923, -41.000000) "></path>
                <path d="M43.439676,1.83113297 C46.7646498,1.83113297 49.4595074,4.74053297 49.4595074,8.33113297 C49.4595074,11.923533 46.7646655,14.831133 43.439676,14.831133 C40.1136194,14.831133 37.4595074,11.927133 37.4595074,8.33113297 C37.4595074,4.73683297 40.113635,1.83113297 43.439676,1.83113297 Z M41.1770557,4.61079398 L41.1770557,4.62055958 L41.1554206,4.62055958 L41.1554206,5.62055958 L42.1037381,5.62055958 C42.965195,5.62055958 43.400039,6.06223888 43.5568634,6.61079398 L41.1770557,6.61079398 L41.1770557,7.61079398 L43.5568634,7.61079398 C43.4005467,8.15973928 42.9662455,8.60298148 42.1037381,8.60298148 L41.8080655,8.60298148 L41.804459,8.59907518 L41.8008535,8.60298148 L41.1554206,8.60298148 L41.1554206,9.60298198 L41.4276563,9.60298198 L44.2437618,12.610794 L44.8928003,11.899856 L42.682464,9.53657498 C43.6837246,9.30913198 44.3265858,8.50182168 44.5033772,7.61079398 L45.7635941,7.61079398 L45.7635941,6.61079398 L44.5033772,6.61079398 C44.4317658,6.25106018 44.2765154,5.91087538 44.0598683,5.61079398 L45.7635941,5.61079398 L45.7635941,4.61079398 L41.1770557,4.61079398 Z" id="Combined-Shape-Copy-3" transform="translate(43.459507, 8.331133) rotate(-20.000000) translate(-43.459507, -8.331133) "></path>
            </g>
            <g id="Note" transform="translate(65.812697, 117.463592) rotate(-68.000000) translate(-65.812697, -117.463592) translate(45.312697, 100.463592)">
                <path d="M40.5531,18.299823 C38.8593,16.5534867 36.8607,15.0289027 34.4859,13.6655929 C31.344,11.8620885 27.8829,10.5415044 24.5472,9.27056637 C21.2406,8.01046018 17.8158,6.70522124 14.7279,4.93240708 C12.4185,3.60640708 10.4844,2.13086726 8.8437,0.437787611 L8.4597,0.0487433628 L0.0204,14.834531 L0.2415,15.0571858 C1.9353,16.8056283 3.9186,18.3205841 6.2937,19.6844956 C9.4365,21.4886018 12.8883,22.8037699 16.2249,24.0756106 C19.5315,25.3348142 22.9524,26.637646 26.0409,28.4107611 C28.3494,29.7370619 30.3123,31.2285487 31.9536,32.9210265 L32.3661,33.3272212 L40.8054,18.5408319 L40.5531,18.299823 L40.5531,18.299823 Z" id="Fill-191" fill="#CFCFCF"></path>
                <path d="M29.9262,28.8103363 C21.9087,23.164531 11.8698,22.1102301 3.8838,16.4081593 C3.9129,16.3642301 3.9432,16.3206018 3.9696,16.2742655 C4.6656,15.0547788 4.242,13.2735398 3.2292,12.2198407 C3.2034,12.1921593 3.3006,12.2412035 3.0792,12.1036991 C4.4184,9.75769912 5.7567,7.41230088 7.0953,5.06690265 C7.4952,5.41773451 7.5918,5.53628319 7.8402,5.67047788 C8.4135,5.98069027 9.1035,5.99483186 9.66,5.7080885 C10.0929,5.48513274 10.4643,5.09969912 10.695,4.62369912 C18.6696,10.2695044 28.6689,11.3418584 36.6588,16.9605841 C36.5295,17.172708 36.4305,17.4119115 36.3615,17.6700708 C36.2415,18.1207965 36.2307,18.5919823 36.3189,19.076708 C36.4077,19.5623363 36.6468,20.0446549 36.9099,20.4553628 C37.0722,20.7075044 37.0956,20.8350796 37.5162,21.150708 C36.1569,23.5313097 34.7976,25.9125133 33.4386,28.2937168 C33.2157,28.1592212 33.3561,28.2308319 33.3429,28.217292 C32.3091,27.1542655 30.7359,27.4428142 30.0285,28.6827611 C30.0015,28.7290973 29.9502,28.7621947 29.9262,28.8103363 Z" id="Path" fill="#F1F1F1"></path>
                <text id="UPI" transform="translate(20.000000, 16.500000) rotate(24.000000) translate(-20.000000, -16.500000) " font-family="OpenSans-Bold, Open Sans" font-size="11.52" font-weight="bold" letter-spacing="0.15999999" fill="#FEBBBA">
                    <tspan x="9.88250001" y="21">UPI</tspan>
                </text>
                <path d="M7.77042206,9.47094277 C7.14282206,9.14357994 6.36312206,9.35419941 6.01182206,9.96890737 C5.66082206,10.5836153 5.87142206,11.371633 6.49902206,11.6989959 C7.12632206,12.0257569 7.93242206,11.7706065 8.28342206,11.1558985 C8.63442206,10.5405888 8.39772206,9.7983056 7.77042206,9.47094277" id="Fill-197" fill="#FEBBBA"></path>
                <path d="M32.7408875,21.15448 C32.1114875,20.830126 31.3044875,21.0879844 30.9537875,21.7026924 C30.6024875,22.3180021 30.8400875,23.05848 31.4691875,23.3822322 C32.0982875,23.7065862 32.8803875,23.4938605 33.2313875,22.8791525 C33.5823875,22.263241 33.3702875,21.4782322 32.7408875,21.15448" id="Fill-198" fill="#FEBBBA"></path>
            </g>
            <g id="Note-Copy" transform="translate(26.441561, 88.375581) rotate(30.000000) translate(-26.441561, -88.375581) translate(5.941561, 71.375581)">
                <path d="M40.5531,18.299823 C38.8593,16.5534867 36.8607,15.0289027 34.4859,13.6655929 C31.344,11.8620885 27.8829,10.5415044 24.5472,9.27056637 C21.2406,8.01046018 17.8158,6.70522124 14.7279,4.93240708 C12.4185,3.60640708 10.4844,2.13086726 8.8437,0.437787611 L8.4597,0.0487433628 L0.0204,14.834531 L0.2415,15.0571858 C1.9353,16.8056283 3.9186,18.3205841 6.2937,19.6844956 C9.4365,21.4886018 12.8883,22.8037699 16.2249,24.0756106 C19.5315,25.3348142 22.9524,26.637646 26.0409,28.4107611 C28.3494,29.7370619 30.3123,31.2285487 31.9536,32.9210265 L32.3661,33.3272212 L40.8054,18.5408319 L40.5531,18.299823 L40.5531,18.299823 Z" id="Fill-191" fill="#CFCFCF"></path>
                <path d="M29.9262,28.8103363 C21.9087,23.164531 11.8698,22.1102301 3.8838,16.4081593 C3.9129,16.3642301 3.9432,16.3206018 3.9696,16.2742655 C4.6656,15.0547788 4.242,13.2735398 3.2292,12.2198407 C3.2034,12.1921593 3.3006,12.2412035 3.0792,12.1036991 C4.4184,9.75769912 5.7567,7.41230088 7.0953,5.06690265 C7.4952,5.41773451 7.5918,5.53628319 7.8402,5.67047788 C8.4135,5.98069027 9.1035,5.99483186 9.66,5.7080885 C10.0929,5.48513274 10.4643,5.09969912 10.695,4.62369912 C18.6696,10.2695044 28.6689,11.3418584 36.6588,16.9605841 C36.5295,17.172708 36.4305,17.4119115 36.3615,17.6700708 C36.2415,18.1207965 36.2307,18.5919823 36.3189,19.076708 C36.4077,19.5623363 36.6468,20.0446549 36.9099,20.4553628 C37.0722,20.7075044 37.0956,20.8350796 37.5162,21.150708 C36.1569,23.5313097 34.7976,25.9125133 33.4386,28.2937168 C33.2157,28.1592212 33.3561,28.2308319 33.3429,28.217292 C32.3091,27.1542655 30.7359,27.4428142 30.0285,28.6827611 C30.0015,28.7290973 29.9502,28.7621947 29.9262,28.8103363 Z" id="Path" fill="#F1F1F1"></path>
                <text id="UPI" transform="translate(20.000000, 16.500000) rotate(24.000000) translate(-20.000000, -16.500000) " font-family="OpenSans-Bold, Open Sans" font-size="11.52" font-weight="bold" letter-spacing="0.15999999" fill="#FEBBBA">
                    <tspan x="9.88250001" y="21">UPI</tspan>
                </text>
                <path d="M7.77042206,9.47094277 C7.14282206,9.14357994 6.36312206,9.35419941 6.01182206,9.96890737 C5.66082206,10.5836153 5.87142206,11.371633 6.49902206,11.6989959 C7.12632206,12.0257569 7.93242206,11.7706065 8.28342206,11.1558985 C8.63442206,10.5405888 8.39772206,9.7983056 7.77042206,9.47094277" id="Fill-197" fill="#FEBBBA"></path>
                <path d="M32.7408875,21.15448 C32.1114875,20.830126 31.3044875,21.0879844 30.9537875,21.7026924 C30.6024875,22.3180021 30.8400875,23.05848 31.4691875,23.3822322 C32.0982875,23.7065862 32.8803875,23.4938605 33.2313875,22.8791525 C33.5823875,22.263241 33.3702875,21.4782322 32.7408875,21.15448" id="Fill-198" fill="#FEBBBA"></path>
            </g>
        </g>
    </g>
</svg>