<?xml version="1.0" encoding="UTF-8"?>
<svg width="84px" height="32px" viewBox="0 0 84 32" version="1.1" xmlns="http://www.w3.org/2000/svg" xmlns:xlink="http://www.w3.org/1999/xlink">
    <!-- Generator: Sketch 41.1 (35376) - http://www.bohemiancoding.com/sketch -->
    <title>Paper Plane</title>
    <desc>Created with Sketch.</desc>
    <defs></defs>
    <g id="Page-1" stroke="none" stroke-width="1" fill="none" fill-rule="evenodd">
        <g id="Paper-Plane" transform="translate(43.621837, 14.776327) rotate(-10.000000) translate(-43.621837, -14.776327) translate(6.121837, -0.723673)">
            <polyline id="Fill-34" fill="#FBCFCE" points="63.1154605 11.1439946 61.7990132 27.031663 0.0569078947 0.0321793478 63.1154605 11.1439946"></polyline>
            <polygon id="Fill-36" fill="#F1F1F1" points="0.0569078947 0.0321793478 63.1154605 11.1439946 74.9302632 8.36932609"></polygon>
            <polyline id="Fill-38" fill="#F69A98" points="54.1621711 15.9761196 61.7990132 27.031663 0.0569078947 0.0321793478 54.1621711 15.9761196"></polyline>
            <polyline id="Fill-40" fill="#F1F1F1" points="54.1621711 15.9761196 0.0569078947 0.0321793478 42.1427632 30.8365761 54.1621711 15.9761196"></polyline>
            <path d="M39.050302,24.4003867 C39.0927493,24.5076187 39.1466922,24.6679505 39.2007265,24.8024821 L40.3022616,25.2321588 C40.28139,25.0434286 40.1876688,24.8620469 40.1236219,24.6993022 C39.696596,23.6142843 39.2755435,22.5359209 38.8579748,21.4750667 C38.6884009,21.0446088 38.4998975,20.6082285 38.3869768,20.1416237 C39.6896316,20.5658104 40.5613988,20.0925027 41.0288795,18.7770651 C41.2850861,18.8768959 41.5411351,18.9767046 41.7973221,19.0766746 L42.3514393,18.3828552 C41.9334636,18.2200095 41.5158422,18.05693 41.0983392,17.8941508 C41.0991069,17.4954335 40.98482,17.0785607 40.9027855,16.811738 C41.3013775,16.967321 41.7003041,17.1228091 42.0989157,17.2782529 C42.2876006,17.0548669 42.4789698,16.8375313 42.653663,16.5845221 C41.1570227,16.0007454 39.6603825,15.4169687 38.1637226,14.833331 C37.9750182,15.0568561 37.7836489,15.2741917 37.6089753,15.5270618 C38.7430884,15.9272779 39.8700002,16.3330061 40.040674,17.4815605 C39.3299694,17.2043903 38.6192843,16.9270811 37.9084221,16.6498888 C37.7652596,16.7940074 37.6001957,17.0093668 37.469203,17.1732081 C37.4277084,17.2249593 37.343821,17.2788369 37.3710493,17.3503163 C38.2530939,17.7104261 39.1899343,18.028171 40.0376252,18.4143715 C39.6977805,19.7659015 38.6064018,19.692652 37.3667134,19.0730798 C37.2951408,19.2862609 37.2826312,19.6221994 37.2346005,19.8839327 C37.789164,21.3086865 38.4637646,22.923059 39.050302,24.4003867 Z" id="Shape" fill="#AAAAAA"></path>
            <polyline id="Fill-42" fill="#FFFFFF" points="61.834375 27.0702446 63.2763158 11.229413 74.9440789 8.42745109 74.9302632 8.36932609 63.1023026 11.1231033 61.7083882 26.6477011 54.1634868 15.97275 54.0927632 16.0605272 42.1427632 30.8365761 54.1541118 16.2603424 61.834375 27.0702446"></polyline>
        </g>
    </g>
</svg>