<?xml version="1.0" encoding="UTF-8"?>
<svg width="120px" height="145px" viewBox="0 0 120 145" version="1.1" xmlns="http://www.w3.org/2000/svg" xmlns:xlink="http://www.w3.org/1999/xlink">
    <!-- Generator: Sketch 41.1 (35376) - http://www.bohemiancoding.com/sketch -->
    <title>Travel</title>
    <desc>Created with Sketch.</desc>
    <defs></defs>
    <g id="Page-1" stroke="none" stroke-width="1" fill="none" fill-rule="evenodd">
        <g id="Travel" transform="translate(5.000000, 20.000000)">
            <polygon id="Fill-438" fill="#2D2119" points="23.8473043 69.7516017 37.872287 69.7516017 37.872287 60.6559609 23.8473043 60.6559609"></polygon>
            <path d="M35.7017652,92.0908639 C34.133113,92.0908639 32.8620783,90.8060063 32.8620783,89.2200702 L32.8620783,62.9552806 L28.8148609,62.9552806 L28.8148609,89.2200702 C28.8148609,90.8060063 27.5419304,92.0908639 25.9742261,92.0908639 C24.4055739,92.0908639 23.135487,90.8060063 23.135487,89.2200702 L23.135487,60.0816104 C23.135487,58.4956742 24.4055739,57.2108167 25.9742261,57.2108167 L35.7017652,57.2108167 C37.2694696,57.2108167 38.5405043,58.4956742 38.5405043,60.0816104 L38.5405043,89.2200702 C38.5405043,90.8060063 37.2694696,92.0908639 35.7017652,92.0908639" id="Fill-439" fill="#AAAAAA"></path>
            <path d="M36.0837391,41.8922463 L25.6709217,41.8922463 C24.6415826,41.8922463 23.6823826,41.3572086 23.1345391,40.4741088 L7.67549565,15.5795142 C6.79401739,14.1613767 7.21769565,12.2897036 8.61953043,11.3998918 C10.0185217,10.5081623 11.8696261,10.9358089 12.7520522,12.3549053 L27.3277217,35.8284858 L34.3501652,35.8284858 L47.8396261,12.1343701 C48.6661304,10.6845905 50.4992261,10.1850302 51.933287,11.0211465 C53.3673478,11.855345 53.8611652,13.7107177 53.0356087,15.1614561 L38.6798348,40.3734296 C38.1452609,41.3131016 37.1538348,41.8922463 36.0837391,41.8922463" id="Fill-440" fill="#CFCFCF"></path>
            <polyline id="Fill-441" fill="#FBCFCE" points="32.8876696 33.6106682 32.8876696 31.5338014 27.6054348 31.5338014 27.6054348 33.6106682 24.4330609 33.6106682 24.4330609 50.9744633 36.455287 50.9744633 36.455287 33.6106682 32.8876696 33.6106682"></polyline>
            <path d="M38.645713,59.8581986 L23.0615565,59.8581986 L23.4861826,33.6106682 L27.6054348,33.6106682 C27.6054348,33.6106682 28.1608609,36.848701 30.176887,36.848701 C32.2175565,36.848701 32.8876696,33.6106682 32.8876696,33.6106682 L38.0324696,33.6106682 L38.645713,59.8581986" id="Fill-442" fill="#CFCFCF"></path>
            <path d="M45.3800174,16.8720426 C45.3800174,25.3281312 38.6040087,32.1810245 30.2460783,32.1810245 C21.8872,32.1810245 15.1121391,25.3281312 15.1121391,16.8720426 C15.1121391,8.41595396 21.8872,1.56210187 30.2460783,1.56210187 C38.6040087,1.56210187 45.3800174,8.41595396 45.3800174,16.8720426" id="Fill-443" fill="#FBCFCE"></path>
            <path d="M25.7258957,17.2613353 C25.7258957,18.1425174 25.0216609,18.8568599 24.1496609,18.8568599 C23.2795565,18.8568599 22.5743739,18.1425174 22.5743739,17.2613353 C22.5743739,16.3801531 23.2795565,15.6677283 24.1496609,15.6677283 C25.0216609,15.6677283 25.7258957,16.3801531 25.7258957,17.2613353" id="Fill-444" fill="#666666"></path>
            <path d="M37.7794,17.2613353 C37.7794,18.1425174 37.0723217,18.8568599 36.2022174,18.8568599 C35.332113,18.8568599 34.6250348,18.1425174 34.6250348,17.2613353 C34.6250348,16.3801531 35.332113,15.6677283 36.2022174,15.6677283 C37.0723217,15.6677283 37.7794,16.3801531 37.7794,17.2613353" id="Fill-445" fill="#666666"></path>
            <path d="M32.2431478,20.4504668 C32.2431478,21.3316489 31.2403478,22.0469502 30.0015391,22.0469502 C28.7636783,22.0469502 27.7589826,21.3316489 27.7589826,20.4504668 C27.7589826,19.5702435 28.7636783,18.8568599 30.0015391,18.8568599 C31.2403478,18.8568599 32.2431478,19.5702435 32.2431478,20.4504668" id="Fill-446" fill="#F69A98"></path>
            <path d="M30.3702435,27.4212984 C28.8432957,27.4212984 27.0528522,26.90352 25.1003304,25.3540201 C24.857687,25.1612915 24.814087,24.8036409 25.0055478,24.5572167 C25.1960609,24.3107925 25.5496,24.2686032 25.7922435,24.4622906 C30.8422609,28.4702791 34.4828609,24.6828259 34.6364087,24.5198216 C34.8496696,24.2935332 35.2041565,24.2820271 35.4287913,24.4958504 C35.6543739,24.7087148 35.6648,25.0673243 35.4543826,25.2955304 C35.4259478,25.3271724 33.435513,27.4212984 30.3702435,27.4212984" id="Fill-447" fill="#9E9E9E"></path>
            <path d="M45.5193478,16.8720426 C43.8815043,16.5920587 38.9205826,11.8121968 38.4997478,9.82737957 C36.2932087,11.0259407 34.9956348,11.9550653 31.6336957,12.9465151 C31.5844087,9.68642878 31.5531304,9.83025612 30.6839739,7.55970187 C28.8309739,12.521745 19.0228696,16.3053629 14.9718609,16.8720426 C14.9718609,8.33732835 21.8104261,1.41923338 30.2460783,1.41923338 C38.6817304,1.41923338 45.5193478,8.33732835 45.5193478,16.8720426" id="Fill-448" fill="#AAAAAA"></path>
            <path d="M32.3692087,89.2200702 C32.3692087,87.5238665 33.8516087,86.1469594 35.6818609,86.1469594 C37.512113,86.1469594 38.994513,87.5238665 38.994513,89.2200702 C38.994513,90.916274 37.512113,92.2912633 35.6818609,92.2912633 C33.8516087,92.2912633 32.3692087,90.916274 32.3692087,89.2200702" id="Fill-449" fill="#275897"></path>
            <path d="M22.6805304,89.2200702 C22.6805304,87.5238665 24.1638783,86.1469594 25.9931826,86.1469594 C27.8234348,86.1469594 29.304887,87.5238665 29.304887,89.2200702 C29.304887,90.916274 27.8234348,92.2912633 25.9931826,92.2912633 C24.1638783,92.2912633 22.6805304,90.916274 22.6805304,89.2200702" id="Fill-450" fill="#275897"></path>
            <polygon id="Fill-451" fill="#2D2119" points="69.7827478 69.8733755 83.8067826 69.8733755 83.8067826 60.7777347 69.7827478 60.7777347"></polygon>
            <path d="M81.635313,92.2135965 C80.0685565,92.2135965 78.7965739,90.9277801 78.7965739,89.341844 L78.7965739,63.0770544 L74.746513,63.0770544 L74.746513,89.341844 C74.746513,90.9277801 73.4764261,92.2135965 71.9087217,92.2135965 C70.3400696,92.2135965 69.0690348,90.9277801 69.0690348,89.341844 L69.0690348,60.204343 C69.0690348,58.6184069 70.3400696,57.3325905 71.9087217,57.3325905 L81.635313,57.3325905 C83.2039652,57.3325905 84.475,58.6184069 84.475,60.204343 L84.475,89.341844 C84.475,90.9277801 83.2039652,92.2135965 81.635313,92.2135965" id="Fill-452" fill="#CFCFCF"></path>
            <path d="M82.0817391,40.4395902 L82.0788957,40.4395902 L71.4859913,40.4300017 C70.4974087,40.4300017 69.5761217,39.9381122 69.0169043,39.1154199 L53.8829652,16.812594 C52.946513,15.4337692 53.2924696,13.5448368 54.658287,12.5984529 C56.0212609,11.6491925 57.8875304,12.0010901 58.8249304,13.3808737 L73.0660174,34.3691177 L80.4391565,34.3739119 L93.6537478,13.4144334 C94.5437565,12.0039666 96.3977043,11.5878262 97.7910087,12.490103 C99.1871565,13.391421 99.5975652,15.2640529 98.7066087,16.6764374 L84.6086435,39.0377531 C84.0579565,39.9112645 83.1044435,40.4395902 82.0817391,40.4395902" id="Fill-453" fill="#F69A98"></path>
            <polyline id="Fill-454" fill="#D7CA9F" points="78.823113 33.7314832 78.823113 31.6555753 73.5380348 31.6555753 73.5380348 33.7314832 70.3666087 33.7314832 70.3666087 51.0962371 82.3897826 51.0962371 82.3897826 33.7314832 78.823113 33.7314832"></polyline>
            <path d="M84.5802087,59.9790135 L68.9960522,59.9790135 L68.7894261,33.7314832 L73.5380348,33.7314832 C73.5380348,33.7314832 74.0963043,36.9704748 76.1113826,36.9704748 C78.1520522,36.9704748 78.823113,33.7314832 78.823113,33.7314832 L84.9128957,33.7314832 L84.5802087,59.9790135" id="Fill-455" fill="#F69A98"></path>
            <path d="M91.3135652,16.9938164 C91.3135652,25.449905 84.5394522,32.3027983 76.1815217,32.3027983 C67.8226435,32.3027983 61.0475826,25.449905 61.0475826,16.9938164 C61.0475826,8.53772777 67.8226435,1.68387568 76.1815217,1.68387568 C84.5394522,1.68387568 91.3135652,8.53772777 91.3135652,16.9938164" id="Fill-456" fill="#FBCFCE"></path>
            <path d="M71.6613391,17.3831091 C71.6613391,18.2652501 70.9552087,18.9786337 70.0841565,18.9786337 C69.215,18.9786337 68.5088696,18.2652501 68.5088696,17.3831091 C68.5088696,16.5028858 69.215,15.7895022 70.0841565,15.7895022 C70.9552087,15.7895022 71.6613391,16.5028858 71.6613391,17.3831091" id="Fill-457" fill="#666666"></path>
            <path d="M83.7129478,17.3831091 C83.7129478,18.2652501 83.0068174,18.9786337 82.1357652,18.9786337 C81.264713,18.9786337 80.5604783,18.2652501 80.5604783,17.3831091 C80.5604783,16.5028858 81.264713,15.7895022 82.1357652,15.7895022 C83.0068174,15.7895022 83.7129478,16.5028858 83.7129478,17.3831091" id="Fill-458" fill="#666666"></path>
            <path d="M78.1776435,20.5722406 C78.1776435,21.4534227 77.1729478,22.1677652 75.9360348,22.1677652 C74.6972261,22.1677652 73.6934783,21.4534227 73.6934783,20.5722406 C73.6934783,19.6920173 74.6972261,18.9786337 75.9360348,18.9786337 C77.1729478,18.9786337 78.1776435,19.6920173 78.1776435,20.5722406" id="Fill-459" fill="#F69A98"></path>
            <path d="M76.3037913,27.5430722 C74.7777913,27.5430722 72.9854522,27.024335 71.0348261,25.475794 C70.7921826,25.2830653 70.7495304,24.9254147 70.9390957,24.6789905 C71.1315043,24.4316075 71.4831478,24.3913358 71.7267391,24.5840645 C76.7767565,28.5920529 80.4183043,24.8045997 80.5718522,24.6415954 C80.785113,24.4153071 81.1396,24.4038009 81.3642348,24.6176242 C81.5888696,24.8304886 81.6002435,25.1881393 81.3898261,25.4163453 C81.3604435,25.449905 79.3709565,27.5430722 76.3037913,27.5430722" id="Fill-460" fill="#9E9E9E"></path>
            <path d="M91.4547913,16.9938164 C89.8169478,16.7147914 84.8541304,11.9339706 84.4351913,9.95011223 C82.2267565,11.1477145 80.9310783,12.0768391 77.5672435,13.0682889 C77.5198522,9.80820259 77.4876261,9.95202993 76.6175217,7.68243453 C74.7635739,12.64256 64.9554696,16.4280955 60.9054087,16.9938164 C60.9054087,8.45910216 67.7449217,1.54100719 76.1815217,1.54100719 C84.6162261,1.54100719 91.4547913,8.45910216 91.4547913,16.9938164" id="Fill-461" fill="#AAAAAA"></path>
            <path d="M78.3037043,89.341844 C78.3037043,87.6446814 79.7861043,86.2696921 81.6163565,86.2696921 C83.4466087,86.2696921 84.9290087,87.6446814 84.9290087,89.341844 C84.9290087,91.0380478 83.4466087,92.4130371 81.6163565,92.4130371 C79.7861043,92.4130371 78.3037043,91.0380478 78.3037043,89.341844" id="Fill-462" fill="#EFAA2C"></path>
            <path d="M68.6150261,89.341844 C68.6150261,87.6446814 70.0983739,86.2696921 71.9276783,86.2696921 C73.7579304,86.2696921 75.2403304,87.6446814 75.2403304,89.341844 C75.2403304,91.0380478 73.7579304,92.4130371 71.9276783,92.4130371 C70.0983739,92.4130371 68.6150261,91.0380478 68.6150261,89.341844" id="Fill-463" fill="#EFAA2C"></path>
            <path d="M29.1902,114.376431 C29.1902,116.882862 27.1798609,118.915621 24.7022435,118.915621 L17.598287,118.915621 C15.1197217,118.915621 13.1112783,116.882862 13.1112783,114.376431 L13.1112783,99.2448357 C13.1112783,96.7374458 15.1197217,94.704686 17.598287,94.704686 L24.7022435,94.704686 C27.1798609,94.704686 29.1902,96.7374458 29.1902,99.2448357 L29.1902,114.376431" id="Fill-464" fill="#CFCFCF"></path>
            <path d="M79.8448696,114.376431 C79.8448696,116.882862 81.853313,118.915621 84.3309304,118.915621 L91.4358348,118.915621 C93.9144,118.915621 95.9237913,116.882862 95.9237913,114.376431 L95.9237913,99.2448357 C95.9237913,96.7374458 93.9144,94.704686 91.4358348,94.704686 L84.3309304,94.704686 C81.853313,94.704686 79.8448696,96.7374458 79.8448696,99.2448357 L79.8448696,114.376431" id="Fill-465" fill="#CFCFCF"></path>
            <polyline id="Fill-466" fill="#CFCFCF" points="94.1797913 66.1281117 98.7132435 62.4835269 96.6147565 59.8131327 92.0794087 63.4557997 94.1797913 66.1281117"></polyline>
            <path d="M95.2205043,58.6788144 C95.2205043,61.6426164 97.5967043,64.0464506 100.526435,64.0464506 C103.458061,64.0464506 105.833313,61.6426164 105.833313,58.6788144 C105.833313,55.7140535 103.458061,53.3102193 100.526435,53.3102193 C97.5967043,53.3102193 95.2205043,55.7140535 95.2205043,58.6788144" id="Fill-467" fill="#CFCFCF"></path>
            <polyline id="Fill-468" fill="#CFCFCF" points="14.8533826 66.1281117 10.3218261 62.4835269 12.420313 59.8131327 16.9528174 63.4557997 14.8533826 66.1281117"></polyline>
            <path d="M13.8136174,58.6788144 C13.8136174,61.6426164 11.4364696,64.0464506 8.50768696,64.0464506 C5.57606087,64.0464506 3.19986087,61.6426164 3.19986087,58.6788144 C3.19986087,55.7140535 5.57606087,53.3102193 8.50768696,53.3102193 C11.4364696,53.3102193 13.8136174,55.7140535 13.8136174,58.6788144" id="Fill-469" fill="#CFCFCF"></path>
            <path d="M20.8275304,65.3418555 C20.9024087,63.9035822 22.1848174,47.9694308 27.614913,41.4770647 C31.3569304,37.0030757 46.6728522,35.0383942 54.5824609,35.0383942 C62.4930174,35.0383942 77.8089391,37.0030757 81.5528522,41.4770647 C86.982,47.9694308 88.2644087,63.9035822 88.339287,65.3418555 C89.0966,65.4770532 19.7327913,65.5384196 20.8275304,65.3418555 Z M86.2881913,38.6110653 C81.2732435,32.615383 62.8247565,30.5049565 54.8127826,30.5049565 C46.8008087,30.5049565 27.8869391,32.615383 22.8710435,38.6110653 C17.2608609,45.3182135 15.2182957,59.1275557 14.6372783,67.0313473 C14.933,66.9402567 55.2345652,67.0313473 55.2345652,67.0313473 C55.2345652,67.0313473 93.6110957,66.7513635 94.5229043,67.0313473 C93.941887,59.1275557 91.8993217,45.3182135 86.2881913,38.6110653 L86.2881913,38.6110653 Z" id="Fill-470" fill="#F1F1F1"></path>
            <path d="M64.9308261,64.951604 C74.8564609,65.3543206 84.7839913,67.4561174 94.7086783,69.4821652 C94.6897217,69.1082141 94.6309565,68.0899165 94.5229043,66.6056184 C92.6575826,66.0303091 82.1158609,60.7930763 54.6023652,60.7930763 C27.0879217,60.7930763 16.5026,66.0303091 14.6372783,66.6056184 C14.5188,68.2059373 14.4619304,69.267383 14.447713,69.5607908 C13.6818696,69.8129681 12.9520435,70.1361001 12.2563391,70.5196397 C29.3437478,65.5623908 47.2406,64.3197226 64.9308261,64.951604" id="Fill-471" fill="#F1F1F1"></path>
            <path d="M103.779374,81.8599459 C103.62393,76.1087701 99.871487,71.2685007 94.7134174,69.5607908 C94.7124696,69.5387373 94.7105739,69.5109306 94.7086783,69.4821652 C84.7839913,67.4561174 74.8564609,65.3543206 64.9308261,64.951604 C47.2406,64.3197226 29.3437478,65.5623908 12.2563391,70.5196397 C8.25651304,72.7230745 5.51255652,76.9602279 5.38175652,81.8599459 L5.37133043,81.8733698 L5.37133043,98.7577404 L54.5568696,100.243956 L54.5568696,100.244915 L54.5786696,100.243956 L54.6023652,100.244915 L54.6023652,100.243956 L103.786957,98.7577404 L103.786957,81.8733698 L103.779374,81.8599459" id="Fill-472" fill="#F1F1F1"></path>
            <path d="M106.107235,96.4104783 L3.05294783,96.4104783 C1.65585217,96.4104783 0.522252174,97.5572616 0.522252174,98.9715637 L0.522252174,104.301805 C0.522252174,105.716107 1.65585217,106.861932 3.05294783,106.861932 L106.107235,106.861932 C107.503383,106.861932 108.636035,105.716107 108.636035,104.301805 L108.636035,98.9715637 C108.636035,97.5572616 107.503383,96.4104783 106.107235,96.4104783" id="Fill-473" fill="#E5E5E5"></path>
            <path d="M83.7044174,81.6461226 C83.7044174,85.6780823 86.9355565,88.9458394 90.9211652,88.9458394 C94.9058261,88.9458394 98.1388609,85.6780823 98.1388609,81.6461226 C98.1388609,77.6141629 94.9058261,74.3444881 90.9211652,74.3444881 C86.9355565,74.3444881 83.7044174,77.6141629 83.7044174,81.6461226" id="Fill-474" fill="#F69A98"></path>
            <path d="M90.9211652,75.9409715 C87.8122957,75.9409715 85.2816,78.5010981 85.2816,81.6461226 C85.2816,84.7921059 87.8122957,87.3512737 90.9211652,87.3512737 C94.0309826,87.3512737 96.5597826,84.7921059 96.5597826,81.6461226 C96.5597826,78.5010981 94.0309826,75.9409715 90.9211652,75.9409715 Z M90.9211652,90.5432817 C86.072087,90.5432817 82.1272348,86.5525525 82.1272348,81.6461226 C82.1272348,76.7396927 86.072087,72.7489635 90.9211652,72.7489635 C95.7702435,72.7489635 99.7160435,76.7396927 99.7160435,81.6461226 C99.7160435,86.5525525 95.7702435,90.5432817 90.9211652,90.5432817 L90.9211652,90.5432817 Z" id="Fill-475" fill="#F69A98"></path>
            <path d="M12.6487391,81.6461226 C12.6487391,85.6780823 15.8798783,88.9458394 19.865487,88.9458394 C23.8510957,88.9458394 27.0831826,85.6780823 27.0831826,81.6461226 C27.0831826,77.6141629 23.8510957,74.3444881 19.865487,74.3444881 C15.8798783,74.3444881 12.6487391,77.6141629 12.6487391,81.6461226" id="Fill-476" fill="#F69A98"></path>
            <path d="M19.865487,75.9409715 C16.7556696,75.9409715 14.2268696,78.5010981 14.2268696,81.6461226 C14.2268696,84.7921059 16.7556696,87.3512737 19.865487,87.3512737 C22.9753043,87.3512737 25.5041043,84.7921059 25.5041043,81.6461226 C25.5041043,78.5010981 22.9753043,75.9409715 19.865487,75.9409715 Z M19.865487,90.5432817 C15.0164087,90.5432817 11.0725043,86.5525525 11.0725043,81.6461226 C11.0725043,76.7396927 15.0164087,72.7489635 19.865487,72.7489635 C24.7145652,72.7489635 28.6594174,76.7396927 28.6594174,81.6461226 C28.6594174,86.5525525 24.7145652,90.5432817 19.865487,90.5432817 L19.865487,90.5432817 Z" id="Fill-477" fill="#F69A98"></path>
            <path d="M39.3338348,77.784838 L69.8254,77.784838 C70.6414783,77.784838 71.302113,77.1165203 71.302113,76.2899925 C71.302113,75.4663413 70.6414783,74.7980236 69.8254,74.7980236 L39.3338348,74.7980236 C38.5187043,74.7980236 37.8590174,75.4663413 37.8590174,76.2899925 C37.8590174,77.1165203 38.5187043,77.784838 39.3338348,77.784838" id="Fill-478" fill="#C1C1C1"></path>
            <path d="M69.8254,79.8463632 L39.3338348,79.8463632 C38.5187043,79.8463632 37.8590174,80.5146809 37.8590174,81.3392909 C37.8590174,82.163901 38.5187043,82.8331776 39.3338348,82.8331776 L69.8254,82.8331776 C70.6414783,82.8331776 71.302113,82.163901 71.302113,81.3392909 C71.302113,80.5146809 70.6414783,79.8463632 69.8254,79.8463632" id="Fill-479" fill="#C1C1C1"></path>
            <path d="M69.8254,84.8937439 L39.3338348,84.8937439 C38.5187043,84.8937439 37.8590174,85.5630204 37.8590174,86.3876305 C37.8590174,87.2112817 38.5187043,87.8795994 39.3338348,87.8795994 L69.8254,87.8795994 C70.6414783,87.8795994 71.302113,87.2112817 71.302113,86.3876305 C71.302113,85.5630204 70.6414783,84.8937439 69.8254,84.8937439" id="Fill-480" fill="#C1C1C1"></path>
            <path d="M69.0102696,94.7957767 L40.1489652,94.7957767 C38.7509217,94.7957767 37.6192174,95.9416012 37.6192174,97.3549445 L37.6192174,105.653782 C37.6192174,107.067125 38.7509217,108.211991 40.1489652,108.211991 L69.0102696,108.211991 C70.4073652,108.211991 71.5400174,107.067125 71.5400174,105.653782 L71.5400174,97.3549445 C71.5400174,95.9416012 70.4073652,94.7957767 69.0102696,94.7957767" id="Fill-481" fill="#CFCFCF"></path>
        </g>
    </g>
</svg>