<?xml version="1.0" encoding="UTF-8"?>
<svg width="200px" height="170px" viewBox="0 0 200 170" version="1.1" xmlns="http://www.w3.org/2000/svg" xmlns:xlink="http://www.w3.org/1999/xlink">
    <!-- Generator: Sketch 41.1 (35376) - http://www.bohemiancoding.com/sketch -->
    <title>Travel</title>
    <desc>Created with Sketch.</desc>
    <defs></defs>
    <g id="Page-1" stroke="none" stroke-width="1" fill="none" fill-rule="evenodd">
        <g id="Travel" transform="translate(61.000000, 27.000000)">
            <polygon id="Fill-438" fill="#2D2119" points="17.2838261 50.4087206 27.4487217 50.4087206 27.4487217 43.8354003 17.2838261 43.8354003"></polygon>
            <path d="M25.8755913,66.5530613 C24.7386783,66.5530613 23.8174696,65.6245088 23.8174696,64.4783701 L23.8174696,45.4970935 L20.8841652,45.4970935 L20.8841652,64.4783701 C20.8841652,65.6245088 19.9615826,66.5530613 18.8253565,66.5530613 C17.6884435,66.5530613 16.7679217,65.6245088 16.7679217,64.4783701 L16.7679217,43.4203235 C16.7679217,42.2741847 17.6884435,41.3456322 18.8253565,41.3456322 L25.8755913,41.3456322 C27.0118174,41.3456322 27.9330261,42.2741847 27.9330261,43.4203235 L27.9330261,64.4783701 C27.9330261,65.6245088 27.0118174,66.5530613 25.8755913,66.5530613" id="Fill-439" fill="#AAAAAA"></path>
            <path d="M26.1524348,30.2750688 L18.6055304,30.2750688 C17.8594957,30.2750688 17.1642957,29.8884029 16.7672348,29.2501963 L5.56297391,11.2591447 C4.92410435,10.2342722 5.23117391,8.88163453 6.24718261,8.23857727 C7.26113043,7.5941341 8.60275652,7.90318964 9.24231304,8.92875511 L19.8063304,25.8928553 L24.8959913,25.8928553 L34.6727565,8.76937669 C35.2717826,7.72163683 36.6003565,7.36061007 37.6397217,7.96486216 C38.679087,8.56772835 39.0369913,9.9085859 38.4386522,10.9570187 L28.0340087,29.1774365 C27.6465652,29.8565272 26.9280087,30.2750688 26.1524348,30.2750688" id="Fill-440" fill="#CFCFCF"></path>
            <polyline id="Fill-441" fill="#FBCFCE" points="23.8360174 24.2900627 23.8360174 22.7891338 20.0076087 22.7891338 20.0076087 24.2900627 17.7083652 24.2900627 17.7083652 36.8386878 26.4217217 36.8386878 26.4217217 24.2900627 23.8360174 24.2900627"></polyline>
            <path d="M28.0092783,43.2588662 L16.7143391,43.2588662 L17.0220957,24.2900627 L20.0076087,24.2900627 C20.0076087,24.2900627 20.4101652,26.6301537 21.8713217,26.6301537 C23.3503391,26.6301537 23.8360174,24.2900627 23.8360174,24.2900627 L27.5648174,24.2900627 L28.0092783,43.2588662" id="Fill-442" fill="#CFCFCF"></path>
            <path d="M32.8901043,12.1932409 C32.8901043,18.3043637 27.9790522,23.2568748 21.9214696,23.2568748 C15.8632,23.2568748 10.9528348,18.3043637 10.9528348,12.1932409 C10.9528348,6.08211799 15.8632,1.12891396 21.9214696,1.12891396 C27.9790522,1.12891396 32.8901043,6.08211799 32.8901043,12.1932409" id="Fill-443" fill="#FBCFCE"></path>
            <path d="M18.6453739,12.4745784 C18.6453739,13.1113991 18.1349652,13.6276466 17.5029652,13.6276466 C16.8723391,13.6276466 16.3612435,13.1113991 16.3612435,12.4745784 C16.3612435,11.8377577 16.8723391,11.3228961 17.5029652,11.3228961 C18.1349652,11.3228961 18.6453739,11.8377577 18.6453739,12.4745784" id="Fill-444" fill="#666666"></path>
            <path d="M27.3814,12.4745784 C27.3814,13.1113991 26.8689304,13.6276466 26.2383043,13.6276466 C25.6076783,13.6276466 25.0952087,13.1113991 25.0952087,12.4745784 C25.0952087,11.8377577 25.6076783,11.3228961 26.2383043,11.3228961 C26.8689304,11.3228961 27.3814,11.8377577 27.3814,12.4745784" id="Fill-445" fill="#666666"></path>
            <path d="M23.368887,14.7793289 C23.368887,15.4161496 22.642087,15.9330901 21.7442348,15.9330901 C20.8470696,15.9330901 20.1188957,15.4161496 20.1188957,14.7793289 C20.1188957,14.1432012 20.8470696,13.6276466 21.7442348,13.6276466 C22.642087,13.6276466 23.368887,14.1432012 23.368887,14.7793289" id="Fill-446" fill="#F69A98"></path>
            <path d="M22.0114609,19.8170728 C20.9047739,19.8170728 19.607113,19.44288 18.1919826,18.3230734 C18.0161217,18.1837905 17.9845217,17.9253203 18.123287,17.7472322 C18.2613652,17.5691442 18.5176,17.5386544 18.6934609,17.6786302 C22.3535652,20.5751597 24.9921652,17.8380086 25.1034522,17.7202072 C25.2580174,17.5566711 25.5149391,17.5483557 25.6777478,17.7028835 C25.8412435,17.8567183 25.8488,18.1158814 25.6962957,18.2808035 C25.675687,18.3036708 24.2330783,19.8170728 22.0114609,19.8170728" id="Fill-447" fill="#9E9E9E"></path>
            <path d="M32.991087,12.1932409 C31.8040261,11.9908996 28.2084957,8.53654561 27.903487,7.10213986 C26.3042522,7.96832691 25.3638087,8.63979511 22.9271739,9.35630504 C22.8914522,7.00027626 22.8687826,7.10421871 22.2388435,5.46331396 C20.8958435,9.04932835 13.7872174,11.7837076 10.8511652,12.1932409 C10.8511652,6.02529612 15.8075565,1.02566446 21.9214696,1.02566446 C28.0353826,1.02566446 32.991087,6.02529612 32.991087,12.1932409" id="Fill-448" fill="#AAAAAA"></path>
            <path d="M23.4602522,64.4783701 C23.4602522,63.2525422 24.5346522,62.2574665 25.8611652,62.2574665 C27.1876783,62.2574665 28.2620783,63.2525422 28.2620783,64.4783701 C28.2620783,65.704198 27.1876783,66.6978878 25.8611652,66.6978878 C24.5346522,66.6978878 23.4602522,65.704198 23.4602522,64.4783701" id="Fill-449" fill="#275897"></path>
            <path d="M16.4381826,64.4783701 C16.4381826,63.2525422 17.5132696,62.2574665 18.8390957,62.2574665 C20.1656087,62.2574665 21.2393217,63.2525422 21.2393217,64.4783701 C21.2393217,65.704198 20.1656087,66.6978878 18.8390957,66.6978878 C17.5132696,66.6978878 16.4381826,65.704198 16.4381826,64.4783701" id="Fill-450" fill="#275897"></path>
            <polygon id="Fill-451" fill="#2D2119" points="50.576487 50.4967252 60.7406957 50.4967252 60.7406957 43.9234049 50.576487 43.9234049"></polygon>
            <path d="M59.1668783,66.6417588 C58.0313391,66.6417588 57.1094435,65.7125134 57.1094435,64.5663747 L57.1094435,45.5850981 L54.1740783,45.5850981 L54.1740783,64.5663747 C54.1740783,65.7125134 53.2535565,66.6417588 52.1173304,66.6417588 C50.9804174,66.6417588 50.0592087,65.7125134 50.0592087,64.5663747 L50.0592087,43.509021 C50.0592087,42.3628823 50.9804174,41.4336368 52.1173304,41.4336368 L59.1668783,41.4336368 C60.3037913,41.4336368 61.225,42.3628823 61.225,43.509021 L61.225,64.5663747 C61.225,65.7125134 60.3037913,66.6417588 59.1668783,66.6417588" id="Fill-452" fill="#CFCFCF"></path>
            <path d="M59.4904348,29.2252501 L59.4883739,29.2252501 L51.8109478,29.2183206 C51.0944522,29.2183206 50.4267304,28.8628374 50.0214261,28.2682866 L39.0527913,12.150278 C38.3740783,11.1538164 38.6248174,9.78870561 39.6147217,9.10476432 C40.6025652,8.41874417 41.9551826,8.67305669 42.6345826,9.67021122 L52.9561043,24.8381859 L58.2999391,24.8416506 L67.877487,9.69446446 C68.5225391,8.67513554 69.8662261,8.3743954 70.8760522,9.02646101 C71.8879391,9.67783367 72.1853913,11.0311643 71.5396522,12.0518791 L61.3218609,28.2121577 C60.9227391,28.8434348 60.2316609,29.2252501 59.4904348,29.2252501" id="Fill-453" fill="#F69A98"></path>
            <polyline id="Fill-454" fill="#D7CA9F" points="57.1286783 24.3773744 57.1286783 22.8771384 53.2982087 22.8771384 53.2982087 24.3773744 50.9996522 24.3773744 50.9996522 36.9266924 59.7136957 36.9266924 59.7136957 24.3773744 57.1286783 24.3773744"></polyline>
            <path d="M61.3012522,43.3461778 L50.006313,43.3461778 L49.8565565,24.3773744 L53.2982087,24.3773744 C53.2982087,24.3773744 53.7028261,26.7181583 55.1632957,26.7181583 C56.642313,26.7181583 57.1286783,24.3773744 57.1286783,24.3773744 L61.5423739,24.3773744 L61.3012522,43.3461778" id="Fill-455" fill="#F69A98"></path>
            <path d="M66.1813913,12.2812455 C66.1813913,18.3923683 61.271713,23.3448794 55.2141304,23.3448794 C49.1558609,23.3448794 44.2454957,18.3923683 44.2454957,12.2812455 C44.2454957,6.17012259 49.1558609,1.21691856 55.2141304,1.21691856 C61.271713,1.21691856 66.1813913,6.17012259 66.1813913,12.2812455" id="Fill-456" fill="#FBCFCE"></path>
            <path d="M51.9380348,12.562583 C51.9380348,13.2000967 51.4262522,13.7156512 50.7949391,13.7156512 C50.165,13.7156512 49.6532174,13.2000967 49.6532174,12.562583 C49.6532174,11.9264553 50.165,11.4109007 50.7949391,11.4109007 C51.4262522,11.4109007 51.9380348,11.9264553 51.9380348,12.562583" id="Fill-457" fill="#666666"></path>
            <path d="M60.672687,12.562583 C60.672687,13.2000967 60.1609043,13.7156512 59.5295913,13.7156512 C58.8982783,13.7156512 58.3878696,13.2000967 58.3878696,12.562583 C58.3878696,11.9264553 58.8982783,11.4109007 59.5295913,11.4109007 C60.1609043,11.4109007 60.672687,11.9264553 60.672687,12.562583" id="Fill-458" fill="#666666"></path>
            <path d="M56.6608609,14.8673335 C56.6608609,15.5041542 55.932687,16.0204017 55.0362087,16.0204017 C54.1383565,16.0204017 53.4108696,15.5041542 53.4108696,14.8673335 C53.4108696,14.2312058 54.1383565,13.7156512 55.0362087,13.7156512 C55.932687,13.7156512 56.6608609,14.2312058 56.6608609,14.8673335" id="Fill-459" fill="#F69A98"></path>
            <path d="M55.3027478,19.9050774 C54.1967478,19.9050774 52.897713,19.5301917 51.4839565,18.411078 C51.3080957,18.2717951 51.2771826,18.0133249 51.4145739,17.8352368 C51.5540261,17.6564558 51.808887,17.6273519 51.9854348,17.7666348 C55.6455391,20.6631643 58.2848261,17.9260132 58.396113,17.8082118 C58.5506783,17.6446757 58.8076,17.6363603 58.9704087,17.7908881 C59.1332174,17.9447229 59.1414609,18.2031931 58.9889565,18.3681151 C58.9676609,18.3923683 57.5257391,19.9050774 55.3027478,19.9050774" id="Fill-460" fill="#9E9E9E"></path>
            <path d="M66.2837478,12.2812455 C65.096687,12.0795971 61.4997826,8.62455022 61.1961478,7.19083741 C59.5955391,8.05633151 58.6564696,8.72779971 56.2184609,9.44430964 C56.184113,7.08828086 56.1607565,7.19222331 55.5301304,5.55201151 C54.1864435,9.13664 47.0778174,11.8724052 44.1424522,12.2812455 C44.1424522,6.11330072 49.0995304,1.11366906 55.2141304,1.11366906 C61.3273565,1.11366906 66.2837478,6.11330072 66.2837478,12.2812455" id="Fill-461" fill="#AAAAAA"></path>
            <path d="M56.7522261,64.5663747 C56.7522261,63.3398538 57.8266261,62.346164 59.1531391,62.346164 C60.4796522,62.346164 61.5540522,63.3398538 61.5540522,64.5663747 C61.5540522,65.7922026 60.4796522,66.7858924 59.1531391,66.7858924 C57.8266261,66.7858924 56.7522261,65.7922026 56.7522261,64.5663747" id="Fill-462" fill="#EFAA2C"></path>
            <path d="M49.7301565,64.5663747 C49.7301565,63.3398538 50.8052435,62.346164 52.1310696,62.346164 C53.4575826,62.346164 54.5319826,63.3398538 54.5319826,64.5663747 C54.5319826,65.7922026 53.4575826,66.7858924 52.1310696,66.7858924 C50.8052435,66.7858924 49.7301565,65.7922026 49.7301565,64.5663747" id="Fill-463" fill="#EFAA2C"></path>
            <path d="M21.1562,82.6585968 C21.1562,84.4699672 19.6991652,85.9390204 17.9034609,85.9390204 L12.7547217,85.9390204 C10.9583304,85.9390204 9.50266957,84.4699672 9.50266957,82.6585968 L9.50266957,71.7231586 C9.50266957,69.9110953 10.9583304,68.442042 12.7547217,68.442042 L17.9034609,68.442042 C19.6991652,68.442042 21.1562,69.9110953 21.1562,71.7231586 L21.1562,82.6585968" id="Fill-464" fill="#CFCFCF"></path>
            <path d="M57.8692174,82.6585968 C57.8692174,84.4699672 59.3248783,85.9390204 61.1205826,85.9390204 L66.2700087,85.9390204 C68.0664,85.9390204 69.5227478,84.4699672 69.5227478,82.6585968 L69.5227478,71.7231586 C69.5227478,69.9110953 68.0664,68.442042 66.2700087,68.442042 L61.1205826,68.442042 C59.3248783,68.442042 57.8692174,69.9110953 57.8692174,71.7231586 L57.8692174,82.6585968" id="Fill-465" fill="#CFCFCF"></path>
            <polyline id="Fill-466" fill="#CFCFCF" points="68.2587478 47.7900639 71.5444609 45.1561623 70.0235391 43.2262976 66.7364522 45.8588132 68.2587478 47.7900639"></polyline>
            <path d="M69.0130261,42.4065381 C69.0130261,44.5484455 70.7352261,46.2856702 72.8586087,46.2856702 C74.9833652,46.2856702 76.7048783,44.5484455 76.7048783,42.4065381 C76.7048783,40.2639378 74.9833652,38.5267131 72.8586087,38.5267131 C70.7352261,38.5267131 69.0130261,40.2639378 69.0130261,42.4065381" id="Fill-467" fill="#CFCFCF"></path>
            <polyline id="Fill-468" fill="#CFCFCF" points="10.7652957 47.7900639 7.48095652 45.1561623 9.00187826 43.2262976 12.2869043 45.8588132 10.7652957 47.7900639"></polyline>
            <path d="M10.0117043,42.4065381 C10.0117043,44.5484455 8.28881739,46.2856702 6.16612174,46.2856702 C4.04136522,46.2856702 2.31916522,44.5484455 2.31916522,42.4065381 C2.31916522,40.2639378 4.04136522,38.5267131 6.16612174,38.5267131 C8.28881739,38.5267131 10.0117043,40.2639378 10.0117043,42.4065381" id="Fill-469" fill="#CFCFCF"></path>
            <path d="M15.0951826,47.2218452 C15.1494522,46.1824207 16.0789043,34.6669836 20.0144783,29.9750216 C22.7265826,26.7417186 33.827113,25.3218647 39.5597652,25.3218647 C45.2931043,25.3218647 56.3936348,26.7417186 59.107113,29.9750216 C63.042,34.6669836 63.9714522,46.1824207 64.0257217,47.2218452 C64.5746,47.3195511 14.3017478,47.3638999 15.0951826,47.2218452 Z M62.5391478,27.9037951 C58.9044609,23.570781 45.5335391,22.0455988 39.7266957,22.0455988 C33.9198522,22.0455988 20.2116348,23.570781 16.5762609,27.9037951 C12.5101652,32.7509778 11.0297739,42.7308386 10.6086696,48.4428224 C10.823,48.3769922 40.0323913,48.4428224 40.0323913,48.4428224 C40.0323913,48.4428224 67.8465739,48.2404812 68.5074261,48.4428224 C68.0863217,42.7308386 66.6059304,32.7509778 62.5391478,27.9037951 L62.5391478,27.9037951 Z" id="Fill-470" fill="#F1F1F1"></path>
            <path d="M47.0599565,46.9398147 C54.2537652,47.2308535 61.4489478,48.7497991 68.6420696,50.2140017 C68.6283304,49.9437514 68.5857391,49.2078388 68.5074261,48.1351528 C67.1554957,47.719383 59.5151652,43.9344921 39.5741913,43.9344921 C19.6325304,43.9344921 11.9606,47.719383 10.6086696,48.1351528 C10.5228,49.2916858 10.4815826,50.058781 10.4712783,50.2708236 C9.91621739,50.4530694 9.38726087,50.6865934 8.88303478,50.9637732 C21.267487,47.3812236 34.2386,46.4831609 47.0599565,46.9398147" id="Fill-471" fill="#F1F1F1"></path>
            <path d="M75.2162435,59.1592886 C75.1035826,55.0029767 72.3839217,51.5049669 68.6455043,50.2708236 C68.6448174,50.2548858 68.6434435,50.2347902 68.6420696,50.2140017 C61.4489478,48.7497991 54.2537652,47.2308535 47.0599565,46.9398147 C34.2386,46.4831609 21.267487,47.3812236 8.88303478,50.9637732 C5.98407826,52.5561715 3.99533913,55.618316 3.90053913,59.1592886 L3.89298261,59.1689899 L3.89298261,71.3711401 L39.5412174,72.4452121 L39.5412174,72.445905 L39.5570174,72.4452121 L39.5741913,72.445905 L39.5741913,72.4452121 L75.2217391,71.3711401 L75.2217391,59.1689899 L75.2162435,59.1592886" id="Fill-472" fill="#F1F1F1"></path>
            <path d="M76.9034087,69.6747994 L2.21268696,69.6747994 C1.20011304,69.6747994 0.378513043,70.5035672 0.378513043,71.5256679 L0.378513043,75.377775 C0.378513043,76.3998757 1.20011304,77.2279505 2.21268696,77.2279505 L76.9034087,77.2279505 C77.9152957,77.2279505 78.7362087,76.3998757 78.7362087,75.377775 L78.7362087,71.5256679 C78.7362087,70.5035672 77.9152957,69.6747994 76.9034087,69.6747994" id="Fill-473" fill="#E5E5E5"></path>
            <path d="M60.6665043,59.0047609 C60.6665043,61.9186141 63.0083391,64.2801865 65.8969913,64.2801865 C68.7849565,64.2801865 71.1281652,61.9186141 71.1281652,59.0047609 C71.1281652,56.0909076 68.7849565,53.7279494 65.8969913,53.7279494 C63.0083391,53.7279494 60.6665043,56.0909076 60.6665043,59.0047609" id="Fill-474" fill="#F69A98"></path>
            <path d="M65.8969913,54.8817105 C63.6437739,54.8817105 61.8096,56.731886 61.8096,59.0047609 C61.8096,61.2783286 63.6437739,63.1278112 65.8969913,63.1278112 C68.1508957,63.1278112 69.9836957,61.2783286 69.9836957,59.0047609 C69.9836957,56.731886 68.1508957,54.8817105 65.8969913,54.8817105 Z M65.8969913,65.4346406 C62.3825217,65.4346406 59.5234087,62.5505842 59.5234087,59.0047609 C59.5234087,55.4589376 62.3825217,52.5748812 65.8969913,52.5748812 C69.4114609,52.5748812 72.2712609,55.4589376 72.2712609,59.0047609 C72.2712609,62.5505842 69.4114609,65.4346406 65.8969913,65.4346406 L65.8969913,65.4346406 Z" id="Fill-475" fill="#F69A98"></path>
            <path d="M9.16743478,59.0047609 C9.16743478,61.9186141 11.5092696,64.2801865 14.3979217,64.2801865 C17.2865739,64.2801865 19.6290957,61.9186141 19.6290957,59.0047609 C19.6290957,56.0909076 17.2865739,53.7279494 14.3979217,53.7279494 C11.5092696,53.7279494 9.16743478,56.0909076 9.16743478,59.0047609" id="Fill-476" fill="#F69A98"></path>
            <path d="M14.3979217,54.8817105 C12.1440174,54.8817105 10.3112174,56.731886 10.3112174,59.0047609 C10.3112174,61.2783286 12.1440174,63.1278112 14.3979217,63.1278112 C16.6518261,63.1278112 18.4846261,61.2783286 18.4846261,59.0047609 C18.4846261,56.731886 16.6518261,54.8817105 14.3979217,54.8817105 Z M14.3979217,65.4346406 C10.8834522,65.4346406 8.02502609,62.5505842 8.02502609,59.0047609 C8.02502609,55.4589376 10.8834522,52.5748812 14.3979217,52.5748812 C17.9123913,52.5748812 20.7715043,55.4589376 20.7715043,59.0047609 C20.7715043,62.5505842 17.9123913,65.4346406 14.3979217,65.4346406 L14.3979217,65.4346406 Z" id="Fill-477" fill="#F69A98"></path>
            <path d="M28.5080087,56.2142527 L50.6074,56.2142527 C51.1988696,56.2142527 51.6776783,55.7312668 51.6776783,55.1339442 C51.6776783,54.5387004 51.1988696,54.0557145 50.6074,54.0557145 L28.5080087,54.0557145 C27.9172261,54.0557145 27.4391043,54.5387004 27.4391043,55.1339442 C27.4391043,55.7312668 27.9172261,56.2142527 28.5080087,56.2142527" id="Fill-478" fill="#C1C1C1"></path>
            <path d="M50.6074,57.7040944 L28.5080087,57.7040944 C27.9172261,57.7040944 27.4391043,58.1870803 27.4391043,58.783017 C27.4391043,59.3789537 27.9172261,59.8626325 28.5080087,59.8626325 L50.6074,59.8626325 C51.1988696,59.8626325 51.6776783,59.3789537 51.6776783,58.783017 C51.6776783,58.1870803 51.1988696,57.7040944 50.6074,57.7040944" id="Fill-479" fill="#C1C1C1"></path>
            <path d="M50.6074,61.3517813 L28.5080087,61.3517813 C27.9172261,61.3517813 27.4391043,61.8354601 27.4391043,62.4313968 C27.4391043,63.0266406 27.9172261,63.5096265 28.5080087,63.5096265 L50.6074,63.5096265 C51.1988696,63.5096265 51.6776783,63.0266406 51.6776783,62.4313968 C51.6776783,61.8354601 51.1988696,61.3517813 50.6074,61.3517813" id="Fill-480" fill="#C1C1C1"></path>
            <path d="M50.0166174,68.5078722 L29.0987913,68.5078722 C28.0855304,68.5078722 27.2653043,69.3359471 27.2653043,70.3573548 L27.2653043,76.354834 C27.2653043,77.3762417 28.0855304,78.2036236 29.0987913,78.2036236 L50.0166174,78.2036236 C51.0291913,78.2036236 51.8501043,77.3762417 51.8501043,76.354834 L51.8501043,70.3573548 C51.8501043,69.3359471 51.0291913,68.5078722 50.0166174,68.5078722" id="Fill-481" fill="#CFCFCF"></path>
        </g>
    </g>
</svg>