<?xml version="1.0" encoding="UTF-8"?>
<svg width="130px" height="370px" viewBox="0 0 130 370" version="1.1" xmlns="http://www.w3.org/2000/svg" xmlns:xlink="http://www.w3.org/1999/xlink">
    <!-- Generator: Sketch 41.1 (35376) - http://www.bohemiancoding.com/sketch -->
    <title>VPA</title>
    <desc>Created with Sketch.</desc>
    <defs></defs>
    <g id="Page-1" stroke="none" stroke-width="1" fill="none" fill-rule="evenodd">
        <g id="VPA" transform="translate(12.000000, 4.000000)">
            <g id="VPA-Fig" transform="translate(0.000000, 154.000000)">
                <rect id="Rectangle-3" fill="#FEBBBA" x="12.6766603" y="118.701031" width="58.6882422" height="83.2989691" rx="3.456"></rect>
                <polygon id="Rectangle-4-Copy" fill="#FFFFFF" points="24.1795558 139.389421 24.1795558 118.564678 28.8746152 118.564678 28.8746152 139.389421"></polygon>
                <polygon id="Rectangle-4-Copy-2" fill="#FFFFFF" points="24.1795558 167.155744 24.1795558 146.331001 28.8746152 146.331001 28.8746152 167.155744"></polygon>
                <polygon id="Rectangle-4-Copy-3" fill="#FFFFFF" points="24.1795558 194.922067 24.1795558 174.097324 28.8746152 174.097324 28.8746152 194.922067"></polygon>
                <rect id="Rectangle" fill="#F1F1F1" x="0" y="0" width="84" height="133" rx="2.0736"></rect>
                <rect id="Rectangle-2" stroke="#CFCFCF" stroke-width="0.72" fill="#FFEBEB" x="7" y="7" width="70" height="44" rx="2.7648"></rect>
                <rect id="Rectangle-2-Copy" fill="#FFFFFF" x="7.512095" y="56.6895762" width="21.3625202" height="12.0320733" rx="2.7648"></rect>
                <rect id="Rectangle-2-Copy-12" fill="#FFFFFF" x="7.512095" y="74.2749141" width="21.3625202" height="12.0320733" rx="2.7648"></rect>
                <rect id="Rectangle-2-Copy-4" fill="#FFFFFF" x="7.512095" y="91.39748" width="21.3625202" height="12.0320733" rx="2.7648"></rect>
                <rect id="Rectangle-2-Copy-5" fill="#F69A98" x="7.512095" y="108.751432" width="21.3625202" height="12.0320733" rx="2.7648"></rect>
                <rect id="Rectangle-2-Copy-3" fill="#FFFFFF" x="55.1669477" y="56.6895762" width="21.3625202" height="12.0320733" rx="2.7648"></rect>
                <rect id="Rectangle-2-Copy-9" fill="#FFFFFF" x="55.1669477" y="74.2749141" width="21.3625202" height="12.0320733" rx="2.7648"></rect>
                <rect id="Rectangle-2-Copy-10" fill="#FFFFFF" x="55.1669477" y="91.39748" width="21.3625202" height="12.0320733" rx="2.7648"></rect>
                <rect id="Rectangle-2-Copy-11" fill="#F69A98" x="55.1669477" y="108.751432" width="21.3625202" height="12.0320733" rx="2.7648"></rect>
                <rect id="Rectangle-2-Copy-2" fill="#FFFFFF" x="32.6306627" y="56.6895762" width="19.2497434" height="12.0320733" rx="2.7648"></rect>
                <rect id="Rectangle-2-Copy-6" fill="#FFFFFF" x="32.6306627" y="74.2749141" width="19.2497434" height="12.0320733" rx="2.7648"></rect>
                <rect id="Rectangle-2-Copy-7" fill="#FFFFFF" x="32.6306627" y="91.39748" width="19.2497434" height="12.0320733" rx="2.7648"></rect>
                <rect id="Rectangle-2-Copy-8" fill="#FFFFFF" x="32.6306627" y="108.751432" width="19.2497434" height="12.0320733" rx="2.7648"></rect>
                <rect id="Rectangle-5" fill="#FFFFFF" x="44.1447368" y="144" width="20.0657895" height="46" rx="1.2672"></rect>
                <text id="VPA" transform="translate(54.679276, 171.360028) rotate(90.000000) translate(-54.679276, -171.360028) " font-family="Roboto-Bold, Roboto" font-size="17" font-weight="bold" letter-spacing="0.963333321" fill="#7E7E7E">
                    <tspan x="34.2522747" y="177.860028">V</tspan>
                    <tspan x="46.031526" y="177.860028" letter-spacing="1.07695885">PA</tspan>
                </text>
                <text id="MPIN" font-family="Roboto-Bold, Roboto" font-size="13.824" font-weight="bold" letter-spacing="0.783360004" fill="#7E7E7E">
                    <tspan x="23" y="25">MPIN</tspan>
                </text>
                <text id="*-*-*-*" font-family="Roboto-Bold, Roboto" font-size="11.52" font-weight="bold" fill="#7E7E7E">
                    <tspan x="27" y="45">* * * *</tspan>
                </text>
            </g>
            <ellipse id="Oval-3" stroke="#AAAAAA" fill="#FFFFFF" cx="80.2631579" cy="158" rx="2.00657895" ry="2"></ellipse>
            <g id="Coins" transform="translate(20.065789, 33.000000)" fill="#FEBBBA">
                <path d="M12.6304718,95.8568453 C16.6471812,95.8568453 19.9026835,99.3367159 19.9026835,103.631355 C19.9026835,107.928147 16.6472002,111.405865 12.6304718,111.405865 C8.61245427,111.405865 5.40617436,107.932453 5.40617436,103.631355 C5.40617436,99.3322904 8.61247322,95.8568453 12.6304718,95.8568453 Z M9.89713044,99.1815379 L9.89713044,99.1932183 L9.87099435,99.1932183 L9.87099435,100.389297 L11.0166022,100.389297 C12.0572787,100.389297 12.5825887,100.91758 12.7720391,101.573695 L9.89713044,101.573695 L9.89713044,102.769773 L12.7720391,102.769773 C12.583202,103.426355 12.0585477,103.956507 11.0166022,103.956507 L10.6594171,103.956507 L10.6550604,103.951835 L10.6507047,103.956507 L9.87099435,103.956507 L9.87099435,105.152586 L10.1998666,105.152586 L13.6018416,108.750165 L14.3859076,107.899828 L11.7157276,105.073158 C12.9252929,104.801119 13.7018965,103.835512 13.915468,102.769773 L15.4378635,102.769773 L15.4378635,101.573695 L13.915468,101.573695 C13.8289584,101.143425 13.6414093,100.736537 13.3796904,100.377616 L15.4378635,100.377616 L15.4378635,99.1815379 L9.89713044,99.1815379 Z" id="Combined-Shape-Copy" transform="translate(12.654429, 103.631355) rotate(-19.000000) translate(-12.654429, -103.631355) "></path>
                <path d="M42.4394269,25.5098039 C47.3830694,25.5098039 51.3898414,29.7927216 51.3898414,35.0784314 C51.3898414,40.366791 47.3830927,44.6470588 42.4394269,44.6470588 C37.4941746,44.6470588 33.547984,40.3720905 33.547984,35.0784314 C33.547984,29.7872748 37.494198,25.5098039 42.4394269,25.5098039 Z M39.0753145,29.6017333 L39.0753145,29.6161092 L39.043147,29.6161092 L39.043147,31.0882057 L40.4531259,31.0882057 C41.7339585,31.0882057 42.3804939,31.7384003 42.6136637,32.5459263 L39.0753145,32.5459263 L39.0753145,34.0180229 L42.6136637,34.0180229 C42.3812488,34.8261233 41.7355204,35.4786186 40.4531259,35.4786186 L40.0135135,35.4786186 L40.0081513,35.4728682 L40.0027906,35.4786186 L39.043147,35.4786186 L39.043147,36.9507159 L39.4479129,36.9507159 L43.634959,41.3785055 L44.5999633,40.3319361 L41.3135879,36.8529584 C42.8022837,36.5181403 43.7581035,35.3297016 44.0209607,34.0180229 L45.8946783,34.0180229 L45.8946783,32.5459263 L44.0209607,32.5459263 C43.9144874,32.0163634 43.6836577,31.5155786 43.3615422,31.0738298 L45.8946783,31.0738298 L45.8946783,29.6017333 L39.0753145,29.6017333 Z" id="Combined-Shape-Copy-2" transform="translate(42.468913, 35.078431) rotate(-20.000000) translate(-42.468913, -35.078431) "></path>
                <path d="M11.1405754,1.58823529 C16.0842178,1.58823529 20.0909898,5.87115294 20.0909898,11.1568627 C20.0909898,16.4452223 16.0842412,20.7254902 11.1405754,20.7254902 C6.1953231,20.7254902 2.24913245,16.4505219 2.24913245,11.1568627 C2.24913245,5.86570618 6.19534643,1.58823529 11.1405754,1.58823529 Z M7.77646301,5.68016463 L7.77646301,5.69454054 L7.74429551,5.69454054 L7.74429551,7.16663707 L9.15427437,7.16663707 C10.435107,7.16663707 11.0816424,7.81683164 11.3148121,8.6243577 L7.77646301,8.6243577 L7.77646301,10.0964542 L11.3148121,10.0964542 C11.0823972,10.9045547 10.4366688,11.55705 9.15427437,11.55705 L8.71466198,11.55705 L8.70929982,11.5512996 L8.70393903,11.55705 L7.74429551,11.55705 L7.74429551,13.0291473 L8.14906138,13.0291473 L12.3361075,17.4569369 L13.3011118,16.4103675 L10.0147364,12.9313898 C11.5034321,12.5965717 12.459252,11.408133 12.7221092,10.0964542 L14.5958268,10.0964542 L14.5958268,8.6243577 L12.7221092,8.6243577 C12.6156359,8.09479482 12.3848062,7.59400995 12.0626906,7.15226117 L14.5958268,7.15226117 L14.5958268,5.68016463 L7.77646301,5.68016463 Z" id="Combined-Shape-Copy-4" transform="translate(11.170061, 11.156863) rotate(11.000000) translate(-11.170061, -11.156863) "></path>
            </g>
            <g id="Note" transform="translate(36.118421, 98.000000)">
                <path d="M21.5859579,7.23202461 L14.7147315,0.4003369 C14.3739186,0.0614851894 13.8798774,-0.0744653961 13.4119469,0.0403069575 C13.1652699,0.100425809 12.9447035,0.226812032 12.7701744,0.4003369 C12.6141975,0.555416211 12.4966996,0.747386636 12.4293615,0.96190163 C12.118095,1.96547656 11.5800779,2.83788308 10.7837028,3.62899251 C9.72003695,4.6858546 8.33479769,5.4865284 6.86916509,6.33297451 C5.31351942,7.22929194 3.70633955,8.15840147 2.38912544,9.46735283 C1.26980265,10.5816011 0.507783635,11.8208693 0.0611539155,13.2596227 C-0.0893259439,13.7453557 0.0419144814,14.2707125 0.401966748,14.6300592 L7.27319321,21.461747 C7.61400604,21.8005987 8.10804722,21.9365492 8.57597774,21.8217769 C8.82265477,21.7602917 9.04322114,21.6352718 9.21775029,21.461747 C9.37372713,21.3066676 9.49122511,21.1146972 9.55856313,20.8988159 C9.87051681,19.895241 10.4085338,19.0228344 11.2055961,18.231725 C12.2685748,17.1748629 13.653127,16.3755554 15.1201338,15.5297925 C16.6744052,14.6321087 18.2822722,13.7029992 19.5987992,12.3940479 C20.718122,11.2811659 21.480141,10.0405314 21.9274579,8.601778 C22.0772506,8.11672817 21.9453231,7.58932188 21.5859579,7.23202461 Z" id="Shape" fill="#FEBBBA"></path>
                <path d="M10.3240395,16.4729649 L10.3226652,16.4729649 C9.89321357,16.8008859 9.47406876,17.1465693 9.08584446,17.533926 C8.71273687,17.9048866 8.37535965,18.2956591 8.08195828,18.6946297 L7.61196639,19.3327093 L7.61334063,19.3340757 C7.5274503,19.4672936 7.54187988,19.6462838 7.65869073,19.7624225 C7.79267964,19.8956404 8.01187177,19.8956404 8.14654781,19.7624225 C8.16716148,19.7412443 8.18365243,19.7186997 8.19739488,19.6941056 L8.63646625,19.0963329 C8.90856682,18.7267386 9.22326899,18.3626097 9.57164017,18.0169263 C9.95711598,17.6336686 10.3144198,17.3378565 10.7493684,17.0092523 L10.7479941,17.007886 C10.7603623,16.9983216 10.7720434,16.9908068 10.7830374,16.9798761 C10.9177134,16.8466582 10.9177134,16.6287273 10.7830374,16.4955094 C10.6586682,16.3698064 10.4594026,16.364341 10.3240395,16.4729649 Z" id="Shape" fill="#F5F5F5"></path>
                <path d="M12.3288699,3.93624767 C11.9695047,4.29354494 11.5799062,4.61531743 11.1758781,4.92206021 C11.147706,4.93777309 11.119534,4.95553548 11.0954847,4.98081272 C10.9601215,5.11539697 10.9601215,5.33469414 11.0954847,5.46927839 C11.2267251,5.60112996 11.439046,5.60386264 11.5757834,5.47884275 L11.5785319,5.48020909 C12.0079836,5.15228808 12.4264413,4.80523835 12.8146656,4.41924799 C13.1877732,4.04828735 13.5244633,3.65888115 13.8185517,3.25991058 L14.2885436,2.61909828 L14.2871694,2.61773194 C14.4039802,2.48178135 14.3984833,2.27888023 14.2699913,2.1504445 C14.1346282,2.01586025 13.915436,2.01586025 13.7800729,2.1504445 C13.7546493,2.17572174 13.736097,2.205098 13.7196061,2.23447426 L13.2633567,2.85615784 C12.990569,3.22780165 12.6765539,3.59056427 12.3288699,3.93624767 Z" id="Shape" fill="#F5F5F5"></path>
                <path d="M8.93658429,7.92555981 L8.93658429,7.93407677 L8.91615027,7.93407677 L8.91615027,8.80621562 L9.8118227,8.80621562 C10.6254565,8.80621562 11.0361605,9.19142129 11.1842788,9.6698375 L8.93658429,9.6698375 L8.93658429,10.5419764 L11.1842788,10.5419764 C11.03664,11.0207329 10.6264487,11.4073016 9.8118227,11.4073016 L9.53256412,11.4073016 L9.52915787,11.4038948 L9.52575249,11.4073016 L8.91615027,11.4073016 L8.91615027,12.2794409 L9.17327301,12.2794409 L11.8330447,14.9026706 L12.4460523,14.2826339 L10.358421,12.2215248 C11.3040975,12.0231629 11.9112708,11.3190762 12.0782477,10.5419764 L13.2685047,10.5419764 L13.2685047,9.6698375 L12.0782477,9.6698375 C12.0106118,9.35609968 11.8639799,9.0594113 11.6593598,8.79769866 L13.2685047,8.79769866 L13.2685047,7.92555981 L8.93658429,7.92555981 Z" id="Path" fill="#FFFFFF" transform="translate(11.092327, 11.414115) rotate(-45.000000) translate(-11.092327, -11.414115) "></path>
            </g>
            <g id="Note-Copy" transform="translate(19.564145, 82.500000) rotate(108.000000) translate(-19.564145, -82.500000) translate(11.036184, 74.000000)">
                <path d="M16.6800584,5.58838266 L11.3704743,0.309351241 C11.1071189,0.0475112827 10.7253598,-0.0575414424 10.3637772,0.0311462854 C10.1731631,0.0776017618 10.0027254,0.175263843 9.86786201,0.309351241 C9.74733446,0.429185254 9.65654057,0.577526037 9.60450664,0.743287623 C9.36398249,1.51877734 8.94824205,2.19290965 8.33286126,2.80422149 C7.51093764,3.62088765 6.44052549,4.23959013 5.30799121,4.89366212 C4.10590137,5.58627104 2.86398965,6.30421932 1.84614238,7.31568174 C0.981211138,8.17669176 0.392378264,9.13430806 0.0472552983,10.2460721 C-0.0690245931,10.6214112 0.0323884629,11.0273687 0.310610669,11.3050458 L5.62019475,16.5840772 C5.88355012,16.8459171 6.26530922,16.9509699 6.62689189,16.8622821 C6.81750596,16.8147709 6.98794361,16.7181646 7.12280704,16.5840772 C7.2433346,16.4642432 7.33412849,16.3159024 7.38616241,16.149085 C7.62721753,15.3735953 8.04295797,14.699463 8.65886972,14.0881511 C9.48026238,13.271485 10.5501436,12.6538383 11.6837398,12.0002942 C12.8847677,11.3066295 14.1272104,10.5886812 15.1445267,9.57721879 C16.0094579,8.71726458 16.5982908,7.75859247 16.9439447,6.64682845 C17.0596937,6.27201722 16.9577496,5.864476 16.6800584,5.58838266 Z" id="Shape" fill="#FEBBBA"></path>
                <path d="M7.97766686,12.7291092 L7.97660495,12.7291092 C7.64475594,12.9825027 7.32087131,13.2496217 7.02087981,13.5489428 C6.7325694,13.8355942 6.47186882,14.1375548 6.24514958,14.4458502 L5.88197403,14.9389118 L5.88303594,14.9399676 C5.81666614,15.0429087 5.82781627,15.1812193 5.9180792,15.2709628 C6.02161609,15.373904 6.19099182,15.373904 6.29505967,15.2709628 C6.31098842,15.2545978 6.32373142,15.237177 6.33435059,15.2181725 L6.67363301,14.7562573 C6.88389254,14.4706617 7.12707149,14.1892893 7.39626741,13.9221703 C7.69413507,13.6260166 7.97023345,13.3974346 8.30633012,13.1435132 L8.3052682,13.1424574 C8.31482545,13.1350667 8.32385175,13.1292598 8.33234708,13.1208133 C8.43641493,13.0178722 8.43641493,12.8494711 8.33234708,12.74653 C8.23624361,12.6493958 8.08226567,12.6451726 7.97766686,12.7291092 Z" id="Shape" fill="#F5F5F5"></path>
                <path d="M9.52685398,3.04164593 C9.24916273,3.31773927 8.94810931,3.56638165 8.63590577,3.80341016 C8.61413647,3.81555193 8.59236718,3.82927741 8.57378363,3.84880983 C8.46918483,3.95280675 8.46918483,4.12226366 8.57378363,4.22626058 C8.67519669,4.32814588 8.83926284,4.33025749 8.94492356,4.23365122 L8.9470474,4.23470703 C9.2788964,3.98131352 9.60225007,3.71313872 9.90224157,3.41487345 C10.190552,3.12822204 10.4507216,2.82731725 10.6779718,2.51902182 L11.0411474,2.02384867 L11.0400854,2.02279286 C11.1303484,1.91774014 11.1261007,1.7609529 11.0268115,1.66170711 C10.9222127,1.55771019 10.7528369,1.55771019 10.6482381,1.66170711 C10.6285927,1.68123953 10.6142568,1.70393937 10.6015138,1.7266392 L10.2489574,2.20703106 C10.0381669,2.49421037 9.79551893,2.77452694 9.52685398,3.04164593 Z" id="Shape" fill="#F5F5F5"></path>
                <path d="M6.90554241,6.12429622 L6.90554241,6.1308775 L6.88975248,6.1308775 L6.88975248,6.80480298 L7.581863,6.80480298 C8.21058004,6.80480298 8.52794221,7.10246191 8.64239728,7.47214716 L6.90554241,7.47214716 L6.90554241,8.14607263 L8.64239728,8.14607263 C8.52831274,8.51602086 8.2113467,8.81473306 7.581863,8.81473306 L7.36607228,8.81473306 L7.36344017,8.81210051 L7.36080874,8.81473306 L6.88975248,8.81473306 L6.88975248,9.48865887 L7.08843824,9.48865887 L9.14371633,11.5157 L9.61740403,11.0365808 L8.00423444,9.4439055 C8.7349844,9.29062587 9.20416377,8.7465589 9.33319141,8.14607263 L10.2529354,8.14607263 L10.2529354,7.47214716 L9.33319141,7.47214716 C9.28092728,7.22971339 9.16762085,7.00045419 9.00950533,6.79822169 L10.2529354,6.79822169 L10.2529354,6.12429622 L6.90554241,6.12429622 Z" id="Path" fill="#FFFFFF" transform="translate(8.571344, 8.819998) rotate(-45.000000) translate(-8.571344, -8.819998) "></path>
            </g>
            <g id="Note-Copy-2" transform="translate(19.564145, 9.500000) rotate(97.000000) translate(-19.564145, -9.500000) translate(11.036184, 1.000000)">
                <path d="M16.6800584,5.58838266 L11.3704743,0.309351241 C11.1071189,0.0475112827 10.7253598,-0.0575414424 10.3637772,0.0311462854 C10.1731631,0.0776017618 10.0027254,0.175263843 9.86786201,0.309351241 C9.74733446,0.429185254 9.65654057,0.577526037 9.60450664,0.743287623 C9.36398249,1.51877734 8.94824205,2.19290965 8.33286126,2.80422149 C7.51093764,3.62088765 6.44052549,4.23959013 5.30799121,4.89366212 C4.10590137,5.58627104 2.86398965,6.30421932 1.84614238,7.31568174 C0.981211138,8.17669176 0.392378264,9.13430806 0.0472552983,10.2460721 C-0.0690245931,10.6214112 0.0323884629,11.0273687 0.310610669,11.3050458 L5.62019475,16.5840772 C5.88355012,16.8459171 6.26530922,16.9509699 6.62689189,16.8622821 C6.81750596,16.8147709 6.98794361,16.7181646 7.12280704,16.5840772 C7.2433346,16.4642432 7.33412849,16.3159024 7.38616241,16.149085 C7.62721753,15.3735953 8.04295797,14.699463 8.65886972,14.0881511 C9.48026238,13.271485 10.5501436,12.6538383 11.6837398,12.0002942 C12.8847677,11.3066295 14.1272104,10.5886812 15.1445267,9.57721879 C16.0094579,8.71726458 16.5982908,7.75859247 16.9439447,6.64682845 C17.0596937,6.27201722 16.9577496,5.864476 16.6800584,5.58838266 Z" id="Shape" fill="#FEBBBA"></path>
                <path d="M7.97766686,12.7291092 L7.97660495,12.7291092 C7.64475594,12.9825027 7.32087131,13.2496217 7.02087981,13.5489428 C6.7325694,13.8355942 6.47186882,14.1375548 6.24514958,14.4458502 L5.88197403,14.9389118 L5.88303594,14.9399676 C5.81666614,15.0429087 5.82781627,15.1812193 5.9180792,15.2709628 C6.02161609,15.373904 6.19099182,15.373904 6.29505967,15.2709628 C6.31098842,15.2545978 6.32373142,15.237177 6.33435059,15.2181725 L6.67363301,14.7562573 C6.88389254,14.4706617 7.12707149,14.1892893 7.39626741,13.9221703 C7.69413507,13.6260166 7.97023345,13.3974346 8.30633012,13.1435132 L8.3052682,13.1424574 C8.31482545,13.1350667 8.32385175,13.1292598 8.33234708,13.1208133 C8.43641493,13.0178722 8.43641493,12.8494711 8.33234708,12.74653 C8.23624361,12.6493958 8.08226567,12.6451726 7.97766686,12.7291092 Z" id="Shape" fill="#F5F5F5"></path>
                <path d="M9.52685398,3.04164593 C9.24916273,3.31773927 8.94810931,3.56638165 8.63590577,3.80341016 C8.61413647,3.81555193 8.59236718,3.82927741 8.57378363,3.84880983 C8.46918483,3.95280675 8.46918483,4.12226366 8.57378363,4.22626058 C8.67519669,4.32814588 8.83926284,4.33025749 8.94492356,4.23365122 L8.9470474,4.23470703 C9.2788964,3.98131352 9.60225007,3.71313872 9.90224157,3.41487345 C10.190552,3.12822204 10.4507216,2.82731725 10.6779718,2.51902182 L11.0411474,2.02384867 L11.0400854,2.02279286 C11.1303484,1.91774014 11.1261007,1.7609529 11.0268115,1.66170711 C10.9222127,1.55771019 10.7528369,1.55771019 10.6482381,1.66170711 C10.6285927,1.68123953 10.6142568,1.70393937 10.6015138,1.7266392 L10.2489574,2.20703106 C10.0381669,2.49421037 9.79551893,2.77452694 9.52685398,3.04164593 Z" id="Shape" fill="#F5F5F5"></path>
                <path d="M6.90554241,6.12429622 L6.90554241,6.1308775 L6.88975248,6.1308775 L6.88975248,6.80480298 L7.581863,6.80480298 C8.21058004,6.80480298 8.52794221,7.10246191 8.64239728,7.47214716 L6.90554241,7.47214716 L6.90554241,8.14607263 L8.64239728,8.14607263 C8.52831274,8.51602086 8.2113467,8.81473306 7.581863,8.81473306 L7.36607228,8.81473306 L7.36344017,8.81210051 L7.36080874,8.81473306 L6.88975248,8.81473306 L6.88975248,9.48865887 L7.08843824,9.48865887 L9.14371633,11.5157 L9.61740403,11.0365808 L8.00423444,9.4439055 C8.7349844,9.29062587 9.20416377,8.7465589 9.33319141,8.14607263 L10.2529354,8.14607263 L10.2529354,7.47214716 L9.33319141,7.47214716 C9.28092728,7.22971339 9.16762085,7.00045419 9.00950533,6.79822169 L10.2529354,6.79822169 L10.2529354,6.12429622 L6.90554241,6.12429622 Z" id="Path" fill="#FFFFFF" transform="translate(8.571344, 8.819998) rotate(-45.000000) translate(-8.571344, -8.819998) "></path>
            </g>
            <g id="Tag" transform="translate(94.386737, 197.040662) rotate(-19.000000) translate(-94.386737, -197.040662) translate(78.886737, 153.040662)">
                <g id="Group-3" transform="translate(0.080180, 0.089787)">
                    <path d="M20.3881881,46.8998274 C20.3881881,43.9628545 19.0335448,40.3871105 17.4378963,40.3871105 C15.8422477,40.3871105 14.6002772,43.9628545 14.6002772,46.8998274 L13.158426,46.8998274 C13.158426,42.4990861 15.1033229,38.9192818 17.4942326,38.9192818 C19.8851422,38.9192818 21.8300392,42.4990861 21.8300392,46.8998274 L20.3881881,46.8998274 Z" id="Fill-269" fill="#FEBBBA" transform="translate(17.494233, 42.909555) rotate(4.000000) translate(-17.494233, -42.909555) "></path>
                    <g id="Tag-UPI" transform="translate(14.885198, 64.156798) rotate(8.000000) translate(-14.885198, -64.156798) translate(2.885198, 43.156798)">
                        <path d="M12.2747415,9.61650454 C10.748695,9.61650454 9.51187261,8.4032433 9.51187261,6.90658415 C9.51187261,5.41018159 10.748695,4.19692035 12.2747415,4.19692035 C13.8006571,4.19692035 15.0377411,5.41018159 15.0377411,6.90658415 C15.0377411,8.4032433 13.8006571,9.61650454 12.2747415,9.61650454 Z M4.50205532,41.9129618 L20.0472968,41.9129618 C22.0714733,41.9129618 23.7121106,40.3035337 23.7121106,38.3184654 L23.7121106,8.47842265 C23.7121106,7.24873999 23.0712653,6.10450006 22.013393,5.44494883 L14.3512426,0.668366158 C13.1633437,-0.0722658729 11.6475005,-0.0800917094 10.451753,0.648352543 L2.56853113,5.44956736 C1.491822,6.10501323 0.837110647,7.26002972 0.837110647,8.50305479 L0.837110647,38.3184654 C0.837110647,40.3035337 2.47787879,41.9129618 4.50205532,41.9129618 L4.50205532,41.9129618 Z" id="Fill-354" fill="#F69A98"></path>
                        <path d="M12.2747945,8.82754144 C13.4699659,8.82754144 14.4424293,7.86285585 14.4424293,6.67697233 C14.4424293,5.49084561 13.4699659,4.52603841 12.2747945,4.52603841 C11.0791328,4.52603841 10.106792,5.49084561 10.106792,6.67697233 C10.106792,7.86285585 11.0791328,8.82754144 12.2747945,8.82754144 Z M12.2747945,9.66296184 C10.6152087,9.66296184 9.26474223,8.32349231 9.26474223,6.67697233 C9.26474223,5.03045236 10.6152087,3.69073962 12.2747945,3.69073962 C13.9342577,3.69073962 15.2844791,5.03045236 15.2844791,6.67697233 C15.2844791,8.32349231 13.9342577,9.66296184 12.2747945,9.66296184 L12.2747945,9.66296184 Z" id="Fill-358" stroke="#AAAAAA" stroke-width="0.5" fill="#AAAAAA"></path>
                        <text id="UPI" transform="translate(12.484617, 24.800276) rotate(90.000000) translate(-12.484617, -24.800276) " font-family="Roboto-Bold, Roboto" font-size="15.6" font-weight="bold" letter-spacing="0.216666651" fill="#FFFFFF">
                            <tspan x="-0.56870288" y="30.8002762">UPI</tspan>
                        </text>
                    </g>
                    <g id="Group-2" transform="translate(13.762308, 0.022288)" fill="#FEBBBA">
                        <path d="M3.5504289,1.92968947 C3.23641104,1.92968947 2.29316222,2.6552243 2.29316222,3.72606291 C2.29316222,4.88382282 3.60631864,37.1479694 3.98449487,45.7265853 C4.39295709,37.2019479 4.80769549,5.10926252 4.80769549,3.72606291 C4.80769549,2.37144016 3.87281511,1.92968947 3.5504289,1.92968947 Z M4.6372374,50.7954066 C4.36745307,50.7823089 4.13034577,50.6517285 3.97612633,50.4552625 C3.81991446,50.6525223 3.58161164,50.7834996 3.31103028,50.7958035 C2.8133042,50.8196175 2.39687194,50.4354175 2.37455598,49.9424666 C2.31836755,48.6596829 0.499913515,5.25532205 0.499913515,3.72606291 C0.499913515,1.74155845 2.16803336,0.143635456 3.5504289,0.143635456 C5.01690783,0.143635456 6.60094429,1.51334043 6.60094429,3.72606291 C6.60094429,5.55180702 5.63747176,48.6755589 5.57570425,49.9464356 C5.55338828,50.4243042 5.15648255,50.7965973 4.68147083,50.7965973 C4.66632788,50.7965973 4.65238035,50.7962004 4.6372374,50.7954066 Z" id="Fill-284" transform="translate(3.550429, 25.470244) rotate(1.000000) translate(-3.550429, -25.470244) "></path>
                    </g>
                </g>
                <path d="M17.4357058,2.52740102 C17.4357058,1.16458525 16.4121836,0.0915332725 15.027282,0.0915332725 L15.1030553,0.986504004 C16.7483882,1.44541801 16.7654079,2.93192809 16.5367605,3.59379109 L17.4357058,2.52740102 Z" id="Oval-3-Copy" fill="#AAAAAA"></path>
            </g>
            <path d="M80.7572161,155.330628 C79.9302538,154.595743 80.1567087,154 81.2713449,154 L82.2648393,154 C83.3757471,154 84.2763158,154.902151 84.2763158,155.998101 L84.2763158,160.001899 C84.2763158,161.10542 83.4777132,162.045558 83.4777132,162.045558 C83.4777132,162.045558 83.4994262,162.093498 83.4777132,162.045558 C82.3700658,159.6 83.0723684,157.9 82.5707237,157 C82.5707237,157 82.4703947,156.6 81.6677632,155.9 C80.4638158,155.3 80.7572161,155.330628 80.7572161,155.330628 Z" id="Rectangle-Copy" fill="#F1F1F1"></path>
        </g>
    </g>
</svg>