<?xml version="1.0" encoding="UTF-8"?>
<svg width="130px" height="370px" viewBox="0 0 130 370" version="1.1" xmlns="http://www.w3.org/2000/svg" xmlns:xlink="http://www.w3.org/1999/xlink">
    <!-- Generator: Sketch 41.1 (35376) - http://www.bohemiancoding.com/sketch -->
    <title>VPA Fig</title>
    <desc>Created with Sketch.</desc>
    <defs></defs>
    <g id="Page-1" stroke="none" stroke-width="1" fill="none" fill-rule="evenodd">
        <g id="VPA" transform="translate(14.000000, 4.000000)">
            <g id="VPA-Fig" transform="translate(0.000000, 154.000000)">
                <rect id="Rectangle-3" fill="#FEBBBA" x="12.6350975" y="118.701031" width="58.4958217" height="83.2989691" rx="3.456"></rect>
                <polygon id="Rectangle-4-Copy" fill="#FFFFFF" points="24.1002786 139.389421 24.1002786 118.564678 28.7799443 118.564678 28.7799443 139.389421"></polygon>
                <polygon id="Rectangle-4-Copy-2" fill="#FFFFFF" points="24.1002786 167.155744 24.1002786 146.331001 28.7799443 146.331001 28.7799443 167.155744"></polygon>
                <polygon id="Rectangle-4-Copy-3" fill="#FFFFFF" points="24.1002786 194.922067 24.1002786 174.097324 28.7799443 174.097324 28.7799443 194.922067"></polygon>
                <rect id="Rectangle" fill="#F1F1F1" x="0" y="0" width="84" height="132.584192" rx="2.0736"></rect>
                <rect id="Rectangle-2" stroke="#CFCFCF" stroke-width="0.72" fill="#FFEBEB" x="7.72144847" y="6.71019473" width="68.5571031" height="43.9633448" rx="2.7648"></rect>
                <rect id="Rectangle-2-Copy" fill="#FFFFFF" x="7.48746518" y="56.6895762" width="21.2924791" height="12.0320733" rx="2.7648"></rect>
                <rect id="Rectangle-2-Copy-12" fill="#FFFFFF" x="7.48746518" y="74.2749141" width="21.2924791" height="12.0320733" rx="2.7648"></rect>
                <rect id="Rectangle-2-Copy-4" fill="#FFFFFF" x="7.48746518" y="91.39748" width="21.2924791" height="12.0320733" rx="2.7648"></rect>
                <rect id="Rectangle-2-Copy-5" fill="#F69A98" x="7.48746518" y="108.751432" width="21.2924791" height="12.0320733" rx="2.7648"></rect>
                <rect id="Rectangle-2-Copy-3" fill="#FFFFFF" x="54.9860724" y="56.6895762" width="21.2924791" height="12.0320733" rx="2.7648"></rect>
                <rect id="Rectangle-2-Copy-9" fill="#FFFFFF" x="54.9860724" y="74.2749141" width="21.2924791" height="12.0320733" rx="2.7648"></rect>
                <rect id="Rectangle-2-Copy-10" fill="#FFFFFF" x="54.9860724" y="91.39748" width="21.2924791" height="12.0320733" rx="2.7648"></rect>
                <rect id="Rectangle-2-Copy-11" fill="#F69A98" x="54.9860724" y="108.751432" width="21.2924791" height="12.0320733" rx="2.7648"></rect>
                <rect id="Rectangle-2-Copy-2" fill="#FFFFFF" x="32.5236769" y="56.6895762" width="19.1866295" height="12.0320733" rx="2.7648"></rect>
                <rect id="Rectangle-2-Copy-6" fill="#FFFFFF" x="32.5236769" y="74.2749141" width="19.1866295" height="12.0320733" rx="2.7648"></rect>
                <rect id="Rectangle-2-Copy-7" fill="#FFFFFF" x="32.5236769" y="91.39748" width="19.1866295" height="12.0320733" rx="2.7648"></rect>
                <rect id="Rectangle-2-Copy-8" fill="#FFFFFF" x="32.5236769" y="108.751432" width="19.1866295" height="12.0320733" rx="2.7648"></rect>
                <rect id="Rectangle-5" fill="#FFFFFF" x="44" y="144" width="20" height="46" rx="1.2672"></rect>
                <text id="VPA" transform="translate(54.500000, 171.360028) rotate(90.000000) translate(-54.500000, -171.360028) " font-family="Roboto-Bold, Roboto" font-size="17" font-weight="bold" letter-spacing="0.963333368" fill="#7E7E7E">
                    <tspan x="34.1399721" y="177.860028">V</tspan>
                    <tspan x="45.9192235" y="177.860028" letter-spacing="1.07695889">PA</tspan>
                </text>
                <text id="MPIN" font-family="Roboto-Bold, Roboto" font-size="13.824" font-weight="bold" letter-spacing="0.783360028" fill="#7E7E7E">
                    <tspan x="22.6963788" y="24.4123711">MPIN</tspan>
                </text>
                <text id="*-*-*-*" font-family="Roboto-Bold, Roboto" font-size="11.52" font-weight="bold" fill="#7E7E7E">
                    <tspan x="27.1420613" y="44.8568156">* * * *</tspan>
                </text>
            </g>
            <g id="Coins" transform="translate(20.000000, 33.000000)" fill="#FEBBBA">
                <path d="M12.5890604,95.8568453 C16.5926003,95.8568453 19.8374288,99.3367159 19.8374288,103.631355 C19.8374288,107.928147 16.5926192,111.405865 12.5890604,111.405865 C8.58421671,111.405865 5.3884492,107.932453 5.3884492,103.631355 C5.3884492,99.3322904 8.58423561,95.8568453 12.5890604,95.8568453 Z M9.86468084,99.1815379 L9.86468084,99.1932183 L9.83863044,99.1932183 L9.83863044,100.389297 L10.9804822,100.389297 C12.0177466,100.389297 12.5413343,100.91758 12.7301636,101.573695 L9.86468084,101.573695 L9.86468084,102.769773 L12.7301636,102.769773 C12.5419456,103.426355 12.0190115,103.956507 10.9804822,103.956507 L10.6244682,103.956507 L10.6201257,103.951835 L10.6157844,103.956507 L9.83863044,103.956507 L9.83863044,105.152586 L10.1664244,105.152586 L13.5572454,108.750165 L14.3387407,107.899828 L11.6773153,105.073158 C12.8829148,104.801119 13.6569722,103.835512 13.8698435,102.769773 L15.3872476,102.769773 L15.3872476,101.573695 L13.8698435,101.573695 C13.7836176,101.143425 13.5966833,100.736537 13.3358226,100.377616 L15.3872476,100.377616 L15.3872476,99.1815379 L9.86468084,99.1815379 Z" id="Combined-Shape-Copy" transform="translate(12.612939, 103.631355) rotate(-19.000000) translate(-12.612939, -103.631355) "></path>
                <path d="M42.3002813,25.5098039 C47.227715,25.5098039 51.2213501,29.7927216 51.2213501,35.0784314 C51.2213501,40.366791 47.2277383,44.6470588 42.3002813,44.6470588 C37.3712429,44.6470588 33.4379906,40.3720905 33.4379906,35.0784314 C33.4379906,29.7872748 37.3712662,25.5098039 42.3002813,25.5098039 Z M38.9471987,29.6017333 L38.9471987,29.6161092 L38.9151367,29.6161092 L38.9151367,31.0882057 L40.3204927,31.0882057 C41.5971259,31.0882057 42.2415415,31.7384003 42.4739467,32.5459263 L38.9471987,32.5459263 L38.9471987,34.0180229 L42.4739467,34.0180229 C42.2422938,34.8261233 41.5986826,35.4786186 40.3204927,35.4786186 L39.8823217,35.4786186 L39.8769771,35.4728682 L39.8716339,35.4786186 L38.9151367,35.4786186 L38.9151367,36.9507159 L39.3185755,36.9507159 L43.4918936,41.3785055 L44.4537339,40.3319361 L41.1781335,36.8529584 C42.6619483,36.5181403 43.6146343,35.3297016 43.8766297,34.0180229 L45.7442039,34.0180229 L45.7442039,32.5459263 L43.8766297,32.5459263 C43.7705055,32.0163634 43.5404326,31.5155786 43.2193732,31.0738298 L45.7442039,31.0738298 L45.7442039,29.6017333 L38.9471987,29.6017333 Z" id="Combined-Shape-Copy-2" transform="translate(42.329670, 35.078431) rotate(-20.000000) translate(-42.329670, -35.078431) "></path>
                <path d="M11.1040489,1.58823529 C16.0314827,1.58823529 20.0251177,5.87115294 20.0251177,11.1568627 C20.0251177,16.4452223 16.031506,20.7254902 11.1040489,20.7254902 C6.17501056,20.7254902 2.24175824,16.4505219 2.24175824,11.1568627 C2.24175824,5.86570618 6.17503382,1.58823529 11.1040489,1.58823529 Z M7.75096641,5.68016463 L7.75096641,5.69454054 L7.71890438,5.69454054 L7.71890438,7.16663707 L9.12426036,7.16663707 C10.4008935,7.16663707 11.0453091,7.81683164 11.2777144,8.6243577 L7.75096641,8.6243577 L7.75096641,10.0964542 L11.2777144,10.0964542 C11.0460615,10.9045547 10.4024503,11.55705 9.12426036,11.55705 L8.68608932,11.55705 L8.68074474,11.5512996 L8.67540152,11.55705 L7.71890438,11.55705 L7.71890438,13.0291473 L8.12234315,13.0291473 L12.2956612,17.4569369 L13.2575016,16.4103675 L9.98190117,12.9313898 C11.465716,12.5965717 12.418402,11.408133 12.6803974,10.0964542 L14.5479716,10.0964542 L14.5479716,8.6243577 L12.6803974,8.6243577 C12.5742731,8.09479482 12.3442002,7.59400995 12.0231408,7.15226117 L14.5479716,7.15226117 L14.5479716,5.68016463 L7.75096641,5.68016463 Z" id="Combined-Shape-Copy-4" transform="translate(11.133438, 11.156863) rotate(11.000000) translate(-11.133438, -11.156863) "></path>
            </g>
            <g id="Note" transform="translate(36.000000, 98.000000)">
                <path d="M21.5151843,7.23202461 L14.6664864,0.4003369 C14.326791,0.0614851894 13.8343696,-0.0744653961 13.3679733,0.0403069575 C13.1221051,0.100425809 12.9022619,0.226812032 12.7283049,0.4003369 C12.5728395,0.555416211 12.4557268,0.747386636 12.3886095,0.96190163 C12.0783635,1.96547656 11.5421105,2.83788308 10.7483464,3.62899251 C9.68816797,4.6858546 8.30747049,5.4865284 6.84664324,6.33297451 C5.29609804,7.22929194 3.69418762,8.15840147 2.38129224,9.46735283 C1.26563936,10.5816011 0.506118771,11.8208693 0.0609534108,13.2596227 C-0.089033072,13.7453557 0.0417770569,14.2707125 0.400648824,14.6300592 L7.24934667,21.461747 C7.58904208,21.8005987 8.08146346,21.9365492 8.54785978,21.8217769 C8.79372803,21.7602917 9.01357124,21.6352718 9.18752816,21.461747 C9.3429936,21.3066676 9.46010634,21.1146972 9.52722357,20.8988159 C9.83815446,19.895241 10.3744075,19.0228344 11.1688564,18.231725 C12.22835,17.1748629 13.6083626,16.3755554 15.0705596,15.5297925 C16.6197351,14.6321087 18.2223304,13.7029992 19.5345409,12.3940479 C20.6501937,11.2811659 21.4097143,10.0405314 21.8555646,8.601778 C22.0048662,8.11672817 21.8733712,7.58932188 21.5151843,7.23202461 Z" id="Shape" fill="#FEBBBA"></path>
                <path d="M10.2901902,16.4729649 L10.2888204,16.4729649 C9.86077681,16.8008859 9.44300624,17.1465693 9.05605481,17.533926 C8.68417052,17.9048866 8.34789945,18.2956591 8.05546005,18.6946297 L7.58700912,19.3327093 L7.58837886,19.3340757 C7.50277014,19.4672936 7.5171524,19.6462838 7.63358027,19.7624225 C7.76712987,19.8956404 7.98560333,19.8956404 8.11983781,19.7624225 C8.14038391,19.7412443 8.15682078,19.7186997 8.17051818,19.6941056 L8.60814997,19.0963329 C8.8793584,18.7267386 9.19302877,18.3626097 9.54025775,18.0169263 C9.9244697,17.6336686 10.280602,17.3378565 10.7141246,17.0092523 L10.7127548,17.007886 C10.7250825,16.9983216 10.7367253,16.9908068 10.7476832,16.9798761 C10.8819177,16.8466582 10.8819177,16.6287273 10.7476832,16.4955094 C10.6237217,16.3698064 10.4251095,16.364341 10.2901902,16.4729649 Z" id="Shape" fill="#F5F5F5"></path>
                <path d="M12.2884473,3.93624767 C11.9302604,4.29354494 11.5419393,4.61531743 11.1392358,4.92206021 C11.1111562,4.93777309 11.0830765,4.95553548 11.0591061,4.98081272 C10.9241867,5.11539697 10.9241867,5.33469414 11.0591061,5.46927839 C11.1899162,5.60112996 11.401541,5.60386264 11.53783,5.47884275 L11.5405695,5.48020909 C11.9686131,5.15228808 12.3856988,4.80523835 12.7726503,4.41924799 C13.1445346,4.04828735 13.4801208,3.65888115 13.773245,3.25991058 L14.241696,2.61909828 L14.2403262,2.61773194 C14.3567541,2.48178135 14.3512751,2.27888023 14.2232045,2.1504445 C14.0882851,2.01586025 13.8698117,2.01586025 13.7348923,2.1504445 C13.7095521,2.17572174 13.6910606,2.205098 13.6746238,2.23447426 L13.2198702,2.85615784 C12.9479769,3.22780165 12.6349914,3.59056427 12.2884473,3.93624767 Z" id="Shape" fill="#F5F5F5"></path>
                <path d="M8.90728401,7.92555981 L8.90728401,7.93407677 L8.88691699,7.93407677 L8.88691699,8.80621562 L9.77965279,8.80621562 C10.590619,8.80621562 10.9999764,9.19142129 11.1476091,9.6698375 L8.90728401,9.6698375 L8.90728401,10.5419764 L11.1476091,10.5419764 C11.0004543,11.0207329 10.5916079,11.4073016 9.77965279,11.4073016 L9.50130981,11.4073016 L9.49791473,11.4038948 L9.49452051,11.4073016 L8.88691699,11.4073016 L8.88691699,12.2794409 L9.14319671,12.2794409 L11.7942478,14.9026706 L12.4052455,14.2826339 L10.324459,12.2215248 C11.2670348,12.0231629 11.8722174,11.3190762 12.0386469,10.5419764 L13.2250014,10.5419764 L13.2250014,9.6698375 L12.0386469,9.6698375 C11.9712327,9.35609968 11.8250816,9.0594113 11.6211324,8.79769866 L13.2250014,8.79769866 L13.2250014,7.92555981 L8.90728401,7.92555981 Z" id="Path" fill="#FFFFFF" transform="translate(11.055959, 11.414115) rotate(-45.000000) translate(-11.055959, -11.414115) "></path>
            </g>
            <g id="Note-Copy" transform="translate(19.500000, 82.500000) rotate(108.000000) translate(-19.500000, -82.500000) translate(11.000000, 74.000000)">
                <path d="M16.6253697,5.58838266 L11.3331941,0.309351241 C11.0707022,0.0475112827 10.6901947,-0.0575414424 10.3297976,0.0311462854 C10.1398085,0.0776017618 9.96992963,0.175263843 9.83550837,0.309351241 C9.71537598,0.429185254 9.62487978,0.577526037 9.57301646,0.743287623 C9.3332809,1.51877734 8.91890355,2.19290965 8.3055404,2.80422149 C7.48631162,3.62088765 6.41940901,4.23959013 5.29058796,4.89366212 C4.0924394,5.58627104 2.85459952,6.30421932 1.84008946,7.31568174 C0.977994052,8.17669176 0.391091777,9.13430806 0.0471003629,10.2460721 C-0.0687982829,10.6214112 0.0322822712,11.0273687 0.309592273,11.3050458 L5.60176788,16.5840772 C5.86425979,16.8459171 6.24476722,16.9509699 6.60516438,16.8622821 C6.79515348,16.8147709 6.96503232,16.7181646 7.09945358,16.5840772 C7.21958597,16.4642432 7.31008217,16.3159024 7.36194549,16.149085 C7.60221026,15.3735953 8.01658761,14.699463 8.63047998,14.0881511 C9.44917955,13.271485 10.5155529,12.6538383 11.6454324,12.0002942 C12.8425225,11.3066295 14.0808916,10.5886812 15.0948725,9.57721879 C15.9569679,8.71726458 16.5438702,7.75859247 16.8883908,6.64682845 C17.0037602,6.27201722 16.9021505,5.864476 16.6253697,5.58838266 Z" id="Shape" fill="#FEBBBA"></path>
                <path d="M7.95151058,12.7291092 L7.95045214,12.7291092 C7.61969117,12.9825027 7.29686846,13.2496217 6.99786053,13.5489428 C6.7104954,13.8355942 6.45064958,14.1375548 6.22467368,14.4458502 L5.86268887,14.9389118 L5.8637473,14.9399676 C5.79759511,15.0429087 5.80870867,15.1812193 5.89867566,15.2709628 C6.00187308,15.373904 6.17069349,15.373904 6.27442013,15.2709628 C6.29029665,15.2545978 6.30299788,15.237177 6.31358223,15.2181725 L6.65175225,14.7562573 C6.8613224,14.4706617 7.10370405,14.1892893 7.37201735,13.9221703 C7.6689084,13.6260166 7.94410153,13.3974346 8.27909625,13.1435132 L8.27803781,13.1424574 C8.28756373,13.1350667 8.29656043,13.1292598 8.30502791,13.1208133 C8.40875455,13.0178722 8.40875455,12.8494711 8.30502791,12.74653 C8.20923953,12.6493958 8.05576644,12.6451726 7.95151058,12.7291092 Z" id="Shape" fill="#F5F5F5"></path>
                <path d="M9.49561839,3.04164593 C9.21883761,3.31773927 8.91877125,3.56638165 8.60759132,3.80341016 C8.5858934,3.81555193 8.56419548,3.82927741 8.54567287,3.84880983 C8.44141701,3.95280675 8.44141701,4.12226366 8.54567287,4.22626058 C8.64675342,4.32814588 8.81028165,4.33025749 8.91559594,4.23365122 L8.91771281,4.23470703 C9.24847379,3.98131352 9.57076728,3.71313872 9.86977521,3.41487345 C10.1571403,3.12822204 10.4164569,2.82731725 10.6429621,2.51902182 L11.0049469,2.02384867 L11.0038884,2.02279286 C11.0938554,1.91774014 11.0896217,1.7609529 10.990658,1.66170711 C10.8864021,1.55771019 10.7175817,1.55771019 10.6133259,1.66170711 C10.5937448,1.68123953 10.579456,1.70393937 10.5667547,1.7266392 L10.2153543,2.20703106 C10.0052549,2.49421037 9.76340248,2.77452694 9.49561839,3.04164593 Z" id="Shape" fill="#F5F5F5"></path>
                <path d="M6.88290128,6.12429622 L6.88290128,6.1308775 L6.86716313,6.1308775 L6.86716313,6.80480298 L7.55700443,6.80480298 C8.18366011,6.80480298 8.49998174,7.10246191 8.61406155,7.47214716 L6.88290128,7.47214716 L6.88290128,8.14607263 L8.61406155,8.14607263 C8.50035105,8.51602086 8.18442425,8.81473306 7.55700443,8.81473306 L7.34192122,8.81473306 L7.33929775,8.81210051 L7.33667494,8.81473306 L6.86716313,8.81473306 L6.86716313,9.48865887 L7.06519745,9.48865887 L9.11373694,11.5157 L9.58587155,11.0365808 L7.97799105,9.4439055 C8.70634511,9.29062587 9.17398618,8.7465589 9.30259078,8.14607263 L10.2193193,8.14607263 L10.2193193,7.47214716 L9.30259078,7.47214716 C9.25049801,7.22971339 9.13756307,7.00045419 8.97996596,6.79822169 L10.2193193,6.79822169 L10.2193193,6.12429622 L6.88290128,6.12429622 Z" id="Path" fill="#FFFFFF" transform="translate(8.543241, 8.819998) rotate(-45.000000) translate(-8.543241, -8.819998) "></path>
            </g>
            <g id="Note-Copy-2" transform="translate(19.500000, 9.500000) rotate(97.000000) translate(-19.500000, -9.500000) translate(11.000000, 1.000000)">
                <path d="M16.6253697,5.58838266 L11.3331941,0.309351241 C11.0707022,0.0475112827 10.6901947,-0.0575414424 10.3297976,0.0311462854 C10.1398085,0.0776017618 9.96992963,0.175263843 9.83550837,0.309351241 C9.71537598,0.429185254 9.62487978,0.577526037 9.57301646,0.743287623 C9.3332809,1.51877734 8.91890355,2.19290965 8.3055404,2.80422149 C7.48631162,3.62088765 6.41940901,4.23959013 5.29058796,4.89366212 C4.0924394,5.58627104 2.85459952,6.30421932 1.84008946,7.31568174 C0.977994052,8.17669176 0.391091777,9.13430806 0.0471003629,10.2460721 C-0.0687982829,10.6214112 0.0322822712,11.0273687 0.309592273,11.3050458 L5.60176788,16.5840772 C5.86425979,16.8459171 6.24476722,16.9509699 6.60516438,16.8622821 C6.79515348,16.8147709 6.96503232,16.7181646 7.09945358,16.5840772 C7.21958597,16.4642432 7.31008217,16.3159024 7.36194549,16.149085 C7.60221026,15.3735953 8.01658761,14.699463 8.63047998,14.0881511 C9.44917955,13.271485 10.5155529,12.6538383 11.6454324,12.0002942 C12.8425225,11.3066295 14.0808916,10.5886812 15.0948725,9.57721879 C15.9569679,8.71726458 16.5438702,7.75859247 16.8883908,6.64682845 C17.0037602,6.27201722 16.9021505,5.864476 16.6253697,5.58838266 Z" id="Shape" fill="#FEBBBA"></path>
                <path d="M7.95151058,12.7291092 L7.95045214,12.7291092 C7.61969117,12.9825027 7.29686846,13.2496217 6.99786053,13.5489428 C6.7104954,13.8355942 6.45064958,14.1375548 6.22467368,14.4458502 L5.86268887,14.9389118 L5.8637473,14.9399676 C5.79759511,15.0429087 5.80870867,15.1812193 5.89867566,15.2709628 C6.00187308,15.373904 6.17069349,15.373904 6.27442013,15.2709628 C6.29029665,15.2545978 6.30299788,15.237177 6.31358223,15.2181725 L6.65175225,14.7562573 C6.8613224,14.4706617 7.10370405,14.1892893 7.37201735,13.9221703 C7.6689084,13.6260166 7.94410153,13.3974346 8.27909625,13.1435132 L8.27803781,13.1424574 C8.28756373,13.1350667 8.29656043,13.1292598 8.30502791,13.1208133 C8.40875455,13.0178722 8.40875455,12.8494711 8.30502791,12.74653 C8.20923953,12.6493958 8.05576644,12.6451726 7.95151058,12.7291092 Z" id="Shape" fill="#F5F5F5"></path>
                <path d="M9.49561839,3.04164593 C9.21883761,3.31773927 8.91877125,3.56638165 8.60759132,3.80341016 C8.5858934,3.81555193 8.56419548,3.82927741 8.54567287,3.84880983 C8.44141701,3.95280675 8.44141701,4.12226366 8.54567287,4.22626058 C8.64675342,4.32814588 8.81028165,4.33025749 8.91559594,4.23365122 L8.91771281,4.23470703 C9.24847379,3.98131352 9.57076728,3.71313872 9.86977521,3.41487345 C10.1571403,3.12822204 10.4164569,2.82731725 10.6429621,2.51902182 L11.0049469,2.02384867 L11.0038884,2.02279286 C11.0938554,1.91774014 11.0896217,1.7609529 10.990658,1.66170711 C10.8864021,1.55771019 10.7175817,1.55771019 10.6133259,1.66170711 C10.5937448,1.68123953 10.579456,1.70393937 10.5667547,1.7266392 L10.2153543,2.20703106 C10.0052549,2.49421037 9.76340248,2.77452694 9.49561839,3.04164593 Z" id="Shape" fill="#F5F5F5"></path>
                <path d="M6.88290128,6.12429622 L6.88290128,6.1308775 L6.86716313,6.1308775 L6.86716313,6.80480298 L7.55700443,6.80480298 C8.18366011,6.80480298 8.49998174,7.10246191 8.61406155,7.47214716 L6.88290128,7.47214716 L6.88290128,8.14607263 L8.61406155,8.14607263 C8.50035105,8.51602086 8.18442425,8.81473306 7.55700443,8.81473306 L7.34192122,8.81473306 L7.33929775,8.81210051 L7.33667494,8.81473306 L6.86716313,8.81473306 L6.86716313,9.48865887 L7.06519745,9.48865887 L9.11373694,11.5157 L9.58587155,11.0365808 L7.97799105,9.4439055 C8.70634511,9.29062587 9.17398618,8.7465589 9.30259078,8.14607263 L10.2193193,8.14607263 L10.2193193,7.47214716 L9.30259078,7.47214716 C9.25049801,7.22971339 9.13756307,7.00045419 8.97996596,6.79822169 L10.2193193,6.79822169 L10.2193193,6.12429622 L6.88290128,6.12429622 Z" id="Path" fill="#FFFFFF" transform="translate(8.543241, 8.819998) rotate(-45.000000) translate(-8.543241, -8.819998) "></path>
            </g>
            <circle id="Oval-3" fill="#FFFFFF" cx="80" cy="158" r="2"></circle>
            <g id="Tag" transform="translate(93.355327, 192.636526) rotate(-19.000000) translate(-93.355327, -192.636526) translate(82.855327, 153.136526)">
                <g id="Group-3" transform="translate(0.679917, 0.889787)">
                    <path d="M8.13252041,43.0435394 C8.11235051,43.0435394 8.09182881,43.0406827 8.07177618,43.0334787 C7.9655324,42.9979558 7.90701624,42.8780968 7.94055456,42.7656902 C7.96025539,42.7002336 8.43401351,41.1647968 9.62509301,41.0515207 C10.7612916,40.9447034 11.6641292,41.9331362 11.9176601,42.6355221 C11.9576481,42.745693 11.9053471,42.8689056 11.8015659,42.910763 C11.6984884,42.9532415 11.5813388,42.8979698 11.541468,42.7876747 C11.3605253,42.2857575 10.6202196,41.3835238 9.66097667,41.4765543 C8.73386487,41.5644923 8.32835607,42.8816988 8.32448626,42.8949888 C8.29716309,42.9855352 8.21800795,43.0435394 8.13252041,43.0435394" id="Fill-353" stroke="#FEBBBA" stroke-width="0.3" fill="#FEBBBA" transform="translate(9.931103, 42.043539) rotate(-3.000000) translate(-9.931103, -42.043539) "></path>
                    <path d="M10.1426282,50.3733196 C8.87509227,50.3733196 7.84778627,49.357566 7.84778627,48.1045491 C7.84778627,46.8517469 8.87509227,45.8359933 10.1426282,45.8359933 C11.4100554,45.8359933 12.4375787,46.8517469 12.4375787,48.1045491 C12.4375787,49.357566 11.4100554,50.3733196 10.1426282,50.3733196 Z M3.68662655,77.4122141 L16.5985211,77.4122141 C18.2798043,77.4122141 19.6425195,76.0647859 19.6425195,74.4028682 L19.6425195,49.4205069 C19.6425195,48.3910051 19.1102327,47.4330368 18.2315628,46.8808544 L11.8673723,42.8818549 C10.8807022,42.2617909 9.62164114,42.255239 8.62845191,42.8650993 L2.08063925,46.884721 C1.18632347,47.4334664 0.642519503,48.400457 0.642519503,49.4411291 L0.642519503,74.4028682 C0.642519503,76.0647859 2.00534331,77.4122141 3.68662655,77.4122141 L3.68662655,77.4122141 Z" id="Fill-354" fill="#F69A98"></path>
                    <path d="M10.1426722,49.7127924 C11.1353829,49.7127924 11.943112,48.9051486 11.943112,47.9123159 C11.943112,46.9192796 11.1353829,46.111534 10.1426722,46.111534 C9.1495543,46.111534 8.34192699,46.9192796 8.34192699,47.9123159 C8.34192699,48.9051486 9.1495543,49.7127924 10.1426722,49.7127924 Z M10.1426722,50.4122141 C8.76421844,50.4122141 7.6425195,49.2907977 7.6425195,47.9123159 C7.6425195,46.5338341 8.76421844,45.4122141 10.1426722,45.4122141 C11.5210242,45.4122141 12.6425195,46.5338341 12.6425195,47.9123159 C12.6425195,49.2907977 11.5210242,50.4122141 10.1426722,50.4122141 L10.1426722,50.4122141 Z" id="Fill-358" stroke="#AAAAAA" stroke-width="0.3" fill="#AAAAAA"></path>
                    <path d="M9.37781818,46.6746179 C9.37418182,46.609219 6.23624585,26.7121139 5.52297312,22.8935401 C4.81806403,19.11796 4.1247913,14.1809424 5.03260948,9.47706011 C5.33188221,7.92645833 5.79297312,6.51553586 6.40315494,5.28324949 C7.45697312,3.15556226 9.1767913,1.45498689 11.0038822,0.733175911 C12.230064,0.24873901 12.454,-0.0723318208 13.1845455,0.470641205 C13.5618182,0.750807212 14.0221818,1.3159836 14.0709091,2.41646275 C14.1823636,4.91151464 13.22,7.22126941 12.2892727,9.45492721 C11.7587273,10.7277852 11.2578182,11.9308035 10.9407273,13.1647046 C9.81818182,17.5357384 9.30636364,21.726925 9.41981818,25.6222014 C9.49090909,28.0659837 10.7065455,38.0857536 10.7065455,38.0857536 C10.9601818,40.8700546 11.2225455,43.7494265 11.1172727,46.5799509 C11.1098182,46.7708998 10.9607273,46.9228919 10.7923636,46.9115883 C10.62,46.9039181 10.4858182,46.7424391 10.4930909,46.5510865 C10.5967273,43.770015 10.3365455,40.9156724 10.0852727,38.1555932 C10.0852727,38.1555932 8.868,28.1267401 8.79563636,25.6448084 C8.68018182,21.6772702 9.19981818,17.414831 10.3401818,12.9743613 C10.6707273,11.6887869 11.2052727,10.4052309 11.7225455,9.16386138 C12.6214545,7.00630053 13.5509091,4.77526676 13.4472727,2.45077703 C13.4183636,1.79799831 13.2130909,1.32607603 12.8372727,1.04651557 C12.1689091,0.550573293 12.0171549,1.06864846 11.2133368,1.38676203 C9.52606403,2.05266092 7.9327913,3.63454924 6.95042767,5.61730911 C6.36951858,6.7904538 5.92951858,8.13779393 5.64333676,9.62218933 C4.75988221,14.1995125 5.44170039,19.0440833 6.13442767,22.7528515 C6.84188221,26.5411481 9.98654545,46.362358 10.0010909,46.633239 C10.0116364,46.823986 9.88036364,46.9882908 9.70836364,46.9999981 C9.52545455,47.0006036 9.388,46.8589058 9.37781818,46.6746179 Z" id="Fill-359" stroke="#FEBBBA" stroke-width="0.3" fill="#FEBBBA"></path>
                    <text id="UPI" transform="translate(10.316951, 63.713221) rotate(90.000000) translate(-10.316951, -63.713221) " font-family="Roboto-Bold, Roboto" font-size="13" font-weight="bold" letter-spacing="0.180555537" fill="#FFFFFF">
                        <tspan x="-0.560815552" y="68.7132215">UPI</tspan>
                    </text>
                </g>
            </g>
            <path d="M80.3835937,155.482422 C79.619456,154.663703 79.9054623,154 81.0192791,154 L81.9807209,154 C83.095938,154 84,154.902151 84,156.018738 L84,159.981262 C84,161.09618 83.2040158,162.045558 83.2040158,162.045558 L83.2040158,162.045558 C82.5,162.045558 81.9811023,157 81.7999992,157 L80.3835937,155.482422 Z" id="Rectangle-Copy" fill="#F1F1F1"></path>
        </g>
    </g>
</svg>