<?xml version="1.0" encoding="UTF-8"?>
<svg width="141px" height="498px" viewBox="0 0 141 498" version="1.1" xmlns="http://www.w3.org/2000/svg" xmlns:xlink="http://www.w3.org/1999/xlink">
    <!-- Generator: Sketch 41.1 (35376) - http://www.bohemiancoding.com/sketch -->
    <title>UPI Fig</title>
    <desc>Created with Sketch.</desc>
    <defs></defs>
    <g id="Page-1" stroke="none" stroke-width="1" fill="none" fill-rule="evenodd">
        <g id="UPI-Fig" transform="translate(6.000000, 13.000000)">
            <g id="Phone" transform="translate(28.963504, 292.814645)">
                <g>
                    <rect id="Combined-Shape" fill="#666666" x="0" y="0" width="70.0729927" height="134.773455" rx="5.17906728"></rect>
                    <rect id="Rectangle-14" fill="#F5F5F5" x="2.18978102" y="13.2564054" width="65.6934307" height="104.946543"></rect>
                    <ellipse id="Oval-4" fill="#757775" opacity="0.5" cx="35.0364964" cy="125.935852" rx="3.28467153" ry="3.31410136"></ellipse>
                    <path d="M22.0865844,7.73290318 C22.5870187,7.73290318 22.9927007,7.23831197 22.9927007,6.62820272 C22.9927007,6.01809348 22.5870187,5.52350227 22.0865844,5.52350227 C21.5861502,5.52350227 21.1804682,6.01809348 21.1804682,6.62820272 C21.1804682,7.23831197 21.5861502,7.73290318 22.0865844,7.73290318 Z M19.519255,7.73290318 C20.0196892,7.73290318 20.4253713,7.23831197 20.4253713,6.62820272 C20.4253713,6.01809348 20.0196892,5.52350227 19.519255,5.52350227 C19.0188207,5.52350227 18.6131387,6.01809348 18.6131387,6.62820272 C18.6131387,7.23831197 19.0188207,7.73290318 19.519255,7.73290318 Z" id="Sensors" fill="#E5E5E5"></path>
                    <g id="Group" transform="translate(26.277372, 5.523502)" fill="#E5E5E5">
                        <path d="M0.255419594,3.29937202 C0.396483947,3.29937202 0.510839187,3.17627377 0.510839187,3.02442435 C0.510839187,2.87257494 0.396483947,2.74947669 0.255419594,2.74947669 C0.11435524,2.74947669 0,2.87257494 0,3.02442435 C0,3.17627377 0.11435524,3.29937202 0.255419594,3.29937202 Z M1.10681824,3.29937202 C1.24788259,3.29937202 1.36223783,3.17627377 1.36223783,3.02442435 C1.36223783,2.87257494 1.24788259,2.74947669 1.10681824,2.74947669 C0.965753886,2.74947669 0.851398646,2.87257494 0.851398646,3.02442435 C0.851398646,3.17627377 0.965753886,3.29937202 1.10681824,3.29937202 Z M0.255419594,2.38287979 C0.396483947,2.38287979 0.510839187,2.25978154 0.510839187,2.10793213 C0.510839187,1.95608271 0.396483947,1.83298446 0.255419594,1.83298446 C0.11435524,1.83298446 0,1.95608271 0,2.10793213 C0,2.25978154 0.11435524,2.38287979 0.255419594,2.38287979 Z M1.10681824,2.38287979 C1.24788259,2.38287979 1.36223783,2.25978154 1.36223783,2.10793213 C1.36223783,1.95608271 1.24788259,1.83298446 1.10681824,1.83298446 C0.965753886,1.83298446 0.851398646,1.95608271 0.851398646,2.10793213 C0.851398646,2.25978154 0.965753886,2.38287979 1.10681824,2.38287979 Z M0.255419594,1.46638757 C0.396483947,1.46638757 0.510839187,1.34328931 0.510839187,1.1914399 C0.510839187,1.03959049 0.396483947,0.916492228 0.255419594,0.916492228 C0.11435524,0.916492228 0,1.03959049 0,1.1914399 C0,1.34328931 0.11435524,1.46638757 0.255419594,1.46638757 Z M1.10681824,1.46638757 C1.24788259,1.46638757 1.36223783,1.34328931 1.36223783,1.1914399 C1.36223783,1.03959049 1.24788259,0.916492228 1.10681824,0.916492228 C0.965753886,0.916492228 0.851398646,1.03959049 0.851398646,1.1914399 C0.851398646,1.34328931 0.965753886,1.46638757 1.10681824,1.46638757 Z M0.255419594,0.549895337 C0.396483947,0.549895337 0.510839187,0.42679708 0.510839187,0.274947669 C0.510839187,0.123098257 0.396483947,0 0.255419594,0 C0.11435524,0 0,0.123098257 0,0.274947669 C0,0.42679708 0.11435524,0.549895337 0.255419594,0.549895337 Z M1.10681824,0.549895337 C1.24788259,0.549895337 1.36223783,0.42679708 1.36223783,0.274947669 C1.36223783,0.123098257 1.24788259,0 1.10681824,0 C0.965753886,0 0.851398646,0.123098257 0.851398646,0.274947669 C0.851398646,0.42679708 0.965753886,0.549895337 1.10681824,0.549895337 Z M1.95821688,3.29937202 C2.09928124,3.29937202 2.21363648,3.17627377 2.21363648,3.02442435 C2.21363648,2.87257494 2.09928124,2.74947669 1.95821688,2.74947669 C1.81715253,2.74947669 1.70279729,2.87257494 1.70279729,3.02442435 C1.70279729,3.17627377 1.81715253,3.29937202 1.95821688,3.29937202 Z M2.80961553,3.29937202 C2.95067988,3.29937202 3.06503512,3.17627377 3.06503512,3.02442435 C3.06503512,2.87257494 2.95067988,2.74947669 2.80961553,2.74947669 C2.66855118,2.74947669 2.55419594,2.87257494 2.55419594,3.02442435 C2.55419594,3.17627377 2.66855118,3.29937202 2.80961553,3.29937202 Z M1.95821688,2.38287979 C2.09928124,2.38287979 2.21363648,2.25978154 2.21363648,2.10793213 C2.21363648,1.95608271 2.09928124,1.83298446 1.95821688,1.83298446 C1.81715253,1.83298446 1.70279729,1.95608271 1.70279729,2.10793213 C1.70279729,2.25978154 1.81715253,2.38287979 1.95821688,2.38287979 Z M2.80961553,2.38287979 C2.95067988,2.38287979 3.06503512,2.25978154 3.06503512,2.10793213 C3.06503512,1.95608271 2.95067988,1.83298446 2.80961553,1.83298446 C2.66855118,1.83298446 2.55419594,1.95608271 2.55419594,2.10793213 C2.55419594,2.25978154 2.66855118,2.38287979 2.80961553,2.38287979 Z M1.95821688,1.46638757 C2.09928124,1.46638757 2.21363648,1.34328931 2.21363648,1.1914399 C2.21363648,1.03959049 2.09928124,0.916492228 1.95821688,0.916492228 C1.81715253,0.916492228 1.70279729,1.03959049 1.70279729,1.1914399 C1.70279729,1.34328931 1.81715253,1.46638757 1.95821688,1.46638757 Z M2.80961553,1.46638757 C2.95067988,1.46638757 3.06503512,1.34328931 3.06503512,1.1914399 C3.06503512,1.03959049 2.95067988,0.916492228 2.80961553,0.916492228 C2.66855118,0.916492228 2.55419594,1.03959049 2.55419594,1.1914399 C2.55419594,1.34328931 2.66855118,1.46638757 2.80961553,1.46638757 Z M1.95821688,0.549895337 C2.09928124,0.549895337 2.21363648,0.42679708 2.21363648,0.274947669 C2.21363648,0.123098257 2.09928124,0 1.95821688,0 C1.81715253,0 1.70279729,0.123098257 1.70279729,0.274947669 C1.70279729,0.42679708 1.81715253,0.549895337 1.95821688,0.549895337 Z M2.80961553,0.549895337 C2.95067988,0.549895337 3.06503512,0.42679708 3.06503512,0.274947669 C3.06503512,0.123098257 2.95067988,0 2.80961553,0 C2.66855118,0 2.55419594,0.123098257 2.55419594,0.274947669 C2.55419594,0.42679708 2.66855118,0.549895337 2.80961553,0.549895337 Z M3.66101418,3.29937202 C3.80207853,3.29937202 3.91643377,3.17627377 3.91643377,3.02442435 C3.91643377,2.87257494 3.80207853,2.74947669 3.66101418,2.74947669 C3.51994982,2.74947669 3.40559458,2.87257494 3.40559458,3.02442435 C3.40559458,3.17627377 3.51994982,3.29937202 3.66101418,3.29937202 Z M4.51241282,3.29937202 C4.65347718,3.29937202 4.76783242,3.17627377 4.76783242,3.02442435 C4.76783242,2.87257494 4.65347718,2.74947669 4.51241282,2.74947669 C4.37134847,2.74947669 4.25699323,2.87257494 4.25699323,3.02442435 C4.25699323,3.17627377 4.37134847,3.29937202 4.51241282,3.29937202 Z M3.66101418,2.38287979 C3.80207853,2.38287979 3.91643377,2.25978154 3.91643377,2.10793213 C3.91643377,1.95608271 3.80207853,1.83298446 3.66101418,1.83298446 C3.51994982,1.83298446 3.40559458,1.95608271 3.40559458,2.10793213 C3.40559458,2.25978154 3.51994982,2.38287979 3.66101418,2.38287979 Z M4.51241282,2.38287979 C4.65347718,2.38287979 4.76783242,2.25978154 4.76783242,2.10793213 C4.76783242,1.95608271 4.65347718,1.83298446 4.51241282,1.83298446 C4.37134847,1.83298446 4.25699323,1.95608271 4.25699323,2.10793213 C4.25699323,2.25978154 4.37134847,2.38287979 4.51241282,2.38287979 Z M3.66101418,1.46638757 C3.80207853,1.46638757 3.91643377,1.34328931 3.91643377,1.1914399 C3.91643377,1.03959049 3.80207853,0.916492228 3.66101418,0.916492228 C3.51994982,0.916492228 3.40559458,1.03959049 3.40559458,1.1914399 C3.40559458,1.34328931 3.51994982,1.46638757 3.66101418,1.46638757 Z M4.51241282,1.46638757 C4.65347718,1.46638757 4.76783242,1.34328931 4.76783242,1.1914399 C4.76783242,1.03959049 4.65347718,0.916492228 4.51241282,0.916492228 C4.37134847,0.916492228 4.25699323,1.03959049 4.25699323,1.1914399 C4.25699323,1.34328931 4.37134847,1.46638757 4.51241282,1.46638757 Z M3.66101418,0.549895337 C3.80207853,0.549895337 3.91643377,0.42679708 3.91643377,0.274947669 C3.91643377,0.123098257 3.80207853,0 3.66101418,0 C3.51994982,0 3.40559458,0.123098257 3.40559458,0.274947669 C3.40559458,0.42679708 3.51994982,0.549895337 3.66101418,0.549895337 Z M4.51241282,0.549895337 C4.65347718,0.549895337 4.76783242,0.42679708 4.76783242,0.274947669 C4.76783242,0.123098257 4.65347718,0 4.51241282,0 C4.37134847,0 4.25699323,0.123098257 4.25699323,0.274947669 C4.25699323,0.42679708 4.37134847,0.549895337 4.51241282,0.549895337 Z M5.36381147,3.29937202 C5.50487582,3.29937202 5.61923106,3.17627377 5.61923106,3.02442435 C5.61923106,2.87257494 5.50487582,2.74947669 5.36381147,2.74947669 C5.22274711,2.74947669 5.10839187,2.87257494 5.10839187,3.02442435 C5.10839187,3.17627377 5.22274711,3.29937202 5.36381147,3.29937202 Z M6.21521011,3.29937202 C6.35627447,3.29937202 6.47062971,3.17627377 6.47062971,3.02442435 C6.47062971,2.87257494 6.35627447,2.74947669 6.21521011,2.74947669 C6.07414576,2.74947669 5.95979052,2.87257494 5.95979052,3.02442435 C5.95979052,3.17627377 6.07414576,3.29937202 6.21521011,3.29937202 Z M5.36381147,2.38287979 C5.50487582,2.38287979 5.61923106,2.25978154 5.61923106,2.10793213 C5.61923106,1.95608271 5.50487582,1.83298446 5.36381147,1.83298446 C5.22274711,1.83298446 5.10839187,1.95608271 5.10839187,2.10793213 C5.10839187,2.25978154 5.22274711,2.38287979 5.36381147,2.38287979 Z M6.21521011,2.38287979 C6.35627447,2.38287979 6.47062971,2.25978154 6.47062971,2.10793213 C6.47062971,1.95608271 6.35627447,1.83298446 6.21521011,1.83298446 C6.07414576,1.83298446 5.95979052,1.95608271 5.95979052,2.10793213 C5.95979052,2.25978154 6.07414576,2.38287979 6.21521011,2.38287979 Z M5.36381147,1.46638757 C5.50487582,1.46638757 5.61923106,1.34328931 5.61923106,1.1914399 C5.61923106,1.03959049 5.50487582,0.916492228 5.36381147,0.916492228 C5.22274711,0.916492228 5.10839187,1.03959049 5.10839187,1.1914399 C5.10839187,1.34328931 5.22274711,1.46638757 5.36381147,1.46638757 Z M6.21521011,1.46638757 C6.35627447,1.46638757 6.47062971,1.34328931 6.47062971,1.1914399 C6.47062971,1.03959049 6.35627447,0.916492228 6.21521011,0.916492228 C6.07414576,0.916492228 5.95979052,1.03959049 5.95979052,1.1914399 C5.95979052,1.34328931 6.07414576,1.46638757 6.21521011,1.46638757 Z M5.36381147,0.549895337 C5.50487582,0.549895337 5.61923106,0.42679708 5.61923106,0.274947669 C5.61923106,0.123098257 5.50487582,0 5.36381147,0 C5.22274711,0 5.10839187,0.123098257 5.10839187,0.274947669 C5.10839187,0.42679708 5.22274711,0.549895337 5.36381147,0.549895337 Z M6.21521011,0.549895337 C6.35627447,0.549895337 6.47062971,0.42679708 6.47062971,0.274947669 C6.47062971,0.123098257 6.35627447,0 6.21521011,0 C6.07414576,0 5.95979052,0.123098257 5.95979052,0.274947669 C5.95979052,0.42679708 6.07414576,0.549895337 6.21521011,0.549895337 Z M7.06660876,3.29937202 C7.20767311,3.29937202 7.32202835,3.17627377 7.32202835,3.02442435 C7.32202835,2.87257494 7.20767311,2.74947669 7.06660876,2.74947669 C6.92554441,2.74947669 6.81118917,2.87257494 6.81118917,3.02442435 C6.81118917,3.17627377 6.92554441,3.29937202 7.06660876,3.29937202 Z M7.9180074,3.29937202 C8.05907176,3.29937202 8.173427,3.17627377 8.173427,3.02442435 C8.173427,2.87257494 8.05907176,2.74947669 7.9180074,2.74947669 C7.77694305,2.74947669 7.66258781,2.87257494 7.66258781,3.02442435 C7.66258781,3.17627377 7.77694305,3.29937202 7.9180074,3.29937202 Z M7.06660876,2.38287979 C7.20767311,2.38287979 7.32202835,2.25978154 7.32202835,2.10793213 C7.32202835,1.95608271 7.20767311,1.83298446 7.06660876,1.83298446 C6.92554441,1.83298446 6.81118917,1.95608271 6.81118917,2.10793213 C6.81118917,2.25978154 6.92554441,2.38287979 7.06660876,2.38287979 Z M7.9180074,2.38287979 C8.05907176,2.38287979 8.173427,2.25978154 8.173427,2.10793213 C8.173427,1.95608271 8.05907176,1.83298446 7.9180074,1.83298446 C7.77694305,1.83298446 7.66258781,1.95608271 7.66258781,2.10793213 C7.66258781,2.25978154 7.77694305,2.38287979 7.9180074,2.38287979 Z M7.06660876,1.46638757 C7.20767311,1.46638757 7.32202835,1.34328931 7.32202835,1.1914399 C7.32202835,1.03959049 7.20767311,0.916492228 7.06660876,0.916492228 C6.92554441,0.916492228 6.81118917,1.03959049 6.81118917,1.1914399 C6.81118917,1.34328931 6.92554441,1.46638757 7.06660876,1.46638757 Z M7.9180074,1.46638757 C8.05907176,1.46638757 8.173427,1.34328931 8.173427,1.1914399 C8.173427,1.03959049 8.05907176,0.916492228 7.9180074,0.916492228 C7.77694305,0.916492228 7.66258781,1.03959049 7.66258781,1.1914399 C7.66258781,1.34328931 7.77694305,1.46638757 7.9180074,1.46638757 Z M7.06660876,0.549895337 C7.20767311,0.549895337 7.32202835,0.42679708 7.32202835,0.274947669 C7.32202835,0.123098257 7.20767311,0 7.06660876,0 C6.92554441,0 6.81118917,0.123098257 6.81118917,0.274947669 C6.81118917,0.42679708 6.92554441,0.549895337 7.06660876,0.549895337 Z M7.9180074,0.549895337 C8.05907176,0.549895337 8.173427,0.42679708 8.173427,0.274947669 C8.173427,0.123098257 8.05907176,0 7.9180074,0 C7.77694305,0 7.66258781,0.123098257 7.66258781,0.274947669 C7.66258781,0.42679708 7.77694305,0.549895337 7.9180074,0.549895337 Z M8.76940605,3.29937202 C8.9104704,3.29937202 9.02482564,3.17627377 9.02482564,3.02442435 C9.02482564,2.87257494 8.9104704,2.74947669 8.76940605,2.74947669 C8.6283417,2.74947669 8.51398646,2.87257494 8.51398646,3.02442435 C8.51398646,3.17627377 8.6283417,3.29937202 8.76940605,3.29937202 Z M9.6208047,3.29937202 C9.76186905,3.29937202 9.87622429,3.17627377 9.87622429,3.02442435 C9.87622429,2.87257494 9.76186905,2.74947669 9.6208047,2.74947669 C9.47974034,2.74947669 9.3653851,2.87257494 9.3653851,3.02442435 C9.3653851,3.17627377 9.47974034,3.29937202 9.6208047,3.29937202 Z M8.76940605,2.38287979 C8.9104704,2.38287979 9.02482564,2.25978154 9.02482564,2.10793213 C9.02482564,1.95608271 8.9104704,1.83298446 8.76940605,1.83298446 C8.6283417,1.83298446 8.51398646,1.95608271 8.51398646,2.10793213 C8.51398646,2.25978154 8.6283417,2.38287979 8.76940605,2.38287979 Z M9.6208047,2.38287979 C9.76186905,2.38287979 9.87622429,2.25978154 9.87622429,2.10793213 C9.87622429,1.95608271 9.76186905,1.83298446 9.6208047,1.83298446 C9.47974034,1.83298446 9.3653851,1.95608271 9.3653851,2.10793213 C9.3653851,2.25978154 9.47974034,2.38287979 9.6208047,2.38287979 Z M8.76940605,1.46638757 C8.9104704,1.46638757 9.02482564,1.34328931 9.02482564,1.1914399 C9.02482564,1.03959049 8.9104704,0.916492228 8.76940605,0.916492228 C8.6283417,0.916492228 8.51398646,1.03959049 8.51398646,1.1914399 C8.51398646,1.34328931 8.6283417,1.46638757 8.76940605,1.46638757 Z M9.6208047,1.46638757 C9.76186905,1.46638757 9.87622429,1.34328931 9.87622429,1.1914399 C9.87622429,1.03959049 9.76186905,0.916492228 9.6208047,0.916492228 C9.47974034,0.916492228 9.3653851,1.03959049 9.3653851,1.1914399 C9.3653851,1.34328931 9.47974034,1.46638757 9.6208047,1.46638757 Z M8.76940605,0.549895337 C8.9104704,0.549895337 9.02482564,0.42679708 9.02482564,0.274947669 C9.02482564,0.123098257 8.9104704,0 8.76940605,0 C8.6283417,0 8.51398646,0.123098257 8.51398646,0.274947669 C8.51398646,0.42679708 8.6283417,0.549895337 8.76940605,0.549895337 Z M9.6208047,0.549895337 C9.76186905,0.549895337 9.87622429,0.42679708 9.87622429,0.274947669 C9.87622429,0.123098257 9.76186905,0 9.6208047,0 C9.47974034,0 9.3653851,0.123098257 9.3653851,0.274947669 C9.3653851,0.42679708 9.47974034,0.549895337 9.6208047,0.549895337 Z M10.4722033,3.29937202 C10.6132677,3.29937202 10.7276229,3.17627377 10.7276229,3.02442435 C10.7276229,2.87257494 10.6132677,2.74947669 10.4722033,2.74947669 C10.331139,2.74947669 10.2167837,2.87257494 10.2167837,3.02442435 C10.2167837,3.17627377 10.331139,3.29937202 10.4722033,3.29937202 Z M11.323602,3.29937202 C11.4646663,3.29937202 11.5790216,3.17627377 11.5790216,3.02442435 C11.5790216,2.87257494 11.4646663,2.74947669 11.323602,2.74947669 C11.1825376,2.74947669 11.0681824,2.87257494 11.0681824,3.02442435 C11.0681824,3.17627377 11.1825376,3.29937202 11.323602,3.29937202 Z M10.4722033,2.38287979 C10.6132677,2.38287979 10.7276229,2.25978154 10.7276229,2.10793213 C10.7276229,1.95608271 10.6132677,1.83298446 10.4722033,1.83298446 C10.331139,1.83298446 10.2167837,1.95608271 10.2167837,2.10793213 C10.2167837,2.25978154 10.331139,2.38287979 10.4722033,2.38287979 Z M11.323602,2.38287979 C11.4646663,2.38287979 11.5790216,2.25978154 11.5790216,2.10793213 C11.5790216,1.95608271 11.4646663,1.83298446 11.323602,1.83298446 C11.1825376,1.83298446 11.0681824,1.95608271 11.0681824,2.10793213 C11.0681824,2.25978154 11.1825376,2.38287979 11.323602,2.38287979 Z M10.4722033,1.46638757 C10.6132677,1.46638757 10.7276229,1.34328931 10.7276229,1.1914399 C10.7276229,1.03959049 10.6132677,0.916492228 10.4722033,0.916492228 C10.331139,0.916492228 10.2167837,1.03959049 10.2167837,1.1914399 C10.2167837,1.34328931 10.331139,1.46638757 10.4722033,1.46638757 Z M11.323602,1.46638757 C11.4646663,1.46638757 11.5790216,1.34328931 11.5790216,1.1914399 C11.5790216,1.03959049 11.4646663,0.916492228 11.323602,0.916492228 C11.1825376,0.916492228 11.0681824,1.03959049 11.0681824,1.1914399 C11.0681824,1.34328931 11.1825376,1.46638757 11.323602,1.46638757 Z M10.4722033,0.549895337 C10.6132677,0.549895337 10.7276229,0.42679708 10.7276229,0.274947669 C10.7276229,0.123098257 10.6132677,0 10.4722033,0 C10.331139,0 10.2167837,0.123098257 10.2167837,0.274947669 C10.2167837,0.42679708 10.331139,0.549895337 10.4722033,0.549895337 Z M11.323602,0.549895337 C11.4646663,0.549895337 11.5790216,0.42679708 11.5790216,0.274947669 C11.5790216,0.123098257 11.4646663,0 11.323602,0 C11.1825376,0 11.0681824,0.123098257 11.0681824,0.274947669 C11.0681824,0.42679708 11.1825376,0.549895337 11.323602,0.549895337 Z M12.1750006,3.29937202 C12.316065,3.29937202 12.4304202,3.17627377 12.4304202,3.02442435 C12.4304202,2.87257494 12.316065,2.74947669 12.1750006,2.74947669 C12.0339363,2.74947669 11.919581,2.87257494 11.919581,3.02442435 C11.919581,3.17627377 12.0339363,3.29937202 12.1750006,3.29937202 Z M13.0263993,3.29937202 C13.1674636,3.29937202 13.2818189,3.17627377 13.2818189,3.02442435 C13.2818189,2.87257494 13.1674636,2.74947669 13.0263993,2.74947669 C12.8853349,2.74947669 12.7709797,2.87257494 12.7709797,3.02442435 C12.7709797,3.17627377 12.8853349,3.29937202 13.0263993,3.29937202 Z M12.1750006,2.38287979 C12.316065,2.38287979 12.4304202,2.25978154 12.4304202,2.10793213 C12.4304202,1.95608271 12.316065,1.83298446 12.1750006,1.83298446 C12.0339363,1.83298446 11.919581,1.95608271 11.919581,2.10793213 C11.919581,2.25978154 12.0339363,2.38287979 12.1750006,2.38287979 Z M13.0263993,2.38287979 C13.1674636,2.38287979 13.2818189,2.25978154 13.2818189,2.10793213 C13.2818189,1.95608271 13.1674636,1.83298446 13.0263993,1.83298446 C12.8853349,1.83298446 12.7709797,1.95608271 12.7709797,2.10793213 C12.7709797,2.25978154 12.8853349,2.38287979 13.0263993,2.38287979 Z M12.1750006,1.46638757 C12.316065,1.46638757 12.4304202,1.34328931 12.4304202,1.1914399 C12.4304202,1.03959049 12.316065,0.916492228 12.1750006,0.916492228 C12.0339363,0.916492228 11.919581,1.03959049 11.919581,1.1914399 C11.919581,1.34328931 12.0339363,1.46638757 12.1750006,1.46638757 Z M13.0263993,1.46638757 C13.1674636,1.46638757 13.2818189,1.34328931 13.2818189,1.1914399 C13.2818189,1.03959049 13.1674636,0.916492228 13.0263993,0.916492228 C12.8853349,0.916492228 12.7709797,1.03959049 12.7709797,1.1914399 C12.7709797,1.34328931 12.8853349,1.46638757 13.0263993,1.46638757 Z M12.1750006,0.549895337 C12.316065,0.549895337 12.4304202,0.42679708 12.4304202,0.274947669 C12.4304202,0.123098257 12.316065,0 12.1750006,0 C12.0339363,0 11.919581,0.123098257 11.919581,0.274947669 C11.919581,0.42679708 12.0339363,0.549895337 12.1750006,0.549895337 Z M13.0263993,0.549895337 C13.1674636,0.549895337 13.2818189,0.42679708 13.2818189,0.274947669 C13.2818189,0.123098257 13.1674636,0 13.0263993,0 C12.8853349,0 12.7709797,0.123098257 12.7709797,0.274947669 C12.7709797,0.42679708 12.8853349,0.549895337 13.0263993,0.549895337 Z M13.8777979,3.29937202 C14.0188623,3.29937202 14.1332175,3.17627377 14.1332175,3.02442435 C14.1332175,2.87257494 14.0188623,2.74947669 13.8777979,2.74947669 C13.7367336,2.74947669 13.6223783,2.87257494 13.6223783,3.02442435 C13.6223783,3.17627377 13.7367336,3.29937202 13.8777979,3.29937202 Z M14.7291966,3.29937202 C14.8702609,3.29937202 14.9846162,3.17627377 14.9846162,3.02442435 C14.9846162,2.87257494 14.8702609,2.74947669 14.7291966,2.74947669 C14.5881322,2.74947669 14.473777,2.87257494 14.473777,3.02442435 C14.473777,3.17627377 14.5881322,3.29937202 14.7291966,3.29937202 Z M13.8777979,2.38287979 C14.0188623,2.38287979 14.1332175,2.25978154 14.1332175,2.10793213 C14.1332175,1.95608271 14.0188623,1.83298446 13.8777979,1.83298446 C13.7367336,1.83298446 13.6223783,1.95608271 13.6223783,2.10793213 C13.6223783,2.25978154 13.7367336,2.38287979 13.8777979,2.38287979 Z M14.7291966,2.38287979 C14.8702609,2.38287979 14.9846162,2.25978154 14.9846162,2.10793213 C14.9846162,1.95608271 14.8702609,1.83298446 14.7291966,1.83298446 C14.5881322,1.83298446 14.473777,1.95608271 14.473777,2.10793213 C14.473777,2.25978154 14.5881322,2.38287979 14.7291966,2.38287979 Z M13.8777979,1.46638757 C14.0188623,1.46638757 14.1332175,1.34328931 14.1332175,1.1914399 C14.1332175,1.03959049 14.0188623,0.916492228 13.8777979,0.916492228 C13.7367336,0.916492228 13.6223783,1.03959049 13.6223783,1.1914399 C13.6223783,1.34328931 13.7367336,1.46638757 13.8777979,1.46638757 Z M14.7291966,1.46638757 C14.8702609,1.46638757 14.9846162,1.34328931 14.9846162,1.1914399 C14.9846162,1.03959049 14.8702609,0.916492228 14.7291966,0.916492228 C14.5881322,0.916492228 14.473777,1.03959049 14.473777,1.1914399 C14.473777,1.34328931 14.5881322,1.46638757 14.7291966,1.46638757 Z M13.8777979,0.549895337 C14.0188623,0.549895337 14.1332175,0.42679708 14.1332175,0.274947669 C14.1332175,0.123098257 14.0188623,0 13.8777979,0 C13.7367336,0 13.6223783,0.123098257 13.6223783,0.274947669 C13.6223783,0.42679708 13.7367336,0.549895337 13.8777979,0.549895337 Z M14.7291966,0.549895337 C14.8702609,0.549895337 14.9846162,0.42679708 14.9846162,0.274947669 C14.9846162,0.123098257 14.8702609,0 14.7291966,0 C14.5881322,0 14.473777,0.123098257 14.473777,0.274947669 C14.473777,0.42679708 14.5881322,0.549895337 14.7291966,0.549895337 Z M15.5805952,3.29937202 C15.7216596,3.29937202 15.8360148,3.17627377 15.8360148,3.02442435 C15.8360148,2.87257494 15.7216596,2.74947669 15.5805952,2.74947669 C15.4395309,2.74947669 15.3251756,2.87257494 15.3251756,3.02442435 C15.3251756,3.17627377 15.4395309,3.29937202 15.5805952,3.29937202 Z M16.4319939,3.29937202 C16.5730582,3.29937202 16.6874135,3.17627377 16.6874135,3.02442435 C16.6874135,2.87257494 16.5730582,2.74947669 16.4319939,2.74947669 C16.2909295,2.74947669 16.1765743,2.87257494 16.1765743,3.02442435 C16.1765743,3.17627377 16.2909295,3.29937202 16.4319939,3.29937202 Z M15.5805952,2.38287979 C15.7216596,2.38287979 15.8360148,2.25978154 15.8360148,2.10793213 C15.8360148,1.95608271 15.7216596,1.83298446 15.5805952,1.83298446 C15.4395309,1.83298446 15.3251756,1.95608271 15.3251756,2.10793213 C15.3251756,2.25978154 15.4395309,2.38287979 15.5805952,2.38287979 Z M16.4319939,2.38287979 C16.5730582,2.38287979 16.6874135,2.25978154 16.6874135,2.10793213 C16.6874135,1.95608271 16.5730582,1.83298446 16.4319939,1.83298446 C16.2909295,1.83298446 16.1765743,1.95608271 16.1765743,2.10793213 C16.1765743,2.25978154 16.2909295,2.38287979 16.4319939,2.38287979 Z M15.5805952,1.46638757 C15.7216596,1.46638757 15.8360148,1.34328931 15.8360148,1.1914399 C15.8360148,1.03959049 15.7216596,0.916492228 15.5805952,0.916492228 C15.4395309,0.916492228 15.3251756,1.03959049 15.3251756,1.1914399 C15.3251756,1.34328931 15.4395309,1.46638757 15.5805952,1.46638757 Z M16.4319939,1.46638757 C16.5730582,1.46638757 16.6874135,1.34328931 16.6874135,1.1914399 C16.6874135,1.03959049 16.5730582,0.916492228 16.4319939,0.916492228 C16.2909295,0.916492228 16.1765743,1.03959049 16.1765743,1.1914399 C16.1765743,1.34328931 16.2909295,1.46638757 16.4319939,1.46638757 Z M15.5805952,0.549895337 C15.7216596,0.549895337 15.8360148,0.42679708 15.8360148,0.274947669 C15.8360148,0.123098257 15.7216596,0 15.5805952,0 C15.4395309,0 15.3251756,0.123098257 15.3251756,0.274947669 C15.3251756,0.42679708 15.4395309,0.549895337 15.5805952,0.549895337 Z M16.4319939,0.549895337 C16.5730582,0.549895337 16.6874135,0.42679708 16.6874135,0.274947669 C16.6874135,0.123098257 16.5730582,0 16.4319939,0 C16.2909295,0 16.1765743,0.123098257 16.1765743,0.274947669 C16.1765743,0.42679708 16.2909295,0.549895337 16.4319939,0.549895337 Z M17.2833925,3.29937202 C17.4244569,3.29937202 17.5388121,3.17627377 17.5388121,3.02442435 C17.5388121,2.87257494 17.4244569,2.74947669 17.2833925,2.74947669 C17.1423282,2.74947669 17.0279729,2.87257494 17.0279729,3.02442435 C17.0279729,3.17627377 17.1423282,3.29937202 17.2833925,3.29937202 Z M18.1347912,3.29937202 C18.2758555,3.29937202 18.3902107,3.17627377 18.3902107,3.02442435 C18.3902107,2.87257494 18.2758555,2.74947669 18.1347912,2.74947669 C17.9937268,2.74947669 17.8793716,2.87257494 17.8793716,3.02442435 C17.8793716,3.17627377 17.9937268,3.29937202 18.1347912,3.29937202 Z M17.2833925,2.38287979 C17.4244569,2.38287979 17.5388121,2.25978154 17.5388121,2.10793213 C17.5388121,1.95608271 17.4244569,1.83298446 17.2833925,1.83298446 C17.1423282,1.83298446 17.0279729,1.95608271 17.0279729,2.10793213 C17.0279729,2.25978154 17.1423282,2.38287979 17.2833925,2.38287979 Z M18.1347912,2.38287979 C18.2758555,2.38287979 18.3902107,2.25978154 18.3902107,2.10793213 C18.3902107,1.95608271 18.2758555,1.83298446 18.1347912,1.83298446 C17.9937268,1.83298446 17.8793716,1.95608271 17.8793716,2.10793213 C17.8793716,2.25978154 17.9937268,2.38287979 18.1347912,2.38287979 Z M17.2833925,1.46638757 C17.4244569,1.46638757 17.5388121,1.34328931 17.5388121,1.1914399 C17.5388121,1.03959049 17.4244569,0.916492228 17.2833925,0.916492228 C17.1423282,0.916492228 17.0279729,1.03959049 17.0279729,1.1914399 C17.0279729,1.34328931 17.1423282,1.46638757 17.2833925,1.46638757 Z M18.1347912,1.46638757 C18.2758555,1.46638757 18.3902107,1.34328931 18.3902107,1.1914399 C18.3902107,1.03959049 18.2758555,0.916492228 18.1347912,0.916492228 C17.9937268,0.916492228 17.8793716,1.03959049 17.8793716,1.1914399 C17.8793716,1.34328931 17.9937268,1.46638757 18.1347912,1.46638757 Z M17.2833925,0.549895337 C17.4244569,0.549895337 17.5388121,0.42679708 17.5388121,0.274947669 C17.5388121,0.123098257 17.4244569,0 17.2833925,0 C17.1423282,0 17.0279729,0.123098257 17.0279729,0.274947669 C17.0279729,0.42679708 17.1423282,0.549895337 17.2833925,0.549895337 Z M18.1347912,0.549895337 C18.2758555,0.549895337 18.3902107,0.42679708 18.3902107,0.274947669 C18.3902107,0.123098257 18.2758555,0 18.1347912,0 C17.9937268,0 17.8793716,0.123098257 17.8793716,0.274947669 C17.8793716,0.42679708 17.9937268,0.549895337 18.1347912,0.549895337 Z" id="Speaker"></path>
                    </g>
                </g>
                <g id="UPI" transform="translate(14.948905, 57.091533)">
                    <polygon id="Shape" fill="#128B47" points="35.9944196 19.1479604 41.3145583 12.4070064 35.9944196 5.66736649"></polygon>
                    <polygon id="Shape" fill="#F27930" points="33.5120458 19.1479604 38.8321842 12.4070064 33.5120458 5.66736649"></polygon>
                    <text font-family="Roboto-Medium, Roboto" font-size="17.262545" font-weight="400" fill="#1D357F">
                        <tspan x="1.2630113" y="18">UPI</tspan>
                    </text>
                </g>
                <g id="Button" transform="translate(25.029197, 96.336384)">
                    <rect id="Rectangle-4" fill="#FEBBBA" x="0" y="0" width="21" height="10" rx="1.31029748"></rect>
                    <text id="PAY" font-family="MyriadPro-Regular, Myriad Pro" font-size="6.55148741" font-weight="normal" fill="#F9F9F9">
                        <tspan x="5.51431808" y="7">PAY</tspan>
                    </text>
                </g>
                <g id="Hand" transform="translate(49.379562, 142.260870) rotate(45.000000) translate(-49.379562, -142.260870) translate(15.277372, 114.183066)">
                    <path d="M33.7578384,10.4486261 L33.744944,10.4619816 C33.3881994,10.8230984 32.8148292,10.8303832 32.4644458,10.4781121 L29.4449252,7.4433084 C29.0945418,7.09103736 29.0995277,6.51276477 29.4562723,6.15147448 L29.4693386,6.1382925 C29.8260832,5.77717566 30.3992815,5.76989088 30.7498368,6.12216192 L33.7693574,9.15696565 C34.1197408,9.50923669 34.114583,10.0875093 33.7578384,10.4486261" id="Fill-54" fill="#D8A88A"></path>
                    <path d="M35.6340571,36.9331295 L35.6125665,36.9999066 C35.0266457,38.8263045 32.9929436,39.7979551 31.0701332,39.1700766 L10.2438136,32.3700834 C7.18870446,31.2317502 7.39724961,29.6519941 7.98317037,27.8255962 L8.00466101,27.7588191 C8.95523492,25.6450194 12.8608576,25.75776 14.9949639,26.4853706 L33.2133516,32.489415 C35.136162,33.1171201 36.2199779,35.1067316 35.6340571,36.9331295" id="Fill-56" fill="#EDC7B8"></path>
                    <path d="M7.51673756,29.4410824 C7.41151939,29.6932745 7.38727795,29.9775543 7.43455736,30.2540289 C7.51484638,30.7256316 7.81571532,31.3803943 8.69665956,31.7448067 C10.1380796,32.3411178 12.3880635,33.2203211 12.6892763,33.1391478 C12.9904891,33.058148 13.4493572,32.4607963 13.3719909,31.5352826 C13.2944527,30.6097689 13.1914695,30.3901849 12.5264632,29.9687085 C11.8614569,29.5472321 9.08091217,28.7974203 8.79293762,28.7781677 C8.52954836,28.7606495 7.83892521,28.6683757 7.51673756,29.4410824" id="Fill-57" fill="#E4DBCB"></path>
                    <polyline id="Fill-58" fill="#D8A88A" points="28.4723449 38.3214 16.560342 27.0112622 18.1831431 27.5466933 30.9564907 39.1235928 28.4723449 38.3214"></polyline>
                    <path d="M40.1039379,6.28867113 L40.0657705,6.25797099 L34.8803374,1.04779387 C33.5212695,-0.318275409 31.297934,-0.290003534 29.9146246,1.11075516 L29.8640786,1.16192205 C28.4805973,2.56268075 28.4608259,4.80552506 29.8198939,6.17159434 L32.8877254,9.25392257 C32.7390102,9.36614284 32.5889196,9.48148515 32.4379694,9.59873539 L27.5267568,4.66416569 C26.1676888,3.29826986 23.9445253,3.32636828 22.561044,4.72712698 L22.510498,4.77829387 C21.1270166,6.17905257 21.1074172,8.42207033 22.4664852,9.78796616 L27.0575732,14.4007915 C27.0125288,14.4462346 26.9674844,14.4904637 26.92244,14.5360802 L26.7071898,14.7539298 L26.6619735,14.8002402 L20.444474,8.55319633 C19.085406,7.18712705 16.8620705,7.21539893 15.4787611,8.61615762 L15.4280432,8.66732451 C14.0447338,10.0680832 14.0249624,12.3109275 15.3840304,13.6769968 L21.9104794,20.234164 C21.7777532,20.4084784 21.6482936,20.5812317 21.5221005,20.7524239 L6.4815765,5.63512249 C4.84914761,3.99431303 2.40901459,3.79519577 1.03120679,5.19040416 L0.98083273,5.2413976 C-0.39697507,6.63643254 -0.190664943,9.0974733 1.44176394,10.7381093 L18.079988,27.4615308 C18.2381591,27.6205818 18.3655556,27.8056498 18.4987976,27.9863817 C18.5238986,28.0205508 18.5514066,28.0526385 18.5811497,28.0824714 L27.7258461,37.2741265 C29.8714714,39.4307676 33.0617137,40.0149374 35.7387595,38.8656769 L50.7146397,53.9184561 L65.7536164,38.6901485 L50.8477097,23.7077889 C51.2271484,23.0046344 51.4950077,22.3229873 51.627562,21.6508799 C52.0405261,19.5584142 50.9505209,17.1910348 49.6880749,15.9220959 L40.1039379,6.28867113" id="Fill-59" fill="#EDC7B8"></path>
                    <path d="M5.38503817,9.46379355 L5.34807427,9.50125812 C4.3361231,10.5259835 3.17837943,11.0175326 1.96527589,9.79819954 L0.917392366,8.74485536 C-0.295539257,7.52552232 0.0385112237,6.20697755 1.0504624,5.18225214 L1.0874263,5.14478757 C2.09937747,4.12006217 3.40600827,3.77733072 4.61911182,4.99649031 L5.66699534,6.04983449 C6.87992697,7.26916753 6.39698934,8.43906814 5.38503817,9.46379355" id="Fill-60" fill="#E4DBCB"></path>
                    <path d="M60.0873088,30.9726202 L43.0909647,48.0920214 C42.9862623,48.1974773 42.8167442,48.1973038 42.7122137,48.0916745 L38.737993,44.0758541 C38.6334625,43.9702248 38.6336344,43.799206 38.7383368,43.6937501 L55.7346809,26.5743489 C55.8393832,26.4688931 56.0089014,26.4690666 56.1134319,26.5746958 L60.0876526,30.5903429 C60.1921831,30.6959721 60.1920112,30.8671644 60.0873088,30.9726202" id="Fill-61" fill="#58BEC7"></path>
                    <path d="M67.4790568,37.0326881 L49.1337883,55.5107003 C48.9377937,55.7082566 48.6187007,55.7066956 48.4211588,55.507058 L41.508566,48.5221702 C41.311196,48.3227061 41.3099925,48.0007883 41.5061591,47.803232 L59.8514275,29.3252198 C60.0474221,29.1276635 60.3665151,29.1292246 60.5640571,29.3288622 L67.4766498,36.3137499 C67.6740198,36.5132141 67.6752233,36.8351319 67.4790568,37.0326881" id="Fill-62" fill="#354C6D"></path>
                    <path d="M55.0422996,31.4036395 C54.5642196,31.0921542 54.4276466,30.4511265 54.7372917,29.9696034 C55.0469368,29.4880802 55.6855237,29.3511471 56.1636038,29.6626323 C56.6418334,29.9741176 56.7784064,30.6166501 56.4687613,31.0981733 C56.1591162,31.5781916 55.5203797,31.7151248 55.0422996,31.4036395 Z" id="Fill-99" fill="#D84B44"></path>
                </g>
            </g>
            <g id="Auto+Driver" transform="translate(108.000000, 172.105263) scale(-1, 1) translate(-108.000000, -172.105263) translate(88.000000, 157.105263)">
                <g id="Auto">
                    <path d="M39.6575191,13.3448182 L28.6031544,13.3448182 L28.6031544,1.81270934 L10.5134439,1.81270934 C10.4069329,1.81153169 10.3006827,1.80123216 10.1957186,1.78191012 L10.1214451,1.78191012 C10.0247215,1.76163778 9.92955203,1.73369416 9.83673025,1.69831223 L9.76658311,1.66751301 C9.69886122,1.63770439 9.63273917,1.6039202 9.56852059,1.56631556 L9.46948932,1.50911701 C9.39916082,1.46230955 9.33163389,1.410878 9.2673005,1.35512089 L9.14351142,1.23632389 L9.07336428,1.16152578 C9.03210125,1.113127 8.99083822,1.06472822 8.9495752,1.01632945 L8.9495752,1.01632945 C8.74247706,0.736512636 8.60609584,0.404764819 8.55345015,0.0527537703 L35.4115537,0.0527537703 C37.7478328,0.05030098 39.646157,2.06268688 39.6575191,4.55384015 L39.6575191,13.3448182 Z" id="Path" fill="#ECECEC"></path>
                    <path d="M19.0260061,13.3580179 L19.0260061,2.25269824 L19.0260061,13.3580179 Z" id="Path" stroke="#CFCFCF" stroke-width="0.5"></path>
                    <path d="M5.21939766,20.2922428 L5.18638724,20.2350443 C3.96522414,18.0276684 3.32118624,15.5116491 3.32129847,12.9488282 C3.32129847,12.6100368 3.32129847,12.2712453 3.35843519,11.9324539 L7.05972861,11.9324539 C8.09796882,11.9324645 8.94090517,11.0375725 8.94544889,9.93050442 L8.94544889,1.59711478 L9.07749058,1.71591179 L9.12287991,1.75551079 C9.22257591,1.8298554 9.32740864,1.89604297 9.4364789,1.95350579 L9.51075235,1.99750468 C9.61905206,2.04878634 9.73076845,2.09143551 9.84498286,2.12510146 L9.93163521,2.15590068 C10.0716058,2.20208168 10.2152521,2.23448311 10.3607707,2.25269824 L10.4102863,2.25269824 L10.4102863,22.7605805 C10.4102863,23.3680784 10.8721385,23.8605528 11.441862,23.8605528 L15.6878273,23.8605528 C16.2575508,23.8605528 16.719403,23.3680784 16.719403,22.7605805 L16.719403,18.1362973 L18.5267235,18.1362973 L18.5267235,13.7980068 L19.1621741,13.7980068 L19.1621741,22.7605805 C19.1621741,23.3680784 19.6240263,23.8605528 20.1937498,23.8605528 L24.3613154,23.8605528 C24.9310389,23.8605528 25.392891,23.3680784 25.392891,22.7605805 L25.392891,18.1362973 L25.392891,18.1362973 L25.392891,15.8571548 L25.392891,15.8571548 L25.392891,15.5051637 C25.3974043,14.5643276 26.1115618,13.8028193 26.9938964,13.7980068 L28.1863979,13.7980068 L39.6575191,13.7980068 L39.6575191,23.9177513 C38.8381738,21.7502155 36.8646153,20.3321767 34.6729455,20.3362417 L32.1228905,20.3362417 C29.2467401,20.3334958 26.8803794,22.7500002 26.7586972,25.8141035 L10.7734009,25.8141035 L10.6826223,25.7613048 C8.47623647,24.5562434 6.62117749,22.7303465 5.31842892,20.4814381 L5.21939766,20.2922428 Z" id="Path" fill="#F69A98"></path>
                    <path d="M8.7800127,2.32341074 L8.7800127,10.6260011 C8.77555906,11.4832507 8.12733546,12.1783697 7.32342788,12.1879617 L3.71291312,12.1879617 C4.08147849,8.39007084 5.83816531,4.89982752 8.60258169,2.47300696 L8.7800127,2.32341074 Z" id="Path" stroke="#ECECEC" stroke-width="0.766482719"></path>
                    <path d="M36.9795487,25.792104 C36.8743566,24.4393009 35.8139428,23.3985005 34.5409039,23.3985644 L32.2508059,23.3985644 C30.9769945,23.3963869 29.9154416,24.4383052 29.8121611,25.792104 L27.1630748,25.792104 C27.2844603,22.9710288 29.4661963,20.7512635 32.1146379,20.7542312 L34.6646929,20.7542312 C37.3131346,20.7512635 39.4948705,22.9710288 39.616256,25.792104 L36.9795487,25.792104 Z" id="Path" fill="#F69A98"></path>
                    <path d="M7.18764399,26.0120985 L7.18764399,26.0120985 C7.18764397,27.8807619 5.76698676,29.395613 4.0145173,29.395613 C2.26204784,29.395613 0.841390636,27.8807619 0.84139061,26.0120985 C0.841817063,25.2020603 1.11907189,24.4199501 1.6212618,23.812154 L5.15337682,23.812154 C6.2681924,23.8096765 7.17631696,24.7662274 7.18764399,25.9548999 L7.18764399,26.0120985 Z" id="Path" fill="#CFCFCF"></path>
                    <path d="M4.010391,24.3181412 C3.14311432,24.3254329 2.44429732,25.0784586 2.44657676,26.0032639 C2.44885619,26.9280692 3.15137559,27.6771677 4.01867623,27.6795983 C4.88597686,27.6820289 5.59217925,26.9368782 5.5990175,26.0120985 C5.60011702,25.5624747 5.43309746,25.1309285 5.13493352,24.8129954 C4.83676958,24.4950623 4.43205705,24.3169688 4.010391,24.3181412 L4.010391,24.3181412 Z" id="Shape" fill="#FFFFFF"></path>
                    <path d="M0.994063806,21.5506111 L0.0450142101,21.5506111 L0.0450142101,17.9295025 L0.994063806,17.9295025 C1.93182868,17.9295025 2.69203732,18.7401153 2.69203732,19.7400568 C2.69203732,20.7399983 1.93182868,21.5506111 0.994063806,21.5506111 L0.994063806,21.5506111 Z" id="Path" fill="#F69A98"></path>
                    <path d="M7.60027425,25.792104 C7.50720967,24.4271777 6.44093598,23.3708703 5.15750312,23.3721651 L0.977558595,23.3721651 C1.8078299,21.8194237 3.3225515,20.8244634 4.99657732,20.7322317 C6.2146891,22.8329273 7.90348091,24.5777479 9.9110037,25.8097036 L7.60027425,25.792104 Z" id="Path" fill="#F69A98"></path>
                    <path d="M36.5669184,26.0120985 C36.5669184,27.878332 35.1481086,29.3912132 33.397918,29.3912132 C31.6477275,29.3912132 30.2289176,27.878332 30.2289176,26.0120985 L30.2289176,26.0120985 L30.2289176,26.0120985 C30.2334666,24.8182616 31.1435742,23.8537165 32.2631848,23.8561529 L34.5409039,23.8561529 C35.659582,23.8561308 36.5683637,24.8192706 36.575171,26.0120985 L36.5669184,26.0120985 Z" id="Path" fill="#CFCFCF"></path>
                    <path d="M18.6216285,6.00580349 L18.6216285,11.492465 L18.5803654,11.492465 C17.7730066,10.8422097 17.2984296,9.82580508 17.2984296,8.7469343 C17.2984296,7.66806351 17.7730066,6.65165888 18.5803654,6.0014036 L18.6216285,6.00580349 Z" id="Path" fill="#CFCFCF"></path>
                    <path d="M18.1099669,16.2971437 L18.1099669,17.6963084 L15.1390291,17.6963084 C14.9446444,17.6963224 14.7864273,17.5295768 14.7841671,17.3223178 L14.7841671,16.6711343 C14.7841606,16.5711787 14.8216789,16.4753799 14.8883497,16.4051152 C14.9550206,16.3348505 15.0452953,16.2959678 15.1390291,16.2971437 L18.1099669,16.2971437 Z" id="Path" fill="#CFCFCF"></path>
                    <path d="M24.9843871,16.2971437 L24.9843871,17.6963084 L22.0134492,17.6963084 C21.8190645,17.6963224 21.6608475,17.5295768 21.6585872,17.3223178 L21.6585872,16.6711343 C21.6585807,16.5711787 21.696099,16.4753799 21.7627698,16.4051152 C21.8294407,16.3348505 21.9197154,16.2959678 22.0134492,16.2971437 L24.9843871,16.2971437 Z" id="Shape" fill="#CFCFCF"></path>
                    <path d="M33.397918,24.3181412 C32.5300863,24.3230148 31.8292013,25.0749849 31.8299725,26.000369 C31.8307436,26.9257531 32.5328808,27.6763938 33.4007193,27.6796228 C34.2685578,27.6828518 34.9755907,26.9374543 34.9824182,26.0120985 C34.9846196,25.5628806 34.8185214,25.1313193 34.5210112,24.8132571 C34.2235011,24.495195 33.8192077,24.3169622 33.397918,24.3181412 L33.397918,24.3181412 Z" id="Shape" fill="#FFFFFF"></path>
                </g>
            </g>
            <g id="Bills" transform="translate(69.000000, 19.000000) rotate(-9.000000) translate(-69.000000, -19.000000) translate(55.000000, 2.000000)">
                <path d="M3.30085015,32.9188038 C1.41540976,32.9188038 1.11910481e-12,31.5346227 1.11910481e-12,29.6808886 L1.11910481e-12,3.23791512 C1.11910481e-12,1.38539203 1.41540976,3.41550543e-13 3.30085015,3.41550543e-13 L24.2062344,3.41550543e-13 C26.0916748,3.41550543e-13 27.5070846,1.38539203 27.5070846,3.23791512 L27.5070846,29.6808886 C27.5070846,31.5346227 26.0916748,32.9188038 24.2062344,32.9188038 L3.30085015,32.9188038" id="Fill-1976" fill="#EEEEEE"></path>
                <text id="BILLS" font-family="Lato-Semibold, Lato" font-size="6.72789089" font-weight="500" letter-spacing="0.280328768" fill="#F69A98">
                    <tspan x="4.73676056" y="9.06583712">BILLS</tspan>
                </text>
                <polygon id="Fill-1977" fill="#FEBBBA" points="14.0552454 13.6334906 16.8059539 13.6334906 16.8059539 12.5541856 14.0552454 12.5541856"></polygon>
                <polygon id="Fill-1978" fill="#FEBBBA" points="14.0552454 18.4903633 23.4076542 18.4903633 23.4076542 17.4110583 14.0552454 17.4110583"></polygon>
                <polygon id="Fill-1979" fill="#FEBBBA" points="4.70283664 22.8075835 23.4076542 22.8075835 23.4076542 21.7282785 4.70283664 21.7282785"></polygon>
                <polygon id="Fill-1980" fill="#FEBBBA" points="4.70283664 27.1248037 23.4076542 27.1248037 23.4076542 26.0454986 4.70283664 26.0454986"></polygon>
                <polygon id="Fill-1985" fill="#CFCFCF" points="4.70283664 17.9507108 10.2042536 17.9507108 10.2042536 12.5541856 4.70283664 12.5541856"></polygon>
            </g>
            <g id="Food-Delivery" transform="translate(18.000000, 82.000000) scale(-1, 1) translate(-18.000000, -82.000000) translate(0.000000, 65.000000)">
                <g id="Group">
                    <path d="M24.4337077,16.0073555 C24.1722501,16.2979708 23.813404,16.4692054 23.4232648,16.4891266 C23.2482286,16.4982083 23.0685131,16.5028956 22.8893825,16.503628 L22.88909,16.503628 L22.8809012,16.503628 C22.5213239,16.503628 22.1675958,16.4834139 21.8203017,16.4443038 C21.8276132,16.4976224 21.839604,16.5510874 21.8594911,16.6035271 C22.0025032,16.9818836 22.4242278,17.1727464 22.8020837,17.0300753 L24.191991,16.5034816 L27.4906264,26.1402209 C27.7551548,25.850338 28.0527309,25.593413 28.3773594,25.3728149 C28.4835218,25.300747 28.5918775,25.2316086 28.7037427,25.1674506 C28.9878658,25.0045654 29.2896826,24.8677536 29.6067072,24.7600912 C29.6377078,24.7495446 29.6690008,24.7404629 29.7001476,24.7305023 C30.1462925,24.5884172 30.6057442,24.5082929 31.0698753,24.4926196 C31.1267584,24.4907154 31.1834953,24.4891041 31.2405246,24.4891041 C33.0065331,24.4891041 34.6115434,25.4015249 35.5307393,26.8475704 C36.0774898,26.8213506 36.217431,26.500414 35.3388868,25.3534796 C33.9219271,23.503883 31.9509054,23.1453012 30.5648001,23.1639041 C30.4776476,22.928951 30.3877167,22.6834514 30.2939839,22.4238897 C29.444393,20.0712826 27.5366885,18.950568 26.4137955,18.4767068 L26.1040823,17.5717565 L27.2845896,17.5717565 C27.5162165,18.5578565 28.3979777,19.2928906 29.4531667,19.2928906 C30.6847079,19.2928906 30.6847079,14.825266 29.4531667,14.825266 C28.3979777,14.825266 27.5162165,15.5603001 27.2845896,16.5464001 L25.7529863,16.5464001 L25.3311155,15.3139216 C25.2666285,15.1262814 25.1300505,14.9730638 24.9506274,14.8888381 C24.9010558,14.8655479 24.8492907,14.8492886 24.7966482,14.8377168 C24.8014738,14.8752155 24.8060069,14.9127143 24.8080541,14.9509454 C24.827795,15.3414597 24.6953115,15.7167402 24.4337077,16.0073555 Z" id="Shape" fill="#EEEEEE"></path>
                    <ellipse id="Oval" fill="#CFCFCF" transform="translate(18.909054, 4.445483) rotate(-76.890715) translate(-18.909054, -4.445483) " cx="18.9090542" cy="4.44548261" rx="3.28914421" ry="3.29506996"></ellipse>
                    <path d="M14.6430866,21.0071401 C14.6483508,21.0080189 14.6533226,21.0094837 14.6585868,21.0103626 L20.2038856,21.8741522 L22.2810695,27.1481463 C22.5647539,27.8682395 23.2533466,28.307678 23.9820061,28.307678 C24.2050054,28.307678 24.4318067,28.2665173 24.6521739,28.1795084 C25.5915494,27.8086224 26.0523172,26.7451812 25.6816266,25.8044899 L23.2201526,19.5546494 C22.9823842,18.9515933 22.4401668,18.5169887 21.800707,18.4175291 L17.2064821,17.7015373 C17.1842553,16.6887781 17.2877855,15.6429145 17.4407411,14.6376258 C17.0601068,14.3360245 16.6980437,14.0020513 16.3593771,13.6330694 C15.2031439,12.3686584 14.6620963,11.1281236 14.5239099,10.7777447 L14.5228863,10.7755475 L14.5165984,10.7598742 C14.3789969,10.3936754 14.3920112,9.99583712 14.5534481,9.63945251 C14.7147388,9.28306791 15.004711,9.01105549 15.3705762,8.87351124 C15.5362537,8.81081802 15.7093889,8.77903197 15.8854487,8.77903197 C16.4908371,8.77903197 17.0405122,9.16061105 17.2538604,9.72821909 C17.2575161,9.73803321 17.26512,9.75561075 17.2757947,9.78080522 C17.2996301,9.83588151 17.3380883,9.92113258 17.392778,10.0301133 C17.495577,10.2354776 17.6711981,10.5565606 17.9259292,10.9195368 C17.9810575,10.9981963 18.0410114,11.0806642 18.1060834,11.1656224 C18.4408017,9.74374591 17.8876171,8.11577283 16.6860529,7.81578282 C15.4376953,7.50407446 13.6281106,8.18315339 12.8919935,10.3279061 C11.8967584,13.2831299 11.6828253,15.2065521 12.0609736,18.4605941 C12.4265463,20.3449063 13.5304296,20.8777987 14.6430866,21.0071401 Z" id="Shape" fill="#CFCFCF"></path>
                    <path d="M17.1311742,10.161066 C17.0732675,10.0456401 17.0324696,9.95496934 17.0076106,9.8974029 C16.9950349,9.86854644 16.9865536,9.84803931 16.9821668,9.83676039 C16.9812894,9.83470968 16.9805582,9.83295192 16.9798271,9.83134065 L16.9799733,9.83134065 C16.7522947,9.22550147 16.0778862,8.91921285 15.4730828,9.14728142 C14.8682793,9.37505703 14.5626606,10.0509134 14.7900468,10.6564596 C14.8251417,10.7422966 15.3210045,12.0639811 16.5744801,13.4344432 C16.8431029,13.7269628 17.1500377,14.0209471 17.4929449,14.3036525 C17.9510806,14.6811302 18.475458,15.0378078 19.0770444,15.3382372 C19.8710682,15.7356361 20.7964058,16.0304993 21.8400427,16.1506125 C22.1749072,16.1892831 22.5214701,16.2105226 22.8803163,16.2105226 L22.8883589,16.2105226 C23.0594469,16.2102296 23.2325821,16.2058352 23.4077645,16.1967535 C24.0530734,16.1633562 24.5489362,15.6123003 24.5154497,14.9658863 C24.5131101,14.9210636 24.5078458,14.8772662 24.5006806,14.8340548 C24.4049005,14.253703 23.8876883,13.825104 23.2869793,13.8561577 C23.1498164,13.8630422 23.0168942,13.8665577 22.8882126,13.8665577 C21.7672206,13.8653859 20.8709826,13.6137341 20.120535,13.2406509 C19.2180092,12.7913982 18.5273693,12.146742 18.0233177,11.5294774 C17.900924,11.3796289 17.7862804,11.2309522 17.6859673,11.0875488 C17.4300664,10.7220824 17.2466951,10.3919177 17.1311742,10.161066 Z" id="Shape" fill="#CFCFCF"></path>
                    <path d="M0.780424544,20.9100242 L10.0161063,20.9100242 C10.4470434,20.9100242 10.7965309,20.5599382 10.7965309,20.1282631 L10.7965309,11.0069851 C10.7965309,10.5751635 10.4470434,10.225224 10.0161063,10.225224 L0.780424544,10.225224 C0.349487476,10.225224 0,10.57531 0,11.0069851 L0,20.1282631 C0,20.5600846 0.349487476,20.9100242 0.780424544,20.9100242 Z" id="Shape" fill="#F69A98"></path>
                    <path d="M13.7083903,28.1852211 C12.9358622,25.9027777 10.4625437,24.6796739 8.1838561,25.4536716 C6.04101532,26.1813817 4.83418681,28.4157799 5.34028562,30.5776707 C5.37245601,30.7147755 5.41076803,30.8515874 5.45697641,30.9876668 C6.22935836,33.2701103 8.70282307,34.493214 10.9815107,33.7192164 C12.4604715,33.2169382 13.4931412,31.9964711 13.8249349,30.5776707 C14.0042118,29.8107041 13.979499,28.9860245 13.7083903,28.1852211 Z M10.1351368,31.2192509 C9.39492525,31.4706097 8.60309484,31.1876113 8.17537482,30.5776707 C8.08310427,30.4461321 8.00691893,30.2999456 7.95281417,30.13999 C7.6476341,29.2382622 8.1300438,28.2593398 9.03008373,27.9536371 C9.93012365,27.6479344 10.9075187,28.1313167 11.2125526,29.032898 C11.3959238,29.5745791 11.2935635,30.1430661 10.9886759,30.5776707 C10.7860024,30.8666747 10.4945679,31.097087 10.1351368,31.2192509 Z" id="Shape" fill="#CFCFCF"></path>
                    <path d="M26.2090748,28.8199168 L16.8856556,28.8199168 C16.0796409,27.1909183 15.8023906,25.5280831 15.7105588,24.4461856 C15.9499358,24.3727994 16.1251182,24.1523477 16.1251182,23.8885382 L16.1251182,22.2772637 C16.1251182,21.9536905 15.8632219,21.6913458 15.5402019,21.6913458 L3.62253274,21.6913458 C3.29951272,21.6913458 3.03761646,21.9536905 3.03761646,22.2772637 L3.03761646,23.8885382 C3.03761646,24.2121114 3.29951272,24.4744561 3.62253274,24.4744561 L3.68701976,24.4744561 C3.05180068,26.0357811 2.071481,28.7422827 2.071481,30.5778172 L4.59276261,30.5778172 C4.37327278,29.4817111 4.51818579,28.3501571 5.02033641,27.3310992 C5.62206903,26.1104856 6.6621964,25.197186 7.94901222,24.7603841 C8.47865391,24.5802143 9.02832898,24.4892506 9.58297584,24.4892506 C11.7641286,24.4892506 13.7002015,25.8799269 14.4006388,27.9504145 C14.6973375,28.8270943 14.7398902,29.729408 14.5704107,30.5778172 L15.5975237,30.5778172 L18.0103033,30.5778172 L26.2504576,30.5778172 C26.1337668,29.9942429 26.1203138,29.4011474 26.2090748,28.8199168 Z" id="Shape" fill="#EEEEEE"></path>
                    <path d="M34.5445705,26.7426911 C33.7471833,25.8135717 32.5871481,25.257682 31.3610174,25.2234058 C30.9461655,25.2118339 30.5240022,25.2604651 30.105787,25.3739867 C30.0174647,25.3980093 29.9291423,25.4237897 29.8412587,25.4536716 C29.5208708,25.5625058 29.222271,25.7060557 28.9463368,25.8769973 C28.8455849,25.9392511 28.7479039,26.0047274 28.6535862,26.0743052 C28.3143347,26.3249316 28.0169048,26.6208202 27.7677305,26.950692 C27.353756,27.4989647 27.0727037,28.1403984 26.9510411,28.8199168 C26.8491194,29.389722 26.8592092,29.986333 26.9975419,30.5776707 C27.0297123,30.7147755 27.0680244,30.8515874 27.1142327,30.9876668 C27.8866147,33.2701103 30.3600794,34.493214 32.638767,33.7192164 C34.9173083,32.9453652 36.1383211,30.4676646 35.3656467,28.1852211 C35.1812518,27.6391456 34.8981523,27.1545914 34.5445705,26.7426911 Z M31.7928318,31.2192509 C30.8927919,31.5249536 29.9153968,31.0415713 29.610363,30.13999 C29.3051829,29.2382622 29.7875926,28.2593398 30.6876325,27.9536371 C31.5876724,27.6479344 32.5650675,28.1313167 32.8701014,29.032898 C33.1754277,29.9344793 32.693018,30.9134017 31.7928318,31.2192509 Z" id="Shape" fill="#CFCFCF"></path>
                </g>
            </g>
            <g id="Merchant" transform="translate(87.474453, 71.000000)">
                <g id="Body-House" transform="translate(1.044225, 14.027310)">
                    <path d="M31.6743115,1.48595979 C31.6257913,1.4880675 31.576578,1.49368804 31.5252852,1.49368804 C30.5236903,1.49368804 29.6274535,1.03280346 29.0264965,0.311266175 C28.4283121,1.02437265 27.5369273,1.47752898 26.5436501,1.47752898 C25.5579976,1.47752898 24.672851,1.02999319 24.0739735,0.324614966 C23.4730166,1.03842401 22.5850975,1.49087777 21.5883546,1.49087777 C20.5839871,1.49087777 19.6877502,1.02999319 19.0895658,0.305645631 C18.4886089,1.0187521 17.5979172,1.47752898 16.6011743,1.47752898 C15.6155217,1.47752898 14.7303752,1.02999319 14.1321908,0.324614966 C13.5333133,1.03842401 12.6426216,1.49087777 11.6486513,1.49087777 C10.6470564,1.49087777 9.75081954,1.02999319 9.14986258,0.308455903 C8.55167821,1.02156237 7.66098653,1.4747187 6.66701621,1.4747187 C5.68136362,1.4747187 4.79621711,1.02718292 4.19733959,0.321804694 C3.59915521,1.03561373 2.70846353,1.4880675 1.71449321,1.4880675 L1.71449321,18.4571913 L0.163234081,18.4571913 L0.163234081,20.7321063 L33.2311158,20.7321063 L33.2311158,18.4571913 L31.6798566,18.4571913 L31.6798566,1.48595979 L31.6743115,1.48595979 Z" id="Fill-1" fill="#EEEEEE"></path>
                    <polygon id="Path" fill="#CFCFCF" points="22.8450269 5.24540091 30.0662144 5.24540091 30.0662144 11.8867758 22.8450269 11.8867758"></polygon>
                    <polygon id="Path" fill="#CFCFCF" points="3.35031606 5.24540091 10.5742761 5.24540091 10.5742761 11.8867758 3.35031606 11.8867758"></polygon>
                    <polygon id="Path" fill="#F69A98" points="12.2094058 5.24540091 21.1773194 5.24540091 21.1773194 18.4628118 12.2094058 18.4628118"></polygon>
                </g>
                <g id="Shade">
                    <path d="M5.24710974,12.261083 L5.24710974,11.7559366 C5.67755295,9.81263368 6.11631391,7.87003329 6.55230229,5.9295406 C6.98829067,3.98623765 7.42982421,2.04082698 7.86304001,0.0975240272 L3.94261033,0.0975240272 C3.33333563,2.04082698 2.71851577,3.98623765 2.10924107,5.9295406 C1.49996638,7.87284356 0.887919098,9.81544395 0.278644401,11.7587469 L0.27587182,11.7587469 L0.27587182,12.261083 C0.27587182,13.646547 1.3946083,14.7804917 2.76149078,14.7804917 C4.12906641,14.7804917 5.24710974,13.646547 5.24710974,12.261083 Z" id="Fill-2" fill="#F69A98"></path>
                    <path d="M10.2072929,12.261083 L10.2229716,11.7559366 L10.9904616,5.9295406 L11.7788566,0.0975240272 L7.85778667,0.0975240272 L6.54727921,5.9295406 L5.23680362,11.7587469 L5.23680362,12.261083 C5.23680362,12.261083 4.71371357,14.7804917 7.46050323,14.7804917 C10.2072929,14.7804917 10.2072929,12.261083 10.2072929,12.261083 Z" id="Fill-2-Copy" fill="#F9F9F9"></path>
                    <path d="M28.5679977,12.261083 L28.5836764,11.7559366 L29.3511664,5.9295406 L30.1395614,0.0975240272 L26.2184915,0.0975240272 L24.907984,5.9295406 L23.5975084,11.7587469 L23.5975084,12.261083 C23.5975084,12.261083 23.0744183,14.7804917 25.821208,14.7804917 C28.5679977,14.7804917 28.5679977,12.261083 28.5679977,12.261083 Z" id="Fill-2-Copy-2" fill="#F9F9F9" transform="translate(26.848637, 7.439008) scale(-1, 1) translate(-26.848637, -7.439008) "></path>
                    <path d="M35.0468114,11.6814644 C34.4430819,9.76345392 33.842125,7.84474084 33.241168,5.9295406 C32.6318933,3.98623765 32.0170734,2.04082698 31.4057193,0.0975240272 L27.4818239,0.0975240272 C27.9178123,2.04082698 28.3593458,3.98623765 28.7925616,5.9295406 C29.22855,7.87284356 29.6617658,9.81544395 30.1005268,11.7587469 L30.1060719,11.7587469 L30.1060719,12.2196315 C30.1060719,13.6057981 31.2241152,14.7390402 32.5916909,14.7390402 C33.9585734,14.7390402 35.0766167,13.6057981 35.0766167,12.2196315 L35.0766167,11.6786542 L35.0468114,11.6814644 Z" id="Fill-3" fill="#F69A98"></path>
                    <path d="M20.1635961,11.7587469 L20.1635961,12.2140109 C20.1635961,13.6001775 21.2816394,14.7334196 22.649215,14.7334196 C23.9890649,14.7334196 25.0856207,13.6409265 25.1265163,12.2912934 C25.1265163,12.2638933 25.1181985,12.2386008 25.1181985,12.2112007 L25.1181985,11.6491463 C24.858269,9.74167432 24.6038847,7.83420232 24.3467278,5.9295406 C24.0840258,3.98623765 23.8213237,2.04082698 23.5558491,0.0975240272 L19.6326468,0.0975240272 C19.7220625,2.04082698 19.8114783,3.98623765 19.8981214,5.9295406 C19.9847646,7.87284356 20.0714078,9.81544395 20.1635961,11.7587469 Z" id="Fill-4" fill="#F69A98"></path>
                    <polygon id="Fill-5" fill="#CFCFCF" points="20.5670066 27.2068111 21.484731 27.2068111 21.484731 24.6185507 20.5670066 24.6185507"></polygon>
                    <path d="M12.6928763,14.7306093 C14.0604519,14.7306093 15.1784953,13.5973672 15.1784953,12.2112007 L15.1784953,11.7587469 L15.1840404,11.7587469 C15.267911,9.81544395 15.3573267,7.87284356 15.4439699,5.9295406 C15.5306131,3.98623765 15.6172562,2.04082698 15.7038994,0.0975240272 L11.7862423,0.0975240272 C11.5263128,2.04082698 11.2608382,3.98623765 11.0009087,5.9295406 C10.7382066,7.87284356 10.4755046,9.81544395 10.2183477,11.7587469 L10.2100299,11.7587469 L10.2100299,12.2112007 C10.2100299,12.2224418 10.2079505,12.2308726 10.2079505,12.2386008 C10.2238928,13.610716 11.3343116,14.7306093 12.6928763,14.7306093 Z" id="Fill-6" fill="#F69A98"></path>
                    <path d="M17.7518248,14.7306093 C19.3181623,14.7306093 20.1744344,13.5077802 20.163982,12.2112007 L20.1744344,11.7587469 L19.9029257,5.9295406 L19.6314171,0.0975240272 L15.7014284,0.0975240272 C15.4231916,5.1953001 15.7014284,1.55859003 15.4231916,5.9295406 C15.1449548,10.3004912 15.1777588,10.9101302 15.1777588,11.7587469 C15.1749862,11.7587469 15.169441,12.2112007 15.169441,12.2112007 C15.1833039,13.610716 16.1854873,14.7306093 17.7518248,14.7306093 Z" id="Fill-6-Copy" fill="#F9F9F9"></path>
                </g>
            </g>
            <g id="P2P-Boy" transform="translate(0.000000, 156.169336)">
                <polyline id="Fill-804" fill="#FBCFCE" points="22.3640989 27.3820537 21.2701171 26.8820842 21.2701171 23.4344991 14.249913 23.4344991 14.249913 26.8820842 13.1515436 27.3518931 13.4440521 37.1288478 14.249913 37.1288478 14.249913 38.6278862 21.2701171 38.6278862 21.2701171 37.1288478 22.0715904 37.1288478 22.3640989 27.3820537"></polyline>
                <path id="Fill-805" fill="#DB7C3E"></path>
                <path d="M21.2701171,26.6500799 L14.249913,25.2664637 L14.249913,23.8973479 C15.4553406,24.7253135 16.7397454,25.228473 17.7655727,25.228763 L17.7658652,25.228763 L17.7664502,25.228763 C18.7887675,25.228763 20.0681996,24.7293736 21.2701171,23.906338 L21.2701171,26.6500799" id="Fill-806" fill="#FFBFBD"></path>
                <path d="M33.5355836,32.7828257 C32.9739673,29.5324443 28.1721477,29.5315743 22.4623817,27.4046741 L22.2014642,28.3759025 C21.7501235,29.6580167 20.5926674,31.7547563 17.8448425,31.7547563 C14.7448374,31.7547563 13.5622255,29.0852559 13.1954199,27.928714 L13.0544308,27.4046741 C7.34466481,29.5315743 2.54196771,29.5324443 1.98181393,32.7828257 C1.40791225,36.1126686 0.433566426,39.731067 0.0769985617,43.5553693 L35.439814,43.5553693 C35.0829536,39.731067 34.1089003,36.1126686 33.5355836,32.7828257 Z" id="Fill-807" fill="#F1F1F1"></path>
                <polyline id="Fill-808" fill="#F69A98" points="19.1078942 43.5553693 18.7726795 32.8611272 16.7219024 32.8611272 16.3945854 43.5553693 19.1078942 43.5553693"></polyline>
                <polyline id="Fill-809" fill="#F69A98" points="19.4466191 31.2756673 18.7726795 32.5554614 16.7219024 32.5554614 16.0672684 31.2756673 17.75709 29.9062614 19.4466191 31.2756673"></polyline>
                <polyline id="Fill-810" fill="#CFCFCF" points="14.2115944 26.65617 11.9077974 27.7935715 15.5992547 32.160184 17.75826 29.9065514 15.0782971 27.451075 14.2115944 26.65617"></polyline>
                <polyline id="Fill-811" fill="#CFCFCF" points="21.3063881 26.65704 17.75826 29.9059714 19.9172653 32.161054 23.6081375 27.7921214 21.3063881 26.65704"></polyline>
                <path d="M25.4266629,13.5012314 L25.6644723,10.4384836 C25.6644723,6.43350791 21.8033601,3.1883466 17.7664502,3.1883466 C13.7269078,3.1883466 9.86901319,6.43350791 9.86901319,10.4384836 L10.1062376,13.4983314 C9.88042102,13.5522724 9.67654259,13.6549343 9.50601014,13.7996471 C9.19039346,14.0664521 8.99119517,14.4608596 8.99119517,14.904568 L8.99119517,16.4125964 C8.99119517,17.2101115 9.638809,17.8568237 10.4449624,17.8617538 C10.4449624,21.6437153 15.0282782,25.228763 17.7664502,25.228763 C20.5052074,25.228763 25.0885231,21.6442953 25.0885231,17.8620438 C25.8911664,17.8565337 26.5408278,17.2104015 26.5408278,16.4131765 L26.5408278,14.905148 C26.5408278,14.2242151 26.065209,13.6566744 25.4266629,13.5012314" id="Fill-812" fill="#FBCFCE"></path>
                <path d="M16.1326848,20.0951157 C15.9759565,19.9615266 15.7448826,20.1881972 15.9041944,20.3240847 C16.9806254,21.2373749 19.1142552,21.6312475 19.9360744,20.1994015 C19.9923359,20.035647 19.7870963,19.9098146 19.6671102,20.0344978 C18.9506377,21.2666784 17.0388962,20.8659109 16.1326848,20.0951157 Z" id="Path" fill="#EF5350"></path>
                <path d="M26.8342138,3.59145422 C26.7789297,3.15702601 26.3319767,3.22256725 25.8911664,3.24982776 C24.5157914,3.33537938 24.1796992,2.87572069 21.3710325,1.23631972 C18.5723112,-0.397281142 15.7083604,0.254071164 13.7997424,1.66030773 C5.02039225,3.66946569 10.1626917,15.4851589 10.1626917,15.4851589 C10.1626917,15.4851589 10.1305158,9.26599143 12.8455797,7.3751557 C17.3923319,10.4489238 22.0382444,10.6162569 24.6833988,8.7880624 C25.703961,11.148127 25.3705013,15.4851589 25.3705013,15.4851589 C25.3705013,15.4851589 27.1267223,11.098246 26.168172,7.21565269 C26.755529,6.22963406 27.0141065,5.00813098 26.8342138,3.59145422" id="Fill-814" fill="#AAAAAA"></path>
                <path d="M16.1356108,12.547398 C16.1356108,12.547398 16.2084932,12.8068069 15.8973356,12.8540382 C15.5860258,12.9011484 15.4048089,12.6838844 14.4574899,12.6907874 C13.5100189,12.6978115 12.8242549,13.0924958 12.3924381,13.0134136 C11.9601649,12.9343314 11.9569697,12.6881231 12.2586936,12.5400105 C13.0521835,12.1502916 15.7973696,11.9103807 16.1356108,12.547398" id="Fill-217" fill="#909090"></path>
                <path d="M14.0953006,14.7639153 C14.4174546,14.7639153 14.6804855,14.5034682 14.6804855,14.1840709 C14.6804855,13.8646735 14.4174546,13.6038934 14.0953006,13.6038934 C13.7734824,13.6038934 13.5104515,13.8646735 13.5104515,14.1840709 C13.5104515,14.5034682 13.7734824,14.7639153 14.0953006,14.7639153" id="Fill-222" fill="#909090"></path>
                <path d="M19.366279,12.5971679 C19.366279,12.5971679 19.3010676,12.8699088 19.6134439,12.9131466 C19.9256682,12.9563845 20.1000214,12.7252331 21.0465748,12.7138214 C21.9929763,12.702156 22.6896288,13.1016941 23.1187472,13.0102733 C23.5480176,12.9189793 23.5437614,12.6612005 23.2382254,12.5122138 C22.4337994,12.1199031 19.6848876,11.9234942 19.366279,12.5971679" id="Fill-225" fill="#909090"></path>
                <path d="M21.9931981,14.1840652 C21.9931981,13.8648581 21.7302326,13.6038934 21.4081811,13.6038934 C21.0861296,13.6038934 20.8231641,13.8648581 20.8231641,14.1840652 C20.8231641,14.5029506 21.0861296,14.7639153 21.4081811,14.7639153 C21.7302326,14.7639153 21.9931981,14.5029506 21.9931981,14.1840652 Z" id="Fill-230" fill="#909090"></path>
            </g>
            <g id="Notes-+-Coins" transform="translate(46.715328, 238.530892)">
                <g id="Money-fly-Copy-5" transform="translate(0.000000, 14.160225)">
                    <g id="Group">
                        <path d="M14.7867994,4.93092587 L10.0798761,0.272956977 C9.84641274,0.0419217201 9.50798496,-0.050771861 9.18744349,0.0274820165 C9.01846494,0.0684721428 8.86737271,0.154644567 8.74781685,0.272956977 C8.6409697,0.378692871 8.56048131,0.509581797 8.51435346,0.655842021 C8.30112984,1.34009765 7.93257775,1.93492028 7.38704534,2.47431308 C6.65841363,3.19490087 5.7094979,3.74081482 4.70551117,4.31793717 C3.63986375,4.92906269 2.5389144,5.56254646 1.63659721,6.4550133 C0.869839416,7.21472802 0.347841628,8.05968358 0.0418916169,9.04065183 C-0.0611900022,9.37183342 0.0287122318,9.73003123 0.27535501,9.97504039 L4.98227826,14.6330093 C5.21574165,14.8640445 5.55416943,14.9567381 5.8747109,14.8784842 C6.04368945,14.8365625 6.19478169,14.7513217 6.31433754,14.6330093 C6.42118469,14.5272734 6.50167308,14.3963845 6.54780093,14.2491926 C6.76149524,13.564937 7.13004733,12.9701144 7.67605043,12.4307216 C8.40421146,11.7101338 9.35265649,11.1651514 10.3575846,10.5884949 C11.4222906,9.97643778 12.5237107,9.34295401 13.4255572,8.45048717 C14.192315,7.69170404 14.7143128,6.84581689 15.0207335,5.86484864 C15.1233444,5.53413284 15.0329715,5.17453765 14.7867994,4.93092587 Z" id="Shape" fill="#FEBBBA"></path>
                        <path d="M7.07216706,11.231567 L7.07122567,11.231567 C6.77704297,11.4551495 6.48992065,11.6908427 6.22397949,11.9549495 C5.96839355,12.2078772 5.73728362,12.4743131 5.536298,12.7463384 L5.21434445,13.1813927 L5.21528583,13.1823243 C5.15644929,13.2731547 5.16633383,13.3951935 5.24635153,13.474379 C5.33813653,13.5652094 5.48828738,13.5652094 5.58054308,13.474379 C5.59466385,13.4599393 5.60596046,13.444568 5.61537431,13.4277993 L5.91614671,13.020227 C6.10254087,12.7682309 6.31811795,12.5199611 6.55675896,12.2842679 C6.82081735,12.0229559 7.06557736,11.8212658 7.3635256,11.5972175 L7.36258422,11.5962859 C7.37105668,11.5897648 7.37905845,11.584641 7.38658953,11.5771882 C7.47884522,11.4863579 7.47884522,11.3377686 7.38658953,11.2469382 C7.30139422,11.1612316 7.16489344,11.1575052 7.07216706,11.231567 Z" id="Shape" fill="#F5F5F5"></path>
                        <path d="M8.44551471,2.68380523 C8.19934262,2.927417 7.93246008,3.14680734 7.65569299,3.35595014 C7.6363946,3.36666347 7.61709622,3.37877419 7.60062199,3.39600867 C7.5078956,3.48777066 7.5078956,3.63729146 7.60062199,3.72905345 C7.69052422,3.81895225 7.83596815,3.82081544 7.92963592,3.73557461 L7.93151869,3.7365062 C8.22570139,3.51292369 8.51235302,3.27629887 8.77829418,3.01312363 C9.03388012,2.76019592 9.26451935,2.49469169 9.46597567,2.22266631 L9.78792922,1.78574883 L9.78698783,1.78481723 C9.86700553,1.69212365 9.86323999,1.55378197 9.77522053,1.46621216 C9.68249414,1.37445017 9.53234329,1.37445017 9.4396169,1.46621216 C9.42220128,1.48344664 9.40949259,1.50347591 9.39819597,1.52350518 L9.08565627,1.94738035 C8.89879142,2.20077385 8.68368503,2.448112 8.44551471,2.68380523 Z" id="Shape" fill="#F5F5F5"></path>
                        <path d="M6.12173338,5.40379078 L6.12173338,5.4095978 L6.10773568,5.4095978 L6.10773568,6.00423792 L6.72128865,6.00423792 C7.27864358,6.00423792 7.55998376,6.26687815 7.66144769,6.59307103 L6.12173338,6.59307103 L6.12173338,7.18771115 L7.66144769,7.18771115 C7.56031223,7.51413605 7.27932322,7.77770564 6.72128865,7.77770564 L6.52999111,7.77770564 L6.52765776,7.7753828 L6.52532501,7.77770564 L6.10773568,7.77770564 L6.10773568,8.37234606 L6.28386974,8.37234606 L8.10586485,10.1609118 L8.52578693,9.7381595 L7.0957191,8.3328578 C7.74352577,8.19761106 8.15945124,7.71755197 8.27383368,7.18771115 L9.08918277,7.18771115 L9.08918277,6.59307103 L8.27383368,6.59307103 C8.22750176,6.37915887 8.1270561,6.17687134 7.98688737,5.9984309 L9.08918277,5.9984309 L9.08918277,5.40379078 L6.12173338,5.40379078 Z" id="Path" fill="#FFFFFF" transform="translate(7.598459, 7.782351) rotate(-45.000000) translate(-7.598459, -7.782351) "></path>
                    </g>
                </g>
                <g id="Money-fly-Copy-4" transform="translate(24.676041, 10.948717) rotate(79.000000) translate(-24.676041, -10.948717) translate(15.676041, 1.948717)">
                    <g id="Group" transform="translate(-0.000000, 0.000000)">
                        <path d="M17.6033326,5.91711105 L11.9998525,0.327548373 C11.7219199,0.0503060641 11.3190297,-0.0609262332 10.9374327,0.0329784198 C10.7362678,0.0821665713 10.5563961,0.185573481 10.4140677,0.327548373 C10.2868687,0.454431445 10.1910492,0.611498157 10.1361351,0.787010425 C9.88229743,1.60811718 9.44354494,2.32190434 8.7941016,2.96917569 C7.92668289,3.83388104 6.79702131,4.48897778 5.60179901,5.1815246 C4.33317113,5.91487522 3.02251714,6.67505575 1.94833002,7.74601595 C1.03552311,8.65767363 0.414097176,9.6716203 0.0498709725,10.8487822 C-0.0728452407,11.2462001 0.0341812283,11.6760375 0.327803583,11.9700485 L5.93128364,17.5596111 C6.20921625,17.8368535 6.61210647,17.9480857 6.99370346,17.8541811 C7.19486839,17.803875 7.3747401,17.701586 7.5170685,17.5596111 C7.64426749,17.4327281 7.740087,17.2756614 7.79500111,17.0990312 C8.0493991,16.2779244 8.48815159,15.5641373 9.13815528,14.9168659 C10.0050136,14.0521606 11.1341149,13.3981817 12.3304579,12.7061939 C13.5979651,11.9717253 14.9091794,11.2115448 15.9828062,10.1405846 C16.8956131,9.23004484 17.517039,8.21498026 17.8818256,7.03781836 C18.0039814,6.64095941 17.8963946,6.20944518 17.6033326,5.91711105 Z" id="Shape" fill="#FEBBBA"></path>
                        <path d="M8.41924649,13.4778803 L8.4181258,13.4778803 C8.0679083,13.7461794 7.72609601,14.0290112 7.40949939,14.3459394 C7.10523042,14.6494527 6.83009955,14.9691757 6.59083095,15.2956061 L6.20755292,15.8176713 L6.20867361,15.8187892 C6.13863011,15.9277857 6.15039742,16.0742322 6.24565658,16.1692548 C6.35492444,16.2782512 6.53367546,16.2782512 6.64350366,16.1692548 C6.66031411,16.1519271 6.67376246,16.1334816 6.68496942,16.1133591 L7.04303179,15.6242724 C7.2649296,15.3218771 7.52156899,15.0239534 7.80566543,14.7411215 C8.12002066,14.427547 8.41140162,14.185519 8.76610191,13.916661 L8.76498121,13.9155431 C8.77506748,13.9077177 8.78459339,13.9015692 8.79355896,13.8926259 C8.90338717,13.7836294 8.90338717,13.6053224 8.79355896,13.4963259 C8.69213597,13.3934779 8.52963505,13.3890063 8.41924649,13.4778803 Z" id="Shape" fill="#F5F5F5"></path>
                        <path d="M10.0541842,3.22056627 C9.76112217,3.5129004 9.44340485,3.7761688 9.11392022,4.02714017 C9.09094596,4.03999616 9.06797169,4.05452903 9.04835951,4.07521041 C8.93797095,4.18532479 8.93797095,4.36474975 9.04835951,4.47486414 C9.15538598,4.5827427 9.32853351,4.58497852 9.44004276,4.48268953 L9.44228416,4.48380744 C9.79250166,4.21550843 10.1337536,3.93155865 10.4503502,3.61574836 C10.7546192,3.3122351 11.0291897,2.99363003 11.2690187,2.66719957 L11.6522967,2.14289859 L11.651176,2.14178068 C11.7464352,2.03054838 11.7419524,1.86453837 11.6371673,1.75945459 C11.5267787,1.64934021 11.3480277,1.64934021 11.2376392,1.75945459 C11.2169063,1.78013597 11.2017769,1.80417109 11.1883285,1.82820621 L10.8162575,2.33685642 C10.5937993,2.64092862 10.3377203,2.9377344 10.0541842,3.22056627 Z" id="Shape" fill="#F5F5F5"></path>
                        <path d="M7.28777783,6.48454894 L7.28777783,6.49151736 L7.2711139,6.49151736 L7.2711139,7.2050855 L8.0015341,7.2050855 C8.66505188,7.2050855 8.99998067,7.52025378 9.12077105,7.91168523 L7.28777783,7.91168523 L7.28777783,8.62525338 L9.12077105,8.62525338 C9.0003717,9.01696326 8.66586097,9.33324677 8.0015341,9.33324677 L7.77379894,9.33324677 L7.77102114,9.33045936 L7.76824406,9.33324677 L7.2711139,9.33324677 L7.2711139,10.0468153 L7.4807973,10.0468153 L9.64983911,12.1930941 L10.1497464,11.6857914 L8.44728464,9.99942936 C9.21848306,9.83713328 9.71363243,9.26106236 9.84980201,8.62525338 L10.8204557,8.62525338 L10.8204557,7.91168523 L9.84980201,7.91168523 C9.79464495,7.65499065 9.67506678,7.41224561 9.50819926,7.19811708 L10.8204557,7.19811708 L10.8204557,6.48454894 L7.28777783,6.48454894 Z" id="Path" fill="#FFFFFF" transform="translate(9.045785, 9.338822) rotate(-45.000000) translate(-9.045785, -9.338822) "></path>
                    </g>
                </g>
                <path d="M21.8016158,26.8299008 C24.8758008,26.8299008 27.3673966,29.3317891 27.3673966,32.4194635 C27.3673966,35.5086858 24.8758153,38.0090262 21.8016158,38.0090262 C18.7264296,38.0090262 16.2725061,35.5117816 16.2725061,32.4194635 C16.2725061,29.3286073 18.7264441,26.8299008 21.8016158,26.8299008 Z M19.7096554,29.2202223 L19.7096554,29.2286201 L19.6896521,29.2286201 L19.6896521,30.0885528 L20.5664421,30.0885528 C21.3629229,30.0885528 21.7649685,30.4683673 21.9099642,30.9400877 L19.7096554,30.9400877 L19.7096554,31.8000205 L21.9099642,31.8000205 C21.7654379,32.2720765 21.3638942,32.6532349 20.5664421,32.6532349 L20.2930708,32.6532349 L20.2897364,32.6498758 L20.2864028,32.6532349 L19.6896521,32.6532349 L19.6896521,33.5131681 L19.9413542,33.5131681 L22.5450528,36.099684 L23.145137,35.4883252 L21.1015171,33.4560625 C22.0272568,33.2604769 22.6216297,32.5662443 22.7850865,31.8000205 L23.9502505,31.8000205 L23.9502505,30.9400877 L22.7850865,30.9400877 C22.7188764,30.6307409 22.5753359,30.3382048 22.3750296,30.080155 L23.9502505,30.080155 L23.9502505,29.2202223 L19.7096554,29.2202223 Z" id="Combined-Shape" fill="#FEBBBA" transform="translate(21.819951, 32.419464) rotate(-20.000000) translate(-21.819951, -32.419464) "></path>
            </g>
        </g>
    </g>
</svg>