<?xml version="1.0" encoding="UTF-8" standalone="no"?>
<svg width="38px" height="38px" viewBox="0 0 38 38" version="1.1" xmlns="http://www.w3.org/2000/svg" xmlns:xlink="http://www.w3.org/1999/xlink">
    <!-- Generator: Sketch 39.1 (31720) - http://www.bohemiancoding.com/sketch -->
    <title>Card_Icon1</title>
    <desc>Created with Sketch.</desc>
    <defs>
        <rect id="path-1" x="0" y="5.86666667" width="32" height="2.93333333"></rect>
        <mask id="mask-2" maskContentUnits="userSpaceOnUse" maskUnits="objectBoundingBox" x="0" y="0" width="32" height="2.93333333" fill="white">
            <use xlink:href="#path-1"></use>
        </mask>
    </defs>
    <g id="Page-1" stroke="none" stroke-width="1" fill="none" fill-rule="evenodd">
        <g id="Card" transform="translate(3.000000, 8.000000)">
            <g id="Card_Icon" stroke="#000000">
                <use id="Rectangle" mask="url(#mask-2)" stroke-width="2.8952381" fill="#000000" xlink:href="#path-1"></use>
                <path d="M0.188235294,6.00682667 L0.188235294,17.5538773 C0.188235294,19.802496 1.99560784,21.62624 4.22572549,21.62624 L27.7753725,21.62624 C30.0054902,21.62624 31.8128627,19.8036053 31.8128627,17.5538773 L31.8128627,6.00682667 L0.189333333,6.00682667 L0.188235294,6.00682667 Z M4.22572549,0.0187733333 C1.99560784,0.0187733333 0.188235294,1.841408 0.188235294,4.091136 L0.188235294,5.69856 L31.8117647,5.69856 L31.8117647,4.091136 C31.8117647,1.84251733 30.0043922,0.0187733333 27.7742745,0.0187733333 L4.22462745,0.0187733333 L4.22572549,0.0187733333 Z" id="Shape" stroke-width="1.07365886"></path>
            </g>
            <g id="Circle" transform="translate(4.363636, 13.200000)">
                <path d="M6.54298754,3.90258156 C5.56396656,3.90258156 4.72480572,3.09168412 4.72480572,2.06924823 C4.72480572,1.04681233 5.52900153,0.235914894 6.54298754,0.235914894 C7.52200852,0.235914894 8.36116936,1.04681233 8.36116936,2.06924823 C8.36116936,3.09168412 7.52200852,3.90258156 6.54298754,3.90258156 L6.54298754,3.90258156 Z" id="Path" fill="#000000"></path>
                <path d="M1.96028124,3.90258156 C0.981260259,3.90258156 0.14209942,3.09168412 0.14209942,2.06924823 C0.14209942,1.04681233 0.946295224,0.235914894 1.96028124,0.235914894 C2.93930222,0.235914894 3.77846306,1.04681233 3.77846306,2.06924823 C3.77846306,3.09168412 2.93930222,3.90258156 1.96028124,3.90258156 L1.96028124,3.90258156 Z" id="Path" fill="#EF5350"></path>
            </g>
            <g id="Sign" transform="translate(20.363636, 13.200000)" fill="#EF5350">
                <path d="M7.14967686,3.33747504 L7.13921343,3.23156114 C7.10847259,3.2393421 6.64757649,3.30774483 0.0328118393,3.30774483 L0.0328118393,3.52503091 C3.71153773,3.52503091 5.45200321,3.50354618 6.26432627,3.48554546 C7.22097252,3.46440914 7.22097252,3.46440914 7.22097252,3.33747504 L7.14967686,3.33747504 L7.14967686,3.33747504 Z" id="Shape"></path>
                <path d="M0.706892178,2.81308343 C0.716109937,2.80292571 0.877378436,2.61495771 0.883044397,2.60832 C1.05336152,2.39752229 1.20930233,2.17163886 1.35805497,1.93911771 C1.29319239,2.16429714 1.2377167,2.39299657 1.17581395,2.61938286 C1.13327696,2.74459429 1.122537,2.87342629 1.12541226,3.00658286 C1.12794926,3.09538743 1.13708245,3.15975314 1.22334038,3.16246857 C1.50765328,3.05656686 1.72837209,2.81760914 1.93167019,2.57422629 C2.03323467,2.4464 2.13598309,2.31968 2.24143763,2.19617829 C2.26613108,2.21397943 2.28642706,2.24053029 2.30469345,2.266176 C2.35044397,2.34069943 2.39382664,2.38203429 2.47171247,2.39058286 C2.55450317,2.391488 2.63763214,2.37378743 2.71991543,2.38887314 C2.80997886,2.42357029 2.90198732,2.45042286 2.99331924,2.480192 C3.04490486,2.49769143 3.09716702,2.517504 3.15095137,2.52444343 C3.24862579,2.53691429 3.38909091,2.53138286 3.48093023,2.52917029 C3.6835518,2.52444343 3.88625793,2.51780571 4.08887949,2.51227429 C4.59737844,2.49869714 5.10630021,2.50231771 5.61446089,2.47224686 C5.87712474,2.45685943 5.98232558,2.443584 6.24067653,2.41713371 C6.33682875,2.40315429 6.43289641,2.38907429 6.52904863,2.37479314 L6.82697674,2.11049143 C6.73048626,2.12557714 6.63399577,2.14066286 6.53733615,2.15594971 C6.30021142,2.18300343 6.14274841,2.20331886 5.90274841,2.22081829 C5.39678647,2.25752686 4.88980973,2.25792914 4.38283298,2.25752686 C4.17369979,2.25742629 4.00448203,2.25833143 3.7982241,2.25521371 C3.75196617,2.25450971 3.55551797,2.25179429 3.49014799,2.24314514 C3.43839323,2.23630629 3.38655391,2.21699657 3.33657505,2.20060343 C3.24684989,2.16872229 3.15661734,2.13905371 3.06883721,2.10063543 C2.98630021,2.073984 2.90114165,2.09329371 2.81665962,2.093696 C2.73945032,2.09892571 2.71501057,2.08373943 2.66697674,2.00660114 C2.65589852,1.99101257 2.61911205,1.93821257 2.60693446,1.92574171 C2.43323467,1.74722743 2.14596195,2.09701486 2.05158562,2.1648 C1.8777167,2.35397486 1.71780127,2.56024686 1.55298097,2.760384 C1.53513742,2.78090057 1.51983087,2.79860114 1.50401691,2.81680457 C1.50317125,2.79900343 1.50308668,2.78210743 1.50224101,2.77667657 C1.49911205,2.65076114 1.51315011,2.52906971 1.54942918,2.409792 C1.60862579,2.17656686 1.66520085,1.94203429 1.73767442,1.71383771 C1.7984778,1.53270857 1.85953488,1.35178057 1.92794926,1.17447314 C2.00498943,0.960356571 2.07458774,0.742820571 2.13564482,0.521462857 C2.17336152,0.385088 2.21327696,0.243785143 2.20287526,0.0981577143 C2.14765328,-0.184649143 1.79551797,0.215222857 1.75162791,0.410532571 C1.66224101,0.642450286 1.57006342,0.872557714 1.49023256,1.109504 C1.4761945,1.14762057 1.39813953,1.360832 1.38291755,1.39854629 C1.29877378,1.606528 1.19272727,1.800128 1.08219873,1.98920229 C0.904778013,2.27070171 0.716617336,2.54244571 0.508160677,2.79246629 C0.421564482,2.89162971 0.335983087,2.99018971 0.241437632,3.07879314 C0.217082452,3.10162286 0.139365751,3.16206629 0.167272727,3.14567314 C0.29192389,3.07285943 0.591120507,2.85834057 0.423678647,2.97812114 L0.0915010571,3.29371429 C0.309598309,3.15623314 0.524566596,3.01110857 0.706892178,2.81308343 Z M2.19131436,2.187328 C1.94478946,2.372832 2.05806463,2.239248 2.19131436,2.187328 L2.19131436,2.187328 L2.19131436,2.187328 Z M1.54004228,2.90559738 C1.65320592,2.82710138 1.70615137,2.78943738 1.57975137,2.87884538 C1.56651501,2.88694138 1.5534241,2.89750138 1.54004228,2.90559738 Z" id="Shape"></path>
            </g>
        </g>
    </g>
</svg>