<?xml version="1.0" encoding="UTF-8" standalone="no"?>
<svg width="38px" height="38px" viewBox="0 0 38 38" version="1.1" xmlns="http://www.w3.org/2000/svg" xmlns:xlink="http://www.w3.org/1999/xlink">
    <!-- Generator: Sketch 39.1 (31720) - http://www.bohemiancoding.com/sketch -->
    <title>FreeCharge</title>
    <desc>Created with Sketch.</desc>
    <defs></defs>
    <g id="Page-1" stroke="none" stroke-width="1" fill="none" fill-rule="evenodd">
        <g id="FreeCharge" transform="translate(3.000000, 3.000000)">
            <path d="M14.1273613,0.110324762 C16.8080674,-0.208384314 19.5681956,0.166718325 22.0652917,1.19291028 C24.5196878,2.1934688 26.709344,3.82460989 28.3883081,5.87528491 C30.3490922,8.26004907 31.5933702,11.2266923 31.9110583,14.299287 C32.1971483,17.0138681 31.7923522,19.8027861 30.7069182,22.3105908 C29.6044041,24.8935868 27.795632,27.1647094 25.5444879,28.8419907 C22.5725677,31.0661186 18.8047195,32.199971 15.1000673,31.970979 C12.2613712,31.824014 9.47049899,30.8883935 7.11004286,29.304247 C4.52156872,27.57399 2.4480566,25.0764387 1.24562453,22.2020759 C0.034652463,19.3482198 -0.294137556,16.1380589 0.262670476,13.0910976 C0.822040507,10.0159396 2.31739459,7.11850664 4.49851071,4.88070753 C7.02976686,2.24131789 10.4944451,0.52302311 14.1273613,0.110324762 L14.1273613,0.110324762 Z" id="Shape" fill="#E57551"></path>
            <path d="M16.61696,7.23923219 C17.64352,6.70845886 18.8288,6.62227219 19.9637333,6.66579219 C20.3938133,6.67773886 20.82048,6.73832553 21.2420267,6.82536553 C21.1054933,7.64797886 20.8810667,8.45352553 20.7214933,9.27272553 C19.8178133,9.06877886 18.7392,8.88275219 17.9498667,9.49544553 C17.14176,10.1798189 17.1511467,11.3284055 16.99584,12.2901122 C17.8884267,12.2918189 18.78016,12.2918189 19.6727467,12.2849922 C19.5899733,12.7918722 19.4901333,13.2961922 19.3988267,13.8013655 C19.3757867,14.0283522 19.16928,14.1606189 19.0276267,14.3159255 C17.6810667,15.6573655 16.3293867,16.9953922 14.99392,18.3479255 C15.8429867,18.3564589 16.6929067,18.3385389 17.5419733,18.3487789 C15.2686933,20.6698455 13.0372267,23.0327255 10.752,25.3426989 C11.5694933,23.7290455 12.40064,22.1230722 13.2164267,20.5085655 C12.4859733,20.5025922 11.75552,20.5153922 11.0250667,20.5085655 C12.02432,18.5433389 13.0269867,16.5798189 14.0168533,14.6094722 C13.2522667,14.6086189 12.4885333,14.6103255 11.7248,14.6086189 C11.8289067,13.8372055 11.9296,13.0649389 12.0456533,12.2943789 C12.51328,12.2790189 12.9954133,12.3566722 13.4519467,12.2235522 C13.7796267,12.1143255 13.9639467,11.7900589 14.0637867,11.4802989 C14.3044267,10.7472855 14.4162133,9.97160553 14.74816,9.27016553 C15.12448,8.41256553 15.77472,7.66333886 16.61696,7.23923219 L16.61696,7.23923219 Z" id="Shape" fill="#FFFEFD"></path>
        </g>
    </g>
</svg>