<?xml version="1.0" encoding="UTF-8" standalone="no"?>
<svg width="400px" height="105px" viewBox="0 0 400 105" version="1.1" xmlns="http://www.w3.org/2000/svg" xmlns:xlink="http://www.w3.org/1999/xlink">
    <!-- Generator: Sketch 39.1 (31720) - http://www.bohemiancoding.com/sketch -->
    <title>Layer_x0020_1</title>
    <desc>Created with Sketch.</desc>
    <defs></defs>
    <g id="Page-1" stroke="none" stroke-width="1" fill="none" fill-rule="evenodd">
        <g id="Layer_x0020_1" transform="translate(19.000000, 20.000000)" fill="#4A4A4A">
            <g id="_761103870080">
                <path d="M9.00506731,6.99509521 C9.00506731,15.3404501 8.56037263,41.8580496 8.56037263,50.1846509 C8.56037263,50.2971725 8.61595946,50.372187 8.74566208,50.2409117 L25.2364232,26.255049 C25.29201,25.0548182 25.3475969,23.9296018 25.4402416,22.9356607 C25.5328863,21.9604732 26.7187388,20.966532 27.7934176,20.8915176 C27.7934176,20.8915176 29.4795516,20.872764 30.4430568,20.9852856 L33.8338537,20.7039815 C34.6491273,20.6289671 35.2049956,21.397865 35.1679378,22.2417773 C35.0382351,24.6797461 34.4823668,25.7111945 32.4812407,27.4740335 C29.3127911,31.7123485 26.5890362,34.78794 23.4205866,39.026255 C23.2352971,39.2512983 23.1055945,39.5326024 23.4391155,39.9076746 L35.6496903,55.3606463 C36.8355428,56.0732833 37.9102216,57.2360069 38.5587347,58.1736872 C39.133132,58.9800923 37.9102216,60.8366994 37.1505349,61.6055972 C35.8905666,62.8245817 31.8141987,65.5626082 30.5912883,63.9310444 C29.8130726,62.9183497 29.3869069,61.3618003 29.1275017,59.8615118 L28.8125096,59.4489325 C24.9029022,54.516734 22.6238419,50.1846509 18.6771766,45.271206 C18.6215898,45.2149452 18.547474,45.2524524 18.5289451,45.271206 L10.2835645,58.0236584 C9.91298562,61.4930756 10.9691355,64.0810733 7.07805702,64.5124062 C7.07805702,64.5124062 6.07749399,64.474899 5.11398884,64.3998846 L1.59348928,64.474899 C0.778215693,64.4936526 0.389107847,63.8185228 0.203818396,62.9746105 C-0.129702616,61.5118292 0.889389364,58.5862666 1.00056303,57.948644 C1.1117367,57.4047894 0.463223627,13.0900173 0.518810462,7.29515291 C-0.129702616,5.92613964 -9.23976173e-13,3.82573572 0.0741157803,2.56924409 C0.11117367,1.57530294 1.03762092,0.693883439 2.09377079,0.562608194 C2.09377079,0.562608194 5.11398884,0.337564916 6.09602293,0.393825736 L8.35655423,0.337564916 C9.17182781,0.31881131 9.69063828,0.975187536 9.76475406,1.81909983 C9.83886984,2.86930179 9.70916722,5.83237161 9.00506731,6.99509521 L9.00506731,6.99509521 Z" id="Shape"></path>
                <path d="M182.528638,27.0989613 C183.621846,26.9676861 184.41859,27.9053664 184.400061,29.06809 C184.400061,30.7934218 184.214772,32.5750144 183.510672,34.694172 L183.510672,56.5233699 C184.455648,58.3049625 184.474177,59.9365263 184.492706,61.6431044 C184.492706,62.7870744 183.862722,63.5747259 182.788043,63.8185228 C180.768388,64.2686093 179.397246,64.3061166 177.359062,64.2686093 C175.950862,64.0998269 174.93177,64.1185805 174.857655,62.7870744 C174.802068,61.6243508 174.598249,59.9927871 174.616778,58.4362377 C174.616778,58.2299481 174.616778,58.1549336 174.41296,58.3237161 C172.930644,59.6739758 169.613963,63.0683785 167.668424,63.6872475 C155.105799,67.6817657 145.118698,57.9861512 144.414598,45.1024235 C144.229308,42.3268898 144.525772,39.1200231 145.174285,36.119446 C148.639197,20.7602424 166.704919,16.0343335 172.078313,23.9483555 C172.800942,25.1673399 172.337718,26.78015 171.24451,26.8176572 C162.776783,27.1177149 157.181041,25.7111945 153.401136,36.7945759 C148.861545,58.7925563 164.852024,65.3938257 175.28382,52.0412579 C175.450581,51.8162147 175.63587,51.5724178 175.802631,51.3286209 L175.598813,35.7256203 C175.042944,33.6627236 174.672365,31.3747836 174.783539,29.4056549 C174.839126,28.0741489 175.858218,27.5115407 177.284947,27.3240046 C177.284947,27.3240046 178.63756,27.305251 179.934586,27.3802654 L182.528638,27.0989613 L182.528638,27.0989613 Z" id="Shape"></path>
                <path d="M198.574704,0.63762262 C198.574704,0.63762262 199.649383,0.63762262 200.76112,0.675129833 C200.816707,0.5813618 200.835236,0.525100981 200.835236,0.525100981 L200.909351,0.693883439 C200.983467,0.693883439 201.039054,0.693883439 201.11317,0.712637046 L204.09633,0.562608194 C205.133951,0.525100981 205.875109,1.35025967 205.875109,2.43796884 C205.893638,4.25706867 205.967753,6.6762839 204.874546,8.45787651 L204.985719,55.84824 C205.912167,58.2299481 206.078927,59.9552799 205.986282,61.9806694 C205.912167,63.2559146 204.948662,63.7997692 203.596049,63.9685516 C203.596049,63.9685516 202.299022,63.9873053 201.057583,63.9122908 L200.223781,63.949798 L198.074423,64.0435661 C197.036802,64.0998269 196.277115,63.2746682 196.277115,62.1682054 C196.295644,60.6116561 196.72181,58.6050202 197.555612,56.9547028 C198.018836,49.3594922 197.42591,14.0839585 197.314736,8.62665897 C196.610636,6.73254472 196.091826,4.36959031 196.18447,2.6255049 C196.240057,1.36901327 197.222091,0.806405078 198.574704,0.63762262 L198.574704,0.63762262 Z" id="Shape"></path>
                <path d="M220.809439,21.1728217 C220.809439,21.1728217 221.902646,21.1540681 223.032912,21.2103289 C223.088499,21.1165609 223.107028,21.0603001 223.107028,21.0603001 L223.181143,21.2290825 L223.403491,21.2290825 L226.275477,21.0978073 C227.331627,21.0415465 227.998669,21.9042123 228.091314,23.0106751 C228.221017,24.829775 228.128372,27.0614541 226.92399,28.8055395 L227.127809,56.0170225 C227.794851,58.5487594 228.443364,60.1803231 228.33219,62.2619735 C228.276603,63.5372187 227.294569,64.0998269 225.904898,64.2686093 C225.904898,64.2686093 224.589343,64.287363 223.329375,64.2123485 L222.495573,64.2498557 L220.309157,64.3436238 C219.253007,64.3998846 218.474791,63.5559723 218.49332,62.4307559 C218.49332,60.855453 218.641552,58.8300635 219.475354,57.1422389 C219.938578,49.4345066 219.345652,34.5253895 219.234478,28.9930756 C218.252444,27.1739758 218.308031,24.9422966 218.382147,23.1982112 C218.456262,21.9042123 219.438297,21.3416042 220.809439,21.1728217 L220.809439,21.1728217 Z" id="Shape"></path>
                <path d="M227.943082,6.80755915 L227.943082,10.0706867 C227.998669,11.3459319 227.98014,11.2146567 227.98014,11.2146567 C227.831909,12.6024235 227.665148,13.8401616 226.05313,14.0276976 L222.699391,14.440277 C221.550596,14.5152914 220.364744,14.4965378 220.364744,14.4965378 C219.308594,14.3465089 218.511849,13.915176 218.252444,13.0150029 C218.085684,12.6399308 217.993039,12.2085978 217.937452,11.7022504 C217.937452,11.7022504 217.918923,11.8335257 217.993039,10.5582804 L218.122741,7.01384882 C218.159799,5.94489325 218.808312,5.5135603 219.716231,5.2135026 C219.808875,5.19474899 219.882991,5.2135026 219.975636,5.2135026 C220.160925,5.17599538 220.346215,5.13848817 220.550033,5.10098096 C220.550033,5.10098096 221.754415,4.9321985 222.88468,5.00721293 L225.775196,4.87593768 L225.960485,4.87593768 L226.201362,4.87593768 C227.201925,4.85718407 227.961611,5.73860358 227.943082,6.80755915 L227.943082,6.80755915 Z" id="Shape"></path>
                <path d="M330.723141,9.20802077 C330.723141,13.483843 330.537851,27.0802077 330.574909,27.736584 C330.611967,28.542989 331.186364,28.2616849 331.186364,28.2616849 C335.670369,23.8545874 336.170651,23.1794576 339.505861,21.6604155 C343.767518,19.728794 348.529457,20.9102712 348.529457,20.9102712 C356.645135,22.5605886 359.832113,30.2495672 359.832113,30.2495672 C363.482316,38.4824005 362.500282,51.1223312 356.756309,58.0799192 C356.237498,58.8863243 350.122946,64.9249856 340.247018,64.0810733 C331.482827,63.3496826 325.275631,58.7362954 324.478886,58.2674553 C323.682142,57.7798615 323.867431,56.99221 323.867431,56.99221 L323.867431,55.9795153 L323.459794,9.69561454 C322.940984,7.70773226 322.181297,4.27582227 322.255413,2.40046163 C322.311,1.1627236 323.293034,0.618869013 324.627118,0.450086555 C324.627118,0.450086555 325.905615,0.431332949 327.147054,0.506347374 L330.093157,0.375072129 C331.112249,0.31881131 331.871935,1.14396999 331.853406,2.23167917 C331.853406,4.0695326 331.871935,7.44518177 330.723141,9.20802077 L330.723141,9.20802077 Z M330.74167,41.4079631 L330.871372,53.2602424 C330.871372,53.2602424 330.889901,54.516734 331.946051,55.5106751 C335.65184,59.1113676 340.321134,59.3739181 344.805139,58.7738027 C357.25659,57.1047317 357.071301,28.1116561 345.268363,26.2738027 C339.413216,24.8110214 335.151559,29.2743797 331.408712,33.212637 C330.926959,33.7002308 330.723141,34.1878246 330.704612,34.8442008 C330.649025,36.4382574 330.74167,41.4079631 330.74167,41.4079631 L330.74167,41.4079631 Z" id="Shape"></path>
                <path d="M289.218304,46.6214657 C289.218304,46.6214657 301.169473,46.6214657 308.488407,41.6330063 C314.695603,37.3946913 314.58443,32.2186959 312.490659,27.2864974 C312.490659,27.2864974 309.433383,21.2665897 303.411476,20.778996 C303.411476,20.778996 289.496238,17.7409117 281.565849,30.9997115 C281.565849,30.9997115 275.025132,40.1139642 281.195271,53.6353145 C289.366535,69.7446624 306.042586,62.6557992 306.042586,62.6557992 C306.042586,62.6557992 311.490096,60.0115407 313.213288,57.0672245 C314.93648,54.1229083 313.417106,52.9226774 313.417106,52.9226774 C313.417106,52.9226774 311.508625,50.3346797 308.78487,52.9976919 C308.78487,52.9976919 307.006091,56.1670514 304.20822,57.5548182 C292.646159,63.3121754 282.140247,47.2778419 289.218304,46.6214657 L289.218304,46.6214657 Z M290.015048,32.0874207 C290.015048,32.0874207 295.4255,24.0233699 302.707376,27.0614541 C308.747812,30.3620889 306.524338,35.7256203 305.505246,36.9258511 C301.984747,40.5828044 293.202027,42.1018465 287.847162,42.270629 C287.847162,42.270629 286.920715,42.7019619 286.865128,41.6705136 C286.457491,38.4824005 289.496238,32.5750144 290.015048,32.0874207 L290.015048,32.0874207 Z" id="Shape"></path>
                <path d="M55.3830168,8.1390652 L55.32743,27.9991344 C55.32743,28.355453 55.4756616,28.2616849 55.7165379,28.0741489 C56.4021088,27.5115407 57.9955981,25.3736295 60.3302452,23.6482977 C63.6839842,21.1915753 70.0949992,19.2599538 75.3201617,21.5291402 C84.2511133,25.9549913 83.1208476,37.1133872 83.1208476,37.1133872 L83.8249475,56.4483555 C84.8255106,58.2487017 84.9366842,60.6116561 84.8440395,62.3744951 C84.7884527,63.6497403 83.8064186,64.2123485 82.4167477,64.381131 C82.4167477,64.381131 81.1011926,64.4186382 79.8412243,64.3248702 L76.8210063,64.474899 C75.7648564,64.5124062 75.1348723,63.6684939 75.0051697,62.5620312 C74.8569381,61.2867859 75.3942775,58.1549336 76.2280801,56.7859204 L75.6907406,33.212637 C75.0978144,27.2677438 70.187644,26.0862666 70.187644,26.0862666 C61.071403,24.5484709 56.3094641,32.1624351 55.4386037,33.6814772 C55.2347853,33.9815349 55.2903721,33.8690133 55.2903721,34.2065782 L55.32743,55.4731679 C56.4762246,57.2922677 56.7541588,60.6116561 56.6615141,62.4682631 C56.6059272,63.762262 55.6238931,64.3061166 54.2342222,64.4936526 C54.2342222,64.4936526 52.9186671,64.5124062 51.6586989,64.4186382 L48.6384808,64.5686671 C47.582331,64.6249279 47.1376363,63.7810156 47.1376363,62.6557992 C47.1561652,61.042989 47.0264626,57.9111368 47.897323,56.2045586 L47.6193889,8.34535488 L47.4155705,8.34535488 C46.6188258,6.58251587 46.7670574,4.29457588 46.8411732,2.66301212 C46.9152889,1.38776688 48.3420177,0.825158684 49.7131596,0.656376226 C49.7131596,0.656376226 50.6766648,0.63762262 51.9366331,0.712637046 L54.9568511,0.562608194 C56.013001,0.525100981 56.4947535,1.36901327 56.4762246,2.47547605 C56.4576957,4.20080785 56.346522,6.3949798 55.3830168,8.1390652 L55.3830168,8.1390652 Z" id="Shape"></path>
                <path d="M259.590521,0.0937680323 C259.590521,0.0937680323 260.980191,0.0750144259 262.295747,0.150028852 L265.445667,0.0187536065 C266.557404,-0.0375072129 267.354149,0.843912291 267.33562,2.00663589 C267.33562,3.65695326 266.872396,5.77611079 266.001536,7.5389498 L266.27947,33.3814195 C266.149767,42.458165 267.595025,53.0914599 263.500128,59.6739758 C259.145826,67.3066936 240.320418,68.7882285 239.634847,49.9783612 C239.338384,45.2149452 240.746583,44.2772649 243.118288,44.4272937 C246.675846,44.6710906 245.212059,48.5905943 245.879101,51.7599538 C246.861135,56.3358338 249.733122,58.9050779 254.235655,57.8923832 C258.163792,56.5608771 258.330552,49.3032314 258.330552,49.3032314 C258.312023,49.3407386 258.108205,14.0276976 257.793213,7.52019619 C257.1447,5.7948644 256.977939,3.71321408 257.052055,2.19417196 C257.126171,0.862665897 258.145263,0.281304097 259.590521,0.0937680323 L259.590521,0.0937680323 Z" id="Shape"></path>
                <path d="M132.519015,27.0614541 C133.612223,26.9301789 134.408968,27.8866128 134.390439,29.0305828 C134.37191,30.7559146 134.205149,32.5562608 133.501049,34.6754183 L133.501049,56.4858627 C134.446025,58.2674553 134.464554,59.899019 134.483083,61.6055972 C134.483083,62.7683208 133.83457,63.5372187 132.77842,63.7810156 C130.758765,64.2498557 129.387623,64.2686093 127.34944,64.2498557 C125.922711,64.0623197 124.922148,64.0810733 124.848032,62.7683208 C124.792445,61.5868436 124.588627,59.9552799 124.607156,58.4174841 C124.607156,58.1924409 124.607156,58.1174264 124.403337,58.2862089 C122.921022,59.6364686 119.60434,63.0308713 117.640272,63.6497403 C105.096176,67.6630121 95.1090751,57.948644 94.4049752,45.0649163 C94.2196857,42.2893826 94.5161488,39.0825159 95.1646619,36.1006924 C98.6295747,20.7227351 116.695296,15.9968263 122.06869,23.9108482 C122.791319,25.1298327 122.309566,26.7426428 121.234888,26.78015 C112.76716,27.0802077 107.171418,25.6924409 103.391514,36.7570687 C98.851922,58.755049 114.823873,65.3563185 125.274198,52.0037507 C125.440958,51.7787074 125.626248,51.5349106 125.793008,51.3098673 L125.58919,35.7068667 C125.033321,33.6252164 124.662742,31.35603 124.773916,29.3681477 C124.829503,28.0366417 125.848595,27.4740335 127.275324,27.2864974 C127.275324,27.2864974 128.627937,27.2677438 129.924963,27.3615118 L132.519015,27.0614541 L132.519015,27.0614541 Z" id="Shape"></path>
            </g>
        </g>
    </g>
</svg>