<?xml version="1.0" encoding="UTF-8" standalone="no"?>
<svg width="38px" height="38px" viewBox="0 0 38 38" version="1.1" xmlns="http://www.w3.org/2000/svg" xmlns:xlink="http://www.w3.org/1999/xlink">
    <!-- Generator: Sketch 39.1 (31720) - http://www.bohemiancoding.com/sketch -->
    <title>Select a Method</title>
    <desc>Created with Sketch.</desc>
    <defs></defs>
    <g id="Page-1" stroke="none" stroke-width="1" fill="none" fill-rule="evenodd">
        <g id="Select-a-Method" transform="translate(3.000000, 7.000000)" fill="#4A4A4A">
            <path d="M20.3062152,0.140000343 C15.2349537,0.140000343 10.9208614,3.45650034 9.33316908,8.06250034 L6.19470754,5.80600034 L6.19470754,9.34600034 L0.157538311,9.34600034 L0.157538311,14.5600003 L6.19519985,14.5600003 L6.19519985,18.0990003 L9.33366139,15.8390003 C10.9213537,20.4485003 15.235446,23.7640003 20.3067075,23.7640003 C26.7199998,23.7640003 31.9374768,18.4620003 31.9374768,11.9515003 C31.9369845,5.43900034 26.7199998,0.140000343 20.3062152,0.140000343 L20.3062152,0.140000343 Z M6.64615385,14.108 L0.551385029,14.108 L0.551385029,9.875 L6.64615385,9.875 L6.64615385,6.875 L13.5384615,12 L6.64615385,17 L6.64615385,14.108 Z M9.71027692,15.1927273 L14.2334758,11.9390909 L9.71027692,8.68490909 C11.0866693,4.06054545 15.3092521,0.688 20.3000164,0.688 C26.4052077,0.688 31.3718154,5.73509091 31.3718154,11.938 C31.3718154,18.1414545 26.4052077,23.188 20.3000164,23.188 C15.3092521,23.188 11.0882797,19.8127273 9.71027692,15.1927273 Z M15.6309818,4.688 L14.6333538,6.09739597 L17.4765934,6.09739597 C17.7710231,6.09739597 19.8368824,6.20489858 20.56924,7.60746309 L15.6309818,7.60746309 L14.6333538,9.01685906 L20.818647,9.01685906 C20.817237,9.0455877 20.7713128,9.09182556 20.7687656,9.1175302 C20.7687656,9.1175302 20.7623793,12.2205099 15.1820492,11.6846443 L15.1820492,12.3390067 L15.1820492,13.0437047 L21.2176981,19.688 L23.5122424,19.688 L23.5122424,19.3859866 L17.7260004,12.8423624 L17.7260004,12.7416913 C17.7260004,12.7416913 22.2609264,12.8047963 23.0134284,9.06719463 C23.0134284,9.06719463 23.0102997,9.0425637 23.0134284,9.01685906 L24.9089215,9.01685906 L25.9564308,7.60746309 L22.963547,7.60746309 C22.8504334,7.09034685 22.6192809,6.56068376 22.1654447,6.09739597 L24.9588028,6.09739597 L25.9564308,4.688 L15.6309818,4.688 L15.6309818,4.688 Z" id="Combined-Shape"></path>
        </g>
    </g>
</svg>