<?xml version="1.0" encoding="UTF-8" standalone="no"?>
<svg width="28px" height="28px" viewBox="0 0 28 28" version="1.1" xmlns="http://www.w3.org/2000/svg" xmlns:xlink="http://www.w3.org/1999/xlink">
    <!-- Generator: Sketch 39.1 (31720) - http://www.bohemiancoding.com/sketch -->
    <title>Purpose</title>
    <desc>Created with Sketch.</desc>
    <defs></defs>
    <g id="Page-1" stroke="none" stroke-width="1" fill="none" fill-rule="evenodd">
        <g id="Purpose" transform="translate(6.000000, 3.000000)" fill="#000000">
            <path d="M2.47176239,0 C1.10536066,0 0,1.15310674 0,2.56678394 L0,18.4424515 C0,19.8557988 1.1056794,21 2.47176239,21 L13.5279189,21 C14.8943206,21 16,19.8557988 16,18.4424515 L16,2.56678394 C16,1.15310674 14.8943206,0 13.5279189,0 L2.47176239,0 L2.47176239,0 L2.47176239,0 L2.47176239,0 Z M2.47176239,0.520481246 L13.5279189,0.520481246 C14.6240363,0.520481246 15.4964043,1.42258277 15.4964043,2.56678394 L15.4964043,18.4424515 C15.4964043,19.5767576 14.6243551,20.4795188 13.5279189,20.4795188 L2.47176239,20.4795188 C1.3753262,20.4795188 0.503276958,19.5770874 0.503276958,18.4424515 L0.503276958,2.56678394 C0.503276958,1.42258277 1.3753262,0.520481246 2.47176239,0.520481246 L2.47176239,0.520481246 L2.47176239,0.520481246 L2.47176239,0.520481246 Z M3.88310524,1.41334736 C3.31671946,1.41334736 2.84945915,1.89688698 2.84945915,2.492241 C2.84945915,3.07802978 3.31671946,3.56189923 3.88310524,3.56189923 C4.44917229,3.56189923 4.91675133,3.07835962 4.91675133,2.492241 C4.91675133,1.89688698 4.44917229,1.41334736 3.88310524,1.41334736 L3.88310524,1.41334736 L3.88310524,1.41334736 L3.88310524,1.41334736 Z M7.99091615,1.41334736 C7.43345485,1.41334736 6.96619455,1.89688698 6.96619455,2.492241 C6.96619455,3.07802978 7.43345485,3.56189923 7.99091615,3.56189923 C8.56654515,3.56189923 9.03348672,3.07835962 9.03348672,2.492241 C9.03316799,1.89688698 8.56622642,1.41334736 7.99091615,1.41334736 L7.99091615,1.41334736 L7.99091615,1.41334736 L7.99091615,1.41334736 Z M12.116576,1.41334736 C11.5501902,1.41334736 11.0826112,1.89688698 11.0826112,2.492241 C11.0826112,3.07802978 11.5501902,3.56189923 12.116576,3.56189923 C12.6829618,3.56189923 13.1499034,3.07835962 13.1499034,2.492241 C13.1499034,1.89688698 12.6829618,1.41334736 12.116576,1.41334736 L12.116576,1.41334736 L12.116576,1.41334736 L12.116576,1.41334736 Z M3.88310524,1.94372369 C4.17984422,1.94372369 4.41347437,2.1854935 4.41347437,2.49257084 C4.41347437,2.79008293 4.17984422,3.03185274 3.88310524,3.03185274 C3.58636626,3.03185274 3.36166059,2.79008293 3.36166059,2.49257084 C3.36166059,2.1854935 3.58636626,1.94372369 3.88310524,1.94372369 L3.88310524,1.94372369 L3.88310524,1.94372369 L3.88310524,1.94372369 Z M7.99091615,1.94372369 C8.2873364,1.94372369 8.52096655,2.1854935 8.52096655,2.49257084 C8.52096655,2.79008293 8.2873364,3.03185274 7.99091615,3.03185274 C7.70342039,3.03185274 7.4694715,2.79008293 7.4694715,2.49257084 C7.4694715,2.1854935 7.70310166,1.94372369 7.99091615,1.94372369 L7.99091615,1.94372369 L7.99091615,1.94372369 L7.99091615,1.94372369 Z M12.116576,1.94372369 C12.4040718,1.94372369 12.6469452,2.1854935 12.6469452,2.49257084 C12.6469452,2.79008293 12.4040718,3.03185274 12.116576,3.03185274 C11.8195183,3.03185274 11.5862069,2.79008293 11.5862069,2.49257084 C11.5862069,2.1854935 11.8195183,1.94372369 12.116576,1.94372369 L12.116576,1.94372369 L12.116576,1.94372369 L12.116576,1.94372369 Z M3.03814817,6.40772445 C2.90332477,6.42619526 2.79527481,6.57495131 2.8134425,6.70523654 C2.83129146,6.84475718 2.97503934,6.95657159 3.10093827,6.93777094 L12.8984243,6.93777094 C13.0335664,6.93777094 13.1499034,6.80748571 13.1499034,6.66796507 C13.1499034,6.53767984 13.0335664,6.40772445 12.8984243,6.40772445 L3.10093827,6.40772445 L3.05599713,6.40772445 L3.03814817,6.40772445 L3.03814817,6.40772445 L3.03814817,6.40772445 L3.03814817,6.40772445 Z M3.0830893,11.2629107 C2.9482659,11.2718163 2.83129146,11.4021015 2.84021594,11.541952 C2.84914042,11.6722372 2.97503934,11.7932871 3.10093827,11.783392 L12.8984243,11.783392 C13.0335664,11.7929572 13.1499034,11.6623421 13.1499034,11.5231513 C13.1499034,11.3833009 13.0335664,11.2629107 12.8984243,11.2629107 L3.10093827,11.2629107 C3.10093827,11.2629107 3.09201379,11.2629107 3.0830893,11.2629107 L3.0830893,11.2629107 L3.0830893,11.2629107 L3.0830893,11.2629107 Z M3.05599713,16.1266727 C2.92117373,16.136238 2.8134425,16.2754288 2.83129146,16.405714 C2.84021594,16.5455645 2.97503934,16.6570491 3.10093827,16.6478137 L12.8984243,16.6478137 C13.0335664,16.6478137 13.1499034,16.5267638 13.1499034,16.3869134 C13.1499034,16.2477226 13.0335664,16.1177672 12.8984243,16.1266727 L3.10093827,16.1266727 L3.0830893,16.1266727 L3.05599713,16.1266727 L3.05599713,16.1266727 L3.05599713,16.1266727 L3.05599713,16.1266727 Z" id="Shape"></path>
        </g>
    </g>
</svg>