<svg xmlns="http://www.w3.org/2000/svg" xmlns:xlink="http://www.w3.org/1999/xlink" width="3010" height="556" viewBox="0 0 3010 556">
  <defs>
    <rect id="about-us---header-image_24-aug-a" width="75.708" height="158.148" x=".463" y="1.034"/>
    <polygon id="about-us---header-image_24-aug-c" points="2.641 159.529 2.641 5.746 73.992 5.746 73.992 159.529"/>
  </defs>
  <g fill="none" fill-rule="evenodd" transform="translate(82 161)">
    <path fill="#E9E9E9" fill-rule="nonzero" d="M2841.94,373.23 C2843.32071,373.23 2844.44,372.556248 2844.44,371.725137 C2844.44,370.894021 2843.32071,370.22027 2841.94,370.22027 L2.94,370.22027 C1.55928813,370.22027 0.44,370.894021 0.44,371.725137 C0.44,372.556248 1.55928813,373.23 2.94,373.23 L2841.94,373.23 Z"/>
    <g transform="translate(330.768 90.041)">
      <rect width="4.361" height="23.2" x="75.661" y="45.679" fill="#FEBBBA" fill-rule="nonzero"/>
      <rect width="4.361" height="23.2" x="324.034" y="45.679" fill="#FEBBBA" fill-rule="nonzero"/>
      <g transform="translate(0 65.9)">
        <g fill="#ECEBED" fill-rule="nonzero" transform="translate(273.422 103.626)">
          <path d="M48.1643059 1.20252291C32.9078772 14.6585229 17.2327473 27.6899191 1.20433823 40.2091646 16.4520439 26.7487871 32.1358967 13.7261455 48.1643059 1.20252291zM58.6885375 10.9509003C43.4321087 24.4112776 27.7569789 37.4382965 11.7285698 49.9575416 26.9849984 36.4971644 42.6601281 23.4789003 58.6885375 10.9509003zM69.5486024 54.2210889C61.588916 61.5531644 53.258505 68.4781454 44.5922602 74.9522586 52.5519466 67.6245605 60.8867192 60.6995794 69.5486024 54.2210889zM69.5486024 46.0967118C61.588916 53.4287872 53.258505 60.3537683 44.5922602 66.8278814 52.5519466 59.495806 60.8867192 52.5752023 69.5486024 46.0967118zM32.3059941 8.31135308C24.3463079 15.6390512 16.0158967 22.5684097 7.34965209 29.0381456 15.3093382 21.7104474 23.644111 14.7854663 32.3059941 8.31135308z"/>
        </g>
        <g transform="translate(13.008)">
          <polygon fill="#F1F1F1" fill-rule="nonzero" points="374.241 35.794 375.562 35.794 375.562 34.469 374.241 34.469 374.241 6.629 376.882 0 .559 0 3.2 6.629 3.2 34.469 1.88 35.794 3.2 37.12 4.521 37.12 4.521 214.766 20.366 214.766 102.233 214.766 376.882 214.766"/>
          <path fill="#FCFCFC" fill-rule="nonzero" d="M349.058313,167.951635 L142.218874,167.951635 L142.218874,84.3378342 C144.879372,87.1699852 148.006548,86.0625134 148.159199,80.9453816 L148.198452,76.1084003 L158.757576,54.8563249 L339.322511,54.8563249 C339.322511,54.8563249 345.024313,69.7517008 349.058313,80.6527346 C348.481602,87.0167777 349.058313,167.951635 349.058313,167.951635 Z"/>
          <g fill-rule="nonzero" transform="translate(167.807 119.534)">
            <rect width="7.627" height="24" x="17.926" y="20" fill="#FEBBBA"/>
            <rect width="8.493" height="6.848" x="17.541" y="19.385" fill="#FEBBBA"/>
            <path fill="#C1C1C1" d="M12.2165195 29.1643737L12.2165195 44.3989352 15.4177778 44.3989352 15.4177778 19.3848127 14.9517091 19.3848127C14.7829052 19.3848127 14.6187018 19.4035224 14.4583912 19.4342063 14.0464671 19.4491741 13.6313582 19.5558194 13.241729 19.7717293 12.9161533 19.9490973 10.2927919 21.5005058 7.63510351 25.6379692 5.17276052 29.4588644 2.72775796 35.4624335 1.93646751 44.3989352L7.62448692 44.3989352C8.37295708 36.8128998 10.3911724 32.0681194 12.2165195 29.1643737L12.2165195 29.1643737zM28.1576956 44.3989352L31.3589538 44.3989352 31.3589538 29.1696124C31.51431 29.4162063 31.6707279 29.6714066 31.8278536 29.9449425 33.5151849 32.8932173 35.2619692 37.4617522 35.9470936 44.3989352L41.6382982 44.3989352C40.8477152 35.4620593 38.4016512 29.4588644 35.9393081 25.6379692 33.2812658 21.5005058 30.6582583 19.9490973 30.3326826 19.7717293 29.9426996 19.5554452 29.5272367 19.4484257 29.1149588 19.4338321 28.955356 19.4031482 28.7918604 19.3848127 28.6237642 19.3848127L28.1576956 19.3848127 28.1576956 44.3989352 28.1576956 44.3989352z"/>
            <ellipse cx="21.788" cy="8.459" fill="#C5C5C5" rx="7.962" ry="8.419"/>
          </g>
          <g fill-rule="nonzero" transform="translate(240.595 120.835)">
            <rect width="7.865" height="24" x="17.165" y="20" fill="#FEBBBA"/>
            <rect width="8.759" height="6.848" x="16.768" y="19.385" fill="#FEBBBA"/>
            <path fill="#C1C1C1" d="M11.2769743 29.1643737L11.2769743 44.3989352 14.5782718 44.3989352 14.5782718 19.3848127 14.0976385 19.3848127C13.9235595 19.3848127 13.7542248 19.4035224 13.5889044 19.4342063 13.1641078 19.4491741 12.7360267 19.5558194 12.3342216 19.7717293 11.9984717 19.9490973 9.29313022 21.5005058 6.55238904 25.6379692 4.0130978 29.4588644 1.49168892 35.4624335.675670641 44.3989352L6.54144065 44.3989352C7.31330051 36.8128998 9.39458506 32.0681194 11.2769743 29.1643737L11.2769743 29.1643737zM27.7163121 44.3989352L31.0176096 44.3989352 31.0176096 29.1696124C31.1778207 29.4162063 31.3391267 29.6714066 31.5011625 29.9449425 33.241223 32.8932173 35.0425942 37.4617522 35.7491288 44.3989352L41.6181834 44.3989352C40.8028952 35.4620593 38.2803913 29.4588644 35.7411 25.6379692 32.9999939 21.5005058 30.2950174 19.9490973 29.9592675 19.7717293 29.5570975 19.5554452 29.1286514 19.4484257 28.7034898 19.4338321 28.5388994 19.4031482 28.3702945 19.3848127 28.1969454 19.3848127L27.7163121 19.3848127 27.7163121 44.3989352 27.7163121 44.3989352z"/>
            <ellipse cx="21.147" cy="8.459" fill="#C5C5C5" rx="8.211" ry="8.419"/>
          </g>
          <g transform="translate(22.58 55.31)">
            <polygon fill="#F9F9F9" points="2.641 155.759 2.641 1.976 73.992 1.976 73.992 155.759" transform="translate(0 1.24)"/>
            <mask id="about-us---header-image_24-aug-b" fill="#fff">
              <use xlink:href="#about-us---header-image_24-aug-a"/>
            </mask>
            <polygon stroke="#CFCFCF" stroke-width="4.357" points="2.641 156.999 2.641 3.216 73.992 3.216 73.992 156.999" mask="url(#about-us---header-image_24-aug-b)"/>
          </g>
          <rect width="207.182" height="6.629" x="142.025" y="161.932" fill="#FEBBBA" fill-rule="nonzero"/>
          <g fill="#FEBBBA" fill-rule="nonzero" transform="translate(140.059 50.597)">
            <path d="M10.7388699 30.2650566L10.7083396 35.1020377C10.5033504 41.6855848 1.0651253 41.6418113.820882877 35.1020377.816521405 33.4911698.816521405 31.8759245.816521405 30.2650566L7.30203006 14.567849 11.4279824 4.26354717 20.4867595 4.26354717 10.7388699 30.2650566zM23.4351178 30.2606792L23.4351178 35.0976604 23.4351178 35.0976604C23.6793602 41.6330566 33.1175854 41.6812075 33.3138516 35.0976604L33.3225745 35.0976604 33.3531048 30.2606792 33.4228884 30.2606792 44.7627152 4.25916983 35.5861784 4.25916983 23.4351178 30.2606792zM45.3253452 30.2606792L45.3253452 35.0976604 45.3253452 35.0976604C45.5695877 41.6330566 55.0078127 41.6812075 55.2040789 35.0976604L55.2128017 35.0976604 55.243332 30.2606792 55.3131158 30.2606792 64.2192412 4.25916983 55.0427042 4.25916983 45.3253452 30.2606792zM67.211211 30.2606792L67.211211 35.0976604 67.211211 35.0976604C67.4554531 41.6330566 76.8936786 41.6812075 77.0899448 35.0976604L77.0986676 35.0976604 77.1291979 30.2606792 77.1989813 30.2606792 83.6757672 4.25916983 74.4992302 4.25916983 67.211211 30.2606792zM89.5070549 30.2606792L89.5070549 30.2606792 89.5070549 35.0976604 89.5070549 35.0976604C89.7512974 41.6330566 99.193884 41.6812075 99.3857887 35.0976604L99.3945118 35.0976604 99.4294034 30.2606792 99.4948256 30.2606792 102.735399 4.25916983 93.5588625 4.25916983 89.5070549 30.2606792zM111.392921 30.2606792L111.392921 30.2606792 111.392921 35.0976604 111.397282 35.0976604C111.637163 41.6330566 121.07975 41.6812075 121.271655 35.0976604L121.280378 35.0976604 121.315269 30.2606792 121.385053 30.2606792 122.196287 4.25916983 113.01975 4.25916983 111.392921 30.2606792zM132.070659 4.25916983L132.881893 30.2606792 132.881893 30.2606792 132.881893 35.0976604 132.886254 35.0976604C133.126135 41.6330566 142.568722 41.6812075 142.760626 35.0976604L142.769349 35.0976604 142.804241 30.2606792 142.874025 30.2606792 141.251557 4.25916983 132.070659 4.25916983zM151.527185 4.25916983L154.763397 30.2606792 154.763397 30.2606792 154.763397 35.0976604 154.767758 35.0976604C155.007639 41.6330566 164.450226 41.6812075 164.646492 35.0976604L164.650854 35.0976604 164.685746 30.2606792 164.755529 30.2606792 160.703722 4.25916983 151.527185 4.25916983zM170.988072 4.25916983L176.657986 30.2606792 176.653624 30.2606792 176.653624 35.0976604 176.657986 35.0976604C176.902228 41.6330566 186.340453 41.6812075 186.53672 35.0976604L186.545442 35.0976604 186.575973 30.2606792 186.645756 30.2606792 180.168971 4.25916983 170.988072 4.25916983zM190.043343 4.25916983L198.95383 30.2606792C198.949469 31.8715472 198.949469 33.4867925 198.949469 35.0976604 199.198072 41.6330566 208.636298 41.6812075 208.832564 35.0976604 208.832564 35.0976604 209.011387 32.48 209.011387 30.2606792 208.832564 28.9781132 199.481568 4.25916983 199.481568 4.25916983L190.043343 4.25916983z"/>
            <polygon points="11.302 .963 198.246 .963 207.986 27.227 2.125 27.227"/>
          </g>
        </g>
        <path fill="#CFCFCF" fill-rule="nonzero" d="M101.651761,165.909284 L46.1566788,165.909284 L46.1566788,66.4807131 L101.651761,66.4807131 L101.651761,165.909284 L101.651761,165.909284 Z M47.4779905,164.58357 L100.330449,164.58357 L100.330449,67.8064272 L47.4779905,67.8064272 L47.4779905,164.58357 Z"/>
        <g fill-rule="nonzero" transform="translate(53.875 80.766)">
          <path fill="#CFCFCF" d="M8.35581784,9.99536053 L17.8609536,1.98329887 C18.5936903,1.3656021 19.4883839,1.05913559 20.3862222,1.05860628 C21.3008327,1.05913559 22.2122985,1.37777608 22.9508006,2.01664497 L32.3128484,10.1208054 L32.9952683,9.31679391 L23.6326965,1.2131628 C22.7002654,0.405446204 21.5419335,0 20.3862222,0 C19.2520003,0 18.1146336,0.390096417 17.1895404,1.17028925 L7.68388045,9.1828802 L8.35581784,9.99536053"/>
          <polygon fill="#FEBBBA" points=".09 25.486 40.589 25.486 40.589 8.252 .09 8.252"/>
          <path fill="#FFF" d="M12.3565389,18.0843406 C12.3565389,19.2914565 12.0220175,20.2891138 11.3529646,21.0773424 C10.6839117,21.8655711 9.81455066,22.2596795 8.74485547,22.2596795 C7.68305474,22.2596795 6.82060127,21.8655711 6.15746919,21.0773424 C5.49433708,20.2891138 5.16277601,19.2914565 5.16277601,18.0843406 L5.16277601,16.314213 C5.16277601,15.1116013 5.49335032,14.11507 6.15450876,13.3245893 C6.81566724,12.5341085 7.67713392,12.1388741 8.7389347,12.1388741 C9.80862989,12.1388741 10.6789777,12.5341085 11.3500042,13.3245893 C12.0210307,14.11507 12.3565389,15.1116013 12.3565389,16.314213 L12.3565389,18.0843406 Z M10.6176332,16.3007006 C10.6176332,15.5349928 10.4498791,14.9066713 10.1143658,14.4157175 C9.77885253,13.9247637 9.31703533,13.6792904 8.72890034,13.6792904 C8.14076534,13.6792904 7.68486889,13.9236376 7.36119726,14.4123394 C7.03752567,14.9010412 6.87569231,15.5304886 6.87569231,16.3007006 L6.87569231,18.0843406 C6.87569231,18.8635609 7.03949922,19.4986385 7.36711808,19.9895923 C7.69473689,20.4805462 8.15063335,20.7260194 8.73482112,20.7260194 C9.32690334,20.7260194 9.78872053,20.4805462 10.1202866,19.9895923 C10.4518526,19.4986385 10.6176332,18.8635609 10.6176332,18.0843406 L10.6176332,16.3007006 Z M15.4253166,18.5505192 L15.4253166,22.1177991 L13.6964453,22.1177991 L13.6964453,12.2807546 L17.1305049,12.2807546 C18.1212558,12.2807546 18.900819,12.5690167 19.4692179,13.1455497 C20.0376169,13.7220826 20.321812,14.4810229 20.321812,15.4223931 C20.321812,16.3637633 20.0376169,17.1204515 19.4692179,17.6924803 C18.900819,18.2645091 18.1212558,18.5505192 17.1305049,18.5505192 L15.4253166,18.5505192 Z M15.4253166,17.0303715 L17.1305049,17.0303715 C17.6120651,17.0303715 17.977177,16.8806103 18.2258515,16.5810834 C18.474526,16.2815565 18.5988614,15.8998344 18.5988614,15.4359055 C18.5988614,14.9629683 18.4755128,14.5722379 18.2288119,14.2637027 C17.982111,13.9551675 17.6160123,13.8009022 17.1305049,13.8009022 L15.4253166,13.8009022 L15.4253166,17.0303715 Z M26.8938917,17.7938235 L23.3236538,17.7938235 L23.3236538,20.6044076 L27.4978125,20.6044076 L27.4978125,22.1177991 L21.5947824,22.1177991 L21.5947824,12.2807546 L27.4859709,12.2807546 L27.4859709,13.8009022 L23.3236538,13.8009022 L23.3236538,16.2736758 L26.8938917,16.2736758 L26.8938917,17.7938235 Z M35.5264071,22.1177991 L33.8034565,22.1177991 L30.3220306,15.3953682 L30.2865058,15.4021244 L30.2865058,22.1177991 L28.5576344,22.1177991 L28.5576344,12.2807546 L30.2865058,12.2807546 L33.7679318,18.9964291 L33.8034565,18.9896729 L33.8034565,12.2807546 L35.5264071,12.2807546 L35.5264071,22.1177991 Z"/>
        </g>
        <rect width="403.982" height="7.54" x=".095" fill="#FEBBBA" fill-rule="nonzero" transform="translate(0 21.67)"/>
        <path fill="#FBCFCE" fill-rule="nonzero" d="M4.58129003,17.8530566 C4.58129003,15.7970113 2.9208777,14.1305509 0.872294371,14.1305509 L0.872294371,3.98164527 C2.9208777,3.98164527 4.58129003,2.31474717 4.58129003,0.259139623 L20.2446439,0.259139623 C20.2446439,2.31474717 21.9050563,3.98164527 23.9536396,3.98164527 L23.9536396,14.1305509 C21.9050563,14.1305509 20.2446439,15.7970113 20.2446439,17.8530566 L4.58129003,17.8530566 Z" transform="translate(121.609 92.76)"/>
      </g>
      <g transform="translate(32.635)">
        <polygon fill="#FEBBBA" fill-rule="nonzero" points="0 0 338.69 0 338.69 52.78 0 52.78"/>
        <path fill="#FFF" d="M48.8776743,2.5057767 L55.3488865,20.7706676 L61.7854934,2.5057767 L68.6027597,2.5057767 L68.6027597,27.6891869 L63.3946451,27.6891869 L63.3946451,20.8052602 L63.9137263,8.92270335 L57.1137626,27.6891869 L53.549405,27.6891869 L46.7667441,8.93999965 L47.2858252,20.8052602 L47.2858252,27.6891869 L42.0950133,27.6891869 L42.0950133,2.5057767 L48.8776743,2.5057767 Z M89.400613,16.7752227 L79.4342541,16.7752227 L79.4342541,23.5207791 L91.1308837,23.5207791 L91.1308837,27.6891869 L74.2434421,27.6891869 L74.2434421,2.5057767 L91.0962783,2.5057767 L91.0962783,6.70877717 L79.4342541,6.70877717 L79.4342541,12.7105927 L89.400613,12.7105927 L89.400613,16.7752227 Z M104.609692,18.47026 L100.474345,18.47026 L100.474345,27.6891869 L95.2835333,27.6891869 L95.2835333,2.5057767 L104.644298,2.5057767 C107.620378,2.5057767 109.915847,3.16879484 111.530775,4.494851 C113.145702,5.82090716 113.953154,7.69465407 113.953154,10.1161479 C113.953154,11.8342555 113.581149,13.2669512 112.837129,14.414278 C112.093109,15.5616049 110.965561,16.4754168 109.45445,17.1557413 L114.904803,27.4470388 L114.904803,27.6891869 L109.333331,27.6891869 L104.609692,18.47026 Z M100.474345,14.2672595 L104.6616,14.2672595 C105.965077,14.2672595 106.974392,13.9357504 107.689574,13.2727224 C108.404756,12.6096943 108.762342,11.6958823 108.762342,10.5312591 C108.762342,9.343574 108.424942,8.40958324 107.750133,7.72925877 C107.075324,7.0489343 106.040056,6.70877717 104.644298,6.70877717 L100.474345,6.70877717 L100.474345,14.2672595 Z M138.782538,19.3004823 C138.586439,22.0102492 137.585776,24.143438 135.780518,25.7001126 C133.97526,27.2567873 131.596162,28.0351129 128.643152,28.0351129 C125.413297,28.0351129 122.872708,26.9483397 121.021309,24.7747607 C119.16991,22.6011817 118.244225,19.6176001 118.244225,15.8239263 L118.244225,14.2845558 C118.244225,11.8630619 118.671021,9.72987316 119.524625,7.88492545 C120.37823,6.03997775 121.598058,4.62457817 123.184148,3.63868424 C124.770237,2.65279031 126.612957,2.15985074 128.712362,2.15985074 C131.619232,2.15985074 133.960841,2.93817637 135.737261,4.494851 C137.513681,6.05152562 138.540298,8.23660278 138.817143,11.050148 L133.626331,11.050148 C133.499444,9.42428787 133.046694,8.24526866 132.268069,7.51305504 C131.489443,6.78084142 130.304219,6.4147401 128.712362,6.4147401 C126.982083,6.4147401 125.687277,7.03451793 124.827905,8.27409216 C123.968533,9.5136664 123.527318,11.436419 123.504248,14.0424076 L123.504248,15.9450004 C123.504248,18.6662983 123.916625,20.6553527 124.741391,21.9122233 C125.566158,23.1690939 126.866731,23.7975198 128.643152,23.7975198 C130.246544,23.7975198 131.443302,23.4314185 132.233463,22.6992049 C133.023624,21.9669913 133.476374,20.8340951 133.591726,19.3004823 L138.782538,19.3004823 Z M163.802251,27.6891869 L158.611439,27.6891869 L158.611439,16.8962968 L148.489356,16.8962968 L148.489356,27.6891869 L143.298544,27.6891869 L143.298544,2.5057767 L148.489356,2.5057767 L148.489356,12.7105927 L158.611439,12.7105927 L158.611439,2.5057767 L163.802251,2.5057767 L163.802251,27.6891869 Z M183.977207,22.5002975 L174.875984,22.5002975 L173.145713,27.6891869 L167.626149,27.6891869 L177.004216,2.5057767 L181.814369,2.5057767 L191.244344,27.6891869 L185.724781,27.6891869 L183.977207,22.5002975 Z M176.277503,18.297297 L182.575688,18.297297 L179.409293,8.87081445 L176.277503,18.297297 Z M215.19129,27.6891869 L210.000478,27.6891869 L199.895697,11.1193332 L199.895697,27.6891869 L194.704885,27.6891869 L194.704885,2.5057767 L199.895697,2.5057767 L210.017781,19.110223 L210.017781,2.5057767 L215.19129,2.5057767 L215.19129,27.6891869 Z M239.29396,6.70877717 L231.576953,6.70877717 L231.576953,27.6891869 L226.386141,27.6891869 L226.386141,6.70877717 L218.77295,6.70877717 L218.77295,2.5057767 L239.29396,2.5057767 L239.29396,6.70877717 Z" transform="translate(32.637 11.31)"/>
        <g fill-rule="nonzero" transform="matrix(-1 0 0 1 312.138 173.477)">
          <path fill="#FEBBBA" d="M33.5008552,10.9193877 C33.5008552,5.33836735 29.0097986,0.727959185 23.3049428,0.727959185 C17.7214669,0.727959185 13.1090303,5.21704083 13.1090303,10.9193877 C13.2304102,16.5004082 17.7214669,21.1108163 23.3049428,21.1108163 C28.8884186,21.1108163 33.5008552,16.6217347 33.5008552,10.9193877 Z"/>
          <path fill="#D9D9D9" d="M43.089868,29.6036735 C43.089868,29.4823469 42.9684881,29.4823469 42.9684881,29.3610204 C41.3905495,25.599898 37.7491519,23.0520408 33.5008552,23.0520408 L11.2883317,23.0520408 C5.70485579,23.0520408 1.2137991,27.5411225 0.971039282,33.0008163 L0.971039282,57.5087755 C0.971039282,59.8139797 2.79173794,61.6338774 5.09795622,61.6338774 C7.40417452,61.6338774 9.22487317,59.8139797 9.22487317,57.5087755 L9.22487317,33.2434694 L11.1669518,33.2434694 L11.1669518,63.5751021 L11.1669518,103.85551 C11.1669518,106.403367 13.2304102,108.465918 15.7793883,108.465918 C18.3283665,108.465918 20.3918249,106.403367 20.3918249,103.85551 L20.3918249,68.9134696 L22.2125236,68.9134696 L24.0332222,68.9134696 L24.0332222,103.85551 C24.0332222,106.403367 26.0966807,108.465918 28.6456588,108.465918 C31.1946369,108.465918 33.2580954,106.403367 33.2580954,103.85551 L33.2580954,63.6964286 L33.2580954,33.3647959 L35.4429338,33.3647959 L44.3036673,55.4462247 C45.1533265,57.630102 47.5809248,58.6007141 49.7657632,57.7514285 C52.0719816,56.7808164 53.0430207,54.3542856 52.1933615,52.2917349 L43.089868,29.6036735 Z"/>
        </g>
      </g>
    </g>
    <g fill-rule="nonzero" transform="translate(1146)">
      <polygon fill="#FEBBBA" points="99.253 61.546 104.838 61.546 104.838 89.351 99.253 89.351"/>
      <polygon fill="#FEBBBA" points="456.458 61.546 462.044 61.546 462.044 89.351 456.458 89.351"/>
      <g transform="translate(0 86.1)">
        <rect width="553" height="283.607" y=".472" fill="#F1F1F1"/>
        <polygon fill="#DADADA" points="485.97 72.764 502.727 72.764 502.727 239.591 485.97 239.591"/>
        <polygon fill="#DADADA" points="446.869 72.764 463.626 72.764 463.626 239.591 446.869 239.591"/>
        <polygon fill="#DADADA" points="94.96 72.764 111.717 72.764 111.717 239.591 94.96 239.591"/>
        <polygon fill="#DADADA" points="55.859 72.764 72.616 72.764 72.616 239.591 55.859 239.591"/>
        <polygon fill="#FCFCFC" points="150.818 22.716 402.182 22.716 402.182 256.274 150.818 256.274"/>
      </g>
      <g transform="translate(55.85 86.497)">
        <polygon fill="#F1F1F1" points=".008 .075 441.291 .075 441.291 55.684 .008 55.684"/>
        <path fill="#F69A98" d="M228.042223,11.262973 L210.044787,11.262973 L207.759369,14.4607493 L218.889355,14.4607495 C221.688558,14.4607495 221.740869,15.9630631 222.725199,17.612528 L209.137248,17.612528 L207.759369,20.8640552 L222.725199,20.8640552 C221.74087,22.5135201 219.377748,24.0185958 216.621077,24.0185958 L210.044787,24.0185958 C215.558129,29.5170249 220.497352,34.6098076 226.27125,40.1075985 L232.670427,40.1075985 L219.186458,27.0877791 C224.599929,27.0877791 226.860663,24.4376831 228.042224,20.8640552 L235.184383,20.8416582 L236.706699,17.6512038 L228.042223,17.612528 C227.84682,16.6501274 226.992212,15.285482 226.207925,14.4607495 L235.184383,14.4607493 L236.706699,11.262973 L228.042223,11.262973 Z"/>
      </g>
      <g transform="translate(122.579 136.008)">
        <rect width="33.515" height="211.315" x="11.482" y=".612" fill="#DADADA"/>
        <path fill="#FEBBBA" d="M44.9969727,0.612089758 L11.4818212,0.612089758 C4.89649522,0.612089758 0.310103983,5.59167471 0.310103983,11.7339227 C0.310103983,17.8761707 4.89649522,22.8557557 11.4818212,22.8557557 C14.285249,22.8557557 17.5188199,20.6672134 17.0676797,17.2948392 L39.411114,17.2948392 C38.9599738,20.6672134 42.1935447,22.8557557 44.9969727,22.8557557 C51.5822987,22.8557557 56.1686897,17.8761707 56.1686897,11.7339227 C56.1686897,5.59167471 51.5822987,0.612089758 44.9969727,0.612089758"/>
        <rect width="44.687" height="16.683" x="5.896" y="206.366" fill="#FEBBBA"/>
      </g>
      <g transform="translate(250.947 136.008)">
        <polygon fill="#DADADA" points="11.588 .612 45.103 .612 45.103 211.927 11.588 211.927"/>
        <path fill="#FEBBBA" d="M45.1034694,0.612089758 L11.5883178,0.612089758 C5.00299185,0.612089758 0.416600602,5.59167471 0.416600602,11.7339227 C0.416600602,17.8761707 5.00299185,22.8557557 11.5883178,22.8557557 C14.3917457,22.8557557 17.6253165,20.6672134 17.1741764,17.2948392 L39.5176107,17.2948392 C39.0664705,20.6672134 42.3000414,22.8557557 45.1034694,22.8557557 C51.6887951,22.8557557 56.2751864,17.8761707 56.2751864,11.7339227 C56.2751864,5.59167471 51.6887951,0.612089758 45.1034694,0.612089758"/>
        <rect width="44.687" height="16.683" x="6.002" y="206.366" fill="#FEBBBA"/>
      </g>
      <g transform="translate(373.73 136.008)">
        <rect width="33.515" height="211.315" x="11.695" y=".612" fill="#DADADA"/>
        <path fill="#FEBBBA" d="M45.2099657,0.612089758 L11.6948144,0.612089758 C5.10948848,0.612089758 0.523097223,5.59167471 0.523097223,11.7339227 C0.523097223,17.8761707 5.10948848,22.8557557 11.6948144,22.8557557 C14.4982423,22.8557557 17.7318131,20.6672134 17.280673,17.2948392 L39.6241074,17.2948392 C39.1729672,20.6672134 42.4065381,22.8557557 45.2099657,22.8557557 C51.7952918,22.8557557 56.3816831,17.8761707 56.3816831,11.7339227 C56.3816831,5.59167471 51.7952918,0.612089758 45.2099657,0.612089758"/>
        <polygon fill="#FEBBBA" points="6.109 206.366 50.796 206.366 50.796 223.049 6.109 223.049"/>
      </g>
      <g transform="translate(63.975)">
        <polygon fill="#FEBBBA" points="0 0 429.008 0 429.008 71.63 0 71.63"/>
        <path fill="#FFF" d="M3.1543252,39.585 L3.1543252,2.06171875 L15.8111177,2.06171875 C20.218722,2.06171875 23.6572877,2.92075964 26.1269181,4.63886719 C28.5965485,6.35697475 29.8313452,8.92550701 29.8313452,12.344541 C29.8313452,14.0798296 29.372584,15.6303984 28.4550477,16.9962939 C27.5375114,18.3621894 26.2041025,19.3887433 24.4547809,20.0759863 C26.7014586,20.5570565 28.3864415,21.5879055 29.5097804,23.1685644 C30.6331192,24.7492234 31.1947802,26.5789805 31.1947802,28.6578906 C31.1947802,32.2487354 30.0114334,34.9675998 27.6447042,36.8145654 C25.2779751,38.661531 21.9251591,39.585 17.5861557,39.585 L3.1543252,39.585 Z M10.6660801,22.9881641 L10.6660801,33.8121875 L17.5861557,33.8121875 C19.5755802,33.8121875 21.0933511,33.3783719 22.139514,32.5107276 C23.1856769,31.6430832 23.7087505,30.3588171 23.7087505,28.6578906 C23.7087505,26.8195155 23.2628517,25.4149837 22.3710407,24.4442529 C21.4792297,23.4735222 20.0729335,22.9881641 18.1521099,22.9881641 L10.6660801,22.9881641 Z M10.6660801,17.7823242 L16.0683696,17.7823242 C18.0749443,17.7823242 19.6184402,17.3699846 20.6989035,16.545293 C21.7793668,15.7206013 22.3195903,14.5179441 22.3195903,12.9372851 C22.3195903,11.2019965 21.7750793,9.9220256 20.6860409,9.09733399 C19.5970025,8.27264235 17.9720443,7.86030274 15.8111177,7.86030274 L10.6660801,7.86030274 L10.6660801,17.7823242 Z M60.2097055,31.4927539 L47.0641343,31.4927539 L44.5173407,39.585 L36.9284102,39.585 L49.8167294,2.06171875 L57.5085606,2.06171875 L70.3454297,39.585 L62.7564991,39.585 L60.2097055,31.4927539 Z M48.9163478,25.591084 L58.357492,25.591084 L53.726958,10.8497949 L53.5726069,10.8497949 L48.9163478,25.591084 Z M107.283713,39.585 L99.797683,39.585 L84.6712726,13.9423731 L84.5169212,13.9681445 L84.5169212,39.585 L77.0051664,39.585 L77.0051664,2.06171875 L84.5169212,2.06171875 L99.6433319,27.6785742 L99.797683,27.6528027 L99.797683,2.06171875 L107.283713,2.06171875 L107.283713,39.585 Z M129.147036,23.9159375 L124.979555,23.9159375 L124.979555,39.585 L117.4678,39.585 L117.4678,2.06171875 L124.979555,2.06171875 L124.979555,17.3957519 L128.246654,17.3957519 L138.176577,2.06171875 L147.360469,2.06171875 L134.755127,19.5347851 L148.363751,39.585 L139.205584,39.585 L129.147036,23.9159375 Z" transform="translate(139.486 15.08)"/>
      </g>
    </g>
    <g fill-rule="nonzero" transform="translate(2096 104.36)">
      <path fill="#FEBBBA" d="M126.161038,0.01129302 C139.237464,0.01129302 150.464636,10.7935625 150.464636,24.3403557 C150.464636,37.9372989 139.231196,49.1333065 126.161038,49.1333065 C112.589387,49.1333065 101.368484,37.9372989 101.368484,24.3403557 C101.368484,10.7998312 112.589387,0.01129302 126.161038,0.01129302 L126.161038,0.01129302 Z"/>
      <path fill="#DADADA" d="M116.730967,126.954137 C119.212926,123.317105 121.542356,120.712739 117.856383,118.412104 C114.176679,116.130275 111.487446,118.612795 109.539129,122.519782 L97.4537767,141.932934 C88.3686252,137.425348 76.4142659,133.582506 66.0333637,133.582506 C29.9697576,133.588775 0.626156095,163.120909 0.626156095,199.467187 C0.626156095,235.500028 29.9697576,264.819024 66.0270949,264.819024 C102.335179,264.819024 131.891915,235.493759 131.891915,199.460919 C131.891915,179.150132 120.482929,159.622849 104.503042,146.596309 L116.730967,126.954137 Z M7.02019017,199.285244 C7.02019017,166.566868 33.2870284,139.963194 65.573652,139.963194 C74.2809713,139.963194 87.7153409,142.859646 94.2587822,148.100728 L63.6455285,197.520016 C60.994215,201.802488 60.235501,203.014459 63.5822408,205.185932 C66.928981,207.357405 68.6897959,204.489536 70.4138742,201.704839 L100.730123,152.75815 C118.406705,168.531717 124.670416,181.367752 124.670416,199.285244 C124.670416,231.698176 98.164525,258.054716 65.573652,258.054716 C33.2870284,258.054716 7.02019017,231.698248 7.02019017,199.285244 Z"/>
      <rect width="94.632" height="7.702" x="159.329" y="199.338" fill="#DADADA" rx="3.844"/>
      <path fill="#DADADA" d="M250.725598,133.090827 C214.404977,133.090827 184.860779,162.441167 184.860779,198.499082 C184.860779,234.79521 214.404977,264.35242 250.725598,264.35242 C286.782936,264.35242 316.126537,234.79521 316.126537,198.499082 C316.126537,162.441167 286.782936,133.090827 250.725598,133.090827 L250.725598,133.090827 Z M250.64021,257.613831 C218.081093,257.613831 191.554392,230.997046 191.554392,198.320743 C191.554392,165.891766 218.081093,139.522309 250.64021,139.522309 C282.924139,139.522309 309.204619,165.891766 309.204619,198.320743 C309.204619,230.997046 282.924139,257.613831 250.64021,257.613831 L250.64021,257.613831 Z"/>
      <path fill="#FEBBBA" d="M245.785894,56.9161232 C250.267986,61.2541057 250.324404,68.4067623 245.936341,72.8638516 L235.486484,83.5395521 C231.123496,87.9966414 223.98976,88.0781356 219.545279,83.7150777 L183.174509,48.1022447 C178.736297,43.7391868 178.648536,36.5865301 183.024061,32.1294408 L193.492725,21.4662778 C197.843175,17.0091885 204.98318,16.9276946 209.452735,21.278215 L245.785894,56.9161232 L245.785894,56.9161232 Z"/>
      <path fill="#F1F1F1" d="M202.532133,69.1808052 L177.125251,43.9991912 C177.125251,43.9991912 171.04465,36.5017526 161.698076,37.4483355 C161.698076,37.4483355 151.398667,37.9435676 145.336872,47.2714845 L118.199839,89.3474102 L77.5162297,89.3474102 C63.0230858,89.3474102 63.0230858,108.536089 77.5162297,108.536089 L124.750589,108.536089 C128.499249,108.536089 132.23537,106.630385 135.024925,102.449122 L150.953592,77.1985509 L156.200461,69.1808052 L202.532133,69.1808052 L202.532133,69.1808052 Z"/>
      <path fill="#F1F1F1" d="M229.017226,95.4281088 L210.493333,77.066907 L150.953592,77.1985509 L184.139882,109.921485 L153.279265,125.831601 C153.279265,125.831601 141.1306,131.9123 142.992393,142.675763 L142.992393,211.882888 C142.992393,219.850483 149.060456,225.906107 157.015387,225.906107 C164.512705,225.906107 171.050919,219.850483 171.050919,211.882888 L171.050919,156.717788 L223.889461,127.242073 C229.988868,123.957241 234.201408,116.967573 234.201408,109.451328 C234.195139,104.354825 232.778422,99.1705595 229.017226,95.4281088 L229.017226,95.4281088 Z"/>
      <rect width="7.673" height="78.416" x="233.83" y="129.847" fill="#DADADA" rx="3.836" transform="rotate(-20 237.667 169.055)"/>
    </g>
  </g>
</svg>
