<svg xmlns="http://www.w3.org/2000/svg" width="42" height="42" viewBox="0 0 42 42">
  <g fill="#EF5350" transform="translate(7 1.543)">
    <path d="M24.0940715 19.5247383C24.0542019 14.9594284 27.7222078 12.7383903 27.8899352 12.6349874 25.8125901 9.51448545 22.5927738 9.08812545 21.4613012 9.05412997 18.7570404 8.76091894 16.1338938 10.721325 14.7563293 10.721325 13.3512686 10.721325 11.2299293 9.08245953 8.94361228 9.1306198 6.00150857 9.17736359 3.24912931 10.9323803 1.73958265 13.6576848-1.37574772 19.2145296.947689312 27.3805276 3.93241228 31.8721806 5.42546116 34.0719716 7.17010116 36.5281451 9.45366857 36.4417399 11.6877426 36.3468359 12.5222552 34.9742683 15.2182671 34.9742683 17.8895323 34.9742683 18.6731767 36.4417399 21.002113 36.3864973 23.3997901 36.3468359 24.9093367 34.176791 26.3501426 31.9571693 28.0755352 29.4358377 28.7684419 26.9527511 28.7959382 26.825268 28.7395708 26.8054373 24.1394404 24.9965944 24.0940715 19.5247383zM19.6946641 6.09935601C20.8962523 4.55114512 21.7183915 2.44484173 21.4901723.307375814 19.7510315.386698605 17.5760745 1.54679442 16.3236182 3.06100983 15.2155175 4.39533249 14.2256508 6.58237515 14.4813663 8.63910179 16.4349782 8.7892485 18.440833 7.62348678 19.6946641 6.09935601z"/>
  </g>
</svg>
