<?xml version="1.0" encoding="UTF-8"?>
<svg width="81px" height="89px" viewBox="0 0 81 89" version="1.1" xmlns="http://www.w3.org/2000/svg" xmlns:xlink="http://www.w3.org/1999/xlink">
    <!-- Generator: Sketch 41.1 (35376) - http://www.bohemiancoding.com/sketch -->
    <title>Bags</title>
    <desc>Created with Sketch.</desc>
    <defs></defs>
    <g id="Page-1" stroke="none" stroke-width="1" fill="none" fill-rule="evenodd">
        <g id="Bags" transform="translate(45.187379, 43.038474) rotate(8.000000) translate(-45.187379, -43.038474) translate(6.187379, 3.038474)">
            <polygon id="Fill-1" fill="#E5E5E5" points="69.6630435 34.0405634 72.4009565 72.6940845 77.6913913 74.4540845"></polygon>
            <polygon id="Fill-2" fill="#E5E5E5" points="72.8949565 79.6123944 77.4087826 75.0309859 72.4586087 73.4771831"></polygon>
            <polygon id="Fill-3" fill="#F1F1F1" points="25.0730435 34.0405634 21.4782609 79.6123944 71.3937391 79.6123944 68.3958261 34.0405634"></polygon>
            <path d="M56.4245217,41.6507042 L56.4245217,45.5943662 C56.4245217,52.1171831 51.766,57.4298592 46.0346957,57.4298592 C40.3067826,57.4298592 35.6482609,52.1216901 35.6482609,45.5943662 L35.6482609,41.5628169 C34.9417391,41.1932394 34.4556522,40.4664789 34.4556522,39.6169014 C34.4556522,38.3977465 35.4447826,37.4073239 36.6724348,37.4073239 C37.8955652,37.4073239 38.8846957,38.3932394 38.8846957,39.6169014 C38.8846957,40.5983099 38.2358261,41.4219718 37.3484348,41.708169 L37.3484348,45.5943662 C37.3484348,51.1842254 41.2473043,55.7397183 46.0392174,55.7397183 C50.8345217,55.7397183 54.7333913,51.1887324 54.7333913,45.5943662 L54.7333913,41.6552113 C53.9296522,41.3250704 53.3644348,40.5374648 53.3644348,39.6169014 C53.3644348,38.3977465 54.3535652,37.4073239 55.5812174,37.4073239 C56.8043478,37.4073239 57.798,38.3932394 57.798,39.6169014 C57.7889565,40.5329577 57.2237391,41.3160563 56.4245217,41.6507042 Z" id="Path" fill="#F69A98"></path>
            <polyline id="Fill-4" fill="#F1F1F1" points="14.6775652 16.0867606 5.70982609 16.0867606 0.308608696 72.6580282 20.8463478 72.2974648 24.0217391 32.8123944 48.9613913 32.8123944 48.9613913 32.8123944 47.0984348 16.0912676 39.1322609 16.0912676"></polyline>
            <path d="M16.673913,14.3177465 L14.6775652,14.3177465 C14.6775652,6.63774648 20.1624348,0.387605634 26.9054783,0.387605634 C33.6485217,0.387605634 39.1322609,6.63774648 39.1322609,14.3177465 L37.1404348,14.3177465 C37.1404348,7.73295775 32.5486087,2.37633803 26.9054783,2.37633803 C21.2657391,2.37633803 16.673913,7.73295775 16.673913,14.3177465 Z" id="Combined-Shape" fill="#F69A98"></path>
            <path d="M40.5317391,21.3464789 C40.5317391,22.7819718 39.3662609,23.948169 37.9226957,23.948169 C36.4825217,23.948169 35.3125217,22.7819718 35.3125217,21.3464789 C35.3125217,19.9121127 36.4825217,18.7459155 37.9226957,18.7459155 C39.3662609,18.7504225 40.5317391,19.9121127 40.5317391,21.3464789 Z" id="Path" fill="#F69A98"></path>
            <path d="M15.6802609,23.9526761 C14.2412174,23.9526761 13.070087,22.7864789 13.070087,21.3509859 C13.070087,19.9166197 14.2412174,18.7504225 15.6802609,18.7504225 C17.1238261,18.7504225 18.2904348,19.9166197 18.2904348,21.3509859 C18.2904348,22.7909859 17.1238261,23.9526761 15.6802609,23.9526761 Z" id="Path" fill="#F69A98"></path>
        </g>
    </g>
</svg>