<?xml version="1.0" encoding="UTF-8"?>
<svg width="141px" height="118px" viewBox="0 0 141 118" version="1.1" xmlns="http://www.w3.org/2000/svg" xmlns:xlink="http://www.w3.org/1999/xlink">
    <!-- Generator: Sketch 41.1 (35376) - http://www.bohemiancoding.com/sketch -->
    <title>Burger &amp; Coffee</title>
    <desc>Created with Sketch.</desc>
    <defs></defs>
    <g id="Page-1" stroke="none" stroke-width="1" fill="none" fill-rule="evenodd">
        <g id="Burger-&amp;-Coffee" transform="translate(-10.000000, 2.000000)">
            <g id="Coffee-mug" transform="translate(126.285588, 35.572637) rotate(-7.000000) translate(-126.285588, -35.572637) translate(102.785588, 3.072637)">
                <polyline id="Path" fill="#F1F1F1" points="2.9375 11.2755102 8.8125 65 38.1875 65 44.0625 11.2755102"></polyline>
                <path d="M45.6944444,7.95918367 C45.0264386,6.00247692 43.083703,1.18050108 42.4305556,0.663265306 C41.7955698,0.160411996 41.1360173,0.000229366073 41.125,-4.07229805e-13 L23.5,-4.07229805e-13 L5.875,-4.07229805e-13 C5.83588127,0.0107912554 5.22222222,-4.04910232e-13 4.56944444,0.663265306 C3.91666667,1.32653061 1.96797171,5.97851349 1.30555556,7.95918367 L45.6944444,7.95918367 Z" id="Shape" fill="#CFCFCF"></path>
                <rect id="Rectangle-2" fill="#F69A98" x="8.24229573e-13" y="7.95918367" width="47" height="3.31632653" rx="1.65816327"></rect>
                <polygon id="Rectangle" fill="#CFCFCF" points="2.61111111 29.1836735 44.3888889 29.1836735 41.7777778 48.4183673 5.22222222 48.4183673"></polygon>
                <ellipse id="Oval" fill="#F69A98" cx="23.5" cy="39.1326531" rx="7.83333333" ry="7.95918367"></ellipse>
            </g>
            <g id="Burger" transform="translate(49.318223, 70.927363) rotate(325.000000) translate(-49.318223, -70.927363) translate(10.818223, 39.927363)">
                <path d="M70.6340127,51.8864088 L70.003121,58.1879251 C69.7507643,60.07838 68.2366242,61.4647136 66.343949,61.4647136 L10.9516561,61.4647136 C9.05898089,61.4647136 7.54484076,60.07838 7.29248408,58.1879251 L6.66159236,51.8864088 C6.53541401,50.5000752 6.91394904,49.1137416 7.9233758,47.9794687 C8.8066242,46.9712261 10.194586,46.3410745 11.5825478,46.3410745 L65.7130573,46.3410745 C67.1010191,46.3410745 68.4889809,46.9712261 69.3722293,47.9794687 C70.2554777,48.9877113 70.7601911,50.5000752 70.6340127,51.8864088 Z" id="Path" fill="#F1F1F1"></path>
                <path d="M70.1292994,43.8204679 L65.586879,43.8204679 L7.04012739,43.8204679 C3.6333121,43.8204679 0.857388535,41.0478008 0.857388535,37.644982 C0.857388535,34.2421632 3.6333121,31.469496 7.04012739,31.469496 L8.17573248,31.469496 C8.55426752,31.469496 52.6273145,31.5428209 67.8580892,31.3434657 L70.1292994,31.3434657 C73.5361146,31.3434657 76.3120382,34.1161328 76.3120382,37.5189516 C76.4382166,41.0478008 73.662293,43.8204679 70.1292994,43.8204679 Z" id="Path" fill="#CFCFCF"></path>
                <path d="M5.77834395,22.5213428 C5.77834395,7.14564306 16.2511465,0.087944803 38.5847134,0.087944803 C60.9182803,0.087944803 71.3910828,7.27167339 71.3910828,22.5213428 L71.3910828,25.29401 C71.3910828,27.3104952 69.7507643,28.9488895 67.7319108,28.9488895 L17.1343949,28.9488895 L16.3773248,28.9488895 L16.2511465,28.9488895 L9.31133758,28.9488895 C7.29248408,28.9488895 5.65216561,27.3104952 5.65216561,25.29401 L5.65216561,22.5213428 L5.77834395,22.5213428 Z" id="Path" fill="#F1F1F1"></path>
                <ellipse id="Oval" fill="#F69A98" cx="31.0440552" cy="19.0555089" rx="1.91670913" ry="1.95347005"></ellipse>
                <ellipse id="Oval" fill="#F69A98" cx="57.877983" cy="19.0555089" rx="1.91670913" ry="1.95347005"></ellipse>
                <ellipse id="Oval" fill="#F69A98" cx="15.7103822" cy="19.0555089" rx="1.91670913" ry="1.95347005"></ellipse>
                <ellipse id="Oval" fill="#F69A98" cx="46.3777282" cy="11.2416287" rx="1.91670913" ry="1.95347005"></ellipse>
                <ellipse id="Oval" fill="#F69A98" cx="34.8774735" cy="11.2416287" rx="1.91670913" ry="1.95347005"></ellipse>
                <ellipse id="Oval" fill="#F69A98" cx="23.3772187" cy="11.2416287" rx="1.91670913" ry="1.95347005"></ellipse>
            </g>
        </g>
    </g>
</svg>