<svg xmlns="http://www.w3.org/2000/svg" width="42" height="42" viewBox="0 0 42 42">
  <g fill="none" transform="translate(4 4)">
    <g transform="translate(0 .265)">
      <path fill="#FFF" d="M33.740595,15.88297 C35.8589554,16.9785707 35.8544769,18.7556806 33.740595,19.8488503 L3.92053016,35.261814 C1.80216978,36.3557941 0.084192966,35.4595408 0.084192966,33.2569943 L0.084192966,2.47644675 C0.084192966,0.273900197 1.80664835,-0.621542753 3.92142586,0.471626965 L33.7414907,15.8845907 L33.740595,15.88297 Z"/>
      <path fill="#EF5350" d="M32.3701346,19.8488503 L25.8025214,23.2657631 L20.0340749,17.7412169 L25.5284293,12.6100562 L32.6451224,16.1573445 C34.7625871,17.2513246 34.4840165,18.7556806 32.3701346,19.8488503 Z"/>
    </g>
    <path fill="#EF5350" d="M1.64455251 1.99312942C2.23017365 1.30955581 3.09282836 1.41451677 4.33065495 1.96677421L24.9420584 12.6383451 19.5189059 17.6227282C19.5189059 17.6227282 10.2278479 10.057057 1.64455251 2.53790756 1.40208275 2.32549888 1.64455251 1.99312942 1.64455251 1.99312942zM1.15325538 33.2759684C.961126036 32.9112934.822276257 32.4260288.822276257 31.7925694L.822276257 4.20948449C.822276257 3.60798872.979693158 3.09802492 1.15325538 2.7275384L18.9123539 18.1248597 1.15325538 33.2759684zM4.33065495 34.0449306C3.09282836 34.6271016 1.92559718 34.687363 1.37046043 33.7238701L19.5701749 18.5472611 25.2164719 23.9186551 4.33065495 34.0449306z"/>
  </g>
</svg>
