<?xml version="1.0" encoding="UTF-8"?>
<svg width="200px" height="170px" viewBox="0 0 200 170" version="1.1" xmlns="http://www.w3.org/2000/svg" xmlns:xlink="http://www.w3.org/1999/xlink">
    <!-- Generator: Sketch 41.1 (35376) - http://www.bohemiancoding.com/sketch -->
    <title>Merchant+Bills</title>
    <desc>Created with Sketch.</desc>
    <defs></defs>
    <g id="Page-1" stroke="none" stroke-width="1" fill="none" fill-rule="evenodd">
        <g id="Merchant+Bills" transform="translate(42.000000, 43.000000)">
            <g id="Bills" transform="translate(96.490909, 47.014925) rotate(9.000000) translate(-96.490909, -47.014925) translate(80.145455, 27.164179)">
                <path d="M3.92290909,39.7014925 C1.68214961,39.7014925 1.64845915e-13,38.0321107 1.64845915e-13,35.7964277 L1.64845915e-13,3.90506484 C1.64845915e-13,1.67084234 1.68214961,-3.1735808e-13 3.92290909,-3.1735808e-13 L28.768,-3.1735808e-13 C31.0087595,-3.1735808e-13 32.6909091,1.67084234 32.6909091,3.90506484 L32.6909091,35.7964277 C32.6909091,38.0321107 31.0087595,39.7014925 28.768,39.7014925 L3.92290909,39.7014925" id="Fill-1976" fill="#F1F1F1"></path>
                <path d="M19.0966136,19.8507463 L10.5732542,19.8507463 L9.49090909,21.3564855 L14.7619307,21.3564856 C16.0875978,21.3564856 16.1123717,22.0638811 16.5785377,22.8405658 L10.143455,22.8405658 L9.49090909,24.3716147 L16.5785378,24.3716147 C16.1123718,25.1482995 14.993227,25.8569955 13.6877023,25.8569955 L10.5732542,25.8569955 C13.1843035,28.4460448 15.5234574,30.844087 18.2579028,33.4328358 L21.2884724,33.4328358 L14.9026346,27.3021841 C17.4663864,27.3021841 18.5370413,26.0543315 19.0966137,24.3716147 L22.4790504,24.3610686 L23.2,22.8587771 L19.0966136,22.8405658 C19.0040731,22.3873995 18.5993415,21.744828 18.2279132,21.3564856 L22.4790504,21.3564855 L23.2,19.8507463 L19.0966136,19.8507463 Z" id="Shape" fill="#F69A98"></path>
                <text id="BILLS" font-family="Lato-Black, Lato" font-size="9.24" font-weight="700" letter-spacing="0.384999977" fill="#AAAAAA">
                    <tspan x="3.4425646" y="14.2238806">BILLS</tspan>
                </text>
            </g>
            <g id="Merchant">
                <g id="Body-House" transform="translate(2.109091, 28.208955)">
                    <path d="M63.974721,2.98826877 C63.8767216,2.99250737 63.7773222,3.0038103 63.6737228,3.0038103 C61.6507347,3.0038103 59.8405453,2.07697029 58.6267524,0.625957038 C57.4185595,2.0600159 55.6181701,2.97131438 53.6119819,2.97131438 C51.6211936,2.97131438 49.8334041,2.07131882 48.6238112,0.65280149 C47.4100183,2.08827321 45.6166288,2.99815884 43.6034406,2.99815884 C41.5748526,2.99815884 39.7646632,2.07131882 38.5564703,0.614654111 C37.3426774,2.04871297 35.543688,2.97131438 33.5304998,2.97131438 C31.5397115,2.97131438 29.751922,2.07131882 28.5437291,0.65280149 C27.3341362,2.08827321 25.5351468,2.99815884 23.5275585,2.99815884 C21.5045704,2.99815884 19.6943811,2.07131882 18.4805882,0.620305575 C17.2723953,2.05436443 15.4734058,2.96566292 13.4658176,2.96566292 C11.4750293,2.96566292 9.68723982,2.06566736 8.47764692,0.647150026 C7.26945402,2.08262175 5.47046458,2.99250737 3.46287637,2.99250737 L3.46287637,37.1174568 L0.329694769,37.1174568 L0.329694769,41.6923164 L67.1191026,41.6923164 L67.1191026,37.1174568 L63.985921,37.1174568 L63.985921,2.98826877 L63.974721,2.98826877 Z" id="Fill-1" fill="#F1F1F1"></path>
                    <polygon id="Path" fill="#CFCFCF" points="46.1416257 10.5485141 60.7267401 10.5485141 60.7267401 23.9043351 46.1416257 23.9043351"></polygon>
                    <polygon id="Path" fill="#CFCFCF" points="6.76685697 10.5485141 21.3575713 10.5485141 21.3575713 23.9043351 6.76685697 23.9043351"></polygon>
                    <polygon id="Path" fill="#CFCFCF" points="24.6601519 10.5485141 42.7732455 10.5485141 42.7732455 37.1287597 24.6601519 37.1287597"></polygon>
                </g>
                <g id="Shade">
                    <path d="M10.5979378,24.6570679 L10.5979378,23.6412173 C11.4673327,19.7332303 12.3535275,15.8266562 13.2341223,11.9243207 C14.1147171,8.01633365 15.0065119,4.10410806 15.8815067,0.196121057 L7.96315324,0.196121057 C6.73256046,4.10410806 5.49076776,8.01633365 4.26017498,11.9243207 C3.02958221,15.8323077 1.79338947,19.7388818 0.562796695,23.6468688 L0.557196728,23.6468688 L0.557196728,24.6570679 C0.557196728,27.4432394 2.81678346,29.7236049 5.57756725,29.7236049 C8.33975103,29.7236049 10.5979378,27.4432394 10.5979378,24.6570679 Z" id="Fill-2" fill="#F69A98"></path>
                    <path d="M20.6163508,24.6570679 L20.648018,23.6412173 L22.1981689,11.9243207 L23.7905429,0.196121057 L15.8708962,0.196121057 L13.2239768,11.9243207 L10.5771218,23.6468688 L10.5771218,24.6570679 C10.5771218,24.6570679 9.52060191,29.7236049 15.0684763,29.7236049 C20.6163508,29.7236049 20.6163508,24.6570679 20.6163508,24.6570679 Z" id="Fill-2-Copy" fill="#F1F1F1"></path>
                    <path d="M57.7006917,24.6570679 L57.732359,23.6412173 L59.2825099,11.9243207 L60.8748838,0.196121057 L52.9552372,0.196121057 L50.3083178,11.9243207 L47.6614628,23.6468688 L47.6614628,24.6570679 C47.6614628,24.6570679 46.6049429,29.7236049 52.1528173,29.7236049 C57.7006917,29.7236049 57.7006917,24.6570679 57.7006917,24.6570679 Z" id="Fill-2-Copy-2" fill="#F1F1F1" transform="translate(54.227985, 14.959863) scale(-1, 1) translate(-54.227985, -14.959863) "></path>
                    <path d="M70.7863843,23.4914535 C69.5669915,19.6343297 68.3531986,15.775793 67.1394057,11.9243207 C65.908813,8.01633365 64.6670202,4.10410806 63.4322275,0.196121057 L55.506874,0.196121057 C56.3874689,4.10410806 57.2792636,8.01633365 58.1542585,11.9243207 C59.0348533,15.8323077 59.9098482,19.7388818 60.796043,23.6468688 L60.8072429,23.6468688 L60.8072429,24.5737088 C60.8072429,27.3612932 63.0654297,29.6402458 65.8276134,29.6402458 C68.5883972,29.6402458 70.846584,27.3612932 70.846584,24.5737088 L70.846584,23.4858021 L70.7863843,23.4914535 Z" id="Fill-3" fill="#F69A98"></path>
                    <path d="M40.7257608,23.6468688 L40.7257608,24.5624059 C40.7257608,27.3499902 42.9839476,29.6289429 45.7461314,29.6289429 C48.4523155,29.6289429 50.6671025,27.4319365 50.749702,24.7178211 C50.749702,24.6627193 50.7329021,24.6118562 50.7329021,24.5567544 L50.7329021,23.4264617 C50.2079052,19.5905309 49.6941082,15.7546 49.1747112,11.9243207 C48.6441143,8.01633365 48.1135175,4.10410806 47.5773206,0.196121057 L39.6533671,0.196121057 C39.8339661,4.10410806 40.014565,8.01633365 40.189564,11.9243207 C40.364563,15.8323077 40.5395619,19.7388818 40.7257608,23.6468688 Z" id="Fill-4" fill="#F69A98"></path>
                    <polygon id="Fill-5" fill="#F69A98" points="41.5405561 54.7129636 43.3941452 54.7129636 43.3941452 49.5079657 41.5405561 49.5079657"></polygon>
                    <path d="M25.6366495,29.6232914 C28.3988332,29.6232914 30.65702,27.3443388 30.65702,24.5567544 L30.65702,23.6468688 L30.6682199,23.6468688 C30.8376189,19.7388818 31.0182178,15.8323077 31.1932168,11.9243207 C31.3682158,8.01633365 31.5432148,4.10410806 31.7182137,0.196121057 L23.8054602,0.196121057 C23.2804633,4.10410806 22.7442664,8.01633365 22.2192695,11.9243207 C21.6886726,15.8323077 21.1580758,19.7388818 20.6386788,23.6468688 L20.6218789,23.6468688 L20.6218789,24.5567544 C20.6218789,24.5793603 20.6176789,24.5963146 20.6176789,24.6118562 C20.6498787,27.3711832 22.8926656,29.6232914 25.6366495,29.6232914 Z" id="Fill-6" fill="#F69A98"></path>
                    <path d="M35.8545455,29.6232914 C39.0181818,29.6232914 40.7476518,27.1641791 40.7265403,24.5567544 L40.7476518,23.6468688 L40.1992676,11.9243207 L39.6508833,0.196121057 L31.713223,0.196121057 C31.1512496,10.4477612 31.713223,3.13432836 31.1512496,11.9243207 C30.5892762,20.7143129 30.6555325,21.9402985 30.6555325,23.6468688 C30.6499325,23.6468688 30.6387326,24.5567544 30.6387326,24.5567544 C30.6667324,27.3711832 32.6909091,29.6232914 35.8545455,29.6232914 Z" id="Fill-6-Copy" fill="#F1F1F1"></path>
                </g>
            </g>
        </g>
    </g>
</svg>