<?xml version="1.0" encoding="UTF-8"?>
<svg width="77px" height="91px" viewBox="0 0 77 91" version="1.1" xmlns="http://www.w3.org/2000/svg" xmlns:xlink="http://www.w3.org/1999/xlink">
    <!-- Generator: Sketch 41.1 (35376) - http://www.bohemiancoding.com/sketch -->
    <title>Scissors &amp; Comb</title>
    <desc>Created with Sketch.</desc>
    <defs></defs>
    <g id="Page-1" stroke="none" stroke-width="1" fill="none" fill-rule="evenodd">
        <g id="Homepage-Final-Copy" transform="translate(-1266.000000, -2980.000000)">
            <g id="SLP" transform="translate(82.000000, 2980.000000)">
                <g id="Scissors-&amp;-Comb" transform="translate(1215.808787, 45.510977) rotate(-15.000000) translate(-1215.808787, -45.510977) translate(1180.808787, 8.510977)">
                    <g id="Scissor" transform="translate(0.000000, -0.000000)">
                        <path d="M36.6834904,46.8739464 C34.3621102,47.0665543 32.2759777,47.9715477 30.6157244,49.3395915 L26.5205231,2.04775373 C26.5178191,2.02928448 26.5124111,2.01477293 26.5097071,1.99894214 C26.5042991,1.94221515 26.4880751,1.88812663 26.4786112,1.83403811 C26.4596832,1.74169185 26.4475152,1.64802636 26.4177713,1.56095703 C26.4015473,1.5147839 26.3812673,1.47652617 26.3623394,1.43167227 C26.3258354,1.33668755 26.2879795,1.24302206 26.2406595,1.15595273 C26.2217316,1.12561039 26.2014516,1.09922574 26.1825236,1.07152187 C26.1216837,0.976537144 26.0608438,0.882871654 25.986484,0.795802325 C25.972964,0.779971538 25.958092,0.76941768 25.944572,0.754906125 C25.8593962,0.659921403 25.7674603,0.568894378 25.6701165,0.492378907 C25.6647085,0.489740442 25.6620045,0.487101978 25.6565965,0.484463513 C25.3131891,0.214020902 24.8913658,0.0412014767 24.4343905,0.00558220589 C24.4289825,0.00558220589 24.4262785,0.00294374139 24.4208705,0.00294374139 C24.3681426,-0.00233318762 24.3181187,0.00558220589 24.2680948,0.00558220589 C24.1910309,0.00558220589 24.115319,-0.00497165212 24.0355512,0.00294374139 C24.0274392,0.00294374139 24.0220312,0.00558220589 24.0139192,0.0082206704 C23.8814234,0.0187745284 23.7529836,0.0438399412 23.6285998,0.0781399798 C23.6069679,0.0834169088 23.5893919,0.0860553733 23.5704639,0.0913323023 C23.4406721,0.126951573 23.3189923,0.178401631 23.2013685,0.235128618 C23.1851446,0.243044011 23.1702726,0.24832094 23.1540486,0.256236334 C23.0404808,0.315601785 22.937729,0.385521095 22.8376811,0.459398101 C22.8187532,0.472590423 22.8011772,0.483144281 22.7822492,0.495017371 C22.6903134,0.57021361 22.6051375,0.654644474 22.5240176,0.743033035 C22.5077937,0.764140751 22.4875137,0.778652306 22.4685857,0.799760022 C22.3942259,0.884190886 22.333386,0.98049484 22.2725461,1.07547956 C22.2563221,1.10318344 22.2333381,1.12956808 22.2171141,1.15859119 C22.1670902,1.24566052 22.1305863,1.34460294 22.0900264,1.44222613 C22.0738024,1.48048386 22.0535224,1.52006083 22.0400024,1.56095703 C22.0116105,1.65066482 21.9953865,1.74696878 21.9764585,1.8419535 C21.9683466,1.89340356 21.9521226,1.94485362 21.9480666,1.99894214 C21.9453626,2.01741139 21.9399546,2.03192295 21.9372506,2.0503922 L17.8393453,49.3395915 C16.1804441,47.9741861 14.0943115,47.0691928 11.7688753,46.8765849 C5.7849331,46.3924267 0.537829709,50.8065778 0.0389425274,56.5439188 C-0.390992767,61.509509 2.78214603,65.9671948 7.42220242,67.4763965 C6.7624275,69.0146213 5.5442775,69.7573491 5.44693366,69.8153953 C4.35857544,70.4314768 3.97866407,71.7863283 4.59923105,72.8588641 C5.02240635,73.591038 5.80115708,74 6.60018777,74 C6.98280314,74 7.3708265,73.9050153 7.73045791,73.7084497 C7.88593766,73.6240188 11.0387965,71.8298629 12.0960588,67.9552778 C17.1349545,67.3853695 21.2382678,63.3656688 21.673611,58.3262016 L24.2302388,28.8413608 L26.7841627,58.3262016 C27.2573619,63.7680347 32.0042261,68.0317933 37.5920329,68.0317933 L37.5947369,68.0317933 C37.9016404,68.0317933 38.2071919,68.018601 38.5195034,67.9935356 C41.4087227,67.7560738 44.0275424,66.434203 45.9000593,64.2706621 C47.7725762,62.1071212 48.6675988,59.3617989 48.4215352,56.5439188 C47.924,50.8065778 42.7255685,46.3924267 36.6834904,46.8739464 Z" id="Shape" fill="#F1F1F1"></path>
                        <path d="M43.8369107,56.9212193 C43.9788705,58.5465134 43.4624073,60.1295921 42.3848651,61.3762666 C41.3046188,62.6229411 39.7944373,63.3854573 38.1287761,63.5252959 C34.6771257,63.8115693 31.6513547,61.2601741 31.3633791,57.9489012 C31.0726996,54.5914551 33.6347354,51.6310979 37.0701618,51.3448245 C37.2499775,51.3289937 37.4270892,51.3237168 37.6042009,51.3237168 C40.8287156,51.3237168 43.5678631,53.7801273 43.8369107,56.9212193 Z" id="Path" fill="#CFCFCF"></path>
                        <path d="M10.3276457,63.5239767 C6.8868113,63.2403418 4.3261275,60.2773461 4.61545502,56.9199 C4.88991057,53.7814465 7.62905808,51.3237168 10.8495168,51.3237168 C11.0266285,51.3237168 11.2064442,51.3289937 11.3808519,51.3448245 C14.8216863,51.6310979 17.3823701,54.5914551 17.0930426,57.9462627 C16.805067,61.2601741 13.77524,63.8023347 10.3276457,63.5239767 Z" id="Path" fill="#CFCFCF"></path>
                    </g>
                    <rect id="Rectangle-6" fill="#F69A98" x="48.4615385" y="7.92857143" width="18.8461538" height="5.28571429" rx="2.64285714"></rect>
                    <rect id="Rectangle-6-Copy" fill="#F69A98" x="48.4615385" y="15.8571429" width="18.8461538" height="5.28571429" rx="2.64285714"></rect>
                    <rect id="Rectangle-6-Copy-2" fill="#F69A98" x="48.4615385" y="23.7857143" width="18.8461538" height="5.28571429" rx="2.64285714"></rect>
                    <rect id="Rectangle-6-Copy-3" fill="#F69A98" x="48.4615385" y="31.7142857" width="18.8461538" height="5.28571429" rx="2.64285714"></rect>
                    <rect id="Rectangle-6-Copy-4" fill="#F69A98" x="48.4615385" y="39.6428571" width="18.8461538" height="5.28571429" rx="2.64285714"></rect>
                    <path d="M65.3192222,71.7501924 C65.3192222,72.9922875 66.3655137,74 67.6582344,74 C68.9509551,74 70,72.9909633 70,71.7501924 L70,8.17558112 C70,3.66802069 66.1851661,5.1159077e-13 61.4975047,5.1159077e-13 L50.8005507,5.1159077e-13 C49.5092067,5.1159077e-13 48.4615385,1.00638835 48.4615385,2.24980763 C48.4615385,3.49322692 49.5105834,4.50226366 50.8005507,4.50226366 L61.4975047,4.50226366 C63.6024781,4.50226366 65.3178455,6.14956248 65.3178455,8.17425693 L65.3192222,71.7501924 Z" id="Shape" fill="#F1F1F1"></path>
                </g>
            </g>
        </g>
    </g>
</svg>