<?xml version="1.0" encoding="UTF-8"?>
<svg width="141px" height="432px" viewBox="0 0 141 432" version="1.1" xmlns="http://www.w3.org/2000/svg" xmlns:xlink="http://www.w3.org/1999/xlink">
    <!-- Generator: Sketch 41.1 (35376) - http://www.bohemiancoding.com/sketch -->
    <title>UPI Fig</title>
    <desc>Created with Sketch.</desc>
    <defs></defs>
    <g id="Page-1" stroke="none" stroke-width="1" fill="none" fill-rule="evenodd">
        <g id="UPI-Fig" transform="translate(6.000000, 12.000000)">
            <g id="Phone" transform="translate(33.963504, 237.814645)">
                <g id="Phone-screen" transform="translate(1.000000, 0.000000)">
                    <g id="Phone">
                        <path d="M0,4.37434482 C0,1.95846088 1.96781635,0 4.3761198,0 L51.8404938,0 C54.257358,0 56.2166135,1.95141805 56.2166135,4.37434482 L56.2166135,109.434351 C56.2166135,111.850235 54.2487972,113.808696 51.8404938,113.808696 L4.3761198,113.808696 C1.95925557,113.808696 0,111.857278 0,109.434351 L0,4.37434482 Z" id="Combined-Shape" fill="#666666"></path>
                        <polygon id="Rectangle-14" fill="#F5F5F5" points="1.85051917 11.1942979 54.3660944 11.1942979 54.3660944 99.8158232 1.85051917 99.8158232"></polygon>
                        <ellipse id="Oval-4" fill="#757775" opacity="0.5" cx="27.7757788" cy="106.798574" rx="2.77577876" ry="2.79857448"></ellipse>
                        <g id="Speaker" transform="translate(16.000000, 5.000000)" fill="#E5E5E5">
                            <path d="M2.93530628,2.86571632 C3.35820844,2.86571632 3.70103835,2.44806152 3.70103835,1.93285816 C3.70103835,1.4176548 3.35820844,1 2.93530628,1 C2.51240411,1 2.1695742,1.4176548 2.1695742,1.93285816 C2.1695742,2.44806152 2.51240411,2.86571632 2.93530628,2.86571632 Z M0.765732072,2.86571632 C1.18863424,2.86571632 1.53146414,2.44806152 1.53146414,1.93285816 C1.53146414,1.4176548 1.18863424,1 0.765732072,1 C0.342829905,1 0,1.4176548 0,1.93285816 C0,2.44806152 0.342829905,2.86571632 0.765732072,2.86571632 Z" id="Sensors"></path>
                            <g id="Group" transform="translate(6.206230, 0.664291)">
                                <path d="M0.215847544,2.78613637 C0.335056857,2.78613637 0.431695088,2.68218674 0.431695088,2.55395834 C0.431695088,2.42572995 0.335056857,2.32178031 0.215847544,2.32178031 C0.0966382312,2.32178031 0,2.42572995 0,2.55395834 C0,2.68218674 0.0966382312,2.78613637 0.215847544,2.78613637 Z M0.935339357,2.78613637 C1.05454867,2.78613637 1.1511869,2.68218674 1.1511869,2.55395834 C1.1511869,2.42572995 1.05454867,2.32178031 0.935339357,2.32178031 C0.816130044,2.32178031 0.719491813,2.42572995 0.719491813,2.55395834 C0.719491813,2.68218674 0.816130044,2.78613637 0.935339357,2.78613637 Z M0.215847544,2.0122096 C0.335056857,2.0122096 0.431695088,1.90825996 0.431695088,1.78003157 C0.431695088,1.65180318 0.335056857,1.54785354 0.215847544,1.54785354 C0.0966382312,1.54785354 0,1.65180318 0,1.78003157 C0,1.90825996 0.0966382312,2.0122096 0.215847544,2.0122096 Z M0.935339357,2.0122096 C1.05454867,2.0122096 1.1511869,1.90825996 1.1511869,1.78003157 C1.1511869,1.65180318 1.05454867,1.54785354 0.935339357,1.54785354 C0.816130044,1.54785354 0.719491813,1.65180318 0.719491813,1.78003157 C0.719491813,1.90825996 0.816130044,2.0122096 0.935339357,2.0122096 Z M0.215847544,1.23828283 C0.335056857,1.23828283 0.431695088,1.13433319 0.431695088,1.0061048 C0.431695088,0.87787641 0.335056857,0.773926771 0.215847544,0.773926771 C0.0966382312,0.773926771 0,0.87787641 0,1.0061048 C0,1.13433319 0.0966382312,1.23828283 0.215847544,1.23828283 Z M0.935339357,1.23828283 C1.05454867,1.23828283 1.1511869,1.13433319 1.1511869,1.0061048 C1.1511869,0.87787641 1.05454867,0.773926771 0.935339357,0.773926771 C0.816130044,0.773926771 0.719491813,0.87787641 0.719491813,1.0061048 C0.719491813,1.13433319 0.816130044,1.23828283 0.935339357,1.23828283 Z M0.215847544,0.464356062 C0.335056857,0.464356062 0.431695088,0.360406423 0.431695088,0.232178031 C0.431695088,0.103949639 0.335056857,0 0.215847544,0 C0.0966382312,0 0,0.103949639 0,0.232178031 C0,0.360406423 0.0966382312,0.464356062 0.215847544,0.464356062 Z M0.935339357,0.464356062 C1.05454867,0.464356062 1.1511869,0.360406423 1.1511869,0.232178031 C1.1511869,0.103949639 1.05454867,0 0.935339357,0 C0.816130044,0 0.719491813,0.103949639 0.719491813,0.232178031 C0.719491813,0.360406423 0.816130044,0.464356062 0.935339357,0.464356062 Z M1.65483117,2.78613637 C1.77404048,2.78613637 1.87067871,2.68218674 1.87067871,2.55395834 C1.87067871,2.42572995 1.77404048,2.32178031 1.65483117,2.32178031 C1.53562186,2.32178031 1.43898363,2.42572995 1.43898363,2.55395834 C1.43898363,2.68218674 1.53562186,2.78613637 1.65483117,2.78613637 Z M2.37432298,2.78613637 C2.4935323,2.78613637 2.59017053,2.68218674 2.59017053,2.55395834 C2.59017053,2.42572995 2.4935323,2.32178031 2.37432298,2.32178031 C2.25511367,2.32178031 2.15847544,2.42572995 2.15847544,2.55395834 C2.15847544,2.68218674 2.25511367,2.78613637 2.37432298,2.78613637 Z M1.65483117,2.0122096 C1.77404048,2.0122096 1.87067871,1.90825996 1.87067871,1.78003157 C1.87067871,1.65180318 1.77404048,1.54785354 1.65483117,1.54785354 C1.53562186,1.54785354 1.43898363,1.65180318 1.43898363,1.78003157 C1.43898363,1.90825996 1.53562186,2.0122096 1.65483117,2.0122096 Z M2.37432298,2.0122096 C2.4935323,2.0122096 2.59017053,1.90825996 2.59017053,1.78003157 C2.59017053,1.65180318 2.4935323,1.54785354 2.37432298,1.54785354 C2.25511367,1.54785354 2.15847544,1.65180318 2.15847544,1.78003157 C2.15847544,1.90825996 2.25511367,2.0122096 2.37432298,2.0122096 Z M1.65483117,1.23828283 C1.77404048,1.23828283 1.87067871,1.13433319 1.87067871,1.0061048 C1.87067871,0.87787641 1.77404048,0.773926771 1.65483117,0.773926771 C1.53562186,0.773926771 1.43898363,0.87787641 1.43898363,1.0061048 C1.43898363,1.13433319 1.53562186,1.23828283 1.65483117,1.23828283 Z M2.37432298,1.23828283 C2.4935323,1.23828283 2.59017053,1.13433319 2.59017053,1.0061048 C2.59017053,0.87787641 2.4935323,0.773926771 2.37432298,0.773926771 C2.25511367,0.773926771 2.15847544,0.87787641 2.15847544,1.0061048 C2.15847544,1.13433319 2.25511367,1.23828283 2.37432298,1.23828283 Z M1.65483117,0.464356062 C1.77404048,0.464356062 1.87067871,0.360406423 1.87067871,0.232178031 C1.87067871,0.103949639 1.77404048,0 1.65483117,0 C1.53562186,0 1.43898363,0.103949639 1.43898363,0.232178031 C1.43898363,0.360406423 1.53562186,0.464356062 1.65483117,0.464356062 Z M2.37432298,0.464356062 C2.4935323,0.464356062 2.59017053,0.360406423 2.59017053,0.232178031 C2.59017053,0.103949639 2.4935323,0 2.37432298,0 C2.25511367,0 2.15847544,0.103949639 2.15847544,0.232178031 C2.15847544,0.360406423 2.25511367,0.464356062 2.37432298,0.464356062 Z M3.0938148,2.78613637 C3.21302411,2.78613637 3.30966234,2.68218674 3.30966234,2.55395834 C3.30966234,2.42572995 3.21302411,2.32178031 3.0938148,2.32178031 C2.97460548,2.32178031 2.87796725,2.42572995 2.87796725,2.55395834 C2.87796725,2.68218674 2.97460548,2.78613637 3.0938148,2.78613637 Z M3.81330661,2.78613637 C3.93251592,2.78613637 4.02915415,2.68218674 4.02915415,2.55395834 C4.02915415,2.42572995 3.93251592,2.32178031 3.81330661,2.32178031 C3.6940973,2.32178031 3.59745907,2.42572995 3.59745907,2.55395834 C3.59745907,2.68218674 3.6940973,2.78613637 3.81330661,2.78613637 Z M3.0938148,2.0122096 C3.21302411,2.0122096 3.30966234,1.90825996 3.30966234,1.78003157 C3.30966234,1.65180318 3.21302411,1.54785354 3.0938148,1.54785354 C2.97460548,1.54785354 2.87796725,1.65180318 2.87796725,1.78003157 C2.87796725,1.90825996 2.97460548,2.0122096 3.0938148,2.0122096 Z M3.81330661,2.0122096 C3.93251592,2.0122096 4.02915415,1.90825996 4.02915415,1.78003157 C4.02915415,1.65180318 3.93251592,1.54785354 3.81330661,1.54785354 C3.6940973,1.54785354 3.59745907,1.65180318 3.59745907,1.78003157 C3.59745907,1.90825996 3.6940973,2.0122096 3.81330661,2.0122096 Z M3.0938148,1.23828283 C3.21302411,1.23828283 3.30966234,1.13433319 3.30966234,1.0061048 C3.30966234,0.87787641 3.21302411,0.773926771 3.0938148,0.773926771 C2.97460548,0.773926771 2.87796725,0.87787641 2.87796725,1.0061048 C2.87796725,1.13433319 2.97460548,1.23828283 3.0938148,1.23828283 Z M3.81330661,1.23828283 C3.93251592,1.23828283 4.02915415,1.13433319 4.02915415,1.0061048 C4.02915415,0.87787641 3.93251592,0.773926771 3.81330661,0.773926771 C3.6940973,0.773926771 3.59745907,0.87787641 3.59745907,1.0061048 C3.59745907,1.13433319 3.6940973,1.23828283 3.81330661,1.23828283 Z M3.0938148,0.464356062 C3.21302411,0.464356062 3.30966234,0.360406423 3.30966234,0.232178031 C3.30966234,0.103949639 3.21302411,0 3.0938148,0 C2.97460548,0 2.87796725,0.103949639 2.87796725,0.232178031 C2.87796725,0.360406423 2.97460548,0.464356062 3.0938148,0.464356062 Z M3.81330661,0.464356062 C3.93251592,0.464356062 4.02915415,0.360406423 4.02915415,0.232178031 C4.02915415,0.103949639 3.93251592,0 3.81330661,0 C3.6940973,0 3.59745907,0.103949639 3.59745907,0.232178031 C3.59745907,0.360406423 3.6940973,0.464356062 3.81330661,0.464356062 Z M4.53279842,2.78613637 C4.65200774,2.78613637 4.74864597,2.68218674 4.74864597,2.55395834 C4.74864597,2.42572995 4.65200774,2.32178031 4.53279842,2.32178031 C4.41358911,2.32178031 4.31695088,2.42572995 4.31695088,2.55395834 C4.31695088,2.68218674 4.41358911,2.78613637 4.53279842,2.78613637 Z M5.25229024,2.78613637 C5.37149955,2.78613637 5.46813778,2.68218674 5.46813778,2.55395834 C5.46813778,2.42572995 5.37149955,2.32178031 5.25229024,2.32178031 C5.13308092,2.32178031 5.03644269,2.42572995 5.03644269,2.55395834 C5.03644269,2.68218674 5.13308092,2.78613637 5.25229024,2.78613637 Z M4.53279842,2.0122096 C4.65200774,2.0122096 4.74864597,1.90825996 4.74864597,1.78003157 C4.74864597,1.65180318 4.65200774,1.54785354 4.53279842,1.54785354 C4.41358911,1.54785354 4.31695088,1.65180318 4.31695088,1.78003157 C4.31695088,1.90825996 4.41358911,2.0122096 4.53279842,2.0122096 Z M5.25229024,2.0122096 C5.37149955,2.0122096 5.46813778,1.90825996 5.46813778,1.78003157 C5.46813778,1.65180318 5.37149955,1.54785354 5.25229024,1.54785354 C5.13308092,1.54785354 5.03644269,1.65180318 5.03644269,1.78003157 C5.03644269,1.90825996 5.13308092,2.0122096 5.25229024,2.0122096 Z M4.53279842,1.23828283 C4.65200774,1.23828283 4.74864597,1.13433319 4.74864597,1.0061048 C4.74864597,0.87787641 4.65200774,0.773926771 4.53279842,0.773926771 C4.41358911,0.773926771 4.31695088,0.87787641 4.31695088,1.0061048 C4.31695088,1.13433319 4.41358911,1.23828283 4.53279842,1.23828283 Z M5.25229024,1.23828283 C5.37149955,1.23828283 5.46813778,1.13433319 5.46813778,1.0061048 C5.46813778,0.87787641 5.37149955,0.773926771 5.25229024,0.773926771 C5.13308092,0.773926771 5.03644269,0.87787641 5.03644269,1.0061048 C5.03644269,1.13433319 5.13308092,1.23828283 5.25229024,1.23828283 Z M4.53279842,0.464356062 C4.65200774,0.464356062 4.74864597,0.360406423 4.74864597,0.232178031 C4.74864597,0.103949639 4.65200774,0 4.53279842,0 C4.41358911,0 4.31695088,0.103949639 4.31695088,0.232178031 C4.31695088,0.360406423 4.41358911,0.464356062 4.53279842,0.464356062 Z M5.25229024,0.464356062 C5.37149955,0.464356062 5.46813778,0.360406423 5.46813778,0.232178031 C5.46813778,0.103949639 5.37149955,0 5.25229024,0 C5.13308092,0 5.03644269,0.103949639 5.03644269,0.232178031 C5.03644269,0.360406423 5.13308092,0.464356062 5.25229024,0.464356062 Z M5.97178205,2.78613637 C6.09099136,2.78613637 6.18762959,2.68218674 6.18762959,2.55395834 C6.18762959,2.42572995 6.09099136,2.32178031 5.97178205,2.32178031 C5.85257274,2.32178031 5.75593451,2.42572995 5.75593451,2.55395834 C5.75593451,2.68218674 5.85257274,2.78613637 5.97178205,2.78613637 Z M6.69127386,2.78613637 C6.81048318,2.78613637 6.90712141,2.68218674 6.90712141,2.55395834 C6.90712141,2.42572995 6.81048318,2.32178031 6.69127386,2.32178031 C6.57206455,2.32178031 6.47542632,2.42572995 6.47542632,2.55395834 C6.47542632,2.68218674 6.57206455,2.78613637 6.69127386,2.78613637 Z M5.97178205,2.0122096 C6.09099136,2.0122096 6.18762959,1.90825996 6.18762959,1.78003157 C6.18762959,1.65180318 6.09099136,1.54785354 5.97178205,1.54785354 C5.85257274,1.54785354 5.75593451,1.65180318 5.75593451,1.78003157 C5.75593451,1.90825996 5.85257274,2.0122096 5.97178205,2.0122096 Z M6.69127386,2.0122096 C6.81048318,2.0122096 6.90712141,1.90825996 6.90712141,1.78003157 C6.90712141,1.65180318 6.81048318,1.54785354 6.69127386,1.54785354 C6.57206455,1.54785354 6.47542632,1.65180318 6.47542632,1.78003157 C6.47542632,1.90825996 6.57206455,2.0122096 6.69127386,2.0122096 Z M5.97178205,1.23828283 C6.09099136,1.23828283 6.18762959,1.13433319 6.18762959,1.0061048 C6.18762959,0.87787641 6.09099136,0.773926771 5.97178205,0.773926771 C5.85257274,0.773926771 5.75593451,0.87787641 5.75593451,1.0061048 C5.75593451,1.13433319 5.85257274,1.23828283 5.97178205,1.23828283 Z M6.69127386,1.23828283 C6.81048318,1.23828283 6.90712141,1.13433319 6.90712141,1.0061048 C6.90712141,0.87787641 6.81048318,0.773926771 6.69127386,0.773926771 C6.57206455,0.773926771 6.47542632,0.87787641 6.47542632,1.0061048 C6.47542632,1.13433319 6.57206455,1.23828283 6.69127386,1.23828283 Z M5.97178205,0.464356062 C6.09099136,0.464356062 6.18762959,0.360406423 6.18762959,0.232178031 C6.18762959,0.103949639 6.09099136,0 5.97178205,0 C5.85257274,0 5.75593451,0.103949639 5.75593451,0.232178031 C5.75593451,0.360406423 5.85257274,0.464356062 5.97178205,0.464356062 Z M6.69127386,0.464356062 C6.81048318,0.464356062 6.90712141,0.360406423 6.90712141,0.232178031 C6.90712141,0.103949639 6.81048318,0 6.69127386,0 C6.57206455,0 6.47542632,0.103949639 6.47542632,0.232178031 C6.47542632,0.360406423 6.57206455,0.464356062 6.69127386,0.464356062 Z M7.41076568,2.78613637 C7.52997499,2.78613637 7.62661322,2.68218674 7.62661322,2.55395834 C7.62661322,2.42572995 7.52997499,2.32178031 7.41076568,2.32178031 C7.29155636,2.32178031 7.19491813,2.42572995 7.19491813,2.55395834 C7.19491813,2.68218674 7.29155636,2.78613637 7.41076568,2.78613637 Z M8.13025749,2.78613637 C8.2494668,2.78613637 8.34610503,2.68218674 8.34610503,2.55395834 C8.34610503,2.42572995 8.2494668,2.32178031 8.13025749,2.32178031 C8.01104818,2.32178031 7.91440995,2.42572995 7.91440995,2.55395834 C7.91440995,2.68218674 8.01104818,2.78613637 8.13025749,2.78613637 Z M7.41076568,2.0122096 C7.52997499,2.0122096 7.62661322,1.90825996 7.62661322,1.78003157 C7.62661322,1.65180318 7.52997499,1.54785354 7.41076568,1.54785354 C7.29155636,1.54785354 7.19491813,1.65180318 7.19491813,1.78003157 C7.19491813,1.90825996 7.29155636,2.0122096 7.41076568,2.0122096 Z M8.13025749,2.0122096 C8.2494668,2.0122096 8.34610503,1.90825996 8.34610503,1.78003157 C8.34610503,1.65180318 8.2494668,1.54785354 8.13025749,1.54785354 C8.01104818,1.54785354 7.91440995,1.65180318 7.91440995,1.78003157 C7.91440995,1.90825996 8.01104818,2.0122096 8.13025749,2.0122096 Z M7.41076568,1.23828283 C7.52997499,1.23828283 7.62661322,1.13433319 7.62661322,1.0061048 C7.62661322,0.87787641 7.52997499,0.773926771 7.41076568,0.773926771 C7.29155636,0.773926771 7.19491813,0.87787641 7.19491813,1.0061048 C7.19491813,1.13433319 7.29155636,1.23828283 7.41076568,1.23828283 Z M8.13025749,1.23828283 C8.2494668,1.23828283 8.34610503,1.13433319 8.34610503,1.0061048 C8.34610503,0.87787641 8.2494668,0.773926771 8.13025749,0.773926771 C8.01104818,0.773926771 7.91440995,0.87787641 7.91440995,1.0061048 C7.91440995,1.13433319 8.01104818,1.23828283 8.13025749,1.23828283 Z M7.41076568,0.464356062 C7.52997499,0.464356062 7.62661322,0.360406423 7.62661322,0.232178031 C7.62661322,0.103949639 7.52997499,0 7.41076568,0 C7.29155636,0 7.19491813,0.103949639 7.19491813,0.232178031 C7.19491813,0.360406423 7.29155636,0.464356062 7.41076568,0.464356062 Z M8.13025749,0.464356062 C8.2494668,0.464356062 8.34610503,0.360406423 8.34610503,0.232178031 C8.34610503,0.103949639 8.2494668,0 8.13025749,0 C8.01104818,0 7.91440995,0.103949639 7.91440995,0.232178031 C7.91440995,0.360406423 8.01104818,0.464356062 8.13025749,0.464356062 Z M8.8497493,2.78613637 C8.96895862,2.78613637 9.06559685,2.68218674 9.06559685,2.55395834 C9.06559685,2.42572995 8.96895862,2.32178031 8.8497493,2.32178031 C8.73053999,2.32178031 8.63390176,2.42572995 8.63390176,2.55395834 C8.63390176,2.68218674 8.73053999,2.78613637 8.8497493,2.78613637 Z M9.56924112,2.78613637 C9.68845043,2.78613637 9.78508866,2.68218674 9.78508866,2.55395834 C9.78508866,2.42572995 9.68845043,2.32178031 9.56924112,2.32178031 C9.4500318,2.32178031 9.35339357,2.42572995 9.35339357,2.55395834 C9.35339357,2.68218674 9.4500318,2.78613637 9.56924112,2.78613637 Z M8.8497493,2.0122096 C8.96895862,2.0122096 9.06559685,1.90825996 9.06559685,1.78003157 C9.06559685,1.65180318 8.96895862,1.54785354 8.8497493,1.54785354 C8.73053999,1.54785354 8.63390176,1.65180318 8.63390176,1.78003157 C8.63390176,1.90825996 8.73053999,2.0122096 8.8497493,2.0122096 Z M9.56924112,2.0122096 C9.68845043,2.0122096 9.78508866,1.90825996 9.78508866,1.78003157 C9.78508866,1.65180318 9.68845043,1.54785354 9.56924112,1.54785354 C9.4500318,1.54785354 9.35339357,1.65180318 9.35339357,1.78003157 C9.35339357,1.90825996 9.4500318,2.0122096 9.56924112,2.0122096 Z M8.8497493,1.23828283 C8.96895862,1.23828283 9.06559685,1.13433319 9.06559685,1.0061048 C9.06559685,0.87787641 8.96895862,0.773926771 8.8497493,0.773926771 C8.73053999,0.773926771 8.63390176,0.87787641 8.63390176,1.0061048 C8.63390176,1.13433319 8.73053999,1.23828283 8.8497493,1.23828283 Z M9.56924112,1.23828283 C9.68845043,1.23828283 9.78508866,1.13433319 9.78508866,1.0061048 C9.78508866,0.87787641 9.68845043,0.773926771 9.56924112,0.773926771 C9.4500318,0.773926771 9.35339357,0.87787641 9.35339357,1.0061048 C9.35339357,1.13433319 9.4500318,1.23828283 9.56924112,1.23828283 Z M8.8497493,0.464356062 C8.96895862,0.464356062 9.06559685,0.360406423 9.06559685,0.232178031 C9.06559685,0.103949639 8.96895862,0 8.8497493,0 C8.73053999,0 8.63390176,0.103949639 8.63390176,0.232178031 C8.63390176,0.360406423 8.73053999,0.464356062 8.8497493,0.464356062 Z M9.56924112,0.464356062 C9.68845043,0.464356062 9.78508866,0.360406423 9.78508866,0.232178031 C9.78508866,0.103949639 9.68845043,0 9.56924112,0 C9.4500318,0 9.35339357,0.103949639 9.35339357,0.232178031 C9.35339357,0.360406423 9.4500318,0.464356062 9.56924112,0.464356062 Z M10.2887329,2.78613637 C10.4079422,2.78613637 10.5045805,2.68218674 10.5045805,2.55395834 C10.5045805,2.42572995 10.4079422,2.32178031 10.2887329,2.32178031 C10.1695236,2.32178031 10.0728854,2.42572995 10.0728854,2.55395834 C10.0728854,2.68218674 10.1695236,2.78613637 10.2887329,2.78613637 Z M11.0082247,2.78613637 C11.1274341,2.78613637 11.2240723,2.68218674 11.2240723,2.55395834 C11.2240723,2.42572995 11.1274341,2.32178031 11.0082247,2.32178031 C10.8890154,2.32178031 10.7923772,2.42572995 10.7923772,2.55395834 C10.7923772,2.68218674 10.8890154,2.78613637 11.0082247,2.78613637 Z M10.2887329,2.0122096 C10.4079422,2.0122096 10.5045805,1.90825996 10.5045805,1.78003157 C10.5045805,1.65180318 10.4079422,1.54785354 10.2887329,1.54785354 C10.1695236,1.54785354 10.0728854,1.65180318 10.0728854,1.78003157 C10.0728854,1.90825996 10.1695236,2.0122096 10.2887329,2.0122096 Z M11.0082247,2.0122096 C11.1274341,2.0122096 11.2240723,1.90825996 11.2240723,1.78003157 C11.2240723,1.65180318 11.1274341,1.54785354 11.0082247,1.54785354 C10.8890154,1.54785354 10.7923772,1.65180318 10.7923772,1.78003157 C10.7923772,1.90825996 10.8890154,2.0122096 11.0082247,2.0122096 Z M10.2887329,1.23828283 C10.4079422,1.23828283 10.5045805,1.13433319 10.5045805,1.0061048 C10.5045805,0.87787641 10.4079422,0.773926771 10.2887329,0.773926771 C10.1695236,0.773926771 10.0728854,0.87787641 10.0728854,1.0061048 C10.0728854,1.13433319 10.1695236,1.23828283 10.2887329,1.23828283 Z M11.0082247,1.23828283 C11.1274341,1.23828283 11.2240723,1.13433319 11.2240723,1.0061048 C11.2240723,0.87787641 11.1274341,0.773926771 11.0082247,0.773926771 C10.8890154,0.773926771 10.7923772,0.87787641 10.7923772,1.0061048 C10.7923772,1.13433319 10.8890154,1.23828283 11.0082247,1.23828283 Z M10.2887329,0.464356062 C10.4079422,0.464356062 10.5045805,0.360406423 10.5045805,0.232178031 C10.5045805,0.103949639 10.4079422,0 10.2887329,0 C10.1695236,0 10.0728854,0.103949639 10.0728854,0.232178031 C10.0728854,0.360406423 10.1695236,0.464356062 10.2887329,0.464356062 Z M11.0082247,0.464356062 C11.1274341,0.464356062 11.2240723,0.360406423 11.2240723,0.232178031 C11.2240723,0.103949639 11.1274341,0 11.0082247,0 C10.8890154,0 10.7923772,0.103949639 10.7923772,0.232178031 C10.7923772,0.360406423 10.8890154,0.464356062 11.0082247,0.464356062 Z M11.7277166,2.78613637 C11.8469259,2.78613637 11.9435641,2.68218674 11.9435641,2.55395834 C11.9435641,2.42572995 11.8469259,2.32178031 11.7277166,2.32178031 C11.6085072,2.32178031 11.511869,2.42572995 11.511869,2.55395834 C11.511869,2.68218674 11.6085072,2.78613637 11.7277166,2.78613637 Z M12.4472084,2.78613637 C12.5664177,2.78613637 12.6630559,2.68218674 12.6630559,2.55395834 C12.6630559,2.42572995 12.5664177,2.32178031 12.4472084,2.32178031 C12.3279991,2.32178031 12.2313608,2.42572995 12.2313608,2.55395834 C12.2313608,2.68218674 12.3279991,2.78613637 12.4472084,2.78613637 Z M11.7277166,2.0122096 C11.8469259,2.0122096 11.9435641,1.90825996 11.9435641,1.78003157 C11.9435641,1.65180318 11.8469259,1.54785354 11.7277166,1.54785354 C11.6085072,1.54785354 11.511869,1.65180318 11.511869,1.78003157 C11.511869,1.90825996 11.6085072,2.0122096 11.7277166,2.0122096 Z M12.4472084,2.0122096 C12.5664177,2.0122096 12.6630559,1.90825996 12.6630559,1.78003157 C12.6630559,1.65180318 12.5664177,1.54785354 12.4472084,1.54785354 C12.3279991,1.54785354 12.2313608,1.65180318 12.2313608,1.78003157 C12.2313608,1.90825996 12.3279991,2.0122096 12.4472084,2.0122096 Z M11.7277166,1.23828283 C11.8469259,1.23828283 11.9435641,1.13433319 11.9435641,1.0061048 C11.9435641,0.87787641 11.8469259,0.773926771 11.7277166,0.773926771 C11.6085072,0.773926771 11.511869,0.87787641 11.511869,1.0061048 C11.511869,1.13433319 11.6085072,1.23828283 11.7277166,1.23828283 Z M12.4472084,1.23828283 C12.5664177,1.23828283 12.6630559,1.13433319 12.6630559,1.0061048 C12.6630559,0.87787641 12.5664177,0.773926771 12.4472084,0.773926771 C12.3279991,0.773926771 12.2313608,0.87787641 12.2313608,1.0061048 C12.2313608,1.13433319 12.3279991,1.23828283 12.4472084,1.23828283 Z M11.7277166,0.464356062 C11.8469259,0.464356062 11.9435641,0.360406423 11.9435641,0.232178031 C11.9435641,0.103949639 11.8469259,0 11.7277166,0 C11.6085072,0 11.511869,0.103949639 11.511869,0.232178031 C11.511869,0.360406423 11.6085072,0.464356062 11.7277166,0.464356062 Z M12.4472084,0.464356062 C12.5664177,0.464356062 12.6630559,0.360406423 12.6630559,0.232178031 C12.6630559,0.103949639 12.5664177,0 12.4472084,0 C12.3279991,0 12.2313608,0.103949639 12.2313608,0.232178031 C12.2313608,0.360406423 12.3279991,0.464356062 12.4472084,0.464356062 Z M13.1667002,2.78613637 C13.2859095,2.78613637 13.3825477,2.68218674 13.3825477,2.55395834 C13.3825477,2.42572995 13.2859095,2.32178031 13.1667002,2.32178031 C13.0474909,2.32178031 12.9508526,2.42572995 12.9508526,2.55395834 C12.9508526,2.68218674 13.0474909,2.78613637 13.1667002,2.78613637 Z M13.886192,2.78613637 C14.0054013,2.78613637 14.1020395,2.68218674 14.1020395,2.55395834 C14.1020395,2.42572995 14.0054013,2.32178031 13.886192,2.32178031 C13.7669827,2.32178031 13.6703445,2.42572995 13.6703445,2.55395834 C13.6703445,2.68218674 13.7669827,2.78613637 13.886192,2.78613637 Z M13.1667002,2.0122096 C13.2859095,2.0122096 13.3825477,1.90825996 13.3825477,1.78003157 C13.3825477,1.65180318 13.2859095,1.54785354 13.1667002,1.54785354 C13.0474909,1.54785354 12.9508526,1.65180318 12.9508526,1.78003157 C12.9508526,1.90825996 13.0474909,2.0122096 13.1667002,2.0122096 Z M13.886192,2.0122096 C14.0054013,2.0122096 14.1020395,1.90825996 14.1020395,1.78003157 C14.1020395,1.65180318 14.0054013,1.54785354 13.886192,1.54785354 C13.7669827,1.54785354 13.6703445,1.65180318 13.6703445,1.78003157 C13.6703445,1.90825996 13.7669827,2.0122096 13.886192,2.0122096 Z M13.1667002,1.23828283 C13.2859095,1.23828283 13.3825477,1.13433319 13.3825477,1.0061048 C13.3825477,0.87787641 13.2859095,0.773926771 13.1667002,0.773926771 C13.0474909,0.773926771 12.9508526,0.87787641 12.9508526,1.0061048 C12.9508526,1.13433319 13.0474909,1.23828283 13.1667002,1.23828283 Z M13.886192,1.23828283 C14.0054013,1.23828283 14.1020395,1.13433319 14.1020395,1.0061048 C14.1020395,0.87787641 14.0054013,0.773926771 13.886192,0.773926771 C13.7669827,0.773926771 13.6703445,0.87787641 13.6703445,1.0061048 C13.6703445,1.13433319 13.7669827,1.23828283 13.886192,1.23828283 Z M13.1667002,0.464356062 C13.2859095,0.464356062 13.3825477,0.360406423 13.3825477,0.232178031 C13.3825477,0.103949639 13.2859095,0 13.1667002,0 C13.0474909,0 12.9508526,0.103949639 12.9508526,0.232178031 C12.9508526,0.360406423 13.0474909,0.464356062 13.1667002,0.464356062 Z M13.886192,0.464356062 C14.0054013,0.464356062 14.1020395,0.360406423 14.1020395,0.232178031 C14.1020395,0.103949639 14.0054013,0 13.886192,0 C13.7669827,0 13.6703445,0.103949639 13.6703445,0.232178031 C13.6703445,0.360406423 13.7669827,0.464356062 13.886192,0.464356062 Z M14.6056838,2.78613637 C14.7248931,2.78613637 14.8215314,2.68218674 14.8215314,2.55395834 C14.8215314,2.42572995 14.7248931,2.32178031 14.6056838,2.32178031 C14.4864745,2.32178031 14.3898363,2.42572995 14.3898363,2.55395834 C14.3898363,2.68218674 14.4864745,2.78613637 14.6056838,2.78613637 Z M15.3251756,2.78613637 C15.4443849,2.78613637 15.5410232,2.68218674 15.5410232,2.55395834 C15.5410232,2.42572995 15.4443849,2.32178031 15.3251756,2.32178031 C15.2059663,2.32178031 15.1093281,2.42572995 15.1093281,2.55395834 C15.1093281,2.68218674 15.2059663,2.78613637 15.3251756,2.78613637 Z M14.6056838,2.0122096 C14.7248931,2.0122096 14.8215314,1.90825996 14.8215314,1.78003157 C14.8215314,1.65180318 14.7248931,1.54785354 14.6056838,1.54785354 C14.4864745,1.54785354 14.3898363,1.65180318 14.3898363,1.78003157 C14.3898363,1.90825996 14.4864745,2.0122096 14.6056838,2.0122096 Z M15.3251756,2.0122096 C15.4443849,2.0122096 15.5410232,1.90825996 15.5410232,1.78003157 C15.5410232,1.65180318 15.4443849,1.54785354 15.3251756,1.54785354 C15.2059663,1.54785354 15.1093281,1.65180318 15.1093281,1.78003157 C15.1093281,1.90825996 15.2059663,2.0122096 15.3251756,2.0122096 Z M14.6056838,1.23828283 C14.7248931,1.23828283 14.8215314,1.13433319 14.8215314,1.0061048 C14.8215314,0.87787641 14.7248931,0.773926771 14.6056838,0.773926771 C14.4864745,0.773926771 14.3898363,0.87787641 14.3898363,1.0061048 C14.3898363,1.13433319 14.4864745,1.23828283 14.6056838,1.23828283 Z M15.3251756,1.23828283 C15.4443849,1.23828283 15.5410232,1.13433319 15.5410232,1.0061048 C15.5410232,0.87787641 15.4443849,0.773926771 15.3251756,0.773926771 C15.2059663,0.773926771 15.1093281,0.87787641 15.1093281,1.0061048 C15.1093281,1.13433319 15.2059663,1.23828283 15.3251756,1.23828283 Z M14.6056838,0.464356062 C14.7248931,0.464356062 14.8215314,0.360406423 14.8215314,0.232178031 C14.8215314,0.103949639 14.7248931,0 14.6056838,0 C14.4864745,0 14.3898363,0.103949639 14.3898363,0.232178031 C14.3898363,0.360406423 14.4864745,0.464356062 14.6056838,0.464356062 Z M15.3251756,0.464356062 C15.4443849,0.464356062 15.5410232,0.360406423 15.5410232,0.232178031 C15.5410232,0.103949639 15.4443849,0 15.3251756,0 C15.2059663,0 15.1093281,0.103949639 15.1093281,0.232178031 C15.1093281,0.360406423 15.2059663,0.464356062 15.3251756,0.464356062 Z" id="Speaker"></path>
                            </g>
                        </g>
                    </g>
                    <g id="UPI" transform="translate(11.000000, 48.000000)">
                        <polygon id="Shape" fill="#128B47" points="30.4178194 16.1693888 34.9137113 10.4770277 30.4178194 4.78577615"></polygon>
                        <polygon id="Shape" fill="#F27930" points="28.3200387 16.1693888 32.8159304 10.4770277 28.3200387 4.78577615"></polygon>
                        <text font-family="Roboto-Medium, Roboto" font-size="14.5880662" font-weight="400" fill="#1D357F">
                            <tspan x="1.06733349" y="15">UPI</tspan>
                        </text>
                    </g>
                    <g id="Button" transform="translate(20.000000, 81.000000)">
                        <rect id="Rectangle-4" fill="#F69A98" x="0" y="0" width="17.7464789" height="8.44444444" rx="1.10729365"></rect>
                        <text id="PAY" font-family="MyriadPro-Regular, Myriad Pro" font-size="5.53646824" font-weight="normal" fill="#F9F9F9">
                            <tspan x="4.65998711" y="5.68888889">PAY</tspan>
                        </text>
                    </g>
                </g>
                <g id="Hand" transform="translate(44.004391, 126.153249) rotate(45.000000) translate(-44.004391, -126.153249) translate(9.902201, 98.075446)">
                    <path d="M33.7578384,10.4486261 L33.744944,10.4619816 C33.3881994,10.8230984 32.8148292,10.8303832 32.4644458,10.4781121 L29.4449252,7.4433084 C29.0945418,7.09103736 29.0995277,6.51276477 29.4562723,6.15147448 L29.4693386,6.1382925 C29.8260832,5.77717566 30.3992815,5.76989088 30.7498368,6.12216192 L33.7693574,9.15696565 C34.1197408,9.50923669 34.114583,10.0875093 33.7578384,10.4486261" id="Fill-54" fill="#D8A88A"></path>
                    <path d="M35.6340571,36.9331295 L35.6125665,36.9999066 C35.0266457,38.8263045 32.9929436,39.7979551 31.0701332,39.1700766 L10.2438136,32.3700834 C7.18870446,31.2317502 7.39724961,29.6519941 7.98317037,27.8255962 L8.00466101,27.7588191 C8.95523492,25.6450194 12.8608576,25.75776 14.9949639,26.4853706 L33.2133516,32.489415 C35.136162,33.1171201 36.2199779,35.1067316 35.6340571,36.9331295" id="Fill-56" fill="#EDC7B8"></path>
                    <path d="M7.51673756,29.4410824 C7.41151939,29.6932745 7.38727795,29.9775543 7.43455736,30.2540289 C7.51484638,30.7256316 7.81571532,31.3803943 8.69665956,31.7448067 C10.1380796,32.3411178 12.3880635,33.2203211 12.6892763,33.1391478 C12.9904891,33.058148 13.4493572,32.4607963 13.3719909,31.5352826 C13.2944527,30.6097689 13.1914695,30.3901849 12.5264632,29.9687085 C11.8614569,29.5472321 9.08091217,28.7974203 8.79293762,28.7781677 C8.52954836,28.7606495 7.83892521,28.6683757 7.51673756,29.4410824" id="Fill-57" fill="#E4DBCB"></path>
                    <polyline id="Fill-58" fill="#D8A88A" points="28.4723449 38.3214 16.560342 27.0112622 18.1831431 27.5466933 30.9564907 39.1235928 28.4723449 38.3214"></polyline>
                    <path d="M40.1039379,6.28867113 L40.0657705,6.25797099 L34.8803374,1.04779387 C33.5212695,-0.318275409 31.297934,-0.290003534 29.9146246,1.11075516 L29.8640786,1.16192205 C28.4805973,2.56268075 28.4608259,4.80552506 29.8198939,6.17159434 L32.8877254,9.25392257 C32.7390102,9.36614284 32.5889196,9.48148515 32.4379694,9.59873539 L27.5267568,4.66416569 C26.1676888,3.29826986 23.9445253,3.32636828 22.561044,4.72712698 L22.510498,4.77829387 C21.1270166,6.17905257 21.1074172,8.42207033 22.4664852,9.78796616 L27.0575732,14.4007915 C27.0125288,14.4462346 26.9674844,14.4904637 26.92244,14.5360802 L26.7071898,14.7539298 L26.6619735,14.8002402 L20.444474,8.55319633 C19.085406,7.18712705 16.8620705,7.21539893 15.4787611,8.61615762 L15.4280432,8.66732451 C14.0447338,10.0680832 14.0249624,12.3109275 15.3840304,13.6769968 L21.9104794,20.234164 C21.7777532,20.4084784 21.6482936,20.5812317 21.5221005,20.7524239 L6.4815765,5.63512249 C4.84914761,3.99431303 2.40901459,3.79519577 1.03120679,5.19040416 L0.98083273,5.2413976 C-0.39697507,6.63643254 -0.190664943,9.0974733 1.44176394,10.7381093 L18.079988,27.4615308 C18.2381591,27.6205818 18.3655556,27.8056498 18.4987976,27.9863817 C18.5238986,28.0205508 18.5514066,28.0526385 18.5811497,28.0824714 L27.7258461,37.2741265 C29.8714714,39.4307676 33.0617137,40.0149374 35.7387595,38.8656769 L50.7146397,53.9184561 L65.7536164,38.6901485 L50.8477097,23.7077889 C51.2271484,23.0046344 51.4950077,22.3229873 51.627562,21.6508799 C52.0405261,19.5584142 50.9505209,17.1910348 49.6880749,15.9220959 L40.1039379,6.28867113" id="Fill-59" fill="#EDC7B8"></path>
                    <path d="M5.38503817,9.46379355 L5.34807427,9.50125812 C4.3361231,10.5259835 3.17837943,11.0175326 1.96527589,9.79819954 L0.917392366,8.74485536 C-0.295539257,7.52552232 0.0385112237,6.20697755 1.0504624,5.18225214 L1.0874263,5.14478757 C2.09937747,4.12006217 3.40600827,3.77733072 4.61911182,4.99649031 L5.66699534,6.04983449 C6.87992697,7.26916753 6.39698934,8.43906814 5.38503817,9.46379355" id="Fill-60" fill="#E4DBCB"></path>
                    <path d="M60.0873088,30.9726202 L43.0909647,48.0920214 C42.9862623,48.1974773 42.8167442,48.1973038 42.7122137,48.0916745 L38.737993,44.0758541 C38.6334625,43.9702248 38.6336344,43.799206 38.7383368,43.6937501 L55.7346809,26.5743489 C55.8393832,26.4688931 56.0089014,26.4690666 56.1134319,26.5746958 L60.0876526,30.5903429 C60.1921831,30.6959721 60.1920112,30.8671644 60.0873088,30.9726202" id="Fill-61" fill="#58BEC7"></path>
                    <path d="M67.4790568,37.0326881 L49.1337883,55.5107003 C48.9377937,55.7082566 48.6187007,55.7066956 48.4211588,55.507058 L41.508566,48.5221702 C41.311196,48.3227061 41.3099925,48.0007883 41.5061591,47.803232 L59.8514275,29.3252198 C60.0474221,29.1276635 60.3665151,29.1292246 60.5640571,29.3288622 L67.4766498,36.3137499 C67.6740198,36.5132141 67.6752233,36.8351319 67.4790568,37.0326881" id="Fill-62" fill="#354C6D"></path>
                    <path d="M55.0422996,31.4036395 C54.5642196,31.0921542 54.4276466,30.4511265 54.7372917,29.9696034 C55.0469368,29.4880802 55.6855237,29.3511471 56.1636038,29.6626323 C56.6418334,29.9741176 56.7784064,30.6166501 56.4687613,31.0981733 C56.1591162,31.5781916 55.5203797,31.7151248 55.0422996,31.4036395 Z" id="Fill-99" fill="#D84B44"></path>
                </g>
            </g>
            <g id="Auto+Driver" transform="translate(108.000000, 107.105263) scale(-1, 1) translate(-108.000000, -107.105263) translate(88.000000, 92.105263)">
                <g id="Auto">
                    <path d="M39.6575191,13.3448182 L28.6031544,13.3448182 L28.6031544,1.81270934 L10.5134439,1.81270934 C10.4069329,1.81153169 10.3006827,1.80123216 10.1957186,1.78191012 L10.1214451,1.78191012 C10.0247215,1.76163778 9.92955203,1.73369416 9.83673025,1.69831223 L9.76658311,1.66751301 C9.69886122,1.63770439 9.63273917,1.6039202 9.56852059,1.56631556 L9.46948932,1.50911701 C9.39916082,1.46230955 9.33163389,1.410878 9.2673005,1.35512089 L9.14351142,1.23632389 L9.07336428,1.16152578 C9.03210125,1.113127 8.99083822,1.06472822 8.9495752,1.01632945 L8.9495752,1.01632945 C8.74247706,0.736512636 8.60609584,0.404764819 8.55345015,0.0527537703 L35.4115537,0.0527537703 C37.7478328,0.05030098 39.646157,2.06268688 39.6575191,4.55384015 L39.6575191,13.3448182 Z" id="Path" fill="#ECECEC"></path>
                    <path d="M19.0260061,13.3580179 L19.0260061,2.25269824 L19.0260061,13.3580179 Z" id="Path" stroke="#CFCFCF" stroke-width="0.5"></path>
                    <path d="M5.21939766,20.2922428 L5.18638724,20.2350443 C3.96522414,18.0276684 3.32118624,15.5116491 3.32129847,12.9488282 C3.32129847,12.6100368 3.32129847,12.2712453 3.35843519,11.9324539 L7.05972861,11.9324539 C8.09796882,11.9324645 8.94090517,11.0375725 8.94544889,9.93050442 L8.94544889,1.59711478 L9.07749058,1.71591179 L9.12287991,1.75551079 C9.22257591,1.8298554 9.32740864,1.89604297 9.4364789,1.95350579 L9.51075235,1.99750468 C9.61905206,2.04878634 9.73076845,2.09143551 9.84498286,2.12510146 L9.93163521,2.15590068 C10.0716058,2.20208168 10.2152521,2.23448311 10.3607707,2.25269824 L10.4102863,2.25269824 L10.4102863,22.7605805 C10.4102863,23.3680784 10.8721385,23.8605528 11.441862,23.8605528 L15.6878273,23.8605528 C16.2575508,23.8605528 16.719403,23.3680784 16.719403,22.7605805 L16.719403,18.1362973 L18.5267235,18.1362973 L18.5267235,13.7980068 L19.1621741,13.7980068 L19.1621741,22.7605805 C19.1621741,23.3680784 19.6240263,23.8605528 20.1937498,23.8605528 L24.3613154,23.8605528 C24.9310389,23.8605528 25.392891,23.3680784 25.392891,22.7605805 L25.392891,18.1362973 L25.392891,18.1362973 L25.392891,15.8571548 L25.392891,15.8571548 L25.392891,15.5051637 C25.3974043,14.5643276 26.1115618,13.8028193 26.9938964,13.7980068 L28.1863979,13.7980068 L39.6575191,13.7980068 L39.6575191,23.9177513 C38.8381738,21.7502155 36.8646153,20.3321767 34.6729455,20.3362417 L32.1228905,20.3362417 C29.2467401,20.3334958 26.8803794,22.7500002 26.7586972,25.8141035 L10.7734009,25.8141035 L10.6826223,25.7613048 C8.47623647,24.5562434 6.62117749,22.7303465 5.31842892,20.4814381 L5.21939766,20.2922428 Z" id="Path" fill="#F69A98"></path>
                    <path d="M8.7800127,2.32341074 L8.7800127,10.6260011 C8.77555906,11.4832507 8.12733546,12.1783697 7.32342788,12.1879617 L3.71291312,12.1879617 C4.08147849,8.39007084 5.83816531,4.89982752 8.60258169,2.47300696 L8.7800127,2.32341074 Z" id="Path" stroke="#ECECEC" stroke-width="0.766482719"></path>
                    <path d="M36.9795487,25.792104 C36.8743566,24.4393009 35.8139428,23.3985005 34.5409039,23.3985644 L32.2508059,23.3985644 C30.9769945,23.3963869 29.9154416,24.4383052 29.8121611,25.792104 L27.1630748,25.792104 C27.2844603,22.9710288 29.4661963,20.7512635 32.1146379,20.7542312 L34.6646929,20.7542312 C37.3131346,20.7512635 39.4948705,22.9710288 39.616256,25.792104 L36.9795487,25.792104 Z" id="Path" fill="#F69A98"></path>
                    <path d="M7.18764399,26.0120985 L7.18764399,26.0120985 C7.18764397,27.8807619 5.76698676,29.395613 4.0145173,29.395613 C2.26204784,29.395613 0.841390636,27.8807619 0.84139061,26.0120985 C0.841817063,25.2020603 1.11907189,24.4199501 1.6212618,23.812154 L5.15337682,23.812154 C6.2681924,23.8096765 7.17631696,24.7662274 7.18764399,25.9548999 L7.18764399,26.0120985 Z" id="Path" fill="#CFCFCF"></path>
                    <path d="M4.010391,24.3181412 C3.14311432,24.3254329 2.44429732,25.0784586 2.44657676,26.0032639 C2.44885619,26.9280692 3.15137559,27.6771677 4.01867623,27.6795983 C4.88597686,27.6820289 5.59217925,26.9368782 5.5990175,26.0120985 C5.60011702,25.5624747 5.43309746,25.1309285 5.13493352,24.8129954 C4.83676958,24.4950623 4.43205705,24.3169688 4.010391,24.3181412 L4.010391,24.3181412 Z" id="Shape" fill="#FFFFFF"></path>
                    <path d="M0.994063806,21.5506111 L0.0450142101,21.5506111 L0.0450142101,17.9295025 L0.994063806,17.9295025 C1.93182868,17.9295025 2.69203732,18.7401153 2.69203732,19.7400568 C2.69203732,20.7399983 1.93182868,21.5506111 0.994063806,21.5506111 L0.994063806,21.5506111 Z" id="Path" fill="#F69A98"></path>
                    <path d="M7.60027425,25.792104 C7.50720967,24.4271777 6.44093598,23.3708703 5.15750312,23.3721651 L0.977558595,23.3721651 C1.8078299,21.8194237 3.3225515,20.8244634 4.99657732,20.7322317 C6.2146891,22.8329273 7.90348091,24.5777479 9.9110037,25.8097036 L7.60027425,25.792104 Z" id="Path" fill="#F69A98"></path>
                    <path d="M36.5669184,26.0120985 C36.5669184,27.878332 35.1481086,29.3912132 33.397918,29.3912132 C31.6477275,29.3912132 30.2289176,27.878332 30.2289176,26.0120985 L30.2289176,26.0120985 L30.2289176,26.0120985 C30.2334666,24.8182616 31.1435742,23.8537165 32.2631848,23.8561529 L34.5409039,23.8561529 C35.659582,23.8561308 36.5683637,24.8192706 36.575171,26.0120985 L36.5669184,26.0120985 Z" id="Path" fill="#CFCFCF"></path>
                    <path d="M18.6216285,6.00580349 L18.6216285,11.492465 L18.5803654,11.492465 C17.7730066,10.8422097 17.2984296,9.82580508 17.2984296,8.7469343 C17.2984296,7.66806351 17.7730066,6.65165888 18.5803654,6.0014036 L18.6216285,6.00580349 Z" id="Path" fill="#CFCFCF"></path>
                    <path d="M18.1099669,16.2971437 L18.1099669,17.6963084 L15.1390291,17.6963084 C14.9446444,17.6963224 14.7864273,17.5295768 14.7841671,17.3223178 L14.7841671,16.6711343 C14.7841606,16.5711787 14.8216789,16.4753799 14.8883497,16.4051152 C14.9550206,16.3348505 15.0452953,16.2959678 15.1390291,16.2971437 L18.1099669,16.2971437 Z" id="Path" fill="#CFCFCF"></path>
                    <path d="M24.9843871,16.2971437 L24.9843871,17.6963084 L22.0134492,17.6963084 C21.8190645,17.6963224 21.6608475,17.5295768 21.6585872,17.3223178 L21.6585872,16.6711343 C21.6585807,16.5711787 21.696099,16.4753799 21.7627698,16.4051152 C21.8294407,16.3348505 21.9197154,16.2959678 22.0134492,16.2971437 L24.9843871,16.2971437 Z" id="Shape" fill="#CFCFCF"></path>
                    <path d="M33.397918,24.3181412 C32.5300863,24.3230148 31.8292013,25.0749849 31.8299725,26.000369 C31.8307436,26.9257531 32.5328808,27.6763938 33.4007193,27.6796228 C34.2685578,27.6828518 34.9755907,26.9374543 34.9824182,26.0120985 C34.9846196,25.5628806 34.8185214,25.1313193 34.5210112,24.8132571 C34.2235011,24.495195 33.8192077,24.3169622 33.397918,24.3181412 L33.397918,24.3181412 Z" id="Shape" fill="#FFFFFF"></path>
                </g>
            </g>
            <g id="Bills" transform="translate(99.487023, 22.980784) rotate(-9.000000) translate(-99.487023, -22.980784) translate(85.487023, 5.980784)">
                <path d="M3.30085015,32.9188038 C1.41540976,32.9188038 1.11910481e-12,31.5346227 1.11910481e-12,29.6808886 L1.11910481e-12,3.23791512 C1.11910481e-12,1.38539203 1.41540976,3.41550543e-13 3.30085015,3.41550543e-13 L24.2062344,3.41550543e-13 C26.0916748,3.41550543e-13 27.5070846,1.38539203 27.5070846,3.23791512 L27.5070846,29.6808886 C27.5070846,31.5346227 26.0916748,32.9188038 24.2062344,32.9188038 L3.30085015,32.9188038" id="Fill-1976" fill="#EEEEEE"></path>
                <text id="BILLS" font-family="Lato-Semibold, Lato" font-size="6.72789089" font-weight="500" letter-spacing="0.280328768" fill="#F69A98">
                    <tspan x="4.73676056" y="9.06583712">BILLS</tspan>
                </text>
                <polygon id="Fill-1977" fill="#FEBBBA" points="14.0552454 13.6334906 16.8059539 13.6334906 16.8059539 12.5541856 14.0552454 12.5541856"></polygon>
                <polygon id="Fill-1978" fill="#FEBBBA" points="14.0552454 18.4903633 23.4076542 18.4903633 23.4076542 17.4110583 14.0552454 17.4110583"></polygon>
                <polygon id="Fill-1979" fill="#FEBBBA" points="4.70283664 22.8075835 23.4076542 22.8075835 23.4076542 21.7282785 4.70283664 21.7282785"></polygon>
                <polygon id="Fill-1980" fill="#FEBBBA" points="4.70283664 27.1248037 23.4076542 27.1248037 23.4076542 26.0454986 4.70283664 26.0454986"></polygon>
                <polygon id="Fill-1985" fill="#CFCFCF" points="4.70283664 17.9507108 10.2042536 17.9507108 10.2042536 12.5541856 4.70283664 12.5541856"></polygon>
            </g>
            <g id="Merchant" transform="translate(10.000000, 6.000000)">
                <g id="Body-House" transform="translate(1.044225, 14.027310)">
                    <path d="M31.6743115,1.48595979 C31.6257913,1.4880675 31.576578,1.49368804 31.5252852,1.49368804 C30.5236903,1.49368804 29.6274535,1.03280346 29.0264965,0.311266175 C28.4283121,1.02437265 27.5369273,1.47752898 26.5436501,1.47752898 C25.5579976,1.47752898 24.672851,1.02999319 24.0739735,0.324614966 C23.4730166,1.03842401 22.5850975,1.49087777 21.5883546,1.49087777 C20.5839871,1.49087777 19.6877502,1.02999319 19.0895658,0.305645631 C18.4886089,1.0187521 17.5979172,1.47752898 16.6011743,1.47752898 C15.6155217,1.47752898 14.7303752,1.02999319 14.1321908,0.324614966 C13.5333133,1.03842401 12.6426216,1.49087777 11.6486513,1.49087777 C10.6470564,1.49087777 9.75081954,1.02999319 9.14986258,0.308455903 C8.55167821,1.02156237 7.66098653,1.4747187 6.66701621,1.4747187 C5.68136362,1.4747187 4.79621711,1.02718292 4.19733959,0.321804694 C3.59915521,1.03561373 2.70846353,1.4880675 1.71449321,1.4880675 L1.71449321,18.4571913 L0.163234081,18.4571913 L0.163234081,20.7321063 L33.2311158,20.7321063 L33.2311158,18.4571913 L31.6798566,18.4571913 L31.6798566,1.48595979 L31.6743115,1.48595979 Z" id="Fill-1" fill="#EEEEEE"></path>
                    <polygon id="Path" fill="#CFCFCF" points="22.8450269 5.24540091 30.0662144 5.24540091 30.0662144 11.8867758 22.8450269 11.8867758"></polygon>
                    <polygon id="Path" fill="#CFCFCF" points="3.35031606 5.24540091 10.5742761 5.24540091 10.5742761 11.8867758 3.35031606 11.8867758"></polygon>
                    <polygon id="Path" fill="#F69A98" points="12.2094058 5.24540091 21.1773194 5.24540091 21.1773194 18.4628118 12.2094058 18.4628118"></polygon>
                </g>
                <g id="Shade">
                    <path d="M5.24710974,12.261083 L5.24710974,11.7559366 C5.67755295,9.81263368 6.11631391,7.87003329 6.55230229,5.9295406 C6.98829067,3.98623765 7.42982421,2.04082698 7.86304001,0.0975240272 L3.94261033,0.0975240272 C3.33333563,2.04082698 2.71851577,3.98623765 2.10924107,5.9295406 C1.49996638,7.87284356 0.887919098,9.81544395 0.278644401,11.7587469 L0.27587182,11.7587469 L0.27587182,12.261083 C0.27587182,13.646547 1.3946083,14.7804917 2.76149078,14.7804917 C4.12906641,14.7804917 5.24710974,13.646547 5.24710974,12.261083 Z" id="Fill-2" fill="#F69A98"></path>
                    <path d="M10.2072929,12.261083 L10.2229716,11.7559366 L10.9904616,5.9295406 L11.7788566,0.0975240272 L7.85778667,0.0975240272 L6.54727921,5.9295406 L5.23680362,11.7587469 L5.23680362,12.261083 C5.23680362,12.261083 4.71371357,14.7804917 7.46050323,14.7804917 C10.2072929,14.7804917 10.2072929,12.261083 10.2072929,12.261083 Z" id="Fill-2-Copy" fill="#F9F9F9"></path>
                    <path d="M28.5679977,12.261083 L28.5836764,11.7559366 L29.3511664,5.9295406 L30.1395614,0.0975240272 L26.2184915,0.0975240272 L24.907984,5.9295406 L23.5975084,11.7587469 L23.5975084,12.261083 C23.5975084,12.261083 23.0744183,14.7804917 25.821208,14.7804917 C28.5679977,14.7804917 28.5679977,12.261083 28.5679977,12.261083 Z" id="Fill-2-Copy-2" fill="#F9F9F9" transform="translate(26.848637, 7.439008) scale(-1, 1) translate(-26.848637, -7.439008) "></path>
                    <path d="M35.0468114,11.6814644 C34.4430819,9.76345392 33.842125,7.84474084 33.241168,5.9295406 C32.6318933,3.98623765 32.0170734,2.04082698 31.4057193,0.0975240272 L27.4818239,0.0975240272 C27.9178123,2.04082698 28.3593458,3.98623765 28.7925616,5.9295406 C29.22855,7.87284356 29.6617658,9.81544395 30.1005268,11.7587469 L30.1060719,11.7587469 L30.1060719,12.2196315 C30.1060719,13.6057981 31.2241152,14.7390402 32.5916909,14.7390402 C33.9585734,14.7390402 35.0766167,13.6057981 35.0766167,12.2196315 L35.0766167,11.6786542 L35.0468114,11.6814644 Z" id="Fill-3" fill="#F69A98"></path>
                    <path d="M20.1635961,11.7587469 L20.1635961,12.2140109 C20.1635961,13.6001775 21.2816394,14.7334196 22.649215,14.7334196 C23.9890649,14.7334196 25.0856207,13.6409265 25.1265163,12.2912934 C25.1265163,12.2638933 25.1181985,12.2386008 25.1181985,12.2112007 L25.1181985,11.6491463 C24.858269,9.74167432 24.6038847,7.83420232 24.3467278,5.9295406 C24.0840258,3.98623765 23.8213237,2.04082698 23.5558491,0.0975240272 L19.6326468,0.0975240272 C19.7220625,2.04082698 19.8114783,3.98623765 19.8981214,5.9295406 C19.9847646,7.87284356 20.0714078,9.81544395 20.1635961,11.7587469 Z" id="Fill-4" fill="#F69A98"></path>
                    <polygon id="Fill-5" fill="#CFCFCF" points="20.5670066 27.2068111 21.484731 27.2068111 21.484731 24.6185507 20.5670066 24.6185507"></polygon>
                    <path d="M12.6928763,14.7306093 C14.0604519,14.7306093 15.1784953,13.5973672 15.1784953,12.2112007 L15.1784953,11.7587469 L15.1840404,11.7587469 C15.267911,9.81544395 15.3573267,7.87284356 15.4439699,5.9295406 C15.5306131,3.98623765 15.6172562,2.04082698 15.7038994,0.0975240272 L11.7862423,0.0975240272 C11.5263128,2.04082698 11.2608382,3.98623765 11.0009087,5.9295406 C10.7382066,7.87284356 10.4755046,9.81544395 10.2183477,11.7587469 L10.2100299,11.7587469 L10.2100299,12.2112007 C10.2100299,12.2224418 10.2079505,12.2308726 10.2079505,12.2386008 C10.2238928,13.610716 11.3343116,14.7306093 12.6928763,14.7306093 Z" id="Fill-6" fill="#F69A98"></path>
                    <path d="M17.7518248,14.7306093 C19.3181623,14.7306093 20.1744344,13.5077802 20.163982,12.2112007 L20.1744344,11.7587469 L19.9029257,5.9295406 L19.6314171,0.0975240272 L15.7014284,0.0975240272 C15.4231916,5.1953001 15.7014284,1.55859003 15.4231916,5.9295406 C15.1449548,10.3004912 15.1777588,10.9101302 15.1777588,11.7587469 C15.1749862,11.7587469 15.169441,12.2112007 15.169441,12.2112007 C15.1833039,13.610716 16.1854873,14.7306093 17.7518248,14.7306093 Z" id="Fill-6-Copy" fill="#F9F9F9"></path>
                </g>
            </g>
            <g id="P2P-Boy" transform="translate(0.000000, 91.169336)">
                <polyline id="Fill-804" fill="#FBCFCE" points="22.3640989 27.3820537 21.2701171 26.8820842 21.2701171 23.4344991 14.249913 23.4344991 14.249913 26.8820842 13.1515436 27.3518931 13.4440521 37.1288478 14.249913 37.1288478 14.249913 38.6278862 21.2701171 38.6278862 21.2701171 37.1288478 22.0715904 37.1288478 22.3640989 27.3820537"></polyline>
                <path id="Fill-805" fill="#DB7C3E"></path>
                <path d="M21.2701171,26.6500799 L14.249913,25.2664637 L14.249913,23.8973479 C15.4553406,24.7253135 16.7397454,25.228473 17.7655727,25.228763 L17.7658652,25.228763 L17.7664502,25.228763 C18.7887675,25.228763 20.0681996,24.7293736 21.2701171,23.906338 L21.2701171,26.6500799" id="Fill-806" fill="#FFBFBD"></path>
                <path d="M33.5355836,32.7828257 C32.9739673,29.5324443 28.1721477,29.5315743 22.4623817,27.4046741 L22.2014642,28.3759025 C21.7501235,29.6580167 20.5926674,31.7547563 17.8448425,31.7547563 C14.7448374,31.7547563 13.5622255,29.0852559 13.1954199,27.928714 L13.0544308,27.4046741 C7.34466481,29.5315743 2.54196771,29.5324443 1.98181393,32.7828257 C1.40791225,36.1126686 0.433566426,39.731067 0.0769985617,43.5553693 L35.439814,43.5553693 C35.0829536,39.731067 34.1089003,36.1126686 33.5355836,32.7828257 Z" id="Fill-807" fill="#F1F1F1"></path>
                <polyline id="Fill-808" fill="#F69A98" points="19.1078942 43.5553693 18.7726795 32.8611272 16.7219024 32.8611272 16.3945854 43.5553693 19.1078942 43.5553693"></polyline>
                <polyline id="Fill-809" fill="#F69A98" points="19.4466191 31.2756673 18.7726795 32.5554614 16.7219024 32.5554614 16.0672684 31.2756673 17.75709 29.9062614 19.4466191 31.2756673"></polyline>
                <polyline id="Fill-810" fill="#CFCFCF" points="14.2115944 26.65617 11.9077974 27.7935715 15.5992547 32.160184 17.75826 29.9065514 15.0782971 27.451075 14.2115944 26.65617"></polyline>
                <polyline id="Fill-811" fill="#CFCFCF" points="21.3063881 26.65704 17.75826 29.9059714 19.9172653 32.161054 23.6081375 27.7921214 21.3063881 26.65704"></polyline>
                <path d="M25.4266629,13.5012314 L25.6644723,10.4384836 C25.6644723,6.43350791 21.8033601,3.1883466 17.7664502,3.1883466 C13.7269078,3.1883466 9.86901319,6.43350791 9.86901319,10.4384836 L10.1062376,13.4983314 C9.88042102,13.5522724 9.67654259,13.6549343 9.50601014,13.7996471 C9.19039346,14.0664521 8.99119517,14.4608596 8.99119517,14.904568 L8.99119517,16.4125964 C8.99119517,17.2101115 9.638809,17.8568237 10.4449624,17.8617538 C10.4449624,21.6437153 15.0282782,25.228763 17.7664502,25.228763 C20.5052074,25.228763 25.0885231,21.6442953 25.0885231,17.8620438 C25.8911664,17.8565337 26.5408278,17.2104015 26.5408278,16.4131765 L26.5408278,14.905148 C26.5408278,14.2242151 26.065209,13.6566744 25.4266629,13.5012314" id="Fill-812" fill="#FBCFCE"></path>
                <path d="M16.1326848,20.0951157 C15.9759565,19.9615266 15.7448826,20.1881972 15.9041944,20.3240847 C16.9806254,21.2373749 19.1142552,21.6312475 19.9360744,20.1994015 C19.9923359,20.035647 19.7870963,19.9098146 19.6671102,20.0344978 C18.9506377,21.2666784 17.0388962,20.8659109 16.1326848,20.0951157 Z" id="Path" fill="#EF5350"></path>
                <path d="M26.8342138,3.59145422 C26.7789297,3.15702601 26.3319767,3.22256725 25.8911664,3.24982776 C24.5157914,3.33537938 24.1796992,2.87572069 21.3710325,1.23631972 C18.5723112,-0.397281142 15.7083604,0.254071164 13.7997424,1.66030773 C5.02039225,3.66946569 10.1626917,15.4851589 10.1626917,15.4851589 C10.1626917,15.4851589 10.1305158,9.26599143 12.8455797,7.3751557 C17.3923319,10.4489238 22.0382444,10.6162569 24.6833988,8.7880624 C25.703961,11.148127 25.3705013,15.4851589 25.3705013,15.4851589 C25.3705013,15.4851589 27.1267223,11.098246 26.168172,7.21565269 C26.755529,6.22963406 27.0141065,5.00813098 26.8342138,3.59145422" id="Fill-814" fill="#AAAAAA"></path>
                <path d="M16.1356108,12.547398 C16.1356108,12.547398 16.2084932,12.8068069 15.8973356,12.8540382 C15.5860258,12.9011484 15.4048089,12.6838844 14.4574899,12.6907874 C13.5100189,12.6978115 12.8242549,13.0924958 12.3924381,13.0134136 C11.9601649,12.9343314 11.9569697,12.6881231 12.2586936,12.5400105 C13.0521835,12.1502916 15.7973696,11.9103807 16.1356108,12.547398" id="Fill-217" fill="#909090"></path>
                <path d="M14.0953006,14.7639153 C14.4174546,14.7639153 14.6804855,14.5034682 14.6804855,14.1840709 C14.6804855,13.8646735 14.4174546,13.6038934 14.0953006,13.6038934 C13.7734824,13.6038934 13.5104515,13.8646735 13.5104515,14.1840709 C13.5104515,14.5034682 13.7734824,14.7639153 14.0953006,14.7639153" id="Fill-222" fill="#909090"></path>
                <path d="M19.366279,12.5971679 C19.366279,12.5971679 19.3010676,12.8699088 19.6134439,12.9131466 C19.9256682,12.9563845 20.1000214,12.7252331 21.0465748,12.7138214 C21.9929763,12.702156 22.6896288,13.1016941 23.1187472,13.0102733 C23.5480176,12.9189793 23.5437614,12.6612005 23.2382254,12.5122138 C22.4337994,12.1199031 19.6848876,11.9234942 19.366279,12.5971679" id="Fill-225" fill="#909090"></path>
                <path d="M21.9931981,14.1840652 C21.9931981,13.8648581 21.7302326,13.6038934 21.4081811,13.6038934 C21.0861296,13.6038934 20.8231641,13.8648581 20.8231641,14.1840652 C20.8231641,14.5029506 21.0861296,14.7639153 21.4081811,14.7639153 C21.7302326,14.7639153 21.9931981,14.5029506 21.9931981,14.1840652 Z" id="Fill-230" fill="#909090"></path>
            </g>
            <g id="Notes-+-Coins" transform="translate(46.715328, 173.530892)">
                <g id="Money-fly-Copy-5" transform="translate(0.000000, 14.160225)">
                    <g id="Group">
                        <path d="M14.7867994,4.93092587 L10.0798761,0.272956977 C9.84641274,0.0419217201 9.50798496,-0.050771861 9.18744349,0.0274820165 C9.01846494,0.0684721428 8.86737271,0.154644567 8.74781685,0.272956977 C8.6409697,0.378692871 8.56048131,0.509581797 8.51435346,0.655842021 C8.30112984,1.34009765 7.93257775,1.93492028 7.38704534,2.47431308 C6.65841363,3.19490087 5.7094979,3.74081482 4.70551117,4.31793717 C3.63986375,4.92906269 2.5389144,5.56254646 1.63659721,6.4550133 C0.869839416,7.21472802 0.347841628,8.05968358 0.0418916169,9.04065183 C-0.0611900022,9.37183342 0.0287122318,9.73003123 0.27535501,9.97504039 L4.98227826,14.6330093 C5.21574165,14.8640445 5.55416943,14.9567381 5.8747109,14.8784842 C6.04368945,14.8365625 6.19478169,14.7513217 6.31433754,14.6330093 C6.42118469,14.5272734 6.50167308,14.3963845 6.54780093,14.2491926 C6.76149524,13.564937 7.13004733,12.9701144 7.67605043,12.4307216 C8.40421146,11.7101338 9.35265649,11.1651514 10.3575846,10.5884949 C11.4222906,9.97643778 12.5237107,9.34295401 13.4255572,8.45048717 C14.192315,7.69170404 14.7143128,6.84581689 15.0207335,5.86484864 C15.1233444,5.53413284 15.0329715,5.17453765 14.7867994,4.93092587 Z" id="Shape" fill="#FEBBBA"></path>
                        <path d="M7.07216706,11.231567 L7.07122567,11.231567 C6.77704297,11.4551495 6.48992065,11.6908427 6.22397949,11.9549495 C5.96839355,12.2078772 5.73728362,12.4743131 5.536298,12.7463384 L5.21434445,13.1813927 L5.21528583,13.1823243 C5.15644929,13.2731547 5.16633383,13.3951935 5.24635153,13.474379 C5.33813653,13.5652094 5.48828738,13.5652094 5.58054308,13.474379 C5.59466385,13.4599393 5.60596046,13.444568 5.61537431,13.4277993 L5.91614671,13.020227 C6.10254087,12.7682309 6.31811795,12.5199611 6.55675896,12.2842679 C6.82081735,12.0229559 7.06557736,11.8212658 7.3635256,11.5972175 L7.36258422,11.5962859 C7.37105668,11.5897648 7.37905845,11.584641 7.38658953,11.5771882 C7.47884522,11.4863579 7.47884522,11.3377686 7.38658953,11.2469382 C7.30139422,11.1612316 7.16489344,11.1575052 7.07216706,11.231567 Z" id="Shape" fill="#F5F5F5"></path>
                        <path d="M8.44551471,2.68380523 C8.19934262,2.927417 7.93246008,3.14680734 7.65569299,3.35595014 C7.6363946,3.36666347 7.61709622,3.37877419 7.60062199,3.39600867 C7.5078956,3.48777066 7.5078956,3.63729146 7.60062199,3.72905345 C7.69052422,3.81895225 7.83596815,3.82081544 7.92963592,3.73557461 L7.93151869,3.7365062 C8.22570139,3.51292369 8.51235302,3.27629887 8.77829418,3.01312363 C9.03388012,2.76019592 9.26451935,2.49469169 9.46597567,2.22266631 L9.78792922,1.78574883 L9.78698783,1.78481723 C9.86700553,1.69212365 9.86323999,1.55378197 9.77522053,1.46621216 C9.68249414,1.37445017 9.53234329,1.37445017 9.4396169,1.46621216 C9.42220128,1.48344664 9.40949259,1.50347591 9.39819597,1.52350518 L9.08565627,1.94738035 C8.89879142,2.20077385 8.68368503,2.448112 8.44551471,2.68380523 Z" id="Shape" fill="#F5F5F5"></path>
                        <path d="M6.12173338,5.40379078 L6.12173338,5.4095978 L6.10773568,5.4095978 L6.10773568,6.00423792 L6.72128865,6.00423792 C7.27864358,6.00423792 7.55998376,6.26687815 7.66144769,6.59307103 L6.12173338,6.59307103 L6.12173338,7.18771115 L7.66144769,7.18771115 C7.56031223,7.51413605 7.27932322,7.77770564 6.72128865,7.77770564 L6.52999111,7.77770564 L6.52765776,7.7753828 L6.52532501,7.77770564 L6.10773568,7.77770564 L6.10773568,8.37234606 L6.28386974,8.37234606 L8.10586485,10.1609118 L8.52578693,9.7381595 L7.0957191,8.3328578 C7.74352577,8.19761106 8.15945124,7.71755197 8.27383368,7.18771115 L9.08918277,7.18771115 L9.08918277,6.59307103 L8.27383368,6.59307103 C8.22750176,6.37915887 8.1270561,6.17687134 7.98688737,5.9984309 L9.08918277,5.9984309 L9.08918277,5.40379078 L6.12173338,5.40379078 Z" id="Path" fill="#FFFFFF" transform="translate(7.598459, 7.782351) rotate(-45.000000) translate(-7.598459, -7.782351) "></path>
                    </g>
                </g>
                <g id="Money-fly-Copy-4" transform="translate(24.676041, 10.948717) rotate(79.000000) translate(-24.676041, -10.948717) translate(15.676041, 1.948717)">
                    <g id="Group" transform="translate(-0.000000, 0.000000)">
                        <path d="M17.6033326,5.91711105 L11.9998525,0.327548373 C11.7219199,0.0503060641 11.3190297,-0.0609262332 10.9374327,0.0329784198 C10.7362678,0.0821665713 10.5563961,0.185573481 10.4140677,0.327548373 C10.2868687,0.454431445 10.1910492,0.611498157 10.1361351,0.787010425 C9.88229743,1.60811718 9.44354494,2.32190434 8.7941016,2.96917569 C7.92668289,3.83388104 6.79702131,4.48897778 5.60179901,5.1815246 C4.33317113,5.91487522 3.02251714,6.67505575 1.94833002,7.74601595 C1.03552311,8.65767363 0.414097176,9.6716203 0.0498709725,10.8487822 C-0.0728452407,11.2462001 0.0341812283,11.6760375 0.327803583,11.9700485 L5.93128364,17.5596111 C6.20921625,17.8368535 6.61210647,17.9480857 6.99370346,17.8541811 C7.19486839,17.803875 7.3747401,17.701586 7.5170685,17.5596111 C7.64426749,17.4327281 7.740087,17.2756614 7.79500111,17.0990312 C8.0493991,16.2779244 8.48815159,15.5641373 9.13815528,14.9168659 C10.0050136,14.0521606 11.1341149,13.3981817 12.3304579,12.7061939 C13.5979651,11.9717253 14.9091794,11.2115448 15.9828062,10.1405846 C16.8956131,9.23004484 17.517039,8.21498026 17.8818256,7.03781836 C18.0039814,6.64095941 17.8963946,6.20944518 17.6033326,5.91711105 Z" id="Shape" fill="#FEBBBA"></path>
                        <path d="M8.41924649,13.4778803 L8.4181258,13.4778803 C8.0679083,13.7461794 7.72609601,14.0290112 7.40949939,14.3459394 C7.10523042,14.6494527 6.83009955,14.9691757 6.59083095,15.2956061 L6.20755292,15.8176713 L6.20867361,15.8187892 C6.13863011,15.9277857 6.15039742,16.0742322 6.24565658,16.1692548 C6.35492444,16.2782512 6.53367546,16.2782512 6.64350366,16.1692548 C6.66031411,16.1519271 6.67376246,16.1334816 6.68496942,16.1133591 L7.04303179,15.6242724 C7.2649296,15.3218771 7.52156899,15.0239534 7.80566543,14.7411215 C8.12002066,14.427547 8.41140162,14.185519 8.76610191,13.916661 L8.76498121,13.9155431 C8.77506748,13.9077177 8.78459339,13.9015692 8.79355896,13.8926259 C8.90338717,13.7836294 8.90338717,13.6053224 8.79355896,13.4963259 C8.69213597,13.3934779 8.52963505,13.3890063 8.41924649,13.4778803 Z" id="Shape" fill="#F5F5F5"></path>
                        <path d="M10.0541842,3.22056627 C9.76112217,3.5129004 9.44340485,3.7761688 9.11392022,4.02714017 C9.09094596,4.03999616 9.06797169,4.05452903 9.04835951,4.07521041 C8.93797095,4.18532479 8.93797095,4.36474975 9.04835951,4.47486414 C9.15538598,4.5827427 9.32853351,4.58497852 9.44004276,4.48268953 L9.44228416,4.48380744 C9.79250166,4.21550843 10.1337536,3.93155865 10.4503502,3.61574836 C10.7546192,3.3122351 11.0291897,2.99363003 11.2690187,2.66719957 L11.6522967,2.14289859 L11.651176,2.14178068 C11.7464352,2.03054838 11.7419524,1.86453837 11.6371673,1.75945459 C11.5267787,1.64934021 11.3480277,1.64934021 11.2376392,1.75945459 C11.2169063,1.78013597 11.2017769,1.80417109 11.1883285,1.82820621 L10.8162575,2.33685642 C10.5937993,2.64092862 10.3377203,2.9377344 10.0541842,3.22056627 Z" id="Shape" fill="#F5F5F5"></path>
                        <path d="M7.28777783,6.48454894 L7.28777783,6.49151736 L7.2711139,6.49151736 L7.2711139,7.2050855 L8.0015341,7.2050855 C8.66505188,7.2050855 8.99998067,7.52025378 9.12077105,7.91168523 L7.28777783,7.91168523 L7.28777783,8.62525338 L9.12077105,8.62525338 C9.0003717,9.01696326 8.66586097,9.33324677 8.0015341,9.33324677 L7.77379894,9.33324677 L7.77102114,9.33045936 L7.76824406,9.33324677 L7.2711139,9.33324677 L7.2711139,10.0468153 L7.4807973,10.0468153 L9.64983911,12.1930941 L10.1497464,11.6857914 L8.44728464,9.99942936 C9.21848306,9.83713328 9.71363243,9.26106236 9.84980201,8.62525338 L10.8204557,8.62525338 L10.8204557,7.91168523 L9.84980201,7.91168523 C9.79464495,7.65499065 9.67506678,7.41224561 9.50819926,7.19811708 L10.8204557,7.19811708 L10.8204557,6.48454894 L7.28777783,6.48454894 Z" id="Path" fill="#FFFFFF" transform="translate(9.045785, 9.338822) rotate(-45.000000) translate(-9.045785, -9.338822) "></path>
                    </g>
                </g>
                <path d="M21.8016158,26.8299008 C24.8758008,26.8299008 27.3673966,29.3317891 27.3673966,32.4194635 C27.3673966,35.5086858 24.8758153,38.0090262 21.8016158,38.0090262 C18.7264296,38.0090262 16.2725061,35.5117816 16.2725061,32.4194635 C16.2725061,29.3286073 18.7264441,26.8299008 21.8016158,26.8299008 Z M19.7096554,29.2202223 L19.7096554,29.2286201 L19.6896521,29.2286201 L19.6896521,30.0885528 L20.5664421,30.0885528 C21.3629229,30.0885528 21.7649685,30.4683673 21.9099642,30.9400877 L19.7096554,30.9400877 L19.7096554,31.8000205 L21.9099642,31.8000205 C21.7654379,32.2720765 21.3638942,32.6532349 20.5664421,32.6532349 L20.2930708,32.6532349 L20.2897364,32.6498758 L20.2864028,32.6532349 L19.6896521,32.6532349 L19.6896521,33.5131681 L19.9413542,33.5131681 L22.5450528,36.099684 L23.145137,35.4883252 L21.1015171,33.4560625 C22.0272568,33.2604769 22.6216297,32.5662443 22.7850865,31.8000205 L23.9502505,31.8000205 L23.9502505,30.9400877 L22.7850865,30.9400877 C22.7188764,30.6307409 22.5753359,30.3382048 22.3750296,30.080155 L23.9502505,30.080155 L23.9502505,29.2202223 L19.7096554,29.2202223 Z" id="Combined-Shape" fill="#FEBBBA" transform="translate(21.819951, 32.419464) rotate(-20.000000) translate(-21.819951, -32.419464) "></path>
            </g>
        </g>
    </g>
</svg>