<?xml version="1.0" encoding="UTF-8"?>
<svg width="163px" height="124px" viewBox="0 0 163 124" version="1.1" xmlns="http://www.w3.org/2000/svg" xmlns:xlink="http://www.w3.org/1999/xlink">
    <!-- Generator: Sketch 41.1 (35376) - http://www.bohemiancoding.com/sketch -->
    <title>UPI Money</title>
    <desc>Created with Sketch.</desc>
    <defs></defs>
    <g id="Page-1" stroke="none" stroke-width="1" fill="none" fill-rule="evenodd">
        <g id="UPI-Money" transform="translate(7.000000, 6.000000)">
            <g id="Notes" transform="translate(11.222749, 0.000000)">
                <g id="Group-2" transform="translate(0.561137, 0.000000)">
                    <path d="M109.362379,21.8693034 C110.329185,20.1776765 111.120025,18.7825413 112.003904,17.2269756 C97.0426777,11.4291429 82.4354075,5.63537161 67.6885773,0 C66.9300996,1.00928998 66.3496113,1.75458057 65.7994621,2.5201788 C57.7009423,13.7706144 48.6457292,24.1295443 37.7681469,32.7785705 C30.3209067,38.7023107 22.2587938,43.5517764 13.1671738,46.5207542 C9.04914525,47.8671511 4.8218959,48.6794569 0,48.9536101 C11.615834,64.4178821 23.0051359,79.5795702 34.6229925,95.0397807 C38.0937867,93.1024313 41.3097324,91.3153585 44.5904015,89.4856397 C46.1417413,92.2474794 46.0911761,95.391103 47.7213976,97.7995897 C48.0733313,97.7995897 48.2513208,97.8300512 48.415152,97.7955282 C68.1982744,93.7116607 87.1339243,87.231491 104.8641,77.4289906 C115.387726,71.6108501 125.067925,64.6372047 133.31005,55.785102 C134.10898,54.9281194 134.774418,53.9533524 135.500534,53.0354468 C126.714327,42.3901791 117.814855,32.2363564 109.362379,21.8693034 Z" id="Shape" fill="#F1F1F1"></path>
                    <text id="UPI" transform="translate(83.747179, 59.422438) rotate(-32.000000) translate(-83.747179, -59.422438) " font-family="OpenSans-Bold, Open Sans" font-size="24.7269335" font-weight="bold" letter-spacing="0.34342961" fill="#CFCFCF">
                        <tspan x="62.0306206" y="68.9224381">UPI</tspan>
                    </text>
                    <g id="Arrow" transform="translate(109.066994, 45.102217) rotate(-34.000000) translate(-109.066994, -45.102217) translate(104.066994, 34.602217)">
                        <polygon id="Shape" fill="#AAAAAA" points="2.76967342 20.4650228 9.73471626 10.5589343 2.76967342 0.654776773"></polygon>
                        <polygon id="Shape" fill="#F69A98" points="1.32814244e-12 20.2868834 6.96504284 10.3807949 1.32814244e-12 0.476637351"></polygon>
                    </g>
                    <path d="M36.7265041,88.6428724 C26.6175126,76.1861627 16.7876409,63.6746223 6.65437816,50.9275133 C7.87401038,50.5721295 8.73968633,50.3182839 9.60940748,50.0705306 C15.9037615,48.2936116 21.7410063,45.4992796 27.3416061,42.1383643 C37.9157972,35.7922251 47.0478694,27.6975976 55.4012377,18.6972492 C59.3493672,14.4407667 62.9860153,9.89591563 66.7622232,5.48306427 C67.0393204,5.15814194 67.3265306,4.84337344 67.7694816,4.3356823 C80.4916818,9.64003929 93.0095986,14.8631657 105.832929,20.2142303 C88.2038836,48.7444414 65.4515736,71.4727581 36.7265041,88.6428724 Z" id="Path" fill="#CFCFCF"></path>
                    <path d="M123.219262,60.6183217 C103.233879,77.3112062 80.0467082,87.0345069 54.7863651,92.2149872 C53.2714322,92.5236634 51.7382958,92.7348629 49.9361527,93.0313546 C49.2990314,91.0533899 48.7003396,89.1850865 48.0531052,87.1685373 C50.2577472,85.5743871 52.4138467,84.0167907 54.5618557,82.4652866 C56.6754803,83.2796232 57.7151005,84.9793731 58.7688789,86.8903226 C59.4039776,86.8354919 60.097732,86.8801687 60.7287855,86.705523 C74.9497377,82.7536552 88.8450501,77.9326202 101.866596,70.8432211 C107.677547,67.6813207 113.136564,64.0117292 117.853285,59.3105093 C118.462089,58.7012799 119.018306,58.0412814 119.54823,57.4625136 C118.358936,51.4575428 119.095166,51.6667115 121.02271,49.4227167 C116.599268,41.6773807 112.129306,33.9340755 106.0898,26.8670149 C106.56309,26.1521858 107.044471,25.4251721 107.720022,24.4077591 C109.038762,25.7419714 110.234123,26.7451691 111.184748,27.9473817 C117.630798,36.129332 124.02426,44.3539284 130.429857,52.5704018 C130.530987,52.6983399 130.555259,52.8851703 130.717067,53.3116308 C128.429498,55.8521173 125.931578,58.3540192 123.219262,60.6183217 Z" id="Path" fill="#CFCFCF"></path>
                    <path d="M93.713466,31.4423274 C89.8280373,27.5290442 91.1305964,23.6969915 93.6002,19.7634005 C86.4260117,16.5405772 79.4095869,13.3928922 72.279896,10.1903765 C70.0469375,13.4822458 67.4984522,16.1263012 62.8403875,15.0743652 C62.5147477,15.4947335 62.1971984,16.0288246 61.7643604,16.4491928 C57.9214065,20.2121995 54.1674472,24.0686214 50.1889786,27.6813515 C41.0144317,36.0054554 31.0854522,43.1882696 19.2309506,47.5280134 C20.0541518,51.5489272 17.9587306,54.1219059 14.6072702,56.2217164 C20.3170908,63.0938236 25.889374,69.8034697 31.3706399,76.3993929 C38.3567256,74.8397658 40.1548236,75.0387807 45.5430495,77.9224663 C46.4916524,77.4310213 47.3492379,77.0106531 48.1845747,76.5496695 C55.2192031,72.6709092 61.3598389,67.5939979 67.1889933,62.1231182 C74.7373639,55.043873 81.4868046,47.2335525 87.9368994,39.1551712 C89.9230998,36.6674846 91.7616499,34.0579522 93.713466,31.4423274 Z" id="Shape" fill="#F1F1F1"></path>
                </g>
                <g id="Money-UPI" transform="translate(52.698283, 46.042342) rotate(-11.000000) translate(-52.698283, -46.042342) translate(14.698283, 12.542342)">
                    <g transform="translate(37.900289, 33.356289) rotate(-32.000000) translate(-37.900289, -33.356289) translate(4.900289, 14.856289)">
                        <text id="UPI" transform="translate(29.493357, 18.500000) rotate(3.000000) translate(-29.493357, -18.500000) " font-family="OpenSans-Bold, Open Sans" font-size="24.7269335" font-weight="bold" letter-spacing="0.34342961" fill="#CFCFCF">
                            <tspan x="7.77679899" y="28">UPI</tspan>
                        </text>
                        <polygon id="Shape" fill="#AAAAAA" points="58.216947 30.2426303 65.1819899 20.3365417 58.216947 10.4323842"></polygon>
                        <polygon id="Shape" fill="#F69A98" points="55.0510185 30.2426303 62.0160613 20.3365417 55.0510185 10.4323842"></polygon>
                    </g>
                </g>
            </g>
            <g id="Coins" transform="translate(0.000000, 65.776119)">
                <rect id="Rectangle-6" fill="#FFFFFF" x="33.0790419" y="7.58955224" width="31.4498472" height="28.6716418"></rect>
                <path d="M62.895939,11.042998 C60.9631581,12.9829695 58.5102674,14.0071506 55.9273492,14.5734364 C54.2766617,14.9450615 52.6061396,15.2259924 50.911375,15.3786242 C50.4772156,15.4228652 50.0430561,15.4648943 49.6088967,15.5091354 C49.3047647,15.5091354 49.0006327,15.5312559 48.6965007,15.5312559 C47.3499452,15.5533764 45.9615165,15.3786242 44.6369996,15.2038719 C42.9642736,14.9870906 41.31579,14.5933449 39.7312182,14.0270591 C38.8188222,13.6996751 37.9064262,13.2860209 37.0601459,12.8060052 C35.6496786,12.0428465 34.4111121,11.085027 33.5868703,9.64719181 C32.8926559,8.42613791 32.8926559,7.20729607 33.6309474,6.00836271 C34.6954094,4.24314348 36.3240583,3.17472132 38.1246079,2.34741306 C41.6419606,0.734825569 45.3752911,0.168539702 49.2188143,0.232689273 C52.7582056,0.276930356 56.2314812,0.79897514 59.4447019,2.38944209 C60.7031032,2.99996904 61.9637083,3.8272773 62.9840932,4.78730881 C65.1548904,6.90203259 64.9367088,8.97251529 62.895939,11.042998 Z" id="Shape" fill="#FEBBBA"></path>
                <path d="M64.4827146,13.8390345 C64.4827146,15.208296 64.6105382,16.5244682 64.4518606,17.8030355 C64.1367094,20.313717 61.223213,21.6741303 59.1802393,22.5633761 C53.0469106,25.2377496 45.2761176,24.9192138 39.0766733,22.7093717 C36.2006424,21.6829785 32.9741986,20.3822907 32.9874217,16.7722183 C32.9896256,15.8232471 32.9874217,14.8742758 32.9874217,13.7748849 C33.5670356,14.2925056 34.0033989,14.7327043 34.488247,15.1109656 C37.4370051,17.4203502 40.9036691,18.3870178 44.5223992,18.8957903 C47.6562811,19.3359891 50.7989784,19.2851118 53.9218411,18.763067 C57.2011774,18.2144776 60.3262439,17.2411738 63.0039279,15.1618429 C63.5130184,14.7658852 63.9670125,14.3057779 64.4827146,13.8390345 Z" id="Shape" fill="#FEBBBA"></path>
                <path d="M64.522384,22.7602489 C64.522384,24.1295105 64.6502076,25.4456827 64.49153,26.72425 C64.1763788,29.2349315 61.2628823,30.5953448 59.2199087,31.4845906 C53.08658,34.1589641 45.315787,33.8404283 39.1163427,31.6305861 C36.2403118,30.604193 33.013868,29.3035052 33.0270911,25.6934328 C33.029295,24.7444615 33.0270911,23.7954903 33.0270911,22.6960994 C33.606705,23.21372 34.0430683,23.6539188 34.5279164,24.0321801 C37.4766745,26.3415646 40.9433385,27.3082323 44.5620686,27.8170048 C47.6959505,28.2572035 50.8386478,28.2063263 53.9615105,27.6842815 C57.2408468,27.1356921 60.3659133,26.1623882 63.0435972,24.0830573 C63.5504839,23.6870996 64.0044781,23.2269924 64.522384,22.7602489 Z" id="Shape" fill="#FEBBBA"></path>
                <path d="M64.522384,31.5221955 C64.522384,32.891457 64.6502076,34.2076292 64.49153,35.4861966 C64.1763788,37.996878 61.2628823,39.3572914 59.2199087,40.2465371 C53.08658,42.9209106 45.315787,42.6023748 39.1163427,40.3925327 C36.2403118,39.3661396 33.013868,38.0654517 33.0270911,34.4553793 C33.029295,33.5064081 33.0270911,32.5574368 33.0270911,31.4580459 C33.606705,31.9756666 34.0430683,32.4158654 34.5279164,32.7941266 C37.4766745,35.1035112 40.9433385,36.0701789 44.5620686,36.5789513 C47.6959505,37.0191501 50.8386478,36.9682728 53.9615105,36.4462281 C57.2408468,35.8976386 60.3659133,34.9243348 63.0435972,32.8450039 C63.5504839,32.4512582 64.0044781,31.9889389 64.522384,31.5221955 Z" id="Shape" fill="#FEBBBA"></path>
                <path d="M31.6958437,36.3253436 C31.6958437,37.6946051 31.8236673,39.0107774 31.6649897,40.2893447 C31.3498385,42.8000262 28.4363421,44.1604395 26.3933684,45.0496852 C20.2600397,47.7240587 12.4892467,47.4055229 6.28980239,45.1956808 C3.41377151,44.1692877 0.187327682,42.8685998 0.200550812,39.2585274 C0.202754667,38.3095562 0.200550812,37.360585 0.200550812,36.261194 C0.780164697,36.7788147 1.216528,37.2190135 1.70137612,37.5972747 C4.65013421,39.9066593 8.11679825,40.873327 11.7355283,41.3820994 C14.8694102,41.8222982 18.0121075,41.771421 21.1349702,41.2493762 C24.4143065,40.7007867 27.539373,39.7274829 30.217057,37.648152 C30.7239436,37.2544064 31.1779378,36.792087 31.6958437,36.3253436 Z" id="Shape" fill="#FEBBBA"></path>
                <path d="M29.824347,35.2703748 C27.8915661,37.2103463 25.4386754,38.2345274 22.8557572,38.8008132 C21.2050698,39.1724383 19.5345476,39.4533692 17.839783,39.606001 C17.4056236,39.650242 16.9714641,39.6922711 16.5373047,39.7365122 C16.2331727,39.7365122 15.9290407,39.7586327 15.6249087,39.7586327 C14.2783532,39.7807532 12.8899245,39.606001 11.5654076,39.4312487 C9.89268164,39.2144674 8.24419804,38.8207217 6.65962624,38.2544359 C5.74723024,37.9270518 4.83483424,37.5133977 3.98855389,37.033382 C2.57808664,36.2702233 1.33952009,35.3124038 0.51527829,33.8745686 C-0.178936059,32.6535147 -0.178936059,31.4346729 0.559355391,30.2357395 C1.62381739,28.4705203 3.2524663,27.4020981 5.05301589,26.5747899 C8.5703686,24.9622024 12.3036991,24.3959165 16.1472224,24.4600661 C19.6866136,24.5043072 23.1598892,25.0263519 26.3731099,26.6168189 C27.6315112,27.2273458 28.8921163,28.0546541 29.9125012,29.0146856 C32.0832984,31.1294094 31.8651168,33.1998921 29.824347,35.2703748 Z" id="Shape" fill="#FEBBBA"></path>
            </g>
        </g>
    </g>
</svg>