<?xml version="1.0" encoding="UTF-8"?>
<svg width="129px" height="346px" viewBox="0 0 129 346" version="1.1" xmlns="http://www.w3.org/2000/svg" xmlns:xlink="http://www.w3.org/1999/xlink">
    <!-- Generator: Sketch 41.1 (35376) - http://www.bohemiancoding.com/sketch -->
    <title>UPI Fig 2</title>
    <desc>Created with Sketch.</desc>
    <defs></defs>
    <g id="Page-1" stroke="none" stroke-width="1" fill="none" fill-rule="evenodd">
        <g id="UPI-Fig-2" transform="translate(2.000000, 6.000000)">
            <g id="Page-1">
                <g id="UPI-Fig">
                    <g id="Hand" transform="translate(55.500000, 242.500000) scale(-1, 1) translate(-55.500000, -242.500000) translate(18.000000, 151.000000)">
                        <path d="M65.5328313,47.6367931 L65.5328313,47.6367931 C68.2527108,49.4857241 68.925,53.1971084 67.1078313,55.9294877 L33.8584337,105.922744 C32.0403614,108.656025 28.2641566,109.342951 25.5451807,107.49402 C22.8262048,105.645089 22.1521084,101.938212 23.9710843,99.2013251 L57.2204819,49.2071675 C59.0403614,46.4711823 62.8138554,45.7869606 65.5328313,47.6367931" id="Fill-143" fill="#EDC7B8"></path>
                        <polyline id="Fill-144" fill="#EDC7B8" points="7.04819277 137.425788 40.1159639 137.425788 40.1159639 111.506498 56.2003012 74.8758473 7.04819277 74.8758473 7.04819277 137.425788"></polyline>
                        <path d="M68.6575301,66.5786453 L68.6575301,66.5786453 C71.3774096,68.4275764 72.0496988,72.1389606 70.2325301,74.8722414 L36.9831325,124.865498 C35.1659639,127.597877 31.3888554,128.285704 28.6698795,126.435872 C25.9509036,124.586941 25.2768072,120.880064 27.0957831,118.144079 L60.3451807,68.1490197 C62.1659639,65.4130345 65.9385542,64.7297143 68.6575301,66.5786453" id="Fill-145" fill="#EDC7B8"></path>
                        <path d="M64.910241,23.7936059 L64.910241,23.7936059 C67.6301205,25.6425369 68.3051205,29.3539212 66.485241,32.0863005 L34.4412651,80.2071872 C32.6213855,82.940468 28.8478916,83.6273941 26.128012,81.7784631 C23.4090361,79.9286305 22.7331325,76.2208522 24.5548193,73.4857685 L56.5987952,25.3639803 C58.4195783,22.6288966 62.1903614,21.9446749 64.910241,23.7936059" id="Fill-146" fill="#EDC7B8"></path>
                        <path d="M20.6304217,0.250610837 L50.2174699,0.250610837 C55.9472892,0.250610837 60.6361446,4.92747783 60.6361446,10.6437488 L60.6361446,89.0083153 C60.6361446,94.7245862 55.9472892,99.4023547 50.2174699,99.4023547 L20.6304217,99.4023547 C14.9006024,99.4023547 10.2135542,94.7245862 10.2135542,89.0083153 L10.2135542,10.6437488 C10.2135542,4.92747783 14.9006024,0.250610837 20.6304217,0.250610837" id="Fill-147" fill="#666666"></path>
                        <path d="M14.7930723,8.56494089 L56.0548193,8.56494089 C56.135241,8.56494089 56.2003012,8.63074877 56.2003012,8.71007882 L56.2003012,90.1099212 C56.2003012,90.1901527 56.135241,90.2559606 56.0548193,90.2559606 L14.7930723,90.2559606 C14.7135542,90.2559606 14.6475904,90.1901527 14.6475904,90.1099212 L14.6475904,8.71007882 C14.6475904,8.63074877 14.7135542,8.56494089 14.7930723,8.56494089" id="Fill-148" fill="#F69A98"></path>
                        <path d="M27.7807229,3.60410837 L43.0680723,3.60410837 C43.4828313,3.60410837 43.8216867,3.94216256 43.8216867,4.35594089 C43.8216867,4.76971921 43.4828313,5.1077734 43.0680723,5.1077734 L27.7807229,5.1077734 C27.3659639,5.1077734 27.0271084,4.76971921 27.0271084,4.35594089 C27.0271084,3.94216256 27.3659639,3.60410837 27.7807229,3.60410837" id="Fill-149" fill="#FFFFFF"></path>
                        <path d="M35.4243976,97.2279901 C36.8268072,97.2279901 37.9707831,96.0867192 37.9707831,94.6867241 C37.9707831,93.2867291 36.8268072,92.1454581 35.4243976,92.1454581 C34.0210843,92.1454581 32.8771084,93.2867291 32.8771084,94.6867241 C32.8771084,96.0867192 34.0210843,97.2279901 35.4243976,97.2279901" id="Fill-150" fill="#FFFFFF"></path>
                        <path d="M71.7921687,61.9675862 L71.7921687,61.9675862 C74.5120482,63.8165172 75.2105422,67.5486355 73.3671687,70.2611823 L67.0978916,79.4814975 C65.2545181,82.1940443 61.5045181,82.9017044 58.7855422,81.0527734 C56.0656627,79.2038424 55.3635542,75.477133 57.2105422,72.7600788 L63.4807229,63.5388621 C65.3286145,60.8209064 69.0722892,60.1186552 71.7921687,61.9675862" id="Fill-151" fill="#EDC7B8"></path>
                        <path d="M69.1084337,42.37667 L69.1084337,42.37667 C71.8283133,44.225601 72.5286145,47.9577192 70.6843373,50.670266 L65.3439759,58.5230394 C63.4996988,61.2364877 59.7506024,61.9432463 57.0316265,60.0943153 C54.311747,58.2453842 53.6096386,54.5186749 55.4575301,51.8016207 L60.796988,43.9470443 C62.6448795,41.2299901 66.3903614,40.5277389 69.1084337,42.37667" id="Fill-152" fill="#EDC7B8"></path>
                        <polygon id="Fill-153" fill="#AAAAAA" points="2.68915663 144.236453 44.475 144.236453 44.475 127.500517 2.68915663 127.500517"></polygon>
                        <path d="M35.9945783,138.529197 C37.4060241,138.529197 38.5563253,137.381616 38.5563253,135.974409 C38.5563253,134.567202 37.4060241,133.418719 35.9945783,133.418719 C34.5849398,133.418719 33.4337349,134.567202 33.4337349,135.974409 C33.4337349,137.381616 34.5849398,138.529197 35.9945783,138.529197" id="Fill-154" fill="#444444"></path>
                        <polygon id="Fill-155" fill="#354C6D" points="0 182.339162 47.1777108 182.339162 47.1777108 142.887842 0 142.887842"></polygon>
                        <path d="M11.076506,111.492074 L15.3027108,111.492074 L14.8427711,106.277025 L12.0207831,75.6249754 C11.2201807,66.915798 6.35421687,76.8167291 0.830421687,76.8167291 L3.27560241,103.936788 C3.6496988,108.085389 7.14849398,111.492074 11.076506,111.492074" id="Fill-156" fill="#EDC7B8"></path>
                        <path d="M1.93012048,79.5716453 L4.28403614,83.0720837 L8.36927711,79.7852956 L16.5460843,73.2135222 C23.3683735,67.7298325 22.8894578,61.5718374 19.8108434,56.995936 L3.87108434,68.8999507 C0.54126506,71.3871281 -0.259337349,76.3182118 1.93012048,79.5716453" id="Fill-157" fill="#EDC7B8"></path>
                    </g>
                    <g id="Auto+Driver" transform="translate(104.000000, 108.000000) scale(-1, 1) translate(-104.000000, -108.000000) translate(84.000000, 93.000000)">
                        <g id="Auto">
                            <path d="M39.6575191,13.3448182 L28.6031544,13.3448182 L28.6031544,1.81270934 L10.5134439,1.81270934 C10.4069329,1.81153169 10.3006827,1.80123216 10.1957186,1.78191012 L10.1214451,1.78191012 C10.0247215,1.76163778 9.92955203,1.73369416 9.83673025,1.69831223 L9.76658311,1.66751301 C9.69886122,1.63770439 9.63273917,1.6039202 9.56852059,1.56631556 L9.46948932,1.50911701 C9.39916082,1.46230955 9.33163389,1.410878 9.2673005,1.35512089 L9.14351142,1.23632389 L9.07336428,1.16152578 C9.03210125,1.113127 8.99083822,1.06472822 8.9495752,1.01632945 L8.9495752,1.01632945 C8.74247706,0.736512636 8.60609584,0.404764819 8.55345015,0.0527537703 L35.4115537,0.0527537703 C37.7478328,0.05030098 39.646157,2.06268688 39.6575191,4.55384015 L39.6575191,13.3448182 Z" id="Path" fill="#ECECEC"></path>
                            <path d="M19.0260061,13.3580179 L19.0260061,2.25269824 L19.0260061,13.3580179 Z" id="Path" stroke="#CFCFCF" stroke-width="0.5"></path>
                            <path d="M5.21939766,20.2922428 L5.18638724,20.2350443 C3.96522414,18.0276684 3.32118624,15.5116491 3.32129847,12.9488282 C3.32129847,12.6100368 3.32129847,12.2712453 3.35843519,11.9324539 L7.05972861,11.9324539 C8.09796882,11.9324645 8.94090517,11.0375725 8.94544889,9.93050442 L8.94544889,1.59711478 L9.07749058,1.71591179 L9.12287991,1.75551079 C9.22257591,1.8298554 9.32740864,1.89604297 9.4364789,1.95350579 L9.51075235,1.99750468 C9.61905206,2.04878634 9.73076845,2.09143551 9.84498286,2.12510146 L9.93163521,2.15590068 C10.0716058,2.20208168 10.2152521,2.23448311 10.3607707,2.25269824 L10.4102863,2.25269824 L10.4102863,22.7605805 C10.4102863,23.3680784 10.8721385,23.8605528 11.441862,23.8605528 L15.6878273,23.8605528 C16.2575508,23.8605528 16.719403,23.3680784 16.719403,22.7605805 L16.719403,18.1362973 L18.5267235,18.1362973 L18.5267235,13.7980068 L19.1621741,13.7980068 L19.1621741,22.7605805 C19.1621741,23.3680784 19.6240263,23.8605528 20.1937498,23.8605528 L24.3613154,23.8605528 C24.9310389,23.8605528 25.392891,23.3680784 25.392891,22.7605805 L25.392891,18.1362973 L25.392891,18.1362973 L25.392891,15.8571548 L25.392891,15.8571548 L25.392891,15.5051637 C25.3974043,14.5643276 26.1115618,13.8028193 26.9938964,13.7980068 L28.1863979,13.7980068 L39.6575191,13.7980068 L39.6575191,23.9177513 C38.8381738,21.7502155 36.8646153,20.3321767 34.6729455,20.3362417 L32.1228905,20.3362417 C29.2467401,20.3334958 26.8803794,22.7500002 26.7586972,25.8141035 L10.7734009,25.8141035 L10.6826223,25.7613048 C8.47623647,24.5562434 6.62117749,22.7303465 5.31842892,20.4814381 L5.21939766,20.2922428 Z" id="Path" fill="#F69A98"></path>
                            <path d="M8.7800127,2.32341074 L8.7800127,10.6260011 C8.77555906,11.4832507 8.12733546,12.1783697 7.32342788,12.1879617 L3.71291312,12.1879617 C4.08147849,8.39007084 5.83816531,4.89982752 8.60258169,2.47300696 L8.7800127,2.32341074 Z" id="Path" stroke="#ECECEC" stroke-width="0.766482719"></path>
                            <path d="M36.9795487,25.792104 C36.8743566,24.4393009 35.8139428,23.3985005 34.5409039,23.3985644 L32.2508059,23.3985644 C30.9769945,23.3963869 29.9154416,24.4383052 29.8121611,25.792104 L27.1630748,25.792104 C27.2844603,22.9710288 29.4661963,20.7512635 32.1146379,20.7542312 L34.6646929,20.7542312 C37.3131346,20.7512635 39.4948705,22.9710288 39.616256,25.792104 L36.9795487,25.792104 Z" id="Path" fill="#F69A98"></path>
                            <path d="M7.18764399,26.0120985 L7.18764399,26.0120985 C7.18764397,27.8807619 5.76698676,29.395613 4.0145173,29.395613 C2.26204784,29.395613 0.841390636,27.8807619 0.84139061,26.0120985 C0.841817063,25.2020603 1.11907189,24.4199501 1.6212618,23.812154 L5.15337682,23.812154 C6.2681924,23.8096765 7.17631696,24.7662274 7.18764399,25.9548999 L7.18764399,26.0120985 Z" id="Path" fill="#CFCFCF"></path>
                            <path d="M4.010391,24.3181412 C3.14311432,24.3254329 2.44429732,25.0784586 2.44657676,26.0032639 C2.44885619,26.9280692 3.15137559,27.6771677 4.01867623,27.6795983 C4.88597686,27.6820289 5.59217925,26.9368782 5.5990175,26.0120985 C5.60011702,25.5624747 5.43309746,25.1309285 5.13493352,24.8129954 C4.83676958,24.4950623 4.43205705,24.3169688 4.010391,24.3181412 L4.010391,24.3181412 Z" id="Shape" fill="#FFFFFF"></path>
                            <path d="M0.994063806,21.5506111 L0.0450142101,21.5506111 L0.0450142101,17.9295025 L0.994063806,17.9295025 C1.93182868,17.9295025 2.69203732,18.7401153 2.69203732,19.7400568 C2.69203732,20.7399983 1.93182868,21.5506111 0.994063806,21.5506111 L0.994063806,21.5506111 Z" id="Path" fill="#F69A98"></path>
                            <path d="M7.60027425,25.792104 C7.50720967,24.4271777 6.44093598,23.3708703 5.15750312,23.3721651 L0.977558595,23.3721651 C1.8078299,21.8194237 3.3225515,20.8244634 4.99657732,20.7322317 C6.2146891,22.8329273 7.90348091,24.5777479 9.9110037,25.8097036 L7.60027425,25.792104 Z" id="Path" fill="#F69A98"></path>
                            <path d="M36.5669184,26.0120985 C36.5669184,27.878332 35.1481086,29.3912132 33.397918,29.3912132 C31.6477275,29.3912132 30.2289176,27.878332 30.2289176,26.0120985 L30.2289176,26.0120985 L30.2289176,26.0120985 C30.2334666,24.8182616 31.1435742,23.8537165 32.2631848,23.8561529 L34.5409039,23.8561529 C35.659582,23.8561308 36.5683637,24.8192706 36.575171,26.0120985 L36.5669184,26.0120985 Z" id="Path" fill="#CFCFCF"></path>
                            <path d="M18.6216285,6.00580349 L18.6216285,11.492465 L18.5803654,11.492465 C17.7730066,10.8422097 17.2984296,9.82580508 17.2984296,8.7469343 C17.2984296,7.66806351 17.7730066,6.65165888 18.5803654,6.0014036 L18.6216285,6.00580349 Z" id="Path" fill="#CFCFCF"></path>
                            <path d="M18.1099669,16.2971437 L18.1099669,17.6963084 L15.1390291,17.6963084 C14.9446444,17.6963224 14.7864273,17.5295768 14.7841671,17.3223178 L14.7841671,16.6711343 C14.7841606,16.5711787 14.8216789,16.4753799 14.8883497,16.4051152 C14.9550206,16.3348505 15.0452953,16.2959678 15.1390291,16.2971437 L18.1099669,16.2971437 Z" id="Path" fill="#CFCFCF"></path>
                            <path d="M24.9843871,16.2971437 L24.9843871,17.6963084 L22.0134492,17.6963084 C21.8190645,17.6963224 21.6608475,17.5295768 21.6585872,17.3223178 L21.6585872,16.6711343 C21.6585807,16.5711787 21.696099,16.4753799 21.7627698,16.4051152 C21.8294407,16.3348505 21.9197154,16.2959678 22.0134492,16.2971437 L24.9843871,16.2971437 Z" id="Shape" fill="#CFCFCF"></path>
                            <path d="M33.397918,24.3181412 C32.5300863,24.3230148 31.8292013,25.0749849 31.8299725,26.000369 C31.8307436,26.9257531 32.5328808,27.6763938 33.4007193,27.6796228 C34.2685578,27.6828518 34.9755907,26.9374543 34.9824182,26.0120985 C34.9846196,25.5628806 34.8185214,25.1313193 34.5210112,24.8132571 C34.2235011,24.495195 33.8192077,24.3169622 33.397918,24.3181412 L33.397918,24.3181412 Z" id="Shape" fill="#FFFFFF"></path>
                        </g>
                    </g>
                    <g id="Food-Delivery" transform="translate(25.000000, 17.000000) scale(-1, 1) translate(-25.000000, -17.000000) translate(7.000000, 0.000000)">
                        <g id="Group">
                            <path d="M24.4337077,16.0073555 C24.1722501,16.2979708 23.813404,16.4692054 23.4232648,16.4891266 C23.2482286,16.4982083 23.0685131,16.5028956 22.8893825,16.503628 L22.88909,16.503628 L22.8809012,16.503628 C22.5213239,16.503628 22.1675958,16.4834139 21.8203017,16.4443038 C21.8276132,16.4976224 21.839604,16.5510874 21.8594911,16.6035271 C22.0025032,16.9818836 22.4242278,17.1727464 22.8020837,17.0300753 L24.191991,16.5034816 L27.4906264,26.1402209 C27.7551548,25.850338 28.0527309,25.593413 28.3773594,25.3728149 C28.4835218,25.300747 28.5918775,25.2316086 28.7037427,25.1674506 C28.9878658,25.0045654 29.2896826,24.8677536 29.6067072,24.7600912 C29.6377078,24.7495446 29.6690008,24.7404629 29.7001476,24.7305023 C30.1462925,24.5884172 30.6057442,24.5082929 31.0698753,24.4926196 C31.1267584,24.4907154 31.1834953,24.4891041 31.2405246,24.4891041 C33.0065331,24.4891041 34.6115434,25.4015249 35.5307393,26.8475704 C36.0774898,26.8213506 36.217431,26.500414 35.3388868,25.3534796 C33.9219271,23.503883 31.9509054,23.1453012 30.5648001,23.1639041 C30.4776476,22.928951 30.3877167,22.6834514 30.2939839,22.4238897 C29.444393,20.0712826 27.5366885,18.950568 26.4137955,18.4767068 L26.1040823,17.5717565 L27.2845896,17.5717565 C27.5162165,18.5578565 28.3979777,19.2928906 29.4531667,19.2928906 C30.6847079,19.2928906 30.6847079,14.825266 29.4531667,14.825266 C28.3979777,14.825266 27.5162165,15.5603001 27.2845896,16.5464001 L25.7529863,16.5464001 L25.3311155,15.3139216 C25.2666285,15.1262814 25.1300505,14.9730638 24.9506274,14.8888381 C24.9010558,14.8655479 24.8492907,14.8492886 24.7966482,14.8377168 C24.8014738,14.8752155 24.8060069,14.9127143 24.8080541,14.9509454 C24.827795,15.3414597 24.6953115,15.7167402 24.4337077,16.0073555 Z" id="Shape" fill="#EEEEEE"></path>
                            <ellipse id="Oval" fill="#CFCFCF" transform="translate(18.909054, 4.445483) rotate(-76.890715) translate(-18.909054, -4.445483) " cx="18.9090537" cy="4.44548272" rx="3.28914421" ry="3.29506996"></ellipse>
                            <path d="M14.6430866,21.0071401 C14.6483508,21.0080189 14.6533226,21.0094837 14.6585868,21.0103626 L20.2038856,21.8741522 L22.2810695,27.1481463 C22.5647539,27.8682395 23.2533466,28.307678 23.9820061,28.307678 C24.2050054,28.307678 24.4318067,28.2665173 24.6521739,28.1795084 C25.5915494,27.8086224 26.0523172,26.7451812 25.6816266,25.8044899 L23.2201526,19.5546494 C22.9823842,18.9515933 22.4401668,18.5169887 21.800707,18.4175291 L17.2064821,17.7015373 C17.1842553,16.6887781 17.2877855,15.6429145 17.4407411,14.6376258 C17.0601068,14.3360245 16.6980437,14.0020513 16.3593771,13.6330694 C15.2031439,12.3686584 14.6620963,11.1281236 14.5239099,10.7777447 L14.5228863,10.7755475 L14.5165984,10.7598742 C14.3789969,10.3936754 14.3920112,9.99583712 14.5534481,9.63945251 C14.7147388,9.28306791 15.004711,9.01105549 15.3705762,8.87351124 C15.5362537,8.81081802 15.7093889,8.77903197 15.8854487,8.77903197 C16.4908371,8.77903197 17.0405122,9.16061105 17.2538604,9.72821909 C17.2575161,9.73803321 17.26512,9.75561075 17.2757947,9.78080522 C17.2996301,9.83588151 17.3380883,9.92113258 17.392778,10.0301133 C17.495577,10.2354776 17.6711981,10.5565606 17.9259292,10.9195368 C17.9810575,10.9981963 18.0410114,11.0806642 18.1060834,11.1656224 C18.4408017,9.74374591 17.8876171,8.11577283 16.6860529,7.81578282 C15.4376953,7.50407446 13.6281106,8.18315339 12.8919935,10.3279061 C11.8967584,13.2831299 11.6828253,15.2065521 12.0609736,18.4605941 C12.4265463,20.3449063 13.5304296,20.8777987 14.6430866,21.0071401 Z" id="Shape" fill="#CFCFCF"></path>
                            <path d="M17.1311742,10.161066 C17.0732675,10.0456401 17.0324696,9.95496934 17.0076106,9.8974029 C16.9950349,9.86854644 16.9865536,9.84803931 16.9821668,9.83676039 C16.9812894,9.83470968 16.9805582,9.83295192 16.9798271,9.83134065 L16.9799733,9.83134065 C16.7522947,9.22550147 16.0778862,8.91921285 15.4730828,9.14728142 C14.8682793,9.37505703 14.5626606,10.0509134 14.7900468,10.6564596 C14.8251417,10.7422966 15.3210045,12.0639811 16.5744801,13.4344432 C16.8431029,13.7269628 17.1500377,14.0209471 17.4929449,14.3036525 C17.9510806,14.6811302 18.475458,15.0378078 19.0770444,15.3382372 C19.8710682,15.7356361 20.7964058,16.0304993 21.8400427,16.1506125 C22.1749072,16.1892831 22.5214701,16.2105226 22.8803163,16.2105226 L22.8883589,16.2105226 C23.0594469,16.2102296 23.2325821,16.2058352 23.4077645,16.1967535 C24.0530734,16.1633562 24.5489362,15.6123003 24.5154497,14.9658863 C24.5131101,14.9210636 24.5078458,14.8772662 24.5006806,14.8340548 C24.4049005,14.253703 23.8876883,13.825104 23.2869793,13.8561577 C23.1498164,13.8630422 23.0168942,13.8665577 22.8882126,13.8665577 C21.7672206,13.8653859 20.8709826,13.6137341 20.120535,13.2406509 C19.2180092,12.7913982 18.5273693,12.146742 18.0233177,11.5294774 C17.900924,11.3796289 17.7862804,11.2309522 17.6859673,11.0875488 C17.4300664,10.7220824 17.2466951,10.3919177 17.1311742,10.161066 Z" id="Shape" fill="#CFCFCF"></path>
                            <path d="M0.780424544,20.9100242 L10.0161063,20.9100242 C10.4470434,20.9100242 10.7965309,20.5599382 10.7965309,20.1282631 L10.7965309,11.0069851 C10.7965309,10.5751635 10.4470434,10.225224 10.0161063,10.225224 L0.780424544,10.225224 C0.349487476,10.225224 0,10.57531 0,11.0069851 L0,20.1282631 C0,20.5600846 0.349487476,20.9100242 0.780424544,20.9100242 Z" id="Shape" fill="#F69A98"></path>
                            <path d="M13.7083903,28.1852211 C12.9358622,25.9027777 10.4625437,24.6796739 8.1838561,25.4536716 C6.04101532,26.1813817 4.83418681,28.4157799 5.34028562,30.5776707 C5.37245601,30.7147755 5.41076803,30.8515874 5.45697641,30.9876668 C6.22935836,33.2701103 8.70282307,34.493214 10.9815107,33.7192164 C12.4604715,33.2169382 13.4931412,31.9964711 13.8249349,30.5776707 C14.0042118,29.8107041 13.979499,28.9860245 13.7083903,28.1852211 Z M10.1351368,31.2192509 C9.39492525,31.4706097 8.60309484,31.1876113 8.17537482,30.5776707 C8.08310427,30.4461321 8.00691893,30.2999456 7.95281417,30.13999 C7.6476341,29.2382622 8.1300438,28.2593398 9.03008373,27.9536371 C9.93012365,27.6479344 10.9075187,28.1313167 11.2125526,29.032898 C11.3959238,29.5745791 11.2935635,30.1430661 10.9886759,30.5776707 C10.7860024,30.8666747 10.4945679,31.097087 10.1351368,31.2192509 Z" id="Shape" fill="#CFCFCF"></path>
                            <path d="M26.2090748,28.8199168 L16.8856556,28.8199168 C16.0796409,27.1909183 15.8023906,25.5280831 15.7105588,24.4461856 C15.9499358,24.3727994 16.1251182,24.1523477 16.1251182,23.8885382 L16.1251182,22.2772637 C16.1251182,21.9536905 15.8632219,21.6913458 15.5402019,21.6913458 L3.62253274,21.6913458 C3.29951272,21.6913458 3.03761646,21.9536905 3.03761646,22.2772637 L3.03761646,23.8885382 C3.03761646,24.2121114 3.29951272,24.4744561 3.62253274,24.4744561 L3.68701976,24.4744561 C3.05180068,26.0357811 2.071481,28.7422827 2.071481,30.5778172 L4.59276261,30.5778172 C4.37327278,29.4817111 4.51818579,28.3501571 5.02033641,27.3310992 C5.62206903,26.1104856 6.6621964,25.197186 7.94901222,24.7603841 C8.47865391,24.5802143 9.02832898,24.4892506 9.58297584,24.4892506 C11.7641286,24.4892506 13.7002015,25.8799269 14.4006388,27.9504145 C14.6973375,28.8270943 14.7398902,29.729408 14.5704107,30.5778172 L15.5975237,30.5778172 L18.0103033,30.5778172 L26.2504576,30.5778172 C26.1337668,29.9942429 26.1203138,29.4011474 26.2090748,28.8199168 Z" id="Shape" fill="#EEEEEE"></path>
                            <path d="M34.5445705,26.7426911 C33.7471833,25.8135717 32.5871481,25.257682 31.3610174,25.2234058 C30.9461655,25.2118339 30.5240022,25.2604651 30.105787,25.3739867 C30.0174647,25.3980093 29.9291423,25.4237897 29.8412587,25.4536716 C29.5208708,25.5625058 29.222271,25.7060557 28.9463368,25.8769973 C28.8455849,25.9392511 28.7479039,26.0047274 28.6535862,26.0743052 C28.3143347,26.3249316 28.0169048,26.6208202 27.7677305,26.950692 C27.353756,27.4989647 27.0727037,28.1403984 26.9510411,28.8199168 C26.8491194,29.389722 26.8592092,29.986333 26.9975419,30.5776707 C27.0297123,30.7147755 27.0680244,30.8515874 27.1142327,30.9876668 C27.8866147,33.2701103 30.3600794,34.493214 32.638767,33.7192164 C34.9173083,32.9453652 36.1383211,30.4676646 35.3656467,28.1852211 C35.1812518,27.6391456 34.8981523,27.1545914 34.5445705,26.7426911 Z M31.7928318,31.2192509 C30.8927919,31.5249536 29.9153968,31.0415713 29.610363,30.13999 C29.3051829,29.2382622 29.7875926,28.2593398 30.6876325,27.9536371 C31.5876724,27.6479344 32.5650675,28.1313167 32.8701014,29.032898 C33.1754277,29.9344793 32.693018,30.9134017 31.7928318,31.2192509 Z" id="Shape" fill="#CFCFCF"></path>
                        </g>
                    </g>
                    <g id="Merchant" transform="translate(72.000000, 1.000000)">
                        <g id="Body-House" transform="translate(1.044225, 14.027310)">
                            <path d="M31.6743115,1.48595979 C31.6257913,1.4880675 31.576578,1.49368804 31.5252852,1.49368804 C30.5236903,1.49368804 29.6274535,1.03280346 29.0264965,0.311266175 C28.4283121,1.02437265 27.5369273,1.47752898 26.5436501,1.47752898 C25.5579976,1.47752898 24.672851,1.02999319 24.0739735,0.324614966 C23.4730166,1.03842401 22.5850975,1.49087777 21.5883546,1.49087777 C20.5839871,1.49087777 19.6877502,1.02999319 19.0895658,0.305645631 C18.4886089,1.0187521 17.5979172,1.47752898 16.6011743,1.47752898 C15.6155217,1.47752898 14.7303752,1.02999319 14.1321908,0.324614966 C13.5333133,1.03842401 12.6426216,1.49087777 11.6486513,1.49087777 C10.6470564,1.49087777 9.75081954,1.02999319 9.14986258,0.308455903 C8.55167821,1.02156237 7.66098653,1.4747187 6.66701621,1.4747187 C5.68136362,1.4747187 4.79621711,1.02718292 4.19733959,0.321804694 C3.59915521,1.03561373 2.70846353,1.4880675 1.71449321,1.4880675 L1.71449321,18.4571913 L0.163234081,18.4571913 L0.163234081,20.7321063 L33.2311158,20.7321063 L33.2311158,18.4571913 L31.6798566,18.4571913 L31.6798566,1.48595979 L31.6743115,1.48595979 Z" id="Fill-1" fill="#EEEEEE"></path>
                            <polygon id="Path" fill="#CFCFCF" points="22.8450269 5.24540091 30.0662144 5.24540091 30.0662144 11.8867758 22.8450269 11.8867758"></polygon>
                            <polygon id="Path" fill="#CFCFCF" points="3.35031606 5.24540091 10.5742761 5.24540091 10.5742761 11.8867758 3.35031606 11.8867758"></polygon>
                            <polygon id="Path" fill="#F69A98" points="12.2094058 5.24540091 21.1773194 5.24540091 21.1773194 18.4628118 12.2094058 18.4628118"></polygon>
                        </g>
                        <g id="Shade">
                            <path d="M5.24710974,12.261083 L5.24710974,11.7559366 C5.67755295,9.81263368 6.11631391,7.87003329 6.55230229,5.9295406 C6.98829067,3.98623765 7.42982421,2.04082698 7.86304001,0.0975240272 L3.94261033,0.0975240272 C3.33333563,2.04082698 2.71851577,3.98623765 2.10924107,5.9295406 C1.49996638,7.87284356 0.887919098,9.81544395 0.278644401,11.7587469 L0.27587182,11.7587469 L0.27587182,12.261083 C0.27587182,13.646547 1.3946083,14.7804917 2.76149078,14.7804917 C4.12906641,14.7804917 5.24710974,13.646547 5.24710974,12.261083 Z" id="Fill-2" fill="#F69A98"></path>
                            <path d="M10.2072929,12.261083 L10.2229716,11.7559366 L10.9904616,5.9295406 L11.7788566,0.0975240272 L7.85778667,0.0975240272 L6.54727921,5.9295406 L5.23680362,11.7587469 L5.23680362,12.261083 C5.23680362,12.261083 4.71371357,14.7804917 7.46050323,14.7804917 C10.2072929,14.7804917 10.2072929,12.261083 10.2072929,12.261083 Z" id="Fill-2-Copy" fill="#F9F9F9"></path>
                            <path d="M28.5679971,12.261083 L28.5836758,11.7559366 L29.3511658,5.9295406 L30.1395608,0.0975240272 L26.2184909,0.0975240272 L24.9079834,5.9295406 L23.5975078,11.7587469 L23.5975078,12.261083 C23.5975078,12.261083 23.0744177,14.7804917 25.8212074,14.7804917 C28.5679971,14.7804917 28.5679971,12.261083 28.5679971,12.261083 Z" id="Fill-2-Copy-2" fill="#F9F9F9" transform="translate(26.848637, 7.439008) scale(-1, 1) translate(-26.848637, -7.439008) "></path>
                            <path d="M35.0468114,11.6814644 C34.4430819,9.76345392 33.842125,7.84474084 33.241168,5.9295406 C32.6318933,3.98623765 32.0170734,2.04082698 31.4057193,0.0975240272 L27.4818239,0.0975240272 C27.9178123,2.04082698 28.3593458,3.98623765 28.7925616,5.9295406 C29.22855,7.87284356 29.6617658,9.81544395 30.1005268,11.7587469 L30.1060719,11.7587469 L30.1060719,12.2196315 C30.1060719,13.6057981 31.2241152,14.7390402 32.5916909,14.7390402 C33.9585734,14.7390402 35.0766167,13.6057981 35.0766167,12.2196315 L35.0766167,11.6786542 L35.0468114,11.6814644 Z" id="Fill-3" fill="#F69A98"></path>
                            <path d="M20.1635961,11.7587469 L20.1635961,12.2140109 C20.1635961,13.6001775 21.2816394,14.7334196 22.649215,14.7334196 C23.9890649,14.7334196 25.0856207,13.6409265 25.1265163,12.2912934 C25.1265163,12.2638933 25.1181985,12.2386008 25.1181985,12.2112007 L25.1181985,11.6491463 C24.858269,9.74167432 24.6038847,7.83420232 24.3467278,5.9295406 C24.0840258,3.98623765 23.8213237,2.04082698 23.5558491,0.0975240272 L19.6326468,0.0975240272 C19.7220625,2.04082698 19.8114783,3.98623765 19.8981214,5.9295406 C19.9847646,7.87284356 20.0714078,9.81544395 20.1635961,11.7587469 Z" id="Fill-4" fill="#F69A98"></path>
                            <polygon id="Fill-5" fill="#CFCFCF" points="20.5670066 27.2068111 21.484731 27.2068111 21.484731 24.6185507 20.5670066 24.6185507"></polygon>
                            <path d="M12.6928763,14.7306093 C14.0604519,14.7306093 15.1784953,13.5973672 15.1784953,12.2112007 L15.1784953,11.7587469 L15.1840404,11.7587469 C15.267911,9.81544395 15.3573267,7.87284356 15.4439699,5.9295406 C15.5306131,3.98623765 15.6172562,2.04082698 15.7038994,0.0975240272 L11.7862423,0.0975240272 C11.5263128,2.04082698 11.2608382,3.98623765 11.0009087,5.9295406 C10.7382066,7.87284356 10.4755046,9.81544395 10.2183477,11.7587469 L10.2100299,11.7587469 L10.2100299,12.2112007 C10.2100299,12.2224418 10.2079505,12.2308726 10.2079505,12.2386008 C10.2238928,13.610716 11.3343116,14.7306093 12.6928763,14.7306093 Z" id="Fill-6" fill="#F69A98"></path>
                            <path d="M17.7518248,14.7306093 C19.3181623,14.7306093 20.1744344,13.5077802 20.163982,12.2112007 L20.1744344,11.7587469 L19.9029257,5.9295406 L19.6314171,0.0975240272 L15.7014284,0.0975240272 C15.4231916,5.1953001 15.7014284,1.55859003 15.4231916,5.9295406 C15.1449548,10.3004912 15.1777588,10.9101302 15.1777588,11.7587469 C15.1749862,11.7587469 15.169441,12.2112007 15.169441,12.2112007 C15.1833039,13.610716 16.1854873,14.7306093 17.7518248,14.7306093 Z" id="Fill-6-Copy" fill="#F9F9F9"></path>
                        </g>
                    </g>
                    <g id="P2P-Boy" transform="translate(0.000000, 79.000000)">
                        <polyline id="Fill-804" fill="#FBCFCE" points="22.3640989 27.3820537 21.2701171 26.8820842 21.2701171 23.4344991 14.249913 23.4344991 14.249913 26.8820842 13.1515436 27.3518931 13.4440521 37.1288478 14.249913 37.1288478 14.249913 38.6278862 21.2701171 38.6278862 21.2701171 37.1288478 22.0715904 37.1288478 22.3640989 27.3820537"></polyline>
                        <g id="Fill-805"></g>
                        <path d="M21.2701171,26.6500799 L14.249913,25.2664637 L14.249913,23.8973479 C15.4553406,24.7253135 16.7397454,25.228473 17.7655727,25.228763 L17.7658652,25.228763 L17.7664502,25.228763 C18.7887675,25.228763 20.0681996,24.7293736 21.2701171,23.906338 L21.2701171,26.6500799" id="Fill-806" fill="#FFBFBD"></path>
                        <path d="M33.5355836,32.7828257 C32.9739673,29.5324443 28.1721477,29.5315743 22.4623817,27.4046741 L22.2014642,28.3759025 C21.7501235,29.6580167 20.5926674,31.7547563 17.8448425,31.7547563 C14.7448374,31.7547563 13.5622255,29.0852559 13.1954199,27.928714 L13.0544308,27.4046741 C7.34466481,29.5315743 2.54196771,29.5324443 1.98181393,32.7828257 C1.40791225,36.1126686 0.433566426,39.731067 0.0769985617,43.5553693 L35.439814,43.5553693 C35.0829536,39.731067 34.1089003,36.1126686 33.5355836,32.7828257 Z" id="Fill-807" fill="#F1F1F1"></path>
                        <polyline id="Fill-808" fill="#F69A98" points="19.1078942 43.5553693 18.7726795 32.8611272 16.7219024 32.8611272 16.3945854 43.5553693 19.1078942 43.5553693"></polyline>
                        <polyline id="Fill-809" fill="#F69A98" points="19.4466191 31.2756673 18.7726795 32.5554614 16.7219024 32.5554614 16.0672684 31.2756673 17.75709 29.9062614 19.4466191 31.2756673"></polyline>
                        <polyline id="Fill-810" fill="#CFCFCF" points="14.2115944 26.65617 11.9077974 27.7935715 15.5992547 32.160184 17.75826 29.9065514 15.0782971 27.451075 14.2115944 26.65617"></polyline>
                        <polyline id="Fill-811" fill="#CFCFCF" points="21.3063881 26.65704 17.75826 29.9059714 19.9172653 32.161054 23.6081375 27.7921214 21.3063881 26.65704"></polyline>
                        <path d="M25.4266629,13.5012314 L25.6644723,10.4384836 C25.6644723,6.43350791 21.8033601,3.1883466 17.7664502,3.1883466 C13.7269078,3.1883466 9.86901319,6.43350791 9.86901319,10.4384836 L10.1062376,13.4983314 C9.88042102,13.5522724 9.67654259,13.6549343 9.50601014,13.7996471 C9.19039346,14.0664521 8.99119517,14.4608596 8.99119517,14.904568 L8.99119517,16.4125964 C8.99119517,17.2101115 9.638809,17.8568237 10.4449624,17.8617538 C10.4449624,21.6437153 15.0282782,25.228763 17.7664502,25.228763 C20.5052074,25.228763 25.0885231,21.6442953 25.0885231,17.8620438 C25.8911664,17.8565337 26.5408278,17.2104015 26.5408278,16.4131765 L26.5408278,14.905148 C26.5408278,14.2242151 26.065209,13.6566744 25.4266629,13.5012314" id="Fill-812" fill="#FBCFCE"></path>
                        <path d="M16.1326848,20.0951157 C15.9759565,19.9615266 15.7448826,20.1881972 15.9041944,20.3240847 C16.9806254,21.2373749 19.1142552,21.6312475 19.9360744,20.1994015 C19.9923359,20.035647 19.7870963,19.9098146 19.6671102,20.0344978 C18.9506377,21.2666784 17.0388962,20.8659109 16.1326848,20.0951157 Z" id="Path" fill="#EF5350"></path>
                        <path d="M26.8342138,3.59145422 C26.7789297,3.15702601 26.3319767,3.22256725 25.8911664,3.24982776 C24.5157914,3.33537938 24.1796992,2.87572069 21.3710325,1.23631972 C18.5723112,-0.397281142 15.7083604,0.254071164 13.7997424,1.66030773 C5.02039225,3.66946569 10.1626917,15.4851589 10.1626917,15.4851589 C10.1626917,15.4851589 10.1305158,9.26599143 12.8455797,7.3751557 C17.3923319,10.4489238 22.0382444,10.6162569 24.6833988,8.7880624 C25.703961,11.148127 25.3705013,15.4851589 25.3705013,15.4851589 C25.3705013,15.4851589 27.1267223,11.098246 26.168172,7.21565269 C26.755529,6.22963406 27.0141065,5.00813098 26.8342138,3.59145422" id="Fill-814" fill="#AAAAAA"></path>
                        <path d="M16.1356108,12.547398 C16.1356108,12.547398 16.2084932,12.8068069 15.8973356,12.8540382 C15.5860258,12.9011484 15.4048089,12.6838844 14.4574899,12.6907874 C13.5100189,12.6978115 12.8242549,13.0924958 12.3924381,13.0134136 C11.9601649,12.9343314 11.9569697,12.6881231 12.2586936,12.5400105 C13.0521835,12.1502916 15.7973696,11.9103807 16.1356108,12.547398" id="Fill-217" fill="#909090"></path>
                        <path d="M14.0953006,14.7639153 C14.4174546,14.7639153 14.6804855,14.5034682 14.6804855,14.1840709 C14.6804855,13.8646735 14.4174546,13.6038934 14.0953006,13.6038934 C13.7734824,13.6038934 13.5104515,13.8646735 13.5104515,14.1840709 C13.5104515,14.5034682 13.7734824,14.7639153 14.0953006,14.7639153" id="Fill-222" fill="#909090"></path>
                        <path d="M19.366279,12.5971679 C19.366279,12.5971679 19.3010676,12.8699088 19.6134439,12.9131466 C19.9256682,12.9563845 20.1000214,12.7252331 21.0465748,12.7138214 C21.9929763,12.702156 22.6896288,13.1016941 23.1187472,13.0102733 C23.5480176,12.9189793 23.5437614,12.6612005 23.2382254,12.5122138 C22.4337994,12.1199031 19.6848876,11.9234942 19.366279,12.5971679" id="Fill-225" fill="#909090"></path>
                        <path d="M21.9931981,14.1840652 C21.9931981,13.8648581 21.7302326,13.6038934 21.4081811,13.6038934 C21.0861296,13.6038934 20.8231641,13.8648581 20.8231641,14.1840652 C20.8231641,14.5029506 21.0861296,14.7639153 21.4081811,14.7639153 C21.7302326,14.7639153 21.9931981,14.5029506 21.9931981,14.1840652 Z" id="Fill-230" fill="#909090"></path>
                    </g>
                    <g id="Notes-+-Coins" transform="translate(31.000000, 45.000000)">
                        <g id="Money-fly-Copy-5">
                            <g id="Group">
                                <path d="M14.7867994,4.93092587 L10.0798761,0.272956977 C9.84641274,0.0419217201 9.50798496,-0.050771861 9.18744349,0.0274820165 C9.01846494,0.0684721428 8.86737271,0.154644567 8.74781685,0.272956977 C8.6409697,0.378692871 8.56048131,0.509581797 8.51435346,0.655842021 C8.30112984,1.34009765 7.93257775,1.93492028 7.38704534,2.47431308 C6.65841363,3.19490087 5.7094979,3.74081482 4.70551117,4.31793717 C3.63986375,4.92906269 2.5389144,5.56254646 1.63659721,6.4550133 C0.869839416,7.21472802 0.347841628,8.05968358 0.0418916169,9.04065183 C-0.0611900022,9.37183342 0.0287122318,9.73003123 0.27535501,9.97504039 L4.98227826,14.6330093 C5.21574165,14.8640445 5.55416943,14.9567381 5.8747109,14.8784842 C6.04368945,14.8365625 6.19478169,14.7513217 6.31433754,14.6330093 C6.42118469,14.5272734 6.50167308,14.3963845 6.54780093,14.2491926 C6.76149524,13.564937 7.13004733,12.9701144 7.67605043,12.4307216 C8.40421146,11.7101338 9.35265649,11.1651514 10.3575846,10.5884949 C11.4222906,9.97643778 12.5237107,9.34295401 13.4255572,8.45048717 C14.192315,7.69170404 14.7143128,6.84581689 15.0207335,5.86484864 C15.1233444,5.53413284 15.0329715,5.17453765 14.7867994,4.93092587 Z" id="Shape" fill="#FEBBBA"></path>
                                <path d="M7.07216706,11.231567 L7.07122567,11.231567 C6.77704297,11.4551495 6.48992065,11.6908427 6.22397949,11.9549495 C5.96839355,12.2078772 5.73728362,12.4743131 5.536298,12.7463384 L5.21434445,13.1813927 L5.21528583,13.1823243 C5.15644929,13.2731547 5.16633383,13.3951935 5.24635153,13.474379 C5.33813653,13.5652094 5.48828738,13.5652094 5.58054308,13.474379 C5.59466385,13.4599393 5.60596046,13.444568 5.61537431,13.4277993 L5.91614671,13.020227 C6.10254087,12.7682309 6.31811795,12.5199611 6.55675896,12.2842679 C6.82081735,12.0229559 7.06557736,11.8212658 7.3635256,11.5972175 L7.36258422,11.5962859 C7.37105668,11.5897648 7.37905845,11.584641 7.38658953,11.5771882 C7.47884522,11.4863579 7.47884522,11.3377686 7.38658953,11.2469382 C7.30139422,11.1612316 7.16489344,11.1575052 7.07216706,11.231567 Z" id="Shape" fill="#F5F5F5"></path>
                                <path d="M8.44551471,2.68380523 C8.19934262,2.927417 7.93246008,3.14680734 7.65569299,3.35595014 C7.6363946,3.36666347 7.61709622,3.37877419 7.60062199,3.39600867 C7.5078956,3.48777066 7.5078956,3.63729146 7.60062199,3.72905345 C7.69052422,3.81895225 7.83596815,3.82081544 7.92963592,3.73557461 L7.93151869,3.7365062 C8.22570139,3.51292369 8.51235302,3.27629887 8.77829418,3.01312363 C9.03388012,2.76019592 9.26451935,2.49469169 9.46597567,2.22266631 L9.78792922,1.78574883 L9.78698783,1.78481723 C9.86700553,1.69212365 9.86323999,1.55378197 9.77522053,1.46621216 C9.68249414,1.37445017 9.53234329,1.37445017 9.4396169,1.46621216 C9.42220128,1.48344664 9.40949259,1.50347591 9.39819597,1.52350518 L9.08565627,1.94738035 C8.89879142,2.20077385 8.68368503,2.448112 8.44551471,2.68380523 Z" id="Shape" fill="#F5F5F5"></path>
                                <path d="M6.12173352,5.40379054 L6.12173352,5.40959756 L6.10773582,5.40959756 L6.10773582,6.00423768 L6.72128879,6.00423768 C7.27864372,6.00423768 7.5599839,6.26687791 7.66144783,6.59307079 L6.12173352,6.59307079 L6.12173352,7.18771091 L7.66144783,7.18771091 C7.56031237,7.51413581 7.27932336,7.7777054 6.72128879,7.7777054 L6.52999125,7.7777054 L6.5276579,7.77538256 L6.52532515,7.7777054 L6.10773582,7.7777054 L6.10773582,8.37234582 L6.28386988,8.37234582 L8.10586499,10.1609116 L8.52578707,9.73815926 L7.09571924,8.33285756 C7.74352591,8.19761082 8.15945138,7.71755173 8.27383382,7.18771091 L9.08918291,7.18771091 L9.08918291,6.59307079 L8.27383382,6.59307079 C8.2275019,6.37915863 8.12705624,6.1768711 7.98688751,5.99843066 L9.08918291,5.99843066 L9.08918291,5.40379054 L6.12173352,5.40379054 Z" id="Path" fill="#FFFFFF" transform="translate(7.598459, 7.782351) rotate(-45.000000) translate(-7.598459, -7.782351) "></path>
                            </g>
                        </g>
                        <g id="Money-fly-Copy-4" transform="translate(50.383059, 24.000000) rotate(79.000000) translate(-50.383059, -24.000000) translate(41.383059, 15.000000)">
                            <g id="Group">
                                <path d="M17.6033326,5.91711105 L11.9998525,0.327548373 C11.7219199,0.0503060641 11.3190297,-0.0609262332 10.9374327,0.0329784198 C10.7362678,0.0821665713 10.5563961,0.185573481 10.4140677,0.327548373 C10.2868687,0.454431445 10.1910492,0.611498157 10.1361351,0.787010425 C9.88229743,1.60811718 9.44354494,2.32190434 8.7941016,2.96917569 C7.92668289,3.83388104 6.79702131,4.48897778 5.60179901,5.1815246 C4.33317113,5.91487522 3.02251714,6.67505575 1.94833002,7.74601595 C1.03552311,8.65767363 0.414097176,9.6716203 0.0498709725,10.8487822 C-0.0728452407,11.2462001 0.0341812283,11.6760375 0.327803583,11.9700485 L5.93128364,17.5596111 C6.20921625,17.8368535 6.61210647,17.9480857 6.99370346,17.8541811 C7.19486839,17.803875 7.3747401,17.701586 7.5170685,17.5596111 C7.64426749,17.4327281 7.740087,17.2756614 7.79500111,17.0990312 C8.0493991,16.2779244 8.48815159,15.5641373 9.13815528,14.9168659 C10.0050136,14.0521606 11.1341149,13.3981817 12.3304579,12.7061939 C13.5979651,11.9717253 14.9091794,11.2115448 15.9828062,10.1405846 C16.8956131,9.23004484 17.517039,8.21498026 17.8818256,7.03781836 C18.0039814,6.64095941 17.8963946,6.20944518 17.6033326,5.91711105 Z" id="Shape" fill="#FEBBBA"></path>
                                <path d="M8.41924649,13.4778803 L8.4181258,13.4778803 C8.0679083,13.7461794 7.72609601,14.0290112 7.40949939,14.3459394 C7.10523042,14.6494527 6.83009955,14.9691757 6.59083095,15.2956061 L6.20755292,15.8176713 L6.20867361,15.8187892 C6.13863011,15.9277857 6.15039742,16.0742322 6.24565658,16.1692548 C6.35492444,16.2782512 6.53367546,16.2782512 6.64350366,16.1692548 C6.66031411,16.1519271 6.67376246,16.1334816 6.68496942,16.1133591 L7.04303179,15.6242724 C7.2649296,15.3218771 7.52156899,15.0239534 7.80566543,14.7411215 C8.12002066,14.427547 8.41140162,14.185519 8.76610191,13.916661 L8.76498121,13.9155431 C8.77506748,13.9077177 8.78459339,13.9015692 8.79355896,13.8926259 C8.90338717,13.7836294 8.90338717,13.6053224 8.79355896,13.4963259 C8.69213597,13.3934779 8.52963505,13.3890063 8.41924649,13.4778803 Z" id="Shape" fill="#F5F5F5"></path>
                                <path d="M10.0541842,3.22056627 C9.76112217,3.5129004 9.44340485,3.7761688 9.11392022,4.02714017 C9.09094596,4.03999616 9.06797169,4.05452903 9.04835951,4.07521041 C8.93797095,4.18532479 8.93797095,4.36474975 9.04835951,4.47486414 C9.15538598,4.5827427 9.32853351,4.58497852 9.44004276,4.48268953 L9.44228416,4.48380744 C9.79250166,4.21550843 10.1337536,3.93155865 10.4503502,3.61574836 C10.7546192,3.3122351 11.0291897,2.99363003 11.2690187,2.66719957 L11.6522967,2.14289859 L11.651176,2.14178068 C11.7464352,2.03054838 11.7419524,1.86453837 11.6371673,1.75945459 C11.5267787,1.64934021 11.3480277,1.64934021 11.2376392,1.75945459 C11.2169063,1.78013597 11.2017769,1.80417109 11.1883285,1.82820621 L10.8162575,2.33685642 C10.5937993,2.64092862 10.3377203,2.9377344 10.0541842,3.22056627 Z" id="Shape" fill="#F5F5F5"></path>
                                <path d="M7.28777755,6.48454922 L7.28777755,6.49151764 L7.27111362,6.49151764 L7.27111362,7.20508578 L8.00153382,7.20508578 C8.6650516,7.20508578 8.99998039,7.52025406 9.12077077,7.91168551 L7.28777755,7.91168551 L7.28777755,8.62525366 L9.12077077,8.62525366 C9.00037142,9.01696354 8.66586069,9.33324705 8.00153382,9.33324705 L7.77379866,9.33324705 L7.77102086,9.33045964 L7.76824378,9.33324705 L7.27111362,9.33324705 L7.27111362,10.0468156 L7.48079702,10.0468156 L9.64983883,12.1930944 L10.1497461,11.6857917 L8.44728436,9.99942964 C9.21848278,9.83713356 9.71363215,9.26106264 9.84980173,8.62525366 L10.8204554,8.62525366 L10.8204554,7.91168551 L9.84980173,7.91168551 C9.79464467,7.65499093 9.6750665,7.41224589 9.50819898,7.19811736 L10.8204554,7.19811736 L10.8204554,6.48454922 L7.28777755,6.48454922 Z" id="Path" fill="#FFFFFF" transform="translate(9.045785, 9.338822) rotate(-45.000000) translate(-9.045785, -9.338822) "></path>
                            </g>
                        </g>
                        <path d="M29.478516,69 C33.080571,69 36,71.9094 36,75.5 C36,79.0924 33.080588,82 29.478516,82 C25.875288,82 23,79.096 23,75.5 C23,71.9057 25.875305,69 29.478516,69 Z M27.027344,71.779661 L27.027344,71.7894266 L27.003906,71.7894266 L27.003906,72.7894266 L28.03125,72.7894266 C28.964495,72.7894266 29.435576,73.2311059 29.605469,73.779661 L27.027344,73.779661 L27.027344,74.779661 L29.605469,74.779661 C29.436126,75.3286063 28.965633,75.7718485 28.03125,75.7718485 L27.710938,75.7718485 L27.707031,75.7679422 L27.703125,75.7718485 L27.003906,75.7718485 L27.003906,76.771849 L27.298828,76.771849 L30.349609,79.779661 L31.052734,79.068723 L28.658203,76.705442 C29.742902,76.477999 30.439335,75.6706887 30.630859,74.779661 L31.996094,74.779661 L31.996094,73.779661 L30.630859,73.779661 C30.55328,73.4199272 30.385092,73.0797424 30.150391,72.779661 L31.996094,72.779661 L31.996094,71.779661 L27.027344,71.779661 Z" id="Combined-Shape-Copy" fill="#FEBBBA" transform="translate(29.500000, 75.500000) rotate(-20.000000) translate(-29.500000, -75.500000) "></path>
                    </g>
                </g>
            </g>
        </g>
    </g>
</svg>