<?xml version="1.0" encoding="UTF-8"?>
<svg width="130px" height="370px" viewBox="0 0 130 370" version="1.1" xmlns="http://www.w3.org/2000/svg" xmlns:xlink="http://www.w3.org/1999/xlink">
    <!-- Generator: Sketch 41.1 (35376) - http://www.bohemiancoding.com/sketch -->
    <title>UPI</title>
    <desc>Created with Sketch.</desc>
    <defs></defs>
    <g id="Page-1" stroke="none" stroke-width="1" fill="none" fill-rule="evenodd">
        <g id="UPI" transform="translate(7.000000, 5.000000)">
            <g id="VPA-Fig" transform="translate(0.000000, 153.000000)">
                <rect id="Rectangle-3" fill="#FEBBBA" x="12.6350975" y="118.701031" width="58.4958217" height="83.2989691" rx="3.456"></rect>
                <polygon id="Rectangle-4-Copy" fill="#FFFFFF" points="24.1002786 139.389421 24.1002786 118.564678 28.7799443 118.564678 28.7799443 139.389421"></polygon>
                <polygon id="Rectangle-4-Copy-2" fill="#FFFFFF" points="24.1002786 167.155744 24.1002786 146.331001 28.7799443 146.331001 28.7799443 167.155744"></polygon>
                <polygon id="Rectangle-4-Copy-3" fill="#FFFFFF" points="24.1002786 194.922067 24.1002786 174.097324 28.7799443 174.097324 28.7799443 194.922067"></polygon>
                <rect id="Rectangle" fill="#F1F1F1" x="0" y="0" width="84" height="132.584192" rx="2.0736"></rect>
                <rect id="Rectangle-2" stroke="#CFCFCF" stroke-width="0.72" fill="#FFEBEB" x="7.72144847" y="6.71019473" width="68.5571031" height="43.9633448" rx="2.7648"></rect>
                <rect id="Rectangle-2-Copy" fill="#FFFFFF" x="7.48746518" y="56.6895762" width="21.2924791" height="12.0320733" rx="2.7648"></rect>
                <rect id="Rectangle-2-Copy-12" fill="#FFFFFF" x="7.48746518" y="74.2749141" width="21.2924791" height="12.0320733" rx="2.7648"></rect>
                <rect id="Rectangle-2-Copy-4" fill="#FFFFFF" x="7.48746518" y="91.39748" width="21.2924791" height="12.0320733" rx="2.7648"></rect>
                <rect id="Rectangle-2-Copy-5" fill="#F69A98" x="7.48746518" y="108.751432" width="21.2924791" height="12.0320733" rx="2.7648"></rect>
                <rect id="Rectangle-2-Copy-3" fill="#FFFFFF" x="54.9860724" y="56.6895762" width="21.2924791" height="12.0320733" rx="2.7648"></rect>
                <rect id="Rectangle-2-Copy-9" fill="#FFFFFF" x="54.9860724" y="74.2749141" width="21.2924791" height="12.0320733" rx="2.7648"></rect>
                <rect id="Rectangle-2-Copy-10" fill="#FFFFFF" x="54.9860724" y="91.39748" width="21.2924791" height="12.0320733" rx="2.7648"></rect>
                <rect id="Rectangle-2-Copy-11" fill="#F69A98" x="54.9860724" y="108.751432" width="21.2924791" height="12.0320733" rx="2.7648"></rect>
                <rect id="Rectangle-2-Copy-2" fill="#FFFFFF" x="32.5236769" y="56.6895762" width="19.1866295" height="12.0320733" rx="2.7648"></rect>
                <rect id="Rectangle-2-Copy-6" fill="#FFFFFF" x="32.5236769" y="74.2749141" width="19.1866295" height="12.0320733" rx="2.7648"></rect>
                <rect id="Rectangle-2-Copy-7" fill="#FFFFFF" x="32.5236769" y="91.39748" width="19.1866295" height="12.0320733" rx="2.7648"></rect>
                <rect id="Rectangle-2-Copy-8" fill="#FFFFFF" x="32.5236769" y="108.751432" width="19.1866295" height="12.0320733" rx="2.7648"></rect>
                <rect id="Rectangle-5" fill="#FFFFFF" x="44" y="144" width="20" height="46" rx="1.2672"></rect>
                <text id="VPA" transform="translate(54.500000, 171.360028) rotate(90.000000) translate(-54.500000, -171.360028) " font-family="Roboto-Bold, Roboto" font-size="17" font-weight="bold" letter-spacing="0.963333368" fill="#7E7E7E">
                    <tspan x="34.1399721" y="177.860028">V</tspan>
                    <tspan x="45.9192235" y="177.860028" letter-spacing="1.07695889">PA</tspan>
                </text>
                <text id="MPIN" font-family="Roboto-Bold, Roboto" font-size="13.824" font-weight="bold" letter-spacing="0.783360028" fill="#7E7E7E">
                    <tspan x="22.6963788" y="24.4123711">MPIN</tspan>
                </text>
                <text id="*-*-*-*" font-family="Roboto-Bold, Roboto" font-size="11.52" font-weight="bold" fill="#7E7E7E">
                    <tspan x="27.1420613" y="44.8568156">* * * *</tspan>
                </text>
            </g>
            <g id="Piggy" transform="translate(23.000000, 9.000000)" fill="#FEBBBA">
                <path d="M11.2858298,114.831133 C14.6108037,114.831133 17.3056612,117.740533 17.3056612,121.331133 C17.3056612,124.923533 14.6108194,127.831133 11.2858298,127.831133 C7.9597732,127.831133 5.3056612,124.927133 5.3056612,121.331133 C5.3056612,117.736833 7.95978889,114.831133 11.2858298,114.831133 Z M9.02320951,117.610794 L9.02320951,117.62056 L9.00157443,117.62056 L9.00157443,118.62056 L9.94989197,118.62056 C10.8113489,118.62056 11.2461929,119.062239 11.4030172,119.610794 L9.02320951,119.610794 L9.02320951,120.610794 L11.4030172,120.610794 C11.2467006,121.159739 10.8123994,121.602981 9.94989197,121.602981 L9.65421935,121.602981 L9.65061289,121.599075 L9.64700735,121.602981 L9.00157443,121.602981 L9.00157443,122.602982 L9.27381012,122.602982 L12.0899157,125.610794 L12.7389541,124.899856 L10.5286178,122.536575 C11.5298784,122.309132 12.1727397,121.501822 12.349531,120.610794 L13.609748,120.610794 L13.609748,119.610794 L12.349531,119.610794 C12.2779197,119.25106 12.1226692,118.910875 11.9060221,118.610794 L13.609748,118.610794 L13.609748,117.610794 L9.02320951,117.610794 Z" id="Combined-Shape-Copy" transform="translate(11.305661, 121.331133) rotate(-20.000000) translate(-11.305661, -121.331133) "></path>
                <path d="M39.2832844,51 C43.37556,51 46.6923077,54.5808 46.6923077,59 C46.6923077,63.4214154 43.3755793,67 39.2832844,67 C35.1896763,67 31.9230769,63.4258462 31.9230769,59 C31.9230769,54.5762462 35.1896956,51 39.2832844,51 Z M36.498521,54.4211213 L36.498521,54.4331405 L36.4718932,54.4331405 L36.4718932,55.6639097 L37.6390533,55.6639097 C38.6993079,55.6639097 39.2345005,56.207515 39.4275151,56.8826597 L36.498521,56.8826597 L36.498521,58.1134289 L39.4275151,58.1134289 C39.2351254,58.7890539 38.7006008,59.3345828 37.6390533,59.3345828 L37.2751485,59.3345828 L37.2707098,59.329775 L37.2662722,59.3345828 L36.4718932,59.3345828 L36.4718932,60.5653526 L36.8069525,60.5653526 L40.2729286,64.2672751 L41.0717451,63.3922745 L38.3513312,60.4836209 C39.583652,60.2036911 40.3748658,59.2100784 40.5924552,58.1134289 L42.1434914,58.1134289 L42.1434914,56.8826597 L40.5924552,56.8826597 C40.5043181,56.4399104 40.3132406,56.0212214 40.0465981,55.6518905 L42.1434914,55.6518905 L42.1434914,54.4211213 L36.498521,54.4211213 Z" id="Combined-Shape-Copy-2" transform="translate(39.307692, 59.000000) rotate(-20.000000) translate(-39.307692, -59.000000) "></path>
                <path d="M10.0525152,31 C14.1447907,31 17.4615385,34.5808 17.4615385,39 C17.4615385,43.4214154 14.14481,47 10.0525152,47 C5.95890708,47 2.69230769,43.4258462 2.69230769,39 C2.69230769,34.5762462 5.95892639,31 10.0525152,31 Z M7.26775176,34.4211213 L7.26775176,34.4331405 L7.24112398,34.4331405 L7.24112398,35.6639097 L8.40828402,35.6639097 C9.4685387,35.6639097 10.0037313,36.207515 10.1967458,36.8826597 L7.26775176,36.8826597 L7.26775176,38.1134289 L10.1967458,38.1134289 C10.0043562,38.7890539 9.46983157,39.3345828 8.40828402,39.3345828 L8.04437927,39.3345828 L8.03994054,39.329775 L8.03550296,39.3345828 L7.24112398,39.3345828 L7.24112398,40.5653526 L7.57618329,40.5653526 L11.0421593,44.2672751 L11.8409759,43.3922745 L9.12056199,40.4836209 C10.3528827,40.2036911 11.1440966,39.2100784 11.361686,38.1134289 L12.9127222,38.1134289 L12.9127222,36.8826597 L11.361686,36.8826597 C11.2735489,36.4399104 11.0824714,36.0212214 10.8158288,35.6518905 L12.9127222,35.6518905 L12.9127222,34.4211213 L7.26775176,34.4211213 Z" id="Combined-Shape-Copy-4" transform="translate(10.076923, 39.000000) rotate(-20.000000) translate(-10.076923, -39.000000) "></path>
                <path d="M36.9735582,3 C41.4068566,3 45,6.8046 45,11.5 C45,16.1977538 41.4068775,20 36.9735582,20 C32.538816,20 29,16.2024615 29,11.5 C29,6.79976154 32.5388369,3 36.9735582,3 Z M33.9567311,6.63494133 L33.9567311,6.64771173 L33.9278843,6.64771173 L33.9278843,7.95540404 L35.1923077,7.95540404 C36.3409169,7.95540404 36.9207089,8.53298466 37.129808,9.25032595 L33.9567311,9.25032595 L33.9567311,10.5580183 L37.129808,10.5580183 C36.9213858,11.2758698 36.3423175,11.8554942 35.1923077,11.8554942 L34.7980775,11.8554942 L34.7932689,11.850386 L34.7884615,11.8554942 L33.9278843,11.8554942 L33.9278843,13.1631872 L34.2908652,13.1631872 L38.0456726,17.0964798 L38.9110572,16.1667916 L35.9639422,13.0763473 C37.2989563,12.7789218 38.1561046,11.7232083 38.3918265,10.5580183 L40.0721157,10.5580183 L40.0721157,9.25032595 L38.3918265,9.25032595 C38.2963446,8.77990482 38.089344,8.33504778 37.8004812,7.94263364 L40.0721157,7.94263364 L40.0721157,6.63494133 L33.9567311,6.63494133 Z" id="Combined-Shape-Copy-3" transform="translate(37.000000, 11.500000) rotate(-20.000000) translate(-37.000000, -11.500000) "></path>
            </g>
            <g id="Note" transform="translate(37.000000, 96.000000)">
                <path d="M17.6033326,5.91711105 L11.9998525,0.327548373 C11.7219199,0.0503060641 11.3190297,-0.0609262332 10.9374327,0.0329784198 C10.7362678,0.0821665713 10.5563961,0.185573481 10.4140677,0.327548373 C10.2868687,0.454431445 10.1910492,0.611498157 10.1361351,0.787010425 C9.88229743,1.60811718 9.44354494,2.32190434 8.7941016,2.96917569 C7.92668289,3.83388104 6.79702131,4.48897778 5.60179901,5.1815246 C4.33317113,5.91487522 3.02251714,6.67505575 1.94833002,7.74601595 C1.03552311,8.65767363 0.414097176,9.6716203 0.0498709725,10.8487822 C-0.0728452407,11.2462001 0.0341812283,11.6760375 0.327803583,11.9700485 L5.93128364,17.5596111 C6.20921625,17.8368535 6.61210647,17.9480857 6.99370346,17.8541811 C7.19486839,17.803875 7.3747401,17.701586 7.5170685,17.5596111 C7.64426749,17.4327281 7.740087,17.2756614 7.79500111,17.0990312 C8.0493991,16.2779244 8.48815159,15.5641373 9.13815528,14.9168659 C10.0050136,14.0521606 11.1341149,13.3981817 12.3304579,12.7061939 C13.5979651,11.9717253 14.9091794,11.2115448 15.9828062,10.1405846 C16.8956131,9.23004484 17.517039,8.21498026 17.8818256,7.03781836 C18.0039814,6.64095941 17.8963946,6.20944518 17.6033326,5.91711105 Z" id="Shape" fill="#FEBBBA"></path>
                <path d="M8.41924649,13.4778803 L8.4181258,13.4778803 C8.0679083,13.7461794 7.72609601,14.0290112 7.40949939,14.3459394 C7.10523042,14.6494527 6.83009955,14.9691757 6.59083095,15.2956061 L6.20755292,15.8176713 L6.20867361,15.8187892 C6.13863011,15.9277857 6.15039742,16.0742322 6.24565658,16.1692548 C6.35492444,16.2782512 6.53367546,16.2782512 6.64350366,16.1692548 C6.66031411,16.1519271 6.67376246,16.1334816 6.68496942,16.1133591 L7.04303179,15.6242724 C7.2649296,15.3218771 7.52156899,15.0239534 7.80566543,14.7411215 C8.12002066,14.427547 8.41140162,14.185519 8.76610191,13.916661 L8.76498121,13.9155431 C8.77506748,13.9077177 8.78459339,13.9015692 8.79355896,13.8926259 C8.90338717,13.7836294 8.90338717,13.6053224 8.79355896,13.4963259 C8.69213597,13.3934779 8.52963505,13.3890063 8.41924649,13.4778803 Z" id="Shape" fill="#F5F5F5"></path>
                <path d="M10.0541842,3.22056627 C9.76112217,3.5129004 9.44340485,3.7761688 9.11392022,4.02714017 C9.09094596,4.03999616 9.06797169,4.05452903 9.04835951,4.07521041 C8.93797095,4.18532479 8.93797095,4.36474975 9.04835951,4.47486414 C9.15538598,4.5827427 9.32853351,4.58497852 9.44004276,4.48268953 L9.44228416,4.48380744 C9.79250166,4.21550843 10.1337536,3.93155865 10.4503502,3.61574836 C10.7546192,3.3122351 11.0291897,2.99363003 11.2690187,2.66719957 L11.6522967,2.14289859 L11.651176,2.14178068 C11.7464352,2.03054838 11.7419524,1.86453837 11.6371673,1.75945459 C11.5267787,1.64934021 11.3480277,1.64934021 11.2376392,1.75945459 C11.2169063,1.78013597 11.2017769,1.80417109 11.1883285,1.82820621 L10.8162575,2.33685642 C10.5937993,2.64092862 10.3377203,2.9377344 10.0541842,3.22056627 Z" id="Shape" fill="#F5F5F5"></path>
                <path d="M7.28777783,6.48454894 L7.28777783,6.49151736 L7.2711139,6.49151736 L7.2711139,7.2050855 L8.0015341,7.2050855 C8.66505188,7.2050855 8.99998067,7.52025378 9.12077105,7.91168523 L7.28777783,7.91168523 L7.28777783,8.62525338 L9.12077105,8.62525338 C9.0003717,9.01696326 8.66586097,9.33324677 8.0015341,9.33324677 L7.77379894,9.33324677 L7.77102114,9.33045936 L7.76824406,9.33324677 L7.2711139,9.33324677 L7.2711139,10.0468153 L7.4807973,10.0468153 L9.64983911,12.1930941 L10.1497464,11.6857914 L8.44728464,9.99942936 C9.21848306,9.83713328 9.71363243,9.26106236 9.84980201,8.62525338 L10.8204557,8.62525338 L10.8204557,7.91168523 L9.84980201,7.91168523 C9.79464495,7.65499065 9.67506678,7.41224561 9.50819926,7.19811708 L10.8204557,7.19811708 L10.8204557,6.48454894 L7.28777783,6.48454894 Z" id="Path" fill="#FFFFFF" transform="translate(9.045785, 9.338822) rotate(-45.000000) translate(-9.045785, -9.338822) "></path>
            </g>
            <g id="Note-Copy" transform="translate(23.820515, 80.820515) rotate(108.000000) translate(-23.820515, -80.820515) translate(16.820515, 73.820515)">
                <path d="M13.6914809,4.60219748 L9.33321864,0.254759845 C9.11704883,0.0391269387 8.80368978,-0.0473870702 8.50689212,0.0256498821 C8.3504305,0.0639073332 8.21053028,0.14433493 8.09983042,0.254759845 C8.00089787,0.35344668 7.92637158,0.475609677 7.88366061,0.612119219 C7.68623133,1.25075781 7.3449794,1.80592559 6.8398568,2.30935887 C6.1651978,2.98190747 5.28657213,3.49142717 4.35695479,4.03007469 C3.37024421,4.60045851 2.35084667,5.19171002 1.51536779,6.02467908 C0.805406867,6.73374615 0.322075581,7.52237134 0.0387885342,8.43794171 C-0.0566574095,8.74704452 0.0265853998,9.08136248 0.254958343,9.3100377 L4.61322061,13.6574753 C4.82939042,13.8731082 5.14274947,13.9596222 5.43954713,13.8865853 C5.59600875,13.8474584 5.73590897,13.7679002 5.84660883,13.6574753 C5.94554138,13.5587885 6.02006767,13.4366255 6.06277864,13.2992465 C6.26064374,12.6606079 6.60189568,12.1054401 7.1074541,11.6020068 C7.78167728,10.9294582 8.65986712,10.420808 9.59035612,9.88259523 C10.576195,9.31134193 11.5960284,8.72009041 12.4310715,7.88712136 C13.1410324,7.17892377 13.6243637,6.38942909 13.9080865,5.47385873 C14.0030967,5.16519066 13.919418,4.82956847 13.6914809,4.60219748 Z" id="Shape" fill="#FEBBBA"></path>
                <path d="M6.54830283,10.4827958 L6.54743118,10.4827958 C6.27503979,10.6914728 6.00918579,10.9114532 5.76294397,11.1579529 C5.52629033,11.3940187 5.31229965,11.6426922 5.12620185,11.8965825 L4.82809671,12.3026332 L4.82896837,12.3035027 C4.77449009,12.3882777 4.78364244,12.5021806 4.8577329,12.576087 C4.94271901,12.6608621 5.08174758,12.6608621 5.16716952,12.576087 C5.1802443,12.56261 5.19070413,12.5482634 5.19942066,12.5326127 L5.47791362,12.1522119 C5.6505008,11.9170155 5.85010921,11.6852971 6.07107311,11.4653167 C6.31557162,11.2214255 6.54220126,11.0331814 6.81807926,10.8240697 L6.81720761,10.8232002 C6.82505248,10.8171138 6.83246153,10.8123316 6.83943475,10.8053757 C6.92485669,10.7206007 6.92485669,10.5819174 6.83943475,10.4971424 C6.7605502,10.4171495 6.6341606,10.4136716 6.54830283,10.4827958 Z" id="Shape" fill="#F5F5F5"></path>
                <path d="M7.81992103,2.50488488 C7.59198391,2.73225587 7.34487044,2.93702018 7.08860462,3.13222013 C7.07073574,3.14221924 7.05286687,3.15352258 7.03761295,3.16960809 C6.95175518,3.25525262 6.95175518,3.39480536 7.03761295,3.48044989 C7.12085576,3.56435543 7.25552606,3.56609441 7.34225548,3.4865363 L7.34399879,3.48740579 C7.61639018,3.27872878 7.88180835,3.05787895 8.12805017,2.81224872 C8.36470381,2.57618286 8.57825866,2.32837891 8.76479229,2.07448855 L9.06289743,1.6666989 L9.06202577,1.66582942 C9.13611623,1.57931541 9.13262962,1.45019651 9.05113012,1.36846468 C8.96527235,1.28282016 8.82624378,1.28282016 8.74038602,1.36846468 C8.72426045,1.3845502 8.71249314,1.40324418 8.70203331,1.42193816 L8.4126447,1.81755499 C8.23962168,2.0540556 8.0404491,2.28490454 7.81992103,2.50488488 Z" id="Shape" fill="#F5F5F5"></path>
                <path d="M5.66827165,5.04353806 L5.66827165,5.04895794 L5.65531081,5.04895794 L5.65531081,5.60395539 L6.22341541,5.60395539 C6.73948479,5.60395539 6.99998496,5.84908628 7.09393304,6.15353296 L5.66827165,6.15353296 L5.66827165,6.7085304 L7.09393304,6.7085304 C7.0002891,7.01319365 6.74011409,7.25919194 6.22341541,7.25919194 L6.04628806,7.25919194 L6.04412756,7.25702395 L6.0419676,7.25919194 L5.65531081,7.25919194 L5.65531081,7.81418966 L5.8183979,7.81418966 L7.50543042,9.48351764 L7.89424716,9.08894887 L6.57011028,7.77733395 C7.16993127,7.65110366 7.55504744,7.2030485 7.66095712,6.7085304 L8.41590997,6.7085304 L8.41590997,6.15353296 L7.66095712,6.15353296 C7.61805718,5.95388162 7.52505194,5.76507992 7.39526609,5.59853551 L8.41590997,5.59853551 L8.41590997,5.04353806 L5.66827165,5.04353806 Z" id="Path" fill="#FFFFFF" transform="translate(7.035610, 7.263528) rotate(-45.000000) translate(-7.035610, -7.263528) "></path>
            </g>
            <g id="Note-Copy-2" transform="translate(23.820515, 8.820515) rotate(108.000000) translate(-23.820515, -8.820515) translate(16.820515, 1.820515)">
                <path d="M13.6914809,4.60219748 L9.33321864,0.254759845 C9.11704883,0.0391269387 8.80368978,-0.0473870702 8.50689212,0.0256498821 C8.3504305,0.0639073332 8.21053028,0.14433493 8.09983042,0.254759845 C8.00089787,0.35344668 7.92637158,0.475609677 7.88366061,0.612119219 C7.68623133,1.25075781 7.3449794,1.80592559 6.8398568,2.30935887 C6.1651978,2.98190747 5.28657213,3.49142717 4.35695479,4.03007469 C3.37024421,4.60045851 2.35084667,5.19171002 1.51536779,6.02467908 C0.805406867,6.73374615 0.322075581,7.52237134 0.0387885342,8.43794171 C-0.0566574095,8.74704452 0.0265853998,9.08136248 0.254958343,9.3100377 L4.61322061,13.6574753 C4.82939042,13.8731082 5.14274947,13.9596222 5.43954713,13.8865853 C5.59600875,13.8474584 5.73590897,13.7679002 5.84660883,13.6574753 C5.94554138,13.5587885 6.02006767,13.4366255 6.06277864,13.2992465 C6.26064374,12.6606079 6.60189568,12.1054401 7.1074541,11.6020068 C7.78167728,10.9294582 8.65986712,10.420808 9.59035612,9.88259523 C10.576195,9.31134193 11.5960284,8.72009041 12.4310715,7.88712136 C13.1410324,7.17892377 13.6243637,6.38942909 13.9080865,5.47385873 C14.0030967,5.16519066 13.919418,4.82956847 13.6914809,4.60219748 Z" id="Shape" fill="#FEBBBA"></path>
                <path d="M6.54830283,10.4827958 L6.54743118,10.4827958 C6.27503979,10.6914728 6.00918579,10.9114532 5.76294397,11.1579529 C5.52629033,11.3940187 5.31229965,11.6426922 5.12620185,11.8965825 L4.82809671,12.3026332 L4.82896837,12.3035027 C4.77449009,12.3882777 4.78364244,12.5021806 4.8577329,12.576087 C4.94271901,12.6608621 5.08174758,12.6608621 5.16716952,12.576087 C5.1802443,12.56261 5.19070413,12.5482634 5.19942066,12.5326127 L5.47791362,12.1522119 C5.6505008,11.9170155 5.85010921,11.6852971 6.07107311,11.4653167 C6.31557162,11.2214255 6.54220126,11.0331814 6.81807926,10.8240697 L6.81720761,10.8232002 C6.82505248,10.8171138 6.83246153,10.8123316 6.83943475,10.8053757 C6.92485669,10.7206007 6.92485669,10.5819174 6.83943475,10.4971424 C6.7605502,10.4171495 6.6341606,10.4136716 6.54830283,10.4827958 Z" id="Shape" fill="#F5F5F5"></path>
                <path d="M7.81992103,2.50488488 C7.59198391,2.73225587 7.34487044,2.93702018 7.08860462,3.13222013 C7.07073574,3.14221924 7.05286687,3.15352258 7.03761295,3.16960809 C6.95175518,3.25525262 6.95175518,3.39480536 7.03761295,3.48044989 C7.12085576,3.56435543 7.25552606,3.56609441 7.34225548,3.4865363 L7.34399879,3.48740579 C7.61639018,3.27872878 7.88180835,3.05787895 8.12805017,2.81224872 C8.36470381,2.57618286 8.57825866,2.32837891 8.76479229,2.07448855 L9.06289743,1.6666989 L9.06202577,1.66582942 C9.13611623,1.57931541 9.13262962,1.45019651 9.05113012,1.36846468 C8.96527235,1.28282016 8.82624378,1.28282016 8.74038602,1.36846468 C8.72426045,1.3845502 8.71249314,1.40324418 8.70203331,1.42193816 L8.4126447,1.81755499 C8.23962168,2.0540556 8.0404491,2.28490454 7.81992103,2.50488488 Z" id="Shape" fill="#F5F5F5"></path>
                <path d="M5.66827165,5.04353806 L5.66827165,5.04895794 L5.65531081,5.04895794 L5.65531081,5.60395539 L6.22341541,5.60395539 C6.73948479,5.60395539 6.99998496,5.84908628 7.09393304,6.15353296 L5.66827165,6.15353296 L5.66827165,6.7085304 L7.09393304,6.7085304 C7.0002891,7.01319365 6.74011409,7.25919194 6.22341541,7.25919194 L6.04628806,7.25919194 L6.04412756,7.25702395 L6.0419676,7.25919194 L5.65531081,7.25919194 L5.65531081,7.81418966 L5.8183979,7.81418966 L7.50543042,9.48351764 L7.89424716,9.08894887 L6.57011028,7.77733395 C7.16993127,7.65110366 7.55504744,7.2030485 7.66095712,6.7085304 L8.41590997,6.7085304 L8.41590997,6.15353296 L7.66095712,6.15353296 C7.61805718,5.95388162 7.52505194,5.76507992 7.39526609,5.59853551 L8.41590997,5.59853551 L8.41590997,5.04353806 L5.66827165,5.04353806 Z" id="Path" fill="#FFFFFF" transform="translate(7.035610, 7.263528) rotate(-45.000000) translate(-7.035610, -7.263528) "></path>
            </g>
            <circle id="Oval-3" fill="#FFFFFF" cx="80" cy="157" r="2"></circle>
            <g id="Tag" transform="translate(93.990870, 191.946501) rotate(-19.000000) translate(-93.990870, -191.946501) translate(83.990870, 152.946501)">
                <g id="Group-3" transform="translate(0.000000, 0.000000)">
                    <path d="M8.13252041,43.0435394 C8.11235051,43.0435394 8.09182881,43.0406827 8.07177618,43.0334787 C7.9655324,42.9979558 7.90701624,42.8780968 7.94055456,42.7656902 C7.96025539,42.7002336 8.43401351,41.1647968 9.62509301,41.0515207 C10.7612916,40.9447034 11.6641292,41.9331362 11.9176601,42.6355221 C11.9576481,42.745693 11.9053471,42.8689056 11.8015659,42.910763 C11.6984884,42.9532415 11.5813388,42.8979698 11.541468,42.7876747 C11.3605253,42.2857575 10.6202196,41.3835238 9.66097667,41.4765543 C8.73386487,41.5644923 8.32835607,42.8816988 8.32448626,42.8949888 C8.29716309,42.9855352 8.21800795,43.0435394 8.13252041,43.0435394" id="Fill-353" fill="#FEBBBA" transform="translate(9.931103, 42.043539) rotate(-3.000000) translate(-9.931103, -42.043539) "></path>
                    <path d="M10.1426282,50.3733196 C8.87509227,50.3733196 7.84778627,49.357566 7.84778627,48.1045491 C7.84778627,46.8517469 8.87509227,45.8359933 10.1426282,45.8359933 C11.4100554,45.8359933 12.4375787,46.8517469 12.4375787,48.1045491 C12.4375787,49.357566 11.4100554,50.3733196 10.1426282,50.3733196 Z M3.68662655,77.4122141 L16.5985211,77.4122141 C18.2798043,77.4122141 19.6425195,76.0647859 19.6425195,74.4028682 L19.6425195,49.4205069 C19.6425195,48.3910051 19.1102327,47.4330368 18.2315628,46.8808544 L11.8673723,42.8818549 C10.8807022,42.2617909 9.62164114,42.255239 8.62845191,42.8650993 L2.08063925,46.884721 C1.18632347,47.4334664 0.642519503,48.400457 0.642519503,49.4411291 L0.642519503,74.4028682 C0.642519503,76.0647859 2.00534331,77.4122141 3.68662655,77.4122141 L3.68662655,77.4122141 Z" id="Fill-354" fill="#F69A98"></path>
                    <path d="M0.642519503,71 L0.642519503,75.0254697 C0.642519503,76.3435543 2.00534331,77.4122141 3.68662655,77.4122141 L16.5985211,77.4122141 C18.2798043,77.4122141 19.6425195,76.3435543 19.6425195,75.0254697 L19.6425195,71 L0.642519503,71" id="Fill-355" fill="#F27674"></path>
                    <path d="M10.1426722,49.7127924 C11.1353829,49.7127924 11.943112,48.9051486 11.943112,47.9123159 C11.943112,46.9192796 11.1353829,46.111534 10.1426722,46.111534 C9.1495543,46.111534 8.34192699,46.9192796 8.34192699,47.9123159 C8.34192699,48.9051486 9.1495543,49.7127924 10.1426722,49.7127924 Z M10.1426722,50.4122141 C8.76421844,50.4122141 7.6425195,49.2907977 7.6425195,47.9123159 C7.6425195,46.5338341 8.76421844,45.4122141 10.1426722,45.4122141 C11.5210242,45.4122141 12.6425195,46.5338341 12.6425195,47.9123159 C12.6425195,49.2907977 11.5210242,50.4122141 10.1426722,50.4122141 L10.1426722,50.4122141 Z" id="Fill-358" fill="#AAAAAA"></path>
                    <path d="M9.37781818,46.6746179 C9.37418182,46.609219 6.23624585,26.7121139 5.52297312,22.8935401 C4.81806403,19.11796 4.1247913,14.1809424 5.03260948,9.47706011 C5.33188221,7.92645833 5.79297312,6.51553586 6.40315494,5.28324949 C7.45697312,3.15556226 9.1767913,1.45498689 11.0038822,0.733175911 C12.230064,0.24873901 12.454,-0.0723318208 13.1845455,0.470641205 C13.5618182,0.750807212 14.0221818,1.3159836 14.0709091,2.41646275 C14.1823636,4.91151464 13.22,7.22126941 12.2892727,9.45492721 C11.7587273,10.7277852 11.2578182,11.9308035 10.9407273,13.1647046 C9.81818182,17.5357384 9.30636364,21.726925 9.41981818,25.6222014 C9.49090909,28.0659837 10.7065455,38.0857536 10.7065455,38.0857536 C10.9601818,40.8700546 11.2225455,43.7494265 11.1172727,46.5799509 C11.1098182,46.7708998 10.9607273,46.9228919 10.7923636,46.9115883 C10.62,46.9039181 10.4858182,46.7424391 10.4930909,46.5510865 C10.5967273,43.770015 10.3365455,40.9156724 10.0852727,38.1555932 C10.0852727,38.1555932 8.868,28.1267401 8.79563636,25.6448084 C8.68018182,21.6772702 9.19981818,17.414831 10.3401818,12.9743613 C10.6707273,11.6887869 11.2052727,10.4052309 11.7225455,9.16386138 C12.6214545,7.00630053 13.5509091,4.77526676 13.4472727,2.45077703 C13.4183636,1.79799831 13.2130909,1.32607603 12.8372727,1.04651557 C12.1689091,0.550573293 12.0171549,1.06864846 11.2133368,1.38676203 C9.52606403,2.05266092 7.9327913,3.63454924 6.95042767,5.61730911 C6.36951858,6.7904538 5.92951858,8.13779393 5.64333676,9.62218933 C4.75988221,14.1995125 5.44170039,19.0440833 6.13442767,22.7528515 C6.84188221,26.5411481 9.98654545,46.362358 10.0010909,46.633239 C10.0116364,46.823986 9.88036364,46.9882908 9.70836364,46.9999981 C9.52545455,47.0006036 9.388,46.8589058 9.37781818,46.6746179 Z" id="Fill-359" fill="#FEBBBA"></path>
                    <text id="UPI" transform="translate(9.901551, 60.368366) rotate(90.000000) translate(-9.901551, -60.368366) " font-family="Roboto-Bold, Roboto" font-size="10" font-weight="bold" letter-spacing="0.138888881" fill="#FFFFFF">
                        <tspan x="1.53403817" y="63.8683656">UPI</tspan>
                    </text>
                </g>
            </g>
            <path d="M80.3835937,154.482422 C79.619456,153.663703 79.9054623,153 81.0192791,153 L81.9807209,153 C83.095938,153 84,153.902151 84,155.018738 L84,158.981262 C84,160.09618 83.2040158,161.045558 83.2040158,161.045558 L83.2040158,161.045558 C82.5,161.045558 81.9811023,156 81.7999992,156 L80.3835937,154.482422 Z" id="Rectangle-Copy" fill="#F1F1F1"></path>
        </g>
    </g>
</svg>