<svg width="58" height="58" viewBox="0 0 58 58" xmlns="http://www.w3.org/2000/svg"><title>Clock Fast</title><g fill="none" fill-rule="evenodd"><path d="M28.8 7.402C16.21 7.402 6 17.614 6 30.202 6 42.787 16.212 53 28.8 53c12.586 0 22.798-10.212 22.798-22.8 0-12.586-10.212-22.798-22.8-22.798z" fill="#E5E5E5"/><path d="M36.36 37.762c-.33.443-.773.662-1.27.662-.33 0-.662-.11-.938-.33l-7.342-5.52c-.386-.277-.662-.774-.662-1.272v-12.86c0-.883.72-1.6 1.602-1.6.882 0 1.6.717 1.6 1.6v12.09l6.68 5.022c.72.497.828 1.547.33 2.208z" fill="#F69A98"/><path d="M28.08 9.392c0-.386.33-.72.72-.72.384 0 .718.33.718.72v3.478c0 .386-.33.72-.72.72-.384 0-.718-.332-.718-.72V9.392zM7.27 30.202c0-.386.332-.72.72-.72h3.478c.386 0 .72.33.72.72 0 .384-.332.718-.72.718H7.99c-.388 0-.72-.334-.72-.72zm6.9 9.328l-2.98 1.71c-.11.055-.222.11-.385.11-.276 0-.498-.11-.662-.385-.22-.33-.11-.828.276-.995l2.98-1.71c.33-.222.828-.11.996.275.273.33.106.774-.225.995zm.277-17.61c-.11.222-.385.386-.66.386-.11 0-.277-.055-.387-.11l-2.98-1.71c-.332-.22-.498-.66-.277-.995.22-.33.662-.496.995-.275l2.982 1.71c.382.168.55.61.327.996zm6.348 23.682l-1.71 2.982c-.11.22-.386.385-.662.385-.11 0-.276-.056-.385-.11-.33-.222-.498-.662-.276-.995l1.71-2.982c.222-.33.662-.497.996-.276.382.167.494.607.327.995zM20.52 15.85c-.11.053-.222.108-.386.108-.276 0-.497-.11-.662-.385L17.76 12.59c-.222-.33-.11-.827.275-.993.33-.22.828-.11.995.276l1.71 2.98c.222.335.11.774-.22.996zm8.998 35.16c0 .386-.33.72-.72.72-.384 0-.718-.332-.718-.72v-3.478c0-.386.33-.72.72-.72.384 0 .718.332.718.72v3.478zm10.045-2.15c-.11.054-.22.11-.385.11-.276 0-.497-.11-.662-.386l-1.71-2.982c-.222-.33-.11-.828.276-.995.33-.22.828-.11.994.276l1.712 2.982c.273.33.16.773-.225.995zm.276-36.27l-1.71 2.983c-.11.22-.387.385-.663.385-.11 0-.276-.055-.385-.11-.33-.22-.498-.66-.276-.994l1.71-2.98c.222-.332.662-.498.996-.277.436.166.55.61.327.994zm7.618 28.375c-.11.22-.386.385-.662.385-.108 0-.276-.055-.384-.11l-2.982-1.71c-.33-.22-.498-.66-.276-.995.222-.33.66-.497.994-.276l2.982 1.71c.383.167.546.664.328.995zm2.87-10.764c0 .386-.33.72-.72.72H46.13c-.386 0-.72-.33-.72-.72 0-.384.332-.718.72-.718h3.478c.39 0 .72.334.72.72zm-2.87-10.763c.22.33.11.828-.276.995l-2.98 1.71c-.11.055-.223.11-.387.11-.276 0-.497-.11-.66-.386-.223-.33-.11-.828.275-.995l2.982-1.71c.382-.22.825-.108 1.046.277z" fill="#AAA"/></g></svg>