<svg width="370" height="195" viewBox="0 0 370 195" xmlns="http://www.w3.org/2000/svg"><title>Food Truck</title><g fill="none" fill-rule="evenodd"><g transform="translate(3 -3)"><path d="M52.738 135.384c-12.046 0-21.843 9.81-21.843 21.868 0 12.055 9.802 21.867 21.843 21.867 12.042 0 21.843-9.813 21.843-21.868.006-12.06-9.796-21.868-21.842-21.868zm0 34.134c-6.766 0-12.248-5.493-12.248-12.262 0-6.774 5.482-12.262 12.248-12.262 6.766 0 12.25 5.488 12.25 12.262 0 6.765-5.484 12.262-12.25 12.262z" fill="#9E9E9E"/><ellipse fill="#9E9E9E" cx="52.738" cy="157.252" rx="3.449" ry="3.453"/><path d="M266.184 135.384c-12.046 0-21.843 9.81-21.843 21.868 0 12.055 9.798 21.867 21.844 21.867 12.042 0 21.843-9.813 21.843-21.868.004-12.06-9.8-21.868-21.843-21.868zm0 34.134c-6.77 0-12.253-5.493-12.253-12.262 0-6.774 5.484-12.262 12.254-12.262 6.762 0 12.25 5.488 12.25 12.262 0 6.765-5.488 12.262-12.25 12.262z" fill="#9E9E9E"/><ellipse fill="#9E9E9E" cx="266.184" cy="157.252" rx="3.449" ry="3.453"/><path d="M51.52 16.804h306.542c-.282-4.983-4.013-7.943-10.108-7.943H62.16c-7.347 0-10.585 5.87-10.718 6.12-.248.46-.28 1.01-.09 1.496.04.116.098.224.17.328zM76.5 148.51c0 .09-.014.185-.026.273l8.19 12.44c.332.502.895.804 1.495.804h46.708V37.523h-56.37V148.51zm7.928-104.87h40.46c1.053 0 1.906.855 1.906 1.908l.012 29.296H82.524V45.548c0-1.053.853-1.907 1.904-1.907zm-1.904 41.655c0-.99.8-1.79 1.788-1.79.99 0 1.793.8 1.793 1.79v7.76c0 .99-.803 1.795-1.793 1.795-.985 0-1.788-.8-1.788-1.795v-7.76zM359.677 148.202h-1.59v-8.245c.69-.216 1.192-.85 1.192-1.613v-1.985c0-.764-.502-1.394-1.193-1.614v-27.36H136.442v54.645h100.97c.99 0 1.794-.8 1.794-1.79v-2.988c0-15.384 12.1-27.9 26.982-27.9 14.878 0 26.982 12.52 26.982 27.94l.058 2.953c.017.974.812 1.762 1.79 1.762h59.5v1.023c0 .937.76 1.688 1.69 1.688h3.477c.94 0 1.69-.755 1.69-1.688v-13.136c-.005-.933-.758-1.692-1.698-1.692z" fill="#E5E5E5"/><g transform="translate(177.513 52.145)"><ellipse fill="#EF5350" cx="46.89" cy="8.105" rx="8.042" ry="8.05"/><path fill="#B1B1B1" d="M40.646 18.655H52.67v9.6H40.647zM54.73 30.35v15.905h4.31s3.637-4.778 4.502-5.93c.87-1.154 1.164-2.58 1.122-3.5-.04-.92-.927-10.61-.927-10.61 0-4.176-3.437-7.56-7.68-7.56h-1.322V30.35h-.005zM34.28 46.255h4.306V18.656H37.27c-4.245 0-7.682 3.384-7.682 7.558 0 0-.878 9.69-.924 10.61-.05.924.253 2.35 1.118 3.498.862 1.157 4.497 5.935 4.497 5.935z"/><path fill="#F69A98" d="M.288 46.183v5.48h111.725v-5.408"/><path d="M112.013 46.287c-.118-.128-16.546-21.736-16.67-21.856-1.458-1.408-3.325-2.245-5.4-2.245-4.514 0-7.11 3.507-7.95 7.69l-3.99 16.384 34.01.027zm-15.992 0c.15-2.945-.015-5.634-.015-5.634l5.655 5.6-5.64.034z" fill="#B1B1B1"/><path d="M158.21 76.747h-38.474c-.493 0-.9-.402-.9-.895 0-.498.407-.896.9-.896h38.473c.492 0 .893.398.893.896 0 .493-.4.895-.894.895zM158.21 83.318h-38.474c-.493 0-.9-.402-.9-.896 0-.493.407-.9.9-.9h38.473c.492 0 .893.407.893.9 0 .494-.4.896-.894.896zM158.21 89.888h-38.474c-.493 0-.9-.406-.9-.9 0-.493.407-.895.9-.895h38.473c.492 0 .893.402.893.896 0 .492-.4.898-.894.898z" fill="#C1C1C1"/><ellipse fill="#EF5350" cx="97.268" cy="13.475" rx="8.042" ry="8.05"/></g><path d="M359.283 30.757v-1.985c0-.763-.5-1.397-1.192-1.61V18.6H54.168L36.895 86.15c-.538.264-1.35.666-2.348 1.16V84.4c0-.498-.4-.896-.894-.896-.493 0-.895.402-.895.895v3.8c-6.27 3.11-16.68 8.27-19.39 9.63-5.446 2.728-6.146 7.18-6.146 10.758v1.89c.066-.016 3.006-.024 3.006-.024.493 0 .894.402.894.9 0 .493-.4.895-.894.895H7.42c-.07 0-.198 2.204-.198 2.204.066-.012 3.006-.025 3.006-.025.493 0 .894.405.894.9 0 .492-.4.894-.894.894H7.42c-.07 0-.198 2.21-.198 2.21.066-.017 3.006-.03 3.006-.03.493 0 .894.407.894.9 0 .494-.4.9-.894.9H7.42c-.07 0-.198 2.205-.198 2.205.066-.013 3.006-.026 3.006-.026.493 0 .894.402.894.896 0 .493-.4.9-.894.9H7.42c-.07 0-.198 2.205-.198 2.205.066-.013 3.006-.025 3.006-.025.493 0 .894.402.894.895 0 .498-.4.9-.894.9H7.42c-.07 0-.198 2.21-.198 2.21.066-.017 3.006-.026 3.006-.026.493 0 .894.402.894.895s-.4.895-.894.895H7.42c-.07 0-.198 2.21-.198 2.21.066-.017 3.006-.025 3.006-.025.493 0 .894.402.894.895 0 .498-.4.896-.894.896H7.42c-.07 0-.198 2.72-.198 2.72-.162-.05-5.483-.088-5.483-.088-.937 0-1.694.76-1.694 1.69v13.138c0 .933.757 1.692 1.693 1.692h4.968c.936 0 1.69-.763 1.69-1.692v-.95h17.98c.658 0 1.262-.355 1.573-.94l2.49-4.64c.418-.79.67-1.267.94-1.748 4.385-7.72 12.56-12.54 21.358-12.54 8.083 0 15.615 3.988 20.183 10.645V35.733c0-.988.804-1.792 1.79-1.792h59.947c.986 0 1.79.8 1.79 1.792v68.077h37.91V39.56H293.09v64.247h64.997V86.16c.69-.214 1.192-.85 1.192-1.607v-1.986c0-.763-.502-1.397-1.193-1.612V32.37c.695-.216 1.196-.85 1.196-1.613zM18.067 135.36c-1.595 0-2.882-3.168-2.882-7.068 0-3.9 1.292-7.068 2.882-7.068s2.882 3.167 2.882 7.068c0 3.9-1.29 7.068-2.883 7.068zm2.468-18.095h-4.54c-.446 0-.81-.365-.81-.81v-1.82c0-.442.364-.807.81-.807h4.544c.446 0 .81.365.81.808v1.82c-.004.444-.364.81-.815.81zm47.41-40.323c0 2.04-1.658 3.702-3.7 3.702H48.98c-2.037 0-3.697-1.663-3.697-3.702 0-.444.08-.875.228-1.285L56.125 32.12c.688-2.677 3.077-4.534 5.823-4.534 3.312 0 6.004 2.695 6.004 6.01l-.008 43.346z" fill="#E5E5E5"/><path fill="#F69A98" d="M293.09 33H174.353L159.4 24.71h149.5"/><path d="M337.788 74.173h-9.466l.207-2.086h9.258c.605 0 1.11.47 1.11 1.04 0 .573-.5 1.046-1.11 1.046z" fill="#FBCFCE"/><path d="M336.115 77.686h-8.273l.265-2.59h10.783c0 1.425-1.24 2.59-2.775 2.59z" fill="#F27674"/><path d="M315.846 80.01l-2.212-21.743c.95.252 2.928.393 7.26.393 4.397 0 6.397-.145 7.358-.398L326.04 80.01c-.252 2.213-9.917 2.242-10.194 0z" fill="#FBCFCE"/><path d="M313.622 57.205c0-.63-.087-1.555 7.193-1.56l1.16-4.542c.024-.12.11-.228.227-.29l3.242-1.613c.17 0 .327.087.406.245.058.103.07.228.033.348-.037.12-.12.22-.236.273l-2.86 1.592-1.02 4c6.435.08 6.538.946 6.538 1.55 0 0 .597.573-7.412.573-8.008-.007-7.27-.575-7.27-.575zM329.25 66.244c.347-.02.695-.037 1.05-.037 4.718 0 8.548 2.218 8.548 4.954h-10.1l.502-4.916z" fill="#F27674"/></g><g transform="rotate(-15 370.975 -128.89)"><path fill="#FBCFCE" d="M1.024 13.82H12.77L7.41 30.904"/><ellipse fill="#EF5350" cx="8.776" cy="3.714" rx="1.776" ry="1.389"/><path d="M13.898.355c-.615-.258-2.05-.516-2.835-.13-.785.39-.922 1.454-1.536 2.326" stroke="#F69A98" stroke-width=".72"/><path d="M13.898 10.56c.546 2.84-3.04 5.65-6.76 5.65-3.723 0-7.855-2.518-6.797-5.65.992-3.036 3.04-5.652 6.762-5.652 3.722 0 6.18 2.55 6.796 5.65z" fill="#F69A98"/><path d="M7.137 6.337V6.27c0-.065.068-.163.17-.163l1.776-.198c.102 0 .205.032.205.13v.067c0 .065-.068.164-.17.164L7.34 6.47c-.067 0-.17-.065-.203-.13zM10.04 12.142c-.103.032-.274 0-.308-.065l-.82-1.162c-.068-.097-.034-.194.103-.26.102-.03.273 0 .307.066l.82 1.163c.068.097.034.194-.103.26zM7.58 8.88c.07.097.035.194-.068.26l-1.4.74c-.102.066-.273.034-.34-.03-.07-.098-.035-.195.067-.26l1.4-.742c.136-.065.272-.065.34.032zM9.527 9.268c-.103-.033-.17-.162-.103-.26l.82-1.16c.068-.098.205-.13.307-.066.104.033.172.162.104.26l-.82 1.16c-.068.066-.205.098-.307.066zM6.215 7.62c-.07.065-.24.098-.342.033L4.54 6.78c-.1-.063-.1-.192-.033-.257.07-.065.24-.097.342-.032l1.296.84c.137.097.137.194.07.29zM3.094 9.752H2.93c-.1 0-.164-.065-.164-.16V8.2c0-.097.065-.16.164-.16h.164c.098 0 .164.063.164.16v1.39c0 .095-.066.16-.164.16zM3.415 12.56c-.103-.03-.17-.16-.103-.257l.717-1.195c.068-.097.204-.13.307-.097.102.034.17.163.102.26l-.684 1.195c-.068.096-.205.13-.34.096z" fill="#FFEBEB"/></g><path d="M196.06 92.355h7.83c.385 0 .724-.306.724-.707v-15.7c0-.377-.34-.707-.725-.707h-7.83c-.41 0-.724.33-.724.708v15.7c0 .377.314.707.724.707z" stroke="#9E9E9E" stroke-width=".749" fill="#FFF"/><path fill="#9E9E9E" fill-rule="nonzero" d="M204.807 78.87h-9.482v-.752h9.482M204.614 90.13h-9.278v-.753h9.278"/><path d="M198.907 77.02h2.273c.134 0 .24-.094.24-.21 0-.12-.106-.213-.24-.213h-2.273c-.134 0-.24.094-.24.212 0 .093.106.21.24.21z" fill="#9E9E9E"/><path d="M199.975 92.026c-.597 0-1.1-.44-1.1-1.008 0-.57.503-1.008 1.1-1.008.596 0 1.1.438 1.1 1.008 0 .57-.504 1.008-1.1 1.008zm0-.752c.204 0 .35-.127.35-.256 0-.13-.146-.256-.35-.256s-.35.127-.35.256c0 .13.146.256.35.256z" fill="#9E9E9E" fill-rule="nonzero"/><path d="M201.153 80.206h-3.37l-.426.752h2.083c.524 0 .534.353.718.74h-2.543l-.258.766h2.8c-.183.388-.626.742-1.142.742h-1.23c1.03 1.293 1.956 2.49 3.037 3.783h1.198l-2.524-3.062c1.013 0 1.436-.624 1.657-1.464l1.337-.005.285-.752-1.622-.01c-.036-.225-.196-.546-.343-.74h1.68l.285-.752h-1.622z" fill="#EF5350"/><g transform="translate(138.362 62)"><path d="M.595 74.637c.136 2.355 2.073 4.173 4.382 4.173.087 0 .173-.003.26-.008 2.422-.145 4.27-2.24 4.128-4.685-.215-3.684-.313-7.038-.31-10.092-.02-13.412 1.92-20.947 3.823-24.88v82.968c0 3.782 3.04 6.846 6.79 6.846s6.79-3.065 6.79-6.848V72.114h2.545v49.998c0 3.783 3.04 6.847 6.79 6.847 3.748 0 6.79-3.065 6.79-6.848V39.41c.538.324 1.097.637 1.698.922 1.88.89 4.09 1.56 6.557 1.563h.073c2.54 0 5.29-.805 7.745-2.515 2.49-1.722 4.695-4.26 6.673-7.683 1.223-2.113.514-4.827-1.582-6.06-2.096-1.23-4.787-.516-6.008 1.598-1.5 2.598-2.918 4.06-4.044 4.83-1.14.77-1.966.955-2.857.97-.85 0-1.807-.24-2.818-.722-1.513-.707-3.055-1.952-4.135-3.02-.543-.53-.977-1.016-1.262-1.348-.142-.168-.248-.298-.31-.377l-.063-.08c-.78-1.043-1.93-1.633-3.125-1.738-.256-.05-.518-.077-.787-.077H17.122c-.466 0-.913.08-1.333.22-.933.133-2.103.438-3.38 1.088-2.954 1.478-6.138 4.71-8.366 10.436C1.79 43.163.274 51.476.266 64.026c0 3.244.105 6.772.33 10.61z" fill="#B1B1B1"/><ellipse fill="#EF5350" cx="26.246" cy="10.833" rx="10.737" ry="10.833"/></g></g></svg>