<svg width="58" height="58" viewBox="0 0 58 58" xmlns="http://www.w3.org/2000/svg"><title>Megaphone Popular</title><g fill="none" fill-rule="evenodd"><path d="M40.2 12.353c-2.06 0-3.733 1.583-3.733 3.53v1.116L7.492 25.63c-.21-1.513-1.568-1.17-3.225-1.17C2.464 24.462 1 24.325 1 26.03v7.94c0 1.705 1.464 1.568 3.267 1.568 1.657 0 3.015.343 3.225-1.17l1.99.592c-.295.31-.53.673-.674 1.087-.54 1.574.376 3.27 2.04 3.78l10.656 3.262c.315.096.642.145.972.145 1.382 0 2.598-.833 3.024-2.076.157-.46.178-.936.1-1.4L36.466 43v1.118c0 1.946 1.674 3.53 3.733 3.53 2.06 0 3.733-1.584 3.733-3.53V15.882c0-1.946-1.674-3.53-3.733-3.53zM23.724 40.616c-.213.623-.983.998-1.646.797l-10.654-3.265c-.685-.21-1.065-.907-.84-1.555.172-.505.686-.855 1.25-.855.13 0 .264.02.395.058l10.654 3.265c.33.102.597.32.758.616.16.295.19.628.082.94z" fill="#E5E5E5"/><path d="M42.067 44.118c0 .973-.837 1.764-1.867 1.764s-1.867-.79-1.867-1.764V15.882c0-.973.837-1.764 1.867-1.764s1.867.79 1.867 1.764v28.236z" fill="#CFCFCF"/><path d="M8 35.192c0 .956 0 1.73-3.5 1.73S1 36.15 1 35.193V24.808c0-.956 0-1.73 3.5-1.73s3.5.774 3.5 1.73v10.384zM47.667 30.882h.933c.516 0 .933-.394.933-.882s-.417-.882-.933-.882h-.933c-.516 0-.934.394-.934.882s.418.882.934.882M52.333 29.118H51.4c-.516 0-.933.394-.933.882s.417.882.933.882h.933c.516 0 .934-.394.934-.882s-.418-.882-.934-.882M56.067 29.118h-.934c-.516 0-.933.394-.933.882s.417.882.933.882h.934c.516 0 .933-.394.933-.882s-.417-.882-.933-.882M52.946 15.623c.24 0 .478-.085.66-.26l.66-.622c.366-.344.366-.9 0-1.246-.363-.344-.955-.344-1.32 0l-.66.624c-.364.344-.364.9 0 1.246.185.174.42.26.66.26M50.306 18.12c.24 0 .48-.087.66-.258l.66-.623c.366-.345.366-.905 0-1.25-.363-.345-.955-.345-1.32 0l-.66.623c-.364.344-.364.904 0 1.25.182.17.42.258.66.258M47.667 20.614c.24 0 .478-.086.66-.256l.658-.626c.368-.342.368-.902 0-1.246-.365-.346-.954-.346-1.318 0l-.66.622c-.364.345-.364.905 0 1.25.18.17.42.256.66.256M51.207 24.794c.1 0 .2-.014.298-.046l.884-.28c.488-.154.75-.653.588-1.116-.163-.46-.69-.712-1.18-.557l-.885.28c-.49.153-.752.655-.59 1.116.132.37.494.604.884.604M48.256 23.912l-.884.28c-.49.152-.752.652-.59 1.115.13.37.494.6.885.6.096 0 .198-.012.295-.043l.886-.28c.487-.153.753-.652.59-1.115-.165-.462-.692-.713-1.182-.558M53.865 23.074c.13.37.496.603.886.603.097 0 .197-.016.296-.044l.883-.278c.49-.155.755-.654.59-1.117-.16-.463-.692-.71-1.18-.56l-.883.278c-.49.155-.756.654-.592 1.118M48.326 39.642c-.364-.344-.954-.344-1.32 0-.363.345-.363.905 0 1.25l.66.622c.18.172.42.26.66.26.24 0 .478-.088.66-.26.367-.344.367-.904 0-1.246l-.66-.626M50.965 42.138c-.364-.345-.953-.345-1.318 0-.365.345-.365.905 0 1.25l.66.622c.18.17.42.26.658.26.24 0 .48-.09.66-.26.367-.345.367-.905 0-1.25l-.66-.622M53.605 44.636c-.36-.348-.954-.348-1.318 0-.365.345-.365.902 0 1.246l.66.624c.182.173.422.26.658.26.24 0 .48-.087.662-.26.365-.345.365-.902 0-1.247l-.662-.624M48.848 34.415l-.886-.28c-.488-.153-1.016.097-1.18.558-.162.463.1.963.59 1.116l.884.278c.1.033.198.047.295.047.39 0 .756-.235.887-.604.164-.462-.102-.96-.59-1.115M50.913 36.926l.886.28c.096.03.195.043.294.043.39 0 .755-.233.884-.602.163-.463-.1-.962-.59-1.117l-.883-.278c-.49-.156-1.018.097-1.18.557-.164.46.098.962.588 1.116M55.93 36.645l-.884-.278c-.488-.152-1.02.096-1.18.56-.165.463.1.962.59 1.117l.884.278c.1.03.2.044.295.044.39 0 .756-.234.886-.604.165-.463-.1-.962-.59-1.117" fill="#F69A98"/></g></svg>