<svg width="58" height="58" viewBox="0 0 58 58" xmlns="http://www.w3.org/2000/svg" xmlns:xlink="http://www.w3.org/1999/xlink"><title>Money Price</title><defs><path d="M9.4 3.462h38.182c0 3.186 2.63 5.77 5.876 5.77v11.537c-3.245 0-5.876 2.582-5.876 5.768H9.402c0-3.186-2.632-5.77-5.877-5.77V9.232C6.77 9.23 9.4 6.65 9.4 3.463z" id="a"/><mask id="b" x="0" y="0" width="49.933" height="23.077" fill="#fff"><use xlink:href="#a"/></mask></defs><g transform="translate(1 14)" fill="none" fill-rule="evenodd"><path d="M55.968 3.71c.048-2.253-.73-3.445-3.482-3.41l-49 .004C.595.304-.052 1.572.002 3.712L.03 26.344c-.13 3.014 1.238 3.488 3.484 3.407l49-.002c2.297.207 3.553-.385 3.483-3.407l-.03-22.63z" fill="#E5E5E5" opacity=".99"/><use stroke="#C1C1C1" mask="url(#b)" stroke-width="2.335" fill="#E5E5E5" xlink:href="#a"/><path d="M28.803 23.754c-3.7 0-7.04-2.19-8.46-5.54-1.413-3.355-.63-7.216 1.992-9.783 2.62-2.564 6.555-3.33 9.977-1.936 3.417 1.39 5.645 4.665 5.645 8.294 0 2.382-.965 4.66-2.68 6.342-1.717 1.682-4.045 2.628-6.474 2.624z" fill="#F69A98"/><path d="M31.246 9.677H23.57l-.974 1.316h4.747c1.194 0 1.216.62 1.636 1.297h-5.796l-.588 1.338h6.383c-.42.68-1.43 1.298-2.604 1.298H23.57c2.352 2.263 4.46 4.36 6.92 6.62h2.73l-5.75-5.357c2.308 0 3.272-1.09 3.776-2.562l3.046-.01.65-1.312-3.696-.016c-.083-.396-.448-.957-.782-1.297h3.828l.65-1.316h-3.696z" fill="#F9F9F9"/></g></svg>