<svg width="58" height="58" viewBox="0 0 58 58" xmlns="http://www.w3.org/2000/svg"><title>Payment Instant Copy</title><g transform="translate(1 11)" fill="none" fill-rule="evenodd"><path fill="#E5E5E5" d="M12.11 27.34h10.902v-9.886h-10.9V10.04l-6.056 6.178L0 22.398l6.056 6.177 6.055 6.178V27.34M43.72 17.454h-10.9V7.57h10.9V.154l6.055 6.18 6.056 6.177-6.055 6.178-6.056 6.178v-7.414"/><ellipse fill="#CFCFCF" cx="28" cy="17.658" rx="10.769" ry="11.036"/><path d="M33.09 15.042c-.107-.216-.29-.348-.487-.348H29.2l1.086-12.782c.032-.37-.146-.714-.42-.812-.274-.1-.562.077-.68.414L22.82 19.676c-.083.234-.068.506.04.723.107.216.29.348.486.348h3.403L25.666 33.53c-.032.368.148.713.42.812.053.02.104.027.155.027.222 0 .43-.168.526-.442l6.363-18.162c.082-.235.067-.507-.04-.724z" fill="#F69A98"/></g></svg>