<svg width="48" height="48" viewBox="0 0 48 48" xmlns="http://www.w3.org/2000/svg"><title>Pocket</title><g transform="translate(3 1)" fill="none" fill-rule="evenodd"><path d="M3.735.55C2.13.55.825 1.865.825 3.478V37.56c.962 1.497 10.356 8.07 20.603 8.062 10.036-.007 18.785-6.565 19.97-8.063V3.476c0-1.613-1.304-2.926-2.908-2.926H3.735z" fill="#ECECEC"/><path d="M1.378 8.355h39.454" stroke="#CFCFCF" stroke-width="1.091" stroke-linecap="square"/><rect fill="#F69A98" x="27.702" y="3.038" width="8.936" height="2.604" rx="1.302"/><path d="M26.34 16.08c.21.25.305.6.282 1.055l-.512 3.972h3.23c.365.125.63.312.795.562.176.238.26.482.247.732-.012.26-.112.505-.3.733-.19.238-.465.397-.83.477H25.81l-.477 3.835h3.248c.354.125.62.306.796.545.164.25.24.5.23.75-.013.26-.107.51-.283.75-.2.227-.477.386-.83.477h-3.478l-.582 4.618c-.118.363-.306.625-.565.784-.235.17-.47.238-.706.204-.247-.022-.47-.142-.67-.358-.19-.215-.3-.528-.336-.937l.53-4.31H17.9l-.6 4.618c-.128.363-.317.625-.564.784-.235.17-.476.238-.723.204-.236-.022-.454-.142-.654-.358-.2-.215-.318-.528-.354-.937l.548-4.31h-2.72c-.41-.07-.717-.228-.917-.478-.2-.26-.3-.54-.3-.835.024-.296.14-.563.353-.8.224-.25.536-.388.936-.41h2.965l.478-3.835h-2.63c-.424-.057-.736-.216-.936-.477-.2-.25-.288-.523-.265-.818 0-.296.112-.568.336-.818.212-.24.53-.37.953-.393h2.842l.547-4.26c.094-.444.27-.763.53-.956.26-.192.518-.27.777-.237.258.045.494.193.706.443.212.26.306.613.282 1.056l-.512 3.955h4.784l.565-4.278c.094-.456.27-.78.53-.973.258-.193.517-.267.776-.22.26.033.495.18.706.442zm-7.68 7.532l-.44 3.835h4.783l.44-3.835H18.66z" fill="#F69A98"/></g></svg>