<svg width="48" height="48" viewBox="0 0 48 48" xmlns="http://www.w3.org/2000/svg"><title>QR Code Copy</title><g fill="none" fill-rule="evenodd"><path d="M17.37 2.025H2.784v15.108H17.37V2.025zM16.044 15.76H4.11V3.397h11.934v12.36z" fill="#CFCFCF"/><path fill="#F69A98" d="M6.762 13.012h6.63V6.145h-6.63"/><path d="M2.784 45.975H17.37V30.867H2.784v15.108zM4.11 32.24h11.934v12.362H4.11v-12.36z" fill="#CFCFCF"/><path fill="#F69A98" d="M6.762 41.855h6.63v-6.867h-6.63"/><path d="M30.63 2.025v15.108h14.586V2.025H30.63zM43.89 15.76H31.956V3.397H43.89v12.36z" fill="#CFCFCF"/><path fill="#F69A98" d="M34.608 13.012h6.63V6.145h-6.63"/><path fill="#ECECEC" d="M25.326 4.89h4.033V2.026h-4.034"/><path fill="#ECECEC" d="M24 6.227h1.43V4.772H24M18.696 6.202h1.456V2.025h-1.456"/><path fill="#ECECEC" d="M21.348 9.012h2.768V6.145h-2.768"/><path fill="#ECECEC" d="M27.978 14.386v-4.12h1.326v-4.12h-1.326v1.372h-2.652v2.747h-6.63v10.988H17.37V24h-2.652v1.373h2.652v2.747h-2.652v1.374h3.978V28.12h3.978v-1.373h-3.978V24h2.652v-9.614h1.326V11.64h2.652v2.746h1.326v1.373h-1.326v1.373h1.326v1.373h2.652v-4.12"/><path fill="#ECECEC" d="M24 15.84h1.456v-1.454H24M18.696 32.323h4.033v-1.456h-4.034"/><path fill="#ECECEC" d="M22.674 35.108h2.768V32.24h-2.768M18.696 37.854h2.768v-2.866h-2.768"/><path fill="#ECECEC" d="M21.348 40.6h4.033v-2.865H21.35"/><path fill="#ECECEC" d="M18.696 45.975h2.768v-5.493h-2.768M37.26 37.735V32.24h2.652v-2.746h-3.978v5.494h-2.652v2.747M31.956 43.31h1.456v-1.455h-1.456M38.586 39.108H37.26v4.12h-2.652v2.747h6.63v-5.493h1.326v-1.374h-1.326v-1.373h-2.652M42.564 46.095h2.768v-2.867h-2.768M22.674 21.373h2.768v-2.867h-2.768M24 25.493h2.768v-2.866H24"/><path fill="#ECECEC" d="M41.238 22.627h2.652v4.12h-5.304v-4.12h1.326v-1.374h-1.326v-2.747h-9.282v2.747h-1.326v5.494h-2.652v1.373h-2.652v2.747h5.304v6.868h2.652v1.373h-2.652v2.747h-5.304v1.373h6.63v2.747h2.652v-2.747H30.63v-1.373h1.326v-8.24H30.63v1.373h-1.326V28.12h2.652v-2.747h-2.652V24h2.652v1.373h2.652v-4.12h1.326v1.374h1.326v4.12h-2.652v1.373h9.282v2.747h-2.652v2.747h2.652v1.374h-2.652v2.747h3.978v-19.23h-3.978M2.784 21.373h5.304v-2.867H2.784M9.414 22.627h-6.63v2.746h5.304v4.12h2.652v-8.24H9.414"/><path fill="#ECECEC" d="M10.74 21.373h6.63v-2.867h-6.63"/></g></svg>