<svg width="582" height="221" viewBox="0 0 582 221" xmlns="http://www.w3.org/2000/svg" xmlns:xlink="http://www.w3.org/1999/xlink"><title>Shop+Students</title><defs><path id="a" d="M18.79 162.743V43.88h53.714v118.863z"/><mask id="b" x="-1.65" y="-1.65" width="57.015" height="122.165"><path fill="#fff" d="M17.14 42.23h57.014v122.164H17.14z"/><use xlink:href="#a"/></mask></defs><g fill="none" fill-rule="evenodd"><path d="M537.13 61.608c.09-.143.185-.3.288-.473 1.335-2.222 4.11-6.847 12.944-5.592 3.452.49 6.36 2.245 8.412 5.074 2.922 4.03 4.01 10.11 2.91 16.264-1.677 9.388-1.617 11.202-1.475 15.586.166 5.15 2.02 6.725 2.91 7.483.347.293.596.504.625.8.035.346-.414.737-1.336 1.162-1.17.54-2.898 1.002-4.873 1.002-2.853 0-6.224-.96-9.19-4.034" fill="#9E9E9E"/><g transform="translate(507.75 60.664)"><path d="M35.63 7.985s.566-3.18 4.762-2.897v-.01c-.14-1.51-4.484-3.79-5.904-3.75-.564.017-1.436.755-2.103 1.41 2.638 2.246 3.246 5.247 3.246 5.247z" fill="#EF5350"/><path d="M32.51 15.898c.247 5.372 5.636 10.792 14.115 12.866l.37.09-.163-.344c-1.28-2.69-1.543-5.05-1.438-8.627.018-.61.022-.865.01-1.1-.008-.192 0-.41.04-1.2.013-.246.02-.36.026-.51.092-1.906.094-3.433-.053-4.98-.36-3.78-1.55-6.205-3.908-6.688-.64-.132-1.245-.2-1.798-.2-1.56 0-2.67.524-3.397 1.398-.44.53-.668 1.095-.724 1.438-.008.053-.054.092-.11.093-.055 0-.102-.038-.113-.09-.062-.303-.193-.756-.417-1.31-.356-.882-.848-1.756-1.496-2.567C31.627 1.88 28.912.502 25.15.47h-.157C17.11.47 11.52 5.125 7.897 11.904c-.685 1.283-1.163 2.3-2.162 4.527-.556 1.24-.793 1.76-1.093 2.38-1.368 2.84-2.49 4.258-4.025 4.78l-.27.092.198.206c1.985 2.075 3.966 2.885 7.643 2.885.138 0 .277-.002.42-.004l.523-.01c4.235-.053 6.865-.337 10.23-1.46 4.808-1.6 9.156-4.62 12.948-9.466.17-.023.2.017.203.064zM4.97 18.97c.3-.625.54-1.147 1.096-2.39.996-2.22 1.47-3.23 2.15-4.504C11.784 5.402 17.27.834 24.994.834h.157c3.647.03 6.26 1.357 8.02 3.56.626.78 1.1 1.624 1.444 2.476.215.532.34.964.398 1.245.045.222.24.38.467.38.236-.003.43-.168.47-.394.01-.06.052-.214.123-.393.12-.297.29-.595.52-.87.658-.792 1.668-1.267 3.12-1.267.527 0 1.107.064 1.723.19 2.15.442 3.274 2.732 3.62 6.37.145 1.524.143 3.036.052 4.924l-.026.51c-.042.81-.05 1.026-.04 1.236.01.222.007.474-.01 1.073-.103 3.477.14 5.83 1.312 8.446-8.122-2.104-13.236-7.32-13.47-12.438-.01-.2-.142-.37-.33-.432-.05-.016-.098-.023-.147-.023-.147 0-.287.068-.376.185-3.745 4.785-8.034 7.764-12.775 9.344-3.32 1.107-5.92 1.388-10.12 1.442l-.523.007c-.14.003-.278.004-.413.004-3.462 0-5.34-.72-7.19-2.576 1.516-.63 2.637-2.104 3.97-4.864z" fill="#9E9E9E" fill-rule="nonzero"/><path d="M4.97 18.97c.3-.625.54-1.147 1.096-2.39.996-2.22 1.47-3.23 2.15-4.504C11.784 5.402 17.27.834 24.994.834h.157c3.647.03 6.26 1.357 8.02 3.56.626.78 1.1 1.624 1.444 2.476.215.532.34.964.398 1.245.045.222.24.38.467.38.236-.003.43-.168.47-.394.01-.06.052-.214.123-.393.12-.297.29-.595.52-.87.658-.792 1.668-1.267 3.12-1.267.527 0 1.107.064 1.723.19 2.15.442 3.274 2.732 3.62 6.37.145 1.524.143 3.036.052 4.924l-.026.51c-.042.81-.05 1.026-.04 1.236.01.222.007.474-.01 1.073-.103 3.477.14 5.83 1.312 8.446-8.122-2.104-13.236-7.32-13.47-12.438-.01-.2-.142-.37-.33-.432-.05-.016-.098-.023-.147-.023-.147 0-.287.068-.376.185-3.745 4.785-8.034 7.764-12.775 9.344-3.32 1.107-5.92 1.388-10.12 1.442l-.523.007c-.14.003-.278.004-.413.004-3.462 0-5.34-.72-7.19-2.576 1.516-.63 2.637-2.104 3.97-4.864z" fill="#9E9E9E"/><path d="M8.622 27.314l.52-.008c4.287-.055 6.964-.344 10.395-1.488 4.63-1.544 8.844-4.376 12.547-8.833.78 4.722 5.262 9.36 12.158 11.658-.434 8.807-9.093 15.97-19.517 15.97C14.16 44.612 5.93 37.28 5.93 27.95c0-.24.007-.49.022-.76.8.1 1.678.14 2.67.124z" fill="#FFF"/><path d="M34.895 37.972c-4.172 0-7.567-3.008-7.567-6.705 0-3.696 3.395-6.704 7.567-6.704 4.17 0 7.566 3.008 7.566 6.704 0 3.697-3.393 6.705-7.565 6.705zm-.052-12.49c-3.603 0-6.533 2.61-6.533 5.818 0 3.208 2.93 5.818 6.533 5.818 3.602 0 6.533-2.61 6.533-5.818 0-3.208-2.93-5.82-6.533-5.82z" fill="#9E9E9E"/><ellipse fill="#9E9E9E" cx="34.843" cy="32" rx="1.452" ry="1.455"/><path d="M15.25 37.972c-4.172 0-7.567-3.008-7.567-6.705 0-1.725.743-3.367 2.093-4.62.053-.05.123-.08.195-.08 2.265-.045 5.29-.226 8.617-1.236.07-.02.146-.015.213.017 2.477 1.17 4.016 3.437 4.016 5.92 0 3.697-3.394 6.705-7.566 6.705zm-4.83-10.818c-.983 1.09-1.71 2.723-1.71 4.176 0 3.212 2.93 5.824 6.534 5.824 3.602 0 6.533-2.612 6.533-5.824 0-2.113-.726-3.812-3.35-5.23 0 0-7.238.2-8.008 1.054z" fill="#9E9E9E"/><path d="M8.622 27.314l.52-.008c4.287-.055 6.964-.344 10.395-1.488 4.63-1.544 8.844-4.376 12.547-8.833.78 4.722 5.262 9.36 12.158 11.658-.434 8.807-9.093 15.97-19.517 15.97C14.16 44.612 5.93 37.28 5.93 27.95c0-.24.007-.49.022-.76.8.1 1.678.14 2.67.124zm16.103 18.752c11.294 0 20.724-7.913 20.98-17.708l.007-.22.015-.55-.734-.23c-7.053-2.253-11.365-7.017-11.57-11.502l-.038-.796-.09-1.958-1.697 2.17c-3.68 4.703-7.88 7.62-12.52 9.166-3.253 1.084-5.806 1.36-9.954 1.414l-.525.007c-1.11.018-2.048-.04-2.88-.174l-.317-.052-.775-.127-.09 1.104c-.04.505-.06.93-.06 1.34 0 10.173 8.917 18.116 20.247 18.116z" fill="#9E9E9E" fill-rule="nonzero"/><ellipse fill="#9E9E9E" cx="15.97" cy="32" rx="1.452" ry="1.455"/><path d="M27.624 32.224c-.08 0-.16-.033-.22-.096-.586-.647-1.477-1.028-2.444-1.045-.876-.025-1.717.274-2.19.757-.113.117-.3.12-.416.007-.118-.114-.006-.693-.006-.693s.155-1.09 2.622-1.09c2.468 0 2.872 1.308 2.872 1.308s.1.667-.02.776c-.057.05-.127.076-.198.076z" fill="#9E9E9E"/><path d="M25.058 40.487c-.11 0-.217-.005-.317-.012-1.372-.106-2.494-.874-2.955-1.545-.093-.134-.058-.318.076-.41.136-.09.32-.058.412.076.385.558 1.336 1.2 2.514 1.29.802.06 1.996-.122 3.154-1.35.113-.118.3-.123.418-.012.12.112.124.298.013.417-1.176 1.246-2.402 1.547-3.312 1.547z" stroke="#F27674" stroke-width=".72" fill="#F27674"/></g><path d="M479.5 81.4c-.388-.51-1.05-.897-2.088-1.375.064-1.277.127-2.55.196-3.822.04-.724.076-1.45.108-2.174 0 0 0-.008.007-.015.065-1.436.127-2.88.16-4.323.064-2.784-1.006-5.182-2.953-7.165-2.71-2.76-6.075-4.26-9.814-4.973-3.213-.608-6.57-.36-9.675-1.67-1.088-.46-2.257-.72-3.397-1.057-.387-.115-.79-.198-1.335-.336.426 1.252.782 2.29 1.234 3.625-2.457 0-4.535-1.042-6.832-1.4-.286-.043-.565-.076-.858-.094.115.185.228.363.344.54.694 1.08 1.36 2.112 2.207 3.44l-5.35.196c-.407.02-.806.034-1.207.053-.007.093-.007.19-.007.285.248.14.502.274.755.412.79.427 1.603.867 2.49 1.342-2.77 3.077-2.87 6.708-2.515 10.466.217 2.245.304 4.495.46 6.796-1.37.203-2.418.75-2.552 2.246l-.02.267c-.19 2.76.414 5.32 2.05 7.617.648.904 1.374 1.56 2.696 1.03.67 1.642 1.222 3.173 1.914 4.635 1.705 3.61 4.06 6.676 7.983 8.048 3.945 1.378 7.972 1.392 11.895-.05 4.122-1.52 6.456-4.833 8.16-8.674.464-1.048.822-2.148 1.3-3.19.126-.274.564-.636.788-.592.96.184 1.513-.325 2.016-.973 1.323-1.704 1.996-3.656 2.224-5.798.187-1.697.162-2.62-.385-3.318zM470 97.356c-2.524 3.892-6.157 5.672-10.55 5.85-4.835-.224-8.468-2.19-10.96-6.276-1.496-2.44-2.68-4.965-3.532-7.59-.102-.31-.182-.626-.277-.937.732.865 1.696 1.402 2.893 1.573 1.024.147 2.03.22 2.987.22.946 0 1.88-.073 2.775-.216 2.13-.343 3.61-1.547 4.27-3.48.347-1.01.576-2.07.795-3.095.062-.286.122-.572.187-.858.147-.657.37-.78.816-.793.443.014.67.134.817.793.064.286.124.572.186.858.22 1.024.448 2.084.794 3.096.662 1.933 2.14 3.137 4.27 3.48.896.145 1.83.217 2.776.217.957 0 1.963-.074 2.987-.22 1.14-.165 2.073-.647 2.79-1.438-.894 3.072-2.21 6.02-4.022 8.817zm-19.15-12.732c1.6 0 2.893-1.294 2.893-2.89 0-.398-.08-.778-.226-1.122.653.12 1.315.28 1.984.526.727.262 1.07.824.997 1.626-.023.238-.04.478-.053.708-.023.34-.046.687-.088 1.024-.272 2.112-1.414 3.313-3.492 3.675-.523.09-1.05.126-1.566.16-.207.013-.406.026-.595.043-.237-.012-.466-.02-.683-.03-.475-.02-.922-.037-1.353-.08-1.64-.17-2.655-.82-3.1-1.99-.32-.842-.524-1.84-.586-2.887-.09-1.63.29-2.14 1.945-2.6.42-.115.86-.188 1.306-.26-.17.37-.27.775-.27 1.206-.002 1.595 1.295 2.89 2.89 2.89zm16.8 0c1.597 0 2.89-1.294 2.89-2.89 0-.462-.117-.89-.308-1.276.574.073 1.125.18 1.658.328 1.656.46 2.037.97 1.945 2.596-.063 1.047-.263 2.045-.586 2.887-.45 1.172-1.46 1.822-3.1 1.99-.433.044-.88.063-1.355.08l-.683.03c-.19-.015-.387-.03-.595-.043-.512-.034-1.042-.07-1.566-.16-2.077-.36-3.22-1.562-3.49-3.674-.045-.336-.068-.684-.09-1.023-.015-.23-.03-.47-.052-.708-.073-.8.27-1.363.997-1.628.556-.203 1.105-.348 1.65-.465-.13.328-.206.686-.206 1.06-.004 1.6 1.293 2.895 2.89 2.895zm4.718-6.013c-1.555-.1-2.937-.145-4.226-.145-1.83 0-3.494.094-5.086.29-1.153.143-2.396.277-3.644.298-1.26-.02-2.502-.155-3.655-.298-1.592-.196-3.255-.29-5.086-.29-1.288 0-2.67.048-4.225.145-.89.055-1.872.16-2.947.298.19-.63.514-1.17.987-1.612 4.345.198 14.807-.26 22.09-8.29.12.07.25.16.37.274.413 1.62 2.1 6.46 7.685 7.922.178.184.337.42.478.673.18.334.283.698.336 1.05-1.127-.15-2.15-.255-3.076-.315z" fill="#9E9E9E"/><path d="M459.44 96.91c-.132 0-.258-.006-.377-.014-1.632-.113-2.965-.934-3.514-1.65-.11-.143-.07-.34.09-.438.16-.097.38-.06.488.08.457.597 1.588 1.284 2.99 1.38.952.064 2.37-.13 3.748-1.442.133-.127.355-.132.496-.014.14.12.147.32.015.445-1.4 1.33-2.856 1.652-3.938 1.652z" stroke="#F27674" stroke-width=".72" fill="#F27674"/><path d="M493.382 132.988c-.04-3.87-.2-7.783-.392-11.576-.066-1.27-17.892 7.46-35.386 7.497-17.494.037-31.716-8.742-31.78-7.493-.194 3.792-.353 7.702-.393 11.575-.038 1.566-.038 3.172 0 4.738.12 5.358.354 10.755.63 16.112.123 2.557.262 5.107.402 7.647.086 1.55.17 3.096.263 4.633l.12 2.465c.04.82.113 1.685.155 2.506.08 1.325.938 3.126 2.193 3.83 1.682.86 3.52 1.647 5.833 2.466.468.194 1.015.392 1.52.546.787.275.865.353.98.98 1.446 6.764 6.106 10.522 13.032 10.56 2.345.04 4.693.04 7.046.04h3.612c2.352 0 4.698 0 7.046-.04 6.926-.038 11.585-3.796 13.032-10.56.113-.627.193-.705.98-.98.507-.154 1.054-.352 1.52-.546 2.313-.82 4.15-1.605 5.833-2.465 1.252-.705 2.112-2.506 2.193-3.83.04-.822.113-1.686.155-2.507l.12-2.465c.092-1.537.177-3.084.263-4.634.143-2.54.28-5.09.403-7.648.276-5.357.51-10.754.63-16.112.033-1.572.033-3.177-.008-4.742z" fill="#E5E5E5"/><path d="M456.444 124.124c-3.188-4.492-8.598-12.404-10.27-16.577-.25-.495-.41-1.01-.468-1.536-.01-.094-.026-.184-.03-.28-.333-.065-.652-.028-.97.013C433.518 107.286 425 116.71 425 128.11c0 12.464 10.19 12.435 22.758 12.435H471.2c12.57 0 22.76.03 22.76-12.435-.002-11.4-8.52-20.824-19.59-22.352-.437-.056-.756-.093-1.075-.122-.017.19-.033.28-.046.375-.06.528-.218 1.042-.467 1.537-1.672 4.174-7.083 12.085-10.27 16.577" fill="#E5E5E5"/><path d="M462.482 124.393l-.624-8.874c.93-.473 1.73-1.258 2.244-2.166.37-.653.595-1.366.595-2.094 0 0-2.377 1.043-4.803 1.043-.138 0-.276 0-.415-.01-.14.01-.278.01-.417.01-2.426 0-4.802-1.043-4.802-1.043 0 .728.226 1.44.596 2.094.512.91 1.312 1.69 2.243 2.165 0 0-.42 5.952-.628 8.928l6.01-.055z" fill="#F69A98"/><g><path d="M543.196 111.513c-2.09.864-6.857 1.37-9.756 1.37-2.9 0-7.364-.506-9.454-1.366l9.454 13.254 9.756-13.257z" fill="#F69A98"/><path d="M567.57 132.988c-.04-3.87-.2-7.783-.393-11.576-.074-1.367-.23-2.762-.605-4.083-.38-1.345-.985-2.608-1.95-3.678-1.1-1.217-2.778-1.662-4.27-2.215-3.53-1.31-7.206-2.45-10.947-3.205-1.407 2.003-2.72 3.89-4.054 5.71-2.357 3.247-4.783 6.297-7.22 9.342-1.505 1.872-3.025 3.746-4.54 5.66-1.515-1.914-3.03-3.786-4.528-5.66-2.45-3.052-4.868-6.102-7.24-9.36-1.333-1.817-2.636-3.695-3.923-5.67-3.87.74-7.536 1.873-11.062 3.183-1.493.553-3.174.996-4.272 2.215-.962 1.07-1.566 2.33-1.95 3.673-.37 1.32-.53 2.72-.603 4.087-.194 3.793-.353 7.703-.392 11.576-.04 1.565-.04 3.172 0 4.737l.035 1.31c.125 4.924.342 9.883.593 14.803.198 4.11.434 8.214.667 12.28l.12 2.465c.04.82.112 1.685.154 2.506.08 1.325.938 3.125 2.192 3.83 1.682.86 3.52 1.647 5.833 2.465.466.194 1.015.392 1.52.547.787.274.865.352.98.98 1.447 6.764 6.106 10.52 13.032 10.56 2.346.04 4.694.04 7.046.04h3.612c2.353 0 4.698 0 7.046-.04 6.928-.04 11.587-3.796 13.033-10.56.113-.628.194-.706.98-.98.508-.155 1.054-.353 1.52-.547 2.313-.82 4.152-1.604 5.833-2.464 1.252-.705 2.113-2.505 2.194-3.83.04-.822.113-1.686.154-2.507l.12-2.464c.233-4.066.466-8.172.667-12.282.252-4.92.466-9.88.593-14.803l.035-1.31c.03-1.567.03-3.172-.01-4.737z" fill="#E5E5E5"/></g><g fill="#F69A98"><path d="M368.116 30.257C354.794 30.257 344 39.53 344 50.962c0 6.628 3.775 12.034 9.42 15.823l-4.72 11.762 12.944-7.434c1.76.35 4.59.532 6.472.532 13.322 0 24.116-9.25 24.116-20.683s-10.794-20.705-24.116-20.705zm17.2 4.372c5.097 4.022 8.335 9.803 8.335 16.31 0 8.63-5.66 16.028-13.852 19.685 1.255.254 2.538.42 3.923.42 1.663 0 4.167-.156 5.72-.465l11.415 6.547-4.167-10.386c4.98-3.342 8.343-8.11 8.312-13.958-.053-9.952-8.93-17.236-19.683-18.153zM353.93 47.3c1.96 0 3.547 1.59 3.547 3.55 0 1.962-1.588 3.552-3.547 3.552-1.96 0-3.546-1.59-3.546-3.55 0-1.962 1.587-3.55 3.546-3.55zm14.186 0c1.96 0 3.547 1.59 3.547 3.55 0 1.962-1.588 3.552-3.547 3.552-1.958 0-3.546-1.59-3.546-3.55 0-1.962 1.588-3.55 3.546-3.55zm14.186 0c1.96 0 3.547 1.59 3.547 3.55 0 1.962-1.59 3.552-3.548 3.552s-3.546-1.59-3.546-3.55c0-1.962 1.588-3.55 3.546-3.55z"/></g><g><path d="M247.452 116.926c-11.547 10.15-23.41 19.98-35.54 29.423 11.54-10.154 23.41-19.977 35.54-29.424zM255.417 124.28c-11.547 10.153-23.41 19.98-35.54 29.422 11.546-10.153 23.41-19.973 35.54-29.423zM263.636 156.918c-6.024 5.53-12.33 10.755-18.888 15.638 6.025-5.527 12.333-10.75 18.888-15.638zM263.636 150.79c-6.024 5.53-12.33 10.754-18.888 15.638 6.025-5.53 12.333-10.75 18.888-15.638zM235.45 122.288c-6.024 5.528-12.33 10.754-18.888 15.635 6.024-5.528 12.332-10.75 18.888-15.635z" fill="#ECEBED"/><path fill="#FBCFCE" d="M201.732 138.49h59.416v3.303h-59.416z"/><path d="M250.11 125.85h-.428c0-1.602-.4-3.127-1.13-4.29-.683-1.09-1.588-1.74-2.424-1.74-.835 0-1.742.65-2.423 1.74-.73 1.163-1.13 2.688-1.13 4.29h-.43l-.386 2.018 1.092.9 1.093-.9-.39-2.018h-.425c0-3.34 1.775-5.472 2.998-5.472 1.222 0 2.998 2.132 2.998 5.472h-.427l-.388 2.017 1.092.9 1.093-.9-.388-2.016z" fill="#C1C1C1"/><path d="M255.018 138.34c.257 0 .465-.22.465-.465 0-3.76-.48-10.427-1.837-11.784-.024-.027-.137-.202-.275-.202h-3.018.004l.372 1.936c.016.083-.015.17-.08.223l-1.093.9c-.044.036-.096.053-.148.053-.053 0-.104-.017-.147-.053l-.984-.81-.11-.09c-.026-.023-.046-.05-.06-.08-.02-.045-.03-.094-.02-.143l.372-1.937h-4.655l.372 1.937c.01.05 0 .098-.02.142-.014.03-.033.06-.06.08l-.11.09-.984.81c-.042.037-.093.054-.146.054-.052 0-.104-.017-.147-.053l-1.093-.9c-.066-.054-.097-.14-.08-.223l.372-1.937h-3.02c-.14 0-.252.176-.275.204-1.356 1.358-1.836 8.024-1.836 11.785 0 .246.207.465.464.465h17.78z" fill="#9E9E9E"/><g fill="#9E9E9E"><path d="M242.345 156.17c-.828-.007-1.41.587-1.75 1.5-.015.04-.873 3.015-1.664 5.75h14.83c-.79-2.735-1.65-5.71-1.665-5.75-.34-.913-.922-1.507-1.75-1.5-.455 0-.843.113-1.25.25l-2.75 1-2.75-1c-.406-.137-.794-.25-1.25-.25zM238.642 164.42l-.648 2.25h-2.15c-.276 0-.5.222-.5.5 0 .277.224.5.5.5h21c.28 0 .5-.223.5-.5 0-.278-.22-.5-.5-.5h-2.147c-.124-.427-.383-1.33-.65-2.25h-15.405z"/></g><path d="M225.9 162.18c-.055-.025-1.42-.64-3.87-.64-1.36 0-2.097.21-2.747.396-.536.152-1 .284-1.733.284-.733 0-1.196-.132-1.732-.284-.65-.187-1.388-.396-2.747-.396-2.45 0-3.814.615-3.87.64-.074.033-.122.104-.128.183l-.072 1.052c-.005.092.05.18.14.216.094.037.203.11.218.142.012.037.035.153.07.32.11.535.317 1.532.57 2.196.29.77.6 1.098 1.325 1.41.43.186 1.097.302 1.74.302.628 0 1.213-.11 1.69-.314 1.245-.537 1.543-1.35 1.922-2.38l.145-.415c.264-.756.314-.853.73-.853.417 0 .467.097.73.854.044.125.092.263.147.414.377 1.032.674 1.845 1.92 2.382.478.205 1.063.314 1.69.314.642 0 1.31-.116 1.742-.302.72-.312 1.03-.64 1.323-1.41.25-.66.457-1.655.568-2.19.036-.168.06-.288.07-.323.02-.035.128-.108.22-.144.09-.035.145-.123.14-.215l-.07-1.052c-.007-.08-.056-.15-.13-.183zm-10.48 3.728c-.39.81-1.21 1.22-2.435 1.22-.982 0-1.585-.22-1.954-.716-.356-.48-.788-2.532-.506-3.166.27-.606 1.52-.822 2.6-.822 1.134 0 2.48.234 2.756.747.283.527.11 1.55-.46 2.738zm8.65.503c-.37.497-.972.718-1.955.718-1.225 0-2.043-.41-2.434-1.22-.57-1.187-.742-2.21-.46-2.737.276-.512 1.623-.745 2.76-.745 1.076 0 2.326.215 2.596.82.282.635-.15 2.686-.506 3.166z" fill="#9E9E9E"/><path fill="#CFCFCF" d="M175.52 169.383h.65v-19.698h-.65"/><path d="M179.634 125.77c-2.554 0-2.64-1.58-2.64-3.035h-2.298c0 1.455-.085 3.034-2.64 3.034-2.553 0-3.064 2.617-2.17 4.03.894 1.413 2 6.4 2 6.4h7.918s1.107-4.987 2-6.4c.895-1.413.384-4.03-2.17-4.03" fill="#ECECEC"/><path d="M179.488 169.383c0 .152-1.63.275-3.643.275-2.012 0-3.643-.123-3.643-.275 0-.15 1.63-.274 3.643-.274s3.643.122 3.643.273" fill="#272826"/><path d="M178.46 128.982c-1.255.012-2.312.945-2.45 2.165-.014.12-.016.195-.016.195s0-.045-.006-.123c-.102-1.177-1.068-2.105-2.273-2.214-1.66-.152-3.652.394-3.43 1.74.013.073.03.15.055.227.744 2.252 1.193 4.24 1.452 5.62.038.203.102.395.187.576.04-.035 7.69-.035 7.732 0 .085-.182.15-.374.187-.577.258-1.38.707-3.368 1.45-5.62.026-.078.043-.154.055-.227.202-1.217-1.406-1.78-2.944-1.764" fill="#F69A98"/><path d="M179.712 137.17c-.04-.035-7.692-.035-7.733 0-3.208 2.618-.67 17.258-.67 17.258h9.07s2.54-14.64-.668-17.26" fill="#AAA"/><g fill="#9E9E9E"><path d="M214.717 133.42s-2.784-.343-4.01-.676c-1.226-.343-1.463-.657-1.93-.472-.455.194-.702.324-.74.963-.047.638-.076 2.425.133 2.98.323.88.285.51.304.89l-.02.878s-.065.232.305.278c.37.047 2.422.205 3.173.214.75.01.836-.083.96-.11.132-.02.437-.297.437-.297s3.506-.11 4.313.148c.808.26 3.44.36 4.732.194 1.292-.167 2.48-.232 3.373-.574.903-.343 1.492-.778 1.51-.787.02-.02.296-.094.2-1.39-.047-.648-.142-.99-.247-1.138-.055-.084-.074-.084-.17-.074-.16.018-.132.037-.17.1-.152.242-3.64.51-4.58.13-.94-.378-2.47-1.684-2.803-1.943-.332-.26-.903-.463-1.435-.453-.532.01-.542-.056-1.017.592-.484.638-.665.6-2.318.546z"/></g><path fill="#F69A98" d="M130.763 168.208H276.66v4.953H130.764z"/><g><path d="M296.67 65.553h1.226v-1.43h-1.225V43.626l1.84-5.31H13.912l1.84 5.31v20.5l-.82 1.428.82 1.23h1.02v134.025h12.12l-4.863 5.472v1.073h71.077v-1.073l-4.255-5.472H298.51l-1.84-135.255zM278.09 174.54h-156.54v-73.07c2.012 2.136 4.38 1.3 4.495-2.56l.03-3.648 7.99-16.03H270.72s4.315 11.235 7.368 19.458c-.436 4.8 0 75.85 0 75.85z" fill="#E5E5E5"/><g transform="translate(13.912 38.02)"><use fill="#F5F5F5" xlink:href="#a"/><use stroke="#9E9E9E" mask="url(#b)" stroke-width="3.3" xlink:href="#a"/></g><g fill="#F69A98"><path d="M128.04 98.848l-.023 3.65c-.155 4.965-7.3 4.932-7.483 0-.004-1.216-.004-2.435-.004-3.65l4.91-11.84 3.12-7.773h6.857l-7.377 19.613zM137.65 98.845v3.648c.183 4.93 7.327 4.966 7.475 0h.007l.023-3.648h.053l8.582-19.613h-6.945l-9.196 19.613zM154.216 98.845v3.648c.184 4.93 7.328 4.966 7.476 0h.007l.022-3.648h.053l6.74-19.613h-6.945l-7.354 19.613zM170.78 98.845v3.648c.184 4.93 7.327 4.966 7.476 0h.006l.024-3.648h.052l4.902-19.613h-6.945l-5.516 19.613zM187.653 98.845v3.648c.185 4.93 7.332 4.966 7.477 0h.006l.027-3.648h.05l2.452-19.613h-6.945l-3.067 19.613zM204.217 98.845v3.648h.003c.182 4.93 7.328 4.966 7.474 0h.006l.027-3.648h.052l.613-19.613h-6.945l-1.23 19.613zM219.867 79.232l.614 19.613v3.648h.004c.18 4.93 7.328 4.966 7.473 0h.007l.026-3.648h.053l-1.228-19.613h-6.948zM234.592 79.232l2.45 19.613v3.648h.002c.182 4.93 7.328 4.966 7.477 0h.004l.026-3.648h.053l-3.066-19.613h-6.945zM249.32 79.232l4.29 19.613h-.002v3.648h.003c.186 4.93 7.33 4.966 7.478 0h.006l.023-3.648h.053l-4.9-19.613h-6.95zM263.742 79.232l6.743 19.613c-.003 1.215-.003 2.433-.003 3.648.188 4.93 7.33 4.966 7.48 0 0 0 .135-1.974.135-3.648-.135-.968-7.212-19.613-7.212-19.613h-7.143z"/><path d="M128.466 76.745H269.95l7.37 19.812h-155.8"/></g></g><path d="M80.7 162.398H38.83V87.825h41.872v74.573H80.7zm-40.645-1.225h39.42V89.05h-39.42v72.123z" fill="#9E9E9E"/><g><path d="M52.305 105.433l5.986-4.998c.462-.385 1.026-.576 1.59-.576.577 0 1.15.198 1.616.596l5.896 5.056.43-.502-5.896-5.055c-.588-.504-1.317-.757-2.045-.757-.713 0-1.43.244-2.012.73l-5.987 5 .425.505" fill="#9E9E9E"/><path fill="#FBCFCE" d="M46.09 117.904h27.52v-13.27H46.09"/><text font-family="OpenSans-Semibold, Open Sans" font-size="6.809" font-weight="500" fill="#666" transform="translate(46 99.02)"><tspan x="3.809" y="13.799">OPEN</tspan></text></g><g fill="#ECEBED"><path d="M74.58 105.733c-9.563 8.373-19.367 16.49-29.382 24.318 9.563-8.373 19.363-16.485 29.38-24.317zM64.66 110.164c-4.98 4.573-10.196 8.888-15.616 12.93 4.977-4.577 10.193-8.89 15.616-12.93zM74.176 148.806c-4.017 3.685-8.22 7.165-12.59 10.424 4.018-3.682 8.22-7.16 12.59-10.424z"/></g><g fill="#C1C1C1"><path d="M5 54.198h305v6.604H5z"/></g><g fill="#FBCFCE"><path d="M99.57 121.29c0-1.55-1.256-2.808-2.806-2.808v-7.655c1.55 0 2.807-1.258 2.807-2.808h11.856c0 1.55 1.256 2.807 2.807 2.807v7.655c-1.55 0-2.807 1.257-2.807 2.808H99.57z"/></g><g><path fill="#9E9E9E" d="M100.67 205.894h33.775v-51.598H100.67"/><path fill="#9E9E9E" d="M100.67 214.847h5.946v-13.85h-5.946M128.498 214.847h5.947v-13.85h-5.947"/><path fill="#FBCFCE" d="M104.05 200.728h27.013v-41.265H104.05"/><text font-family="OpenSans-Semibold, Open Sans" font-size="10.582" font-weight="500" fill="#666" transform="translate(100.395 154.245)"><tspan x="5.644" y="20.068">50</tspan></text><text font-family="OpenSans-Semibold, Open Sans" font-size="8.72" font-weight="500" fill="#666" transform="translate(100.395 154.245)"><tspan x="20.124" y="20.594">%</tspan></text><text font-family="OpenSans-Semibold, Open Sans" font-size="10.582" font-weight="500" fill="#666" transform="translate(100.395 154.245)"><tspan x="6.519" y="33.868">OFF</tspan></text></g><g><path fill="#9E9E9E" d="M62.435 20.52h3.3v17.5h-3.3zM253.225 20.52h3.3v17.5h-3.3z"/><path fill="#9E9E9E" d="M28.766 5h257.468v19.81H28.766z"/><path fill="#FFF" d="M105.346 14.906h1.32v1.32h-1.32zM208.333 14.906h1.32v1.32h-1.32z"/><text font-family="OpenSans-Semibold, Open Sans" font-size="11.88" font-weight="500" letter-spacing=".495" fill="#666" transform="translate(28.766 5)"><tspan x="80.211" y="14.981">FASHION STOR</tspan> <tspan x="170.871" y="14.981">E</tspan></text><text font-family="OpenSans-Semibold, Open Sans" font-size="11.88" font-weight="500" letter-spacing=".495" fill="#FFF" transform="translate(28.766 5)"><tspan x="79.881" y="14.981">FASHION STOR</tspan> <tspan x="170.541" y="14.981">E</tspan></text></g></g></g></svg>