<svg width="58" height="58" viewBox="0 0 58 58" xmlns="http://www.w3.org/2000/svg"><title>Wand Copy</title><g fill="none" fill-rule="evenodd"><path fill="#E5E5E5" d="M2.402 46.63l22.433-22.086 3.58 3.525L5.982 50.156"/><path fill="#CFCFCF" d="M26.665 22.728l5.014-4.936 3.58 3.525-5.014 4.937"/><path fill="#F69A98" d="M47.442 17.72l-7.097-4.07 4.133 7.06-4.133 6.987 7.097-4.07 7.168 4.07-4.133-6.987 4.133-7.06M40.268 37.366L36.53 35.29l2.18 3.687-2.18 3.686 3.738-2.15 3.743 2.15-2.183-3.686 2.184-3.686M22.808 13.65l4.133 2.303-2.414-3.988 2.415-4.07-4.132 2.303-4.128-2.303 2.416 4.07-2.416 3.988M48.842 32.378l-2.65-1.535 1.48 2.686-1.48 2.61 2.65-1.536 2.65 1.535-1.48-2.61 1.48-2.687"/></g></svg>