<?xml version="1.0" encoding="UTF-8"?>
<svg width="81px" height="66px" viewBox="0 0 81 66" version="1.1" xmlns="http://www.w3.org/2000/svg" xmlns:xlink="http://www.w3.org/1999/xlink">
    <!-- Generator: Sketch 42 (36781) - http://www.bohemiancoding.com/sketch -->
    <title>Ecom</title>
    <desc>Created with Sketch.</desc>
    <defs></defs>
    <g id="Page-1" stroke="none" stroke-width="1" fill="none" fill-rule="evenodd">
        <g id="Student-Page-Final---6th-Feb" transform="translate(-132.000000, -2148.000000)">
            <g id="Student-Verification" transform="translate(115.000000, 1658.000000)">
                <g id="Ecom" transform="translate(20.000000, 497.000000)">
                    <g id="Email" transform="translate(0.557207, 0.217593)">
                        <polygon id="Path" fill="#ECECEC" points="32.569083 44.9256147 19.1365974 34.422487 0.969371432 20.2169633 0.969371432 53.1885156 63.527285 53.1885156 63.527285 20.2427422"></polygon>
                        <polygon id="Path" fill="#ECECEC" points="24.1129032 5 40.8870968 5 32.5536581 4.4408921e-16"></polygon>
                        <polygon id="Path" fill="#ECECEC" points="55.5645161 26.7824069 63.5621518 20.2323581 55.5645161 14"></polygon>
                        <polygon id="Path-Copy" fill="#ECECEC" transform="translate(4.961769, 20.391203) scale(-1, 1) translate(-4.961769, -20.391203) " points="0.962951258 26.7824069 8.96058697 20.2323581 0.962951258 14"></polygon>
                        <polygon id="Path" fill="#FBCFCE" points="8.08886999 26.272102 20.4210964 35.9572746 32.5017504 45.4452741 56.4040869 26.2776758 56.4040869 17.2502114 56.4040869 14.9691342 56.4040869 4.69602308 44.768864 4.69602308 41.1203244 4.69602308 23.6693399 4.69602308 19.9889838 4.69602308 8.08886999 4.69602308 8.08886999 15.0408968 8.08886999 17.3129167"></polygon>
                        <g id="@" transform="translate(22.074075, 12.605674)">
                            <path d="M10.2086595,21.4934603 C4.98039335,21.4934603 0.547539902,17.8766076 0.547539902,12.0916009 C0.547539902,5.88429009 5.10617954,0.520888322 12.1872023,0.520888322 C17.7351134,0.520888322 21.4657839,4.19647209 21.4657839,9.22846304 C21.4657839,13.748655 18.786538,16.40134 15.789127,16.40134 C14.5127671,16.40134 13.3333365,15.5874956 13.4302659,13.748655 L13.3022599,13.748655 C12.1864624,15.5266671 10.7184635,16.40134 8.80577347,16.40134 C6.95671643,16.40134 5.36219144,14.9841042 5.36219144,12.6033999 C5.36219144,8.8676867 8.48760839,5.46338436 12.9204618,5.46338436 C14.2900515,5.46338436 15.5027784,5.7346658 16.3307475,6.09614132 L15.2482463,11.5497372 C14.768779,13.8395483 15.151317,14.8953085 16.2049613,14.924674 C17.8305629,14.9561371 19.6485434,12.9061444 19.6485434,9.41024957 C19.6485434,5.04177945 16.8745878,1.90736019 11.9311904,1.90736019 C6.73400087,1.90736019 2.36552036,5.79549437 2.36552036,11.9105135 C2.36552036,16.9425045 5.84017898,20.0461599 10.5601209,20.0461599 C12.3781014,20.0461599 14.067336,19.6846843 15.3747725,18.991798 L15.8853164,20.2880758 C14.130969,21.1613503 12.3462849,21.4934603 10.2086595,21.4934603 Z" id="Path" fill="#F69A98"></path>
                            <path d="M14.130969,7.27006279 C13.8128039,7.18056788 13.2697035,7.05891074 12.536444,7.05891074 C9.73141187,7.05891074 7.46726039,9.55917469 7.46726039,12.4831411 C7.46726039,13.8087844 8.16722356,14.7729522 9.57232933,14.7729522 C11.4213864,14.7729522 13.110621,12.5439697 13.4620824,10.6743651 L14.130969,7.27006279 Z" id="Path" fill="#FBCFCE"></path>
                        </g>
                    </g>
                </g>
            </g>
        </g>
    </g>
</svg>