<?xml version="1.0" encoding="UTF-8"?>
<svg width="81px" height="66px" viewBox="0 0 81 66" version="1.1" xmlns="http://www.w3.org/2000/svg" xmlns:xlink="http://www.w3.org/1999/xlink">
    <!-- Generator: Sketch 42 (36781) - http://www.bohemiancoding.com/sketch -->
    <title>ID Card</title>
    <desc>Created with Sketch.</desc>
    <defs></defs>
    <g id="Page-1" stroke="none" stroke-width="1" fill="none" fill-rule="evenodd">
        <g id="Student-Page-Final---6th-Feb" transform="translate(-132.000000, -2004.000000)">
            <g id="Student-Verification" transform="translate(115.000000, 1658.000000)">
                <g id="ID-Card" transform="translate(21.000000, 349.000000)">
                    <g id="ID-card">
                        <g id="Group">
                            <path d="M32.2997984,15.9807594 C33.4080226,15.9807594 34.3059971,15.0880695 34.3059971,13.9863674 L34.3059971,2.02001594 C34.3059971,0.918313841 33.4080226,0.0256240179 32.2997984,0.0256240179 C31.1915743,0.0256240179 30.2935998,0.918313841 30.2935998,2.02001594 L30.2935998,13.9863674 C30.2935998,15.0880695 31.1915743,15.9807594 32.2997984,15.9807594 L32.2997984,15.9807594 Z" id="Shape" fill="#CFCFCF"></path>
                            <path d="M61.3906054,50.3798026 C60.8405872,50.8190151 60.1424169,51.0820571 59.3834803,51.0820571 L3.20991786,51.0820571 C1.43964816,51.0820571 0,49.6508815 0,47.8910301 L0,11.9919755 C0,10.2321241 1.43964816,8.80094846 3.20991786,8.80094846 L25.478723,8.80094846 L25.478723,15.9807594 C25.478723,18.6205365 27.6381952,20.7673 30.2935998,20.7673 L34.3059971,20.7673 C36.9614016,20.7673 39.1208739,18.6205365 39.1208739,15.9807594 L39.1208739,8.80094846 L59.3834803,8.80094846 C61.15375,8.80094846 62.5933982,10.2321241 62.5933982,11.9919755 L62.5933982,19.3807227 L62.5933982,47.8910301 C62.5933982,48.8964113 62.1235409,49.7945228 61.3906054,50.3798026 Z" id="Shape" fill="#ECECEC"></path>
                            <path d="M13.0009698,34.9857188 L14.2937642,34.4719635 L13.1991822,33.617566 C11.9288572,32.6251566 11.2002059,31.1397335 11.2002059,29.5426244 C11.2002059,26.6834642 13.540236,24.3572054 16.4163224,24.3572054 C19.2924088,24.3572054 21.6324389,26.6834642 21.6324389,29.5426244 C21.6324389,31.1397335 20.9037876,32.6251566 19.6334626,33.617566 L18.5388806,34.4719635 L19.831675,34.9857188 C23.1114086,36.2876579 25.3142147,39.2648861 25.6103296,42.7056111 L7.22231518,42.7056111 C7.51923258,39.2656839 9.72123623,36.2876579 13.0009698,34.9857188 Z" id="Shape" fill="#F69A98"></path>
                            <path d="M37.1972834,31.9198683 L49.2344753,31.9198683" id="Line" stroke="#CFCFCF" stroke-width="1.61630518" stroke-linecap="square"></path>
                            <path d="M37.1972834,38.4016421 L56.4567905,38.4016421" id="Line" stroke="#CFCFCF" stroke-width="1.61630518" stroke-linecap="square"></path>
                        </g>
                    </g>
                    <g id="Phone" transform="translate(52.000567, 35.808245) rotate(-25.000000) translate(-52.000567, -35.808245) translate(38.500567, 12.808245)">
                        <g id="Body" transform="translate(-0.000000, -0.000000)">
                            <path d="M25.1067262,45.1835097 L5.09500954,45.1835097 C4.10677662,45.1835097 3.24207281,44.3755077 3.24207281,43.3188898 L3.24207281,1.92432936 C3.24207281,0.929865442 4.10677662,0.0597095158 5.09500954,0.0597095158 L25.1067262,0.0597095158 C26.1567237,0.0597095158 26.959663,0.929865442 26.959663,1.92432936 L26.959663,43.3188898 C26.959663,44.3133538 26.1567237,45.1835097 25.1067262,45.1835097 Z" id="Shape" stroke="#AAAAAA" stroke-width="0.620661189" fill="#FBCFCE"></path>
                            <rect id="Rectangle-2" fill="#FFFFFF" x="3.51802091" y="5.79986348" width="23.1656939" height="30.5569333"></rect>
                            <ellipse id="Oval-2" stroke="#AAAAAA" stroke-width="0.5" fill="#ECEBED" cx="15.0925955" cy="41.601417" rx="1.92671432" ry="1.93795421"></ellipse>
                            <polygon id="Rectangle-2-Copy" fill="#ECECEC" points="3.51802091 5.79986348 26.7324942 5.82621814 26.7290887 17.6990969 18.153131 36.2409195 6.14519197 36.3359955 3.49388501 35.1294531"></polygon>
                            <polygon id="Path" fill="#E5E5E5" fill-rule="nonzero" points="8.43775333 36.4205213 3.50979604 34.0922421 3.50716762 35.1480386 6.36134768 36.4266509"></polygon>
                            <g id="Lines" transform="translate(8.264396, 19.412855) scale(1, -1) rotate(-25.000000) translate(-8.264396, -19.412855) translate(1.264396, 14.912855)" fill-rule="nonzero" fill="#CFCFCF">
                                <polygon id="Line-Copy" points="0.0620805101 8.16419236 13.5924356 8.16419236 13.5924356 6.54393556 0.815185281 6.54393556"></polygon>
                                <polygon id="Line-Copy-2" points="3.06301865 1.68241862 13.3774345 1.68241862 13.3774345 0.0621618257 3.83370438 0.0621618257"></polygon>
                            </g>
                            <path d="M3.24207281,5.52926105 L26.959663,5.52926105" id="Shape" stroke="#9E9E9E" stroke-width="0.620661189"></path>
                            <path d="M3.27158548,36.548935 L26.9868051,36.5478186" id="Shape" stroke="#AAAAAA" stroke-width="0.620661189"></path>
                            <path d="M17.7423509,2.99212764 L12.4923635,2.99212764 C12.1835407,2.99212764 11.9364825,2.74351166 11.9364825,2.43274169 L11.9364825,2.43274169 C11.9364825,2.12197171 12.1835407,1.87335573 12.4923635,1.87335573 L17.7423509,1.87335573 C18.0511737,1.87335573 18.2982319,2.12197171 18.2982319,2.43274169 L18.2982319,2.43274169 C18.2982319,2.68135767 18.0511737,2.99212764 17.7423509,2.99212764 Z" id="Shape" fill="#AAAAAA"></path>
                            <ellipse id="Oval" fill="#AAAAAA" cx="20.2224526" cy="2.43846681" rx="0.617645577" ry="0.621539947"></ellipse>
                            <polygon id="Shape" fill="#ECECEC" fill-rule="nonzero" points="26.768023 17.3613882 17.9926102 36.2426624 19.0121369 36.2640206 26.7037687 19.7692631"></polygon>
                        </g>
                        <g id="Camera" transform="translate(13.550040, 33.122083)">
                            <path d="M1.92192327,0.129639179 C2.05270972,0.129639179 2.15913094,0.232577153 2.15913094,0.359082857 L2.15913094,0.396151195 L2.15913094,0.496155704 L2.26251944,0.496155704 L2.76870953,0.496155704 C2.89532598,0.496155704 2.99830093,0.595760195 2.99830093,0.718232384 L2.99830093,1.98175602 C2.99830093,2.10422821 2.89532598,2.2038327 2.76870953,2.2038327 L1.92195773,2.2038327 L1.14395928,2.2038327 L0.332979892,2.2038327 C0.206363443,2.20379937 0.103388499,2.10419487 0.103388499,1.98172269 L0.103388499,0.718199049 C0.103388499,0.595760195 0.206363443,0.496122369 0.332979892,0.496122369 L0.803397561,0.496122369 L0.906786059,0.496122369 L0.906786059,0.39611786 L0.906786059,0.359049522 C0.906786059,0.232543818 1.01320729,0.129605844 1.14399374,0.129605844 L1.92192327,0.129605844 L1.92192327,0.129639179 Z" id="Path" fill="#AAAAAA"></path>
                            <path d="M1.53304466,1.94942123 C1.88363506,1.94942123 2.168815,1.67357546 2.168815,1.33446017 C2.168815,0.995344879 1.88363506,0.719465773 1.53304466,0.719465773 C1.18221302,0.719465773 0.896826301,0.995344879 0.896826301,1.33446017 C0.896826301,1.67357546 1.18224748,1.94942123 1.53304466,1.94942123 L1.53304466,1.94942123 Z" id="Path" fill="#C1C1C1"></path>
                            <path d="M1.53304466,1.84941672 C1.23866314,1.84941672 1.0002148,1.618973 1.0002148,1.33446017 C1.0002148,1.04991401 1.23866314,0.819470282 1.53304466,0.819470282 C1.82697816,0.819470282 2.0654265,1.04991401 2.0654265,1.33446017 C2.06546096,1.618973 1.82701262,1.84941672 1.53304466,1.84941672 L1.53304466,1.84941672 Z" id="Path" fill="#FFFFFF"></path>
                        </g>
                        <g id="Focus" transform="translate(9.312453, 15.762028)" stroke-width="0.512" stroke="#F27674">
                            <polyline id="Rectangle" points="0 2.33080501 7.25043608e-15 2.55868503e-14 3.10184952 9.09494702e-16"></polyline>
                            <polyline id="Rectangle-Copy" transform="translate(1.550925, 9.236084) scale(1, -1) translate(-1.550925, -9.236084) " points="-6.54279352e-14 10.6587481 -6.54279352e-14 7.81342031 -6.54279352e-14 7.81342031 3.10184952 7.81342031"></polyline>
                            <polyline id="Rectangle-Copy-2" transform="translate(10.458031, 9.236084) scale(-1, -1) translate(-10.458031, -9.236084) " points="9.03465749 10.6587481 9.03465749 7.81342031 11.881405 7.81342031"></polyline>
                            <polyline id="Rectangle-Copy-3" transform="translate(10.458031, 1.294033) scale(-1, 1) translate(-10.458031, -1.294033) " points="9.03465749 2.58806642 9.03465749 3.3651304e-14 11.881405 6.92963732e-14"></polyline>
                        </g>
                    </g>
                </g>
            </g>
        </g>
    </g>
</svg>