<?xml version="1.0" encoding="UTF-8"?>
<svg width="68px" height="68px" viewBox="0 0 68 68" version="1.1" xmlns="http://www.w3.org/2000/svg" xmlns:xlink="http://www.w3.org/1999/xlink">
    <!-- Generator: Sketch 42 (36781) - http://www.bohemiancoding.com/sketch -->
    <title>Merchant</title>
    <desc>Created with Sketch.</desc>
    <defs></defs>
    <g id="Page-1" stroke="none" stroke-width="1" fill="none" fill-rule="evenodd">
        <g id="Student-Page-Final---6th-Feb" transform="translate(-807.000000, -2288.000000)">
            <g id="Student-Verification" transform="translate(115.000000, 1658.000000)">
                <g id="Merchant" transform="translate(697.000000, 638.000000)">
                    <g id="Body-House" transform="translate(1.558824, 21.013722)">
                        <path d="M47.2835476,2.22605367 C47.2111165,2.22921114 47.1376506,2.23763104 47.0610806,2.23763104 C45.5658954,2.23763104 44.2279892,1.54719929 43.3308781,0.466294724 C42.4379059,1.53456945 41.1072429,2.21342383 39.6244744,2.21342383 C38.153088,2.21342383 36.8317375,1.54298935 35.9377306,0.486291985 C35.0406195,1.55561919 33.7151301,2.23342109 32.227188,2.23342109 C30.7278639,2.23342109 29.3899577,1.54298935 28.4969855,0.457874825 C27.5998744,1.52614955 26.2702461,2.21342383 24.782304,2.21342383 C23.3109176,2.21342383 21.9895671,1.54298935 21.0965949,0.486291985 C20.202588,1.55561919 18.8729596,2.23342109 17.3891565,2.23342109 C15.8939713,2.23342109 14.5560651,1.54298935 13.658954,0.462084775 C12.7659818,1.5303595 11.4363535,2.20921388 9.9525503,2.20921388 C8.48116391,2.20921388 7.15981341,1.5387794 6.26580648,0.482082036 C5.37283429,1.55140924 4.04320595,2.22921114 2.55940279,2.22921114 L2.55940279,27.6499396 L0.243676535,27.6499396 L0.243676535,31.0578938 L49.6075517,31.0578938 L49.6075517,27.6499396 L47.2918255,27.6499396 L47.2918255,2.22605367 L47.2835476,2.22605367 Z" id="Fill-1" fill="#ECECEC"></path>
                        <polygon id="Path" fill="#CFCFCF" points="34.1031539 7.85791381 44.8829735 7.85791381 44.8829735 17.8070773 34.1031539 17.8070773"></polygon>
                        <polygon id="Path" fill="#CFCFCF" points="5.00136614 7.85791381 15.7853246 7.85791381 15.7853246 17.8070773 5.00136614 17.8070773"></polygon>
                        <polygon id="Path" fill="#CFCFCF" points="18.2262532 7.85791381 31.613593 7.85791381 31.613593 27.6583595 18.2262532 27.6583595"></polygon>
                    </g>
                    <g id="Shade">
                        <path d="M7.83290786,18.3678112 L7.83290786,17.6110727 C8.47547533,14.6998925 9.13045957,11.7897649 9.78130488,8.88279462 C10.4321502,5.97161445 11.0912734,3.05727681 11.7379798,0.146096631 L5.88554556,0.146096631 C4.97601769,3.05727681 4.05821197,5.97161445 3.1486841,8.88279462 C2.23915622,11.7939748 1.32548943,14.7041025 0.415961553,17.6152827 L0.411822632,17.6152827 L0.411822632,18.3678112 C0.411822632,20.4433163 2.08187723,22.142031 4.12236524,22.142031 C6.16388799,22.142031 7.83290786,20.4433163 7.83290786,18.3678112 Z" id="Fill-2" fill="#FBCFCE"></path>
                        <path d="M15.2374905,18.3678112 L15.2608957,17.6110727 L16.4066081,8.88279462 L17.5835275,0.146096631 L11.7301375,0.146096631 L9.7738064,8.88279462 L7.81752283,17.6152827 L7.81752283,18.3678112 C7.81752283,18.3678112 7.03665177,22.142031 11.1370711,22.142031 C15.2374905,22.142031 15.2374905,18.3678112 15.2374905,18.3678112 Z" id="Fill-2-Copy" fill="#ECECEC"></path>
                        <path d="M42.6464291,18.3678112 L42.6698343,17.6110727 L43.8155468,8.88279462 L44.9924661,0.146096631 L39.1390762,0.146096631 L37.182745,8.88279462 L35.2264615,17.6152827 L35.2264615,18.3678112 C35.2264615,18.3678112 34.4455904,22.142031 38.5460097,22.142031 C42.6464291,22.142031 42.6464291,18.3678112 42.6464291,18.3678112 Z" id="Fill-2-Copy-2" fill="#ECECEC" transform="translate(40.079761, 11.144064) scale(-1, 1) translate(-40.079761, -11.144064) "></path>
                        <path d="M52.31803,17.4995091 C51.41678,14.6262184 50.5196688,11.7518753 49.6225577,8.88279462 C48.7130299,5.97161445 47.7952241,3.05727681 46.8825921,0.146096631 L41.0249842,0.146096631 C41.6758296,3.05727681 42.3349527,5.97161445 42.9816591,8.88279462 C43.6325044,11.7939748 44.2792108,14.7041025 44.9341951,17.6152827 L44.9424729,17.6152827 L44.9424729,18.3057144 C44.9424729,20.3822721 46.6114928,22.0799343 48.6530155,22.0799343 C50.6935035,22.0799343 52.3625234,20.3822721 52.3625234,18.3057144 L52.3625234,17.4952991 L52.31803,17.4995091 Z" id="Fill-3" fill="#FBCFCE"></path>
                        <path d="M30.1003024,17.6152827 L30.1003024,18.2972945 C30.1003024,20.3738522 31.7693223,22.0715144 33.8108451,22.0715144 C35.8109786,22.0715144 37.4479218,20.4348964 37.5089709,18.4130681 C37.5089709,18.3720211 37.4965541,18.3341316 37.4965541,18.2930846 L37.4965541,17.4510946 C37.1085303,14.5935913 36.7287843,11.736088 36.3448994,8.88279462 C35.9527366,5.97161445 35.5605739,3.05727681 35.1642722,0.146096631 L29.3076991,0.146096631 C29.4411793,3.05727681 29.5746595,5.97161445 29.7040008,8.88279462 C29.833342,11.7939748 29.9626833,14.7041025 30.1003024,17.6152827 Z" id="Fill-4" fill="#FBCFCE"></path>
                        <polygon id="Fill-5" fill="#F69A98" points="30.7025154 40.7573758 32.0724983 40.7573758 32.0724983 36.8800122 30.7025154 36.8800122"></polygon>
                        <path d="M18.94798,22.0673044 C20.9895028,22.0673044 22.6585226,20.3696422 22.6585226,18.2930846 L22.6585226,17.6152827 L22.6668005,17.6152827 C22.7920028,14.7041025 22.925483,11.7939748 23.0548243,8.88279462 C23.1841656,5.97161445 23.3135069,3.05727681 23.4428481,0.146096631 L17.5945529,0.146096631 C17.206529,3.05727681 16.8102273,5.97161445 16.4222035,8.88279462 C16.0300408,11.7939748 15.637878,14.7041025 15.2539931,17.6152827 L15.2415763,17.6152827 L15.2415763,18.2930846 C15.2415763,18.3099244 15.2384721,18.3225542 15.2384721,18.3341316 C15.2622709,20.3896395 16.9199088,22.0673044 18.94798,22.0673044 Z" id="Fill-6" fill="#FBCFCE"></path>
                        <path d="M26.5,22.0673044 C28.8382353,22.0673044 30.116482,20.2354357 30.1008785,18.2930846 L30.116482,17.6152827 L29.7111727,8.88279462 L29.3058633,0.146096631 L23.4391595,0.146096631 C23.0238064,7.78285989 23.4391595,2.33485797 23.0238064,8.88279462 C22.6084533,15.4307313 22.6574232,16.3440058 22.6574232,17.6152827 C22.6532843,17.6152827 22.6450064,18.2930846 22.6450064,18.2930846 C22.665701,20.3896395 24.1617647,22.0673044 26.5,22.0673044 Z" id="Fill-6-Copy" fill="#ECECEC"></path>
                    </g>
                </g>
            </g>
        </g>
    </g>
</svg>