<?xml version="1.0" encoding="UTF-8"?>
<svg width="68px" height="68px" viewBox="0 0 68 68" version="1.1" xmlns="http://www.w3.org/2000/svg" xmlns:xlink="http://www.w3.org/1999/xlink">
    <!-- Generator: Sketch 42 (36781) - http://www.bohemiancoding.com/sketch -->
    <title>Online Deals</title>
    <desc>Created with Sketch.</desc>
    <defs></defs>
    <g id="Page-1" stroke="none" stroke-width="1" fill="none" fill-rule="evenodd">
        <g id="Student-Page-Final---6th-Feb" transform="translate(-807.000000, -2166.000000)">
            <g id="Student-Verification" transform="translate(115.000000, 1658.000000)">
                <g id="Online-Deals" transform="translate(693.000000, 521.000000)">
                    <g id="Desktop" transform="translate(6.142857, 0.000000)">
                        <polygon id="Rectangle-13" fill="#CFCFCF" points="17.6001169 36.0386813 29.8296236 36.0386813 31.358312 42.8736036 16.0714286 42.8736036"></polygon>
                        <rect id="Rectangle-14" fill="#ECECEC" x="14.2571203" y="42.4777057" width="18.9557354" height="1.24271315"></rect>
                        <path d="M0,33.553255 L47.6896892,33.553255 L47.6896892,36.0386813 C47.6896892,37.4113443 46.5810587,38.5241076 45.2094932,38.5241076 L2.48019608,38.5241076 C1.11042161,38.5241076 0,37.4209143 0,36.0386813 L0,33.553255 Z" id="Rectangle-15" fill="#E5E5E5"></path>
                        <path d="M0,3.08150691 C0,1.37963764 1.37582854,0 3.07400634,0 L44.6156829,0 C46.3134097,0 47.6896892,1.37788135 47.6896892,3.08150691 L47.6896892,33.553255 L0,33.553255 L0,3.08150691 Z" id="Rectangle-16" fill="#CFCFCF"></path>
                        <polygon id="Rectangle-17" fill="#ECECEC" points="1.87951807 2.12560386 45.9003553 2.12560386 45.9003553 31.3293628 1.87951807 31.3293628"></polygon>
                    </g>
                    <g id="Cart" transform="translate(24.000000, 17.416667)" fill="#F69A98">
                        <path d="M10.3628468,7.55961905 C10.6965726,7.55961905 10.9831935,7.32746667 11.0422742,7.00982857 L11.5540403,4.29272381 C11.6258952,3.9063619 11.3448629,3.54262857 10.9424758,3.5032381 L3.18295161,2.74392381 C3.14303226,2.74057143 3.10231452,2.74392381 3.06159677,2.74727619 L2.74942742,1.16579048 C2.72787097,1.06102857 2.67198387,0.975542857 2.59693548,0.91352381 C2.58735484,0.904304762 2.57857258,0.890895238 2.56579839,0.884190476 C2.55941129,0.880838095 2.55302419,0.877485714 2.54424194,0.874133333 C2.50671774,0.848152381 2.46919355,0.822171429 2.42208871,0.805409524 L0.576217742,0.232990476 C0.348677419,0.160914286 0.108362903,0.298361905 0.0397016129,0.540571429 C-0.0289596774,0.779428571 0.101975806,1.03169524 0.332709677,1.10377143 L1.95104032,1.60411429 L3.43923387,9.1344 C3.45759677,9.22575238 3.50789516,9.30118095 3.56697581,9.3632 L3.56697581,9.3632 C3.6045,9.3992381 3.64202419,9.42857143 3.68833065,9.44868571 C3.70110484,9.45539048 3.71068548,9.45874286 3.72266129,9.46460952 C3.75699194,9.47801905 3.79132258,9.48472381 3.82884677,9.48807619 C3.84481452,9.48807619 3.85679032,9.49729524 3.86956452,9.49729524 L10.2566613,9.49478095 C10.4937823,9.49478095 10.6869919,9.29112381 10.6869919,9.04220952 C10.6869919,8.79413333 10.4937823,8.59047619 10.2566613,8.59047619 L4.20967742,8.59382857 L4.0068871,7.56632381 L10.3628468,7.56632381 L10.3628468,7.55961905 Z" id="Path"></path>
                        <path d="M4.29670161,10.7158857 C4.29670161,11.114819 4.60567742,11.4391619 4.98570968,11.4391619 C5.36654032,11.4391619 5.67551613,11.114819 5.67551613,10.7158857 C5.67551613,10.3161143 5.36654032,9.99177143 4.98570968,9.99177143 C4.60567742,9.99177143 4.29670161,10.3161143 4.29670161,10.7158857 Z" id="Path"></path>
                        <path d="M8.39801613,10.7158857 C8.39801613,11.114819 8.70619355,11.4391619 9.08702419,11.4391619 C9.46785484,11.4391619 9.77603226,11.114819 9.77603226,10.7158857 C9.77603226,10.3161143 9.46785484,9.99177143 9.08702419,9.99177143 C8.70619355,9.99177143 8.39801613,10.3161143 8.39801613,10.7158857 Z" id="Path"></path>
                    </g>
                    <g id="online-store" transform="translate(0.000000, 5.365854)" fill="#FBCFCE">
                        <g id="Group" transform="translate(0.000000, 0.297822)">
                            <g transform="translate(0.000010, 0.053200)">
                                <path d="M51.2307592,8.03312412 L59.99999,8.03312412 C59.0276627,9.51722212 57.0933132,10.3671321 54.989001,10.1581241 C53.3738139,9.99779612 52.0212929,9.19718812 51.2307592,8.03312412 Z" id="Path"></path>
                                <path d="M42.7384403,8.03312412 L49.1999787,8.03312412 C48.7021706,9.12634262 47.4015494,9.86645745 45.8989754,9.86645745 C44.4651836,9.86645745 43.257004,9.12323145 42.7384403,8.03312412 Z" id="Path"></path>
                                <path d="M35.1230557,8.03312412 L40.7076598,8.03312412 C40.7076598,8.94979079 39.2307592,9.86645745 38.3076823,9.86645745 C37.0264398,9.86645745 35.5906138,9.22233212 35.1230557,8.03312412 Z" id="Path"></path>
                                <path d="M19.2923202,8.03312412 L19.4042083,8.03312412 L24.8307818,8.03312412 C24.4615285,8.94979079 22.8742149,10.0655391 21.5300825,9.80916579 C20.5395236,9.62010329 19.7150711,8.96252145 19.2923202,8.03312412 Z" id="Path"></path>
                                <path d="M26.8615059,8.03312412 L26.9873801,8.03312412 L33.0922752,8.03312412 C32.6768652,8.9506175 30.8911375,10.0673721 29.3789884,9.81076755 C28.2646097,9.62153454 27.3371007,8.96335965 26.8615059,8.03312412 Z" id="Path-Copy-2"></path>
                                <path d="M10.8922864,8.03312412 L17.1684371,8.03312412 C16.5684471,9.21620012 15.3995105,10.0331241 14.0303617,10.0331241 C12.6709527,10.0331241 11.4827059,9.24580012 10.8922864,8.03312412 Z" id="Path"></path>
                                <path d="M0,8.03312412 L8.76922077,8.03312412 C7.84614385,8.94979079 5.40466397,10.2191163 2.99595142,9.69815359 C1.71690494,9.42157956 0.687515984,8.81879572 0,8.03312412 Z" id="Path"></path>
                                <path d="M49.5188285,1.39972548e-08 L51.0878661,1.39972548e-08 L54.2887029,1.39972548e-08 C54.3282678,-0.000299986003 54.3849038,0.051926014 54.4142259,0.062500014 L56.1715481,2.56250001 C56.2430661,2.71063801 56.3519397,2.84072361 56.4853556,2.93750001 L60,8.00000001 L52.4686192,8.00000001 L51.2133891,8.00000001 L49.5188285,1.39972548e-08 Z" id="Path"></path>
                                <polygon id="Path" points="41.9874477 1.39974645e-08 46.6945607 1.39974645e-08 47.4476987 1.39974645e-08 49.2050209 8.00000001 42.7405858 8.00000001"></polygon>
                                <polygon id="Path" points="34.3305439 1.39974645e-08 39.916318 1.39974645e-08 40.6694561 8.00000001 35.1464435 8.00000001"></polygon>
                                <polygon id="Path" points="27.7405858 1.39974645e-08 32.2594142 1.39974645e-08 33.0753138 8.00000001 26.9246862 8.00000001"></polygon>
                                <polygon id="Path" points="20.083682 1.39974645e-08 25.6694561 1.39974645e-08 24.8535565 8.00000001 19.3305439 8.00000001"></polygon>
                                <polygon id="Path" points="12.5523013 1.39974645e-08 18.0125523 1.39974645e-08 17.2594142 8.00000001 10.7949791 8.00000001"></polygon>
                                <path d="M5.71129707,1.39967654e-08 L10.4811715,1.39967654e-08 L8.78661088,8.00000001 L7.53138075,8.00000001 L0,8.00000001 L5.58577406,0.062500014 C5.61509623,0.051925014 5.67173222,-0.000299986003 5.71129707,1.39967654e-08 Z" id="Path"></path>
                            </g>
                        </g>
                    </g>
                </g>
            </g>
        </g>
    </g>
</svg>