<?xml version="1.0" encoding="UTF-8"?>
<svg width="68px" height="68px" viewBox="0 0 68 68" version="1.1" xmlns="http://www.w3.org/2000/svg" xmlns:xlink="http://www.w3.org/1999/xlink">
    <!-- Generator: Sketch 42 (36781) - http://www.bohemiancoding.com/sketch -->
    <title>Search Deal</title>
    <desc>Created with Sketch.</desc>
    <defs></defs>
    <g id="Page-1" stroke="none" stroke-width="1" fill="none" fill-rule="evenodd">
        <g id="Student-Page-Final---6th-Feb" transform="translate(-807.000000, -1919.000000)">
            <g id="Student-Verification" transform="translate(115.000000, 1658.000000)">
                <g id="Search-Deal" transform="translate(706.000000, 269.000000)">
                    <g id="Coupon" transform="translate(16.500000, 26.000000) rotate(90.000000) translate(-16.500000, -26.000000) translate(-9.500000, 9.500000)" fill-rule="nonzero">
                        <path d="M14.2536547,0.466666667 L2.51456309e-14,0.466666667 L8.37763005e-13,6.6228461 C4.25635911,7.6408317 7.31757689,11.7429924 7.31757689,16.4987931 C7.31757689,21.2557169 4.25657871,25.3583033 1.0011138e-14,26.3763488 L-2.8575092e-17,32.5333333 L52,32.5333333 L52,25.6542681 C48.2834154,24.1173541 45.6822076,20.5752818 45.6822076,16.4512673 C45.6822076,12.3272529 48.2834154,8.78518049 52,7.24826653 L52,0.466666667 L37.7463453,0.466666667 C36.6092141,5.91150455 31.783048,10 26,10 C20.216952,10 15.3907859,5.91150455 14.2536547,0.466666667 Z" id="Combined-Shape" fill="#ECECEC"></path>
                        <polygon id="Shape" fill="#F69A98" points="22.2857143 12.8 22.2857143 20.2 24.1428571 20.2 24.1428571 12.8"></polygon>
                        <polygon id="Shape" fill="#F69A98" points="22.2857143 25.1333333 22.2857143 32.5333333 24.1428571 32.5333333 24.1428571 25.1333333"></polygon>
                    </g>
                    <g id="searchbottom2" transform="translate(25.000000, 16.000000)">
                        <path d="M26.9493417,24.3210543 L26.2051254,23.5675353 C25.3733542,24.7199761 24.3226959,25.739443 23.1844828,26.6259359 L23.9286991,27.3794549 C24.3226959,27.7783768 24.8918025,28 25.4171317,28 C25.9424608,28 26.5115674,27.7783768 26.9055643,27.3794549 C27.7811129,26.5372866 27.7811129,25.1632226 26.9493417,24.3210543 L26.9493417,24.3210543 Z" id="Shape" fill="#CFCFCF"></path>
                        <path d="M25.5582915,22.9064737 L19.079232,16.3907506 C18.2036834,17.5431914 17.1968025,18.5626583 16.0585893,19.4491513 L22.4938715,25.9648744 C23.7196395,25.1227061 24.7265204,24.1032392 25.5582915,22.9064737 L25.5582915,22.9064737 Z" id="Shape" fill="#CFCFCF"></path>
                        <path d="M20,10 C20,4.47619048 15.5238095,0 10,0 C4.47619048,0 0,4.47619048 0,10 C0,15.5238095 4.47619048,20 10,20 C15.5238095,20 20,15.5238095 20,10 L20,10 Z" id="Shape" fill="#FCC9C8"></path>
                        <path d="M10,19 C5.03225806,19 1,14.9677419 1,10 C1,5.03225806 5.03225806,1 10,1 C14.9677419,1 19,5.03225806 19,10 C19,14.9677419 14.9677419,19 10,19 L10,19 Z" id="Path" fill="#FBCFCE"></path>
                    </g>
                </g>
            </g>
        </g>
    </g>
</svg>