<svg width="171" height="143" viewBox="0 0 171 143" xmlns="http://www.w3.org/2000/svg"><title>Shopping</title><g fill="none" fill-rule="evenodd"><path d="M146.342 40.215c-6.118 4.787-9.167-2.185-9.41-8.045-.332-7.887.172-20.497-8.436-24.385-8.25-3.727-19.63 2.293-18.954 11.757l-.73 19.497c8.63 6.357 19.502 20.174 31.82 12.552 3.32-2.054 6.5-7.417 5.71-11.377" fill="#3E4551"/><path fill="#FBCFCE" d="M111.55 135.792l1.432-51.157 1.802 51.157h2.244l2.736-58.025h-12.876l2.04 58.025h2.62"/><path fill="#AAA" d="M112.08 135.792l-.56-3.333-1.825-.725-5.328 4.057h7.714M121.96 135.792l-5.327-4.057-1.826.724-.56 3.332h7.712"/><path d="M131.006 42.378c2.91-7.203 2.14-16.037-3.906-20.283-5.777-4.06-15.155-5.296-20.45-3.924-9.888 2.562-14.954 9.937-12.394 23.873 12.22-1.012 24.697-1.665 36.75.335" fill="#3E4551"/><path d="M120.663 53.065c3.46-.96 6.366-2.633 8.298-4.743 1.17-.014 2.618-1.26 3.503-3.132 1.056-2.232.913-4.505-.316-5.076-.283-.132-2.792-.157-3.124-.098-1.55-5.434-8.724-9.544-17.346-9.544-7.698 0-12.05 3.28-14.468 7.85-.427-.338-.89-.506-1.353-.437-1.343.196-2.15 2.267-1.797 4.624.35 2.358 1.722 4.11 3.067 3.915.075-.01.15-.03.222-.053 1.664 2.927 5.04 5.29 7.85 6.564l-11.207 31.03 12.91-23.375 13.316.023 16.13 21.51-15.687-29.058" fill="#FBCFCE"/><path d="M108.797 77.027l-2.625-17.885s4.86-3.083 6.62-3.114c1.954-.033 7.427 3.114 7.427 3.114l-2.995 17.803-8.428.082" fill="#F69A98"/><path d="M106.255 40.502c0 .927-.7 1.68-1.562 1.68-.863 0-1.563-.753-1.563-1.68 0-.928.7-1.68 1.563-1.68.86 0 1.562.752 1.562 1.68M117.313 41.25c0 .926-.698 1.68-1.56 1.68-.863 0-1.562-.754-1.562-1.68 0-.93.7-1.682 1.563-1.682.862 0 1.56.753 1.56 1.68" fill="#201711"/><path d="M106.165 102.293s-12.537-26.298 8.117-25.703c18.065.522 6.976 25.948 6.976 25.948s-6.816 2.698-15.093-.245" fill="#F1F1F1"/><path d="M90.157 86.882c2.347-3.044 3.71-3.352 4.39-3.17 1.18.32 1.954 2.363 2.406 4.708l-6.796-1.538zm-6.406-1.45L72.297 115.6l27.983 6.07 2.793-31.865L98.5 88.77c-.47-2.812-1.47-5.91-3.576-6.478-1.787-.484-3.873.91-6.327 4.236l-4.846-1.096z" fill="#F69A98"/><path fill="#CFCFCF" d="M139.6 112.917l22.64-12.876-14.607-22.44-16.798 7.358 8.764 27.96"/><path d="M132.506 86.812c.16-3.853 1.094-4.9 1.752-5.147 1.146-.43 2.952.782 4.67 2.428l-6.422 2.72zm-6.053 2.56l8.034 31.27 26.29-11.404-16.066-27.59-4.32 1.827c-2.003-2.015-4.598-3.956-6.642-3.19-1.734.652-2.632 3.006-2.716 7.15l-4.58 1.937z" fill="#FBCFCE"/><path d="M71.12 87.294c.453-2.346 1.226-4.39 2.41-4.707.678-.184 2.04.125 4.39 3.168l-6.8 1.54zm8.36-1.892c-2.456-3.327-4.542-4.72-6.33-4.237-2.107.57-3.103 3.667-3.577 6.48l-4.57 1.033 2.793 31.865 27.984-6.07-11.456-30.168-4.845 1.097z" fill="#ECECEC"/><path fill="#FBCFCE" d="M31.032 114.365L8.392 101.49 23 79.05l16.796 7.357-8.764 27.958M52.976 135.792l1.457-52.038 1.825 51.81h2.192l2.92-61.954H48.225l2.186 62.182h2.566"/><path fill="#AAA" d="M53.68 135.792l-.708-4.214-1.825-.724-6.69 4.938h9.223M65.314 135.792l-7.23-4.938-1.826.724-.707 4.214h9.764"/><path d="M49.92 19.266c-10.158 2.63-22.144 10.922-18.99 25.712 3.838 17.977 33.8 19.545 46.024 6.557 8.496-9.026-2.127-23.164-10.076-28.75-5.78-4.057-11.664-4.89-16.96-3.52" fill="#3E4551"/><path d="M70.413 47.442c1.17-.016 2.616-1.26 3.502-3.133 1.055-2.233.912-4.506-.317-5.077-.283-.132-2.792-.157-3.124-.098-1.55-5.434-8.723-9.543-17.345-9.543-7.7 0-12.052 3.278-14.47 7.85-.426-.34-.89-.507-1.35-.437-1.345.195-2.15 2.265-1.8 4.623.35 2.36 1.723 4.112 3.068 3.917.075-.012.15-.03.223-.053 1.665 2.926 5.04 5.29 9.31 6.563l-11.205 31.03L48.353 61.18l12.587-1.45 12.48 23.716-11.306-31.264c3.462-.96 6.366-2.633 8.3-4.742z" fill="#FBCFCE"/><path d="M51.608 47.728c-.796 0-1.73-.27-2.75-1.077-.125-.1-.148-.285-.048-.413.1-.13.283-.15.41-.05 2.634 2.088 4.535.114 4.615.03.11-.12.295-.124.413-.013.117.112.124.298.013.417-.014.018-1.05 1.108-2.652 1.108M110.732 48.53c-.796 0-1.73-.27-2.75-1.076-.126-.1-.148-.287-.05-.415.102-.13.284-.152.412-.05 2.634 2.088 4.535.114 4.615.03.11-.12.294-.125.412-.013.117.11.123.298.013.416-.015.017-1.052 1.108-2.653 1.108" fill="#F27674"/><path d="M50.248 76.146L47.623 58.26s4.86-3.082 6.62-3.113c1.954-.033 7.427 3.114 7.427 3.114l-2.993 17.804-8.43.082" fill="#CFCFCF"/><path d="M47.705 39.622c0 .926-.7 1.68-1.56 1.68-.863 0-1.563-.754-1.563-1.68 0-.93.7-1.68 1.562-1.68.86 0 1.56.75 1.56 1.68M58.764 40.368c0 .927-.698 1.68-1.56 1.68-.862 0-1.562-.753-1.562-1.68 0-.928.7-1.68 1.562-1.68.862 0 1.56.752 1.56 1.68" fill="#201711"/><path d="M32.888 108.446s2.19-33.33 22.846-32.737C73.8 76.23 79.63 106.27 79.63 106.27s-14.608 10.146-46.742 2.174" fill="#F69A98"/><path fill="#AAA" d="M48.225 77.288H61.37v-5.072H48.225"/><path d="M69.77 32.362c.844-.54 3.448-2.647 2.03-3.747-1.114-.864-4.015 1.555-3.858 2.504.02-1.23-.406-4.046-2.096-3.095-1.19.67-.645 3.91.118 4.875-.858-1.374-4.23-1.225-4.507.2-.48 2.478 3.365 2.576 4.882 1.702-1.022 1.195-2.555 3.172-1.08 4.214.145.1 1.63.112 1.815.013.476-.253.905-.987 1.086-1.674.14 1.14.666 2.446 1.706 2.33 2.12-.24 1.363-4.22.578-5.144 1.04.94 2.98.813 3.272-.518.498-2.276-2.507-2.64-3.947-1.662" fill="#EF5350"/><path d="M31.702 85.542c1.72-1.646 3.525-2.86 4.67-2.427.66.247 1.592 1.293 1.753 5.145l-6.423-2.718zm7.897 3.342c-.085-4.145-.983-6.498-2.717-7.15-2.044-.766-4.64 1.174-6.644 3.19l-4.32-1.828-16.067 27.59 26.29 11.405 8.035-31.268-4.58-1.938z" fill="#ECECEC"/></g></svg>