<svg width="124" height="152" viewBox="0 0 124 152" xmlns="http://www.w3.org/2000/svg"><title>Travel</title><g fill="none" fill-rule="evenodd"><path d="M76.31 47.525c-.142 5.807-32.374 5.23-32.374 0V21.62l32.465.633c-.03.044.067 19.538-.09 25.272" fill="#666"/><path fill="#FBCFCE" d="M57.444 42.11h5.522v-4.38h-5.522M64.048 93.525c-1.273 0-2.306-1.037-2.306-2.315V73.353h-2.345V91.21c0 1.278-1.032 2.315-2.307 2.315-1.276 0-2.308-1.037-2.308-2.315V71.04c0-1.28 1.032-2.315 2.308-2.315h6.958c1.275 0 2.31 1.036 2.31 2.315v20.17c0 1.278-1.035 2.315-2.31 2.315"/><path d="M55.345 46.018c-.736 0-1.46-.353-1.908-1.008l-14.73-21.62c-.72-1.056-.45-2.495.603-3.218 1.052-.722 2.488-.45 3.207.605L57.247 42.4c.72 1.053.45 2.494-.603 3.215-.398.275-.85.403-1.3.403M65.63 46.018c-.44 0-.887-.125-1.28-.392-1.06-.712-1.342-2.15-.633-3.21l16.448-24.6c.71-1.06 2.145-1.345 3.203-.633 1.058.713 1.34 2.15.63 3.213L67.553 44.994c-.448.666-1.177 1.024-1.92 1.024" fill="#AAA"/><path fill="#FBCFCE" d="M67.2 40.568l-1.238 17.99H55.625l-.99-17.99"/><path d="M69.26 76.386c-1.98 1.874-14.546 1.738-17.363.22l2.78-16.19-1.215-19.848c3.05.767 6.87 11.307 6.87 11.307s4.23-9.687 6.867-11.307l-.797 19.56 2.858 16.258" fill="#AAA"/><path fill="#E5E5E5" d="M67.2 40.568h-4.234l-2.635 9.487-2.886-9.63-3.982.143 7.03 12.826L67.2 40.568"/><path d="M76.172 23.352c0 8.9-7.194 16.117-16.068 16.117-8.873 0-16.066-7.218-16.066-16.118 0-8.9 7.193-16.117 16.066-16.117 8.874 0 16.068 7.216 16.068 16.117" fill="#FBCFCE"/><path d="M55.307 23.76c0 .93-.75 1.68-1.674 1.68-.924 0-1.672-.75-1.672-1.68 0-.925.75-1.677 1.673-1.677.925 0 1.674.752 1.674 1.678M68.102 23.76c0 .93-.75 1.68-1.676 1.68-.923 0-1.672-.75-1.672-1.68 0-.925.75-1.677 1.672-1.677.926 0 1.676.752 1.676 1.678" fill="#3E4551"/><path d="M62.224 27.12c0 .927-1.066 1.68-2.38 1.68-1.314 0-2.38-.753-2.38-1.68 0-.926 1.066-1.68 2.38-1.68 1.314 0 2.38.754 2.38 1.68" fill="#F69A98"/><path d="M60.235 33.86c-1.62 0-3.522-.545-5.59-2.176-.262-.204-.308-.578-.102-.838.202-.26.575-.304.833-.1 5.362 4.22 9.228.232 9.39.058.226-.237.603-.248.84-.024.24.227.253.602.028.842-.03.035-2.143 2.237-5.4 2.237" fill="#AAA"/><path d="M76.32 23.352c-6.757-1.144-9.098-5.57-10.19-8.357-2.38 3.283-8.798 3.656-11.79 3.656-8.956 0-10.452 13.686-10.452 4.702s7.26-16.266 16.216-16.266c8.956 0 16.217 7.282 16.217 16.266" fill="#666"/><path fill="#2D2119" d="M30.38 93.974h14.656V84.55H30.38"/><path d="M42.768 117.12c-1.64 0-2.968-1.332-2.968-2.975V86.933h-4.23v27.212c0 1.643-1.33 2.975-2.967 2.975-1.64 0-2.966-1.332-2.966-2.975v-30.19c0-1.643 1.327-2.974 2.966-2.974h10.165c1.638 0 2.966 1.332 2.966 2.975v30.19c0 1.643-1.328 2.975-2.966 2.975" fill="#AAA"/><path d="M43.167 65.11h-10.88c-1.076 0-2.08-.555-2.65-1.47L13.48 37.847c-.92-1.47-.478-3.41.987-4.33 1.46-.924 3.395-.48 4.317.99l15.23 24.32h7.338l14.096-24.55c.864-1.502 2.78-2.02 4.278-1.153 1.5.864 2.015 2.787 1.152 4.29l-15 26.122c-.56.973-1.595 1.573-2.713 1.573" fill="#CFCFCF"/><path fill="#FBCFCE" d="M39.827 56.53v-2.153h-5.52v2.152h-3.314v17.99h12.562V56.53h-3.728"/><path d="M45.844 83.724H29.56l.443-27.195h4.305s.58 3.354 2.686 3.354c2.133 0 2.833-3.355 2.833-3.355h5.376l.64 27.194" fill="#CFCFCF"/><path d="M52.88 39.186c0 8.76-7.08 15.862-15.813 15.862-8.735 0-15.814-7.1-15.814-15.862 0-8.76 7.08-15.862 15.814-15.862 8.733 0 15.814 7.1 15.814 15.862" fill="#FBCFCE"/><path d="M32.344 39.59c0 .912-.736 1.653-1.648 1.653-.91 0-1.646-.74-1.646-1.654 0-.914.737-1.652 1.646-1.652.912 0 1.648.738 1.648 1.65M44.94 39.59c0 .912-.74 1.653-1.65 1.653-.91 0-1.648-.74-1.648-1.654 0-.914.74-1.652 1.65-1.652.908 0 1.647.738 1.647 1.65" fill="#3E4551"/><path d="M39.154 42.894c0 .913-1.048 1.654-2.343 1.654-1.292 0-2.342-.74-2.342-1.654 0-.912 1.05-1.65 2.343-1.65 1.296 0 2.344.738 2.344 1.65" fill="#F69A98"/><path d="M37.197 50.116c-1.596 0-3.467-.536-5.507-2.142-.254-.2-.3-.57-.1-.825.2-.257.57-.3.823-.1 5.277 4.153 9.08.23 9.24.06.224-.235.595-.246.83-.025.235.22.246.592.026.83-.03.03-2.11 2.2-5.313 2.2" fill="#AAA"/><path d="M53.026 39.186c-1.71-.29-6.895-5.242-7.335-7.3-2.304 1.243-3.66 2.206-7.173 3.233-.052-3.38-.084-3.23-.993-5.582-1.936 5.14-12.185 9.06-16.418 9.648 0-8.843 7.146-16.01 15.96-16.01 8.815 0 15.96 7.167 15.96 16.01" fill="#3E4551"/><path d="M39.285 114.145c0-1.757 1.55-3.184 3.462-3.184 1.912 0 3.46 1.428 3.46 3.185 0 1.758-1.548 3.182-3.46 3.182-1.913 0-3.462-1.424-3.462-3.182M29.16 114.145c0-1.757 1.55-3.184 3.463-3.184 1.912 0 3.46 1.428 3.46 3.185 0 1.758-1.548 3.182-3.46 3.182s-3.462-1.424-3.462-3.182" fill="#275897"/><path fill="#2D2119" d="M78.38 94.1h14.654v-9.424H78.38"/><path d="M90.765 117.247c-1.637 0-2.967-1.332-2.967-2.976V87.06h-4.232v27.21c0 1.645-1.327 2.977-2.965 2.977s-2.966-1.332-2.966-2.976V84.083c0-1.643 1.328-2.975 2.967-2.975h10.165c1.64 0 2.967 1.332 2.967 2.975v30.19c0 1.643-1.328 2.975-2.967 2.975" fill="#CFCFCF"/><path d="M91.23 63.604h-.002l-11.07-.01c-1.032 0-1.994-.51-2.58-1.362L61.767 39.125c-.98-1.43-.617-3.386.81-4.367 1.424-.983 3.374-.62 4.354.81l14.88 21.747 7.705.005 13.808-21.716c.93-1.462 2.867-1.893 4.323-.958 1.46.934 1.888 2.874.957 4.337l-14.73 23.17c-.577.904-1.573 1.45-2.642 1.45" fill="#F69A98"/><path fill="#FBCFCE" d="M87.826 56.654v-2.15h-5.522v2.15H78.99v17.99h12.563v-17.99h-3.727"/><path d="M93.842 83.85H77.558l-.216-27.196h4.962s.583 3.356 2.69 3.356c2.13 0 2.832-3.356 2.832-3.356h6.364l-.348 27.195" fill="#F69A98"/><path d="M100.878 39.312c0 8.762-7.08 15.862-15.812 15.862-8.735 0-15.814-7.1-15.814-15.862 0-8.76 7.08-15.862 15.814-15.862 8.733 0 15.812 7.1 15.812 15.862" fill="#FBCFCE"/><path d="M80.343 39.716c0 .914-.738 1.653-1.648 1.653-.91 0-1.646-.74-1.646-1.654 0-.912.736-1.652 1.645-1.652.91 0 1.648.74 1.648 1.652M92.936 39.716c0 .914-.738 1.653-1.648 1.653-.91 0-1.646-.74-1.646-1.654 0-.912.735-1.652 1.646-1.652.91 0 1.648.74 1.648 1.652" fill="#3E4551"/><path d="M87.152 43.02c0 .913-1.05 1.653-2.343 1.653-1.295 0-2.344-.74-2.344-1.653 0-.912 1.05-1.65 2.343-1.65 1.292 0 2.342.738 2.342 1.65" fill="#F69A98"/><path d="M85.194 50.242c-1.595 0-3.468-.537-5.506-2.142-.254-.2-.298-.57-.1-.825.2-.256.568-.298.823-.1 5.278 4.154 9.083.23 9.243.06.223-.233.594-.245.828-.024.236.222.248.592.028.83-.03.034-2.11 2.202-5.314 2.202" fill="#AAA"/><path d="M101.025 39.312c-1.71-.29-6.897-5.242-7.335-7.298-2.307 1.24-3.66 2.204-7.176 3.23-.05-3.377-.083-3.228-.993-5.58-1.936 5.14-12.185 9.062-16.417 9.648 0-8.842 7.147-16.01 15.963-16.01 8.814 0 15.96 7.168 15.96 16.01" fill="#4B515D"/><path d="M87.283 114.27c0-1.757 1.55-3.182 3.462-3.182 1.912 0 3.46 1.425 3.46 3.183 0 1.76-1.548 3.183-3.46 3.183-1.913 0-3.462-1.424-3.462-3.182M77.16 114.27c0-1.757 1.55-3.182 3.46-3.182 1.913 0 3.462 1.425 3.462 3.183 0 1.76-1.55 3.183-3.46 3.183-1.913 0-3.463-1.424-3.463-3.182" fill="#EFAA2C"/><path d="M35.963 140.21c0 2.596-2.1 4.703-4.69 4.703h-7.422c-2.59 0-4.688-2.107-4.688-4.703v-15.678c0-2.598 2.1-4.704 4.69-4.704h7.422c2.59 0 4.69 2.106 4.69 4.704v15.678M88.894 140.21c0 2.596 2.098 4.703 4.687 4.703h7.425c2.59 0 4.69-2.107 4.69-4.703v-15.678c0-2.598-2.1-4.704-4.69-4.704H93.58c-2.588 0-4.686 2.106-4.686 4.704v15.678" fill="#3E4551"/><path fill="#AAA" d="M103.873 90.22l4.737-3.776-2.193-2.767-4.74 3.774 2.196 2.77"/><path d="M104.96 82.502c0 3.07 2.483 5.56 5.544 5.56 3.064 0 5.546-2.49 5.546-5.56 0-3.072-2.482-5.563-5.546-5.563-3.06 0-5.544 2.49-5.544 5.562M20.983 90.22l-4.736-3.776 2.193-2.767 4.736 3.774-2.193 2.77" fill="#AAA"/><path d="M19.896 82.502c0 3.07-2.484 5.56-5.544 5.56-3.064 0-5.546-2.49-5.546-5.56 0-3.072 2.482-5.563 5.546-5.563 3.06 0 5.544 2.49 5.544 5.562" fill="#AAA"/><path d="M27.225 89.405c.078-1.49 1.418-18 7.092-24.726 3.91-4.636 19.915-6.672 28.18-6.672s24.27 2.036 28.182 6.67c5.672 6.728 7.012 23.237 7.09 24.727.79.14-71.69.204-70.545 0zM95.627 61.71c-5.24-6.212-24.518-8.4-32.89-8.4S34.602 55.5 29.36 61.71c-5.862 6.95-7.996 21.257-8.603 29.446.31-.095 42.42 0 42.42 0s40.1-.29 41.054 0c-.606-8.19-2.74-22.497-8.603-29.446z" fill="#ECECEC"/><path d="M73.31 89c10.37.418 20.745 2.596 31.115 4.695-.02-.387-.08-1.442-.194-2.98-1.948-.596-12.963-6.023-41.713-6.023s-39.81 5.427-41.76 6.023c-.124 1.658-.183 2.757-.198 3.06-.802.263-1.564.598-2.29.995 17.854-5.136 36.555-6.424 55.04-5.77" fill="#ECECEC"/><path d="M113.904 106.52c-.163-5.96-4.084-10.974-9.474-12.744 0-.022-.003-.05-.005-.08-10.37-2.1-20.744-4.278-31.115-4.695-18.485-.654-37.186.634-55.04 5.77-4.18 2.283-7.048 6.673-7.185 11.75l-.01.013v17.494l51.395 1.54h.047l51.394-1.54v-17.494l-.006-.013" fill="#ECECEC"/><path d="M116.336 121.595H8.652c-1.46 0-2.644 1.188-2.644 2.654v5.52c0 1.467 1.184 2.654 2.644 2.654h107.684c1.46 0 2.642-1.187 2.642-2.653v-5.52c0-1.467-1.183-2.655-2.642-2.655" fill="#AAA"/><path d="M92.927 106.298c0 4.177 3.376 7.563 7.54 7.563s7.543-3.385 7.543-7.562c0-4.178-3.38-7.565-7.542-7.565-4.165 0-7.54 3.387-7.54 7.565" fill="#F69A98"/><path d="M100.468 100.387c-3.25 0-5.893 2.652-5.893 5.91 0 3.26 2.644 5.912 5.893 5.912 3.25 0 5.892-2.653 5.892-5.912 0-3.26-2.643-5.91-5.892-5.91zm0 15.13c-5.067 0-9.19-4.136-9.19-9.22 0-5.083 4.123-9.217 9.19-9.217 5.067 0 9.19 4.134 9.19 9.218 0 5.083-4.123 9.218-9.19 9.218zM18.68 106.298c0 4.177 3.375 7.563 7.54 7.563s7.542-3.385 7.542-7.562c0-4.178-3.377-7.565-7.542-7.565s-7.54 3.387-7.54 7.565" fill="#F69A98"/><path d="M26.22 100.387c-3.25 0-5.892 2.652-5.892 5.91 0 3.26 2.642 5.912 5.892 5.912 3.25 0 5.892-2.653 5.892-5.912 0-3.26-2.643-5.91-5.892-5.91zm0 15.13c-5.067 0-9.188-4.136-9.188-9.22 0-5.083 4.12-9.217 9.188-9.217 5.067 0 9.19 4.134 9.19 9.218 0 5.083-4.123 9.218-9.19 9.218z" fill="#F69A98"/><path d="M46.563 102.297h31.86c.854 0 1.544-.692 1.544-1.548 0-.855-.69-1.547-1.543-1.547h-31.86c-.853 0-1.542.692-1.542 1.546 0 .855.69 1.547 1.54 1.547M78.424 104.433h-31.86c-.853 0-1.542.693-1.542 1.547s.69 1.548 1.54 1.548h31.862c.853 0 1.543-.694 1.543-1.548 0-.854-.69-1.547-1.543-1.547M78.424 109.663h-31.86c-.853 0-1.542.693-1.542 1.548 0 .854.69 1.546 1.54 1.546h31.862c.853 0 1.543-.692 1.543-1.545 0-.854-.69-1.547-1.543-1.547M77.572 119.922H47.415c-1.46 0-2.644 1.187-2.644 2.652v8.598c0 1.464 1.184 2.65 2.645 2.65h30.157c1.46 0 2.644-1.186 2.644-2.65v-8.598c0-1.465-1.184-2.652-2.644-2.652" fill="#CFCFCF"/></g></svg>