<?xml version="1.0" encoding="UTF-8"?>
<svg width="110px" height="69px" viewBox="0 0 110 69" version="1.1" xmlns="http://www.w3.org/2000/svg" xmlns:xlink="http://www.w3.org/1999/xlink">
    <!-- Generator: Sketch 41.1 (35376) - http://www.bohemiancoding.com/sketch -->
    <title>Merchant+Bills</title>
    <desc>Created with Sketch.</desc>
    <defs></defs>
    <g id="Page-1" stroke="none" stroke-width="1" fill="none" fill-rule="evenodd">
        <g id="Merchant+Bills">
            <g id="Bills" transform="translate(91.500000, 48.000000) rotate(9.000000) translate(-91.500000, -48.000000) translate(76.000000, 29.000000)">
                <path d="M3.72,38 C1.59514187,38 1.56319402e-13,36.4021631 1.56319402e-13,34.2622951 L1.56319402e-13,3.73770492 C1.56319402e-13,1.59923482 1.59514187,-3.0375702e-13 3.72,-3.0375702e-13 L27.28,-3.0375702e-13 C29.4048581,-3.0375702e-13 31,1.59923482 31,3.73770492 L31,34.2622951 C31,36.4021631 29.4048581,38 27.28,38 L3.72,38" id="Fill-1976" fill="#ECECEC"></path>
                <path d="M18.1088577,19 L10.0263617,19 L9,20.4412076 L13.9983825,20.4412077 C15.2554807,20.4412077 15.2789732,21.1182862 15.7210272,21.8616844 L9.61879352,21.8616844 L9,23.3271169 L15.7210272,23.3271169 C15.2789732,24.0705152 14.2177152,24.7488386 12.9797177,24.7488386 L10.0263617,24.7488386 C12.5023568,27.2269286 14.72052,29.5221976 17.3135285,32 L20.1873446,32 L14.1318087,26.1320905 C16.5629526,26.1320905 17.5782288,24.9377173 18.1088578,23.3271169 L21.3163409,23.3170228 L22,21.8791152 L18.1088577,21.8616844 C18.0211038,21.4279396 17.6373066,20.8129068 17.2850901,20.4412077 L21.3163409,20.4412076 L22,19 L18.1088577,19 Z" id="Shape" fill="#F27674"></path>
                <text id="BILLS" font-family="Lato-Black, Lato" font-size="8.8" font-weight="700" letter-spacing="0.366666645" fill="#AAAAAA">
                    <tspan x="3.21153339" y="14">BILLS</tspan>
                </text>
            </g>
            <g id="Merchant">
                <g id="Body-House" transform="translate(2.000000, 27.000000)">
                    <path d="M60.6656837,2.86020011 C60.5727532,2.86425706 60.4784952,2.87507557 60.3802544,2.87507557 C58.4619036,2.87507557 56.7453447,1.98795728 55.5943342,0.599130308 C54.448634,1.9717295 52.7413682,2.84397234 50.8389483,2.84397234 C48.9511318,2.84397234 47.2558142,1.98254802 46.1087865,0.624824283 C44.957776,1.99877579 43.257148,2.86966631 41.3480903,2.86966631 C39.4244292,2.86966631 37.7078703,1.98254802 36.5621701,0.588311792 C35.4111596,1.96091099 33.7052214,2.84397234 31.7961636,2.84397234 C29.9083471,2.84397234 28.2130295,1.98254802 27.0673293,0.624824283 C25.9203016,1.99877579 24.2143633,2.86966631 22.3106159,2.86966631 C20.3922651,2.86966631 18.6757062,1.98254802 17.5246957,0.59372105 C16.3789955,1.96632024 14.6730573,2.83856308 12.7693098,2.83856308 C10.8814933,2.83856308 9.18617569,1.97713876 8.03914794,0.619415025 C6.89344777,1.99336653 5.18750952,2.86425706 3.28376208,2.86425706 L3.28376208,35.5267086 L0.312641592,35.5267086 L0.312641592,39.9055029 L63.6474248,39.9055029 L63.6474248,35.5267086 L60.6763044,35.5267086 L60.6763044,2.86020011 L60.6656837,2.86020011 Z" id="Fill-1" fill="#ECECEC"></path>
                    <polygon id="Path" fill="#CFCFCF" points="43.7549899 10.0964349 57.5857018 10.0964349 57.5857018 22.8798636 43.7549899 22.8798636"></polygon>
                    <polygon id="Path" fill="#CFCFCF" points="6.41684712 10.0964349 20.2528693 10.0964349 20.2528693 22.8798636 6.41684712 22.8798636"></polygon>
                    <polygon id="Path" fill="#CFCFCF" points="23.3846268 10.0964349 40.5608363 10.0964349 40.5608363 35.5375271 23.3846268 35.5375271"></polygon>
                </g>
                <g id="Shade">
                    <path d="M10.0497686,23.6003364 L10.0497686,22.6280223 C10.8741948,18.8875205 11.7145519,15.1483709 12.5495987,11.4132783 C13.3846455,7.6727765 14.230313,3.92821771 15.0600495,0.187715869 L7.551266,0.187715869 C6.38432458,3.92821771 5.20676253,7.6727765 4.0398211,11.4132783 C2.87287968,15.1537802 1.70062794,18.8929297 0.533686521,22.6334316 L0.528376208,22.6334316 L0.528376208,23.6003364 C0.528376208,26.2671005 2.67108776,28.4497361 5.28907239,28.4497361 C7.90838459,28.4497361 10.0497686,26.2671005 10.0497686,23.6003364 Z" id="Fill-2" fill="#F69A98"></path>
                    <path d="M19.5499878,23.6003364 L19.5800171,22.6280223 L21.0499878,11.4132783 L22.5599976,0.187715869 L15.0499878,0.187715869 L12.539978,11.4132783 L10.0300293,22.6334316 L10.0300293,23.6003364 C10.0300293,23.6003364 9.02815698,28.4497361 14.2890724,28.4497361 C19.5499878,28.4497361 19.5499878,23.6003364 19.5499878,23.6003364 Z" id="Fill-2-Copy" fill="#ECECEC"></path>
                    <path d="M54.7161732,23.6003364 L54.7462025,22.6280223 L56.2161732,11.4132783 L57.726183,0.187715869 L50.2161732,0.187715869 L47.7061634,11.4132783 L45.1962147,22.6334316 L45.1962147,23.6003364 C45.1962147,23.6003364 44.1943424,28.4497361 49.4552578,28.4497361 C54.7161732,28.4497361 54.7161732,23.6003364 54.7161732,23.6003364 Z" id="Fill-2-Copy-2" fill="#ECECEC" transform="translate(51.423089, 14.318726) scale(-1, 1) translate(-51.423089, -14.318726) "></path>
                    <path d="M67.1250196,22.484677 C65.9686988,18.7928584 64.8176883,15.0996876 63.6666778,11.4132783 C62.4997364,7.6727765 61.3221744,3.92821771 60.1512502,0.187715869 L52.6358288,0.187715869 C53.4708757,3.92821771 54.3165431,7.6727765 55.1462796,11.4132783 C55.9813264,15.1537802 56.8110629,18.8929297 57.6514201,22.6334316 L57.6620407,22.6334316 L57.6620407,23.5205498 C57.6620407,26.1886663 59.8034247,28.3699496 62.4227369,28.3699496 C65.0407215,28.3699496 67.1821055,26.1886663 67.1821055,23.5205498 L67.1821055,22.4792677 L67.1250196,22.484677 Z" id="Fill-3" fill="#F69A98"></path>
                    <path d="M38.619256,22.6334316 L38.619256,23.5097313 C38.619256,26.1778478 40.7606399,28.359131 43.3799522,28.359131 C45.9461612,28.359131 48.0463903,26.256282 48.1247174,23.6584859 C48.1247174,23.6057457 48.1087865,23.5570623 48.1087865,23.5043221 L48.1087865,22.4224705 C47.6109445,18.7509367 47.1237233,15.0794029 46.6311917,11.4132783 C46.1280395,7.6727765 45.6248872,3.92821771 45.1164247,0.187715869 L37.6023309,0.187715869 C37.7735885,3.92821771 37.9448461,7.6727765 38.1107934,11.4132783 C38.2767407,15.1537802 38.442688,18.8929297 38.619256,22.6334316 Z" id="Fill-4" fill="#F69A98"></path>
                    <polygon id="Fill-5" fill="#F69A98" points="39.3919066 52.3681223 41.1496204 52.3681223 41.1496204 47.3861957 39.3919066 47.3861957"></polygon>
                    <path d="M24.3106159,28.3537218 C26.9299281,28.3537218 29.071312,26.1724385 29.071312,23.5043221 L29.071312,22.6334316 L29.0819327,22.6334316 C29.2425697,18.8929297 29.4138273,15.1537802 29.5797746,11.4132783 C29.7457219,7.6727765 29.9116692,3.92821771 30.0776165,0.187715869 L22.5741433,0.187715869 C22.0763014,3.92821771 21.5678389,7.6727765 21.069997,11.4132783 C20.5668447,15.1537802 20.0636925,18.8929297 19.5711609,22.6334316 L19.55523,22.6334316 L19.55523,23.5043221 C19.55523,23.5259591 19.5512473,23.5421869 19.5512473,23.5570623 C19.5817816,26.1981325 21.7085622,28.3537218 24.3106159,28.3537218 Z" id="Fill-6" fill="#F69A98"></path>
                    <path d="M34,28.3537218 C37,28.3537218 38.6400146,26 38.6199951,23.5043221 L38.6400146,22.6334316 L38.1199951,11.4132783 L37.5999756,0.187715869 L30.0728838,0.187715869 C29.539978,10 30.0728838,3 29.539978,11.4132783 C29.0070722,19.8265567 29.0699015,21 29.0699015,22.6334316 C29.0645912,22.6334316 29.0539705,23.5043221 29.0539705,23.5043221 C29.0805221,26.1981325 31,28.3537218 34,28.3537218 Z" id="Fill-6-Copy" fill="#ECECEC"></path>
                </g>
            </g>
        </g>
    </g>
</svg>