<?xml version="1.0" encoding="UTF-8"?>
<svg width="264px" height="291px" viewBox="0 0 264 291" version="1.1" xmlns="http://www.w3.org/2000/svg" xmlns:xlink="http://www.w3.org/1999/xlink">
    <!-- Generator: Sketch 41.1 (35376) - http://www.bohemiancoding.com/sketch -->
    <title>UPI Fig</title>
    <desc>Created with Sketch.</desc>
    <defs>
        <path d="M7.00964481,0.321488359 C6.23377788,1.05160776 5.21704346,1.41750949 3.62613613,1.41707317 C1.95160355,1.41646083 0.913289499,1.01133067 0.122273879,0.202888855 L7.00964398,0.202888855 L7.00964398,0.321489144 L7.00964481,0.321488359 Z" id="path-1"></path>
    </defs>
    <g id="Page-1" stroke="none" stroke-width="1" fill="none" fill-rule="evenodd">
        <g id="UPI-Fig">
            <g id="Bills" transform="translate(23.903269, 153.497720) rotate(-9.000000) translate(-23.903269, -153.497720) translate(3.503269, 129.530778)">
                <path d="M4.752,47.9338843 C2.0376651,47.9338843 2.55795385e-12,45.9183441 2.55795385e-12,43.219076 L2.55795385e-12,4.71480829 C2.55795385e-12,2.0173036 2.0376651,2.89502123e-13 4.752,2.89502123e-13 L34.848,2.89502123e-13 C37.5623349,2.89502123e-13 39.6,2.0173036 39.6,4.71480829 L39.6,43.219076 C39.6,45.9183441 37.5623349,47.9338843 34.848,47.9338843 L4.752,47.9338843" id="Fill-1976" fill="#ECEBED"></path>
                <text id="BILLS" font-family="Lato-Bold, Lato" font-size="9.6" font-weight="bold" letter-spacing="0.399999976" fill="#EF5350">
                    <tspan x="6.82804339" y="12.0081165">BILLS</tspan>
                </text>
                <polygon id="Fill-1977" fill="#C1C1C1" points="20.2343406 19.8520629 24.1943406 19.8520629 24.1943406 18.2804601 20.2343406 18.2804601"></polygon>
                <polygon id="Fill-1978" fill="#C1C1C1" points="20.2343406 26.9242753 33.6983406 26.9242753 33.6983406 25.3526726 20.2343406 25.3526726"></polygon>
                <polygon id="Fill-1979" fill="#C1C1C1" points="6.77034058 33.2106864 33.6983406 33.2106864 33.6983406 31.6390836 6.77034058 31.6390836"></polygon>
                <polygon id="Fill-1980" fill="#C1C1C1" points="6.77034058 39.4970975 33.6983406 39.4970975 33.6983406 37.9254947 6.77034058 37.9254947"></polygon>
                <polygon id="Fill-1985" fill="#F69A98" points="6.77034058 26.138474 14.6903406 26.138474 14.6903406 18.2804601 6.77034058 18.2804601"></polygon>
            </g>
            <g id="Job" transform="translate(94.000000, 0.000000)">
                <path d="M29.2539319,21.9946341 L24.1011571,21.9946341 C23.6904607,21.9946341 23.3575236,21.664878 23.3575236,21.2578049 L23.3575236,20.8192683 C23.3575236,20.4121951 23.6904607,20.0819512 24.1011571,20.0819512 L29.2539319,20.0819512 C29.6646283,20.0819512 29.9978115,20.4121951 29.9978115,20.8192683 L29.9978115,21.2578049 C29.9978115,21.664878 29.6646283,21.9946341 29.2539319,21.9946341" id="Fill-153" fill="#848A89"></path>
                <path d="M45.7567113,64.8257685 C46.0922875,65.2228792 46.1401229,67.3103394 45.516806,67.3042212 C44.6348866,67.2965734 44.7176879,65.7077482 44.3818689,65.6083271 C44.3818689,65.6083271 43.6944477,65.3882624 43.647098,66.4451849 C43.598777,67.5034457 43.884818,67.9215878 44.2993104,68.377204 C44.8077738,68.9354916 43.4921793,69.2643459 42.3521431,68.7259426 C40.8158259,68.0013159 40.9139248,64.7842259 41.105752,63 L45.2771434,63 C45.2771434,63 45.4208924,64.4292314 45.7567113,64.8257685 Z" id="Fill-149" fill="#FBCFCE" transform="translate(43.500000, 66.000000) scale(-1, 1) translate(-43.500000, -66.000000) "></path>
                <path d="M17.8307173,44.5334146 C18.1154241,47.7995122 16.215,62.4470732 17.5831675,63.637561 C18.954288,64.8309756 22.6899267,64.7282927 27.3146283,64.8153659 C31.939822,64.7282927 36.0841885,64.8646341 37.0468272,63.637561 C38.0092199,62.4104878 36.2591466,47.73 36.5544346,44.51 C36.6651675,43.3004878 36.7997696,41.9097561 36.9242827,40.6439024 C36.968822,40.1741463 36.2680052,34.2465854 35.7251675,29.7758537 C34.8156806,29.607561 33.9733717,29.5065854 33.2317068,29.5065854 C32.3423979,29.5065854 29.6562618,29.5546341 27.1915916,29.5656098 C24.7271675,29.5546341 22.0410314,29.5065854 21.1517225,29.5065854 C20.0953298,29.5065854 18.6786859,29.6643902 17.0799476,29.9085366 L20.9305026,38.225122 C20.9305026,38.225122 19.582267,41.0404878 17.8307173,44.5334146" id="Fill-167" fill="#ECEBED"></path>
                <polygon id="Fill-168" fill="#AAAAAA" points="31.2958482 39.1029268 35.5644817 39.1029268 35.5644817 38.1578049 31.2958482 38.1578049"></polygon>
                <polygon id="Fill-169" fill="#AAAAAA" points="18.7963089 39.1702439 23.0649424 39.1702439 23.0649424 38.225122 18.7963089 38.225122"></polygon>
                <polyline id="Fill-170" fill="#F69A98" points="26.4705969 33.4197561 25.8738691 34.532439 24.6149581 62.4814634 26.6800052 67.8063415 29.4370105 62.2607317 28.4490262 34.532439 28.1242094 33.4321951 26.4705969 33.4197561"></polyline>
                <polyline id="Fill-171" fill="#929998" points="23.0078534 29.1214634 23.2866545 27.7846341 30.9533141 27.8139024 31.1135079 29.7517073 23.0078534 29.1214634"></polyline>
                <path d="M26.2341204,24.1207317 L23.8740314,24.1207317 C23.8740314,24.1207317 24.0763037,26.1139024 23.8740314,27.537561 C23.6717592,28.9612195 22.7275759,29.5304878 22.7275759,29.5304878 C22.7275759,29.5304878 23.0646963,31.31 25.4247853,32.5202439 C25.947199,32.7878049 26.5525393,32.884878 27.1783037,32.8734146 C27.803822,32.884878 28.4089162,32.7878049 28.9313298,32.5202439 C31.2916649,31.31 31.6287853,29.5304878 31.6287853,29.5304878 C31.6287853,29.5304878 30.6846021,28.9612195 30.4823298,27.537561 C30.2798115,26.1139024 30.4823298,24.1207317 30.4823298,24.1207317 L26.2341204,24.1207317" id="Fill-172" fill="#FBCFCE"></path>
                <path d="M17.0228586,17.6726829 C15.7378639,17.6239024 13.8362094,16.362439 13.6317225,14.0756098 C13.4274817,11.7890244 14.7018953,11.1295122 16.0218325,11.1295122 C16.1655393,11.1295122 16.3060471,11.1456098 16.4426178,11.1753659 C17.9515393,6.33902439 22.0836021,2.83317073 26.9816911,2.69073171 C31.8800262,2.83317073 36.0118429,6.33902439 37.5207644,11.1753659 C37.6573351,11.1456098 37.798089,11.1295122 37.9417958,11.1295122 C39.2614869,11.1295122 40.3907173,11.7760976 40.3316597,14.0756098 C40.2726021,16.3756098 38.2255183,17.6239024 36.9405236,17.6726829 C36.1678534,23.5929268 30.8403665,27.5612195 26.9816911,27.7660976 C23.1230157,27.5612195 17.7957749,23.5929268 17.0228586,17.6726829 Z" id="Fill-173" fill="#FBCFCE"></path>
                <path d="M26.8419215,27.7660976 C26.8884293,27.7639024 26.9351832,27.7607317 26.9826754,27.7568293 C27.0296754,27.7607317 27.0766754,27.7639024 27.1231832,27.7660976 C30.9410105,27.5614634 36.2119005,23.5929268 36.9764503,17.6726829 C38.247911,17.6239024 40.3316597,15.6873171 40.3316597,14.0756098 C40.3316597,13.997561 40.3289529,13.92 40.3242775,13.8431707 C40.3215707,13.8502439 39.617801,15.8141463 38.7769686,16.4717073 C37.9344136,17.13 36.797555,17.0497561 36.9063194,17.0453659 C37.0155759,17.0414634 34.6316178,22.3626829 32.2730052,24.2529268 C28.5494241,27.2368293 25.4156806,27.2368293 21.6920995,24.2529268 C19.3334869,22.3626829 16.9495288,17.0414634 17.0587853,17.0453659 C17.1677958,17.0497561 16.0309372,17.13 15.1883822,16.4717073 C14.3473037,15.8141463 13.643534,13.8502439 13.6410733,13.8431707 C13.6361518,13.92 13.633445,13.997561 13.633445,14.0756098 C13.633445,15.6873171 15.7171937,17.6239024 16.9886545,17.6726829 C17.7532042,23.5929268 23.0243403,27.5614634 26.8419215,27.7660976" id="Fill-174" fill="#FBCFCE"></path>
                <path d="M25.873623,3.85804878 C24.8046806,4.54536585 21.0441885,4.78195122 19.0933194,7.38365854 C17.3712984,9.68073171 17.7657539,17.6287805 16.9775812,17.7653659 C16.8449476,17.3312195 17.3122408,11.2260976 16.1357644,11.1329268 C16.1357644,11.1329268 16.1219843,10.9692683 16.1114031,10.8926829 C16.0198639,10.5287805 16.2647068,9.64731707 17.1594293,7.05292683 C17.8385916,5.08317073 23.0014555,0.906341463 25.6583089,3.82146341 L25.873623,3.85804878" id="Fill-175" fill="#AAAAAA"></path>
                <path d="M19.0428743,7.45463415 C17.3959058,9.81512195 17.7504974,17.4746341 17.0002199,17.7578049 C17.1431885,13.837561 17.5154974,11.362439 18.2714346,7.49073171 L19.0428743,7.45463415" id="Fill-176" fill="#AAAAAA"></path>
                <path d="M37.4720419,11.2812195 C36.6991257,11.7943902 37.0013037,17.47 36.9978586,17.4821951 C36.334445,17.3631707 36.4577277,11.0492683 35.5666963,9.4204878 C34.4497696,7.37902439 33.0547801,6.59658537 31.5114084,6.46682927 C31.1346702,6.60243902 30.6850942,6.78414634 30.1516073,7.0197561 C27.461534,8.20829268 24.8152618,9.23365854 21.8185812,8.85390244 C23.2701675,8.88756098 25.1504136,8.18634146 26.071466,7.59682927 C20.7390576,9.34585366 14.7208429,8.03195122 13.5195131,2.32219512 C15.2471937,3.2997561 15.6135969,3.1197561 16.7418429,3.3195122 C16.4477853,3.15219512 13.5455969,1.39195122 13.3772827,0.834146341 C16.1588953,1.50243902 16.4408953,1.42560976 22.959623,1.06780488 C24.7889319,0.967317073 26.7068272,0.86097561 28.5275236,0.995853659 C28.1544764,0.764146341 27.6672513,0.516585366 26.9533927,0.227073171 C26.9533927,0.227073171 27.8729686,0.345365854 29.1673141,0.446585366 C31.7262304,0.646829268 32.970377,1.6104878 34.6407225,3.2097561 C34.7381675,3.29853659 34.8338901,3.39073171 34.927644,3.48609756 L35.1491099,3.70146341 C35.7094188,4.13585366 36.354623,3.60926829 37.3379319,5.69 C37.9966702,7.08439024 38.1125707,10.0780488 37.8003037,11.134878 C37.8003037,11.134878 37.5399581,11.2368293 37.4720419,11.2812195" id="Fill-177" fill="#AAAAAA"></path>
                <path d="M26.071466,7.59682927 C20.7390576,9.34585366 14.7208429,8.03195122 13.5195131,2.32243902 C13.5195131,2.32243902 14.5380105,4.70902439 16.309,5.85658537 C18.0799895,7.00439024 20.4469686,7.59536585 22.405466,7.69658537 C24.3639634,7.79804878 27.4632565,6.78512195 27.4632565,6.78512195 L26.071466,7.59682927" id="Fill-178" fill="#AAAAAA"></path>
                <path d="M16.7329843,3.31463415 C16.3966021,3.12121951 13.5443665,1.38707317 13.3772827,0.834146341 C16.3781466,2.42073171 17.5337068,2.87658537 20.9238586,3.71292683 C20.9238586,3.71292683 17.3740052,3.38902439 16.7329843,3.31463415" id="Fill-179" fill="#AAAAAA"></path>
                <path d="M36.9978586,17.4821951 C36.334445,17.3631707 36.4577277,11.0492683 35.5666963,9.4204878 C34.4497696,7.37902439 33.0547801,6.59658537 31.5114084,6.46682927 C31.1346702,6.60243902 30.6850942,6.78414634 30.1513613,7.0197561 C27.461534,8.20829268 24.8152618,9.23365854 21.8185812,8.85390244 C22.2922723,8.86487805 22.8119791,8.79756098 23.3289791,8.68121951 C24.4759267,8.5304878 25.9794346,8.28536585 26.7306963,7.96634146 C28.0420209,7.40902439 31.1243351,5.6704878 31.1243351,5.6704878 C31.1243351,5.6704878 32.0778691,5.09658537 33.3380105,5.9404878 C34.5981518,6.78439024 36.0268534,7.98170732 36.3706178,10.2141463 C36.7146283,12.4470732 36.9978586,17.4821951 36.9978586,17.4821951" id="Fill-180" fill="#AAAAAA"></path>
                <path d="M27.693089,13.7878049 L28.8282251,17.7258537 C28.8282251,17.7258537 28.1242094,18.1987805 27.9426073,18.2660976 C27.7610052,18.3336585 25.6039267,17.9285366 25.7176126,17.9060976 C25.8310524,17.8836585 27.6704503,17.6134146 27.8291675,17.4560976 C27.9881309,17.2982927 27.693089,13.7878049 27.693089,13.7878049" id="Fill-181" fill="#AAAAAA"></path>
                <path d="M12.5025198,64.9920727 C14.9896771,55.3683665 15.6651277,47.9196021 16.2578168,38.1282927 C16.0936859,38.2429268 7.39868586,46.3682927 5.39712565,47.7821951 C5.029,48.0419512 -0.11860733,43.8536585 1.46290576,42.2221951 C3.02350262,40.6119512 10.0257644,30.4790244 16.4246545,29.7302439 C16.5193927,29.7190244 16.5929686,29.3026829 16.6879529,29.2919512 C18.6752408,29.0634146 20.6615445,29.2790244 22.4790419,29.1712195 C22.3720524,37.9028919 19.5576627,58.1691526 18.3012105,65.9555593 C12.5025198,65 19,66 12.5025198,64.9920727 Z" id="Fill-184" fill="#E5E5E5"></path>
                <path d="M12.5114652,64.9566852 C14.9912405,55.3501837 15.6656976,47.9073612 16.2578168,38.1282927 C16.0936859,38.2429268 7.39868586,46.3682927 5.39712565,47.7821951 C5.27433508,47.8687805 4.61830366,47.4595122 3.85818325,46.8153659 C3.35028796,44.3329268 3.15096859,41.3358537 3.15096859,41.3358537 L11.7832199,36.984878 C11.7832199,36.984878 14.2353403,36.917561 14.5759058,37.0187805 C14.9167173,37.12 16.9140942,36.7897561 16.9140942,36.7897561 C16.9140942,36.7897561 16.9259058,41.6441463 16.7895812,44.8170732 C16.6532565,47.9904878 15,65 14.9149948,65.4246341" id="Fill-185" fill="#E5E5E5"></path>
                <path d="M40.7165753,64.8739594 C39.7611778,56.7788405 39.1620035,45.7424369 38.7070838,38.2302439 C40.6163665,44.8519512 40.537623,58.2492683 41.3403141,63.4553659 C41.4431728,64.1231707 46.0582775,63.7592683 46.1544921,63.1707317 C47.2069476,56.7317073 48.859822,31.2492683 38.9499581,30.0463415 C38.8443927,30.0336585 37.8630524,29.707561 37.7569948,29.694878 C35.7586335,29.4556098 32.0603979,29.1700439 32.0603979,29.1700439 C32.0603979,29.1700439 34.2428333,55.9066585 35.1731719,66.036739 C40,65 36,66 40.7165753,64.8739594 Z" id="Fill-186" fill="#E5E5E5"></path>
                <path d="M40.7129536,64.8428657 C39.7596269,56.7507268 39.1615389,45.7329978 38.7070838,38.2302439 C40.6163665,44.8519512 40.537623,58.2492683 41.3403141,63.4553659 C41.3816545,63.7234146 42.1501414,63.825122 43.0613508,63.8129268 C42.3553665,57.0863415 40.5787173,41.1358537 39.983712,39.3663415 C39.2344188,37.1382927 38.5193298,36.1929268 38.5193298,36.1929268 C37.6798232,42.2193991 37.9983707,58.6558699 38.6400883,65.3487955 C40,65 40,65 40.7129536,64.8428657 Z" id="Fill-187" fill="#E5E5E5"></path>
                <path d="M16.191623,33.2965854 L18.984801,36.2 L16.9140942,36.7897561 L20.7142042,48.7831707 C22.264466,40.1531707 22.1552094,37.0360976 22.4790419,29.1712195 L20.8739058,29.2973171 C20.6694188,29.3873171 16.191623,33.2965854 16.191623,33.2965854 Z" id="Fill-188" fill="#CFCFCF"></path>
                <path d="M38.0250838,33.3891773 L35.2321519,36.2925919 L37.3028587,36.8825919 L33.9893424,48.7504044 L31.7382604,29.2738151 L33.3430472,29.389909 C33.547288,29.479909 38.0250838,33.3891773 38.0250838,33.3891773 Z" id="Fill-189" fill="#CFCFCF" transform="translate(34.881672, 39.012110) rotate(2.000000) translate(-34.881672, -39.012110) "></path>
                <path d="M26.2995759,33.87 C26.1292932,33.757561 24.9464188,32.8543902 24.1971257,32.3256098 C23.4480785,31.7965854 23.2052042,31.0041463 23.2052042,31.0041463 L23.6434607,30.2641463 C23.6434607,30.2641463 25.4678482,32.0402439 25.7075236,32.0604878 C25.9476911,32.0807317 26.2995759,33.87 26.2995759,33.87" id="Fill-191" fill="#AAAAAA"></path>
                <path d="M25.591623,31.5243902 L26.7570262,33.7804878 L31.4166702,30.9787805 C30.3725812,31.0963415 25.591623,31.5243902 25.591623,31.5243902" id="Fill-192" fill="#A8ACAA"></path>
                <path d="M27.7307382,34.0387805 C27.9010209,33.9260976 29.5017277,33.0595122 30.2510209,32.5307317 C31.0003141,32.0019512 31.2958482,30.7865854 31.2958482,30.7865854 L30.4552618,30.7865854 C30.4552618,30.7865854 28.562466,32.2087805 28.3225445,32.2292683 C28.082623,32.2495122 27.7307382,34.0387805 27.7307382,34.0387805" id="Fill-193" fill="#AAAAAA"></path>
                <path d="M27.1613246,32.0426829 C26.2004084,32.0036585 25.2542565,31.9758537 25.2542565,31.9758537 C25.2542565,31.9758537 25.7070314,34.4221951 25.8738691,34.532439 C25.9602408,34.5895122 26.5599215,34.6678049 27.1613246,34.7053659 C27.7629738,34.6678049 28.3629005,34.5895122 28.4490262,34.532439 C28.6161099,34.4221951 29.0686387,31.9758537 29.0686387,31.9758537 C29.0686387,31.9758537 28.1224869,32.0036585 27.1613246,32.0426829" id="Fill-194" fill="#F69A98"></path>
                <path d="M27.209555,31.4570732 C27.9101257,31.882439 29.6929267,34.0387805 29.6929267,34.0387805 C29.6929267,34.0387805 32.336,29.5646341 31.9484346,29.2612195 C31.5611152,28.9580488 30.9533141,27.8139024 30.9533141,27.8139024 L27.209555,31.4570732" id="Fill-195" fill="#AAAAAA"></path>
                <path d="M12.079,38.4229268 C13.0327801,37.545122 13.6819215,37.895122 13.9181518,35.5197561 C14.0862199,33.8297561 13.0263822,32.88 13.8932984,32.4404878 C14.7235497,32.0197561 16.191623,33.2965854 16.2341937,36.464878 C16.2341937,36.464878 19.2722147,35.3709756 20.290712,35.8504878 C21.3089634,36.33 20.9674136,37.4458537 20.9674136,37.4458537 C21.5080366,37.7912195 21.7048953,39.0097561 21.3261885,39.385122 C21.3261885,39.385122 21.7469738,40.0258537 21.8134136,40.5804878 C21.8796073,41.1356098 21.6724136,41.5804878 21.4794921,41.7312195 C21.1933089,41.9546341 22.3601885,43.1809756 20.3155654,43.6021951 C18.4825654,43.98 14.7897435,44.8317073 13.3393874,43.7229268 L12.079,38.4229268" id="Fill-201" fill="#FBCFCE"></path>
                <path d="M21.8134136,40.5804878 C21.7469738,40.0258537 21.3261885,39.385122 21.3261885,39.385122 C21.7048953,39.0097561 21.5080366,37.7912195 20.9674136,37.4458537 C20.9674136,37.4458537 21.3089634,36.33 20.290712,35.8504878 C19.2722147,35.3709756 16.2341937,36.464878 16.2341937,36.464878 C16.1940838,33.4709756 14.8812827,32.1678049 14.0365131,32.3885366 C14.4139895,32.6592683 14.8628272,33.0646341 15.1635288,33.6107317 C15.7713298,34.7153659 15.5685654,37.2514634 15.5685654,37.2514634 C15.5685654,37.2514634 18.2030262,35.744878 19.4442199,36.0712195 C20.6856597,36.3978049 20.4575497,37.4773171 20.4575497,37.4773171 C20.4575497,37.4773171 21.0655969,38.1260976 21.0655969,38.6302439 C21.0655969,39.1343902 20.7867958,39.5863415 20.7867958,39.5863415 C20.7867958,39.5863415 21.2892775,39.9380488 21.3800785,40.465122 C21.4706335,40.992439 21.0400052,41.7456098 21.0400052,41.7456098 C21.0400052,41.7456098 21.3948429,42.5190244 21.0906963,42.8604878 C20.8539738,43.1268293 18.0007539,43.872439 16.7610366,44.2117073 C18.0706387,44.0853659 19.4166597,43.7873171 20.3155654,43.6021951 C22.3601885,43.1809756 21.1933089,41.9546341 21.4794921,41.7312195 C21.6724136,41.5804878 21.8796073,41.1356098 21.8134136,40.5804878" id="Fill-202" fill="#FBCFCE"></path>
                <path d="M12.0900733,45.0558537 C12.6690838,44.8534146 14.6322565,44.2043902 14.6322565,44.2043902 L12.6218377,38.0068293 L10.6874555,38.9292683 L12.0900733,45.0558537" id="Fill-203" fill="#E5E5E5"></path>
                <path d="M14.2690524,45.2265854 C14.3231885,45.0085366 12.1415026,38.0502439 12.1415026,38.0502439 C8.94697906,39.3292683 3.70340314,40.7519512 1.46290576,42.2221951 C0.532502618,42.8329268 -0.546528796,46.6107317 0.543329843,47.6231707 C1.63343455,48.6360976 4.86290052,48.4592683 7.25301047,47.8934146 C9.64312042,47.327561 14.2690524,45.2265854 14.2690524,45.2265854" id="Fill-204" fill="#E5E5E5"></path>
                <path d="M14.2690524,45.2265854 C14.2892304,45.144878 13.9956649,44.1170732 13.6208953,42.8639024 L13.6206492,42.8636585 L13.6196649,42.8604878 C13.6196649,42.8604878 8.61551832,45.2568293 5.2777801,46.1682927 C2.97699476,46.7965854 1.11348168,46.9273171 0.177418848,46.9482927 C0.250256545,47.2278049 0.368863874,47.4609756 0.543329843,47.6231707 C1.63343455,48.6360976 4.86290052,48.4592683 7.25301047,47.8934146 C9.64312042,47.327561 14.2690524,45.2265854 14.2690524,45.2265854" id="Fill-205" fill="#E5E5E5"></path>
                <path d="M22.0252827,20.5336585 C23.1454084,21.1168293 24.9449424,21.3936585 26.7570262,21.3756098 C28.5691099,21.3936585 30.368644,21.1168293 31.4885236,20.5336585 C30.4781466,22.5834146 29.4249529,23.6129268 26.7570262,23.6121951 C24.0890995,23.6112195 23.0361518,22.5834146 22.0252827,20.5336585" id="Fill-207" fill="#AAAAAA"></path>
                <g id="Group-211" transform="translate(23.130890, 22.195122)">
                    <mask id="mask-2" fill="white">
                        <use xlink:href="#path-1"></use>
                    </mask>
                    <g id="Clip-209"></g>
                    <path d="M7.00964398,0.454878049 C6.23106806,1.19829268 5.21035602,1.57097561 3.6052199,1.5704878 C1.93585864,1.57 0.898659686,1.16731707 0.108518325,0.363902439 C0.11934555,0.15 0.263298429,0.205853659 0.47221466,0.22 C2.63544503,0.366585366 4.51544503,0.395365854 6.67276963,0.266829268 C6.80737173,0.25902439 6.95723037,0.216341463 6.98602094,0.339268293 C6.99512565,0.378780488 7.00275393,0.417073171 7.00964398,0.454878049" id="Fill-208" fill="#FFFFFF" mask="url(#mask-2)"></path>
                    <path id="Fill-210" fill="#F9F9F9" mask="url(#mask-2)"></path>
                </g>
                <path d="M22.7391414,20.834878 C23.8351518,21.2119512 25.2919058,21.3902439 26.7570262,21.3756098 C28.2221466,21.3902439 29.6789005,21.2119512 30.7751571,20.834878 L30.7751571,21.1780488 C30.7751571,21.6702439 30.3661832,22.0219512 29.8720681,22.0729268 C27.6020419,22.3068293 25.5426545,22.2860976 23.6422304,22.0729268 C23.1486073,22.017561 22.7391414,21.6702439 22.7391414,21.1780488 L22.7391414,20.834878" id="Fill-212" fill="#FFFFFF"></path>
                <path d="M22.7391414,20.834878 C22.7669476,20.8443902 22.7947539,20.8539024 22.8232984,20.8634146 C22.8833403,21.1321951 22.9773403,21.4312195 23.1365497,21.5885366 C23.4365131,21.8858537 23.5689005,21.9278049 23.9911623,21.9868293 C24.4129319,22.0458537 28.8867906,22.1136585 29.5297801,21.942439 C30.1730157,21.7714634 30.3489581,21.7082927 30.526623,21.2836585 C30.586911,21.1392683 30.6346492,20.9973171 30.6722984,20.8695122 C30.7069948,20.8582927 30.7409529,20.8465854 30.7751571,20.834878 L30.7751571,21.1780488 C30.7751571,21.6702439 30.3661832,22.0219512 29.8720681,22.0729268 C27.6020419,22.3068293 25.5426545,22.2860976 23.6422304,22.0729268 C23.1486073,22.017561 22.7391414,21.6702439 22.7391414,21.1780488 L22.7391414,20.834878" id="Fill-213" fill="#F9F9F9"></path>
                <path d="M25.3600681,10.5297561 C25.3600681,10.5297561 25.4779372,11.0521951 24.9747173,11.1473171 C24.4712513,11.2421951 24.178178,10.8046341 22.6461257,10.8185366 C21.1138272,10.8326829 20.0047749,11.627561 19.3064188,11.4682927 C18.6073246,11.3090244 18.6021571,10.8131707 19.0901204,10.514878 C20.3733927,9.73 24.8130471,9.24682927 25.3600681,10.5297561" id="Fill-217" fill="#AAAAAA"></path>
                <path d="M22.0457068,12.3890244 C23.1921623,12.3890244 24.1213351,12.8495122 24.1213351,13.417561 C24.1213351,13.9856098 23.1921623,14.4460976 22.0457068,14.4460976 C20.8994974,14.4460976 19.9705707,13.9856098 19.9705707,13.417561 C19.9705707,12.8495122 20.8994974,12.3890244 22.0457068,12.3890244" id="Fill-219" fill="#FFFFFF"></path>
                <path d="M22.1995026,14.1678049 C22.5870681,14.1678049 22.902534,13.854878 22.902534,13.4712195 C22.902534,13.087561 22.5870681,12.7743902 22.1995026,12.7743902 C21.8124293,12.7743902 21.4967173,13.087561 21.4967173,13.4712195 C21.4967173,13.854878 21.8124293,14.1678049 22.1995026,14.1678049" id="Fill-220" fill="#AAAAAA"></path>
                <path d="M22.1995026,13.8958537 C22.4354869,13.8958537 22.6281623,13.705122 22.6281623,13.4712195 C22.6281623,13.2373171 22.4354869,13.0463415 22.1995026,13.0463415 C21.9637644,13.0463415 21.771089,13.2373171 21.771089,13.4712195 C21.771089,13.705122 21.9637644,13.8958537 22.1995026,13.8958537" id="Fill-222" fill="#666666"></path>
                <path id="Fill-223" fill="#FFFFFF"></path>
                <path d="M28.7246283,10.6085366 C28.7246283,10.6085366 28.6190628,11.1331707 29.1247435,11.2163415 C29.630178,11.2995122 29.9124241,10.854878 31.4447225,10.8329268 C32.9767749,10.8104878 34.1045288,11.5790244 34.7991937,11.4031707 C35.4941047,11.227561 35.4872147,10.7317073 34.9926073,10.445122 C33.6903874,9.6904878 29.2403979,9.31268293 28.7246283,10.6085366" id="Fill-225" fill="#AAAAAA"></path>
                <path d="M32.0429267,12.3419512 C30.8573455,12.3419512 29.8961832,12.8182927 29.8961832,13.4060976 C29.8961832,13.9939024 30.8573455,14.4702439 32.0429267,14.4702439 C33.229,14.4702439 34.1904084,13.9939024 34.1904084,13.4060976 C34.1904084,12.8182927 33.229,12.3419512 32.0429267,12.3419512" id="Fill-227" fill="#FFFFFF"></path>
                <path d="M31.8839634,14.182439 C32.2845707,14.182439 32.6111099,13.8587805 32.6111099,13.4617073 C32.6111099,13.0646341 32.2845707,12.7409756 31.8839634,12.7409756 C31.4836021,12.7409756 31.1570628,13.0646341 31.1570628,13.4617073 C31.1570628,13.8587805 31.4836021,14.182439 31.8839634,14.182439" id="Fill-228" fill="#AAAAAA"></path>
                <path d="M31.8839634,13.9012195 C32.1280681,13.9012195 32.3273874,13.7034146 32.3273874,13.4617073 C32.3273874,13.2197561 32.1280681,13.0219512 31.8839634,13.0219512 C31.6398586,13.0219512 31.4405393,13.2197561 31.4405393,13.4617073 C31.4405393,13.7034146 31.6398586,13.9012195 31.8839634,13.9012195" id="Fill-230" fill="#666666"></path>
                <path id="Fill-231" fill="#FFFFFF"></path>
                <path d="M33.6517539,3.25926829 C33.467199,2.98487805 32.3753717,1.93317073 30.9296911,1.26243902 C29.4842565,0.591707317 28.4226963,0.622195122 28.4226963,0.622195122 C28.4226963,0.622195122 29.945644,1.52146341 30.1762147,1.82634146 C30.4067853,2.13121951 30.452801,2.22243902 30.452801,2.22243902 C30.452801,2.22243902 29.5915445,2.1004878 26.8232199,1.76512195 C24.0548953,1.4297561 21.6249215,2.1004878 19.7486126,2.0395122 C17.8723037,1.97853659 17.2878796,1.82609756 17.2878796,1.82609756 C17.2878796,1.82609756 18.3336911,2.52731707 21.1020157,2.77121951 C23.8703403,3.01512195 29.0686387,3.41170732 29.0686387,3.41170732 C29.0686387,3.41170732 26.9465026,4.20414634 23.6550262,4.44829268 C20.3637958,4.69219512 16.2728272,3.99073171 16.2728272,3.99073171 C16.2728272,3.99073171 17.7335183,5.15560976 20.6019948,5.97560976 C23.4704712,6.79585366 30.1759686,4.69219512 30.1759686,4.69219512 C30.1759686,4.69219512 29.6688115,5.33243902 28.6687696,6.07926829 C27.6692199,6.82634146 27.4632565,6.78512195 27.4632565,6.78512195 C27.4632565,6.78512195 30.2992513,5.62195122 31.3605654,5.13414634 C32.4216335,4.64634146 32.497178,4.69341463 32.5601728,4.60073171 C32.6231675,4.50804878 34.1441466,5.19512195 35.0361623,6.30804878 C35.928178,7.4204878 36.958733,10.3934146 36.958733,10.2560976 C36.958733,10.1190244 36.881712,8.47268293 36.7126597,7.61902439 C36.5433613,6.76512195 36.3895654,6.32292683 36.3895654,6.32292683 C36.3895654,6.32292683 37.3738586,8.85365854 37.3738586,8.77756098 C37.3738586,8.70121951 37.3123403,6.36878049 36.6971571,5.42365854 C36.0819738,4.47853659 34.4672408,3.97560976 34.4672408,3.97560976 L33.6517539,3.25926829" id="Fill-232" fill="#AAAAAA"></path>
                <path d="M27.209555,31.4570732 C26.5087382,31.882439 24.6149581,34.0387805 24.6149581,34.0387805 C24.6149581,34.0387805 22.0919686,29.4746341 22.4790419,29.1712195 C22.8663613,28.8680488 23.2866545,27.8139024 23.2866545,27.8139024 L27.209555,31.4570732" id="Fill-233" fill="#AAAAAA"></path>
            </g>
            <g id="Auto+Driver" transform="translate(230.000000, 151.826446) scale(-1, 1) translate(-230.000000, -151.826446) translate(196.000000, 126.826446)">
                <g id="Auto">
                    <path d="M67.1238095,22.2787499 L48.4133333,22.2787499 L48.4133333,3.02626063 L17.7949206,3.02626063 C17.6146414,3.02429458 17.4348037,3.00709983 17.2571429,2.97484231 L17.1314286,2.97484231 C16.9677153,2.94099828 16.8066328,2.8943473 16.6495238,2.83527829 L16.5307937,2.78385996 C16.4161684,2.73409542 16.3042511,2.67769379 16.1955556,2.61491405 L16.0279365,2.51942287 C15.9088994,2.44127931 15.7946042,2.35541597 15.6857143,2.26233126 L15.4761905,2.06400344 L15.3574603,1.93913037 C15.287619,1.85833015 15.2177778,1.77752993 15.1479365,1.69672971 L15.1479365,1.69672971 C14.7974048,1.22958444 14.5665677,0.675742001 14.4774603,0.0880707428 L59.9371429,0.0880707428 C63.8914991,0.0839758873 67.1045782,3.44359018 67.1238095,7.60249138 L67.1238095,22.2787499 Z" id="Path" fill="#F69A98"></path>
                    <path d="M31.2184127,9.29195056 L31.127619,9.36540531 C29.5270262,10.5837727 28.5792552,12.5357019 28.5792552,14.613747 C28.5792552,16.6917921 29.5270262,18.6437213 31.127619,19.8620887 L31.2184127,19.9355434 L31.5047619,19.9355434 L31.5047619,22.3228227 L30.6596825,22.3228227 L30.6596825,26.4950524 L25.6311111,26.4950524 C24.9163856,26.4950415 24.3359061,27.1022717 24.3320635,27.8539652 L24.3320635,28.9410954 C24.3359061,29.6927889 24.9163856,30.3000191 25.6311111,30.3000083 L27.6006349,30.3000083 L27.6006349,37.9980658 C27.6006349,38.6065848 27.1315999,39.099887 26.5530159,39.099887 L19.3733333,39.099887 C18.7947493,39.099887 18.3257143,38.6065848 18.3257143,37.9980658 L18.3257143,3.7608081 L31.5047619,3.7608081 L31.5047619,9.30664151 L31.2184127,9.29195056 Z" id="Path"></path>
                    <path d="M32.2031746,22.3007863 L32.2031746,3.7608081 L32.2031746,22.3007863 Z" id="Path" stroke="#C1C1C1" stroke-width="0.65235456"></path>
                    <path d="M8.83428571,33.8772544 L8.7784127,33.7817633 C6.71148766,30.0966193 5.62139735,25.8962051 5.6215873,21.6176571 C5.6215873,21.0520556 5.6215873,20.486454 5.68444444,19.9208525 L11.9492063,19.9208525 C13.7065184,19.9208702 15.1332617,18.4268764 15.1409524,16.5786615 L15.1409524,2.66633237 L15.3644444,2.86466019 L15.4412698,2.93076946 C15.610014,3.05488542 15.7874526,3.16538347 15.9720635,3.26131582 L16.0977778,3.33477057 C16.2810845,3.42038368 16.4701742,3.4915851 16.6634921,3.54778933 L16.8101587,3.59920766 C17.0470712,3.67630537 17.290205,3.73039853 17.5365079,3.7608081 L17.6203175,3.7608081 L17.6203175,37.9980658 C17.6203175,39.0122642 18.4020425,39.8344344 19.3663492,39.8344344 L26.5530159,39.8344344 C27.5173226,39.8344344 28.2990476,39.0122642 28.2990476,37.9980658 L28.2990476,30.2779718 L31.3580952,30.2779718 L31.3580952,23.0353338 L32.4336508,23.0353338 L32.4336508,37.9980658 C32.4336508,39.0122642 33.2153758,39.8344344 34.1796825,39.8344344 L41.2336508,39.8344344 C42.1979575,39.8344344 42.9796825,39.0122642 42.9796825,37.9980658 L42.9796825,30.2779718 L42.9796825,30.2779718 L42.9796825,26.4730159 L42.9796825,26.4730159 L42.9796825,25.885378 C42.9873217,24.314682 44.1960955,23.0433682 45.6895238,23.0353338 L47.7079365,23.0353338 L67.1238095,23.0353338 L67.1238095,39.9299256 C65.7369963,36.3112935 62.3965763,33.9439228 58.6869841,33.9507092 L54.3707937,33.9507092 C49.5026582,33.946125 45.4973863,37.9804022 45.2914286,43.0958252 L18.2349206,43.0958252 L18.0812698,43.0076795 C14.3467694,40.9958679 11.2069203,37.947591 9.00190476,34.1931099 L8.83428571,33.8772544 Z" id="Path" fill="#E5E5E5"></path>
                    <path d="M14.8609372,3.87886037 L14.8609372,17.7397712 C14.853399,19.1709221 13.756224,20.3314011 12.3955404,20.3474147 L6.28442925,20.3474147 C6.90825828,14.0069566 9.88160394,8.18010631 14.5606197,4.12860651 L14.8609372,3.87886037 Z" id="Path" stroke="#E5E5E5" stroke-width="1.27961854"></path>
                    <path d="M62.5911111,43.0590978 C62.4130643,40.800636 60.6182215,39.0630529 58.4634921,39.0631596 L54.5873016,39.0631596 C52.4312647,39.0595242 50.6344938,40.7989738 50.4596825,43.0590978 L45.975873,43.0590978 C46.1813286,38.3494025 49.8741069,34.6435748 54.3568254,34.6485293 L58.6730159,34.6485293 C63.1557343,34.6435748 66.8485127,38.3494025 67.0539683,43.0590978 L62.5911111,43.0590978 Z" id="Path" fill="#E5E5E5"></path>
                    <path d="M12.1657143,43.4263716 L12.1657143,43.4263716 C12.1657142,46.5460459 9.76112803,49.0750416 6.79492063,49.0750416 C3.82871324,49.0750416 1.42412703,46.5460459 1.42412698,43.4263716 C1.42484879,42.0740386 1.89412677,40.7683305 2.74412698,39.7536342 L8.72253968,39.7536342 C10.6094623,39.7494981 12.1465423,41.3464295 12.1657143,43.3308804 L12.1657143,43.4263716 Z" id="Path" fill="#C1C1C1"></path>
                    <path d="M6.78793651,40.5983638 C5.3199951,40.610537 4.13718638,41.8676895 4.14104452,43.4116226 C4.14490267,44.9555556 5.33397802,46.2061518 6.80195998,46.2102096 C8.26994195,46.2142673 9.46525107,44.970262 9.4768254,43.4263716 C9.47868644,42.675739 9.19599127,41.9552863 8.6913228,41.4245071 C8.18665432,40.8937279 7.50164308,40.5964065 6.78793651,40.5983638 L6.78793651,40.5983638 Z" id="Shape" fill="#FFFFFF"></path>
                    <path d="M1.68253968,35.9780602 L0.0761904762,35.9780602 L0.0761904762,29.9327345 L1.68253968,29.9327345 C3.26978852,29.9327345 4.55650794,31.2860268 4.55650794,32.9553974 C4.55650794,34.624768 3.26978852,35.9780602 1.68253968,35.9780602 L1.68253968,35.9780602 Z" id="Path" fill="#F69A98"></path>
                    <path d="M12.864127,43.0590978 C12.7066071,40.7803967 10.9018459,39.0169251 8.72952381,39.0190867 L1.65460317,39.0190867 C3.05990977,36.4268343 5.62370817,34.7657797 8.45714286,34.6118019 C10.5189033,38.1188463 13.3773307,41.031769 16.7752381,43.0884797 L12.864127,43.0590978 Z" id="Path" fill="#E5E5E5"></path>
                    <path d="M61.8926984,43.4263716 C61.8926984,46.5419891 59.4912391,49.0676962 56.5288889,49.0676962 C53.5665387,49.0676962 51.1650794,46.5419891 51.1650794,43.4263716 L51.1650794,43.4263716 L51.1650794,43.4263716 C51.1727788,41.433299 52.7132154,39.8230215 54.608254,39.827089 L58.4634921,39.827089 C60.3569524,39.8270521 61.8951446,41.4349834 61.9066667,43.4263716 L61.8926984,43.4263716 Z" id="Path" fill="#C1C1C1"></path>
                    <path d="M31.5187302,10.026498 L31.5187302,19.186305 L31.4488889,19.186305 C30.0823636,18.1007245 29.2791008,16.4038693 29.2791008,14.6027288 C29.2791008,12.8015883 30.0823636,11.1047331 31.4488889,10.0191526 L31.5187302,10.026498 Z" id="Path" fill="#C1C1C1"></path>
                    <path d="M30.6526984,27.2075634 L30.6526984,29.5434244 L25.624127,29.5434244 C25.2951139,29.5434478 25.0273178,29.2650713 25.0234921,28.919059 L25.0234921,27.8319288 C25.0234811,27.6650562 25.0869841,27.505123 25.1998303,27.3878183 C25.3126766,27.2705137 25.4654744,27.2056002 25.624127,27.2075634 L30.6526984,27.2075634 Z" id="Path" fill="#C1C1C1"></path>
                    <path d="M42.288254,27.2075634 L42.288254,29.5434244 L37.2596825,29.5434244 C36.9306695,29.5434478 36.6628734,29.2650713 36.6590476,28.919059 L36.6590476,27.8319288 C36.6590366,27.6650562 36.7225396,27.505123 36.8353859,27.3878183 C36.9482321,27.2705137 37.10103,27.2056002 37.2596825,27.2075634 L42.288254,27.2075634 Z" id="Shape" fill="#C1C1C1"></path>
                    <path d="M56.5288889,40.5983638 C55.0600079,40.6065001 53.873699,41.8618903 53.8750043,43.4067896 C53.8763095,44.951689 55.0647379,46.2048598 56.5336303,46.2102505 C58.0025227,46.2156412 59.1992374,44.9712237 59.2107937,43.4263716 C59.2145197,42.6764167 58.933384,41.9559387 58.4298221,41.4249441 C57.9262602,40.8939495 57.2419584,40.5963954 56.5288889,40.5983638 L56.5288889,40.5983638 Z" id="Shape" fill="#FFFFFF"></path>
                </g>
            </g>
            <g id="Merchant" transform="translate(92.400000, 233.479339)">
                <g id="Body-House" transform="translate(1.729412, 23.179968)">
                    <path d="M52.4579736,2.45553137 C52.377616,2.45901432 52.2961105,2.46830221 52.2111611,2.46830221 C50.5523519,2.46830221 49.0680333,1.70669577 48.0727478,0.514363753 C47.0820541,1.69276395 45.6057713,2.44159954 43.9607377,2.44159954 C42.3283316,2.44159954 40.8623805,1.70205183 39.8705389,0.536422476 C38.8752533,1.71598366 37.4047104,2.46365826 35.7539369,2.46365826 C34.0905358,2.46365826 32.6062172,1.70205183 31.6155236,0.505075869 C30.620238,1.68347607 29.1451032,2.44159954 27.4943297,2.44159954 C25.8619237,2.44159954 24.3959725,1.70205183 23.4052789,0.536422476 C22.4134372,1.71598366 20.9383024,2.46365826 19.2921208,2.46365826 C17.6333115,2.46365826 16.148993,1.70205183 15.1537074,0.509719811 C14.1630138,1.68812001 12.6878789,2.4369556 11.0416973,2.4369556 C9.40929128,2.4369556 7.94334016,1.69740789 6.95149852,0.531778534 C5.96080484,1.71133972 4.48566999,2.45901432 2.83948838,2.45901432 L2.83948838,30.500295 L0.270343023,30.500295 L0.270343023,34.2595658 L55.0363027,34.2595658 L55.0363027,30.500295 L52.4671573,30.500295 L52.4671573,2.45553137 L52.4579736,2.45553137 Z" id="Fill-1" fill="#ECECEC"></path>
                    <polygon id="Path" fill="#CFCFCF" points="37.8351972 8.66796432 49.7946951 8.66796432 49.7946951 19.6427594 37.8351972 19.6427594"></polygon>
                    <polygon id="Path" fill="#CFCFCF" points="5.54868545 8.66796432 17.5127752 8.66796432 17.5127752 19.6427594 5.54868545 19.6427594"></polygon>
                    <polygon id="Path" fill="#CFCFCF" points="20.2208243 8.66796432 35.0731937 8.66796432 35.0731937 30.5095829 20.2208243 30.5095829"></polygon>
                </g>
                <g id="Shade">
                    <path d="M8.690094,20.2612978 L8.690094,19.4265493 C9.40298018,16.2152636 10.1296419,13.005139 10.8517118,9.79849725 C11.5737817,6.5872116 12.3050353,3.37244298 13.0225134,0.161157327 L6.52962413,0.161157327 C5.52056302,3.37244298 4.50231819,6.5872116 3.49325707,9.79849725 C2.48419596,13.0097829 1.47054299,16.2199076 0.461481874,19.4311932 L0.456890015,19.4311932 L0.456890015,20.2612978 C0.456890015,22.550761 2.3097053,24.4245915 4.57349201,24.4245915 C6.83842668,24.4245915 8.690094,22.550761 8.690094,20.2612978 Z" id="Fill-2" fill="#F69A98"></path>
                    <path d="M16.9049894,20.2612978 L16.930956,19.4265493 L18.2020483,9.79849725 L19.5077626,0.161157327 L13.013813,0.161157327 L10.8433928,9.79849725 L8.67302533,19.4311932 L8.67302533,20.2612978 C8.67302533,20.2612978 7.80670045,24.4245915 12.3558449,24.4245915 C16.9049894,24.4245915 16.9049894,20.2612978 16.9049894,20.2612978 Z" id="Fill-2-Copy" fill="#ECECEC"></path>
                    <path d="M47.3133968,20.2612978 L47.3393633,19.4265493 L48.6104556,9.79849725 L49.91617,0.161157327 L43.4222203,0.161157327 L41.2518001,9.79849725 L39.0814327,19.4311932 L39.0814327,20.2612978 C39.0814327,20.2612978 38.2151078,24.4245915 42.7642523,24.4245915 C47.3133968,24.4245915 47.3133968,20.2612978 47.3133968,20.2612978 Z" id="Fill-2-Copy-2" fill="#ECECEC" transform="translate(44.465848, 12.292874) scale(-1, 1) translate(-44.465848, -12.292874) "></path>
                    <path d="M58.0433993,19.3034848 C57.0435219,16.1339947 56.0482364,12.9633435 55.0529508,9.79849725 C54.0438897,6.5872116 53.0256449,3.37244298 52.0131399,0.161157327 L45.5145108,0.161157327 C46.2365807,3.37244298 46.9678343,6.5872116 47.6853124,9.79849725 C48.4073823,13.0097829 49.1248603,16.2199076 49.8515221,19.4311932 L49.8607058,19.4311932 L49.8607058,20.1927997 C49.8607058,22.4834239 51.7123731,24.3560934 53.9773078,24.3560934 C56.2410945,24.3560934 58.0927618,22.4834239 58.0927618,20.1927997 L58.0927618,19.2988409 L58.0433993,19.3034848 Z" id="Fill-3" fill="#F69A98"></path>
                    <path d="M33.3942978,19.4311932 L33.3942978,20.1835118 C33.3942978,22.474136 35.2459651,24.3468055 37.5108998,24.3468055 C39.7299159,24.3468055 41.5459963,22.5414732 41.6137262,20.3112202 C41.6137262,20.2659418 41.5999506,20.2241463 41.5999506,20.1788678 L41.5999506,19.2500795 C41.1694638,16.0980041 40.7481607,12.9459287 40.3222657,9.79849725 C39.8871871,6.5872116 39.4521084,3.37244298 39.0124378,0.161157327 L32.5149567,0.161157327 C32.6630442,3.37244298 32.8111317,6.5872116 32.9546273,9.79849725 C33.0981229,13.0097829 33.2416185,16.2199076 33.3942978,19.4311932 Z" id="Fill-4" fill="#F69A98"></path>
                    <polygon id="Fill-5" fill="#F69A98" points="34.0624134 44.9589405 35.5823188 44.9589405 35.5823188 40.6818703 34.0624134 40.6818703"></polygon>
                    <path d="M21.0215325,24.3421615 C23.2864672,24.3421615 25.1381345,22.4694921 25.1381345,20.1788678 L25.1381345,19.4311932 L25.1473182,19.4311932 C25.286222,16.2199076 25.4343095,13.0097829 25.5778051,9.79849725 C25.7213007,6.5872116 25.8647963,3.37244298 26.0082919,0.161157327 L19.5199945,0.161157327 C19.0895077,3.37244298 18.6498371,6.5872116 18.2193503,9.79849725 C17.7842716,13.0097829 17.3491929,16.2199076 16.923298,19.4311932 L16.9095224,19.4311932 L16.9095224,20.1788678 C16.9095224,20.1974436 16.9060785,20.2113754 16.9060785,20.2241463 C16.9324817,22.4915508 18.7715214,24.3421615 21.0215325,24.3421615 Z" id="Fill-6" fill="#F69A98"></path>
                    <path d="M29.4,24.3421615 C31.9941176,24.3421615 33.412248,22.3214506 33.394937,20.1788678 L33.412248,19.4311932 L32.962584,9.79849725 L32.5129201,0.161157327 L26.0041996,0.161157327 C25.5433928,8.58517331 26.0041996,2.57555199 25.5433928,9.79849725 C25.082586,17.0214425 25.1369148,18.0288639 25.1369148,19.4311932 C25.1323229,19.4311932 25.1231392,20.1788678 25.1231392,20.1788678 C25.1460985,22.4915508 26.8058824,24.3421615 29.4,24.3421615 Z" id="Fill-6-Copy" fill="#ECECEC"></path>
                </g>
            </g>
            <g id="Phone" transform="translate(97.200000, 107.652893)">
                <path d="M3.6,6.23720392 C3.6,2.79249131 6.3937583,0 9.83466293,0 L37.5493553,0 C40.9926646,0 43.7840182,2.79063709 43.7840182,6.23720392 L43.7840182,70.577022 C43.7840182,74.0217346 40.9902599,76.8142259 37.5493553,76.8142259 L9.83466293,76.8142259 C6.39135367,76.8142259 3.6,74.0235888 3.6,70.577022 L3.6,6.23720392 Z" id="Rectangle" fill="#C1C1C1"></path>
                <polygon id="Rectangle-2" fill="#ECEBED" points="6.11150114 11.5422317 41.2725171 11.5422317 41.2725171 65.481853 6.11150114 65.481853"></polygon>
                <path d="M24.9920435,27.6496629 L20.6083847,27.6496629 L20.0517226,28.4322927 L22.7626678,28.4322928 C23.4444731,28.4322928 23.4572146,28.7999719 23.696969,29.203665 L20.3873342,29.203665 L20.0517226,29.99945 L23.696969,29.99945 C23.4572147,30.4031431 22.881626,30.7714982 22.2101801,30.7714982 L20.6083847,30.7714982 C21.9512765,32.1171942 23.1543294,33.3636115 24.5606852,34.7091513 L26.1193409,34.7091513 L22.8350334,31.522656 C24.1535995,31.522656 24.7042492,30.8740665 24.9920435,29.99945 L26.7316684,29.9939685 L27.1024609,29.2131306 L24.9920435,29.203665 C24.9444489,28.9681253 24.7362909,28.6341394 24.5452612,28.4322928 L26.7316684,28.4322927 L27.1024609,27.6496629 L24.9920435,27.6496629 Z" id="Shape" fill="#F27674"></path>
                <rect id="Rectangle-3" fill="#F69A98" x="20.1340492" y="5.66618646" width="7.1159199" height="1.67887006" rx="0.839435031"></rect>
                <g id="Card" transform="translate(10.932935, 34.843416)">
                    <g id="UPI" transform="translate(0.000000, 0.000000)">
                        <polygon id="Shape" fill="#128B47" points="21.8713199 11.6199282 25.1040004 7.52918437 21.8713199 3.43923794"></polygon>
                        <polygon id="Shape" fill="#F27930" points="20.362953 11.6199282 23.5956333 7.52918437 20.362953 3.43923794"></polygon>
                        <text font-family="Roboto-Medium, Roboto" font-size="10.475765" font-weight="400" fill="#1D357F">
                            <tspan x="0.778339344" y="11">UPI</tspan>
                        </text>
                    </g>
                </g>
                <g id="Hand" transform="translate(28.020868, 81.041120) rotate(45.000000) translate(-28.020868, -81.041120) translate(7.020868, 63.665086)">
                    <path d="M20.547428,6.34074246 L20.5395796,6.34884719 C20.3224393,6.56799073 19.9734453,6.57241149 19.760177,6.35863602 L17.9222814,4.51696721 C17.7090131,4.30319175 17.7120479,3.95226737 17.9291881,3.73301858 L17.9371411,3.7250191 C18.1542813,3.50587556 18.5031707,3.5014548 18.7165437,3.71523027 L20.5544393,5.55689908 C20.7677076,5.77067455 20.7645682,6.12159892 20.547428,6.34074246" id="Fill-54" fill="#D8A88A"></path>
                    <path d="M21.6894285,22.4128473 L21.6763478,22.453371 C21.3197146,23.5617194 20.0818585,24.151365 18.9114989,23.7703373 L6.23511552,19.6437656 C4.37555821,18.9529688 4.50249367,17.9942947 4.85912683,16.8859463 L4.87220757,16.8454226 C5.45079464,15.5626646 7.82803511,15.6310811 9.12700443,16.0726312 L20.2160145,19.7161819 C21.386374,20.0971043 22.0460617,21.3044989 21.6894285,22.4128473" id="Fill-56" fill="#DFB18F"></path>
                    <path d="M4.57522256,17.8663031 C4.51117928,18.0193457 4.49642421,18.1918607 4.52520182,18.3596392 C4.57407145,18.645831 4.75720174,19.0431734 5.29340724,19.2643168 C6.1707583,19.6261878 7.54025894,20.1597318 7.72359853,20.1104719 C7.90693811,20.0613172 8.18623796,19.6988146 8.13914732,19.1371672 C8.09195203,18.5755198 8.02926914,18.4422654 7.62449888,18.1864927 C7.21972861,17.9307199 5.52729078,17.4756971 5.35200893,17.4640137 C5.19169144,17.4533828 4.77132894,17.3973865 4.57522256,17.8663031" id="Fill-57" fill="#E4DBCB"></path>
                    <polyline id="Fill-58" fill="#D8A88A" points="17.3302997 23.2553185 10.0798052 16.3917681 11.0675576 16.7166942 18.842328 23.7421287 17.3302997 23.2553185"></polyline>
                    <path d="M24.4101167,3.81627628 L24.3868854,3.79764592 L21.2306609,0.635853077 C20.4034353,-0.19314524 19.0501547,-0.17598847 18.208174,0.6740611 L18.1774081,0.705111697 C17.3353227,1.55516127 17.3232884,2.91622999 18.1505141,3.7452283 L20.0178152,5.61573733 C19.9272965,5.68383813 19.8359406,5.75383354 19.7440616,5.82498678 L16.7547473,2.83044613 C15.9275216,2.00155307 14.5743458,2.01860459 13.7322604,2.86865416 L13.7014945,2.89970475 C12.8594091,3.74975432 12.8474794,5.1109283 13.6747051,5.93982136 L16.4691687,8.73911164 C16.4417515,8.76668878 16.4143343,8.79352913 16.3869171,8.82121152 L16.2559004,8.95341339 L16.2283786,8.98151681 L12.4439649,5.19050203 C11.6167392,4.36150372 10.2634587,4.37866049 9.42147794,5.22871006 L9.39060741,5.25976065 C8.54862665,6.10981022 8.53659237,7.47087894 9.36381806,8.29987726 L13.3362803,12.2790902 C13.2554937,12.3848728 13.1766954,12.489708 13.0998853,12.5935959 L3.94514971,3.41967069 C2.95153707,2.42394645 1.46629808,2.30311226 0.627665993,3.14979363 L0.59700475,3.18073897 C-0.241627339,4.02731508 -0.116052282,5.52079618 0.877560357,6.51641516 L11.0047701,16.6650134 C11.1010443,16.7615334 11.1785869,16.8738418 11.2596875,16.9835188 C11.2749658,17.0042543 11.2917091,17.0237267 11.3098129,17.0418308 L16.8759273,22.6197811 C18.1819079,23.9285375 20.1237168,24.2830406 21.7531578,23.5856126 L30.8685466,32.7203825 L40.0223403,23.4790933 L30.9495425,14.3870574 C31.1804959,13.9603485 31.3435342,13.5466914 31.4242162,13.1388234 C31.6755756,11.8690118 31.0121207,10.4323691 30.243706,9.66231431 L24.4101167,3.81627628" id="Fill-59" fill="#E6BC9D"></path>
                    <path d="M3.27771828,5.74309741 L3.25521941,5.76583276 C2.63927376,6.38768675 1.9345884,6.685983 1.19620706,5.94603148 L0.55839042,5.3068102 C-0.179886269,4.56685868 0.0234406773,3.76670058 0.639386332,3.14484659 L0.661885196,3.12211123 C1.27783085,2.50025724 2.07313954,2.29227087 2.81152088,3.03211713 L3.44933752,3.67133841 C4.18761421,4.41128993 3.89366393,5.12124341 3.27771828,5.74309741" id="Fill-60" fill="#E4DBCB"></path>
                    <path d="M36.5734214,18.7957159 L26.2282343,29.1846142 C26.1645049,29.24861 26.0613241,29.2485047 25.9976994,29.1844037 L23.5787052,26.7474055 C23.5150805,26.6833044 23.5151852,26.5795217 23.5789145,26.5155259 L33.9241016,16.1266276 C33.987831,16.0626318 34.0910118,16.0627371 34.1546365,16.1268381 L36.5736307,18.5637311 C36.6372554,18.6278322 36.6371508,18.7317201 36.5734214,18.7957159" id="Fill-61" fill="#E5E5E5"></path>
                    <path d="M41.0725664,22.4732644 L29.9063277,33.686635 C29.7870314,33.8065219 29.5928086,33.8055746 29.4725705,33.6844246 L25.2650736,29.4456497 C25.1449401,29.324605 25.1442076,29.1292494 25.2636085,29.0093625 L36.4298473,17.7959919 C36.5491436,17.676105 36.7433663,17.6770524 36.8636044,17.7982023 L41.0711014,22.0369772 C41.1912348,22.1580219 41.1919674,22.3533775 41.0725664,22.4732644" id="Fill-62" fill="#F69A98"></path>
                    <path d="M33.502669,19.0572797 C33.2116754,18.868255 33.1285474,18.4792478 33.3170195,18.1870357 C33.5054916,17.8948237 33.8941811,17.8117259 34.1851747,18.0007505 C34.4762594,18.1897752 34.5593874,18.5796956 34.3709153,18.8719077 C34.1824433,19.1632065 33.7936627,19.2463043 33.502669,19.0572797 Z" id="Fill-99" fill="#4D6978"></path>
                </g>
            </g>
        </g>
    </g>
</svg>