<svg xmlns="http://www.w3.org/2000/svg" width="73" height="72" viewBox="0 0 73 72">
  <g fill="none" fill-rule="evenodd" transform="translate(7.578 3)">
    <g fill="#FEBBBA" transform="rotate(-20 50.79 8.21)">
      <path d="M14.7563026,11.3730739 C14.7368103,9.508502 13.2269658,7.99751309 11.3898124,8.01073115 L10.1333685,8.03055823 L10.1301197,6.75253754 C10.1114396,4.88713953 8.60159513,3.37697675 6.76444175,3.38936867 C4.69256807,3.41580478 3.02353616,5.1448916 3.03653105,7.25234524 L3.09988117,14.5164926 C3.10312989,14.9650803 3.44587027,15.3070975 3.88688454,15.3004885 L11.0283919,15.2327459 C13.1002656,15.2104405 14.7652366,13.4805275 14.7563026,11.3730739 Z" transform="rotate(-31 8.896 9.345)"/>
      <path d="M43.7777761,18.4578728 C42.3247843,18.4710909 41.1479341,19.687152 41.1568681,21.1626173 L41.169863,22.1721463 L40.1765657,22.1754508 C38.7235739,22.1886689 37.5467236,23.4047299 37.5564698,24.8801953 C37.57515,26.5481486 38.9176851,27.8939118 40.5574785,27.8873028 L46.2110703,27.8459964 C46.5603082,27.8426919 46.8267035,27.5684172 46.8234548,27.213182 L46.7787848,21.462502 C46.7633534,19.797027 45.4175695,18.4512638 43.7777761,18.4578728 Z" transform="rotate(31 42.19 23.173)"/>
      <path d="M42.1189534,6.92581928 C40.8145908,5.19012344 38.3561189,4.85141078 36.6432293,6.17404241 L35.4785617,7.08774046 L34.5932845,5.89315874 C33.289734,4.15746289 30.83045,3.81875023 29.1175603,5.14138186 C27.1918792,6.64576174 26.8207125,9.45625069 28.2834504,11.4249147 L33.3498354,18.1917328 C33.6641494,18.611406 34.218869,18.6857576 34.6282082,18.3693504 L41.2783461,13.2126567 C43.2097125,11.7057984 43.5841279,8.89448335 42.1189534,6.92581928 Z" transform="rotate(45 35.201 11.45)"/>
    </g>
    <g transform="translate(9.448 24.273)">
      <g transform="rotate(-37 20.082 6.232)">
        <path fill="#E1E1E1" d="M14.9438655,0.0367094656 L20.7743997,0.0367094656 L20.7743997,30.6210247 L15.0153913,30.6210247 C14.8954842,28.1693879 12.883183,26.2187369 10.4183605,26.2187369 C7.95353793,26.2187369 5.94123673,28.1693879 5.82132961,30.6210247 L0.0623212249,30.6210247 L0.0623212249,0.0367094656 L5.89285541,0.0367094656 C6.28917843,2.19024391 8.16459881,3.82113231 10.4183605,3.82113231 C12.6721221,3.82113231 14.5475425,2.19024391 14.9438655,0.0367094656 L14.9438655,0.0367094656 Z"/>
        <path stroke="#F9F9F9" stroke-dasharray="2.839" stroke-linecap="square" stroke-width=".643" d="M0.306845607,8.6891342 L20.4716559,8.6891342"/>
      </g>
      <g transform="translate(17.785 7.323)">
        <path fill="#F1F1F1" d="M5.86168255,30.5843152 L6.5343816e-13,30.5843152 L6.5343816e-13,-3.17389647e-13 L5.83053419,-3.17389647e-13 C6.22685721,2.15353444 8.10227758,3.78442284 10.3560392,3.78442284 C12.6098009,3.78442284 14.4852213,2.15353444 14.8815443,-3.17389647e-13 L20.7120785,-3.17389647e-13 L20.7120785,30.5843152 L14.8503959,30.5843152 C14.3947882,28.5077391 12.555594,26.9543586 10.3560392,26.9543586 C8.15648445,26.9543586 6.31729028,28.5077391 5.86168255,30.5843152 L5.86168255,30.5843152 Z"/>
        <path stroke="#DADADA" stroke-dasharray="2.839" stroke-linecap="square" stroke-width=".643" d="M0.383557009,8.76636732 L20.5483673,8.76636732"/>
      </g>
    </g>
  </g>
</svg>
