<svg xmlns="http://www.w3.org/2000/svg" width="58" height="58" viewBox="0 0 58 58">
  <g fill="none" transform="translate(2 8)">
    <path fill="#F1F1F1" d="M41.1430588,41.9940769 L6.72882353,41.9940769 C4.73435294,41.9940769 3.11752941,40.3494359 3.11752941,38.3208718 L3.11752941,17.7229231 C3.11752941,15.694359 4.73452941,14.0498974 6.72882353,14.0498974 L41.1428824,14.0498974 C43.1373529,14.0498974 44.7541765,15.6945385 44.7541765,17.7229231 L44.7541765,38.3208718 C44.7541765,40.3497949 43.1375294,41.9940769 41.1430588,41.9940769 Z"/>
    <path fill="#FEBBBA" d="M44.8039412,2.81364103 C44.4001765,1.16379487 42.9435882,0.00574358974 41.2718824,0.00574358974 L22.4488235,0.00574358974 L6.85464706,0.00574358974 C5.196,0.00574358974 3.74735294,1.14620513 3.33141176,2.779 L0.129882353,15.3463333 L0.129882353,15.3463333 C0.129882353,18.6874872 2.793,21.3961282 6.078,21.3961282 C9.363,21.3961282 12.0261176,18.6874872 12.0261176,15.3463333 L12.0728824,15.3463333 C12.0728824,18.6874872 14.736,21.3961282 18.021,21.3961282 C21.306,21.3961282 23.9691176,18.6874872 23.9691176,15.3463333 L24.0158824,15.3463333 C24.0158824,18.6874872 26.679,21.3961282 29.964,21.3961282 C33.249,21.3961282 35.9121176,18.6874872 35.9121176,15.3463333 L35.9590588,15.3463333 C35.9590588,18.6874872 38.6221765,21.3961282 41.9071765,21.3961282 C45.1921765,21.3961282 47.8552941,18.6874872 47.8552941,15.3463333 L47.8699412,15.3463333 L44.8039412,2.81364103 Z"/>
    <path fill="#FEDBDA" d="M12.0262941,15.3463333 C12.0262941,18.6874872 9.36317647,21.3961282 6.07817647,21.3961282 C2.79317647,21.3961282 0.130058824,18.6874872 0.130058824,15.3463333 L12.0262941,15.3463333 L12.0262941,15.3463333 Z"/>
    <path fill="#FEBBBA" d="M23.9692941,15.3463333 C23.9692941,18.6874872 21.3061765,21.3961282 18.0211765,21.3961282 C14.7361765,21.3961282 12.0730588,18.6874872 12.0730588,15.3463333 L23.9692941,15.3463333 L23.9692941,15.3463333 Z"/>
    <path fill="#FEDBDA" d="M35.9122941,15.3463333 C35.9122941,18.6874872 33.2491765,21.3961282 29.9641765,21.3961282 C26.6791765,21.3961282 24.0160588,18.6874872 24.0160588,15.3463333 L35.9122941,15.3463333 L35.9122941,15.3463333 Z"/>
    <path fill="#FEBBBA" d="M47.8552941 15.3463333C47.8552941 18.6874872 45.1921765 21.3961282 41.9071765 21.3961282 38.6221765 21.3961282 35.9590588 18.6874872 35.9590588 15.3463333L47.8552941 15.3463333 47.8552941 15.3463333zM44.8039412 2.81364103C44.4001765 1.16379487 42.9435882.00574358974 41.2718824.00574358974L22.4488235.00574358974 22.4488235 15.3463333 47.8699412 15.3463333 44.8039412 2.81364103z"/>
    <path fill="#FEDBDA" d="M6.85482353,0.00592307692 C5.19617647,0.00592307692 3.74752941,1.14638462 3.33158824,2.77917949 L0.130058824,15.3465128 L12.0262941,15.3465128 L13.9425882,0.00574358974 L6.85482353,0.00592307692 L6.85482353,0.00592307692 Z"/>
    <polygon fill="#FEDBDA" points="23.936 .006 23.936 15.346 35.845 15.346 33.929 .006"/>
  </g>
</svg>
