<svg xmlns="http://www.w3.org/2000/svg" width="58" height="58" viewBox="0 0 58 58">
  <g fill="none" fill-rule="evenodd" transform="translate(3 5)">
    <path fill="#FEE7E7" d="M22.0742222,19.9671351 L22.0742222,32.0387027 C18.0297778,32.0387027 16.1515556,28.5277838 16.1515556,27.4207568 L16.1515556,19.9671351 L22.0742222,19.9671351 Z M22.0742222,19.9671351 L27.9971111,19.9671351 L27.9971111,27.4207568 C27.9971111,28.5277838 26.1186667,32.0387027 22.0742222,32.0387027 L22.0742222,19.9671351 Z"/>
    <path fill="#FFEBEB" d="M22.0742222,5.20237838 L22.0742222,25.9788108 C18.316,25.9788108 14.4126667,21.7651892 14.4126667,15.4168649 C14.4126667,9.67956757 15.4013333,5.20237838 22.0742222,5.20237838 Z M22.0742222,5.20237838 C28.7473333,5.20237838 29.7357778,9.67956757 29.7357778,15.4168649 C29.7357778,21.7651892 25.8324444,25.9788108 22.0742222,25.9788108 L22.0742222,5.20237838 Z"/>
    <path fill="#FEDBDA" d="M14.5024444,14.6527568 C14.0328889,12.9455135 13.3904444,12.9455135 13.1184444,13.3783784 C12.8466667,13.8112432 13.0515556,14.8462703 13.5131111,16.4992432 C13.8826667,17.8220541 14.2533333,18.4423784 14.7733333,17.9422703 C15.2933333,17.4421622 14.5024444,14.6527568 14.5024444,14.6527568"/>
    <path fill="#F1F1F1" d="M13.576,28.7442162 L22.0742222,32.2745946 L22.0742222,47.7894054 L0.192888889,47.7894054 C0.192888889,47.7894054 1.43466667,36.0304865 2.04644444,33.6497297 C3.04288889,29.7725405 12.8546667,28.8490811 13.518,28.7530811 L13.576,28.7442162 Z M30.5726667,28.7442162 L30.6304444,28.7530811 L30.6306667,28.7530811 C31.294,28.8490811 41.1055556,29.7725405 42.102,33.6497297 C42.7137778,36.0304865 43.9557778,47.7894054 43.9557778,47.7894054 L22.0742222,47.7894054 L22.0742222,32.2745946 L30.5726667,28.7442162 Z"/>
    <path fill="#F69A98" d="M22.0742222 36.5535135L22.0742222 47.7894054 19.8795556 47.7894054 20.2675556 36.5535135 22.0742222 36.5535135zM22.0742222 36.5535135L23.8808889 36.5535135 24.2691111 47.7894054 22.0742222 47.7894054 22.0742222 36.5535135zM22.0742222 32.2745946L22.0742222 36.5535135 20.2675556 36.5535135 19.1128889 34.6237838 20.4844444 32.2745946 22.0742222 32.2745946zM22.0742222 32.2745946L23.664 32.2745946 25.0357778 34.6237838 23.8808889 36.5535135 22.0742222 36.5535135 22.0742222 32.2745946z"/>
    <path fill="#CFCFCF" d="M18.3408889,28.7442162 L16.1515556,26.8685405 C15.096,27.4458378 13.576,28.7442162 13.576,28.7442162 L20.5935556,36.4032432 L22.0742222,32.2745946 L22.0742222,31.9429189 L18.3408889,28.7442162"/>
    <path fill="#FEDBDA" d="M29.646,14.6527568 C30.1155556,12.9455135 30.7582222,12.9455135 31.03,13.3783784 C31.3017778,13.8112432 31.0968889,14.8462703 30.6353333,16.4992432 C30.2657778,17.8220541 29.8953333,18.4423784 29.3751111,17.9422703 C28.8551111,17.4421622 29.646,14.6527568 29.646,14.6527568"/>
    <path fill="#5D857C" d="M22.0742222,32.2745946 L22.1855556,32.1535135 L22.3191111,32.0343784 C22.4533333,32.0296216 22.5853333,32.020973 22.7146667,32.0084324 L22.0742222,32.2745946 M26.0311111,30.6309189 C27.3606667,29.5241081 27.9971111,28.0652973 27.9971111,27.4207568 L27.9971111,26.8685405 C29.0526667,27.4698378 30.5726667,28.7442162 30.5726667,28.7442162 L26.0311111,30.6309189"/>
    <path fill="#A78B77" d="M22.3191111,32.0343784 L25.9188889,28.8222703 L27.9971111,26.8685405 L27.9971111,27.4207568 C27.9971111,28.0652973 27.3606667,29.5241081 26.0311111,30.6309189 L22.7146667,32.0084324 C22.5853333,32.020973 22.4533333,32.0296216 22.3191111,32.0343784"/>
    <path fill="#CFCFCF" d="M25.8077778,28.7442162 L27.9971111,26.8685405 C29.0526667,27.4458378 30.5726667,28.7442162 30.5726667,28.7442162 L23.5548889,36.4032432 L22.0742222,32.2745946 L22.0742222,31.9429189 L25.8077778,28.7442162"/>
    <path fill="#AAA" d="M17.5344444,11.0216216 C17.5344444,11.0216216 20.0546667,10.3738378 22.0742222,9.16021622 L22.0742222,9.86097297 C19.7964444,10.6968649 17.5344444,11.0216216 17.5344444,11.0216216 Z M14.094,6.18832432 C14.9142222,2.86832432 17.7737778,1.04216216 22.0742222,1.04216216 L22.0742222,8.0547027 C19.9631111,9.21556757 17.2015556,9.80086486 16.0871111,10.0021622 C14.4835556,12.4423784 15.0755556,15.9308108 14.4008889,15.7995676 C14.242,15.364973 12.9091111,10.9837838 14.094,6.18832432 Z M25.9037778,7.54810811 C25.0248889,8.56735135 23.5464444,9.32064865 22.0742222,9.86097297 L22.0742222,9.16021622 C22.8553333,8.69081081 23.5617778,8.13686486 24.018,7.50291892 C23.4755556,8.0787027 22.7875556,8.55156757 22.0742222,8.93556757 L22.0742222,8.06421622 L22.0988889,8.04172973 L22.0742222,8.0547027 L22.0742222,1.04216216 C22.6462222,1.04216216 23.1993333,1.06637838 23.7273333,1.1187027 C22.6855556,0.453189189 22.3946667,0.0309189189 22.3946667,0.0309189189 C24.2891111,-0.0220540541 25.2817778,0.757405405 26.2508889,1.71286486 L26.2817778,1.728 C25.7002222,0.818594595 24.9526667,0.144432432 24.9526667,0.144432432 C26.3953333,0.48172973 27.1842222,1.47178378 27.6124444,2.37081081 C27.6295556,1.51891892 27.426,0.724540541 27.426,0.724540541 C27.426,0.724540541 28.7186667,2.42118919 28.4582222,4.2252973 C28.4582222,4.2252973 30.0824444,4.44540541 30.5726667,5.98032432 C32.2664444,11.2847568 29.9066667,15.364973 29.7475556,15.7995676 C29.0357778,15.9379459 30.5726667,12.7182703 28.1057778,9.23718919 C27.5571111,8.46291892 26.8237778,7.91437838 25.9037778,7.54810811 Z M18.0897778,10.3487568 C18.0897778,10.3487568 20.4768889,9.54940541 22.0742222,8.06421622 L22.0742222,8.93556757 C20.1726667,9.95956757 18.0897778,10.3487568 18.0897778,10.3487568 Z"/>
    <polyline fill="#524D42" points="22.074 8.055 22.074 8.064 22.099 8.042 22.074 8.055"/>
  </g>
</svg>
