<svg xmlns="http://www.w3.org/2000/svg" width="73" height="72" viewBox="0 0 73 72">
  <g fill="none" fill-rule="evenodd" transform="translate(6.578 8)">
    <path fill="#FEE6E6" d="M26.1091533,23.294991 L26.1091533,37.3784865 C21.3254278,37.3784865 19.1038867,33.2824144 19.1038867,31.9908829 L19.1038867,23.294991 L26.1091533,23.294991 Z M26.1091533,23.294991 L33.1146827,23.294991 L33.1146827,31.9908829 C33.1146827,33.2824144 30.8928788,37.3784865 26.1091533,37.3784865 L26.1091533,23.294991 Z"/>
    <path fill="#FFEBEB" d="M17.0471475,17.9863423 C17.0471475,11.2928288 18.2165319,6.06944144 26.1091533,6.06944144 L26.1091533,30.3086126 C21.6639683,30.3086126 17.0471475,25.3927207 17.0471475,17.9863423 Z M35.171159,17.9863423 C35.171159,25.3927207 30.5543382,30.3086126 26.1091533,30.3086126 L26.1091533,6.06944144 C34.0020375,6.06944144 35.171159,11.2928288 35.171159,17.9863423 Z"/>
    <g transform="translate(20.422 16)">
      <path fill="#9B9B9B" d="M9.6996271,1.11574575 C9.85453152,0.866251935 10.156964,0.74336692 10.45202,0.825290264 C10.8171518,0.925832549 11.0605731,1.27959244 10.9868091,1.66314264 C10.9204214,2.01317874 10.5921716,2.30735802 10.230728,2.29991044 C9.85453152,2.28873908 9.50784068,1.96849328 9.50046428,1.5812193 C9.49308788,1.39502988 9.57422829,1.23490698 9.6996271,1.11574575 Z"/>
      <path fill="#EF6B69" d="M5.68272206,10.3220331 C5.60155653,10.3214182 5.52353223,10.3191099 5.44967182,10.3147251 C4.43948162,10.2526074 3.53187143,9.77511061 3.24865377,9.28540838 C3.20236338,9.20536921 3.20598906,9.0986899 3.30508129,9.04461097 C3.40417352,8.99089744 3.53950781,9.01062894 3.60740433,9.08918955 C3.89045944,9.41695173 4.59052767,9.79477345 5.45804342,9.84739079 C6.04800918,9.88246902 6.92653517,9.77540735 7.77937058,9.05447672 C7.86194744,8.98468567 7.99957553,8.98176248 8.08673999,9.04680336 C8.17390445,9.11257503 8.16831527,9.30220514 8.08673999,9.37204153 C7.24149197,10.0956562 6.60899349,10.3290501 5.68272206,10.3220331 Z"/>
      <path fill="#9B9B9B" d="M2.00038511,1.11574575 C2.12578392,1.23490698 2.20692433,1.39502988 2.19954793,1.5812193 C2.19217153,1.96849328 1.84548069,2.28873908 1.46928424,2.29991044 C1.1078406,2.30735802 0.779590763,2.01317874 0.713203155,1.66314264 C0.639439147,1.27959244 0.882860375,0.925832549 1.24799222,0.825290264 C1.54304825,0.74336692 1.84548069,0.866251935 2.00038511,1.11574575"/>
    </g>
    <path fill="#FDDADA" d="M17.1533357,17.0948829 C16.5979504,15.1030991 15.8380741,15.1030991 15.5163554,15.6081081 C15.1948995,16.1131171 15.4372399,17.3206486 15.9831629,19.2491171 C16.4202692,20.7923964 16.8586898,21.5161081 17.4737402,20.9326486 C18.0887906,20.3491892 17.1533357,17.0948829 17.1533357,17.0948829"/>
    <path fill="#F1F1F1" d="M16.0575472,33.5349189 L26.1091533,37.6536937 L26.1091533,55.7543063 L0.228146909,55.7543063 C0.228146909,55.7543063 1.69690834,42.0355676 2.42051254,39.258018 C3.59909634,34.7346306 15.2043618,33.6572613 15.9889454,33.5452613 L16.0575472,33.5349189 Z M36.1610222,33.5349189 L36.2293611,33.5452613 L36.229624,33.5452613 C37.0142075,33.6572613 48.6192102,34.7346306 49.797794,39.258018 C50.5213982,42.0355676 51.9904224,55.7543063 51.9904224,55.7543063 L26.1091533,55.7543063 L26.1091533,37.6536937 L36.1610222,33.5349189 Z"/>
    <path fill="#F69A98" d="M26.1091533 42.6457658L26.1091533 55.7543063 23.5133251 55.7543063 23.9722473 42.6457658 26.1091533 42.6457658zM26.1091533 42.6457658L28.2460592 42.6457658 28.7052443 55.7543063 26.1091533 55.7543063 26.1091533 42.6457658zM26.1091533 37.6536937L26.1091533 42.6457658 23.9722473 42.6457658 22.60652 40.3944144 24.2287812 37.6536937 26.1091533 37.6536937zM26.1091533 37.6536937L27.9895254 37.6536937 29.6120494 40.3944144 28.2460592 42.6457658 26.1091533 42.6457658 26.1091533 37.6536937z"/>
    <path fill="#CFCFCF" d="M21.6934066,33.5349189 L19.1038867,31.3466306 C17.8553869,32.0201441 16.0575472,33.5349189 16.0575472,33.5349189 L24.3578366,42.4704505 L26.1091533,37.6536937 L26.1091533,37.2667387 L21.6934066,33.5349189"/>
    <path fill="#FDDADA" d="M35.0649708,17.0948829 C35.6203561,15.1030991 36.3804953,15.1030991 36.7019511,15.6081081 C37.023407,16.1131171 36.7810666,17.3206486 36.2351436,19.2491171 C35.7980373,20.7923964 35.3598796,21.5161081 34.7445663,20.9326486 C34.1295159,20.3491892 35.0649708,17.0948829 35.0649708,17.0948829"/>
    <path fill="#5D857C" d="M26.1091533,37.6536937 L26.2408371,37.5124324 L26.3988052,37.3734414 C26.5575618,37.3678919 26.71369,37.3578018 26.8666641,37.3431712 L26.1091533,37.6536937 M30.789319,35.7360721 C32.361903,34.4447928 33.1146827,32.7428468 33.1146827,31.9908829 L33.1146827,31.3466306 C34.3631825,32.0481441 36.1610222,33.5349189 36.1610222,33.5349189 L30.789319,35.7360721"/>
    <path fill="#A68A77" d="M26.3988052,37.3734414 L30.6565838,33.625982 L33.1146827,31.3466306 L33.1146827,31.9908829 C33.1146827,32.7428468 32.361903,34.4447928 30.789319,35.7360721 L26.8666641,37.3431712 C26.71369,37.3578018 26.5575618,37.3678919 26.3988052,37.3734414"/>
    <path fill="#CFCFCF" d="M30.5251627,33.5349189 L33.1146827,31.3466306 C34.3631825,32.0201441 36.1610222,33.5349189 36.1610222,33.5349189 L27.8604699,42.4704505 L26.1091533,37.6536937 L26.1091533,37.2667387 L30.5251627,33.5349189"/>
    <path fill="#AAA" d="M20.7395528,12.8585586 C20.7395528,12.8585586 23.7204446,12.1028108 26.1091533,10.6869189 L26.1091533,11.5044685 C23.4150221,12.4796757 20.7395528,12.8585586 20.7395528,12.8585586 Z M16.670232,7.21971171 C17.6403821,3.34637838 21.0226337,1.21585586 26.1091533,1.21585586 L26.1091533,9.39715315 C23.6121537,10.7514955 20.3458154,11.4343423 19.0276625,11.6691892 C17.1309941,14.5161081 17.8312054,18.5859459 17.0332169,18.4328288 C16.8452848,17.9258018 15.2687581,12.8144144 16.670232,7.21971171 Z M30.6387105,8.80612613 C29.5991701,9.99524324 27.8504819,10.8740901 26.1091533,11.5044685 L26.1091533,10.6869189 C27.0330431,10.1392793 27.868618,9.49300901 28.4082328,8.75340541 C27.7666353,9.42515315 26.9528763,9.97682883 26.1091533,10.4248288 L26.1091533,9.40825225 L26.1383287,9.38201802 L26.1091533,9.39715315 L26.1091533,1.21585586 C26.7857087,1.21585586 27.4399226,1.24410811 28.0644353,1.30515315 C26.8322318,0.528720721 26.4881715,0.0360720721 26.4881715,0.0360720721 C28.7289001,-0.0257297297 29.9030156,0.88363964 31.0492698,1.99834234 L31.0858048,2.016 C30.3979472,0.955027027 29.5137465,0.168504505 29.5137465,0.168504505 C31.2201171,0.562018018 32.1532064,1.71708108 32.6597031,2.76594595 C32.6799419,1.77207207 32.4391786,0.845297297 32.4391786,0.845297297 C32.4391786,0.845297297 33.9681309,2.82472072 33.66008,4.92951351 C33.66008,4.92951351 35.5811926,5.18630631 36.1610222,6.97704505 C38.1644044,13.1655495 35.3732845,17.9258018 35.1850896,18.4328288 C34.3432065,18.5942703 36.1610222,14.837982 33.2432125,10.7767207 C32.5942554,9.87340541 31.7268766,9.23344144 30.6387105,8.80612613 Z M21.3963951,12.0735495 C21.3963951,12.0735495 24.2198445,11.140973 26.1091533,9.40825225 L26.1091533,10.4248288 C23.8600137,11.6194955 21.3963951,12.0735495 21.3963951,12.0735495 Z"/>
    <polyline fill="#524D42" points="26.109 9.397 26.109 9.408 26.138 9.382 26.109 9.397"/>
  </g>
</svg>
