<svg xmlns="http://www.w3.org/2000/svg" width="59" height="58" viewBox="0 0 59 58">
  <g fill="none" fill-rule="evenodd" transform="translate(5.574 6)">
    <path fill="#FEE6E6" d="M21.0881622,18.7191892 L21.0881622,30.0362838 C17.224384,30.0362838 15.4300623,26.7447973 15.4300623,25.7069595 L15.4300623,18.7191892 L21.0881622,18.7191892 Z M21.0881622,18.7191892 L26.7464745,18.7191892 L26.7464745,25.7069595 C26.7464745,26.7447973 24.9519405,30.0362838 21.0881622,30.0362838 L21.0881622,18.7191892 Z"/>
    <path fill="#FFEBEB" d="M13.7688499,14.4533108 C13.7688499,9.07459459 14.7133527,4.87722973 21.0881622,4.87722973 L21.0881622,24.3551351 C17.4978206,24.3551351 13.7688499,20.4048649 13.7688499,14.4533108 Z M28.4074746,14.4533108 C28.4074746,20.4048649 24.6785039,24.3551351 21.0881622,24.3551351 L21.0881622,4.87722973 C27.4631841,4.87722973 28.4074746,9.07459459 28.4074746,14.4533108 Z"/>
    <g transform="translate(16.494 12.857)">
      <path fill="#9B9B9B" d="M7.8343142,0.896581409 C7.9594293,0.696095305 8.20370166,0.597348418 8.44201615,0.663179676 C8.73693033,0.743972584 8.93353978,1.02824393 8.87396116,1.33645391 C8.8203404,1.61773292 8.55521553,1.85412698 8.26328028,1.84814232 C7.9594293,1.83916533 7.67940978,1.58182496 7.67345192,1.27062265 C7.66749405,1.12100615 7.73303054,0.992335966 7.8343142,0.896581409 Z"/>
      <path fill="#EF6B69" d="M4.5898909,8.29449086 C4.52433412,8.29399677 4.4613145,8.29214187 4.40165801,8.28861839 C3.58573516,8.23870239 2.85266539,7.8549996 2.62391266,7.46148887 C2.58652427,7.39717169 2.5894527,7.31144724 2.66948873,7.26799096 C2.74952476,7.2248283 2.85883323,7.24068397 2.91367273,7.30381303 C3.14229417,7.56719335 3.70773389,7.8708001 4.40841968,7.91308189 C4.88493049,7.94126975 5.59450917,7.85523805 6.28333778,7.27591879 C6.35003447,7.2198367 6.46119562,7.21748771 6.53159768,7.2697527 C6.60199975,7.32260494 6.59748541,7.47498627 6.53159768,7.5311048 C5.84889736,8.11258091 5.3380332,8.30012951 4.5898909,8.29449086 Z"/>
      <path fill="#9B9B9B" d="M1.61569566,0.896581409 C1.71697932,0.992335966 1.78251581,1.12100615 1.77655794,1.27062265 C1.77060008,1.58182496 1.49058056,1.83916533 1.18672958,1.84814232 C0.894794332,1.85412698 0.629669463,1.61773292 0.576048702,1.33645391 C0.51647008,1.02824393 0.713079534,0.743972584 1.00799371,0.663179676 C1.2463082,0.597348418 1.49058056,0.696095305 1.61569566,0.896581409"/>
    </g>
    <path fill="#FDDADA" d="M13.8546173,13.7369595 C13.4060369,12.1364189 12.7922906,12.1364189 12.5324409,12.5422297 C12.2728035,12.9480405 12.4685399,13.9183784 12.9094777,15.4680405 C13.2625251,16.7081757 13.616634,17.2897297 14.1134055,16.8208784 C14.610177,16.352027 13.8546173,13.7369595 13.8546173,13.7369595"/>
    <path fill="#F1F1F1" d="M12.9695573,26.9477027 L21.0881622,30.2574324 L21.0881622,44.8025676 L0.184272503,44.8025676 C0.184272503,44.8025676 1.37057982,33.7785811 1.95502936,31.5466216 C2.90696243,27.9117568 12.2804461,27.0460135 12.9141482,26.9560135 L12.9695573,26.9477027 Z M29.2069795,26.9477027 L29.2621763,26.9560135 L29.2623886,26.9560135 C29.8960907,27.0460135 39.2693621,27.9117568 40.2212951,31.5466216 C40.8057447,33.7785811 41.9922643,44.8025676 41.9922643,44.8025676 L21.0881622,44.8025676 L21.0881622,30.2574324 L29.2069795,26.9477027 Z"/>
    <path fill="#F69A98" d="M21.0881622 34.2689189L21.0881622 44.8025676 18.9915318 44.8025676 19.3621997 34.2689189 21.0881622 34.2689189zM21.0881622 34.2689189L22.8141247 34.2689189 23.185005 44.8025676 21.0881622 44.8025676 21.0881622 34.2689189zM21.0881622 30.2574324L21.0881622 34.2689189 19.3621997 34.2689189 18.2591123 32.4597973 19.5694002 30.2574324 21.0881622 30.2574324zM21.0881622 30.2574324L22.6069243 30.2574324 23.9174245 32.4597973 22.8141247 34.2689189 21.0881622 34.2689189 21.0881622 30.2574324z"/>
    <path fill="#CFCFCF" d="M17.5215977,26.9477027 L15.4300623,25.1892568 C14.4216586,25.730473 12.9695573,26.9477027 12.9695573,26.9477027 L19.6736373,34.1280405 L21.0881622,30.2574324 L21.0881622,29.9464865 L17.5215977,26.9477027"/>
    <path fill="#FDDADA" d="M28.3217072,13.7369595 C28.7702876,12.1364189 29.3842462,12.1364189 29.6438836,12.5422297 C29.903521,12.9480405 29.7077846,13.9183784 29.2668468,15.4680405 C28.9137994,16.7081757 28.5599027,17.2897297 28.062919,16.8208784 C27.5661475,16.352027 28.3217072,13.7369595 28.3217072,13.7369595"/>
    <path fill="#5D857C" d="M21.0881622,30.2574324 L21.1945223,30.1439189 L21.3221119,30.0322297 C21.4503384,30.0277703 21.5764419,30.0196622 21.6999979,30.0079054 L21.0881622,30.2574324 M24.8682961,28.7164865 C26.1384601,27.6788514 26.7464745,26.3112162 26.7464745,25.7069595 L26.7464745,25.1892568 C27.7548782,25.752973 29.2069795,26.9477027 29.2069795,26.9477027 L24.8682961,28.7164865"/>
    <path fill="#A68A77" d="M21.3221119,30.0322297 L24.7610869,27.0208784 L26.7464745,25.1892568 L26.7464745,25.7069595 C26.7464745,26.3112162 26.1384601,27.6788514 24.8682961,28.7164865 L21.6999979,30.0079054 C21.5764419,30.0196622 21.4503384,30.0277703 21.3221119,30.0322297"/>
    <path fill="#CFCFCF" d="M24.6549391,26.9477027 L26.7464745,25.1892568 C27.7548782,25.730473 29.2069795,26.9477027 29.2069795,26.9477027 L22.5026872,34.1280405 L21.0881622,30.2574324 L21.0881622,29.9464865 L24.6549391,26.9477027"/>
    <path fill="#AAA" d="M16.7511773,10.3327703 C16.7511773,10.3327703 19.1588206,9.72547297 21.0881622,8.5877027 L21.0881622,9.24466216 C18.9121333,10.0283108 16.7511773,10.3327703 16.7511773,10.3327703 Z M13.4644182,5.80155405 C14.2480009,2.68905405 16.9798195,0.977027027 21.0881622,0.977027027 L21.0881622,7.55128378 C19.0713549,8.63959459 16.4331586,9.18831081 15.3684966,9.37702703 C13.8365722,11.6647297 14.4021274,14.9351351 13.7575983,14.8120946 C13.605807,14.4046622 12.3324585,10.2972973 13.4644182,5.80155405 Z M24.7466508,7.07635135 C23.907022,8.03189189 22.49462,8.73810811 21.0881622,9.24466216 L21.0881622,8.5877027 C21.834381,8.14763514 22.5092684,7.62831081 22.9451111,7.03398649 C22.4268977,7.57378378 21.7696308,8.01709459 21.0881622,8.37709459 L21.0881622,7.5602027 L21.111727,7.53912162 L21.0881622,7.55128378 L21.0881622,0.977027027 C21.6346109,0.977027027 22.1630144,0.99972973 22.6674286,1.04878378 C21.6721872,0.424864865 21.3942924,0.0289864865 21.3942924,0.0289864865 C23.2041116,-0.0206756757 24.1524356,0.710067568 25.0782564,1.60581081 L25.1077654,1.62 C24.5521881,0.767432432 23.838026,0.135405405 23.838026,0.135405405 C25.2162484,0.451621622 25.9698975,1.3797973 26.378991,2.22263514 C26.3953377,1.42398649 26.200875,0.679256757 26.200875,0.679256757 C26.200875,0.679256757 27.435798,2.26986486 27.1869877,3.96121622 C27.1869877,3.96121622 28.7386556,4.16756757 29.2069795,5.60655405 C30.8250958,10.5794595 28.5707298,14.4046622 28.4187262,14.8120946 C27.7387437,14.9418243 29.2069795,11.9233784 26.850287,8.65986486 C26.3261294,7.93398649 25.6255542,7.41972973 24.7466508,7.07635135 Z M17.2817037,9.70195946 C17.2817037,9.70195946 19.5621821,8.95256757 21.0881622,7.5602027 L21.0881622,8.37709459 C19.2715496,9.33709459 17.2817037,9.70195946 17.2817037,9.70195946 Z"/>
    <polyline fill="#524D42" points="21.088 7.551 21.088 7.56 21.112 7.539 21.088 7.551"/>
  </g>
</svg>
