<svg xmlns="http://www.w3.org/2000/svg" width="58" height="58" viewBox="0 0 58 58">
  <g fill="none" fill-rule="evenodd" transform="translate(10 4)">
    <ellipse cx="28.805" cy="4.971" fill="#FEBBBA" rx="5.071" ry="4.806"/>
    <path fill="#F1F1F1" d="M13.9687241,16.1738889 L20.0693793,16.0466667 C20.0693793,16.0466667 20.9973448,12.615 21.1204483,12.4538889 C21.2441379,12.2927778 17.9983103,12.8205556 17.9983103,12.8205556 L21.3326552,8.41 C21.7054828,8.15888889 21.9511034,7.74888889 21.9511034,7.28277778 C21.9511034,6.82055556 21.7113448,6.41222222 21.3443793,6.16055556 L21.3373448,7.49111111 L20.2868621,7.87444444 L19.9931724,7.91388889 L18.1606897,7.85166667 L13.1222414,13.6688889 C12.7541034,13.92 12.5114138,14.3272222 12.5114138,14.7911111 C12.5102414,15.5544444 13.1632759,16.1738889 13.9687241,16.1738889 Z"/>
    <polygon fill="#FEBBBA" points="7.74 28.328 9.19 28.328 9.652 17.338 7.74 17.338"/>
    <polygon fill="#FEBBBA" points="7.335 28.328 7.335 17.338 5.381 17.338 5.843 28.328"/>
    <polygon fill="#FEBBBA" points="2.987 17.338 3.859 28.328 5.438 28.328 4.976 17.338"/>
    <polygon fill="#FEBBBA" points="11.392 21.727 11.84 17.338 10.058 17.338 9.594 28.328 10.718 28.328 11.122 24.369"/>
    <path fill="#F1F1F1" d="M11.4896588 24.3694444C11.4896588 24.3694444 19.3754665 24.2359723 19.9732414 24.2111111 20.5823103 23.8494444 25.6107931 19.4366667 28.0752069 16.99L28.1449655 16.94C28.863069 16.565 29.3097586 15.8583333 29.3097586 15.0961111 29.3097586 13.9294444 28.305 12.9805556 27.0722069 12.9805556 26.4361724 12.9805556 25.8247586 13.2466667 25.395069 13.7111111L25.2995172 13.8144444 18.9796207 20.6261111 11.8059701 21.667114 11.4896588 24.3694444zM21.4117931 35.0177778C21.434069 35.0183333 21.4545862 35.0211111 21.4762759 35.0211111 21.4897586 35.0211111 21.502069 35.0194444 21.5155517 35.0194444 21.5964483 35.0205556 21.6404138 35.0211111 21.6404138 35.0211111L21.6404138 35.0133333C23.902 34.9311111 25.7104483 33.1722222 25.7104483 31.0077778 25.7104483 28.7916667 23.8146552 26.995 21.4756897 26.995 21.4270345 26.995 21.3801379 27.0005556 21.332069 27.0022222 21.332069 27.0022222 7.58903448 29.7122222 6.511 30.105 4.89541379 30.6933333 4.42937931 32.0477778 4.0882069 33.2544444 3.74644828 34.4611111.173517241 46.7061111.173517241 46.7061111L.200482759 46.7155556C.153586207 46.8994444.122517241 47.0883333.122517241 47.2855556.122517241 48.64 1.28203448 49.7383333 2.7112069 49.7383333 4.00144828 49.7383333 5.06248276 48.8411111 5.25886207 47.67 6.06372414 45.1688889 9.14717241 35.6438889 9.52468966 35.2855556 9.92506897 34.9077778 19.7950345 35.0005556 21.4117931 35.0177778z"/>
    <path fill="#F1F1F1" d="M18.3728966,27.1077778 C18.3963448,27.1 18.4532069,27.085 18.5335172,27.065 C19.3161034,26.6333333 20.2258966,26.3844444 21.1966552,26.3844444 C23.3451034,26.3844444 25.194,27.5966667 26.0264138,29.3372222 C26.4432069,29.24 27.2808966,26.8088889 27.4127931,26.5944444 C27.54,26.3861111 29.8250345,18.0372222 30.5554483,15.0811111 C30.6433793,14.86 30.7090345,14.6283333 30.7447931,14.3866667 C31.0548966,12.3205556 29.2183103,10.3638889 26.6401724,10.0166667 C24.1575862,9.68111111 21.8965862,10.9627778 21.456931,12.905 L21.4481379,12.9066667 C21.4481379,12.9066667 20.7523103,15.6872222 20.0248276,18.6666667 L25.0445172,13.2461111 L25.0591724,13.2472222 C25.5920345,12.7288889 26.3165862,12.4344444 27.0704483,12.4344444 C28.6227241,12.4344444 29.8848276,13.6288889 29.8848276,15.0966667 C29.8848276,16.0444444 29.3402414,16.9222222 28.460931,17.3983333 C27.1513448,18.6966667 25.0814483,20.5766667 23.5743103,21.9111111 C20.3888621,24.7288889 20.1866207,24.745 20.0652759,24.7544444 C19.9738276,24.7616667 19.3981724,24.7755556 18.5745517,24.7911111 C18.4731379,25.2572222 18.4074828,25.5888889 18.3916552,25.7294444 C18.3312759,26.3 18.1858966,27.1666667 18.3728966,27.1077778 Z"/>
    <polygon fill="#CFCFCF" points="31.673 35.596 14.092 35.596 14.092 38.344 14.092 38.344 14.092 49.835 16.212 49.835 16.212 38.344 31.673 38.344 31.673 49.835 33.543 49.835 33.543 14.384 31.673 14.384"/>
    <path fill="#FEDBDA" d="M8.53341379 13.0705556C8.53341379 13.0705556 7.92493103 13.2627778 8.29717241 13.9038889 8.66941379 14.545 9.19406897 13.9322222 9.12606897 14.1894444 9.05748276 14.4455556 9.24506897 14.5777778 9.58331034 14.6416667 9.92155172 14.7061111 9.91862069 14.2916667 9.91862069 14.2916667 9.91862069 14.2916667 10.1243793 14.2894444 10.3272069 14.225 10.5224138 14.1638889 10.6132759 13.7783333 10.3805517 13.2933333 10.4848966 13.3755556 10.7381379 12.6444444 10.4948621 12.3277778 10.2240345 11.975 9.37931034 12.205 9.37931034 12.205L9.21634483 12.465C9.21634483 12.465 9.21282759 12.2161111 8.568 12.2433333 8.15296552 12.26 8.13537931 12.6188889 8.20748276 12.8066667 8.2877931 13.0172222 8.53341379 13.0705556 8.53341379 13.0705556zM9.64134483 15.1538889L9.71989655 15.4494444C9.71989655 15.4494444 9.53172414 15.2744444 9.09148276 15.7288889 8.80893103 16.02 9.06627586 16.2883333 9.25855172 16.3738889 9.47427586 16.4688889 9.68941379 16.3405556 9.68941379 16.3405556 9.68941379 16.3405556 9.401 16.8888889 10.1472414 17.0944444 10.8946552 17.3 10.8073103 16.5094444 10.9521034 16.7377778 11.0963103 16.9661111 11.3278621 16.9344444 11.6174483 16.7511111 11.9064483 16.5677778 11.5928276 16.2761111 11.5928276 16.2761111 11.5928276 16.2761111 11.7370345 16.135 11.8343448 15.9522222 11.9275517 15.7766667 11.6983448 15.4405556 11.166069 15.2527778 11.319069 15.2605556 10.945069 14.5511111 10.5288621 14.4883333 10.0710345 14.4205556 9.64134483 15.1538889 9.64134483 15.1538889zM5.11582759 13.7683333C5.34210345 13.8677778 5.5677931 13.7338889 5.5677931 13.7338889 5.5677931 13.7338889 5.26531034 14.3088889 6.04789655 14.5238889 6.83106897 14.74 6.7402069 13.9111111 6.89144828 14.1505556 7.04268966 14.39 7.28596552 14.3566667 7.58903448 14.165 7.89210345 13.9733333 7.56382759 13.6661111 7.56382759 13.6661111 7.56382759 13.6661111 7.71506897 13.5183333 7.81706897 13.3272222 7.91437931 13.1433333 7.67872414 12.7911111 7.12182759 12.5938889 7.26662069 12.5833333 6.87796552 11.8566667 6.44768966 11.7922222 5.96758621 11.7205556 5.51737931 12.4888889 5.51737931 12.4888889L5.60003448 12.7988889C5.60003448 12.7988889 5.40248276 12.6155556 4.94055172 13.0922222 4.64510345 13.3977778 4.91358621 13.6783333 5.11582759 13.7683333zM7.43955172 14.6838889C7.43955172 14.6838889 7.2507931 14.6072222 7.03682759 14.5872222 6.83165517 14.5677778 6.58310345 14.8855556 6.5872069 15.4188889 6.528 15.3022222 5.98106897 15.8733333 6.06665517 16.2572222 6.1622069 16.6838889 7.03272414 16.8011111 7.03272414 16.8011111L7.29417241 16.6266667C7.29417241 16.6266667 7.19041379 16.855 7.79127586 17.0805556 8.17758621 17.225 8.34817241 16.9044444 8.36341379 16.7044444 8.36341379 16.7044444 8.54455172 16.58 8.64244828 16.4561111 8.74093103 16.3322222 8.77375862 16.0216667 8.75382759 15.6661111 8.7127931 14.935 7.94662069 15.2938889 8.11896552 15.0855556 8.29131034 14.8772222 8.17758621 14.6844444 7.8962069 14.4955556 7.61541379 14.305 7.43955172 14.6838889 7.43955172 14.6838889zM3.27513793 16.1805556C3.49262069 16.2761111 3.71010345 16.1472222 3.71010345 16.1472222 3.71010345 16.1472222 3.41875862 16.7005556 4.17262069 16.9077778 4.92589655 17.1155556 4.83796552 16.3172222 4.98393103 16.5477778 5.12931034 16.7788889 5.3637931 16.7461111 5.65513793 16.5616667 5.94648276 16.3766667 5.63051724 16.0816667 5.63051724 16.0816667 5.63051724 16.0816667 5.77589655 15.9394444 5.8737931 15.7555556 5.96817241 15.5788889 5.7372069 15.2394444 5.20024138 15.0494444 5.35441379 15.0572222 4.97631034 14.3411111 4.55658621 14.2783333 4.09465517 14.2088889 3.77810345 14.8661111 3.77810345 14.8661111L3.74117241 15.2477778C3.74117241 15.2477778 3.55065517 15.0711111 3.10748276 15.53 2.822 15.8238889 3.08051724 16.0938889 3.27513793 16.1805556z"/>
    <polygon fill="#FEBBBA" points="19.843 3.383 13.238 3.542 13.204 7.209 19.803 7.482"/>
    <polygon fill="#FEBBBA" points="20.979 3.609 20.298 3.388 20.257 7.487 20.943 7.277"/>
    <rect width="2.04" height=".309" x="21.218" y="5.129" fill="#F69A98" transform="rotate(.544 22.238 5.407)"/>
  </g>
</svg>
