<svg xmlns="http://www.w3.org/2000/svg" width="490" height="200" viewBox="0 0 490 200">
  <g fill="none" fill-rule="evenodd" transform="translate(11 -6)">
    <g transform="translate(97)">
      <path fill="#FEBBBA" d="M54.3407778,139.571584 C41.9289278,139.571584 31.8338995,149.683074 31.8338995,162.115164 C31.8338995,174.54298 41.9331945,184.658744 54.3407778,184.658744 C66.7483612,184.658744 76.8476562,174.54298 76.8476562,162.115164 C76.8519229,149.683074 66.7526279,139.571584 54.3407778,139.571584 Z M54.3407778,174.760937 C47.3689789,174.760937 41.7198591,169.098332 41.7198591,162.119438 C41.7198591,155.13627 47.3689789,149.477938 54.3407778,149.477938 C61.3125768,149.477938 66.9616966,155.13627 66.9616966,162.119438 C66.9616966,169.094058 61.3125768,174.760937 54.3407778,174.760937 Z"/>
      <ellipse cx="54.341" cy="162.115" fill="#FEBBBA" rx="3.554" ry="3.56"/>
      <path fill="#FEBBBA" d="M274.272447,139.571584 C261.860597,139.571584 251.765568,149.683074 251.765568,162.115164 C251.765568,174.54298 261.860597,184.658744 274.272447,184.658744 C286.68003,184.658744 296.779325,174.54298 296.779325,162.115164 C296.783592,149.683074 286.68003,139.571584 274.272447,139.571584 Z M274.272447,174.760937 C267.296381,174.760937 261.647261,169.098332 261.647261,162.119438 C261.647261,155.13627 267.296381,149.477938 274.272447,149.477938 C281.239979,149.477938 286.893365,155.13627 286.893365,162.119438 C286.893365,169.094058 281.239979,174.760937 274.272447,174.760937 Z"/>
      <ellipse cx="274.272" cy="162.115" fill="#FEBBBA" rx="3.554" ry="3.56"/>
      <path fill="#F1F1F1" d="M56.1775263 17.3234114L368.942137 17.3234114C368.652001 12.1864667 364.807698 9.13507029 358.527106 9.13507029L67.138696 9.13507029C59.5695582 9.13507029 56.2329935 15.1865792 56.0964588 15.4429991 55.8404564 15.9173758 55.8063228 16.4857732 56.0025913 16.9857919 56.0452584 17.1054545 56.1049922 17.2165698 56.1775263 17.3234114zM78.8231415 153.102006C78.8231415 153.196026 78.8103414 153.294321 78.7975412 153.384067L87.2370873 166.209335C87.5784238 166.726448 88.158696 167.038425 88.7773685 167.038425L136.905821 167.038425 136.905821 38.6831865 78.8231415 38.6831865 78.8231415 153.102006zM86.993885 44.9911153L128.683877 44.9911153C129.767621 44.9911153 130.646562 45.8714902 130.646562 46.9570009L130.659362 77.1589878 85.0311999 77.1589878 85.0311999 46.9570009C85.0311999 45.8714902 85.9101415 44.9911153 86.993885 44.9911153zM85.0311999 87.932896C85.0311999 86.9114902 85.8546743 86.0866729 86.8744172 86.0866729 87.8941601 86.0866729 88.7219013 86.9114902 88.7219013 87.932896L88.7219013 95.9331959C88.7219013 96.9546017 87.8941601 97.7836926 86.8744172 97.7836926 85.858941 97.7836926 85.0311999 96.9588754 85.0311999 95.9331959L85.0311999 87.932896z"/>
      <g transform="translate(139.63 51.696)">
        <g transform="translate(106.13)">
          <path fill="#FFEBEB" d="M12.014456,35.1421996 C12.496565,35.6672849 13.0697293,36.1075656 13.7093156,36.4375564 L13.7093156,37.7039128 L13.7163537,37.7039128 L13.7163537,37.790475 L19.1968248,37.790475 L19.1968248,37.7039128 L19.4748293,37.7039128 L19.4748293,36.3162815 C20.2639749,35.8663339 20.9422706,35.2450196 21.4586903,34.5028697 C20.6369935,34.1087262 19.9472609,33.4834573 19.4748293,32.7101099 L19.4748293,30.8901071 L19.3908121,30.8901071 L18.5286288,31.3871117 L13.7093156,29.8728916 L13.7093156,32.2513743 L13.6899608,32.2513743 C13.3327779,33.0431765 12.7622529,33.7176585 12.0518459,34.2027582 L11.8068324,34.9040437 C11.8736943,34.9853331 11.9431954,35.0644254 12.014456,35.1421996 Z"/>
          <path fill="#DADADA" d="M12.2704665,33.7457802 C12.2704665,33.7457802 14.0163522,34.479142 16.3741116,34.5389007 L16.3741116,51.5336491 L7.23295501,51.5336491 L7.23295501,47.096129 L6.22650844,51.5336491 L0.0197946224,51.5336491 L1.10585957,46.1562483 L4.11244277,36.7064704 C4.11772133,36.6963642 4.12256002,36.6858185 4.12783859,36.6757123 C4.67461004,35.6497088 5.90495579,34.8214361 6.98310289,35.0248792 L6.98002373,35.0152124 L9.14115661,35.0152124 C9.65625667,35.005985 10.1546413,34.9752268 10.5778063,34.8719674 C10.6297122,34.8587853 10.6807384,34.8447244 10.7317645,34.8297848 C10.7326443,34.8297848 10.7330841,34.8293454 10.733524,34.8293454 C10.8997988,34.7805718 11.0616749,34.7212525 11.2200318,34.6553422 C11.3194448,34.6131596 11.4179781,34.5692194 11.513872,34.5208852 C11.5169512,34.5257186 11.5209101,34.5301127 11.524869,34.5353855 L12.11035,34.1895762 L12.0505262,34.0841197 L12.2704665,33.7457802 Z M30.8624556,43.5804742 L33.9666922,51.4497233 C33.9354607,51.4778451 33.9037893,51.5055274 33.8725578,51.5336491 L27.2431188,51.5336491 L25.9397529,48.2372558 L25.9397529,51.5336491 L16.3741116,51.5336491 L16.3741116,34.5389007 C17.7021108,34.5722953 19.2245372,34.3921405 20.7377262,33.7457802 L21.1103049,34.0164518 L21.0210092,34.1654091 L21.9113273,34.6909338 C21.9495969,34.7045552 21.9878665,34.7172979 22.026576,34.7300405 L22.026576,34.7265253 C22.2579532,34.8042995 22.5078053,34.8561489 22.766455,34.8921799 C23.1878605,34.9506203 23.6321398,34.9659994 24.0575043,34.9783026 L25.6142413,35.0152124 C25.80339,34.9853331 25.9969374,34.9875301 26.1904848,35.0152124 L26.5344714,35.0925471 C27.8052861,35.4058407 28.5099747,36.6695607 28.5099747,36.6695607 L29.5230194,39.8521488 L29.5287379,39.8503912 L30.8624556,43.5804742 Z"/>
          <path fill="#F69A98" d="M20.5564954,43.2917871 C20.5564954,43.2917871 21.3852303,41.4950726 21.2603042,40.765226 C21.135818,40.03494 22.2825865,41.1954005 22.2825865,41.1954005 C22.2825865,41.1954005 23.7289135,42.1032049 24.0447477,43.8195088 L20.5564954,43.2917871"/>
          <path fill="#FEBBBA" d="M24.6047156,43.6784608 C24.6047156,43.8344485 24.3878545,43.9605569 24.1204072,43.9605569 L20.4060563,43.9605569 C20.1386089,43.9605569 19.921308,43.8344485 19.921308,43.6784608 L19.921308,43.3968042 C19.921308,43.2412559 20.1386089,43.1151475 20.4060563,43.1151475 L24.1204072,43.1151475 C24.3878545,43.1151475 24.6047156,43.2412559 24.6047156,43.3968042 L24.6047156,43.6784608"/>
          <g fill="#AAA" transform="translate(14.885 34.978)">
            <path d="M1.00775433.77593835C1.00775433 1.04309472.790893245 1.25971987.523445903 1.25971987.255998561 1.25971987.0391374756 1.04309472.0391374756.77593835.0391374756.508342576.255998561.291717425.523445903.291717425.790893245.291717425 1.00775433.508342576 1.00775433.77593835M3.18824195.77593835C3.18824195 1.04309472 2.97094099 1.25971987 2.70349365 1.25971987 2.4360463 1.25971987 2.21918522 1.04309472 2.21918522.77593835 2.21918522.508342576 2.4360463.291717425 2.70349365.291717425 2.97094099.291717425 3.18824195.508342576 3.18824195.77593835M1.00775433 5.54125227C1.00775433 5.80840864.790893245 6.02503379.523445903 6.02503379.255998561 6.02503379.0391374756 5.80840864.0391374756 5.54125227.0391374756 5.27409589.255998561 5.05703134.523445903 5.05703134.790893245 5.05703134 1.00775433 5.27409589 1.00775433 5.54125227M3.18824195 5.54125227C3.18824195 5.80840864 2.97094099 6.02503379 2.70349365 6.02503379 2.4360463 6.02503379 2.21918522 5.80840864 2.21918522 5.54125227 2.21918522 5.27409589 2.4360463 5.05703134 2.70349365 5.05703134 2.97094099 5.05703134 3.18824195 5.27409589 3.18824195 5.54125227M1.00775433 10.3065662C1.00775433 10.574162.790893245 10.7907871.523445903 10.7907871.255998561 10.7907871.0391374756 10.574162.0391374756 10.3065662.0391374756 10.0394098.255998561 9.82278466.523445903 9.82278466.790893245 9.82278466 1.00775433 10.0394098 1.00775433 10.3065662M3.18824195 10.3065662C3.18824195 10.574162 2.97094099 10.7907871 2.70349365 10.7907871 2.4360463 10.7907871 2.21918522 10.574162 2.21918522 10.3065662 2.21918522 10.0394098 2.4360463 9.82278466 2.70349365 9.82278466 2.97094099 9.82278466 3.18824195 10.0394098 3.18824195 10.3065662M1.00775433 15.0723195C1.00775433 15.3394759.790893245 15.556101.523445903 15.556101.255998561 15.556101.0391374756 15.3394759.0391374756 15.0723195.0391374756 14.8051631.255998561 14.5880986.523445903 14.5880986.790893245 14.5880986 1.00775433 14.8051631 1.00775433 15.0723195M3.18824195 15.0723195C3.18824195 15.3394759 2.97094099 15.556101 2.70349365 15.556101 2.4360463 15.556101 2.21918522 15.3394759 2.21918522 15.0723195 2.21918522 14.8051631 2.4360463 14.5880986 2.70349365 14.5880986 2.97094099 14.5880986 3.18824195 14.8051631 3.18824195 15.0723195"/>
          </g>
          <path fill="#FFEBEB" d="M23.1904998 23.0753438C23.027744 24.1931823 23.3413788 25.1647 23.8899098 25.2451105 24.4397604 25.3263999 25.0164438 24.485824 25.1800793 23.3679855 25.3428351 22.2505864 25.0292003 21.2790687 24.4802294 21.1977794 23.9312586 21.1173688 23.3536955 21.9575053 23.1904998 23.0753438M9.50405802 22.9843876C9.61138886 24.0872864 9.28763682 25.0214549 8.78441353 25.0702285 8.28075036 25.1194416 7.7858848 24.2652442 7.67943372 23.161906 7.57298264 22.0585677 7.89585492 21.1243992 8.39907821 21.0751862 8.90318126 21.026852 9.39892658 21.8810494 9.50405802 22.9843876"/>
          <path fill="#FFEBEB" d="M9.07253525,22.4237107 C9.07253525,17.2176767 9.81857258,14.4604296 16.4823222,14.6397056 C16.5403865,14.6410238 16.5980108,14.6375086 16.6556351,14.6366298 L16.6556351,32.1186749 C16.5980108,32.1186749 16.5408263,32.1151597 16.4823222,32.1129627 C12.375158,31.9952029 9.07253525,27.7044431 9.07253525,22.4237107 Z M16.8276284,14.6335539 C21.0166104,14.6335539 24.2391749,17.0695982 24.2391749,22.4237107 C24.2391749,27.7782626 20.8441772,32.1186749 16.6556351,32.1186749 L16.6556351,14.6366298 C16.7128196,14.6353116 16.770444,14.6335539 16.8276284,14.6335539 Z"/>
          <path fill="#AAA" d="M8.86887058,23.0727074 C8.86887058,23.0727074 8.1039184,17.512076 8.68192137,16.9105347 C9.26036423,16.3085541 9.57355914,16.5014515 9.57355914,16.5014515 C9.57355914,16.5014515 8.85083548,15.3941587 9.09145012,14.8888465 C9.33250463,14.3830948 11.4285352,10.7971357 17.7170668,11.5915744 C24.0055984,12.3855737 24.3429867,18.2098462 24.3429867,18.2098462 C24.3429867,18.2098462 24.1740726,22.7589744 23.9814049,23.6013079 L23.6440166,23.5529737 L22.9696798,18.0173882 C22.9696798,18.0173882 22.1985693,19.389201 19.8614842,18.5952017 C17.5243991,17.800763 14.6814515,14.046513 10.3684232,16.5976806 C10.3684232,16.5976806 9.6940864,17.4400141 9.66989297,17.8249302 C9.64569954,18.2102856 8.94716931,22.3494518 9.2361708,23.4325776 L8.86887058,23.0727074"/>
          <path fill="#FEBBBA" d="M16.6369233,29.0774962 C16.5525639,29.0774962 16.4715407,29.0736053 16.394807,29.067769 C15.3453186,28.985088 14.4874263,28.3844353 14.1342606,27.8601408 C14.0637228,27.7550874 14.0899361,27.6116116 14.1928832,27.5396306 C14.2958303,27.4681359 14.4364293,27.4943992 14.5069671,27.5989663 C14.8010336,28.0352299 15.5283357,28.5381246 16.4295993,28.6081602 C17.0425157,28.6548506 17.9552179,28.5123476 18.8412301,27.5527622 C18.9270193,27.4598678 19.0700014,27.4559769 19.1605567,27.5425487 C19.251112,27.6300932 19.2554015,27.7755144 19.1700888,27.8684089 C18.2702551,28.8420986 17.3327693,29.0774962 16.6369233,29.0774962 Z"/>
          <path fill="#AAA" d="M13.3567818 21.738076C13.3706322 22.1389174 13.0635828 22.4752098 12.6708952 22.4891555 12.2784027 22.5031013 11.9491147 22.1895206 11.9354594 21.7886792 11.9218041 21.3878378 12.2288535 21.0515454 12.621346 21.0374004 13.0138385 21.0234547 13.3431265 21.3370354 13.3567818 21.738076M20.9384791 21.738076C20.9523294 22.1389174 20.6450875 22.4752098 20.2525982 22.4891555 19.860109 22.5031013 19.5308238 22.1895206 19.5171686 21.7886792 19.5033183 21.3878378 19.8105601 21.0515454 20.2030494 21.0374004 20.5955387 21.0234547 20.9248239 21.3370354 20.9384791 21.738076"/>
          <path fill="#FEBBBA" fill-rule="nonzero" d="M24.0580787,12.487727 L23.9642241,12.487727 L22.9943925,17.2434953 C22.9943925,17.2434953 19.0212118,16.4764359 14.6413275,16.4764359 C10.6994316,16.4764359 6.28826245,17.2434953 6.28826245,17.2434953 L5.31843093,12.487727 L5.22457626,12.487727 C2.34636659,12.487727 0,10.1558665 0,7.3024055 C0,4.41826215 2.34636659,2.11708395 5.22457626,2.11708395 C6.44468689,2.11708395 7.60222774,2.54663721 8.47820459,3.25233186 C9.82345477,1.31934217 12.0759667,0.030682376 14.6100426,0.030682376 C17.1441185,0.030682376 19.3966304,1.31934217 20.7418806,3.25233186 C21.6491424,2.54663721 22.7753983,2.11708395 23.9955089,2.11708395 C26.8737186,2.11708395 29.2200852,4.44894453 29.2200852,7.3024055 C29.282655,10.1558665 26.9675733,12.487727 24.0580787,12.487727 Z" transform="translate(1.838)"/>
        </g>
        <path fill="#F1F1F1" d="M230.975412,101.08941 L229.336997,101.08941 L229.336997,92.5890909 C230.049537,92.3668604 230.565808,91.7129897 230.565808,90.9266354 L230.565808,88.8795501 C230.565808,88.0931959 230.049537,87.4435989 229.336997,87.2170947 L229.336997,59.0109091 L0.957248512,59.0109091 L0.957248512,115.346354 L104.996627,115.346354 C106.01637,115.346354 106.844111,114.521537 106.844111,113.500131 L106.844111,110.418819 C106.844111,94.5592502 119.311429,81.6570572 134.645973,81.6570572 C149.97625,81.6570572 162.447834,94.5635239 162.447834,110.461556 L162.507568,113.504405 C162.524635,114.508716 163.343843,115.320712 164.350786,115.320712 L225.659096,115.320712 L225.659096,116.376307 C225.659096,117.342156 226.44417,118.115689 227.399912,118.115689 L230.983946,118.115689 C231.952488,118.115689 232.724762,117.337882 232.724762,116.376307 L232.724762,102.833065 C232.720495,101.87149 231.943955,101.08941 230.975412,101.08941 Z"/>
        <polygon fill="#F69A98" points="43.573 49.673 43.573 55.323 158.693 55.323 158.693 49.747"/>
        <path fill="#FEBBBA" d="M206.292513 81.1826804L166.650541 81.1826804C166.142802 81.1826804 165.724665 80.768135 165.724665 80.2595689 165.724665 79.7467291 166.142802 79.3364574 166.650541 79.3364574L206.292513 79.3364574C206.800252 79.3364574 207.214122 79.7467291 207.214122 80.2595689 207.214122 80.768135 206.800252 81.1826804 206.292513 81.1826804zM206.292513 87.9564386L166.650541 87.9564386C166.142802 87.9564386 165.724665 87.5418932 165.724665 87.0333271 165.724665 86.524761 166.142802 86.1059419 166.650541 86.1059419L206.292513 86.1059419C206.800252 86.1059419 207.214122 86.524761 207.214122 87.0333271 207.214122 87.5418932 206.800252 87.9564386 206.292513 87.9564386zM206.292513 94.7301968L166.650541 94.7301968C166.142802 94.7301968 165.724665 94.3113777 165.724665 93.8028116 165.724665 93.2942455 166.142802 92.8797001 166.650541 92.8797001L206.292513 92.8797001C206.800252 92.8797001 207.214122 93.2942455 207.214122 93.8028116 207.214122 94.3113777 206.800252 94.7301968 206.292513 94.7301968z"/>
      </g>
      <path fill="#F1F1F1" d="M370.200816,31.7085661 L370.200816,29.6614808 C370.200816,28.8751265 369.684544,28.2212559 368.972004,28.003299 L368.972004,19.1739082 L55.8127917,19.1739082 L38.0163576,88.8132709 C37.4616857,89.0867854 36.6254112,89.5013308 35.5971349,90.0098969 L35.5971349,87.0097844 C35.5971349,86.4969447 35.1832643,86.0866729 34.6755262,86.0866729 C34.1677881,86.0866729 33.7539175,86.5012184 33.7539175,87.0097844 L33.7539175,90.9287348 C27.2941234,94.1339831 16.5676225,99.4546954 13.7729296,100.856457 C8.16221011,103.668529 7.44113666,108.258444 7.44113666,111.946617 L7.44113666,113.895408 C7.50940397,113.878313 10.5387658,113.869766 10.5387658,113.869766 C11.0465039,113.869766 11.4603745,114.284311 11.4603745,114.797151 C11.4603745,115.305717 11.0465039,115.720262 10.5387658,115.720262 L7.64593859,115.720262 C7.57340458,115.720262 7.44113666,117.993852 7.44113666,117.993852 C7.50940397,117.981031 10.5387658,117.96821 10.5387658,117.96821 C11.0465039,117.96821 11.4603745,118.387029 11.4603745,118.895595 C11.4603745,119.404161 11.0465039,119.818707 10.5387658,119.818707 L7.64593859,119.818707 C7.57340458,119.818707 7.44113666,122.09657 7.44113666,122.09657 C7.50940397,122.079475 10.5387658,122.066654 10.5387658,122.066654 C11.0465039,122.066654 11.4603745,122.485473 11.4603745,122.994039 C11.4603745,123.502605 11.0465039,123.921425 10.5387658,123.921425 L7.64593859,123.921425 C7.57340458,123.921425 7.44113666,126.195014 7.44113666,126.195014 C7.50940397,126.182193 10.5387658,126.169372 10.5387658,126.169372 C11.0465039,126.169372 11.4603745,126.583918 11.4603745,127.092484 C11.4603745,127.60105 11.0465039,128.019869 10.5387658,128.019869 L7.64593859,128.019869 C7.57340458,128.019869 7.44113666,130.293458 7.44113666,130.293458 C7.50940397,130.280637 10.5387658,130.267816 10.5387658,130.267816 C11.0465039,130.267816 11.4603745,130.682362 11.4603745,131.190928 C11.4603745,131.703768 11.0465039,132.118313 10.5387658,132.118313 L7.64593859,132.118313 C7.57340458,132.118313 7.44113666,134.396176 7.44113666,134.396176 C7.50940397,134.379082 10.5387658,134.370534 10.5387658,134.370534 C11.0465039,134.370534 11.4603745,134.78508 11.4603745,135.293646 C11.4603745,135.802212 11.0465039,136.216757 10.5387658,136.216757 L7.64593859,136.216757 C7.57340458,136.216757 7.44113666,138.49462 7.44113666,138.49462 C7.50940397,138.477526 10.5387658,138.468978 10.5387658,138.468978 C11.0465039,138.468978 11.4603745,138.883524 11.4603745,139.39209 C11.4603745,139.90493 11.0465039,140.315201 10.5387658,140.315201 L7.64593859,140.315201 C7.57340458,140.315201 7.44113666,143.118725 7.44113666,143.118725 C7.2747351,143.067441 1.79201686,143.028978 1.79201686,143.028978 C0.82774112,143.028978 0.0469337748,143.811059 0.0469337748,144.772634 L0.0469337748,158.315876 C0.0469337748,159.277451 0.82774112,160.059531 1.79201686,160.059531 L6.91206502,160.059531 C7.87634076,160.059531 8.6528814,159.273177 8.6528814,158.315876 L8.6528814,157.337207 L27.1789223,157.337207 C27.8573287,157.337207 28.4802679,156.969672 28.8002709,156.367085 L31.3645617,151.584855 C31.7954991,150.768585 32.0557682,150.277113 32.3331042,149.781368 C36.8515467,141.823805 45.2740259,136.853533 54.3407778,136.853533 C62.6693895,136.853533 70.4305292,140.964799 75.1367068,147.828304 L75.1367068,36.8369634 C75.1367068,35.8198313 75.9644479,34.9907404 76.9799241,34.9907404 L138.749039,34.9907404 C139.764515,34.9907404 140.592256,35.8155576 140.592256,36.8369634 L140.592256,107.019082 L179.653957,107.019082 L179.653957,40.7858294 L301.997508,40.7858294 L301.997508,107.019082 L368.967738,107.019082 L368.967738,88.8260918 C369.680278,88.6038613 370.196549,87.9499906 370.196549,87.16791 L370.196549,85.1208247 C370.196549,84.3344705 369.680278,83.6805998 368.967738,83.4583693 L368.967738,33.3710216 C369.684544,33.148791 370.200816,32.4949203 370.200816,31.7085661 Z M18.6156418,139.545942 C16.9729597,139.545942 15.6460138,136.280862 15.6460138,132.259344 C15.6460138,128.237826 16.9772264,124.972746 18.6156418,124.972746 C20.2540572,124.972746 21.5852697,128.237826 21.5852697,132.259344 C21.5852697,136.280862 20.2583239,139.545942 18.6156418,139.545942 Z M21.158599,120.891396 L16.4822884,120.891396 C16.021484,120.891396 15.6460138,120.515314 15.6460138,120.058032 L15.6460138,118.181893 C15.6460138,117.724611 16.021484,117.348529 16.4822884,117.348529 L21.1628657,117.348529 C21.6236701,117.348529 21.9991403,117.724611 21.9991403,118.181893 L21.9991403,120.058032 C21.9948736,120.515314 21.6236701,120.891396 21.158599,120.891396 Z M70.0081252,79.321462 C70.0081252,81.424105 68.3014425,83.1378444 66.1979561,83.1378444 L50.4666081,83.1378444 C48.3673883,83.1378444 46.6564389,81.424105 46.6564389,79.321462 C46.6564389,78.8641799 46.7375063,78.4197188 46.8911078,77.9966261 L57.830944,33.1146017 C58.5392173,30.3538144 61.0011072,28.4392127 63.8299338,28.4392127 C67.2432992,28.4392127 70.0166586,31.2170947 70.0166586,34.6360262 L70.0081252,79.321462 Z"/>
      <polygon fill="#F69A98" points="301.998 34.021 179.65 34.021 164.243 25.473 318.288 25.473"/>
      <path fill="#FBCFCE" d="M348.052341,76.4666542 L338.298649,76.4666542 L338.511984,74.3170009 L348.052341,74.3170009 C348.67528,74.3170009 349.195818,74.799925 349.195818,75.3896907 C349.195818,75.9794564 348.679547,76.4666542 348.052341,76.4666542 Z"/>
      <path fill="#F69A98" d="M346.328591,80.0886973 L337.803711,80.0886973 L338.07678,77.417657 L349.187285,77.417657 C349.187285,78.8877976 347.911539,80.0886973 346.328591,80.0886973 Z"/>
      <path fill="#FBCFCE" d="M325.443061,82.4839738 L323.16464,60.0686036 C324.141716,60.3292971 326.181202,60.4746017 330.644177,60.4746017 C335.17542,60.4746017 337.236239,60.3250234 338.226115,60.0643299 L335.947694,82.4839738 C335.687424,84.7661106 325.728931,84.7960262 325.443061,82.4839738 Z"/>
      <path fill="#F69A98" d="M323.15184 58.9740956C323.15184 58.3244986 323.062239 57.3714714 330.56311 57.3671978L331.757787 52.6832615C331.783388 52.5593252 331.872989 52.4482099 331.992456 52.384105L335.333288 50.7216495C335.508223 50.7216495 335.670358 50.8113964 335.751425 50.9737957 335.811159 51.0806373 335.823959 51.2088472 335.785559 51.3327835 335.747158 51.4567198 335.661824 51.5592877 335.542356 51.6148454L332.594062 53.2559325 331.544452 57.3800187C338.174915 57.4612184 338.281582 58.3544142 338.281582 58.9783693 338.281582 58.9783693 338.895988 59.568135 330.644177 59.568135 322.392366 59.5595876 323.15184 58.9740956 323.15184 58.9740956zM339.254391 68.2931584C339.612795 68.2717901 339.971198 68.2546954 340.338135 68.2546954 345.197914 68.2546954 349.144618 70.5411059 349.144618 73.3617245L338.73812 73.3617245 339.254391 68.2931584z"/>
      <g transform="rotate(-15 392.631 -119.488)">
        <polygon fill="#FBCFCE" points="1.056 14.248 13.159 14.248 7.635 31.859"/>
        <ellipse cx="9.042" cy="3.828" fill="#F69A98" rx="1.83" ry="1.431"/>
        <path stroke="#F69A98" stroke-width=".742" d="M14.3198626,0.366194158 C13.6865517,0.099871134 12.2088263,-0.16645189 11.3995957,0.233032646 C10.5903652,0.632517182 10.4496294,1.73109966 9.81631856,2.62993986"/>
        <path fill="#F69A98" d="M14.3198626,10.8859536 C14.8828056,13.8155069 11.1884921,16.7117698 7.35344293,16.7117698 C3.51839375,16.7117698 -0.738862687,14.1151203 0.351839375,10.8859536 C1.37217356,7.75665808 3.48320981,5.06013746 7.31825899,5.06013746 C11.1533082,5.06013746 13.6865517,7.69007732 14.3198626,10.8859536 Z"/>
        <path fill="#FFEBEB" d="M7.35344293 6.53278272L7.35344293 6.46499141C7.35344293 6.39720009 7.42381081 6.29551312 7.52936262 6.29551312L9.35892737 6.09213918C9.46447918 6.09213918 9.57003099 6.12603483 9.57003099 6.22772181L9.57003099 6.29551312C9.57003099 6.36330444 9.49966312 6.46499141 9.39411131 6.46499141L7.56454656 6.66836535C7.49417868 6.66836535 7.38862687 6.60057404 7.35344293 6.53278272zM10.3440776 12.5171821L10.3440776 12.5171821C10.2385258 12.5504725 10.0626061 12.5171821 10.0274222 12.4506014L9.18300768 11.2521478C9.11263981 11.1522766 9.14782374 11.0524055 9.28855949 10.9858247L9.28855949 10.9858247C9.39411131 10.9525344 9.57003099 10.9858247 9.60521493 11.0524055L10.4496294 12.2508591C10.5199973 12.3507302 10.4848134 12.4506014 10.3440776 12.5171821zM7.81083412 9.15485395L7.81083412 9.15485395C7.88120199 9.25472509 7.84601806 9.35459622 7.74046624 9.42117698L6.29792481 10.1868557C6.192373 10.2534364 6.01645331 10.220146 5.94608543 10.1535653L5.94608543 10.1535653C5.87571756 10.0536942 5.9109015 9.95382302 6.01645331 9.88724227L7.45899474 9.12156357C7.59973049 9.05498282 7.74046624 9.05498282 7.81083412 9.15485395zM9.81631856 9.55433849L9.81631856 9.55433849C9.71076674 9.52104811 9.64039887 9.3878866 9.71076674 9.28801546L10.5551812 8.08956186C10.6255491 7.98969072 10.7662849 7.95640034 10.8718367 8.0229811L10.8718367 8.0229811C10.9773885 8.05627148 11.0477564 8.18943299 10.9773885 8.28930412L10.132974 9.48775773C10.0626061 9.55433849 9.92187037 9.58762887 9.81631856 9.55433849zM6.40347662 7.85652921L6.40347662 7.85652921C6.33310875 7.92310997 6.15718906 7.95640034 6.05163725 7.88981959L4.67946368 6.99097938C4.57391187 6.92439863 4.57391187 6.79123711 4.64427975 6.72465636L4.64427975 6.72465636C4.71464762 6.6580756 4.89056731 6.62478522 4.99611912 6.69136598L6.33310875 7.55691581C6.4738445 7.65678694 6.4738445 7.75665808 6.40347662 7.85652921zM3.18766474 10.0536942L3.01878184 10.0536942C2.9174521 10.0536942 2.84989894 9.9871134 2.84989894 9.88724227L2.84989894 8.45575601C2.84989894 8.35588488 2.9174521 8.28930412 3.01878184 8.28930412L3.18766474 8.28930412C3.28899448 8.28930412 3.35654764 8.35588488 3.35654764 8.45575601L3.35654764 9.88724227C3.35654764 9.9871134 3.28899448 10.0536942 3.18766474 10.0536942zM3.51839375 12.949957L3.51839375 12.949957C3.41284194 12.9166667 3.34247406 12.7835052 3.41284194 12.683634L4.15170462 11.45189C4.2220725 11.3520189 4.36280825 11.3187285 4.46836006 11.3520189L4.46836006 11.3520189C4.57391187 11.3853093 4.64427975 11.5184708 4.57391187 11.6183419L3.87023312 12.8500859C3.79986525 12.949957 3.6591295 12.9832474 3.51839375 12.949957z"/>
      </g>
      <g transform="translate(138.072 65.98)">
        <path fill="#CFCFCF" d="M20.0678259,60.323313 C20.4712223,60.3237083 20.8746187,60.3243013 21.2780151,60.3246967 C21.3017209,57.3584527 21.3278171,54.372837 22.0638911,51.4575921 C22.2230584,50.8276161 21.7628876,50.1693732 20.7588788,50.4152754 C19.9144357,50.6220387 20.0359526,51.6347049 19.9757917,52.154776 C19.7751892,53.8859745 19.7863448,55.6266612 19.8718051,57.3618131 C19.9206111,58.3495727 19.9939197,59.336344 20.0678259,60.323313"/>
        <path fill="#AAA" d="M47.4445971 11.0242831C50.3384932 12.0179728 51.8498851 14.7648025 51.6178076 17.707919 51.1185921 24.039899 49.0187395 30.1326977 44.9226225 35.1011465 44.7698299 35.2863638 44.6108618 35.4769182 44.5429319 35.7066113 44.4216141 36.1169753 44.6576757 36.5994891 45.0574864 36.7588115 45.4572971 36.918134 45.9640825 36.7317307 46.1624937 36.3522033 46.2218578 37.4257519 45.0790009 38.2593285 43.9957072 38.2796886 42.9124135 38.299851 41.911592 37.7469665 40.9814894 37.1952681 41.2719348 38.2781072 41.9309152 39.2599367 42.8259572 39.9430861 39.7334506 40.4358787 36.6779967 38.710808 34.4767472 36.4996655 34.290886 37.0319922 34.236303 37.6085971 34.3187752 38.1658304 32.5731146 37.7240367 31.2585403 36.1920901 30.6898012 34.4956817 30.121062 32.7992732 30.1969603 30.9557978 30.4579229 29.1868443 30.6186839 28.0964936 30.8495661 27.0083174 31.2772659 25.9915002 31.766521 24.8284068 32.5013997 23.7851017 33.2633706 22.776982 34.6438828 20.9499133 36.1365491 19.1967734 37.3170563 17.2364748 38.0921751 15.949442 38.725856 14.5843293 39.4412123 13.2636925 39.7320562 12.7266217 40.047801 12.1832254 40.5264981 11.8009306 40.8874632 11.5123316 41.3229321 11.3310677 41.7607915 11.1802451 43.5849401 10.5514552 45.6196517 10.3976675 47.4445971 11.0242831M36.2447191 66.5198887C38.8019535 73.3027552 38.6925883 81.0739744 38.1676749 88.166393 37.5596918 96.3825685 36.8011073 104.587872 35.89232 112.776571 35.4612336 116.660797 35.0919018 120.477025 34.9432926 124.367971 34.8839286 125.927394 35.0166012 127.537816 35.9903304 128.824849 36.8630611 129.978454 39.6529706 130.765578 39.6585484 132.366116 39.6693056 135.489706 32.5655447 133.023568 31.0914047 132.392604 30.8338286 132.282502 30.5601167 132.15876 30.4136987 131.921358 30.288596 131.718548 30.2792333 131.468494 30.273257 131.230697 29.9505399 118.20243 29.6276236 105.174163 29.3047072 92.1456984 29.0851799 83.288675 28.8658518 74.4251285 29.1839871 65.5710702 29.1947443 65.270611 29.2072945 64.9644193 29.313074 64.6827388 29.6784216 63.7098045 31.0396106 63.445519 31.9872435 63.8865219 32.9346773 64.3273272 35.8781762 65.5473497 36.2447191 66.5198887M7.60297646 109.812897C8.71734659 110.221482 9.30600654 112.216373 9.3542149 113.235958 9.43210527 114.890855 7.59022715 114.756044 6.62327101 115.888103 4.92044015 117.881611 8.68706696 123.060578 5.6051184 123.930526 4.67162923 124.193626 3.71782083 123.511465 3.18055657 122.709516 1.02711698 119.4948-2.22913867 114.232217 2.97079044 111.86531 3.97161195 111.40968 6.50653506 109.528449 7.48165873 109.77534 7.5226956 109.785816 7.56313484 109.798467 7.60297646 109.812897"/>
        <path fill="#CFCFCF" d="M36.2447191,66.5198887 C38.8019535,73.3027552 38.6925883,81.0739744 38.1676749,88.166393 C37.5596918,96.3825685 36.8011073,104.587872 35.89232,112.776571 C35.3901164,117.300855 34.2966631,122.255664 36.1857535,126.590974 C36.2596597,126.76018 36.3395422,126.946781 36.2841623,127.122905 C36.232169,127.288158 36.0747946,127.395691 35.9247909,127.484445 C34.1908836,128.512332 32.022105,128.78907 30.0824157,128.22986 C30.0762402,123.137077 29.9469541,118.060898 29.8206562,112.965742 C29.6487396,106.025728 29.4766238,99.085713 29.3047072,92.1456984 C29.0851799,83.288675 28.8658518,74.4251285 29.1839871,65.5710702 C29.1947443,65.270611 29.2072945,64.9644193 29.313074,64.6827388 C29.6784216,63.7098045 31.0396106,63.445519 31.9872435,63.8865219 C32.9346773,64.3273272 35.8781762,65.5473497 36.2447191,66.5198887"/>
        <path fill="#DADADA" d="M37.2553018,72.5063407 C37.2120737,73.1270261 37.1256173,73.7417815 36.9939408,74.3423045 C36.6379559,75.9738771 35.8909255,76.6050391 34.9873176,77.8671654 C33.9090041,79.3742055 33.4500286,81.4531065 32.879895,83.1932001 C31.5503802,87.2590852 30.2208653,91.325168 28.8891591,95.3932275 C27.8849511,98.4668066 27.4217922,102.069352 25.2627748,104.532129 C22.863114,107.272831 19.8233976,109.396603 16.6167447,111.110011 C15.768915,111.561491 7.18244816,116.172749 7.18244816,116.205364 C5.88181845,114.794195 4.87123575,113.11953 4.2333714,111.314403 C4.20448622,111.23059 4.17560105,111.142825 4.1941274,111.057036 C4.22918803,110.877353 4.43696208,110.797692 4.6118668,110.742542 C5.3322033,110.51779 6.01967046,110.193215 6.65155856,109.782654 C8.92771035,108.304078 11.171192,107.236064 13.245546,105.375589 C15.8593555,103.029042 18.8456842,101.260484 20.2082676,97.8214123 C20.9449392,95.9589606 21.1857818,93.9474653 21.422441,91.9624578 C21.7415724,89.2747316 22.0605045,86.5893775 22.3794367,83.901849 C22.5605169,82.3720768 22.8549465,80.7057142 22.7457804,79.1719886 C22.6778505,78.2121005 22.5111133,77.2727701 22.3383999,76.3334398 C22.150945,75.3000182 21.957514,74.2687711 21.8834085,73.2108384 C21.8732489,73.0556671 21.8648822,72.9004957 21.8587067,72.7451267 C21.8525313,72.5838275 21.8505392,72.4225284 21.8525313,72.2612292 C21.8732489,69.5695496 22.5461739,66.8003832 24.2378491,64.6969711 C25.9606008,62.5546179 28.555884,61.5559864 30.9513614,61.911398 C32.6719218,62.1646139 34.2874995,63.1183742 35.4072483,64.8438403 C36.8437379,67.0617036 37.4467408,69.8494511 37.2553018,72.5063407"/>
        <path fill="#FFEBEB" d="M43.3335395,52.1624852 C43.9540727,51.5502995 44.7700291,51.1753186 45.5881768,50.8675455 C45.9461537,50.7329319 46.3093101,50.6082018 46.684419,50.5328893 C47.0483722,50.4597512 47.4220866,50.4334611 47.7930121,50.4550071 C47.9675184,50.4650883 48.149993,50.4888088 48.292626,50.5894231 C48.5043842,50.7386644 48.5760991,51.0296354 48.5284884,51.2828513 C48.4806784,51.5362649 48.3346589,51.7596326 48.180671,51.9671867 C47.8342481,52.4342822 47.4332422,52.8584831 47.0332324,53.2813004 C46.5802331,53.7602561 46.1085083,54.2524557 45.4985331,54.5076483 C44.8491147,54.7792476 43.2078392,54.9806739 42.6482636,54.4088131 C42.0530298,53.8003832 42.8835284,52.6062555 43.3335395,52.1624852"/>
        <path fill="#FFEBEB" d="M45.6626806,56.860916 C45.5535146,57.1469452 45.3766178,57.4021379 45.1975297,57.649226 C44.5883513,58.4885351 43.9277772,59.2910775 43.2217837,60.050923 C42.8102198,60.4919259 42.3759461,60.9269988 41.8470486,61.2231092 C41.36118,61.4966852 40.8117641,61.6437521 40.2643402,61.76018 C39.6366355,61.8949913 38.9923965,61.9969893 38.3523408,61.9359091 C38.1774361,61.9195025 38.0045235,61.8908403 37.8336029,61.8479457 C36.9074845,61.6253687 36.0658302,61.0475778 35.5431082,60.2529422 C35.1046511,59.5893623 34.8905024,58.8091567 34.7116136,58.0352766 C34.5201746,57.2060487 34.3596128,56.3647629 34.334911,55.515175 C34.3102092,54.6430526 34.4275428,53.7711279 34.5715703,52.9092844 C34.6167905,52.6376851 34.6661941,52.3660858 34.7155977,52.0944865 L34.717789,52.0944865 C34.8926937,51.1571329 35.1004678,50.2237326 35.3393183,49.3008089 C35.3598367,49.2231244 35.3825464,49.1434632 35.4359342,49.0821853 C35.4895212,49.0228842 35.5698021,48.9922452 35.6458996,48.9677341 C36.2303761,48.7738193 36.9035003,48.7002859 37.5146708,48.775796 C37.9324102,48.826795 38.1999466,48.9432229 38.3832181,49.1292309 C38.6198773,49.3680169 38.7206766,49.7275796 38.8380102,50.2237326 C38.9202831,50.5730165 38.9904044,50.924277 39.0521589,51.2775142 C39.3216875,52.8561111 39.4183034,54.459219 39.7189084,56.0318858 C39.7374348,56.1338838 39.7579532,56.2360794 39.7806629,56.3380774 C39.8752868,56.7976614 40.0029792,57.2734544 40.3157359,57.6247149 C40.7376587,58.0985312 41.5691533,58.2291914 42.1145851,57.9269531 C42.799861,57.5470304 43.1580371,56.8160448 43.4831448,56.1400116 C43.7568567,55.5723018 44.0305686,55.004592 44.3042806,54.4368823 C44.748913,54.6859471 45.1955376,54.9352097 45.6421622,55.1822978 C45.6935579,55.2107624 45.7469456,55.2435757 45.7758308,55.2945747 C45.8025247,55.3394459 45.804716,55.394596 45.8067081,55.4477694 C45.819059,55.9235623 45.8314099,56.4137852 45.6626806,56.860916"/>
        <path fill="#FEBBBA" d="M40.0729012,50.9507648 C39.7352435,51.0671928 39.3957929,51.1774929 39.0521589,51.2775142 C38.4820253,51.4449412 37.9057163,51.5900313 37.3232318,51.7104127 C36.4630512,51.8902929 35.5923126,52.0189764 34.717789,52.0944865 L34.7155977,52.0944865 C33.9068128,52.1658456 33.0938445,52.1925311 32.2808763,52.1741477 C32.1368488,49.5783384 31.9557687,46.984901 31.7416199,44.3954171 C31.659347,43.3906578 31.5852416,42.4266186 31.7870394,41.4973695 C31.8920221,41.0093209 32.0731022,40.533528 32.3695239,40.0638628 C32.9579846,39.1304625 33.6866879,38.5730317 34.6251572,38.6443907 C34.8638085,38.6627741 35.117002,38.7200985 35.3845385,38.8242709 C35.6192057,38.91599 35.8516815,39.0304413 36.0781811,39.1672293 C36.9136599,39.66358 37.6586982,40.4273789 38.1033307,41.2380257 C38.5107113,41.9792902 38.7206766,42.8085181 38.9101235,43.6316182 C39.4615316,46.0433963 39.850585,48.4899644 40.0729012,50.9507648"/>
        <path fill="#9B9B9B" d="M59.5582426,47.8097801 L59.5516688,47.8000943 L59.5450949,47.7904084 L59.538521,47.7807226 L59.5319472,47.770839 L59.5255725,47.7611532 L59.5124248,47.7417815 L59.5058509,47.7318979 L59.499277,47.7222121 L59.4927032,47.7125262 L59.4863285,47.7028404 L59.4797546,47.6929568 L59.4731808,47.683271 L59.4666069,47.6735851 L59.460033,47.6638993 L59.4534592,47.6540158 L59.4470845,47.6443299 L59.4405106,47.634644 L59.4339368,47.6249582 L59.4273629,47.6150747 L59.420789,47.6053888 L59.4142152,47.5957029 L59.4078405,47.5860171 L59.4012666,47.5761336 L59.3946928,47.5664477 L59.3881189,47.5567619 L59.381545,47.547076 L59.3749712,47.5371925 L59.3685965,47.5275066 L59.3620227,47.5178208 L59.3554488,47.5081349 L59.3488749,47.4982514 L59.3357272,47.4788797 L59.3293525,47.4689961 L59.3227787,47.4593103 L59.3162048,47.4496244 L59.3096309,47.4399386 L59.3030571,47.430055 L59.2964832,47.4203692 L59.2901085,47.4106833 L59.2835347,47.4009975 L59.2769608,47.3911139 L59.2638131,47.3717422 L59.2572392,47.3620564 L59.2508645,47.3521729 L59.2442907,47.342487 L59.2377168,47.3328011 L59.2311429,47.3231153 C59.2068395,47.2671745 59.1614201,47.2201289 59.0940878,47.1863273 L54.8856174,45.0744154 C54.7184818,44.990603 54.3525365,45.1024846 54.0654776,45.3230849 L42.7102173,54.0445063 C42.4231584,54.2651066 42.2221575,54.5882979 42.2621983,54.7699571 L43.2674024,59.3420765 C43.2761675,59.3816106 43.2911081,59.4148192 43.3096345,59.4438768 L43.3162084,59.4535626 L43.3227822,59.4634462 L43.3293561,59.473132 L43.3425038,59.4925037 L43.3488785,59.5023873 L43.3554524,59.5120731 L43.3620262,59.521759 L43.3686001,59.5314448 L43.375174,59.5413283 L43.3817478,59.5510142 L43.3881225,59.5607001 L43.3946964,59.5703859 L43.4012702,59.5802694 L43.4078441,59.5899553 L43.414418,59.5996412 L43.4209918,59.609327 L43.4273665,59.6192105 L43.4339403,59.6288964 L43.4405142,59.6385822 L43.4470881,59.6482681 L43.453662,59.6581516 L43.4602358,59.6678375 L43.4666105,59.6775233 L43.4731843,59.6872092 L43.4797582,59.6970927 L43.4929059,59.7164644 L43.4994798,59.7261503 L43.5058545,59.7360338 L43.5190022,59.7554055 L43.5255761,59.7652891 L43.5321499,59.7749749 L43.5387238,59.7846608 L43.5450985,59.7943466 L43.5516723,59.8042301 L43.5582462,59.813916 L43.5648201,59.8236019 L43.5713939,59.8332877 L43.5779678,59.8431712 L43.5843425,59.8528571 L43.5909163,59.862543 L43.5974902,59.8722288 L43.6040641,59.8821123 L43.6106379,59.8917982 L43.6172118,59.901484 L43.6235865,59.9111699 L43.6301603,59.9210534 L43.6367342,59.9307393 C43.7516773,60.1280145 44.0676213,60.1050847 44.3981076,59.8514734 L59.2405057,48.4516163 C59.5275646,48.231016 59.6407148,47.9776024 59.5582426,47.8097801"/>
        <path fill="#AAA" d="M43.2674024,59.3420765 L42.2621983,54.7699571 C42.2221575,54.5882979 42.4231584,54.2651066 42.7102173,54.0445063 L54.0654776,45.3230849 C54.3525365,45.1024846 54.7184818,44.990603 54.8856174,45.0744154 L59.0940878,47.1863273 C59.3630187,47.3211386 59.2821402,47.6668643 58.9068321,47.955068 L44.064434,59.354925 C43.6893251,59.6431287 43.3317466,59.6342335 43.2674024,59.3420765"/>
        <path fill="#FBCFCE" d="M57.299422,48.6688562 L45.5572995,57.6875741 C45.3555017,57.8427455 45.1531063,57.9208254 44.9935406,57.92043 C44.8397519,57.9228021 44.7258049,57.853222 44.6835728,57.714655 L43.5859361,54.1095399 C43.5277674,53.9187878 43.7349438,53.5726667 44.0477005,53.332497 L53.3471332,46.1898701 C53.4499246,46.1109996 53.5608835,46.0455707 53.6696511,45.9977344 C53.8929634,45.8981084 54.1093034,45.8682602 54.2272346,45.9362589 L57.5352843,47.8437795 C57.7970438,47.9946021 57.6944516,48.3656297 57.299422,48.6688562"/>
        <path fill="#676866" d="M57.3812965,46.8777636 L55.7561568,46.0153271 C55.7193033,45.9957577 55.6394208,46.0178968 55.5788616,46.0643494 C55.5181031,46.1109996 55.4981823,46.165359 55.5346374,46.1853237 L57.1392586,47.0637716 C57.1830844,47.0876897 57.2737241,47.0653529 57.340658,47.0139586 C57.407592,46.9625642 57.4257199,46.9012864 57.3812965,46.8777636"/>
        <path fill="#FFEBEB" d="M45.6106873,6.95227017 C47.6079477,7.41936563 50.1540265,8.28990664 51.331944,10.1066965 C52.4355569,11.8062677 51.7825527,14.3763799 51.508044,16.2408083 C51.1355248,18.7731655 50.6488594,21.2875346 50.1699631,23.8040781 C49.7854915,25.829608 49.3948444,27.8729283 48.5695252,29.7652282 C47.742214,31.6555515 46.4320223,33.4067147 44.605284,34.3845908 C43.5696011,34.9372776 42.4096123,35.2254813 41.2458385,35.3905361 C40.0400319,35.5633002 38.8180894,35.6131132 37.6021231,35.537603 C36.4682306,35.468023 35.1582381,34.9432077 34.0424735,35.0505428 C32.4239077,35.2074932 32.341834,37.2727549 33.359389,38.2110969 C33.5095919,38.350257 33.683899,38.4654989 33.8801189,38.5449624 C33.9763364,38.5846942 34.0785302,38.6165192 34.182716,38.6483441 C34.314791,38.6880759 34.4470652,38.7297844 34.5632035,38.7894809 L34.5691798,38.7934343 C34.6273485,38.8410729 34.6875094,38.896816 34.7434869,38.9584892 C34.765599,38.9822097 34.7897031,39.0061278 34.811616,39.0320226 L34.831736,39.0557431 C34.8516569,39.0776845 34.8717769,39.1016027 34.8916977,39.1233464 L34.893889,39.1292765 C34.9660023,39.3103427 34.9458823,39.5228385 34.893889,39.7118116 C34.8076319,40.0298635 34.6534448,40.3099626 34.4510494,40.554481 C33.9882889,41.1170514 33.2751239,41.5106134 32.5641502,41.8286653 C32.4199235,41.8923152 32.2737048,41.9537907 32.1314702,42.0134872 C31.953179,42.0870206 31.7748877,42.1625308 31.5965964,42.2360642 C31.1497727,42.4208862 30.7051402,42.6059058 30.2585156,42.7927044 C30.0461598,42.8800748 29.8218515,42.9696196 29.5933598,42.9377946 C29.357099,42.9020162 29.1606798,42.7411124 28.9823885,42.5839644 C27.9287769,41.6576803 26.9552469,40.6460025 26.0757431,39.5566402 C26.4418876,40.0100964 27.9781805,36.9562844 28.0309706,36.7431956 C28.3435281,35.4822553 28.2399399,34.1137822 27.696301,32.9287474 C26.9522587,31.307256 25.5125818,30.1255816 24.3872552,28.7373415 C22.5848203,26.5139434 21.5738392,23.6712435 21.5706518,20.8178694 C21.5674645,17.9644953 22.5718717,15.1196211 24.3691273,12.8922696 C25.543459,11.4370191 26.865404,10.1013594 28.2106563,8.79969893 C29.0801997,7.95821549 29.9612971,7.10803455 31.0087333,6.49762795 C32.5360619,5.60751756 34.3452699,5.27740778 36.1164291,5.30033756 C37.7979447,5.32188365 39.2435979,5.7802816 40.8402508,6.19855244 C42.3631968,6.59745157 44.0473021,6.58657969 45.6106873,6.95227017"/>
        <path fill="#FFEBEB" d="M36.9212298,51.0887389 C36.3325699,52.5281757 36.3917347,53.9134507 36.586361,55.4376882 C36.5973175,55.5222912 36.6082739,55.6068941 36.6170391,55.6916948 C36.7636562,56.9617279 36.9102734,59.0418149 37.0568906,60.2620351 C37.0634644,60.3183712 37.0700383,60.3727306 37.0766122,60.4247179 L24.0312703,60.4247179 C24.0619484,58.7856339 23.8015834,56.7381626 23.5193055,54.7515738 C23.5171142,54.7276556 23.5127316,54.7015631 23.508349,54.677645 C23.4033664,53.9395432 23.2940011,53.2077669 23.1975844,52.512955 C23.1495752,52.1699967 23.1035582,51.8268406 23.0599316,51.4817079 C23.0424013,51.3492686 23.024871,51.2168294 23.009532,51.0822157 C22.9876191,50.906289 22.9678975,50.7283855 22.9503671,50.5502843 C22.8782538,49.8532981 22.8059413,49.1563118 22.7425931,48.4573488 C22.7206802,48.2248882 22.6987673,47.9926254 22.6790457,47.7603625 C22.6746631,47.716875 22.6702806,47.6735851 22.6680893,47.6300976 C22.5937846,46.7421616 22.5368111,45.8518535 22.5085236,44.9617431 C22.5063323,44.8769425 22.5019497,44.7901651 22.4997584,44.7012134 L22.4997584,44.6903415 C22.436211,43.1356628 22.2786374,41.2989083 23.1975844,39.9832132 C23.407749,39.6835447 23.6505836,39.4425843 23.9175225,39.2383907 C23.9482005,39.2124958 23.9810699,39.1864033 24.0159313,39.1624852 C24.6221215,38.7260286 25.3354858,38.4589758 26.0376943,38.131238 C26.1078156,38.0986224 26.1777376,38.0660068 26.2478589,38.0314144 C26.2982585,38.0074963 26.348459,37.9814038 26.3988586,37.9553113 C26.4643981,37.9226956 26.5301368,37.8881033 26.5934849,37.8533133 C26.6197804,37.8380926 26.6460759,37.8250464 26.6723713,37.8098257 C26.9743708,37.6449685 27.2630234,37.4603443 27.5235876,37.2431043 C27.9961092,36.8457866 28.4096652,36.3008089 28.9720297,36.131603 C29.7575072,35.892817 30.5429848,36.4549919 31.1862278,37.0304109 C31.831662,37.6080041 32.4619564,37.8033026 33.1030081,38.02924 C33.400625,38.1355868 33.7004332,38.2462823 34.0066161,38.404814 C34.0855025,38.4437551 34.1641897,38.4872426 34.2430761,38.5350789 C34.2932765,38.5655202 34.3414849,38.6001125 34.3916853,38.6392513 L34.4179808,38.660995 L34.4245547,38.6653438 C34.4881021,38.7173311 34.5536415,38.7782137 34.6149976,38.8454216 C34.6391018,38.8715142 34.6653973,38.8976067 34.6893022,38.9258736 L34.7112151,38.9519661 C34.733128,38.9756865 34.7550409,39.001779 34.7769538,39.0256972 L34.7791451,39.0322203 C34.8227717,39.0844053 34.8665975,39.1407414 34.908232,39.1972752 C34.9257623,39.2190189 34.9430934,39.2427394 34.9606237,39.2666575 L34.9825366,39.2949244 C35.0307449,39.3623301 35.076762,39.4317124 35.1247712,39.5032692 L35.1598318,39.5554542 C35.2429016,39.6813703 35.3239793,39.8116352 35.4048578,39.9440744 C35.4923101,40.0873856 35.5777704,40.2350455 35.6608402,40.380531 C35.6805618,40.4109722 35.6980921,40.4435879 35.7156224,40.4760058 C35.8403267,40.6910714 35.9584571,40.9015905 36.0700136,41.0905635 C36.0985004,41.1403765 36.1269871,41.1882128 36.1552747,41.2338746 C36.2319698,41.3641395 36.3084657,41.4813581 36.378587,41.5833561 C36.4989087,41.7571085 36.6214216,41.9306633 36.7439346,42.1087644 L36.7483172,42.1174619 C37.2975339,42.9207949 37.8182639,43.758918 38.1202634,44.664249 C38.1640892,44.7945139 38.2055245,44.9247788 38.2405851,45.0593924 C38.2537328,45.1137518 38.2668806,45.1657391 38.2800283,45.2179242 C38.2887935,45.2527142 38.2953673,45.2851321 38.3019412,45.3177478 C38.3107064,45.3612353 38.3192723,45.4025484 38.3258462,45.4458383 C38.3499503,45.5717544 38.3674807,45.7020193 38.3806284,45.8344585 C38.4244542,46.2730894 38.4047326,46.7073716 38.3433765,47.1351306 C38.1356024,48.5810905 37.4529163,49.7773926 36.9212298,51.0887389"/>
        <path fill="#FDDADA" d="M38.7967741,72.2632059 C38.2844109,72.3489949 37.7698564,72.4306328 37.2553018,72.5063407 C34.2669811,72.949518 31.2497751,73.2128151 28.228585,73.2966274 C26.1127958,73.3559286 23.9972057,73.3272664 21.8834085,73.2108384 C21.7415724,73.2027339 21.5973457,73.1924551 21.4533183,73.1843506 C21.0479298,73.1598394 20.5827788,73.0985616 20.364646,72.7573822 C20.2082676,72.5102941 20.2369536,72.1918469 20.2843651,71.9018642 C20.5704279,70.1617705 21.3031153,68.5321747 21.8361962,66.8494055 C22.603745,64.4190463 23.1410093,61.654031 23.3529667,58.9032479 C23.5175126,56.7976614 23.4908187,54.6982027 23.2314498,52.7641943 C23.2212902,52.6805796 23.2109313,52.5967673 23.1985804,52.5131527 C23.1491768,52.1699967 23.1039566,51.8268406 23.0607284,51.4817079 C23.0422021,51.3490709 23.0256678,51.2162364 23.0093327,51.0814251 C22.986623,50.9058936 22.9680967,50.7281878 22.9495703,50.550482 C22.877457,49.8540887 22.8055429,49.1557188 22.7417963,48.4573488 C22.7210786,48.2244929 22.6983689,47.991637 22.6800417,47.7609555 C22.6736671,47.7158866 22.6696829,47.6729921 22.6676908,47.6300976 C22.5913941,46.7439406 22.5358151,45.8554116 22.5091212,44.9609525 C22.5071291,44.8773378 22.5009537,44.7895721 22.4987624,44.7016087 L22.4987624,44.6893532 C22.4864115,44.1236201 22.4864115,43.5559103 22.5009537,42.990375 C22.533823,41.9221634 22.7170945,40.7825928 23.3282649,39.8800292 C23.4989863,39.6248365 23.698792,39.4164918 23.9169249,39.238786 C23.9478021,39.2121005 23.9806715,39.1856126 24.0157321,39.1632759 C24.1328664,39.0733358 24.2563755,38.9895235 24.3840679,38.9140133 C24.427296,38.8895022 24.4705242,38.8630143 24.5137523,38.8404799 C24.7607704,38.6995408 25.0221314,38.5791594 25.2874766,38.4627315 C25.415169,38.4056047 25.5468456,38.3504546 25.67653,38.2931302 C25.7733452,38.2502357 25.8699611,38.2095156 25.964585,38.1644467 C25.9892868,38.1543655 26.0139886,38.1440866 26.0386904,38.131831 C26.1088116,38.0992154 26.1787337,38.0665998 26.2486557,38.0318097 C26.2980593,38.0072986 26.3474629,37.9808108 26.3988586,37.9562996 C26.4647965,37.9234863 26.5307344,37.888894 26.594481,37.8541039 C26.6191828,37.8376973 26.6458767,37.8256394 26.6725706,37.8092327 C26.6910969,37.8173372 26.7118145,37.8173372 26.7281496,37.823465 C27.568011,38.0420886 28.3459186,38.4769638 28.9859743,39.0630569 C29.821453,39.835158 30.2784364,40.892893 31.2643173,41.5669495 C31.5523722,41.7608643 31.8878387,41.9120822 32.233664,41.9814646 C32.7151499,42.0814859 33.2131702,42.0304869 33.6083991,41.7507831 C33.9870937,41.4811605 34.211402,41.0441109 34.2958662,40.588678 C34.3060259,40.5274002 34.3143926,40.4702734 34.3225601,40.4089955 C34.3267435,40.3761822 34.3267435,40.3455433 34.3267435,40.3129277 C34.3267435,40.0494328 34.2299284,39.7084512 34.143472,39.3552139 C34.1333124,39.3123194 34.1229536,39.2714016 34.1125948,39.2304838 C34.1002439,39.1794848 34.0900843,39.1304625 34.0797255,39.0794636 C34.0345052,38.879421 34.0014367,38.6853085 34.0014367,38.5076027 L34.003628,38.4607548 L34.0117955,38.4117325 C34.2608056,38.4830916 34.5139991,38.5321139 34.7610172,38.6220539 L34.7753601,38.6260074 C34.9255631,38.6811574 35.0779573,38.7424353 35.2034584,38.844631 C35.3309515,38.9488033 35.4277667,39.0897424 35.4976887,39.2366116 C35.6706014,39.6003254 35.6953032,40.0148405 35.7837516,40.4109722 C35.8538728,40.725466 35.9443133,41.0257276 36.1500953,41.2728157 C36.3600606,41.5280084 36.5082714,41.8772922 36.7449307,42.1079737 L36.749114,42.1182526 C37.269844,42.9433294 37.8027257,43.7581273 38.1196658,44.664842 C38.1650852,44.7935255 38.2061221,44.9241857 38.2411827,45.0589971 C38.2535336,45.1141471 38.2658845,45.1651461 38.2802275,45.2183195 C38.2885943,45.2531095 38.2947697,45.2857251 38.3009452,45.3183408 C38.3111048,45.3612353 38.3194715,45.4021531 38.325647,45.4450476 C38.3503488,45.5715567 38.3666838,45.7024146 38.3810268,45.8350515 C38.4244542,46.2721011 38.4037365,46.7071739 38.3441733,47.1359213 C38.1362001,48.5818812 37.4529163,49.7766019 36.9220267,51.0897272 C36.3333667,52.527385 36.3909379,53.9140437 36.5865602,55.4374905 C36.5967198,55.5213028 36.6090707,55.6070918 36.6172383,55.6907064 C36.8046931,57.2101998 36.9301942,58.7377976 37.0576874,60.2612444 C37.0618708,60.3163945 37.0660541,60.3715446 37.0702375,60.4245203 C37.1278086,61.1392969 38.3049293,72.2632059 38.7967741,72.2632059"/>
        <path fill="#8898AA" d="M24.5137523,38.8434933 C24.4643487,38.8045776 24.4500057,38.7430274 24.5137523,38.6364066 C24.6083762,38.476376 24.840852,38.4948411 25.0221314,38.4475864 C25.1908607,38.4045013 25.3348881,38.2875559 25.497442,38.2262042 C25.6133811,38.1813321 25.7450576,38.16247 25.8843041,38.16247 C25.9107988,38.16247 25.9376919,38.1632642 25.964585,38.1644555 C25.8699611,38.2097246 25.7733452,38.2506258 25.67653,38.2937109 C25.5468456,38.3512901 25.415169,38.4066853 25.2874766,38.464066 C25.0221314,38.5810114 24.7607704,38.7019278 24.5137523,38.8434933"/>
        <path fill="#DADADA" d="M30.2063231,62.3585287 L30.204331,62.3668309 C30.1796292,62.45855 30.1569195,62.5526412 30.1322177,62.644558 C29.7742407,64.0312167 29.4367822,65.4240033 29.1218342,66.8207432 C28.5517006,69.3449959 28.049497,71.8874342 27.6194067,74.4403491 C27.5534688,74.8242253 27.4877301,75.2164036 27.3126262,75.5654898 C26.9586334,76.2699875 26.1910846,76.7030837 25.4070015,76.8317672 C24.6249105,76.9604507 23.822301,76.8256394 23.0523617,76.6376547 C21.4676612,76.2557553 19.9405319,75.6593833 18.3580227,75.2612748 C17.6932653,75.0936502 17.016157,74.96299 16.3780934,74.7139251 C15.6165208,74.4178147 14.9188941,73.9582307 14.3507525,73.3762887 C14.1039337,73.1250494 13.8774341,72.8269623 13.7334066,72.5083174 C13.5893792,72.1918469 13.5256326,71.8528419 13.6037222,71.5158136 C13.6738434,71.2074476 13.8549236,70.937825 14.0256449,70.6723535 C14.8818413,69.3408448 15.5651251,67.9093148 16.112549,66.4246115 C16.3348652,65.8262628 16.5344718,65.219612 16.7155519,64.607031 C17.0510184,63.4674604 17.3247303,62.305553 17.7693628,61.2027491 C17.9647859,60.7206307 19.6196077,57.4857525 20.2369536,58.5927075 C20.3439283,58.7826689 20.366638,59.0074202 20.4407435,59.2116139 C20.5622604,59.5484445 20.8152547,59.8099626 21.0993255,60.036493 C21.2104836,60.1264331 21.3298092,60.2122221 21.4471428,60.29386 C21.9740482,60.6654806 22.5152966,61.0250433 23.1141162,61.2679804 C24.5157444,61.8356902 26.0448658,61.70503 27.5781706,61.5804975 C28.0475049,61.5395797 28.51664,61.502813 28.983783,61.4844296 C29.1999238,61.4743484 29.4160645,61.4701974 29.6322053,61.4721741 C29.8029267,61.4743484 29.9923736,61.486604 30.1198668,61.6008576 C30.3216646,61.7805401 30.272261,62.099185 30.2063231,62.3585287"/>
        <path fill="#AAA" d="M30.2063231,62.3585287 L30.204331,62.3668309 C30.1796292,62.45855 30.1569195,62.5526412 30.1322177,62.644558 C29.7742407,64.0312167 29.4367822,65.4240033 29.1218342,66.8207432 C28.5517006,69.3449959 28.049497,71.8874342 27.6194067,74.4403491 C27.5534688,74.8242253 27.4877301,75.2164036 27.3126262,75.5654898 C26.9586334,76.2699875 26.1910846,76.7030837 25.4070015,76.8317672 C24.6249105,76.9604507 23.822301,76.8256394 23.0523617,76.6376547 C21.4676612,76.2557553 19.9405319,75.6593833 18.3580227,75.2612748 C17.6932653,75.0936502 17.016157,74.96299 16.3780934,74.7139251 C15.6165208,74.4178147 14.9188941,73.9582307 14.3507525,73.3762887 C14.1039337,73.1250494 13.8774341,72.8269623 13.7334066,72.5083174 C13.8445648,72.3470182 13.998951,72.2347414 14.2027409,72.2080558 C14.4433843,72.1754402 14.6780515,72.2857404 14.8961843,72.3940638 C16.5571815,73.2128151 18.2014452,74.0665541 19.9076626,74.7894353 C21.4389753,75.4368063 23.1017653,75.988307 24.742244,75.7022778 C24.9727278,75.6635343 25.207395,75.6022565 25.3842917,75.4512362 C25.6333019,75.2367637 25.7093994,74.8874799 25.7691618,74.5648815 C26.2671821,71.9325031 26.7570348,69.2918225 27.3805562,66.6859319 C27.7243893,65.2502509 28.1092594,63.8248487 28.5620594,62.4198066 C28.5702269,62.3871909 28.5805858,62.3543776 28.5929367,62.321762 C28.6134551,62.2565307 28.6339735,62.1930785 28.654492,62.1278472 C28.7327808,61.8888635 28.8234204,61.6437521 28.983783,61.4844296 C29.1999238,61.4743484 29.4160645,61.4701974 29.6322053,61.4721741 C29.8029267,61.4743484 29.9923736,61.486604 30.1198668,61.6008576 C30.3216646,61.7805401 30.272261,62.099185 30.2063231,62.3585287"/>
        <path fill="#AAA" d="M30.5583238,61.4211751 C30.5254545,61.8337135 30.4204718,62.2381474 30.2455671,62.6117447 C30.2495513,62.5117234 30.2352083,62.4279111 30.2063231,62.3585287 C30.0047245,61.8540735 29.0578884,62.1379284 28.6710262,62.3543776 L28.6485157,62.3668309 C28.6196306,62.3830399 28.5907454,62.4014232 28.5620594,62.4198066 C28.0638399,62.7384515 27.6935121,63.2284767 27.3723886,63.7268041 C26.8496666,64.541602 26.4153929,65.4240033 26.141681,66.3552291 C26.0779344,66.5778062 26.020164,66.8003832 25.9749438,67.0271113 C25.7958557,67.8948849 25.5119841,69.163139 24.3697249,69.1611623 C24.1699192,69.1611623 23.9764881,69.1141167 23.783057,69.0650944 C22.2640952,68.6812183 20.7680424,68.207402 19.3046597,67.6499711 C18.5741635,67.3700696 17.8516357,67.0700058 17.1374747,66.7493842 C16.9151585,66.6491652 16.4603664,66.5716784 16.112549,66.4246115 C15.8924241,66.3326947 15.715328,66.2142901 15.6681157,66.042712 C15.631063,65.9120518 15.6804666,65.7752638 15.727679,65.648557 C16.042627,64.794818 16.303988,63.9228933 16.5119613,63.038713 C16.6970256,62.2442752 16.8906559,61.5702187 17.1868783,60.8147219 C17.4050112,60.25907 17.6562126,59.7097436 18.0225563,59.2359274 C18.5040423,58.6152419 19.1811506,58.1517045 19.9303723,57.9107442 C20.2700221,57.800444 20.5538937,57.786014 20.8194381,57.837013 C21.2393687,57.9146976 21.6096966,58.1536812 22.0748475,58.4252805 C23.5977935,59.3136119 25.2318976,60.0119819 26.9257641,60.5041815 C27.6646269,60.7206307 28.4138486,60.8963598 29.1712378,61.0311711 C29.4242321,61.0760423 30.5911931,60.9841255 30.5583238,61.4211751"/>
        <path fill="#FFEBEB" d="M41.5380768,56.0301067 C41.8442597,55.5201168 42.3269409,55.0638932 42.8847236,54.9021987 C43.1506664,54.8253049 43.4140195,55.0075571 43.4448968,55.2805401 C43.5646209,56.3382751 44.5020942,57.2457805 45.5485344,57.5986224 C45.887985,57.7130736 46.4322215,57.9202323 46.794581,57.8468966 C47.2174999,57.7615029 47.6712959,57.2224554 47.9999893,56.9571815 C48.8265037,56.2906365 49.6528189,55.6238938 50.4793333,54.9573488 C50.6560309,54.8148283 50.870578,54.663215 51.0911014,54.7201441 C50.9243642,55.6764742 50.4661856,56.554922 50.0139832,57.4155795 C49.7209481,57.9734057 49.427913,58.5312319 49.1350771,59.0888605 C49.0012092,59.3436578 48.8659469,59.6004318 48.681281,59.8216252 C48.3129452,60.2624304 47.7691071,60.5318554 47.2083363,60.6668643 C46.7180851,60.7850713 46.1282299,60.8657209 45.6234366,60.8149196 C45.1909558,60.771432 44.8106676,60.6765502 44.3642422,60.768467 C42.8365152,61.0833561 41.5227378,62.0578718 40.2348574,62.8764255 C38.2304255,64.1500167 36.0634397,65.1966822 33.7617893,65.7976006 C31.2852342,66.4439832 27.8947123,66.8938813 25.6159708,65.493188 C23.6872379,64.3077578 22.2208671,62.3820515 21.6425659,60.2011526 C21.373635,59.1871028 21.2885731,58.1354955 21.2047065,57.0902138 C20.8915514,53.1907673 20.995538,49.2118572 21.2796088,45.3027248 C21.3824002,43.8909619 21.5234395,42.4489554 22.1230559,41.16469 C22.6150999,40.111106 23.3697002,39.2289025 24.5360636,38.9300246 C26.315988,38.4738011 26.8311402,39.478165 26.9871201,41.1117143 C27.337328,44.7739561 27.1269642,48.4522093 26.939111,52.1172186 C26.8486705,53.8810328 26.544679,55.836192 26.752453,57.5932853 C26.9052456,58.8870389 27.2305524,60.5648663 28.2791839,61.4609069 C29.4308059,62.4449107 31.1455893,62.3128668 32.643435,62.0582672 C34.6255557,61.7210413 36.6401472,61.2492017 38.3941745,60.2365356 C39.0884148,59.8358574 39.8635335,59.4353769 40.2511925,58.7261351 C40.7304872,57.8498616 41.0211318,56.8909619 41.5380768,56.0301067"/>
        <path fill="#FEBBBA" d="M28.2985071,44.6812487 C28.2923316,44.7445032 28.2883475,44.8077578 28.2841641,44.87121 C28.0598558,47.6055865 27.8684168,50.3443117 27.7160226,53.0848159 C26.2157864,53.1196059 24.7113668,53.0114801 23.2314498,52.7641943 C21.8957594,52.5416172 20.5766034,52.2067634 19.2984842,51.763586 C19.5393268,49.1047198 19.9590583,46.4600858 20.556085,43.8561719 C20.7596756,42.9678405 20.9861752,42.071207 21.4266244,41.270839 C21.9616973,40.296521 22.8959833,39.3858529 23.9189169,38.8630143 C24.0671278,38.7875042 24.2153386,38.7200985 24.3655415,38.6627741 C24.6928404,38.5362649 24.9994217,38.470836 25.2874766,38.4627315 C26.2506478,38.4320926 27.0060449,39.0284646 27.6213987,40.0025849 C28.5497085,41.4770094 28.434367,43.0271417 28.2985071,44.6812487"/>
        <path fill="#AAA" d="M39.6576451 18.5912672C39.1609918 18.4125487 38.5334272 18.9444847 38.2555592 19.7795481 37.9778413 20.6144754 38.1552389 21.4361995 38.6518922 21.6149181 39.1483955 21.7936366 39.7761101 21.2617005 40.0538281 20.4267733 40.3315461 19.5917099 40.1541485 18.7699857 39.6576451 18.5912672M48.9311081 19.6221936C48.4344254 19.4434826 47.8068506 19.9753963 47.529147 20.8104246 47.2512665 21.6453169 47.4286784 22.4671427 47.9253611 22.6458537 48.4218668 22.8245647 49.0496185 22.2925149 49.3273222 21.4576227 49.6050258 20.6225943 49.4276139 19.8009046 48.9311081 19.6221936"/>
        <path fill="#FEBBBA" d="M34.6653973,42.2477268 C33.9476505,43.2681021 32.3000003,43.0249673 31.1774626,42.4258279 C30.8647059,42.260773 30.5911931,42.0652769 30.391985,41.8612809 C29.855916,41.3163033 29.4096899,40.706292 28.9501168,40.12435 C28.2696219,39.2623088 27.5694054,38.4568014 26.5147977,38.0053219 C26.4775458,37.9879269 26.4381026,37.9705319 26.3988586,37.9553113 C26.4643981,37.9226956 26.5301368,37.8881033 26.5934849,37.8533133 C26.6197804,37.8380926 26.6460759,37.8250464 26.6723713,37.8098257 C26.6920929,37.8163489 26.7116153,37.8163489 26.7291457,37.822872 C27.5672141,38.0420886 28.3461178,38.4763708 28.9851774,39.0626616 C29.8208554,39.8355533 30.2782372,40.892893 31.2651142,41.5659611 C31.5517746,41.7614573 31.8886355,41.9112915 32.2344608,41.9806739 C32.7157476,42.0804975 33.2123734,42.0306845 33.6083991,41.7505854 C33.9870937,41.4813581 34.212398,41.0449016 34.2954678,40.5888757 C34.3064243,40.5281909 34.3151894,40.4694827 34.3217633,40.4087979 C34.3261459,40.3761822 34.3261459,40.345741 34.3261459,40.3131253 C34.3371023,39.9940851 34.2277371,39.6639753 34.1444681,39.355807 C34.1335116,39.3123194 34.1227544,39.2710063 34.111798,39.2298908 C34.1008415,39.1798802 34.0898851,39.1298695 34.0789286,39.0800566 C34.0394854,38.8736885 34.0175725,38.6675182 34.0044248,38.4611501 L34.0109987,38.4113372 C34.2606064,38.4828939 34.5143975,38.5329045 34.7616148,38.6218563 C34.855641,39.1450902 34.9148058,39.6770216 34.9345274,40.208953 C34.9584324,40.8559286 35.0526578,41.696226 34.6653973,42.2477268"/>
        <path fill="#FFEBEB" d="M44.1239972,51.4376273 C44.5722155,51.1156221 45.176812,51.0743089 45.7154708,51.2006204 C46.2539303,51.3271295 46.7429862,51.6024846 47.2236753,51.8746769 C47.3278611,51.9335827 47.4479836,52.0247088 47.4244771,52.1415321 C47.4159111,52.1838336 47.3888188,52.2198096 47.3609297,52.2530183 C47.0352244,52.6422315 46.5013467,52.8489949 45.996155,52.7819846 C45.7953532,52.7552991 45.6007269,52.6888818 45.3987299,52.6762309 C45.0246171,52.6527081 44.6632536,52.8157863 44.3493016,53.0191892 C44.0929208,53.1852325 43.2432982,54.0035885 42.9239676,53.6997689 C42.3157853,53.1215826 43.7122341,51.7333425 44.1239972,51.4376273"/>
        <path fill="#AAA" d="M27.8182164,27.912067 C27.7237917,26.7713104 27.6295663,25.6305538 27.5351416,24.4897972 C27.031942,25.4886263 25.4233365,25.4105465 24.6699315,24.5809233 C23.9165264,23.7511024 23.8217034,22.5289055 23.886446,21.4140437 C23.9286781,20.6883952 24.0300751,19.9410029 24.4089689,19.3189338 C24.8866699,18.5349725 25.8040232,18.0352614 26.7269544,18.0562145 C27.8656279,18.082307 28.5417402,18.8397804 29.2142667,19.6126722 C30.1628957,18.7071435 30.5822288,17.2305447 31.6549644,16.2376456 C33.0420504,14.9565429 36.763457,14.0935134 36.2716122,11.8442204 C36.1016877,11.0679683 35.9319624,10.2917161 35.7622371,9.51526625 C36.3289841,10.3618891 36.8957312,11.208512 37.4626775,12.0555302 C38.406127,13.4647234 42.948271,12.7627954 44.589945,13.1526016 C48.6854644,14.124943 50.7628065,17.4699237 51.9558638,21.2861509 C52.6763995,17.9295076 53.2776096,13.7226835 52.2666284,10.371575 C50.8163934,5.56383238 46.1535294,2.39042971 41.5438539,0.925098075 C35.5885276,-0.96799258 30.9686925,0.189566037 25.5510289,3.07693945 C24.7199327,3.51991911 23.8774817,3.97100325 23.1975844,4.6199556 C22.6109165,5.18015388 22.165288,5.86982635 21.7790235,6.58084725 C17.9592081,13.6108019 17.6542205,21.5421342 18.0141896,29.3580269 C18.0683742,30.5323876 18.1114031,31.7698051 17.5657721,32.8133078 C17.0201411,33.8568105 15.6637331,34.5810753 14.6170938,34.0305629 C15.5675156,34.5304717 15.896209,35.6870419 17.1617781,36.0317793 C18.1837157,36.3102971 19.4984891,36.1624396 20.4674373,35.757808 C20.124401,36.5943497 19.4102399,37.2733479 18.5532467,37.5777605 C19.8825624,37.9280327 21.3646706,37.654259 22.4780447,36.8531004 C23.5914188,36.0519417 24.3139466,34.7390141 24.3912394,33.3764711 C24.3308793,34.4417176 24.7410488,35.3462579 24.1948202,36.4107137 C23.827082,37.1270717 23.0143129,37.6797585 22.5760551,38.404814 C24.5400478,38.5248 26.6741642,37.7147462 27.6114383,35.9979777 C28.3473131,34.65026 28.2407367,33.0228385 28.1144388,31.4952407 C28.0156316,30.3009154 27.9168244,29.10659 27.8182164,27.912067"/>
        <path fill="#FEBBBA" d="M39.7314585,28.2139099 C39.3828444,27.859882 39.2184977,27.4475413 39.3573457,26.973132 C39.4898191,26.9205517 39.6224917,26.8679713 39.7551643,26.8153909 C39.9304674,26.701928 39.7832527,26.3959341 39.5754786,26.3716206 C39.3675053,26.3475048 39.1810466,26.4894322 39.0208832,26.6230575 C38.8222728,26.7887054 38.6236623,26.9543533 38.4250518,27.1200012 C38.1895878,27.3160904 37.9417729,27.669723 38.1613003,27.8832071 C38.3441733,27.8774747 38.5260503,27.841301 38.6971701,27.7766627 C38.5567284,27.8296384 39.4097375,28.8063285 39.4928072,28.8749202 C39.8398278,29.1607518 40.2233034,29.3202719 40.6366602,29.4760362 C41.5627786,29.8247271 42.5179815,30.0994891 43.4923083,30.2783809 C43.8034714,30.3355077 44.3795812,30.5284341 44.7254065,30.4276222 C45.4274158,30.2232308 44.9801936,29.9874099 44.5100625,29.9239577 C43.9785753,29.8522033 43.4526659,29.7620655 42.9303423,29.6381261 C41.8424668,29.380166 40.5390482,29.0340449 39.7314585,28.2139099"/>
        <path fill="#CFCFCF" d="M30.7085267,59.0829304 C30.6652986,59.9896451 30.6674899,60.925022 30.5501563,61.8234346 C30.5316299,61.9665481 30.5232632,62.1053128 30.5047368,62.2339963 C29.9471534,62.2094851 29.4057057,62.1053128 28.9242197,61.876608 C28.9284031,61.7376456 28.9385627,61.6111365 28.9427461,61.5130919 C29.0497208,59.4136332 29.1361772,57.3121978 29.1979317,55.2107624 C29.2596862,53.1870115 29.2329923,51.1264939 29.0539042,49.114801 C28.9262118,47.6975033 28.6154472,46.2659733 28.2841641,44.87121 C28.2162341,44.5893319 28.1502963,44.3096281 28.0823663,44.031901 C27.8210053,42.9536082 27.5082485,41.88342 27.0512652,40.8725329 C27.0142124,40.790895 26.9731756,40.7132105 26.9279553,40.6335493 C26.4482622,39.8106468 25.4872823,39.1571481 24.5053856,38.9385245 C24.4643487,38.93042 24.4253039,38.9221178 24.3840679,38.9140133 C24.2316737,38.8861418 23.9535792,38.8841651 24.1021884,38.6339142 C24.1970115,38.4741964 24.4288897,38.4927774 24.6097706,38.4463248 C24.7800936,38.4028373 24.9225274,38.2879908 25.0868741,38.2253292 C25.5783204,38.0379375 26.3355104,38.3079555 26.7920954,38.5097771 C28.4281916,39.2326582 28.8212292,40.9909376 29.2782125,42.5736855 C30.3051303,46.1169297 30.7517549,49.7949853 30.8216769,53.4850987 C30.8567376,55.3517015 30.8011585,57.220281 30.7085267,59.0829304"/>
        <path fill="#FEBBBA" d="M19.1440979,68.2712496 C19.1341375,68.2935864 19.1241771,68.3159231 19.1140175,68.3384576 C19.0124214,68.5626159 18.783332,68.9310738 18.9257658,69.1532555 C19.097284,69.420506 19.9100531,69.7110817 20.2369536,69.6351762 C20.9465328,69.4699237 21.2489307,68.017243 21.3768223,67.4663352 C21.4557087,67.1271326 21.5680621,66.8007785 21.2947486,66.5192957 C20.994542,66.210139 20.3102622,66.1031992 19.9614488,66.383496 C19.7000877,66.5936198 19.6154243,67.0709941 19.5000828,67.3676976 C19.3817532,67.6717149 19.2761729,67.9707904 19.1440979,68.2712496"/>
        <path fill="#FBCFCE" d="M19.1229819,68.1135085 C19.1140175,68.1350546 19.1048539,68.1566007 19.0954911,68.1783444 C19.0018633,68.3949913 18.790902,68.750996 18.9221801,68.9656661 C19.0799529,69.2238239 19.8281785,69.5047137 20.1289828,69.4313779 C20.7821862,69.2716601 21.0604799,67.8680017 21.1784111,67.335675 C21.2509228,67.0077396 21.3543118,66.6924551 21.102712,66.4204604 C20.8264103,66.1215826 20.1965143,66.0183986 19.8755901,66.2892072 C19.6349467,66.4922148 19.5570563,66.9535778 19.4508784,67.2403978 C19.3419116,67.5341362 19.244698,67.8231305 19.1229819,68.1135085"/>
      </g>
      <g transform="translate(209 83)">
        <circle cx="7" cy="7" r="7" fill="#FEBBBA"/>
        <path fill="#FFF" d="M8.15414438,3.45282631 L4.52618978,3.45282631 L4.06549127,4.26266838 L6.30909338,4.26266842 C6.87336152,4.26266842 6.88390649,4.64313177 7.08232934,5.06086145 L4.34324641,5.06086145 L4.06549127,5.884316 L7.08232937,5.884316 C6.88390652,6.30204567 6.4075443,6.68320854 5.85184976,6.68320854 L4.52618978,6.68320854 C5.63757886,8.07569467 6.63323605,9.36545017 7.79714847,10.7577747 L9.0871057,10.7577747 L6.3689838,7.46048421 C7.46024074,7.46048421 7.91596332,6.7893431 8.15414445,5.884316 L9.59387335,5.87864392 L9.90074442,5.07065615 L8.15414438,5.06086145 C8.11475466,4.81713194 7.94248132,4.47153326 7.78438341,4.26266842 L9.59387335,4.26266838 L9.90074442,3.45282631 L8.15414438,3.45282631 Z"/>
      </g>
      <g transform="translate(201 113)">
        <circle cx="6" cy="6" r="6" fill="#FEBBBA"/>
        <path fill="#FFF" d="M6.98926662,2.95956541 L3.87959124,2.95956541 L3.4847068,3.65371575 L5.40779433,3.65371579 C5.89145273,3.65371579 5.90049128,3.97982723 6.070568,4.33788124 L3.72278264,4.33788124 L3.4847068,5.04369942 L6.07056803,5.04369942 C5.90049131,5.40175343 5.49218082,5.72846446 5.01587122,5.72846446 L3.87959124,5.72846446 C4.83221045,6.922024 5.6856309,8.02752872 6.68327012,9.22094974 L7.78894774,9.22094974 L5.45912898,6.39470075 C6.39449207,6.39470075 6.78511142,5.81943694 6.98926667,5.04369942 L8.22332001,5.03883765 L8.48635236,4.3462767 L6.98926662,4.33788124 C6.955504,4.12897023 6.80784113,3.8327428 6.67232864,3.65371579 L8.22332001,3.65371575 L8.48635236,2.95956541 L6.98926662,2.95956541 Z"/>
      </g>
    </g>
    <g transform="translate(0 102)">
      <polygon fill="#FFEBEB" points=".372 71.258 56.96 71.258 56.96 .07 .372 .07"/>
      <polygon fill="#FFEBEB" points=".372 83.609 8.425 83.609 8.425 64.503 .372 64.503"/>
      <polygon fill="#FFEBEB" points="48.906 83.609 56.96 83.609 56.96 64.503 48.906 64.503"/>
      <polygon fill="#FEBBBA" points="4.952 64.13 52.379 64.13 52.379 7.198 4.952 7.198"/>
      <path fill="#FFF" d="M10.9496056 48.0448462L8.71987456 48.0448462 8.29597132 49.3271241 6.94371997 49.3271241 9.24127556 43.1038018 10.4197266 43.1038018 12.7299993 49.3271241 11.3777479 49.3271241 10.9496056 48.0448462zM9.06323619 47.006201L10.606244 47.006201 9.83050107 44.6767294 9.06323619 47.006201zM18.1517218 47.2541081C18.1036792 47.9237455 17.8585242 48.4508989 17.4162496 48.8355843 16.973975 49.2202696 16.3911139 49.4126093 15.6676488 49.4126093 14.8763587 49.4126093 14.2539337 49.144046 13.800355 48.6069114 13.3467762 48.0697767 13.1199903 47.3324742 13.1199903 46.3949819L13.1199903 46.0145727C13.1199903 45.4161734 13.224552 44.8890199 13.4336787 44.4330966 13.6428053 43.9771733 13.9416541 43.6273998 14.330234 43.3837658 14.7188139 43.1401318 15.1702664 43.0183166 15.6846049 43.0183166 16.3967659 43.0183166 16.9704426 43.2106563 17.4056521 43.5953417 17.8408616 43.980027 18.092375 44.5200031 18.1601998 45.2152862L16.8884901 45.2152862C16.8574037 44.8135037 16.7464835 44.5221446 16.5557261 44.3412 16.3649686 44.1602554 16.0745978 44.0697845 15.6846049 44.0697845 15.2606995 44.0697845 14.9434818 44.222944 14.7329421 44.5292674 14.5224024 44.8355909 14.4143082 45.3107414 14.4086561 45.9547331L14.4086561 46.4249017C14.4086561 47.0973886 14.5096854 47.5889236 14.7117469 47.8995213 14.9138085 48.2101191 15.2324392 48.3654157 15.6676488 48.3654157 16.0604677 48.3654157 16.3536645 48.2749447 16.547248 48.0940002 16.7408314 47.9130556 16.8517517 47.6330944 16.880012 47.2541081L18.1517218 47.2541081zM23.8320253 47.2541081C23.7839826 47.9237455 23.5388277 48.4508989 23.0965531 48.8355843 22.6542785 49.2202696 22.0714174 49.4126093 21.3479522 49.4126093 20.5566622 49.4126093 19.9342372 49.144046 19.4806584 48.6069114 19.0270797 48.0697767 18.8002937 47.3324742 18.8002937 46.3949819L18.8002937 46.0145727C18.8002937 45.4161734 18.9048555 44.8890199 19.1139821 44.4330966 19.3231088 43.9771733 19.6219576 43.6273998 20.0105375 43.3837658 20.3991174 43.1401318 20.8505699 43.0183166 21.3649084 43.0183166 22.0770694 43.0183166 22.650746 43.2106563 23.0859555 43.5953417 23.5211651 43.980027 23.7726785 44.5200031 23.8405033 45.2152862L22.5687936 45.2152862C22.5377072 44.8135037 22.426787 44.5221446 22.2360295 44.3412 22.0452721 44.1602554 21.7549013 44.0697845 21.3649084 44.0697845 20.941003 44.0697845 20.6237852 44.222944 20.4132456 44.5292674 20.2027059 44.8355909 20.0946117 45.3107414 20.0889596 45.9547331L20.0889596 46.4249017C20.0889596 47.0973886 20.1899889 47.5889236 20.3920504 47.8995213 20.594112 48.2101191 20.9127427 48.3654157 21.3479522 48.3654157 21.7407712 48.3654157 22.033968 48.2749447 22.2275515 48.0940002 22.4211349 47.9130556 22.5320552 47.6330944 22.5603155 47.2541081L23.8320253 47.2541081zM28.3805071 46.6300662L25.9388244 46.6300662 25.9388244 48.2970275 28.8044103 48.2970275 28.8044103 49.3271241 24.6671146 49.3271241 24.6671146 43.1038018 28.7959323 43.1038018 28.7959323 44.1424469 25.9388244 44.1424469 25.9388244 45.6256151 28.3805071 45.6256151 28.3805071 46.6300662zM30.8221898 47.1344288L30.8221898 49.3271241 29.55048 49.3271241 29.55048 43.1038018 31.9582505 43.1038018C32.4217203 43.1038018 32.8293699 43.1892861 33.1812113 43.3602574 33.5330528 43.5312286 33.8036416 43.7741466 33.992986 44.0890187 34.1823304 44.4038907 34.2770012 44.7622126 34.2770012 45.163995 34.2770012 45.7737925 34.0699972 46.2546419 33.655983 46.6065577 33.2419687 46.9584736 32.6689986 47.1344288 31.9370553 47.1344288L30.8221898 47.1344288zM30.8221898 46.0957837L31.9582505 46.0957837C32.2945487 46.0957837 32.5510076 46.0159983 32.7276349 45.8564251 32.9042621 45.696852 32.9925744 45.4688937 32.9925744 45.1725436 32.9925744 44.8676448 32.9035556 44.621165 32.7255153 44.4330966 32.5474751 44.2450282 32.3016137 44.148146 31.9879237 44.1424469L30.8221898 44.1424469 30.8221898 46.0957837zM39.7962215 44.1424469L37.905613 44.1424469 37.905613 49.3271241 36.6339033 49.3271241 36.6339033 44.1424469 34.768729 44.1424469 34.768729 43.1038018 39.7962215 43.1038018 39.7962215 44.1424469zM44.2344884 46.6300662L41.7928058 46.6300662 41.7928058 48.2970275 44.6583917 48.2970275 44.6583917 49.3271241 40.521096 49.3271241 40.521096 43.1038018 44.6499136 43.1038018 44.6499136 44.1424469 41.7928058 44.1424469 41.7928058 45.6256151 44.2344884 45.6256151 44.2344884 46.6300662zM45.4044614 49.3271241L45.4044614 43.1038018 47.3035479 43.1038018C47.8461468 43.1038018 48.3315112 43.2270417 48.7596556 43.4735253 49.1878 43.7200088 49.5219737 44.0704946 49.7621868 44.5249932 50.0023998 44.9794918 50.1225045 45.4959597 50.1225045 46.0744124L50.1225045 46.3607878C50.1225045 46.9392405 50.0045193 47.4535713 49.7685453 47.9037956 49.5325713 48.3540199 49.1998106 48.703081 48.7702532 48.9509893 48.3406957 49.1988976 47.8560379 49.3242746 47.316265 49.3271241L45.4044614 49.3271241zM46.6761711 44.1424469L46.6761711 48.2970275 47.2908308 48.2970275C47.7882131 48.2970275 48.1683092 48.1331825 48.4311306 47.8054876 48.6939519 47.4777927 48.8281866 47.0090536 48.8338387 46.3992561L48.8338387 46.0701381C48.8338387 45.4375445 48.703843 44.9581198 48.4438477 44.6318497 48.1838524 44.3055795 47.8037563 44.1424469 47.3035479 44.1424469L46.6761711 44.1424469zM23.1169222 19.8947368L23.1169222 30.2727511C23.1169222 31.9970179 22.5741469 33.360539 21.48858 34.3633553 20.4030131 35.3661715 18.9199114 35.8675722 17.0392303 35.8675722 15.1875945 35.8675722 13.7171999 35.3806003 12.6280024 34.4066421 11.5388048 33.4326839 10.9833224 32.0944132 10.9615385 30.3917899L10.9615385 19.8947368 14.2291147 19.8947368 14.2291147 30.2943945C14.2291147 31.3260688 14.4778111 32.0781697 14.9752113 32.5507198 15.4726115 33.0232699 16.160611 33.2595415 17.0392303 33.2595415 18.8763435 33.2595415 19.8094087 32.3000266 19.838454 30.3809682L19.838454 19.8947368 23.1169222 19.8947368zM30.2535993 30.0996038L30.2535993 35.6511381 26.986023 35.6511381 26.986023 19.8947368 33.1726341 19.8947368C34.36349 19.8947368 35.4109193 20.1111688 36.3149532 20.5440391 37.2189872 20.9769094 37.9142479 21.5919368 38.4007561 22.3891396 38.8872643 23.1863425 39.1305148 24.093553 39.1305148 25.1107982 39.1305148 26.6547024 38.5986313 27.872132 37.5348484 28.7631234 36.4710655 29.6541148 34.9988555 30.0996038 33.1181745 30.0996038L30.2535993 30.0996038zM30.2535993 27.4699297L33.1726341 27.4699297C34.0367308 27.4699297 34.6956854 27.2679266 35.1495177 26.8639143 35.60335 26.459902 35.8302628 25.8827502 35.8302628 25.1324416 35.8302628 24.3604896 35.6015347 23.7364442 35.1440717 23.2602868 34.6866088 22.7841295 34.0548837 22.53884 33.2488775 22.5244109L30.2535993 22.5244109 30.2535993 27.4699297zM46.0384615 35.6511381L42.7708853 35.6511381 42.7708853 19.8947368 46.0384615 19.8947368 46.0384615 35.6511381z"/>
    </g>
  </g>
</svg>
