<svg xmlns="http://www.w3.org/2000/svg" width="58" height="58" viewBox="0 0 58 58">
  <g fill="none" fill-rule="evenodd" transform="translate(2 8)">
    <path fill="#F1F1F1" d="M8.18597059 30.1241613C7.81188235 30.1241613 7.5095 30.4276452 7.5095 30.8015806L7.5095 38.5919032C7.5095 38.9658387 7.81188235 39.2693226 8.18597059 39.2693226L12.9212647 39.2693226C13.2953529 39.2693226 13.5977353 38.9658387 13.5977353 38.5919032L13.5977353 30.8015806C13.5977353 30.4276452 13.2953529 30.1241613 12.9212647 30.1241613L8.18597059 30.1241613 8.18597059 30.1241613zM21.6078235 23.3499677L16.8725294 23.3499677C16.4984412 23.3499677 16.1960588 23.6534516 16.1960588 24.0273871L16.1960588 38.5919032C16.1960588 38.9658387 16.4984412 39.2693226 16.8725294 39.2693226L21.6078235 39.2693226C21.9819118 39.2693226 22.2842941 38.9658387 22.2842941 38.5919032L22.2842941 24.0273871C22.2842941 23.6534516 21.9819118 23.3499677 21.6078235 23.3499677zM25.5597647 16.5757742C25.1856765 16.5757742 24.8832941 16.8792581 24.8832941 17.2531935L24.8832941 38.5919032C24.8832941 38.9658387 25.1856765 39.2693226 25.5597647 39.2693226L30.2950588 39.2693226C30.6691471 39.2693226 30.9715294 38.9658387 30.9715294 38.5919032L30.9715294 17.2531935C30.9715294 16.8792581 30.6691471 16.5757742 30.2950588 16.5757742L25.5597647 16.5757742 25.5597647 16.5757742z"/>
    <path fill="#FEBBBA" d="M33.5705294,10.479 L33.5705294,38.5919032 C33.5705294,38.9658387 33.8729118,39.2693226 34.247,39.2693226 L38.9822941,39.2693226 C39.3563824,39.2693226 39.6587647,38.9658387 39.6587647,38.5919032 L39.6587647,10.479 C39.6587647,10.1050645 39.3563824,9.80158065 38.9822941,9.80158065 L34.247,9.80158065 C33.8729118,9.80158065 33.5705294,10.1050645 33.5705294,10.479 Z"/>
    <path fill="#CFCFCF" d="M0.731264706,41.5501935 L45.2525,41.5501935 C45.6265882,41.5501935 45.9289706,41.2467097 45.9289706,40.8727742 C45.9289706,40.4988387 45.6265882,40.1953548 45.2525,40.1953548 L0.731264706,40.1953548 C0.357176471,40.1953548 0.0547941176,40.4988387 0.0547941176,40.8727742 C0.0547941176,41.2467097 0.357176471,41.5501935 0.731264706,41.5501935 Z"/>
    <path fill="#F69A98" d="M5.71685294,27.5757097 C5.81697059,27.5757097 5.91979412,27.5533548 6.01585294,27.5052581 C6.11394118,27.4571613 15.8192647,22.6163226 22.2788824,16.9693548 C27.2238824,12.6467419 31.3165294,6.13132258 33.0787353,3.09716129 L33.1747941,3.71632258 C33.2268824,4.05096774 33.5143824,4.29009677 33.8424706,4.29009677 C33.8769706,4.29009677 33.9121471,4.2873871 33.9466471,4.28196774 C34.316,4.2243871 34.569,3.87822581 34.5115,3.50835484 L34.1347059,1.07777419 C34.1049412,0.886064516 33.9919706,0.721451613 33.8316471,0.617129032 C33.7951176,0.586645161 33.7653529,0.550741935 33.7220588,0.527709677 C33.6172059,0.47216129 33.5049118,0.457258065 33.3939706,0.459290323 C33.2864118,0.45116129 33.1781765,0.461322581 33.0767059,0.504677419 L30.7469412,1.50996774 C30.4032941,1.65832258 30.2456765,2.05664516 30.3938235,2.40009677 C30.5419706,2.74354839 30.9410882,2.9013871 31.2820294,2.75370968 L31.8489118,2.50916129 C30.0867059,5.51690323 26.0806471,11.8473871 21.39,15.9478065 C15.0643235,21.4775806 5.51188235,26.2425484 5.4165,26.2906452 C5.08164706,26.4566129 4.94432353,26.8630645 5.11005882,27.1983871 C5.22844118,27.4375161 5.46791176,27.5757097 5.71685294,27.5757097 Z"/>
  </g>
</svg>
