<svg xmlns="http://www.w3.org/2000/svg" width="58" height="58" viewBox="0 0 58 58">
  <g fill="none" fill-rule="evenodd" transform="translate(3 3)">
    <path fill="#F1F1F1" fill-rule="nonzero" d="M19.9156986,1.9194 C22.9951196,1.99768571 26.0904038,2.81132 28.9436302,4.43725714 C38.0741512,9.64025143 41.2167354,21.1932629 35.9453038,30.2051429 C30.6738144,39.2169714 18.9688881,42.3009714 9.838367,37.098 C0.707961737,31.8949714 -2.41655908,20.3598229 2.85487226,11.3479714 C6.47890911,5.15232571 13.1409144,1.74717143 19.9156986,1.9194 Z"/>
    <path fill="#FEDBDA" d="M7.84858279,28.2051429 C6.17061963,28.3045143 4.05503016,28.6659429 2.72848805,29.1872571 C4.08374595,31.9024571 6.15301963,34.3008 8.86174068,36.0801143 C9.57060384,35.7249143 10.4667565,35.1996 11.322267,34.4908571 C14.4911354,31.7004 13.1959144,28.2051429 7.84858279,28.2051429 Z"/>
    <path fill="#FEDBDA" d="M29.3680119,21.4169192 C27.6900488,21.5162906 26.6122013,22.6208029 25.7520919,24.1198637 C26.6122013,27.5627839 24.6273922,28.5865143 27.3361133,30.3658286 C28.0449764,30.0106286 28.941129,29.4853143 29.7966396,28.7765714 C32.965508,25.9861143 34.7153435,21.4169192 29.3680119,21.4169192 Z" transform="matrix(-1 0 0 1 58.547 0)"/>
    <polygon fill="#FEBBBA" points="26.339 47.634 27.497 51.634 11.286 51.634 12.444 47.634"/>
    <path fill="#FEBBBA" d="M32.2183302,0.365828571 C39.1207723,4.60038286 43.7067881,12.17416 43.7067881,20.7765429 C43.7067881,33.6340571 33.4271723,44.1598286 20.5488933,44.7586857 L20.5488933,47.0622857 L18.2331038,47.0622857 L18.2331038,44.7586857 C15.2019091,44.6142286 12.3186354,43.8991429 9.675567,42.7586857 C9.07461963,42.5528571 8.73952489,41.7976571 8.99368279,41.2221714 C9.24784068,40.6466286 10.0364828,40.3749714 10.5982933,40.6694286 C13.2952038,41.8331429 16.2587196,42.4908571 19.3909986,42.4908571 C31.5550881,42.4908571 41.3909986,32.7825714 41.3909986,20.7765429 C41.3909986,12.9759429 37.2508302,6.14330286 31.0061881,2.31225714 C30.5514828,2.05190286 30.3231459,1.46069714 30.4868723,0.967662857 C30.7545775,0.197131429 31.5306565,0.0470457143 32.2183302,0.365828571 L32.2183302,0.365828571 Z"/>
    <path fill="#FEDBDA" d="M19.8798038,1.9194 C17.0276775,1.84564 14.1904302,2.44142857 11.6298038,3.65154286 C10.8686038,5.85329143 10.7319144,8.22558857 10.7070775,9.34797143 C10.6636565,11.3066743 11.5849933,12.5453657 12.4439196,13.9194 C13.6736038,15.8858971 16.1971196,17.0122171 16.4965512,18.4908286 C17.0754986,21.3479714 17.3361986,25.3542286 20.5491828,25.3479429 C21.9348354,25.3479429 22.7723986,24.3684 23.4439196,23.0622571 C25.1064249,19.8286343 24.0241407,17.3974 24.6018144,14.4908286 C25.1714986,11.62492 28.0754986,10.8173429 28.0754986,8.20511429 C28.0754986,6.67967429 27.5347617,4.93466857 26.772867,3.49082857 C24.5485512,2.49774857 22.2066512,1.97957143 19.8798038,1.9194 Z"/>
  </g>
</svg>
