<svg xmlns="http://www.w3.org/2000/svg" width="58" height="58" viewBox="0 0 58 58">
  <g fill="none" fill-rule="evenodd" transform="translate(2 10)">
    <path fill="#FEBBBA" d="M41.1578947,6.58881356 C41.1578947,10.1459018 38.4480393,13.0294915 35.1052632,13.0294915 C31.762487,13.0294915 29.0526316,10.1459018 29.0526316,6.58881356 C29.0526316,3.03172534 31.762487,0.148135593 35.1052632,0.148135593 C38.4480393,0.148135593 41.1578947,3.03172534 41.1578947,6.58881356 Z"/>
    <path fill="#F1F1F1" d="M19.5984211,27.4437288 C20.7214026,28.4892374 22.4041012,28.4670287 23.5023684,27.3922034 L27.3578947,23.5664407 L28.7707787,38 L41.4423684,38 C41.4423684,38 44.0889586,36.1447993 44.275,34.399661 L45.9152632,20.8033898 C46.0808911,19.2584024 45.6190406,17.7116299 44.6457557,16.5517128 C43.6724708,15.3917958 42.2802668,14.7289897 40.8189474,14.7298305 L38.9365789,14.7298305 C38.861513,14.7240663 38.7880448,14.7548639 38.7368421,14.8135593 L35.5955263,18.9871186 C35.4812197,19.1492987 35.3018268,19.2447458 35.1113158,19.2447458 C34.9208048,19.2447458 34.7414119,19.1492987 34.6271053,18.9871186 L31.4736842,14.8135593 C31.4267177,14.751107 31.3551548,14.7154112 31.28,14.7169492 L28.6228947,14.8135593 C27.893213,14.8476039 27.2020746,15.171661 26.6860526,15.7216949 C26.4802632,15.940678 23.6234211,18.8132203 21.4686842,20.9386441 L18.3818421,18.6522034 C18.1023342,18.4579782 17.74135,18.4579782 17.4618421,18.6522034 L15.3918421,19.9661017 L14.1813158,20.7647458 C14.0352367,20.8632844 13.9392119,21.0271812 13.9203705,21.2101317 C13.9015291,21.3930822 13.9619171,21.5752191 14.0844737,21.7050847 L19.5984211,27.4437288 Z"/>
    <path fill="#FEDBDA" d="M19.7497368,14.8135593 L20.6878947,14.1694915 C21.1568122,14.6908275 21.8936575,14.818306 22.4936276,14.4818939 C23.0935978,14.1454818 23.4113699,13.4266637 23.2723684,12.720339 L22.5642105,9.27457627 L22.5642105,9.22949153 C22.4085794,8.55577547 21.8663312,8.06284357 21.2166676,8.00450476 C20.567004,7.94616596 19.9547943,8.33542929 19.6952632,8.97186441 L8.32236842,7.44542373 L8.32236842,7.44542373 C8.11920964,6.59297937 7.31294901,6.06971685 6.50772405,6.26772094 C5.70249909,6.46572503 5.19372559,7.31235325 5.36263158,8.17322034 L8.01973684,21.3186441 L8.01973684,21.3637288 C8.21528927,22.2369939 9.03908531,22.7762252 9.85973683,22.5681355 C10.6803883,22.3600459 11.1871313,21.4834346 10.9915789,20.6101695 L10.9915789,20.5264407 L14.4597368,18.2657627 L19.7497368,14.8135593 Z"/>
    <path fill="#FEBBBA" d="M1.16815789 16.8294915C1.23053163 16.8364337 1.29341574 16.8364337 1.35578947 16.8294915L4.27921053 16.1854237C4.76202209 16.0730393 5.06807676 15.5657911 4.96315789 15.0518644 4.8575446 14.5380988 4.38085768 14.2124224 3.89789474 14.3240678L.974473684 14.9681356C.522356275 15.0663967.214361235 15.5140584.262912705 16.0023684.311464175 16.4906785.700674456 16.8598452 1.16210526 16.8552542L1.16815789 16.8294915zM3.81315789 13.4223729L3.95842105 13.4223729C4.36866194 13.3631218 4.68525382 13.0087408 4.72011567 12.5697606 4.75497753 12.1307803 4.49876305 11.7248897 4.10368421 11.5932203L1.07736842 11.0522034.932105263 11.0522034C.521864374 11.1114544.2052725 11.4658355.170410643 11.9048157.135548786 12.3437959.391763266 12.7496866.786842105 12.8813559L3.81315789 13.4223729zM2.47552632 20.5071186C2.65031593 20.5062228 2.82092994 20.4501881 2.96578947 20.3461017L5.51394737 18.5298305C5.7766786 18.3422964 5.92543183 18.0198559 5.90417316 17.6839694 5.88291448 17.3480828 5.69487359 17.0497794 5.41088368 16.901427 5.12689377 16.7530746 4.79009966 16.7772116 4.52736842 16.9647458L1.97921053 18.7810169C1.65117953 19.0104109 1.50466559 19.4425649 1.61951108 19.8419779 1.73435656 20.241391 2.08303145 20.5123182 2.47552632 20.5071186L2.47552632 20.5071186z"/>
  </g>
</svg>
