<svg xmlns="http://www.w3.org/2000/svg" width="60" height="58" viewBox="0 0 60 58">
  <g fill="none" fill-rule="evenodd" transform="translate(3 12)">
    <path fill="#F1F1F1" d="M31.5924528,0.333333333 C29.932796,0.333333333 28.5836478,1.828 28.5836478,3.66666667 L28.5836478,4.72133333 L5.23231195,12.8746667 C5.06321711,11.4453333 3.96801208,11.7692308 2.6327044,11.7692308 C1.18005333,11.7692308 0,11.6406667 0,13.25 L0,20.75 C0,22.3593333 1.18005333,22.2307692 2.6327044,22.2307692 C3.96801208,22.2307692 5.06321711,22.5546667 5.23231195,21.1253333 L6.83540327,21.6846667 C6.59830943,21.9766667 6.40755119,22.32 6.29261484,22.7106667 C5.85754164,24.198 6.59590239,25.7993333 7.93782943,26.2813333 L16.524959,29.362 C16.7789021,29.4533333 17.0418717,29.5 17.3078501,29.5 C18.4217097,29.5 19.4019784,28.7133333 19.7449821,27.5393333 C19.8719537,27.1066667 19.888803,26.656 19.8250164,26.2186667 L28.5836478,29.2786667 L28.5836478,30.3333333 C28.5836478,32.172 29.932796,33.6666667 31.5924528,33.6666667 C33.2521097,33.6666667 34.6012579,32.172 34.6012579,30.3333333 L34.6012579,3.66666667 C34.6012579,1.828 33.2521097,0.333333333 31.5924528,0.333333333 Z M18.3139945,27.026 C18.1418908,27.6146667 17.5214752,27.9686667 16.9877132,27.7786667 L8.40118541,24.6953333 C7.84876881,24.4973333 7.54307421,23.8386667 7.72420428,23.2266667 C7.86260931,22.75 8.27662088,22.4193333 8.73034868,22.4193333 C8.83625862,22.4193333 8.94397384,22.4373333 9.04988377,22.474 L17.6370133,25.5573333 C17.9023899,25.6533333 18.1184221,25.8593333 18.2478008,26.138 C18.3771794,26.4166667 18.4006481,26.732 18.3139945,27.026 Z"/>
    <path fill="#FBCFCE" d="M33.0968553,30.3333333 C33.0968553,31.2526667 32.4222813,32 31.5924528,32 C30.7626244,32 30.0880503,31.2526667 30.0880503,30.3333333 L30.0880503,3.66666667 C30.0880503,2.74733333 30.7626244,2 31.5924528,2 C32.4222813,2 33.0968553,2.74733333 33.0968553,3.66666667 L33.0968553,30.3333333 Z"/>
    <path fill="#FEBBBA" d="M5.64150943,21.9038462 C5.64150943,22.8061538 5.64150943,23.5384615 2.82075472,23.5384615 C0,23.5384615 0,22.8061538 0,21.9038462 L0,12.0961538 C0,11.1938462 0,10.4615385 2.82075472,10.4615385 C5.64150943,10.4615385 5.64150943,11.1938462 5.64150943,12.0961538 L5.64150943,21.9038462 Z"/>
    <path fill="#FEBBBA" fill-rule="nonzero" d="M36.0188679,17 C36.0188679,16.4613007 36.4126717,16.0285714 36.8951675,16.0285714 L44.6897382,16.0285714 C45.1704891,16.0285714 45.5660377,16.4677546 45.5660377,17 C45.5660377,17.5386993 45.172234,17.9714286 44.6897382,17.9714286 L36.8951675,17.9714286 C36.4144166,17.9714286 36.0188679,17.5322454 36.0188679,17 Z"/>
    <g fill="#FEBBBA" fill-rule="nonzero" transform="translate(35.585)">
      <path d="M0.433962264,11.3177743 C0.433962264,10.779075 0.827766011,10.3463457 1.31026184,10.3463457 L9.1048325,10.3463457 C9.58558343,10.3463457 9.98113208,10.7855289 9.98113208,11.3177743 C9.98113208,11.8564735 9.58732833,12.2892028 9.1048325,12.2892028 L1.31026184,12.2892028 C0.829510914,12.2892028 0.433962264,11.8500196 0.433962264,11.3177743 Z" transform="rotate(-18 5.208 11.318)"/>
      <path d="M-0.437244328,4.51777427 C-0.437244328,3.97907501 -0.0434405814,3.5463457 0.439055251,3.5463457 L8.2336259,3.5463457 C8.71437683,3.5463457 9.10992548,3.98552891 9.10992548,4.51777427 C9.10992548,5.05647353 8.71612174,5.48920284 8.2336259,5.48920284 L0.439055251,5.48920284 C-0.0416956784,5.48920284 -0.437244328,5.05001963 -0.437244328,4.51777427 Z" transform="rotate(-45 4.336 4.518)"/>
    </g>
    <g fill="#FEBBBA" fill-rule="nonzero" transform="matrix(1 0 0 -1 35.585 34)">
      <path d="M0.433962264,11.3177743 C0.433962264,10.779075 0.827766011,10.3463457 1.31026184,10.3463457 L9.1048325,10.3463457 C9.58558343,10.3463457 9.98113208,10.7855289 9.98113208,11.3177743 C9.98113208,11.8564735 9.58732833,12.2892028 9.1048325,12.2892028 L1.31026184,12.2892028 C0.829510914,12.2892028 0.433962264,11.8500196 0.433962264,11.3177743 Z" transform="rotate(-18 5.208 11.318)"/>
      <path d="M-0.437244328,4.51777427 C-0.437244328,3.97907501 -0.0434405814,3.5463457 0.439055251,3.5463457 L8.2336259,3.5463457 C8.71437683,3.5463457 9.10992548,3.98552891 9.10992548,4.51777427 C9.10992548,5.05647353 8.71612174,5.48920284 8.2336259,5.48920284 L0.439055251,5.48920284 C-0.0416956784,5.48920284 -0.437244328,5.05001963 -0.437244328,4.51777427 Z" transform="rotate(-45 4.336 4.518)"/>
    </g>
  </g>
</svg>
