<svg xmlns="http://www.w3.org/2000/svg" width="58" height="58" viewBox="0 0 58 58">
  <g fill="none" fill-rule="evenodd" transform="translate(9 4)">
    <polygon fill="#FFEBEB" points="3.333 8.974 32 8.974 32 42.949 3.333 42.949"/>
    <path fill="#F1F1F1" d="M29.4655814,9.46072446 C30.2274419,9.90923891 31.1073488,10.1599512 32.0651163,10.1599512 L32.0651163,31.2910053 C32.0651163,31.4562475 32.0492093,31.6149776 32.0232558,31.7712658 L32.0232558,44.2910053 C32.0232558,47.0887261 29.6882791,49.3589744 26.8099535,49.3589744 L8.62325581,49.3589744 C5.74576744,49.3589744 3.4107907,47.0887261 3.4107907,44.2910053 L3.4107907,31.6914937 C3.4107907,31.6149776 3.41413953,31.5392755 3.41748837,31.4660155 C3.41413953,31.4090354 3.4107907,31.3512414 3.4107907,31.2910053 L3.4107907,10.1599512 C4.4012093,10.1599512 5.31711628,9.88644689 6.09572093,9.41269841 L6.09572093,26.1050061 C6.09572093,26.1115181 6.09572093,41.1872202 6.09572093,41.1872202 C6.09572093,41.7277167 6.54697674,42.1664632 7.10288372,42.1664632 L28.4517209,42.1664632 C29.0076279,42.1664632 29.4588837,41.7277167 29.4588837,41.1872202 L29.4588837,26.2222222 C29.4622326,26.1847782 29.4655814,9.46072446 29.4655814,9.46072446 Z"/>
    <path fill="#FEBBBA" d="M20,45.5131474 C20,44.4507643 19.1052184,43.5897436 18.00034,43.5897436 C16.8954615,43.5897436 16,44.4507643 16,45.5131474 C16,46.5755305 16.8954615,47.4358974 18.00034,47.4358974 C19.1052184,47.4358974 20,46.5755305 20,45.5131474 Z"/>
    <path fill="#F1F1F1" d="M32.0492093,6.46867662 L3.43339535,6.46867662 L3.43339535,5.67014182 C3.43339535,2.85614101 5.7784186,0.576938727 8.67265116,0.576938727 L26.8066047,0.576938727 C29.7008372,0.576938727 32.0458605,2.85614101 32.0458605,5.67014182 L32.0458605,6.46867662 L32.0492093,6.46867662 Z"/>
    <path fill="#FEBBBA" d="M35.4826047,12.2987383 L35.4826047,12.4322344 C35.4826047,14.3369963 33.8935814,15.8819699 31.9345116,15.8819699 C29.9754419,15.8819699 28.3864186,14.3369963 28.3864186,12.4322344 C28.3864186,14.3369963 26.7965581,15.8819699 24.8383256,15.8819699 C22.8792558,15.8819699 21.2893953,14.3369963 21.2893953,12.4322344 C21.2893953,14.3369963 19.7003721,15.8819699 17.7413023,15.8819699 C15.7822326,15.8819699 14.1932093,14.3369963 14.1932093,12.4322344 C14.1932093,14.3369963 12.6033488,15.8819699 10.6442791,15.8819699 C8.68604651,15.8819699 7.09618605,14.3369963 7.09618605,12.4322344 C7.09618605,14.3369963 5.50716279,15.8819699 3.54809302,15.8819699 C1.58902326,15.8819699 0,14.3369963 0,12.4322344 L0,12.2987383 L3.19813953,6.37199837 L32.2978605,6.37199837 L35.4826047,12.2987383 Z"/>
    <path fill="#F69A98" d="M20.5476279,4.21001221 C20.5476279,4.03500204 20.4002791,3.8958079 20.2236279,3.8958079 L15.2589767,3.8958079 C15.0789767,3.8958079 14.9349767,4.03825804 14.9349767,4.21001221 C14.9349767,4.38502239 15.0823256,4.52503053 15.2589767,4.52503053 L20.2236279,4.52503053 C20.4036279,4.52503053 20.5476279,4.38502239 20.5476279,4.21001221 Z"/>
  </g>
</svg>
