<svg xmlns="http://www.w3.org/2000/svg" xmlns:xlink="http://www.w3.org/1999/xlink" width="60" height="58" viewBox="0 0 60 58">
  <defs>
    <path id="money-price-a" d="M8.05788809,3.46153846 L40.7848327,3.46153846 C40.7848327,6.64779663 43.0396073,9.23076923 45.8210128,9.23076923 L45.8210128,20.7692308 C43.0396073,20.7692308 40.7848327,23.3522034 40.7848327,26.5384615 L8.05788809,26.5384615 C8.05788809,23.3522034 5.80311348,20.7692308 3.02170803,20.7692308 L3.02170803,9.23076923 C5.80311348,9.23076923 8.05788809,6.64779663 8.05788809,3.46153846 Z"/>
    <mask id="money-price-b" width="42.799" height="23.077" x="0" y="0" fill="#fff">
      <use xlink:href="#money-price-a"/>
    </mask>
  </defs>
  <g fill="none" fill-rule="evenodd" transform="translate(2 14)">
    <rect width="48" height="30" fill="#F2F2F2"/>
    <use fill="#F1F1F1" stroke="#CFCFCF" stroke-width="2.001" mask="url(#money-price-b)" xlink:href="#money-price-a"/>
    <path fill="#FEDBDA" d="M24.8422752,23.8064349 L24.8422752,23.8064349 C21.2036541,23.8064349 17.9196833,21.6114393 16.5252624,18.2510001 C15.1354473,14.8859543 15.9046242,11.0130423 18.4827485,8.4391624 C21.0597213,5.86643407 24.9274834,5.09714914 28.2920565,6.49637247 C31.6520238,7.89098931 33.8421053,11.1742697 33.8421053,14.8145536 C33.8421053,17.2030221 32.8933003,19.4878444 31.2064079,21.1749738 C29.5195155,22.8621031 27.2304082,23.8110414 24.8422752,23.8064349 Z"/>
    <path fill="#F69A98" d="M26.1126431,9.67741935 L21.3479196,9.67741935 L20.7428676,10.9933194 L23.6894711,10.9933195 C24.4305448,10.9933195 24.4443939,11.6115286 24.7049897,12.2902912 L21.1076534,12.2902912 L20.7428676,13.62831 L24.7049898,13.62831 C24.4443939,14.3070726 23.8187702,14.9264183 23.0889566,14.9264183 L21.3479196,14.9264183 C22.8075469,17.1890479 24.1151794,19.284752 25.6437875,21.547119 L27.3379348,21.547119 L23.7681273,16.1894018 C25.2013144,16.1894018 25.7998313,15.0988748 26.1126431,13.62831 L28.003491,13.6190935 L28.4065158,12.3062065 L26.1126431,12.2902912 C26.0609111,11.8942588 25.8346583,11.3327008 25.6270227,10.9933195 L28.003491,10.9933194 L28.4065158,9.67741935 L26.1126431,9.67741935 Z"/>
  </g>
</svg>
