<svg xmlns="http://www.w3.org/2000/svg" width="60" height="58" viewBox="0 0 60 58">
  <g fill="none" fill-rule="evenodd" transform="translate(2 7)">
    <polygon fill="#F1F1F1" points="34.296 36.152 34.296 26.026 10.381 26.026 10.381 18.432 5.191 24.76 0 31.089 5.191 37.418 10.381 43.747 10.381 36.152"/>
    <polygon fill="#F1F1F1" points="47.855 17.88 47.855 7.754 23.94 7.754 23.94 .159 18.75 6.488 13.559 12.817 18.75 19.146 23.94 25.474 23.94 17.88" transform="matrix(-1 0 0 1 61.414 0)"/>
    <ellipse cx="24" cy="21.947" fill="#FEDBDA" rx="10" ry="10"/>
    <path fill="#F69A98" d="M28.3628889,19.4823626 C28.2709961,19.2606513 28.1149768,19.1252472 27.9457355,19.1252472 L25.0289671,19.1252472 L25.9597944,6.0313619 C25.9868994,5.65409097 25.8345161,5.30059328 25.5994955,5.19981543 C25.3644748,5.09852076 25.1178849,5.27837047 25.0160757,5.62359921 L19.5620098,24.2287409 C19.4909416,24.4690574 19.5038331,24.7476177 19.5953953,24.9698457 C19.687288,25.191557 19.8433073,25.3269611 20.0125487,25.3269611 L22.929317,25.3269611 L21.9984898,38.4208464 C21.9713847,38.7981173 22.1250902,39.151615 22.3587887,39.2523929 C22.4037434,39.2725485 22.4477065,39.2808174 22.4916695,39.2808174 C22.6814049,39.2808174 22.8595711,39.1092367 22.9422084,38.8286091 L28.3962744,20.2234674 C28.4673425,19.983151 28.4544511,19.7045906 28.3628889,19.4823626 Z"/>
  </g>
</svg>
