<svg xmlns="http://www.w3.org/2000/svg" xmlns:xlink="http://www.w3.org/1999/xlink" width="580" height="220" viewBox="0 0 580 220">
  <defs>
    <polygon id="shop+students_580x220-a" points="18.789 162.743 18.789 43.879 72.504 43.879 72.504 162.743"/>
    <mask id="shop+students_580x220-b" width="57.015" height="122.165" x="-1.65" y="-1.65">
      <rect width="57.015" height="122.165" x="17.139" y="42.229" fill="#fff"/>
      <use xlink:href="#shop+students_580x220-a"/>
    </mask>
  </defs>
  <g fill="none" fill-rule="evenodd" transform="translate(5 5)">
    <g transform="translate(436 69)">
      <path fill="#F1DDC9" d="M30.0068426,34.1619494 C26.5960181,32.8353429 27.9223614,28.8564794 27.9223614,28.8564794 L23.523631,28.8564794 C23.523631,28.8564794 24.8502929,32.8353429 21.4391497,34.1619494 C18.0283252,35.4882372 10.4485381,35.4942919 10.6381523,39.6630803 C10.8277665,43.830594 14.657973,65.415753 25.7231555,65.415753 C36.7886568,65.415753 40.6185446,43.830594 40.8084774,39.6630803 C40.9974542,35.4942919 33.4179858,35.4882372 30.0068426,34.1619494"/>
      <path fill="#FFEBEB" d="M30.0068426,34.1619494 C26.5960181,32.8353429 27.9223614,28.8564794 27.9223614,28.8564794 L23.523631,28.8564794 C23.523631,28.8564794 24.8502929,32.8353429 21.4391497,34.1619494 C18.0283252,35.4882372 10.4485381,35.4942919 10.6381523,39.6630803 C10.8277665,43.830594 14.657973,65.415753 25.7231555,65.415753 C36.7886568,65.415753 40.6185446,43.830594 40.8084774,39.6630803 C40.9974542,35.4942919 33.4179858,35.4882372 30.0068426,34.1619494"/>
      <path fill="#FEDBDA" d="M13.5868918 18.9408687C13.5868918 18.9408687 12.4950966 16.5910257 11.57252 18.0078147 10.6661961 19.4007037 12.4116026 20.7955047 14.339931 21.8442345 14.0062738 20.8560513 13.7723632 19.872648 13.6098368 18.9523407L13.5868918 18.9408687M39.6736604 18.0078147C39.0331151 17.0240928 38.3119438 17.855811 37.930166 18.4561777 37.7775186 19.4692169 37.5413773 20.5765812 37.1790389 21.6941428 38.9939175 20.6642143 40.5376 19.3347399 39.6736604 18.0078147"/>
      <path fill="#FFEBEB" d="M38.1717249,13.9894367 C38.1717249,13.9894367 37.2529725,4.72868452 25.7531114,4.72868452 C12.3070758,4.72868452 13.2713993,13.9894367 13.2713993,13.9894367 C13.2713993,13.9894367 13.1200267,16.183452 13.6098368,18.9523407 C13.7723632,19.872648 14.0062738,20.8560513 14.339931,21.8442345 C15.7249112,25.9464217 18.8317157,30.1215834 25.7473751,30.1215834 C32.7474846,30.1215834 35.8326189,25.8438112 37.1790389,21.6941428 C37.5413773,20.5765812 37.7775186,19.4692169 37.930166,18.4561777 C38.3119438,15.9259698 38.1717249,13.9894367 38.1717249,13.9894367"/>
      <path fill="#8A8A8A" d="M14.8131698,125.492257 C14.8131698,125.492257 9.50907155,128.69262 10.7554263,132.084819 C12.001781,135.477656 21.4346882,130.667393 19.1988343,123.666301 C19.1988343,123.666301 15.5891539,123.584404 14.8131698,125.492257"/>
      <path fill="#DADADA" d="M41.7307353 8.01126282C39.2138062 8.84999168 38.1969006 11.6733723 38.1969006 11.6733723 38.1969006 11.6733723 45.2435372 21.7413054 46.9217024 26.6073349 47.8101803 29.1840681 43.7183381 31.3439861 39.6704737 32.8063443 39.5997268 34.9528784 39.9292412 38.4977188 41.8747784 40.9326455 42.1102824 40.6127049 43.481878 39.3788302 49.9421448 34.7263068 59.2504484 28.0228492 41.7307353 8.01126282 41.7307353 8.01126282M7.80222524 80.8681852C11.3261809 78.3207693 10.6346468 76.7328567 10.6346468 76.7328567-.0500326497 66.534908 9.51799457 48.0567423 9.98517842 47.1724442 10.4912411 43.5326413 10.6493061 39.8549172 10.6827674 37.1296857-11.185962 62.6057564 7.80222524 80.8681852 7.80222524 80.8681852"/>
      <path fill="#F69A98" d="M26.2199765,37.7192178 C30.3596206,37.7192178 32.8408576,36.4152366 34.245596,35.2250191 C34.6891976,34.8493119 35.0266789,34.4853954 35.2736554,34.1769267 C33.6426547,34.6170044 32.5119806,34.8544106 32.5119806,34.8544106 C31.446317,35.5589811 29.5163952,36.350866 26.2199765,36.350866 C22.7218339,36.350866 20.6293856,35.4589199 19.5003049,34.7263068 C18.9346491,34.7686894 18.4104217,34.816808 17.9167875,34.8681132 C17.9652267,34.9241984 18.0168528,34.9815583 18.0713469,35.0398742 C19.1516697,36.1918517 21.4773912,37.7192178 26.2199765,37.7192178"/>
      <path fill="#FFEBEB" d="M13.3838931,102.507199 C13.3838931,102.507199 12.7006447,111.38842 15.3957155,126.202883 C15.3957155,126.202883 18.1436871,127.697745 19.1988343,124.870221 C19.1988343,124.870221 17.5461634,111.93302 19.1988343,103.000175 C19.1988343,103.000175 13.4600575,99.2080499 13.3838931,102.507199"/>
      <path fill="#8A8A8A" d="M36.642383,125.492257 C36.642383,125.492257 41.9467999,128.69262 40.7004451,132.084819 C39.4540904,135.477656 30.0211832,130.667393 32.2570372,123.666301 C32.2570372,123.666301 35.8667176,123.584404 36.642383,125.492257"/>
      <path fill="#FFEBEB" d="M38.0719783,102.507199 C38.0719783,102.507199 38.754908,111.38842 36.0601559,126.202883 C36.0601559,126.202883 33.3121843,127.697745 32.2570372,124.870221 C32.2570372,124.870221 33.909708,111.93302 32.2570372,103.000175 C32.2570372,103.000175 37.9958139,99.2080499 38.0719783,102.507199"/>
      <path fill="#FEBBBA" d="M39.4104313,102.765 C39.3986402,94.9191244 38.8795116,84.8292034 37.357818,72.1803945 C37.357818,72.1803945 33.891862,74.2440754 25.7760563,74.6408146 C17.5620974,74.2440754 14.0958227,72.1803945 14.0958227,72.1803945 C12.6044036,84.5796879 12.0766707,94.5176053 12.0451214,102.295923 C13.7070339,102.820447 16.4282365,103.322665 20.3986618,103.028855 C21.1379978,90.2200758 23.406357,84.2202327 25.7754189,84.2202327 C28.3975122,84.2202327 30.5176856,90.1697266 31.150264,102.866335 C33.1608116,103.169705 35.8848823,103.262437 39.4104313,102.765"/>
      <path fill="#DADADA" d="M39.6704737,32.8063443 C38.1003408,33.3735697 36.5369001,33.8362728 35.2736554,34.1769267 C35.0266789,34.4853954 34.6891976,34.8493119 34.245596,35.2250191 C32.8408576,36.4152366 30.3596206,37.7192178 26.2199765,37.7192178 C21.4773912,37.7192178 19.1516697,36.1918517 18.0713469,35.0398742 C18.0168528,34.9815583 17.9652267,34.9241984 17.9167875,34.8681132 C12.0428906,35.4789959 11.0948197,36.6472254 11.0948197,36.6472254 C10.9536448,36.8084704 10.8210742,36.9687594 10.6827674,37.1296857 C10.6493061,39.8549172 10.4912411,43.5326413 9.98517842,47.1724442 L10.0046179,47.1361162 C10.0046179,67.8325158 11.6257394,75.0432897 11.6257394,75.0432897 C27.6785717,78.8449749 40.8142136,75.0432897 40.8142136,75.0432897 C43.2329895,68.0485714 41.8872068,41.038124 41.8872068,41.038124 C41.8872068,41.038124 41.7712076,41.0738146 41.8747784,40.9326455 C39.9292412,38.4977188 39.5997268,34.9528784 39.6704737,32.8063443"/>
      <path fill="#FFEBEB" d="M10.6346468 77.7051067C10.6346468 77.7051067 17.3798128 78.3242747 16.2526442 79.9392739 16.2526442 79.9392739 15.8558884 80.6046484 14.5869075 79.9392739L13.507222 84.0312638C13.507222 84.0312638 10.1716058 83.7081364 7.80222524 79.8315648L10.6346468 77.7051067M39.1908613 9.92453338C39.1908613 9.92453338 33.110779 10.1740488 33.4339198 8.01126282 33.4339198 8.01126282 33.774588 7.26654041 35.2736554 8.01126282 35.2736554 8.01126282 34.1875963 4.77138577 32.4644974 4.12513115 32.4644974 4.12513115 31.0683634 3.0474028 33.8128295 2.40178551 36.5569769 1.75616823 40.2189207 4.23284025 41.6188789 9.40192117 41.6188789 9.40192117 41.1784641 11.6316271 39.1908613 9.92453338"/>
      <path fill="#8A8A8A" d="M13.3067727,35.6635035 C13.3067727,35.6635035 14.2758765,35.1303753 16.1736117,35.0851247 C16.1736117,35.0851247 31.4310204,68.6935513 40.8142136,77.7051067 C40.8142136,77.7051067 40.7597195,78.8147016 39.4104313,78.6716206 C39.4104313,78.6716206 31.3322298,74.0315252 13.3067727,35.6635035"/>
      <path fill="#8A8A88" d="M38.1494174,78.6716206 C38.1494174,78.6716206 38.433998,96.9136548 40.8900593,96.7543218 C43.3461207,96.5949888 46.6922533,96.0048194 44.4614982,84.0312638 C42.2307431,72.0577081 38.1025715,76.8593671 38.1494174,78.6716206"/>
      <path fill="#9B9B9B" d="M39.4104313,86.4674652 C39.4104313,86.4674652 42.707806,86.5930196 43.6648,85.7603454 C43.6648,85.7603454 44.7961115,94.5383186 42.260699,94.8423259 C39.7252865,95.1463332 39.4104313,86.4674652 39.4104313,86.4674652"/>
      <path fill="#8A8A8A" d="M19.0541539,9.29835472 C19.0541539,9.29835472 25.6011014,16.7573694 38.1972193,15.8797633 L37.712508,19.6693391 C37.712508,19.6693391 40.9222459,18.9517033 40.8113455,11.6386377 C40.7010825,4.32589072 27.9758995,-3.57160834 17.4451421,2.13219409 C17.4451421,2.13219409 14.7570822,2.42472947 13.2487731,5.78856758 C11.7407827,9.1524057 10.3609013,13.5512709 13.6104741,18.9574393 C13.6104741,18.9574393 18.6153325,13.831697 19.0541539,9.29835472"/>
      <path fill="#9B9B9B" d="M31.9674764 19.135179C32.0994666 19.165107 32.1786608 19.3222295 32.1852603 19.4569058 32.2017591 19.7935968 32.0664691 20.1452517 31.8024885 20.3098562 31.5583065 20.4632376 31.2382301 20.4033814 31.0534438 20.1714388 30.9742496 20.0704315 30.9346525 19.9469782 30.928053 19.8197838 30.901655 19.7412226 30.9049547 19.6551794 30.9577508 19.5728771 30.9643503 19.5616541 30.9709499 19.5579131 30.9775494 19.5504311 31.0105469 19.4756109 31.0600433 19.4120137 31.1293382 19.3596396 31.1920335 19.3184885 31.2580287 19.2960424 31.3273236 19.2810784 31.5088102 19.146402 31.7364934 19.0902868 31.9674764 19.135179M20.2258296 19.3882306C20.332395 19.489491 20.401349 19.6255596 20.3950805 19.7837789 20.3888119 20.112875 20.0941901 20.3850122 19.774494 20.3945053 19.4673351 20.4008341 19.1883846 20.1508476 19.1319677 19.8533954 19.0692822 19.5274636 19.2761443 19.226847 19.5864375 19.1414086 19.8371795 19.0717921 20.0941901 19.1762168 20.2258296 19.3882306"/>
      <path fill="#F69A98" d="M23.8439037 26.3495341C23.8439037 26.3495341 25.8238582 26.8495211 27.847153 26.3495341 27.847153 26.3495341 26.0848565 28.2417728 23.8439037 26.3495341M11.2547967 100.612092C11.2547967 100.612092 10.2770887 103.259251 15.6780654 103.826795 22.1673319 104.50874 21.0949761 101.488742 21.0949761 101.488742 21.0949761 101.488742 15.4444735 102.949826 11.2547967 100.612092M40.452194 100.612092C40.452194 100.612092 41.4299021 103.259251 36.0289253 103.826795 29.5396588 104.50874 30.6120146 101.488742 30.6120146 101.488742 30.6120146 101.488742 36.2625172 102.949826 40.452194 100.612092"/>
      <path fill="#9B9B9B" d="M22.8292288 19.6237699L22.9885685 19.6237699C22.9882498 17.9112589 21.6000828 16.5231499 19.8875002 16.5231499 18.1749177 16.5231499 16.7867507 17.9112589 16.7867507 19.6237699 16.7867507 21.3362809 18.1749177 22.7243899 19.8875002 22.7243899 21.6000828 22.7243899 22.9882498 21.3362809 22.9885685 19.6237699L22.6698892 19.6237699C22.6695705 20.3923923 22.3585395 21.0867654 21.8550262 21.590895 21.3508756 22.0947059 20.6564734 22.4057239 19.8875002 22.4057239 19.1188458 22.4057239 18.4241249 22.0947059 17.9202929 21.590895 17.416461 21.0867654 17.10543 20.3923923 17.10543 19.6237699 17.10543 18.8548289 17.416461 18.1604557 17.9202929 17.6566448 18.4241249 17.1528339 19.1188458 16.8418159 19.8875002 16.8418159 20.6564734 16.8418159 21.3508756 17.1528339 21.8550262 17.6566448 22.3585395 18.1604557 22.6695705 18.8548289 22.6698892 19.6237699L22.8292288 19.6237699M34.4999021 19.6237699L34.6592417 19.6237699C34.658923 17.9112589 33.270756 16.5231499 31.5581735 16.5231499 29.8455909 16.5231499 28.4574239 17.9112589 28.4574239 19.6237699 28.4574239 21.3362809 29.8455909 22.7243899 31.5581735 22.7243899 33.270756 22.7243899 34.658923 21.3362809 34.6592417 19.6237699L34.3405624 19.6237699C34.3405624 20.3923923 34.0292127 21.0867654 33.5256994 21.590895 33.0215488 22.0947059 32.3271466 22.4057239 31.5581735 22.4057239 30.789519 22.4057239 30.0951168 22.0947059 29.5909662 21.590895 29.0871342 21.0867654 28.7761032 20.3923923 28.7761032 19.6237699 28.7761032 18.8548289 29.0871342 18.1604557 29.5909662 17.6566448 30.0947981 17.1528339 30.789519 16.8418159 31.5581735 16.8418159 32.3271466 16.8418159 33.0215488 17.1528339 33.5256994 17.6566448 34.0292127 18.1604557 34.3405624 18.8548289 34.3405624 19.6237699L34.4999021 19.6237699"/>
      <path fill="#9B9B9B" d="M22.9299315,19.7470936 L22.9385358,19.740083 C23.0433813,19.6588232 24.0309685,18.9319461 25.5873981,18.9325834 C26.4185137,18.9329021 27.4147052,19.1378043 28.5393245,19.7630269 L28.6942026,19.4845129 C27.5256056,18.8341156 26.4714145,18.6135987 25.5873981,18.6139174 C23.8180907,18.6151921 22.7441415,19.4880182 22.7285262,19.5001275 L22.9299315,19.7470936"/>
      <polyline fill="#9B9B9B" points="16.977 19.467 13.642 18.801 13.579 19.114 16.915 19.78"/>
      <polyline fill="#9B9B9B" points="34.53 19.78 37.831 19.138 37.77 18.825 34.469 19.467"/>
      <g transform="translate(60.916)">
        <path fill="#8A8A8A" d="M6.95519084,41.3972131 C6.95519084,41.3972131 6.19253817,41.4882201 5.17640267,41.92474 C5.20316794,41.4279672 5.30896947,40.8947916 5.57882634,40.4482295 C5.89623092,39.9219578 6.39217557,39.5889977 7.09468511,39.4295785 C8.34478053,39.1465152 9.27715649,39.2638829 9.86567748,39.7794848 C10.1789885,40.0540749 10.3732729,40.4193583 10.4941889,40.7877799 C9.4245229,40.833911 8.25,41.0284778 6.95519084,41.3972131 Z M23.4133111,63.3120187 C21.3605725,55.4213958 21.2572901,41.5607119 11.8047424,40.8091194 C11.6501336,40.1406885 11.3346183,39.3985105 10.7039027,38.8424262 C9.79482824,38.0415644 8.48647901,37.8269133 6.81569656,38.2056909 C5.77531489,38.4413677 4.9956584,38.9783091 4.49908397,39.8011382 C3.95307252,40.7061874 3.87372137,41.7785012 3.92063931,42.5959953 C1.61819656,44.1010632 -0.933635496,47.4447869 0.453435115,54.787171 C2.7898855,67.1540843 2.48098282,75.7774707 10.2057538,74.5027447 C17.9305248,73.2283326 25.7705439,72.3709836 23.4133111,63.3120187 L23.4133111,63.3120187 Z"/>
        <path fill="#FFEBEB" d="M4.23993321,69.5023794 C4.23993321,69.5023794 3.6561355,75.5113536 5.99006679,75.7049789 C5.99006679,75.7049789 7.64290076,75.1394801 6.47625,71.9815363 C6.47625,71.9815363 8.0371374,73.3447588 7.15955153,70.6481265 C7.15955153,70.6481265 6.47656489,68.4360281 4.23993321,69.5023794"/>
        <path fill="#8A8A8A" d="M11.6548569,4.65673536 C11.6548569,4.65673536 6.86954198,11.2974239 10.6771374,23.8501171 C14.4847328,36.4028103 21.0973282,32.807719 22.8291985,32.800815 C24.5610687,32.793911 38.8587595,38.3001499 38.3225095,11.4615504 C38.3225095,11.4615504 30.0268511,-3.55335363 11.6548569,4.65673536"/>
        <path fill="#8A8A88" d="M11.8066317,132.713349 C11.8066317,132.713349 12.6407634,134.801489 15.5270038,133.473415 C18.4129294,132.145653 23.0672519,127.746562 21.6524714,124.4474 L11.8066317,132.713349"/>
        <path fill="#9B9B9B" d="M15.7266412,125.840436 C15.7266412,125.840436 11.6066794,128.808834 11.4800954,131.146145 C11.3535115,133.483457 13.087271,133.73608 14.5968321,133.293911 C16.1070229,132.851742 22.9176813,128.452651 21.4455916,123.230103 L15.7266412,125.840436"/>
        <path fill="#FFEBEB" d="M21.4062309,122.23844 L16.8788073,121.784033 C16.8788073,121.784033 17.1212691,123.819138 15.7266412,125.840436 C15.1818893,126.630628 14.7901718,127.312239 14.6531966,127.841021 C15.1664599,127.927948 16.1769275,128.187475 16.7796183,128.916787 C19.1056775,128.304843 21.9172901,124.66111 21.4062309,122.23844"/>
        <path fill="#8A8A88" d="M36.6057538,132.713349 C36.6057538,132.713349 35.7716221,134.801489 32.8856966,133.473415 C29.9994561,132.145653 25.3448187,127.746562 26.7592844,124.4474 L36.6057538,132.713349"/>
        <path fill="#9B9B9B" d="M32.6851145,125.840436 C32.6851145,125.840436 36.8053912,128.808834 36.9319752,131.146145 C37.0585592,133.483457 35.3251145,133.73608 33.8149237,133.293911 C32.3050477,132.851742 25.4943893,128.452651 26.9667939,123.230103 L32.6851145,125.840436"/>
        <path fill="#FFEBEB" d="M27.0055248 122.23844L31.3849523 121.986131C31.3849523 121.986131 31.2908015 123.819138 32.6851145 125.840436 33.2301813 126.630628 33.6218989 127.312239 33.758874 127.841021 33.2452958 127.927948 32.2351431 128.187475 31.6321374 128.916787 29.3060782 128.304843 26.4950954 124.66111 27.0055248 122.23844M27.6466317 33.6421593C24.2764122 32.3357377 25.5869656 28.4174145 25.5869656 28.4174145L21.2406011 28.4174145C21.2406011 28.4174145 22.5511546 32.3357377 19.1809351 33.6421593 15.8107156 34.948267 8.32116412 34.9542295 8.50820611 39.0595878 8.69556298 43.1636909 12.4801718 64.4204215 23.4133111 64.4204215 34.3477099 64.4204215 38.1320038 43.1636909 38.3193607 39.0595878 38.5064027 34.9542295 31.0168511 34.948267 27.6466317 33.6421593"/>
        <path fill="#FEDBDA" d="M11.4215267 18.6526745C11.4215267 18.6526745 10.3430439 16.3385855 9.43176527 17.7338173 8.53560115 19.1055129 10.2608588 20.4790913 12.1662309 21.5118642 11.8365458 20.5387166 11.605105 19.5702763 11.4445134 18.6639719L11.4215267 18.6526745M37.1983683 17.7338173C36.5654485 16.7650632 35.8525477 17.5841265 35.4756298 18.1753583 35.3244847 19.1729836 35.0911546 20.2634988 34.7334447 21.3640562 36.5267176 20.3497986 38.0520229 19.0405527 37.1983683 17.7338173"/>
        <path fill="#FFEBEB" d="M35.714313,13.7765808 C35.714313,13.7765808 34.8064981,4.65673536 23.4429103,4.65673536 C10.1575763,4.65673536 11.110105,13.7765808 11.110105,13.7765808 C11.110105,13.7765808 10.9608492,15.9372131 11.4445134,18.6639719 C11.605105,19.5702763 11.8365458,20.5387166 12.1662309,21.5118642 C13.5344084,25.5516347 16.6039122,29.6632693 23.4375573,29.6632693 C30.3543321,29.6632693 33.4030534,25.4505855 34.7334447,21.3640562 C35.0911546,20.2634988 35.3244847,19.1729836 35.4756298,18.1753583 C35.8525477,15.6836487 35.714313,13.7765808 35.714313,13.7765808"/>
        <path fill="#8A8A8A" d="M16.8240172,9.15687588 C16.8240172,9.15687588 23.2930248,16.5023981 35.7395038,15.6381452 L35.260563,19.3700609 C35.260563,19.3700609 38.4320897,18.6633443 38.3225095,11.4615504 C38.2129294,4.26007026 25.6398664,-3.51726464 15.2341603,2.09975176 C15.2341603,2.09975176 12.5781011,2.38783607 11.088063,5.7004918 C9.59770992,9.01314754 8.23425573,13.345082 11.445458,18.668993 C11.445458,18.668993 16.3904198,13.6212412 16.8240172,9.15687588"/>
        <path fill="#9B9B9B" d="M29.6975982 18.8000001C29.8280171 18.8294039 29.9062685 18.9837742 29.9127895 19.1160915 29.9290918 19.4468848 29.7954124 19.79238 29.5345745 19.9541012 29.2932994 20.104796 28.9770335 20.0459883 28.7944469 19.8181084 28.7161956 19.7188704 28.6770699 19.5975795 28.6705489 19.4726132 28.6444651 19.3954281 28.6477256 19.310892 28.6998932 19.2300314 28.7064141 19.219005 28.7129351 19.2153295 28.719456 19.2079785 28.7520608 19.1344689 28.8009679 19.0719857 28.8694378 19.020529 28.9313868 18.9800987 28.9965963 18.9580458 29.0650663 18.9433439 29.2443923 18.8110265 29.469365 18.7558943 29.6975982 18.8000001M18.095733 19.0486192C18.2010297 19.1481059 18.2691629 19.281791 18.2629689 19.4372389 18.256775 19.7605704 17.9656606 20.0279408 17.6497704 20.0372676 17.3462681 20.0434856 17.0706385 19.7978779 17.0148932 19.505636 16.9529539 19.1854134 17.1573534 18.8900624 17.4639527 18.8061206 17.7117097 18.7377235 17.9656606 18.8403191 18.095733 19.0486192"/>
        <path fill="#F69A98" d="M21.5570611,25.9486136 C21.5570611,25.9486136 23.5134447,26.440993 25.5123378,25.9486136 C25.5123378,25.9486136 23.771021,27.8120609 21.5570611,25.9486136"/>
        <path fill="#CFCFCF" d="M13.032166,68.1915644 C13.032166,68.1915644 20.6741221,69.8626417 34.4544561,68.1915644 C34.4544561,68.1915644 31.7313263,111.042066 31.3411832,123.223513 C31.3411832,123.223513 28.6186832,124.582342 26.9790744,123.223513 C26.9790744,123.223513 26.6994561,79.8665105 23.2618511,79.8665105 C19.8245611,79.8665105 21.4465363,123.253639 21.4465363,123.253639 C21.4465363,123.253639 19.6620802,124.966454 17.0667939,123.253639 C17.0667939,123.253639 14.4960687,104.743438 13.032166,68.1915644"/>
        <path fill="#FEBBBA" d="M38.159084,40.710267 C38.2485115,40.0217518 38.3014122,39.4587635 38.3193607,39.0595878 C38.3524237,38.3400047 38.145229,37.748459 37.7689408,37.2447822 C37.7689408,37.2447822 37.7012405,34.1678033 27.3226145,33.5009415 C23.2687786,35.8774801 20.2726431,34.4085012 19.1566889,33.6509461 C17.3829389,34.3313021 14.4900859,34.6598689 12.165916,35.4089508 C12.1564695,35.4108337 9.49222328,35.8658689 9.18835878,39.7590867 C8.6798187,46.2739344 9.53126908,51.4255597 10.43625,57.8952178 C10.7542844,60.172904 8.78687977,64.8434473 10.0410687,66.8314801 C10.4227099,67.4362061 10.9243225,68.0553677 11.640687,68.2665667 C11.992729,68.3704403 12.3126527,68.2505621 12.6451718,68.3026557 C13.7255439,68.4718033 14.3883779,69.4201593 15.4593034,69.6749789 C16.6294179,69.9539625 17.8162214,69.625082 18.9718511,69.3831288 C21.3602576,68.8825902 23.5972042,68.8568571 25.9128721,69.6520703 C27.3780344,70.1557471 28.9870992,70.90326 30.5590076,70.4137049 C31.693855,70.0600328 33.1668893,69.6975738 34.0432156,68.846815 C34.3017366,68.5960749 34.339208,68.2493068 34.6329962,68.0644684 C34.8184637,67.9474145 35.1084733,68.0029602 35.31,67.9223091 C36.2014408,67.5661265 36.7798855,67.195822 37.3070038,66.3441218 C38.4714504,64.4624731 38.706355,61.9604075 38.887729,59.8167213 C39.3188073,54.7231522 38.9692844,49.5530117 38.5243511,44.4735644 C38.4226431,43.3177752 38.010458,41.8525621 38.159084,40.710267"/>
        <path fill="#FEBBBA" d="M11.0883779,35.810637 C11.0883779,35.810637 4.84167939,34.5660375 2.60725191,69.8350258 C2.60725191,69.8350258 3.45429389,71.5123794 7.40894084,69.8350258 C7.40894084,69.8350258 7.26818702,60.4023044 11.3031298,43.7022014 L11.0883779,35.810637"/>
        <path fill="#FFEBEB" d="M42.1760782,69.5023794 C42.1760782,69.5023794 42.759876,75.5113536 40.4259447,75.7049789 C40.4259447,75.7049789 38.7731107,75.1394801 39.9397615,71.9815363 C39.9397615,71.9815363 38.378874,73.3447588 39.2564599,70.6481265 C39.2564599,70.6481265 39.9394466,68.4360281 42.1760782,69.5023794"/>
        <path fill="#FEBBBA" d="M37.9112691,37.7242951 C37.9112691,37.7242951 43.8087595,45.2753677 43.8087595,69.8350258 C43.8087595,69.8350258 42.9620324,71.5123794 39.0070706,69.8350258 C39.0070706,69.8350258 39.7741317,59.2465152 35.738874,42.546726 L37.9112691,37.7242951"/>
        <path fill="#8A8A8A" d="M32.4228149,28.4174145 C32.4228149,28.4174145 26.1858779,32.6514379 28.1491889,38.3023466 C30.915458,46.2645199 29.6845706,47.2467681 26.1858779,51.6433489 C26.1858779,51.6433489 33.3268511,51.5347681 36.0874523,42.5473536 C38.3228244,35.2702436 39.2681107,32.9756112 39.2681107,32.9756112 C39.2681107,32.9756112 46.2654962,4.65673536 28.1491889,0.993859485 C28.1491889,0.993859485 44.2877004,18.4876066 32.4228149,28.4174145"/>
        <path fill="#F06B69" d="M14.1947233 39.7590867C14.1947233 39.4970492 13.9815458 39.2845948 13.7183015 39.2845948 13.4550573 39.2845948 13.2421947 39.4970492 13.2421947 39.7590867 13.2421947 40.0214379 13.4550573 40.2338923 13.7183015 40.2338923 13.9815458 40.2338923 14.1947233 40.0214379 14.1947233 39.7590867M21.3958397 43.7022014C21.3958397 43.4401639 21.1826622 43.2277096 20.9197328 43.2277096 20.6564885 43.2277096 20.4433111 43.4401639 20.4433111 43.7022014 20.4433111 43.9645527 20.6564885 44.177007 20.9197328 44.177007 21.1826622 44.177007 21.3958397 43.9645527 21.3958397 43.7022014M13.5082729 52.5119953C13.5082729 52.249644 13.2954103 52.0371897 13.032166 52.0371897 12.7689218 52.0371897 12.5557443 52.249644 12.5557443 52.5119953 12.5557443 52.7740328 12.7689218 52.9864871 13.032166 52.9864871 13.2954103 52.9864871 13.5082729 52.7740328 13.5082729 52.5119953M26.8559542 40.7086979C26.8559542 40.4463466 26.6427767 40.2338923 26.3795324 40.2338923 26.1162882 40.2338923 25.9034256 40.4463466 25.9034256 40.7086979 25.9034256 40.9707354 26.1162882 41.1831897 26.3795324 41.1831897 26.6427767 41.1831897 26.8559542 40.9707354 26.8559542 40.7086979M14.1947233 45.4008946C14.1947233 45.1388571 13.9815458 44.9264028 13.7183015 44.9264028 13.4550573 44.9264028 13.2421947 45.1388571 13.2421947 45.4008946 13.2421947 45.6632459 13.4550573 45.8757002 13.7183015 45.8757002 13.9815458 45.8757002 14.1947233 45.6632459 14.1947233 45.4008946M18.2306107 54.3123653C18.2306107 54.0503279 18.0174332 53.8378735 17.7541889 53.8378735 17.4909447 53.8378735 17.2777672 54.0503279 17.2777672 54.3123653 17.2777672 54.5747166 17.4909447 54.787171 17.7541889 54.787171 18.0174332 54.787171 18.2306107 54.5747166 18.2306107 54.3123653M12.2559733 62.4709883C12.2559733 62.208637 12.0427958 61.9961827 11.7795515 61.9961827 11.5163073 61.9961827 11.3031298 62.208637 11.3031298 62.4709883 11.3031298 62.7330258 11.5163073 62.9454801 11.7795515 62.9454801 12.0427958 62.9454801 12.2559733 62.7330258 12.2559733 62.4709883M25.9034256 57.8952178C25.9034256 57.6331803 25.6902481 57.420726 25.4270038 57.420726 25.1637595 57.420726 24.9505821 57.6331803 24.9505821 57.8952178 24.9505821 58.1575691 25.1637595 58.3700234 25.4270038 58.3700234 25.6902481 58.3700234 25.9034256 58.1575691 25.9034256 57.8952178M20.3642748 61.9961827C20.3642748 61.7338314 20.1510973 61.521377 19.8878531 61.521377 19.6246088 61.521377 19.4114313 61.7338314 19.4114313 61.9961827 19.4114313 62.258534 19.6246088 62.4706745 19.8878531 62.4706745 20.1510973 62.4706745 20.3642748 62.258534 20.3642748 61.9961827M28.7531393 66.5760328C28.7531393 66.3139953 28.5399618 66.101541 28.2767176 66.101541 28.0134733 66.101541 27.8002958 66.3139953 27.8002958 66.5760328 27.8002958 66.8380703 28.0134733 67.0508384 28.2767176 67.0508384 28.5399618 67.0508384 28.7531393 66.8380703 28.7531393 66.5760328M24.1520324 50.2120281C24.1520324 49.9499906 23.938855 49.7375363 23.6756107 49.7375363 23.4126813 49.7375363 23.1995038 49.9499906 23.1995038 50.2120281 23.1995038 50.4743794 23.4126813 50.6868337 23.6756107 50.6868337 23.938855 50.6868337 24.1520324 50.4743794 24.1520324 50.2120281M33.8678244 53.6775129C33.8678244 53.4154754 33.6546469 53.2030211 33.3914027 53.2030211 33.1281584 53.2030211 32.9149809 53.4154754 32.9149809 53.6775129 32.9149809 53.9398642 33.1281584 54.1523185 33.3914027 54.1523185 33.6546469 54.1523185 33.8678244 53.9398642 33.8678244 53.6775129M34.6484256 61.7259859C34.6484256 61.4639485 34.4352481 61.2514941 34.1720038 61.2514941 33.9090744 61.2514941 33.6958969 61.4639485 33.6958969 61.7259859 33.6958969 61.9880234 33.9090744 62.2007916 34.1720038 62.2007916 34.4352481 62.2007916 34.6484256 61.9880234 34.6484256 61.7259859M36.4394943 48.0783841C36.4394943 47.8163466 36.2263168 47.6035785 35.9630725 47.6035785 35.6998282 47.6035785 35.4866508 47.8163466 35.4866508 48.0783841 35.4866508 48.3407354 35.6998282 48.5531897 35.9630725 48.5531897 36.2263168 48.5531897 36.4394943 48.3407354 36.4394943 48.0783841"/>
        <path fill="#8A8A8A" d="M11.0883779,35.810637 C11.0883779,35.810637 13.032166,53.8378735 10.1241985,58.3700234 L9.48403626,61.2514941 C9.48403626,61.2514941 14.2082634,59.4934895 14.1947233,47.6035785 C14.1811832,35.7136674 13.8121374,33.3700796 11.0883779,35.810637"/>
      </g>
    </g>
    <path fill="#F69A98" d="M24.1161734,0.25720029 C10.794199,0.25720029 -0.000105756977,9.52942058 -0.000105756977,20.9623278 C-0.000105756977,27.5896275 3.77515594,32.9963159 9.42028036,36.7852942 L4.69902222,48.5470696 L17.6437897,41.1127043 C19.4028594,41.4631609 22.232692,41.645313 24.1161734,41.645313 C37.4381478,41.645313 48.2324525,32.3954623 48.2324525,20.9623278 C48.2324525,9.52942058 37.4381478,0.25720029 24.1161734,0.25720029 L24.1161734,0.25720029 Z M41.3167548,4.62899449 C46.4132338,8.65175246 49.6510571,14.4327583 49.6510571,20.9401713 C49.6510571,29.5703638 43.9904699,36.9676594 35.7975315,40.6245507 C37.0528548,40.8793507 38.3358408,41.0461638 39.7208245,41.0461638 C41.3827199,41.0461638 43.8874792,40.8894348 45.4395745,40.5800957 L56.8548734,47.1267797 L52.6877222,36.7409101 C57.6688687,33.3976899 61.0308199,28.6293507 60.9998943,22.7821594 C60.9474059,12.8304583 52.069778,5.5462887 41.3167548,4.62899449 L41.3167548,4.62899449 Z M9.93012687,17.3006786 C11.8887943,17.3006786 13.4766385,18.890409 13.4766385,20.8514032 C13.4766385,22.8124116 11.8887943,24.402142 9.93012687,24.402142 C7.97145943,24.402142 6.38361524,22.8124116 6.38361524,20.8514032 C6.38361524,18.890409 7.97145943,17.3006786 9.93012687,17.3006786 Z M24.1161734,17.3006786 C26.0748408,17.3006786 27.662685,18.890409 27.662685,20.8514032 C27.662685,22.8124116 26.0748408,24.402142 24.1161734,24.402142 C22.1575059,24.402142 20.5696618,22.8124116 20.5696618,20.8514032 C20.5696618,18.890409 22.1575059,17.3006786 24.1161734,17.3006786 Z M38.3022199,17.3006786 C40.2608873,17.3006786 41.8487315,18.890409 41.8487315,20.8514032 C41.8487315,22.8124116 40.2608873,24.402142 38.3022199,24.402142 C36.3435525,24.402142 34.7557083,22.8124116 34.7557083,20.8514032 C34.7557083,18.890409 36.3435525,17.3006786 38.3022199,17.3006786 Z" transform="translate(349 45)"/>
    <g transform="translate(0 33.019)">
      <rect width="59.416" height="3.302" x=".732" y=".472" fill="#FBCFCE" transform="translate(196 100)"/>
      <g transform="translate(125.345 81.65)">
        <g transform="translate(106.376)">
          <path fill="#CFCFCF" d="M13.3883577,6.18086716 L12.9613025,6.18086716 C12.9613025,4.57782032 12.5607194,3.05355803 11.8308749,1.88907854 C11.1485054,0.800976305 10.2432007,0.150784884 9.40724875,0.150784884 C8.57173437,0.150784884 7.66533581,0.800976305 6.98406014,1.88951624 C6.25377813,3.05333918 5.85275748,4.57803916 5.85275748,6.18064831 L5.4257022,6.18064831 L5.03824581,8.1979706 L6.13082471,9.09808414 L7.22405995,8.1979706 L6.83550966,6.18064831 L6.40932951,6.18064831 C6.40932951,2.8397455 8.18384042,0.707747916 9.40724875,0.707747916 C10.6293444,0.707747916 12.4049492,2.8397455 12.4049492,6.18064831 L11.9781127,6.18064831 L11.5910939,8.19753291 L12.6830165,9.09808414 L13.7764705,8.19753291 L13.3883577,6.18086716 Z"/>
          <path fill="#AAA" d="M18.2970868,18.6699698 L18.2979619,18.6699698 C18.5543701,18.6699698 18.7619907,18.4515615 18.7619907,18.2053598 C18.7619907,14.443835 18.2817723,7.778224 16.925128,6.42137889 C16.9017187,6.39271007 16.7883915,6.21828982 16.6499049,6.21828982 C16.5114182,6.21828982 13.6309829,6.21741444 13.6309829,6.21741444 L13.6353585,6.21741444 L13.6349209,6.21741444 L14.0075004,8.15376371 C14.0228149,8.23758172 13.9926235,8.32293166 13.9263336,8.37698662 L12.8337547,9.27753785 C12.7906554,9.3129909 12.7383674,9.33027973 12.6858606,9.33049857 C12.6333538,9.33027973 12.5819409,9.31320974 12.5397167,9.27753785 L11.5547767,8.46715116 L11.4458251,8.37698662 C11.4189154,8.35466433 11.3992253,8.32665204 11.3847859,8.29623245 C11.3646583,8.2526821 11.356126,8.20344175 11.3655334,8.15398256 L11.7376754,6.21763328 L11.7372378,6.21763328 L7.08251038,6.21763328 L7.08185405,6.21763328 L7.45399596,8.15398256 C7.46340343,8.2036606 7.45508985,8.2526821 7.43474347,8.29623245 C7.4203041,8.32665204 7.40083283,8.35488317 7.3739231,8.37698662 L7.26475272,8.46715116 L6.28003152,9.27753785 C6.23758853,9.31320974 6.18617563,9.33027973 6.13366883,9.33049857 C6.08138081,9.33027973 6.02887402,9.3129909 5.98599347,9.27753785 L4.89319579,8.37698662 C4.82712474,8.3231505 4.79671455,8.23758172 4.81224781,8.15376371 L5.18482728,6.21741444 L5.18417095,6.21741444 C5.18417095,6.21741444 2.30351688,6.21828982 2.1650302,6.21828982 C2.02654353,6.21828982 1.91365392,6.39271007 1.88980708,6.42137889 C0.533381531,7.778224 0.0529443522,14.443835 0.0529443522,18.2053598 C0.0529443522,18.4515615 0.260564973,18.6699698 0.517191936,18.6699698 L0.518067049,18.6699698 L18.2970868,18.6699698 Z"/>
        </g>
        <g fill="#AAA" transform="translate(105 36)">
          <path d="M7 .5C6.172.493333333 5.591 1.08733333 5.25 2 5.23433333 2.04033333 4.37633333 5.01566667 3.586 7.75L18.414 7.75C17.6236667 5.01566667 16.7656667 2.04033333 16.75 2 16.409 1.08733333 15.828.493333333 15 .5 14.5443333.5 14.1563333.613333333 13.75.75L11 1.75 8.25.75C7.84366667.613333333 7.45566667.5 7 .5zM3.297 8.75C3.03133333 9.67066667 2.772 10.573 2.64833333 11L.5 11C.222666667 11 0 11.2226667 0 11.5 0 11.7773333.222666667 12 .5 12L21.5 12C21.7773333 12 22 11.7773333 22 11.5 22 11.2226667 21.7773333 11 21.5 11L19.3516667 11C19.228 10.573 18.9686667 9.67066667 18.703 8.75L3.297 8.75z"/>
        </g>
        <path fill="#AAA" d="M95.5562152,42.510362 C95.4997219,42.4847753 94.1360286,41.8701887 91.6840152,41.8701887 C90.3251352,41.8701887 89.5879352,42.0789353 88.9378819,42.2658953 C88.4015752,42.418402 87.9374686,42.5501353 87.2050819,42.5501353 C86.4716819,42.5501353 86.0085886,42.418402 85.4722819,42.2658953 C84.8222286,42.0789353 84.0850286,41.8701887 82.7261486,41.8701887 C80.2741352,41.8701887 78.9104419,42.4847753 78.8539486,42.510362 C78.7807352,42.543042 78.7323486,42.614482 78.7262686,42.693522 L78.6550819,43.745362 C78.6500152,43.8375753 78.7054952,43.925482 78.7946686,43.961202 C78.8886552,43.997682 78.9975886,44.0701353 79.0122819,44.101802 C79.0252019,44.1392953 79.0480019,44.2550687 79.0827086,44.4212553 C79.1934152,44.956802 79.3993752,45.9541753 79.6527086,46.618162 C79.9435352,47.3870287 80.2541219,47.7166153 80.9776419,48.0284687 C81.4090686,48.2144153 82.0750819,48.3301887 82.7182952,48.3301887 C83.3458019,48.3301887 83.9304952,48.2212553 84.4075219,48.016562 C85.6524019,47.479242 85.9503219,46.6657887 86.3293086,45.635482 C86.3837752,45.4832287 86.4321619,45.3446553 86.4747219,45.2210287 C86.7389486,44.4638153 86.7883486,44.3667887 87.2050819,44.3667887 C87.6218152,44.3667887 87.6722286,44.4638153 87.9354419,45.2210287 C87.9790152,45.3456687 88.0263886,45.4832287 88.0818686,45.6344687 C88.4588286,46.6657887 88.7557352,47.479242 90.0016286,48.016562 C90.4796686,48.2212553 91.0643619,48.3301887 91.6918686,48.3301887 C92.3340686,48.3301887 93.0010952,48.2144153 93.4335352,48.0284687 C94.1560419,47.7166153 94.4656152,47.3870287 94.7574552,46.618162 C95.0090152,45.9582287 95.2147219,44.963642 95.3256819,44.429362 C95.3611486,44.2601353 95.3849619,44.1403087 95.3958552,44.105602 C95.4135886,44.0701353 95.5225219,43.997682 95.6154952,43.961202 C95.7046686,43.925482 95.7601486,43.8375753 95.7550819,43.745362 L95.6838952,42.693522 C95.6778152,42.614482 95.6284152,42.543042 95.5562152,42.510362 Z M85.0745486,46.238162 C84.6836552,47.046802 83.8651352,47.4584687 82.6400152,47.4584687 C81.6575886,47.4584687 81.0549086,47.236802 80.6858019,46.7417887 C80.3283486,46.260962 79.8969219,44.210482 80.1791352,43.5761353 C80.4491886,42.9706687 81.6981219,42.7538153 82.7775752,42.7538153 C83.9127619,42.7538153 85.2594819,42.988402 85.5346019,43.5011487 C85.8175752,44.0275753 85.6455619,45.0507887 85.0745486,46.238162 Z M93.7243619,46.7410287 C93.3552552,47.236802 92.7525752,47.4584687 91.7701486,47.4584687 C90.5450286,47.4584687 89.7265086,47.046802 89.3356152,46.238162 C88.7656152,45.0507887 88.5925886,44.0285887 88.8745486,43.5011487 C89.1506819,42.988402 90.4974019,42.7548287 91.6333486,42.7548287 C92.7110286,42.7548287 93.9609752,42.9706687 94.2310286,43.5761353 C94.5132419,44.210482 94.0818152,46.260962 93.7243619,46.7410287 Z"/>
        <g transform="translate(39 3)">
          <polygon fill="#CFCFCF" points="6.175 46.713 6.825 46.713 6.825 27.015 6.175 27.015"/>
          <path fill="#ECECEC" d="M10.2886066,3.09906273 C7.73451289,3.09906273 7.64940351,1.5199024 7.64940351,0.0654804554 L5.35084101,0.0654804554 C5.35084101,1.5199024 5.26573164,3.09906273 2.71184101,3.09906273 C0.157950387,3.09906273 -0.352908988,5.71718088 0.541044137,7.13015556 C1.43479414,8.54313024 2.54162226,13.5298897 2.54162226,13.5298897 L10.4588254,13.5298897 C10.4588254,13.5298897 11.5654504,8.54313024 12.4594035,7.13015556 C13.3533566,5.71718088 12.8424973,3.09906273 10.2886066,3.09906273"/>
          <path fill="#AAA" d="M10.1431691,46.7134762 C10.1431691,46.8651851 8.51227851,46.9881387 6.50012226,46.9881387 C4.48816914,46.9881387 2.85707539,46.8651851 2.85707539,46.7134762 C2.85707539,46.5617674 4.48816914,46.4388138 6.50012226,46.4388138 C8.51227851,46.4388138 10.1431691,46.5617674 10.1431691,46.7134762"/>
          <path fill="#F69A98" d="M9.11616914,6.31211759 C7.85963789,6.32441294 6.80257539,7.2572737 6.66505976,8.47689396 C6.65124726,8.59865767 6.64921601,8.67262813 6.64921601,8.67262813 C6.64921601,8.67262813 6.64901289,8.62741294 6.64230976,8.54947624 C6.54074726,7.37288974 5.57448164,6.4451851 4.37015351,6.33571674 C2.70899726,6.18460282 0.717356637,6.72976316 0.940387887,8.0757083 C0.952575387,8.14948046 0.969028512,8.22483911 0.995028512,8.30337075 C1.73887226,10.5548096 2.18777851,12.5422948 2.44655976,13.9233412 C2.48454414,14.1262146 2.54893476,14.3185775 2.63363789,14.4990416 C2.67487226,14.4655269 10.3255754,14.4655269 10.3668098,14.4990416 C10.4515129,14.3185775 10.5159035,14.1262146 10.5538879,13.9233412 C10.8126691,12.5422948 11.2615754,10.5548096 12.0054191,8.30337075 C12.031216,8.22483911 12.0476691,8.14948046 12.0598566,8.0757083 C12.2615598,6.85886442 10.6540285,6.29704586 9.11616914,6.31211759"/>
          <path fill="#FBCFCE" d="M10.3668098,14.4990416 C10.3255754,14.4655269 2.67487226,14.4655269 2.63363789,14.4990416 C-0.573096488,17.117953 1.96616914,31.7577589 1.96616914,31.7577589 L11.0342785,31.7577589 C11.0342785,31.7577589 13.573341,17.1177547 10.3668098,14.4990416"/>
        </g>
        <path fill="#AAA" d="M6.71361306,1.20278591 C6.71361306,1.20278591 3.92941911,0.860179379 2.70392077,0.526863868 C1.47802505,0.184450895 1.24039599,-0.130282567 0.775072207,0.0549572384 C0.319086685,0.249294505 0.0719206762,0.378981725 0.0339715543,1.01754611 C-0.0135145196,1.65630406 -0.0421253759,3.44289068 0.166892824,3.99822297 C0.490155763,4.87757974 0.452007954,4.5072937 0.471081859,4.88687077 L0.452007954,5.76622754 C0.452007954,5.76622754 0.385447976,5.99753535 0.755998302,6.04399047 C1.12654863,6.09044559 3.17878151,6.24781232 3.92941911,6.25710335 C4.6802554,6.26639437 4.7656906,6.17367769 4.8892736,6.14599818 C5.02219487,6.12760969 5.32638391,5.84984677 5.32638391,5.84984677 C5.32638391,5.84984677 8.83240592,5.73893516 9.64006655,5.99792247 C10.4477272,6.25729691 13.0797273,6.3589175 14.3717856,6.19225974 C15.6638439,6.02579555 16.8515918,5.9611455 17.7448863,5.61853896 C18.6477178,5.27593243 19.2366246,4.84080277 19.2556985,4.83170531 C19.2747724,4.81331682 19.5503506,4.73918219 19.4551797,3.44327781 C19.4078924,2.79522883 19.3127215,2.45300943 19.2082124,2.30454659 C19.1513881,2.22150806 19.1323142,2.22150806 19.037342,2.23079908 C18.8760086,2.24918757 18.9044208,2.26757606 18.8664716,2.33241967 C18.7142778,2.57321206 15.2273297,2.84168396 14.2865491,2.46210689 C13.3461659,2.08272338 11.8162798,0.777334409 11.4836786,0.518153532 C11.1512761,0.258972656 10.5808471,0.0553443644 10.0487647,0.0646353891 C9.51668223,0.0739264138 9.50714528,0.00908280394 9.03208585,0.657131777 C8.54748948,1.29530904 8.36688345,1.25814494 6.71361306,1.20278591 L6.71361306,1.20278591 Z" transform="translate(77.658 12.547)"/>
        <rect width="145.898" height="4.953" x="2.418" y="49.538" fill="#F69A98"/>
      </g>
      <g transform="translate(8.912)">
        <path fill="#F1F1F1" d="M282.758766,27.534434 L283.983387,27.534434 L283.983387,26.104717 L282.758766,26.104717 L282.758766,5.60660377 L284.597348,0.297169811 L0,0.297169811 L1.83858225,5.60660377 L1.83858225,26.104717 L1.01996753,27.534434 L1.83858225,28.7627358 L2.85854978,28.7627358 L2.85854978,162.789623 L14.979329,162.789623 L10.1171537,168.260849 L10.1171537,169.333962 L81.194697,169.333962 L81.194697,168.260849 L76.939881,162.789623 L284.597348,162.789623 L282.758766,27.534434 Z M264.175646,136.521698 L107.634632,136.521698 L107.634632,63.4509434 C109.64816,65.5872642 112.014881,64.7518868 112.130411,60.8919811 L112.160119,57.2433962 L120.151515,41.2127358 L256.807359,41.2127358 C256.807359,41.2127358 261.122619,52.4484721 264.175646,60.6712347 C263.739177,65.4716981 264.175646,136.521698 264.175646,136.521698 Z"/>
        <use fill="#F5F5F5" xlink:href="#shop+students_580x220-a"/>
        <use stroke="#CFCFCF" stroke-width="3.3" mask="url(#shop+students_580x220-b)" xlink:href="#shop+students_580x220-a"/>
        <g fill="#F69A98" transform="translate(106 38)">
          <path d="M8.12743255 22.8292453L8.10432649 26.4778302C7.94918579 31.4438679.8061122 31.4108491.621263715 26.4778302.61796285 25.2627358.61796285 24.0443396.61796285 22.8292453L5.5263503 10.9886792 8.64896934 3.21603774 15.5048676 3.21603774 8.12743255 22.8292453zM17.7362554 22.8259434L17.7362554 26.4745283 17.7362554 26.4745283C17.9211039 31.4042453 25.0641775 31.440566 25.2127165 26.4745283L25.2193182 26.4745283 25.2424242 22.8259434 25.2952381 22.8259434 33.8774892 3.21273585 26.9324675 3.21273585 17.7362554 22.8259434zM34.3033009 22.8259434L34.3033009 26.4745283 34.3033009 26.4745283C34.4881494 31.4042453 41.6312229 31.440566 41.7797619 26.4745283L41.7863636 26.4745283 41.8094697 22.8259434 41.8622835 22.8259434 48.6026515 3.21273585 41.6576299 3.21273585 34.3033009 22.8259434zM50.8670455 22.8259434L50.8670455 26.4745283 50.8670455 26.4745283C51.0518939 31.4042453 58.1949675 31.440566 58.3435065 26.4745283L58.3501082 26.4745283 58.3732143 22.8259434 58.4260281 22.8259434 63.3278139 3.21273585 56.3827922 3.21273585 50.8670455 22.8259434zM67.7410714 22.8259434L67.7410714 22.8259434 67.7410714 26.4745283 67.7410714 26.4745283C67.9259199 31.4042453 75.0722944 31.440566 75.2175325 26.4745283L75.2241342 26.4745283 75.2505411 22.8259434 75.3000541 22.8259434 77.7525974 3.21273585 70.8075758 3.21273585 67.7410714 22.8259434zM84.304816 22.8259434L84.304816 22.8259434 84.304816 26.4745283 84.3081169 26.4745283C84.4896645 31.4042453 91.636039 31.440566 91.7812771 26.4745283L91.7878788 26.4745283 91.8142857 22.8259434 91.8670996 22.8259434 92.4810606 3.21273585 85.536039 3.21273585 84.304816 22.8259434zM99.9542208 3.21273585L100.568182 22.8259434 100.568182 22.8259434 100.568182 26.4745283 100.571483 26.4745283C100.75303 31.4042453 107.899405 31.440566 108.044643 26.4745283L108.051245 26.4745283 108.077652 22.8259434 108.130465 22.8259434 106.902543 3.21273585 99.9542208 3.21273585zM114.679383 3.21273585L117.128626 22.8259434 117.128626 22.8259434 117.128626 26.4745283 117.131926 26.4745283C117.313474 31.4042453 124.459848 31.440566 124.608387 26.4745283L124.611688 26.4745283 124.638095 22.8259434 124.690909 22.8259434 121.624405 3.21273585 114.679383 3.21273585zM129.407846 3.21273585L133.698972 22.8259434 133.695671 22.8259434 133.695671 26.4745283 133.698972 26.4745283C133.88382 31.4042453 141.026894 31.440566 141.175433 26.4745283L141.182035 26.4745283 141.205141 22.8259434 141.257955 22.8259434 136.356169 3.21273585 129.407846 3.21273585zM143.829329 3.21273585L150.572998 22.8259434C150.569697 24.0410377 150.569697 25.259434 150.569697 26.4745283 150.757846 31.4042453 157.90092 31.440566 158.049459 26.4745283 158.049459 26.4745283 158.184796 24.5 158.184796 22.8259434 158.049459 21.8584906 150.972403 3.21273585 150.972403 3.21273585L143.829329 3.21273585z"/>
          <polygon points="8.554 .726 150.037 .726 157.409 20.538 1.608 20.538"/>
        </g>
      </g>
      <path fill="#CFCFCF" d="M75.6987554,124.378774 L33.8305736,124.378774 L33.8305736,49.8056604 L75.7020563,49.8056604 L75.7020563,124.378774 L75.6987554,124.378774 Z M35.0551948,123.153774 L74.4741342,123.153774 L74.4741342,51.0306604 L35.0551948,51.0306604 L35.0551948,123.153774 Z"/>
      <g transform="translate(41 61)">
        <path fill="#AAA" d="M6.30465368,6.41457547 L12.2907738,1.41650943 C12.7522348,1.03117925 13.3156926,0.84 13.881131,0.839669811 C14.457132,0.84 15.0311526,1.03877358 15.4962446,1.43731132 L21.3922511,6.49283019 L21.8220238,5.99127358 L15.9256872,0.936084906 C15.3384632,0.432216981 14.6089719,0.179292453 13.881131,0.179292453 C13.1668236,0.179292453 12.4505357,0.422641509 11.8679329,0.909339623 L5.88148268,5.90773585 L6.30465368,6.41457547"/>
        <polygon fill="#FBCFCE" points=".09 18.885 27.61 18.885 27.61 5.614 .09 5.614"/>
        <path fill="#666" d="M8.76535681,11.3623874 C8.76535681,12.1536204 8.56755151,12.7686454 8.17193496,13.2074805 C7.77631841,13.6463157 7.21614708,13.86573 6.49140416,13.86573 C5.75779588,13.86573 5.19430009,13.6479779 4.80089988,13.2124673 C4.40749967,12.7769566 4.21080252,12.1580532 4.21080252,11.3557384 C4.21080252,10.5534236 4.40860782,9.93729052 4.80422437,9.50732071 C5.19984092,9.0773509 5.76444486,8.86236923 6.49805314,8.86236923 C7.22057972,8.86236923 7.77908882,9.08067536 8.1735972,9.51729419 C8.56810558,9.95391301 8.76535681,10.5689379 8.76535681,11.3623874 Z M5.05522353,11.3623874 C5.05522353,11.9607989 5.17601221,12.4145876 5.41759318,12.7237669 C5.65917415,13.0329462 6.01710757,13.1875336 6.49140416,13.1875336 C6.96348441,13.1875336 7.31975559,13.0346084 7.56022839,12.7287536 C7.8007012,12.4228988 7.9209358,11.967448 7.9209358,11.3623874 C7.9209358,10.7661921 7.80180935,10.3140657 7.56355289,10.0059945 C7.32529642,9.69792339 6.97013339,9.54389012 6.49805314,9.54389012 C6.02154021,9.54389012 5.66194457,9.69792339 5.41925543,10.0059945 C5.17656628,10.3140657 5.05522353,10.7661921 5.05522353,11.3623874 Z M13.0273558,10.4082581 C13.0273558,10.9157998 12.8611328,11.3047615 12.528682,11.5751549 C12.1962311,11.8455482 11.7230498,11.9807429 11.1091238,11.9807429 L10.603801,11.9807429 L10.603801,13.7992401 L9.80924736,13.7992401 L9.80924736,8.93883255 L11.2088586,8.93883255 C11.8161355,8.93883255 12.2710323,9.06294568 12.5735626,9.31117567 C12.8760929,9.55940566 13.0273558,9.92509615 13.0273558,10.4082581 Z M10.603801,11.31252 L11.0260115,11.31252 C11.4338179,11.31252 11.7330192,11.2415982 11.9236244,11.0997525 C12.1142296,10.9579068 12.2095307,10.7362762 12.2095307,10.434854 C12.2095307,10.1555953 12.1242029,9.94726253 11.9535448,9.8098495 C11.7828867,9.67243647 11.51693,9.60373098 11.1556667,9.60373098 L10.603801,9.60373098 L10.603801,11.31252 Z M16.7474626,13.7992401 L13.9981075,13.7992401 L13.9981075,8.93883255 L16.7474626,8.93883255 L16.7474626,9.61037997 L14.7926611,9.61037997 L14.7926611,10.9335279 L16.6244563,10.9335279 L16.6244563,11.5984263 L14.7926611,11.5984263 L14.7926611,13.1243682 L16.7474626,13.1243682 L16.7474626,13.7992401 Z M21.8472336,13.7992401 L20.8731574,13.7992401 L18.4828475,9.92620673 L18.4562515,9.92620673 L18.472874,10.1422987 C18.5039027,10.5545378 18.5194169,10.9313098 18.5194169,11.2726261 L18.5194169,13.7992401 L17.7980021,13.7992401 L17.7980021,8.93883255 L18.7621048,8.93883255 L21.1457657,12.791919 L21.1657127,12.791919 C21.16128,12.7409432 21.1524148,12.5553276 21.1391167,12.2350665 C21.1258187,11.9148055 21.1191698,11.664917 21.1191698,11.4853936 L21.1191698,8.93883255 L21.8472336,8.93883255 L21.8472336,13.7992401 Z"/>
      </g>
      <path fill="#ECEBED" d="M13.1764069,0.786792453 C9.15925325,4.47169811 4.95725108,7.95188679 0.586904762,11.2108491 C4.60405844,7.52924528 8.80606061,4.05235849 13.1764069,0.786792453 Z" transform="translate(56 110)"/>
      <rect width="305" height="6.604" fill="#FEBBBA" transform="translate(0 16.18)"/>
      <path fill="#FBCFCE" d="M3.46722944,13.4667453 C3.46722944,11.9158491 2.21058983,10.6588208 0.66017316,10.6588208 L0.66017316,3.00339623 C2.21058983,3.00339623 3.46722944,1.74603774 3.46722944,0.195471698 L15.3216288,0.195471698 C15.3216288,1.74603774 16.5782684,3.00339623 18.1286851,3.00339623 L18.1286851,10.6588208 C16.5782684,10.6588208 15.3216288,11.9158491 15.3216288,13.4667453 L3.46722944,13.4667453 Z" transform="translate(91.104 69.805)"/>
    </g>
    <g transform="translate(95.395 149.245)">
      <polygon fill="#CFCFCF" points=".275 51.649 34.05 51.649 34.05 .051 .275 .051"/>
      <polygon fill="#CFCFCF" points=".275 60.602 6.221 60.602 6.221 46.753 .275 46.753"/>
      <polygon fill="#CFCFCF" points="28.103 60.602 34.05 60.602 34.05 46.753 28.103 46.753"/>
      <polygon fill="#FEDBDA" points="3.656 46.483 30.668 46.483 30.668 5.217 3.656 5.217"/>
      <path fill="#F69A98" d="M9.67181311 15.3503948C10.4331211 15.3503948 11.0359578 15.5519145 11.4803412 15.9549599 11.9247246 16.3580053 12.146913 16.9074479 12.146913 17.6033041 12.146913 18.4093949 11.8945828 19.0389287 11.3899148 19.4919241 10.8852468 19.9449196 10.1678712 20.171414 9.23776636 20.171414 8.39378236 20.171414 7.73066203 20.0353451 7.24838545 19.7632034L7.24838545 18.6625848C7.5274169 18.8210471 7.84778153 18.9433369 8.20948896 19.0294577 8.57119639 19.1155785 8.90706253 19.1586383 9.21709747 19.1586383 9.76482586 19.1586383 10.1816444 19.0363485 10.4675655 18.7917654 10.7534866 18.5471823 10.896445 18.1889251 10.896445 17.716983 10.896445 16.8144368 10.3211666 16.3631705 9.17059246 16.3631705 9.00868533 16.3631705 8.80888803 16.3795332 8.57119458 16.4122592 8.33350113 16.4449851 8.12509188 16.4820165 7.94596058 16.5233545L7.40340215 16.2029866 7.69276664 12.5135893 11.6198562 12.5135893 11.6198562 13.5935389 8.76238184 13.5935389 8.59186347 15.4640737C8.71243261 15.4434047 8.859697 15.4192912 9.03366105 15.3917326 9.2076251 15.3641739 9.42034033 15.3503948 9.67181311 15.3503948zM18.2700724 16.2908294C18.2700724 17.6033107 18.0590796 18.5781837 17.6370876 19.2154777 17.2150956 19.8527718 16.5700603 20.171414 15.7019625 20.171414 14.8614234 20.171414 14.2241389 19.8424374 13.79009 19.1844744 13.356041 18.5265113 13.1390198 17.5619727 13.1390198 16.2908294 13.1390198 14.9576792 13.3500127 13.9750554 13.7720047 13.3429286 14.1939967 12.7108018 14.8373095 12.3947432 15.7019625 12.3947432 16.5459465 12.3947432 17.1849534 12.7254421 17.6190023 13.38685 18.0530512 14.0482579 18.2700724 15.0162413 18.2700724 16.2908294zM14.3688189 16.2908294C14.3688189 17.3208344 14.474746 18.0562951 14.6866032 18.4972337 14.8984604 18.9381723 15.2369101 19.1586383 15.7019625 19.1586383 16.1670149 19.1586383 16.507187 18.9347275 16.7224891 18.4868992 16.9377911 18.039071 17.0454405 17.307055 17.0454405 16.2908294 17.0454405 15.2780486 16.9377911 14.5451715 16.7224891 14.092176 16.507187 13.6391805 16.1670149 13.4126861 15.7019625 13.4126861 15.2369101 13.4126861 14.8984604 13.6348745 14.6866032 14.0792579 14.474746 14.5236413 14.3688189 15.2608244 14.3688189 16.2908294zM21.3122579 15.2337544C21.3122579 15.6566777 21.3534142 15.9717367 21.4357282 16.1789407 21.5180421 16.3861448 21.6528646 16.4897452 21.8401998 16.4897452 22.2148701 16.4897452 22.4022025 16.0710858 22.4022025 15.2337544 22.4022025 14.3964229 22.2148701 13.9777635 21.8401998 13.9777635 21.6528646 13.9777635 21.5180421 14.081364 21.4357282 14.288568 21.3534142 14.4957721 21.3122579 14.810831 21.3122579 15.2337544zM23.2281762 15.2252392C23.2281762 15.8780739 23.1110934 16.3684021 22.8769245 16.6962387 22.6427555 17.0240752 22.2971841 17.187991 21.8401998 17.187991 21.4087612 17.187991 21.0745433 17.0183985 20.8375359 16.6792083 20.6005285 16.3400181 20.4820266 15.8553666 20.4820266 15.2252392 20.4820266 13.928085 20.9347465 13.2795177 21.8401998 13.2795177 22.2858304 13.2795177 22.6285635 13.4476911 22.8684093 13.7840429 23.1082551 14.1203946 23.2281762 14.6007886 23.2281762 15.2252392zM25.3654894 17.7201905C25.3654894 18.1431139 25.4073554 18.459592 25.4910885 18.6696345 25.5748217 18.879677 25.7103538 18.9846966 25.897689 18.9846966 26.2695209 18.9846966 26.4554341 18.5631988 26.4554341 17.7201905 26.4554341 16.8885359 26.2695209 16.4727149 25.897689 16.4727149 25.7103538 16.4727149 25.5748217 16.5748961 25.4910885 16.7792618 25.4073554 16.9836274 25.3654894 17.2972672 25.3654894 17.7201905zM27.2814077 17.7201905C27.2814077 18.3730252 27.1636154 18.8626439 26.9280272 19.1890612 26.6924391 19.5154786 26.3489964 19.6786848 25.897689 19.6786848 25.4662504 19.6786848 25.1313228 19.5105114 24.8928963 19.1741596 24.6544697 18.8378079 24.5352582 18.3531563 24.5352582 17.7201905 24.5352582 16.4230364 24.9893972 15.7744691 25.897689 15.7744691 26.3348044 15.7744691 26.6746991 15.9419329 26.9173833 16.2768654 27.1600674 16.611798 27.2814077 17.0929016 27.2814077 17.7201905zM26.0169017 13.3689272L22.5639911 19.5935329 21.7380175 19.5935329 25.190928 13.3689272 26.0169017 13.3689272zM14.2232096 30.0804006C14.2232096 31.3102059 13.9157629 32.2661326 13.3008602 32.9482095 12.6859576 33.6302863 11.8152892 33.9713197 10.6888289 33.9713197 9.54858934 33.9713197 8.67275377 33.6328699 8.06129598 32.9559603 7.44983818 32.2790507 7.14411387 31.3170956 7.14411387 30.0700662 7.14411387 28.8230368 7.45156057 27.8653876 8.0664632 27.1970901 8.68136583 26.5287926 9.55892379 26.1946488 10.6991634 26.1946488 11.8221788 26.1946488 12.6902636 26.5339597 13.3034439 27.2125918 13.9166241 27.8912238 14.2232096 28.8471505 14.2232096 30.0804006zM8.45658855 30.0804006C8.45658855 31.0105054 8.64432911 31.7158243 9.01981587 32.1963785 9.39530263 32.6769327 9.95163476 32.9172061 10.6888289 32.9172061 11.4225783 32.9172061 11.9763268 32.6795162 12.3500912 32.2041293 12.7238555 31.7287424 12.9107349 31.0208399 12.9107349 30.0804006 12.9107349 29.1537406 12.7255779 28.4510053 12.3552584 27.9721736 11.9849389 27.4933418 11.4329127 27.2539296 10.6991634 27.2539296 9.95852437 27.2539296 9.39960866 27.4933418 9.02239948 27.9721736 8.64519031 28.4510053 8.45658855 29.1537406 8.45658855 30.0804006zM17.0703495 33.8679752L15.8457176 33.8679752 15.8457176 26.313495 20.1086767 26.313495 20.1086767 27.357274 17.0703495 27.357274 17.0703495 29.718695 19.9174895 29.718695 19.9174895 30.7676413 17.0703495 30.7676413 17.0703495 33.8679752zM22.7026228 33.8679752L21.4779909 33.8679752 21.4779909 26.313495 25.74095 26.313495 25.74095 27.357274 22.7026228 27.357274 22.7026228 29.718695 25.5497627 29.718695 25.5497627 30.7676413 22.7026228 30.7676413 22.7026228 33.8679752z"/>
    </g>
    <g transform="translate(23.766)">
      <rect width="3.301" height="17.5" x="33.669" y="16.519" fill="#FEBBBA"/>
      <rect width="3.301" height="17.5" x="224.459" y="16.519" fill="#FEBBBA"/>
      <rect width="257.468" height="19.811" fill="#FEBBBA"/>
      <g fill="#FFF" transform="translate(66 4)">
        <rect width="1.584" height="1.585" x=".696" y="4.687"/>
        <rect width="1.584" height="1.585" x="124.281" y="4.687"/>
        <path d="M7.65034598,10.7773585 L6.00060379,10.7773585 L6.00060379,0.600467866 L11.7433772,0.600467866 L11.7433772,2.00657724 L7.65034598,2.00657724 L7.65034598,5.18772568 L11.4858225,5.18772568 L11.4858225,6.60079599 L7.65034598,6.60079599 L7.65034598,10.7773585 Z M20.2101975,10.7773585 L19.1939007,7.95121787 L15.3027366,7.95121787 L14.3073225,10.7773585 L12.5531663,10.7773585 L16.3607991,0.558702241 L18.1706428,0.558702241 L21.9782757,10.7773585 L20.2101975,10.7773585 Z M18.7553616,6.51726474 L17.8017132,3.74681162 C17.7321034,3.56118569 17.6358114,3.26882924 17.5128342,2.86973349 C17.3898571,2.47063775 17.3051665,2.17828129 17.25876,1.99265537 C17.1334625,2.56345509 16.9501597,3.18761292 16.708846,3.86514755 L15.7900022,6.51726474 L18.7553616,6.51726474 Z M29.7838069,8.0138663 C29.7838069,8.9187927 29.4566461,9.62880123 28.8023147,10.1439132 C28.1479833,10.6590251 27.2453908,10.9165772 26.09451,10.9165772 C24.9436293,10.9165772 24.0015918,10.737915 23.2683694,10.3805851 L23.2683694,8.80741318 C23.7324342,9.02552364 24.2254957,9.19722505 24.7475686,9.32252255 C25.2696415,9.44782005 25.7557421,9.51046787 26.205885,9.51046787 C26.8648571,9.51046787 27.3509577,9.38517224 27.6642014,9.13457724 C27.9774452,8.88398224 28.1340647,8.54754029 28.1340647,8.1252413 C28.1340647,7.74470815 27.9902068,7.42218794 27.7024866,7.15767099 C27.4147664,6.89315404 26.8207723,6.57991499 25.9204866,6.21794443 C24.9923569,5.84205192 24.3380354,5.4127984 23.9575022,4.93017099 C23.576969,4.44754358 23.3867053,3.86747125 23.3867053,3.18993662 C23.3867053,2.34069799 23.6883429,1.67245468 24.2916272,1.18518662 C24.8949115,0.697918554 25.7046924,0.454288178 26.7209944,0.454288178 C27.6955305,0.454288178 28.6654114,0.667754793 29.6306663,1.09469443 L29.101635,2.45207724 C28.1967086,2.07154409 27.3892479,1.88128037 26.6792288,1.88128037 C26.1409136,1.88128037 25.7325427,1.99845498 25.4541038,2.23280771 C25.1756649,2.46716044 25.0364475,2.77691906 25.0364475,3.16209287 C25.0364475,3.42660981 25.0921345,3.65283802 25.20351,3.84078427 C25.3148856,4.02873052 25.4981884,4.20623266 25.7534241,4.37329599 C26.0086597,4.54035933 26.468077,4.76078681 27.1316897,5.03458505 C27.8788341,5.34550848 28.4264223,5.63554464 28.774471,5.90470224 C29.1225196,6.17385984 29.3777514,6.47781773 29.5401741,6.81658505 C29.7025968,7.15535237 29.7838069,7.55444213 29.7838069,8.0138663 Z M40.3737131,10.7773585 L38.7030881,10.7773585 L38.7030881,6.19010068 L34.0114162,6.19010068 L34.0114162,10.7773585 L32.3477522,10.7773585 L32.3477522,0.600467866 L34.0114162,0.600467866 L34.0114162,4.76310849 L38.7030881,4.76310849 L38.7030881,0.600467866 L40.3737131,0.600467866 L40.3737131,10.7773585 Z M43.647674,10.7773585 L43.647674,0.600467866 L45.3113381,0.600467866 L45.3113381,10.7773585 L43.647674,10.7773585 Z M57.6275568,5.6749913 C57.6275568,7.33170271 57.2133852,8.61946327 56.3850295,9.53831162 C55.5566738,10.45716 54.3837676,10.9165772 52.8662756,10.9165772 C51.330221,10.9165772 50.1503539,10.4606404 49.3266389,9.54875302 C48.5029238,8.63686565 48.0910725,7.34098408 48.0910725,5.66106943 C48.0910725,3.98115478 48.5052441,2.69107393 49.3335998,1.79078818 C50.1619555,0.890502427 51.3441429,0.440366303 52.8801975,0.440366303 C54.3930488,0.440366303 55.5624746,0.897463295 56.38851,1.81167099 C57.2145453,2.72587869 57.6275568,4.01363925 57.6275568,5.6749913 Z M49.8591506,5.6749913 C49.8591506,6.92796632 50.1120621,7.87812478 50.6178928,8.52549521 C51.1237234,9.17286563 51.8731769,9.49654599 52.8662756,9.49654599 C53.8547337,9.49654599 54.6007067,9.17634607 55.104217,8.53593662 C55.6077273,7.89552716 55.8594787,6.94188826 55.8594787,5.6749913 C55.8594787,4.42665694 55.6100476,3.4799789 55.1111779,2.8349288 C54.6123083,2.1898787 53.8686555,1.86735849 52.8801975,1.86735849 C51.8824581,1.86735849 51.1295242,2.1898787 50.6213732,2.8349288 C50.1132223,3.4799789 49.8591506,4.42665694 49.8591506,5.6749913 Z M68.8857131,10.7773585 L66.8461584,10.7773585 L61.8412443,2.6678663 L61.7855568,2.6678663 L61.8203615,3.12032724 C61.8853306,3.98348781 61.9178146,4.77238617 61.9178146,5.48704599 L61.9178146,10.7773585 L60.4072912,10.7773585 L60.4072912,0.600467866 L62.4259631,0.600467866 L67.4169553,8.66819443 L67.4587209,8.66819443 C67.4494396,8.56145952 67.4308773,8.17281106 67.4030334,7.5022374 C67.3751895,6.83166373 67.3612678,6.3084385 67.3612678,5.93254599 L67.3612678,0.600467866 L68.8857131,0.600467866 L68.8857131,10.7773585 Z M82.331924,8.0138663 C82.331924,8.9187927 82.0047632,9.62880123 81.3504318,10.1439132 C80.6961004,10.6590251 79.7935079,10.9165772 78.6426271,10.9165772 C77.4917464,10.9165772 76.5497089,10.737915 75.8164865,10.3805851 L75.8164865,8.80741318 C76.2805513,9.02552364 76.7736128,9.19722505 77.2956857,9.32252255 C77.8177586,9.44782005 78.3038592,9.51046787 78.7540021,9.51046787 C79.4129742,9.51046787 79.8990748,9.38517224 80.2123185,9.13457724 C80.5255623,8.88398224 80.6821818,8.54754029 80.6821818,8.1252413 C80.6821818,7.74470815 80.5383239,7.42218794 80.2506037,7.15767099 C79.9628835,6.89315404 79.3688894,6.57991499 78.4686037,6.21794443 C77.540474,5.84205192 76.8861524,5.4127984 76.5056193,4.93017099 C76.1250861,4.44754358 75.9348224,3.86747125 75.9348224,3.18993662 C75.9348224,2.34069799 76.23646,1.67245468 76.8397443,1.18518662 C77.4430286,0.697918554 78.2528095,0.454288178 79.2691115,0.454288178 C80.2436476,0.454288178 81.2135285,0.667754793 82.1787834,1.09469443 L81.6497521,2.45207724 C80.7448257,2.07154409 79.937365,1.88128037 79.2273459,1.88128037 C78.6890307,1.88128037 78.2806597,1.99845498 78.0022209,2.23280771 C77.723782,2.46716044 77.5845646,2.77691906 77.5845646,3.16209287 C77.5845646,3.42660981 77.6402515,3.65283802 77.7516271,3.84078427 C77.8630027,4.02873052 78.0463055,4.20623266 78.3015412,4.37329599 C78.5567768,4.54035933 79.0161941,4.76078681 79.6798068,5.03458505 C80.4269512,5.34550848 80.9745394,5.63554464 81.322588,5.90470224 C81.6706367,6.17385984 81.9258685,6.47781773 82.0882912,6.81658505 C82.2507139,7.15535237 82.331924,7.55444213 82.331924,8.0138663 Z M88.4111427,10.7773585 L86.7474787,10.7773585 L86.7474787,2.02746005 L83.7542755,2.02746005 L83.7542755,0.600467866 L91.4043458,0.600467866 L91.4043458,2.02746005 L88.4111427,2.02746005 L88.4111427,10.7773585 Z M102.307494,5.6749913 C102.307494,7.33170271 101.893323,8.61946327 101.064967,9.53831162 C100.236611,10.45716 99.063705,10.9165772 97.546213,10.9165772 C96.0101585,10.9165772 94.8302913,10.4606404 94.0065763,9.54875302 C93.1828612,8.63686565 92.7710099,7.34098408 92.7710099,5.66106943 C92.7710099,3.98115478 93.1851815,2.69107393 94.0135372,1.79078818 C94.8418929,0.890502427 96.0240803,0.440366303 97.5601349,0.440366303 C99.0729862,0.440366303 100.242412,0.897463295 101.068447,1.81167099 C101.894483,2.72587869 102.307494,4.01363925 102.307494,5.6749913 Z M94.539088,5.6749913 C94.539088,6.92796632 94.7919995,7.87812478 95.2978302,8.52549521 C95.8036609,9.17286563 96.5531143,9.49654599 97.546213,9.49654599 C98.5346711,9.49654599 99.2806441,9.17634607 99.7841544,8.53593662 C100.287665,7.89552716 100.539416,6.94188826 100.539416,5.6749913 C100.539416,4.42665694 100.289985,3.4799789 99.7911154,2.8349288 C99.2922457,2.1898787 98.548593,1.86735849 97.5601349,1.86735849 C96.5623955,1.86735849 95.8094616,2.1898787 95.3013107,2.8349288 C94.7931597,3.4799789 94.539088,4.42665694 94.539088,5.6749913 Z M106.750893,5.33390537 L107.906408,5.33390537 C108.681397,5.33390537 109.242907,5.19004743 109.590955,4.90232724 C109.939004,4.61460705 110.113025,4.18767382 110.113025,3.62151474 C110.113025,3.04607436 109.925082,2.63306287 109.54919,2.38246787 C109.173297,2.13187286 108.607146,2.00657724 107.850721,2.00657724 L106.750893,2.00657724 L106.750893,5.33390537 Z M106.750893,6.71217099 L106.750893,10.7773585 L105.087229,10.7773585 L105.087229,0.600467866 L107.962096,0.600467866 C109.275399,0.600467866 110.2476,0.846418531 110.878729,1.33832724 C111.509857,1.83023595 111.825416,2.57272853 111.825416,3.56582724 C111.825416,4.8327242 111.166454,5.73531674 109.84851,6.27363193 L112.723377,10.7773585 L110.830002,10.7773585 L108.393674,6.71217099 L106.750893,6.71217099 Z M120.549791,10.7773585 L114.793096,10.7773585 L114.793096,0.600467866 L120.549791,0.600467866 L120.549791,2.00657724 L116.45676,2.00657724 L116.45676,4.77703037 L120.292236,4.77703037 L120.292236,6.16921787 L116.45676,6.16921787 L116.45676,9.36428818 L120.549791,9.36428818 L120.549791,10.7773585 Z"/>
      </g>
    </g>
  </g>
</svg>
