<svg xmlns="http://www.w3.org/2000/svg" width="58" height="58" viewBox="0 0 58 58">
  <g fill="none" fill-rule="evenodd" transform="translate(5 2)">
    <path fill="#CFCFCF" d="M34.3316396,14.7347331 C31.5150567,16.7965821 30.1115106,13.7939152 29.99903,11.2702704 C29.8468298,7.87371876 30.0788209,2.44314523 26.1159911,0.768555517 C22.3187186,-0.836466672 17.0788832,1.75641438 17.3903137,5.83174626 L17.0542781,14.2285466 C21.0269499,16.9665256 26.0319822,22.9168679 31.7027586,19.6346058 C33.2310879,18.7501044 34.6957953,16.4401313 34.3316396,14.7347331"/>
    <polygon fill="#FFEBEB" points="18.974 33.864 19.804 53.91 20.837 53.91 22.096 30.907 16.168 30.907 17.108 53.91 18.314 53.91"/>
    <polygon fill="#CFCFCF" points="18.301 52.475 17.461 52.163 15.008 53.91 18.559 53.91"/>
    <polygon fill="#CFCFCF" points="20.655 52.163 19.814 52.475 19.556 53.91 23.107 53.91"/>
    <path fill="#CFCFCF" d="M25.4730945,6.93124443 C22.8139844,5.18344318 18.4968409,4.6507547 16.0595284,5.24141612 C11.5068788,6.34422703 9.17501669,9.52048147 10.3532503,15.5221712 C15.978683,15.0862148 21.7229232,14.8052945 27.2713771,15.6666067 C28.6109499,12.5642263 28.2566363,8.75987652 25.4730945,6.93124443 Z"/>
    <path fill="#FFEBEB" d="M22.5099355,20.2686641 C24.1032925,19.854903 25.4404049,19.1350447 26.3300556,18.2263603 C26.8685562,18.2200661 27.5346518,17.6840649 27.9423938,16.8774129 C28.4281691,15.916056 28.3624383,14.9371415 27.7965206,14.6913362 C27.666465,14.6343571 26.5114305,14.6237564 26.3585273,14.6492644 C25.6446274,12.3088141 22.3422692,10.5391488 18.3734638,10.5391488 C14.829624,10.5391488 12.8260645,11.9510383 11.7128587,13.9201305 C11.5167208,13.7740387 11.3033593,13.701821 11.0903493,13.7316357 C10.4720578,13.8157792 10.1012236,14.7075687 10.2632659,15.7229233 C10.4239021,16.7386091 11.0559021,17.4935824 11.6748966,17.4094388 C11.7096952,17.4044697 11.7437909,17.3961879 11.777535,17.3865809 C12.5438087,18.6470782 14.0974461,19.6647517 15.3909722,20.2133414 L10.2323337,33.5759379 L16.1751724,23.5098482 L22.305713,23.5194552 L29.7322403,32.7822055 L22.5099355,20.2686641"/>
    <path fill="#FEBBBA" d="M17.0472481,30.5881783 L15.8387853,22.8857282 C15.8387853,22.8857282 18.0767964,21.5583135 18.8870078,21.5447313 C19.7861491,21.5304865 22.305713,22.8857282 22.305713,22.8857282 L20.9271235,30.5530633 L17.0472481,30.5881783"/>
    <path fill="#AAA" d="M15.877099 14.8586296C15.877099 15.2578147 15.5544205 15.5821318 15.1579266 15.5821318 14.7610812 15.5821318 14.4387542 15.2578147 14.4387542 14.8586296 14.4387542 14.4587819 14.7610812 14.1351273 15.1579266 14.1351273 15.5544205 14.1351273 15.877099 14.4587819 15.877099 14.8586296M20.9678977 15.1802966C20.9678977 15.5794816 20.6462736 15.9037988 20.2497798 15.9037988 19.8522314 15.9037988 19.5306073 15.5794816 19.5306073 15.1802966 19.5306073 14.7804489 19.8522314 14.456463 20.2497798 14.456463 20.6462736 14.456463 20.9678977 14.7804489 20.9678977 15.1802966"/>
    <path fill="#E5E5E5" d="M15.7211882,41.4692018 C15.7211882,41.4692018 9.94988231,30.14394 19.4580024,30.4000147 C27.7745319,30.6246184 22.6693217,41.5745469 22.6693217,41.5745469 C22.6693217,41.5745469 19.5318178,42.7366558 15.7211882,41.4692018"/>
    <path fill="#F1F1F1" d="M8.46638932,34.8321286 C9.54690545,33.5212777 10.1743359,33.3887681 10.4868209,33.4676113 C11.031297,33.6044274 11.3870167,34.4846223 11.5951057,35.4946765 L8.46638932,34.8321286 Z M5.51729032,34.2076773 L0.244062291,47.1999095 L13.1262469,49.8139921 L14.4123915,36.0909695 L12.3075996,35.6457374 C12.0903715,34.4345999 11.6309588,33.1005598 10.6611657,32.8554171 C9.83830033,32.647377 8.87799778,33.2473141 7.74827141,34.6800739 L5.51729032,34.2076773 L5.51729032,34.2076773 Z"/>
    <polyline fill="#CFCFCF" points="31.227 46.044 41.65 40.499 34.926 30.835 27.193 34.004 31.227 46.044"/>
    <path fill="#F1F1F1" d="M27.9620779,34.8019827 C28.0358932,33.1429628 28.4654283,32.6924303 28.7684227,32.5857601 C29.2960267,32.3999154 30.1276796,32.9223344 30.9189099,33.6312606 L27.9620779,34.8019827 Z M25.1753726,35.9047936 L28.8738732,49.3714101 L40.9771301,44.4599428 L33.5804805,32.5778095 L31.5920356,33.3649164 C30.6693437,32.49731 29.4745895,31.6615058 28.5336196,31.9917859 C27.7353593,32.2720437 27.3219933,33.2857419 27.2833281,35.0703146 L25.1753726,35.9047936 L25.1753726,35.9047936 Z"/>
    <path fill="#F69A98" d="M17.7595992 18.3952775C17.709774 18.3952775 17.6619194 18.3931505 17.6165982 18.38996 16.9967394 18.3447609 16.4900429 18.0164032 16.2814528 17.7297882 16.2397911 17.6723588 16.2552735 17.5939252 16.3160771 17.5545755 16.3768807 17.5154916 16.4599226 17.5298489 16.5015843 17.5870124 16.6752686 17.8255038 17.1048347 18.1004203 17.6371475 18.1387065 17.999154 18.1642307 18.5382228 18.0863288 19.0615278 17.5617541 19.1121974 17.5109717 19.1966468 17.5088447 19.2501315 17.5561707 19.3036161 17.6040285 19.3061496 17.6835257 19.2557614 17.7343081 18.7242931 18.2665932 18.1705864 18.3952775 17.7595992 18.3952775zM24.8228788 11.3530888C25.2116396 11.1205345 26.4102603 10.212844 25.7575217 9.73912226 25.2450323 9.36710164 23.9093259 10.4089581 23.9817353 10.8177502 23.9908743 10.2887057 23.7947364 9.07558058 23.0165117 9.48536643 22.4695751 9.77390602 22.7198443 11.1695631 23.0709944 11.5846493 22.6762581 10.9929941 21.1233237 11.0572612 20.9960801 11.6707805 20.775337 12.7381451 22.5454994 12.7802169 23.2435818 12.4035585 22.773624 12.9183582 22.0678087 13.7697322 22.7472614 14.2186083 22.8136952 14.2620052 23.4970145 14.2669743 23.5824294 14.22424 23.8017664 14.1155821 23.9989588 13.7995468 24.0822647 13.5037192 24.1465895 13.9940046 24.3884227 14.5571703 24.8675195 14.5064854 25.8432881 14.4031279 25.4945984 12.6894479 25.1336062 12.2915879 25.6116485 12.6967359 26.5058687 12.6420757 26.6397909 12.0686405 26.86897 11.088401 25.4854594 10.9317084 24.8228788 11.3530888"/>
  </g>
</svg>
