<svg xmlns="http://www.w3.org/2000/svg" xmlns:xlink="http://www.w3.org/1999/xlink" width="490" height="210" viewBox="0 0 490 210">
  <defs>
    <polygon id="shop+students-a" points="16.94 145.795 16.94 39.309 65.372 39.309 65.372 145.795"/>
  </defs>
  <g fill="none" fill-rule="evenodd" transform="translate(7 11)">
    <g transform="translate(358 28)">
      <g transform="translate(0 1)">
        <path fill="#F1DDC9" d="M33.7219755,38.2409881 C29.8888585,36.7559809 31.3794156,32.3020292 31.3794156,32.3020292 L26.4360806,32.3020292 C26.4360806,32.3020292 27.9269959,36.7559809 24.0935206,38.2409881 C20.2604036,39.7256387 11.7421667,39.7324163 11.9552569,44.3989704 C12.1683471,49.0640977 16.4727696,73.2265892 28.9079272,73.2265892 C41.3434428,73.2265892 45.6475072,49.0640977 45.8609556,44.3989704 C46.0733295,39.7324163 37.5554507,39.7256387 33.7219755,38.2409881"/>
        <path fill="#FFEBEB" d="M33.7219755,38.2409881 C29.8888585,36.7559809 31.3794156,32.3020292 31.3794156,32.3020292 L26.4360806,32.3020292 C26.4360806,32.3020292 27.9269959,36.7559809 24.0935206,38.2409881 C20.2604036,39.7256387 11.7421667,39.7324163 11.9552569,44.3989704 C12.1683471,49.0640977 16.4727696,73.2265892 28.9079272,73.2265892 C41.3434428,73.2265892 45.6475072,49.0640977 45.8609556,44.3989704 C46.0733295,39.7324163 37.5554507,39.7256387 33.7219755,38.2409881"/>
        <path fill="#FDDADA" d="M15.2690785 21.202465C15.2690785 21.202465 14.0421085 18.5720437 13.0053082 20.1580015 11.9867727 21.7172057 13.9482772 23.2785501 16.1153511 24.4525013 15.7403839 23.346326 15.4775129 22.2455015 15.2948642 21.2153067L15.2690785 21.202465M44.5856375 20.1580015C43.8657864 19.0568203 43.0553273 19.9878482 42.6262818 20.6599005 42.4547352 21.7938995 42.1893573 23.0334864 41.782158 24.2844882 43.8217359 23.1315832 45.556541 21.6433655 44.5856375 20.1580015"/>
        <path fill="#FFEBEB" d="M42.897748,15.6598172 C42.897748,15.6598172 41.8652453,5.29330357 28.9415918,5.29330357 C13.830809,5.29330357 14.914525,15.6598172 14.914525,15.6598172 C14.914525,15.6598172 14.7444109,18.1158044 15.2948642,21.2153067 C15.4775129,22.2455015 15.7403839,23.346326 16.1153511,24.4525013 C17.671805,29.0445019 21.1632615,33.7181904 28.9351454,33.7181904 C36.8019351,33.7181904 40.2690384,28.9296394 41.782158,24.2844882 C42.1893573,23.0334864 42.4547352,21.7938995 42.6262818,20.6599005 C43.0553273,17.8275782 42.897748,15.6598172 42.897748,15.6598172"/>
        <path fill="#8A8A8A" d="M16.6471813,140.476408 C16.6471813,140.476408 10.6863852,144.058903 12.0870505,147.856141 C13.4877158,151.654093 24.0885068,146.26947 21.5758328,138.432427 C21.5758328,138.432427 17.5192396,138.340751 16.6471813,140.476408"/>
        <path fill="#DADADA" d="M46.8973978 8.96783151C44.0688489 9.90670711 42.9260407 13.0672078 42.9260407 13.0672078 42.9260407 13.0672078 50.845118 24.3372821 52.731056 29.7843301 53.7295359 32.6687329 49.1310847 35.0865516 44.5820561 36.7235197 44.5025502 39.1263564 44.8728616 43.0944613 47.0592747 45.8201256 47.3239364 45.4619831 48.8653487 44.0807801 56.1254579 38.8727315 66.5862182 31.3688611 46.8973978 8.96783151 46.8973978 8.96783151M8.76821503 90.5240879C12.72847 87.672503 11.9513174 85.8949889 11.9513174 85.8949889-.0562271682 74.4793746 10.6964129 53.7948607 11.2214386 52.8049748 11.7901567 48.7305686 11.9677916 44.6137133 12.0053958 41.563081-12.5708906 70.0810706 8.76821503 90.5240879 8.76821503 90.5240879"/>
        <path fill="#F69A98" d="M29.4662594,42.223005 C34.1184308,42.223005 36.9068686,40.7633245 38.4855269,39.4309915 C38.9840506,39.0104238 39.3633154,38.6030545 39.6408699,38.2577538 C37.8079358,38.7503781 36.5372734,39.0161312 36.5372734,39.0161312 C35.3396706,39.8048295 33.170806,40.6912679 29.4662594,40.6912679 C25.5350133,40.6912679 23.1835,39.6928208 21.9146283,38.8727315 C21.278939,38.9201747 20.6898072,38.9740388 20.1350564,39.03147 C20.1894929,39.094252 20.2475107,39.1584608 20.3087518,39.2237397 C21.5228288,40.5132668 24.1364968,42.223005 29.4662594,42.223005"/>
        <path fill="#FFEBEB" d="M15.0409466,114.746864 C15.0409466,114.746864 14.2731055,124.68853 17.3018517,141.271884 C17.3018517,141.271884 20.3900484,142.945237 21.5758328,139.780099 C21.5758328,139.780099 19.7185456,125.298157 21.5758328,115.298703 C21.5758328,115.298703 15.1265408,111.053787 15.0409466,114.746864"/>
        <path fill="#8A8A8A" d="M41.179059,140.476408 C41.179059,140.476408 47.1402132,144.058903 45.7395479,147.856141 C44.3388826,151.654093 33.7380916,146.26947 36.2507656,138.432427 C36.2507656,138.432427 40.3073588,138.340751 41.179059,140.476408"/>
        <path fill="#FFEBEB" d="M42.7856518,114.746864 C42.7856518,114.746864 43.5531347,124.68853 40.5247466,141.271884 C40.5247466,141.271884 37.43655,142.945237 36.2507656,139.780099 C36.2507656,139.780099 38.1080528,125.298157 36.2507656,115.298703 C36.2507656,115.298703 42.7000576,111.053787 42.7856518,114.746864"/>
        <path fill="#FEBBBA" d="M44.2898181,115.035447 C44.2765671,106.252751 43.6931655,94.9580635 41.9830716,80.7989491 C41.9830716,80.7989491 38.0879972,83.1090396 28.9673775,83.5531506 C19.7364523,83.1090396 15.8410198,80.7989491 15.8410198,80.7989491 C14.1649488,94.6787551 13.5718775,105.803289 13.5364221,114.510362 C15.4040953,115.097516 18.4622086,115.6597 22.9242104,115.330808 C23.7550832,100.992622 26.3042869,94.2763799 28.9666613,94.2763799 C31.9133946,94.2763799 34.2960657,100.936261 35.0069633,115.148883 C37.2664359,115.488476 40.3277725,115.59228 44.2898181,115.035447"/>
        <path fill="#DADADA" d="M44.5820561,36.7235197 C42.8175258,37.3584736 41.0605163,37.8764247 39.6408699,38.2577538 C39.3633154,38.6030545 38.9840506,39.0104238 38.4855269,39.4309915 C36.9068686,40.7633245 34.1184308,42.223005 29.4662594,42.223005 C24.1364968,42.223005 21.5228288,40.5132668 20.3087518,39.2237397 C20.2475107,39.1584608 20.1894929,39.094252 20.1350564,39.03147 C13.5339152,39.7152939 12.4684641,41.0230135 12.4684641,41.0230135 C12.3098104,41.2035116 12.1608263,41.3829396 12.0053958,41.563081 C11.9677916,44.6137133 11.7901567,48.7305686 11.2214386,52.8049748 L11.2432848,52.7643092 C11.2432848,75.9319207 13.0651167,84.0036825 13.0651167,84.0036825 C31.1054425,88.2593002 45.867402,84.0036825 45.867402,84.0036825 C48.5856454,76.1737739 47.073242,45.9381985 47.073242,45.9381985 C47.073242,45.9381985 46.9428809,45.9781506 47.0592747,45.8201256 C44.8728616,43.0944613 44.5025502,39.1263564 44.5820561,36.7235197"/>
        <path fill="#FFEBEB" d="M11.9513174 86.9833283C11.9513174 86.9833283 19.5315992 87.6764269 18.2648763 89.4842618 18.2648763 89.4842618 17.8189984 90.2290841 16.3929055 89.4842618L15.1795447 94.0648475C15.1795447 94.0648475 11.4309475 93.7031378 8.76821503 89.3636919L11.9513174 86.9833283M44.0430632 11.1095523C44.0430632 11.1095523 37.2102088 11.3888606 37.5733575 8.96783151 37.5733575 8.96783151 37.9562036 8.13418703 39.6408699 8.96783151 39.6408699 8.96783151 38.4203464 5.34110347 36.4839113 4.61768413 36.4839113 4.61768413 34.9149227 3.41127179 37.9991798 2.68856587 41.0830788 1.96585996 45.1984061 4.73825402 46.7716924 10.5245386 46.7716924 10.5245386 46.2767501 13.020478 44.0430632 11.1095523"/>
        <path fill="#8A8A8A" d="M14.9542779,39.9218323 C14.9542779,39.9218323 16.043366,39.325047 18.1760589,39.2743934 C18.1760589,39.2743934 35.3224801,76.8957664 45.867402,86.9833283 C45.867402,86.9833283 45.8061609,88.2254123 44.2898181,88.0652469 C44.2898181,88.0652469 35.2114583,82.8711103 14.9542779,39.9218323"/>
        <path fill="#8A8A88" d="M42.8726786,88.0652469 C42.8726786,88.0652469 43.192493,108.485434 45.9526381,108.307077 C48.7127832,108.128719 52.4731989,107.468081 49.9662551,94.0648475 C47.4593113,80.6616136 42.8200327,86.036605 42.8726786,88.0652469"/>
        <path fill="#9B9B9B" d="M44.2898181,96.7919387 C44.2898181,96.7919387 47.9954392,96.9324846 49.0709181,96.0003866 C49.0709181,96.0003866 50.3422967,105.826476 47.492976,106.166783 C44.6436553,106.507089 44.2898181,96.7919387 44.2898181,96.7919387"/>
        <path fill="#8A8A8A" d="M21.4132396,10.408606 C21.4132396,10.408606 28.7707615,18.7582493 42.9263988,17.7758544 L42.3816757,22.017917 C42.3816757,22.017917 45.9888097,21.2145933 45.8641788,13.0283258 C45.7402641,4.84241499 31.4395823,-3.99806904 19.6050168,2.38678443 C19.6050168,2.38678443 16.5841495,2.7142494 14.8890974,6.47973983 C13.1944034,10.2452303 11.6436796,15.1693331 15.2955804,21.2210142 C15.2955804,21.2210142 20.9200879,15.4832429 21.4132396,10.408606"/>
        <g fill="#9B9B9B" transform="translate(21 21)">
          <path d="M14.9253544.419976439C15.0736863.453478023 15.1626854.62936134 15.170102.780118468 15.1886435 1.15701129 15.0366033 1.5506549 14.7399395 1.73491361 14.4655254 1.90660923 14.1058205 1.83960606 13.8981559 1.57996879 13.8091567 1.46690094 13.7646571 1.32870691 13.7572405 1.18632518 13.7275741 1.09838352 13.7312824 1.00206646 13.7906152.909937106 13.7980318.897374012 13.8054484.893186314 13.812865.884810918 13.849948.801056958 13.9055724.729866092 13.9834467.67123832 14.0539044.625173642 14.1280703.600047454 14.2059446.583296661 14.409901.432539533 14.6657735.369724063 14.9253544.419976439M1.72997997.703243259C1.84973912.816594392 1.92723034.968909977 1.92018568 1.14602112 1.91314103 1.5144123 1.58204219 1.81904347 1.22276472 1.82967014.87757657 1.83675459.564089371 1.55691898.500687465 1.22395003.430240903.859101067.662714557.522589892 1.01142504.426949873 1.29321128.34902097 1.58204219.465914325 1.72997997.703243259"/>
        </g>
        <path fill="#F69A98" d="M26.7960061 29.4957472C26.7960061 29.4957472 29.0210978 30.055434 31.2948958 29.4957472 31.2948958 29.4957472 29.3144102 31.6139247 26.7960061 29.4957472M12.6482478 112.625476C12.6482478 112.625476 11.5494901 115.588713 17.6191592 116.224024 24.9118587 116.987395 23.706735 113.606801 23.706735 113.606801 23.706735 113.606801 17.3566464 115.242342 12.6482478 112.625476M45.4605608 112.625476C45.4605608 112.625476 46.5593185 115.588713 40.4896494 116.224024 33.1969499 116.987395 34.4020736 113.606801 34.4020736 113.606801 34.4020736 113.606801 40.7521622 115.242342 45.4605608 112.625476"/>
        <path fill="#9B9B9B" d="M25.6557048 21.9669066L25.8347722 21.9669066C25.8344141 20.0499167 24.2743787 18.4960633 22.3497622 18.4960633 20.4251456 18.4960633 18.8651103 20.0499167 18.8651103 21.9669066 18.8651103 23.8838965 20.4251456 25.4377499 22.3497622 25.4377499 24.2743787 25.4377499 25.8344141 23.8838965 25.8347722 21.9669066L25.4766374 21.9669066C25.4762792 22.8273048 25.1267396 23.6045882 24.5608866 24.1689123 23.9943173 24.7328798 23.2139415 25.0810343 22.3497622 25.0810343 21.485941 25.0810343 20.705207 24.7328798 20.1389959 24.1689123 19.5727847 23.6045882 19.2232451 22.8273048 19.2232451 21.9669066 19.2232451 21.1061517 19.5727847 20.3288683 20.1389959 19.7649009 20.705207 19.2009334 21.485941 18.852779 22.3497622 18.852779 23.2139415 18.852779 23.9943173 19.2009334 24.5608866 19.7649009 25.1267396 20.3288683 25.4762792 21.1061517 25.4766374 21.9669066L25.6557048 21.9669066M38.7713185 21.9669066L38.9503859 21.9669066C38.9500278 20.0499167 37.3899925 18.4960633 35.4653759 18.4960633 33.5407593 18.4960633 31.980724 20.0499167 31.980724 21.9669066 31.980724 23.8838965 33.5407593 25.4377499 35.4653759 25.4377499 37.3899925 25.4377499 38.9500278 23.8838965 38.9503859 21.9669066L38.5922511 21.9669066C38.5922511 22.8273048 38.2423534 23.6045882 37.6765003 24.1689123 37.109931 24.7328798 36.3295552 25.0810343 35.4653759 25.0810343 34.6015547 25.0810343 33.8211789 24.7328798 33.2546096 24.1689123 32.6883984 23.6045882 32.3388588 22.8273048 32.3388588 21.9669066 32.3388588 21.1061517 32.6883984 20.3288683 33.2546096 19.7649009 33.8208207 19.2009334 34.6015547 18.852779 35.4653759 18.852779 36.3295552 18.852779 37.109931 19.2009334 37.6765003 19.7649009 38.2423534 20.3288683 38.5922511 21.1061517 38.5922511 21.9669066L38.7713185 21.9669066"/>
        <path fill="#9B9B9B" d="M25.7688754,22.1049556 L25.778545,22.0971078 C25.8963714,22.0061453 27.0062312,21.1924769 28.7553617,21.1931904 C29.6893774,21.1935471 30.8089068,21.4229152 32.0727646,22.1227914 L32.2468182,21.8110219 C30.9335378,21.0829652 29.7488277,20.836118 28.7553617,20.8364747 C26.7669971,20.8379016 25.5600828,21.8149457 25.5425342,21.8285009 L25.7688754,22.1049556"/>
        <polyline fill="#9B9B9B" points="19.079 21.792 15.331 21.046 15.26 21.396 19.009 22.142"/>
        <polyline fill="#9B9B9B" points="38.805 22.142 42.515 21.423 42.446 21.073 38.737 21.792"/>
      </g>
      <g transform="translate(68.458)">
        <path fill="#8A8A8A" d="M7.81630971,46.3401639 C7.81630971,46.3401639 6.95923337,46.4420375 5.81729062,46.9306792 C5.84736968,46.3745902 5.96627045,45.7777518 6.26953817,45.2778689 C6.62624046,44.6887588 7.18358779,44.3160422 7.9730747,44.1375878 C9.37794384,43.820726 10.4257568,43.9521077 11.0871423,44.529274 C11.4392443,44.8366511 11.6575829,45.2455504 11.7934695,45.6579625 C10.5913686,45.7096019 9.27142857,45.9274005 7.81630971,46.3401639 Z M26.312102,70.8716628 C24.0052148,62.0388759 23.889145,46.523185 13.2662819,45.6818501 C13.0925311,44.9336066 12.737952,44.1028103 12.0291478,43.4803279 C11.0075213,42.5838407 9.53718593,42.3435597 7.65954471,42.7675644 C6.49035387,43.0313817 5.61416848,43.6324356 5.05611341,44.5535129 C4.44250055,45.5666276 4.35332497,46.7669789 4.4060518,47.6820843 C1.81854471,49.3668618 -1.04922846,53.1098361 0.5095747,61.3289227 C3.13529989,75.1724824 2.78815213,84.8255269 11.4693233,83.3985948 C20.1504945,81.9720141 28.9611827,81.0122951 26.312102,70.8716628 L26.312102,70.8716628 Z"/>
        <path fill="#FFEBEB" d="M4.76487732,77.801171 C4.76487732,77.801171 4.10879989,84.5276347 6.73169411,84.7443794 C6.73169411,84.7443794 8.58916467,84.1113583 7.27807143,80.5763466 C7.27807143,80.5763466 9.03221156,82.1023419 8.04597219,79.0837237 C8.04597219,79.0837237 7.2784253,76.6074941 4.76487732,77.801171"/>
        <path fill="#8A8A8A" d="M13.0978391,5.21276347 C13.0978391,5.21276347 7.72005671,12.64637 11.9990687,26.6978923 C16.2780807,40.7494145 23.7093784,36.7250585 25.6556707,36.7173302 C27.6019629,36.7096019 43.6698441,42.8733021 43.0672012,12.8300937 C43.0672012,12.8300937 33.7444613,-3.97763466 13.0978391,5.21276347"/>
        <path fill="#8A8A88" d="M13.2684051,148.559719 C13.2684051,148.559719 14.2058103,150.89719 17.4493948,149.410539 C20.6926254,147.924239 25.9231974,142.999883 24.3332535,139.306792 L13.2684051,148.559719"/>
        <path fill="#9B9B9B" d="M17.6737492,140.866159 C17.6737492,140.866159 13.0436968,144.188993 12.9014406,146.805386 C12.7591843,149.42178 14.7075998,149.704567 16.4040589,149.209602 C18.1012257,148.714637 25.7551085,143.790281 24.1007601,137.944145 L17.6737492,140.866159"/>
        <path fill="#FFEBEB" d="M24.0565262,136.834075 L18.9685643,136.32541 C18.9685643,136.32541 19.2410453,138.603513 17.6737492,140.866159 C17.0615518,141.750703 16.6213359,142.5137 16.4674019,143.105621 C17.0442121,143.202927 18.1797852,143.493443 18.8570949,144.309836 C21.4711423,143.624824 24.6308593,139.546019 24.0565262,136.834075"/>
        <path fill="#8A8A88" d="M41.1378948,148.559719 C41.1378948,148.559719 40.2004896,150.89719 36.957259,149.410539 C33.7136745,147.924239 28.4827486,142.999883 30.0723386,139.306792 L41.1378948,148.559719"/>
        <path fill="#9B9B9B" d="M36.731843,140.866159 C36.731843,140.866159 41.3622492,144.188993 41.5045055,146.805386 C41.6467617,149.42178 39.6987001,149.704567 38.0015333,149.209602 C36.3047203,148.714637 28.6508375,143.790281 30.3055398,137.944145 L36.731843,140.866159"/>
        <path fill="#FFEBEB" d="M30.349066 136.834075L35.2707083 136.551639C35.2707083 136.551639 35.1649008 138.603513 36.731843 140.866159 37.3443942 141.750703 37.7846101 142.5137 37.9385442 143.105621 37.36138 143.202927 36.2261609 143.493443 35.5484973 144.309836 32.9344498 143.624824 29.7754406 139.546019 30.349066 136.834075M31.069548 37.6591335C27.2820632 36.1967213 28.7548757 31.8105386 28.7548757 31.8105386L23.8703899 31.8105386C23.8703899 31.8105386 25.3432023 36.1967213 21.5557176 37.6591335 17.7682328 39.1211944 9.35140349 39.1278689 9.56160305 43.7234192 9.77215649 48.3175644 14.0253359 72.1124122 26.312102 72.1124122 38.6002835 72.1124122 42.8531091 48.3175644 43.0636625 43.7234192 43.2738621 39.1278689 34.8570327 39.1211944 31.069548 37.6591335"/>
        <path fill="#FDDADA" d="M12.8356205 20.8798595C12.8356205 20.8798595 11.6236112 18.2894614 10.5995076 19.8512881 9.59238986 21.3867681 11.5312508 22.924356 13.6725262 24.080445 13.3020229 22.9911007 13.0419275 21.9070258 12.8614531 20.8925059L12.8356205 20.8798595M41.8038806 19.8512881C41.0925992 18.7668618 40.2914346 19.6837237 39.8678506 20.3455504 39.6979924 21.4622951 39.4357737 22.6830211 39.0337759 23.9149883 41.0490731 22.7796253 42.7632257 21.3140515 41.8038806 19.8512881"/>
        <path fill="#FFEBEB" d="M40.1360851,15.4215457 C40.1360851,15.4215457 39.115874,5.21276347 26.3453659,5.21276347 C11.415181,5.21276347 12.4856418,15.4215457 12.4856418,15.4215457 C12.4856418,15.4215457 12.3179068,17.8401639 12.8614531,20.8925059 C13.0419275,21.9070258 13.3020229,22.9911007 13.6725262,24.080445 C15.2100971,28.6025761 18.6596347,33.2051522 26.3393501,33.2051522 C34.1124875,33.2051522 37.5386696,28.4894614 39.0337759,23.9149883 C39.4357737,22.6830211 39.6979924,21.4622951 39.8678506,20.3455504 C40.2914346,17.5563232 40.1360851,15.4215457 40.1360851,15.4215457"/>
        <path fill="#8A8A8A" d="M18.9069907,10.2502342 C18.9069907,10.2502342 26.1769231,18.4728337 40.1643948,17.5053864 L39.6261565,21.682904 C39.6261565,21.682904 43.1903484,20.8918033 43.0672012,12.8300937 C42.944054,4.76873536 28.8143261,-3.93723653 17.1202944,2.35046838 C17.1202944,2.35046838 14.1353899,2.67295082 12.4608708,6.38114754 C10.7859978,10.0893443 9.25373501,14.9385246 12.8625147,20.8981265 C12.8625147,20.8981265 18.4197099,15.2476581 18.9069907,10.2502342"/>
        <path fill="#9B9B9B" d="M33.3744437 21.0447762C33.5210097 21.077691 33.6089494 21.2504935 33.6162777 21.3986099 33.6345984 21.7689009 33.4843682 22.1556493 33.1912361 22.3366805 32.9200889 22.5053686 32.5646662 22.4395391 32.3594737 22.1844497 32.2715341 22.0733624 32.2275642 21.937589 32.2202359 21.7977013 32.1909227 21.7113001 32.1945869 21.6166701 32.2532133 21.5261546 32.2605416 21.5138115 32.2678699 21.5096972 32.2751982 21.5014685 32.3118397 21.4191816 32.366802 21.3492377 32.4437492 21.2916369 32.5133681 21.2463791 32.5866511 21.221693 32.6635983 21.2052357 32.8651266 21.0571193 33.1179531 20.9954041 33.3744437 21.0447762M20.3361571 21.3230812C20.4544905 21.4344469 20.5310592 21.5840944 20.5240984 21.7581032 20.5171376 22.1200415 20.1899804 22.4193367 19.8349801 22.4297772 19.4939013 22.4367376 19.1841461 22.1618037 19.121499 21.8346671 19.0518911 21.476209 19.2815972 21.1455923 19.6261563 21.0516275 19.904588 20.9750636 20.1899804 21.0899094 20.3361571 21.3230812"/>
        <path fill="#F69A98" d="M24.2260305,29.0469555 C24.2260305,29.0469555 26.424633,29.5981265 28.6710082,29.0469555 C28.6710082,29.0469555 26.7140998,31.132904 24.2260305,29.0469555"/>
        <path fill="#CFCFCF" d="M14.6456723,76.3338407 C14.6456723,76.3338407 23.2337754,78.2044496 38.7202459,76.3338407 C38.7202459,76.3338407 35.6599667,124.30082 35.2215202,137.936768 C35.2215202,137.936768 32.1619487,139.457845 30.3193408,137.936768 C30.3193408,137.936768 30.0051031,89.4028103 26.1418899,89.4028103 C22.2790305,89.4028103 24.1018217,137.970492 24.1018217,137.970492 C24.1018217,137.970492 22.0964329,139.887822 19.1798255,137.970492 C19.1798255,137.970492 16.2908201,117.250117 14.6456723,76.3338407"/>
        <path fill="#FEBBBA" d="M42.883542,45.5711944 C42.9840414,44.8004684 43.0434918,44.1702576 43.0636625,43.7234192 C43.100819,42.9179157 42.8679716,42.2557377 42.4450954,41.6919204 C42.4450954,41.6919204 42.3690131,38.247541 30.7054144,37.5010539 C26.149675,40.1613583 22.7825894,38.5169789 21.5284695,37.6689696 C19.5351123,38.4305621 16.2840965,38.7983607 13.6721723,39.6368852 C13.6615562,39.638993 10.6674509,40.1483607 10.3259651,44.5064403 C9.75446292,51.7991803 10.711331,57.5659251 11.7283571,64.8080796 C12.0857672,67.3577283 9.87477917,72.5859485 11.2842486,74.8113583 C11.7131407,75.4882904 12.2768577,76.1813817 13.0819149,76.4177986 C13.4775431,76.5340749 13.8370763,76.3998829 14.2107644,76.4581967 C15.4248969,76.647541 16.1697961,77.7091335 17.3733124,77.9943794 C18.6882983,78.3066745 20.0220393,77.9385246 21.320747,77.6676815 C24.004861,77.107377 26.5187628,77.0785714 29.1211325,77.9687354 C30.7676957,78.5325527 32.5759782,79.3693208 34.3425038,78.8213115 C35.6178561,78.4254098 37.2732661,78.0196721 38.25809,77.0673302 C38.5486183,76.7866511 38.590729,76.3984778 38.9208909,76.1915691 C39.1293212,76.0605386 39.4552366,76.1227166 39.6817143,76.0324356 C40.683524,75.6337237 41.3335856,75.2192037 41.9259662,74.265808 C43.2345823,72.1594848 43.4985703,69.3586651 43.7024002,66.9590164 C44.1868501,61.25726 43.7940529,55.4697892 43.2940327,49.7838407 C43.1797323,48.4900468 42.7165147,46.8498829 42.883542,45.5711944"/>
        <path fill="#FEBBBA" d="M12.4612246,40.086534 C12.4612246,40.086534 5.44112541,38.6933255 2.93005453,78.1735363 C2.93005453,78.1735363 3.88196838,80.051171 8.32623828,78.1735363 C8.32623828,78.1735363 8.1680578,67.6145199 12.7025649,48.9203747 L12.4612246,40.086534"/>
        <path fill="#FFEBEB" d="M47.3978784,77.801171 C47.3978784,77.801171 48.0539558,84.5276347 45.4310616,84.7443794 C45.4310616,84.7443794 43.5735911,84.1113583 44.8846843,80.5763466 C44.8846843,80.5763466 43.1305442,82.1023419 44.1167835,79.0837237 C44.1167835,79.0837237 44.8843304,76.6074941 47.3978784,77.801171"/>
        <path fill="#FEBBBA" d="M42.6050453,42.2286885 C42.6050453,42.2286885 49.2327012,50.6813817 49.2327012,78.1735363 C49.2327012,78.1735363 48.2811412,80.051171 43.8365174,78.1735363 C43.8365174,78.1735363 44.698548,66.320726 40.163687,47.6269321 L42.6050453,42.2286885"/>
        <path fill="#8A8A8A" d="M36.4370682,31.8105386 C36.4370682,31.8105386 29.4279389,36.5501171 31.6343266,42.8757611 C34.7430862,51.7886417 33.3598032,52.8881733 29.4279389,57.809719 C29.4279389,57.809719 37.4530327,57.6881733 40.5554226,47.6276347 C43.0675551,39.4816159 44.1298768,36.9129977 44.1298768,36.9129977 C44.1298768,36.9129977 51.9936052,5.21276347 31.6343266,1.11252927 C31.6343266,1.11252927 49.7709395,20.695082 36.4370682,31.8105386"/>
        <path fill="#EF6B69" d="M15.9521652 44.5064403C15.9521652 44.2131148 15.7125943 43.9752927 15.4167579 43.9752927 15.1209215 43.9752927 14.8817045 44.2131148 14.8817045 44.5064403 14.8817045 44.8001171 15.1209215 45.0379391 15.4167579 45.0379391 15.7125943 45.0379391 15.9521652 44.8001171 15.9521652 44.5064403M24.0448484 48.9203747C24.0448484 48.6270492 23.8052775 48.3892272 23.509795 48.3892272 23.2139586 48.3892272 22.9743877 48.6270492 22.9743877 48.9203747 22.9743877 49.2140515 23.2139586 49.4518735 23.509795 49.4518735 23.8052775 49.4518735 24.0448484 49.2140515 24.0448484 48.9203747M15.1807257 58.7820843C15.1807257 58.4884075 14.9415087 58.2505855 14.6456723 58.2505855 14.3498359 58.2505855 14.110265 58.4884075 14.110265 58.7820843 14.110265 59.0754098 14.3498359 59.3132319 14.6456723 59.3132319 14.9415087 59.3132319 15.1807257 59.0754098 15.1807257 58.7820843M30.1809771 45.5694379C30.1809771 45.2757611 29.9414062 45.0379391 29.6455698 45.0379391 29.3497334 45.0379391 29.1105164 45.2757611 29.1105164 45.5694379 29.1105164 45.8627635 29.3497334 46.1005855 29.6455698 46.1005855 29.9414062 46.1005855 30.1809771 45.8627635 30.1809771 45.5694379M15.9521652 50.821897C15.9521652 50.5285714 15.7125943 50.2907494 15.4167579 50.2907494 15.1209215 50.2907494 14.8817045 50.5285714 14.8817045 50.821897 14.8817045 51.1155738 15.1209215 51.3533958 15.4167579 51.3533958 15.7125943 51.3533958 15.9521652 51.1155738 15.9521652 50.821897M20.4877339 60.7974239C20.4877339 60.5040984 20.248163 60.2662763 19.9523266 60.2662763 19.6564902 60.2662763 19.4169193 60.5040984 19.4169193 60.7974239 19.4169193 61.0911007 19.6564902 61.3289227 19.9523266 61.3289227 20.248163 61.3289227 20.4877339 61.0911007 20.4877339 60.7974239M13.7733795 69.9302108C13.7733795 69.636534 13.5338086 69.3987119 13.2379722 69.3987119 12.9421358 69.3987119 12.7025649 69.636534 12.7025649 69.9302108 12.7025649 70.2235363 12.9421358 70.4613583 13.2379722 70.4613583 13.5338086 70.4613583 13.7733795 70.2235363 13.7733795 69.9302108M29.1105164 64.8080796C29.1105164 64.5147541 28.8709455 64.2769321 28.5751091 64.2769321 28.2792726 64.2769321 28.0397017 64.5147541 28.0397017 64.8080796 28.0397017 65.1017564 28.2792726 65.3395785 28.5751091 65.3395785 28.8709455 65.3395785 29.1105164 65.1017564 29.1105164 64.8080796M22.885566 69.3987119C22.885566 69.1050351 22.6459951 68.8672131 22.3501587 68.8672131 22.0543222 68.8672131 21.8147514 69.1050351 21.8147514 69.3987119 21.8147514 69.6923888 22.0543222 69.9298595 22.3501587 69.9298595 22.6459951 69.9298595 22.885566 69.6923888 22.885566 69.3987119M32.3130518 74.5254098C32.3130518 74.2320843 32.0734809 73.9942623 31.7776445 73.9942623 31.4818081 73.9942623 31.2422372 74.2320843 31.2422372 74.5254098 31.2422372 74.8187354 31.4818081 75.0569087 31.7776445 75.0569087 32.0734809 75.0569087 32.3130518 74.8187354 32.3130518 74.5254098M27.1422841 56.2074941C27.1422841 55.9141686 26.9027132 55.6763466 26.6068768 55.6763466 26.3113942 55.6763466 26.0718233 55.9141686 26.0718233 56.2074941 26.0718233 56.501171 26.3113942 56.738993 26.6068768 56.738993 26.9027132 56.738993 27.1422841 56.501171 27.1422841 56.2074941M38.0609836 60.0867681C38.0609836 59.7934426 37.8214128 59.5556206 37.5255763 59.5556206 37.2297399 59.5556206 36.990169 59.7934426 36.990169 60.0867681 36.990169 60.380445 37.2297399 60.618267 37.5255763 60.618267 37.8214128 60.618267 38.0609836 60.380445 38.0609836 60.0867681M38.9382306 69.0962529C38.9382306 68.8029274 38.6986598 68.5651054 38.4028233 68.5651054 38.1073408 68.5651054 37.8677699 68.8029274 37.8677699 69.0962529 37.8677699 69.3895785 38.1073408 69.6277518 38.4028233 69.6277518 38.6986598 69.6277518 38.9382306 69.3895785 38.9382306 69.0962529M40.9510507 53.8190867C40.9510507 53.5257611 40.7114798 53.2875878 40.4156434 53.2875878 40.119807 53.2875878 39.8802361 53.5257611 39.8802361 53.8190867 39.8802361 54.1127635 40.119807 54.3505855 40.4156434 54.3505855 40.7114798 54.3505855 40.9510507 54.1127635 40.9510507 53.8190867"/>
        <path fill="#8A8A8A" d="M12.4612246,40.086534 C12.4612246,40.086534 14.6456723,60.2662763 11.3776707,65.3395785 L10.6582503,68.5651054 C10.6582503,68.5651054 15.9673817,66.5971897 15.9521652,53.2875878 C15.9369487,39.9779859 15.5222116,37.3545667 12.4612246,40.086534"/>
      </g>
    </g>
    <path fill="#F69A98" d="M19.3720081,0.203660638 C8.67074999,0.203660638 -8.49523258e-05,7.54574528 -8.49523258e-05,16.5987412 C-8.49523258e-05,21.8464806 3.03250231,26.1276951 7.56711045,29.1279472 L3.77462441,38.441353 L14.1728802,32.5545496 C15.5859035,32.8320539 17.8590477,32.9762887 19.3720081,32.9762887 C30.0732663,32.9762887 38.7441012,25.6519171 38.7441012,16.5987412 C38.7441012,7.54574528 30.0732663,0.203660638 19.3720081,0.203660638 L19.3720081,0.203660638 Z M33.1888686,3.66540788 C37.2827616,6.85077542 39.883636,11.4283882 39.883636,16.5811969 C39.883636,23.4149003 35.336607,29.2723507 28.7553942,32.1680116 C29.7637686,32.3697716 30.7943639,32.5018603 31.9068918,32.5018603 C33.241857,32.5018603 35.2538767,32.3777565 36.5006418,32.1328104 L45.6703081,37.3167154 L42.3229244,29.0928023 C46.3241732,26.4455177 49.024757,22.6697716 48.9999151,18.0397507 C48.9577523,10.1596282 41.826543,4.39175513 33.1888686,3.66540788 L33.1888686,3.66540788 Z M7.97665929,13.6993128 C9.5500151,13.6993128 10.8254965,14.9581198 10.8254965,16.510907 C10.8254965,18.0637055 9.5500151,19.3225125 7.97665929,19.3225125 C6.40330348,19.3225125 5.12782208,18.0637055 5.12782208,16.510907 C5.12782208,14.9581198 6.40330348,13.6993128 7.97665929,13.6993128 Z M19.3720081,13.6993128 C20.9453639,13.6993128 22.2208453,14.9581198 22.2208453,16.510907 C22.2208453,18.0637055 20.9453639,19.3225125 19.3720081,19.3225125 C17.7986523,19.3225125 16.5231709,18.0637055 16.5231709,16.510907 C16.5231709,14.9581198 17.7986523,13.6993128 19.3720081,13.6993128 Z M30.767357,13.6993128 C32.3407128,13.6993128 33.6161942,14.9581198 33.6161942,16.510907 C33.6161942,18.0637055 32.3407128,19.3225125 30.767357,19.3225125 C29.1940012,19.3225125 27.9185198,18.0637055 27.9185198,16.510907 C27.9185198,14.9581198 29.1940012,13.6993128 30.767357,13.6993128 Z" transform="translate(295 41.785)"/>
    <g transform="translate(0 17.642)">
      <rect width="3.577" height="18.712" x="34.481" y=".021" fill="#FEBBBA"/>
      <rect width="3.577" height="18.712" x="241.205" y=".021" fill="#FEBBBA"/>
      <g transform="translate(0 14.923)">
        <rect width="53.571" height="2.958" x=".66" y=".423" fill="#FBCFCE" transform="translate(176.721 89.586)"/>
        <g transform="translate(115.016 73.147)">
          <g transform="translate(93.912)">
            <path fill="#CFCFCF" d="M12.0714701,5.53716766 L11.6864203,5.53716766 C11.6864203,4.10106834 11.3252388,2.73554864 10.6671823,1.69234257 C10.0519311,0.717559524 9.23567276,0.135081561 8.4819456,0.135081561 C7.72861296,0.135081561 6.91136836,0.717559524 6.29710341,1.69273468 C5.63865241,2.73535259 5.27707641,4.10126439 5.27707641,5.53697161 L4.89202658,5.53697161 L4.54268065,7.34420212 L5.52779277,8.15057434 L6.51349668,7.34420212 L6.16316445,5.53697161 L5.77890365,5.53697161 C5.77890365,2.54400338 7.37887251,0.634040301 8.4819456,0.634040301 C9.58383513,0.634040301 11.1847903,2.54400338 11.1847903,5.53697161 L10.7999377,5.53697161 L10.4509863,7.34381001 L11.4355066,8.15057434 L12.4214078,7.34381001 L12.0714701,5.53716766 Z"/>
            <path fill="#DADADA" d="M16.4973733,16.7256067 L16.4981624,16.7256067 C16.7293501,16.7256067 16.916549,16.5299443 16.916549,16.309383 C16.916549,12.939598 16.4835652,6.96816956 15.2603613,5.75263157 C15.2392546,5.72694843 15.1370743,5.57069298 15.0122093,5.57069298 C14.8873443,5.57069298 12.2902305,5.56990876 12.2902305,5.56990876 L12.2941757,5.56990876 L12.2937811,5.56990876 L12.6297135,7.30459911 C12.6435216,7.37968799 12.6162998,7.45614925 12.5565303,7.50457472 L11.5714182,8.31133904 C11.5325581,8.34309988 11.4854132,8.35858818 11.438071,8.35878424 C11.3907288,8.35858818 11.3443729,8.34329593 11.3063019,8.31133904 L10.4182413,7.58534918 L10.3200062,7.50457472 C10.2957434,7.48457716 10.27799,7.45948218 10.2649709,7.4322306 C10.2468231,7.39321575 10.23913,7.34910349 10.2476121,7.30479517 L10.5831499,5.57010482 L10.5827554,5.57010482 L6.38587002,5.57010482 L6.38527824,5.57010482 L6.72081603,7.30479517 C6.72929817,7.34929954 6.72180233,7.39321575 6.70345723,7.4322306 C6.69043812,7.45948218 6.67288206,7.48477321 6.64861919,7.50457472 L6.55018688,7.58534918 L5.6623235,8.31133904 C5.62405523,8.34329593 5.57769934,8.35858818 5.53035714,8.35878424 C5.48321221,8.35858818 5.43587002,8.34309988 5.39720723,8.31133904 L4.41189784,7.50457472 C4.35232558,7.45634531 4.32490656,7.37968799 4.33891196,7.30459911 L4.67484427,5.56990876 L4.67425249,5.56990876 C4.67425249,5.56990876 2.07694145,5.57069298 1.95207641,5.57069298 C1.82721138,5.57069298 1.72542566,5.72694843 1.70392442,5.75263157 C0.480917774,6.96816956 0.047736711,12.939598 0.047736711,16.309383 C0.047736711,16.5299443 0.234935631,16.7256067 0.466320598,16.7256067 L0.467109635,16.7256067 L16.4973733,16.7256067 Z"/>
          </g>
          <g fill="#DADADA" transform="translate(92.672 32.25)">
            <path d="M6.31147541.447928059C5.56491803.441955685 5.04106557.97409422 4.73360656 1.79171224 4.71948087 1.8278451 3.94587432 4.49331567 3.23327869 6.94288492L16.6027869 6.94288492C15.8901913 4.49331567 15.1165847 1.8278451 15.102459 1.79171224 14.795.97409422 14.2711475.441955685 13.5245902.447928059 13.1137432.447928059 12.7639071.549458419 12.397541.671892089L9.91803279 1.56774821 7.43852459.671892089C7.07215847.549458419 6.7223224.447928059 6.31147541.447928059zM2.97270492 7.83874104C2.7331694 8.6635259 2.49934426 9.47188674 2.38784153 9.8544173L.450819672 9.8544173C.200765027 9.8544173 0 10.0538946 0 10.3023454 0 10.5507961.200765027 10.7502734.450819672 10.7502734L19.3852459 10.7502734C19.6353005 10.7502734 19.8360656 10.5507961 19.8360656 10.3023454 19.8360656 10.0538946 19.6353005 9.8544173 19.3852459 9.8544173L17.448224 9.8544173C17.3367213 9.47188674 17.1028962 8.6635259 16.8633607 7.83874104L2.97270492 7.83874104z"/>
          </g>
          <path fill="#DADADA" d="M84.1572432,38.0831679 C84.1063066,38.0602459 82.8767471,37.5096647 80.6659154,37.5096647 C79.4406957,37.5096647 78.7760072,37.6966717 78.1898935,37.864161 C77.7063383,38.000785 77.2878815,38.1187991 76.6275329,38.1187991 C75.9662706,38.1187991 75.5487274,38.000785 75.0651722,37.864161 C74.4790585,37.6966717 73.81437,37.5096647 72.5891503,37.5096647 C70.3783186,37.5096647 69.1487591,38.0602459 69.0978225,38.0831679 C69.0318104,38.1124445 68.9881831,38.1764445 68.9827012,38.2472529 L68.9185165,39.1895502 C68.9139482,39.2721601 68.9639711,39.3509118 69.0443733,39.3829118 C69.1291154,39.4155926 69.2273339,39.4805004 69.240582,39.5088692 C69.2522312,39.5424578 69.2727886,39.6461741 69.3040815,39.7950534 C69.403899,40.2748262 69.5896006,41.1683292 69.8180159,41.7631657 C70.0802367,42.4519596 70.3602738,42.7472218 71.0126279,43.0265975 C71.4016192,43.193179 72.002123,43.2968952 72.5820695,43.2968952 C73.1478542,43.2968952 73.6750367,43.1993066 74.1051427,43.0159309 C75.2275755,42.5345695 75.4961919,41.8058323 75.8379012,40.8828258 C75.8870104,40.7464287 75.9306378,40.6222869 75.9690115,40.5115352 C76.2072487,39.833181 76.2517897,39.7462591 76.6275329,39.7462591 C77.003276,39.7462591 77.0487307,39.833181 77.2860542,40.5115352 C77.3253416,40.6231947 77.3680553,40.7464287 77.4180782,40.881918 C77.7579602,41.8058323 78.0256629,42.5345695 79.1490094,43.0159309 C79.580029,43.1993066 80.1072115,43.2968952 80.6729962,43.2968952 C81.252029,43.2968952 81.8534465,43.193179 82.2433514,43.0265975 C82.8947919,42.7472218 83.1739154,42.4519596 83.4370498,41.7631657 C83.6638662,41.1719604 83.8493394,40.2809538 83.9493853,39.8023158 C83.9813635,39.6507131 84.0028345,39.5433656 84.0126564,39.5122734 C84.0286454,39.4805004 84.126864,39.4155926 84.2106924,39.3829118 C84.2910946,39.3509118 84.3411176,39.2721601 84.3365492,39.1895502 L84.2723645,38.2472529 C84.2668826,38.1764445 84.2223416,38.1124445 84.1572432,38.0831679 Z M74.7065602,41.4227404 C74.3541154,42.1471654 73.6161055,42.5159595 72.5114891,42.5159595 C71.6256946,42.5159595 71.0822946,42.3173781 70.7494935,41.8739174 C70.4271995,41.4431659 70.0382083,39.6062308 70.2926629,39.0379475 C70.5361536,38.4955365 71.662241,38.3012671 72.6355186,38.3012671 C73.6590476,38.3012671 74.8733033,38.511423 75.1213624,38.9707702 C75.3765023,39.4423728 75.2214083,40.3590247 74.7065602,41.4227404 Z M82.5055722,41.8732365 C82.1727711,42.3173781 81.6293711,42.5159595 80.7435766,42.5159595 C79.6389602,42.5159595 78.9009503,42.1471654 78.5485055,41.4227404 C78.0345711,40.3590247 77.8785635,39.4432806 78.1327897,38.9707702 C78.3817624,38.511423 79.5960181,38.3021749 80.6202323,38.3021749 C81.591911,38.3021749 82.7189121,38.4955365 82.9624028,39.0379475 C83.2168574,39.6062308 82.8278662,41.4431659 82.5055722,41.8732365 Z"/>
          <g transform="translate(33.164 2.688)">
            <polygon fill="#CFCFCF" points="5.568 41.849 6.154 41.849 6.154 24.202 5.568 24.202"/>
            <path fill="#EBEBEB" d="M9.27661254,2.77631431 C6.97374113,2.77631431 6.89700317,1.36161386 6.89700317,0.0586610666 L4.82452878,0.0586610666 C4.82452878,1.36161386 4.74779082,2.77631431 2.44510255,2.77631431 C0.142414284,2.77631431 -0.318196628,5.12177147 0.487826681,6.38759349 C1.29366685,7.6534155 2.29162663,12.1208345 2.29162663,12.1208345 L9.43008846,12.1208345 C9.43008846,12.1208345 10.4278651,7.6534155 11.2338884,6.38759349 C12.0399117,5.12177147 11.5793008,2.77631431 9.27661254,2.77631431"/>
            <path fill="#F69A98" d="M8.21949676,5.65474916 C7.08655875,5.66576403 6.13346961,6.50147305 6.00948011,7.59407732 C5.99702622,7.70316009 5.99519477,7.76942698 5.99519477,7.76942698 C5.99519477,7.76942698 5.99501162,7.72892067 5.98896782,7.6591006 C5.89739507,6.60504838 5.02617197,5.7739585 3.94030235,5.67589061 C2.44253852,5.54051428 0.646796968,6.0288995 0.847890718,7.2346727 C0.858879448,7.30076193 0.873714232,7.36827244 0.897156855,7.43862549 C1.56783565,9.45559073 1.97258718,11.2360915 2.20591454,12.4733104 C2.24016275,12.6550558 2.29821987,12.8273853 2.37459154,12.9890552 C2.41177007,12.9590308 9.30994502,12.9590308 9.34712356,12.9890552 C9.42349523,12.8273853 9.48155235,12.6550558 9.51580055,12.4733104 C9.74912791,11.2360915 10.1538794,9.45559073 10.8245582,7.43862549 C10.8478177,7.36827244 10.8626525,7.30076193 10.8736412,7.2346727 C11.0555047,6.14455566 9.60609128,5.64124706 8.21949676,5.65474916"/>
            <path fill="#FBCFCE" d="M9.34712356,12.9890552 C9.30994502,12.9590308 2.41177007,12.9590308 2.37459154,12.9890552 C-0.516726341,15.335223 1.77277545,28.4503827 1.77277545,28.4503827 L9.94893964,28.4503827 C9.94893964,28.4503827 12.2382583,15.3350453 9.34712356,12.9890552"/>
          </g>
          <path fill="#DADADA" d="M6.05325768,1.07752312 C6.05325768,1.07752312 3.54291887,0.77059696 2.43796135,0.47199422 C1.33264554,0.165241463 1.11838983,-0.116714434 0.698835596,0.0492337783 C0.287701109,0.223332008 0.0648465113,0.339513097 0.03063009,0.911574908 C-0.0121852226,1.48381012 -0.0379818963,3.08433468 0.150477137,3.58183251 C0.441943721,4.36960966 0.407548156,4.03788664 0.424745938,4.37793308 L0.407548156,5.16571023 C0.407548156,5.16571023 0.347535061,5.37292874 0.681637814,5.41454584 C1.01574057,5.45616295 2.86611447,5.5971409 3.54291887,5.60546432 C4.21990241,5.61378774 4.29693415,5.53072693 4.40836144,5.50593007 C4.52820849,5.48945664 4.80247729,5.24062102 4.80247729,5.24062102 C4.80247729,5.24062102 7.96364468,5.14126018 8.69186328,5.37327555 C9.42008188,5.60563772 11.7931967,5.69667515 12.9581673,5.54737378 C14.123138,5.39824581 15.1940582,5.34032867 15.9994877,5.03340251 C16.8135161,4.72647635 17.3444976,4.33666278 17.3616954,4.32851277 C17.3788931,4.31203933 17.6273653,4.24562536 17.5415555,3.08468149 C17.4989193,2.50412285 17.4131096,2.1975435 17.3188801,2.06454217 C17.267645,1.99015159 17.2504472,1.99015159 17.1648166,1.99847501 C17.019352,2.01494845 17.0449695,2.03142189 17.0107531,2.08951243 C16.8735291,2.30522777 13.7295595,2.54573996 12.8813147,2.20569352 C12.0334282,1.86582048 10.6540228,0.696379786 10.3541364,0.464191012 C10.0544293,0.232002238 9.54010807,0.0495805875 9.0603616,0.0579040088 C8.58061513,0.0662274301 8.57201624,0.00813688548 8.14368397,0.588695523 C7.70675281,1.16041052 7.5439113,1.12711684 6.05325768,1.07752312 L6.05325768,1.07752312 Z" transform="translate(68.02 11.24)"/>
          <rect width="131.548" height="4.437" x=".18" y="44.379" fill="#F69A98"/>
        </g>
        <g transform="translate(8.036)">
          <path fill="#F1F1F1" d="M254.946429,24.6668911 L256.050595,24.6668911 L256.050595,23.3860704 L254.946429,23.3860704 L254.946429,5.0227103 L256.604167,0.266221394 L0,0.266221394 L1.6577381,5.0227103 L1.6577381,23.3860704 L0.919642857,24.6668911 L1.6577381,25.7672729 L2.57738095,25.7672729 L2.57738095,145.836079 L13.5059524,145.836079 L9.12202381,150.737511 L9.12202381,151.698866 L73.2083333,151.698866 L73.2083333,150.737511 L69.3720238,145.836079 L256.604167,145.836079 L254.946429,24.6668911 Z M238.191156,122.303799 L97.047619,122.303799 L97.047619,56.8429159 C98.8630952,58.7567519 100.997024,58.008374 101.10119,54.5504539 L101.127976,51.2818468 L108.333333,36.9206816 L231.547619,36.9206816 C231.547619,36.9206816 235.438427,46.9862847 238.191156,54.3526968 C237.797619,58.6532214 238.191156,122.303799 238.191156,122.303799 Z"/>
          <use fill="#F5F5F5" xlink:href="#shop+students-a"/>
          <path stroke="#DADADA" stroke-width="1.485" d="M16.1979762,146.537167 L16.1979762,38.5665678 L66.1145238,38.5665678 L66.1145238,146.537167 L16.1979762,146.537167 Z"/>
          <g fill="#F69A98" transform="translate(95.574 34.043)">
            <path d="M7.32801295 20.4517191L7.30717962 23.7203262C7.16729867 28.1691815.726822476 28.1396013.560155809 23.7203262.557179618 22.6317765.557179618 21.5402688.557179618 20.4517191L4.98277486 9.84427554 7.79825105 2.88110708 13.9797987 2.88110708 7.32801295 20.4517191zM15.9917057 20.4487611L15.9917057 23.7173682 15.9917057 23.7173682C16.1583724 28.1336853 22.5988486 28.1662235 22.7327771 23.7173682L22.7387295 23.7173682 22.7595628 20.4487611 22.8071819 20.4487611 30.5452771 2.87814907 24.2833724 2.87814907 15.9917057 20.4487611zM30.9292057 20.4487611L30.9292057 23.7173682 30.9292057 23.7173682C31.0958724 28.1336853 37.5363486 28.1662235 37.6702771 23.7173682L37.6762295 23.7173682 37.6970628 20.4487611 37.7446819 20.4487611 43.8220628 2.87814907 37.5601581 2.87814907 30.9292057 20.4487611zM45.8637295 20.4487611L45.8637295 23.7173682 45.8637295 23.7173682C46.0303962 28.1336853 52.4708724 28.1662235 52.6048009 23.7173682L52.6107533 23.7173682 52.6315867 20.4487611 52.6792057 20.4487611 57.0988486 2.87814907 50.8369438 2.87814907 45.8637295 20.4487611zM61.0780152 20.4487611L61.0780152 20.4487611 61.0780152 23.7173682 61.0780152 23.7173682C61.2446819 28.1336853 67.6881343 28.1662235 67.8190867 23.7173682L67.825039 23.7173682 67.8488486 20.4487611 67.8934914 20.4487611 70.1048009 2.87814907 63.8428962 2.87814907 61.0780152 20.4487611zM76.012539 20.4487611L76.012539 20.4487611 76.012539 23.7173682 76.0155152 23.7173682C76.1792057 28.1336853 82.6226581 28.1662235 82.7536105 23.7173682L82.7595628 23.7173682 82.7833724 20.4487611 82.8309914 20.4487611 83.3845628 2.87814907 77.1226581 2.87814907 76.012539 20.4487611zM90.1226581 2.87814907L90.6762295 20.4487611 90.6762295 20.4487611 90.6762295 23.7173682 90.6792057 23.7173682C90.8428962 28.1336853 97.2863486 28.1662235 97.4173009 23.7173682L97.4232533 23.7173682 97.4470628 20.4487611 97.4946819 20.4487611 96.387539 2.87814907 90.1226581 2.87814907zM103.399444 2.87814907L105.607777 20.4487611 105.607777 20.4487611 105.607777 23.7173682 105.610753 23.7173682C105.774444 28.1336853 112.217896 28.1662235 112.351825 23.7173682L112.354801 23.7173682 112.37861 20.4487611 112.42623 20.4487611 109.661349 2.87814907 103.399444 2.87814907zM116.679206 2.87814907L120.548253 20.4487611 120.545277 20.4487611 120.545277 23.7173682 120.548253 23.7173682C120.71492 28.1336853 127.155396 28.1662235 127.289325 23.7173682L127.295277 23.7173682 127.31611 20.4487611 127.36373 20.4487611 122.944087 2.87814907 116.679206 2.87814907zM129.682182 2.87814907L135.762539 20.4487611C135.759563 21.5373108 135.759563 22.6288185 135.759563 23.7173682 135.929206 28.1336853 142.369682 28.1662235 142.50361 23.7173682 142.50361 23.7173682 142.625636 21.9484749 142.625636 20.4487611 142.50361 19.5820625 136.122658 2.87814907 136.122658 2.87814907L129.682182 2.87814907z"/>
            <polygon points="7.712 .651 135.279 .651 141.926 18.399 1.45 18.399"/>
          </g>
        </g>
        <path fill="#DADADA" d="M68.2529762,111.425485 L30.5029762,111.425485 L30.5029762,44.6187056 L68.2559524,44.6187056 L68.2559524,111.425485 L68.2529762,111.425485 Z M31.6071429,110.328062 L67.1488095,110.328062 L67.1488095,45.7161293 L31.6071429,45.7161293 L31.6071429,110.328062 Z"/>
        <g transform="translate(36.967 54.647)">
          <path fill="#CFCFCF" d="M5.68452381,5.74653668 L11.0818452,1.26898864 C11.4979167,0.923788236 12.0059524,0.75251914 12.5157738,0.752223338 C13.035119,0.75251914 13.5526786,0.930591672 13.9720238,1.28762414 L19.2880952,5.81664165 L19.6755952,5.3673191 L14.3592262,0.83859739 C13.8297619,0.387204227 13.1720238,0.160620241 12.5157738,0.160620241 C11.8717262,0.160620241 11.2258929,0.378625982 10.7005952,0.814637465 L5.30297619,5.29248131 L5.68452381,5.74653668"/>
          <polygon fill="#FEBBBA" points=".082 16.918 24.894 16.918 24.894 5.03 .082 5.03"/>
          <path fill="#FFF" d="M7.25596035,11.086062 C7.25596035,12.0349039 7.02043019,12.7724381 6.5493628,13.2986866 C6.07829541,13.8249351 5.41128983,14.0880553 4.54832604,14.0880553 C3.67480613,14.0880553 3.00384205,13.8269284 2.5354137,13.3046666 C2.06698534,12.7824049 1.83277468,12.0402196 1.83277468,11.0780886 C1.83277468,10.1159575 2.06830484,9.37709447 2.53937223,8.86147728 C3.01043962,8.34586008 3.68272319,8.08805535 4.5562431,8.08805535 C5.41656786,8.08805535 6.0815942,8.34984675 6.55134207,8.87343741 C7.02108994,9.39702807 7.25596035,10.1345622 7.25596035,11.086062 Z M2.83824122,11.086062 C2.83824122,11.8036736 2.98206636,12.3478542 3.26972096,12.7186201 C3.55737555,13.0893861 3.98357299,13.2747663 4.54832604,13.2747663 C5.11044007,13.2747663 5.53465826,13.0913794 5.82099334,12.7246002 C6.10732842,12.357821 6.25049381,11.811647 6.25049381,11.086062 C6.25049381,10.3711083 6.10864792,9.82892098 5.82495187,9.45948392 C5.54125582,9.09004686 5.11835713,8.9053311 4.5562431,8.9053311 C3.98885101,8.9053311 3.56067433,9.09004686 3.27170022,9.45948392 C2.98272611,9.82892098 2.83824122,10.3711083 2.83824122,11.086062 Z M12.3307954,9.94187595 C12.3307954,10.5505169 12.1328709,11.0169574 11.737016,11.3412115 C11.341161,11.6654656 10.7777359,11.8275902 10.0467238,11.8275902 L9.44502727,11.8275902 L9.44502727,14.0083211 L8.49893867,14.0083211 L8.49893867,8.1797497 L10.1654797,8.1797497 C10.8885747,8.1797497 11.4302281,8.32858542 11.7904561,8.62626133 C12.1506841,8.92393724 12.3307954,9.36247106 12.3307954,9.94187595 Z M9.44502727,11.0262613 L9.94776054,11.0262613 C10.4333426,11.0262613 10.7896067,10.9412123 11.0165636,10.7711118 C11.2435204,10.6010113 11.3569971,10.3352332 11.3569971,9.97376963 C11.3569971,9.63888424 11.2553959,9.38905285 11.0521903,9.22426797 C10.8489848,9.0594831 10.5323056,8.97709189 10.1021432,8.97709189 L9.44502727,8.97709189 L9.44502727,11.0262613 Z M16.7603901,14.0083211 L13.4866861,14.0083211 L13.4866861,8.1797497 L16.7603901,8.1797497 L16.7603901,8.98506532 L14.4327747,8.98506532 L14.4327747,10.5717763 L16.6139245,10.5717763 L16.6139245,11.3691185 L14.4327747,11.3691185 L14.4327747,13.1990188 L16.7603901,13.1990188 L16.7603901,14.0083211 Z M22.8327747,14.0083211 L21.6729255,14.0083211 L18.8267426,9.36380286 L18.7950744,9.36380286 L18.814867,9.62293907 C18.8518135,10.1172937 18.8702865,10.5691164 18.8702865,10.9784208 L18.8702865,14.0083211 L18.0112855,14.0083211 L18.0112855,8.1797497 L19.1592591,8.1797497 L21.9975249,12.8003477 L22.0212761,12.8003477 C22.015998,12.7392178 22.0054421,12.5166287 21.9896079,12.1325736 C21.9737737,11.7485185 21.9658567,11.4488538 21.9658567,11.2335703 L21.9658567,8.1797497 L22.8327747,8.1797497 L22.8327747,14.0083211 Z"/>
        </g>
        <path fill="#ECEBED" d="M11.8803669,0.704852833 C8.25834309,4.00599812 4.46965262,7.12374644 0.529176425,10.0433077 C4.15120023,6.74512046 7.93989071,3.63033015 11.8803669,0.704852833 Z" transform="translate(50.492 98.544)"/>
        <rect width="275" height="5.916" fill="#FEBBBA" transform="translate(0 14.494)"/>
        <path fill="#FBCFCE" d="M3.12619048,12.0642662 C3.12619048,10.6748863 1.99315476,9.54876979 0.595238095,9.54876979 L0.595238095,2.69061089 C1.99315476,2.69061089 3.12619048,1.56419859 3.12619048,0.175114517 L13.8145833,0.175114517 C13.8145833,1.56419859 14.947619,2.69061089 16.3455357,2.69061089 L16.3455357,9.54876979 C14.947619,9.54876979 13.8145833,10.6748863 13.8145833,12.0642662 L3.12619048,12.0642662 Z" transform="translate(82.143 62.535)"/>
      </g>
    </g>
    <g transform="translate(86.012 136.687)">
      <polygon fill="#E1E1E1" points=".248 46.27 30.701 46.27 30.701 .046 .248 .046"/>
      <polygon fill="#E1E1E1" points=".248 54.29 5.609 54.29 5.609 41.884 .248 41.884"/>
      <polygon fill="#E1E1E1" points="25.339 54.29 30.701 54.29 30.701 41.884 25.339 41.884"/>
      <polygon fill="#FDDADA" points="3.297 41.642 27.651 41.642 27.651 4.674 3.297 4.674"/>
      <path fill="#F69A98" d="M8.72048723 13.7517451C9.40691249 13.7517451 9.95045375 13.9322777 10.3511273 14.2933485 10.7518009 14.6544192 10.9521347 15.1466406 10.9521347 15.7700277 10.9521347 16.4921691 10.7246238 17.0561407 10.2695953 17.4619595 9.81456681 17.8677783 9.1677527 18.0706846 8.32913361 18.0706846 7.56816443 18.0706846 6.97026904 17.9487865 6.53542951 17.7049867L6.53542951 16.7189908C6.78701524 16.8609502 7.07586859 16.9705042 7.40199824 17.0476561 7.72812789 17.124808 8.03095802 17.1633833 8.31049772 17.1633833 8.80435119 17.1633833 9.18017115 17.0538293 9.43796887 16.834718 9.69576659 16.6156067 9.82466352 16.2946598 9.82466352 15.8718676 9.82466352 15.0633161 9.30596986 14.6590464 8.26856698 14.6590464 8.12258513 14.6590464 7.94244003 14.6737051 7.72812626 14.7030228 7.51381249 14.7323405 7.32590251 14.7655153 7.16439069 14.8025482L6.67519866 14.5155447 6.93610107 11.2103755 10.4769196 11.2103755 10.4769196 12.177855 7.90050821 12.177855 7.74676215 13.853585C7.85547203 13.8350686 7.98825139 13.8134664 8.14510423 13.7887778 8.30195706 13.7640892 8.49374947 13.7517451 8.72048723 13.7517451zM16.4730161 14.5942392C16.4730161 15.7700336 16.2827767 16.6433795 15.9022921 17.2143033 15.5218075 17.785227 14.9402183 18.0706846 14.1575072 18.0706846 13.399644 18.0706846 12.8250432 17.775969 12.4336877 17.1865287 12.0423321 16.5970885 11.8466572 15.7330007 11.8466572 14.5942392 11.8466572 13.3999284 12.0368967 12.5196389 12.4173813 11.9533442 12.7978659 11.3870496 13.377902 11.1039065 14.1575072 11.1039065 14.9184764 11.1039065 15.4946301 11.4001652 15.8859857 11.9926915 16.2773413 12.5852178 16.4730161 13.4523917 16.4730161 14.5942392zM12.9554925 14.5942392C12.9554925 15.5169755 13.0510005 16.1758425 13.2420193 16.57086 13.433038 16.9658775 13.7381976 17.1633833 14.1575072 17.1633833 14.5768167 17.1633833 14.8835293 16.9627915 15.0776541 16.5616018 15.2717789 16.1604121 15.3688398 15.5046312 15.3688398 14.5942392 15.3688398 13.6869333 15.2717789 13.0303808 15.0776541 12.6245621 14.8835293 12.2187433 14.5768167 12.0158369 14.1575072 12.0158369 13.7381976 12.0158369 13.433038 12.2148857 13.2420193 12.6129893 13.0510005 13.0110929 12.9554925 13.671503 12.9554925 14.5942392zM19.2159702 13.6472521C19.2159702 14.0261305 19.2530784 14.308378 19.3272959 14.494003 19.4015134 14.6796281 19.5230747 14.7724392 19.6919834 14.7724392 20.0298009 14.7724392 20.1987072 14.3973805 20.1987072 13.6472521 20.1987072 12.8971236 20.0298009 12.5220649 19.6919834 12.5220649 19.5230747 12.5220649 19.4015134 12.6148761 19.3272959 12.8005011 19.2530784 12.9861261 19.2159702 13.2683736 19.2159702 13.6472521zM20.9434375 13.6396237C20.9434375 14.2244696 20.8378711 14.6637332 20.6267352 14.9574276 20.4155992 15.2511219 20.1040184 15.3979669 19.6919834 15.3979669 19.3029814 15.3979669 19.0016374 15.2460364 18.7879422 14.9421708 18.574247 14.6383052 18.467401 14.2041271 18.467401 13.6396237 18.467401 12.4775602 18.8755911 11.8965372 19.6919834 11.8965372 20.0937815 11.8965372 20.4028031 12.0471963 20.6190575 12.3485191 20.8353119 12.6498419 20.9434375 13.0802058 20.9434375 13.6396237zM22.8705233 15.8747411C22.8705233 16.2536196 22.9082712 16.5371385 22.9837683 16.7253063 23.0592654 16.9134741 23.1814665 17.0075566 23.3503753 17.0075566 23.6856336 17.0075566 23.8532602 16.6299552 23.8532602 15.8747411 23.8532602 15.1296982 23.6856336 14.7571824 23.3503753 14.7571824 23.1814665 14.7571824 23.0592654 14.8487221 22.9837683 15.0318043 22.9082712 15.2148865 22.8705233 15.4958627 22.8705233 15.8747411zM24.5979906 15.8747411C24.5979906 16.4595871 24.4917844 16.8982149 24.2793688 17.1906379 24.0669533 17.4830609 23.7572919 17.6292702 23.3503753 17.6292702 22.9613733 17.6292702 22.6593894 17.478611 22.4444147 17.1772882 22.2294399 16.8759654 22.1219541 16.4417874 22.1219541 15.8747411 22.1219541 14.7126777 22.5314237 14.1316546 23.3503753 14.1316546 23.7444957 14.1316546 24.0509582 14.2816781 24.2697718 14.5817295 24.4885854 14.8817809 24.5979906 15.3127804 24.5979906 15.8747411zM23.4578621 11.9766353L20.3445822 17.5529863 19.5998518 17.5529863 22.7131318 11.9766353 23.4578621 11.9766353zM12.8242054 26.9477109C12.8242054 28.0494395 12.5469993 28.9058123 11.9925789 29.5168551 11.4381585 30.1278978 10.6531296 30.4334146 9.63746872 30.4334146 8.60938383 30.4334146 7.81969603 30.1302123 7.26838162 29.5237987 6.71706721 28.9173851 6.44141415 28.0556117 6.44141415 26.9384528 6.44141415 25.8212938 6.71862019 24.963378 7.27304059 24.3646796 7.82746099 23.7659811 8.61870177 23.4666364 9.64678667 23.4666364 10.6593416 23.4666364 11.442041 23.7706102 11.9949084 24.3785668 12.5477758 24.9865235 12.8242054 25.8428963 12.8242054 26.9477109zM7.62479295 26.9477109C7.62479295 27.780951 7.79406723 28.4128153 8.13262087 28.8433227 8.4711745 29.2738301 8.97278544 29.4890805 9.63746872 29.4890805 10.299046 29.4890805 10.7983275 29.2761446 11.1353281 28.8502663 11.4723288 28.424388 11.6408265 27.7902093 11.6408265 26.9477109 11.6408265 26.1175569 11.4738817 25.4880072 11.1399871 25.0590429 10.8060925 24.6300785 10.308364 24.4155996 9.64678667 24.4155996 8.97899739 24.4155996 8.47505699 24.6300785 8.13495035 25.0590429 7.79484372 25.4880072 7.62479295 26.1175569 7.62479295 26.9477109zM15.3912988 30.3408328L14.2871225 30.3408328 14.2871225 23.5731055 18.1307741 23.5731055 18.1307741 24.5081813 15.3912988 24.5081813 15.3912988 26.6236748 17.9583922 26.6236748 17.9583922 27.5633797 15.3912988 27.5633797 15.3912988 30.3408328zM20.4695779 30.3408328L19.3654016 30.3408328 19.3654016 23.5731055 23.2090532 23.5731055 23.2090532 24.5081813 20.4695779 24.5081813 20.4695779 26.6236748 23.0366713 26.6236748 23.0366713 27.5633797 20.4695779 27.5633797 20.4695779 30.3408328z"/>
    </g>
    <g transform="translate(8)">
      <polygon fill="#FEBBBA" points="0 0 256.64 0 256.64 21.183 0 21.183"/>
      <g fill="#FFF" transform="translate(61.512 4.277)">
        <rect width="1.717" height="1.695" x=".754" y="5.011"/>
        <rect width="1.717" height="1.695" x="134.66" y="5.011"/>
        <path d="M8.28926533,11.523665 L6.50174477,11.523665 L6.50174477,0.642048839 L12.7241265,0.642048839 L12.7241265,2.14552795 L8.28926533,2.14552795 L8.28926533,5.54696336 L12.4450621,5.54696336 L12.4450621,7.05788544 L8.28926533,7.05788544 L8.28926533,11.523665 Z M21.898054,11.523665 L20.796881,8.50182082 L16.580746,8.50182082 L15.5021999,11.523665 L13.6015451,11.523665 L17.7271727,0.597391044 L19.6881657,0.597391044 L23.8137934,11.523665 L21.898054,11.523665 Z M20.3217173,6.96856985 L19.2884249,4.00626942 C19.2130017,3.80778934 19.1086678,3.4951879 18.9754202,3.06845572 C18.8421726,2.64172354 18.7504091,2.3291221 18.700127,2.13064202 C18.5643652,2.74096827 18.3657538,3.40834754 18.1042868,4.13279984 L17.1087057,6.96856985 L20.3217173,6.96856985 Z M32.2712043,8.56880752 C32.2712043,9.53639792 31.9167206,10.2955728 31.2077427,10.8463551 C30.4987647,11.3971373 29.5207921,11.6725243 28.2737954,11.6725243 C27.0267987,11.6725243 26.0060869,11.4814901 25.2116294,11.0994159 L25.2116294,9.41730563 C25.7144506,9.65051972 26.2486902,9.83411105 26.8143641,9.9680851 C27.380038,10.1020592 27.9067353,10.1690452 28.3944719,10.1690452 C29.1084781,10.1690452 29.6351754,10.0350731 29.9745797,9.76712502 C30.3139841,9.49917691 30.4836837,9.13943716 30.4836837,8.68789497 C30.4836837,8.2810108 30.3278115,7.93615683 30.0160623,7.65332271 C29.7043131,7.37048859 29.0607116,7.03555848 28.0852384,6.64852231 C27.0795959,6.24660015 26.3706286,5.78762184 25.9583152,5.27157362 C25.5460018,4.75552541 25.3398482,4.13528445 25.3398482,3.41083215 C25.3398482,2.50278577 25.6666771,1.78826819 26.3203447,1.26725797 C26.9740123,0.746247757 27.8514222,0.485746556 28.9526007,0.485746556 C30.0085253,0.485746556 31.0594059,0.713995227 32.1052741,1.17049942 L31.5320607,2.62187777 C30.5515593,2.2149936 29.6766635,2.01155456 28.907347,2.01155456 C28.3240744,2.01155456 27.8815983,2.13684324 27.5799056,2.38742434 C27.2782128,2.63800545 27.1273687,2.96921412 27.1273687,3.38106029 C27.1273687,3.66389441 27.1877064,3.90578838 27.3083835,4.10674946 C27.4290606,4.30771055 27.627672,4.49750428 27.9042237,4.67613635 C28.1807753,4.85476843 28.6785609,5.09045999 29.3975953,5.38321811 C30.2071374,5.71567225 30.8004576,6.02579273 31.1775735,6.31358885 C31.5546895,6.60138497 31.831237,6.92639123 32.0072244,7.28861738 C32.1832119,7.65084353 32.2712043,8.07756931 32.2712043,8.56880752 Z M43.7455275,11.523665 L41.9353801,11.523665 L41.9353801,6.61875045 L36.8518828,6.61875045 L36.8518828,11.523665 L35.0492777,11.523665 L35.0492777,0.642048839 L36.8518828,0.642048839 L36.8518828,5.09294244 L41.9353801,5.09294244 L41.9353801,0.642048839 L43.7455275,0.642048839 L43.7455275,11.523665 Z M47.2929135,11.523665 L47.2929135,0.642048839 L49.0955187,0.642048839 L49.0955187,11.523665 L47.2929135,11.523665 Z M62.4403275,6.06797098 C62.4403275,7.83940571 61.9915663,9.21634064 61.0940304,10.198817 C60.1964945,11.1812935 58.9256329,11.6725243 57.2814075,11.6725243 C55.6170692,11.6725243 54.3386653,11.1850149 53.4461576,10.2099815 C52.55365,9.23494809 52.1074028,7.84932979 52.1074028,6.05308504 C52.1074028,4.25684029 52.556164,2.87742441 53.4536999,1.91479601 C54.3512358,0.952167605 55.6321537,0.470860624 57.296492,0.470860624 C58.9356892,0.470860624 60.2027798,0.959610497 61.0978016,1.9371249 C61.9928234,2.91463931 62.4403275,4.29157423 62.4403275,6.06797098 Z M54.0231421,6.06797098 C54.0231421,7.40771153 54.2971756,8.42366622 54.8452507,9.11586551 C55.3933259,9.8080648 56.20537,10.1541593 57.2814075,10.1541593 C58.3524167,10.1541593 59.1606897,9.81178624 59.7062507,9.12702996 C60.2518118,8.44227367 60.5245882,7.42259754 60.5245882,6.06797098 C60.5245882,4.73319242 60.2543258,3.72095918 59.713793,3.03124089 C59.1732602,2.3415226 58.3675012,1.99666863 57.296492,1.99666863 C56.2154264,1.99666863 55.3996111,2.3415226 54.8490219,3.03124089 C54.2984326,3.72095918 54.0231421,4.73319242 54.0231421,6.06797098 Z M74.6387097,11.523665 L72.4288214,11.523665 L67.0059215,2.85260971 L66.9455833,2.85260971 L66.9832947,3.33640249 C67.0536897,4.25933488 67.0888866,5.10286258 67.0888866,5.8670109 L67.0888866,11.523665 L65.4522117,11.523665 L65.4522117,0.642048839 L67.6394731,0.642048839 L73.0472885,9.26844631 L73.0925422,9.26844631 C73.0824857,9.15432026 73.0623732,8.73875882 73.0322039,8.02174952 C73.0020346,7.30474022 72.9869502,6.74528288 72.9869502,6.34336071 L72.9869502,0.642048839 L74.6387097,0.642048839 L74.6387097,11.523665 Z M89.2078822,8.56880752 C89.2078822,9.53639792 88.8533985,10.2955728 88.1444206,10.8463551 C87.4354426,11.3971373 86.45747,11.6725243 85.2104733,11.6725243 C83.9634767,11.6725243 82.9427649,11.4814901 82.1483073,11.0994159 L82.1483073,9.41730563 C82.6511285,9.65051972 83.1853681,9.83411105 83.751042,9.9680851 C84.3167159,10.1020592 84.8434132,10.1690452 85.3311498,10.1690452 C86.045156,10.1690452 86.5718533,10.0350731 86.9112577,9.76712502 C87.250662,9.49917691 87.4203616,9.13943716 87.4203616,8.68789497 C87.4203616,8.2810108 87.2644894,7.93615683 86.9527402,7.65332271 C86.640991,7.37048859 85.9973895,7.03555848 85.0219163,6.64852231 C84.0162738,6.24660015 83.3073065,5.78762184 82.8949931,5.27157362 C82.4826797,4.75552541 82.2765261,4.13528445 82.2765261,3.41083215 C82.2765261,2.50278577 82.603355,1.78826819 83.2570226,1.26725797 C83.9106902,0.746247757 84.7881001,0.485746556 85.8892786,0.485746556 C86.9452032,0.485746556 87.9960838,0.713995227 89.041952,1.17049942 L88.4687387,2.62187777 C87.4882372,2.2149936 86.6133414,2.01155456 85.8440249,2.01155456 C85.2607523,2.01155456 84.8182762,2.13684324 84.5165835,2.38742434 C84.2148908,2.63800545 84.0640466,2.96921412 84.0640466,3.38106029 C84.0640466,3.66389441 84.1243843,3.90578838 84.2450614,4.10674946 C84.3657385,4.30771055 84.5643499,4.49750428 84.8409016,4.67613635 C85.1174532,4.85476843 85.6152388,5.09045999 86.3342732,5.38321811 C87.1438154,5.71567225 87.7371355,6.02579273 88.1142515,6.31358885 C88.4913674,6.60138497 88.7679149,6.92639123 88.9439023,7.28861738 C89.1198898,7.65084353 89.2078822,8.07756931 89.2078822,8.56880752 Z M95.7948074,11.523665 L93.9922023,11.523665 L93.9922023,2.16785685 L90.7490215,2.16785685 L90.7490215,0.642048839 L99.0379882,0.642048839 L99.0379882,2.16785685 L95.7948074,2.16785685 L95.7948074,11.523665 Z M110.851714,6.06797098 C110.851714,7.83940571 110.402953,9.21634064 109.505417,10.198817 C108.607881,11.1812935 107.337019,11.6725243 105.692794,11.6725243 C104.028456,11.6725243 102.750052,11.1850149 101.857544,10.2099815 C100.965036,9.23494809 100.518789,7.84932979 100.518789,6.05308504 C100.518789,4.25684029 100.967551,2.87742441 101.865086,1.91479601 C102.762622,0.952167605 104.04354,0.470860624 105.707879,0.470860624 C107.347076,0.470860624 108.614166,0.959610497 109.509188,1.9371249 C110.40421,2.91463931 110.851714,4.29157423 110.851714,6.06797098 Z M102.434529,6.06797098 C102.434529,7.40771153 102.708562,8.42366622 103.256637,9.11586551 C103.804712,9.8080648 104.616757,10.1541593 105.692794,10.1541593 C106.763803,10.1541593 107.572076,9.81178624 108.117637,9.12702996 C108.663198,8.44227367 108.935975,7.42259754 108.935975,6.06797098 C108.935975,4.73319242 108.665712,3.72095918 108.12518,3.03124089 C107.584647,2.3415226 106.778888,1.99666863 105.707879,1.99666863 C104.626813,1.99666863 103.810998,2.3415226 103.260408,3.03124089 C102.709819,3.72095918 102.434529,4.73319242 102.434529,6.06797098 Z M115.666203,5.70326565 L116.918222,5.70326565 C117.757933,5.70326565 118.366338,5.54944589 118.743454,5.24180176 C119.12057,4.93415763 119.309125,4.47766029 119.309125,3.87229604 C119.309125,3.25700778 119.105485,2.81539622 118.6982,2.54744811 C118.290915,2.2795 117.677482,2.14552795 116.857884,2.14552795 L115.666203,2.14552795 L115.666203,5.70326565 Z M115.666203,7.17697289 L115.666203,11.523665 L113.863598,11.523665 L113.863598,0.642048839 L116.97856,0.642048839 C118.401544,0.642048839 119.454939,0.905031004 120.138776,1.43100322 C120.822613,1.95697544 121.164526,2.75088387 121.164526,3.81275231 C121.164526,5.16737888 120.450531,6.1324738 119.022518,6.70806604 L122.13748,11.523665 L120.08598,11.523665 L117.446182,7.17697289 L115.666203,7.17697289 Z M130.617518,11.523665 L124.380052,11.523665 L124.380052,0.642048839 L130.617518,0.642048839 L130.617518,2.14552795 L126.182657,2.14552795 L126.182657,5.10782837 L130.338454,5.10782837 L130.338454,6.59642155 L126.182657,6.59642155 L126.182657,10.0127429 L130.617518,10.0127429 L130.617518,11.523665 Z"/>
      </g>
    </g>
  </g>
</svg>
