<svg xmlns="http://www.w3.org/2000/svg" width="58" height="58" viewBox="0 0 58 58">
  <g fill="none" fill-rule="evenodd" transform="translate(2 7)">
    <ellipse cx="22" cy="21" fill="#F1F1F1" rx="21" ry="21"/>
    <rect width="4.878" height="3.334" x="20.487" y="32.868" fill="#FFEBEB"/>
    <path fill="#FBCFCE" d="M19.9956302,35.9822268 C19.9956302,35.9822268 17.173562,35.9528783 15.1903969,36.9829743 C13.2072317,38.0130702 11.5453502,40.2769709 11.5453502,40.2769709 C11.5453502,40.2769709 15.6638969,43.1030344 22.6002598,42.9035433 C29.5366227,42.7040522 33.1777026,39.8495158 33.1777026,39.8495158 C33.1777026,39.8495158 31.4700121,37.7250652 30.0207809,36.9829743 C28.5715498,36.2408833 27.9695855,35.9982827 24.9964575,35.9982827 L19.9956302,35.9822268 Z"/>
    <g transform="translate(7.48 9.069)">
      <path fill="#9B9B9B" d="M23.5872744,2.04166436 C23.4602548,2.31033976 23.3305326,2.57901516 23.203513,2.8450038 C23.1359493,2.98740176 23.1981079,3.1136792 23.3386402,3.17278779 C25.3709542,4.0244888 26.7600625,5.7359511 27.2221977,7.85042649 C27.0141018,7.81549869 26.8060058,7.78325764 26.6006123,7.74832984 C26.3925163,7.71340203 26.2357687,7.93908937 26.3898138,8.10835487 C27.4032683,9.20723725 27.6924406,10.6339036 27.743789,12.0847508 C27.7681119,12.7671863 27.7491941,13.4523086 27.6816304,14.1293706 C27.6735228,14.1992262 27.2140901,16.7301484 27.0438297,16.5447624 C26.9168101,16.4077379 26.733037,16.5313286 26.7141192,16.6791001 C26.6222327,17.3615356 26.4114342,17.9042599 26.0411855,18.4254902 C26.2411738,17.2621257 26.251984,16.0557732 26.0979389,14.8736014 C26.0871287,14.7822518 26.0330778,14.7177697 25.9655142,14.6828419 L26.073616,14.6828419 C26.3492756,14.8762882 26.7897905,14.7016492 27.0168043,14.4867088 C27.3924581,14.1401176 27.4924523,13.5544052 27.4275912,13.0707895 C27.2924639,12.082064 26.2438764,11.3136524 25.3114982,11.918172 C25.2169092,11.9826541 25.2033964,12.0847508 25.235827,12.1680402 C25.2304219,12.1707269 25.2277193,12.1707269 25.2250168,12.1734137 C24.9466546,12.4259685 24.6818052,12.6919572 24.4223609,12.9606326 C24.457494,12.1465461 24.2466954,11.4076888 23.7629398,10.6849519 C23.6710533,10.5452407 23.4683624,10.5721083 23.4143115,10.7306268 C23.3899886,10.7763016 23.3629631,10.8219764 23.3359377,10.870338 C23.2872919,10.204023 23.0602781,9.59412983 22.6494912,9.01110421 C22.5927377,8.93318835 22.4765283,8.87945327 22.3846417,8.94393536 C20.9874259,9.92460057 19.4604878,10.5156864 17.7768021,10.7037592 C17.8930116,10.4646381 17.9713854,10.225517 18.0335439,9.92460057 C18.0659744,9.76608208 17.8930116,9.59412983 17.7362639,9.69891323 C15.7931339,10.9778081 13.5770468,11.5957616 11.2717757,11.579641 C11.6041888,11.3243994 11.8771458,11.0261697 12.1338876,10.6473374 C12.2122614,10.5291202 12.1474004,10.4162765 12.0474062,10.3706017 C12.0582164,10.3652282 12.0690266,10.3625415 12.0798367,10.357168 C12.1365902,10.3329872 12.1365902,10.2416375 12.0636215,10.2443243 C10.3069671,10.2604448 8.48274901,10.8139161 6.76663278,11.1658809 C4.86133839,11.558147 2.63984619,12.3211851 0.837248517,11.3432067 C1.49126447,10.9939287 2.02366588,10.542554 2.43175021,9.89235952 C2.46958584,9.82787742 2.45877566,9.75802182 2.41823748,9.70697349 C2.50742148,9.63980465 2.51552911,9.48934642 2.37769931,9.45710537 C1.26154812,9.18842997 2.21824914,8.0250655 2.61282074,7.33994323 C3.07225343,6.54466405 3.61005994,5.79505968 4.22083516,5.10456391 C5.40725252,3.76924717 6.85311423,2.65155751 8.47193883,1.87777236 C12.2933378,0.0480928964 16.7065942,0.284527248 20.4820499,2.08465242 C20.6550128,2.1679418 20.8225706,2.06315839 20.8414884,1.87777236 C20.8658113,1.64671152 20.8928368,1.41565068 20.9171597,1.18458983 C21.6765749,1.84015781 22.5819276,2.12226698 23.5872744,2.04166436"/>
      <path fill="#FFEBEB" d="M22.2116789,9.54576826 C23.0386577,9.44904511 23.0116322,11.023483 22.9467712,11.5930748 C22.9305559,11.7515933 23.1656773,11.8429429 23.268374,11.7247257 C23.4224191,11.5447132 23.5332235,11.3781345 23.6278126,11.1927485 C24.011574,11.896678 24.1277834,12.6059811 23.9926562,13.4415615 C23.9656307,13.6081403 24.1710242,13.7827793 24.308854,13.6242608 C24.6872103,13.1970669 25.0493514,12.7618128 25.3871695,12.3050646 C25.4304102,12.3104381 25.473651,12.3077514 25.5222968,12.2755103 C26.2141484,11.8241356 26.9141076,12.4179083 27.0195068,13.1245246 C27.0708552,13.4657423 27.030317,13.8365144 26.822221,14.1186235 C26.5898021,14.4329738 26.3546807,14.3899857 26.0276727,14.4867088 C25.9709193,14.5055161 25.9574066,14.5699982 25.9952422,14.6129863 C26.0195651,14.6398538 26.0465906,14.6640346 26.073616,14.6828419 L25.9655142,14.6828419 C25.8195768,14.6076128 25.6060757,14.6694081 25.6331011,14.8736014 C26.0087549,17.8693321 25.3628466,21.004774 23.1197341,23.1702977 C20.8009502,25.4137373 17.711941,25.4352314 14.6796853,25.3116407 C11.8825509,25.198797 8.92866898,24.9354951 6.56394189,23.2938884 C3.76140247,21.3513653 3.46682504,18.2078631 3.08306361,15.1100358 C3.06955089,14.9864451 2.88577781,14.9783848 2.88307527,15.1100358 L2.88307527,15.1154093 C2.32635095,14.8843484 1.73449354,14.5538777 1.56963828,13.9332375 C1.36154229,13.1487054 1.91826661,12.5468725 2.70740983,12.6194148 C2.91010072,12.6382221 2.91820835,12.3534262 2.75335309,12.2916308 C2.71822001,12.2781971 2.68308692,12.2701368 2.64795383,12.2593898 C3.46412249,12.2835706 4.30461406,12.1331123 5.14240309,11.9638468 C7.27741383,11.5339662 9.68538165,11.2679776 11.7366135,10.4861322 C11.3852826,10.9751214 10.9961161,11.3055921 10.4637147,11.5877013 C10.2637263,11.6951714 10.3718281,11.9772806 10.574519,11.9907144 C13.0689683,12.1411726 15.3877521,11.5527735 17.5146552,10.3061196 C17.438984,10.4968792 17.3389898,10.6795784 17.2092676,10.8515307 C17.1281912,10.9804949 17.2335905,11.1793147 17.3930407,11.1685677 C18.5064893,11.0825915 19.5793998,10.8649645 20.6090695,10.4270236 C21.0549895,10.236264 21.7657589,9.59950334 22.2116789,9.54576826 Z"/>
      <path fill="#AAA" d="M26.2627942 13.403947C26.192528 13.436188 26.1249644 13.4711158 26.0628058 13.5248509 25.9601091 13.6135138 25.9114633 13.7236707 25.835792 13.8311409 25.7790386 13.9117435 25.6060757 13.895623 25.622291 13.774719 25.6520189 13.5355979 25.8628175 13.272296 26.0979389 13.1460186 25.9790269 13.0304882 25.8195768 12.9552591 25.6466139 12.9257048 25.5439171 12.9068975 25.5466197 12.7430055 25.6466139 12.7241982 25.7790386 12.6973307 25.8817353 12.6946439 26.01416 12.7403188 26.133072 12.7833068 26.2384713 12.8451022 26.3303578 12.9257048 26.5303462 13.0922835 26.6519607 13.3475252 26.6519607 13.6054535 26.6492581 13.8284541 26.3087374 13.8257674 26.3033324 13.6054535 26.3006298 13.5329112 26.2844145 13.4657423 26.2627942 13.403947M22.4035596 15.2524337C22.5630097 15.5855912 22.5684148 15.95905 22.4143697 16.297581 22.3251858 16.4883406 21.9981778 16.3486294 22.0711465 16.1524963 22.1711407 15.8891944 22.1765458 15.6258925 22.0657414 15.3625906 21.9576396 15.1127225 21.7306258 14.9810716 21.6063087 14.7526975 21.5982011 14.7338902 21.6063087 14.7097094 21.6252265 14.7070227 21.9711523 14.6264201 22.2657298 14.9622643 22.4035596 15.2524337M21.3333516 15.3169158C21.4414535 15.3384099 21.5063145 15.4512535 21.5117196 15.5479767 21.5252324 15.7897845 21.414428 16.0423394 21.1982244 16.1605566 20.998236 16.2707135 20.7360891 16.2277254 20.5847466 16.0611467 20.5198855 15.9886043 20.487455 15.8999414 20.4820499 15.8085918 20.4604295 15.75217 20.4631321 15.6903746 20.5063728 15.631266 20.5117779 15.6232058 20.517183 15.620519 20.5225881 15.6151455 20.5496135 15.5614104 20.5901517 15.5157356 20.6469052 15.4781211 20.6982535 15.4485668 20.7523044 15.4324463 20.8090579 15.4216992 20.9576979 15.3249761 21.1441735 15.2846748 21.3333516 15.3169158M16.249864 19.4921315C16.1606801 20.1557598 15.2012765 20.5104113 14.7202234 20.0187353 14.5418554 19.836036 14.8040023 19.5969149 14.9958831 19.7446864 15.2769478 19.9650002 15.8201594 19.8306625 15.8742103 19.4410832 15.9336663 19.0407569 15.4931514 18.8446238 15.144523 18.8688046 15.0472314 19.0622509 14.7283311 18.9816483 14.7985972 18.7586477 15.4688285 16.5984975 15.3985623 14.6129863 14.6202293 12.4904506 14.574286 12.3614864 14.782382 12.2781971 14.8445405 12.3964142 15.8201594 14.2852023 15.9633942 16.5286419 15.2715427 18.5302736 15.7661084 18.4765385 16.3174277 18.9762748 16.249864 19.4921315M19.0983467 22.2782954C16.9822538 23.8043717 14.0013464 24.030059 11.798772 22.5389106 11.6636448 22.4475609 11.7798542 22.2568014 11.9257917 22.3239702 14.2526831 23.4147924 16.7228095 23.363744 18.8632253 21.8752823 19.1118595 21.7006433 19.3388733 22.1036564 19.0983467 22.2782954M9.16108787 15.402892C9.25297441 15.4888681 9.3124304 15.6043985 9.30702531 15.7387362 9.30162022 16.0181586 9.04758097 16.2492195 8.77192135 16.2572797 8.50707192 16.2626532 8.26654539 16.0503997 8.21789958 15.7978448 8.16384867 15.5211091 8.34221666 15.2658675 8.60976864 15.1933251 8.82597226 15.1342166 9.04758097 15.2228794 9.16108787 15.402892M7.39362328 16.3459426C6.89365241 15.9912911 6.86122187 15.2067589 7.34768001 14.8225531 7.5503709 14.6640346 7.8368407 14.9461438 7.63414981 15.107349 7.31795201 15.3545304 7.29092656 15.8220256 7.57469381 16.1095083 7.6936058 16.2277254 7.53415563 16.4453525 7.39362328 16.3459426M2.14528041 14.2045997C1.95610225 13.8150203 2.0128557 13.1164643 2.50201639 12.9633193 2.60471311 12.9310783 2.71551746 13.0600425 2.64795383 13.1513921 2.56417493 13.2669225 2.46418075 13.3582722 2.39391458 13.4764893 2.4966113 13.5006701 2.59660547 13.5355979 2.6938971 13.5812728 2.71551746 13.5758992 2.73984037 13.5812728 2.76146073 13.5973933L2.98847453 13.7693455C2.99658217 13.7774058 3.0046898 13.7800925 3.01279744 13.7881528 3.12900688 13.8875627 2.96415162 14.0460812 2.84794218 13.9520448 2.77227091 13.8929362 2.69930219 13.8338276 2.62363092 13.774719 2.60471311 13.7585985 2.59660547 13.7397912 2.59120038 13.720984 2.51552911 13.6672489 2.43175021 13.6215741 2.33986367 13.5839595 2.27500259 13.763972 2.27770513 13.9412978 2.34256622 14.1213103 2.38580694 14.2368407 2.19662877 14.3147566 2.14528041 14.2045997"/>
      <path fill="#9B9B9B" d="M20.4820499,2.08465242 C16.7065942,0.284527248 12.2933378,0.0480928964 8.47193883,1.87777236 C6.85311423,2.65155751 5.40725252,3.76924717 4.22083516,5.10456391 C3.61005994,5.79505968 3.07225343,6.54466405 2.61282074,7.33994323 C2.21824914,8.0250655 1.26154812,9.18842997 2.37769931,9.45710537 C2.51552911,9.48934642 2.50742148,9.63980465 2.41823748,9.70697349 C2.45877566,9.75802182 2.46958584,9.82787742 2.43175021,9.89235952 C2.02366588,10.542554 1.49126447,10.9939287 0.837248517,11.3432067 C2.63984619,12.3211851 4.86133839,11.558147 6.76663278,11.1658809 C8.48274901,10.8139161 10.3069671,10.2604448 12.0636215,10.2443243 C12.1365902,10.2416375 12.1365902,10.3329872 12.0798367,10.357168 C12.0690266,10.3625415 12.0582164,10.3652282 12.0474062,10.3706017 C12.1474004,10.4162765 12.2122614,10.5291202 12.1338876,10.6473374 C11.8771458,11.0261697 11.6041888,11.3243994 11.2717757,11.579641 C13.5770468,11.5957616 15.7931339,10.9778081 17.7362639,9.69891323 C17.8930116,9.59412983 18.0659744,9.76608208 18.0335439,9.92460057 C17.9713854,10.225517 17.8930116,10.4646381 17.7768021,10.7037592 C19.4604878,10.5156864 20.9874259,9.92460057 22.3846417,8.94393536 C22.4765283,8.87945327 22.5927377,8.93318835 22.6494912,9.01110421 C23.0602781,9.59412983 23.2872919,10.204023 23.3359377,10.870338 C23.3629631,10.8219764 23.3899886,10.7763016 23.4143115,10.7306268 C23.4683624,10.5721083 23.6710533,10.5452407 23.7629398,10.6849519 C24.2466954,11.4076888 24.457494,12.1465461 24.4223609,12.9606326 C24.6818052,12.6919572 24.9466546,12.4259685 25.2250168,12.1734137 C25.2277193,12.1707269 25.2304219,12.1707269 25.235827,12.1680402 C25.2033964,12.0847508 25.2169092,11.9826541 25.3114982,11.918172 C26.2438764,11.3136524 27.2924639,12.082064 27.4275912,13.0707895 C27.4924523,13.5544052 27.3924581,14.1401176 27.0168043,14.4867088 C26.7897905,14.7016492 26.3492756,14.8762882 26.073616,14.6828419 C26.0465906,14.6640346 26.0195651,14.6398538 25.9952422,14.6129863 C25.9574066,14.5699982 25.9709193,14.5055161 26.0276727,14.4867088 C26.3546807,14.3899857 26.5898021,14.4329738 26.822221,14.1186235 C27.030317,13.8365144 27.0708552,13.4657423 27.0195068,13.1245246 C26.9141076,12.4179083 26.2141484,11.8241356 25.5222968,12.2755103 C25.473651,12.3077514 25.4304102,12.3104381 25.3871695,12.3050646 C25.0493514,12.7618128 24.6872103,13.1970669 24.308854,13.6242608 C24.1710242,13.7827793 23.9656307,13.6081403 23.9926562,13.4415615 C24.1277834,12.6059811 24.011574,11.896678 23.6278126,11.1927485 C23.5332235,11.3781345 23.4224191,11.5447132 23.268374,11.7247257 C23.1656773,11.8429429 22.9305559,11.7515933 22.9467712,11.5930748 C23.0116322,11.023483 23.0386577,9.44904511 22.2116789,9.54576826 C21.7657589,9.59950334 21.0549895,10.236264 20.6090695,10.4270236 C19.5793998,10.8649645 18.5064893,11.0825915 17.3930407,11.1685677 C17.2335905,11.1793147 17.1281912,10.9804949 17.2092676,10.8515307 C17.3389898,10.6795784 17.438984,10.4968792 17.5146552,10.3061196 C15.3877521,11.5527735 13.0689683,12.1411726 10.574519,11.9907144 C10.3718281,11.9772806 10.2637263,11.6951714 10.4637147,11.5877013 C10.9961161,11.3055921 11.3852826,10.9751214 11.7366135,10.4861322 C9.68538165,11.2679776 7.27741383,11.5339662 5.14240309,11.9638468 C4.30461406,12.1331123 3.46412249,12.2835706 2.64795383,12.2593898 C2.68308692,12.2701368 2.71822001,12.2781971 2.75335309,12.2916308 C2.91820835,12.3534262 2.91010072,12.6382221 2.70740983,12.6194148 C1.91826661,12.5468725 1.36154229,13.1487054 1.56963828,13.9332375 C1.73449354,14.5538777 2.32635095,14.8843484 2.88307527,15.1154093 L2.88307527,15.1100358 C2.88577781,14.9783848 3.06955089,14.9864451 3.08306361,15.1100358 C3.46682504,18.2078631 3.76140247,21.3513653 6.56394189,23.2938884 C8.92866898,24.9354951 11.8825509,25.198797 14.6796853,25.3116407 C17.711941,25.4352314 20.8009502,25.4137373 23.1197341,23.1702977 C25.3628466,21.004774 26.0087549,17.8693321 25.6331011,14.8736014 C25.6060757,14.6694081 25.8195768,14.6076128 25.9655142,14.6828419 C26.0330778,14.7177697 26.0871287,14.7822518 26.0979389,14.8736014 C26.251984,16.0557732 26.2411738,17.2621257 26.0411855,18.4254902 C26.4114342,17.9042599 26.6222327,17.3615356 26.7141192,16.6791001 C26.733037,16.5313286 26.9168101,16.4077379 27.0438297,16.5447624 C27.2140901,16.7301484 27.6735228,14.1992262 27.6816304,14.1293706 C27.7491941,13.4523086 27.7681119,12.7671863 27.743789,12.0847508 C27.6924406,10.6339036 27.4032683,9.20723725 26.3898138,8.10835487 C26.2357687,7.93908937 26.3925163,7.71340203 26.6006123,7.74832984 C26.8060058,7.78325764 27.0141018,7.81549869 27.2221977,7.85042649 C26.7600625,5.7359511 25.3709542,4.0244888 23.3386402,3.17278779 C23.1981079,3.1136792 23.1359493,2.98740176 23.203513,2.8450038 C23.3305326,2.57901516 23.4602548,2.31033976 23.5872744,2.04166436 C22.5819276,2.12226698 21.6765749,1.84015781 20.9171597,1.18458983 C20.8928368,1.41565068 20.8658113,1.64671152 20.8414884,1.87777236 C20.8225706,2.06315839 20.6550128,2.1679418 20.4820499,2.08465242 Z M23.2899944,23.6270459 C20.8847291,25.8194372 17.7632894,25.8677988 14.6796853,25.7361478 C11.5933786,25.6044969 8.29897594,25.2713394 5.82344449,23.2482136 C3.48574286,21.3352448 2.85875236,18.2696585 2.88037272,15.3894582 C1.95880479,15.3007953 1.1291234,14.6264201 1.09939541,13.6511284 C1.07777504,12.9821266 1.57504337,12.3158116 2.21824914,12.2298355 C1.54801792,12.1572931 0.896704512,11.9477263 0.280524196,11.5097854 C0.161612206,11.426496 0.115668936,11.208869 0.280524196,11.1363266 C1.03453432,10.8031691 1.58585355,10.3249269 2.1263626,9.70966025 C1.88313353,9.67473245 1.642607,9.63711789 1.39937793,9.59681658 C1.31019393,9.58069606 1.24533285,9.46247888 1.27506085,9.37650275 C4.02084681,1.72462739 13.0419428,-2.02608118 20.4036761,1.51774733 C20.4361066,1.24101167 20.4685372,0.964276007 20.5009677,0.687540346 C20.5225881,0.502154321 20.7496019,0.357069605 20.9009444,0.520961599 C21.6927902,1.38609638 22.7332701,1.75955519 23.9088773,1.54998838 C24.1088656,1.51506058 24.2521005,1.69775985 24.1656191,1.88314587 C23.6170024,3.01964281 23.9386053,2.84231705 24.8628757,3.48713801 C25.3520364,3.82835576 25.7898488,4.23405561 26.1736102,4.68811704 C26.9978865,5.66340874 27.4978573,6.80259243 27.7059533,8.05730654 C27.7356813,8.22657205 27.6113643,8.35284948 27.4384014,8.32329519 C27.3113817,8.30180116 27.1843621,8.28030713 27.0573425,8.25881309 C28.1870064,9.84937146 28.2491649,11.9772806 28.1005249,13.8741289 C28.0680944,14.277142 27.8464857,17.3292946 27.0357221,17.0203179 C26.8627592,17.8129103 26.5222385,18.4577312 25.9628117,19.0837449 C25.9411913,19.1079257 25.9168684,19.1213595 25.8925455,19.1294197 C25.4790561,20.8247615 24.641267,22.3965126 23.2899944,23.6270459 L23.2899944,23.6270459 Z"/>
    </g>
    <g transform="translate(29.652 31.918)">
      <path fill="#FEBBBA" d="M1.84342026,11.4061437 C2.0581075,11.6721685 2.29306242,11.9248178 2.54528239,12.1581468 C3.05572758,12.6307495 3.63673431,13.0283006 4.27253883,13.334452 C4.63435439,13.5075911 5.01418567,13.6517498 5.40827938,13.7624696 C5.74982726,13.8583277 6.10263497,13.9304071 6.46369987,13.9742491 C6.748198,14.0084311 7.03870137,14.0284944 7.33295801,14.0284944 C7.62721464,14.0284944 7.9162167,14.0084311 8.20071483,13.9742491 C8.56253039,13.929664 8.91458744,13.8583277 9.25688598,13.7624696 C9.65022903,13.6517498 10.030811,13.5075911 10.3926265,13.334452 C11.028431,13.0283006 11.6094378,12.6307495 12.1206336,12.1581468 C12.3721029,11.9255608 12.6055566,11.6729116 12.8209944,11.4061437 C13.0567,11.1126247 13.269886,10.7997854 13.456799,10.4705983 C14.0235433,9.4689183 14.3478261,8.31564872 14.3478261,7.0843551 C14.3478261,3.25077408 11.2070869,0.141701964 7.33370866,0.141701964 C3.45882915,0.141701964 0.31884058,3.25077408 0.31884058,7.0843551 C0.31884058,8.31490563 0.642372751,9.4689183 1.2098677,10.4705983 C1.39452875,10.7997854 1.60696403,11.1133678 1.84342026,11.4061437 Z"/>
      <path fill="#FFF" d="M4.30768373,6.05475412 C4.10404376,5.77723244 3.74892965,5.74911147 3.51630866,5.99298019 C3.28291484,6.2363879 3.26011644,6.65958541 3.46452924,6.93756808 L5.49010937,9.69111786 C5.6585857,9.92023459 5.89970779,10.0548464 6.15049022,10.0608394 L6.16787883,10.0608394 C6.4140243,10.0608394 6.65166867,9.93821357 6.8228499,9.72338782 L11.1870052,4.24809723 C11.4010783,3.98025654 11.391418,3.55659804 11.1669117,3.30166534 C10.9424054,3.04673263 10.5872913,3.05779662 10.3736045,3.32609831 L6.17560711,8.59347815 L4.30768373,6.05475412 L4.30768373,6.05475412 Z"/>
    </g>
  </g>
</svg>
