<svg xmlns="http://www.w3.org/2000/svg" width="59" height="58" viewBox="0 0 59 58">
  <g fill="none" fill-rule="evenodd" transform="translate(4 3)">
    <path fill="#FEE6E6" d="M21.248834,20.8336595 L21.248834,32.3241962 C17.3556174,32.3241962 15.5476247,28.9822655 15.5476247,27.9285221 L15.5476247,20.8336595 L21.248834,20.8336595 Z M21.248834,20.8336595 L26.9502572,20.8336595 L26.9502572,27.9285221 C26.9502572,28.9822655 25.1420506,32.3241962 21.248834,32.3241962 L21.248834,20.8336595 Z"/>
    <path fill="#FFEBEB" d="M13.8737555,16.5024037 C13.8737555,11.041255 14.8254544,6.77956275 21.248834,6.77956275 L21.248834,26.5559801 C17.6311373,26.5559801 13.8737555,22.5451693 13.8737555,16.5024037 Z M28.6239125,16.5024037 C28.6239125,22.5451693 24.8665306,26.5559801 21.248834,26.5559801 L21.248834,6.77956275 C27.6724274,6.77956275 28.6239125,11.041255 28.6239125,16.5024037 Z"/>
    <g transform="translate(16.62 14.882)">
      <path fill="#9B9B9B" d="M7.91519539,1.17117321 C8.05770746,0.941975245 8.3359453,0.829086694 8.60739685,0.904345728 C8.94331815,0.996709088 9.16726568,1.32169128 9.09940279,1.6740404 C9.03832619,1.99560172 8.73633634,2.26585007 8.40380819,2.25900834 C8.05770746,2.24874575 7.73875189,1.95455134 7.7319656,1.59878136 C7.72517931,1.4277381 7.79982848,1.2806409 7.91519539,1.17117321 Z"/>
      <path fill="#EF6B69" d="M4.62279835,8.44025967 C4.54163282,8.4396448 4.46360853,8.43733648 4.38974812,8.43295171 C3.37955792,8.37083401 2.47194773,7.89333721 2.18873006,7.40363498 C2.14243968,7.32359581 2.14606535,7.2169165 2.24515758,7.16283757 C2.34424981,7.10912404 2.4795841,7.12885554 2.54748062,7.20741615 C2.83053574,7.53517833 3.53060397,7.91300006 4.39811971,7.9656174 C4.98808547,8.00069562 5.86661146,7.89363395 6.71944687,7.17270332 C6.80202373,7.10291227 6.93965182,7.09998908 7.02681628,7.16502996 C7.11398074,7.23080163 7.10839156,7.42043174 7.02681628,7.49026813 C6.18156826,8.21388284 5.54906978,8.44727666 4.62279835,8.44025967 Z"/>
      <path fill="#9B9B9B" d="M1.76604531,1.17117321 C1.88141222,1.2806409 1.9560614,1.4277381 1.94927511,1.59878136 C1.94248882,1.95455134 1.62353324,2.24874575 1.27743252,2.25900834 C0.944904365,2.26585007 0.642914514,1.99560172 0.581837915,1.6740404 C0.513975027,1.32169128 0.737922557,0.996709088 1.07384385,0.904345728 C1.3452954,0.829086694 1.62353324,0.941975245 1.76604531,1.17117321"/>
    </g>
    <path fill="#FDDADA" d="M13.9601763,15.7750738 C13.5081781,14.1500039 12.8897557,14.1500039 12.6279261,14.562034 C12.3663105,14.9740642 12.5635383,15.9592731 13.0078356,17.5326848 C13.3635729,18.7918259 13.7203798,19.3822926 14.2209363,18.9062558 C14.7214927,18.430219 13.9601763,15.7750738 13.9601763,15.7750738"/>
    <path fill="#F1F1F1" d="M13.068373,29.1882805 L21.248834,32.5487341 L21.248834,47.3167832 L0.185676484,47.3167832 C0.185676484,47.3167832 1.38102233,36.1238467 1.96992482,33.857681 C2.92911071,30.1671094 12.3740114,29.288098 13.0125417,29.1967187 L13.068373,29.1882805 Z M29.4295088,29.1882805 L29.4851262,29.1967187 L29.4853401,29.1967187 C30.1238704,29.288098 39.5685572,30.1671094 40.5277431,33.857681 C41.1166456,36.1238467 42.3122053,47.3167832 42.3122053,47.3167832 L21.248834,47.3167832 L21.248834,32.5487341 L29.4295088,29.1882805 Z"/>
    <path fill="#F69A98" d="M21.248834 36.6216993L21.248834 47.3167832 19.1362292 47.3167832 19.5097213 36.6216993 21.248834 36.6216993zM21.248834 36.6216993L22.9879467 36.6216993 23.3616527 47.3167832 21.248834 47.3167832 21.248834 36.6216993zM21.248834 32.5487341L21.248834 36.6216993 19.5097213 36.6216993 18.3982293 34.7848517 19.7185004 32.5487341 21.248834 32.5487341zM21.248834 32.5487341L22.7791676 32.5487341 24.0996525 34.7848517 22.9879467 36.6216993 21.248834 36.6216993 21.248834 32.5487341z"/>
    <path fill="#CFCFCF" d="M17.6550956,29.1882805 L15.5476247,27.4028852 C14.5315379,27.9523959 13.068373,29.1882805 13.068373,29.1882805 L19.8235316,36.4786619 L21.248834,32.5487341 L21.248834,32.2330227 L17.6550956,29.1882805"/>
    <path fill="#FDDADA" d="M28.5374916,15.7750738 C28.9894898,14.1500039 29.6081262,14.1500039 29.8697418,14.562034 C30.1313574,14.9740642 29.9341296,15.9592731 29.4898323,17.5326848 C29.134095,18.7918259 28.777502,19.3822926 28.2767317,18.9062558 C27.7761752,18.430219 28.5374916,15.7750738 28.5374916,15.7750738"/>
    <path fill="#5D857C" d="M21.248834,32.5487341 L21.3560044,32.4334809 L21.4845661,32.32008 C21.6137695,32.3155522 21.7408339,32.3073198 21.8653312,32.2953829 L21.248834,32.5487341 M25.0577688,30.9841721 C26.3376103,29.9306345 26.9502572,28.5420395 26.9502572,27.9285221 L26.9502572,27.4028852 C27.9663439,27.9752408 29.4295088,29.1882805 29.4295088,29.1882805 L25.0577688,30.9841721"/>
    <path fill="#A68A77" d="M21.4845661,32.32008 L24.9497428,29.2625777 L26.9502572,27.4028852 L26.9502572,27.9285221 C26.9502572,28.5420395 26.3376103,29.9306345 25.0577688,30.9841721 L21.8653312,32.2953829 C21.7408339,32.3073198 21.6137695,32.3155522 21.4845661,32.32008"/>
    <path fill="#CFCFCF" d="M24.8427863,29.1882805 L26.9502572,27.4028852 C27.9663439,27.9523959 29.4295088,29.1882805 29.4295088,29.1882805 L22.6741363,36.4786619 L21.248834,32.5487341 L21.248834,32.2330227 L24.8427863,29.1882805"/>
    <path fill="#AAA" d="M16.8788053,12.3187131 C16.8788053,12.3187131 19.3047926,11.7021086 21.248834,10.5469012 L21.248834,11.213929 C19.0562257,12.0095876 16.8788053,12.3187131 16.8788053,12.3187131 Z M13.5670042,7.71805297 C14.3565571,4.55785182 17.1091896,2.81958683 21.248834,2.81958683 L21.248834,9.49459848 C19.2166605,10.5995884 16.5583636,11.156714 15.4855899,11.3483225 C13.9419937,13.6710857 14.5118579,16.9916123 13.8624181,16.8666861 C13.7094703,16.4530095 12.4264201,12.2826965 13.5670042,7.71805297 Z M24.9351967,9.01238739 C24.0891708,9.98257223 22.6660076,10.6996117 21.248834,11.213929 L21.248834,10.5469012 C22.0007382,10.1000893 22.6807676,9.572806 23.119931,8.96937325 C22.5977693,9.51744331 21.9354947,9.96754815 21.248834,10.3330654 L21.248834,9.50365409 L21.2725783,9.48224992 L21.248834,9.49459848 L21.248834,2.81958683 C21.799446,2.81958683 22.3318755,2.84263747 22.8401328,2.89244331 C21.8373086,2.25896241 21.5572965,1.85701693 21.5572965,1.85701693 C23.3809048,1.80659366 24.3364542,2.54853604 25.2693288,3.45800715 L25.2990627,3.47241379 C24.7392524,2.60678006 24.0196491,1.96506679 24.0196491,1.96506679 C25.4083722,2.28612923 26.1677634,3.22852982 26.5799737,4.08428472 C26.5964451,3.27339624 26.4005007,2.51725303 26.4005007,2.51725303 C26.4005007,2.51725303 27.6448327,4.13223827 27.3941266,5.84951072 C27.3941266,5.84951072 28.9576167,6.05902454 29.4295088,7.52006446 C31.0599537,12.569183 28.7884116,16.4530095 28.6352499,16.8666861 C27.9500865,16.998404 29.4295088,13.9336984 27.0548606,10.6201693 C26.5267094,9.88316636 25.8207965,9.36102827 24.9351967,9.01238739 Z M17.4133739,11.6782347 C17.4133739,11.6782347 19.7112273,10.9173579 21.248834,9.50365409 L21.248834,10.3330654 C19.4183804,11.307778 17.4133739,11.6782347 17.4133739,11.6782347 Z"/>
    <g fill="#DADADA" transform="translate(5.198)">
      <path d="M16.3487893,0.23147792 L0.763797204,6.02533953 L0.763797204,7.41292675 L7.59209379,9.28958789 L7.59209379,13.4912706 C7.59209379,13.4912706 10.3089936,12.7015827 16.3487893,12.312372 C22.2320444,12.6703434 25.1057368,13.4912706 25.1057368,13.4912706 L25.1057368,9.28958789 L31.9337813,7.41292675 L31.9337813,6.02533953 L16.3487893,0.23147792"/>
      <path d="M30.3847603,16.9170926 C30.6537278,16.8658807 30.8576591,16.6272331 30.8576591,16.3389099 C30.8576591,16.0137142 30.5980185,15.7497167 30.2773749,15.7497167 L30.1785602,15.7497167 L30.1785602,5.00212518 C30.1785602,4.5540208 29.8213653,4.19092822 29.3804804,4.19092822 C28.9395955,4.19092822 28.5821484,4.5540208 28.5821484,5.00212518 L28.5821484,15.7497167 L28.5758465,15.7497167 C28.2557071,15.7497167 27.9958144,16.0137142 27.9958144,16.3389099 C27.9958144,16.596762 28.1599173,16.8133885 28.3867878,16.8935351 C27.595262,18.6106711 27.0938782,19.8884088 27.3068844,20.0778929 C28.8082627,21.4160606 29.952446,21.4160606 31.4538243,20.0778929 C31.6658221,19.8891769 31.1745215,18.6303877 30.3847603,16.9170926"/>
    </g>
    <g transform="translate(31.28 39.38)">
      <path fill="#FEBBBA" d="M1.88795058,11.5157891 C2.10782388,11.7843712 2.34845445,12.0394491 2.60676715,12.2750211 C3.12954283,12.7521669 3.72458457,13.1535395 4.37574782,13.462634 C4.74630352,13.6374374 5.13531014,13.7829819 5.53892372,13.894766 C5.88872216,13.9915456 6.25005241,14.0643178 6.61983933,14.1085814 C6.9112099,14.1430919 7.20873076,14.1633481 7.51009557,14.1633481 C7.81146038,14.1633481 8.10744367,14.1430919 8.39881424,14.1085814 C8.76936995,14.0635676 9.12993141,13.9915456 9.48049864,13.894766 C9.88334343,13.7829819 10.2731188,13.6374374 10.6436745,13.462634 C11.2948378,13.1535395 11.8898795,12.7521669 12.413424,12.2750211 C12.6709679,12.0401994 12.9100609,11.7851214 13.130703,11.5157891 C13.3721024,11.2194486 13.5904381,10.9036021 13.7818662,10.5712505 C14.362301,9.5599415 14.6944173,8.39558573 14.6944173,7.15245588 C14.6944173,3.28202325 11.4778093,0.143064122 7.51086436,0.143064122 C3.54238187,0.143064122 0.326542607,3.28202325 0.326542607,7.15245588 C0.326542607,8.3948355 0.657890138,9.5599415 1.2390937,10.5712505 C1.42821549,10.9036021 1.64578243,11.2201988 1.88795058,11.5157891 Z"/>
      <path fill="#FFF" d="M4.41174168,6.1129575 C4.20318251,5.83276806 3.83949014,5.80437677 3.60124988,6.05058975 C3.36221811,6.29633731 3.33886898,6.72360294 3.54821965,7.00425782 L5.62273042,9.78427703 C5.79527653,10.0155962 6.04222325,10.1515021 6.29906367,10.1575527 L6.31687233,10.1575527 C6.56896377,10.1575527 6.81234877,10.033748 6.98766511,9.8168572 L11.4572425,4.28893351 C11.6764869,4.01851811 11.6665932,3.59078705 11.4366636,3.33340372 C11.206734,3.07602039 10.8430417,3.08719073 10.624193,3.35807156 L6.32478729,8.67608588 L4.41174168,6.1129575 L4.41174168,6.1129575 Z"/>
    </g>
  </g>
</svg>
