<svg xmlns="http://www.w3.org/2000/svg" width="60" height="58" viewBox="0 0 60 58">
  <g fill="none" fill-rule="evenodd" transform="translate(2 9)">
    <polygon fill="#F1F1F1" points=".364 36.028 20.68 15.949 23.923 19.153 3.607 39.233"/>
    <polygon fill="#F69A98" points="22.338 14.299 26.879 9.811 30.121 13.016 25.581 17.503"/>
    <polygon fill="#FEBBBA" points="41.155 9.746 34.728 6.047 38.471 12.463 34.728 18.816 41.155 15.116 47.647 18.816 43.904 12.463 47.647 6.047"/>
    <polygon fill="#FEBBBA" points="34.658 27.606 31.272 25.719 33.246 29.07 31.272 32.42 34.658 30.465 38.048 32.42 36.07 29.07 38.048 25.719"/>
    <polygon fill="#FEBBBA" points="18.845 6.047 22.588 8.14 20.401 4.513 22.588 .814 18.845 2.907 15.107 .814 17.294 4.513 15.107 8.14"/>
    <polygon fill="#FEBBBA" points="42.423 23.071 40.022 21.675 41.364 24.117 40.022 26.49 42.423 25.095 44.824 26.49 43.481 24.117 44.824 21.675"/>
  </g>
</svg>
